G04 EAGLE Gerber X2 export*
%TF.Part,Single*%
%TF.FileFunction,Copper,L2,Bot,Mixed*%
%TF.FilePolarity,Positive*%
%TF.GenerationSoftware,Autodesk,EAGLE,9.2.2*%
%TF.CreationDate,2019-03-16T21:44:51Z*%
G75*
%MOMM*%
%FSLAX34Y34*%
%LPD*%
%INBottom Copper*%
%AMOC8*
5,1,8,0,0,1.08239X$1,22.5*%
G01*
%ADD10P,2.336880X8X202.500000*%
%ADD11R,1.350000X1.350000*%
%ADD12C,1.350000*%
%ADD13C,1.408000*%
%ADD14R,1.408000X1.408000*%
%ADD15C,1.950000*%
%ADD16P,2.336880X8X22.500000*%
%ADD17P,1.429621X8X22.500000*%
%ADD18C,1.308000*%
%ADD19R,1.879600X1.879600*%
%ADD20P,3.247170X8X292.500000*%
%ADD21P,3.247170X8X22.500000*%
%ADD22P,3.247170X8X202.500000*%
%ADD23P,1.429621X8X202.500000*%
%ADD24C,1.879600*%
%ADD25C,1.955800*%
%ADD26C,1.879600*%
%ADD27C,1.143000*%
%ADD28C,0.152400*%
%ADD29C,0.756400*%

G36*
X434162Y3100D02*
X434162Y3100D01*
X434181Y3098D01*
X434283Y3120D01*
X434385Y3136D01*
X434402Y3146D01*
X434422Y3150D01*
X434511Y3203D01*
X434602Y3252D01*
X434616Y3266D01*
X434633Y3276D01*
X434700Y3355D01*
X434772Y3430D01*
X434780Y3448D01*
X434793Y3463D01*
X434832Y3559D01*
X434875Y3653D01*
X434877Y3673D01*
X434885Y3691D01*
X434903Y3858D01*
X434903Y6283D01*
X436717Y8097D01*
X449283Y8097D01*
X451097Y6283D01*
X451097Y3858D01*
X451100Y3838D01*
X451098Y3819D01*
X451120Y3717D01*
X451136Y3615D01*
X451146Y3598D01*
X451150Y3578D01*
X451203Y3489D01*
X451252Y3398D01*
X451266Y3384D01*
X451276Y3367D01*
X451355Y3300D01*
X451430Y3228D01*
X451448Y3220D01*
X451463Y3207D01*
X451559Y3168D01*
X451653Y3125D01*
X451673Y3123D01*
X451691Y3115D01*
X451858Y3097D01*
X833380Y3097D01*
X833447Y3108D01*
X833515Y3109D01*
X833568Y3127D01*
X833623Y3136D01*
X833683Y3168D01*
X833747Y3191D01*
X833791Y3225D01*
X833840Y3252D01*
X833887Y3301D01*
X833940Y3342D01*
X833971Y3389D01*
X834010Y3430D01*
X834038Y3491D01*
X834076Y3548D01*
X834090Y3602D01*
X834113Y3653D01*
X834121Y3720D01*
X834138Y3786D01*
X834134Y3842D01*
X834141Y3897D01*
X834126Y3964D01*
X834122Y4031D01*
X834100Y4083D01*
X834088Y4138D01*
X834054Y4196D01*
X834028Y4259D01*
X833991Y4301D01*
X833962Y4349D01*
X833911Y4393D01*
X833866Y4444D01*
X833800Y4487D01*
X833775Y4509D01*
X833756Y4517D01*
X833726Y4536D01*
X827284Y7819D01*
X818734Y16369D01*
X813244Y27142D01*
X811353Y39085D01*
X813244Y51028D01*
X818734Y61801D01*
X827284Y70351D01*
X838057Y75841D01*
X850000Y77732D01*
X861943Y75841D01*
X872716Y70351D01*
X880604Y62464D01*
X880662Y62422D01*
X880714Y62373D01*
X880761Y62351D01*
X880803Y62320D01*
X880872Y62299D01*
X880937Y62269D01*
X880989Y62263D01*
X881039Y62248D01*
X881110Y62250D01*
X881181Y62242D01*
X881232Y62253D01*
X881284Y62254D01*
X881352Y62279D01*
X881422Y62294D01*
X881467Y62321D01*
X881515Y62339D01*
X881571Y62384D01*
X881633Y62420D01*
X881667Y62460D01*
X881707Y62492D01*
X881746Y62553D01*
X881793Y62607D01*
X881812Y62656D01*
X881840Y62699D01*
X881858Y62769D01*
X881885Y62835D01*
X881893Y62907D01*
X881901Y62938D01*
X881899Y62961D01*
X881903Y63002D01*
X881903Y118657D01*
X881900Y118677D01*
X881902Y118696D01*
X881880Y118798D01*
X881864Y118900D01*
X881854Y118917D01*
X881850Y118937D01*
X881797Y119026D01*
X881748Y119117D01*
X881734Y119131D01*
X881724Y119148D01*
X881645Y119215D01*
X881570Y119286D01*
X881552Y119295D01*
X881537Y119308D01*
X881441Y119346D01*
X881347Y119390D01*
X881327Y119392D01*
X881309Y119400D01*
X881142Y119418D01*
X811088Y119418D01*
X811017Y119407D01*
X810945Y119405D01*
X810897Y119387D01*
X810845Y119378D01*
X810782Y119345D01*
X810714Y119320D01*
X810674Y119288D01*
X810628Y119263D01*
X810578Y119211D01*
X810522Y119167D01*
X810494Y119123D01*
X810458Y119085D01*
X810428Y119020D01*
X810389Y118960D01*
X810377Y118909D01*
X810355Y118862D01*
X810347Y118791D01*
X810329Y118721D01*
X810333Y118669D01*
X810328Y118617D01*
X810343Y118547D01*
X810349Y118476D01*
X810369Y118428D01*
X810380Y118377D01*
X810417Y118315D01*
X810445Y118250D01*
X810490Y118194D01*
X810506Y118166D01*
X810524Y118151D01*
X810550Y118119D01*
X812193Y116476D01*
X814095Y111883D01*
X814095Y88117D01*
X812193Y83524D01*
X808678Y80009D01*
X804085Y78107D01*
X799115Y78107D01*
X794522Y80009D01*
X791007Y83524D01*
X789603Y86914D01*
X789565Y86975D01*
X789536Y87041D01*
X789501Y87079D01*
X789474Y87123D01*
X789418Y87169D01*
X789370Y87222D01*
X789324Y87247D01*
X789284Y87280D01*
X789217Y87306D01*
X789154Y87340D01*
X789103Y87350D01*
X789055Y87368D01*
X788983Y87371D01*
X788912Y87384D01*
X788861Y87377D01*
X788809Y87379D01*
X788740Y87359D01*
X788669Y87348D01*
X788623Y87325D01*
X788573Y87310D01*
X788514Y87269D01*
X788450Y87237D01*
X788413Y87200D01*
X788371Y87170D01*
X788328Y87112D01*
X788278Y87061D01*
X788243Y86998D01*
X788224Y86973D01*
X788217Y86950D01*
X788197Y86914D01*
X786793Y83524D01*
X783278Y80009D01*
X778685Y78107D01*
X773715Y78107D01*
X769122Y80009D01*
X765607Y83524D01*
X764203Y86914D01*
X764165Y86975D01*
X764136Y87041D01*
X764101Y87079D01*
X764074Y87123D01*
X764018Y87169D01*
X763970Y87222D01*
X763924Y87247D01*
X763884Y87280D01*
X763817Y87306D01*
X763754Y87340D01*
X763703Y87350D01*
X763655Y87368D01*
X763583Y87371D01*
X763512Y87384D01*
X763461Y87377D01*
X763409Y87379D01*
X763340Y87359D01*
X763269Y87348D01*
X763223Y87325D01*
X763173Y87310D01*
X763114Y87269D01*
X763050Y87237D01*
X763013Y87200D01*
X762971Y87170D01*
X762928Y87112D01*
X762878Y87061D01*
X762843Y86998D01*
X762824Y86973D01*
X762817Y86950D01*
X762797Y86914D01*
X761393Y83524D01*
X757878Y80009D01*
X753285Y78107D01*
X748315Y78107D01*
X743722Y80009D01*
X740207Y83524D01*
X738803Y86914D01*
X738765Y86975D01*
X738736Y87041D01*
X738701Y87079D01*
X738674Y87123D01*
X738618Y87169D01*
X738570Y87222D01*
X738524Y87247D01*
X738484Y87280D01*
X738417Y87306D01*
X738354Y87340D01*
X738303Y87350D01*
X738255Y87368D01*
X738183Y87371D01*
X738112Y87384D01*
X738061Y87377D01*
X738009Y87379D01*
X737940Y87359D01*
X737869Y87348D01*
X737823Y87325D01*
X737773Y87310D01*
X737714Y87269D01*
X737650Y87237D01*
X737613Y87200D01*
X737571Y87170D01*
X737528Y87112D01*
X737478Y87061D01*
X737443Y86998D01*
X737424Y86973D01*
X737417Y86950D01*
X737397Y86914D01*
X735993Y83524D01*
X732478Y80009D01*
X727885Y78107D01*
X722915Y78107D01*
X718322Y80009D01*
X714807Y83524D01*
X713045Y87779D01*
X712992Y87866D01*
X712943Y87954D01*
X712927Y87969D01*
X712915Y87988D01*
X712837Y88053D01*
X712763Y88122D01*
X712743Y88131D01*
X712726Y88145D01*
X712631Y88181D01*
X712539Y88223D01*
X712517Y88225D01*
X712496Y88233D01*
X712395Y88238D01*
X712294Y88248D01*
X712273Y88243D01*
X712251Y88244D01*
X712153Y88215D01*
X712055Y88193D01*
X712036Y88181D01*
X712014Y88175D01*
X711931Y88117D01*
X711845Y88065D01*
X711830Y88048D01*
X711812Y88035D01*
X711752Y87954D01*
X711687Y87876D01*
X711676Y87851D01*
X711665Y87838D01*
X711655Y87806D01*
X711618Y87723D01*
X711064Y86019D01*
X710211Y84345D01*
X709106Y82824D01*
X707778Y81496D01*
X706257Y80391D01*
X704583Y79538D01*
X702796Y78957D01*
X701523Y78756D01*
X701523Y99238D01*
X701520Y99258D01*
X701522Y99277D01*
X701500Y99379D01*
X701483Y99481D01*
X701474Y99498D01*
X701470Y99518D01*
X701417Y99607D01*
X701368Y99698D01*
X701354Y99712D01*
X701344Y99729D01*
X701265Y99796D01*
X701190Y99867D01*
X701172Y99876D01*
X701157Y99889D01*
X701061Y99927D01*
X700967Y99971D01*
X700947Y99973D01*
X700929Y99981D01*
X700762Y99999D01*
X699999Y99999D01*
X699999Y100001D01*
X700762Y100001D01*
X700782Y100004D01*
X700801Y100002D01*
X700903Y100024D01*
X701005Y100041D01*
X701022Y100050D01*
X701042Y100054D01*
X701131Y100107D01*
X701222Y100156D01*
X701236Y100170D01*
X701253Y100180D01*
X701320Y100259D01*
X701391Y100334D01*
X701400Y100352D01*
X701413Y100367D01*
X701452Y100463D01*
X701495Y100557D01*
X701497Y100577D01*
X701505Y100595D01*
X701523Y100762D01*
X701523Y121244D01*
X702796Y121043D01*
X704583Y120462D01*
X706257Y119609D01*
X707778Y118504D01*
X709106Y117176D01*
X710211Y115655D01*
X711064Y113981D01*
X711618Y112277D01*
X711664Y112187D01*
X711705Y112094D01*
X711720Y112078D01*
X711731Y112058D01*
X711803Y111988D01*
X711872Y111913D01*
X711891Y111902D01*
X711907Y111887D01*
X711998Y111843D01*
X712087Y111795D01*
X712109Y111791D01*
X712129Y111781D01*
X712230Y111769D01*
X712329Y111751D01*
X712351Y111754D01*
X712373Y111751D01*
X712472Y111772D01*
X712573Y111787D01*
X712592Y111797D01*
X712614Y111801D01*
X712702Y111852D01*
X712792Y111898D01*
X712807Y111914D01*
X712827Y111925D01*
X712893Y112001D01*
X712964Y112074D01*
X712977Y112098D01*
X712988Y112110D01*
X713001Y112141D01*
X713045Y112221D01*
X714807Y116476D01*
X718322Y119991D01*
X722915Y121893D01*
X727885Y121893D01*
X732478Y119991D01*
X735993Y116476D01*
X737397Y113086D01*
X737435Y113025D01*
X737464Y112959D01*
X737499Y112921D01*
X737526Y112877D01*
X737582Y112831D01*
X737630Y112778D01*
X737676Y112753D01*
X737716Y112720D01*
X737783Y112694D01*
X737846Y112660D01*
X737897Y112650D01*
X737945Y112632D01*
X738017Y112629D01*
X738088Y112616D01*
X738139Y112623D01*
X738191Y112621D01*
X738260Y112641D01*
X738331Y112652D01*
X738377Y112675D01*
X738427Y112690D01*
X738486Y112731D01*
X738550Y112763D01*
X738587Y112800D01*
X738629Y112830D01*
X738672Y112888D01*
X738722Y112939D01*
X738757Y113002D01*
X738776Y113027D01*
X738783Y113050D01*
X738803Y113086D01*
X740207Y116476D01*
X743722Y119991D01*
X748315Y121893D01*
X753285Y121893D01*
X757878Y119991D01*
X761393Y116476D01*
X762797Y113086D01*
X762835Y113025D01*
X762864Y112959D01*
X762899Y112921D01*
X762926Y112877D01*
X762982Y112831D01*
X763030Y112778D01*
X763076Y112753D01*
X763116Y112720D01*
X763183Y112694D01*
X763246Y112660D01*
X763297Y112650D01*
X763345Y112632D01*
X763417Y112629D01*
X763488Y112616D01*
X763539Y112623D01*
X763591Y112621D01*
X763660Y112641D01*
X763731Y112652D01*
X763777Y112675D01*
X763827Y112690D01*
X763886Y112731D01*
X763950Y112763D01*
X763987Y112800D01*
X764029Y112830D01*
X764072Y112888D01*
X764122Y112939D01*
X764157Y113002D01*
X764176Y113027D01*
X764183Y113050D01*
X764203Y113086D01*
X765607Y116476D01*
X769122Y119991D01*
X773715Y121893D01*
X778685Y121893D01*
X783278Y119991D01*
X786793Y116476D01*
X788197Y113086D01*
X788235Y113025D01*
X788264Y112959D01*
X788299Y112921D01*
X788326Y112877D01*
X788382Y112831D01*
X788430Y112778D01*
X788476Y112753D01*
X788516Y112720D01*
X788583Y112694D01*
X788646Y112660D01*
X788697Y112650D01*
X788745Y112632D01*
X788817Y112629D01*
X788888Y112616D01*
X788939Y112623D01*
X788991Y112621D01*
X789060Y112641D01*
X789131Y112652D01*
X789177Y112675D01*
X789227Y112690D01*
X789286Y112731D01*
X789350Y112763D01*
X789387Y112800D01*
X789429Y112830D01*
X789472Y112888D01*
X789522Y112939D01*
X789557Y113002D01*
X789576Y113027D01*
X789583Y113050D01*
X789603Y113086D01*
X791007Y116476D01*
X792650Y118119D01*
X792692Y118177D01*
X792742Y118229D01*
X792764Y118276D01*
X792794Y118318D01*
X792815Y118387D01*
X792845Y118452D01*
X792851Y118504D01*
X792866Y118553D01*
X792864Y118625D01*
X792872Y118696D01*
X792861Y118747D01*
X792860Y118799D01*
X792835Y118867D01*
X792820Y118937D01*
X792793Y118981D01*
X792775Y119030D01*
X792731Y119086D01*
X792694Y119148D01*
X792654Y119182D01*
X792622Y119222D01*
X792561Y119261D01*
X792507Y119308D01*
X792459Y119327D01*
X792415Y119355D01*
X792345Y119373D01*
X792279Y119400D01*
X792207Y119408D01*
X792176Y119415D01*
X792153Y119414D01*
X792112Y119418D01*
X790696Y119418D01*
X790692Y119417D01*
X790686Y119418D01*
X789088Y119397D01*
X787958Y120526D01*
X787955Y120529D01*
X787951Y120533D01*
X786806Y121648D01*
X786806Y123246D01*
X786805Y123250D01*
X786806Y123256D01*
X785816Y197216D01*
X785801Y197301D01*
X785794Y197387D01*
X785790Y197396D01*
X785790Y199113D01*
X785790Y199117D01*
X785790Y199123D01*
X785769Y200722D01*
X786898Y201852D01*
X786901Y201855D01*
X786906Y201859D01*
X788020Y203004D01*
X789618Y203004D01*
X789622Y203005D01*
X789628Y203004D01*
X791348Y203027D01*
X791360Y203022D01*
X791408Y203017D01*
X791433Y203010D01*
X791463Y203011D01*
X791527Y203004D01*
X817826Y203004D01*
X817850Y203008D01*
X817875Y203006D01*
X817971Y203028D01*
X818069Y203044D01*
X818090Y203055D01*
X818114Y203061D01*
X818199Y203113D01*
X818286Y203159D01*
X818303Y203177D01*
X818324Y203190D01*
X818387Y203266D01*
X818455Y203337D01*
X818466Y203360D01*
X818482Y203379D01*
X818517Y203471D01*
X818559Y203560D01*
X818562Y203585D01*
X818571Y203608D01*
X818587Y203775D01*
X816198Y394617D01*
X816196Y394629D01*
X816198Y394642D01*
X816175Y394750D01*
X816156Y394859D01*
X816149Y394870D01*
X816147Y394883D01*
X816091Y394978D01*
X816038Y395075D01*
X816028Y395084D01*
X816022Y395095D01*
X815938Y395167D01*
X815857Y395242D01*
X815846Y395247D01*
X815836Y395256D01*
X815733Y395298D01*
X815633Y395343D01*
X815620Y395344D01*
X815608Y395349D01*
X815442Y395369D01*
X639436Y396429D01*
X639414Y396426D01*
X639392Y396428D01*
X639293Y396407D01*
X639193Y396391D01*
X639173Y396381D01*
X639151Y396376D01*
X639065Y396324D01*
X638975Y396277D01*
X638959Y396261D01*
X638940Y396250D01*
X638875Y396173D01*
X638804Y396100D01*
X638795Y396080D01*
X638780Y396063D01*
X638743Y395969D01*
X638699Y395878D01*
X638697Y395856D01*
X638689Y395835D01*
X638670Y395668D01*
X638670Y386969D01*
X638686Y386873D01*
X638695Y386776D01*
X638706Y386752D01*
X638710Y386727D01*
X638755Y386641D01*
X638795Y386552D01*
X638813Y386532D01*
X638825Y386509D01*
X638895Y386442D01*
X638961Y386370D01*
X638984Y386358D01*
X639003Y386340D01*
X639092Y386299D01*
X639177Y386252D01*
X639203Y386247D01*
X639226Y386236D01*
X639323Y386225D01*
X639419Y386208D01*
X639445Y386212D01*
X639471Y386209D01*
X639566Y386230D01*
X639662Y386244D01*
X639686Y386256D01*
X639711Y386261D01*
X639795Y386311D01*
X639881Y386355D01*
X639900Y386374D01*
X639922Y386388D01*
X639985Y386461D01*
X640054Y386531D01*
X640069Y386560D01*
X640082Y386574D01*
X640095Y386605D01*
X640135Y386678D01*
X640859Y388427D01*
X644473Y392041D01*
X649195Y393997D01*
X673805Y393997D01*
X678527Y392041D01*
X682141Y388427D01*
X684097Y383705D01*
X684097Y378595D01*
X682141Y373873D01*
X678527Y370259D01*
X673805Y368303D01*
X649195Y368303D01*
X644473Y370259D01*
X640859Y373873D01*
X640135Y375622D01*
X640083Y375705D01*
X640038Y375791D01*
X640019Y375809D01*
X640005Y375831D01*
X639930Y375893D01*
X639859Y375960D01*
X639836Y375971D01*
X639816Y375988D01*
X639725Y376023D01*
X639636Y376064D01*
X639610Y376067D01*
X639586Y376076D01*
X639489Y376080D01*
X639392Y376091D01*
X639366Y376085D01*
X639340Y376086D01*
X639247Y376059D01*
X639151Y376039D01*
X639129Y376025D01*
X639104Y376018D01*
X639024Y375962D01*
X638940Y375912D01*
X638923Y375893D01*
X638902Y375878D01*
X638844Y375800D01*
X638780Y375726D01*
X638771Y375701D01*
X638755Y375680D01*
X638725Y375588D01*
X638689Y375497D01*
X638685Y375465D01*
X638679Y375446D01*
X638679Y375413D01*
X638670Y375331D01*
X638670Y284038D01*
X515973Y161341D01*
X484252Y161341D01*
X484162Y161326D01*
X484071Y161319D01*
X484041Y161307D01*
X484009Y161301D01*
X483928Y161259D01*
X483844Y161223D01*
X483812Y161197D01*
X483792Y161186D01*
X483769Y161163D01*
X483713Y161118D01*
X474813Y152218D01*
X354139Y152218D01*
X354049Y152203D01*
X353958Y152196D01*
X353928Y152184D01*
X353896Y152178D01*
X353816Y152136D01*
X353732Y152100D01*
X353700Y152074D01*
X353679Y152063D01*
X353657Y152040D01*
X353601Y151995D01*
X353356Y151751D01*
X345024Y151751D01*
X335440Y161335D01*
X335365Y161389D01*
X335295Y161449D01*
X335265Y161461D01*
X335240Y161479D01*
X335152Y161506D01*
X335066Y161540D01*
X335027Y161545D01*
X335005Y161551D01*
X334973Y161550D01*
X334899Y161558D01*
X264972Y161347D01*
X264932Y161340D01*
X263058Y161341D01*
X263057Y161341D01*
X263055Y161341D01*
X261462Y161336D01*
X260332Y162467D01*
X260331Y162468D01*
X260330Y162469D01*
X259197Y163595D01*
X259197Y165198D01*
X259197Y165199D01*
X259197Y165201D01*
X259192Y167048D01*
X259198Y167106D01*
X259299Y397961D01*
X259296Y397981D01*
X259298Y398001D01*
X259276Y398102D01*
X259260Y398204D01*
X259250Y398221D01*
X259246Y398241D01*
X259193Y398330D01*
X259145Y398421D01*
X259130Y398435D01*
X259120Y398452D01*
X259041Y398519D01*
X258966Y398591D01*
X258948Y398599D01*
X258933Y398612D01*
X258837Y398651D01*
X258743Y398694D01*
X258723Y398697D01*
X258705Y398704D01*
X258538Y398723D01*
X156975Y398723D01*
X156975Y398722D01*
X156974Y398723D01*
X155379Y398719D01*
X154244Y399854D01*
X154243Y399854D01*
X154243Y399855D01*
X153115Y400978D01*
X153115Y402582D01*
X153115Y402583D01*
X153115Y402584D01*
X152668Y626110D01*
X152665Y626133D01*
X152665Y628022D01*
X152665Y628023D01*
X152665Y628024D01*
X152661Y629621D01*
X153796Y630756D01*
X153797Y630757D01*
X155118Y632083D01*
X155144Y632104D01*
X203438Y680398D01*
X205922Y682882D01*
X320217Y682882D01*
X320307Y682896D01*
X320398Y682903D01*
X320428Y682916D01*
X320460Y682921D01*
X320540Y682964D01*
X320624Y683000D01*
X320656Y683025D01*
X320677Y683036D01*
X320687Y683047D01*
X320688Y683048D01*
X320702Y683062D01*
X320755Y683105D01*
X351968Y714318D01*
X386910Y714318D01*
X387000Y714333D01*
X387091Y714340D01*
X387121Y714352D01*
X387153Y714358D01*
X387233Y714400D01*
X387317Y714436D01*
X387349Y714462D01*
X387370Y714473D01*
X387392Y714496D01*
X387448Y714541D01*
X391004Y718097D01*
X405996Y718097D01*
X409552Y714541D01*
X409626Y714488D01*
X409695Y714428D01*
X409725Y714416D01*
X409752Y714397D01*
X409839Y714370D01*
X409923Y714336D01*
X409964Y714332D01*
X409987Y714325D01*
X410019Y714326D01*
X410090Y714318D01*
X474910Y714318D01*
X475000Y714333D01*
X475091Y714340D01*
X475121Y714352D01*
X475153Y714358D01*
X475233Y714400D01*
X475317Y714436D01*
X475349Y714462D01*
X475370Y714473D01*
X475392Y714496D01*
X475448Y714541D01*
X479004Y718097D01*
X493996Y718097D01*
X497552Y714541D01*
X497626Y714488D01*
X497695Y714428D01*
X497725Y714416D01*
X497752Y714397D01*
X497839Y714370D01*
X497923Y714336D01*
X497964Y714332D01*
X497987Y714325D01*
X498019Y714326D01*
X498090Y714318D01*
X549228Y714318D01*
X549247Y714321D01*
X549267Y714319D01*
X549368Y714341D01*
X549470Y714358D01*
X549488Y714367D01*
X549507Y714371D01*
X549596Y714424D01*
X549688Y714473D01*
X549701Y714487D01*
X549718Y714497D01*
X549786Y714576D01*
X549857Y714651D01*
X549865Y714669D01*
X549878Y714684D01*
X549917Y714780D01*
X549961Y714874D01*
X549963Y714894D01*
X549970Y714912D01*
X549989Y715079D01*
X549989Y789871D01*
X549977Y789942D01*
X549975Y790014D01*
X549957Y790063D01*
X549949Y790114D01*
X549916Y790177D01*
X549891Y790245D01*
X549858Y790285D01*
X549834Y790331D01*
X549782Y790381D01*
X549737Y790437D01*
X549693Y790465D01*
X549656Y790501D01*
X549591Y790531D01*
X549530Y790570D01*
X549480Y790582D01*
X549433Y790604D01*
X549361Y790612D01*
X549292Y790630D01*
X549240Y790626D01*
X549188Y790631D01*
X549118Y790616D01*
X549047Y790611D01*
X548999Y790590D01*
X548948Y790579D01*
X548886Y790542D01*
X548820Y790514D01*
X548764Y790470D01*
X548737Y790453D01*
X548721Y790435D01*
X548689Y790410D01*
X547913Y789633D01*
X546344Y788493D01*
X544616Y787613D01*
X542772Y787014D01*
X540857Y786710D01*
X531631Y786710D01*
X531631Y798268D01*
X531628Y798288D01*
X531630Y798307D01*
X531608Y798409D01*
X531591Y798511D01*
X531582Y798528D01*
X531578Y798548D01*
X531525Y798637D01*
X531476Y798728D01*
X531462Y798742D01*
X531452Y798759D01*
X531373Y798826D01*
X531298Y798897D01*
X531280Y798906D01*
X531265Y798919D01*
X531169Y798957D01*
X531075Y799001D01*
X531055Y799003D01*
X531037Y799011D01*
X530870Y799029D01*
X530107Y799029D01*
X530107Y799792D01*
X530104Y799812D01*
X530106Y799831D01*
X530084Y799933D01*
X530067Y800035D01*
X530058Y800052D01*
X530054Y800072D01*
X530001Y800161D01*
X529952Y800252D01*
X529938Y800266D01*
X529928Y800283D01*
X529849Y800350D01*
X529774Y800421D01*
X529756Y800430D01*
X529741Y800443D01*
X529645Y800482D01*
X529551Y800525D01*
X529531Y800527D01*
X529513Y800535D01*
X529346Y800553D01*
X508097Y800553D01*
X508313Y801915D01*
X508912Y803759D01*
X509792Y805487D01*
X510932Y807056D01*
X512303Y808427D01*
X513872Y809567D01*
X515600Y810447D01*
X516350Y810691D01*
X516440Y810737D01*
X516533Y810779D01*
X516549Y810794D01*
X516569Y810804D01*
X516639Y810876D01*
X516714Y810945D01*
X516725Y810964D01*
X516740Y810980D01*
X516784Y811072D01*
X516832Y811160D01*
X516836Y811182D01*
X516846Y811202D01*
X516858Y811303D01*
X516876Y811403D01*
X516873Y811424D01*
X516876Y811446D01*
X516855Y811545D01*
X516840Y811646D01*
X516830Y811666D01*
X516826Y811687D01*
X516775Y811775D01*
X516729Y811865D01*
X516713Y811881D01*
X516702Y811900D01*
X516626Y811966D01*
X516553Y812037D01*
X516529Y812051D01*
X516517Y812062D01*
X516487Y812074D01*
X516406Y812118D01*
X513035Y813514D01*
X509413Y817136D01*
X507453Y821869D01*
X507453Y826991D01*
X509413Y831724D01*
X513035Y835346D01*
X515646Y836427D01*
X515707Y836465D01*
X515772Y836494D01*
X515810Y836529D01*
X515855Y836556D01*
X515900Y836612D01*
X515953Y836660D01*
X515978Y836706D01*
X516012Y836746D01*
X516037Y836813D01*
X516072Y836876D01*
X516081Y836927D01*
X516100Y836975D01*
X516103Y837047D01*
X516116Y837118D01*
X516108Y837169D01*
X516110Y837221D01*
X516090Y837290D01*
X516080Y837361D01*
X516056Y837407D01*
X516042Y837457D01*
X516001Y837516D01*
X515968Y837580D01*
X515931Y837617D01*
X515901Y837659D01*
X515844Y837702D01*
X515793Y837752D01*
X515730Y837787D01*
X515704Y837806D01*
X515682Y837813D01*
X515646Y837833D01*
X513035Y838914D01*
X509413Y842536D01*
X507453Y847269D01*
X507453Y852391D01*
X509413Y857124D01*
X513035Y860746D01*
X517768Y862706D01*
X542448Y862706D01*
X547181Y860746D01*
X548689Y859237D01*
X548747Y859195D01*
X548799Y859146D01*
X548847Y859124D01*
X548889Y859093D01*
X548957Y859072D01*
X549023Y859042D01*
X549074Y859036D01*
X549124Y859021D01*
X549196Y859023D01*
X549267Y859015D01*
X549318Y859026D01*
X549370Y859027D01*
X549437Y859052D01*
X549507Y859067D01*
X549552Y859094D01*
X549601Y859112D01*
X549657Y859157D01*
X549718Y859193D01*
X549752Y859233D01*
X549793Y859265D01*
X549832Y859326D01*
X549878Y859380D01*
X549898Y859429D01*
X549926Y859472D01*
X549944Y859542D01*
X549970Y859608D01*
X549978Y859680D01*
X549986Y859711D01*
X549984Y859734D01*
X549989Y859775D01*
X549989Y992198D01*
X552249Y994459D01*
X750001Y994459D01*
X750094Y994474D01*
X750189Y994482D01*
X750223Y994495D01*
X750243Y994498D01*
X750272Y994514D01*
X750346Y994542D01*
X752156Y995464D01*
X752211Y995504D01*
X752270Y995536D01*
X752309Y995576D01*
X752354Y995609D01*
X752393Y995665D01*
X752440Y995714D01*
X752463Y995765D01*
X752496Y995811D01*
X752515Y995876D01*
X752543Y995937D01*
X752550Y995993D01*
X752565Y996046D01*
X752563Y996114D01*
X752570Y996181D01*
X752559Y996236D01*
X752557Y996292D01*
X752533Y996356D01*
X752518Y996422D01*
X752489Y996470D01*
X752470Y996522D01*
X752427Y996575D01*
X752392Y996633D01*
X752350Y996669D01*
X752314Y996713D01*
X752257Y996749D01*
X752205Y996793D01*
X752153Y996814D01*
X752106Y996844D01*
X752040Y996859D01*
X751977Y996885D01*
X751899Y996893D01*
X751867Y996901D01*
X751846Y996899D01*
X751810Y996903D01*
X516858Y996903D01*
X516838Y996900D01*
X516819Y996902D01*
X516717Y996880D01*
X516615Y996864D01*
X516598Y996854D01*
X516578Y996850D01*
X516489Y996797D01*
X516398Y996748D01*
X516384Y996734D01*
X516367Y996724D01*
X516300Y996645D01*
X516228Y996570D01*
X516220Y996552D01*
X516207Y996537D01*
X516168Y996441D01*
X516125Y996347D01*
X516123Y996327D01*
X516115Y996309D01*
X516097Y996142D01*
X516097Y978717D01*
X514283Y976903D01*
X496858Y976903D01*
X496838Y976900D01*
X496819Y976902D01*
X496717Y976880D01*
X496615Y976864D01*
X496598Y976854D01*
X496578Y976850D01*
X496489Y976797D01*
X496398Y976748D01*
X496384Y976734D01*
X496367Y976724D01*
X496300Y976645D01*
X496228Y976570D01*
X496220Y976552D01*
X496207Y976537D01*
X496168Y976441D01*
X496125Y976347D01*
X496123Y976327D01*
X496115Y976309D01*
X496097Y976142D01*
X496097Y898717D01*
X494283Y896903D01*
X448858Y896903D01*
X448838Y896900D01*
X448819Y896902D01*
X448717Y896880D01*
X448615Y896864D01*
X448598Y896854D01*
X448578Y896850D01*
X448489Y896797D01*
X448398Y896748D01*
X448384Y896734D01*
X448367Y896724D01*
X448300Y896645D01*
X448228Y896570D01*
X448220Y896552D01*
X448207Y896537D01*
X448168Y896441D01*
X448125Y896347D01*
X448123Y896327D01*
X448115Y896309D01*
X448097Y896142D01*
X448097Y893717D01*
X446283Y891903D01*
X438717Y891903D01*
X436903Y893717D01*
X436903Y896142D01*
X436900Y896162D01*
X436902Y896181D01*
X436880Y896283D01*
X436864Y896385D01*
X436854Y896402D01*
X436850Y896422D01*
X436797Y896511D01*
X436748Y896602D01*
X436734Y896616D01*
X436724Y896633D01*
X436645Y896700D01*
X436570Y896772D01*
X436552Y896780D01*
X436537Y896793D01*
X436441Y896832D01*
X436347Y896875D01*
X436327Y896877D01*
X436309Y896885D01*
X436142Y896903D01*
X391717Y896903D01*
X389903Y898717D01*
X389903Y976142D01*
X389900Y976162D01*
X389902Y976181D01*
X389880Y976283D01*
X389864Y976385D01*
X389854Y976402D01*
X389850Y976422D01*
X389797Y976511D01*
X389748Y976602D01*
X389734Y976616D01*
X389724Y976633D01*
X389645Y976700D01*
X389570Y976772D01*
X389552Y976780D01*
X389537Y976793D01*
X389441Y976832D01*
X389347Y976875D01*
X389327Y976877D01*
X389309Y976885D01*
X389142Y976903D01*
X371717Y976903D01*
X369903Y978717D01*
X369903Y996142D01*
X369900Y996162D01*
X369902Y996181D01*
X369880Y996283D01*
X369864Y996385D01*
X369854Y996402D01*
X369850Y996422D01*
X369797Y996511D01*
X369748Y996602D01*
X369734Y996616D01*
X369724Y996633D01*
X369645Y996700D01*
X369570Y996772D01*
X369552Y996780D01*
X369537Y996793D01*
X369441Y996832D01*
X369347Y996875D01*
X369327Y996877D01*
X369309Y996885D01*
X369142Y996903D01*
X132221Y996903D01*
X132154Y996892D01*
X132086Y996891D01*
X132033Y996873D01*
X131978Y996864D01*
X131918Y996832D01*
X131854Y996809D01*
X131810Y996775D01*
X131761Y996748D01*
X131714Y996699D01*
X131661Y996658D01*
X131630Y996611D01*
X131591Y996570D01*
X131563Y996509D01*
X131526Y996452D01*
X131511Y996398D01*
X131488Y996347D01*
X131480Y996280D01*
X131463Y996214D01*
X131467Y996158D01*
X131461Y996103D01*
X131475Y996036D01*
X131480Y995969D01*
X131501Y995917D01*
X131513Y995862D01*
X131548Y995804D01*
X131574Y995741D01*
X131610Y995699D01*
X131639Y995651D01*
X131691Y995607D01*
X131735Y995556D01*
X131801Y995513D01*
X131826Y995491D01*
X131845Y995483D01*
X131875Y995464D01*
X133250Y994763D01*
X141800Y986213D01*
X147290Y975439D01*
X149181Y963497D01*
X147290Y951554D01*
X141800Y940780D01*
X133250Y932231D01*
X122477Y926741D01*
X110534Y924850D01*
X98591Y926741D01*
X87818Y932231D01*
X79396Y940652D01*
X79338Y940694D01*
X79286Y940743D01*
X79239Y940765D01*
X79197Y940796D01*
X79128Y940817D01*
X79063Y940847D01*
X79011Y940853D01*
X78961Y940868D01*
X78890Y940866D01*
X78819Y940874D01*
X78768Y940863D01*
X78716Y940862D01*
X78648Y940837D01*
X78578Y940822D01*
X78533Y940795D01*
X78485Y940777D01*
X78429Y940732D01*
X78367Y940696D01*
X78333Y940656D01*
X78293Y940623D01*
X78254Y940563D01*
X78207Y940509D01*
X78188Y940460D01*
X78160Y940417D01*
X78142Y940347D01*
X78115Y940280D01*
X78107Y940209D01*
X78099Y940178D01*
X78101Y940155D01*
X78097Y940114D01*
X78097Y918717D01*
X76283Y916903D01*
X3858Y916903D01*
X3838Y916900D01*
X3819Y916902D01*
X3717Y916880D01*
X3615Y916864D01*
X3598Y916854D01*
X3578Y916850D01*
X3489Y916797D01*
X3398Y916748D01*
X3384Y916734D01*
X3367Y916724D01*
X3300Y916645D01*
X3228Y916570D01*
X3220Y916552D01*
X3207Y916537D01*
X3168Y916441D01*
X3125Y916347D01*
X3123Y916327D01*
X3115Y916309D01*
X3097Y916142D01*
X3097Y508858D01*
X3100Y508838D01*
X3098Y508819D01*
X3120Y508717D01*
X3136Y508615D01*
X3146Y508598D01*
X3150Y508578D01*
X3203Y508489D01*
X3252Y508398D01*
X3266Y508384D01*
X3276Y508367D01*
X3355Y508300D01*
X3430Y508228D01*
X3448Y508220D01*
X3463Y508207D01*
X3559Y508168D01*
X3653Y508125D01*
X3673Y508123D01*
X3691Y508115D01*
X3858Y508097D01*
X6283Y508097D01*
X8097Y506283D01*
X8097Y493717D01*
X6283Y491903D01*
X3858Y491903D01*
X3838Y491900D01*
X3819Y491902D01*
X3717Y491880D01*
X3615Y491864D01*
X3598Y491854D01*
X3578Y491850D01*
X3489Y491797D01*
X3398Y491748D01*
X3384Y491734D01*
X3367Y491724D01*
X3300Y491645D01*
X3228Y491570D01*
X3220Y491552D01*
X3207Y491537D01*
X3168Y491441D01*
X3125Y491347D01*
X3123Y491327D01*
X3115Y491309D01*
X3097Y491142D01*
X3097Y61735D01*
X3108Y61665D01*
X3110Y61593D01*
X3128Y61544D01*
X3136Y61493D01*
X3170Y61429D01*
X3195Y61362D01*
X3227Y61321D01*
X3252Y61275D01*
X3304Y61226D01*
X3348Y61170D01*
X3392Y61142D01*
X3430Y61106D01*
X3495Y61076D01*
X3555Y61037D01*
X3606Y61024D01*
X3653Y61002D01*
X3724Y60994D01*
X3794Y60977D01*
X3846Y60981D01*
X3897Y60975D01*
X3968Y60990D01*
X4039Y60996D01*
X4087Y61016D01*
X4138Y61027D01*
X4199Y61064D01*
X4265Y61092D01*
X4321Y61137D01*
X4349Y61154D01*
X4364Y61171D01*
X4396Y61197D01*
X12284Y69085D01*
X23057Y74574D01*
X35000Y76466D01*
X46943Y74574D01*
X57716Y69085D01*
X66266Y60535D01*
X71756Y49761D01*
X73647Y37818D01*
X71756Y25876D01*
X66266Y15102D01*
X57716Y6552D01*
X53760Y4536D01*
X53705Y4496D01*
X53646Y4464D01*
X53607Y4424D01*
X53562Y4391D01*
X53523Y4335D01*
X53476Y4286D01*
X53453Y4235D01*
X53420Y4189D01*
X53401Y4124D01*
X53373Y4063D01*
X53366Y4007D01*
X53351Y3954D01*
X53353Y3886D01*
X53346Y3819D01*
X53357Y3764D01*
X53359Y3708D01*
X53383Y3645D01*
X53398Y3578D01*
X53427Y3530D01*
X53446Y3478D01*
X53489Y3425D01*
X53524Y3367D01*
X53566Y3331D01*
X53602Y3287D01*
X53659Y3251D01*
X53711Y3207D01*
X53763Y3186D01*
X53810Y3156D01*
X53876Y3141D01*
X53939Y3115D01*
X54017Y3107D01*
X54049Y3099D01*
X54070Y3101D01*
X54106Y3097D01*
X434142Y3097D01*
X434162Y3100D01*
G37*
G36*
X881718Y122519D02*
X881718Y122519D01*
X881737Y122517D01*
X881839Y122539D01*
X881941Y122555D01*
X881958Y122565D01*
X881978Y122569D01*
X882067Y122622D01*
X882158Y122670D01*
X882172Y122685D01*
X882189Y122695D01*
X882256Y122774D01*
X882328Y122849D01*
X882336Y122867D01*
X882349Y122882D01*
X882388Y122978D01*
X882431Y123072D01*
X882433Y123092D01*
X882441Y123110D01*
X882459Y123277D01*
X882459Y916698D01*
X882456Y916718D01*
X882458Y916737D01*
X882436Y916839D01*
X882420Y916941D01*
X882410Y916958D01*
X882406Y916978D01*
X882353Y917067D01*
X882304Y917158D01*
X882290Y917172D01*
X882280Y917189D01*
X882201Y917256D01*
X882126Y917328D01*
X882108Y917336D01*
X882093Y917349D01*
X881997Y917388D01*
X881903Y917431D01*
X881883Y917433D01*
X881865Y917441D01*
X881698Y917459D01*
X808948Y917459D01*
X807459Y918948D01*
X807459Y944892D01*
X807448Y944959D01*
X807447Y945027D01*
X807429Y945079D01*
X807420Y945135D01*
X807388Y945195D01*
X807365Y945259D01*
X807331Y945303D01*
X807304Y945352D01*
X807255Y945399D01*
X807214Y945452D01*
X807167Y945483D01*
X807126Y945521D01*
X807065Y945550D01*
X807008Y945587D01*
X806954Y945602D01*
X806903Y945625D01*
X806836Y945633D01*
X806770Y945650D01*
X806714Y945646D01*
X806659Y945652D01*
X806592Y945638D01*
X806525Y945633D01*
X806473Y945612D01*
X806418Y945600D01*
X806360Y945565D01*
X806297Y945539D01*
X806255Y945503D01*
X806207Y945474D01*
X806163Y945422D01*
X806112Y945378D01*
X806069Y945312D01*
X806047Y945287D01*
X806039Y945267D01*
X806020Y945238D01*
X803776Y940833D01*
X795349Y932406D01*
X784730Y926996D01*
X772959Y925132D01*
X761188Y926996D01*
X750570Y932406D01*
X742143Y940833D01*
X736732Y951452D01*
X734868Y963223D01*
X736732Y974994D01*
X742143Y985612D01*
X746592Y990062D01*
X746634Y990120D01*
X746683Y990172D01*
X746705Y990219D01*
X746736Y990261D01*
X746757Y990330D01*
X746787Y990395D01*
X746793Y990447D01*
X746808Y990497D01*
X746806Y990568D01*
X746814Y990639D01*
X746803Y990690D01*
X746802Y990742D01*
X746777Y990810D01*
X746762Y990880D01*
X746735Y990924D01*
X746717Y990973D01*
X746672Y991029D01*
X746636Y991091D01*
X746596Y991125D01*
X746564Y991165D01*
X746503Y991204D01*
X746449Y991251D01*
X746400Y991270D01*
X746357Y991298D01*
X746287Y991316D01*
X746221Y991343D01*
X746149Y991351D01*
X746118Y991359D01*
X746095Y991357D01*
X746054Y991361D01*
X553848Y991361D01*
X553828Y991358D01*
X553808Y991360D01*
X553707Y991338D01*
X553605Y991322D01*
X553587Y991312D01*
X553568Y991308D01*
X553479Y991255D01*
X553387Y991206D01*
X553374Y991192D01*
X553357Y991182D01*
X553289Y991103D01*
X553218Y991028D01*
X553210Y991010D01*
X553197Y990995D01*
X553158Y990899D01*
X553114Y990805D01*
X553112Y990785D01*
X553105Y990767D01*
X553086Y990600D01*
X553086Y711220D01*
X501924Y711220D01*
X501853Y711209D01*
X501781Y711207D01*
X501732Y711189D01*
X501681Y711181D01*
X501618Y711147D01*
X501550Y711122D01*
X501510Y711090D01*
X501464Y711066D01*
X501414Y711014D01*
X501358Y710969D01*
X501330Y710925D01*
X501294Y710887D01*
X501264Y710822D01*
X501225Y710762D01*
X501213Y710711D01*
X501191Y710664D01*
X501183Y710593D01*
X501165Y710523D01*
X501169Y710471D01*
X501164Y710420D01*
X501179Y710349D01*
X501184Y710278D01*
X501205Y710230D01*
X501216Y710179D01*
X501253Y710118D01*
X501281Y710052D01*
X501325Y709996D01*
X501342Y709968D01*
X501360Y709953D01*
X501386Y709921D01*
X504041Y707266D01*
X504041Y692734D01*
X493766Y682459D01*
X479234Y682459D01*
X468959Y692734D01*
X468959Y707266D01*
X471614Y709921D01*
X471656Y709979D01*
X471706Y710031D01*
X471728Y710078D01*
X471758Y710121D01*
X471779Y710189D01*
X471809Y710254D01*
X471815Y710306D01*
X471830Y710356D01*
X471828Y710427D01*
X471836Y710499D01*
X471825Y710549D01*
X471824Y710602D01*
X471799Y710669D01*
X471784Y710739D01*
X471757Y710784D01*
X471740Y710833D01*
X471695Y710889D01*
X471658Y710950D01*
X471618Y710984D01*
X471586Y711025D01*
X471526Y711063D01*
X471471Y711110D01*
X471423Y711129D01*
X471379Y711158D01*
X471309Y711175D01*
X471243Y711202D01*
X471172Y711210D01*
X471140Y711218D01*
X471117Y711216D01*
X471076Y711220D01*
X413924Y711220D01*
X413853Y711209D01*
X413781Y711207D01*
X413732Y711189D01*
X413681Y711181D01*
X413618Y711147D01*
X413550Y711122D01*
X413510Y711090D01*
X413464Y711066D01*
X413414Y711014D01*
X413358Y710969D01*
X413330Y710925D01*
X413294Y710887D01*
X413264Y710822D01*
X413225Y710762D01*
X413213Y710711D01*
X413191Y710664D01*
X413183Y710593D01*
X413165Y710523D01*
X413169Y710471D01*
X413164Y710420D01*
X413179Y710349D01*
X413184Y710278D01*
X413205Y710230D01*
X413216Y710179D01*
X413253Y710118D01*
X413281Y710052D01*
X413325Y709996D01*
X413342Y709968D01*
X413360Y709953D01*
X413386Y709921D01*
X416041Y707266D01*
X416041Y692734D01*
X405766Y682459D01*
X391234Y682459D01*
X380959Y692734D01*
X380959Y707266D01*
X383614Y709921D01*
X383656Y709979D01*
X383706Y710031D01*
X383728Y710078D01*
X383758Y710121D01*
X383779Y710189D01*
X383809Y710254D01*
X383815Y710306D01*
X383830Y710356D01*
X383828Y710427D01*
X383836Y710499D01*
X383825Y710549D01*
X383824Y710602D01*
X383799Y710669D01*
X383784Y710739D01*
X383757Y710784D01*
X383740Y710833D01*
X383695Y710889D01*
X383658Y710950D01*
X383618Y710984D01*
X383586Y711025D01*
X383526Y711063D01*
X383471Y711110D01*
X383423Y711129D01*
X383379Y711158D01*
X383309Y711175D01*
X383243Y711202D01*
X383172Y711210D01*
X383140Y711218D01*
X383117Y711216D01*
X383076Y711220D01*
X353567Y711220D01*
X353477Y711206D01*
X353386Y711198D01*
X353356Y711186D01*
X353324Y711181D01*
X353243Y711138D01*
X353160Y711102D01*
X353127Y711076D01*
X353107Y711066D01*
X353085Y711042D01*
X353029Y710997D01*
X321815Y679784D01*
X207520Y679784D01*
X207430Y679769D01*
X207339Y679762D01*
X207309Y679750D01*
X207277Y679744D01*
X207197Y679702D01*
X207113Y679666D01*
X207081Y679640D01*
X207060Y679629D01*
X207038Y679606D01*
X206982Y679561D01*
X155985Y628565D01*
X155932Y628490D01*
X155872Y628420D01*
X155860Y628390D01*
X155842Y628365D01*
X155815Y628277D01*
X155780Y628192D01*
X155776Y628152D01*
X155769Y628130D01*
X155770Y628097D01*
X155762Y628025D01*
X156212Y402580D01*
X156216Y402561D01*
X156213Y402542D01*
X156236Y402440D01*
X156253Y402337D01*
X156262Y402320D01*
X156266Y402301D01*
X156319Y402212D01*
X156368Y402120D01*
X156382Y402107D01*
X156392Y402090D01*
X156471Y402023D01*
X156547Y401951D01*
X156564Y401943D01*
X156579Y401930D01*
X156676Y401891D01*
X156770Y401848D01*
X156789Y401846D01*
X156807Y401838D01*
X156974Y401820D01*
X262398Y401820D01*
X262295Y165200D01*
X262298Y165179D01*
X262296Y165158D01*
X262318Y165058D01*
X262335Y164957D01*
X262345Y164939D01*
X262349Y164918D01*
X262402Y164830D01*
X262450Y164740D01*
X262465Y164725D01*
X262476Y164707D01*
X262554Y164641D01*
X262628Y164570D01*
X262647Y164562D01*
X262663Y164548D01*
X262758Y164510D01*
X262851Y164467D01*
X262872Y164464D01*
X262892Y164457D01*
X263058Y164439D01*
X336495Y164661D01*
X346085Y155071D01*
X346158Y155018D01*
X346228Y154959D01*
X346258Y154947D01*
X346284Y154928D01*
X346371Y154901D01*
X346456Y154867D01*
X346497Y154862D01*
X346519Y154855D01*
X346552Y154856D01*
X346623Y154848D01*
X351758Y154848D01*
X351848Y154863D01*
X351939Y154870D01*
X351969Y154883D01*
X352001Y154888D01*
X352082Y154931D01*
X352165Y154966D01*
X352198Y154992D01*
X352218Y155003D01*
X352240Y155027D01*
X352296Y155071D01*
X352541Y155316D01*
X473215Y155316D01*
X473305Y155330D01*
X473396Y155337D01*
X473426Y155350D01*
X473458Y155355D01*
X473539Y155398D01*
X473622Y155434D01*
X473655Y155459D01*
X473675Y155470D01*
X473697Y155494D01*
X473753Y155539D01*
X482653Y164439D01*
X514375Y164439D01*
X514465Y164453D01*
X514556Y164460D01*
X514586Y164473D01*
X514618Y164478D01*
X514698Y164521D01*
X514782Y164557D01*
X514814Y164582D01*
X514835Y164593D01*
X514857Y164617D01*
X514913Y164662D01*
X635350Y285098D01*
X635403Y285172D01*
X635462Y285241D01*
X635474Y285272D01*
X635493Y285298D01*
X635520Y285385D01*
X635554Y285470D01*
X635559Y285510D01*
X635566Y285533D01*
X635565Y285565D01*
X635573Y285636D01*
X635573Y399550D01*
X819248Y398443D01*
X821733Y199907D01*
X789649Y199907D01*
X789624Y199902D01*
X789599Y199905D01*
X789503Y199883D01*
X789406Y199867D01*
X789384Y199855D01*
X789360Y199849D01*
X789276Y199798D01*
X789189Y199752D01*
X789172Y199734D01*
X789150Y199720D01*
X789087Y199645D01*
X789020Y199573D01*
X789009Y199551D01*
X788993Y199531D01*
X788957Y199440D01*
X788916Y199350D01*
X788913Y199325D01*
X788904Y199302D01*
X788888Y199135D01*
X789904Y123267D01*
X789906Y123252D01*
X789905Y123237D01*
X789928Y123131D01*
X789947Y123024D01*
X789954Y123012D01*
X789957Y122997D01*
X790012Y122904D01*
X790065Y122809D01*
X790076Y122799D01*
X790083Y122786D01*
X790166Y122715D01*
X790245Y122642D01*
X790259Y122636D01*
X790270Y122626D01*
X790371Y122585D01*
X790470Y122541D01*
X790484Y122540D01*
X790498Y122534D01*
X790665Y122516D01*
X881698Y122516D01*
X881718Y122519D01*
G37*
%LPC*%
G36*
X250394Y447429D02*
X250394Y447429D01*
X248070Y448392D01*
X246292Y450170D01*
X245329Y452494D01*
X245329Y455010D01*
X246292Y457333D01*
X248070Y459112D01*
X250394Y460075D01*
X252989Y460075D01*
X253079Y460089D01*
X253170Y460096D01*
X253199Y460109D01*
X253231Y460114D01*
X253312Y460157D01*
X253396Y460193D01*
X253428Y460218D01*
X253449Y460229D01*
X253471Y460253D01*
X253527Y460298D01*
X274991Y481762D01*
X275033Y481820D01*
X275082Y481872D01*
X275104Y481919D01*
X275135Y481961D01*
X275156Y482030D01*
X275186Y482095D01*
X275192Y482147D01*
X275207Y482197D01*
X275205Y482268D01*
X275213Y482339D01*
X275202Y482390D01*
X275201Y482442D01*
X275176Y482510D01*
X275161Y482580D01*
X275134Y482624D01*
X275116Y482673D01*
X275071Y482729D01*
X275035Y482791D01*
X274995Y482825D01*
X274963Y482865D01*
X274902Y482904D01*
X274848Y482951D01*
X274799Y482970D01*
X274756Y482998D01*
X274686Y483016D01*
X274620Y483043D01*
X274562Y483049D01*
X273061Y484550D01*
X273061Y505450D01*
X274573Y506962D01*
X274584Y506978D01*
X274600Y506990D01*
X274656Y507078D01*
X274716Y507161D01*
X274722Y507180D01*
X274733Y507197D01*
X274758Y507298D01*
X274788Y507397D01*
X274788Y507416D01*
X274793Y507436D01*
X274785Y507539D01*
X274782Y507642D01*
X274775Y507661D01*
X274774Y507681D01*
X274733Y507776D01*
X274698Y507873D01*
X274685Y507889D01*
X274677Y507907D01*
X274573Y508038D01*
X273061Y509550D01*
X273061Y530450D01*
X274696Y532085D01*
X274764Y532180D01*
X274836Y532277D01*
X274837Y532281D01*
X274839Y532285D01*
X274874Y532397D01*
X274911Y532512D01*
X274910Y532516D01*
X274912Y532520D01*
X274909Y532638D01*
X274907Y532758D01*
X274905Y532761D01*
X274905Y532766D01*
X274864Y532878D01*
X274825Y532989D01*
X274822Y532993D01*
X274821Y532997D01*
X274746Y533090D01*
X274673Y533183D01*
X274669Y533186D01*
X274667Y533189D01*
X274655Y533196D01*
X274538Y533282D01*
X274042Y533569D01*
X273569Y534042D01*
X273234Y534621D01*
X273061Y535268D01*
X273061Y543477D01*
X284238Y543477D01*
X284258Y543480D01*
X284277Y543478D01*
X284379Y543500D01*
X284481Y543517D01*
X284498Y543526D01*
X284518Y543530D01*
X284607Y543583D01*
X284698Y543632D01*
X284712Y543646D01*
X284729Y543656D01*
X284796Y543735D01*
X284867Y543810D01*
X284876Y543828D01*
X284889Y543843D01*
X284927Y543939D01*
X284971Y544033D01*
X284973Y544053D01*
X284981Y544071D01*
X284999Y544238D01*
X284999Y545001D01*
X285001Y545001D01*
X285001Y544238D01*
X285003Y544222D01*
X285002Y544209D01*
X285003Y544205D01*
X285002Y544199D01*
X285024Y544097D01*
X285041Y543995D01*
X285050Y543978D01*
X285054Y543958D01*
X285107Y543869D01*
X285156Y543778D01*
X285170Y543764D01*
X285180Y543747D01*
X285259Y543680D01*
X285334Y543609D01*
X285352Y543600D01*
X285367Y543587D01*
X285463Y543548D01*
X285557Y543505D01*
X285577Y543503D01*
X285595Y543495D01*
X285762Y543477D01*
X296939Y543477D01*
X296939Y535268D01*
X296766Y534621D01*
X296431Y534042D01*
X295958Y533569D01*
X295462Y533282D01*
X295369Y533207D01*
X295277Y533133D01*
X295275Y533129D01*
X295272Y533127D01*
X295208Y533025D01*
X295144Y532926D01*
X295143Y532922D01*
X295141Y532918D01*
X295113Y532802D01*
X295084Y532687D01*
X295084Y532683D01*
X295083Y532679D01*
X295094Y532560D01*
X295103Y532442D01*
X295105Y532438D01*
X295105Y532434D01*
X295153Y532324D01*
X295199Y532216D01*
X295202Y532212D01*
X295204Y532209D01*
X295213Y532198D01*
X295304Y532085D01*
X296951Y530438D01*
X296952Y530381D01*
X296970Y530332D01*
X296978Y530281D01*
X297012Y530217D01*
X297037Y530150D01*
X297069Y530109D01*
X297094Y530063D01*
X297146Y530014D01*
X297190Y529958D01*
X297234Y529930D01*
X297272Y529894D01*
X297337Y529864D01*
X297397Y529825D01*
X297448Y529812D01*
X297495Y529790D01*
X297566Y529782D01*
X297636Y529765D01*
X297688Y529769D01*
X297739Y529763D01*
X297810Y529778D01*
X297881Y529784D01*
X297929Y529804D01*
X297980Y529815D01*
X298041Y529852D01*
X298107Y529880D01*
X298163Y529925D01*
X298191Y529942D01*
X298206Y529959D01*
X298238Y529985D01*
X333912Y565659D01*
X614016Y565659D01*
X635129Y544546D01*
X635203Y544493D01*
X635272Y544433D01*
X635303Y544421D01*
X635329Y544402D01*
X635416Y544375D01*
X635501Y544341D01*
X635542Y544337D01*
X635564Y544330D01*
X635596Y544331D01*
X635667Y544323D01*
X679548Y544323D01*
X686945Y536926D01*
X687019Y536873D01*
X687088Y536813D01*
X687119Y536801D01*
X687145Y536782D01*
X687232Y536755D01*
X687317Y536721D01*
X687358Y536717D01*
X687380Y536710D01*
X687412Y536711D01*
X687483Y536703D01*
X694785Y536703D01*
X694875Y536717D01*
X694966Y536725D01*
X694996Y536737D01*
X695027Y536742D01*
X695108Y536785D01*
X695192Y536821D01*
X695224Y536847D01*
X695245Y536858D01*
X695267Y536881D01*
X695323Y536926D01*
X696419Y538022D01*
X696431Y538038D01*
X696446Y538051D01*
X696503Y538138D01*
X696563Y538222D01*
X696569Y538241D01*
X696579Y538258D01*
X696605Y538358D01*
X696635Y538457D01*
X696635Y538477D01*
X696640Y538496D01*
X696632Y538599D01*
X696629Y538703D01*
X696622Y538722D01*
X696620Y538741D01*
X696580Y538836D01*
X696544Y538934D01*
X696532Y538949D01*
X696524Y538968D01*
X696419Y539099D01*
X694562Y540956D01*
X693179Y544294D01*
X693179Y547906D01*
X694562Y551244D01*
X697116Y553798D01*
X700454Y555181D01*
X717146Y555181D01*
X720484Y553798D01*
X723038Y551244D01*
X724421Y547906D01*
X724421Y544294D01*
X723038Y540956D01*
X721041Y538959D01*
X721029Y538942D01*
X721014Y538930D01*
X720957Y538843D01*
X720897Y538759D01*
X720891Y538740D01*
X720881Y538723D01*
X720855Y538623D01*
X720825Y538524D01*
X720825Y538504D01*
X720820Y538485D01*
X720828Y538382D01*
X720831Y538278D01*
X720838Y538259D01*
X720840Y538239D01*
X720880Y538144D01*
X720916Y538047D01*
X720928Y538031D01*
X720936Y538013D01*
X721041Y537882D01*
X721838Y537085D01*
X721854Y537073D01*
X721866Y537058D01*
X721954Y537002D01*
X722037Y536942D01*
X722056Y536936D01*
X722073Y536925D01*
X722174Y536900D01*
X722273Y536869D01*
X722292Y536870D01*
X722312Y536865D01*
X722415Y536873D01*
X722518Y536876D01*
X722537Y536882D01*
X722557Y536884D01*
X722652Y536924D01*
X722749Y536960D01*
X722765Y536972D01*
X722783Y536980D01*
X722914Y537085D01*
X727104Y541275D01*
X810609Y541275D01*
X810699Y541289D01*
X810790Y541297D01*
X810819Y541309D01*
X810851Y541314D01*
X810932Y541357D01*
X811016Y541393D01*
X811048Y541419D01*
X811069Y541430D01*
X811091Y541453D01*
X811147Y541498D01*
X844452Y574803D01*
X845690Y574803D01*
X845805Y574822D01*
X845921Y574839D01*
X845927Y574841D01*
X845933Y574842D01*
X846036Y574897D01*
X846141Y574950D01*
X846145Y574955D01*
X846151Y574958D01*
X846230Y575042D01*
X846313Y575126D01*
X846317Y575132D01*
X846320Y575136D01*
X846328Y575153D01*
X846394Y575273D01*
X846962Y576644D01*
X849516Y579198D01*
X852854Y580581D01*
X869546Y580581D01*
X872884Y579198D01*
X875438Y576644D01*
X876821Y573306D01*
X876821Y569694D01*
X875438Y566356D01*
X872884Y563802D01*
X869546Y562419D01*
X852854Y562419D01*
X849516Y563802D01*
X846962Y566356D01*
X846925Y566445D01*
X846901Y566485D01*
X846885Y566528D01*
X846836Y566588D01*
X846795Y566654D01*
X846760Y566684D01*
X846731Y566720D01*
X846666Y566762D01*
X846606Y566811D01*
X846563Y566828D01*
X846524Y566853D01*
X846449Y566872D01*
X846376Y566900D01*
X846330Y566901D01*
X846286Y566913D01*
X846208Y566907D01*
X846130Y566910D01*
X846086Y566897D01*
X846040Y566894D01*
X845969Y566863D01*
X845894Y566841D01*
X845856Y566815D01*
X845814Y566797D01*
X845707Y566712D01*
X845692Y566701D01*
X845689Y566697D01*
X845683Y566692D01*
X815818Y536827D01*
X813660Y534669D01*
X730155Y534669D01*
X730065Y534655D01*
X729974Y534647D01*
X729945Y534635D01*
X729913Y534630D01*
X729832Y534587D01*
X729748Y534551D01*
X729716Y534525D01*
X729695Y534514D01*
X729673Y534491D01*
X729617Y534446D01*
X725268Y530097D01*
X720209Y530097D01*
X720113Y530082D01*
X720016Y530072D01*
X719992Y530062D01*
X719966Y530058D01*
X719881Y530012D01*
X719791Y529972D01*
X719772Y529955D01*
X719749Y529942D01*
X719682Y529872D01*
X719610Y529806D01*
X719598Y529783D01*
X719580Y529764D01*
X719539Y529676D01*
X719492Y529590D01*
X719487Y529565D01*
X719476Y529541D01*
X719465Y529444D01*
X719448Y529348D01*
X719452Y529322D01*
X719449Y529297D01*
X719470Y529202D01*
X719484Y529105D01*
X719496Y529082D01*
X719501Y529056D01*
X719551Y528972D01*
X719595Y528886D01*
X719614Y528868D01*
X719627Y528845D01*
X719701Y528782D01*
X719771Y528714D01*
X719799Y528698D01*
X719814Y528685D01*
X719845Y528673D01*
X719918Y528633D01*
X720484Y528398D01*
X723038Y525844D01*
X724421Y522506D01*
X724421Y518894D01*
X723038Y515556D01*
X720484Y513002D01*
X717146Y511619D01*
X700454Y511619D01*
X697116Y513002D01*
X694562Y515556D01*
X693179Y518894D01*
X693179Y522506D01*
X694562Y525844D01*
X697116Y528398D01*
X697682Y528633D01*
X697765Y528684D01*
X697851Y528730D01*
X697869Y528749D01*
X697891Y528762D01*
X697953Y528837D01*
X698020Y528908D01*
X698031Y528932D01*
X698048Y528952D01*
X698083Y529043D01*
X698124Y529131D01*
X698127Y529157D01*
X698136Y529181D01*
X698140Y529279D01*
X698151Y529375D01*
X698146Y529401D01*
X698147Y529427D01*
X698120Y529521D01*
X698099Y529616D01*
X698085Y529638D01*
X698078Y529663D01*
X698023Y529743D01*
X697973Y529827D01*
X697953Y529844D01*
X697938Y529865D01*
X697860Y529924D01*
X697786Y529987D01*
X697761Y529997D01*
X697740Y530012D01*
X697648Y530042D01*
X697558Y530079D01*
X697525Y530082D01*
X697507Y530088D01*
X697474Y530088D01*
X697391Y530097D01*
X684432Y530097D01*
X677035Y537494D01*
X676961Y537547D01*
X676892Y537607D01*
X676861Y537619D01*
X676835Y537638D01*
X676748Y537665D01*
X676663Y537699D01*
X676622Y537703D01*
X676600Y537710D01*
X676568Y537709D01*
X676497Y537717D01*
X632616Y537717D01*
X611503Y558830D01*
X611429Y558883D01*
X611360Y558943D01*
X611329Y558955D01*
X611303Y558974D01*
X611216Y559001D01*
X611131Y559035D01*
X611090Y559039D01*
X611068Y559046D01*
X611036Y559045D01*
X610965Y559053D01*
X336963Y559053D01*
X336873Y559039D01*
X336782Y559031D01*
X336753Y559019D01*
X336721Y559014D01*
X336640Y558971D01*
X336556Y558935D01*
X336524Y558909D01*
X336503Y558898D01*
X336481Y558875D01*
X336425Y558830D01*
X297162Y519567D01*
X297109Y519493D01*
X297049Y519424D01*
X297037Y519393D01*
X297018Y519367D01*
X296991Y519280D01*
X296957Y519195D01*
X296953Y519154D01*
X296946Y519132D01*
X296947Y519100D01*
X296939Y519029D01*
X296939Y509550D01*
X295427Y508038D01*
X295416Y508022D01*
X295400Y508010D01*
X295344Y507922D01*
X295284Y507839D01*
X295278Y507820D01*
X295267Y507803D01*
X295242Y507702D01*
X295212Y507603D01*
X295212Y507584D01*
X295207Y507564D01*
X295215Y507461D01*
X295218Y507358D01*
X295225Y507339D01*
X295226Y507319D01*
X295267Y507224D01*
X295302Y507127D01*
X295315Y507111D01*
X295323Y507093D01*
X295427Y506962D01*
X296939Y505450D01*
X296939Y484550D01*
X295450Y483061D01*
X285947Y483061D01*
X285857Y483047D01*
X285766Y483039D01*
X285737Y483027D01*
X285705Y483022D01*
X285624Y482979D01*
X285540Y482943D01*
X285508Y482917D01*
X285487Y482906D01*
X285465Y482883D01*
X285409Y482838D01*
X258198Y455627D01*
X258145Y455553D01*
X258085Y455483D01*
X258073Y455453D01*
X258054Y455427D01*
X258027Y455340D01*
X257993Y455255D01*
X257989Y455214D01*
X257982Y455192D01*
X257983Y455160D01*
X257975Y455089D01*
X257975Y452494D01*
X257012Y450170D01*
X255234Y448392D01*
X252910Y447429D01*
X250394Y447429D01*
G37*
%LPD*%
%LPC*%
G36*
X852854Y587819D02*
X852854Y587819D01*
X849516Y589202D01*
X846962Y591756D01*
X845579Y595094D01*
X845579Y597235D01*
X845565Y597325D01*
X845557Y597416D01*
X845545Y597445D01*
X845540Y597477D01*
X845497Y597558D01*
X845461Y597642D01*
X845435Y597674D01*
X845424Y597695D01*
X845401Y597717D01*
X845356Y597773D01*
X812671Y630458D01*
X812597Y630511D01*
X812528Y630571D01*
X812497Y630583D01*
X812471Y630602D01*
X812384Y630629D01*
X812299Y630663D01*
X812258Y630667D01*
X812236Y630674D01*
X812204Y630673D01*
X812133Y630681D01*
X772824Y630681D01*
X766317Y637188D01*
X766317Y639064D01*
X766314Y639084D01*
X766316Y639103D01*
X766294Y639205D01*
X766278Y639307D01*
X766268Y639324D01*
X766264Y639344D01*
X766211Y639433D01*
X766162Y639524D01*
X766148Y639538D01*
X766138Y639555D01*
X766059Y639622D01*
X765984Y639694D01*
X765966Y639702D01*
X765951Y639715D01*
X765855Y639754D01*
X765761Y639797D01*
X765741Y639799D01*
X765723Y639807D01*
X765556Y639825D01*
X745392Y639825D01*
X726693Y658524D01*
X726693Y702405D01*
X726679Y702495D01*
X726671Y702586D01*
X726659Y702615D01*
X726654Y702647D01*
X726611Y702728D01*
X726575Y702812D01*
X726549Y702844D01*
X726538Y702865D01*
X726515Y702887D01*
X726470Y702943D01*
X721231Y708182D01*
X721157Y708235D01*
X721088Y708295D01*
X721057Y708307D01*
X721031Y708326D01*
X720944Y708353D01*
X720859Y708387D01*
X720818Y708391D01*
X720796Y708398D01*
X720764Y708397D01*
X720693Y708405D01*
X719484Y708405D01*
X716659Y711230D01*
X716585Y711283D01*
X716516Y711343D01*
X716485Y711355D01*
X716459Y711374D01*
X716372Y711401D01*
X716287Y711435D01*
X716246Y711439D01*
X716224Y711446D01*
X716192Y711445D01*
X716121Y711453D01*
X701199Y711453D01*
X701109Y711439D01*
X701018Y711431D01*
X700989Y711419D01*
X700957Y711414D01*
X700876Y711371D01*
X700792Y711335D01*
X700760Y711309D01*
X700739Y711298D01*
X700717Y711275D01*
X700661Y711230D01*
X697836Y708405D01*
X689004Y708405D01*
X629571Y767838D01*
X629497Y767891D01*
X629428Y767951D01*
X629397Y767963D01*
X629371Y767982D01*
X629284Y768009D01*
X629199Y768043D01*
X629158Y768047D01*
X629136Y768054D01*
X629104Y768053D01*
X629033Y768061D01*
X619550Y768061D01*
X618038Y769573D01*
X618022Y769584D01*
X618010Y769600D01*
X617922Y769656D01*
X617839Y769716D01*
X617820Y769722D01*
X617803Y769733D01*
X617702Y769758D01*
X617603Y769788D01*
X617584Y769788D01*
X617564Y769793D01*
X617461Y769785D01*
X617358Y769782D01*
X617339Y769775D01*
X617319Y769774D01*
X617224Y769733D01*
X617127Y769698D01*
X617111Y769685D01*
X617093Y769677D01*
X616962Y769573D01*
X615450Y768061D01*
X594550Y768061D01*
X593061Y769550D01*
X593061Y790450D01*
X594550Y791939D01*
X615450Y791939D01*
X616962Y790427D01*
X616978Y790416D01*
X616990Y790400D01*
X617078Y790344D01*
X617161Y790284D01*
X617180Y790278D01*
X617197Y790267D01*
X617298Y790242D01*
X617397Y790212D01*
X617416Y790212D01*
X617436Y790207D01*
X617539Y790215D01*
X617642Y790218D01*
X617661Y790225D01*
X617681Y790226D01*
X617776Y790267D01*
X617873Y790302D01*
X617889Y790315D01*
X617907Y790323D01*
X618038Y790427D01*
X619550Y791939D01*
X640450Y791939D01*
X642085Y790304D01*
X642181Y790235D01*
X642277Y790164D01*
X642281Y790163D01*
X642285Y790161D01*
X642397Y790126D01*
X642512Y790089D01*
X642516Y790090D01*
X642520Y790088D01*
X642638Y790091D01*
X642758Y790093D01*
X642761Y790095D01*
X642766Y790095D01*
X642877Y790135D01*
X642989Y790175D01*
X642993Y790178D01*
X642997Y790179D01*
X643089Y790253D01*
X643183Y790327D01*
X643186Y790331D01*
X643189Y790333D01*
X643196Y790345D01*
X643282Y790462D01*
X643569Y790958D01*
X644042Y791431D01*
X644621Y791766D01*
X645268Y791939D01*
X653477Y791939D01*
X653477Y780762D01*
X653480Y780742D01*
X653478Y780723D01*
X653500Y780621D01*
X653517Y780519D01*
X653526Y780502D01*
X653530Y780482D01*
X653583Y780393D01*
X653632Y780302D01*
X653646Y780288D01*
X653656Y780271D01*
X653735Y780204D01*
X653810Y780133D01*
X653828Y780124D01*
X653843Y780111D01*
X653939Y780073D01*
X654033Y780029D01*
X654053Y780027D01*
X654071Y780019D01*
X654238Y780001D01*
X655001Y780001D01*
X655001Y779999D01*
X654238Y779999D01*
X654218Y779996D01*
X654199Y779998D01*
X654097Y779976D01*
X653995Y779959D01*
X653978Y779950D01*
X653958Y779946D01*
X653869Y779893D01*
X653778Y779844D01*
X653764Y779830D01*
X653747Y779820D01*
X653680Y779741D01*
X653609Y779666D01*
X653600Y779648D01*
X653587Y779633D01*
X653548Y779537D01*
X653505Y779443D01*
X653503Y779423D01*
X653495Y779405D01*
X653477Y779238D01*
X653477Y768061D01*
X645268Y768061D01*
X644621Y768234D01*
X644042Y768569D01*
X643569Y769042D01*
X643282Y769538D01*
X643207Y769630D01*
X643133Y769723D01*
X643129Y769725D01*
X643127Y769728D01*
X643027Y769791D01*
X642926Y769856D01*
X642922Y769857D01*
X642918Y769859D01*
X642803Y769887D01*
X642687Y769916D01*
X642683Y769916D01*
X642679Y769917D01*
X642560Y769906D01*
X642442Y769897D01*
X642438Y769895D01*
X642434Y769895D01*
X642325Y769847D01*
X642216Y769801D01*
X642212Y769797D01*
X642209Y769796D01*
X642199Y769787D01*
X642085Y769696D01*
X640438Y768049D01*
X640385Y768048D01*
X640336Y768030D01*
X640285Y768022D01*
X640221Y767988D01*
X640154Y767963D01*
X640113Y767931D01*
X640067Y767906D01*
X640018Y767854D01*
X639962Y767810D01*
X639934Y767766D01*
X639898Y767728D01*
X639868Y767663D01*
X639829Y767603D01*
X639816Y767552D01*
X639794Y767505D01*
X639786Y767434D01*
X639769Y767364D01*
X639773Y767312D01*
X639767Y767261D01*
X639782Y767190D01*
X639788Y767119D01*
X639808Y767071D01*
X639819Y767020D01*
X639856Y766959D01*
X639884Y766893D01*
X639929Y766837D01*
X639946Y766809D01*
X639950Y766805D01*
X639951Y766803D01*
X639965Y766791D01*
X639989Y766762D01*
X691517Y715234D01*
X691591Y715181D01*
X691660Y715121D01*
X691691Y715109D01*
X691717Y715090D01*
X691804Y715063D01*
X691889Y715029D01*
X691930Y715025D01*
X691952Y715018D01*
X691984Y715019D01*
X692055Y715011D01*
X694785Y715011D01*
X694875Y715025D01*
X694966Y715033D01*
X694996Y715045D01*
X695027Y715050D01*
X695108Y715093D01*
X695192Y715129D01*
X695224Y715155D01*
X695245Y715166D01*
X695267Y715189D01*
X695323Y715234D01*
X696165Y716076D01*
X696177Y716092D01*
X696192Y716105D01*
X696249Y716192D01*
X696309Y716276D01*
X696315Y716295D01*
X696325Y716312D01*
X696351Y716412D01*
X696381Y716511D01*
X696381Y716531D01*
X696386Y716550D01*
X696378Y716653D01*
X696375Y716757D01*
X696368Y716776D01*
X696366Y716795D01*
X696326Y716890D01*
X696290Y716988D01*
X696278Y717003D01*
X696270Y717022D01*
X696165Y717153D01*
X694562Y718756D01*
X693179Y722094D01*
X693179Y725706D01*
X694562Y729044D01*
X697116Y731598D01*
X700454Y732981D01*
X717146Y732981D01*
X720484Y731598D01*
X722160Y729922D01*
X722218Y729881D01*
X722270Y729831D01*
X722317Y729809D01*
X722359Y729779D01*
X722428Y729758D01*
X722493Y729728D01*
X722545Y729722D01*
X722595Y729706D01*
X722666Y729708D01*
X722737Y729700D01*
X722788Y729711D01*
X722840Y729713D01*
X722908Y729737D01*
X722978Y729753D01*
X723023Y729779D01*
X723071Y729797D01*
X723127Y729842D01*
X723189Y729879D01*
X723223Y729918D01*
X723263Y729951D01*
X723302Y730011D01*
X723349Y730066D01*
X723368Y730114D01*
X723396Y730158D01*
X723414Y730227D01*
X723441Y730294D01*
X723449Y730365D01*
X723457Y730396D01*
X723455Y730420D01*
X723459Y730461D01*
X723459Y737266D01*
X733734Y747541D01*
X748266Y747541D01*
X758541Y737266D01*
X758541Y722734D01*
X748266Y712459D01*
X733734Y712459D01*
X725132Y721061D01*
X725095Y721088D01*
X725064Y721122D01*
X724996Y721159D01*
X724933Y721205D01*
X724889Y721218D01*
X724849Y721240D01*
X724772Y721254D01*
X724698Y721277D01*
X724652Y721276D01*
X724606Y721284D01*
X724529Y721273D01*
X724452Y721271D01*
X724409Y721255D01*
X724363Y721248D01*
X724294Y721213D01*
X724221Y721186D01*
X724185Y721158D01*
X724144Y721137D01*
X724089Y721081D01*
X724029Y721033D01*
X724004Y720994D01*
X723972Y720961D01*
X723906Y720841D01*
X723896Y720826D01*
X723894Y720821D01*
X723891Y720814D01*
X723038Y718756D01*
X721295Y717013D01*
X721283Y716996D01*
X721267Y716984D01*
X721211Y716897D01*
X721151Y716813D01*
X721145Y716794D01*
X721134Y716777D01*
X721109Y716677D01*
X721079Y716578D01*
X721079Y716558D01*
X721074Y716538D01*
X721082Y716435D01*
X721085Y716332D01*
X721092Y716313D01*
X721094Y716293D01*
X721134Y716198D01*
X721170Y716101D01*
X721182Y716085D01*
X721190Y716067D01*
X721295Y715936D01*
X721330Y715901D01*
X721997Y715234D01*
X722071Y715181D01*
X722140Y715121D01*
X722171Y715109D01*
X722197Y715090D01*
X722284Y715063D01*
X722369Y715029D01*
X722410Y715025D01*
X722432Y715018D01*
X722464Y715019D01*
X722535Y715011D01*
X723744Y715011D01*
X725902Y712853D01*
X731141Y707614D01*
X733299Y705456D01*
X733299Y661575D01*
X733313Y661485D01*
X733321Y661394D01*
X733333Y661365D01*
X733338Y661333D01*
X733381Y661252D01*
X733417Y661168D01*
X733443Y661136D01*
X733454Y661115D01*
X733477Y661093D01*
X733522Y661037D01*
X747905Y646654D01*
X747979Y646601D01*
X748048Y646541D01*
X748079Y646529D01*
X748105Y646510D01*
X748192Y646483D01*
X748277Y646449D01*
X748318Y646445D01*
X748340Y646438D01*
X748372Y646439D01*
X748443Y646431D01*
X775560Y646431D01*
X777495Y644496D01*
X777495Y641760D01*
X775560Y639825D01*
X774859Y639825D01*
X774789Y639814D01*
X774717Y639812D01*
X774668Y639794D01*
X774617Y639786D01*
X774553Y639752D01*
X774486Y639727D01*
X774445Y639695D01*
X774399Y639670D01*
X774350Y639618D01*
X774294Y639574D01*
X774266Y639530D01*
X774230Y639492D01*
X774200Y639427D01*
X774161Y639367D01*
X774148Y639316D01*
X774126Y639269D01*
X774118Y639198D01*
X774101Y639128D01*
X774105Y639076D01*
X774099Y639025D01*
X774114Y638954D01*
X774120Y638883D01*
X774140Y638835D01*
X774151Y638784D01*
X774188Y638723D01*
X774216Y638657D01*
X774261Y638601D01*
X774278Y638573D01*
X774295Y638558D01*
X774321Y638526D01*
X775337Y637510D01*
X775411Y637457D01*
X775480Y637397D01*
X775511Y637385D01*
X775537Y637366D01*
X775624Y637339D01*
X775709Y637305D01*
X775750Y637301D01*
X775772Y637294D01*
X775804Y637295D01*
X775875Y637287D01*
X815184Y637287D01*
X817342Y635129D01*
X848156Y604315D01*
X848172Y604303D01*
X848185Y604287D01*
X848272Y604231D01*
X848356Y604171D01*
X848375Y604165D01*
X848392Y604155D01*
X848492Y604129D01*
X848591Y604099D01*
X848611Y604099D01*
X848630Y604094D01*
X848733Y604102D01*
X848837Y604105D01*
X848855Y604112D01*
X848875Y604114D01*
X848970Y604154D01*
X849068Y604190D01*
X849083Y604202D01*
X849102Y604210D01*
X849233Y604315D01*
X849516Y604598D01*
X852854Y605981D01*
X869546Y605981D01*
X872884Y604598D01*
X875438Y602044D01*
X876821Y598706D01*
X876821Y595094D01*
X875438Y591756D01*
X872884Y589202D01*
X869546Y587819D01*
X852854Y587819D01*
G37*
%LPD*%
%LPC*%
G36*
X59592Y372597D02*
X59592Y372597D01*
X57063Y373645D01*
X55129Y375579D01*
X54081Y378108D01*
X54081Y380844D01*
X55129Y383373D01*
X57063Y385307D01*
X59011Y386114D01*
X59067Y386149D01*
X59127Y386175D01*
X59192Y386226D01*
X59220Y386244D01*
X59233Y386259D01*
X59258Y386279D01*
X59585Y386606D01*
X95517Y422538D01*
X95529Y422555D01*
X95545Y422567D01*
X95601Y422654D01*
X95661Y422738D01*
X95667Y422757D01*
X95678Y422774D01*
X95703Y422875D01*
X95733Y422973D01*
X95732Y422993D01*
X95737Y423013D01*
X95729Y423116D01*
X95727Y423219D01*
X95720Y423238D01*
X95718Y423258D01*
X95678Y423353D01*
X95642Y423450D01*
X95634Y423460D01*
X93845Y427779D01*
X93792Y427866D01*
X93743Y427954D01*
X93727Y427969D01*
X93715Y427988D01*
X93637Y428053D01*
X93563Y428122D01*
X93543Y428131D01*
X93526Y428145D01*
X93431Y428181D01*
X93339Y428223D01*
X93317Y428225D01*
X93296Y428233D01*
X93195Y428238D01*
X93094Y428248D01*
X93073Y428243D01*
X93051Y428244D01*
X92953Y428215D01*
X92855Y428193D01*
X92836Y428181D01*
X92814Y428175D01*
X92731Y428117D01*
X92645Y428065D01*
X92630Y428048D01*
X92612Y428035D01*
X92552Y427954D01*
X92487Y427876D01*
X92476Y427851D01*
X92465Y427838D01*
X92455Y427806D01*
X92418Y427723D01*
X91864Y426019D01*
X91011Y424345D01*
X89906Y422824D01*
X88578Y421496D01*
X87057Y420391D01*
X85383Y419538D01*
X83596Y418957D01*
X82323Y418756D01*
X82323Y439238D01*
X82320Y439258D01*
X82322Y439277D01*
X82300Y439379D01*
X82283Y439481D01*
X82274Y439498D01*
X82270Y439518D01*
X82217Y439607D01*
X82168Y439698D01*
X82154Y439712D01*
X82144Y439729D01*
X82065Y439796D01*
X81990Y439867D01*
X81972Y439876D01*
X81957Y439889D01*
X81861Y439927D01*
X81767Y439971D01*
X81747Y439973D01*
X81729Y439981D01*
X81562Y439999D01*
X80038Y439999D01*
X80018Y439996D01*
X79999Y439998D01*
X79897Y439976D01*
X79795Y439959D01*
X79778Y439950D01*
X79758Y439946D01*
X79669Y439893D01*
X79578Y439844D01*
X79564Y439830D01*
X79547Y439820D01*
X79480Y439741D01*
X79409Y439666D01*
X79400Y439648D01*
X79387Y439633D01*
X79348Y439537D01*
X79305Y439443D01*
X79303Y439423D01*
X79295Y439405D01*
X79277Y439238D01*
X79277Y418756D01*
X78004Y418957D01*
X76217Y419538D01*
X74543Y420391D01*
X73022Y421496D01*
X71694Y422824D01*
X70589Y424345D01*
X69736Y426019D01*
X69182Y427723D01*
X69136Y427813D01*
X69095Y427906D01*
X69080Y427922D01*
X69069Y427942D01*
X68997Y428012D01*
X68928Y428087D01*
X68909Y428098D01*
X68893Y428113D01*
X68802Y428157D01*
X68713Y428205D01*
X68691Y428209D01*
X68671Y428219D01*
X68570Y428231D01*
X68471Y428249D01*
X68449Y428246D01*
X68427Y428249D01*
X68328Y428228D01*
X68227Y428213D01*
X68208Y428203D01*
X68186Y428199D01*
X68099Y428148D01*
X68008Y428102D01*
X67993Y428086D01*
X67973Y428075D01*
X67907Y427999D01*
X67836Y427926D01*
X67823Y427902D01*
X67812Y427890D01*
X67799Y427859D01*
X67755Y427779D01*
X65993Y423524D01*
X62478Y420009D01*
X57885Y418107D01*
X52915Y418107D01*
X48322Y420009D01*
X44807Y423524D01*
X43403Y426914D01*
X43365Y426975D01*
X43336Y427041D01*
X43301Y427079D01*
X43274Y427123D01*
X43218Y427169D01*
X43170Y427222D01*
X43124Y427247D01*
X43084Y427280D01*
X43017Y427306D01*
X42954Y427340D01*
X42903Y427350D01*
X42855Y427368D01*
X42783Y427371D01*
X42712Y427384D01*
X42661Y427377D01*
X42609Y427379D01*
X42540Y427359D01*
X42469Y427348D01*
X42423Y427325D01*
X42373Y427310D01*
X42314Y427269D01*
X42250Y427237D01*
X42213Y427200D01*
X42171Y427170D01*
X42128Y427112D01*
X42078Y427061D01*
X42043Y426998D01*
X42024Y426973D01*
X42017Y426950D01*
X41997Y426914D01*
X40593Y423524D01*
X37078Y420009D01*
X32485Y418107D01*
X27515Y418107D01*
X22922Y420009D01*
X19407Y423524D01*
X17505Y428117D01*
X17505Y451883D01*
X19407Y456476D01*
X22922Y459991D01*
X27515Y461893D01*
X32485Y461893D01*
X37078Y459991D01*
X40593Y456476D01*
X41997Y453086D01*
X42035Y453025D01*
X42064Y452959D01*
X42099Y452921D01*
X42126Y452877D01*
X42182Y452831D01*
X42230Y452778D01*
X42276Y452753D01*
X42316Y452720D01*
X42383Y452694D01*
X42446Y452660D01*
X42497Y452650D01*
X42545Y452632D01*
X42617Y452629D01*
X42688Y452616D01*
X42739Y452623D01*
X42791Y452621D01*
X42860Y452641D01*
X42931Y452652D01*
X42977Y452675D01*
X43027Y452690D01*
X43086Y452731D01*
X43150Y452763D01*
X43187Y452800D01*
X43229Y452830D01*
X43272Y452888D01*
X43322Y452939D01*
X43357Y453002D01*
X43376Y453027D01*
X43383Y453050D01*
X43403Y453086D01*
X44807Y456476D01*
X48322Y459991D01*
X52915Y461893D01*
X57885Y461893D01*
X62478Y459991D01*
X65993Y456476D01*
X67755Y452221D01*
X67808Y452134D01*
X67857Y452046D01*
X67873Y452031D01*
X67885Y452012D01*
X67963Y451947D01*
X68037Y451878D01*
X68057Y451869D01*
X68074Y451855D01*
X68169Y451819D01*
X68261Y451777D01*
X68283Y451775D01*
X68304Y451767D01*
X68405Y451762D01*
X68506Y451752D01*
X68527Y451757D01*
X68549Y451756D01*
X68647Y451784D01*
X68745Y451807D01*
X68764Y451819D01*
X68786Y451825D01*
X68869Y451882D01*
X68955Y451935D01*
X68969Y451952D01*
X68988Y451965D01*
X69048Y452046D01*
X69113Y452124D01*
X69124Y452149D01*
X69134Y452162D01*
X69145Y452194D01*
X69182Y452277D01*
X69736Y453981D01*
X70589Y455655D01*
X71694Y457176D01*
X73022Y458504D01*
X74543Y459609D01*
X76217Y460462D01*
X78004Y461043D01*
X79277Y461244D01*
X79277Y440762D01*
X79280Y440742D01*
X79278Y440723D01*
X79300Y440621D01*
X79317Y440519D01*
X79326Y440502D01*
X79330Y440482D01*
X79383Y440393D01*
X79432Y440302D01*
X79446Y440288D01*
X79456Y440271D01*
X79535Y440204D01*
X79610Y440133D01*
X79628Y440124D01*
X79643Y440111D01*
X79739Y440073D01*
X79833Y440029D01*
X79853Y440027D01*
X79871Y440019D01*
X80038Y440001D01*
X81562Y440001D01*
X81582Y440004D01*
X81601Y440002D01*
X81703Y440024D01*
X81805Y440041D01*
X81822Y440050D01*
X81842Y440054D01*
X81931Y440107D01*
X82022Y440156D01*
X82036Y440170D01*
X82053Y440180D01*
X82120Y440259D01*
X82191Y440334D01*
X82200Y440352D01*
X82213Y440367D01*
X82252Y440463D01*
X82295Y440557D01*
X82297Y440577D01*
X82305Y440595D01*
X82323Y440762D01*
X82323Y461244D01*
X83596Y461043D01*
X85383Y460462D01*
X87057Y459609D01*
X88578Y458504D01*
X89906Y457176D01*
X91011Y455655D01*
X91864Y453981D01*
X92418Y452277D01*
X92464Y452187D01*
X92505Y452094D01*
X92520Y452078D01*
X92531Y452058D01*
X92603Y451988D01*
X92672Y451913D01*
X92691Y451902D01*
X92707Y451887D01*
X92798Y451843D01*
X92887Y451795D01*
X92909Y451791D01*
X92929Y451781D01*
X93030Y451769D01*
X93129Y451751D01*
X93151Y451754D01*
X93173Y451751D01*
X93272Y451772D01*
X93373Y451787D01*
X93392Y451797D01*
X93414Y451801D01*
X93502Y451852D01*
X93592Y451898D01*
X93607Y451914D01*
X93627Y451925D01*
X93693Y452001D01*
X93764Y452074D01*
X93777Y452098D01*
X93788Y452110D01*
X93801Y452141D01*
X93845Y452221D01*
X95607Y456476D01*
X99122Y459991D01*
X103715Y461893D01*
X108685Y461893D01*
X113278Y459991D01*
X116793Y456476D01*
X118197Y453086D01*
X118234Y453025D01*
X118264Y452959D01*
X118299Y452921D01*
X118326Y452877D01*
X118381Y452831D01*
X118430Y452778D01*
X118476Y452753D01*
X118516Y452720D01*
X118583Y452694D01*
X118646Y452660D01*
X118697Y452650D01*
X118745Y452632D01*
X118817Y452629D01*
X118888Y452616D01*
X118939Y452623D01*
X118991Y452621D01*
X119060Y452641D01*
X119131Y452652D01*
X119177Y452675D01*
X119227Y452690D01*
X119286Y452731D01*
X119350Y452763D01*
X119387Y452800D01*
X119429Y452830D01*
X119472Y452888D01*
X119522Y452939D01*
X119557Y453002D01*
X119576Y453027D01*
X119583Y453050D01*
X119603Y453086D01*
X121007Y456476D01*
X124522Y459991D01*
X129115Y461893D01*
X134085Y461893D01*
X138678Y459991D01*
X142193Y456476D01*
X144095Y451883D01*
X144095Y428117D01*
X142193Y423524D01*
X138678Y420009D01*
X134085Y418107D01*
X129115Y418107D01*
X124522Y420009D01*
X121007Y423524D01*
X119603Y426914D01*
X119565Y426975D01*
X119536Y427041D01*
X119501Y427079D01*
X119474Y427123D01*
X119418Y427169D01*
X119370Y427222D01*
X119324Y427247D01*
X119284Y427280D01*
X119217Y427306D01*
X119154Y427340D01*
X119103Y427350D01*
X119055Y427368D01*
X118983Y427371D01*
X118912Y427384D01*
X118861Y427377D01*
X118809Y427379D01*
X118740Y427359D01*
X118669Y427348D01*
X118623Y427325D01*
X118573Y427310D01*
X118514Y427269D01*
X118450Y427237D01*
X118413Y427200D01*
X118371Y427170D01*
X118328Y427112D01*
X118278Y427061D01*
X118243Y426998D01*
X118224Y426973D01*
X118217Y426950D01*
X118197Y426914D01*
X116793Y423524D01*
X113278Y420009D01*
X108685Y418107D01*
X103715Y418107D01*
X102972Y418415D01*
X102859Y418441D01*
X102745Y418470D01*
X102739Y418469D01*
X102733Y418471D01*
X102616Y418460D01*
X102500Y418451D01*
X102494Y418448D01*
X102488Y418448D01*
X102380Y418400D01*
X102274Y418355D01*
X102268Y418350D01*
X102263Y418348D01*
X102250Y418335D01*
X102143Y418250D01*
X67290Y383397D01*
X67222Y383302D01*
X67152Y383208D01*
X67150Y383202D01*
X67146Y383197D01*
X67112Y383086D01*
X67076Y382974D01*
X67076Y382968D01*
X67074Y382962D01*
X67077Y382845D01*
X67078Y382728D01*
X67080Y382721D01*
X67080Y382716D01*
X67087Y382699D01*
X67125Y382567D01*
X67839Y380844D01*
X67839Y378108D01*
X66791Y375579D01*
X64857Y373645D01*
X62328Y372597D01*
X59592Y372597D01*
G37*
%LPD*%
%LPC*%
G36*
X749550Y648061D02*
X749550Y648061D01*
X748061Y649550D01*
X748061Y670450D01*
X749550Y671939D01*
X756412Y671939D01*
X756432Y671942D01*
X756451Y671940D01*
X756553Y671962D01*
X756655Y671978D01*
X756672Y671988D01*
X756692Y671992D01*
X756781Y672045D01*
X756872Y672094D01*
X756886Y672108D01*
X756903Y672118D01*
X756970Y672197D01*
X757042Y672272D01*
X757050Y672290D01*
X757063Y672305D01*
X757102Y672401D01*
X757145Y672495D01*
X757147Y672515D01*
X757155Y672533D01*
X757173Y672700D01*
X757173Y678024D01*
X802670Y723521D01*
X802723Y723595D01*
X802783Y723664D01*
X802795Y723695D01*
X802814Y723721D01*
X802841Y723808D01*
X802875Y723893D01*
X802879Y723934D01*
X802886Y723956D01*
X802885Y723988D01*
X802893Y724059D01*
X802893Y798420D01*
X848057Y843584D01*
X848069Y843600D01*
X848084Y843613D01*
X848141Y843700D01*
X848201Y843784D01*
X848207Y843803D01*
X848217Y843820D01*
X848243Y843920D01*
X848273Y844019D01*
X848273Y844039D01*
X848278Y844058D01*
X848270Y844161D01*
X848267Y844265D01*
X848260Y844284D01*
X848258Y844303D01*
X848218Y844398D01*
X848182Y844496D01*
X848170Y844511D01*
X848162Y844530D01*
X848057Y844661D01*
X846962Y845756D01*
X845579Y849094D01*
X845579Y852706D01*
X846962Y856044D01*
X849516Y858598D01*
X852854Y859981D01*
X869546Y859981D01*
X872884Y858598D01*
X875438Y856044D01*
X876821Y852706D01*
X876821Y849094D01*
X875438Y845756D01*
X872884Y843202D01*
X869546Y841819D01*
X855949Y841819D01*
X855859Y841805D01*
X855768Y841797D01*
X855739Y841785D01*
X855707Y841780D01*
X855626Y841737D01*
X855542Y841701D01*
X855510Y841675D01*
X855489Y841664D01*
X855467Y841641D01*
X855411Y841596D01*
X809722Y795907D01*
X809669Y795833D01*
X809609Y795764D01*
X809597Y795733D01*
X809578Y795707D01*
X809551Y795620D01*
X809517Y795535D01*
X809513Y795494D01*
X809506Y795472D01*
X809507Y795440D01*
X809499Y795369D01*
X809499Y721008D01*
X764002Y675511D01*
X763949Y675437D01*
X763889Y675368D01*
X763877Y675337D01*
X763858Y675311D01*
X763831Y675224D01*
X763797Y675139D01*
X763793Y675098D01*
X763786Y675076D01*
X763787Y675044D01*
X763779Y674973D01*
X763779Y672700D01*
X763782Y672680D01*
X763780Y672661D01*
X763802Y672559D01*
X763818Y672457D01*
X763828Y672440D01*
X763832Y672420D01*
X763885Y672331D01*
X763934Y672240D01*
X763948Y672226D01*
X763958Y672209D01*
X764037Y672142D01*
X764112Y672070D01*
X764130Y672062D01*
X764145Y672049D01*
X764241Y672010D01*
X764335Y671967D01*
X764355Y671965D01*
X764373Y671957D01*
X764540Y671939D01*
X770450Y671939D01*
X771962Y670427D01*
X771978Y670416D01*
X771990Y670400D01*
X772078Y670344D01*
X772161Y670284D01*
X772180Y670278D01*
X772197Y670267D01*
X772298Y670242D01*
X772397Y670212D01*
X772416Y670212D01*
X772436Y670207D01*
X772539Y670215D01*
X772642Y670218D01*
X772661Y670225D01*
X772681Y670226D01*
X772776Y670267D01*
X772873Y670302D01*
X772889Y670315D01*
X772907Y670323D01*
X773038Y670427D01*
X774550Y671939D01*
X795450Y671939D01*
X797085Y670304D01*
X797181Y670235D01*
X797277Y670164D01*
X797281Y670163D01*
X797285Y670161D01*
X797397Y670126D01*
X797512Y670089D01*
X797516Y670090D01*
X797520Y670088D01*
X797638Y670091D01*
X797758Y670093D01*
X797761Y670095D01*
X797766Y670095D01*
X797877Y670135D01*
X797989Y670175D01*
X797993Y670178D01*
X797997Y670179D01*
X798089Y670253D01*
X798183Y670327D01*
X798186Y670331D01*
X798189Y670333D01*
X798196Y670345D01*
X798282Y670462D01*
X798569Y670958D01*
X799042Y671431D01*
X799621Y671766D01*
X800268Y671939D01*
X808477Y671939D01*
X808477Y660762D01*
X808480Y660742D01*
X808478Y660723D01*
X808500Y660621D01*
X808517Y660519D01*
X808526Y660502D01*
X808530Y660482D01*
X808583Y660393D01*
X808632Y660302D01*
X808646Y660288D01*
X808656Y660271D01*
X808735Y660204D01*
X808810Y660133D01*
X808828Y660124D01*
X808843Y660111D01*
X808939Y660073D01*
X809033Y660029D01*
X809053Y660027D01*
X809071Y660019D01*
X809238Y660001D01*
X810001Y660001D01*
X810001Y659999D01*
X809238Y659999D01*
X809218Y659996D01*
X809199Y659998D01*
X809097Y659976D01*
X808995Y659959D01*
X808978Y659950D01*
X808958Y659946D01*
X808869Y659893D01*
X808778Y659844D01*
X808764Y659830D01*
X808747Y659820D01*
X808680Y659741D01*
X808609Y659666D01*
X808600Y659648D01*
X808587Y659633D01*
X808548Y659537D01*
X808505Y659443D01*
X808503Y659423D01*
X808495Y659405D01*
X808477Y659238D01*
X808477Y648061D01*
X800268Y648061D01*
X799621Y648234D01*
X799042Y648569D01*
X798569Y649042D01*
X798282Y649538D01*
X798207Y649630D01*
X798133Y649723D01*
X798129Y649725D01*
X798127Y649728D01*
X798027Y649791D01*
X797926Y649856D01*
X797922Y649857D01*
X797918Y649859D01*
X797803Y649887D01*
X797687Y649916D01*
X797683Y649916D01*
X797679Y649917D01*
X797560Y649906D01*
X797442Y649897D01*
X797438Y649895D01*
X797434Y649895D01*
X797325Y649847D01*
X797216Y649801D01*
X797212Y649797D01*
X797209Y649796D01*
X797199Y649787D01*
X797085Y649696D01*
X795450Y648061D01*
X774550Y648061D01*
X773038Y649573D01*
X773022Y649584D01*
X773010Y649600D01*
X772922Y649656D01*
X772839Y649716D01*
X772820Y649722D01*
X772803Y649733D01*
X772702Y649758D01*
X772603Y649788D01*
X772584Y649788D01*
X772564Y649793D01*
X772461Y649785D01*
X772358Y649782D01*
X772339Y649775D01*
X772319Y649774D01*
X772224Y649733D01*
X772127Y649698D01*
X772111Y649685D01*
X772093Y649677D01*
X771962Y649573D01*
X770450Y648061D01*
X749550Y648061D01*
G37*
%LPD*%
%LPC*%
G36*
X227547Y707457D02*
X227547Y707457D01*
X222814Y709417D01*
X219192Y713039D01*
X217232Y717772D01*
X217232Y742452D01*
X219192Y747185D01*
X222814Y750807D01*
X227547Y752767D01*
X232669Y752767D01*
X237402Y750807D01*
X241024Y747185D01*
X242105Y744574D01*
X242143Y744513D01*
X242172Y744448D01*
X242207Y744410D01*
X242234Y744365D01*
X242290Y744320D01*
X242338Y744267D01*
X242384Y744242D01*
X242424Y744208D01*
X242491Y744183D01*
X242554Y744148D01*
X242605Y744139D01*
X242653Y744120D01*
X242725Y744117D01*
X242796Y744104D01*
X242847Y744112D01*
X242899Y744110D01*
X242968Y744130D01*
X243039Y744140D01*
X243085Y744164D01*
X243135Y744178D01*
X243194Y744219D01*
X243258Y744252D01*
X243295Y744289D01*
X243337Y744319D01*
X243380Y744376D01*
X243430Y744427D01*
X243465Y744490D01*
X243484Y744516D01*
X243491Y744538D01*
X243511Y744574D01*
X244592Y747185D01*
X248214Y750807D01*
X252947Y752767D01*
X258069Y752767D01*
X262802Y750807D01*
X266424Y747185D01*
X267505Y744574D01*
X267543Y744513D01*
X267572Y744448D01*
X267607Y744410D01*
X267634Y744365D01*
X267690Y744320D01*
X267738Y744267D01*
X267784Y744242D01*
X267824Y744208D01*
X267891Y744183D01*
X267954Y744148D01*
X268005Y744139D01*
X268053Y744120D01*
X268125Y744117D01*
X268196Y744104D01*
X268247Y744112D01*
X268299Y744110D01*
X268368Y744130D01*
X268439Y744140D01*
X268485Y744164D01*
X268535Y744178D01*
X268594Y744219D01*
X268658Y744252D01*
X268695Y744289D01*
X268737Y744319D01*
X268780Y744376D01*
X268830Y744427D01*
X268865Y744490D01*
X268884Y744516D01*
X268891Y744538D01*
X268911Y744574D01*
X269992Y747185D01*
X273614Y750807D01*
X278347Y752767D01*
X283469Y752767D01*
X288202Y750807D01*
X291824Y747185D01*
X293784Y742452D01*
X293784Y717772D01*
X291824Y713039D01*
X288202Y709417D01*
X283469Y707457D01*
X278347Y707457D01*
X273614Y709417D01*
X269992Y713039D01*
X268911Y715650D01*
X268873Y715711D01*
X268844Y715776D01*
X268809Y715814D01*
X268782Y715859D01*
X268726Y715904D01*
X268678Y715957D01*
X268632Y715982D01*
X268592Y716016D01*
X268525Y716041D01*
X268462Y716076D01*
X268411Y716085D01*
X268363Y716104D01*
X268291Y716107D01*
X268220Y716120D01*
X268169Y716112D01*
X268117Y716114D01*
X268048Y716094D01*
X267977Y716084D01*
X267931Y716060D01*
X267881Y716046D01*
X267822Y716005D01*
X267758Y715972D01*
X267721Y715935D01*
X267679Y715905D01*
X267636Y715848D01*
X267586Y715797D01*
X267551Y715734D01*
X267532Y715708D01*
X267525Y715686D01*
X267505Y715650D01*
X266424Y713039D01*
X262802Y709417D01*
X258069Y707457D01*
X252947Y707457D01*
X248214Y709417D01*
X244592Y713039D01*
X243511Y715650D01*
X243473Y715711D01*
X243444Y715776D01*
X243409Y715814D01*
X243382Y715859D01*
X243326Y715904D01*
X243278Y715957D01*
X243232Y715982D01*
X243192Y716016D01*
X243125Y716041D01*
X243062Y716076D01*
X243011Y716085D01*
X242963Y716104D01*
X242891Y716107D01*
X242820Y716120D01*
X242769Y716112D01*
X242717Y716114D01*
X242648Y716094D01*
X242577Y716084D01*
X242531Y716060D01*
X242481Y716046D01*
X242422Y716005D01*
X242358Y715972D01*
X242321Y715935D01*
X242279Y715905D01*
X242236Y715848D01*
X242186Y715797D01*
X242151Y715734D01*
X242132Y715708D01*
X242125Y715686D01*
X242105Y715650D01*
X241024Y713039D01*
X237402Y709417D01*
X232669Y707457D01*
X227547Y707457D01*
G37*
%LPD*%
%LPC*%
G36*
X27768Y786154D02*
X27768Y786154D01*
X23035Y788114D01*
X19413Y791736D01*
X17453Y796469D01*
X17453Y801591D01*
X19413Y806324D01*
X23035Y809946D01*
X25646Y811027D01*
X25707Y811065D01*
X25772Y811094D01*
X25810Y811129D01*
X25855Y811156D01*
X25900Y811212D01*
X25953Y811260D01*
X25978Y811306D01*
X26012Y811346D01*
X26037Y811413D01*
X26072Y811476D01*
X26081Y811527D01*
X26100Y811575D01*
X26103Y811647D01*
X26116Y811718D01*
X26108Y811769D01*
X26110Y811821D01*
X26090Y811890D01*
X26080Y811961D01*
X26056Y812007D01*
X26042Y812057D01*
X26001Y812116D01*
X25968Y812180D01*
X25931Y812217D01*
X25901Y812259D01*
X25844Y812302D01*
X25793Y812352D01*
X25730Y812387D01*
X25704Y812406D01*
X25682Y812413D01*
X25646Y812433D01*
X23035Y813514D01*
X19413Y817136D01*
X17453Y821869D01*
X17453Y826991D01*
X19413Y831724D01*
X23035Y835346D01*
X25646Y836427D01*
X25707Y836465D01*
X25772Y836494D01*
X25810Y836529D01*
X25855Y836556D01*
X25900Y836612D01*
X25953Y836660D01*
X25978Y836706D01*
X26012Y836746D01*
X26037Y836813D01*
X26072Y836876D01*
X26081Y836927D01*
X26100Y836975D01*
X26103Y837047D01*
X26116Y837118D01*
X26108Y837169D01*
X26110Y837221D01*
X26090Y837290D01*
X26080Y837361D01*
X26056Y837407D01*
X26042Y837457D01*
X26001Y837516D01*
X25968Y837580D01*
X25931Y837617D01*
X25901Y837659D01*
X25844Y837702D01*
X25793Y837752D01*
X25730Y837787D01*
X25704Y837806D01*
X25682Y837813D01*
X25646Y837833D01*
X23035Y838914D01*
X19413Y842536D01*
X17453Y847269D01*
X17453Y852391D01*
X19413Y857124D01*
X23035Y860746D01*
X27768Y862706D01*
X52448Y862706D01*
X57181Y860746D01*
X60803Y857124D01*
X62763Y852391D01*
X62763Y847269D01*
X60803Y842536D01*
X57181Y838914D01*
X54570Y837833D01*
X54509Y837795D01*
X54444Y837766D01*
X54406Y837731D01*
X54361Y837704D01*
X54316Y837648D01*
X54263Y837600D01*
X54238Y837554D01*
X54204Y837514D01*
X54179Y837447D01*
X54144Y837384D01*
X54135Y837333D01*
X54116Y837285D01*
X54113Y837213D01*
X54100Y837142D01*
X54108Y837091D01*
X54106Y837039D01*
X54126Y836970D01*
X54136Y836899D01*
X54160Y836853D01*
X54174Y836803D01*
X54215Y836744D01*
X54248Y836680D01*
X54285Y836643D01*
X54315Y836601D01*
X54372Y836558D01*
X54423Y836508D01*
X54486Y836473D01*
X54512Y836454D01*
X54534Y836447D01*
X54570Y836427D01*
X57181Y835346D01*
X60803Y831724D01*
X62763Y826991D01*
X62763Y821869D01*
X60803Y817136D01*
X57181Y813514D01*
X54570Y812433D01*
X54509Y812395D01*
X54444Y812366D01*
X54406Y812331D01*
X54361Y812304D01*
X54316Y812248D01*
X54263Y812200D01*
X54238Y812154D01*
X54204Y812114D01*
X54179Y812047D01*
X54144Y811984D01*
X54135Y811933D01*
X54116Y811885D01*
X54113Y811813D01*
X54100Y811742D01*
X54108Y811691D01*
X54106Y811639D01*
X54126Y811570D01*
X54136Y811499D01*
X54160Y811453D01*
X54174Y811403D01*
X54215Y811344D01*
X54248Y811280D01*
X54285Y811243D01*
X54315Y811201D01*
X54372Y811158D01*
X54423Y811108D01*
X54486Y811073D01*
X54512Y811054D01*
X54534Y811047D01*
X54570Y811027D01*
X57181Y809946D01*
X60803Y806324D01*
X62763Y801591D01*
X62763Y796469D01*
X60803Y791736D01*
X57181Y788114D01*
X52448Y786154D01*
X27768Y786154D01*
G37*
%LPD*%
%LPC*%
G36*
X700454Y410019D02*
X700454Y410019D01*
X697116Y411402D01*
X694562Y413956D01*
X693179Y417294D01*
X693179Y418927D01*
X693165Y419017D01*
X693157Y419108D01*
X693145Y419137D01*
X693140Y419169D01*
X693097Y419250D01*
X693061Y419334D01*
X693035Y419366D01*
X693024Y419387D01*
X693001Y419409D01*
X692956Y419465D01*
X690751Y421670D01*
X690677Y421723D01*
X690608Y421783D01*
X690577Y421795D01*
X690551Y421814D01*
X690464Y421841D01*
X690379Y421875D01*
X690338Y421879D01*
X690316Y421886D01*
X690284Y421885D01*
X690213Y421893D01*
X687480Y421893D01*
X642873Y466500D01*
X642873Y505809D01*
X642859Y505899D01*
X642851Y505990D01*
X642839Y506019D01*
X642834Y506051D01*
X642791Y506132D01*
X642755Y506216D01*
X642729Y506248D01*
X642718Y506269D01*
X642695Y506291D01*
X642650Y506347D01*
X613238Y535759D01*
X613180Y535801D01*
X613128Y535850D01*
X613081Y535872D01*
X613039Y535903D01*
X612970Y535924D01*
X612905Y535954D01*
X612853Y535960D01*
X612803Y535975D01*
X612732Y535973D01*
X612661Y535981D01*
X612610Y535970D01*
X612558Y535969D01*
X612490Y535944D01*
X612420Y535929D01*
X612375Y535902D01*
X612327Y535884D01*
X612271Y535839D01*
X612209Y535802D01*
X612175Y535763D01*
X612135Y535730D01*
X612096Y535670D01*
X612049Y535616D01*
X612030Y535567D01*
X612002Y535523D01*
X611984Y535454D01*
X611957Y535387D01*
X611949Y535316D01*
X611941Y535285D01*
X611943Y535262D01*
X611939Y535221D01*
X611939Y534550D01*
X610427Y533038D01*
X610416Y533022D01*
X610400Y533010D01*
X610344Y532922D01*
X610284Y532839D01*
X610278Y532820D01*
X610267Y532803D01*
X610242Y532702D01*
X610212Y532603D01*
X610212Y532584D01*
X610207Y532564D01*
X610215Y532461D01*
X610218Y532358D01*
X610225Y532339D01*
X610226Y532319D01*
X610267Y532224D01*
X610302Y532127D01*
X610315Y532111D01*
X610323Y532093D01*
X610427Y531962D01*
X611939Y530450D01*
X611939Y509550D01*
X610304Y507915D01*
X610235Y507819D01*
X610164Y507723D01*
X610163Y507719D01*
X610161Y507715D01*
X610126Y507603D01*
X610089Y507488D01*
X610090Y507484D01*
X610088Y507480D01*
X610091Y507362D01*
X610093Y507242D01*
X610095Y507239D01*
X610095Y507234D01*
X610135Y507123D01*
X610175Y507011D01*
X610178Y507007D01*
X610179Y507003D01*
X610253Y506911D01*
X610327Y506817D01*
X610331Y506814D01*
X610333Y506811D01*
X610345Y506804D01*
X610462Y506718D01*
X610958Y506431D01*
X611431Y505958D01*
X611766Y505379D01*
X611939Y504732D01*
X611939Y496523D01*
X600762Y496523D01*
X600742Y496520D01*
X600723Y496522D01*
X600621Y496500D01*
X600519Y496483D01*
X600502Y496474D01*
X600482Y496470D01*
X600393Y496417D01*
X600302Y496368D01*
X600288Y496354D01*
X600271Y496344D01*
X600204Y496265D01*
X600133Y496190D01*
X600124Y496172D01*
X600111Y496157D01*
X600073Y496061D01*
X600029Y495967D01*
X600027Y495947D01*
X600019Y495929D01*
X600001Y495762D01*
X600001Y494999D01*
X599999Y494999D01*
X599999Y495762D01*
X599996Y495782D01*
X599998Y495801D01*
X599976Y495903D01*
X599959Y496005D01*
X599950Y496022D01*
X599946Y496042D01*
X599893Y496131D01*
X599844Y496222D01*
X599830Y496236D01*
X599820Y496253D01*
X599741Y496320D01*
X599666Y496391D01*
X599648Y496400D01*
X599633Y496413D01*
X599537Y496452D01*
X599443Y496495D01*
X599423Y496497D01*
X599405Y496505D01*
X599238Y496523D01*
X588061Y496523D01*
X588061Y504732D01*
X588234Y505379D01*
X588569Y505958D01*
X589042Y506431D01*
X589538Y506718D01*
X589630Y506793D01*
X589723Y506867D01*
X589725Y506871D01*
X589728Y506873D01*
X589791Y506973D01*
X589856Y507074D01*
X589857Y507078D01*
X589859Y507082D01*
X589887Y507197D01*
X589916Y507313D01*
X589916Y507317D01*
X589917Y507321D01*
X589906Y507438D01*
X589897Y507558D01*
X589895Y507562D01*
X589895Y507566D01*
X589847Y507675D01*
X589801Y507784D01*
X589797Y507788D01*
X589796Y507791D01*
X589787Y507801D01*
X589696Y507915D01*
X588061Y509550D01*
X588061Y530450D01*
X589573Y531962D01*
X589584Y531978D01*
X589600Y531990D01*
X589656Y532078D01*
X589716Y532161D01*
X589722Y532180D01*
X589733Y532197D01*
X589758Y532298D01*
X589788Y532397D01*
X589788Y532416D01*
X589793Y532436D01*
X589785Y532539D01*
X589782Y532642D01*
X589775Y532661D01*
X589774Y532681D01*
X589733Y532776D01*
X589698Y532873D01*
X589685Y532889D01*
X589677Y532907D01*
X589573Y533038D01*
X588061Y534550D01*
X588061Y555450D01*
X589550Y556939D01*
X610450Y556939D01*
X611939Y555450D01*
X611939Y546715D01*
X611953Y546625D01*
X611961Y546534D01*
X611973Y546505D01*
X611978Y546473D01*
X612021Y546392D01*
X612057Y546308D01*
X612083Y546276D01*
X612094Y546255D01*
X612117Y546233D01*
X612162Y546177D01*
X649479Y508860D01*
X649479Y469551D01*
X649493Y469461D01*
X649501Y469370D01*
X649513Y469341D01*
X649518Y469309D01*
X649561Y469228D01*
X649597Y469144D01*
X649623Y469112D01*
X649634Y469091D01*
X649657Y469069D01*
X649702Y469013D01*
X689993Y428722D01*
X690067Y428669D01*
X690136Y428609D01*
X690167Y428597D01*
X690193Y428578D01*
X690280Y428551D01*
X690365Y428517D01*
X690406Y428513D01*
X690428Y428506D01*
X690460Y428507D01*
X690531Y428499D01*
X693264Y428499D01*
X695502Y426261D01*
X695518Y426249D01*
X695531Y426234D01*
X695618Y426178D01*
X695702Y426117D01*
X695721Y426111D01*
X695738Y426101D01*
X695838Y426075D01*
X695937Y426045D01*
X695957Y426045D01*
X695976Y426040D01*
X696079Y426048D01*
X696183Y426051D01*
X696201Y426058D01*
X696221Y426060D01*
X696316Y426100D01*
X696414Y426136D01*
X696429Y426148D01*
X696448Y426156D01*
X696579Y426261D01*
X697116Y426798D01*
X700454Y428181D01*
X717146Y428181D01*
X720484Y426798D01*
X723038Y424244D01*
X724421Y420906D01*
X724421Y417294D01*
X723038Y413956D01*
X720484Y411402D01*
X717146Y410019D01*
X700454Y410019D01*
G37*
%LPD*%
%LPC*%
G36*
X219319Y767505D02*
X219319Y767505D01*
X217505Y769319D01*
X217505Y790681D01*
X219319Y792495D01*
X240681Y792495D01*
X241962Y791214D01*
X241978Y791202D01*
X241990Y791187D01*
X242078Y791130D01*
X242161Y791070D01*
X242180Y791064D01*
X242197Y791054D01*
X242298Y791028D01*
X242397Y790998D01*
X242416Y790998D01*
X242436Y790993D01*
X242539Y791002D01*
X242642Y791004D01*
X242661Y791011D01*
X242681Y791013D01*
X242776Y791053D01*
X242873Y791089D01*
X242889Y791101D01*
X242907Y791109D01*
X243038Y791214D01*
X244319Y792495D01*
X265681Y792495D01*
X266962Y791214D01*
X266978Y791202D01*
X266990Y791187D01*
X267078Y791130D01*
X267161Y791070D01*
X267180Y791064D01*
X267197Y791054D01*
X267298Y791028D01*
X267397Y790998D01*
X267416Y790998D01*
X267436Y790993D01*
X267539Y791002D01*
X267642Y791004D01*
X267661Y791011D01*
X267681Y791013D01*
X267776Y791053D01*
X267873Y791089D01*
X267889Y791101D01*
X267907Y791109D01*
X268038Y791214D01*
X269319Y792495D01*
X290681Y792495D01*
X292495Y790681D01*
X292495Y769319D01*
X290681Y767505D01*
X269319Y767505D01*
X268038Y768786D01*
X268022Y768798D01*
X268010Y768813D01*
X267922Y768870D01*
X267839Y768930D01*
X267820Y768936D01*
X267803Y768946D01*
X267702Y768972D01*
X267603Y769002D01*
X267584Y769002D01*
X267564Y769007D01*
X267461Y768998D01*
X267358Y768996D01*
X267339Y768989D01*
X267319Y768987D01*
X267224Y768947D01*
X267127Y768911D01*
X267111Y768899D01*
X267093Y768891D01*
X266962Y768786D01*
X265681Y767505D01*
X244319Y767505D01*
X243038Y768786D01*
X243022Y768798D01*
X243010Y768813D01*
X242922Y768870D01*
X242839Y768930D01*
X242820Y768936D01*
X242803Y768946D01*
X242702Y768972D01*
X242603Y769002D01*
X242584Y769002D01*
X242564Y769007D01*
X242461Y768998D01*
X242358Y768996D01*
X242339Y768989D01*
X242319Y768987D01*
X242224Y768947D01*
X242127Y768911D01*
X242111Y768899D01*
X242093Y768891D01*
X241962Y768786D01*
X240681Y767505D01*
X219319Y767505D01*
G37*
%LPD*%
%LPC*%
G36*
X58907Y647505D02*
X58907Y647505D01*
X57093Y649319D01*
X57093Y670681D01*
X58907Y672495D01*
X80268Y672495D01*
X81549Y671214D01*
X81565Y671202D01*
X81578Y671187D01*
X81665Y671130D01*
X81749Y671070D01*
X81768Y671064D01*
X81785Y671054D01*
X81885Y671028D01*
X81984Y670998D01*
X82004Y670998D01*
X82023Y670993D01*
X82126Y671002D01*
X82230Y671004D01*
X82249Y671011D01*
X82269Y671013D01*
X82363Y671053D01*
X82461Y671089D01*
X82477Y671101D01*
X82495Y671109D01*
X82626Y671214D01*
X83907Y672495D01*
X105268Y672495D01*
X106549Y671214D01*
X106565Y671202D01*
X106578Y671187D01*
X106665Y671130D01*
X106749Y671070D01*
X106768Y671064D01*
X106785Y671054D01*
X106885Y671028D01*
X106984Y670998D01*
X107004Y670998D01*
X107023Y670993D01*
X107126Y671002D01*
X107230Y671004D01*
X107249Y671011D01*
X107269Y671013D01*
X107363Y671053D01*
X107461Y671089D01*
X107477Y671101D01*
X107495Y671109D01*
X107626Y671214D01*
X108907Y672495D01*
X130268Y672495D01*
X132082Y670681D01*
X132082Y649319D01*
X130268Y647505D01*
X108907Y647505D01*
X107626Y648786D01*
X107610Y648798D01*
X107597Y648813D01*
X107510Y648870D01*
X107426Y648930D01*
X107407Y648936D01*
X107390Y648946D01*
X107290Y648972D01*
X107191Y649002D01*
X107171Y649002D01*
X107152Y649007D01*
X107049Y648998D01*
X106945Y648996D01*
X106926Y648989D01*
X106907Y648987D01*
X106812Y648947D01*
X106714Y648911D01*
X106698Y648899D01*
X106680Y648891D01*
X106549Y648786D01*
X105268Y647505D01*
X83907Y647505D01*
X82626Y648786D01*
X82610Y648798D01*
X82597Y648813D01*
X82510Y648870D01*
X82426Y648930D01*
X82407Y648936D01*
X82390Y648946D01*
X82290Y648972D01*
X82191Y649002D01*
X82171Y649002D01*
X82152Y649007D01*
X82049Y648998D01*
X81945Y648996D01*
X81926Y648989D01*
X81907Y648987D01*
X81812Y648947D01*
X81714Y648911D01*
X81698Y648899D01*
X81680Y648891D01*
X81549Y648786D01*
X80268Y647505D01*
X58907Y647505D01*
G37*
%LPD*%
%LPC*%
G36*
X821734Y712459D02*
X821734Y712459D01*
X811459Y722734D01*
X811459Y737266D01*
X821734Y747541D01*
X836266Y747541D01*
X846541Y737266D01*
X846541Y730461D01*
X846552Y730390D01*
X846554Y730318D01*
X846572Y730269D01*
X846580Y730218D01*
X846614Y730155D01*
X846639Y730087D01*
X846671Y730047D01*
X846696Y730001D01*
X846748Y729951D01*
X846792Y729895D01*
X846836Y729867D01*
X846874Y729831D01*
X846939Y729801D01*
X846999Y729762D01*
X847050Y729749D01*
X847097Y729728D01*
X847168Y729720D01*
X847238Y729702D01*
X847290Y729706D01*
X847341Y729700D01*
X847412Y729716D01*
X847483Y729721D01*
X847531Y729742D01*
X847582Y729753D01*
X847643Y729789D01*
X847709Y729818D01*
X847765Y729862D01*
X847793Y729879D01*
X847808Y729897D01*
X847840Y729922D01*
X849516Y731598D01*
X852854Y732981D01*
X869546Y732981D01*
X872884Y731598D01*
X875438Y729044D01*
X876821Y725706D01*
X876821Y722094D01*
X875438Y718756D01*
X872884Y716202D01*
X869546Y714819D01*
X852854Y714819D01*
X849516Y716202D01*
X846962Y718756D01*
X846109Y720814D01*
X846085Y720853D01*
X846069Y720896D01*
X846021Y720957D01*
X845980Y721023D01*
X845944Y721053D01*
X845916Y721088D01*
X845850Y721131D01*
X845790Y721180D01*
X845747Y721197D01*
X845709Y721221D01*
X845633Y721241D01*
X845561Y721268D01*
X845515Y721270D01*
X845470Y721282D01*
X845393Y721276D01*
X845315Y721279D01*
X845271Y721266D01*
X845225Y721262D01*
X845153Y721232D01*
X845079Y721210D01*
X845041Y721184D01*
X844999Y721166D01*
X844892Y721081D01*
X844876Y721070D01*
X844873Y721066D01*
X844868Y721061D01*
X836266Y712459D01*
X821734Y712459D01*
G37*
%LPD*%
%LPC*%
G36*
X407050Y618061D02*
X407050Y618061D01*
X405561Y619550D01*
X405561Y640450D01*
X407050Y641939D01*
X427950Y641939D01*
X429462Y640427D01*
X429478Y640416D01*
X429490Y640400D01*
X429578Y640344D01*
X429661Y640284D01*
X429680Y640278D01*
X429697Y640267D01*
X429798Y640242D01*
X429897Y640212D01*
X429916Y640212D01*
X429936Y640207D01*
X430039Y640215D01*
X430142Y640218D01*
X430161Y640225D01*
X430181Y640226D01*
X430276Y640267D01*
X430373Y640302D01*
X430389Y640315D01*
X430407Y640323D01*
X430538Y640427D01*
X432050Y641939D01*
X452950Y641939D01*
X454585Y640304D01*
X454681Y640235D01*
X454777Y640164D01*
X454781Y640163D01*
X454785Y640161D01*
X454897Y640126D01*
X455012Y640089D01*
X455016Y640090D01*
X455020Y640088D01*
X455138Y640091D01*
X455258Y640093D01*
X455261Y640095D01*
X455266Y640095D01*
X455377Y640135D01*
X455489Y640175D01*
X455493Y640178D01*
X455497Y640179D01*
X455589Y640253D01*
X455683Y640327D01*
X455686Y640331D01*
X455689Y640333D01*
X455696Y640345D01*
X455782Y640462D01*
X456069Y640958D01*
X456542Y641431D01*
X457121Y641766D01*
X457768Y641939D01*
X465977Y641939D01*
X465977Y630762D01*
X465980Y630742D01*
X465978Y630723D01*
X466000Y630621D01*
X466017Y630519D01*
X466026Y630502D01*
X466030Y630482D01*
X466083Y630393D01*
X466132Y630302D01*
X466146Y630288D01*
X466156Y630271D01*
X466235Y630204D01*
X466310Y630133D01*
X466328Y630124D01*
X466343Y630111D01*
X466439Y630073D01*
X466533Y630029D01*
X466553Y630027D01*
X466571Y630019D01*
X466738Y630001D01*
X467501Y630001D01*
X467501Y629999D01*
X466738Y629999D01*
X466718Y629996D01*
X466699Y629998D01*
X466597Y629976D01*
X466495Y629959D01*
X466478Y629950D01*
X466458Y629946D01*
X466369Y629893D01*
X466278Y629844D01*
X466264Y629830D01*
X466247Y629820D01*
X466180Y629741D01*
X466109Y629666D01*
X466100Y629648D01*
X466087Y629633D01*
X466048Y629537D01*
X466005Y629443D01*
X466003Y629423D01*
X465995Y629405D01*
X465977Y629238D01*
X465977Y618061D01*
X457768Y618061D01*
X457121Y618234D01*
X456542Y618569D01*
X456069Y619042D01*
X455782Y619538D01*
X455707Y619630D01*
X455633Y619723D01*
X455629Y619725D01*
X455627Y619728D01*
X455527Y619791D01*
X455426Y619856D01*
X455422Y619857D01*
X455418Y619859D01*
X455303Y619887D01*
X455187Y619916D01*
X455183Y619916D01*
X455179Y619917D01*
X455060Y619906D01*
X454942Y619897D01*
X454938Y619895D01*
X454934Y619895D01*
X454825Y619847D01*
X454716Y619801D01*
X454712Y619797D01*
X454709Y619796D01*
X454699Y619787D01*
X454585Y619696D01*
X452950Y618061D01*
X432050Y618061D01*
X430538Y619573D01*
X430522Y619584D01*
X430510Y619600D01*
X430422Y619656D01*
X430339Y619716D01*
X430320Y619722D01*
X430303Y619733D01*
X430202Y619758D01*
X430103Y619788D01*
X430084Y619788D01*
X430064Y619793D01*
X429961Y619785D01*
X429858Y619782D01*
X429839Y619775D01*
X429819Y619774D01*
X429724Y619733D01*
X429627Y619698D01*
X429611Y619685D01*
X429593Y619677D01*
X429462Y619573D01*
X427950Y618061D01*
X407050Y618061D01*
G37*
%LPD*%
%LPC*%
G36*
X700454Y740219D02*
X700454Y740219D01*
X697116Y741602D01*
X694562Y744156D01*
X693179Y747494D01*
X693179Y751106D01*
X694562Y754444D01*
X697116Y756998D01*
X700454Y758381D01*
X717146Y758381D01*
X719843Y757263D01*
X719863Y757259D01*
X719880Y757249D01*
X719982Y757231D01*
X720083Y757207D01*
X720103Y757209D01*
X720122Y757206D01*
X720225Y757221D01*
X720328Y757230D01*
X720346Y757239D01*
X720366Y757241D01*
X720458Y757288D01*
X720553Y757330D01*
X720567Y757344D01*
X720585Y757353D01*
X720658Y757427D01*
X720734Y757497D01*
X720743Y757514D01*
X720757Y757529D01*
X720838Y757675D01*
X721588Y759486D01*
X723366Y761264D01*
X725690Y762227D01*
X725932Y762227D01*
X725952Y762230D01*
X725971Y762228D01*
X726073Y762250D01*
X726175Y762266D01*
X726192Y762276D01*
X726212Y762280D01*
X726301Y762333D01*
X726392Y762382D01*
X726406Y762396D01*
X726423Y762406D01*
X726490Y762485D01*
X726562Y762560D01*
X726570Y762578D01*
X726583Y762593D01*
X726622Y762689D01*
X726665Y762783D01*
X726667Y762803D01*
X726675Y762821D01*
X726693Y762988D01*
X726693Y781653D01*
X726679Y781743D01*
X726671Y781834D01*
X726659Y781863D01*
X726654Y781895D01*
X726611Y781976D01*
X726575Y782060D01*
X726549Y782092D01*
X726538Y782113D01*
X726515Y782135D01*
X726470Y782191D01*
X717856Y790805D01*
X717761Y790873D01*
X717667Y790943D01*
X717662Y790945D01*
X717657Y790948D01*
X717545Y790983D01*
X717433Y791019D01*
X717427Y791019D01*
X717422Y791021D01*
X717311Y791018D01*
X717298Y791019D01*
X700454Y791019D01*
X697116Y792402D01*
X694562Y794956D01*
X693179Y798294D01*
X693179Y801906D01*
X694562Y805244D01*
X697116Y807798D01*
X700454Y809181D01*
X717146Y809181D01*
X720484Y807798D01*
X723038Y805244D01*
X724421Y801906D01*
X724421Y798294D01*
X723235Y795432D01*
X723209Y795318D01*
X723180Y795205D01*
X723181Y795199D01*
X723179Y795193D01*
X723190Y795076D01*
X723199Y794960D01*
X723202Y794954D01*
X723202Y794948D01*
X723250Y794840D01*
X723296Y794733D01*
X723300Y794728D01*
X723302Y794723D01*
X723315Y794709D01*
X723400Y794602D01*
X733299Y784704D01*
X733299Y757431D01*
X733289Y757407D01*
X733285Y757366D01*
X733278Y757344D01*
X733279Y757312D01*
X733271Y757241D01*
X733271Y754646D01*
X732308Y752322D01*
X730530Y750544D01*
X728206Y749581D01*
X725690Y749581D01*
X725473Y749671D01*
X725429Y749682D01*
X725387Y749701D01*
X725310Y749710D01*
X725234Y749727D01*
X725188Y749723D01*
X725143Y749728D01*
X725066Y749712D01*
X724989Y749704D01*
X724947Y749686D01*
X724902Y749676D01*
X724835Y749636D01*
X724764Y749604D01*
X724730Y749573D01*
X724691Y749550D01*
X724640Y749490D01*
X724583Y749438D01*
X724561Y749398D01*
X724531Y749363D01*
X724502Y749290D01*
X724465Y749222D01*
X724456Y749177D01*
X724439Y749135D01*
X724424Y748999D01*
X724421Y748980D01*
X724422Y748975D01*
X724421Y748968D01*
X724421Y747494D01*
X723038Y744156D01*
X720484Y741602D01*
X717146Y740219D01*
X700454Y740219D01*
G37*
%LPD*%
%LPC*%
G36*
X137316Y136377D02*
X137316Y136377D01*
X134787Y137425D01*
X132853Y139359D01*
X131805Y141888D01*
X131805Y144362D01*
X131791Y144452D01*
X131783Y144543D01*
X131771Y144573D01*
X131766Y144605D01*
X131723Y144686D01*
X131687Y144770D01*
X131661Y144802D01*
X131650Y144822D01*
X131627Y144845D01*
X131582Y144901D01*
X108405Y168078D01*
X108331Y168131D01*
X108262Y168190D01*
X108232Y168202D01*
X108206Y168221D01*
X108119Y168248D01*
X108034Y168282D01*
X107993Y168287D01*
X107971Y168294D01*
X107938Y168293D01*
X107867Y168301D01*
X92785Y168301D01*
X90971Y170115D01*
X90971Y186760D01*
X92785Y188574D01*
X109431Y188574D01*
X111245Y186760D01*
X111245Y176467D01*
X111260Y176377D01*
X111267Y176286D01*
X111279Y176257D01*
X111285Y176225D01*
X111327Y176144D01*
X111363Y176060D01*
X111389Y176028D01*
X111400Y176007D01*
X111423Y175985D01*
X111468Y175929D01*
X137039Y150358D01*
X137113Y150305D01*
X137183Y150245D01*
X137213Y150233D01*
X137239Y150214D01*
X137326Y150187D01*
X137411Y150153D01*
X137452Y150149D01*
X137474Y150142D01*
X137506Y150143D01*
X137578Y150135D01*
X140052Y150135D01*
X142581Y149087D01*
X144330Y147338D01*
X144404Y147285D01*
X144474Y147225D01*
X144504Y147213D01*
X144530Y147194D01*
X144617Y147167D01*
X144702Y147133D01*
X144743Y147129D01*
X144765Y147122D01*
X144797Y147123D01*
X144869Y147115D01*
X162678Y147115D01*
X162768Y147129D01*
X162859Y147137D01*
X162889Y147149D01*
X162921Y147154D01*
X163002Y147197D01*
X163086Y147233D01*
X163118Y147259D01*
X163138Y147270D01*
X163161Y147293D01*
X163217Y147338D01*
X183398Y167519D01*
X183451Y167593D01*
X183511Y167663D01*
X183523Y167693D01*
X183542Y167719D01*
X183569Y167806D01*
X183603Y167891D01*
X183607Y167932D01*
X183614Y167954D01*
X183613Y167986D01*
X183621Y168058D01*
X183621Y170532D01*
X184669Y173061D01*
X186603Y174995D01*
X189132Y176043D01*
X191868Y176043D01*
X194397Y174995D01*
X196331Y173061D01*
X197379Y170532D01*
X197379Y167796D01*
X196331Y165267D01*
X194397Y163333D01*
X191868Y162285D01*
X189394Y162285D01*
X189304Y162271D01*
X189213Y162263D01*
X189183Y162251D01*
X189151Y162246D01*
X189070Y162203D01*
X188986Y162167D01*
X188954Y162141D01*
X188934Y162130D01*
X188911Y162107D01*
X188855Y162062D01*
X166190Y139397D01*
X144869Y139397D01*
X144778Y139383D01*
X144688Y139375D01*
X144658Y139363D01*
X144626Y139358D01*
X144545Y139315D01*
X144461Y139279D01*
X144429Y139253D01*
X144408Y139242D01*
X144386Y139219D01*
X144330Y139174D01*
X142581Y137425D01*
X140052Y136377D01*
X137316Y136377D01*
G37*
%LPD*%
%LPC*%
G36*
X291504Y831903D02*
X291504Y831903D01*
X280903Y842504D01*
X280903Y857496D01*
X291504Y868097D01*
X306496Y868097D01*
X317097Y857496D01*
X317097Y842504D01*
X306496Y831903D01*
X291504Y831903D01*
G37*
%LPD*%
%LPC*%
G36*
X131092Y711903D02*
X131092Y711903D01*
X120491Y722504D01*
X120491Y737496D01*
X131092Y748097D01*
X146083Y748097D01*
X156684Y737496D01*
X156684Y722504D01*
X146083Y711903D01*
X131092Y711903D01*
G37*
%LPD*%
%LPC*%
G36*
X203504Y831903D02*
X203504Y831903D01*
X192903Y842504D01*
X192903Y857496D01*
X203504Y868097D01*
X218496Y868097D01*
X229097Y857496D01*
X229097Y842504D01*
X218496Y831903D01*
X203504Y831903D01*
G37*
%LPD*%
%LPC*%
G36*
X43092Y711903D02*
X43092Y711903D01*
X32491Y722504D01*
X32491Y737496D01*
X43092Y748097D01*
X58083Y748097D01*
X68684Y737496D01*
X68684Y722504D01*
X58083Y711903D01*
X43092Y711903D01*
G37*
%LPD*%
%LPC*%
G36*
X211195Y206003D02*
X211195Y206003D01*
X206473Y207959D01*
X202859Y211573D01*
X200903Y216295D01*
X200903Y221405D01*
X202859Y226127D01*
X206473Y229741D01*
X211195Y231697D01*
X235805Y231697D01*
X240527Y229741D01*
X244141Y226127D01*
X246097Y221405D01*
X246097Y216295D01*
X244141Y211573D01*
X240527Y207959D01*
X235805Y206003D01*
X211195Y206003D01*
G37*
%LPD*%
%LPC*%
G36*
X662734Y458459D02*
X662734Y458459D01*
X652459Y468734D01*
X652459Y483266D01*
X662734Y493541D01*
X677266Y493541D01*
X687541Y483266D01*
X687541Y468734D01*
X677266Y458459D01*
X662734Y458459D01*
G37*
%LPD*%
%LPC*%
G36*
X666734Y832459D02*
X666734Y832459D01*
X656459Y842734D01*
X656459Y857266D01*
X666734Y867541D01*
X681266Y867541D01*
X691541Y857266D01*
X691541Y842734D01*
X681266Y832459D01*
X666734Y832459D01*
G37*
%LPD*%
%LPC*%
G36*
X662734Y546459D02*
X662734Y546459D01*
X652459Y556734D01*
X652459Y571266D01*
X662734Y581541D01*
X677266Y581541D01*
X687541Y571266D01*
X687541Y556734D01*
X677266Y546459D01*
X662734Y546459D01*
G37*
%LPD*%
%LPC*%
G36*
X207734Y458459D02*
X207734Y458459D01*
X197459Y468734D01*
X197459Y483266D01*
X207734Y493541D01*
X222266Y493541D01*
X232541Y483266D01*
X232541Y468734D01*
X222266Y458459D01*
X207734Y458459D01*
G37*
%LPD*%
%LPC*%
G36*
X207734Y546459D02*
X207734Y546459D01*
X197459Y556734D01*
X197459Y571266D01*
X207734Y581541D01*
X222266Y581541D01*
X232541Y571266D01*
X232541Y556734D01*
X222266Y546459D01*
X207734Y546459D01*
G37*
%LPD*%
%LPC*%
G36*
X578734Y832459D02*
X578734Y832459D01*
X568459Y842734D01*
X568459Y857266D01*
X578734Y867541D01*
X593266Y867541D01*
X603541Y857266D01*
X603541Y842734D01*
X593266Y832459D01*
X578734Y832459D01*
G37*
%LPD*%
%LPC*%
G36*
X399651Y31571D02*
X399651Y31571D01*
X397837Y33385D01*
X397837Y49451D01*
X399651Y51265D01*
X415716Y51265D01*
X417530Y49451D01*
X417530Y46463D01*
X417532Y46454D01*
X417531Y46449D01*
X417537Y46422D01*
X417546Y46367D01*
X417555Y46270D01*
X417566Y46246D01*
X417570Y46221D01*
X417616Y46135D01*
X417655Y46046D01*
X417673Y46026D01*
X417685Y46003D01*
X417756Y45936D01*
X417822Y45865D01*
X417845Y45852D01*
X417864Y45834D01*
X417952Y45793D01*
X418037Y45746D01*
X418063Y45741D01*
X418087Y45730D01*
X418183Y45720D01*
X418279Y45702D01*
X418305Y45706D01*
X418331Y45703D01*
X418426Y45724D01*
X418523Y45738D01*
X418546Y45750D01*
X418571Y45755D01*
X418655Y45805D01*
X418742Y45850D01*
X418760Y45868D01*
X418783Y45882D01*
X418846Y45956D01*
X418914Y46025D01*
X418930Y46054D01*
X418942Y46069D01*
X418955Y46099D01*
X418995Y46172D01*
X419336Y46996D01*
X422106Y49765D01*
X425725Y51265D01*
X429642Y51265D01*
X433261Y49765D01*
X436031Y46996D01*
X437530Y43376D01*
X437530Y39459D01*
X436031Y35840D01*
X433261Y33070D01*
X429642Y31571D01*
X425725Y31571D01*
X422106Y33070D01*
X419336Y35840D01*
X418995Y36663D01*
X418943Y36746D01*
X418898Y36832D01*
X418879Y36850D01*
X418865Y36873D01*
X418790Y36935D01*
X418720Y37002D01*
X418696Y37013D01*
X418676Y37029D01*
X418585Y37064D01*
X418497Y37105D01*
X418471Y37108D01*
X418446Y37118D01*
X418349Y37122D01*
X418252Y37132D01*
X418227Y37127D01*
X418200Y37128D01*
X418107Y37101D01*
X418012Y37080D01*
X417989Y37067D01*
X417964Y37059D01*
X417884Y37004D01*
X417801Y36954D01*
X417784Y36934D01*
X417762Y36919D01*
X417704Y36841D01*
X417641Y36767D01*
X417631Y36743D01*
X417615Y36722D01*
X417585Y36629D01*
X417549Y36539D01*
X417545Y36506D01*
X417539Y36488D01*
X417540Y36455D01*
X417530Y36372D01*
X417530Y33385D01*
X415716Y31571D01*
X399651Y31571D01*
G37*
%LPD*%
%LPC*%
G36*
X730262Y546889D02*
X730262Y546889D01*
X727938Y547852D01*
X726160Y549630D01*
X725197Y551954D01*
X725197Y554549D01*
X725183Y554639D01*
X725175Y554730D01*
X725163Y554759D01*
X725158Y554791D01*
X725115Y554872D01*
X725079Y554956D01*
X725053Y554988D01*
X725042Y555009D01*
X725019Y555031D01*
X724974Y555087D01*
X717856Y562205D01*
X717761Y562273D01*
X717667Y562343D01*
X717662Y562345D01*
X717657Y562348D01*
X717545Y562383D01*
X717433Y562419D01*
X717427Y562419D01*
X717422Y562421D01*
X717311Y562418D01*
X717298Y562419D01*
X700454Y562419D01*
X697116Y563802D01*
X694562Y566356D01*
X693179Y569694D01*
X693179Y573306D01*
X694562Y576644D01*
X697116Y579198D01*
X700454Y580581D01*
X717146Y580581D01*
X720484Y579198D01*
X723038Y576644D01*
X724421Y573306D01*
X724421Y569694D01*
X723235Y566832D01*
X723209Y566718D01*
X723180Y566605D01*
X723181Y566599D01*
X723179Y566593D01*
X723190Y566476D01*
X723199Y566360D01*
X723202Y566354D01*
X723202Y566348D01*
X723251Y566239D01*
X723296Y566133D01*
X723300Y566128D01*
X723302Y566123D01*
X723315Y566109D01*
X723400Y566002D01*
X729645Y559758D01*
X729719Y559705D01*
X729788Y559645D01*
X729819Y559633D01*
X729845Y559614D01*
X729932Y559587D01*
X730017Y559553D01*
X730058Y559549D01*
X730080Y559542D01*
X730112Y559543D01*
X730183Y559535D01*
X732778Y559535D01*
X735102Y558572D01*
X736880Y556794D01*
X737843Y554470D01*
X737843Y551954D01*
X736880Y549630D01*
X735102Y547852D01*
X732778Y546889D01*
X730262Y546889D01*
G37*
%LPD*%
%LPC*%
G36*
X261918Y950802D02*
X261918Y950802D01*
X253780Y958940D01*
X253780Y970448D01*
X261918Y978586D01*
X273426Y978586D01*
X281564Y970448D01*
X281564Y958940D01*
X273426Y950802D01*
X261918Y950802D01*
G37*
%LPD*%
%LPC*%
G36*
X257686Y408356D02*
X257686Y408356D01*
X249874Y416168D01*
X249874Y427216D01*
X257686Y435027D01*
X268734Y435027D01*
X276546Y427216D01*
X276546Y416168D01*
X268734Y408356D01*
X257686Y408356D01*
G37*
%LPD*%
%LPC*%
G36*
X435322Y166636D02*
X435322Y166636D01*
X427510Y174448D01*
X427510Y185495D01*
X435322Y193307D01*
X446370Y193307D01*
X454182Y185495D01*
X454182Y174448D01*
X446370Y166636D01*
X435322Y166636D01*
G37*
%LPD*%
%LPC*%
G36*
X381772Y166636D02*
X381772Y166636D01*
X373960Y174448D01*
X373960Y185495D01*
X381772Y193307D01*
X392819Y193307D01*
X400631Y185495D01*
X400631Y174448D01*
X392819Y166636D01*
X381772Y166636D01*
G37*
%LPD*%
%LPC*%
G36*
X700454Y460819D02*
X700454Y460819D01*
X697116Y462202D01*
X694562Y464756D01*
X693179Y468094D01*
X693179Y471706D01*
X694562Y475044D01*
X697116Y477598D01*
X700454Y478981D01*
X717146Y478981D01*
X720484Y477598D01*
X723038Y475044D01*
X724421Y471706D01*
X724421Y468094D01*
X723038Y464756D01*
X720484Y462202D01*
X717146Y460819D01*
X700454Y460819D01*
G37*
%LPD*%
%LPC*%
G36*
X700454Y867219D02*
X700454Y867219D01*
X697116Y868602D01*
X694562Y871156D01*
X693179Y874494D01*
X693179Y878106D01*
X694562Y881444D01*
X697116Y883998D01*
X700454Y885381D01*
X717146Y885381D01*
X720484Y883998D01*
X723038Y881444D01*
X724421Y878106D01*
X724421Y874494D01*
X723038Y871156D01*
X720484Y868602D01*
X717146Y867219D01*
X700454Y867219D01*
G37*
%LPD*%
%LPC*%
G36*
X852854Y460819D02*
X852854Y460819D01*
X849516Y462202D01*
X846962Y464756D01*
X845579Y468094D01*
X845579Y471706D01*
X846962Y475044D01*
X849516Y477598D01*
X852854Y478981D01*
X869546Y478981D01*
X872884Y477598D01*
X875438Y475044D01*
X876821Y471706D01*
X876821Y468094D01*
X875438Y464756D01*
X872884Y462202D01*
X869546Y460819D01*
X852854Y460819D01*
G37*
%LPD*%
%LPC*%
G36*
X700454Y486219D02*
X700454Y486219D01*
X697116Y487602D01*
X694562Y490156D01*
X693179Y493494D01*
X693179Y497106D01*
X694562Y500444D01*
X697116Y502998D01*
X700454Y504381D01*
X717146Y504381D01*
X720484Y502998D01*
X723038Y500444D01*
X724421Y497106D01*
X724421Y493494D01*
X723038Y490156D01*
X720484Y487602D01*
X717146Y486219D01*
X700454Y486219D01*
G37*
%LPD*%
%LPC*%
G36*
X852854Y689419D02*
X852854Y689419D01*
X849516Y690802D01*
X846962Y693356D01*
X845579Y696694D01*
X845579Y700306D01*
X846962Y703644D01*
X849516Y706198D01*
X852854Y707581D01*
X869546Y707581D01*
X872884Y706198D01*
X875438Y703644D01*
X876821Y700306D01*
X876821Y696694D01*
X875438Y693356D01*
X872884Y690802D01*
X869546Y689419D01*
X852854Y689419D01*
G37*
%LPD*%
%LPC*%
G36*
X852854Y486219D02*
X852854Y486219D01*
X849516Y487602D01*
X846962Y490156D01*
X845579Y493494D01*
X845579Y497106D01*
X846962Y500444D01*
X849516Y502998D01*
X852854Y504381D01*
X869546Y504381D01*
X872884Y502998D01*
X875438Y500444D01*
X876821Y497106D01*
X876821Y493494D01*
X875438Y490156D01*
X872884Y487602D01*
X869546Y486219D01*
X852854Y486219D01*
G37*
%LPD*%
%LPC*%
G36*
X852854Y435419D02*
X852854Y435419D01*
X849516Y436802D01*
X846962Y439356D01*
X845579Y442694D01*
X845579Y446306D01*
X846962Y449644D01*
X849516Y452198D01*
X852854Y453581D01*
X869546Y453581D01*
X872884Y452198D01*
X875438Y449644D01*
X876821Y446306D01*
X876821Y442694D01*
X875438Y439356D01*
X872884Y436802D01*
X869546Y435419D01*
X852854Y435419D01*
G37*
%LPD*%
%LPC*%
G36*
X700454Y892619D02*
X700454Y892619D01*
X697116Y894002D01*
X694562Y896556D01*
X693179Y899894D01*
X693179Y903506D01*
X694562Y906844D01*
X697116Y909398D01*
X700454Y910781D01*
X717146Y910781D01*
X720484Y909398D01*
X723038Y906844D01*
X724421Y903506D01*
X724421Y899894D01*
X723038Y896556D01*
X720484Y894002D01*
X717146Y892619D01*
X700454Y892619D01*
G37*
%LPD*%
%LPC*%
G36*
X700454Y689419D02*
X700454Y689419D01*
X697116Y690802D01*
X694562Y693356D01*
X693179Y696694D01*
X693179Y700306D01*
X694562Y703644D01*
X697116Y706198D01*
X700454Y707581D01*
X717146Y707581D01*
X720484Y706198D01*
X723038Y703644D01*
X724421Y700306D01*
X724421Y696694D01*
X723038Y693356D01*
X720484Y690802D01*
X717146Y689419D01*
X700454Y689419D01*
G37*
%LPD*%
%LPC*%
G36*
X700454Y587819D02*
X700454Y587819D01*
X697116Y589202D01*
X694562Y591756D01*
X693179Y595094D01*
X693179Y598706D01*
X694562Y602044D01*
X697116Y604598D01*
X700454Y605981D01*
X717146Y605981D01*
X720484Y604598D01*
X723038Y602044D01*
X724421Y598706D01*
X724421Y595094D01*
X723038Y591756D01*
X720484Y589202D01*
X717146Y587819D01*
X700454Y587819D01*
G37*
%LPD*%
%LPC*%
G36*
X852854Y410019D02*
X852854Y410019D01*
X849516Y411402D01*
X846962Y413956D01*
X845579Y417294D01*
X845579Y420906D01*
X846962Y424244D01*
X849516Y426798D01*
X852854Y428181D01*
X869546Y428181D01*
X872884Y426798D01*
X875438Y424244D01*
X876821Y420906D01*
X876821Y417294D01*
X875438Y413956D01*
X872884Y411402D01*
X869546Y410019D01*
X852854Y410019D01*
G37*
%LPD*%
%LPC*%
G36*
X852854Y664019D02*
X852854Y664019D01*
X849516Y665402D01*
X846962Y667956D01*
X845579Y671294D01*
X845579Y674906D01*
X846962Y678244D01*
X849516Y680798D01*
X852854Y682181D01*
X869546Y682181D01*
X872884Y680798D01*
X875438Y678244D01*
X876821Y674906D01*
X876821Y671294D01*
X875438Y667956D01*
X872884Y665402D01*
X869546Y664019D01*
X852854Y664019D01*
G37*
%LPD*%
%LPC*%
G36*
X700454Y841819D02*
X700454Y841819D01*
X697116Y843202D01*
X694562Y845756D01*
X693179Y849094D01*
X693179Y852706D01*
X694562Y856044D01*
X697116Y858598D01*
X700454Y859981D01*
X717146Y859981D01*
X720484Y858598D01*
X723038Y856044D01*
X724421Y852706D01*
X724421Y849094D01*
X723038Y845756D01*
X720484Y843202D01*
X717146Y841819D01*
X700454Y841819D01*
G37*
%LPD*%
%LPC*%
G36*
X700454Y664019D02*
X700454Y664019D01*
X697116Y665402D01*
X694562Y667956D01*
X693179Y671294D01*
X693179Y674906D01*
X694562Y678244D01*
X697116Y680798D01*
X700454Y682181D01*
X717146Y682181D01*
X720484Y680798D01*
X723038Y678244D01*
X724421Y674906D01*
X724421Y671294D01*
X723038Y667956D01*
X720484Y665402D01*
X717146Y664019D01*
X700454Y664019D01*
G37*
%LPD*%
%LPC*%
G36*
X852854Y511619D02*
X852854Y511619D01*
X849516Y513002D01*
X846962Y515556D01*
X845579Y518894D01*
X845579Y522506D01*
X846962Y525844D01*
X849516Y528398D01*
X852854Y529781D01*
X869546Y529781D01*
X872884Y528398D01*
X875438Y525844D01*
X876821Y522506D01*
X876821Y518894D01*
X875438Y515556D01*
X872884Y513002D01*
X869546Y511619D01*
X852854Y511619D01*
G37*
%LPD*%
%LPC*%
G36*
X852854Y537019D02*
X852854Y537019D01*
X849516Y538402D01*
X846962Y540956D01*
X845579Y544294D01*
X845579Y547906D01*
X846962Y551244D01*
X849516Y553798D01*
X852854Y555181D01*
X869546Y555181D01*
X872884Y553798D01*
X875438Y551244D01*
X876821Y547906D01*
X876821Y544294D01*
X875438Y540956D01*
X872884Y538402D01*
X869546Y537019D01*
X852854Y537019D01*
G37*
%LPD*%
%LPC*%
G36*
X852854Y816419D02*
X852854Y816419D01*
X849516Y817802D01*
X846962Y820356D01*
X845579Y823694D01*
X845579Y827306D01*
X846962Y830644D01*
X849516Y833198D01*
X852854Y834581D01*
X869546Y834581D01*
X872884Y833198D01*
X875438Y830644D01*
X876821Y827306D01*
X876821Y823694D01*
X875438Y820356D01*
X872884Y817802D01*
X869546Y816419D01*
X852854Y816419D01*
G37*
%LPD*%
%LPC*%
G36*
X700454Y816419D02*
X700454Y816419D01*
X697116Y817802D01*
X694562Y820356D01*
X693179Y823694D01*
X693179Y827306D01*
X694562Y830644D01*
X697116Y833198D01*
X700454Y834581D01*
X717146Y834581D01*
X720484Y833198D01*
X723038Y830644D01*
X724421Y827306D01*
X724421Y823694D01*
X723038Y820356D01*
X720484Y817802D01*
X717146Y816419D01*
X700454Y816419D01*
G37*
%LPD*%
%LPC*%
G36*
X852854Y791019D02*
X852854Y791019D01*
X849516Y792402D01*
X846962Y794956D01*
X845579Y798294D01*
X845579Y801906D01*
X846962Y805244D01*
X849516Y807798D01*
X852854Y809181D01*
X869546Y809181D01*
X872884Y807798D01*
X875438Y805244D01*
X876821Y801906D01*
X876821Y798294D01*
X875438Y794956D01*
X872884Y792402D01*
X869546Y791019D01*
X852854Y791019D01*
G37*
%LPD*%
%LPC*%
G36*
X700454Y613219D02*
X700454Y613219D01*
X697116Y614602D01*
X694562Y617156D01*
X693179Y620494D01*
X693179Y624106D01*
X694562Y627444D01*
X697116Y629998D01*
X700454Y631381D01*
X717146Y631381D01*
X720484Y629998D01*
X723038Y627444D01*
X724421Y624106D01*
X724421Y620494D01*
X723038Y617156D01*
X720484Y614602D01*
X717146Y613219D01*
X700454Y613219D01*
G37*
%LPD*%
%LPC*%
G36*
X852854Y613219D02*
X852854Y613219D01*
X849516Y614602D01*
X846962Y617156D01*
X845579Y620494D01*
X845579Y624106D01*
X846962Y627444D01*
X849516Y629998D01*
X852854Y631381D01*
X869546Y631381D01*
X872884Y629998D01*
X875438Y627444D01*
X876821Y624106D01*
X876821Y620494D01*
X875438Y617156D01*
X872884Y614602D01*
X869546Y613219D01*
X852854Y613219D01*
G37*
%LPD*%
%LPC*%
G36*
X852854Y740219D02*
X852854Y740219D01*
X849516Y741602D01*
X846962Y744156D01*
X845579Y747494D01*
X845579Y751106D01*
X846962Y754444D01*
X849516Y756998D01*
X852854Y758381D01*
X869546Y758381D01*
X872884Y756998D01*
X875438Y754444D01*
X876821Y751106D01*
X876821Y747494D01*
X875438Y744156D01*
X872884Y741602D01*
X869546Y740219D01*
X852854Y740219D01*
G37*
%LPD*%
%LPC*%
G36*
X700454Y638619D02*
X700454Y638619D01*
X697116Y640002D01*
X694562Y642556D01*
X693179Y645894D01*
X693179Y649506D01*
X694562Y652844D01*
X697116Y655398D01*
X700454Y656781D01*
X717146Y656781D01*
X720484Y655398D01*
X723038Y652844D01*
X724421Y649506D01*
X724421Y645894D01*
X723038Y642556D01*
X720484Y640002D01*
X717146Y638619D01*
X700454Y638619D01*
G37*
%LPD*%
%LPC*%
G36*
X852854Y638619D02*
X852854Y638619D01*
X849516Y640002D01*
X846962Y642556D01*
X845579Y645894D01*
X845579Y649506D01*
X846962Y652844D01*
X849516Y655398D01*
X852854Y656781D01*
X869546Y656781D01*
X872884Y655398D01*
X875438Y652844D01*
X876821Y649506D01*
X876821Y645894D01*
X875438Y642556D01*
X872884Y640002D01*
X869546Y638619D01*
X852854Y638619D01*
G37*
%LPD*%
%LPC*%
G36*
X700454Y765619D02*
X700454Y765619D01*
X697116Y767002D01*
X694562Y769556D01*
X693179Y772894D01*
X693179Y776506D01*
X694562Y779844D01*
X697116Y782398D01*
X700454Y783781D01*
X717146Y783781D01*
X720484Y782398D01*
X723038Y779844D01*
X724421Y776506D01*
X724421Y772894D01*
X723038Y769556D01*
X720484Y767002D01*
X717146Y765619D01*
X700454Y765619D01*
G37*
%LPD*%
%LPC*%
G36*
X852854Y765619D02*
X852854Y765619D01*
X849516Y767002D01*
X846962Y769556D01*
X845579Y772894D01*
X845579Y776506D01*
X846962Y779844D01*
X849516Y782398D01*
X852854Y783781D01*
X869546Y783781D01*
X872884Y782398D01*
X875438Y779844D01*
X876821Y776506D01*
X876821Y772894D01*
X875438Y769556D01*
X872884Y767002D01*
X869546Y765619D01*
X852854Y765619D01*
G37*
%LPD*%
%LPC*%
G36*
X510477Y34523D02*
X510477Y34523D01*
X505884Y36425D01*
X502370Y39940D01*
X500467Y44532D01*
X500467Y49503D01*
X502370Y54096D01*
X505884Y57610D01*
X510477Y59513D01*
X515448Y59513D01*
X520040Y57610D01*
X523555Y54096D01*
X525457Y49503D01*
X525457Y44532D01*
X523555Y39940D01*
X520040Y36425D01*
X515448Y34523D01*
X510477Y34523D01*
G37*
%LPD*%
%LPC*%
G36*
X586677Y34523D02*
X586677Y34523D01*
X582084Y36425D01*
X578570Y39940D01*
X576667Y44532D01*
X576667Y49503D01*
X578570Y54096D01*
X582084Y57610D01*
X586677Y59513D01*
X591648Y59513D01*
X596240Y57610D01*
X599755Y54096D01*
X601657Y49503D01*
X601657Y44532D01*
X599755Y39940D01*
X596240Y36425D01*
X591648Y34523D01*
X586677Y34523D01*
G37*
%LPD*%
%LPC*%
G36*
X46554Y99278D02*
X46554Y99278D01*
X46554Y100041D01*
X46551Y100060D01*
X46553Y100080D01*
X46531Y100181D01*
X46515Y100283D01*
X46505Y100301D01*
X46501Y100320D01*
X46448Y100409D01*
X46400Y100501D01*
X46385Y100514D01*
X46375Y100532D01*
X46296Y100599D01*
X46221Y100670D01*
X46203Y100678D01*
X46188Y100691D01*
X46092Y100730D01*
X45998Y100774D01*
X45978Y100776D01*
X45960Y100783D01*
X45793Y100802D01*
X37386Y100802D01*
X37622Y101989D01*
X38322Y103679D01*
X39339Y105201D01*
X40633Y106495D01*
X42155Y107512D01*
X43254Y107967D01*
X43337Y108019D01*
X43423Y108064D01*
X43441Y108083D01*
X43463Y108097D01*
X43525Y108172D01*
X43592Y108243D01*
X43603Y108266D01*
X43620Y108286D01*
X43655Y108377D01*
X43696Y108466D01*
X43699Y108492D01*
X43708Y108516D01*
X43712Y108613D01*
X43723Y108710D01*
X43717Y108736D01*
X43718Y108762D01*
X43691Y108855D01*
X43671Y108950D01*
X43657Y108973D01*
X43650Y108998D01*
X43594Y109078D01*
X43544Y109162D01*
X43525Y109179D01*
X43510Y109200D01*
X43431Y109258D01*
X43358Y109322D01*
X43333Y109331D01*
X43312Y109347D01*
X43220Y109377D01*
X43129Y109413D01*
X43097Y109417D01*
X43078Y109423D01*
X43045Y109423D01*
X42963Y109432D01*
X38523Y109432D01*
X36709Y111246D01*
X36709Y127311D01*
X38523Y129125D01*
X54588Y129125D01*
X56402Y127311D01*
X56402Y111246D01*
X54588Y109432D01*
X50148Y109432D01*
X50052Y109416D01*
X49955Y109407D01*
X49931Y109396D01*
X49905Y109392D01*
X49819Y109347D01*
X49730Y109307D01*
X49711Y109289D01*
X49688Y109277D01*
X49621Y109207D01*
X49549Y109141D01*
X49537Y109118D01*
X49519Y109099D01*
X49478Y109010D01*
X49431Y108925D01*
X49426Y108899D01*
X49415Y108876D01*
X49404Y108779D01*
X49387Y108683D01*
X49391Y108657D01*
X49388Y108631D01*
X49409Y108536D01*
X49423Y108440D01*
X49435Y108416D01*
X49440Y108391D01*
X49490Y108307D01*
X49534Y108220D01*
X49553Y108202D01*
X49566Y108180D01*
X49640Y108117D01*
X49710Y108048D01*
X49738Y108032D01*
X49753Y108020D01*
X49784Y108007D01*
X49857Y107967D01*
X50956Y107512D01*
X52478Y106495D01*
X53772Y105201D01*
X54789Y103679D01*
X55489Y101989D01*
X55725Y100802D01*
X47318Y100802D01*
X47298Y100799D01*
X47278Y100801D01*
X47177Y100779D01*
X47075Y100762D01*
X47057Y100753D01*
X47038Y100749D01*
X46949Y100695D01*
X46857Y100647D01*
X46844Y100633D01*
X46827Y100622D01*
X46759Y100544D01*
X46688Y100469D01*
X46680Y100451D01*
X46667Y100435D01*
X46628Y100339D01*
X46584Y100246D01*
X46582Y100226D01*
X46575Y100207D01*
X46556Y100041D01*
X46556Y99278D01*
X46554Y99278D01*
G37*
%LPD*%
%LPC*%
G36*
X217133Y930559D02*
X217133Y930559D01*
X217133Y931322D01*
X217130Y931342D01*
X217132Y931361D01*
X217110Y931463D01*
X217094Y931565D01*
X217084Y931582D01*
X217080Y931602D01*
X217027Y931691D01*
X216978Y931782D01*
X216964Y931796D01*
X216954Y931813D01*
X216875Y931880D01*
X216800Y931951D01*
X216782Y931960D01*
X216767Y931973D01*
X216671Y932012D01*
X216577Y932055D01*
X216557Y932057D01*
X216539Y932065D01*
X216372Y932083D01*
X207964Y932083D01*
X208200Y933270D01*
X208901Y934961D01*
X209918Y936483D01*
X211212Y937777D01*
X212733Y938793D01*
X213833Y939249D01*
X213916Y939300D01*
X214002Y939346D01*
X214020Y939364D01*
X214042Y939378D01*
X214104Y939454D01*
X214171Y939524D01*
X214182Y939548D01*
X214199Y939568D01*
X214234Y939659D01*
X214275Y939747D01*
X214277Y939773D01*
X214287Y939797D01*
X214291Y939895D01*
X214302Y939992D01*
X214296Y940017D01*
X214297Y940043D01*
X214270Y940137D01*
X214249Y940232D01*
X214236Y940254D01*
X214229Y940279D01*
X214173Y940359D01*
X214123Y940443D01*
X214103Y940460D01*
X214088Y940481D01*
X214010Y940540D01*
X213936Y940603D01*
X213912Y940613D01*
X213891Y940628D01*
X213799Y940658D01*
X213708Y940695D01*
X213676Y940698D01*
X213657Y940704D01*
X213624Y940704D01*
X213541Y940713D01*
X209101Y940713D01*
X207287Y942527D01*
X207287Y958593D01*
X209101Y960407D01*
X225167Y960407D01*
X226981Y958593D01*
X226981Y942527D01*
X225167Y940713D01*
X220727Y940713D01*
X220631Y940698D01*
X220534Y940688D01*
X220510Y940678D01*
X220484Y940674D01*
X220398Y940628D01*
X220309Y940588D01*
X220290Y940571D01*
X220267Y940558D01*
X220200Y940488D01*
X220128Y940422D01*
X220115Y940399D01*
X220097Y940380D01*
X220056Y940292D01*
X220009Y940206D01*
X220005Y940181D01*
X219994Y940157D01*
X219983Y940060D01*
X219966Y939964D01*
X219970Y939939D01*
X219967Y939913D01*
X219987Y939818D01*
X220002Y939721D01*
X220013Y939698D01*
X220019Y939672D01*
X220069Y939589D01*
X220113Y939502D01*
X220132Y939483D01*
X220145Y939461D01*
X220219Y939398D01*
X220289Y939330D01*
X220317Y939314D01*
X220332Y939301D01*
X220363Y939289D01*
X220436Y939249D01*
X221535Y938793D01*
X223057Y937777D01*
X224351Y936483D01*
X225368Y934961D01*
X226068Y933270D01*
X226304Y932083D01*
X217896Y932083D01*
X217877Y932080D01*
X217857Y932082D01*
X217756Y932060D01*
X217654Y932043D01*
X217636Y932034D01*
X217617Y932030D01*
X217527Y931977D01*
X217436Y931928D01*
X217423Y931914D01*
X217405Y931904D01*
X217338Y931825D01*
X217267Y931750D01*
X217258Y931732D01*
X217245Y931717D01*
X217207Y931621D01*
X217163Y931527D01*
X217161Y931507D01*
X217154Y931489D01*
X217135Y931322D01*
X217135Y930559D01*
X217133Y930559D01*
G37*
%LPD*%
%LPC*%
G36*
X116979Y32459D02*
X116979Y32459D01*
X115165Y34273D01*
X115165Y50338D01*
X116979Y52152D01*
X133045Y52152D01*
X134859Y50338D01*
X134859Y45898D01*
X134875Y45802D01*
X134884Y45705D01*
X134894Y45681D01*
X134899Y45655D01*
X134944Y45569D01*
X134984Y45480D01*
X135001Y45461D01*
X135014Y45438D01*
X135084Y45371D01*
X135150Y45299D01*
X135173Y45287D01*
X135192Y45269D01*
X135280Y45228D01*
X135366Y45181D01*
X135391Y45176D01*
X135415Y45165D01*
X135512Y45154D01*
X135608Y45137D01*
X135634Y45141D01*
X135660Y45138D01*
X135755Y45159D01*
X135851Y45173D01*
X135874Y45185D01*
X135900Y45190D01*
X135984Y45240D01*
X136070Y45284D01*
X136089Y45303D01*
X136111Y45316D01*
X136174Y45390D01*
X136243Y45460D01*
X136258Y45488D01*
X136271Y45503D01*
X136283Y45534D01*
X136323Y45607D01*
X136779Y46706D01*
X137796Y48228D01*
X139090Y49522D01*
X140611Y50539D01*
X142302Y51239D01*
X143489Y51475D01*
X143489Y43067D01*
X143492Y43048D01*
X143490Y43028D01*
X143512Y42927D01*
X143529Y42825D01*
X143538Y42807D01*
X143542Y42788D01*
X143595Y42699D01*
X143644Y42607D01*
X143658Y42594D01*
X143668Y42577D01*
X143747Y42509D01*
X143822Y42438D01*
X143840Y42430D01*
X143855Y42417D01*
X143952Y42378D01*
X144045Y42334D01*
X144065Y42332D01*
X144083Y42325D01*
X144250Y42306D01*
X145013Y42306D01*
X145013Y42304D01*
X144250Y42304D01*
X144230Y42301D01*
X144211Y42303D01*
X144109Y42281D01*
X144007Y42265D01*
X143990Y42255D01*
X143970Y42251D01*
X143881Y42198D01*
X143790Y42150D01*
X143776Y42135D01*
X143759Y42125D01*
X143692Y42046D01*
X143621Y41971D01*
X143612Y41953D01*
X143599Y41938D01*
X143561Y41842D01*
X143517Y41748D01*
X143515Y41728D01*
X143507Y41710D01*
X143489Y41543D01*
X143489Y33136D01*
X142302Y33372D01*
X140611Y34072D01*
X139090Y35089D01*
X137796Y36383D01*
X136779Y37905D01*
X136323Y39004D01*
X136272Y39087D01*
X136227Y39173D01*
X136208Y39191D01*
X136194Y39213D01*
X136119Y39275D01*
X136048Y39342D01*
X136025Y39353D01*
X136004Y39370D01*
X135913Y39405D01*
X135825Y39446D01*
X135799Y39449D01*
X135775Y39458D01*
X135677Y39462D01*
X135581Y39473D01*
X135555Y39467D01*
X135529Y39468D01*
X135435Y39441D01*
X135340Y39421D01*
X135318Y39407D01*
X135293Y39400D01*
X135213Y39344D01*
X135129Y39294D01*
X135112Y39275D01*
X135091Y39260D01*
X135033Y39181D01*
X134969Y39107D01*
X134960Y39083D01*
X134944Y39062D01*
X134914Y38970D01*
X134877Y38879D01*
X134874Y38847D01*
X134868Y38828D01*
X134868Y38795D01*
X134859Y38713D01*
X134859Y34273D01*
X133045Y32459D01*
X116979Y32459D01*
G37*
%LPD*%
%LPC*%
G36*
X472637Y325455D02*
X472637Y325455D01*
X468249Y327273D01*
X464891Y330631D01*
X463073Y335019D01*
X463073Y339769D01*
X464891Y344157D01*
X468249Y347515D01*
X472637Y349333D01*
X477387Y349333D01*
X481775Y347515D01*
X485133Y344157D01*
X486951Y339769D01*
X486951Y335019D01*
X485133Y330631D01*
X481775Y327273D01*
X477387Y325455D01*
X472637Y325455D01*
G37*
%LPD*%
%LPC*%
G36*
X407613Y325455D02*
X407613Y325455D01*
X403225Y327273D01*
X399867Y330631D01*
X398049Y335019D01*
X398049Y339769D01*
X399867Y344157D01*
X403225Y347515D01*
X407613Y349333D01*
X412363Y349333D01*
X416751Y347515D01*
X420109Y344157D01*
X421927Y339769D01*
X421927Y335019D01*
X420109Y330631D01*
X416751Y327273D01*
X412363Y325455D01*
X407613Y325455D01*
G37*
%LPD*%
%LPC*%
G36*
X407613Y370667D02*
X407613Y370667D01*
X403225Y372485D01*
X399867Y375843D01*
X398049Y380231D01*
X398049Y384981D01*
X399867Y389369D01*
X403225Y392727D01*
X407613Y394545D01*
X412363Y394545D01*
X416751Y392727D01*
X420109Y389369D01*
X421927Y384981D01*
X421927Y380231D01*
X420109Y375843D01*
X416751Y372485D01*
X412363Y370667D01*
X407613Y370667D01*
G37*
%LPD*%
%LPC*%
G36*
X689967Y953039D02*
X689967Y953039D01*
X688479Y954527D01*
X688479Y970132D01*
X689967Y971621D01*
X705572Y971621D01*
X707060Y970132D01*
X707060Y963842D01*
X707068Y963794D01*
X707067Y963745D01*
X707088Y963673D01*
X707100Y963600D01*
X707123Y963556D01*
X707137Y963509D01*
X707180Y963448D01*
X707215Y963382D01*
X707251Y963349D01*
X707279Y963309D01*
X707339Y963264D01*
X707394Y963213D01*
X707438Y963192D01*
X707478Y963163D01*
X707549Y963141D01*
X707617Y963109D01*
X707665Y963104D01*
X707712Y963089D01*
X707787Y963091D01*
X707861Y963082D01*
X707909Y963093D01*
X707958Y963094D01*
X708028Y963119D01*
X708101Y963135D01*
X708144Y963160D01*
X708190Y963176D01*
X708248Y963222D01*
X708313Y963261D01*
X708344Y963298D01*
X708383Y963328D01*
X708424Y963391D01*
X708472Y963448D01*
X708491Y963493D01*
X708518Y963534D01*
X708555Y963653D01*
X708564Y963676D01*
X708565Y963685D01*
X708568Y963694D01*
X708836Y965040D01*
X709536Y966731D01*
X710553Y968252D01*
X711847Y969546D01*
X713369Y970563D01*
X715060Y971264D01*
X716246Y971500D01*
X716246Y963092D01*
X716250Y963072D01*
X716247Y963052D01*
X716269Y962951D01*
X716286Y962849D01*
X716295Y962832D01*
X716300Y962812D01*
X716353Y962723D01*
X716401Y962632D01*
X716416Y962618D01*
X716426Y962601D01*
X716505Y962534D01*
X716580Y962462D01*
X716598Y962454D01*
X716613Y962441D01*
X716709Y962402D01*
X716803Y962359D01*
X716822Y962357D01*
X716841Y962349D01*
X717008Y962331D01*
X717771Y962331D01*
X717771Y962329D01*
X717008Y962329D01*
X716988Y962326D01*
X716968Y962328D01*
X716867Y962306D01*
X716765Y962289D01*
X716747Y962280D01*
X716728Y962276D01*
X716639Y962222D01*
X716548Y962174D01*
X716534Y962160D01*
X716517Y962149D01*
X716449Y962071D01*
X716378Y961996D01*
X716370Y961978D01*
X716357Y961963D01*
X716318Y961866D01*
X716275Y961773D01*
X716272Y961753D01*
X716265Y961734D01*
X716246Y961568D01*
X716246Y953160D01*
X715060Y953396D01*
X713369Y954096D01*
X711847Y955113D01*
X710553Y956407D01*
X709536Y957929D01*
X708836Y959620D01*
X708568Y960966D01*
X708551Y961012D01*
X708543Y961060D01*
X708508Y961126D01*
X708482Y961196D01*
X708451Y961234D01*
X708428Y961277D01*
X708374Y961329D01*
X708327Y961387D01*
X708285Y961413D01*
X708250Y961447D01*
X708182Y961478D01*
X708119Y961518D01*
X708071Y961530D01*
X708027Y961550D01*
X707952Y961558D01*
X707880Y961576D01*
X707831Y961572D01*
X707782Y961577D01*
X707709Y961561D01*
X707635Y961555D01*
X707590Y961536D01*
X707542Y961525D01*
X707478Y961487D01*
X707409Y961457D01*
X707373Y961424D01*
X707331Y961399D01*
X707282Y961342D01*
X707227Y961292D01*
X707203Y961249D01*
X707171Y961212D01*
X707143Y961142D01*
X707106Y961077D01*
X707097Y961029D01*
X707079Y960984D01*
X707065Y960859D01*
X707061Y960836D01*
X707061Y960826D01*
X707060Y960817D01*
X707060Y954527D01*
X705572Y953039D01*
X689967Y953039D01*
G37*
%LPD*%
%LPC*%
G36*
X633836Y954800D02*
X633836Y954800D01*
X632348Y956288D01*
X632348Y971893D01*
X633836Y973381D01*
X649441Y973381D01*
X650929Y971893D01*
X650929Y965603D01*
X650937Y965555D01*
X650936Y965506D01*
X650957Y965434D01*
X650969Y965360D01*
X650992Y965317D01*
X651006Y965270D01*
X651049Y965209D01*
X651084Y965143D01*
X651120Y965109D01*
X651148Y965069D01*
X651208Y965025D01*
X651263Y964974D01*
X651307Y964953D01*
X651347Y964924D01*
X651418Y964902D01*
X651486Y964870D01*
X651534Y964865D01*
X651581Y964850D01*
X651656Y964851D01*
X651730Y964843D01*
X651778Y964853D01*
X651827Y964854D01*
X651897Y964879D01*
X651970Y964895D01*
X652013Y964920D01*
X652059Y964937D01*
X652117Y964983D01*
X652182Y965021D01*
X652213Y965059D01*
X652252Y965089D01*
X652293Y965151D01*
X652341Y965208D01*
X652360Y965254D01*
X652387Y965295D01*
X652424Y965414D01*
X652433Y965436D01*
X652434Y965446D01*
X652437Y965455D01*
X652705Y966801D01*
X653405Y968491D01*
X654422Y970013D01*
X655716Y971307D01*
X657238Y972324D01*
X658929Y973024D01*
X660115Y973260D01*
X660115Y964853D01*
X660119Y964833D01*
X660116Y964813D01*
X660138Y964712D01*
X660155Y964610D01*
X660164Y964592D01*
X660169Y964573D01*
X660222Y964484D01*
X660270Y964393D01*
X660285Y964379D01*
X660295Y964362D01*
X660374Y964294D01*
X660449Y964223D01*
X660467Y964215D01*
X660482Y964202D01*
X660578Y964163D01*
X660672Y964120D01*
X660691Y964117D01*
X660710Y964110D01*
X660877Y964091D01*
X661640Y964091D01*
X661640Y964090D01*
X660877Y964090D01*
X660857Y964086D01*
X660837Y964089D01*
X660736Y964067D01*
X660634Y964050D01*
X660616Y964041D01*
X660597Y964036D01*
X660508Y963983D01*
X660417Y963935D01*
X660403Y963920D01*
X660386Y963910D01*
X660318Y963831D01*
X660247Y963756D01*
X660239Y963738D01*
X660226Y963723D01*
X660187Y963627D01*
X660144Y963533D01*
X660141Y963514D01*
X660134Y963495D01*
X660115Y963328D01*
X660115Y954921D01*
X658929Y955157D01*
X657238Y955857D01*
X655716Y956874D01*
X654422Y958168D01*
X653405Y959690D01*
X652705Y961380D01*
X652437Y962726D01*
X652420Y962772D01*
X652412Y962821D01*
X652377Y962887D01*
X652351Y962957D01*
X652320Y962995D01*
X652297Y963038D01*
X652243Y963089D01*
X652196Y963147D01*
X652154Y963174D01*
X652119Y963207D01*
X652051Y963239D01*
X651988Y963279D01*
X651940Y963290D01*
X651896Y963311D01*
X651821Y963319D01*
X651749Y963337D01*
X651700Y963333D01*
X651651Y963338D01*
X651578Y963322D01*
X651504Y963316D01*
X651459Y963296D01*
X651411Y963286D01*
X651347Y963247D01*
X651278Y963218D01*
X651242Y963185D01*
X651200Y963160D01*
X651151Y963103D01*
X651096Y963053D01*
X651072Y963010D01*
X651040Y962973D01*
X651012Y962903D01*
X650975Y962838D01*
X650966Y962790D01*
X650948Y962745D01*
X650934Y962620D01*
X650930Y962596D01*
X650930Y962587D01*
X650929Y962578D01*
X650929Y956288D01*
X649441Y954800D01*
X633836Y954800D01*
G37*
%LPD*%
%LPC*%
G36*
X158369Y921971D02*
X158369Y921971D01*
X156555Y923785D01*
X156555Y940430D01*
X158369Y942244D01*
X175015Y942244D01*
X176829Y940430D01*
X176829Y923785D01*
X175015Y921971D01*
X158369Y921971D01*
G37*
%LPD*%
%LPC*%
G36*
X595464Y925915D02*
X595464Y925915D01*
X593976Y927403D01*
X593976Y943588D01*
X595464Y945076D01*
X611649Y945076D01*
X613137Y943588D01*
X613137Y927403D01*
X611649Y925915D01*
X595464Y925915D01*
G37*
%LPD*%
%LPC*%
G36*
X293453Y956892D02*
X293453Y956892D01*
X290194Y961964D01*
X290194Y967992D01*
X293453Y973064D01*
X298937Y975569D01*
X304905Y974711D01*
X309461Y970763D01*
X311160Y964978D01*
X309461Y959193D01*
X304905Y955245D01*
X298937Y954387D01*
X293453Y956892D01*
G37*
%LPD*%
%LPC*%
G36*
X391865Y92843D02*
X391865Y92843D01*
X388606Y97915D01*
X388606Y103944D01*
X391865Y109016D01*
X397349Y111520D01*
X403317Y110662D01*
X407873Y106714D01*
X409572Y100930D01*
X407873Y95145D01*
X403317Y91197D01*
X397349Y90339D01*
X391865Y92843D01*
G37*
%LPD*%
%LPC*%
G36*
X293453Y919300D02*
X293453Y919300D01*
X290194Y924372D01*
X290194Y930400D01*
X293453Y935472D01*
X298937Y937977D01*
X304905Y937119D01*
X309461Y933171D01*
X311160Y927386D01*
X309461Y921601D01*
X304905Y917653D01*
X298937Y916795D01*
X293453Y919300D01*
G37*
%LPD*%
%LPC*%
G36*
X427411Y92843D02*
X427411Y92843D01*
X424151Y97915D01*
X424151Y103944D01*
X427411Y109016D01*
X432895Y111520D01*
X438862Y110662D01*
X443418Y106714D01*
X445117Y100929D01*
X443418Y95145D01*
X438862Y91197D01*
X432895Y90339D01*
X427411Y92843D01*
G37*
%LPD*%
%LPC*%
G36*
X173293Y411442D02*
X173293Y411442D01*
X170203Y416250D01*
X170203Y421966D01*
X173293Y426774D01*
X178493Y429148D01*
X184150Y428335D01*
X188469Y424592D01*
X190080Y419108D01*
X188469Y413624D01*
X184150Y409881D01*
X178493Y409067D01*
X173293Y411442D01*
G37*
%LPD*%
%LPC*%
G36*
X293560Y411808D02*
X293560Y411808D01*
X290470Y416617D01*
X290470Y422332D01*
X293560Y427140D01*
X298759Y429515D01*
X304417Y428701D01*
X308736Y424958D01*
X310347Y419474D01*
X308736Y413990D01*
X304417Y410247D01*
X298759Y409434D01*
X293560Y411808D01*
G37*
%LPD*%
%LPC*%
G36*
X601651Y951315D02*
X601651Y951315D01*
X598129Y952773D01*
X595434Y955469D01*
X593976Y958990D01*
X593976Y962801D01*
X595434Y966323D01*
X598129Y969018D01*
X601651Y970476D01*
X605462Y970476D01*
X608984Y969018D01*
X611679Y966323D01*
X613137Y962801D01*
X613137Y958990D01*
X611679Y955469D01*
X608984Y952773D01*
X605462Y951315D01*
X601651Y951315D01*
G37*
%LPD*%
%LPC*%
G36*
X401412Y420855D02*
X401412Y420855D01*
X396055Y426212D01*
X396055Y433788D01*
X401412Y439145D01*
X408988Y439145D01*
X414345Y433788D01*
X414345Y426212D01*
X408988Y420855D01*
X401412Y420855D01*
G37*
%LPD*%
%LPC*%
G36*
X561412Y260855D02*
X561412Y260855D01*
X556055Y266212D01*
X556055Y273788D01*
X561412Y279145D01*
X568988Y279145D01*
X574345Y273788D01*
X574345Y266212D01*
X568988Y260855D01*
X561412Y260855D01*
G37*
%LPD*%
%LPC*%
G36*
X501412Y420855D02*
X501412Y420855D01*
X496055Y426212D01*
X496055Y433788D01*
X501412Y439145D01*
X508988Y439145D01*
X514345Y433788D01*
X514345Y426212D01*
X508988Y420855D01*
X501412Y420855D01*
G37*
%LPD*%
%LPC*%
G36*
X341412Y260855D02*
X341412Y260855D01*
X336055Y266212D01*
X336055Y273788D01*
X341412Y279145D01*
X348988Y279145D01*
X354345Y273788D01*
X354345Y266212D01*
X348988Y260855D01*
X341412Y260855D01*
G37*
%LPD*%
%LPC*%
G36*
X416290Y221912D02*
X416290Y221912D01*
X410933Y227269D01*
X410933Y234845D01*
X416290Y240202D01*
X423866Y240202D01*
X429223Y234845D01*
X429223Y227269D01*
X423866Y221912D01*
X416290Y221912D01*
G37*
%LPD*%
%LPC*%
G36*
X361412Y340855D02*
X361412Y340855D01*
X356055Y346212D01*
X356055Y353788D01*
X361412Y359145D01*
X368988Y359145D01*
X374345Y353788D01*
X374345Y346212D01*
X368988Y340855D01*
X361412Y340855D01*
G37*
%LPD*%
%LPC*%
G36*
X541412Y340855D02*
X541412Y340855D01*
X536055Y346212D01*
X536055Y353788D01*
X541412Y359145D01*
X548988Y359145D01*
X554345Y353788D01*
X554345Y346212D01*
X548988Y340855D01*
X541412Y340855D01*
G37*
%LPD*%
%LPC*%
G36*
X428990Y240962D02*
X428990Y240962D01*
X423633Y246319D01*
X423633Y253895D01*
X428990Y259252D01*
X436566Y259252D01*
X441923Y253895D01*
X441923Y246319D01*
X436566Y240962D01*
X428990Y240962D01*
G37*
%LPD*%
%LPC*%
G36*
X533940Y124351D02*
X533940Y124351D01*
X530701Y125693D01*
X528222Y128171D01*
X526881Y131410D01*
X526881Y134916D01*
X528222Y138154D01*
X530701Y140633D01*
X533940Y141975D01*
X537445Y141975D01*
X540684Y140633D01*
X543163Y138154D01*
X544504Y134916D01*
X544504Y131410D01*
X543163Y128171D01*
X540684Y125693D01*
X537445Y124351D01*
X533940Y124351D01*
G37*
%LPD*%
%LPC*%
G36*
X583940Y124351D02*
X583940Y124351D01*
X580701Y125693D01*
X578222Y128171D01*
X576881Y131410D01*
X576881Y134916D01*
X578222Y138154D01*
X580701Y140633D01*
X583940Y141975D01*
X587445Y141975D01*
X590684Y140633D01*
X593163Y138154D01*
X594504Y134916D01*
X594504Y131410D01*
X593163Y128171D01*
X590684Y125693D01*
X587445Y124351D01*
X583940Y124351D01*
G37*
%LPD*%
%LPC*%
G36*
X243987Y78948D02*
X243987Y78948D01*
X240748Y80290D01*
X238270Y82769D01*
X236928Y86007D01*
X236928Y89513D01*
X238270Y92752D01*
X240748Y95230D01*
X243987Y96572D01*
X247493Y96572D01*
X250731Y95230D01*
X253210Y92752D01*
X254552Y89513D01*
X254552Y86007D01*
X253210Y82769D01*
X250731Y80290D01*
X247493Y78948D01*
X243987Y78948D01*
G37*
%LPD*%
%LPC*%
G36*
X243987Y28948D02*
X243987Y28948D01*
X240748Y30290D01*
X238270Y32769D01*
X236928Y36007D01*
X236928Y39513D01*
X238270Y42752D01*
X240748Y45230D01*
X243987Y46572D01*
X247493Y46572D01*
X250731Y45230D01*
X253210Y42752D01*
X254552Y39513D01*
X254552Y36007D01*
X253210Y32769D01*
X250731Y30290D01*
X247493Y28948D01*
X243987Y28948D01*
G37*
%LPD*%
%LPC*%
G36*
X92977Y721903D02*
X92977Y721903D01*
X90001Y723136D01*
X87723Y725414D01*
X86491Y728389D01*
X86491Y731611D01*
X87723Y734586D01*
X90001Y736864D01*
X92977Y738097D01*
X96198Y738097D01*
X99174Y736864D01*
X101452Y734586D01*
X102684Y731611D01*
X102684Y728389D01*
X101452Y725414D01*
X99174Y723136D01*
X96198Y721903D01*
X92977Y721903D01*
G37*
%LPD*%
%LPC*%
G36*
X253389Y841903D02*
X253389Y841903D01*
X250414Y843136D01*
X248136Y845414D01*
X246903Y848389D01*
X246903Y851611D01*
X248136Y854586D01*
X250414Y856864D01*
X253389Y858097D01*
X256611Y858097D01*
X259586Y856864D01*
X261864Y854586D01*
X263097Y851611D01*
X263097Y848389D01*
X261864Y845414D01*
X259586Y843136D01*
X256611Y841903D01*
X253389Y841903D01*
G37*
%LPD*%
%LPC*%
G36*
X519359Y786710D02*
X519359Y786710D01*
X517444Y787014D01*
X515600Y787613D01*
X513872Y788493D01*
X512303Y789633D01*
X510932Y791004D01*
X509792Y792573D01*
X508912Y794301D01*
X508313Y796145D01*
X508097Y797507D01*
X528585Y797507D01*
X528585Y786710D01*
X519359Y786710D01*
G37*
%LPD*%
%LPC*%
G36*
X790023Y382673D02*
X790023Y382673D01*
X790023Y393441D01*
X799217Y393441D01*
X801128Y393138D01*
X802968Y392540D01*
X804692Y391662D01*
X806257Y390525D01*
X807625Y389157D01*
X808762Y387592D01*
X809640Y385868D01*
X810238Y384028D01*
X810453Y382673D01*
X790023Y382673D01*
G37*
%LPD*%
%LPC*%
G36*
X225023Y382673D02*
X225023Y382673D01*
X225023Y393441D01*
X234217Y393441D01*
X236128Y393138D01*
X237968Y392540D01*
X239692Y391662D01*
X241257Y390525D01*
X242625Y389157D01*
X243762Y387592D01*
X244640Y385868D01*
X245238Y384028D01*
X245453Y382673D01*
X225023Y382673D01*
G37*
%LPD*%
%LPC*%
G36*
X790023Y220373D02*
X790023Y220373D01*
X790023Y231141D01*
X799217Y231141D01*
X801128Y230838D01*
X802968Y230240D01*
X804692Y229362D01*
X806257Y228225D01*
X807625Y226857D01*
X808762Y225292D01*
X809640Y223568D01*
X810238Y221728D01*
X810453Y220373D01*
X790023Y220373D01*
G37*
%LPD*%
%LPC*%
G36*
X98023Y382673D02*
X98023Y382673D01*
X98023Y393441D01*
X107217Y393441D01*
X109128Y393138D01*
X110968Y392540D01*
X112692Y391662D01*
X114257Y390525D01*
X115625Y389157D01*
X116762Y387592D01*
X117640Y385868D01*
X118238Y384028D01*
X118453Y382673D01*
X98023Y382673D01*
G37*
%LPD*%
%LPC*%
G36*
X663023Y220373D02*
X663023Y220373D01*
X663023Y231141D01*
X672217Y231141D01*
X674128Y230838D01*
X675968Y230240D01*
X677692Y229362D01*
X679257Y228225D01*
X680625Y226857D01*
X681762Y225292D01*
X682640Y223568D01*
X683238Y221728D01*
X683453Y220373D01*
X663023Y220373D01*
G37*
%LPD*%
%LPC*%
G36*
X98023Y220373D02*
X98023Y220373D01*
X98023Y231141D01*
X107217Y231141D01*
X109128Y230838D01*
X110968Y230240D01*
X112692Y229362D01*
X114257Y228225D01*
X115625Y226857D01*
X116762Y225292D01*
X117640Y223568D01*
X118238Y221728D01*
X118453Y220373D01*
X98023Y220373D01*
G37*
%LPD*%
%LPC*%
G36*
X201547Y382673D02*
X201547Y382673D01*
X201762Y384028D01*
X202360Y385868D01*
X203238Y387592D01*
X204375Y389157D01*
X205743Y390525D01*
X207308Y391662D01*
X209032Y392540D01*
X210872Y393138D01*
X212783Y393441D01*
X221977Y393441D01*
X221977Y382673D01*
X201547Y382673D01*
G37*
%LPD*%
%LPC*%
G36*
X639547Y220373D02*
X639547Y220373D01*
X639762Y221728D01*
X640360Y223568D01*
X641238Y225292D01*
X642375Y226857D01*
X643743Y228225D01*
X645308Y229362D01*
X647032Y230240D01*
X648872Y230838D01*
X650783Y231141D01*
X659977Y231141D01*
X659977Y220373D01*
X639547Y220373D01*
G37*
%LPD*%
%LPC*%
G36*
X74547Y220373D02*
X74547Y220373D01*
X74762Y221728D01*
X75360Y223568D01*
X76238Y225292D01*
X77375Y226857D01*
X78743Y228225D01*
X80308Y229362D01*
X82032Y230240D01*
X83872Y230838D01*
X85783Y231141D01*
X94977Y231141D01*
X94977Y220373D01*
X74547Y220373D01*
G37*
%LPD*%
%LPC*%
G36*
X766547Y220373D02*
X766547Y220373D01*
X766762Y221728D01*
X767360Y223568D01*
X768238Y225292D01*
X769375Y226857D01*
X770743Y228225D01*
X772308Y229362D01*
X774032Y230240D01*
X775872Y230838D01*
X777783Y231141D01*
X786977Y231141D01*
X786977Y220373D01*
X766547Y220373D01*
G37*
%LPD*%
%LPC*%
G36*
X74547Y382673D02*
X74547Y382673D01*
X74762Y384028D01*
X75360Y385868D01*
X76238Y387592D01*
X77375Y389157D01*
X78743Y390525D01*
X80308Y391662D01*
X82032Y392540D01*
X83872Y393138D01*
X85783Y393441D01*
X94977Y393441D01*
X94977Y382673D01*
X74547Y382673D01*
G37*
%LPD*%
%LPC*%
G36*
X766547Y382673D02*
X766547Y382673D01*
X766762Y384028D01*
X767360Y385868D01*
X768238Y387592D01*
X769375Y389157D01*
X770743Y390525D01*
X772308Y391662D01*
X774032Y392540D01*
X775872Y393138D01*
X777783Y393441D01*
X786977Y393441D01*
X786977Y382673D01*
X766547Y382673D01*
G37*
%LPD*%
%LPC*%
G36*
X790023Y206559D02*
X790023Y206559D01*
X790023Y217327D01*
X810453Y217327D01*
X810238Y215972D01*
X809640Y214132D01*
X808762Y212408D01*
X807625Y210843D01*
X806257Y209475D01*
X804692Y208338D01*
X802968Y207460D01*
X801128Y206862D01*
X799217Y206559D01*
X790023Y206559D01*
G37*
%LPD*%
%LPC*%
G36*
X663023Y206559D02*
X663023Y206559D01*
X663023Y217327D01*
X683453Y217327D01*
X683238Y215972D01*
X682640Y214132D01*
X681762Y212408D01*
X680625Y210843D01*
X679257Y209475D01*
X677692Y208338D01*
X675968Y207460D01*
X674128Y206862D01*
X672217Y206559D01*
X663023Y206559D01*
G37*
%LPD*%
%LPC*%
G36*
X98023Y206559D02*
X98023Y206559D01*
X98023Y217327D01*
X118453Y217327D01*
X118238Y215972D01*
X117640Y214132D01*
X116762Y212408D01*
X115625Y210843D01*
X114257Y209475D01*
X112692Y208338D01*
X110968Y207460D01*
X109128Y206862D01*
X107217Y206559D01*
X98023Y206559D01*
G37*
%LPD*%
%LPC*%
G36*
X790023Y368859D02*
X790023Y368859D01*
X790023Y379627D01*
X810453Y379627D01*
X810238Y378272D01*
X809640Y376432D01*
X808762Y374708D01*
X807625Y373143D01*
X806257Y371775D01*
X804692Y370638D01*
X802968Y369760D01*
X801128Y369162D01*
X799217Y368859D01*
X790023Y368859D01*
G37*
%LPD*%
%LPC*%
G36*
X225023Y368859D02*
X225023Y368859D01*
X225023Y379627D01*
X245453Y379627D01*
X245238Y378272D01*
X244640Y376432D01*
X243762Y374708D01*
X242625Y373143D01*
X241257Y371775D01*
X239692Y370638D01*
X237968Y369760D01*
X236128Y369162D01*
X234217Y368859D01*
X225023Y368859D01*
G37*
%LPD*%
%LPC*%
G36*
X98023Y368859D02*
X98023Y368859D01*
X98023Y379627D01*
X118453Y379627D01*
X118238Y378272D01*
X117640Y376432D01*
X116762Y374708D01*
X115625Y373143D01*
X114257Y371775D01*
X112692Y370638D01*
X110968Y369760D01*
X109128Y369162D01*
X107217Y368859D01*
X98023Y368859D01*
G37*
%LPD*%
%LPC*%
G36*
X212783Y368859D02*
X212783Y368859D01*
X210872Y369162D01*
X209032Y369760D01*
X207308Y370638D01*
X205743Y371775D01*
X204375Y373143D01*
X203238Y374708D01*
X202360Y376432D01*
X201762Y378272D01*
X201547Y379627D01*
X221977Y379627D01*
X221977Y368859D01*
X212783Y368859D01*
G37*
%LPD*%
%LPC*%
G36*
X650783Y206559D02*
X650783Y206559D01*
X648872Y206862D01*
X647032Y207460D01*
X645308Y208338D01*
X643743Y209475D01*
X642375Y210843D01*
X641238Y212408D01*
X640360Y214132D01*
X639762Y215972D01*
X639547Y217327D01*
X659977Y217327D01*
X659977Y206559D01*
X650783Y206559D01*
G37*
%LPD*%
%LPC*%
G36*
X777783Y206559D02*
X777783Y206559D01*
X775872Y206862D01*
X774032Y207460D01*
X772308Y208338D01*
X770743Y209475D01*
X769375Y210843D01*
X768238Y212408D01*
X767360Y214132D01*
X766762Y215972D01*
X766547Y217327D01*
X786977Y217327D01*
X786977Y206559D01*
X777783Y206559D01*
G37*
%LPD*%
%LPC*%
G36*
X85783Y206559D02*
X85783Y206559D01*
X83872Y206862D01*
X82032Y207460D01*
X80308Y208338D01*
X78743Y209475D01*
X77375Y210843D01*
X76238Y212408D01*
X75360Y214132D01*
X74762Y215972D01*
X74547Y217327D01*
X94977Y217327D01*
X94977Y206559D01*
X85783Y206559D01*
G37*
%LPD*%
%LPC*%
G36*
X85783Y368859D02*
X85783Y368859D01*
X83872Y369162D01*
X82032Y369760D01*
X80308Y370638D01*
X78743Y371775D01*
X77375Y373143D01*
X76238Y374708D01*
X75360Y376432D01*
X74762Y378272D01*
X74547Y379627D01*
X94977Y379627D01*
X94977Y368859D01*
X85783Y368859D01*
G37*
%LPD*%
%LPC*%
G36*
X777783Y368859D02*
X777783Y368859D01*
X775872Y369162D01*
X774032Y369760D01*
X772308Y370638D01*
X770743Y371775D01*
X769375Y373143D01*
X768238Y374708D01*
X767360Y376432D01*
X766762Y378272D01*
X766547Y379627D01*
X786977Y379627D01*
X786977Y368859D01*
X777783Y368859D01*
G37*
%LPD*%
%LPC*%
G36*
X441000Y692459D02*
X441000Y692459D01*
X438228Y693607D01*
X436107Y695728D01*
X434959Y698500D01*
X434959Y701500D01*
X436107Y704272D01*
X438228Y706393D01*
X441000Y707541D01*
X444000Y707541D01*
X446772Y706393D01*
X448893Y704272D01*
X450041Y701500D01*
X450041Y698500D01*
X448893Y695728D01*
X446772Y693607D01*
X444000Y692459D01*
X441000Y692459D01*
G37*
%LPD*%
%LPC*%
G36*
X783500Y722459D02*
X783500Y722459D01*
X780728Y723607D01*
X778607Y725728D01*
X777459Y728500D01*
X777459Y731500D01*
X778607Y734272D01*
X780728Y736393D01*
X783500Y737541D01*
X786500Y737541D01*
X789272Y736393D01*
X791393Y734272D01*
X792541Y731500D01*
X792541Y728500D01*
X791393Y725728D01*
X789272Y723607D01*
X786500Y722459D01*
X783500Y722459D01*
G37*
%LPD*%
%LPC*%
G36*
X668500Y512459D02*
X668500Y512459D01*
X665728Y513607D01*
X663607Y515728D01*
X662459Y518500D01*
X662459Y521500D01*
X663607Y524272D01*
X665728Y526393D01*
X668500Y527541D01*
X671500Y527541D01*
X674272Y526393D01*
X676393Y524272D01*
X677541Y521500D01*
X677541Y518500D01*
X676393Y515728D01*
X674272Y513607D01*
X671500Y512459D01*
X668500Y512459D01*
G37*
%LPD*%
%LPC*%
G36*
X628500Y842459D02*
X628500Y842459D01*
X625728Y843607D01*
X623607Y845728D01*
X622459Y848500D01*
X622459Y851500D01*
X623607Y854272D01*
X625728Y856393D01*
X628500Y857541D01*
X631500Y857541D01*
X634272Y856393D01*
X636393Y854272D01*
X637541Y851500D01*
X637541Y848500D01*
X636393Y845728D01*
X634272Y843607D01*
X631500Y842459D01*
X628500Y842459D01*
G37*
%LPD*%
%LPC*%
G36*
X213500Y512459D02*
X213500Y512459D01*
X210728Y513607D01*
X208607Y515728D01*
X207459Y518500D01*
X207459Y521500D01*
X208607Y524272D01*
X210728Y526393D01*
X213500Y527541D01*
X216500Y527541D01*
X219272Y526393D01*
X221393Y524272D01*
X222541Y521500D01*
X222541Y518500D01*
X221393Y515728D01*
X219272Y513607D01*
X216500Y512459D01*
X213500Y512459D01*
G37*
%LPD*%
%LPC*%
G36*
X688061Y101523D02*
X688061Y101523D01*
X688061Y110338D01*
X688355Y112194D01*
X688936Y113981D01*
X689789Y115655D01*
X690894Y117176D01*
X692222Y118504D01*
X693743Y119609D01*
X695417Y120462D01*
X697204Y121043D01*
X698477Y121244D01*
X698477Y101523D01*
X688061Y101523D01*
G37*
%LPD*%
%LPC*%
G36*
X697204Y78957D02*
X697204Y78957D01*
X695417Y79538D01*
X693743Y80391D01*
X692222Y81496D01*
X690894Y82824D01*
X689789Y84345D01*
X688936Y86019D01*
X688355Y87806D01*
X688061Y89662D01*
X688061Y98477D01*
X698477Y98477D01*
X698477Y78756D01*
X697204Y78957D01*
G37*
%LPD*%
%LPC*%
G36*
X269195Y929999D02*
X269195Y929999D01*
X269195Y941811D01*
X273196Y941811D01*
X281008Y933999D01*
X281008Y929999D01*
X269195Y929999D01*
G37*
%LPD*%
%LPC*%
G36*
X218290Y423350D02*
X218290Y423350D01*
X218290Y435163D01*
X222290Y435163D01*
X230102Y427351D01*
X230102Y423350D01*
X218290Y423350D01*
G37*
%LPD*%
%LPC*%
G36*
X203431Y423350D02*
X203431Y423350D01*
X203431Y427351D01*
X211243Y435163D01*
X215243Y435163D01*
X215243Y423350D01*
X203431Y423350D01*
G37*
%LPD*%
%LPC*%
G36*
X269195Y915140D02*
X269195Y915140D01*
X269195Y926952D01*
X281008Y926952D01*
X281008Y922951D01*
X273196Y915140D01*
X269195Y915140D01*
G37*
%LPD*%
%LPC*%
G36*
X218290Y408491D02*
X218290Y408491D01*
X218290Y420304D01*
X230102Y420304D01*
X230102Y416303D01*
X222290Y408491D01*
X218290Y408491D01*
G37*
%LPD*%
%LPC*%
G36*
X254336Y929999D02*
X254336Y929999D01*
X254336Y933999D01*
X262148Y941811D01*
X266149Y941811D01*
X266149Y929999D01*
X254336Y929999D01*
G37*
%LPD*%
%LPC*%
G36*
X211243Y408491D02*
X211243Y408491D01*
X203431Y416303D01*
X203431Y420304D01*
X215243Y420304D01*
X215243Y408491D01*
X211243Y408491D01*
G37*
%LPD*%
%LPC*%
G36*
X262148Y915140D02*
X262148Y915140D01*
X254336Y922951D01*
X254336Y926952D01*
X266149Y926952D01*
X266149Y915140D01*
X262148Y915140D01*
G37*
%LPD*%
%LPC*%
G36*
X469023Y631523D02*
X469023Y631523D01*
X469023Y641939D01*
X477232Y641939D01*
X477879Y641766D01*
X478458Y641431D01*
X478931Y640958D01*
X479266Y640379D01*
X479439Y639732D01*
X479439Y631523D01*
X469023Y631523D01*
G37*
%LPD*%
%LPC*%
G36*
X811523Y661523D02*
X811523Y661523D01*
X811523Y671939D01*
X819732Y671939D01*
X820379Y671766D01*
X820958Y671431D01*
X821431Y670958D01*
X821766Y670379D01*
X821939Y669732D01*
X821939Y661523D01*
X811523Y661523D01*
G37*
%LPD*%
%LPC*%
G36*
X656523Y781523D02*
X656523Y781523D01*
X656523Y791939D01*
X664732Y791939D01*
X665379Y791766D01*
X665958Y791431D01*
X666431Y790958D01*
X666766Y790379D01*
X666939Y789732D01*
X666939Y781523D01*
X656523Y781523D01*
G37*
%LPD*%
%LPC*%
G36*
X286523Y546523D02*
X286523Y546523D01*
X286523Y556939D01*
X294732Y556939D01*
X295379Y556766D01*
X295958Y556431D01*
X296431Y555958D01*
X296766Y555379D01*
X296939Y554732D01*
X296939Y546523D01*
X286523Y546523D01*
G37*
%LPD*%
%LPC*%
G36*
X601523Y483061D02*
X601523Y483061D01*
X601523Y493477D01*
X611939Y493477D01*
X611939Y485268D01*
X611766Y484621D01*
X611431Y484042D01*
X610958Y483569D01*
X610379Y483234D01*
X609732Y483061D01*
X601523Y483061D01*
G37*
%LPD*%
%LPC*%
G36*
X273061Y546523D02*
X273061Y546523D01*
X273061Y554732D01*
X273234Y555379D01*
X273569Y555958D01*
X274042Y556431D01*
X274621Y556766D01*
X275268Y556939D01*
X283477Y556939D01*
X283477Y546523D01*
X273061Y546523D01*
G37*
%LPD*%
%LPC*%
G36*
X811523Y648061D02*
X811523Y648061D01*
X811523Y658477D01*
X821939Y658477D01*
X821939Y650268D01*
X821766Y649621D01*
X821431Y649042D01*
X820958Y648569D01*
X820379Y648234D01*
X819732Y648061D01*
X811523Y648061D01*
G37*
%LPD*%
%LPC*%
G36*
X469023Y618061D02*
X469023Y618061D01*
X469023Y628477D01*
X479439Y628477D01*
X479439Y620268D01*
X479266Y619621D01*
X478931Y619042D01*
X478458Y618569D01*
X477879Y618234D01*
X477232Y618061D01*
X469023Y618061D01*
G37*
%LPD*%
%LPC*%
G36*
X656523Y768061D02*
X656523Y768061D01*
X656523Y778477D01*
X666939Y778477D01*
X666939Y770268D01*
X666766Y769621D01*
X666431Y769042D01*
X665958Y768569D01*
X665379Y768234D01*
X664732Y768061D01*
X656523Y768061D01*
G37*
%LPD*%
%LPC*%
G36*
X590268Y483061D02*
X590268Y483061D01*
X589621Y483234D01*
X589042Y483569D01*
X588569Y484042D01*
X588234Y484621D01*
X588061Y485268D01*
X588061Y493477D01*
X598477Y493477D01*
X598477Y483061D01*
X590268Y483061D01*
G37*
%LPD*%
%LPC*%
G36*
X862723Y903223D02*
X862723Y903223D01*
X862723Y910781D01*
X868634Y910781D01*
X870389Y910432D01*
X872041Y909747D01*
X873529Y908753D01*
X874793Y907489D01*
X875787Y906001D01*
X876472Y904349D01*
X876696Y903223D01*
X862723Y903223D01*
G37*
%LPD*%
%LPC*%
G36*
X862723Y877823D02*
X862723Y877823D01*
X862723Y885381D01*
X868634Y885381D01*
X870389Y885032D01*
X872041Y884347D01*
X873529Y883353D01*
X874793Y882089D01*
X875787Y880601D01*
X876472Y878949D01*
X876696Y877823D01*
X862723Y877823D01*
G37*
%LPD*%
%LPC*%
G36*
X710323Y446023D02*
X710323Y446023D01*
X710323Y453581D01*
X716234Y453581D01*
X717989Y453232D01*
X719641Y452547D01*
X721129Y451553D01*
X722393Y450289D01*
X723387Y448801D01*
X724072Y447149D01*
X724296Y446023D01*
X710323Y446023D01*
G37*
%LPD*%
%LPC*%
G36*
X693304Y446023D02*
X693304Y446023D01*
X693528Y447149D01*
X694213Y448801D01*
X695207Y450289D01*
X696471Y451553D01*
X697959Y452547D01*
X699611Y453232D01*
X701366Y453581D01*
X707277Y453581D01*
X707277Y446023D01*
X693304Y446023D01*
G37*
%LPD*%
%LPC*%
G36*
X845704Y877823D02*
X845704Y877823D01*
X845928Y878949D01*
X846613Y880601D01*
X847607Y882089D01*
X848871Y883353D01*
X850359Y884347D01*
X852011Y885032D01*
X853766Y885381D01*
X859677Y885381D01*
X859677Y877823D01*
X845704Y877823D01*
G37*
%LPD*%
%LPC*%
G36*
X845704Y903223D02*
X845704Y903223D01*
X845928Y904349D01*
X846613Y906001D01*
X847607Y907489D01*
X848871Y908753D01*
X850359Y909747D01*
X852011Y910432D01*
X853766Y910781D01*
X859677Y910781D01*
X859677Y903223D01*
X845704Y903223D01*
G37*
%LPD*%
%LPC*%
G36*
X862723Y867219D02*
X862723Y867219D01*
X862723Y874777D01*
X876696Y874777D01*
X876472Y873651D01*
X875787Y871999D01*
X874793Y870511D01*
X873529Y869247D01*
X872041Y868253D01*
X870389Y867568D01*
X868634Y867219D01*
X862723Y867219D01*
G37*
%LPD*%
%LPC*%
G36*
X862723Y892619D02*
X862723Y892619D01*
X862723Y900177D01*
X876696Y900177D01*
X876472Y899051D01*
X875787Y897399D01*
X874793Y895911D01*
X873529Y894647D01*
X872041Y893653D01*
X870389Y892968D01*
X868634Y892619D01*
X862723Y892619D01*
G37*
%LPD*%
%LPC*%
G36*
X710323Y435419D02*
X710323Y435419D01*
X710323Y442977D01*
X724296Y442977D01*
X724072Y441851D01*
X723387Y440199D01*
X722393Y438711D01*
X721129Y437447D01*
X719641Y436453D01*
X717989Y435768D01*
X716234Y435419D01*
X710323Y435419D01*
G37*
%LPD*%
%LPC*%
G36*
X853766Y892619D02*
X853766Y892619D01*
X852011Y892968D01*
X850359Y893653D01*
X848871Y894647D01*
X847607Y895911D01*
X846613Y897399D01*
X845928Y899051D01*
X845704Y900177D01*
X859677Y900177D01*
X859677Y892619D01*
X853766Y892619D01*
G37*
%LPD*%
%LPC*%
G36*
X853766Y867219D02*
X853766Y867219D01*
X852011Y867568D01*
X850359Y868253D01*
X848871Y869247D01*
X847607Y870511D01*
X846613Y871999D01*
X845928Y873651D01*
X845704Y874777D01*
X859677Y874777D01*
X859677Y867219D01*
X853766Y867219D01*
G37*
%LPD*%
%LPC*%
G36*
X701366Y435419D02*
X701366Y435419D01*
X699611Y435768D01*
X697959Y436453D01*
X696471Y437447D01*
X695207Y438711D01*
X694213Y440199D01*
X693528Y441851D01*
X693304Y442977D01*
X707277Y442977D01*
X707277Y435419D01*
X701366Y435419D01*
G37*
%LPD*%
%LPC*%
G36*
X476535Y384129D02*
X476535Y384129D01*
X476535Y394452D01*
X477808Y394251D01*
X479595Y393670D01*
X481269Y392817D01*
X482790Y391712D01*
X484118Y390384D01*
X485223Y388863D01*
X486076Y387189D01*
X486657Y385402D01*
X486858Y384129D01*
X476535Y384129D01*
G37*
%LPD*%
%LPC*%
G36*
X463166Y384129D02*
X463166Y384129D01*
X463367Y385402D01*
X463948Y387189D01*
X464801Y388863D01*
X465906Y390384D01*
X467234Y391712D01*
X468755Y392817D01*
X470429Y393670D01*
X472216Y394251D01*
X473489Y394452D01*
X473489Y384129D01*
X463166Y384129D01*
G37*
%LPD*%
%LPC*%
G36*
X476535Y381083D02*
X476535Y381083D01*
X486858Y381083D01*
X486657Y379810D01*
X486076Y378023D01*
X485223Y376349D01*
X484118Y374828D01*
X482790Y373500D01*
X481269Y372395D01*
X479595Y371542D01*
X477808Y370961D01*
X476535Y370760D01*
X476535Y381083D01*
G37*
%LPD*%
%LPC*%
G36*
X472216Y370961D02*
X472216Y370961D01*
X470429Y371542D01*
X468755Y372395D01*
X467234Y373500D01*
X465906Y374828D01*
X464801Y376349D01*
X463948Y378023D01*
X463367Y379810D01*
X463166Y381083D01*
X473489Y381083D01*
X473489Y370760D01*
X472216Y370961D01*
G37*
%LPD*%
%LPC*%
G36*
X168215Y959031D02*
X168215Y959031D01*
X168215Y966966D01*
X168935Y966852D01*
X170370Y966386D01*
X171713Y965702D01*
X172933Y964815D01*
X174000Y963749D01*
X174886Y962529D01*
X175571Y961185D01*
X176037Y959751D01*
X176151Y959031D01*
X168215Y959031D01*
G37*
%LPD*%
%LPC*%
G36*
X128031Y179961D02*
X128031Y179961D01*
X128031Y187896D01*
X128752Y187782D01*
X130186Y187316D01*
X131530Y186632D01*
X132750Y185745D01*
X133816Y184679D01*
X134702Y183459D01*
X135387Y182115D01*
X135853Y180681D01*
X135967Y179961D01*
X128031Y179961D01*
G37*
%LPD*%
%LPC*%
G36*
X157233Y959031D02*
X157233Y959031D01*
X157347Y959751D01*
X157813Y961185D01*
X158498Y962529D01*
X159384Y963749D01*
X160450Y964815D01*
X161671Y965702D01*
X163014Y966386D01*
X164448Y966852D01*
X165169Y966966D01*
X165169Y959031D01*
X157233Y959031D01*
G37*
%LPD*%
%LPC*%
G36*
X128031Y176914D02*
X128031Y176914D01*
X135967Y176914D01*
X135853Y176194D01*
X135387Y174760D01*
X134702Y173416D01*
X133816Y172196D01*
X132750Y171130D01*
X131530Y170243D01*
X130186Y169559D01*
X128752Y169092D01*
X128031Y168978D01*
X128031Y176914D01*
G37*
%LPD*%
%LPC*%
G36*
X117049Y179961D02*
X117049Y179961D01*
X117163Y180681D01*
X117629Y182115D01*
X118314Y183459D01*
X119201Y184679D01*
X120267Y185745D01*
X121487Y186632D01*
X122830Y187316D01*
X124265Y187782D01*
X124985Y187896D01*
X124985Y179961D01*
X117049Y179961D01*
G37*
%LPD*%
%LPC*%
G36*
X168215Y955984D02*
X168215Y955984D01*
X176151Y955984D01*
X176037Y955264D01*
X175571Y953830D01*
X174886Y952486D01*
X174000Y951266D01*
X172933Y950200D01*
X171713Y949313D01*
X170370Y948629D01*
X168935Y948163D01*
X168215Y948048D01*
X168215Y955984D01*
G37*
%LPD*%
%LPC*%
G36*
X164448Y948163D02*
X164448Y948163D01*
X163014Y948629D01*
X161671Y949313D01*
X160450Y950200D01*
X159384Y951266D01*
X158498Y952486D01*
X157813Y953830D01*
X157347Y955264D01*
X157233Y955984D01*
X165169Y955984D01*
X165169Y948048D01*
X164448Y948163D01*
G37*
%LPD*%
%LPC*%
G36*
X124265Y169092D02*
X124265Y169092D01*
X122830Y169559D01*
X121487Y170243D01*
X120267Y171130D01*
X119201Y172196D01*
X118314Y173416D01*
X117629Y174760D01*
X117163Y176194D01*
X117049Y176914D01*
X124985Y176914D01*
X124985Y168978D01*
X124265Y169092D01*
G37*
%LPD*%
%LPC*%
G36*
X321323Y271523D02*
X321323Y271523D01*
X321323Y279145D01*
X323588Y279145D01*
X328945Y273788D01*
X328945Y271523D01*
X321323Y271523D01*
G37*
%LPD*%
%LPC*%
G36*
X541323Y271523D02*
X541323Y271523D01*
X541323Y279145D01*
X543588Y279145D01*
X548945Y273788D01*
X548945Y271523D01*
X541323Y271523D01*
G37*
%LPD*%
%LPC*%
G36*
X447001Y232580D02*
X447001Y232580D01*
X447001Y240202D01*
X449266Y240202D01*
X454623Y234845D01*
X454623Y232580D01*
X447001Y232580D01*
G37*
%LPD*%
%LPC*%
G36*
X521323Y351523D02*
X521323Y351523D01*
X521323Y359145D01*
X523588Y359145D01*
X528945Y353788D01*
X528945Y351523D01*
X521323Y351523D01*
G37*
%LPD*%
%LPC*%
G36*
X481323Y431523D02*
X481323Y431523D01*
X481323Y439145D01*
X483588Y439145D01*
X488945Y433788D01*
X488945Y431523D01*
X481323Y431523D01*
G37*
%LPD*%
%LPC*%
G36*
X381323Y431523D02*
X381323Y431523D01*
X381323Y439145D01*
X383588Y439145D01*
X388945Y433788D01*
X388945Y431523D01*
X381323Y431523D01*
G37*
%LPD*%
%LPC*%
G36*
X341323Y351523D02*
X341323Y351523D01*
X341323Y359145D01*
X343588Y359145D01*
X348945Y353788D01*
X348945Y351523D01*
X341323Y351523D01*
G37*
%LPD*%
%LPC*%
G36*
X470655Y431523D02*
X470655Y431523D01*
X470655Y433788D01*
X476012Y439145D01*
X478277Y439145D01*
X478277Y431523D01*
X470655Y431523D01*
G37*
%LPD*%
%LPC*%
G36*
X330655Y351523D02*
X330655Y351523D01*
X330655Y353788D01*
X336012Y359145D01*
X338277Y359145D01*
X338277Y351523D01*
X330655Y351523D01*
G37*
%LPD*%
%LPC*%
G36*
X370655Y431523D02*
X370655Y431523D01*
X370655Y433788D01*
X376012Y439145D01*
X378277Y439145D01*
X378277Y431523D01*
X370655Y431523D01*
G37*
%LPD*%
%LPC*%
G36*
X510655Y351523D02*
X510655Y351523D01*
X510655Y353788D01*
X516012Y359145D01*
X518277Y359145D01*
X518277Y351523D01*
X510655Y351523D01*
G37*
%LPD*%
%LPC*%
G36*
X310655Y271523D02*
X310655Y271523D01*
X310655Y273788D01*
X316012Y279145D01*
X318277Y279145D01*
X318277Y271523D01*
X310655Y271523D01*
G37*
%LPD*%
%LPC*%
G36*
X436333Y232580D02*
X436333Y232580D01*
X436333Y234845D01*
X441690Y240202D01*
X443955Y240202D01*
X443955Y232580D01*
X436333Y232580D01*
G37*
%LPD*%
%LPC*%
G36*
X530655Y271523D02*
X530655Y271523D01*
X530655Y273788D01*
X536012Y279145D01*
X538277Y279145D01*
X538277Y271523D01*
X530655Y271523D01*
G37*
%LPD*%
%LPC*%
G36*
X381323Y420855D02*
X381323Y420855D01*
X381323Y428477D01*
X388945Y428477D01*
X388945Y426212D01*
X383588Y420855D01*
X381323Y420855D01*
G37*
%LPD*%
%LPC*%
G36*
X521323Y340855D02*
X521323Y340855D01*
X521323Y348477D01*
X528945Y348477D01*
X528945Y346212D01*
X523588Y340855D01*
X521323Y340855D01*
G37*
%LPD*%
%LPC*%
G36*
X481323Y420855D02*
X481323Y420855D01*
X481323Y428477D01*
X488945Y428477D01*
X488945Y426212D01*
X483588Y420855D01*
X481323Y420855D01*
G37*
%LPD*%
%LPC*%
G36*
X341323Y340855D02*
X341323Y340855D01*
X341323Y348477D01*
X348945Y348477D01*
X348945Y346212D01*
X343588Y340855D01*
X341323Y340855D01*
G37*
%LPD*%
%LPC*%
G36*
X321323Y260855D02*
X321323Y260855D01*
X321323Y268477D01*
X328945Y268477D01*
X328945Y266212D01*
X323588Y260855D01*
X321323Y260855D01*
G37*
%LPD*%
%LPC*%
G36*
X447001Y221912D02*
X447001Y221912D01*
X447001Y229534D01*
X454623Y229534D01*
X454623Y227269D01*
X449266Y221912D01*
X447001Y221912D01*
G37*
%LPD*%
%LPC*%
G36*
X541323Y260855D02*
X541323Y260855D01*
X541323Y268477D01*
X548945Y268477D01*
X548945Y266212D01*
X543588Y260855D01*
X541323Y260855D01*
G37*
%LPD*%
%LPC*%
G36*
X536012Y260855D02*
X536012Y260855D01*
X530655Y266212D01*
X530655Y268477D01*
X538277Y268477D01*
X538277Y260855D01*
X536012Y260855D01*
G37*
%LPD*%
%LPC*%
G36*
X336012Y340855D02*
X336012Y340855D01*
X330655Y346212D01*
X330655Y348477D01*
X338277Y348477D01*
X338277Y340855D01*
X336012Y340855D01*
G37*
%LPD*%
%LPC*%
G36*
X441690Y221912D02*
X441690Y221912D01*
X436333Y227269D01*
X436333Y229534D01*
X443955Y229534D01*
X443955Y221912D01*
X441690Y221912D01*
G37*
%LPD*%
%LPC*%
G36*
X316012Y260855D02*
X316012Y260855D01*
X310655Y266212D01*
X310655Y268477D01*
X318277Y268477D01*
X318277Y260855D01*
X316012Y260855D01*
G37*
%LPD*%
%LPC*%
G36*
X476012Y420855D02*
X476012Y420855D01*
X470655Y426212D01*
X470655Y428477D01*
X478277Y428477D01*
X478277Y420855D01*
X476012Y420855D01*
G37*
%LPD*%
%LPC*%
G36*
X516012Y340855D02*
X516012Y340855D01*
X510655Y346212D01*
X510655Y348477D01*
X518277Y348477D01*
X518277Y340855D01*
X516012Y340855D01*
G37*
%LPD*%
%LPC*%
G36*
X376012Y420855D02*
X376012Y420855D01*
X370655Y426212D01*
X370655Y428477D01*
X378277Y428477D01*
X378277Y420855D01*
X376012Y420855D01*
G37*
%LPD*%
%LPC*%
G36*
X663162Y965614D02*
X663162Y965614D01*
X663162Y973260D01*
X664349Y973024D01*
X666039Y972324D01*
X667561Y971307D01*
X668855Y970013D01*
X669872Y968491D01*
X670572Y966800D01*
X670808Y965614D01*
X663162Y965614D01*
G37*
%LPD*%
%LPC*%
G36*
X146535Y43829D02*
X146535Y43829D01*
X146535Y51475D01*
X147722Y51239D01*
X149413Y50539D01*
X150935Y49522D01*
X152229Y48228D01*
X153246Y46706D01*
X153946Y45015D01*
X154182Y43829D01*
X146535Y43829D01*
G37*
%LPD*%
%LPC*%
G36*
X719293Y963853D02*
X719293Y963853D01*
X719293Y971500D01*
X720480Y971264D01*
X722170Y970563D01*
X723692Y969546D01*
X724986Y968252D01*
X726003Y966731D01*
X726703Y965040D01*
X726939Y963853D01*
X719293Y963853D01*
G37*
%LPD*%
%LPC*%
G36*
X146535Y40782D02*
X146535Y40782D01*
X154182Y40782D01*
X153946Y39595D01*
X153246Y37905D01*
X152229Y36383D01*
X150935Y35089D01*
X149413Y34072D01*
X147722Y33372D01*
X146535Y33136D01*
X146535Y40782D01*
G37*
%LPD*%
%LPC*%
G36*
X218657Y929037D02*
X218657Y929037D01*
X226304Y929037D01*
X226068Y927850D01*
X225368Y926159D01*
X224351Y924637D01*
X223057Y923344D01*
X221535Y922327D01*
X219844Y921626D01*
X218657Y921390D01*
X218657Y929037D01*
G37*
%LPD*%
%LPC*%
G36*
X48079Y97755D02*
X48079Y97755D01*
X55725Y97755D01*
X55489Y96569D01*
X54789Y94878D01*
X53772Y93356D01*
X52478Y92062D01*
X50956Y91045D01*
X49265Y90345D01*
X48079Y90109D01*
X48079Y97755D01*
G37*
%LPD*%
%LPC*%
G36*
X663162Y962567D02*
X663162Y962567D01*
X670808Y962567D01*
X670572Y961381D01*
X669872Y959690D01*
X668855Y958168D01*
X667561Y956874D01*
X666039Y955857D01*
X664349Y955157D01*
X663162Y954921D01*
X663162Y962567D01*
G37*
%LPD*%
%LPC*%
G36*
X719293Y960807D02*
X719293Y960807D01*
X726939Y960807D01*
X726703Y959620D01*
X726003Y957929D01*
X724986Y956407D01*
X723692Y955113D01*
X722170Y954096D01*
X720480Y953396D01*
X719293Y953160D01*
X719293Y960807D01*
G37*
%LPD*%
%LPC*%
G36*
X214424Y921626D02*
X214424Y921626D01*
X212733Y922327D01*
X211212Y923344D01*
X209918Y924637D01*
X208901Y926159D01*
X208200Y927850D01*
X207964Y929037D01*
X215611Y929037D01*
X215611Y921390D01*
X214424Y921626D01*
G37*
%LPD*%
%LPC*%
G36*
X43845Y90345D02*
X43845Y90345D01*
X42155Y91045D01*
X40633Y92062D01*
X39339Y93356D01*
X38322Y94878D01*
X37622Y96569D01*
X37386Y97755D01*
X45032Y97755D01*
X45032Y90109D01*
X43845Y90345D01*
G37*
%LPD*%
%LPC*%
G36*
X661499Y218849D02*
X661499Y218849D01*
X661499Y218851D01*
X661501Y218851D01*
X661501Y218849D01*
X661499Y218849D01*
G37*
%LPD*%
%LPC*%
G36*
X126507Y178436D02*
X126507Y178436D01*
X126507Y178438D01*
X126509Y178438D01*
X126509Y178436D01*
X126507Y178436D01*
G37*
%LPD*%
%LPC*%
G36*
X96499Y218849D02*
X96499Y218849D01*
X96499Y218851D01*
X96501Y218851D01*
X96501Y218849D01*
X96499Y218849D01*
G37*
%LPD*%
%LPC*%
G36*
X479799Y429999D02*
X479799Y429999D01*
X479799Y430001D01*
X479801Y430001D01*
X479801Y429999D01*
X479799Y429999D01*
G37*
%LPD*%
%LPC*%
G36*
X379799Y429999D02*
X379799Y429999D01*
X379799Y430001D01*
X379801Y430001D01*
X379801Y429999D01*
X379799Y429999D01*
G37*
%LPD*%
%LPC*%
G36*
X445477Y231056D02*
X445477Y231056D01*
X445477Y231058D01*
X445479Y231058D01*
X445479Y231056D01*
X445477Y231056D01*
G37*
%LPD*%
%LPC*%
G36*
X166691Y957506D02*
X166691Y957506D01*
X166691Y957508D01*
X166693Y957508D01*
X166693Y957506D01*
X166691Y957506D01*
G37*
%LPD*%
%LPC*%
G36*
X519799Y349999D02*
X519799Y349999D01*
X519799Y350001D01*
X519801Y350001D01*
X519801Y349999D01*
X519799Y349999D01*
G37*
%LPD*%
%LPC*%
G36*
X788499Y218849D02*
X788499Y218849D01*
X788499Y218851D01*
X788501Y218851D01*
X788501Y218849D01*
X788499Y218849D01*
G37*
%LPD*%
%LPC*%
G36*
X223499Y381149D02*
X223499Y381149D01*
X223499Y381151D01*
X223501Y381151D01*
X223501Y381149D01*
X223499Y381149D01*
G37*
%LPD*%
%LPC*%
G36*
X339799Y349999D02*
X339799Y349999D01*
X339799Y350001D01*
X339801Y350001D01*
X339801Y349999D01*
X339799Y349999D01*
G37*
%LPD*%
%LPC*%
G36*
X216766Y421826D02*
X216766Y421826D01*
X216766Y421828D01*
X216767Y421828D01*
X216767Y421826D01*
X216766Y421826D01*
G37*
%LPD*%
%LPC*%
G36*
X267671Y928474D02*
X267671Y928474D01*
X267671Y928476D01*
X267673Y928476D01*
X267673Y928474D01*
X267671Y928474D01*
G37*
%LPD*%
%LPC*%
G36*
X475011Y382605D02*
X475011Y382605D01*
X475011Y382607D01*
X475013Y382607D01*
X475013Y382605D01*
X475011Y382605D01*
G37*
%LPD*%
%LPC*%
G36*
X708799Y444499D02*
X708799Y444499D01*
X708799Y444501D01*
X708801Y444501D01*
X708801Y444499D01*
X708799Y444499D01*
G37*
%LPD*%
%LPC*%
G36*
X861199Y901699D02*
X861199Y901699D01*
X861199Y901701D01*
X861201Y901701D01*
X861201Y901699D01*
X861199Y901699D01*
G37*
%LPD*%
%LPC*%
G36*
X96499Y381149D02*
X96499Y381149D01*
X96499Y381151D01*
X96501Y381151D01*
X96501Y381149D01*
X96499Y381149D01*
G37*
%LPD*%
%LPC*%
G36*
X319799Y269999D02*
X319799Y269999D01*
X319799Y270001D01*
X319801Y270001D01*
X319801Y269999D01*
X319799Y269999D01*
G37*
%LPD*%
%LPC*%
G36*
X539799Y269999D02*
X539799Y269999D01*
X539799Y270001D01*
X539801Y270001D01*
X539801Y269999D01*
X539799Y269999D01*
G37*
%LPD*%
%LPC*%
G36*
X861199Y876299D02*
X861199Y876299D01*
X861199Y876301D01*
X861201Y876301D01*
X861201Y876299D01*
X861199Y876299D01*
G37*
%LPD*%
%LPC*%
G36*
X788499Y381149D02*
X788499Y381149D01*
X788499Y381151D01*
X788501Y381151D01*
X788501Y381149D01*
X788499Y381149D01*
G37*
%LPD*%
D10*
X267672Y964694D03*
X267672Y928475D03*
D11*
X697770Y962330D03*
D12*
X717770Y962330D03*
D11*
X641639Y964091D03*
D12*
X661639Y964091D03*
D11*
X217134Y950560D03*
D12*
X217134Y930560D03*
D13*
X603556Y960896D03*
D14*
X603556Y935496D03*
D13*
X166692Y957507D03*
D14*
X166692Y932107D03*
D15*
X106250Y218850D02*
X86750Y218850D01*
X86750Y381150D02*
X106250Y381150D01*
X213750Y218850D02*
X233250Y218850D01*
X233250Y381150D02*
X213750Y381150D01*
D10*
X216767Y421827D03*
D16*
X263210Y421692D03*
D15*
X778750Y381150D02*
X798250Y381150D01*
X798250Y218850D02*
X778750Y218850D01*
X671250Y381150D02*
X651750Y381150D01*
X651750Y218850D02*
X671250Y218850D01*
D17*
X445478Y231057D03*
X432778Y250107D03*
X420078Y231057D03*
D18*
X702260Y901700D02*
X715340Y901700D01*
X715340Y876300D02*
X702260Y876300D01*
X702260Y850900D02*
X715340Y850900D01*
X715340Y825500D02*
X702260Y825500D01*
X702260Y800100D02*
X715340Y800100D01*
X715340Y774700D02*
X702260Y774700D01*
X702260Y749300D02*
X715340Y749300D01*
X715340Y723900D02*
X702260Y723900D01*
X702260Y698500D02*
X715340Y698500D01*
X715340Y673100D02*
X702260Y673100D01*
X702260Y647700D02*
X715340Y647700D01*
X715340Y622300D02*
X702260Y622300D01*
X702260Y596900D02*
X715340Y596900D01*
X715340Y571500D02*
X702260Y571500D01*
X702260Y546100D02*
X715340Y546100D01*
X715340Y520700D02*
X702260Y520700D01*
X702260Y495300D02*
X715340Y495300D01*
X715340Y469900D02*
X702260Y469900D01*
X702260Y444500D02*
X715340Y444500D01*
X715340Y419100D02*
X702260Y419100D01*
X854660Y901700D02*
X867740Y901700D01*
X867740Y876300D02*
X854660Y876300D01*
X854660Y850900D02*
X867740Y850900D01*
X867740Y825500D02*
X854660Y825500D01*
X854660Y800100D02*
X867740Y800100D01*
X867740Y774700D02*
X854660Y774700D01*
X854660Y749300D02*
X867740Y749300D01*
X867740Y723900D02*
X854660Y723900D01*
X854660Y698500D02*
X867740Y698500D01*
X867740Y673100D02*
X854660Y673100D01*
X854660Y647700D02*
X867740Y647700D01*
X867740Y622300D02*
X854660Y622300D01*
X854660Y596900D02*
X867740Y596900D01*
X867740Y571500D02*
X854660Y571500D01*
X854660Y546100D02*
X867740Y546100D01*
X867740Y520700D02*
X854660Y520700D01*
X854660Y495300D02*
X867740Y495300D01*
X867740Y469900D02*
X854660Y469900D01*
X854660Y444500D02*
X867740Y444500D01*
X867740Y419100D02*
X854660Y419100D01*
D19*
X760000Y660000D03*
X785000Y660000D03*
X810000Y660000D03*
D20*
X741000Y730000D03*
X829000Y730000D03*
D19*
X285000Y495000D03*
X285000Y520000D03*
X285000Y545000D03*
D21*
X215000Y476000D03*
X215000Y564000D03*
D19*
X605000Y780000D03*
X630000Y780000D03*
X655000Y780000D03*
D20*
X586000Y850000D03*
X674000Y850000D03*
D19*
X600000Y545000D03*
X600000Y520000D03*
X600000Y495000D03*
D22*
X670000Y564000D03*
X670000Y476000D03*
D19*
X417500Y630000D03*
X442500Y630000D03*
X467500Y630000D03*
D20*
X398500Y700000D03*
X486500Y700000D03*
D19*
X69588Y660000D03*
X94588Y660000D03*
X119588Y660000D03*
D20*
X50588Y730000D03*
X138588Y730000D03*
D23*
X405200Y430000D03*
X379800Y430000D03*
X505200Y430000D03*
X479800Y430000D03*
X545200Y350000D03*
X519800Y350000D03*
X565200Y270000D03*
X539800Y270000D03*
X365200Y350000D03*
X339800Y350000D03*
X345200Y270000D03*
X319800Y270000D03*
D24*
X30000Y430602D02*
X30000Y449398D01*
X55400Y449398D02*
X55400Y430602D01*
X80800Y430602D02*
X80800Y449398D01*
X106200Y449398D02*
X106200Y430602D01*
X131600Y430602D02*
X131600Y449398D01*
D25*
X49887Y799030D02*
X30329Y799030D01*
X30329Y824430D02*
X49887Y824430D01*
X49887Y849830D02*
X30329Y849830D01*
X520329Y799030D02*
X539887Y799030D01*
X539887Y824430D02*
X520329Y824430D01*
X520329Y849830D02*
X539887Y849830D01*
X280908Y739891D02*
X280908Y720333D01*
X255508Y720333D02*
X255508Y739891D01*
X230108Y739891D02*
X230108Y720333D01*
D19*
X230000Y780000D03*
X255000Y780000D03*
X280000Y780000D03*
D20*
X211000Y850000D03*
X299000Y850000D03*
D26*
X475012Y382606D03*
X409988Y382606D03*
X475012Y337394D03*
X409988Y337394D03*
D11*
X46555Y119279D03*
D12*
X46555Y99279D03*
D13*
X126508Y178437D03*
D14*
X101108Y178437D03*
D11*
X125012Y42305D03*
D12*
X145012Y42305D03*
D27*
X245740Y37760D03*
X245740Y87760D03*
D11*
X407684Y41418D03*
D12*
X427684Y41418D03*
D26*
X512962Y47018D03*
X589162Y47018D03*
D27*
X535693Y133163D03*
X585693Y133163D03*
D24*
X700000Y109398D02*
X700000Y90602D01*
X725400Y90602D02*
X725400Y109398D01*
X750800Y109398D02*
X750800Y90602D01*
X776200Y90602D02*
X776200Y109398D01*
X801600Y109398D02*
X801600Y90602D01*
D16*
X387296Y179972D03*
X440846Y179972D03*
D28*
X138684Y143256D02*
X102108Y179832D01*
X101108Y178437D01*
X138684Y143256D02*
X164592Y143256D01*
X190500Y169164D01*
D29*
X138684Y143256D03*
X190500Y169164D03*
X834215Y97033D03*
X535845Y872562D03*
X560842Y868664D03*
D28*
X600456Y544068D02*
X609600Y544068D01*
X646176Y507492D01*
X646176Y467868D01*
X688848Y425196D01*
X691896Y425196D01*
X697992Y419100D01*
X708800Y419100D01*
X600456Y544068D02*
X600000Y545000D01*
X284988Y487088D02*
X251652Y453752D01*
X284988Y487088D02*
X284988Y493776D01*
X285000Y495000D01*
X760476Y661416D02*
X760476Y676656D01*
X806196Y722376D01*
X806196Y797052D01*
X861060Y851916D01*
X760476Y661416D02*
X760000Y660000D01*
X861200Y850900D02*
X861060Y851916D01*
D29*
X251652Y453752D03*
D28*
X708800Y571500D02*
X713232Y571500D01*
X731520Y553212D01*
D29*
X731520Y553212D03*
D28*
X719328Y534924D02*
X720852Y533400D01*
X719328Y534924D02*
X717804Y534924D01*
X716280Y536448D01*
X699516Y536448D01*
X696468Y533400D01*
X685800Y533400D01*
X678180Y541020D01*
X633984Y541020D01*
X612648Y562356D01*
X335280Y562356D01*
X294132Y521208D01*
X286512Y521208D01*
X285000Y520000D01*
X845820Y571500D02*
X861200Y571500D01*
X845820Y571500D02*
X812292Y537972D01*
X728472Y537972D01*
X723900Y533400D01*
X720852Y533400D01*
X746760Y643128D02*
X769620Y643128D01*
X774192Y643128D01*
X746760Y643128D02*
X729996Y659892D01*
X729996Y704088D01*
X722376Y711708D01*
X720852Y711708D01*
X717804Y714756D01*
X699516Y714756D01*
X696468Y711708D01*
X690372Y711708D01*
X630936Y771144D01*
X630936Y778764D01*
X630000Y780000D01*
X850392Y597408D02*
X861060Y597408D01*
X850392Y597408D02*
X813816Y633984D01*
X774192Y633984D01*
X769620Y638556D01*
X769620Y643128D01*
X861060Y597408D02*
X861200Y596900D01*
X726948Y755904D02*
X729996Y758952D01*
X729996Y783336D01*
X713232Y800100D01*
X708800Y800100D01*
D29*
X726948Y755904D03*
D28*
X105156Y438912D02*
X105156Y426720D01*
X60960Y382524D01*
X60960Y379476D01*
X105156Y438912D02*
X106200Y440000D01*
D29*
X60960Y379476D03*
M02*
