M48
;GenerationSoftware,Autodesk,EAGLE,9.2.2*%
;CreationDate,2019-03-16T21:44:51Z*%
FMAT,2
ICI,OFF
METRIC,TZ,000.000
T11C0.350
T10C0.635
T9C0.800
T8C0.813
T7C0.900
T6C1.000
T5C1.016
T4C1.118
T3C1.300
T2C2.000
T1C2.800
%
G90
M71
T1
X77296Y96322
X11053Y96350
X85000Y3908
X3500Y3782
T2
X29900Y85000
X67000Y47600
X21100Y85000
X13859Y73000
X5059Y73000
X67000Y56400
X67400Y85000
X58600Y85000
X21500Y56400
X21500Y47600
X82900Y73000
X74100Y73000
X39850Y70000
X48650Y70000
T3
X17994Y41911
X30046Y96498
X30046Y92739
X30020Y41947
X66150Y21885
X66150Y38115
X39887Y10093
X43442Y10093
X78850Y21885
X78850Y38115
X22350Y38115
X22350Y21885
X9650Y38115
X9650Y21885
T4
X13160Y44000
X4011Y79903
X4011Y82443
X4011Y84983
X53011Y79903
X53011Y82443
X10620Y44000
X8080Y44000
X5540Y44000
X3000Y44000
X53011Y84983
X28091Y73011
X77620Y10000
X75080Y10000
X72540Y10000
X70000Y10000
X25551Y73011
X80160Y10000
X23011Y73011
T5
X44085Y17997
X26767Y92848
X38730Y17997
X26767Y96469
X40999Y33739
X47501Y33739
X40999Y38261
X26321Y42169
X21677Y42183
X47501Y38261
T6
X41750Y63000
X25500Y85000
X28000Y78000
X60000Y49500
X60000Y52000
X60000Y54500
X23000Y78000
X78500Y73000
X65500Y78000
X63000Y78000
X60500Y78000
X21500Y52000
X63000Y85000
X28500Y54500
X28500Y52000
X28500Y49500
X67000Y52000
X44250Y70000
X81000Y66000
X78500Y66000
X76000Y66000
X44250Y63000
X25500Y78000
X11959Y66000
X9459Y66000
X6959Y66000
X46750Y63000
X9459Y73000
T7
X60356Y93550
X16669Y95751
X10111Y17844
X12651Y17844
X51296Y4702
X16669Y93211
X58916Y4702
X60356Y96090
T8
X40520Y43000
X37980Y43000
X50520Y43000
X47980Y43000
X54520Y35000
X51980Y35000
X56520Y27000
X53980Y27000
X36520Y35000
X33980Y35000
X34520Y27000
X31980Y27000
X42008Y23106
X44548Y23106
X43278Y25011
T9
X86120Y41910
X86120Y44450
X86120Y46990
X86120Y49530
X86120Y52070
X86120Y54610
X86120Y57150
X86120Y59690
X86120Y62230
X86120Y64770
X86120Y67310
X86120Y69850
X86120Y72390
X86120Y74930
X86120Y77470
X86120Y80010
X86120Y82550
X86120Y85090
X86120Y87630
X86120Y90170
X70880Y41910
X70880Y44450
X70880Y46990
X70880Y49530
X70880Y52070
X70880Y54610
X70880Y57150
X70880Y59690
X70880Y62230
X70880Y64770
X70880Y67310
X70880Y69850
X70880Y72390
X70880Y74930
X70880Y77470
X70880Y80010
X70880Y82550
X70880Y85090
X70880Y87630
X70880Y90170
X21713Y93056
X21713Y95056
X66164Y96409
X64164Y96409
X4656Y11928
X4656Y9928
X71777Y96233
X69777Y96233
X12501Y4231
X14501Y4231
X42768Y4142
X40768Y4142
T10
X24574Y8776
X24574Y3776
X53569Y13316
X58569Y13316
T11
X6096Y37948
X72695Y75590
X73152Y55321
X25165Y45375
X56084Y86866
X53585Y87256
X83421Y9703
X19050Y16916
X13868Y14326
M30