G04 EAGLE Gerber X2 export*
%TF.Part,Single*%
%TF.FileFunction,Soldermask,Top,1*%
%TF.FilePolarity,Positive*%
%TF.GenerationSoftware,Autodesk,EAGLE,9.2.2*%
%TF.CreationDate,2019-03-16T21:44:51Z*%
G75*
%MOMM*%
%FSLAX34Y34*%
%LPD*%
%INSoldermask Top*%
%AMOC8*
5,1,8,0,0,1.08239X$1,22.5*%
G01*
%ADD10P,2.556822X8X202.500000*%
%ADD11R,1.553200X1.553200*%
%ADD12C,1.553200*%
%ADD13R,2.003200X1.803200*%
%ADD14R,1.803200X2.003200*%
%ADD15R,2.603200X2.603200*%
%ADD16C,1.611200*%
%ADD17R,1.611200X1.611200*%
%ADD18C,3.003200*%
%ADD19C,2.153200*%
%ADD20R,3.303200X1.003200*%
%ADD21R,1.473200X2.743200*%
%ADD22P,2.556822X8X22.500000*%
%ADD23P,1.649562X8X22.500000*%
%ADD24R,2.203200X1.803200*%
%ADD25R,1.803200X2.203200*%
%ADD26C,1.511200*%
%ADD27R,2.082800X2.082800*%
%ADD28P,3.467112X8X292.500000*%
%ADD29C,1.203200*%
%ADD30P,3.467112X8X22.500000*%
%ADD31P,3.467112X8X202.500000*%
%ADD32R,1.727200X0.533400*%
%ADD33R,1.473200X1.473200*%
%ADD34R,1.422400X2.438400*%
%ADD35R,3.803200X2.403200*%
%ADD36C,1.503200*%
%ADD37P,1.649562X8X202.500000*%
%ADD38C,2.082800*%
%ADD39C,2.159000*%
%ADD40C,2.082800*%
%ADD41R,2.403200X0.803200*%
%ADD42C,1.346200*%
%ADD43C,0.959600*%


D10*
X267672Y964694D03*
X267672Y928475D03*
D11*
X697770Y962330D03*
D12*
X717770Y962330D03*
D13*
X412595Y872038D03*
X412595Y844038D03*
X450737Y870599D03*
X450737Y842599D03*
D14*
X636299Y897536D03*
X664299Y897536D03*
X639425Y923765D03*
X667425Y923765D03*
D11*
X641639Y964091D03*
D12*
X661639Y964091D03*
D11*
X217134Y950560D03*
D12*
X217134Y930560D03*
D13*
X861632Y96183D03*
X861632Y124183D03*
D15*
X302066Y221866D03*
X346066Y221866D03*
D16*
X603556Y960896D03*
D17*
X603556Y935496D03*
D16*
X166692Y957507D03*
D17*
X166692Y932107D03*
D18*
X850000Y39085D03*
X35000Y37818D03*
D19*
X86750Y218850D02*
X106250Y218850D01*
X106250Y381150D02*
X86750Y381150D01*
X213750Y218850D02*
X233250Y218850D01*
X233250Y381150D02*
X213750Y381150D01*
D20*
X285941Y176872D03*
X285941Y144872D03*
X285941Y122872D03*
X285941Y100872D03*
X338941Y176872D03*
X338941Y144872D03*
X338941Y122872D03*
X338941Y100872D03*
D21*
X506899Y199394D03*
X481499Y199394D03*
X481499Y129394D03*
X506899Y129394D03*
D10*
X216767Y421827D03*
D22*
X263210Y421692D03*
D19*
X778750Y381150D02*
X798250Y381150D01*
X798250Y218850D02*
X778750Y218850D01*
X671250Y381150D02*
X651750Y381150D01*
X651750Y218850D02*
X671250Y218850D01*
D23*
X445478Y231057D03*
X432778Y250107D03*
X420078Y231057D03*
D24*
X440330Y346012D03*
X440330Y374012D03*
X572942Y333354D03*
X572942Y305354D03*
D25*
X543071Y395345D03*
X515071Y395345D03*
X514224Y474884D03*
X486224Y474884D03*
X408047Y470244D03*
X380047Y470244D03*
D24*
X387866Y218297D03*
X387866Y246297D03*
D25*
X507599Y243633D03*
X479599Y243633D03*
X479612Y285242D03*
X507612Y285242D03*
D24*
X544610Y208286D03*
X544610Y236286D03*
X339206Y429029D03*
X339206Y457029D03*
X82949Y510767D03*
X82949Y538767D03*
D25*
X862692Y184359D03*
X834692Y184359D03*
X862517Y153087D03*
X834517Y153087D03*
X773725Y186046D03*
X801725Y186046D03*
D13*
X341487Y962099D03*
X341487Y934099D03*
D26*
X702260Y901700D02*
X715340Y901700D01*
X715340Y876300D02*
X702260Y876300D01*
X702260Y850900D02*
X715340Y850900D01*
X715340Y825500D02*
X702260Y825500D01*
X702260Y800100D02*
X715340Y800100D01*
X715340Y774700D02*
X702260Y774700D01*
X702260Y749300D02*
X715340Y749300D01*
X715340Y723900D02*
X702260Y723900D01*
X702260Y698500D02*
X715340Y698500D01*
X715340Y673100D02*
X702260Y673100D01*
X702260Y647700D02*
X715340Y647700D01*
X715340Y622300D02*
X702260Y622300D01*
X702260Y596900D02*
X715340Y596900D01*
X715340Y571500D02*
X702260Y571500D01*
X702260Y546100D02*
X715340Y546100D01*
X715340Y520700D02*
X702260Y520700D01*
X702260Y495300D02*
X715340Y495300D01*
X715340Y469900D02*
X702260Y469900D01*
X702260Y444500D02*
X715340Y444500D01*
X715340Y419100D02*
X702260Y419100D01*
X854660Y901700D02*
X867740Y901700D01*
X867740Y876300D02*
X854660Y876300D01*
X854660Y850900D02*
X867740Y850900D01*
X867740Y825500D02*
X854660Y825500D01*
X854660Y800100D02*
X867740Y800100D01*
X867740Y774700D02*
X854660Y774700D01*
X854660Y749300D02*
X867740Y749300D01*
X867740Y723900D02*
X854660Y723900D01*
X854660Y698500D02*
X867740Y698500D01*
X867740Y673100D02*
X854660Y673100D01*
X854660Y647700D02*
X867740Y647700D01*
X867740Y622300D02*
X854660Y622300D01*
X854660Y596900D02*
X867740Y596900D01*
X867740Y571500D02*
X854660Y571500D01*
X854660Y546100D02*
X867740Y546100D01*
X867740Y520700D02*
X854660Y520700D01*
X854660Y495300D02*
X867740Y495300D01*
X867740Y469900D02*
X854660Y469900D01*
X854660Y444500D02*
X867740Y444500D01*
X867740Y419100D02*
X854660Y419100D01*
D27*
X760000Y660000D03*
X785000Y660000D03*
X810000Y660000D03*
D28*
X741000Y730000D03*
X829000Y730000D03*
D29*
X785000Y730000D03*
D27*
X285000Y495000D03*
X285000Y520000D03*
X285000Y545000D03*
D30*
X215000Y476000D03*
X215000Y564000D03*
D29*
X215000Y520000D03*
D27*
X605000Y780000D03*
X630000Y780000D03*
X655000Y780000D03*
D28*
X586000Y850000D03*
X674000Y850000D03*
D29*
X630000Y850000D03*
D27*
X600000Y545000D03*
X600000Y520000D03*
X600000Y495000D03*
D31*
X670000Y564000D03*
X670000Y476000D03*
D29*
X670000Y520000D03*
D27*
X417500Y630000D03*
X442500Y630000D03*
X467500Y630000D03*
D28*
X398500Y700000D03*
X486500Y700000D03*
D29*
X442500Y700000D03*
D32*
X808423Y145206D03*
X808423Y150032D03*
X808423Y155112D03*
X808423Y160192D03*
X808423Y165018D03*
X767783Y165018D03*
X767783Y160192D03*
X767783Y155112D03*
X767783Y150032D03*
X767783Y145206D03*
D27*
X69588Y660000D03*
X94588Y660000D03*
X119588Y660000D03*
D28*
X50588Y730000D03*
X138588Y730000D03*
D29*
X94588Y730000D03*
D33*
X537690Y887107D03*
X563090Y887107D03*
D34*
X527613Y913320D03*
X550727Y913320D03*
X573841Y913320D03*
D35*
X550727Y975298D03*
D36*
X300203Y419474D03*
X179936Y419108D03*
X300460Y964978D03*
X300460Y927386D03*
D37*
X405200Y430000D03*
X379800Y430000D03*
X505200Y430000D03*
X479800Y430000D03*
X545200Y350000D03*
X519800Y350000D03*
X565200Y270000D03*
X539800Y270000D03*
D25*
X367462Y393482D03*
X339462Y393482D03*
X350787Y313218D03*
X322787Y313218D03*
D37*
X365200Y350000D03*
X339800Y350000D03*
X345200Y270000D03*
X319800Y270000D03*
D38*
X30000Y430602D02*
X30000Y449398D01*
X55400Y449398D02*
X55400Y430602D01*
X80800Y430602D02*
X80800Y449398D01*
X106200Y449398D02*
X106200Y430602D01*
X131600Y430602D02*
X131600Y449398D01*
D39*
X49887Y799030D02*
X30329Y799030D01*
X30329Y824430D02*
X49887Y824430D01*
X49887Y849830D02*
X30329Y849830D01*
X520329Y799030D02*
X539887Y799030D01*
X539887Y824430D02*
X520329Y824430D01*
X520329Y849830D02*
X539887Y849830D01*
X280908Y739891D02*
X280908Y720333D01*
X255508Y720333D02*
X255508Y739891D01*
X230108Y739891D02*
X230108Y720333D01*
D27*
X230000Y780000D03*
X255000Y780000D03*
X280000Y780000D03*
D28*
X211000Y850000D03*
X299000Y850000D03*
D29*
X255000Y850000D03*
D40*
X475012Y382606D03*
X409988Y382606D03*
X475012Y337394D03*
X409988Y337394D03*
D25*
X193342Y184719D03*
X165342Y184719D03*
D24*
X62093Y185973D03*
X62093Y157973D03*
D11*
X46555Y119279D03*
D12*
X46555Y99279D03*
D16*
X126508Y178437D03*
D17*
X101108Y178437D03*
D11*
X125012Y42305D03*
D12*
X145012Y42305D03*
D13*
X88787Y54753D03*
X88787Y82753D03*
D14*
X123599Y85679D03*
X151599Y85679D03*
D41*
X116899Y139581D03*
X168899Y139581D03*
X116899Y152281D03*
X116899Y126881D03*
X116899Y114181D03*
X168899Y152281D03*
X168899Y126881D03*
X168899Y114181D03*
D42*
X245740Y37760D03*
X245740Y87760D03*
D24*
X213937Y86198D03*
X213937Y58198D03*
D25*
X293606Y36948D03*
X321606Y36948D03*
D11*
X407684Y41418D03*
D12*
X427684Y41418D03*
D40*
X512962Y47018D03*
X589162Y47018D03*
D25*
X574127Y90316D03*
X546127Y90316D03*
D42*
X535693Y133163D03*
X585693Y133163D03*
D24*
X180608Y58405D03*
X180608Y86405D03*
X29055Y185092D03*
X29055Y157092D03*
D38*
X700000Y109398D02*
X700000Y90602D01*
X725400Y90602D02*
X725400Y109398D01*
X750800Y109398D02*
X750800Y90602D01*
X776200Y90602D02*
X776200Y109398D01*
X801600Y109398D02*
X801600Y90602D01*
D18*
X110534Y963497D03*
X772959Y963223D03*
D36*
X398872Y100930D03*
X434417Y100930D03*
D22*
X387296Y179972D03*
X440846Y179972D03*
D43*
X138684Y143256D03*
X190500Y169164D03*
X834215Y97033D03*
X535845Y872562D03*
X560842Y868664D03*
X251652Y453752D03*
X731520Y553212D03*
X726948Y755904D03*
X60960Y379476D03*
M02*
