G04 EAGLE Gerber X2 export*
%TF.Part,Single*%
%TF.FileFunction,Copper,L1,Top,Mixed*%
%TF.FilePolarity,Positive*%
%TF.GenerationSoftware,Autodesk,EAGLE,9.2.0*%
%TF.CreationDate,2018-10-30T13:39:26Z*%
G75*
%MOMM*%
%FSLAX34Y34*%
%LPD*%
%INTop Copper*%
%IPPOS*%
%AMOC8*
5,1,8,0,0,1.08239X$1,22.5*%
G01*
%ADD10C,1.143000*%
%ADD11R,1.350000X1.350000*%
%ADD12C,1.350000*%
%ADD13R,1.500000X1.300000*%
%ADD14R,1.300000X1.500000*%
%ADD15R,1.500000X1.950000*%
%ADD16R,1.300000X1.600000*%
%ADD17C,1.408000*%
%ADD18R,1.408000X1.408000*%
%ADD19R,0.600000X2.200000*%
%ADD20R,2.235200X1.219200*%
%ADD21R,2.200000X3.600000*%
%ADD22R,2.250000X2.250000*%
%ADD23R,2.400000X1.700000*%
%ADD24C,1.879600*%
%ADD25P,1.429621X8X112.500000*%
%ADD26R,1.600000X1.803000*%
%ADD27R,1.803000X1.600000*%
%ADD28C,1.320800*%
%ADD29R,1.422400X0.711200*%
%ADD30R,1.066800X2.184400*%
%ADD31R,0.533400X1.549400*%
%ADD32R,1.000000X1.600000*%
%ADD33R,5.400000X6.200000*%
%ADD34R,1.800000X1.600000*%
%ADD35R,1.600000X2.000000*%
%ADD36R,3.100000X0.800000*%
%ADD37R,1.270000X2.540000*%
%ADD38R,2.000000X1.600000*%
%ADD39P,2.336880X8X22.500000*%
%ADD40C,1.950000*%
%ADD41C,1.879600*%
%ADD42R,2.209800X0.609600*%
%ADD43R,2.400000X2.400000*%
%ADD44R,1.270000X1.270000*%
%ADD45C,0.812800*%
%ADD46P,1.429621X8X292.500000*%
%ADD47C,0.254000*%
%ADD48R,0.635000X1.270000*%
%ADD49R,1.600000X1.800000*%
%ADD50R,2.032000X1.270000*%
%ADD51R,1.270000X2.032000*%
%ADD52C,0.203200*%
%ADD53C,0.604800*%


D10*
X427300Y291875D03*
X427300Y341875D03*
D11*
X837850Y501050D03*
D12*
X817850Y501050D03*
D13*
X665400Y689000D03*
X665400Y708000D03*
D14*
X656200Y741084D03*
X675200Y741084D03*
D10*
X173700Y659750D03*
X173700Y609750D03*
X152200Y815100D03*
X152200Y865100D03*
D11*
X154850Y562250D03*
D12*
X174850Y562250D03*
D11*
X154804Y436179D03*
D12*
X174804Y436179D03*
D11*
X674200Y799900D03*
D12*
X674200Y819900D03*
D11*
X425050Y521000D03*
D12*
X425050Y541000D03*
D11*
X304950Y562850D03*
D12*
X284950Y562850D03*
D11*
X175000Y712400D03*
D12*
X155000Y712400D03*
D10*
X567600Y626600D03*
X567600Y576600D03*
X282100Y707350D03*
X282100Y757350D03*
D15*
X626083Y684750D03*
X626083Y712250D03*
D10*
X438300Y572450D03*
X438300Y622450D03*
D11*
X424850Y802850D03*
D12*
X424850Y782850D03*
D15*
X441180Y709400D03*
X441180Y736900D03*
D16*
X636083Y650600D03*
X616083Y650600D03*
D10*
X178300Y864600D03*
X178300Y814600D03*
D17*
X845300Y119850D03*
D18*
X819900Y119850D03*
D17*
X746300Y448500D03*
D18*
X746300Y423100D03*
D19*
X572850Y902300D03*
X560150Y902300D03*
X547450Y902300D03*
X534750Y902300D03*
X534750Y850300D03*
X547450Y850300D03*
X560150Y850300D03*
X572850Y850300D03*
D20*
X844688Y406336D03*
X844688Y429450D03*
X844688Y452564D03*
D21*
X782710Y429450D03*
D22*
X508750Y850000D03*
X471250Y850000D03*
X508750Y354000D03*
X378750Y850000D03*
X341250Y850000D03*
X378750Y354000D03*
X638750Y850000D03*
X601250Y850000D03*
X638750Y354000D03*
D23*
X626083Y771500D03*
X626083Y734500D03*
D24*
X174100Y760650D03*
X155050Y773350D03*
X174100Y786050D03*
D25*
X304050Y852000D03*
X285000Y839300D03*
X304050Y826600D03*
X174100Y514150D03*
X155050Y501450D03*
X174100Y488750D03*
D24*
X304100Y488300D03*
X285050Y501000D03*
X304100Y513700D03*
D26*
X604930Y627400D03*
X633370Y627400D03*
D27*
X412900Y705446D03*
X412900Y733886D03*
X635551Y822220D03*
X635551Y793780D03*
X209950Y649220D03*
X209950Y620780D03*
D26*
X310320Y896400D03*
X281880Y896400D03*
X178870Y966050D03*
X150430Y966050D03*
D27*
X125200Y821680D03*
X125200Y850120D03*
D26*
X210380Y790550D03*
X238820Y790550D03*
D27*
X245900Y520721D03*
X245900Y492281D03*
X216300Y492281D03*
X216300Y520721D03*
X751304Y594942D03*
X751304Y623382D03*
X94050Y514320D03*
X94050Y485880D03*
D26*
X276680Y790550D03*
X305120Y790550D03*
D27*
X337000Y599220D03*
X337000Y570780D03*
X749793Y496945D03*
X749793Y525385D03*
X751304Y701611D03*
X751304Y730051D03*
D26*
X474145Y307800D03*
X502585Y307800D03*
X374220Y417850D03*
X345780Y417850D03*
D27*
X470550Y705446D03*
X470550Y733886D03*
X385000Y598886D03*
X385000Y570446D03*
D28*
X773396Y635400D02*
X786604Y635400D01*
X786604Y610000D02*
X773396Y610000D01*
X773396Y584600D02*
X786604Y584600D01*
X726604Y584600D02*
X713396Y584600D01*
X713396Y610000D02*
X726604Y610000D01*
X726604Y635400D02*
X713396Y635400D01*
X773396Y530400D02*
X786604Y530400D01*
X786604Y505000D02*
X773396Y505000D01*
X773396Y479600D02*
X786604Y479600D01*
X726604Y479600D02*
X713396Y479600D01*
X713396Y505000D02*
X726604Y505000D01*
X726604Y530400D02*
X713396Y530400D01*
X773396Y740400D02*
X786604Y740400D01*
X786604Y715000D02*
X773396Y715000D01*
X773396Y689600D02*
X786604Y689600D01*
X726604Y689600D02*
X713396Y689600D01*
X713396Y715000D02*
X726604Y715000D01*
X726604Y740400D02*
X713396Y740400D01*
D29*
X590550Y711200D03*
X590550Y698500D03*
X590550Y736600D03*
X501650Y711200D03*
X590550Y685800D03*
X590550Y723900D03*
X590550Y774700D03*
X501650Y762000D03*
X501650Y698500D03*
X590550Y647700D03*
X501650Y647700D03*
X590550Y673100D03*
X501650Y749300D03*
X501650Y736600D03*
X501650Y723900D03*
X501650Y685800D03*
X501650Y673100D03*
X590550Y660400D03*
X501650Y660400D03*
X501650Y800100D03*
X501650Y787400D03*
X501650Y774700D03*
X590550Y812800D03*
X501650Y812800D03*
X590550Y800100D03*
X590550Y787400D03*
X590550Y762000D03*
X590550Y749300D03*
D17*
X177800Y938000D03*
D18*
X177800Y912600D03*
D17*
X152400Y908600D03*
D18*
X152400Y934000D03*
D17*
X281450Y635350D03*
D18*
X281450Y660750D03*
D17*
X307400Y664750D03*
D18*
X307400Y639350D03*
D30*
X634300Y549900D03*
X620300Y505900D03*
X606300Y549900D03*
D27*
X361000Y570446D03*
X361000Y598886D03*
D10*
X412000Y571950D03*
X412000Y621950D03*
D26*
X345780Y474161D03*
X374220Y474161D03*
D10*
X682900Y476600D03*
X682900Y526600D03*
D17*
X542600Y582650D03*
D18*
X542600Y557250D03*
D17*
X541800Y500100D03*
D18*
X541800Y525500D03*
D28*
X713396Y794600D02*
X726604Y794600D01*
X726604Y820000D02*
X713396Y820000D01*
X713396Y845400D02*
X726604Y845400D01*
X773396Y845400D02*
X786604Y845400D01*
X786604Y820000D02*
X773396Y820000D01*
X773396Y794600D02*
X786604Y794600D01*
D22*
X211250Y350000D03*
X248750Y350000D03*
X211250Y846000D03*
D11*
X555100Y438150D03*
D12*
X555100Y418150D03*
D11*
X424675Y395500D03*
D12*
X424675Y375500D03*
D31*
X325200Y156334D03*
X312500Y156334D03*
X299800Y156334D03*
X287100Y156334D03*
X287100Y82166D03*
X299800Y82166D03*
X312500Y82166D03*
X325200Y82166D03*
D25*
X750000Y367300D03*
X750000Y392700D03*
D32*
X791100Y171700D03*
X745500Y171700D03*
D33*
X768300Y98700D03*
D34*
X720800Y97850D03*
X720800Y69850D03*
D35*
X387200Y173150D03*
X359200Y173150D03*
D36*
X481200Y177900D03*
X481200Y209900D03*
X481200Y231900D03*
X481200Y253900D03*
X428200Y177900D03*
X428200Y209900D03*
X428200Y231900D03*
X428200Y253900D03*
D37*
X538100Y160500D03*
X563500Y160500D03*
X563500Y230500D03*
X538100Y230500D03*
D35*
X518850Y69650D03*
X546850Y69650D03*
X546950Y36000D03*
X518950Y36000D03*
D38*
X480200Y97750D03*
X480200Y69750D03*
D39*
X358850Y144200D03*
X391200Y144200D03*
D40*
X40050Y218850D02*
X20550Y218850D01*
X20550Y381150D02*
X40050Y381150D01*
X147550Y218850D02*
X167050Y218850D01*
X167050Y381150D02*
X147550Y381150D01*
X809750Y381150D02*
X829250Y381150D01*
X829250Y218850D02*
X809750Y218850D01*
X702250Y381150D02*
X682750Y381150D01*
X682750Y218850D02*
X702250Y218850D01*
D41*
X687100Y881702D02*
X687100Y900498D01*
X712500Y900498D02*
X712500Y881702D01*
X737900Y881702D02*
X737900Y900498D01*
X763300Y900498D02*
X763300Y881702D01*
X243250Y50848D02*
X243250Y32052D01*
X268650Y32052D02*
X268650Y50848D01*
X294050Y50848D02*
X294050Y32052D01*
X319450Y32052D02*
X319450Y50848D01*
X344850Y50848D02*
X344850Y32052D01*
X370250Y32052D02*
X370250Y50848D01*
D11*
X675750Y95800D03*
D12*
X675750Y75800D03*
D11*
X829450Y89350D03*
D12*
X829450Y69350D03*
D34*
X683400Y414550D03*
X683400Y442550D03*
D17*
X755800Y193200D03*
D18*
X781200Y193200D03*
D17*
X817200Y549400D03*
D18*
X842600Y549400D03*
D22*
X81250Y350000D03*
X118750Y350000D03*
X81250Y846000D03*
D42*
X462788Y446950D03*
X462788Y434250D03*
X462788Y421550D03*
X462788Y408850D03*
X515112Y408850D03*
X515112Y421550D03*
X515112Y434250D03*
X515112Y446950D03*
X462788Y546100D03*
X462788Y533400D03*
X462788Y520700D03*
X462788Y508000D03*
X515112Y508000D03*
X515112Y520700D03*
X515112Y533400D03*
X515112Y546100D03*
D39*
X815150Y174000D03*
X848900Y174000D03*
D43*
X475650Y135000D03*
X431650Y135000D03*
D44*
X780700Y45500D03*
X755300Y45500D03*
D45*
X780700Y45500D01*
D10*
X38650Y538250D03*
X38650Y488250D03*
D46*
X532550Y99900D03*
X551600Y112600D03*
X532550Y125300D03*
D11*
X683550Y564050D03*
D12*
X683550Y584050D03*
D26*
X541170Y605850D03*
X512730Y605850D03*
D27*
X409000Y475585D03*
X409000Y447145D03*
D26*
X374220Y446000D03*
X345780Y446000D03*
D11*
X425350Y673950D03*
D12*
X425350Y653950D03*
D10*
X435100Y483875D03*
X435100Y433875D03*
D26*
X570000Y469000D03*
X541560Y469000D03*
D10*
X567900Y500650D03*
X567900Y550650D03*
D34*
X717000Y424000D03*
X717000Y452000D03*
D11*
X700550Y162750D03*
D12*
X700550Y142750D03*
D26*
X245000Y404000D03*
X216560Y404000D03*
D27*
X468000Y599220D03*
X468000Y570780D03*
D47*
X531000Y628000D02*
X541160Y628000D01*
D48*
X520840Y628000D03*
X531000Y628000D03*
X541160Y628000D03*
D49*
X818000Y146000D03*
X846000Y146000D03*
D40*
X78000Y135000D02*
X78000Y115500D01*
X110000Y115500D02*
X110000Y135000D01*
X142000Y135000D02*
X142000Y115500D01*
X142000Y165000D02*
X142000Y184500D01*
X110000Y184500D02*
X110000Y165000D01*
X78000Y165000D02*
X78000Y184500D01*
D11*
X295000Y248000D03*
D12*
X295000Y228000D03*
D26*
X347780Y320000D03*
X376220Y320000D03*
X217780Y232000D03*
X246220Y232000D03*
X245220Y467000D03*
X216780Y467000D03*
X245220Y441000D03*
X216780Y441000D03*
D11*
X285000Y297000D03*
D12*
X305000Y297000D03*
D11*
X285000Y355000D03*
D12*
X305000Y355000D03*
D49*
X346000Y392000D03*
X374000Y392000D03*
D19*
X298650Y396000D03*
X298650Y448000D03*
X285950Y396000D03*
X311350Y396000D03*
X324050Y396000D03*
X285950Y448000D03*
X311350Y448000D03*
X324050Y448000D03*
D50*
X231000Y692490D03*
X231000Y725510D03*
X94000Y600510D03*
X94000Y567490D03*
D51*
X376510Y511000D03*
X343490Y511000D03*
D50*
X363000Y277510D03*
X363000Y244490D03*
X600000Y306510D03*
X600000Y273490D03*
D52*
X597408Y812800D02*
X591312Y812800D01*
X597408Y812800D02*
X619760Y835152D01*
X619760Y865632D01*
X615696Y869696D01*
X560832Y869696D01*
X548640Y857504D01*
X548640Y851408D01*
X590550Y812800D02*
X591312Y812800D01*
X548640Y851408D02*
X547450Y850300D01*
X701040Y879856D02*
X711200Y890016D01*
X701040Y879856D02*
X701040Y877824D01*
X688848Y865632D01*
X619760Y865632D01*
X711200Y890016D02*
X712500Y891100D01*
X501904Y816864D02*
X501904Y812800D01*
X501904Y816864D02*
X534416Y849376D01*
X501904Y812800D02*
X501650Y812800D01*
X534416Y849376D02*
X534750Y850300D01*
X579120Y890016D02*
X686816Y890016D01*
X579120Y890016D02*
X562864Y873760D01*
X552704Y873760D01*
X536448Y857504D01*
X536448Y851408D01*
X686816Y890016D02*
X687100Y891100D01*
X536448Y851408D02*
X534750Y850300D01*
X591312Y660400D02*
X591312Y652272D01*
X591312Y648208D01*
X590550Y647700D01*
X590550Y660400D02*
X591312Y660400D01*
X591312Y652272D02*
X615696Y652272D01*
X616083Y650600D01*
X631952Y636016D02*
X631952Y627888D01*
X631952Y636016D02*
X617728Y650240D01*
X631952Y627888D02*
X633370Y627400D01*
X617728Y650240D02*
X616083Y650600D01*
X617728Y674624D02*
X591312Y674624D01*
X617728Y674624D02*
X625856Y682752D01*
X591312Y674624D02*
X590550Y673100D01*
X625856Y682752D02*
X626083Y684750D01*
X499872Y674624D02*
X495808Y678688D01*
X493776Y678688D01*
X471424Y701040D01*
X471424Y705104D01*
X499872Y674624D02*
X501650Y673100D01*
X471424Y705104D02*
X470550Y705446D01*
X467360Y709168D02*
X442976Y709168D01*
X467360Y709168D02*
X469392Y707136D01*
X442976Y709168D02*
X441180Y709400D01*
X469392Y707136D02*
X470550Y705446D01*
X636016Y822960D02*
X662432Y822960D01*
X670560Y831088D01*
X676656Y831088D01*
X684784Y822960D01*
X684784Y810768D01*
X674624Y800608D01*
X636016Y822960D02*
X635551Y822220D01*
X674200Y799900D02*
X674624Y800608D01*
X703072Y688848D02*
X719328Y688848D01*
X703072Y688848D02*
X684784Y688848D01*
X666496Y688848D01*
X665400Y689000D01*
X719328Y688848D02*
X720000Y689600D01*
X731520Y701040D02*
X748000Y701040D01*
X749808Y701040D01*
X731520Y701040D02*
X721360Y690880D01*
X749808Y701040D02*
X751304Y701611D01*
X721360Y690880D02*
X720000Y689600D01*
X674624Y780288D02*
X674624Y798576D01*
X674624Y780288D02*
X684784Y770128D01*
X684784Y688848D01*
X674624Y798576D02*
X674200Y799900D01*
X499872Y711200D02*
X493776Y711200D01*
X471424Y733552D01*
X499872Y711200D02*
X501650Y711200D01*
X471424Y733552D02*
X470550Y733886D01*
X591312Y711200D02*
X597408Y717296D01*
X599440Y717296D01*
X601472Y719328D01*
X601472Y727456D01*
X591312Y737616D01*
X591312Y711200D02*
X590550Y711200D01*
X590550Y736600D02*
X591312Y737616D01*
X573024Y851408D02*
X587248Y865632D01*
X613664Y865632D01*
X615696Y863600D01*
X615696Y837184D01*
X597408Y818896D01*
X581152Y818896D01*
X575056Y812800D01*
X575056Y749808D01*
X589280Y735584D01*
X572850Y850300D02*
X573024Y851408D01*
X590550Y736600D02*
X589280Y735584D01*
X536448Y711200D02*
X501904Y711200D01*
X536448Y711200D02*
X575056Y749808D01*
X501904Y711200D02*
X501650Y711200D01*
X642112Y690880D02*
X664464Y690880D01*
X642112Y690880D02*
X633984Y699008D01*
X617728Y699008D01*
X599440Y717296D01*
X664464Y690880D02*
X665400Y689000D01*
X601472Y316992D02*
X601472Y306832D01*
X601472Y316992D02*
X638048Y353568D01*
X601472Y306832D02*
X600000Y306510D01*
X638048Y353568D02*
X638750Y354000D01*
X518160Y353568D02*
X510032Y353568D01*
X518160Y353568D02*
X554736Y316992D01*
X601472Y316992D01*
X510032Y353568D02*
X508750Y354000D01*
X837184Y451104D02*
X843280Y451104D01*
X837184Y451104D02*
X794512Y408432D01*
X770128Y408432D01*
X759968Y418592D02*
X755904Y422656D01*
X759968Y418592D02*
X770128Y408432D01*
X755904Y422656D02*
X755904Y438912D01*
X747776Y447040D01*
X843280Y451104D02*
X844688Y452564D01*
X747776Y447040D02*
X746300Y448500D01*
X737616Y593344D02*
X729488Y593344D01*
X737616Y593344D02*
X749808Y593344D01*
X729488Y593344D02*
X721360Y585216D01*
X749808Y593344D02*
X751304Y594942D01*
X721360Y585216D02*
X720000Y584600D01*
X735584Y495808D02*
X747776Y495808D01*
X735584Y495808D02*
X721360Y481584D01*
X747776Y495808D02*
X749793Y496945D01*
X721360Y481584D02*
X720000Y479600D01*
X751840Y544576D02*
X751840Y593344D01*
X751840Y544576D02*
X762000Y534416D01*
X762000Y510032D01*
X749808Y497840D01*
X751840Y593344D02*
X751304Y594942D01*
X749808Y497840D02*
X749793Y496945D01*
X762000Y868152D02*
X762000Y890016D01*
X762000Y868152D02*
X746968Y853120D01*
X746968Y793288D01*
X796544Y743712D01*
X796544Y672592D01*
X784476Y660524D02*
X764032Y640080D01*
X784476Y660524D02*
X796544Y672592D01*
X764032Y640080D02*
X764032Y607568D01*
X751840Y595376D01*
X762000Y890016D02*
X763300Y891100D01*
X751840Y595376D02*
X751304Y594942D01*
X745744Y455168D02*
X745744Y449072D01*
X745744Y455168D02*
X721360Y479552D01*
X745744Y449072D02*
X746300Y448500D01*
X721360Y479552D02*
X720000Y479600D01*
X720549Y409549D02*
X750925Y409549D01*
X759968Y418592D01*
X402000Y330750D02*
X378750Y354000D01*
X402000Y330750D02*
X402000Y330000D01*
X450000Y330000D01*
X474000Y354000D01*
X508750Y354000D01*
X717000Y413099D02*
X717000Y424000D01*
X717000Y413099D02*
X720549Y409549D01*
X710074Y399074D01*
X680522Y399074D01*
X638750Y357302D01*
X638750Y354000D01*
X784476Y660524D02*
X748000Y697000D01*
X748000Y701040D01*
X629920Y798576D02*
X591312Y798576D01*
X629920Y798576D02*
X633984Y794512D01*
X591312Y798576D02*
X590550Y800100D01*
X633984Y794512D02*
X635551Y793780D01*
X613664Y747776D02*
X591312Y747776D01*
X613664Y747776D02*
X625856Y735584D01*
X591312Y747776D02*
X590550Y749300D01*
X625856Y735584D02*
X626083Y734500D01*
X631952Y739648D02*
X654304Y739648D01*
X631952Y739648D02*
X627888Y735584D01*
X654304Y739648D02*
X656200Y741084D01*
X627888Y735584D02*
X626083Y734500D01*
X617728Y762000D02*
X591312Y762000D01*
X617728Y762000D02*
X625856Y770128D01*
X591312Y762000D02*
X590550Y762000D01*
X625856Y770128D02*
X626083Y771500D01*
X526288Y774192D02*
X501904Y774192D01*
X501650Y774700D01*
X729488Y731520D02*
X749808Y731520D01*
X729488Y731520D02*
X721360Y739648D01*
X749808Y731520D02*
X751304Y730051D01*
X721360Y739648D02*
X720000Y740400D01*
D53*
X526288Y774192D03*
D52*
X508000Y786384D02*
X501904Y786384D01*
X508000Y786384D02*
X514096Y780288D01*
X501904Y786384D02*
X501650Y787400D01*
X725424Y526288D02*
X747776Y526288D01*
X725424Y526288D02*
X721360Y530352D01*
X747776Y526288D02*
X749793Y525385D01*
X721360Y530352D02*
X720000Y530400D01*
D53*
X514096Y780288D03*
D52*
X751840Y633984D02*
X751840Y623824D01*
X501650Y800100D02*
X499872Y800608D01*
X751304Y623382D02*
X751840Y623824D01*
X751840Y633984D02*
X721360Y633984D01*
X720000Y635400D01*
X510900Y800100D02*
X501650Y800100D01*
X510900Y800100D02*
X516000Y795000D01*
D53*
X516000Y795000D03*
D52*
X516128Y749808D02*
X501904Y749808D01*
X516128Y749808D02*
X570992Y804672D01*
X570992Y820928D01*
X599440Y849376D01*
X501904Y749808D02*
X501650Y749300D01*
X599440Y849376D02*
X601250Y850000D01*
X501650Y736600D02*
X499730Y734680D01*
X495776Y734680D01*
X486320Y734680D01*
X483000Y738000D01*
X483000Y748013D01*
X438912Y791544D01*
X438912Y812800D01*
X416560Y835152D01*
X355600Y835152D01*
X341376Y849376D01*
X341250Y850000D01*
X499872Y725424D02*
X501650Y723900D01*
X508254Y730504D01*
X509814Y730504D01*
X493486Y743204D02*
X491998Y744692D01*
X493486Y743204D02*
X511796Y743204D01*
X491998Y757392D02*
X471250Y778140D01*
X491998Y757392D02*
X491998Y744692D01*
X471250Y778140D02*
X471250Y850000D01*
X511796Y732486D02*
X509814Y730504D01*
X511796Y732486D02*
X511796Y743204D01*
X499872Y648208D02*
X451104Y648208D01*
X426720Y672592D01*
X499872Y648208D02*
X501650Y647700D01*
X426720Y672592D02*
X425350Y673950D01*
X568960Y627888D02*
X603504Y627888D01*
X604930Y627400D01*
X568960Y627888D02*
X567600Y626600D01*
X375920Y414528D02*
X375920Y412496D01*
X375920Y414528D02*
X375920Y416560D01*
X374220Y417850D01*
X441000Y406000D02*
X441000Y391000D01*
X441000Y406000D02*
X449528Y414528D01*
X484032Y414528D01*
X489710Y408850D02*
X515112Y408850D01*
X489710Y408850D02*
X484032Y414528D01*
X375920Y414528D02*
X374220Y417850D01*
X411000Y386000D02*
X437000Y386000D01*
X441000Y390000D02*
X441000Y391000D01*
X441000Y390000D02*
X437000Y386000D01*
X382472Y414528D02*
X375920Y414528D01*
X382472Y414528D02*
X411000Y386000D01*
X441000Y355575D02*
X427300Y341875D01*
X441000Y355575D02*
X441000Y391000D01*
X473456Y308864D02*
X474145Y307800D01*
X479552Y233680D02*
X481200Y231900D01*
X497752Y247360D02*
X499240Y248848D01*
X497752Y247360D02*
X496660Y247360D01*
X481200Y231900D01*
X499240Y248848D02*
X499240Y282705D01*
X474145Y307800D01*
X461264Y294640D02*
X430000Y294640D01*
X426720Y294640D01*
X461264Y294640D02*
X473456Y306832D01*
X474145Y307800D01*
X430000Y294575D02*
X427300Y291875D01*
X430000Y294575D02*
X430000Y294640D01*
X469392Y558800D02*
X469392Y568960D01*
X469392Y558800D02*
X477520Y550672D01*
X477520Y530352D01*
X469392Y522224D01*
X463296Y522224D01*
X469392Y568960D02*
X468000Y570780D01*
X463296Y522224D02*
X462788Y520700D01*
X426720Y573024D02*
X412496Y573024D01*
X426720Y573024D02*
X434848Y581152D01*
X457200Y581152D01*
X467360Y570992D01*
X468000Y570780D01*
X403822Y570446D02*
X385000Y570446D01*
X405326Y571950D02*
X412000Y571950D01*
X405326Y571950D02*
X403822Y570446D01*
X412000Y571950D02*
X412000Y572528D01*
X412496Y573024D01*
X463296Y544576D02*
X463296Y534416D01*
X462788Y533400D01*
X463296Y544576D02*
X462788Y546100D01*
X463296Y546608D02*
X438912Y570992D01*
X438300Y572450D01*
X463296Y546608D02*
X462788Y546100D01*
X414528Y666496D02*
X414528Y705104D01*
X414528Y666496D02*
X416560Y664464D01*
X428752Y664464D01*
X436880Y656336D01*
X436880Y623824D01*
X414528Y705104D02*
X412900Y705446D01*
X436880Y623824D02*
X438300Y622450D01*
X282448Y843280D02*
X282448Y896112D01*
X282448Y843280D02*
X284480Y841248D01*
X282448Y896112D02*
X281880Y896400D01*
X284480Y841248D02*
X285000Y839300D01*
X345440Y804672D02*
X424688Y804672D01*
X345440Y804672D02*
X308864Y841248D01*
X286512Y841248D01*
X424688Y804672D02*
X424850Y802850D01*
X286512Y841248D02*
X285000Y839300D01*
X229616Y725424D02*
X188976Y725424D01*
X176784Y713232D01*
X229616Y725424D02*
X231000Y725510D01*
X176784Y713232D02*
X175000Y712400D01*
X302768Y810768D02*
X302768Y824992D01*
X302768Y810768D02*
X288544Y796544D01*
X288544Y780288D01*
X235712Y727456D01*
X231648Y727456D01*
X302768Y824992D02*
X304050Y826600D01*
X231648Y727456D02*
X231000Y725510D01*
X174752Y739648D02*
X174752Y759968D01*
X174752Y739648D02*
X188976Y725424D01*
X174752Y759968D02*
X174100Y760650D01*
X308864Y857504D02*
X308864Y896112D01*
X308864Y857504D02*
X304800Y853440D01*
X308864Y896112D02*
X310320Y896400D01*
X304800Y853440D02*
X304050Y852000D01*
X237744Y851000D02*
X237744Y853440D01*
X237744Y851000D02*
X237744Y792480D01*
X238820Y790550D01*
X302768Y898144D02*
X308864Y898144D01*
X302768Y898144D02*
X292608Y908304D01*
X272288Y908304D01*
X228992Y865008D01*
X308864Y898144D02*
X310320Y896400D01*
X237744Y856256D02*
X228992Y865008D01*
X237744Y856256D02*
X237744Y851000D01*
X178708Y865008D02*
X178300Y864600D01*
X178708Y865008D02*
X228992Y865008D01*
X123952Y820928D02*
X123952Y629920D01*
X105664Y611632D02*
X95504Y601472D01*
X105664Y611632D02*
X123952Y629920D01*
X123952Y820928D02*
X125200Y821680D01*
X95504Y601472D02*
X94000Y600510D01*
X105664Y611632D02*
X154432Y562864D01*
X154850Y562250D01*
X172720Y487680D02*
X156464Y471424D01*
X156464Y436880D01*
X154804Y436179D01*
X270488Y488300D02*
X304100Y488300D01*
X270488Y488300D02*
X255967Y502821D01*
X188522Y502821D02*
X174233Y488532D01*
X188522Y502821D02*
X255967Y502821D01*
X174100Y488750D02*
X174100Y488665D01*
X174233Y488532D01*
X174100Y488750D02*
X172720Y487680D01*
X93472Y487680D02*
X40640Y487680D01*
X93472Y487680D02*
X94050Y485880D01*
X40640Y487680D02*
X38650Y488250D01*
X107696Y499872D02*
X140208Y499872D01*
X142000Y499872D01*
X154432Y499872D01*
X107696Y499872D02*
X95504Y487680D01*
X154432Y499872D02*
X155050Y501450D01*
X95504Y487680D02*
X94050Y485880D01*
X151431Y422460D02*
X219540Y422460D01*
X151431Y422460D02*
X142000Y431891D01*
X142000Y499872D01*
X227100Y371650D02*
X248750Y350000D01*
X227100Y371650D02*
X227100Y414900D01*
X219540Y422460D01*
X304800Y546608D02*
X304800Y560832D01*
X304800Y546608D02*
X286512Y528320D01*
X286512Y501904D01*
X304800Y560832D02*
X304950Y562850D01*
X286512Y501904D02*
X285050Y501000D01*
X296672Y662432D02*
X304800Y662432D01*
X296672Y662432D02*
X282448Y662432D01*
X304800Y662432D02*
X306832Y664464D01*
X282448Y662432D02*
X281450Y660750D01*
X306832Y664464D02*
X307400Y664750D01*
X278384Y792480D02*
X278384Y814832D01*
X300736Y837184D01*
X306832Y837184D01*
X316992Y827024D01*
X316992Y743712D01*
X282448Y709168D01*
X276680Y790550D02*
X278384Y792480D01*
X282448Y709168D02*
X282100Y707350D01*
X282448Y707136D02*
X282448Y662432D01*
X281450Y660750D01*
X282448Y707136D02*
X282100Y707350D01*
X304800Y623824D02*
X304800Y562864D01*
X304800Y623824D02*
X296672Y631952D01*
X296672Y662432D01*
X304800Y562864D02*
X304950Y562850D01*
X304800Y780288D02*
X304800Y790448D01*
X304800Y780288D02*
X282448Y757936D01*
X304800Y790448D02*
X305120Y790550D01*
X282448Y757936D02*
X282100Y757350D01*
X304800Y540512D02*
X304800Y514096D01*
X304800Y540512D02*
X314960Y550672D01*
X314960Y607000D02*
X314960Y631952D01*
X314960Y607000D02*
X314960Y550672D01*
X314960Y631952D02*
X308864Y638048D01*
X304800Y514096D02*
X304100Y513700D01*
X308864Y638048D02*
X307400Y639350D01*
X280416Y719328D02*
X280416Y755904D01*
X280416Y719328D02*
X270256Y709168D01*
X270256Y646176D01*
X280416Y636016D01*
X280416Y755904D02*
X282100Y757350D01*
X280416Y636016D02*
X281450Y635350D01*
X424688Y540512D02*
X425050Y541000D01*
X329220Y607000D02*
X314960Y607000D01*
X329220Y607000D02*
X337000Y599220D01*
X373888Y481584D02*
X373888Y475488D01*
X374220Y474161D01*
X514096Y508000D02*
X515112Y508000D01*
X373888Y481584D02*
X374220Y474161D01*
X514096Y508000D02*
X515112Y508000D01*
X426720Y520192D02*
X425050Y521000D01*
X386080Y481584D02*
X373888Y481584D01*
X386080Y481584D02*
X424688Y520192D01*
X373888Y481584D02*
X374220Y474161D01*
X424688Y520192D02*
X425050Y521000D01*
X480477Y508000D02*
X514096Y508000D01*
X480477Y508000D02*
X474889Y502412D01*
X443638Y502412D01*
X425050Y521000D01*
X374220Y508710D02*
X374220Y474161D01*
X374220Y508710D02*
X376510Y511000D01*
X152400Y865632D02*
X152400Y908304D01*
X152400Y865632D02*
X152200Y865100D01*
X152400Y908304D02*
X152400Y908600D01*
X154432Y912368D02*
X176784Y912368D01*
X154432Y912368D02*
X152400Y910336D01*
X176784Y912368D02*
X177800Y912600D01*
X152400Y910336D02*
X152400Y908600D01*
X361408Y599504D02*
X361000Y598886D01*
X384033Y603504D02*
X385000Y598886D01*
X361000Y598886D01*
X385000Y598886D02*
X385000Y613600D01*
X425350Y653950D01*
X414528Y735584D02*
X414528Y772160D01*
X424688Y782320D01*
X414528Y735584D02*
X412900Y733886D01*
X424688Y782320D02*
X424850Y782850D01*
X514096Y534416D02*
X515112Y533400D01*
X568960Y499872D02*
X568960Y477520D01*
X568960Y469392D01*
X570000Y469000D01*
X568960Y499872D02*
X567900Y500650D01*
X568960Y477520D02*
X682752Y477520D01*
X682900Y476600D01*
X570000Y469000D02*
X568960Y477520D01*
X556768Y455168D02*
X556768Y438912D01*
X556768Y455168D02*
X568960Y467360D01*
X556768Y438912D02*
X555100Y438150D01*
X568960Y467360D02*
X570000Y469000D01*
X566928Y499872D02*
X542544Y524256D01*
X541800Y525500D01*
X566928Y499872D02*
X567900Y500650D01*
X514096Y532384D02*
X508000Y532384D01*
X514096Y532384D02*
X515112Y533400D01*
X516128Y534416D02*
X522224Y534416D01*
X532384Y544576D01*
X532384Y570992D01*
X542544Y581152D01*
X516128Y534416D02*
X515112Y533400D01*
X542544Y581152D02*
X542600Y582650D01*
X463296Y422656D02*
X462788Y421550D01*
X464338Y420000D01*
X492000Y420000D01*
X529401Y418150D02*
X555100Y418150D01*
X529401Y418150D02*
X527213Y415962D01*
X496038Y415962D01*
X492000Y420000D01*
X428752Y477520D02*
X410464Y477520D01*
X428752Y477520D02*
X434848Y483616D01*
X410464Y477520D02*
X409000Y475585D01*
X434848Y483616D02*
X435100Y483875D01*
X430784Y477520D02*
X461264Y447040D01*
X430784Y477520D02*
X428752Y477520D01*
X461264Y447040D02*
X462788Y446950D01*
X436936Y416211D02*
X436936Y407761D01*
X474889Y428662D02*
X476377Y430150D01*
X476377Y438350D01*
X474889Y439838D01*
X468466Y439838D01*
X461264Y447040D01*
X449387Y428662D02*
X436936Y416211D01*
X449387Y428662D02*
X474889Y428662D01*
X436936Y407761D02*
X424675Y395500D01*
X426720Y254000D02*
X428200Y253900D01*
D53*
X396000Y256000D03*
D47*
X424720Y256000D01*
X426720Y254000D01*
D52*
X288544Y81992D02*
X287100Y82166D01*
X288544Y81280D02*
X288544Y46736D01*
X292608Y42672D01*
X288544Y81280D02*
X287100Y82166D01*
X292608Y42672D02*
X294050Y41450D01*
X299800Y82166D02*
X298704Y84024D01*
X479552Y71120D02*
X480200Y69750D01*
X298704Y83312D02*
X292608Y89408D01*
X292608Y91440D01*
X290576Y93472D01*
X282448Y93472D01*
X270256Y81280D01*
X270256Y42672D01*
X299800Y82166D02*
X298704Y83312D01*
X270256Y42672D02*
X268650Y41450D01*
X424688Y69088D02*
X479552Y69088D01*
X424688Y69088D02*
X373888Y18288D01*
X290576Y18288D01*
X268224Y40640D01*
X479552Y69088D02*
X480200Y69750D01*
X268650Y41450D02*
X268224Y40640D01*
X312500Y82166D02*
X312928Y81992D01*
X312928Y81280D02*
X312928Y48768D01*
X319024Y42672D01*
X312928Y81280D02*
X312500Y82166D01*
X319024Y42672D02*
X319450Y41450D01*
X325120Y155144D02*
X325200Y156334D01*
X327152Y156464D02*
X351536Y156464D01*
X353568Y158496D01*
X363728Y158496D01*
X373888Y148336D01*
X373888Y44704D01*
X371856Y42672D01*
X327152Y156464D02*
X325200Y156334D01*
X371856Y42672D02*
X370250Y41450D01*
X388112Y174752D02*
X400304Y174752D01*
X424688Y199136D01*
X722184Y199136D01*
X730010Y206962D01*
X388112Y174752D02*
X387200Y173150D01*
X730010Y206962D02*
X746000Y226000D01*
X746000Y363300D01*
X750000Y367300D01*
X432816Y136144D02*
X431650Y135000D01*
X432816Y121920D02*
X471424Y83312D01*
X432816Y121920D02*
X432816Y134112D01*
X431650Y135000D01*
X729248Y191008D02*
X759968Y221728D01*
X729248Y191008D02*
X467360Y191008D01*
X528320Y123952D02*
X532384Y123952D01*
X528320Y123952D02*
X487680Y83312D01*
X471424Y83312D01*
X532384Y123952D02*
X532550Y125300D01*
X454252Y177900D02*
X428200Y177900D01*
X454252Y177900D02*
X467360Y191008D01*
X759968Y221728D02*
X759968Y382732D01*
X750000Y392700D01*
X432816Y178816D02*
X432816Y136144D01*
X431650Y135000D01*
X428200Y177900D02*
X432816Y178816D01*
X546608Y213360D02*
X562864Y229616D01*
X546608Y213360D02*
X501904Y213360D01*
X495808Y219456D01*
X440944Y219456D01*
X428752Y231648D01*
X562864Y229616D02*
X563500Y230500D01*
X428752Y231648D02*
X428200Y231900D01*
X690880Y343408D02*
X690880Y379984D01*
X690880Y343408D02*
X579120Y231648D01*
X564896Y231648D01*
X690880Y379984D02*
X692500Y381150D01*
X564896Y231648D02*
X563500Y230500D01*
X546850Y69650D02*
X548640Y69088D01*
X550672Y73152D02*
X550672Y111760D01*
X550672Y73152D02*
X548640Y71120D01*
X550672Y111760D02*
X551600Y112600D01*
X548640Y71120D02*
X546850Y69650D01*
X548640Y37690D02*
X546950Y36000D01*
X548640Y37690D02*
X548640Y69088D01*
X312928Y155144D02*
X312500Y156334D01*
X518160Y36576D02*
X518950Y36000D01*
X312928Y146304D02*
X312928Y154432D01*
X312928Y146304D02*
X367792Y91440D01*
X414528Y44704D02*
X510032Y44704D01*
X518160Y36576D01*
X312928Y154432D02*
X312500Y156334D01*
X518160Y36576D02*
X518950Y36000D01*
D53*
X367792Y91440D03*
X414528Y44704D03*
D52*
X325200Y82166D02*
X325120Y84024D01*
X321056Y172720D02*
X357632Y172720D01*
X359200Y173150D01*
X477520Y174752D02*
X477520Y160528D01*
X477520Y136144D01*
X477520Y174752D02*
X479552Y176784D01*
X477520Y136144D02*
X475650Y135000D01*
X479552Y176784D02*
X481200Y177900D01*
X676656Y97536D02*
X719328Y97536D01*
X720800Y97850D01*
X676656Y97536D02*
X675750Y95800D01*
X745744Y172720D02*
X745744Y184912D01*
X753872Y193040D01*
X745744Y172720D02*
X745500Y171700D01*
X753872Y193040D02*
X755800Y193200D01*
X737616Y164592D02*
X721360Y164592D01*
X701040Y164592D01*
X737616Y164592D02*
X743712Y170688D01*
X701040Y164592D02*
X700550Y162750D01*
X743712Y170688D02*
X745500Y171700D01*
X721360Y164592D02*
X721360Y99568D01*
X720800Y97850D01*
X554736Y178816D02*
X548640Y178816D01*
X481584Y178816D01*
X554736Y178816D02*
X561864Y185944D01*
X665075Y185944D01*
X688269Y162750D02*
X700550Y162750D01*
X688269Y162750D02*
X665075Y185944D01*
X481584Y178816D02*
X481200Y177900D01*
X365760Y172720D02*
X359664Y172720D01*
X359200Y173150D01*
X319024Y89408D02*
X325120Y83312D01*
X319024Y89408D02*
X319024Y91440D01*
X312928Y97536D01*
X280416Y97536D01*
X243840Y60960D01*
X243840Y42672D01*
X325200Y82166D02*
X325120Y83312D01*
X243840Y42672D02*
X243250Y41450D01*
X288544Y172720D02*
X321056Y172720D01*
X288544Y172720D02*
X280416Y164592D01*
X280416Y97536D01*
X243840Y40640D02*
X256032Y28448D01*
X256032Y26416D01*
X268224Y14224D01*
X375920Y14224D01*
X420624Y58928D01*
X491744Y58928D01*
X508000Y75184D01*
X508000Y89408D01*
X534416Y115824D01*
X536448Y115824D01*
X548640Y128016D01*
X548640Y178816D01*
X243840Y40640D02*
X243250Y41450D01*
X299800Y156334D02*
X300736Y157176D01*
X300736Y156464D02*
X300736Y160528D01*
X306832Y166624D01*
X316992Y166624D01*
X319024Y164592D01*
X319024Y148336D01*
X323088Y144272D01*
X357632Y144272D01*
X300736Y156464D02*
X299800Y156334D01*
X357632Y144272D02*
X358850Y144200D01*
X481584Y103632D02*
X481584Y99568D01*
X481584Y103632D02*
X536448Y158496D01*
X481584Y99568D02*
X480200Y97750D01*
X536448Y158496D02*
X538100Y160500D01*
X79248Y148336D02*
X79248Y136144D01*
X79248Y148336D02*
X97536Y166624D01*
X97536Y191008D01*
X103632Y197104D01*
X115824Y197104D01*
X125984Y186944D02*
X140208Y172720D01*
X125984Y186944D02*
X115824Y197104D01*
X140208Y172720D02*
X140208Y166624D01*
X79248Y136144D02*
X78000Y135000D01*
X140208Y166624D02*
X142000Y165000D01*
X125984Y186944D02*
X156464Y217424D01*
X157300Y218850D01*
X227327Y218850D01*
X235680Y227203D01*
X235680Y242067D01*
X237168Y243555D01*
X255272Y243555D01*
X260827Y238000D01*
X326155Y238000D02*
X344471Y256316D01*
X326155Y238000D02*
X260827Y238000D01*
X388447Y256316D02*
X393695Y261564D01*
X473536Y261564D01*
X481200Y253900D01*
X388447Y256316D02*
X344471Y256316D01*
X845312Y406400D02*
X859536Y420624D01*
X859536Y479552D01*
X839216Y499872D01*
X845312Y406400D02*
X844688Y406336D01*
X839216Y499872D02*
X837850Y501050D01*
X841248Y503936D02*
X841248Y548640D01*
X841248Y503936D02*
X839216Y501904D01*
X841248Y548640D02*
X842600Y549400D01*
X839216Y501904D02*
X837850Y501050D01*
X790448Y184912D02*
X790448Y172720D01*
X790448Y184912D02*
X782320Y193040D01*
X790448Y172720D02*
X791100Y171700D01*
X782320Y193040D02*
X781200Y193200D01*
X818896Y144272D02*
X818896Y119888D01*
X818896Y144272D02*
X818000Y146000D01*
X818896Y119888D02*
X819900Y119850D01*
X829056Y109728D02*
X829056Y89408D01*
X829056Y109728D02*
X820928Y117856D01*
X829056Y89408D02*
X829450Y89350D01*
X820928Y117856D02*
X819900Y119850D01*
X816864Y146304D02*
X792480Y170688D01*
X791100Y171700D01*
X816864Y146304D02*
X818000Y146000D01*
X843280Y270256D02*
X843280Y404368D01*
X843280Y270256D02*
X782320Y209296D01*
X782320Y195072D01*
X843280Y404368D02*
X844688Y406336D01*
X782320Y195072D02*
X781200Y193200D01*
X286512Y465328D02*
X260096Y465328D01*
X245872Y465328D01*
X292608Y459232D02*
X296672Y455168D01*
X292608Y459232D02*
X286512Y465328D01*
X296672Y455168D02*
X296672Y449072D01*
X245872Y465328D02*
X245220Y467000D01*
X296672Y449072D02*
X298650Y448000D01*
X254000Y491744D02*
X247904Y491744D01*
X245900Y492281D01*
X683400Y414550D02*
X684784Y415624D01*
X745744Y422656D02*
X746300Y423100D01*
X516128Y546608D02*
X515112Y546100D01*
X682752Y415624D02*
X683400Y414550D01*
X514096Y544576D02*
X515112Y546100D01*
X245220Y491601D02*
X245220Y467000D01*
X245220Y491601D02*
X245900Y492281D01*
X514096Y447040D02*
X515112Y446950D01*
X514096Y544576D02*
X508000Y544576D01*
X514096Y544576D02*
X515112Y546100D01*
X508000Y544576D01*
X329184Y523907D02*
X329184Y495808D01*
X337000Y531723D02*
X337000Y556000D01*
X337000Y570780D01*
X337000Y531723D02*
X329184Y523907D01*
X329184Y495808D02*
X292608Y459232D01*
X683400Y414550D02*
X686950Y418100D01*
X341000Y574780D02*
X337000Y570780D01*
X508000Y538988D02*
X515112Y546100D01*
X508000Y538988D02*
X503011Y538988D01*
X501523Y537500D01*
X501523Y516600D02*
X502000Y516123D01*
X502000Y513000D01*
X501523Y516600D02*
X501523Y537500D01*
X503011Y513588D02*
X527213Y513588D01*
X528701Y512100D01*
X528701Y503900D01*
X527213Y502412D01*
X502423Y513000D02*
X502000Y513000D01*
X502423Y513000D02*
X503011Y513588D01*
X515604Y502412D02*
X527213Y502412D01*
X515604Y502412D02*
X514096Y500904D01*
X514096Y447040D01*
X515112Y546100D02*
X515112Y550888D01*
X510000Y556000D01*
D53*
X510000Y556000D03*
X337000Y556000D03*
D52*
X515112Y446950D02*
X527950Y446950D01*
X534000Y453000D01*
D53*
X534000Y453000D03*
D52*
X738492Y423100D02*
X746300Y423100D01*
X738492Y423100D02*
X727052Y434540D01*
X703390Y434540D01*
X683400Y414550D01*
X501904Y686816D02*
X501904Y696976D01*
X501904Y686816D02*
X501650Y685800D01*
X501904Y696976D02*
X501650Y698500D01*
X585216Y690880D02*
X589280Y686816D01*
X585216Y690880D02*
X583184Y690880D01*
X579120Y694944D01*
X579120Y699008D02*
X579120Y715264D01*
X579120Y699008D02*
X579120Y694944D01*
X579120Y715264D02*
X589280Y725424D01*
X589280Y686816D02*
X590550Y685800D01*
X590550Y723900D02*
X589280Y725424D01*
X621792Y666496D02*
X636016Y652272D01*
X621792Y666496D02*
X581152Y666496D01*
X579120Y668528D01*
X579120Y676656D01*
X589280Y686816D01*
X636016Y652272D02*
X636083Y650600D01*
X590550Y685800D02*
X589280Y686816D01*
X579120Y699008D02*
X501904Y699008D01*
X501650Y698500D01*
X447040Y735584D02*
X442976Y735584D01*
X447040Y735584D02*
X465328Y717296D01*
X479552Y717296D01*
X499872Y696976D01*
X442976Y735584D02*
X441180Y736900D01*
X499872Y696976D02*
X501650Y698500D01*
X469392Y508000D02*
X463296Y508000D01*
X564908Y640092D02*
X579120Y654304D01*
X564908Y640092D02*
X560908Y636092D01*
X557408Y632592D01*
X579120Y654304D02*
X579120Y668528D01*
X463296Y508000D02*
X462788Y508000D01*
X517936Y296801D02*
X517936Y250160D01*
X522224Y245872D02*
X536448Y231648D01*
X522224Y245872D02*
X517936Y250160D01*
X517936Y296801D02*
X502585Y307800D01*
X536448Y231648D02*
X538100Y230500D01*
X522224Y245872D02*
X499872Y223520D01*
X579120Y272288D02*
X599440Y272288D01*
X579120Y272288D02*
X538480Y231648D01*
X599440Y272288D02*
X600000Y273490D01*
X538480Y231648D02*
X538100Y230500D01*
X522224Y762000D02*
X501904Y762000D01*
X542544Y782320D02*
X558800Y798576D01*
X542544Y782320D02*
X522224Y762000D01*
X558800Y798576D02*
X558800Y849376D01*
X501904Y762000D02*
X501650Y762000D01*
X558800Y849376D02*
X560150Y850300D01*
X245872Y440944D02*
X245220Y441000D01*
X262224Y443040D02*
X262224Y445040D01*
X247936Y445040D01*
X262224Y443040D02*
X278355Y443040D01*
X247936Y445040D02*
X245872Y442976D01*
X278355Y443040D02*
X285950Y448000D01*
X245872Y442976D02*
X245220Y441000D01*
X666496Y713232D02*
X666496Y731520D01*
X666496Y713232D02*
X666496Y709168D01*
X666496Y731520D02*
X674624Y739648D01*
X666496Y709168D02*
X665400Y708000D01*
X674624Y739648D02*
X675200Y741084D01*
X666496Y713232D02*
X627888Y713232D01*
X626083Y712250D01*
X665400Y708000D02*
X666496Y713232D01*
X373888Y390144D02*
X365760Y390144D01*
X355600Y379984D01*
X337312Y379984D01*
X333248Y384048D02*
X323088Y394208D01*
X333248Y384048D02*
X337312Y379984D01*
X373888Y390144D02*
X374000Y392000D01*
X324050Y396000D02*
X323088Y394208D01*
X536448Y902208D02*
X546608Y902208D01*
X536448Y902208D02*
X534750Y902300D01*
X546608Y902208D02*
X547450Y902300D01*
X560832Y902208D02*
X570992Y902208D01*
X560832Y902208D02*
X560150Y902300D01*
X570992Y902208D02*
X572850Y902300D01*
X558800Y902208D02*
X548640Y902208D01*
X547450Y902300D01*
X558800Y902208D02*
X560150Y902300D01*
X591312Y786384D02*
X591312Y776224D01*
X590550Y774700D01*
X591312Y786384D02*
X590550Y787400D01*
X719328Y503936D02*
X703072Y487680D01*
X684784Y444072D02*
X683400Y442550D01*
X719328Y503936D02*
X720000Y505000D01*
X217424Y231648D02*
X132080Y231648D01*
X79248Y178816D01*
X79248Y166624D01*
X217424Y231648D02*
X217780Y232000D01*
X79248Y166624D02*
X78000Y165000D01*
X216300Y492281D02*
X215392Y493776D01*
X174804Y436179D02*
X174752Y434848D01*
X209296Y792480D02*
X209296Y796544D01*
X180848Y824992D01*
X150368Y824992D01*
X142240Y816864D01*
X142240Y725424D01*
X154432Y713232D01*
X210380Y790550D02*
X209296Y792480D01*
X154432Y713232D02*
X155000Y712400D01*
X585216Y792480D02*
X589280Y788416D01*
X585216Y792480D02*
X583184Y792480D01*
X579120Y796544D01*
X579120Y804672D01*
X581152Y806704D01*
X599440Y806704D01*
X623824Y831088D01*
X623824Y835152D01*
X638048Y849376D01*
X589280Y788416D02*
X590550Y787400D01*
X638048Y849376D02*
X638750Y850000D01*
X95504Y579120D02*
X95504Y568960D01*
X94000Y567490D01*
X820928Y406400D02*
X843280Y428752D01*
X820928Y406400D02*
X820928Y382016D01*
X843280Y428752D02*
X844688Y429450D01*
X820928Y382016D02*
X819500Y381150D01*
X534416Y875792D02*
X534416Y902208D01*
X534416Y875792D02*
X510032Y851408D01*
X534416Y902208D02*
X534750Y902300D01*
X510032Y851408D02*
X508750Y850000D01*
X784352Y463296D02*
X784352Y430784D01*
X784352Y463296D02*
X816864Y495808D01*
X816864Y499872D01*
X784352Y430784D02*
X782710Y429450D01*
X816864Y499872D02*
X817850Y501050D01*
X333248Y384048D02*
X304800Y355600D01*
X305000Y355000D01*
X674624Y741680D02*
X674624Y774192D01*
X664464Y784352D01*
X664464Y810768D01*
X672592Y818896D01*
X674624Y741680D02*
X675200Y741084D01*
X672592Y818896D02*
X674200Y819900D01*
X770128Y97536D02*
X802640Y97536D01*
X829056Y71120D01*
X770128Y97536D02*
X768300Y98700D01*
X829056Y71120D02*
X829450Y69350D01*
X542544Y782320D02*
X518160Y806704D01*
X491744Y806704D01*
X491744Y833120D01*
X508000Y849376D01*
X508750Y850000D01*
X501904Y308864D02*
X502585Y307800D01*
X375920Y390144D02*
X374000Y392000D01*
X638048Y650240D02*
X678688Y650240D01*
X719328Y609600D01*
X638048Y650240D02*
X636083Y650600D01*
X719328Y609600D02*
X720000Y610000D01*
D53*
X95504Y579120D03*
X262224Y443040D03*
D52*
X768300Y98700D02*
X778000Y89000D01*
X780700Y86964D02*
X780700Y45500D01*
X780700Y86964D02*
X770128Y97536D01*
X557408Y632592D02*
X560908Y636092D01*
X216300Y492281D02*
X174752Y450733D01*
X174752Y434848D01*
X363000Y244490D02*
X369050Y238440D01*
X406400Y238440D01*
X444752Y238440D01*
X459672Y223520D01*
X499872Y223520D01*
X469392Y508000D02*
X489712Y528320D01*
X489712Y560832D01*
X530352Y601472D01*
X530352Y615696D01*
X532384Y617728D01*
X536448Y617728D01*
X469392Y508000D02*
X462788Y508000D01*
X406400Y238440D02*
X406400Y237744D01*
D53*
X406400Y237744D03*
D52*
X469302Y402336D02*
X636000Y402336D01*
X469302Y402336D02*
X462788Y408850D01*
X636000Y402336D02*
X676214Y442550D01*
X683400Y442550D01*
X703072Y462222D01*
X703072Y487680D01*
X541160Y622440D02*
X536448Y617728D01*
X541160Y622440D02*
X541160Y632318D01*
X541160Y628000D02*
X552816Y628000D01*
X557408Y632592D01*
X541160Y632318D02*
X541160Y628000D01*
X683400Y442550D02*
X707550Y442550D01*
X717000Y452000D01*
X287100Y156334D02*
X286512Y157176D01*
X562864Y160528D02*
X562864Y178816D01*
X562864Y160528D02*
X563500Y160500D01*
X680720Y71120D02*
X719328Y71120D01*
X680720Y71120D02*
X676656Y75184D01*
X719328Y71120D02*
X720800Y69850D01*
X676656Y75184D02*
X675750Y75800D01*
D53*
X562864Y178816D03*
D52*
X730950Y69850D02*
X755300Y45500D01*
X730950Y69850D02*
X720800Y69850D01*
X520192Y71120D02*
X520192Y87376D01*
X532384Y99568D01*
X520192Y71120D02*
X518850Y69650D01*
X532384Y99568D02*
X532550Y99900D01*
X288544Y134112D02*
X288544Y154432D01*
X288544Y134112D02*
X343408Y79248D01*
X343408Y42672D01*
X288544Y154432D02*
X287100Y156334D01*
X343408Y42672D02*
X344850Y41450D01*
X93472Y516128D02*
X60960Y516128D01*
X40640Y536448D01*
X93472Y516128D02*
X94050Y514320D01*
X40640Y536448D02*
X38650Y538250D01*
X178816Y520192D02*
X215392Y520192D01*
X178816Y520192D02*
X174752Y516128D01*
X215392Y520192D02*
X216300Y520721D01*
X174752Y516128D02*
X174100Y514150D01*
X256032Y560832D02*
X284480Y560832D01*
X256032Y560832D02*
X217424Y522224D01*
X284480Y560832D02*
X284950Y562850D01*
X217424Y522224D02*
X216300Y520721D01*
X172720Y514096D02*
X95504Y514096D01*
X94050Y514320D01*
X172720Y514096D02*
X174100Y514150D01*
X347472Y416560D02*
X347472Y410464D01*
X347472Y392176D01*
X346000Y392000D01*
X347472Y416560D02*
X345780Y417850D01*
X298704Y402336D02*
X298704Y396240D01*
X298704Y402336D02*
X306832Y410464D01*
X316992Y410464D02*
X347472Y410464D01*
X316992Y410464D02*
X306832Y410464D01*
X298704Y396240D02*
X298650Y396000D01*
X347472Y410464D02*
X345780Y417850D01*
X321056Y286512D02*
X320000Y286512D01*
X294640Y286512D01*
X286512Y312928D02*
X286512Y353568D01*
X286512Y312928D02*
X294640Y304800D01*
X294640Y286512D01*
X286512Y353568D02*
X285000Y355000D01*
X316992Y384048D02*
X316992Y410464D01*
X316992Y384048D02*
X286512Y353568D01*
X285000Y355000D01*
X347472Y447040D02*
X347472Y473456D01*
X347472Y447040D02*
X345780Y446000D01*
X347472Y473456D02*
X345780Y474161D01*
X345440Y475488D02*
X339344Y481584D01*
X345440Y475488D02*
X345780Y474161D01*
X312928Y455168D02*
X312928Y449072D01*
X312928Y455168D02*
X339344Y481584D01*
X312928Y449072D02*
X311350Y448000D01*
X345780Y474161D02*
X339344Y481584D01*
X410464Y621000D02*
X410464Y621792D01*
X410464Y621000D02*
X410464Y617728D01*
X361000Y570446D02*
X354797Y574595D01*
X410464Y621792D02*
X412000Y621950D01*
X428752Y599440D02*
X467360Y599440D01*
X428752Y599440D02*
X410464Y617728D01*
X467360Y599440D02*
X468000Y599220D01*
X412000Y621950D02*
X410464Y617728D01*
X310896Y447040D02*
X310896Y440944D01*
X310896Y447040D02*
X311350Y448000D01*
X468000Y599220D02*
X468220Y599440D01*
X468000Y599220D02*
X470220Y599220D01*
X499000Y628000D02*
X520840Y628000D01*
X499000Y628000D02*
X470220Y599220D01*
X350000Y286512D02*
X320000Y286512D01*
X350000Y286512D02*
X353998Y286512D01*
X363000Y277510D01*
X350000Y286512D02*
X350000Y317780D01*
X347780Y320000D01*
X351536Y560982D02*
X361000Y570446D01*
X369000Y578446D01*
X369000Y584000D01*
X406000Y621000D02*
X410464Y621000D01*
X396555Y589834D02*
X395067Y588346D01*
X373346Y588346D02*
X369000Y584000D01*
X396555Y611555D02*
X406000Y621000D01*
X395067Y588346D02*
X373346Y588346D01*
X396555Y589834D02*
X396555Y611555D01*
X345780Y446000D02*
X345780Y417850D01*
X341326Y508328D02*
X341326Y511634D01*
X343490Y511000D02*
X351536Y519046D01*
X351536Y560982D01*
X345780Y503873D02*
X345780Y474161D01*
X345780Y503873D02*
X341326Y508328D01*
X343490Y511000D02*
X342856Y511634D01*
X341326Y511634D01*
X847344Y173752D02*
X847344Y146304D01*
X846000Y146000D01*
X847344Y173752D02*
X848900Y174000D01*
X375920Y447040D02*
X374220Y446000D01*
X375920Y447040D02*
X408432Y447040D01*
X375920Y447040D02*
X374220Y446000D01*
X408432Y447040D02*
X409000Y447145D01*
X436880Y434848D02*
X461264Y434848D01*
X462788Y434250D01*
X436880Y434848D02*
X435100Y433875D01*
X422656Y447040D02*
X410464Y447040D01*
X422656Y447040D02*
X434848Y434848D01*
X410464Y447040D02*
X409000Y447145D01*
X434848Y434848D02*
X435100Y433875D01*
X621792Y505968D02*
X662432Y505968D01*
X682752Y526288D01*
X621792Y505968D02*
X620300Y505900D01*
X682752Y526288D02*
X682900Y526600D01*
X566928Y550672D02*
X550672Y550672D01*
X548640Y552704D02*
X544576Y556768D01*
X548640Y552704D02*
X550672Y550672D01*
X566928Y550672D02*
X567900Y550650D01*
X544576Y556768D02*
X542600Y557250D01*
X542544Y499872D02*
X542544Y469392D01*
X541560Y469000D01*
X542544Y499872D02*
X541800Y500100D01*
X516128Y520192D02*
X515112Y520700D01*
X611632Y505968D02*
X619760Y505968D01*
X611632Y505968D02*
X568960Y548640D01*
X619760Y505968D02*
X620300Y505900D01*
X568960Y548640D02*
X567900Y550650D01*
X542600Y546664D02*
X542600Y557250D01*
X542600Y546664D02*
X541076Y546664D01*
X522224Y527812D02*
X515112Y520700D01*
X522224Y527812D02*
X527213Y527812D01*
X528701Y529300D01*
X528701Y534289D01*
X541076Y546664D01*
X541013Y514013D02*
X541800Y513225D01*
X541013Y514013D02*
X539105Y515920D01*
X533708Y515920D01*
X532220Y517408D01*
X532220Y522805D01*
X527213Y527812D01*
X541800Y513225D02*
X541800Y500100D01*
X541800Y513225D02*
X541013Y514013D01*
X178816Y938784D02*
X178816Y965200D01*
X178870Y966050D01*
X178816Y938784D02*
X177800Y938000D01*
X290576Y936752D02*
X337664Y889664D01*
X339344Y887984D01*
X290576Y936752D02*
X178816Y936752D01*
X177800Y938000D01*
X337664Y889664D02*
X338013Y889664D01*
X339693Y887984D01*
X490984Y887984D01*
X519432Y916432D01*
X764252Y849188D02*
X764252Y841612D01*
X780000Y825864D02*
X780000Y820000D01*
X780000Y825864D02*
X764252Y841612D01*
X764252Y849188D02*
X775238Y860174D01*
X775238Y905443D01*
X764249Y916432D02*
X519432Y916432D01*
X764249Y916432D02*
X775238Y905443D01*
X156464Y814832D02*
X152400Y814832D01*
X156464Y814832D02*
X176784Y814832D01*
X178300Y814600D01*
X152400Y814832D02*
X152200Y815100D01*
X156464Y814832D02*
X156464Y774192D01*
X156464Y814832D02*
X152200Y815100D01*
X156464Y774192D02*
X155050Y773350D01*
X182880Y650240D02*
X209296Y650240D01*
X182880Y650240D02*
X174752Y658368D01*
X209296Y650240D02*
X209950Y649220D01*
X174752Y658368D02*
X173700Y659750D01*
X229616Y668528D02*
X229616Y690880D01*
X229616Y668528D02*
X211328Y650240D01*
X229616Y690880D02*
X231000Y692490D01*
X211328Y650240D02*
X209950Y649220D01*
X156464Y725424D02*
X156464Y772160D01*
X156464Y725424D02*
X164592Y717296D01*
X164592Y668528D01*
X172720Y660400D01*
X156464Y772160D02*
X155050Y773350D01*
X172720Y660400D02*
X173700Y659750D01*
X182880Y619760D02*
X209296Y619760D01*
X182880Y619760D02*
X174752Y611632D01*
X209296Y619760D02*
X209950Y620780D01*
X174752Y611632D02*
X173700Y609750D01*
X247904Y522224D02*
X258064Y522224D01*
X294640Y558800D01*
X294640Y566928D01*
X241808Y619760D01*
X211328Y619760D01*
X247904Y522224D02*
X245900Y520721D01*
X211328Y619760D02*
X209950Y620780D01*
X174752Y609600D02*
X174752Y562864D01*
X174850Y562250D01*
X174752Y609600D02*
X173700Y609750D01*
X152400Y934720D02*
X152400Y965200D01*
X150430Y966050D01*
X152400Y934720D02*
X152400Y934000D01*
X152400Y932688D01*
X505968Y920496D02*
X778000Y920496D01*
X505968Y920496D02*
X477520Y892048D01*
X341376Y892048D01*
X254000Y979424D01*
X164592Y979424D01*
X151218Y966050D02*
X150430Y966050D01*
X151218Y966050D02*
X164592Y979424D01*
X778000Y920496D02*
X780000Y918496D01*
X780000Y845400D01*
X660688Y607280D02*
X682752Y585216D01*
X683550Y584050D01*
X660688Y607280D02*
X542600Y607280D01*
X541170Y605850D01*
X607568Y550672D02*
X613664Y550672D01*
X627888Y564896D01*
X682752Y564896D01*
X607568Y550672D02*
X606300Y549900D01*
X682752Y564896D02*
X683550Y564050D01*
X207264Y849376D02*
X125984Y849376D01*
X207264Y849376D02*
X209296Y847344D01*
X125984Y849376D02*
X125200Y850120D01*
X209296Y847344D02*
X211250Y846000D01*
X258209Y390791D02*
X262128Y390144D01*
X258209Y390791D02*
X245000Y404000D01*
X262128Y390144D02*
X265000Y387272D01*
X265000Y385000D01*
D53*
X265000Y385000D03*
D52*
X81280Y845312D02*
X81250Y846000D01*
X216560Y404000D02*
X212956Y400396D01*
X114830Y400396D01*
X30395Y484831D01*
X30395Y541669D01*
X81250Y592524D02*
X81250Y846000D01*
X81250Y592524D02*
X30395Y541669D01*
X511790Y606790D02*
X512730Y605850D01*
X511790Y606790D02*
X509730Y608850D01*
X531000Y623000D02*
X531000Y628000D01*
X531000Y623000D02*
X513850Y605850D01*
X512730Y605850D01*
X110616Y135000D02*
X110000Y135000D01*
X110000Y125000D02*
X117000Y118000D01*
X110000Y125000D02*
X110000Y135000D01*
X117000Y118000D02*
X134000Y101000D01*
X154000Y101000D01*
X262900Y209900D01*
X428200Y209900D01*
X150368Y136144D02*
X142240Y136144D01*
X150368Y136144D02*
X245872Y231648D01*
X142240Y136144D02*
X142000Y135000D01*
X245872Y231648D02*
X246220Y232000D01*
X250220Y228000D01*
X295000Y228000D01*
X451104Y209296D02*
X479552Y209296D01*
X451104Y209296D02*
X445008Y203200D01*
X268088Y203200D01*
X159488Y94600D01*
X112664Y94600D01*
X97536Y109728D01*
X97536Y152400D01*
X109728Y164592D01*
X479552Y209296D02*
X481200Y209900D01*
X110000Y165000D02*
X109728Y164592D01*
X217424Y442976D02*
X217424Y465328D01*
X217424Y442976D02*
X216780Y441000D01*
X217424Y465328D02*
X216780Y467000D01*
X310896Y394208D02*
X310896Y390144D01*
X286512Y365760D01*
X278384Y365760D01*
X274320Y361696D01*
X274320Y308864D01*
X284480Y298704D01*
X310896Y394208D02*
X311350Y396000D01*
X284480Y298704D02*
X285000Y297000D01*
X243840Y369824D02*
X233680Y379984D01*
X243840Y369824D02*
X266192Y369824D01*
X274320Y361696D01*
X233680Y379984D02*
X233680Y424100D01*
X216780Y441000D01*
X340788Y267380D02*
X376380Y267380D01*
X321408Y248000D02*
X295000Y248000D01*
X321408Y248000D02*
X340788Y267380D01*
X516128Y428752D02*
X516128Y432816D01*
X516128Y428752D02*
X516128Y422656D01*
X515112Y421550D01*
X516128Y432816D02*
X515112Y434250D01*
X375920Y321056D02*
X376220Y320000D01*
X514096Y434848D02*
X515112Y434250D01*
X376380Y319840D02*
X376380Y267380D01*
X376380Y319840D02*
X376220Y320000D01*
X516000Y320000D01*
X528000Y332000D01*
D53*
X528000Y332000D03*
X590000Y413000D03*
D52*
X551252Y427440D02*
X546468Y422656D01*
X516128Y422656D01*
X575560Y427440D02*
X590000Y413000D01*
X575560Y427440D02*
X551252Y427440D01*
X601472Y534416D02*
X568960Y566928D01*
X692912Y528320D02*
X692912Y473456D01*
X678688Y459232D01*
X568960Y566928D02*
X568960Y575240D01*
X567600Y576600D01*
X636232Y459232D02*
X590000Y413000D01*
X636232Y459232D02*
X678688Y459232D01*
X679042Y534416D02*
X679481Y534855D01*
X686377Y534855D01*
X692912Y528320D01*
X679042Y534416D02*
X601472Y534416D01*
M02*
