G04 EAGLE Gerber X2 export*
%TF.Part,Single*%
%TF.FileFunction,Copper,L2,Bot,Mixed*%
%TF.FilePolarity,Positive*%
%TF.GenerationSoftware,Autodesk,EAGLE,9.2.0*%
%TF.CreationDate,2018-10-30T13:39:26Z*%
G75*
%MOMM*%
%FSLAX34Y34*%
%LPD*%
%INBottom Copper*%
%IPPOS*%
%AMOC8*
5,1,8,0,0,1.08239X$1,22.5*%
G01*
%ADD10C,1.143000*%
%ADD11R,1.350000X1.350000*%
%ADD12C,1.350000*%
%ADD13C,1.408000*%
%ADD14R,1.408000X1.408000*%
%ADD15R,2.250000X2.250000*%
%ADD16C,1.879600*%
%ADD17P,1.429621X8X112.500000*%
%ADD18C,1.320800*%
%ADD19P,2.336880X8X22.500000*%
%ADD20C,1.950000*%
%ADD21C,1.879600*%
%ADD22R,2.540000X5.080000*%
%ADD23P,1.429621X8X292.500000*%
%ADD24C,0.203200*%
%ADD25C,0.604800*%
%ADD26C,0.254000*%

G36*
X217697Y9132D02*
X217697Y9132D01*
X217755Y9134D01*
X217816Y9158D01*
X217880Y9172D01*
X217930Y9202D01*
X217984Y9223D01*
X218035Y9264D01*
X218091Y9298D01*
X218129Y9342D01*
X218174Y9379D01*
X218208Y9435D01*
X218251Y9485D01*
X218273Y9539D01*
X218303Y9589D01*
X218318Y9652D01*
X218343Y9713D01*
X218352Y9796D01*
X218360Y9828D01*
X218358Y9847D01*
X218361Y9880D01*
X218361Y146985D01*
X273615Y202239D01*
X711000Y202239D01*
X711090Y202254D01*
X711181Y202261D01*
X711211Y202273D01*
X711243Y202279D01*
X711323Y202321D01*
X711407Y202357D01*
X711439Y202383D01*
X711460Y202394D01*
X711482Y202417D01*
X711538Y202462D01*
X730788Y221712D01*
X730841Y221786D01*
X730901Y221855D01*
X730913Y221885D01*
X730932Y221911D01*
X730959Y221998D01*
X730993Y222083D01*
X730997Y222124D01*
X731004Y222147D01*
X731003Y222179D01*
X731011Y222250D01*
X731011Y405639D01*
X751400Y405639D01*
X751490Y405654D01*
X751581Y405661D01*
X751611Y405673D01*
X751643Y405679D01*
X751723Y405721D01*
X751807Y405757D01*
X751839Y405783D01*
X751860Y405794D01*
X751882Y405817D01*
X751938Y405862D01*
X752307Y406230D01*
X773939Y405659D01*
X773939Y202526D01*
X773942Y202506D01*
X773940Y202487D01*
X773962Y202385D01*
X773979Y202283D01*
X773988Y202266D01*
X773992Y202246D01*
X774045Y202157D01*
X774094Y202066D01*
X774108Y202052D01*
X774118Y202035D01*
X774197Y201968D01*
X774272Y201896D01*
X774290Y201888D01*
X774305Y201875D01*
X774401Y201836D01*
X774495Y201793D01*
X774515Y201791D01*
X774533Y201783D01*
X774700Y201765D01*
X788872Y201765D01*
X789765Y200872D01*
X789765Y185528D01*
X788872Y184635D01*
X774700Y184635D01*
X774680Y184632D01*
X774661Y184634D01*
X774559Y184612D01*
X774457Y184596D01*
X774440Y184586D01*
X774420Y184582D01*
X774331Y184529D01*
X774240Y184480D01*
X774226Y184466D01*
X774209Y184456D01*
X774142Y184377D01*
X774071Y184302D01*
X774062Y184284D01*
X774049Y184269D01*
X774010Y184173D01*
X773967Y184079D01*
X773965Y184059D01*
X773957Y184041D01*
X773939Y183874D01*
X773939Y27068D01*
X773949Y27003D01*
X773950Y26938D01*
X773969Y26883D01*
X773979Y26825D01*
X774009Y26768D01*
X774030Y26706D01*
X774066Y26659D01*
X774094Y26608D01*
X774141Y26563D01*
X774181Y26511D01*
X774229Y26479D01*
X774272Y26438D01*
X774331Y26411D01*
X774385Y26375D01*
X774442Y26359D01*
X774495Y26335D01*
X774560Y26327D01*
X774623Y26310D01*
X774707Y26311D01*
X774739Y26308D01*
X774758Y26312D01*
X774790Y26312D01*
X844058Y34598D01*
X844152Y34625D01*
X844248Y34645D01*
X844270Y34659D01*
X844295Y34666D01*
X844375Y34721D01*
X844459Y34772D01*
X844476Y34791D01*
X844497Y34806D01*
X844555Y34884D01*
X844619Y34959D01*
X844628Y34982D01*
X844644Y35003D01*
X844674Y35096D01*
X844711Y35187D01*
X844714Y35219D01*
X844720Y35237D01*
X844720Y35270D01*
X844729Y35353D01*
X844729Y57183D01*
X847817Y60271D01*
X860968Y60271D01*
X860988Y60274D01*
X861007Y60272D01*
X861109Y60294D01*
X861211Y60310D01*
X861228Y60320D01*
X861248Y60324D01*
X861337Y60377D01*
X861428Y60426D01*
X861442Y60440D01*
X861459Y60450D01*
X861526Y60529D01*
X861598Y60604D01*
X861606Y60622D01*
X861619Y60637D01*
X861658Y60733D01*
X861701Y60827D01*
X861703Y60847D01*
X861711Y60865D01*
X861729Y61032D01*
X861729Y167569D01*
X861718Y167639D01*
X861716Y167711D01*
X861698Y167760D01*
X861690Y167811D01*
X861656Y167875D01*
X861631Y167942D01*
X861599Y167983D01*
X861574Y168029D01*
X861522Y168078D01*
X861478Y168134D01*
X861434Y168162D01*
X861396Y168198D01*
X861331Y168228D01*
X861271Y168267D01*
X861220Y168280D01*
X861173Y168302D01*
X861102Y168310D01*
X861032Y168327D01*
X860980Y168323D01*
X860929Y168329D01*
X860858Y168314D01*
X860787Y168308D01*
X860739Y168288D01*
X860688Y168277D01*
X860627Y168240D01*
X860561Y168212D01*
X860505Y168167D01*
X860477Y168151D01*
X860462Y168133D01*
X860430Y168107D01*
X854003Y161680D01*
X843797Y161680D01*
X836580Y168897D01*
X836580Y179103D01*
X843031Y185553D01*
X843057Y185591D01*
X843091Y185622D01*
X843129Y185690D01*
X843174Y185753D01*
X843188Y185797D01*
X843210Y185837D01*
X843224Y185914D01*
X843246Y185988D01*
X843245Y186034D01*
X843253Y186079D01*
X843242Y186156D01*
X843240Y186234D01*
X843224Y186277D01*
X843218Y186322D01*
X843182Y186392D01*
X843156Y186465D01*
X843127Y186501D01*
X843106Y186542D01*
X843051Y186596D01*
X843002Y186657D01*
X842963Y186682D01*
X842930Y186714D01*
X842811Y186780D01*
X842795Y186790D01*
X842790Y186791D01*
X842784Y186795D01*
X842052Y187098D01*
X839098Y190052D01*
X837499Y193911D01*
X837499Y198089D01*
X839098Y201948D01*
X842052Y204902D01*
X845911Y206501D01*
X850089Y206501D01*
X853948Y204902D01*
X856902Y201948D01*
X858501Y198089D01*
X858501Y193911D01*
X856902Y190052D01*
X854125Y187275D01*
X854113Y187258D01*
X854098Y187246D01*
X854042Y187159D01*
X853981Y187075D01*
X853975Y187056D01*
X853965Y187039D01*
X853939Y186939D01*
X853909Y186840D01*
X853909Y186820D01*
X853905Y186800D01*
X853913Y186697D01*
X853915Y186594D01*
X853922Y186575D01*
X853924Y186555D01*
X853964Y186460D01*
X854000Y186363D01*
X854012Y186347D01*
X854020Y186329D01*
X854125Y186198D01*
X860430Y179893D01*
X860488Y179851D01*
X860540Y179802D01*
X860587Y179780D01*
X860629Y179749D01*
X860698Y179728D01*
X860763Y179698D01*
X860815Y179692D01*
X860865Y179677D01*
X860936Y179679D01*
X861007Y179671D01*
X861058Y179682D01*
X861110Y179683D01*
X861178Y179708D01*
X861248Y179723D01*
X861293Y179750D01*
X861341Y179768D01*
X861397Y179813D01*
X861459Y179849D01*
X861493Y179889D01*
X861533Y179922D01*
X861572Y179982D01*
X861619Y180036D01*
X861638Y180085D01*
X861666Y180129D01*
X861684Y180198D01*
X861711Y180265D01*
X861719Y180336D01*
X861727Y180367D01*
X861725Y180390D01*
X861729Y180431D01*
X861729Y813968D01*
X861726Y813988D01*
X861728Y814007D01*
X861706Y814109D01*
X861690Y814211D01*
X861680Y814228D01*
X861676Y814248D01*
X861623Y814337D01*
X861574Y814428D01*
X861560Y814442D01*
X861550Y814459D01*
X861471Y814526D01*
X861396Y814598D01*
X861378Y814606D01*
X861363Y814619D01*
X861267Y814658D01*
X861173Y814701D01*
X861153Y814703D01*
X861135Y814711D01*
X860968Y814729D01*
X797817Y814729D01*
X795371Y817175D01*
X795334Y817201D01*
X795303Y817235D01*
X795235Y817273D01*
X795172Y817318D01*
X795128Y817332D01*
X795088Y817354D01*
X795011Y817368D01*
X794937Y817391D01*
X794891Y817389D01*
X794846Y817397D01*
X794769Y817386D01*
X794691Y817384D01*
X794648Y817368D01*
X794602Y817362D01*
X794533Y817326D01*
X794460Y817300D01*
X794424Y817271D01*
X794383Y817250D01*
X794328Y817195D01*
X794268Y817146D01*
X794243Y817107D01*
X794211Y817075D01*
X794145Y816955D01*
X794135Y816939D01*
X794133Y816934D01*
X794130Y816928D01*
X793495Y815395D01*
X791209Y813109D01*
X788221Y811871D01*
X774742Y811871D01*
X774672Y811860D01*
X774600Y811858D01*
X774551Y811840D01*
X774500Y811832D01*
X774436Y811798D01*
X774369Y811773D01*
X774328Y811741D01*
X774282Y811716D01*
X774233Y811664D01*
X774177Y811620D01*
X774149Y811576D01*
X774113Y811538D01*
X774083Y811473D01*
X774044Y811413D01*
X774031Y811362D01*
X774009Y811315D01*
X774001Y811244D01*
X773984Y811174D01*
X773988Y811122D01*
X773982Y811071D01*
X773998Y811000D01*
X774003Y810929D01*
X774023Y810881D01*
X774035Y810830D01*
X774071Y810769D01*
X774099Y810703D01*
X774144Y810647D01*
X774161Y810619D01*
X774178Y810604D01*
X774204Y810572D01*
X781824Y802952D01*
X781898Y802899D01*
X781968Y802839D01*
X781998Y802827D01*
X782024Y802808D01*
X782111Y802781D01*
X782196Y802747D01*
X782237Y802743D01*
X782259Y802736D01*
X782291Y802737D01*
X782363Y802729D01*
X788221Y802729D01*
X791209Y801491D01*
X793495Y799205D01*
X794733Y796217D01*
X794733Y792983D01*
X793495Y789995D01*
X791209Y787709D01*
X788221Y786471D01*
X771779Y786471D01*
X768791Y787709D01*
X766505Y789995D01*
X765267Y792983D01*
X765267Y796217D01*
X766505Y799205D01*
X768791Y801491D01*
X771890Y802775D01*
X771929Y802799D01*
X771972Y802814D01*
X772033Y802863D01*
X772099Y802904D01*
X772128Y802940D01*
X772164Y802968D01*
X772206Y803034D01*
X772256Y803094D01*
X772272Y803136D01*
X772297Y803175D01*
X772316Y803251D01*
X772344Y803323D01*
X772346Y803369D01*
X772357Y803414D01*
X772351Y803491D01*
X772354Y803569D01*
X772341Y803613D01*
X772338Y803659D01*
X772307Y803730D01*
X772286Y803805D01*
X772259Y803843D01*
X772241Y803885D01*
X772156Y803992D01*
X772145Y804007D01*
X772141Y804010D01*
X772137Y804016D01*
X761203Y814950D01*
X761203Y825050D01*
X772137Y835984D01*
X772163Y836021D01*
X772197Y836052D01*
X772235Y836121D01*
X772280Y836184D01*
X772294Y836227D01*
X772316Y836268D01*
X772330Y836344D01*
X772353Y836419D01*
X772351Y836465D01*
X772360Y836510D01*
X772348Y836587D01*
X772346Y836665D01*
X772330Y836708D01*
X772324Y836753D01*
X772289Y836822D01*
X772262Y836896D01*
X772233Y836931D01*
X772212Y836972D01*
X772157Y837027D01*
X772108Y837088D01*
X772069Y837112D01*
X772037Y837145D01*
X771917Y837211D01*
X771901Y837221D01*
X771896Y837222D01*
X771890Y837225D01*
X768791Y838509D01*
X766505Y840795D01*
X765267Y843783D01*
X765267Y847017D01*
X766505Y850005D01*
X768791Y852291D01*
X771779Y853529D01*
X788221Y853529D01*
X791209Y852291D01*
X793430Y850070D01*
X793488Y850028D01*
X793540Y849979D01*
X793587Y849957D01*
X793629Y849926D01*
X793698Y849905D01*
X793763Y849875D01*
X793815Y849869D01*
X793865Y849854D01*
X793936Y849856D01*
X794007Y849848D01*
X794058Y849859D01*
X794110Y849860D01*
X794178Y849885D01*
X794248Y849900D01*
X794293Y849927D01*
X794341Y849945D01*
X794397Y849990D01*
X794459Y850027D01*
X794493Y850066D01*
X794533Y850099D01*
X794572Y850159D01*
X794619Y850213D01*
X794638Y850262D01*
X794666Y850306D01*
X794684Y850375D01*
X794711Y850442D01*
X794719Y850513D01*
X794727Y850544D01*
X794725Y850567D01*
X794729Y850608D01*
X794729Y947645D01*
X794718Y947712D01*
X794717Y947780D01*
X794699Y947832D01*
X794690Y947888D01*
X794658Y947948D01*
X794635Y948012D01*
X794601Y948056D01*
X794574Y948105D01*
X794525Y948152D01*
X794484Y948205D01*
X794437Y948236D01*
X794396Y948274D01*
X794335Y948303D01*
X794278Y948340D01*
X794224Y948355D01*
X794173Y948378D01*
X794106Y948386D01*
X794040Y948403D01*
X793984Y948399D01*
X793929Y948405D01*
X793862Y948391D01*
X793795Y948386D01*
X793743Y948365D01*
X793688Y948353D01*
X793630Y948318D01*
X793567Y948292D01*
X793525Y948255D01*
X793477Y948227D01*
X793433Y948175D01*
X793382Y948131D01*
X793339Y948065D01*
X793317Y948040D01*
X793309Y948020D01*
X793290Y947991D01*
X788762Y939103D01*
X780897Y931238D01*
X770986Y926189D01*
X760000Y924449D01*
X749014Y926189D01*
X739103Y931238D01*
X731238Y939103D01*
X726189Y949014D01*
X724449Y960000D01*
X726189Y970986D01*
X731238Y980897D01*
X739103Y988762D01*
X740047Y989242D01*
X740071Y989260D01*
X740099Y989272D01*
X740170Y989333D01*
X740245Y989388D01*
X740262Y989413D01*
X740285Y989432D01*
X740333Y989513D01*
X740386Y989589D01*
X740395Y989618D01*
X740410Y989644D01*
X740430Y989735D01*
X740456Y989825D01*
X740455Y989855D01*
X740462Y989885D01*
X740451Y989977D01*
X740447Y990071D01*
X740437Y990099D01*
X740433Y990129D01*
X740393Y990214D01*
X740361Y990301D01*
X740341Y990324D01*
X740329Y990352D01*
X740264Y990419D01*
X740205Y990491D01*
X740179Y990507D01*
X740158Y990529D01*
X740075Y990573D01*
X739997Y990622D01*
X739967Y990629D01*
X739940Y990643D01*
X739776Y990678D01*
X698977Y994726D01*
X698950Y994724D01*
X698902Y994729D01*
X481032Y994729D01*
X481012Y994726D01*
X480993Y994728D01*
X480891Y994706D01*
X480789Y994690D01*
X480772Y994680D01*
X480752Y994676D01*
X480663Y994623D01*
X480572Y994574D01*
X480558Y994560D01*
X480541Y994550D01*
X480474Y994471D01*
X480402Y994396D01*
X480394Y994378D01*
X480381Y994363D01*
X480342Y994267D01*
X480299Y994173D01*
X480297Y994153D01*
X480289Y994135D01*
X480271Y993968D01*
X480271Y897817D01*
X477183Y894729D01*
X372817Y894729D01*
X369729Y897817D01*
X369729Y993968D01*
X369726Y993988D01*
X369728Y994007D01*
X369706Y994109D01*
X369690Y994211D01*
X369680Y994228D01*
X369676Y994248D01*
X369623Y994337D01*
X369574Y994428D01*
X369560Y994442D01*
X369550Y994459D01*
X369471Y994526D01*
X369396Y994598D01*
X369378Y994606D01*
X369363Y994619D01*
X369267Y994658D01*
X369173Y994701D01*
X369153Y994703D01*
X369135Y994711D01*
X368968Y994729D01*
X326757Y994729D01*
X326663Y994714D01*
X326568Y994705D01*
X326543Y994694D01*
X326515Y994690D01*
X326431Y994645D01*
X326343Y994607D01*
X326322Y994588D01*
X326297Y994574D01*
X326232Y994505D01*
X326161Y994441D01*
X326147Y994417D01*
X326128Y994396D01*
X326088Y994310D01*
X326041Y994226D01*
X326036Y994199D01*
X326024Y994173D01*
X326014Y994078D01*
X325996Y993985D01*
X326000Y993957D01*
X325997Y993929D01*
X326018Y993835D01*
X326031Y993741D01*
X326045Y993709D01*
X326050Y993688D01*
X326066Y993660D01*
X326098Y993587D01*
X326218Y993381D01*
X326391Y992734D01*
X326391Y968523D01*
X311912Y968523D01*
X311892Y968520D01*
X311873Y968522D01*
X311771Y968500D01*
X311669Y968483D01*
X311652Y968474D01*
X311632Y968470D01*
X311543Y968417D01*
X311452Y968368D01*
X311438Y968354D01*
X311421Y968344D01*
X311354Y968265D01*
X311283Y968190D01*
X311274Y968172D01*
X311261Y968157D01*
X311222Y968061D01*
X311179Y967967D01*
X311177Y967947D01*
X311169Y967929D01*
X311151Y967762D01*
X311151Y966999D01*
X311149Y966999D01*
X311149Y967762D01*
X311146Y967782D01*
X311148Y967801D01*
X311126Y967903D01*
X311109Y968005D01*
X311100Y968022D01*
X311096Y968042D01*
X311043Y968131D01*
X310994Y968222D01*
X310980Y968236D01*
X310970Y968253D01*
X310891Y968320D01*
X310816Y968391D01*
X310798Y968400D01*
X310783Y968413D01*
X310687Y968452D01*
X310593Y968495D01*
X310573Y968497D01*
X310555Y968505D01*
X310388Y968523D01*
X295909Y968523D01*
X295909Y992734D01*
X296082Y993381D01*
X296202Y993587D01*
X296235Y993677D01*
X296276Y993763D01*
X296279Y993791D01*
X296289Y993817D01*
X296292Y993913D01*
X296303Y994007D01*
X296297Y994035D01*
X296298Y994063D01*
X296271Y994155D01*
X296250Y994248D01*
X296236Y994272D01*
X296228Y994299D01*
X296173Y994377D01*
X296124Y994459D01*
X296103Y994477D01*
X296087Y994500D01*
X296010Y994557D01*
X295937Y994619D01*
X295911Y994629D01*
X295888Y994646D01*
X295798Y994675D01*
X295709Y994711D01*
X295674Y994715D01*
X295654Y994721D01*
X295621Y994721D01*
X295543Y994729D01*
X149526Y994729D01*
X149498Y994725D01*
X149444Y994725D01*
X110552Y990507D01*
X110526Y990499D01*
X110499Y990499D01*
X110408Y990467D01*
X110315Y990441D01*
X110293Y990426D01*
X110267Y990417D01*
X110191Y990357D01*
X110111Y990303D01*
X110095Y990282D01*
X110074Y990265D01*
X110020Y990184D01*
X109962Y990107D01*
X109953Y990082D01*
X109939Y990060D01*
X109914Y989966D01*
X109883Y989875D01*
X109883Y989848D01*
X109876Y989822D01*
X109883Y989725D01*
X109882Y989629D01*
X109891Y989603D01*
X109893Y989576D01*
X109929Y989487D01*
X109960Y989395D01*
X109976Y989374D01*
X109987Y989349D01*
X110050Y989276D01*
X110108Y989199D01*
X110130Y989184D01*
X110148Y989164D01*
X110288Y989071D01*
X110897Y988762D01*
X118762Y980897D01*
X123811Y970986D01*
X125551Y960000D01*
X123811Y949014D01*
X118762Y939103D01*
X110897Y931238D01*
X100986Y926189D01*
X90000Y924449D01*
X79014Y926189D01*
X69103Y931238D01*
X63570Y936772D01*
X63512Y936814D01*
X63460Y936863D01*
X63413Y936885D01*
X63371Y936915D01*
X63302Y936936D01*
X63237Y936967D01*
X63185Y936972D01*
X63135Y936988D01*
X63064Y936986D01*
X62993Y936994D01*
X62942Y936983D01*
X62890Y936981D01*
X62822Y936957D01*
X62752Y936941D01*
X62707Y936915D01*
X62659Y936897D01*
X62603Y936852D01*
X62541Y936815D01*
X62507Y936776D01*
X62467Y936743D01*
X62428Y936683D01*
X62381Y936628D01*
X62362Y936580D01*
X62334Y936536D01*
X62316Y936467D01*
X62289Y936400D01*
X62281Y936329D01*
X62273Y936298D01*
X62275Y936274D01*
X62271Y936233D01*
X62271Y817817D01*
X59183Y814729D01*
X-10968Y814729D01*
X-10988Y814726D01*
X-11007Y814728D01*
X-11109Y814706D01*
X-11211Y814690D01*
X-11228Y814680D01*
X-11248Y814676D01*
X-11337Y814623D01*
X-11428Y814574D01*
X-11442Y814560D01*
X-11459Y814550D01*
X-11526Y814471D01*
X-11598Y814396D01*
X-11606Y814378D01*
X-11619Y814363D01*
X-11658Y814267D01*
X-11701Y814173D01*
X-11703Y814153D01*
X-11711Y814135D01*
X-11729Y813968D01*
X-11729Y61032D01*
X-11726Y61012D01*
X-11728Y60993D01*
X-11706Y60891D01*
X-11690Y60789D01*
X-11680Y60772D01*
X-11676Y60752D01*
X-11623Y60663D01*
X-11574Y60572D01*
X-11560Y60558D01*
X-11550Y60541D01*
X-11471Y60474D01*
X-11396Y60402D01*
X-11378Y60394D01*
X-11363Y60381D01*
X-11267Y60342D01*
X-11173Y60299D01*
X-11153Y60297D01*
X-11135Y60289D01*
X-10968Y60271D01*
X2183Y60271D01*
X5271Y57183D01*
X5271Y35349D01*
X5286Y35253D01*
X5296Y35156D01*
X5306Y35132D01*
X5310Y35107D01*
X5356Y35020D01*
X5396Y34931D01*
X5413Y34912D01*
X5426Y34889D01*
X5496Y34822D01*
X5562Y34750D01*
X5585Y34738D01*
X5604Y34720D01*
X5692Y34679D01*
X5778Y34632D01*
X5809Y34624D01*
X5827Y34616D01*
X5860Y34613D01*
X5941Y34594D01*
X217509Y9124D01*
X217574Y9127D01*
X217639Y9119D01*
X217697Y9132D01*
G37*
G36*
X598870Y5276D02*
X598870Y5276D01*
X598931Y5276D01*
X770090Y25750D01*
X770184Y25777D01*
X770280Y25798D01*
X770302Y25811D01*
X770327Y25818D01*
X770407Y25874D01*
X770491Y25924D01*
X770508Y25943D01*
X770529Y25958D01*
X770587Y26036D01*
X770651Y26111D01*
X770661Y26135D01*
X770676Y26155D01*
X770706Y26248D01*
X770743Y26339D01*
X770746Y26371D01*
X770752Y26389D01*
X770752Y26422D01*
X770761Y26506D01*
X770761Y190000D01*
X770758Y190020D01*
X770760Y190039D01*
X770738Y190141D01*
X770722Y190243D01*
X770712Y190260D01*
X770708Y190280D01*
X770655Y190369D01*
X770606Y190460D01*
X770592Y190474D01*
X770582Y190491D01*
X770503Y190558D01*
X770428Y190630D01*
X770410Y190638D01*
X770395Y190651D01*
X770299Y190690D01*
X770205Y190733D01*
X770185Y190735D01*
X770167Y190743D01*
X770000Y190761D01*
X769111Y190761D01*
X769111Y400050D01*
X769108Y400070D01*
X769110Y400089D01*
X769088Y400191D01*
X769072Y400293D01*
X769062Y400310D01*
X769058Y400330D01*
X769005Y400419D01*
X768956Y400510D01*
X768942Y400524D01*
X768932Y400541D01*
X768853Y400608D01*
X768778Y400680D01*
X768760Y400688D01*
X768745Y400701D01*
X768649Y400740D01*
X768555Y400783D01*
X768535Y400785D01*
X768517Y400793D01*
X768350Y400811D01*
X755222Y400811D01*
X755152Y400800D01*
X755080Y400798D01*
X755031Y400780D01*
X754980Y400772D01*
X754916Y400738D01*
X754849Y400713D01*
X754808Y400681D01*
X754762Y400656D01*
X754713Y400605D01*
X754657Y400560D01*
X754629Y400516D01*
X754593Y400478D01*
X754563Y400413D01*
X754524Y400353D01*
X754511Y400302D01*
X754489Y400255D01*
X754481Y400184D01*
X754464Y400114D01*
X754468Y400062D01*
X754462Y400011D01*
X754477Y399940D01*
X754483Y399869D01*
X754503Y399821D01*
X754514Y399770D01*
X754551Y399709D01*
X754579Y399643D01*
X754624Y399587D01*
X754641Y399559D01*
X754658Y399544D01*
X754684Y399512D01*
X758129Y396067D01*
X758129Y389333D01*
X753367Y384571D01*
X746633Y384571D01*
X741871Y389333D01*
X741871Y396067D01*
X745316Y399512D01*
X745358Y399570D01*
X745407Y399622D01*
X745429Y399669D01*
X745459Y399711D01*
X745481Y399780D01*
X745511Y399845D01*
X745517Y399897D01*
X745532Y399947D01*
X745530Y400018D01*
X745538Y400089D01*
X745527Y400140D01*
X745525Y400192D01*
X745501Y400260D01*
X745486Y400330D01*
X745459Y400374D01*
X745441Y400423D01*
X745396Y400479D01*
X745359Y400541D01*
X745320Y400575D01*
X745287Y400615D01*
X745227Y400654D01*
X745173Y400701D01*
X745124Y400720D01*
X745080Y400748D01*
X745011Y400766D01*
X744944Y400793D01*
X744873Y400801D01*
X744842Y400809D01*
X744819Y400807D01*
X744778Y400811D01*
X736600Y400811D01*
X736583Y400809D01*
X736566Y400811D01*
X736462Y400789D01*
X736357Y400772D01*
X736342Y400764D01*
X736326Y400760D01*
X736234Y400706D01*
X736140Y400656D01*
X736128Y400644D01*
X736114Y400636D01*
X736044Y400555D01*
X735971Y400478D01*
X735963Y400463D01*
X735952Y400450D01*
X735912Y400351D01*
X735867Y400255D01*
X735865Y400238D01*
X735859Y400222D01*
X735839Y400056D01*
X734475Y221023D01*
X713052Y199761D01*
X277000Y199761D01*
X276910Y199747D01*
X276819Y199739D01*
X276789Y199727D01*
X276757Y199722D01*
X276677Y199679D01*
X276593Y199643D01*
X276561Y199617D01*
X276540Y199606D01*
X276518Y199583D01*
X276462Y199538D01*
X222062Y145138D01*
X222009Y145064D01*
X221949Y144995D01*
X221937Y144965D01*
X221918Y144939D01*
X221891Y144852D01*
X221857Y144767D01*
X221853Y144726D01*
X221846Y144703D01*
X221847Y144671D01*
X221839Y144600D01*
X221839Y9278D01*
X221855Y9182D01*
X221864Y9085D01*
X221874Y9061D01*
X221879Y9035D01*
X221924Y8949D01*
X221964Y8860D01*
X221981Y8841D01*
X221994Y8818D01*
X222064Y8751D01*
X222130Y8679D01*
X222153Y8666D01*
X222172Y8648D01*
X222260Y8607D01*
X222346Y8560D01*
X222377Y8553D01*
X222395Y8545D01*
X222428Y8541D01*
X222509Y8522D01*
X249471Y5276D01*
X249501Y5277D01*
X249562Y5271D01*
X598840Y5271D01*
X598870Y5276D01*
G37*
%LPC*%
G36*
X711779Y627271D02*
X711779Y627271D01*
X708791Y628509D01*
X706505Y630795D01*
X705267Y633783D01*
X705267Y637017D01*
X706505Y640005D01*
X708791Y642291D01*
X711779Y643529D01*
X716190Y643529D01*
X716210Y643532D01*
X716229Y643530D01*
X716331Y643552D01*
X716433Y643568D01*
X716450Y643578D01*
X716470Y643582D01*
X716559Y643635D01*
X716650Y643684D01*
X716664Y643698D01*
X716681Y643708D01*
X716748Y643787D01*
X716820Y643862D01*
X716828Y643880D01*
X716841Y643895D01*
X716880Y643991D01*
X716923Y644085D01*
X716925Y644105D01*
X716933Y644123D01*
X716951Y644290D01*
X716951Y671327D01*
X725796Y680172D01*
X725838Y680230D01*
X725887Y680282D01*
X725909Y680329D01*
X725939Y680371D01*
X725960Y680440D01*
X725991Y680505D01*
X725996Y680557D01*
X726012Y680607D01*
X726010Y680678D01*
X726018Y680749D01*
X726007Y680800D01*
X726005Y680852D01*
X725981Y680920D01*
X725965Y680990D01*
X725939Y681035D01*
X725921Y681083D01*
X725876Y681139D01*
X725839Y681201D01*
X725800Y681235D01*
X725767Y681275D01*
X725707Y681314D01*
X725652Y681361D01*
X725604Y681380D01*
X725560Y681408D01*
X725491Y681426D01*
X725424Y681453D01*
X725353Y681461D01*
X725322Y681469D01*
X725298Y681467D01*
X725258Y681471D01*
X711779Y681471D01*
X708791Y682709D01*
X706505Y684995D01*
X705267Y687983D01*
X705267Y691217D01*
X706505Y694205D01*
X708791Y696491D01*
X711779Y697729D01*
X728221Y697729D01*
X731209Y696491D01*
X731400Y696300D01*
X731458Y696258D01*
X731510Y696209D01*
X731557Y696187D01*
X731599Y696156D01*
X731668Y696135D01*
X731733Y696105D01*
X731785Y696099D01*
X731835Y696084D01*
X731906Y696086D01*
X731977Y696078D01*
X732028Y696089D01*
X732080Y696090D01*
X732148Y696115D01*
X732218Y696130D01*
X732263Y696157D01*
X732311Y696175D01*
X732367Y696220D01*
X732429Y696257D01*
X732463Y696296D01*
X732503Y696329D01*
X732542Y696389D01*
X732589Y696443D01*
X732608Y696492D01*
X732636Y696536D01*
X732654Y696605D01*
X732681Y696672D01*
X732689Y696743D01*
X732697Y696774D01*
X732695Y696797D01*
X732699Y696838D01*
X732699Y706650D01*
X732680Y706767D01*
X732661Y706887D01*
X732660Y706890D01*
X732660Y706893D01*
X732604Y706998D01*
X732548Y707105D01*
X732546Y707108D01*
X732544Y707110D01*
X732457Y707193D01*
X732371Y707276D01*
X732368Y707278D01*
X732366Y707280D01*
X732257Y707330D01*
X732149Y707382D01*
X732146Y707382D01*
X732143Y707383D01*
X732025Y707396D01*
X731905Y707411D01*
X731902Y707410D01*
X731899Y707410D01*
X731783Y707385D01*
X731664Y707360D01*
X731661Y707359D01*
X731658Y707358D01*
X731649Y707353D01*
X731515Y707283D01*
X730936Y706896D01*
X729271Y706207D01*
X727505Y705855D01*
X721523Y705855D01*
X721523Y714238D01*
X721520Y714258D01*
X721522Y714277D01*
X721500Y714379D01*
X721483Y714481D01*
X721474Y714498D01*
X721470Y714518D01*
X721417Y714607D01*
X721368Y714698D01*
X721354Y714712D01*
X721344Y714729D01*
X721265Y714796D01*
X721190Y714867D01*
X721172Y714876D01*
X721157Y714889D01*
X721061Y714927D01*
X720967Y714971D01*
X720947Y714973D01*
X720929Y714981D01*
X720762Y714999D01*
X719999Y714999D01*
X719999Y715001D01*
X720762Y715001D01*
X720782Y715004D01*
X720801Y715002D01*
X720903Y715024D01*
X721005Y715041D01*
X721022Y715050D01*
X721042Y715054D01*
X721131Y715107D01*
X721222Y715156D01*
X721236Y715170D01*
X721253Y715180D01*
X721320Y715259D01*
X721391Y715334D01*
X721400Y715352D01*
X721413Y715367D01*
X721452Y715463D01*
X721495Y715557D01*
X721497Y715577D01*
X721505Y715595D01*
X721523Y715762D01*
X721523Y724145D01*
X727505Y724145D01*
X729271Y723793D01*
X730936Y723104D01*
X731515Y722717D01*
X731624Y722667D01*
X731733Y722617D01*
X731736Y722616D01*
X731739Y722615D01*
X731858Y722603D01*
X731977Y722590D01*
X731981Y722590D01*
X731984Y722590D01*
X732099Y722616D01*
X732218Y722642D01*
X732221Y722643D01*
X732224Y722644D01*
X732325Y722706D01*
X732429Y722768D01*
X732431Y722770D01*
X732434Y722772D01*
X732510Y722863D01*
X732589Y722955D01*
X732590Y722958D01*
X732592Y722960D01*
X732634Y723068D01*
X732681Y723183D01*
X732681Y723187D01*
X732682Y723189D01*
X732683Y723200D01*
X732699Y723350D01*
X732699Y733162D01*
X732688Y733232D01*
X732686Y733304D01*
X732668Y733353D01*
X732660Y733404D01*
X732626Y733468D01*
X732601Y733535D01*
X732569Y733576D01*
X732544Y733622D01*
X732493Y733671D01*
X732448Y733727D01*
X732404Y733755D01*
X732366Y733791D01*
X732301Y733821D01*
X732241Y733860D01*
X732190Y733873D01*
X732143Y733895D01*
X732072Y733903D01*
X732002Y733920D01*
X731950Y733916D01*
X731899Y733922D01*
X731828Y733907D01*
X731757Y733901D01*
X731709Y733881D01*
X731658Y733870D01*
X731597Y733833D01*
X731531Y733805D01*
X731475Y733760D01*
X731447Y733743D01*
X731432Y733726D01*
X731400Y733700D01*
X731209Y733509D01*
X728221Y732271D01*
X711779Y732271D01*
X708791Y733509D01*
X706505Y735795D01*
X705267Y738783D01*
X705267Y742017D01*
X705449Y742455D01*
X705475Y742568D01*
X705504Y742682D01*
X705504Y742688D01*
X705505Y742695D01*
X705494Y742811D01*
X705485Y742927D01*
X705482Y742933D01*
X705482Y742939D01*
X705434Y743047D01*
X705389Y743154D01*
X705384Y743159D01*
X705382Y743164D01*
X705369Y743178D01*
X705284Y743285D01*
X677648Y770920D01*
X677574Y770973D01*
X677505Y771033D01*
X677475Y771045D01*
X677448Y771064D01*
X677361Y771091D01*
X677277Y771125D01*
X677236Y771129D01*
X677213Y771136D01*
X677181Y771135D01*
X677110Y771143D01*
X529987Y771143D01*
X529897Y771129D01*
X529806Y771121D01*
X529777Y771109D01*
X529745Y771104D01*
X529664Y771061D01*
X529580Y771025D01*
X529548Y770999D01*
X529527Y770988D01*
X529515Y770976D01*
X529514Y770975D01*
X529502Y770963D01*
X529449Y770920D01*
X528172Y769643D01*
X524404Y769643D01*
X521739Y772308D01*
X521739Y776076D01*
X524404Y778741D01*
X528172Y778741D01*
X529449Y777464D01*
X529523Y777411D01*
X529593Y777351D01*
X529623Y777339D01*
X529649Y777320D01*
X529736Y777293D01*
X529821Y777259D01*
X529862Y777255D01*
X529884Y777248D01*
X529916Y777249D01*
X529987Y777241D01*
X679951Y777241D01*
X709216Y747976D01*
X709310Y747908D01*
X709405Y747838D01*
X709411Y747836D01*
X709416Y747832D01*
X709526Y747798D01*
X709638Y747762D01*
X709645Y747762D01*
X709651Y747760D01*
X709767Y747763D01*
X709884Y747764D01*
X709892Y747766D01*
X709897Y747766D01*
X709914Y747773D01*
X710045Y747811D01*
X711779Y748529D01*
X721322Y748529D01*
X721393Y748540D01*
X721464Y748542D01*
X721513Y748560D01*
X721565Y748568D01*
X721628Y748602D01*
X721695Y748627D01*
X721736Y748659D01*
X721782Y748684D01*
X721831Y748736D01*
X721887Y748780D01*
X721916Y748824D01*
X721951Y748862D01*
X721982Y748927D01*
X722020Y748987D01*
X722033Y749038D01*
X722055Y749085D01*
X722063Y749156D01*
X722080Y749226D01*
X722076Y749278D01*
X722082Y749329D01*
X722067Y749400D01*
X722061Y749471D01*
X722041Y749519D01*
X722030Y749570D01*
X721993Y749631D01*
X721965Y749697D01*
X721920Y749753D01*
X721904Y749781D01*
X721886Y749796D01*
X721860Y749828D01*
X688960Y782728D01*
X688886Y782781D01*
X688817Y782841D01*
X688787Y782853D01*
X688760Y782872D01*
X688673Y782899D01*
X688589Y782933D01*
X688548Y782937D01*
X688525Y782944D01*
X688493Y782943D01*
X688422Y782951D01*
X523737Y782951D01*
X521728Y784960D01*
X516460Y790228D01*
X516386Y790281D01*
X516317Y790341D01*
X516287Y790353D01*
X516260Y790372D01*
X516173Y790399D01*
X516089Y790433D01*
X516048Y790437D01*
X516025Y790444D01*
X515993Y790443D01*
X515922Y790451D01*
X514116Y790451D01*
X511451Y793116D01*
X511451Y796884D01*
X514116Y799549D01*
X517884Y799549D01*
X520549Y796884D01*
X520549Y795078D01*
X520563Y794988D01*
X520571Y794897D01*
X520583Y794867D01*
X520588Y794835D01*
X520631Y794755D01*
X520667Y794671D01*
X520693Y794639D01*
X520704Y794618D01*
X520727Y794596D01*
X520772Y794540D01*
X526040Y789272D01*
X526114Y789219D01*
X526183Y789159D01*
X526213Y789147D01*
X526240Y789128D01*
X526327Y789101D01*
X526411Y789067D01*
X526452Y789063D01*
X526475Y789056D01*
X526507Y789057D01*
X526578Y789049D01*
X691263Y789049D01*
X727496Y752816D01*
X727570Y752763D01*
X727639Y752703D01*
X727669Y752691D01*
X727696Y752672D01*
X727783Y752645D01*
X727867Y752611D01*
X727908Y752607D01*
X727931Y752600D01*
X727963Y752601D01*
X728034Y752593D01*
X731654Y752593D01*
X733663Y750584D01*
X736788Y747459D01*
X738797Y745450D01*
X738797Y684550D01*
X723272Y669024D01*
X723219Y668951D01*
X723159Y668881D01*
X723147Y668851D01*
X723128Y668825D01*
X723101Y668738D01*
X723067Y668653D01*
X723063Y668612D01*
X723056Y668590D01*
X723057Y668557D01*
X723049Y668486D01*
X723049Y644290D01*
X723052Y644270D01*
X723050Y644251D01*
X723072Y644149D01*
X723088Y644047D01*
X723098Y644030D01*
X723102Y644010D01*
X723155Y643921D01*
X723204Y643830D01*
X723218Y643816D01*
X723228Y643799D01*
X723307Y643732D01*
X723382Y643660D01*
X723400Y643652D01*
X723415Y643639D01*
X723511Y643600D01*
X723605Y643557D01*
X723625Y643555D01*
X723643Y643547D01*
X723810Y643529D01*
X728221Y643529D01*
X731209Y642291D01*
X733495Y640005D01*
X734733Y637017D01*
X734733Y633783D01*
X733495Y630795D01*
X731209Y628509D01*
X728221Y627271D01*
X711779Y627271D01*
G37*
%LPD*%
%LPC*%
G36*
X598014Y21189D02*
X598014Y21189D01*
X588103Y26238D01*
X580238Y34103D01*
X575189Y44014D01*
X573449Y55000D01*
X575189Y65986D01*
X580238Y75897D01*
X588103Y83762D01*
X598014Y88811D01*
X609000Y90551D01*
X619986Y88811D01*
X629897Y83762D01*
X637762Y75897D01*
X642811Y65986D01*
X644551Y55000D01*
X642811Y44014D01*
X637762Y34103D01*
X629897Y26238D01*
X619986Y21189D01*
X609000Y19449D01*
X598014Y21189D01*
G37*
%LPD*%
%LPC*%
G36*
X164014Y24189D02*
X164014Y24189D01*
X154103Y29238D01*
X146238Y37103D01*
X141189Y47014D01*
X139449Y58000D01*
X141189Y68986D01*
X146238Y78897D01*
X154103Y86762D01*
X164014Y91811D01*
X175000Y93551D01*
X185986Y91811D01*
X195897Y86762D01*
X203762Y78897D01*
X208811Y68986D01*
X210551Y58000D01*
X208811Y47014D01*
X203762Y37103D01*
X195897Y29238D01*
X185986Y24189D01*
X175000Y22449D01*
X164014Y24189D01*
G37*
%LPD*%
%LPC*%
G36*
X172260Y602510D02*
X172260Y602510D01*
X169599Y603612D01*
X167562Y605649D01*
X166460Y608310D01*
X166460Y611190D01*
X167562Y613851D01*
X169599Y615888D01*
X172260Y616990D01*
X175140Y616990D01*
X175722Y616749D01*
X175836Y616722D01*
X175949Y616693D01*
X175956Y616694D01*
X175962Y616692D01*
X176078Y616703D01*
X176195Y616712D01*
X176200Y616715D01*
X176207Y616715D01*
X176314Y616763D01*
X176421Y616809D01*
X176427Y616813D01*
X176431Y616815D01*
X176445Y616828D01*
X176552Y616914D01*
X185728Y626090D01*
X185781Y626164D01*
X185841Y626233D01*
X185853Y626263D01*
X185872Y626290D01*
X185899Y626377D01*
X185933Y626461D01*
X185937Y626502D01*
X185944Y626525D01*
X185943Y626557D01*
X185951Y626628D01*
X185951Y756892D01*
X185936Y756988D01*
X185926Y757085D01*
X185916Y757109D01*
X185912Y757135D01*
X185866Y757221D01*
X185826Y757310D01*
X185809Y757329D01*
X185796Y757352D01*
X185726Y757419D01*
X185660Y757491D01*
X185637Y757503D01*
X185618Y757521D01*
X185530Y757562D01*
X185444Y757609D01*
X185419Y757614D01*
X185395Y757625D01*
X185298Y757636D01*
X185202Y757653D01*
X185176Y757649D01*
X185151Y757652D01*
X185055Y757632D01*
X184959Y757617D01*
X184936Y757606D01*
X184910Y757600D01*
X184827Y757550D01*
X184740Y757506D01*
X184721Y757487D01*
X184699Y757474D01*
X184636Y757400D01*
X184568Y757330D01*
X184552Y757302D01*
X184539Y757287D01*
X184527Y757256D01*
X184487Y757183D01*
X183360Y754463D01*
X180287Y751390D01*
X176273Y749727D01*
X171927Y749727D01*
X167913Y751390D01*
X164840Y754463D01*
X163177Y758477D01*
X163177Y762823D01*
X163981Y764763D01*
X163991Y764804D01*
X164005Y764835D01*
X164010Y764879D01*
X164032Y764950D01*
X164031Y764977D01*
X164037Y765002D01*
X164031Y765069D01*
X164032Y765079D01*
X164028Y765097D01*
X164028Y765099D01*
X164025Y765196D01*
X164016Y765221D01*
X164014Y765247D01*
X163974Y765336D01*
X163941Y765427D01*
X163924Y765448D01*
X163914Y765472D01*
X163848Y765543D01*
X163787Y765619D01*
X163765Y765633D01*
X163747Y765653D01*
X163662Y765700D01*
X163580Y765752D01*
X163555Y765759D01*
X163532Y765771D01*
X163436Y765789D01*
X163342Y765812D01*
X163316Y765810D01*
X163290Y765815D01*
X163193Y765801D01*
X163096Y765793D01*
X163072Y765783D01*
X163047Y765779D01*
X162960Y765735D01*
X162870Y765697D01*
X162845Y765677D01*
X162827Y765668D01*
X162809Y765649D01*
X162803Y765646D01*
X162792Y765635D01*
X162739Y765592D01*
X161237Y764090D01*
X157223Y762427D01*
X152877Y762427D01*
X148863Y764090D01*
X145790Y767163D01*
X144127Y771177D01*
X144127Y775523D01*
X145790Y779537D01*
X148863Y782610D01*
X152877Y784273D01*
X154578Y784273D01*
X154649Y784284D01*
X154720Y784286D01*
X154769Y784304D01*
X154821Y784312D01*
X154884Y784346D01*
X154951Y784371D01*
X154992Y784403D01*
X155038Y784428D01*
X155087Y784480D01*
X155143Y784524D01*
X155172Y784568D01*
X155207Y784606D01*
X155238Y784671D01*
X155276Y784731D01*
X155289Y784782D01*
X155311Y784829D01*
X155319Y784900D01*
X155336Y784970D01*
X155332Y785022D01*
X155338Y785073D01*
X155323Y785144D01*
X155317Y785215D01*
X155297Y785263D01*
X155286Y785314D01*
X155249Y785375D01*
X155221Y785441D01*
X155176Y785497D01*
X155160Y785525D01*
X155142Y785540D01*
X155116Y785572D01*
X137960Y802728D01*
X135951Y804737D01*
X135951Y921863D01*
X143612Y929524D01*
X143665Y929598D01*
X143725Y929667D01*
X143737Y929697D01*
X143756Y929724D01*
X143783Y929811D01*
X143817Y929895D01*
X143821Y929936D01*
X143828Y929959D01*
X143827Y929991D01*
X143835Y930062D01*
X143835Y941672D01*
X144728Y942565D01*
X160072Y942565D01*
X160965Y941672D01*
X160965Y926328D01*
X160072Y925435D01*
X148462Y925435D01*
X148372Y925421D01*
X148281Y925413D01*
X148251Y925401D01*
X148219Y925396D01*
X148139Y925353D01*
X148055Y925317D01*
X148023Y925291D01*
X148002Y925280D01*
X147980Y925257D01*
X147924Y925212D01*
X142272Y919560D01*
X142219Y919486D01*
X142159Y919417D01*
X142147Y919387D01*
X142128Y919360D01*
X142101Y919273D01*
X142067Y919189D01*
X142063Y919148D01*
X142056Y919125D01*
X142057Y919093D01*
X142049Y919022D01*
X142049Y807578D01*
X142063Y807488D01*
X142071Y807397D01*
X142083Y807367D01*
X142088Y807335D01*
X142131Y807255D01*
X142167Y807171D01*
X142193Y807139D01*
X142204Y807118D01*
X142227Y807096D01*
X142272Y807040D01*
X159990Y789322D01*
X160064Y789269D01*
X160133Y789209D01*
X160163Y789197D01*
X160190Y789178D01*
X160277Y789151D01*
X160361Y789117D01*
X160402Y789113D01*
X160425Y789106D01*
X160457Y789107D01*
X160528Y789099D01*
X163031Y789099D01*
X163146Y789118D01*
X163262Y789135D01*
X163268Y789137D01*
X163274Y789138D01*
X163377Y789193D01*
X163482Y789246D01*
X163486Y789251D01*
X163492Y789254D01*
X163571Y789338D01*
X163654Y789422D01*
X163658Y789428D01*
X163661Y789432D01*
X163669Y789448D01*
X163735Y789569D01*
X164840Y792237D01*
X167913Y795310D01*
X171927Y796973D01*
X176273Y796973D01*
X180287Y795310D01*
X183360Y792237D01*
X185023Y788223D01*
X185023Y783877D01*
X183917Y781209D01*
X183891Y781095D01*
X183862Y780982D01*
X183863Y780975D01*
X183861Y780969D01*
X183872Y780853D01*
X183881Y780736D01*
X183884Y780731D01*
X183884Y780724D01*
X183932Y780617D01*
X183978Y780510D01*
X183982Y780504D01*
X183984Y780500D01*
X183997Y780486D01*
X184082Y780379D01*
X190040Y774422D01*
X192049Y772413D01*
X192049Y623787D01*
X190040Y621778D01*
X180864Y612602D01*
X180795Y612507D01*
X180726Y612413D01*
X180724Y612407D01*
X180720Y612402D01*
X180686Y612291D01*
X180649Y612179D01*
X180649Y612173D01*
X180648Y612167D01*
X180651Y612050D01*
X180652Y611933D01*
X180654Y611926D01*
X180654Y611921D01*
X180660Y611904D01*
X180699Y611772D01*
X180940Y611190D01*
X180940Y608310D01*
X179838Y605649D01*
X177801Y603612D01*
X175140Y602510D01*
X172260Y602510D01*
G37*
%LPD*%
%LPC*%
G36*
X287618Y239725D02*
X287618Y239725D01*
X286725Y240618D01*
X286725Y251936D01*
X286722Y251956D01*
X286724Y251975D01*
X286702Y252077D01*
X286686Y252179D01*
X286676Y252196D01*
X286672Y252216D01*
X286619Y252305D01*
X286570Y252396D01*
X286556Y252410D01*
X286546Y252427D01*
X286467Y252494D01*
X286392Y252566D01*
X286374Y252574D01*
X286359Y252587D01*
X286263Y252626D01*
X286169Y252669D01*
X286149Y252671D01*
X286131Y252679D01*
X285964Y252697D01*
X211382Y252697D01*
X127077Y337002D01*
X127003Y337055D01*
X126934Y337115D01*
X126903Y337127D01*
X126877Y337146D01*
X126790Y337173D01*
X126705Y337207D01*
X126664Y337211D01*
X126642Y337218D01*
X126610Y337217D01*
X126539Y337225D01*
X106868Y337225D01*
X105975Y338118D01*
X105975Y361882D01*
X106868Y362775D01*
X130632Y362775D01*
X131525Y361882D01*
X131525Y342211D01*
X131539Y342121D01*
X131547Y342030D01*
X131559Y342001D01*
X131564Y341969D01*
X131607Y341888D01*
X131643Y341804D01*
X131669Y341772D01*
X131680Y341751D01*
X131703Y341729D01*
X131748Y341673D01*
X213895Y259526D01*
X213969Y259473D01*
X214038Y259413D01*
X214069Y259401D01*
X214095Y259382D01*
X214182Y259355D01*
X214267Y259321D01*
X214308Y259317D01*
X214330Y259310D01*
X214362Y259311D01*
X214433Y259303D01*
X283865Y259303D01*
X283955Y259317D01*
X284046Y259325D01*
X284076Y259337D01*
X284108Y259342D01*
X284189Y259385D01*
X284273Y259421D01*
X284305Y259447D01*
X284325Y259458D01*
X284348Y259481D01*
X284404Y259526D01*
X285725Y260847D01*
X304275Y260847D01*
X305596Y259526D01*
X305670Y259473D01*
X305740Y259413D01*
X305770Y259401D01*
X305796Y259382D01*
X305883Y259355D01*
X305968Y259321D01*
X306009Y259317D01*
X306031Y259310D01*
X306063Y259311D01*
X306135Y259303D01*
X392555Y259303D01*
X392645Y259317D01*
X392736Y259325D01*
X392765Y259337D01*
X392797Y259342D01*
X392878Y259385D01*
X392962Y259421D01*
X392994Y259447D01*
X393015Y259458D01*
X393037Y259481D01*
X393093Y259526D01*
X394116Y260549D01*
X397884Y260549D01*
X400549Y257884D01*
X400549Y254116D01*
X397884Y251451D01*
X394116Y251451D01*
X393093Y252474D01*
X393019Y252527D01*
X392949Y252587D01*
X392919Y252599D01*
X392893Y252618D01*
X392806Y252645D01*
X392721Y252679D01*
X392680Y252683D01*
X392658Y252690D01*
X392626Y252689D01*
X392555Y252697D01*
X304036Y252697D01*
X304016Y252694D01*
X303997Y252696D01*
X303895Y252674D01*
X303793Y252658D01*
X303776Y252648D01*
X303756Y252644D01*
X303667Y252591D01*
X303576Y252542D01*
X303562Y252528D01*
X303545Y252518D01*
X303478Y252439D01*
X303406Y252364D01*
X303398Y252346D01*
X303385Y252331D01*
X303346Y252235D01*
X303303Y252141D01*
X303301Y252121D01*
X303293Y252103D01*
X303275Y251936D01*
X303275Y240618D01*
X302382Y239725D01*
X287618Y239725D01*
G37*
%LPD*%
%LPC*%
G36*
X738628Y414535D02*
X738628Y414535D01*
X737735Y415428D01*
X737735Y422910D01*
X737732Y422930D01*
X737734Y422949D01*
X737712Y423051D01*
X737696Y423153D01*
X737686Y423170D01*
X737682Y423190D01*
X737629Y423279D01*
X737580Y423370D01*
X737566Y423384D01*
X737556Y423401D01*
X737477Y423468D01*
X737402Y423540D01*
X737384Y423548D01*
X737369Y423561D01*
X737273Y423600D01*
X737179Y423643D01*
X737159Y423645D01*
X737141Y423653D01*
X736974Y423671D01*
X594113Y423671D01*
X568056Y449728D01*
X567982Y449781D01*
X567913Y449841D01*
X567883Y449853D01*
X567856Y449872D01*
X567769Y449899D01*
X567685Y449933D01*
X567644Y449937D01*
X567621Y449944D01*
X567589Y449943D01*
X567518Y449951D01*
X537699Y449951D01*
X537609Y449937D01*
X537518Y449929D01*
X537489Y449917D01*
X537457Y449912D01*
X537376Y449869D01*
X537292Y449833D01*
X537260Y449807D01*
X537239Y449796D01*
X537217Y449773D01*
X537161Y449728D01*
X535884Y448451D01*
X532116Y448451D01*
X529451Y451116D01*
X529451Y454884D01*
X532116Y457549D01*
X535884Y457549D01*
X537161Y456272D01*
X537235Y456219D01*
X537305Y456159D01*
X537335Y456147D01*
X537361Y456128D01*
X537448Y456101D01*
X537533Y456067D01*
X537574Y456063D01*
X537596Y456056D01*
X537628Y456057D01*
X537699Y456049D01*
X570359Y456049D01*
X596416Y429992D01*
X596490Y429939D01*
X596559Y429879D01*
X596589Y429867D01*
X596616Y429848D01*
X596703Y429821D01*
X596787Y429787D01*
X596828Y429783D01*
X596851Y429776D01*
X596883Y429777D01*
X596954Y429769D01*
X736974Y429769D01*
X736994Y429772D01*
X737013Y429770D01*
X737115Y429792D01*
X737217Y429808D01*
X737234Y429818D01*
X737254Y429822D01*
X737343Y429875D01*
X737434Y429924D01*
X737448Y429938D01*
X737465Y429948D01*
X737532Y430027D01*
X737604Y430102D01*
X737612Y430120D01*
X737625Y430135D01*
X737664Y430231D01*
X737707Y430325D01*
X737709Y430345D01*
X737717Y430363D01*
X737735Y430530D01*
X737735Y430772D01*
X738628Y431665D01*
X753972Y431665D01*
X754865Y430772D01*
X754865Y430530D01*
X754868Y430510D01*
X754866Y430491D01*
X754888Y430389D01*
X754904Y430287D01*
X754914Y430270D01*
X754918Y430250D01*
X754971Y430161D01*
X755020Y430070D01*
X755034Y430056D01*
X755044Y430039D01*
X755123Y429972D01*
X755198Y429900D01*
X755216Y429892D01*
X755231Y429879D01*
X755327Y429840D01*
X755421Y429797D01*
X755441Y429795D01*
X755459Y429787D01*
X755626Y429769D01*
X770582Y429769D01*
X770672Y429783D01*
X770763Y429791D01*
X770793Y429803D01*
X770825Y429808D01*
X770905Y429851D01*
X770989Y429887D01*
X771021Y429913D01*
X771042Y429924D01*
X771064Y429947D01*
X771120Y429992D01*
X832604Y491476D01*
X832646Y491534D01*
X832695Y491586D01*
X832717Y491633D01*
X832748Y491675D01*
X832769Y491744D01*
X832799Y491809D01*
X832805Y491861D01*
X832820Y491911D01*
X832818Y491982D01*
X832826Y492053D01*
X832815Y492104D01*
X832814Y492156D01*
X832789Y492224D01*
X832774Y492294D01*
X832747Y492339D01*
X832729Y492387D01*
X832684Y492443D01*
X832648Y492505D01*
X832608Y492539D01*
X832576Y492579D01*
X832515Y492618D01*
X832461Y492665D01*
X832412Y492684D01*
X832369Y492712D01*
X832299Y492730D01*
X832233Y492757D01*
X832161Y492765D01*
X832130Y492773D01*
X832107Y492771D01*
X832066Y492775D01*
X830468Y492775D01*
X829575Y493668D01*
X829575Y508432D01*
X830468Y509325D01*
X845232Y509325D01*
X846125Y508432D01*
X846125Y493668D01*
X845232Y492775D01*
X840994Y492775D01*
X840974Y492772D01*
X840955Y492774D01*
X840853Y492752D01*
X840751Y492736D01*
X840734Y492726D01*
X840714Y492722D01*
X840625Y492669D01*
X840534Y492620D01*
X840520Y492606D01*
X840503Y492596D01*
X840436Y492517D01*
X840364Y492442D01*
X840356Y492424D01*
X840343Y492409D01*
X840304Y492313D01*
X840261Y492219D01*
X840259Y492199D01*
X840251Y492181D01*
X840233Y492014D01*
X840233Y490481D01*
X773423Y423671D01*
X755626Y423671D01*
X755606Y423668D01*
X755587Y423670D01*
X755485Y423648D01*
X755383Y423632D01*
X755366Y423622D01*
X755346Y423618D01*
X755257Y423565D01*
X755166Y423516D01*
X755152Y423502D01*
X755135Y423492D01*
X755068Y423413D01*
X754996Y423338D01*
X754988Y423320D01*
X754975Y423305D01*
X754936Y423209D01*
X754893Y423115D01*
X754891Y423095D01*
X754883Y423077D01*
X754865Y422910D01*
X754865Y415428D01*
X753972Y414535D01*
X738628Y414535D01*
G37*
%LPD*%
%LPC*%
G36*
X711779Y522271D02*
X711779Y522271D01*
X708791Y523509D01*
X706505Y525795D01*
X705267Y528783D01*
X705267Y532017D01*
X706505Y535005D01*
X708791Y537291D01*
X711779Y538529D01*
X713130Y538529D01*
X713201Y538540D01*
X713272Y538542D01*
X713321Y538560D01*
X713373Y538568D01*
X713436Y538602D01*
X713503Y538627D01*
X713544Y538659D01*
X713590Y538684D01*
X713639Y538736D01*
X713695Y538780D01*
X713724Y538824D01*
X713759Y538862D01*
X713790Y538927D01*
X713828Y538987D01*
X713841Y539038D01*
X713863Y539085D01*
X713871Y539156D01*
X713888Y539226D01*
X713884Y539278D01*
X713890Y539329D01*
X713875Y539400D01*
X713869Y539471D01*
X713849Y539519D01*
X713838Y539570D01*
X713801Y539631D01*
X713773Y539697D01*
X713728Y539753D01*
X713712Y539781D01*
X713694Y539796D01*
X713668Y539828D01*
X695959Y557537D01*
X695959Y585670D01*
X695945Y585760D01*
X695937Y585851D01*
X695925Y585881D01*
X695920Y585913D01*
X695877Y585993D01*
X695841Y586077D01*
X695815Y586109D01*
X695804Y586130D01*
X695781Y586152D01*
X695736Y586208D01*
X511047Y770897D01*
X511047Y776589D01*
X511033Y776679D01*
X511025Y776770D01*
X511013Y776799D01*
X511008Y776831D01*
X510965Y776912D01*
X510929Y776996D01*
X510903Y777028D01*
X510892Y777049D01*
X510869Y777071D01*
X510824Y777127D01*
X509547Y778404D01*
X509547Y782172D01*
X512212Y784837D01*
X515980Y784837D01*
X518645Y782172D01*
X518645Y778404D01*
X517368Y777127D01*
X517315Y777053D01*
X517255Y776983D01*
X517243Y776953D01*
X517224Y776927D01*
X517197Y776840D01*
X517163Y776755D01*
X517159Y776714D01*
X517152Y776692D01*
X517153Y776660D01*
X517145Y776589D01*
X517145Y773738D01*
X517159Y773648D01*
X517167Y773557D01*
X517179Y773527D01*
X517184Y773495D01*
X517227Y773415D01*
X517263Y773331D01*
X517289Y773299D01*
X517300Y773278D01*
X517323Y773256D01*
X517368Y773200D01*
X702057Y588511D01*
X702057Y560378D01*
X702071Y560288D01*
X702079Y560197D01*
X702091Y560167D01*
X702096Y560135D01*
X702139Y560055D01*
X702175Y559971D01*
X702201Y559939D01*
X702212Y559918D01*
X702235Y559896D01*
X702280Y559840D01*
X723368Y538752D01*
X723442Y538699D01*
X723511Y538639D01*
X723541Y538627D01*
X723568Y538608D01*
X723655Y538581D01*
X723739Y538547D01*
X723780Y538543D01*
X723803Y538536D01*
X723835Y538537D01*
X723906Y538529D01*
X728221Y538529D01*
X731209Y537291D01*
X733495Y535005D01*
X734733Y532017D01*
X734733Y528783D01*
X733495Y525795D01*
X731209Y523509D01*
X728221Y522271D01*
X711779Y522271D01*
G37*
%LPD*%
%LPC*%
G36*
X301927Y477377D02*
X301927Y477377D01*
X297913Y479040D01*
X294840Y482113D01*
X293177Y486127D01*
X293177Y490473D01*
X293981Y492413D01*
X294003Y492507D01*
X294032Y492600D01*
X294031Y492627D01*
X294037Y492652D01*
X294028Y492749D01*
X294025Y492846D01*
X294016Y492871D01*
X294014Y492897D01*
X293974Y492986D01*
X293941Y493077D01*
X293924Y493098D01*
X293914Y493122D01*
X293848Y493193D01*
X293787Y493269D01*
X293765Y493283D01*
X293747Y493303D01*
X293662Y493350D01*
X293580Y493402D01*
X293555Y493409D01*
X293532Y493421D01*
X293436Y493439D01*
X293342Y493462D01*
X293316Y493460D01*
X293290Y493465D01*
X293193Y493451D01*
X293096Y493443D01*
X293072Y493433D01*
X293047Y493429D01*
X292960Y493385D01*
X292870Y493347D01*
X292845Y493327D01*
X292827Y493318D01*
X292804Y493294D01*
X292739Y493242D01*
X291237Y491740D01*
X287223Y490077D01*
X282877Y490077D01*
X278863Y491740D01*
X275790Y494813D01*
X274127Y498827D01*
X274127Y503173D01*
X275790Y507187D01*
X278863Y510260D01*
X282877Y511923D01*
X287223Y511923D01*
X291237Y510260D01*
X292739Y508758D01*
X292818Y508701D01*
X292893Y508639D01*
X292918Y508630D01*
X292939Y508614D01*
X293032Y508586D01*
X293123Y508551D01*
X293149Y508550D01*
X293174Y508542D01*
X293271Y508545D01*
X293369Y508540D01*
X293394Y508548D01*
X293420Y508548D01*
X293511Y508582D01*
X293605Y508609D01*
X293626Y508624D01*
X293651Y508633D01*
X293727Y508694D01*
X293807Y508749D01*
X293822Y508770D01*
X293843Y508787D01*
X293896Y508868D01*
X293954Y508947D01*
X293962Y508971D01*
X293976Y508993D01*
X294000Y509088D01*
X294030Y509180D01*
X294030Y509207D01*
X294036Y509232D01*
X294028Y509329D01*
X294028Y509426D01*
X294018Y509458D01*
X294017Y509477D01*
X294004Y509507D01*
X293981Y509587D01*
X293177Y511527D01*
X293177Y515873D01*
X294840Y519887D01*
X297913Y522960D01*
X301927Y524623D01*
X306273Y524623D01*
X310287Y522960D01*
X310297Y522950D01*
X310314Y522938D01*
X310326Y522922D01*
X310413Y522866D01*
X310497Y522806D01*
X310516Y522800D01*
X310533Y522789D01*
X310634Y522764D01*
X310732Y522734D01*
X310752Y522734D01*
X310772Y522729D01*
X310875Y522737D01*
X310978Y522740D01*
X310997Y522747D01*
X311017Y522748D01*
X311112Y522789D01*
X311209Y522825D01*
X311225Y522837D01*
X311243Y522845D01*
X311374Y522950D01*
X313720Y525296D01*
X315729Y527305D01*
X398726Y527305D01*
X398816Y527319D01*
X398907Y527327D01*
X398937Y527339D01*
X398969Y527344D01*
X399049Y527387D01*
X399133Y527423D01*
X399165Y527449D01*
X399186Y527460D01*
X399208Y527483D01*
X399264Y527528D01*
X415297Y543561D01*
X416646Y543561D01*
X416760Y543580D01*
X416876Y543597D01*
X416882Y543599D01*
X416888Y543600D01*
X416991Y543655D01*
X417096Y543708D01*
X417100Y543713D01*
X417106Y543716D01*
X417186Y543800D01*
X417268Y543884D01*
X417272Y543890D01*
X417275Y543894D01*
X417283Y543911D01*
X417349Y544031D01*
X418035Y545687D01*
X420363Y548015D01*
X423404Y549275D01*
X426696Y549275D01*
X429737Y548015D01*
X432065Y545687D01*
X433325Y542646D01*
X433325Y539354D01*
X432065Y536313D01*
X429737Y533985D01*
X426696Y532725D01*
X423404Y532725D01*
X420363Y533985D01*
X417992Y536356D01*
X417983Y536367D01*
X417942Y536433D01*
X417907Y536462D01*
X417878Y536498D01*
X417813Y536540D01*
X417753Y536590D01*
X417710Y536606D01*
X417671Y536631D01*
X417596Y536650D01*
X417523Y536678D01*
X417477Y536680D01*
X417433Y536691D01*
X417355Y536685D01*
X417277Y536688D01*
X417233Y536675D01*
X417188Y536672D01*
X417116Y536641D01*
X417041Y536620D01*
X417003Y536594D01*
X416961Y536576D01*
X416855Y536490D01*
X416839Y536479D01*
X416836Y536475D01*
X416830Y536471D01*
X403576Y523216D01*
X401567Y521207D01*
X318570Y521207D01*
X318480Y521193D01*
X318389Y521185D01*
X318359Y521173D01*
X318327Y521168D01*
X318247Y521125D01*
X318163Y521089D01*
X318131Y521063D01*
X318110Y521052D01*
X318088Y521029D01*
X318032Y520984D01*
X314767Y517719D01*
X314699Y517625D01*
X314629Y517530D01*
X314627Y517524D01*
X314623Y517519D01*
X314589Y517408D01*
X314552Y517296D01*
X314553Y517290D01*
X314551Y517284D01*
X314554Y517167D01*
X314555Y517051D01*
X314557Y517043D01*
X314557Y517038D01*
X314563Y517021D01*
X314602Y516889D01*
X315023Y515873D01*
X315023Y511527D01*
X313360Y507513D01*
X310287Y504440D01*
X306273Y502777D01*
X301927Y502777D01*
X297913Y504440D01*
X296411Y505942D01*
X296332Y505999D01*
X296257Y506061D01*
X296232Y506070D01*
X296211Y506086D01*
X296118Y506114D01*
X296027Y506149D01*
X296001Y506150D01*
X295976Y506158D01*
X295879Y506155D01*
X295781Y506160D01*
X295756Y506152D01*
X295730Y506152D01*
X295639Y506118D01*
X295545Y506091D01*
X295524Y506076D01*
X295499Y506067D01*
X295423Y506006D01*
X295343Y505951D01*
X295328Y505930D01*
X295307Y505913D01*
X295254Y505832D01*
X295196Y505753D01*
X295188Y505729D01*
X295174Y505707D01*
X295150Y505612D01*
X295120Y505520D01*
X295120Y505493D01*
X295114Y505468D01*
X295122Y505371D01*
X295122Y505274D01*
X295132Y505242D01*
X295133Y505223D01*
X295146Y505193D01*
X295169Y505113D01*
X295973Y503173D01*
X295973Y498827D01*
X295169Y496887D01*
X295147Y496793D01*
X295118Y496700D01*
X295119Y496673D01*
X295113Y496648D01*
X295122Y496551D01*
X295125Y496454D01*
X295134Y496429D01*
X295136Y496403D01*
X295176Y496314D01*
X295209Y496223D01*
X295226Y496202D01*
X295236Y496178D01*
X295302Y496107D01*
X295363Y496031D01*
X295385Y496017D01*
X295403Y495997D01*
X295488Y495950D01*
X295570Y495898D01*
X295595Y495891D01*
X295618Y495879D01*
X295714Y495861D01*
X295808Y495838D01*
X295834Y495840D01*
X295860Y495835D01*
X295957Y495849D01*
X296054Y495857D01*
X296078Y495867D01*
X296103Y495871D01*
X296190Y495915D01*
X296280Y495953D01*
X296305Y495973D01*
X296323Y495982D01*
X296346Y496006D01*
X296411Y496058D01*
X297913Y497560D01*
X301927Y499223D01*
X306273Y499223D01*
X310287Y497560D01*
X313360Y494487D01*
X315023Y490473D01*
X315023Y486127D01*
X313360Y482113D01*
X310287Y479040D01*
X306273Y477377D01*
X301927Y477377D01*
G37*
%LPD*%
%LPC*%
G36*
X423029Y367225D02*
X423029Y367225D01*
X419988Y368485D01*
X417660Y370813D01*
X417176Y371981D01*
X417115Y372080D01*
X417054Y372181D01*
X417050Y372185D01*
X417046Y372190D01*
X416957Y372265D01*
X416868Y372341D01*
X416862Y372343D01*
X416857Y372347D01*
X416749Y372389D01*
X416639Y372433D01*
X416632Y372434D01*
X416627Y372435D01*
X416609Y372436D01*
X416473Y372451D01*
X273237Y372451D01*
X265460Y380228D01*
X265386Y380281D01*
X265317Y380341D01*
X265287Y380353D01*
X265260Y380372D01*
X265173Y380399D01*
X265089Y380433D01*
X265048Y380437D01*
X265025Y380444D01*
X264993Y380443D01*
X264922Y380451D01*
X263116Y380451D01*
X260451Y383116D01*
X260451Y386884D01*
X263116Y389549D01*
X266884Y389549D01*
X269549Y386884D01*
X269549Y385078D01*
X269563Y384988D01*
X269571Y384897D01*
X269583Y384867D01*
X269588Y384835D01*
X269631Y384755D01*
X269667Y384671D01*
X269693Y384639D01*
X269704Y384618D01*
X269727Y384596D01*
X269772Y384540D01*
X275540Y378772D01*
X275614Y378719D01*
X275683Y378659D01*
X275713Y378647D01*
X275740Y378628D01*
X275827Y378601D01*
X275911Y378567D01*
X275952Y378563D01*
X275975Y378556D01*
X276007Y378557D01*
X276078Y378549D01*
X416473Y378549D01*
X416587Y378568D01*
X416704Y378585D01*
X416709Y378587D01*
X416715Y378588D01*
X416818Y378643D01*
X416923Y378696D01*
X416927Y378701D01*
X416933Y378704D01*
X417013Y378788D01*
X417095Y378872D01*
X417099Y378878D01*
X417102Y378882D01*
X417110Y378899D01*
X417176Y379019D01*
X417660Y380187D01*
X419988Y382515D01*
X423029Y383775D01*
X426321Y383775D01*
X429362Y382515D01*
X431690Y380187D01*
X432950Y377146D01*
X432950Y373854D01*
X431690Y370813D01*
X429362Y368485D01*
X426321Y367225D01*
X423029Y367225D01*
G37*
%LPD*%
%LPC*%
G36*
X335116Y551451D02*
X335116Y551451D01*
X332451Y554116D01*
X332451Y557884D01*
X335116Y560549D01*
X338884Y560549D01*
X340161Y559272D01*
X340235Y559219D01*
X340305Y559159D01*
X340335Y559147D01*
X340361Y559128D01*
X340448Y559101D01*
X340533Y559067D01*
X340574Y559063D01*
X340596Y559056D01*
X340628Y559057D01*
X340699Y559049D01*
X506301Y559049D01*
X506391Y559063D01*
X506482Y559071D01*
X506511Y559083D01*
X506543Y559088D01*
X506624Y559131D01*
X506708Y559167D01*
X506740Y559193D01*
X506761Y559204D01*
X506783Y559227D01*
X506839Y559272D01*
X508116Y560549D01*
X511884Y560549D01*
X514549Y557884D01*
X514549Y554116D01*
X511884Y551451D01*
X508116Y551451D01*
X506839Y552728D01*
X506765Y552781D01*
X506695Y552841D01*
X506665Y552853D01*
X506639Y552872D01*
X506552Y552899D01*
X506467Y552933D01*
X506426Y552937D01*
X506404Y552944D01*
X506372Y552943D01*
X506301Y552951D01*
X340699Y552951D01*
X340609Y552937D01*
X340518Y552929D01*
X340489Y552917D01*
X340457Y552912D01*
X340376Y552869D01*
X340292Y552833D01*
X340260Y552807D01*
X340239Y552796D01*
X340217Y552773D01*
X340161Y552728D01*
X338884Y551451D01*
X335116Y551451D01*
G37*
%LPD*%
%LPC*%
G36*
X534128Y516935D02*
X534128Y516935D01*
X533235Y517828D01*
X533235Y533172D01*
X534128Y534065D01*
X545738Y534065D01*
X545828Y534079D01*
X545919Y534087D01*
X545949Y534099D01*
X545981Y534104D01*
X546061Y534147D01*
X546145Y534183D01*
X546177Y534209D01*
X546198Y534220D01*
X546220Y534243D01*
X546276Y534288D01*
X548908Y536920D01*
X548955Y536985D01*
X548967Y536998D01*
X548970Y537004D01*
X549021Y537063D01*
X549033Y537093D01*
X549052Y537120D01*
X549079Y537207D01*
X549113Y537291D01*
X549117Y537332D01*
X549124Y537355D01*
X549123Y537387D01*
X549131Y537458D01*
X549131Y547924D01*
X549128Y547944D01*
X549130Y547963D01*
X549108Y548065D01*
X549092Y548167D01*
X549082Y548184D01*
X549078Y548204D01*
X549025Y548293D01*
X548976Y548384D01*
X548962Y548398D01*
X548952Y548415D01*
X548873Y548482D01*
X548798Y548554D01*
X548780Y548562D01*
X548765Y548575D01*
X548669Y548614D01*
X548575Y548657D01*
X548555Y548659D01*
X548537Y548667D01*
X548370Y548685D01*
X534928Y548685D01*
X534035Y549578D01*
X534035Y564922D01*
X534928Y565815D01*
X545558Y565815D01*
X545629Y565826D01*
X545700Y565828D01*
X545749Y565846D01*
X545801Y565854D01*
X545864Y565888D01*
X545931Y565913D01*
X545972Y565945D01*
X546018Y565970D01*
X546067Y566022D01*
X546123Y566066D01*
X546152Y566110D01*
X546188Y566148D01*
X546218Y566213D01*
X546256Y566273D01*
X546269Y566324D01*
X546291Y566371D01*
X546299Y566442D01*
X546317Y566512D01*
X546312Y566564D01*
X546318Y566615D01*
X546303Y566686D01*
X546297Y566757D01*
X546277Y566805D01*
X546266Y566856D01*
X546229Y566917D01*
X546201Y566983D01*
X546156Y567039D01*
X546140Y567067D01*
X546122Y567082D01*
X546096Y567114D01*
X539551Y573659D01*
X539551Y574134D01*
X539533Y574248D01*
X539515Y574365D01*
X539513Y574370D01*
X539512Y574377D01*
X539457Y574479D01*
X539404Y574584D01*
X539399Y574588D01*
X539396Y574594D01*
X539312Y574674D01*
X539228Y574756D01*
X539222Y574760D01*
X539218Y574763D01*
X539201Y574771D01*
X539081Y574837D01*
X537748Y575389D01*
X535339Y577798D01*
X534035Y580946D01*
X534035Y584354D01*
X535339Y587502D01*
X537748Y589911D01*
X540896Y591215D01*
X544304Y591215D01*
X547452Y589911D01*
X549861Y587502D01*
X551165Y584354D01*
X551165Y580946D01*
X549861Y577798D01*
X547486Y575424D01*
X547475Y575408D01*
X547459Y575395D01*
X547403Y575308D01*
X547343Y575224D01*
X547337Y575205D01*
X547326Y575188D01*
X547301Y575088D01*
X547270Y574989D01*
X547271Y574969D01*
X547266Y574950D01*
X547274Y574847D01*
X547277Y574743D01*
X547284Y574724D01*
X547285Y574705D01*
X547326Y574610D01*
X547361Y574512D01*
X547374Y574497D01*
X547382Y574478D01*
X547486Y574347D01*
X555229Y566605D01*
X555229Y534617D01*
X550588Y529976D01*
X550535Y529902D01*
X550475Y529833D01*
X550463Y529803D01*
X550444Y529776D01*
X550417Y529689D01*
X550383Y529605D01*
X550379Y529564D01*
X550372Y529541D01*
X550373Y529509D01*
X550365Y529438D01*
X550365Y517828D01*
X549472Y516935D01*
X534128Y516935D01*
G37*
%LPD*%
%LPC*%
G36*
X815149Y173999D02*
X815149Y173999D01*
X815149Y174762D01*
X815146Y174782D01*
X815148Y174801D01*
X815126Y174903D01*
X815109Y175005D01*
X815100Y175022D01*
X815096Y175042D01*
X815043Y175131D01*
X814994Y175222D01*
X814980Y175236D01*
X814970Y175253D01*
X814891Y175320D01*
X814816Y175391D01*
X814798Y175400D01*
X814783Y175413D01*
X814687Y175452D01*
X814593Y175495D01*
X814573Y175497D01*
X814555Y175505D01*
X814388Y175523D01*
X801814Y175523D01*
X801814Y179524D01*
X809182Y186891D01*
X809193Y186908D01*
X809209Y186920D01*
X809265Y187007D01*
X809325Y187091D01*
X809331Y187110D01*
X809342Y187127D01*
X809367Y187227D01*
X809398Y187326D01*
X809397Y187346D01*
X809402Y187365D01*
X809394Y187468D01*
X809391Y187572D01*
X809384Y187591D01*
X809383Y187611D01*
X809343Y187705D01*
X809307Y187803D01*
X809294Y187819D01*
X809287Y187837D01*
X809182Y187968D01*
X807098Y190052D01*
X805499Y193911D01*
X805499Y198089D01*
X807098Y201948D01*
X810052Y204902D01*
X810517Y205095D01*
X810600Y205146D01*
X810686Y205192D01*
X810704Y205211D01*
X810726Y205224D01*
X810788Y205299D01*
X810855Y205370D01*
X810866Y205394D01*
X810883Y205414D01*
X810918Y205505D01*
X810959Y205593D01*
X810962Y205619D01*
X810971Y205643D01*
X810975Y205741D01*
X810986Y205837D01*
X810980Y205863D01*
X810981Y205889D01*
X810954Y205983D01*
X810934Y206078D01*
X810920Y206100D01*
X810913Y206125D01*
X810857Y206205D01*
X810807Y206289D01*
X810787Y206306D01*
X810773Y206327D01*
X810695Y206385D01*
X810620Y206449D01*
X810596Y206459D01*
X810575Y206474D01*
X810483Y206504D01*
X810392Y206541D01*
X810360Y206544D01*
X810341Y206550D01*
X810308Y206550D01*
X810226Y206559D01*
X808783Y206559D01*
X806872Y206862D01*
X805032Y207460D01*
X803308Y208338D01*
X801743Y209475D01*
X800375Y210843D01*
X799238Y212408D01*
X798360Y214132D01*
X797762Y215972D01*
X797547Y217327D01*
X818738Y217327D01*
X818758Y217330D01*
X818777Y217328D01*
X818879Y217350D01*
X818981Y217367D01*
X818998Y217376D01*
X819018Y217380D01*
X819107Y217433D01*
X819198Y217482D01*
X819212Y217496D01*
X819229Y217506D01*
X819296Y217585D01*
X819367Y217660D01*
X819376Y217678D01*
X819389Y217693D01*
X819427Y217789D01*
X819471Y217883D01*
X819473Y217903D01*
X819481Y217921D01*
X819499Y218088D01*
X819499Y218851D01*
X819501Y218851D01*
X819501Y218088D01*
X819504Y218068D01*
X819502Y218049D01*
X819524Y217947D01*
X819541Y217845D01*
X819550Y217828D01*
X819554Y217808D01*
X819607Y217719D01*
X819656Y217628D01*
X819670Y217614D01*
X819680Y217597D01*
X819759Y217530D01*
X819834Y217459D01*
X819852Y217450D01*
X819867Y217437D01*
X819963Y217398D01*
X820057Y217355D01*
X820077Y217353D01*
X820095Y217345D01*
X820262Y217327D01*
X841453Y217327D01*
X841238Y215972D01*
X840640Y214132D01*
X839762Y212408D01*
X838625Y210843D01*
X837257Y209475D01*
X835692Y208338D01*
X833968Y207460D01*
X832128Y206862D01*
X830217Y206559D01*
X821774Y206559D01*
X821679Y206544D01*
X821581Y206534D01*
X821557Y206524D01*
X821532Y206520D01*
X821446Y206474D01*
X821357Y206434D01*
X821337Y206417D01*
X821314Y206404D01*
X821247Y206334D01*
X821176Y206268D01*
X821163Y206245D01*
X821145Y206226D01*
X821104Y206138D01*
X821057Y206052D01*
X821052Y206027D01*
X821041Y206003D01*
X821031Y205906D01*
X821013Y205810D01*
X821017Y205784D01*
X821014Y205759D01*
X821035Y205664D01*
X821049Y205567D01*
X821061Y205544D01*
X821066Y205518D01*
X821116Y205435D01*
X821161Y205348D01*
X821179Y205329D01*
X821193Y205307D01*
X821267Y205244D01*
X821336Y205176D01*
X821365Y205160D01*
X821380Y205147D01*
X821410Y205135D01*
X821483Y205095D01*
X821948Y204902D01*
X824902Y201948D01*
X826501Y198089D01*
X826501Y193911D01*
X824902Y190052D01*
X821968Y187118D01*
X821957Y187102D01*
X821941Y187089D01*
X821885Y187002D01*
X821825Y186918D01*
X821819Y186899D01*
X821808Y186882D01*
X821783Y186782D01*
X821752Y186683D01*
X821753Y186663D01*
X821748Y186644D01*
X821756Y186541D01*
X821759Y186437D01*
X821766Y186418D01*
X821767Y186399D01*
X821807Y186304D01*
X821843Y186206D01*
X821856Y186191D01*
X821863Y186172D01*
X821968Y186041D01*
X828486Y179524D01*
X828486Y175523D01*
X815912Y175523D01*
X815892Y175520D01*
X815873Y175522D01*
X815771Y175500D01*
X815669Y175483D01*
X815652Y175474D01*
X815632Y175470D01*
X815543Y175417D01*
X815452Y175368D01*
X815438Y175354D01*
X815421Y175344D01*
X815354Y175265D01*
X815283Y175190D01*
X815274Y175172D01*
X815261Y175157D01*
X815223Y175061D01*
X815179Y174967D01*
X815177Y174947D01*
X815169Y174929D01*
X815151Y174762D01*
X815151Y173999D01*
X815149Y173999D01*
G37*
%LPD*%
%LPC*%
G36*
X388911Y111499D02*
X388911Y111499D01*
X385052Y113098D01*
X382098Y116052D01*
X380499Y119911D01*
X380499Y124089D01*
X382098Y127948D01*
X385052Y130902D01*
X385430Y131059D01*
X385469Y131083D01*
X385512Y131099D01*
X385573Y131147D01*
X385639Y131188D01*
X385668Y131224D01*
X385704Y131252D01*
X385746Y131318D01*
X385796Y131378D01*
X385812Y131421D01*
X385837Y131459D01*
X385856Y131535D01*
X385884Y131607D01*
X385886Y131653D01*
X385897Y131698D01*
X385891Y131775D01*
X385894Y131853D01*
X385882Y131897D01*
X385878Y131943D01*
X385848Y132015D01*
X385826Y132089D01*
X385800Y132127D01*
X385782Y132169D01*
X385696Y132276D01*
X385686Y132291D01*
X385682Y132294D01*
X385677Y132300D01*
X378880Y139097D01*
X378880Y149303D01*
X386097Y156520D01*
X396303Y156520D01*
X403520Y149303D01*
X403520Y139097D01*
X396606Y132183D01*
X396579Y132146D01*
X396545Y132115D01*
X396508Y132047D01*
X396462Y131983D01*
X396449Y131940D01*
X396427Y131899D01*
X396413Y131823D01*
X396390Y131748D01*
X396391Y131702D01*
X396383Y131657D01*
X396394Y131580D01*
X396396Y131502D01*
X396412Y131459D01*
X396419Y131414D01*
X396454Y131345D01*
X396481Y131271D01*
X396510Y131236D01*
X396530Y131195D01*
X396578Y131148D01*
X396578Y131147D01*
X396580Y131146D01*
X396586Y131140D01*
X396635Y131079D01*
X396673Y131055D01*
X396706Y131022D01*
X396758Y130994D01*
X396765Y130987D01*
X396781Y130981D01*
X396826Y130957D01*
X396841Y130946D01*
X396846Y130945D01*
X396853Y130942D01*
X396948Y130902D01*
X399902Y127948D01*
X401501Y124089D01*
X401501Y119911D01*
X399902Y116052D01*
X396948Y113098D01*
X393089Y111499D01*
X388911Y111499D01*
G37*
%LPD*%
%LPC*%
G36*
X356911Y111499D02*
X356911Y111499D01*
X353052Y113098D01*
X350098Y116052D01*
X348499Y119911D01*
X348499Y124089D01*
X350098Y127948D01*
X353052Y130902D01*
X353182Y130956D01*
X353221Y130980D01*
X353265Y130996D01*
X353325Y131045D01*
X353392Y131086D01*
X353421Y131121D01*
X353457Y131150D01*
X353499Y131215D01*
X353548Y131275D01*
X353565Y131318D01*
X353590Y131357D01*
X353609Y131432D01*
X353637Y131505D01*
X353638Y131551D01*
X353650Y131595D01*
X353644Y131673D01*
X353647Y131751D01*
X353634Y131795D01*
X353631Y131841D01*
X353600Y131912D01*
X353578Y131987D01*
X353552Y132025D01*
X353534Y132067D01*
X353449Y132173D01*
X353438Y132189D01*
X353434Y132192D01*
X353429Y132198D01*
X346530Y139097D01*
X346530Y149303D01*
X353747Y156520D01*
X363953Y156520D01*
X371170Y149303D01*
X371170Y139097D01*
X364358Y132286D01*
X364332Y132248D01*
X364298Y132217D01*
X364260Y132149D01*
X364215Y132086D01*
X364201Y132042D01*
X364179Y132002D01*
X364165Y131925D01*
X364142Y131851D01*
X364144Y131805D01*
X364136Y131760D01*
X364147Y131683D01*
X364149Y131605D01*
X364165Y131562D01*
X364171Y131516D01*
X364207Y131447D01*
X364233Y131374D01*
X364262Y131338D01*
X364283Y131297D01*
X364338Y131243D01*
X364387Y131182D01*
X364426Y131157D01*
X364458Y131125D01*
X364578Y131059D01*
X364594Y131049D01*
X364599Y131048D01*
X364605Y131044D01*
X364948Y130902D01*
X367902Y127948D01*
X369501Y124089D01*
X369501Y119911D01*
X367902Y116052D01*
X364948Y113098D01*
X361089Y111499D01*
X356911Y111499D01*
G37*
%LPD*%
%LPC*%
G36*
X107757Y153725D02*
X107757Y153725D01*
X103613Y155442D01*
X100442Y158613D01*
X98725Y162757D01*
X98725Y186743D01*
X100442Y190887D01*
X103613Y194058D01*
X107757Y195775D01*
X112243Y195775D01*
X116387Y194058D01*
X119558Y190887D01*
X121275Y186743D01*
X121275Y162757D01*
X119558Y158613D01*
X116387Y155442D01*
X112243Y153725D01*
X107757Y153725D01*
G37*
%LPD*%
%LPC*%
G36*
X139757Y153725D02*
X139757Y153725D01*
X135613Y155442D01*
X132442Y158613D01*
X130725Y162757D01*
X130725Y186743D01*
X132442Y190887D01*
X135613Y194058D01*
X139757Y195775D01*
X144243Y195775D01*
X148387Y194058D01*
X151558Y190887D01*
X153275Y186743D01*
X153275Y162757D01*
X151558Y158613D01*
X148387Y155442D01*
X144243Y153725D01*
X139757Y153725D01*
G37*
%LPD*%
%LPC*%
G36*
X145307Y207575D02*
X145307Y207575D01*
X141163Y209292D01*
X137992Y212463D01*
X136275Y216607D01*
X136275Y221093D01*
X137992Y225237D01*
X141163Y228408D01*
X145307Y230125D01*
X169293Y230125D01*
X173437Y228408D01*
X176608Y225237D01*
X178325Y221093D01*
X178325Y216607D01*
X176608Y212463D01*
X173437Y209292D01*
X169293Y207575D01*
X145307Y207575D01*
G37*
%LPD*%
%LPC*%
G36*
X680507Y369875D02*
X680507Y369875D01*
X676363Y371592D01*
X673192Y374763D01*
X671475Y378907D01*
X671475Y383393D01*
X673192Y387537D01*
X676363Y390708D01*
X680507Y392425D01*
X704493Y392425D01*
X708637Y390708D01*
X711808Y387537D01*
X713525Y383393D01*
X713525Y378907D01*
X711808Y374763D01*
X708637Y371592D01*
X704493Y369875D01*
X680507Y369875D01*
G37*
%LPD*%
%LPC*%
G36*
X107757Y104225D02*
X107757Y104225D01*
X103613Y105942D01*
X100442Y109113D01*
X98725Y113257D01*
X98725Y137243D01*
X100442Y141387D01*
X103613Y144558D01*
X107757Y146275D01*
X112243Y146275D01*
X116387Y144558D01*
X119558Y141387D01*
X121275Y137243D01*
X121275Y113257D01*
X119558Y109113D01*
X116387Y105942D01*
X112243Y104225D01*
X107757Y104225D01*
G37*
%LPD*%
%LPC*%
G36*
X75757Y104225D02*
X75757Y104225D01*
X71613Y105942D01*
X68442Y109113D01*
X66725Y113257D01*
X66725Y137243D01*
X68442Y141387D01*
X71613Y144558D01*
X75757Y146275D01*
X80243Y146275D01*
X84387Y144558D01*
X87558Y141387D01*
X89275Y137243D01*
X89275Y113257D01*
X87558Y109113D01*
X84387Y105942D01*
X80243Y104225D01*
X75757Y104225D01*
G37*
%LPD*%
%LPC*%
G36*
X139757Y104225D02*
X139757Y104225D01*
X135613Y105942D01*
X132442Y109113D01*
X130725Y113257D01*
X130725Y137243D01*
X132442Y141387D01*
X135613Y144558D01*
X139757Y146275D01*
X144243Y146275D01*
X148387Y144558D01*
X151558Y141387D01*
X153275Y137243D01*
X153275Y113257D01*
X151558Y109113D01*
X148387Y105942D01*
X144243Y104225D01*
X139757Y104225D01*
G37*
%LPD*%
%LPC*%
G36*
X241077Y21129D02*
X241077Y21129D01*
X237063Y22792D01*
X233990Y25865D01*
X232327Y29879D01*
X232327Y53021D01*
X233990Y57035D01*
X237063Y60108D01*
X241077Y61771D01*
X245423Y61771D01*
X249437Y60108D01*
X252510Y57035D01*
X254173Y53021D01*
X254173Y29879D01*
X252510Y25865D01*
X249437Y22792D01*
X245423Y21129D01*
X241077Y21129D01*
G37*
%LPD*%
%LPC*%
G36*
X684927Y870779D02*
X684927Y870779D01*
X680913Y872442D01*
X677840Y875515D01*
X676177Y879529D01*
X676177Y902671D01*
X677840Y906685D01*
X680913Y909758D01*
X684927Y911421D01*
X689273Y911421D01*
X693287Y909758D01*
X696360Y906685D01*
X698023Y902671D01*
X698023Y879529D01*
X696360Y875515D01*
X693287Y872442D01*
X689273Y870779D01*
X684927Y870779D01*
G37*
%LPD*%
%LPC*%
G36*
X266477Y21129D02*
X266477Y21129D01*
X262463Y22792D01*
X259390Y25865D01*
X257727Y29879D01*
X257727Y53021D01*
X259390Y57035D01*
X262463Y60108D01*
X266477Y61771D01*
X270823Y61771D01*
X274837Y60108D01*
X277910Y57035D01*
X279573Y53021D01*
X279573Y29879D01*
X277910Y25865D01*
X274837Y22792D01*
X270823Y21129D01*
X266477Y21129D01*
G37*
%LPD*%
%LPC*%
G36*
X761127Y870779D02*
X761127Y870779D01*
X757113Y872442D01*
X754040Y875515D01*
X752377Y879529D01*
X752377Y902671D01*
X754040Y906685D01*
X757113Y909758D01*
X761127Y911421D01*
X765473Y911421D01*
X769487Y909758D01*
X772560Y906685D01*
X774223Y902671D01*
X774223Y879529D01*
X772560Y875515D01*
X769487Y872442D01*
X765473Y870779D01*
X761127Y870779D01*
G37*
%LPD*%
%LPC*%
G36*
X291877Y21129D02*
X291877Y21129D01*
X287863Y22792D01*
X284790Y25865D01*
X283127Y29879D01*
X283127Y53021D01*
X284790Y57035D01*
X287863Y60108D01*
X291877Y61771D01*
X296223Y61771D01*
X300237Y60108D01*
X303310Y57035D01*
X304973Y53021D01*
X304973Y29879D01*
X303310Y25865D01*
X300237Y22792D01*
X296223Y21129D01*
X291877Y21129D01*
G37*
%LPD*%
%LPC*%
G36*
X710327Y870779D02*
X710327Y870779D01*
X706313Y872442D01*
X703240Y875515D01*
X701577Y879529D01*
X701577Y902671D01*
X703240Y906685D01*
X706313Y909758D01*
X710327Y911421D01*
X714673Y911421D01*
X718687Y909758D01*
X721760Y906685D01*
X723423Y902671D01*
X723423Y879529D01*
X721760Y875515D01*
X718687Y872442D01*
X714673Y870779D01*
X710327Y870779D01*
G37*
%LPD*%
%LPC*%
G36*
X368077Y21129D02*
X368077Y21129D01*
X364063Y22792D01*
X360990Y25865D01*
X359327Y29879D01*
X359327Y53021D01*
X360990Y57035D01*
X364063Y60108D01*
X368077Y61771D01*
X372423Y61771D01*
X376437Y60108D01*
X379510Y57035D01*
X381173Y53021D01*
X381173Y29879D01*
X379510Y25865D01*
X376437Y22792D01*
X372423Y21129D01*
X368077Y21129D01*
G37*
%LPD*%
%LPC*%
G36*
X317277Y21129D02*
X317277Y21129D01*
X313263Y22792D01*
X310190Y25865D01*
X308527Y29879D01*
X308527Y53021D01*
X310190Y57035D01*
X313263Y60108D01*
X317277Y61771D01*
X321623Y61771D01*
X325637Y60108D01*
X328710Y57035D01*
X330373Y53021D01*
X330373Y29879D01*
X328710Y25865D01*
X325637Y22792D01*
X321623Y21129D01*
X317277Y21129D01*
G37*
%LPD*%
%LPC*%
G36*
X526116Y327451D02*
X526116Y327451D01*
X523451Y330116D01*
X523451Y333884D01*
X526116Y336549D01*
X526922Y336549D01*
X527012Y336563D01*
X527103Y336571D01*
X527133Y336583D01*
X527165Y336588D01*
X527245Y336631D01*
X527329Y336667D01*
X527361Y336693D01*
X527382Y336704D01*
X527404Y336727D01*
X527460Y336772D01*
X586728Y396040D01*
X586781Y396114D01*
X586841Y396183D01*
X586853Y396213D01*
X586872Y396240D01*
X586899Y396327D01*
X586933Y396411D01*
X586937Y396452D01*
X586944Y396475D01*
X586943Y396507D01*
X586951Y396578D01*
X586951Y409301D01*
X586937Y409391D01*
X586929Y409482D01*
X586917Y409511D01*
X586912Y409543D01*
X586869Y409624D01*
X586833Y409708D01*
X586807Y409740D01*
X586796Y409761D01*
X586773Y409783D01*
X586728Y409839D01*
X585451Y411116D01*
X585451Y414884D01*
X588116Y417549D01*
X591884Y417549D01*
X594549Y414884D01*
X594549Y411116D01*
X593272Y409839D01*
X593219Y409765D01*
X593159Y409695D01*
X593147Y409665D01*
X593128Y409639D01*
X593101Y409552D01*
X593067Y409467D01*
X593063Y409426D01*
X593056Y409404D01*
X593057Y409372D01*
X593049Y409301D01*
X593049Y393737D01*
X532772Y333460D01*
X532719Y333386D01*
X532659Y333317D01*
X532647Y333287D01*
X532628Y333260D01*
X532601Y333173D01*
X532567Y333089D01*
X532563Y333048D01*
X532556Y333025D01*
X532557Y332993D01*
X532549Y332922D01*
X532549Y330116D01*
X529884Y327451D01*
X526116Y327451D01*
G37*
%LPD*%
%LPC*%
G36*
X366868Y341225D02*
X366868Y341225D01*
X365975Y342118D01*
X365975Y365882D01*
X366868Y366775D01*
X390632Y366775D01*
X391525Y365882D01*
X391525Y342118D01*
X390632Y341225D01*
X366868Y341225D01*
G37*
%LPD*%
%LPC*%
G36*
X69368Y833225D02*
X69368Y833225D01*
X68475Y834118D01*
X68475Y857882D01*
X69368Y858775D01*
X93132Y858775D01*
X94025Y857882D01*
X94025Y834118D01*
X93132Y833225D01*
X69368Y833225D01*
G37*
%LPD*%
%LPC*%
G36*
X459368Y837225D02*
X459368Y837225D01*
X458475Y838118D01*
X458475Y861882D01*
X459368Y862775D01*
X483132Y862775D01*
X484025Y861882D01*
X484025Y838118D01*
X483132Y837225D01*
X459368Y837225D01*
G37*
%LPD*%
%LPC*%
G36*
X589368Y837225D02*
X589368Y837225D01*
X588475Y838118D01*
X588475Y861882D01*
X589368Y862775D01*
X613132Y862775D01*
X614025Y861882D01*
X614025Y838118D01*
X613132Y837225D01*
X589368Y837225D01*
G37*
%LPD*%
%LPC*%
G36*
X329368Y837225D02*
X329368Y837225D01*
X328475Y838118D01*
X328475Y861882D01*
X329368Y862775D01*
X353132Y862775D01*
X354025Y861882D01*
X354025Y838118D01*
X353132Y837225D01*
X329368Y837225D01*
G37*
%LPD*%
%LPC*%
G36*
X199368Y833225D02*
X199368Y833225D01*
X198475Y834118D01*
X198475Y857882D01*
X199368Y858775D01*
X223132Y858775D01*
X224025Y857882D01*
X224025Y834118D01*
X223132Y833225D01*
X199368Y833225D01*
G37*
%LPD*%
%LPC*%
G36*
X496868Y341225D02*
X496868Y341225D01*
X495975Y342118D01*
X495975Y365882D01*
X496868Y366775D01*
X520632Y366775D01*
X521525Y365882D01*
X521525Y342118D01*
X520632Y341225D01*
X496868Y341225D01*
G37*
%LPD*%
%LPC*%
G36*
X626868Y341225D02*
X626868Y341225D01*
X625975Y342118D01*
X625975Y365882D01*
X626868Y366775D01*
X650632Y366775D01*
X651525Y365882D01*
X651525Y342118D01*
X650632Y341225D01*
X626868Y341225D01*
G37*
%LPD*%
%LPC*%
G36*
X236868Y337225D02*
X236868Y337225D01*
X235975Y338118D01*
X235975Y361882D01*
X236868Y362775D01*
X260632Y362775D01*
X261525Y361882D01*
X261525Y338118D01*
X260632Y337225D01*
X236868Y337225D01*
G37*
%LPD*%
%LPC*%
G36*
X199368Y337225D02*
X199368Y337225D01*
X198475Y338118D01*
X198475Y361882D01*
X199368Y362775D01*
X223132Y362775D01*
X224025Y361882D01*
X224025Y338118D01*
X223132Y337225D01*
X199368Y337225D01*
G37*
%LPD*%
%LPC*%
G36*
X279746Y626785D02*
X279746Y626785D01*
X276598Y628089D01*
X274189Y630498D01*
X272885Y633646D01*
X272885Y637054D01*
X274189Y640202D01*
X276598Y642611D01*
X279746Y643915D01*
X283154Y643915D01*
X286302Y642611D01*
X288711Y640202D01*
X288784Y640024D01*
X288808Y639985D01*
X288824Y639942D01*
X288873Y639881D01*
X288914Y639815D01*
X288949Y639786D01*
X288978Y639750D01*
X289043Y639708D01*
X289103Y639658D01*
X289146Y639642D01*
X289185Y639617D01*
X289260Y639598D01*
X289333Y639570D01*
X289379Y639568D01*
X289423Y639557D01*
X289501Y639563D01*
X289579Y639560D01*
X289623Y639573D01*
X289669Y639576D01*
X289740Y639607D01*
X289815Y639628D01*
X289853Y639655D01*
X289895Y639673D01*
X290002Y639758D01*
X290017Y639769D01*
X290020Y639773D01*
X290026Y639777D01*
X291345Y641097D01*
X298074Y641097D01*
X298094Y641100D01*
X298113Y641098D01*
X298215Y641120D01*
X298317Y641136D01*
X298334Y641146D01*
X298354Y641150D01*
X298443Y641203D01*
X298534Y641252D01*
X298548Y641266D01*
X298565Y641276D01*
X298632Y641355D01*
X298704Y641430D01*
X298712Y641448D01*
X298725Y641463D01*
X298764Y641559D01*
X298807Y641653D01*
X298809Y641673D01*
X298817Y641691D01*
X298835Y641858D01*
X298835Y647022D01*
X299728Y647915D01*
X315072Y647915D01*
X315965Y647022D01*
X315965Y631678D01*
X315072Y630785D01*
X299728Y630785D01*
X298835Y631678D01*
X298835Y634238D01*
X298832Y634258D01*
X298834Y634277D01*
X298812Y634379D01*
X298796Y634481D01*
X298786Y634498D01*
X298782Y634518D01*
X298729Y634607D01*
X298680Y634698D01*
X298666Y634712D01*
X298656Y634729D01*
X298577Y634796D01*
X298502Y634868D01*
X298484Y634876D01*
X298469Y634889D01*
X298373Y634928D01*
X298279Y634971D01*
X298259Y634973D01*
X298241Y634981D01*
X298074Y634999D01*
X294186Y634999D01*
X294096Y634985D01*
X294005Y634977D01*
X293975Y634965D01*
X293943Y634960D01*
X293863Y634917D01*
X293779Y634881D01*
X293747Y634855D01*
X293726Y634844D01*
X293704Y634821D01*
X293648Y634776D01*
X291839Y632967D01*
X290242Y632967D01*
X290127Y632948D01*
X290011Y632931D01*
X290006Y632929D01*
X289999Y632928D01*
X289897Y632873D01*
X289792Y632820D01*
X289787Y632815D01*
X289782Y632812D01*
X289702Y632728D01*
X289620Y632644D01*
X289616Y632638D01*
X289613Y632634D01*
X289605Y632617D01*
X289539Y632497D01*
X288711Y630498D01*
X286302Y628089D01*
X283154Y626785D01*
X279746Y626785D01*
G37*
%LPD*%
%LPC*%
G36*
X412644Y40155D02*
X412644Y40155D01*
X409979Y42820D01*
X409979Y44626D01*
X409965Y44716D01*
X409957Y44807D01*
X409945Y44837D01*
X409940Y44869D01*
X409897Y44949D01*
X409861Y45033D01*
X409835Y45065D01*
X409824Y45086D01*
X409801Y45108D01*
X409756Y45164D01*
X368252Y86668D01*
X368178Y86721D01*
X368109Y86781D01*
X368079Y86793D01*
X368052Y86812D01*
X367965Y86839D01*
X367881Y86873D01*
X367840Y86877D01*
X367817Y86884D01*
X367785Y86883D01*
X367714Y86891D01*
X365908Y86891D01*
X363243Y89556D01*
X363243Y93324D01*
X365908Y95989D01*
X369676Y95989D01*
X372341Y93324D01*
X372341Y91518D01*
X372355Y91428D01*
X372363Y91337D01*
X372375Y91307D01*
X372380Y91275D01*
X372423Y91195D01*
X372459Y91111D01*
X372485Y91079D01*
X372496Y91058D01*
X372519Y91036D01*
X372564Y90980D01*
X414068Y49476D01*
X414142Y49423D01*
X414211Y49363D01*
X414241Y49351D01*
X414268Y49332D01*
X414355Y49305D01*
X414439Y49271D01*
X414480Y49267D01*
X414503Y49260D01*
X414535Y49261D01*
X414606Y49253D01*
X416412Y49253D01*
X419077Y46588D01*
X419077Y42820D01*
X416412Y40155D01*
X412644Y40155D01*
G37*
%LPD*%
%LPC*%
G36*
X771779Y576471D02*
X771779Y576471D01*
X768791Y577709D01*
X766505Y579995D01*
X765267Y582983D01*
X765267Y586217D01*
X766505Y589205D01*
X768791Y591491D01*
X771779Y592729D01*
X788221Y592729D01*
X791209Y591491D01*
X793495Y589205D01*
X794733Y586217D01*
X794733Y582983D01*
X793495Y579995D01*
X791209Y577709D01*
X788221Y576471D01*
X771779Y576471D01*
G37*
%LPD*%
%LPC*%
G36*
X711779Y471471D02*
X711779Y471471D01*
X708791Y472709D01*
X706505Y474995D01*
X705267Y477983D01*
X705267Y481217D01*
X706505Y484205D01*
X708791Y486491D01*
X711779Y487729D01*
X728221Y487729D01*
X731209Y486491D01*
X733495Y484205D01*
X734733Y481217D01*
X734733Y477983D01*
X733495Y474995D01*
X731209Y472709D01*
X728221Y471471D01*
X711779Y471471D01*
G37*
%LPD*%
%LPC*%
G36*
X711779Y811871D02*
X711779Y811871D01*
X708791Y813109D01*
X706505Y815395D01*
X705267Y818383D01*
X705267Y821617D01*
X706505Y824605D01*
X708791Y826891D01*
X711779Y828129D01*
X728221Y828129D01*
X731209Y826891D01*
X733495Y824605D01*
X734733Y821617D01*
X734733Y818383D01*
X733495Y815395D01*
X731209Y813109D01*
X728221Y811871D01*
X711779Y811871D01*
G37*
%LPD*%
%LPC*%
G36*
X711779Y576471D02*
X711779Y576471D01*
X708791Y577709D01*
X706505Y579995D01*
X705267Y582983D01*
X705267Y586217D01*
X706505Y589205D01*
X708791Y591491D01*
X711779Y592729D01*
X728221Y592729D01*
X731209Y591491D01*
X733495Y589205D01*
X734733Y586217D01*
X734733Y582983D01*
X733495Y579995D01*
X731209Y577709D01*
X728221Y576471D01*
X711779Y576471D01*
G37*
%LPD*%
%LPC*%
G36*
X771779Y601871D02*
X771779Y601871D01*
X768791Y603109D01*
X766505Y605395D01*
X765267Y608383D01*
X765267Y611617D01*
X766505Y614605D01*
X768791Y616891D01*
X771779Y618129D01*
X788221Y618129D01*
X791209Y616891D01*
X793495Y614605D01*
X794733Y611617D01*
X794733Y608383D01*
X793495Y605395D01*
X791209Y603109D01*
X788221Y601871D01*
X771779Y601871D01*
G37*
%LPD*%
%LPC*%
G36*
X771779Y706871D02*
X771779Y706871D01*
X768791Y708109D01*
X766505Y710395D01*
X765267Y713383D01*
X765267Y716617D01*
X766505Y719605D01*
X768791Y721891D01*
X771779Y723129D01*
X788221Y723129D01*
X791209Y721891D01*
X793495Y719605D01*
X794733Y716617D01*
X794733Y713383D01*
X793495Y710395D01*
X791209Y708109D01*
X788221Y706871D01*
X771779Y706871D01*
G37*
%LPD*%
%LPC*%
G36*
X771779Y627271D02*
X771779Y627271D01*
X768791Y628509D01*
X766505Y630795D01*
X765267Y633783D01*
X765267Y637017D01*
X766505Y640005D01*
X768791Y642291D01*
X771779Y643529D01*
X788221Y643529D01*
X791209Y642291D01*
X793495Y640005D01*
X794733Y637017D01*
X794733Y633783D01*
X793495Y630795D01*
X791209Y628509D01*
X788221Y627271D01*
X771779Y627271D01*
G37*
%LPD*%
%LPC*%
G36*
X711779Y786471D02*
X711779Y786471D01*
X708791Y787709D01*
X706505Y789995D01*
X705267Y792983D01*
X705267Y796217D01*
X706505Y799205D01*
X708791Y801491D01*
X711779Y802729D01*
X728221Y802729D01*
X731209Y801491D01*
X733495Y799205D01*
X734733Y796217D01*
X734733Y792983D01*
X733495Y789995D01*
X731209Y787709D01*
X728221Y786471D01*
X711779Y786471D01*
G37*
%LPD*%
%LPC*%
G36*
X771779Y471471D02*
X771779Y471471D01*
X768791Y472709D01*
X766505Y474995D01*
X765267Y477983D01*
X765267Y481217D01*
X766505Y484205D01*
X768791Y486491D01*
X771779Y487729D01*
X788221Y487729D01*
X791209Y486491D01*
X793495Y484205D01*
X794733Y481217D01*
X794733Y477983D01*
X793495Y474995D01*
X791209Y472709D01*
X788221Y471471D01*
X771779Y471471D01*
G37*
%LPD*%
%LPC*%
G36*
X711779Y837271D02*
X711779Y837271D01*
X708791Y838509D01*
X706505Y840795D01*
X705267Y843783D01*
X705267Y847017D01*
X706505Y850005D01*
X708791Y852291D01*
X711779Y853529D01*
X728221Y853529D01*
X731209Y852291D01*
X733495Y850005D01*
X734733Y847017D01*
X734733Y843783D01*
X733495Y840795D01*
X731209Y838509D01*
X728221Y837271D01*
X711779Y837271D01*
G37*
%LPD*%
%LPC*%
G36*
X771779Y522271D02*
X771779Y522271D01*
X768791Y523509D01*
X766505Y525795D01*
X765267Y528783D01*
X765267Y532017D01*
X766505Y535005D01*
X768791Y537291D01*
X771779Y538529D01*
X788221Y538529D01*
X791209Y537291D01*
X793495Y535005D01*
X794733Y532017D01*
X794733Y528783D01*
X793495Y525795D01*
X791209Y523509D01*
X788221Y522271D01*
X771779Y522271D01*
G37*
%LPD*%
%LPC*%
G36*
X771779Y496871D02*
X771779Y496871D01*
X768791Y498109D01*
X766505Y500395D01*
X765267Y503383D01*
X765267Y506617D01*
X766505Y509605D01*
X768791Y511891D01*
X771779Y513129D01*
X788221Y513129D01*
X791209Y511891D01*
X793495Y509605D01*
X794733Y506617D01*
X794733Y503383D01*
X793495Y500395D01*
X791209Y498109D01*
X788221Y496871D01*
X771779Y496871D01*
G37*
%LPD*%
%LPC*%
G36*
X771779Y732271D02*
X771779Y732271D01*
X768791Y733509D01*
X766505Y735795D01*
X765267Y738783D01*
X765267Y742017D01*
X766505Y745005D01*
X768791Y747291D01*
X771779Y748529D01*
X788221Y748529D01*
X791209Y747291D01*
X793495Y745005D01*
X794733Y742017D01*
X794733Y738783D01*
X793495Y735795D01*
X791209Y733509D01*
X788221Y732271D01*
X771779Y732271D01*
G37*
%LPD*%
%LPC*%
G36*
X771779Y681471D02*
X771779Y681471D01*
X768791Y682709D01*
X766505Y684995D01*
X765267Y687983D01*
X765267Y691217D01*
X766505Y694205D01*
X768791Y696491D01*
X771779Y697729D01*
X788221Y697729D01*
X791209Y696491D01*
X793495Y694205D01*
X794733Y691217D01*
X794733Y687983D01*
X793495Y684995D01*
X791209Y682709D01*
X788221Y681471D01*
X771779Y681471D01*
G37*
%LPD*%
%LPC*%
G36*
X312673Y939059D02*
X312673Y939059D01*
X312673Y965477D01*
X326391Y965477D01*
X326391Y941266D01*
X326218Y940619D01*
X325883Y940040D01*
X325410Y939567D01*
X324831Y939232D01*
X324184Y939059D01*
X312673Y939059D01*
G37*
%LPD*%
%LPC*%
G36*
X298116Y939059D02*
X298116Y939059D01*
X297469Y939232D01*
X296890Y939567D01*
X296417Y940040D01*
X296082Y940619D01*
X295909Y941266D01*
X295909Y965477D01*
X309627Y965477D01*
X309627Y939059D01*
X298116Y939059D01*
G37*
%LPD*%
%LPC*%
G36*
X164961Y169749D02*
X164961Y169749D01*
X161193Y171310D01*
X158310Y174193D01*
X156749Y177961D01*
X156749Y182039D01*
X158310Y185807D01*
X161193Y188690D01*
X164961Y190251D01*
X169039Y190251D01*
X172807Y188690D01*
X175690Y185807D01*
X177251Y182039D01*
X177251Y177961D01*
X175690Y174193D01*
X172807Y171310D01*
X169039Y169749D01*
X164961Y169749D01*
G37*
%LPD*%
%LPC*%
G36*
X50961Y109749D02*
X50961Y109749D01*
X47193Y111310D01*
X44310Y114193D01*
X42749Y117961D01*
X42749Y122039D01*
X44310Y125807D01*
X47193Y128690D01*
X50961Y130251D01*
X55039Y130251D01*
X58807Y128690D01*
X61690Y125807D01*
X63251Y122039D01*
X63251Y117961D01*
X61690Y114193D01*
X58807Y111310D01*
X55039Y109749D01*
X50961Y109749D01*
G37*
%LPD*%
%LPC*%
G36*
X79523Y166523D02*
X79523Y166523D01*
X79523Y196703D01*
X80878Y196488D01*
X82718Y195890D01*
X84442Y195012D01*
X86007Y193875D01*
X87375Y192507D01*
X88512Y190942D01*
X89390Y189218D01*
X89988Y187378D01*
X90291Y185467D01*
X90291Y166523D01*
X79523Y166523D01*
G37*
%LPD*%
%LPC*%
G36*
X65709Y166523D02*
X65709Y166523D01*
X65709Y185467D01*
X66012Y187378D01*
X66610Y189218D01*
X67488Y190942D01*
X68625Y192507D01*
X69993Y193875D01*
X71558Y195012D01*
X73282Y195890D01*
X75122Y196488D01*
X76477Y196703D01*
X76477Y166523D01*
X65709Y166523D01*
G37*
%LPD*%
%LPC*%
G36*
X834928Y540835D02*
X834928Y540835D01*
X834035Y541728D01*
X834035Y557072D01*
X834928Y557965D01*
X850272Y557965D01*
X851165Y557072D01*
X851165Y541728D01*
X850272Y540835D01*
X834928Y540835D01*
G37*
%LPD*%
%LPC*%
G36*
X812228Y111285D02*
X812228Y111285D01*
X811335Y112178D01*
X811335Y127522D01*
X812228Y128415D01*
X827572Y128415D01*
X828465Y127522D01*
X828465Y112178D01*
X827572Y111285D01*
X812228Y111285D01*
G37*
%LPD*%
%LPC*%
G36*
X170128Y904035D02*
X170128Y904035D01*
X169235Y904928D01*
X169235Y920272D01*
X170128Y921165D01*
X185472Y921165D01*
X186365Y920272D01*
X186365Y904928D01*
X185472Y904035D01*
X170128Y904035D01*
G37*
%LPD*%
%LPC*%
G36*
X273778Y652185D02*
X273778Y652185D01*
X272885Y653078D01*
X272885Y668422D01*
X273778Y669315D01*
X289122Y669315D01*
X290015Y668422D01*
X290015Y653078D01*
X289122Y652185D01*
X273778Y652185D01*
G37*
%LPD*%
%LPC*%
G36*
X417968Y665675D02*
X417968Y665675D01*
X417075Y666568D01*
X417075Y681332D01*
X417968Y682225D01*
X432732Y682225D01*
X433625Y681332D01*
X433625Y666568D01*
X432732Y665675D01*
X417968Y665675D01*
G37*
%LPD*%
%LPC*%
G36*
X417668Y512725D02*
X417668Y512725D01*
X416775Y513618D01*
X416775Y528382D01*
X417668Y529275D01*
X432432Y529275D01*
X433325Y528382D01*
X433325Y513618D01*
X432432Y512725D01*
X417668Y512725D01*
G37*
%LPD*%
%LPC*%
G36*
X417293Y387225D02*
X417293Y387225D01*
X416400Y388118D01*
X416400Y402882D01*
X417293Y403775D01*
X432057Y403775D01*
X432950Y402882D01*
X432950Y388118D01*
X432057Y387225D01*
X417293Y387225D01*
G37*
%LPD*%
%LPC*%
G36*
X277618Y346725D02*
X277618Y346725D01*
X276725Y347618D01*
X276725Y362382D01*
X277618Y363275D01*
X292382Y363275D01*
X293275Y362382D01*
X293275Y347618D01*
X292382Y346725D01*
X277618Y346725D01*
G37*
%LPD*%
%LPC*%
G36*
X822068Y81075D02*
X822068Y81075D01*
X821175Y81968D01*
X821175Y96732D01*
X822068Y97625D01*
X836832Y97625D01*
X837725Y96732D01*
X837725Y81968D01*
X836832Y81075D01*
X822068Y81075D01*
G37*
%LPD*%
%LPC*%
G36*
X668368Y87525D02*
X668368Y87525D01*
X667475Y88418D01*
X667475Y103182D01*
X668368Y104075D01*
X683132Y104075D01*
X684025Y103182D01*
X684025Y88418D01*
X683132Y87525D01*
X668368Y87525D01*
G37*
%LPD*%
%LPC*%
G36*
X666818Y791625D02*
X666818Y791625D01*
X665925Y792518D01*
X665925Y807282D01*
X666818Y808175D01*
X681582Y808175D01*
X682475Y807282D01*
X682475Y792518D01*
X681582Y791625D01*
X666818Y791625D01*
G37*
%LPD*%
%LPC*%
G36*
X147422Y427905D02*
X147422Y427905D01*
X146529Y428798D01*
X146529Y443561D01*
X147422Y444454D01*
X162185Y444454D01*
X163079Y443561D01*
X163079Y428798D01*
X162185Y427905D01*
X147422Y427905D01*
G37*
%LPD*%
%LPC*%
G36*
X417468Y794575D02*
X417468Y794575D01*
X416575Y795468D01*
X416575Y810232D01*
X417468Y811125D01*
X432232Y811125D01*
X433125Y810232D01*
X433125Y795468D01*
X432232Y794575D01*
X417468Y794575D01*
G37*
%LPD*%
%LPC*%
G36*
X147468Y553975D02*
X147468Y553975D01*
X146575Y554868D01*
X146575Y569632D01*
X147468Y570525D01*
X162232Y570525D01*
X163125Y569632D01*
X163125Y554868D01*
X162232Y553975D01*
X147468Y553975D01*
G37*
%LPD*%
%LPC*%
G36*
X297568Y554575D02*
X297568Y554575D01*
X296675Y555468D01*
X296675Y570232D01*
X297568Y571125D01*
X312332Y571125D01*
X313225Y570232D01*
X313225Y555468D01*
X312332Y554575D01*
X297568Y554575D01*
G37*
%LPD*%
%LPC*%
G36*
X676168Y555775D02*
X676168Y555775D01*
X675275Y556668D01*
X675275Y571432D01*
X676168Y572325D01*
X690932Y572325D01*
X691825Y571432D01*
X691825Y556668D01*
X690932Y555775D01*
X676168Y555775D01*
G37*
%LPD*%
%LPC*%
G36*
X547718Y429875D02*
X547718Y429875D01*
X546825Y430768D01*
X546825Y445532D01*
X547718Y446425D01*
X562482Y446425D01*
X563375Y445532D01*
X563375Y430768D01*
X562482Y429875D01*
X547718Y429875D01*
G37*
%LPD*%
%LPC*%
G36*
X167618Y704125D02*
X167618Y704125D01*
X166725Y705018D01*
X166725Y719782D01*
X167618Y720675D01*
X182382Y720675D01*
X183275Y719782D01*
X183275Y705018D01*
X182382Y704125D01*
X167618Y704125D01*
G37*
%LPD*%
%LPC*%
G36*
X277618Y288725D02*
X277618Y288725D01*
X276725Y289618D01*
X276725Y304382D01*
X277618Y305275D01*
X292382Y305275D01*
X293275Y304382D01*
X293275Y289618D01*
X292382Y288725D01*
X277618Y288725D01*
G37*
%LPD*%
%LPC*%
G36*
X693168Y154475D02*
X693168Y154475D01*
X692275Y155368D01*
X692275Y170132D01*
X693168Y171025D01*
X707932Y171025D01*
X708825Y170132D01*
X708825Y155368D01*
X707932Y154475D01*
X693168Y154475D01*
G37*
%LPD*%
%LPC*%
G36*
X744596Y439935D02*
X744596Y439935D01*
X741448Y441239D01*
X739039Y443648D01*
X737735Y446796D01*
X737735Y450204D01*
X739039Y453352D01*
X741448Y455761D01*
X744596Y457065D01*
X748004Y457065D01*
X751152Y455761D01*
X753561Y453352D01*
X754865Y450204D01*
X754865Y446796D01*
X753561Y443648D01*
X751152Y441239D01*
X748004Y439935D01*
X744596Y439935D01*
G37*
%LPD*%
%LPC*%
G36*
X540096Y491535D02*
X540096Y491535D01*
X536948Y492839D01*
X534539Y495248D01*
X533235Y498396D01*
X533235Y501804D01*
X534539Y504952D01*
X536948Y507361D01*
X540096Y508665D01*
X543504Y508665D01*
X546652Y507361D01*
X549061Y504952D01*
X550365Y501804D01*
X550365Y498396D01*
X549061Y495248D01*
X546652Y492839D01*
X543504Y491535D01*
X540096Y491535D01*
G37*
%LPD*%
%LPC*%
G36*
X176096Y929435D02*
X176096Y929435D01*
X172948Y930739D01*
X170539Y933148D01*
X169235Y936296D01*
X169235Y939704D01*
X170539Y942852D01*
X172948Y945261D01*
X176096Y946565D01*
X179504Y946565D01*
X182652Y945261D01*
X185061Y942852D01*
X186365Y939704D01*
X186365Y936296D01*
X185061Y933148D01*
X182652Y930739D01*
X179504Y929435D01*
X176096Y929435D01*
G37*
%LPD*%
%LPC*%
G36*
X305696Y656185D02*
X305696Y656185D01*
X302548Y657489D01*
X300139Y659898D01*
X298835Y663046D01*
X298835Y666454D01*
X300139Y669602D01*
X302548Y672011D01*
X305696Y673315D01*
X309104Y673315D01*
X312252Y672011D01*
X314661Y669602D01*
X315965Y666454D01*
X315965Y663046D01*
X314661Y659898D01*
X312252Y657489D01*
X309104Y656185D01*
X305696Y656185D01*
G37*
%LPD*%
%LPC*%
G36*
X150696Y900035D02*
X150696Y900035D01*
X147548Y901339D01*
X145139Y903748D01*
X143835Y906896D01*
X143835Y910304D01*
X145139Y913452D01*
X147548Y915861D01*
X150696Y917165D01*
X154104Y917165D01*
X157252Y915861D01*
X159661Y913452D01*
X160965Y910304D01*
X160965Y906896D01*
X159661Y903748D01*
X157252Y901339D01*
X154104Y900035D01*
X150696Y900035D01*
G37*
%LPD*%
%LPC*%
G36*
X754096Y184635D02*
X754096Y184635D01*
X750948Y185939D01*
X748539Y188348D01*
X747235Y191496D01*
X747235Y194904D01*
X748539Y198052D01*
X750948Y200461D01*
X754096Y201765D01*
X757504Y201765D01*
X760652Y200461D01*
X763061Y198052D01*
X764365Y194904D01*
X764365Y191496D01*
X763061Y188348D01*
X760652Y185939D01*
X757504Y184635D01*
X754096Y184635D01*
G37*
%LPD*%
%LPC*%
G36*
X170733Y480621D02*
X170733Y480621D01*
X165971Y485383D01*
X165971Y492117D01*
X170733Y496879D01*
X177467Y496879D01*
X182229Y492117D01*
X182229Y485383D01*
X177467Y480621D01*
X170733Y480621D01*
G37*
%LPD*%
%LPC*%
G36*
X548233Y104471D02*
X548233Y104471D01*
X543471Y109233D01*
X543471Y115967D01*
X548233Y120729D01*
X554967Y120729D01*
X559729Y115967D01*
X559729Y109233D01*
X554967Y104471D01*
X548233Y104471D01*
G37*
%LPD*%
%LPC*%
G36*
X281633Y831171D02*
X281633Y831171D01*
X276871Y835933D01*
X276871Y842667D01*
X281633Y847429D01*
X288367Y847429D01*
X293129Y842667D01*
X293129Y835933D01*
X288367Y831171D01*
X281633Y831171D01*
G37*
%LPD*%
%LPC*%
G36*
X151683Y493321D02*
X151683Y493321D01*
X146921Y498083D01*
X146921Y504817D01*
X151683Y509579D01*
X158417Y509579D01*
X163179Y504817D01*
X163179Y498083D01*
X158417Y493321D01*
X151683Y493321D01*
G37*
%LPD*%
%LPC*%
G36*
X170733Y506021D02*
X170733Y506021D01*
X165971Y510783D01*
X165971Y517517D01*
X170733Y522279D01*
X177467Y522279D01*
X182229Y517517D01*
X182229Y510783D01*
X177467Y506021D01*
X170733Y506021D01*
G37*
%LPD*%
%LPC*%
G36*
X529183Y117171D02*
X529183Y117171D01*
X524421Y121933D01*
X524421Y128667D01*
X529183Y133429D01*
X535917Y133429D01*
X540679Y128667D01*
X540679Y121933D01*
X535917Y117171D01*
X529183Y117171D01*
G37*
%LPD*%
%LPC*%
G36*
X300683Y818471D02*
X300683Y818471D01*
X295921Y823233D01*
X295921Y829967D01*
X300683Y834729D01*
X307417Y834729D01*
X312179Y829967D01*
X312179Y823233D01*
X307417Y818471D01*
X300683Y818471D01*
G37*
%LPD*%
%LPC*%
G36*
X300683Y843871D02*
X300683Y843871D01*
X295921Y848633D01*
X295921Y855367D01*
X300683Y860129D01*
X307417Y860129D01*
X312179Y855367D01*
X312179Y848633D01*
X307417Y843871D01*
X300683Y843871D01*
G37*
%LPD*%
%LPC*%
G36*
X746633Y359171D02*
X746633Y359171D01*
X741871Y363933D01*
X741871Y370667D01*
X746633Y375429D01*
X753367Y375429D01*
X758129Y370667D01*
X758129Y363933D01*
X753367Y359171D01*
X746633Y359171D01*
G37*
%LPD*%
%LPC*%
G36*
X553454Y409875D02*
X553454Y409875D01*
X550413Y411135D01*
X548085Y413463D01*
X546825Y416504D01*
X546825Y419796D01*
X548085Y422837D01*
X550413Y425165D01*
X553454Y426425D01*
X556746Y426425D01*
X559787Y425165D01*
X562115Y422837D01*
X563375Y419796D01*
X563375Y416504D01*
X562115Y413463D01*
X559787Y411135D01*
X556746Y409875D01*
X553454Y409875D01*
G37*
%LPD*%
%LPC*%
G36*
X423204Y774575D02*
X423204Y774575D01*
X420163Y775835D01*
X417835Y778163D01*
X416575Y781204D01*
X416575Y784496D01*
X417835Y787537D01*
X420163Y789865D01*
X423204Y791125D01*
X426496Y791125D01*
X429537Y789865D01*
X431865Y787537D01*
X433125Y784496D01*
X433125Y781204D01*
X431865Y778163D01*
X429537Y775835D01*
X426496Y774575D01*
X423204Y774575D01*
G37*
%LPD*%
%LPC*%
G36*
X681904Y575775D02*
X681904Y575775D01*
X678863Y577035D01*
X676535Y579363D01*
X675275Y582404D01*
X675275Y585696D01*
X676535Y588737D01*
X678863Y591065D01*
X681904Y592325D01*
X685196Y592325D01*
X688237Y591065D01*
X690565Y588737D01*
X691825Y585696D01*
X691825Y582404D01*
X690565Y579363D01*
X688237Y577035D01*
X685196Y575775D01*
X681904Y575775D01*
G37*
%LPD*%
%LPC*%
G36*
X423704Y645675D02*
X423704Y645675D01*
X420663Y646935D01*
X418335Y649263D01*
X417075Y652304D01*
X417075Y655596D01*
X418335Y658637D01*
X420663Y660965D01*
X423704Y662225D01*
X426996Y662225D01*
X430037Y660965D01*
X432365Y658637D01*
X433625Y655596D01*
X433625Y652304D01*
X432365Y649263D01*
X430037Y646935D01*
X426996Y645675D01*
X423704Y645675D01*
G37*
%LPD*%
%LPC*%
G36*
X293354Y219725D02*
X293354Y219725D01*
X290313Y220985D01*
X287985Y223313D01*
X286725Y226354D01*
X286725Y229646D01*
X287985Y232687D01*
X290313Y235015D01*
X293354Y236275D01*
X296646Y236275D01*
X299687Y235015D01*
X302015Y232687D01*
X303275Y229646D01*
X303275Y226354D01*
X302015Y223313D01*
X299687Y220985D01*
X296646Y219725D01*
X293354Y219725D01*
G37*
%LPD*%
%LPC*%
G36*
X173204Y553975D02*
X173204Y553975D01*
X170163Y555235D01*
X167835Y557563D01*
X166575Y560604D01*
X166575Y563896D01*
X167835Y566937D01*
X170163Y569265D01*
X173204Y570525D01*
X176496Y570525D01*
X179537Y569265D01*
X181865Y566937D01*
X183125Y563896D01*
X183125Y560604D01*
X181865Y557563D01*
X179537Y555235D01*
X176496Y553975D01*
X173204Y553975D01*
G37*
%LPD*%
%LPC*%
G36*
X283304Y554575D02*
X283304Y554575D01*
X280263Y555835D01*
X277935Y558163D01*
X276675Y561204D01*
X276675Y564496D01*
X277935Y567537D01*
X280263Y569865D01*
X283304Y571125D01*
X286596Y571125D01*
X289637Y569865D01*
X291965Y567537D01*
X293225Y564496D01*
X293225Y561204D01*
X291965Y558163D01*
X289637Y555835D01*
X286596Y554575D01*
X283304Y554575D01*
G37*
%LPD*%
%LPC*%
G36*
X821023Y220373D02*
X821023Y220373D01*
X821023Y231141D01*
X830217Y231141D01*
X832128Y230838D01*
X833968Y230240D01*
X835692Y229362D01*
X837257Y228225D01*
X838625Y226857D01*
X839762Y225292D01*
X840640Y223568D01*
X841238Y221728D01*
X841453Y220373D01*
X821023Y220373D01*
G37*
%LPD*%
%LPC*%
G36*
X31823Y382673D02*
X31823Y382673D01*
X31823Y393441D01*
X41017Y393441D01*
X42928Y393138D01*
X44768Y392540D01*
X46492Y391662D01*
X48057Y390525D01*
X49425Y389157D01*
X50562Y387592D01*
X51440Y385868D01*
X52038Y384028D01*
X52253Y382673D01*
X31823Y382673D01*
G37*
%LPD*%
%LPC*%
G36*
X158823Y382673D02*
X158823Y382673D01*
X158823Y393441D01*
X168017Y393441D01*
X169928Y393138D01*
X171768Y392540D01*
X173492Y391662D01*
X175057Y390525D01*
X176425Y389157D01*
X177562Y387592D01*
X178440Y385868D01*
X179038Y384028D01*
X179253Y382673D01*
X158823Y382673D01*
G37*
%LPD*%
%LPC*%
G36*
X694023Y220373D02*
X694023Y220373D01*
X694023Y231141D01*
X703217Y231141D01*
X705128Y230838D01*
X706968Y230240D01*
X708692Y229362D01*
X710257Y228225D01*
X711625Y226857D01*
X712762Y225292D01*
X713640Y223568D01*
X714238Y221728D01*
X714453Y220373D01*
X694023Y220373D01*
G37*
%LPD*%
%LPC*%
G36*
X821023Y382673D02*
X821023Y382673D01*
X821023Y393441D01*
X830217Y393441D01*
X832128Y393138D01*
X833968Y392540D01*
X835692Y391662D01*
X837257Y390525D01*
X838625Y389157D01*
X839762Y387592D01*
X840640Y385868D01*
X841238Y384028D01*
X841453Y382673D01*
X821023Y382673D01*
G37*
%LPD*%
%LPC*%
G36*
X31823Y220373D02*
X31823Y220373D01*
X31823Y231141D01*
X41017Y231141D01*
X42928Y230838D01*
X44768Y230240D01*
X46492Y229362D01*
X48057Y228225D01*
X49425Y226857D01*
X50562Y225292D01*
X51440Y223568D01*
X52038Y221728D01*
X52253Y220373D01*
X31823Y220373D01*
G37*
%LPD*%
%LPC*%
G36*
X797547Y220373D02*
X797547Y220373D01*
X797762Y221728D01*
X798360Y223568D01*
X799238Y225292D01*
X800375Y226857D01*
X801743Y228225D01*
X803308Y229362D01*
X805032Y230240D01*
X806872Y230838D01*
X808783Y231141D01*
X817977Y231141D01*
X817977Y220373D01*
X797547Y220373D01*
G37*
%LPD*%
%LPC*%
G36*
X797547Y382673D02*
X797547Y382673D01*
X797762Y384028D01*
X798360Y385868D01*
X799238Y387592D01*
X800375Y389157D01*
X801743Y390525D01*
X803308Y391662D01*
X805032Y392540D01*
X806872Y393138D01*
X808783Y393441D01*
X817977Y393441D01*
X817977Y382673D01*
X797547Y382673D01*
G37*
%LPD*%
%LPC*%
G36*
X670547Y220373D02*
X670547Y220373D01*
X670762Y221728D01*
X671360Y223568D01*
X672238Y225292D01*
X673375Y226857D01*
X674743Y228225D01*
X676308Y229362D01*
X678032Y230240D01*
X679872Y230838D01*
X681783Y231141D01*
X690977Y231141D01*
X690977Y220373D01*
X670547Y220373D01*
G37*
%LPD*%
%LPC*%
G36*
X135347Y382673D02*
X135347Y382673D01*
X135562Y384028D01*
X136160Y385868D01*
X137038Y387592D01*
X138175Y389157D01*
X139543Y390525D01*
X141108Y391662D01*
X142832Y392540D01*
X144672Y393138D01*
X146583Y393441D01*
X155777Y393441D01*
X155777Y382673D01*
X135347Y382673D01*
G37*
%LPD*%
%LPC*%
G36*
X8347Y382673D02*
X8347Y382673D01*
X8562Y384028D01*
X9160Y385868D01*
X10038Y387592D01*
X11175Y389157D01*
X12543Y390525D01*
X14108Y391662D01*
X15832Y392540D01*
X17672Y393138D01*
X19583Y393441D01*
X28777Y393441D01*
X28777Y382673D01*
X8347Y382673D01*
G37*
%LPD*%
%LPC*%
G36*
X8347Y220373D02*
X8347Y220373D01*
X8562Y221728D01*
X9160Y223568D01*
X10038Y225292D01*
X11175Y226857D01*
X12543Y228225D01*
X14108Y229362D01*
X15832Y230240D01*
X17672Y230838D01*
X19583Y231141D01*
X28777Y231141D01*
X28777Y220373D01*
X8347Y220373D01*
G37*
%LPD*%
%LPC*%
G36*
X821023Y368859D02*
X821023Y368859D01*
X821023Y379627D01*
X841453Y379627D01*
X841238Y378272D01*
X840640Y376432D01*
X839762Y374708D01*
X838625Y373143D01*
X837257Y371775D01*
X835692Y370638D01*
X833968Y369760D01*
X832128Y369162D01*
X830217Y368859D01*
X821023Y368859D01*
G37*
%LPD*%
%LPC*%
G36*
X158823Y368859D02*
X158823Y368859D01*
X158823Y379627D01*
X179253Y379627D01*
X179038Y378272D01*
X178440Y376432D01*
X177562Y374708D01*
X176425Y373143D01*
X175057Y371775D01*
X173492Y370638D01*
X171768Y369760D01*
X169928Y369162D01*
X168017Y368859D01*
X158823Y368859D01*
G37*
%LPD*%
%LPC*%
G36*
X31823Y206559D02*
X31823Y206559D01*
X31823Y217327D01*
X52253Y217327D01*
X52038Y215972D01*
X51440Y214132D01*
X50562Y212408D01*
X49425Y210843D01*
X48057Y209475D01*
X46492Y208338D01*
X44768Y207460D01*
X42928Y206862D01*
X41017Y206559D01*
X31823Y206559D01*
G37*
%LPD*%
%LPC*%
G36*
X31823Y368859D02*
X31823Y368859D01*
X31823Y379627D01*
X52253Y379627D01*
X52038Y378272D01*
X51440Y376432D01*
X50562Y374708D01*
X49425Y373143D01*
X48057Y371775D01*
X46492Y370638D01*
X44768Y369760D01*
X42928Y369162D01*
X41017Y368859D01*
X31823Y368859D01*
G37*
%LPD*%
%LPC*%
G36*
X694023Y206559D02*
X694023Y206559D01*
X694023Y217327D01*
X714453Y217327D01*
X714238Y215972D01*
X713640Y214132D01*
X712762Y212408D01*
X711625Y210843D01*
X710257Y209475D01*
X708692Y208338D01*
X706968Y207460D01*
X705128Y206862D01*
X703217Y206559D01*
X694023Y206559D01*
G37*
%LPD*%
%LPC*%
G36*
X808783Y368859D02*
X808783Y368859D01*
X806872Y369162D01*
X805032Y369760D01*
X803308Y370638D01*
X801743Y371775D01*
X800375Y373143D01*
X799238Y374708D01*
X798360Y376432D01*
X797762Y378272D01*
X797547Y379627D01*
X817977Y379627D01*
X817977Y368859D01*
X808783Y368859D01*
G37*
%LPD*%
%LPC*%
G36*
X681783Y206559D02*
X681783Y206559D01*
X679872Y206862D01*
X678032Y207460D01*
X676308Y208338D01*
X674743Y209475D01*
X673375Y210843D01*
X672238Y212408D01*
X671360Y214132D01*
X670762Y215972D01*
X670547Y217327D01*
X690977Y217327D01*
X690977Y206559D01*
X681783Y206559D01*
G37*
%LPD*%
%LPC*%
G36*
X19583Y368859D02*
X19583Y368859D01*
X17672Y369162D01*
X15832Y369760D01*
X14108Y370638D01*
X12543Y371775D01*
X11175Y373143D01*
X10038Y374708D01*
X9160Y376432D01*
X8562Y378272D01*
X8347Y379627D01*
X28777Y379627D01*
X28777Y368859D01*
X19583Y368859D01*
G37*
%LPD*%
%LPC*%
G36*
X146583Y368859D02*
X146583Y368859D01*
X144672Y369162D01*
X142832Y369760D01*
X141108Y370638D01*
X139543Y371775D01*
X138175Y373143D01*
X137038Y374708D01*
X136160Y376432D01*
X135562Y378272D01*
X135347Y379627D01*
X155777Y379627D01*
X155777Y368859D01*
X146583Y368859D01*
G37*
%LPD*%
%LPC*%
G36*
X19583Y206559D02*
X19583Y206559D01*
X17672Y206862D01*
X15832Y207460D01*
X14108Y208338D01*
X12543Y209475D01*
X11175Y210843D01*
X10038Y212408D01*
X9160Y214132D01*
X8562Y215972D01*
X8347Y217327D01*
X28777Y217327D01*
X28777Y206559D01*
X19583Y206559D01*
G37*
%LPD*%
%LPC*%
G36*
X739423Y892623D02*
X739423Y892623D01*
X739423Y912344D01*
X740696Y912143D01*
X742483Y911562D01*
X744157Y910709D01*
X745678Y909604D01*
X747006Y908276D01*
X748111Y906755D01*
X748964Y905081D01*
X749545Y903294D01*
X749839Y901438D01*
X749839Y892623D01*
X739423Y892623D01*
G37*
%LPD*%
%LPC*%
G36*
X346373Y42973D02*
X346373Y42973D01*
X346373Y62694D01*
X347646Y62493D01*
X349433Y61912D01*
X351107Y61059D01*
X352628Y59954D01*
X353956Y58626D01*
X355061Y57105D01*
X355914Y55431D01*
X356495Y53644D01*
X356789Y51788D01*
X356789Y42973D01*
X346373Y42973D01*
G37*
%LPD*%
%LPC*%
G36*
X346373Y39927D02*
X346373Y39927D01*
X356789Y39927D01*
X356789Y31112D01*
X356495Y29256D01*
X355914Y27469D01*
X355061Y25795D01*
X353956Y24274D01*
X352628Y22946D01*
X351107Y21841D01*
X349433Y20988D01*
X347646Y20407D01*
X346373Y20206D01*
X346373Y39927D01*
G37*
%LPD*%
%LPC*%
G36*
X739423Y889577D02*
X739423Y889577D01*
X749839Y889577D01*
X749839Y880762D01*
X749545Y878906D01*
X748964Y877119D01*
X748111Y875445D01*
X747006Y873924D01*
X745678Y872596D01*
X744157Y871491D01*
X742483Y870638D01*
X740696Y870057D01*
X739423Y869856D01*
X739423Y889577D01*
G37*
%LPD*%
%LPC*%
G36*
X332911Y42973D02*
X332911Y42973D01*
X332911Y51788D01*
X333205Y53644D01*
X333786Y55431D01*
X334639Y57105D01*
X335744Y58626D01*
X337072Y59954D01*
X338593Y61059D01*
X340267Y61912D01*
X342054Y62493D01*
X343327Y62694D01*
X343327Y42973D01*
X332911Y42973D01*
G37*
%LPD*%
%LPC*%
G36*
X725961Y892623D02*
X725961Y892623D01*
X725961Y901438D01*
X726255Y903294D01*
X726836Y905081D01*
X727689Y906755D01*
X728794Y908276D01*
X730122Y909604D01*
X731643Y910709D01*
X733317Y911562D01*
X735104Y912143D01*
X736377Y912344D01*
X736377Y892623D01*
X725961Y892623D01*
G37*
%LPD*%
%LPC*%
G36*
X735104Y870057D02*
X735104Y870057D01*
X733317Y870638D01*
X731643Y871491D01*
X730122Y872596D01*
X728794Y873924D01*
X727689Y875445D01*
X726836Y877119D01*
X726255Y878906D01*
X725961Y880762D01*
X725961Y889577D01*
X736377Y889577D01*
X736377Y869856D01*
X735104Y870057D01*
G37*
%LPD*%
%LPC*%
G36*
X342054Y20407D02*
X342054Y20407D01*
X340267Y20988D01*
X338593Y21841D01*
X337072Y22946D01*
X335744Y24274D01*
X334639Y25795D01*
X333786Y27469D01*
X333205Y29256D01*
X332911Y31112D01*
X332911Y39927D01*
X343327Y39927D01*
X343327Y20206D01*
X342054Y20407D01*
G37*
%LPD*%
%LPC*%
G36*
X172260Y652510D02*
X172260Y652510D01*
X169599Y653612D01*
X167562Y655649D01*
X166460Y658310D01*
X166460Y661190D01*
X167562Y663851D01*
X169599Y665888D01*
X172260Y666990D01*
X175140Y666990D01*
X177801Y665888D01*
X179838Y663851D01*
X180940Y661190D01*
X180940Y658310D01*
X179838Y655649D01*
X177801Y653612D01*
X175140Y652510D01*
X172260Y652510D01*
G37*
%LPD*%
%LPC*%
G36*
X425860Y284635D02*
X425860Y284635D01*
X423199Y285737D01*
X421162Y287774D01*
X420060Y290435D01*
X420060Y293315D01*
X421162Y295976D01*
X423199Y298013D01*
X425860Y299115D01*
X428740Y299115D01*
X431401Y298013D01*
X433438Y295976D01*
X434540Y293315D01*
X434540Y290435D01*
X433438Y287774D01*
X431401Y285737D01*
X428740Y284635D01*
X425860Y284635D01*
G37*
%LPD*%
%LPC*%
G36*
X410560Y614710D02*
X410560Y614710D01*
X407899Y615812D01*
X405862Y617849D01*
X404760Y620510D01*
X404760Y623390D01*
X405862Y626051D01*
X407899Y628088D01*
X410560Y629190D01*
X413440Y629190D01*
X416101Y628088D01*
X418138Y626051D01*
X419240Y623390D01*
X419240Y620510D01*
X418138Y617849D01*
X416101Y615812D01*
X413440Y614710D01*
X410560Y614710D01*
G37*
%LPD*%
%LPC*%
G36*
X436860Y615210D02*
X436860Y615210D01*
X434199Y616312D01*
X432162Y618349D01*
X431060Y621010D01*
X431060Y623890D01*
X432162Y626551D01*
X434199Y628588D01*
X436860Y629690D01*
X439740Y629690D01*
X442401Y628588D01*
X444438Y626551D01*
X445540Y623890D01*
X445540Y621010D01*
X444438Y618349D01*
X442401Y616312D01*
X439740Y615210D01*
X436860Y615210D01*
G37*
%LPD*%
%LPC*%
G36*
X433660Y426635D02*
X433660Y426635D01*
X430999Y427737D01*
X428962Y429774D01*
X427860Y432435D01*
X427860Y435315D01*
X428962Y437976D01*
X430999Y440013D01*
X433660Y441115D01*
X436540Y441115D01*
X439201Y440013D01*
X441238Y437976D01*
X442340Y435315D01*
X442340Y432435D01*
X441238Y429774D01*
X439201Y427737D01*
X436540Y426635D01*
X433660Y426635D01*
G37*
%LPD*%
%LPC*%
G36*
X566160Y619360D02*
X566160Y619360D01*
X563499Y620462D01*
X561462Y622499D01*
X560360Y625160D01*
X560360Y628040D01*
X561462Y630701D01*
X563499Y632738D01*
X566160Y633840D01*
X569040Y633840D01*
X571701Y632738D01*
X573738Y630701D01*
X574840Y628040D01*
X574840Y625160D01*
X573738Y622499D01*
X571701Y620462D01*
X569040Y619360D01*
X566160Y619360D01*
G37*
%LPD*%
%LPC*%
G36*
X566160Y569360D02*
X566160Y569360D01*
X563499Y570462D01*
X561462Y572499D01*
X560360Y575160D01*
X560360Y578040D01*
X561462Y580701D01*
X563499Y582738D01*
X566160Y583840D01*
X569040Y583840D01*
X571701Y582738D01*
X573738Y580701D01*
X574840Y578040D01*
X574840Y575160D01*
X573738Y572499D01*
X571701Y570462D01*
X569040Y569360D01*
X566160Y569360D01*
G37*
%LPD*%
%LPC*%
G36*
X280660Y750110D02*
X280660Y750110D01*
X277999Y751212D01*
X275962Y753249D01*
X274860Y755910D01*
X274860Y758790D01*
X275962Y761451D01*
X277999Y763488D01*
X280660Y764590D01*
X283540Y764590D01*
X286201Y763488D01*
X288238Y761451D01*
X289340Y758790D01*
X289340Y755910D01*
X288238Y753249D01*
X286201Y751212D01*
X283540Y750110D01*
X280660Y750110D01*
G37*
%LPD*%
%LPC*%
G36*
X436860Y565210D02*
X436860Y565210D01*
X434199Y566312D01*
X432162Y568349D01*
X431060Y571010D01*
X431060Y573890D01*
X432162Y576551D01*
X434199Y578588D01*
X436860Y579690D01*
X439740Y579690D01*
X442401Y578588D01*
X444438Y576551D01*
X445540Y573890D01*
X445540Y571010D01*
X444438Y568349D01*
X442401Y566312D01*
X439740Y565210D01*
X436860Y565210D01*
G37*
%LPD*%
%LPC*%
G36*
X425860Y334635D02*
X425860Y334635D01*
X423199Y335737D01*
X421162Y337774D01*
X420060Y340435D01*
X420060Y343315D01*
X421162Y345976D01*
X423199Y348013D01*
X425860Y349115D01*
X428740Y349115D01*
X431401Y348013D01*
X433438Y345976D01*
X434540Y343315D01*
X434540Y340435D01*
X433438Y337774D01*
X431401Y335737D01*
X428740Y334635D01*
X425860Y334635D01*
G37*
%LPD*%
%LPC*%
G36*
X280660Y700110D02*
X280660Y700110D01*
X277999Y701212D01*
X275962Y703249D01*
X274860Y705910D01*
X274860Y708790D01*
X275962Y711451D01*
X277999Y713488D01*
X280660Y714590D01*
X283540Y714590D01*
X286201Y713488D01*
X288238Y711451D01*
X289340Y708790D01*
X289340Y705910D01*
X288238Y703249D01*
X286201Y701212D01*
X283540Y700110D01*
X280660Y700110D01*
G37*
%LPD*%
%LPC*%
G36*
X410560Y564710D02*
X410560Y564710D01*
X407899Y565812D01*
X405862Y567849D01*
X404760Y570510D01*
X404760Y573390D01*
X405862Y576051D01*
X407899Y578088D01*
X410560Y579190D01*
X413440Y579190D01*
X416101Y578088D01*
X418138Y576051D01*
X419240Y573390D01*
X419240Y570510D01*
X418138Y567849D01*
X416101Y565812D01*
X413440Y564710D01*
X410560Y564710D01*
G37*
%LPD*%
%LPC*%
G36*
X681460Y469360D02*
X681460Y469360D01*
X678799Y470462D01*
X676762Y472499D01*
X675660Y475160D01*
X675660Y478040D01*
X676762Y480701D01*
X678799Y482738D01*
X681460Y483840D01*
X684340Y483840D01*
X687001Y482738D01*
X689038Y480701D01*
X690140Y478040D01*
X690140Y475160D01*
X689038Y472499D01*
X687001Y470462D01*
X684340Y469360D01*
X681460Y469360D01*
G37*
%LPD*%
%LPC*%
G36*
X566460Y543410D02*
X566460Y543410D01*
X563799Y544512D01*
X561762Y546549D01*
X560660Y549210D01*
X560660Y552090D01*
X561762Y554751D01*
X563799Y556788D01*
X566460Y557890D01*
X569340Y557890D01*
X572001Y556788D01*
X574038Y554751D01*
X575140Y552090D01*
X575140Y549210D01*
X574038Y546549D01*
X572001Y544512D01*
X569340Y543410D01*
X566460Y543410D01*
G37*
%LPD*%
%LPC*%
G36*
X433660Y476635D02*
X433660Y476635D01*
X430999Y477737D01*
X428962Y479774D01*
X427860Y482435D01*
X427860Y485315D01*
X428962Y487976D01*
X430999Y490013D01*
X433660Y491115D01*
X436540Y491115D01*
X439201Y490013D01*
X441238Y487976D01*
X442340Y485315D01*
X442340Y482435D01*
X441238Y479774D01*
X439201Y477737D01*
X436540Y476635D01*
X433660Y476635D01*
G37*
%LPD*%
%LPC*%
G36*
X150760Y807860D02*
X150760Y807860D01*
X148099Y808962D01*
X146062Y810999D01*
X144960Y813660D01*
X144960Y816540D01*
X146062Y819201D01*
X148099Y821238D01*
X150760Y822340D01*
X153640Y822340D01*
X156301Y821238D01*
X158338Y819201D01*
X159440Y816540D01*
X159440Y813660D01*
X158338Y810999D01*
X156301Y808962D01*
X153640Y807860D01*
X150760Y807860D01*
G37*
%LPD*%
%LPC*%
G36*
X681460Y519360D02*
X681460Y519360D01*
X678799Y520462D01*
X676762Y522499D01*
X675660Y525160D01*
X675660Y528040D01*
X676762Y530701D01*
X678799Y532738D01*
X681460Y533840D01*
X684340Y533840D01*
X687001Y532738D01*
X689038Y530701D01*
X690140Y528040D01*
X690140Y525160D01*
X689038Y522499D01*
X687001Y520462D01*
X684340Y519360D01*
X681460Y519360D01*
G37*
%LPD*%
%LPC*%
G36*
X37210Y481010D02*
X37210Y481010D01*
X34549Y482112D01*
X32512Y484149D01*
X31410Y486810D01*
X31410Y489690D01*
X32512Y492351D01*
X34549Y494388D01*
X37210Y495490D01*
X40090Y495490D01*
X42751Y494388D01*
X44788Y492351D01*
X45890Y489690D01*
X45890Y486810D01*
X44788Y484149D01*
X42751Y482112D01*
X40090Y481010D01*
X37210Y481010D01*
G37*
%LPD*%
%LPC*%
G36*
X150760Y857860D02*
X150760Y857860D01*
X148099Y858962D01*
X146062Y860999D01*
X144960Y863660D01*
X144960Y866540D01*
X146062Y869201D01*
X148099Y871238D01*
X150760Y872340D01*
X153640Y872340D01*
X156301Y871238D01*
X158338Y869201D01*
X159440Y866540D01*
X159440Y863660D01*
X158338Y860999D01*
X156301Y858962D01*
X153640Y857860D01*
X150760Y857860D01*
G37*
%LPD*%
%LPC*%
G36*
X37210Y531010D02*
X37210Y531010D01*
X34549Y532112D01*
X32512Y534149D01*
X31410Y536810D01*
X31410Y539690D01*
X32512Y542351D01*
X34549Y544388D01*
X37210Y545490D01*
X40090Y545490D01*
X42751Y544388D01*
X44788Y542351D01*
X45890Y539690D01*
X45890Y536810D01*
X44788Y534149D01*
X42751Y532112D01*
X40090Y531010D01*
X37210Y531010D01*
G37*
%LPD*%
%LPC*%
G36*
X176860Y807360D02*
X176860Y807360D01*
X174199Y808462D01*
X172162Y810499D01*
X171060Y813160D01*
X171060Y816040D01*
X172162Y818701D01*
X174199Y820738D01*
X176860Y821840D01*
X179740Y821840D01*
X182401Y820738D01*
X184438Y818701D01*
X185540Y816040D01*
X185540Y813160D01*
X184438Y810499D01*
X182401Y808462D01*
X179740Y807360D01*
X176860Y807360D01*
G37*
%LPD*%
%LPC*%
G36*
X566460Y493410D02*
X566460Y493410D01*
X563799Y494512D01*
X561762Y496549D01*
X560660Y499210D01*
X560660Y502090D01*
X561762Y504751D01*
X563799Y506788D01*
X566460Y507890D01*
X569340Y507890D01*
X572001Y506788D01*
X574038Y504751D01*
X575140Y502090D01*
X575140Y499210D01*
X574038Y496549D01*
X572001Y494512D01*
X569340Y493410D01*
X566460Y493410D01*
G37*
%LPD*%
%LPC*%
G36*
X176860Y857360D02*
X176860Y857360D01*
X174199Y858462D01*
X172162Y860499D01*
X171060Y863160D01*
X171060Y866040D01*
X172162Y868701D01*
X174199Y870738D01*
X176860Y871840D01*
X179740Y871840D01*
X182401Y870738D01*
X184438Y868701D01*
X185540Y866040D01*
X185540Y863160D01*
X184438Y860499D01*
X182401Y858462D01*
X179740Y857360D01*
X176860Y857360D01*
G37*
%LPD*%
%LPC*%
G36*
X640273Y851523D02*
X640273Y851523D01*
X640273Y863791D01*
X650334Y863791D01*
X650981Y863618D01*
X651560Y863283D01*
X652033Y862810D01*
X652368Y862231D01*
X652541Y861584D01*
X652541Y851523D01*
X640273Y851523D01*
G37*
%LPD*%
%LPC*%
G36*
X510273Y851523D02*
X510273Y851523D01*
X510273Y863791D01*
X520334Y863791D01*
X520981Y863618D01*
X521560Y863283D01*
X522033Y862810D01*
X522368Y862231D01*
X522541Y861584D01*
X522541Y851523D01*
X510273Y851523D01*
G37*
%LPD*%
%LPC*%
G36*
X82773Y351523D02*
X82773Y351523D01*
X82773Y363791D01*
X92834Y363791D01*
X93481Y363618D01*
X94060Y363283D01*
X94533Y362810D01*
X94868Y362231D01*
X95041Y361584D01*
X95041Y351523D01*
X82773Y351523D01*
G37*
%LPD*%
%LPC*%
G36*
X380273Y851523D02*
X380273Y851523D01*
X380273Y863791D01*
X390334Y863791D01*
X390981Y863618D01*
X391560Y863283D01*
X392033Y862810D01*
X392368Y862231D01*
X392541Y861584D01*
X392541Y851523D01*
X380273Y851523D01*
G37*
%LPD*%
%LPC*%
G36*
X82773Y348477D02*
X82773Y348477D01*
X95041Y348477D01*
X95041Y338416D01*
X94868Y337769D01*
X94533Y337190D01*
X94060Y336717D01*
X93481Y336382D01*
X92834Y336209D01*
X82773Y336209D01*
X82773Y348477D01*
G37*
%LPD*%
%LPC*%
G36*
X364959Y851523D02*
X364959Y851523D01*
X364959Y861584D01*
X365132Y862231D01*
X365467Y862810D01*
X365940Y863283D01*
X366519Y863618D01*
X367166Y863791D01*
X377227Y863791D01*
X377227Y851523D01*
X364959Y851523D01*
G37*
%LPD*%
%LPC*%
G36*
X624959Y851523D02*
X624959Y851523D01*
X624959Y861584D01*
X625132Y862231D01*
X625467Y862810D01*
X625940Y863283D01*
X626519Y863618D01*
X627166Y863791D01*
X637227Y863791D01*
X637227Y851523D01*
X624959Y851523D01*
G37*
%LPD*%
%LPC*%
G36*
X380273Y848477D02*
X380273Y848477D01*
X392541Y848477D01*
X392541Y838416D01*
X392368Y837769D01*
X392033Y837190D01*
X391560Y836717D01*
X390981Y836382D01*
X390334Y836209D01*
X380273Y836209D01*
X380273Y848477D01*
G37*
%LPD*%
%LPC*%
G36*
X640273Y848477D02*
X640273Y848477D01*
X652541Y848477D01*
X652541Y838416D01*
X652368Y837769D01*
X652033Y837190D01*
X651560Y836717D01*
X650981Y836382D01*
X650334Y836209D01*
X640273Y836209D01*
X640273Y848477D01*
G37*
%LPD*%
%LPC*%
G36*
X67459Y351523D02*
X67459Y351523D01*
X67459Y361584D01*
X67632Y362231D01*
X67967Y362810D01*
X68440Y363283D01*
X69019Y363618D01*
X69666Y363791D01*
X79727Y363791D01*
X79727Y351523D01*
X67459Y351523D01*
G37*
%LPD*%
%LPC*%
G36*
X510273Y848477D02*
X510273Y848477D01*
X522541Y848477D01*
X522541Y838416D01*
X522368Y837769D01*
X522033Y837190D01*
X521560Y836717D01*
X520981Y836382D01*
X520334Y836209D01*
X510273Y836209D01*
X510273Y848477D01*
G37*
%LPD*%
%LPC*%
G36*
X494959Y851523D02*
X494959Y851523D01*
X494959Y861584D01*
X495132Y862231D01*
X495467Y862810D01*
X495940Y863283D01*
X496519Y863618D01*
X497166Y863791D01*
X507227Y863791D01*
X507227Y851523D01*
X494959Y851523D01*
G37*
%LPD*%
%LPC*%
G36*
X497166Y836209D02*
X497166Y836209D01*
X496519Y836382D01*
X495940Y836717D01*
X495467Y837190D01*
X495132Y837769D01*
X494959Y838416D01*
X494959Y848477D01*
X507227Y848477D01*
X507227Y836209D01*
X497166Y836209D01*
G37*
%LPD*%
%LPC*%
G36*
X367166Y836209D02*
X367166Y836209D01*
X366519Y836382D01*
X365940Y836717D01*
X365467Y837190D01*
X365132Y837769D01*
X364959Y838416D01*
X364959Y848477D01*
X377227Y848477D01*
X377227Y836209D01*
X367166Y836209D01*
G37*
%LPD*%
%LPC*%
G36*
X627166Y836209D02*
X627166Y836209D01*
X626519Y836382D01*
X625940Y836717D01*
X625467Y837190D01*
X625132Y837769D01*
X624959Y838416D01*
X624959Y848477D01*
X637227Y848477D01*
X637227Y836209D01*
X627166Y836209D01*
G37*
%LPD*%
%LPC*%
G36*
X69666Y336209D02*
X69666Y336209D01*
X69019Y336382D01*
X68440Y336717D01*
X67967Y337190D01*
X67632Y337769D01*
X67459Y338416D01*
X67459Y348477D01*
X79727Y348477D01*
X79727Y336209D01*
X69666Y336209D01*
G37*
%LPD*%
%LPC*%
G36*
X816673Y160664D02*
X816673Y160664D01*
X816673Y172477D01*
X828486Y172477D01*
X828486Y168476D01*
X820674Y160664D01*
X816673Y160664D01*
G37*
%LPD*%
%LPC*%
G36*
X809626Y160664D02*
X809626Y160664D01*
X801814Y168476D01*
X801814Y172477D01*
X813627Y172477D01*
X813627Y160664D01*
X809626Y160664D01*
G37*
%LPD*%
%LPC*%
G36*
X721523Y506523D02*
X721523Y506523D01*
X721523Y514145D01*
X727505Y514145D01*
X729271Y513793D01*
X730936Y513104D01*
X732434Y512103D01*
X733707Y510830D01*
X734708Y509332D01*
X735397Y507667D01*
X735625Y506523D01*
X721523Y506523D01*
G37*
%LPD*%
%LPC*%
G36*
X721523Y611523D02*
X721523Y611523D01*
X721523Y619145D01*
X727505Y619145D01*
X729271Y618793D01*
X730936Y618104D01*
X732434Y617103D01*
X733707Y615830D01*
X734708Y614332D01*
X735397Y612667D01*
X735625Y611523D01*
X721523Y611523D01*
G37*
%LPD*%
%LPC*%
G36*
X704375Y506523D02*
X704375Y506523D01*
X704603Y507667D01*
X705292Y509332D01*
X706293Y510830D01*
X707566Y512103D01*
X709064Y513104D01*
X710729Y513793D01*
X712495Y514145D01*
X718477Y514145D01*
X718477Y506523D01*
X704375Y506523D01*
G37*
%LPD*%
%LPC*%
G36*
X704375Y611523D02*
X704375Y611523D01*
X704603Y612667D01*
X705292Y614332D01*
X706293Y615830D01*
X707566Y617103D01*
X709064Y618104D01*
X710729Y618793D01*
X712495Y619145D01*
X718477Y619145D01*
X718477Y611523D01*
X704375Y611523D01*
G37*
%LPD*%
%LPC*%
G36*
X704375Y716523D02*
X704375Y716523D01*
X704603Y717667D01*
X705292Y719332D01*
X706293Y720830D01*
X707566Y722103D01*
X709064Y723104D01*
X710729Y723793D01*
X712495Y724145D01*
X718477Y724145D01*
X718477Y716523D01*
X704375Y716523D01*
G37*
%LPD*%
%LPC*%
G36*
X721523Y495855D02*
X721523Y495855D01*
X721523Y503477D01*
X735625Y503477D01*
X735397Y502333D01*
X734708Y500668D01*
X733707Y499170D01*
X732434Y497897D01*
X730936Y496896D01*
X729271Y496207D01*
X727505Y495855D01*
X721523Y495855D01*
G37*
%LPD*%
%LPC*%
G36*
X721523Y600855D02*
X721523Y600855D01*
X721523Y608477D01*
X735625Y608477D01*
X735397Y607333D01*
X734708Y605668D01*
X733707Y604170D01*
X732434Y602897D01*
X730936Y601896D01*
X729271Y601207D01*
X727505Y600855D01*
X721523Y600855D01*
G37*
%LPD*%
%LPC*%
G36*
X712495Y600855D02*
X712495Y600855D01*
X710729Y601207D01*
X709064Y601896D01*
X707566Y602897D01*
X706293Y604170D01*
X705292Y605668D01*
X704603Y607333D01*
X704375Y608477D01*
X718477Y608477D01*
X718477Y600855D01*
X712495Y600855D01*
G37*
%LPD*%
%LPC*%
G36*
X712495Y495855D02*
X712495Y495855D01*
X710729Y496207D01*
X709064Y496896D01*
X707566Y497897D01*
X706293Y499170D01*
X705292Y500668D01*
X704603Y502333D01*
X704375Y503477D01*
X718477Y503477D01*
X718477Y495855D01*
X712495Y495855D01*
G37*
%LPD*%
%LPC*%
G36*
X712495Y705855D02*
X712495Y705855D01*
X710729Y706207D01*
X709064Y706896D01*
X707566Y707897D01*
X706293Y709170D01*
X705292Y710668D01*
X704603Y712333D01*
X704375Y713477D01*
X718477Y713477D01*
X718477Y705855D01*
X712495Y705855D01*
G37*
%LPD*%
%LPC*%
G36*
X79523Y163477D02*
X79523Y163477D01*
X90203Y163477D01*
X89988Y162122D01*
X89390Y160282D01*
X88512Y158558D01*
X87375Y156993D01*
X86007Y155625D01*
X84442Y154488D01*
X82718Y153610D01*
X80878Y153012D01*
X79523Y152797D01*
X79523Y163477D01*
G37*
%LPD*%
%LPC*%
G36*
X75122Y153012D02*
X75122Y153012D01*
X73282Y153610D01*
X71558Y154488D01*
X69993Y155625D01*
X68625Y156993D01*
X67488Y158558D01*
X66610Y160282D01*
X66012Y162122D01*
X65797Y163477D01*
X76477Y163477D01*
X76477Y152797D01*
X75122Y153012D01*
G37*
%LPD*%
%LPC*%
G36*
X818723Y550923D02*
X818723Y550923D01*
X818723Y558859D01*
X819443Y558745D01*
X820878Y558279D01*
X822221Y557594D01*
X823442Y556708D01*
X824508Y555642D01*
X825394Y554421D01*
X826079Y553078D01*
X826545Y551643D01*
X826659Y550923D01*
X818723Y550923D01*
G37*
%LPD*%
%LPC*%
G36*
X846823Y121373D02*
X846823Y121373D01*
X846823Y129309D01*
X847543Y129195D01*
X848978Y128729D01*
X850321Y128044D01*
X851542Y127158D01*
X852608Y126092D01*
X853494Y124871D01*
X854179Y123528D01*
X854645Y122093D01*
X854759Y121373D01*
X846823Y121373D01*
G37*
%LPD*%
%LPC*%
G36*
X818723Y547877D02*
X818723Y547877D01*
X826659Y547877D01*
X826545Y547157D01*
X826079Y545722D01*
X825394Y544379D01*
X824508Y543158D01*
X823442Y542092D01*
X822221Y541206D01*
X820878Y540521D01*
X819443Y540055D01*
X818723Y539941D01*
X818723Y547877D01*
G37*
%LPD*%
%LPC*%
G36*
X807741Y550923D02*
X807741Y550923D01*
X807855Y551643D01*
X808321Y553078D01*
X809006Y554421D01*
X809892Y555642D01*
X810958Y556708D01*
X812179Y557594D01*
X813522Y558279D01*
X814957Y558745D01*
X815677Y558859D01*
X815677Y550923D01*
X807741Y550923D01*
G37*
%LPD*%
%LPC*%
G36*
X835841Y121373D02*
X835841Y121373D01*
X835955Y122093D01*
X836421Y123528D01*
X837106Y124871D01*
X837992Y126092D01*
X839058Y127158D01*
X840279Y128044D01*
X841622Y128729D01*
X843057Y129195D01*
X843777Y129309D01*
X843777Y121373D01*
X835841Y121373D01*
G37*
%LPD*%
%LPC*%
G36*
X846823Y118327D02*
X846823Y118327D01*
X854759Y118327D01*
X854645Y117607D01*
X854179Y116172D01*
X853494Y114829D01*
X852608Y113608D01*
X851542Y112542D01*
X850321Y111656D01*
X848978Y110971D01*
X847543Y110505D01*
X846823Y110391D01*
X846823Y118327D01*
G37*
%LPD*%
%LPC*%
G36*
X843057Y110505D02*
X843057Y110505D01*
X841622Y110971D01*
X840279Y111656D01*
X839058Y112542D01*
X837992Y113608D01*
X837106Y114829D01*
X836421Y116172D01*
X835955Y117607D01*
X835841Y118327D01*
X843777Y118327D01*
X843777Y110391D01*
X843057Y110505D01*
G37*
%LPD*%
%LPC*%
G36*
X814957Y540055D02*
X814957Y540055D01*
X813522Y540521D01*
X812179Y541206D01*
X810958Y542092D01*
X809892Y543158D01*
X809006Y544379D01*
X808321Y545722D01*
X807855Y547157D01*
X807741Y547877D01*
X815677Y547877D01*
X815677Y539941D01*
X814957Y540055D01*
G37*
%LPD*%
%LPC*%
G36*
X534073Y101423D02*
X534073Y101423D01*
X534073Y109045D01*
X536338Y109045D01*
X541695Y103688D01*
X541695Y101423D01*
X534073Y101423D01*
G37*
%LPD*%
%LPC*%
G36*
X523405Y101423D02*
X523405Y101423D01*
X523405Y103688D01*
X528762Y109045D01*
X531027Y109045D01*
X531027Y101423D01*
X523405Y101423D01*
G37*
%LPD*%
%LPC*%
G36*
X534073Y90755D02*
X534073Y90755D01*
X534073Y98377D01*
X541695Y98377D01*
X541695Y96112D01*
X536338Y90755D01*
X534073Y90755D01*
G37*
%LPD*%
%LPC*%
G36*
X528762Y90755D02*
X528762Y90755D01*
X523405Y96112D01*
X523405Y98377D01*
X531027Y98377D01*
X531027Y90755D01*
X528762Y90755D01*
G37*
%LPD*%
%LPC*%
G36*
X306523Y298523D02*
X306523Y298523D01*
X306523Y306170D01*
X307710Y305934D01*
X309401Y305233D01*
X310923Y304217D01*
X312217Y302923D01*
X313233Y301401D01*
X313934Y299710D01*
X314170Y298523D01*
X306523Y298523D01*
G37*
%LPD*%
%LPC*%
G36*
X306523Y356523D02*
X306523Y356523D01*
X306523Y364170D01*
X307710Y363934D01*
X309401Y363233D01*
X310923Y362217D01*
X312217Y360923D01*
X313233Y359401D01*
X313934Y357710D01*
X314170Y356523D01*
X306523Y356523D01*
G37*
%LPD*%
%LPC*%
G36*
X830973Y70873D02*
X830973Y70873D01*
X830973Y78520D01*
X832160Y78284D01*
X833851Y77583D01*
X835373Y76567D01*
X836667Y75273D01*
X837683Y73751D01*
X838384Y72060D01*
X838620Y70873D01*
X830973Y70873D01*
G37*
%LPD*%
%LPC*%
G36*
X675723Y821423D02*
X675723Y821423D01*
X675723Y829070D01*
X676910Y828834D01*
X678601Y828133D01*
X680123Y827117D01*
X681417Y825823D01*
X682433Y824301D01*
X683134Y822610D01*
X683370Y821423D01*
X675723Y821423D01*
G37*
%LPD*%
%LPC*%
G36*
X156523Y713923D02*
X156523Y713923D01*
X156523Y721570D01*
X157710Y721334D01*
X159401Y720633D01*
X160923Y719617D01*
X162217Y718323D01*
X163233Y716801D01*
X163934Y715110D01*
X164170Y713923D01*
X156523Y713923D01*
G37*
%LPD*%
%LPC*%
G36*
X176327Y437703D02*
X176327Y437703D01*
X176327Y445349D01*
X177514Y445113D01*
X179205Y444413D01*
X180726Y443396D01*
X182020Y442102D01*
X183037Y440580D01*
X183737Y438889D01*
X183974Y437703D01*
X176327Y437703D01*
G37*
%LPD*%
%LPC*%
G36*
X702073Y144273D02*
X702073Y144273D01*
X702073Y151920D01*
X703260Y151684D01*
X704951Y150983D01*
X706473Y149967D01*
X707767Y148673D01*
X708783Y147151D01*
X709484Y145460D01*
X709720Y144273D01*
X702073Y144273D01*
G37*
%LPD*%
%LPC*%
G36*
X677273Y77323D02*
X677273Y77323D01*
X677273Y84970D01*
X678460Y84734D01*
X680151Y84033D01*
X681673Y83017D01*
X682967Y81723D01*
X683983Y80201D01*
X684684Y78510D01*
X684920Y77323D01*
X677273Y77323D01*
G37*
%LPD*%
%LPC*%
G36*
X819373Y502573D02*
X819373Y502573D01*
X819373Y510220D01*
X820560Y509984D01*
X822251Y509283D01*
X823773Y508267D01*
X825067Y506973D01*
X826083Y505451D01*
X826784Y503760D01*
X827020Y502573D01*
X819373Y502573D01*
G37*
%LPD*%
%LPC*%
G36*
X306523Y353477D02*
X306523Y353477D01*
X314170Y353477D01*
X313934Y352290D01*
X313233Y350599D01*
X312217Y349077D01*
X310923Y347783D01*
X309401Y346767D01*
X307710Y346066D01*
X306523Y345830D01*
X306523Y353477D01*
G37*
%LPD*%
%LPC*%
G36*
X306523Y295477D02*
X306523Y295477D01*
X314170Y295477D01*
X313934Y294290D01*
X313233Y292599D01*
X312217Y291077D01*
X310923Y289783D01*
X309401Y288767D01*
X307710Y288066D01*
X306523Y287830D01*
X306523Y295477D01*
G37*
%LPD*%
%LPC*%
G36*
X665030Y821423D02*
X665030Y821423D01*
X665266Y822610D01*
X665967Y824301D01*
X666983Y825823D01*
X668277Y827117D01*
X669799Y828133D01*
X671490Y828834D01*
X672677Y829070D01*
X672677Y821423D01*
X665030Y821423D01*
G37*
%LPD*%
%LPC*%
G36*
X295830Y356523D02*
X295830Y356523D01*
X296066Y357710D01*
X296767Y359401D01*
X297783Y360923D01*
X299077Y362217D01*
X300599Y363233D01*
X302290Y363934D01*
X303477Y364170D01*
X303477Y356523D01*
X295830Y356523D01*
G37*
%LPD*%
%LPC*%
G36*
X295830Y298523D02*
X295830Y298523D01*
X296066Y299710D01*
X296767Y301401D01*
X297783Y302923D01*
X299077Y304217D01*
X300599Y305233D01*
X302290Y305934D01*
X303477Y306170D01*
X303477Y298523D01*
X295830Y298523D01*
G37*
%LPD*%
%LPC*%
G36*
X145830Y713923D02*
X145830Y713923D01*
X146066Y715110D01*
X146767Y716801D01*
X147783Y718323D01*
X149077Y719617D01*
X150599Y720633D01*
X152290Y721334D01*
X153477Y721570D01*
X153477Y713923D01*
X145830Y713923D01*
G37*
%LPD*%
%LPC*%
G36*
X156523Y710877D02*
X156523Y710877D01*
X164170Y710877D01*
X163934Y709690D01*
X163233Y707999D01*
X162217Y706477D01*
X160923Y705183D01*
X159401Y704167D01*
X157710Y703466D01*
X156523Y703230D01*
X156523Y710877D01*
G37*
%LPD*%
%LPC*%
G36*
X691380Y144273D02*
X691380Y144273D01*
X691616Y145460D01*
X692317Y147151D01*
X693333Y148673D01*
X694627Y149967D01*
X696149Y150983D01*
X697840Y151684D01*
X699027Y151920D01*
X699027Y144273D01*
X691380Y144273D01*
G37*
%LPD*%
%LPC*%
G36*
X176327Y434656D02*
X176327Y434656D01*
X183974Y434656D01*
X183737Y433469D01*
X183037Y431779D01*
X182020Y430257D01*
X180726Y428963D01*
X179205Y427946D01*
X177514Y427246D01*
X176327Y427010D01*
X176327Y434656D01*
G37*
%LPD*%
%LPC*%
G36*
X165634Y437703D02*
X165634Y437703D01*
X165870Y438889D01*
X166570Y440580D01*
X167587Y442102D01*
X168881Y443396D01*
X170403Y444413D01*
X172094Y445113D01*
X173281Y445349D01*
X173281Y437703D01*
X165634Y437703D01*
G37*
%LPD*%
%LPC*%
G36*
X808680Y502573D02*
X808680Y502573D01*
X808916Y503760D01*
X809617Y505451D01*
X810633Y506973D01*
X811927Y508267D01*
X813449Y509283D01*
X815140Y509984D01*
X816327Y510220D01*
X816327Y502573D01*
X808680Y502573D01*
G37*
%LPD*%
%LPC*%
G36*
X675723Y818377D02*
X675723Y818377D01*
X683370Y818377D01*
X683134Y817190D01*
X682433Y815499D01*
X681417Y813977D01*
X680123Y812683D01*
X678601Y811667D01*
X676910Y810966D01*
X675723Y810730D01*
X675723Y818377D01*
G37*
%LPD*%
%LPC*%
G36*
X666580Y77323D02*
X666580Y77323D01*
X666816Y78510D01*
X667517Y80201D01*
X668533Y81723D01*
X669827Y83017D01*
X671349Y84033D01*
X673040Y84734D01*
X674227Y84970D01*
X674227Y77323D01*
X666580Y77323D01*
G37*
%LPD*%
%LPC*%
G36*
X702073Y141227D02*
X702073Y141227D01*
X709720Y141227D01*
X709484Y140040D01*
X708783Y138349D01*
X707767Y136827D01*
X706473Y135533D01*
X704951Y134517D01*
X703260Y133816D01*
X702073Y133580D01*
X702073Y141227D01*
G37*
%LPD*%
%LPC*%
G36*
X830973Y67827D02*
X830973Y67827D01*
X838620Y67827D01*
X838384Y66640D01*
X837683Y64949D01*
X836667Y63427D01*
X835373Y62133D01*
X833851Y61117D01*
X832160Y60416D01*
X830973Y60180D01*
X830973Y67827D01*
G37*
%LPD*%
%LPC*%
G36*
X819373Y499527D02*
X819373Y499527D01*
X827020Y499527D01*
X826784Y498340D01*
X826083Y496649D01*
X825067Y495127D01*
X823773Y493833D01*
X822251Y492817D01*
X820560Y492116D01*
X819373Y491880D01*
X819373Y499527D01*
G37*
%LPD*%
%LPC*%
G36*
X820280Y70873D02*
X820280Y70873D01*
X820516Y72060D01*
X821217Y73751D01*
X822233Y75273D01*
X823527Y76567D01*
X825049Y77583D01*
X826740Y78284D01*
X827927Y78520D01*
X827927Y70873D01*
X820280Y70873D01*
G37*
%LPD*%
%LPC*%
G36*
X677273Y74277D02*
X677273Y74277D01*
X684920Y74277D01*
X684684Y73090D01*
X683983Y71399D01*
X682967Y69877D01*
X681673Y68583D01*
X680151Y67567D01*
X678460Y66866D01*
X677273Y66630D01*
X677273Y74277D01*
G37*
%LPD*%
%LPC*%
G36*
X815140Y492116D02*
X815140Y492116D01*
X813449Y492817D01*
X811927Y493833D01*
X810633Y495127D01*
X809617Y496649D01*
X808916Y498340D01*
X808680Y499527D01*
X816327Y499527D01*
X816327Y491880D01*
X815140Y492116D01*
G37*
%LPD*%
%LPC*%
G36*
X673040Y66866D02*
X673040Y66866D01*
X671349Y67567D01*
X669827Y68583D01*
X668533Y69877D01*
X667517Y71399D01*
X666816Y73090D01*
X666580Y74277D01*
X674227Y74277D01*
X674227Y66630D01*
X673040Y66866D01*
G37*
%LPD*%
%LPC*%
G36*
X302290Y346066D02*
X302290Y346066D01*
X300599Y346767D01*
X299077Y347783D01*
X297783Y349077D01*
X296767Y350599D01*
X296066Y352290D01*
X295830Y353477D01*
X303477Y353477D01*
X303477Y345830D01*
X302290Y346066D01*
G37*
%LPD*%
%LPC*%
G36*
X697840Y133816D02*
X697840Y133816D01*
X696149Y134517D01*
X694627Y135533D01*
X693333Y136827D01*
X692317Y138349D01*
X691616Y140040D01*
X691380Y141227D01*
X699027Y141227D01*
X699027Y133580D01*
X697840Y133816D01*
G37*
%LPD*%
%LPC*%
G36*
X826740Y60416D02*
X826740Y60416D01*
X825049Y61117D01*
X823527Y62133D01*
X822233Y63427D01*
X821217Y64949D01*
X820516Y66640D01*
X820280Y67827D01*
X827927Y67827D01*
X827927Y60180D01*
X826740Y60416D01*
G37*
%LPD*%
%LPC*%
G36*
X671490Y810966D02*
X671490Y810966D01*
X669799Y811667D01*
X668277Y812683D01*
X666983Y813977D01*
X665967Y815499D01*
X665266Y817190D01*
X665030Y818377D01*
X672677Y818377D01*
X672677Y810730D01*
X671490Y810966D01*
G37*
%LPD*%
%LPC*%
G36*
X172094Y427246D02*
X172094Y427246D01*
X170403Y427946D01*
X168881Y428963D01*
X167587Y430257D01*
X166570Y431779D01*
X165870Y433469D01*
X165634Y434656D01*
X173281Y434656D01*
X173281Y427010D01*
X172094Y427246D01*
G37*
%LPD*%
%LPC*%
G36*
X152290Y703466D02*
X152290Y703466D01*
X150599Y704167D01*
X149077Y705183D01*
X147783Y706477D01*
X146767Y707999D01*
X146066Y709690D01*
X145830Y710877D01*
X153477Y710877D01*
X153477Y703230D01*
X152290Y703466D01*
G37*
%LPD*%
%LPC*%
G36*
X302290Y288066D02*
X302290Y288066D01*
X300599Y288767D01*
X299077Y289783D01*
X297783Y291077D01*
X296767Y292599D01*
X296066Y294290D01*
X295830Y295477D01*
X303477Y295477D01*
X303477Y287830D01*
X302290Y288066D01*
G37*
%LPD*%
%LPC*%
G36*
X692499Y218849D02*
X692499Y218849D01*
X692499Y218851D01*
X692501Y218851D01*
X692501Y218849D01*
X692499Y218849D01*
G37*
%LPD*%
%LPC*%
G36*
X532549Y99899D02*
X532549Y99899D01*
X532549Y99901D01*
X532551Y99901D01*
X532551Y99899D01*
X532549Y99899D01*
G37*
%LPD*%
%LPC*%
G36*
X719999Y504999D02*
X719999Y504999D01*
X719999Y505001D01*
X720001Y505001D01*
X720001Y504999D01*
X719999Y504999D01*
G37*
%LPD*%
%LPC*%
G36*
X30299Y218849D02*
X30299Y218849D01*
X30299Y218851D01*
X30301Y218851D01*
X30301Y218849D01*
X30299Y218849D01*
G37*
%LPD*%
%LPC*%
G36*
X304999Y354999D02*
X304999Y354999D01*
X304999Y355001D01*
X305001Y355001D01*
X305001Y354999D01*
X304999Y354999D01*
G37*
%LPD*%
%LPC*%
G36*
X674199Y819899D02*
X674199Y819899D01*
X674199Y819901D01*
X674201Y819901D01*
X674201Y819899D01*
X674199Y819899D01*
G37*
%LPD*%
%LPC*%
G36*
X819499Y381149D02*
X819499Y381149D01*
X819499Y381151D01*
X819501Y381151D01*
X819501Y381149D01*
X819499Y381149D01*
G37*
%LPD*%
%LPC*%
G36*
X304999Y296999D02*
X304999Y296999D01*
X304999Y297001D01*
X305001Y297001D01*
X305001Y296999D01*
X304999Y296999D01*
G37*
%LPD*%
%LPC*%
G36*
X845299Y119849D02*
X845299Y119849D01*
X845299Y119851D01*
X845301Y119851D01*
X845301Y119849D01*
X845299Y119849D01*
G37*
%LPD*%
%LPC*%
G36*
X817849Y501049D02*
X817849Y501049D01*
X817849Y501051D01*
X817851Y501051D01*
X817851Y501049D01*
X817849Y501049D01*
G37*
%LPD*%
%LPC*%
G36*
X675749Y75799D02*
X675749Y75799D01*
X675749Y75801D01*
X675751Y75801D01*
X675751Y75799D01*
X675749Y75799D01*
G37*
%LPD*%
%LPC*%
G36*
X157299Y381149D02*
X157299Y381149D01*
X157299Y381151D01*
X157301Y381151D01*
X157301Y381149D01*
X157299Y381149D01*
G37*
%LPD*%
%LPC*%
G36*
X30299Y381149D02*
X30299Y381149D01*
X30299Y381151D01*
X30301Y381151D01*
X30301Y381149D01*
X30299Y381149D01*
G37*
%LPD*%
%LPC*%
G36*
X829449Y69349D02*
X829449Y69349D01*
X829449Y69351D01*
X829451Y69351D01*
X829451Y69349D01*
X829449Y69349D01*
G37*
%LPD*%
%LPC*%
G36*
X508749Y849999D02*
X508749Y849999D01*
X508749Y850001D01*
X508751Y850001D01*
X508751Y849999D01*
X508749Y849999D01*
G37*
%LPD*%
%LPC*%
G36*
X700549Y142749D02*
X700549Y142749D01*
X700549Y142751D01*
X700551Y142751D01*
X700551Y142749D01*
X700549Y142749D01*
G37*
%LPD*%
%LPC*%
G36*
X378749Y849999D02*
X378749Y849999D01*
X378749Y850001D01*
X378751Y850001D01*
X378751Y849999D01*
X378749Y849999D01*
G37*
%LPD*%
%LPC*%
G36*
X81249Y349999D02*
X81249Y349999D01*
X81249Y350001D01*
X81251Y350001D01*
X81251Y349999D01*
X81249Y349999D01*
G37*
%LPD*%
%LPC*%
G36*
X737899Y891099D02*
X737899Y891099D01*
X737899Y891101D01*
X737901Y891101D01*
X737901Y891099D01*
X737899Y891099D01*
G37*
%LPD*%
%LPC*%
G36*
X638749Y849999D02*
X638749Y849999D01*
X638749Y850001D01*
X638751Y850001D01*
X638751Y849999D01*
X638749Y849999D01*
G37*
%LPD*%
%LPC*%
G36*
X817199Y549399D02*
X817199Y549399D01*
X817199Y549401D01*
X817201Y549401D01*
X817201Y549399D01*
X817199Y549399D01*
G37*
%LPD*%
%LPC*%
G36*
X174803Y436178D02*
X174803Y436178D01*
X174803Y436180D01*
X174805Y436180D01*
X174805Y436178D01*
X174803Y436178D01*
G37*
%LPD*%
%LPC*%
G36*
X77999Y164999D02*
X77999Y164999D01*
X77999Y165001D01*
X78001Y165001D01*
X78001Y164999D01*
X77999Y164999D01*
G37*
%LPD*%
%LPC*%
G36*
X344849Y41449D02*
X344849Y41449D01*
X344849Y41451D01*
X344851Y41451D01*
X344851Y41449D01*
X344849Y41449D01*
G37*
%LPD*%
%LPC*%
G36*
X719999Y609999D02*
X719999Y609999D01*
X719999Y610001D01*
X720001Y610001D01*
X720001Y609999D01*
X719999Y609999D01*
G37*
%LPD*%
%LPC*%
G36*
X154999Y712399D02*
X154999Y712399D01*
X154999Y712401D01*
X155001Y712401D01*
X155001Y712399D01*
X154999Y712399D01*
G37*
%LPD*%
D10*
X427300Y291875D03*
X427300Y341875D03*
D11*
X837850Y501050D03*
D12*
X817850Y501050D03*
D10*
X173700Y659750D03*
X173700Y609750D03*
X152200Y815100D03*
X152200Y865100D03*
D11*
X154850Y562250D03*
D12*
X174850Y562250D03*
D11*
X154804Y436179D03*
D12*
X174804Y436179D03*
D11*
X674200Y799900D03*
D12*
X674200Y819900D03*
D11*
X425050Y521000D03*
D12*
X425050Y541000D03*
D11*
X304950Y562850D03*
D12*
X284950Y562850D03*
D11*
X175000Y712400D03*
D12*
X155000Y712400D03*
D10*
X567600Y626600D03*
X567600Y576600D03*
X282100Y707350D03*
X282100Y757350D03*
X438300Y572450D03*
X438300Y622450D03*
D11*
X424850Y802850D03*
D12*
X424850Y782850D03*
D10*
X178300Y864600D03*
X178300Y814600D03*
D13*
X845300Y119850D03*
D14*
X819900Y119850D03*
D13*
X746300Y448500D03*
D14*
X746300Y423100D03*
D15*
X508750Y850000D03*
X471250Y850000D03*
X508750Y354000D03*
X378750Y850000D03*
X341250Y850000D03*
X378750Y354000D03*
X638750Y850000D03*
X601250Y850000D03*
X638750Y354000D03*
D16*
X174100Y760650D03*
X155050Y773350D03*
X174100Y786050D03*
D17*
X304050Y852000D03*
X285000Y839300D03*
X304050Y826600D03*
X174100Y514150D03*
X155050Y501450D03*
X174100Y488750D03*
D16*
X304100Y488300D03*
X285050Y501000D03*
X304100Y513700D03*
D18*
X773396Y635400D02*
X786604Y635400D01*
X786604Y610000D02*
X773396Y610000D01*
X773396Y584600D02*
X786604Y584600D01*
X726604Y584600D02*
X713396Y584600D01*
X713396Y610000D02*
X726604Y610000D01*
X726604Y635400D02*
X713396Y635400D01*
X773396Y530400D02*
X786604Y530400D01*
X786604Y505000D02*
X773396Y505000D01*
X773396Y479600D02*
X786604Y479600D01*
X726604Y479600D02*
X713396Y479600D01*
X713396Y505000D02*
X726604Y505000D01*
X726604Y530400D02*
X713396Y530400D01*
X773396Y740400D02*
X786604Y740400D01*
X786604Y715000D02*
X773396Y715000D01*
X773396Y689600D02*
X786604Y689600D01*
X726604Y689600D02*
X713396Y689600D01*
X713396Y715000D02*
X726604Y715000D01*
X726604Y740400D02*
X713396Y740400D01*
D13*
X177800Y938000D03*
D14*
X177800Y912600D03*
D13*
X152400Y908600D03*
D14*
X152400Y934000D03*
D13*
X281450Y635350D03*
D14*
X281450Y660750D03*
D13*
X307400Y664750D03*
D14*
X307400Y639350D03*
D10*
X412000Y571950D03*
X412000Y621950D03*
X682900Y476600D03*
X682900Y526600D03*
D13*
X542600Y582650D03*
D14*
X542600Y557250D03*
D13*
X541800Y500100D03*
D14*
X541800Y525500D03*
D18*
X713396Y794600D02*
X726604Y794600D01*
X726604Y820000D02*
X713396Y820000D01*
X713396Y845400D02*
X726604Y845400D01*
X773396Y845400D02*
X786604Y845400D01*
X786604Y820000D02*
X773396Y820000D01*
X773396Y794600D02*
X786604Y794600D01*
D15*
X211250Y350000D03*
X248750Y350000D03*
X211250Y846000D03*
D11*
X555100Y438150D03*
D12*
X555100Y418150D03*
D11*
X424675Y395500D03*
D12*
X424675Y375500D03*
D17*
X750000Y367300D03*
X750000Y392700D03*
D19*
X358850Y144200D03*
X391200Y144200D03*
D20*
X40050Y218850D02*
X20550Y218850D01*
X20550Y381150D02*
X40050Y381150D01*
X147550Y218850D02*
X167050Y218850D01*
X167050Y381150D02*
X147550Y381150D01*
X809750Y381150D02*
X829250Y381150D01*
X829250Y218850D02*
X809750Y218850D01*
X702250Y381150D02*
X682750Y381150D01*
X682750Y218850D02*
X702250Y218850D01*
D21*
X687100Y881702D02*
X687100Y900498D01*
X712500Y900498D02*
X712500Y881702D01*
X737900Y881702D02*
X737900Y900498D01*
X763300Y900498D02*
X763300Y881702D01*
X243250Y50848D02*
X243250Y32052D01*
X268650Y32052D02*
X268650Y50848D01*
X294050Y50848D02*
X294050Y32052D01*
X319450Y32052D02*
X319450Y50848D01*
X344850Y50848D02*
X344850Y32052D01*
X370250Y32052D02*
X370250Y50848D01*
D11*
X675750Y95800D03*
D12*
X675750Y75800D03*
D11*
X829450Y89350D03*
D12*
X829450Y69350D03*
D13*
X755800Y193200D03*
D14*
X781200Y193200D03*
D13*
X817200Y549400D03*
D14*
X842600Y549400D03*
D15*
X81250Y350000D03*
X118750Y350000D03*
X81250Y846000D03*
D19*
X815150Y174000D03*
X848900Y174000D03*
D10*
X38650Y538250D03*
X38650Y488250D03*
D22*
X311150Y967000D03*
D23*
X532550Y99900D03*
X551600Y112600D03*
X532550Y125300D03*
D11*
X683550Y564050D03*
D12*
X683550Y584050D03*
D11*
X425350Y673950D03*
D12*
X425350Y653950D03*
D10*
X435100Y483875D03*
X435100Y433875D03*
X567900Y500650D03*
X567900Y550650D03*
D11*
X700550Y162750D03*
D12*
X700550Y142750D03*
D20*
X78000Y135000D02*
X78000Y115500D01*
X110000Y115500D02*
X110000Y135000D01*
X142000Y135000D02*
X142000Y115500D01*
X142000Y165000D02*
X142000Y184500D01*
X110000Y184500D02*
X110000Y165000D01*
X78000Y165000D02*
X78000Y184500D01*
D11*
X295000Y248000D03*
D12*
X295000Y228000D03*
D11*
X285000Y297000D03*
D12*
X305000Y297000D03*
D11*
X285000Y355000D03*
D12*
X305000Y355000D03*
D24*
X526288Y774192D02*
X678688Y774192D01*
X711200Y741680D01*
X719328Y741680D01*
X720000Y740400D01*
D25*
X526288Y774192D03*
D24*
X514096Y772160D02*
X514096Y780288D01*
X538628Y747628D02*
X699008Y587248D01*
X538628Y747628D02*
X514096Y772160D01*
X699008Y587248D02*
X699008Y558800D01*
X721360Y536448D01*
X721360Y532384D01*
X720000Y530400D01*
D25*
X514096Y780288D03*
X516000Y795000D03*
D24*
X525000Y786000D01*
X690000Y786000D01*
X730392Y749544D02*
X735748Y744188D01*
X730392Y749544D02*
X726456Y749544D01*
X720000Y670064D02*
X720000Y635400D01*
X720000Y670064D02*
X735748Y685812D01*
X735748Y744188D01*
X726456Y749544D02*
X690000Y786000D01*
X290576Y636016D02*
X282448Y636016D01*
X290576Y636016D02*
X292608Y638048D01*
X306832Y638048D01*
X282448Y636016D02*
X281450Y635350D01*
X306832Y638048D02*
X307400Y639350D01*
X416560Y540512D02*
X424688Y540512D01*
X416560Y540512D02*
X400304Y524256D01*
X316992Y524256D02*
X304800Y512064D01*
X424688Y540512D02*
X425050Y541000D01*
X304800Y512064D02*
X304100Y513700D01*
X316992Y524256D02*
X400304Y524256D01*
X542600Y574922D02*
X542600Y582650D01*
X542600Y574922D02*
X552180Y565342D01*
X552180Y535880D01*
X541800Y525500D01*
D26*
X212750Y256000D02*
X118750Y350000D01*
D25*
X396000Y256000D03*
D26*
X285549Y256000D02*
X212750Y256000D01*
X285549Y256000D02*
X287093Y257544D01*
X302907Y257544D01*
X304451Y256000D01*
X396000Y256000D01*
D24*
X367792Y91440D02*
X414528Y44704D01*
D25*
X367792Y91440D03*
X414528Y44704D03*
D24*
X837184Y491744D02*
X837184Y499872D01*
X837184Y491744D02*
X772160Y426720D01*
X749808Y426720D01*
X747776Y424688D01*
X837184Y499872D02*
X837850Y501050D01*
X747776Y424688D02*
X746300Y423100D01*
X745744Y424688D02*
X743712Y426720D01*
X745744Y424688D02*
X746300Y423100D01*
X743712Y426720D02*
X595376Y426720D01*
X743712Y426720D02*
X746300Y423100D01*
D25*
X510000Y556000D03*
D24*
X337000Y556000D01*
D25*
X337000Y556000D03*
X534000Y453000D03*
D24*
X569096Y453000D01*
X595376Y426720D01*
D25*
X95504Y579120D03*
X262224Y443040D03*
X406400Y237744D03*
X562864Y178816D03*
D24*
X764252Y816212D02*
X764252Y823788D01*
X780000Y800464D02*
X780000Y794600D01*
X780000Y839536D02*
X780000Y845400D01*
X764252Y816212D02*
X780000Y800464D01*
X764252Y823788D02*
X780000Y839536D01*
X189000Y625050D02*
X173700Y609750D01*
X189000Y625050D02*
X189000Y768000D01*
X189000Y769000D01*
X174100Y786050D02*
X158950Y786050D01*
X139000Y806000D01*
X139000Y920600D01*
X152400Y934000D01*
X174100Y786050D02*
X189000Y771150D01*
X189000Y768000D01*
D25*
X265000Y385000D03*
D24*
X274500Y375500D01*
X265000Y385000D01*
X274500Y375500D02*
X424675Y375500D01*
D25*
X528000Y332000D03*
X590000Y413000D03*
D24*
X590000Y395000D02*
X528000Y333000D01*
X528000Y332000D01*
X590000Y395000D02*
X590000Y413000D01*
M02*
