M48
;GenerationSoftware,Autodesk,EAGLE,9.2.0*%
;CreationDate,2018-10-30T13:39:26Z*%
FMAT,2
ICI,OFF
METRIC,TZ,000.000
T11C0.300
T10C0.635
T9C0.800
T8C0.813
T7C0.900
T6C1.016
T5C1.118
T4C1.250
T3C1.300
T2C1.500
T1C2.800
%
G90
M71
T1
X17500Y5800
X60900Y5500
X76000Y96000
X9000Y96000
T2
X37875Y85000
X24875Y35000
X21125Y84600
X60125Y85000
X63875Y85000
X37875Y35400
X21125Y35000
X50875Y85000
X8125Y84600
X11875Y35000
X8125Y35000
X34125Y85000
X47125Y85000
X50875Y35400
X63875Y35400
T3
X7800Y16500
X35900Y12200
X39100Y12200
X81600Y19600
X84800Y19600
X14200Y13500
X11000Y16500
X14200Y16500
X11000Y13500
X7800Y13500
X3030Y21885
X3030Y38115
X15730Y21885
X15730Y38115
X81950Y38115
X81950Y21885
X69250Y38115
X69250Y21885
T4
X5300Y12000
X16700Y18000
T5
X68710Y89110
X71250Y89110
X73790Y89110
X76330Y89110
X24325Y4145
X26865Y4145
X29405Y4145
X31945Y4145
X34485Y4145
X37025Y4145
T6
X39120Y14420
X35885Y14420
X81515Y17400
X84890Y17400
T7
X54180Y50010
X54260Y55725
X54260Y58265
X84530Y11985
X54180Y52550
X74630Y44850
X74630Y42310
X30740Y63935
X75580Y19320
X78120Y19320
X81720Y54940
X84260Y54940
X30740Y66475
X28145Y66075
X28145Y63535
X81990Y11985
X15240Y93400
X15240Y90860
X17780Y91260
X17780Y93800
T8
X28500Y83930
X30405Y82660
X17410Y51415
X15505Y50145
X17410Y48875
X30410Y48830
X28505Y50100
X30410Y51370
X78000Y63540
X78000Y61000
X78000Y58460
X72000Y58460
X72000Y61000
X72000Y63540
X78000Y53040
X78000Y50500
X78000Y47960
X72000Y47960
X72000Y50500
X72000Y53040
X78000Y74040
X78000Y71500
X78000Y84540
X72000Y68960
X72000Y71500
X72000Y74040
X30405Y85200
X17410Y78605
X15505Y77335
X17410Y76065
X53255Y12530
X55160Y11260
X53255Y9990
X75000Y39270
X72000Y84540
X72000Y82000
X72000Y79460
X75000Y36730
X78000Y82000
X78000Y79460
X78000Y68960
T9
X30500Y35500
X82945Y8935
X28500Y35500
X30500Y29700
X28500Y29700
X29500Y22800
X29500Y24800
X42485Y78285
X42485Y80285
X70055Y14275
X55510Y43815
X55510Y41815
X42468Y39550
X42468Y37550
X70055Y16275
X42535Y65395
X42535Y67395
X68355Y58405
X68355Y56405
X15500Y71240
X17500Y71240
X28495Y56285
X30495Y56285
X42505Y54100
X42505Y52100
X67420Y81990
X67420Y79990
X17480Y43618
X15480Y43618
X17485Y56225
X15485Y56225
X83785Y50105
X82945Y6935
X67575Y7580
X67575Y9580
X81785Y50105
T10
X17370Y65975
X17370Y60975
X68290Y47660
X15220Y81510
X15220Y86510
X42730Y34188
X42730Y29187
X41200Y62195
X41200Y57195
X68290Y52660
X17830Y81460
X17830Y86460
X43830Y62245
X3865Y53825
X3865Y48825
X43830Y57245
X56790Y55065
X56790Y50065
X56760Y62660
X56760Y57660
X28210Y70735
X28210Y75735
X43510Y48387
X43510Y43388
T11
X33700Y55600
X53400Y45300
X9550Y57912
X26222Y44304
X51000Y55600
X41453Y4470
X36779Y9144
X39600Y25600
X51600Y79500
X51410Y78029
X40640Y23774
X56286Y17882
X26500Y38500
X52800Y33200
X59000Y41300
X52629Y77419
M30