G04 EAGLE Gerber X2 export*
%TF.Part,Single*%
%TF.FileFunction,Profile,NP*%
%TF.FilePolarity,Positive*%
%TF.GenerationSoftware,Autodesk,EAGLE,9.2.0*%
%TF.CreationDate,2018-10-30T13:39:26Z*%
G75*
%MOMM*%
%FSLAX34Y34*%
%LPD*%
%IN*%
%IPPOS*%
%AMOC8*
5,1,8,0,0,1.08239X$1,22.5*%
G01*
%ADD10C,0.254000*%


D10*
X-17000Y55000D02*
X0Y55000D01*
X0Y30000D01*
X249200Y0D01*
X599200Y0D01*
X850000Y30000D01*
X850000Y55000D01*
X867000Y55000D01*
X867000Y820000D01*
X800000Y820000D01*
X800000Y990000D01*
X699200Y1000000D01*
X475000Y1000000D01*
X475000Y900000D01*
X375000Y900000D01*
X375000Y1000000D01*
X149200Y1000000D01*
X57000Y990000D01*
X57000Y820000D01*
X-17000Y820000D01*
X-17000Y55000D01*
X104000Y959500D02*
X103929Y958503D01*
X103786Y957513D01*
X103574Y956536D01*
X103292Y955576D01*
X102943Y954639D01*
X102527Y953729D01*
X102048Y952852D01*
X101507Y952010D01*
X100908Y951210D01*
X100253Y950454D01*
X99546Y949747D01*
X98790Y949092D01*
X97990Y948493D01*
X97148Y947952D01*
X96271Y947473D01*
X95361Y947057D01*
X94424Y946708D01*
X93465Y946426D01*
X92487Y946214D01*
X91498Y946071D01*
X90500Y946000D01*
X89500Y946000D01*
X88503Y946071D01*
X87513Y946214D01*
X86536Y946426D01*
X85576Y946708D01*
X84639Y947057D01*
X83729Y947473D01*
X82852Y947952D01*
X82010Y948493D01*
X81210Y949092D01*
X80454Y949747D01*
X79747Y950454D01*
X79092Y951210D01*
X78493Y952010D01*
X77952Y952852D01*
X77473Y953729D01*
X77057Y954639D01*
X76708Y955576D01*
X76426Y956536D01*
X76214Y957513D01*
X76071Y958503D01*
X76000Y959500D01*
X76000Y960500D01*
X76071Y961498D01*
X76214Y962487D01*
X76426Y963465D01*
X76708Y964424D01*
X77057Y965361D01*
X77473Y966271D01*
X77952Y967148D01*
X78493Y967990D01*
X79092Y968790D01*
X79747Y969546D01*
X80454Y970253D01*
X81210Y970908D01*
X82010Y971507D01*
X82852Y972048D01*
X83729Y972527D01*
X84639Y972943D01*
X85576Y973292D01*
X86536Y973574D01*
X87513Y973786D01*
X88503Y973929D01*
X89500Y974000D01*
X90500Y974000D01*
X91498Y973929D01*
X92487Y973786D01*
X93465Y973574D01*
X94424Y973292D01*
X95361Y972943D01*
X96271Y972527D01*
X97148Y972048D01*
X97990Y971507D01*
X98790Y970908D01*
X99546Y970253D01*
X100253Y969546D01*
X100908Y968790D01*
X101507Y967990D01*
X102048Y967148D01*
X102527Y966271D01*
X102943Y965361D01*
X103292Y964424D01*
X103574Y963465D01*
X103786Y962487D01*
X103929Y961498D01*
X104000Y960500D01*
X104000Y959500D01*
X774000Y959500D02*
X773929Y958503D01*
X773786Y957513D01*
X773574Y956536D01*
X773292Y955576D01*
X772943Y954639D01*
X772527Y953729D01*
X772048Y952852D01*
X771507Y952010D01*
X770908Y951210D01*
X770253Y950454D01*
X769546Y949747D01*
X768790Y949092D01*
X767990Y948493D01*
X767148Y947952D01*
X766271Y947473D01*
X765361Y947057D01*
X764424Y946708D01*
X763465Y946426D01*
X762487Y946214D01*
X761498Y946071D01*
X760500Y946000D01*
X759500Y946000D01*
X758503Y946071D01*
X757513Y946214D01*
X756536Y946426D01*
X755576Y946708D01*
X754639Y947057D01*
X753729Y947473D01*
X752852Y947952D01*
X752010Y948493D01*
X751210Y949092D01*
X750454Y949747D01*
X749747Y950454D01*
X749092Y951210D01*
X748493Y952010D01*
X747952Y952852D01*
X747473Y953729D01*
X747057Y954639D01*
X746708Y955576D01*
X746426Y956536D01*
X746214Y957513D01*
X746071Y958503D01*
X746000Y959500D01*
X746000Y960500D01*
X746071Y961498D01*
X746214Y962487D01*
X746426Y963465D01*
X746708Y964424D01*
X747057Y965361D01*
X747473Y966271D01*
X747952Y967148D01*
X748493Y967990D01*
X749092Y968790D01*
X749747Y969546D01*
X750454Y970253D01*
X751210Y970908D01*
X752010Y971507D01*
X752852Y972048D01*
X753729Y972527D01*
X754639Y972943D01*
X755576Y973292D01*
X756536Y973574D01*
X757513Y973786D01*
X758503Y973929D01*
X759500Y974000D01*
X760500Y974000D01*
X761498Y973929D01*
X762487Y973786D01*
X763465Y973574D01*
X764424Y973292D01*
X765361Y972943D01*
X766271Y972527D01*
X767148Y972048D01*
X767990Y971507D01*
X768790Y970908D01*
X769546Y970253D01*
X770253Y969546D01*
X770908Y968790D01*
X771507Y967990D01*
X772048Y967148D01*
X772527Y966271D01*
X772943Y965361D01*
X773292Y964424D01*
X773574Y963465D01*
X773786Y962487D01*
X773929Y961498D01*
X774000Y960500D01*
X774000Y959500D01*
X623000Y54500D02*
X622929Y53503D01*
X622786Y52513D01*
X622574Y51536D01*
X622292Y50576D01*
X621943Y49639D01*
X621527Y48729D01*
X621048Y47852D01*
X620507Y47010D01*
X619908Y46210D01*
X619253Y45454D01*
X618546Y44747D01*
X617790Y44092D01*
X616990Y43493D01*
X616148Y42952D01*
X615271Y42473D01*
X614361Y42057D01*
X613424Y41708D01*
X612465Y41426D01*
X611487Y41214D01*
X610498Y41071D01*
X609500Y41000D01*
X608500Y41000D01*
X607503Y41071D01*
X606513Y41214D01*
X605536Y41426D01*
X604576Y41708D01*
X603639Y42057D01*
X602729Y42473D01*
X601852Y42952D01*
X601010Y43493D01*
X600210Y44092D01*
X599454Y44747D01*
X598747Y45454D01*
X598092Y46210D01*
X597493Y47010D01*
X596952Y47852D01*
X596473Y48729D01*
X596057Y49639D01*
X595708Y50576D01*
X595426Y51536D01*
X595214Y52513D01*
X595071Y53503D01*
X595000Y54500D01*
X595000Y55500D01*
X595071Y56498D01*
X595214Y57487D01*
X595426Y58465D01*
X595708Y59424D01*
X596057Y60361D01*
X596473Y61271D01*
X596952Y62148D01*
X597493Y62990D01*
X598092Y63790D01*
X598747Y64546D01*
X599454Y65253D01*
X600210Y65908D01*
X601010Y66507D01*
X601852Y67048D01*
X602729Y67527D01*
X603639Y67943D01*
X604576Y68292D01*
X605536Y68574D01*
X606513Y68786D01*
X607503Y68929D01*
X608500Y69000D01*
X609500Y69000D01*
X610498Y68929D01*
X611487Y68786D01*
X612465Y68574D01*
X613424Y68292D01*
X614361Y67943D01*
X615271Y67527D01*
X616148Y67048D01*
X616990Y66507D01*
X617790Y65908D01*
X618546Y65253D01*
X619253Y64546D01*
X619908Y63790D01*
X620507Y62990D01*
X621048Y62148D01*
X621527Y61271D01*
X621943Y60361D01*
X622292Y59424D01*
X622574Y58465D01*
X622786Y57487D01*
X622929Y56498D01*
X623000Y55500D01*
X623000Y54500D01*
X189000Y57500D02*
X188929Y56503D01*
X188786Y55513D01*
X188574Y54536D01*
X188292Y53576D01*
X187943Y52639D01*
X187527Y51729D01*
X187048Y50852D01*
X186507Y50010D01*
X185908Y49210D01*
X185253Y48454D01*
X184546Y47747D01*
X183790Y47092D01*
X182990Y46493D01*
X182148Y45952D01*
X181271Y45473D01*
X180361Y45057D01*
X179424Y44708D01*
X178465Y44426D01*
X177487Y44214D01*
X176498Y44071D01*
X175500Y44000D01*
X174500Y44000D01*
X173503Y44071D01*
X172513Y44214D01*
X171536Y44426D01*
X170576Y44708D01*
X169639Y45057D01*
X168729Y45473D01*
X167852Y45952D01*
X167010Y46493D01*
X166210Y47092D01*
X165454Y47747D01*
X164747Y48454D01*
X164092Y49210D01*
X163493Y50010D01*
X162952Y50852D01*
X162473Y51729D01*
X162057Y52639D01*
X161708Y53576D01*
X161426Y54536D01*
X161214Y55513D01*
X161071Y56503D01*
X161000Y57500D01*
X161000Y58500D01*
X161071Y59498D01*
X161214Y60487D01*
X161426Y61465D01*
X161708Y62424D01*
X162057Y63361D01*
X162473Y64271D01*
X162952Y65148D01*
X163493Y65990D01*
X164092Y66790D01*
X164747Y67546D01*
X165454Y68253D01*
X166210Y68908D01*
X167010Y69507D01*
X167852Y70048D01*
X168729Y70527D01*
X169639Y70943D01*
X170576Y71292D01*
X171536Y71574D01*
X172513Y71786D01*
X173503Y71929D01*
X174500Y72000D01*
X175500Y72000D01*
X176498Y71929D01*
X177487Y71786D01*
X178465Y71574D01*
X179424Y71292D01*
X180361Y70943D01*
X181271Y70527D01*
X182148Y70048D01*
X182990Y69507D01*
X183790Y68908D01*
X184546Y68253D01*
X185253Y67546D01*
X185908Y66790D01*
X186507Y65990D01*
X187048Y65148D01*
X187527Y64271D01*
X187943Y63361D01*
X188292Y62424D01*
X188574Y61465D01*
X188786Y60487D01*
X188929Y59498D01*
X189000Y58500D01*
X189000Y57500D01*
X365500Y121681D02*
X365437Y121045D01*
X365313Y120419D01*
X365127Y119808D01*
X364883Y119218D01*
X364582Y118654D01*
X364227Y118123D01*
X363822Y117630D01*
X363370Y117178D01*
X362877Y116773D01*
X362346Y116418D01*
X361782Y116117D01*
X361192Y115873D01*
X360581Y115687D01*
X359955Y115563D01*
X359319Y115500D01*
X358681Y115500D01*
X358045Y115563D01*
X357419Y115687D01*
X356808Y115873D01*
X356218Y116117D01*
X355654Y116418D01*
X355123Y116773D01*
X354630Y117178D01*
X354178Y117630D01*
X353773Y118123D01*
X353418Y118654D01*
X353117Y119218D01*
X352873Y119808D01*
X352687Y120419D01*
X352563Y121045D01*
X352500Y121681D01*
X352500Y122319D01*
X352563Y122955D01*
X352687Y123581D01*
X352873Y124192D01*
X353117Y124782D01*
X353418Y125346D01*
X353773Y125877D01*
X354178Y126370D01*
X354630Y126822D01*
X355123Y127227D01*
X355654Y127582D01*
X356218Y127883D01*
X356808Y128127D01*
X357419Y128313D01*
X358045Y128437D01*
X358681Y128500D01*
X359319Y128500D01*
X359955Y128437D01*
X360581Y128313D01*
X361192Y128127D01*
X361782Y127883D01*
X362346Y127582D01*
X362877Y127227D01*
X363370Y126822D01*
X363822Y126370D01*
X364227Y125877D01*
X364582Y125346D01*
X364883Y124782D01*
X365127Y124192D01*
X365313Y123581D01*
X365437Y122955D01*
X365500Y122319D01*
X365500Y121681D01*
X397500Y121681D02*
X397437Y121045D01*
X397313Y120419D01*
X397127Y119808D01*
X396883Y119218D01*
X396582Y118654D01*
X396227Y118123D01*
X395822Y117630D01*
X395370Y117178D01*
X394877Y116773D01*
X394346Y116418D01*
X393782Y116117D01*
X393192Y115873D01*
X392581Y115687D01*
X391955Y115563D01*
X391319Y115500D01*
X390681Y115500D01*
X390045Y115563D01*
X389419Y115687D01*
X388808Y115873D01*
X388218Y116117D01*
X387654Y116418D01*
X387123Y116773D01*
X386630Y117178D01*
X386178Y117630D01*
X385773Y118123D01*
X385418Y118654D01*
X385117Y119218D01*
X384873Y119808D01*
X384687Y120419D01*
X384563Y121045D01*
X384500Y121681D01*
X384500Y122319D01*
X384563Y122955D01*
X384687Y123581D01*
X384873Y124192D01*
X385117Y124782D01*
X385418Y125346D01*
X385773Y125877D01*
X386178Y126370D01*
X386630Y126822D01*
X387123Y127227D01*
X387654Y127582D01*
X388218Y127883D01*
X388808Y128127D01*
X389419Y128313D01*
X390045Y128437D01*
X390681Y128500D01*
X391319Y128500D01*
X391955Y128437D01*
X392581Y128313D01*
X393192Y128127D01*
X393782Y127883D01*
X394346Y127582D01*
X394877Y127227D01*
X395370Y126822D01*
X395822Y126370D01*
X396227Y125877D01*
X396582Y125346D01*
X396883Y124782D01*
X397127Y124192D01*
X397313Y123581D01*
X397437Y122955D01*
X397500Y122319D01*
X397500Y121681D01*
X822500Y195681D02*
X822437Y195045D01*
X822313Y194419D01*
X822127Y193808D01*
X821883Y193218D01*
X821582Y192654D01*
X821227Y192123D01*
X820822Y191630D01*
X820370Y191178D01*
X819877Y190773D01*
X819346Y190418D01*
X818782Y190117D01*
X818192Y189873D01*
X817581Y189687D01*
X816955Y189563D01*
X816319Y189500D01*
X815681Y189500D01*
X815045Y189563D01*
X814419Y189687D01*
X813808Y189873D01*
X813218Y190117D01*
X812654Y190418D01*
X812123Y190773D01*
X811630Y191178D01*
X811178Y191630D01*
X810773Y192123D01*
X810418Y192654D01*
X810117Y193218D01*
X809873Y193808D01*
X809687Y194419D01*
X809563Y195045D01*
X809500Y195681D01*
X809500Y196319D01*
X809563Y196955D01*
X809687Y197581D01*
X809873Y198192D01*
X810117Y198782D01*
X810418Y199346D01*
X810773Y199877D01*
X811178Y200370D01*
X811630Y200822D01*
X812123Y201227D01*
X812654Y201582D01*
X813218Y201883D01*
X813808Y202127D01*
X814419Y202313D01*
X815045Y202437D01*
X815681Y202500D01*
X816319Y202500D01*
X816955Y202437D01*
X817581Y202313D01*
X818192Y202127D01*
X818782Y201883D01*
X819346Y201582D01*
X819877Y201227D01*
X820370Y200822D01*
X820822Y200370D01*
X821227Y199877D01*
X821582Y199346D01*
X821883Y198782D01*
X822127Y198192D01*
X822313Y197581D01*
X822437Y196955D01*
X822500Y196319D01*
X822500Y195681D01*
X854500Y195681D02*
X854437Y195045D01*
X854313Y194419D01*
X854127Y193808D01*
X853883Y193218D01*
X853582Y192654D01*
X853227Y192123D01*
X852822Y191630D01*
X852370Y191178D01*
X851877Y190773D01*
X851346Y190418D01*
X850782Y190117D01*
X850192Y189873D01*
X849581Y189687D01*
X848955Y189563D01*
X848319Y189500D01*
X847681Y189500D01*
X847045Y189563D01*
X846419Y189687D01*
X845808Y189873D01*
X845218Y190117D01*
X844654Y190418D01*
X844123Y190773D01*
X843630Y191178D01*
X843178Y191630D01*
X842773Y192123D01*
X842418Y192654D01*
X842117Y193218D01*
X841873Y193808D01*
X841687Y194419D01*
X841563Y195045D01*
X841500Y195681D01*
X841500Y196319D01*
X841563Y196955D01*
X841687Y197581D01*
X841873Y198192D01*
X842117Y198782D01*
X842418Y199346D01*
X842773Y199877D01*
X843178Y200370D01*
X843630Y200822D01*
X844123Y201227D01*
X844654Y201582D01*
X845218Y201883D01*
X845808Y202127D01*
X846419Y202313D01*
X847045Y202437D01*
X847681Y202500D01*
X848319Y202500D01*
X848955Y202437D01*
X849581Y202313D01*
X850192Y202127D01*
X850782Y201883D01*
X851346Y201582D01*
X851877Y201227D01*
X852370Y200822D01*
X852822Y200370D01*
X853227Y199877D01*
X853582Y199346D01*
X853883Y198782D01*
X854127Y198192D01*
X854313Y197581D01*
X854437Y196955D01*
X854500Y196319D01*
X854500Y195681D01*
X59250Y119649D02*
X59171Y118951D01*
X59015Y118267D01*
X58783Y117604D01*
X58479Y116972D01*
X58105Y116378D01*
X57668Y115829D01*
X57171Y115332D01*
X56622Y114895D01*
X56028Y114521D01*
X55396Y114217D01*
X54733Y113985D01*
X54049Y113829D01*
X53351Y113750D01*
X52649Y113750D01*
X51951Y113829D01*
X51267Y113985D01*
X50604Y114217D01*
X49972Y114521D01*
X49378Y114895D01*
X48829Y115332D01*
X48332Y115829D01*
X47895Y116378D01*
X47521Y116972D01*
X47217Y117604D01*
X46985Y118267D01*
X46829Y118951D01*
X46750Y119649D01*
X46750Y120351D01*
X46829Y121049D01*
X46985Y121733D01*
X47217Y122396D01*
X47521Y123028D01*
X47895Y123622D01*
X48332Y124171D01*
X48829Y124668D01*
X49378Y125105D01*
X49972Y125479D01*
X50604Y125783D01*
X51267Y126015D01*
X51951Y126171D01*
X52649Y126250D01*
X53351Y126250D01*
X54049Y126171D01*
X54733Y126015D01*
X55396Y125783D01*
X56028Y125479D01*
X56622Y125105D01*
X57171Y124668D01*
X57668Y124171D01*
X58105Y123622D01*
X58479Y123028D01*
X58783Y122396D01*
X59015Y121733D01*
X59171Y121049D01*
X59250Y120351D01*
X59250Y119649D01*
X173250Y179649D02*
X173171Y178951D01*
X173015Y178267D01*
X172783Y177604D01*
X172479Y176972D01*
X172105Y176378D01*
X171668Y175829D01*
X171171Y175332D01*
X170622Y174895D01*
X170028Y174521D01*
X169396Y174217D01*
X168733Y173985D01*
X168049Y173829D01*
X167351Y173750D01*
X166649Y173750D01*
X165951Y173829D01*
X165267Y173985D01*
X164604Y174217D01*
X163972Y174521D01*
X163378Y174895D01*
X162829Y175332D01*
X162332Y175829D01*
X161895Y176378D01*
X161521Y176972D01*
X161217Y177604D01*
X160985Y178267D01*
X160829Y178951D01*
X160750Y179649D01*
X160750Y180351D01*
X160829Y181049D01*
X160985Y181733D01*
X161217Y182396D01*
X161521Y183028D01*
X161895Y183622D01*
X162332Y184171D01*
X162829Y184668D01*
X163378Y185105D01*
X163972Y185479D01*
X164604Y185783D01*
X165267Y186015D01*
X165951Y186171D01*
X166649Y186250D01*
X167351Y186250D01*
X168049Y186171D01*
X168733Y186015D01*
X169396Y185783D01*
X170028Y185479D01*
X170622Y185105D01*
X171171Y184668D01*
X171668Y184171D01*
X172105Y183622D01*
X172479Y183028D01*
X172783Y182396D01*
X173015Y181733D01*
X173171Y181049D01*
X173250Y180351D01*
X173250Y179649D01*
M02*
