G04 EAGLE Gerber X2 export*
%TF.Part,Single*%
%TF.FileFunction,Soldermask,Bot,1*%
%TF.FilePolarity,Positive*%
%TF.GenerationSoftware,Autodesk,EAGLE,9.2.0*%
%TF.CreationDate,2018-10-30T13:39:26Z*%
G75*
%MOMM*%
%FSLAX34Y34*%
%LPD*%
%INSoldermask Bottom*%
%IPPOS*%
%AMOC8*
5,1,8,0,0,1.08239X$1,22.5*%
G01*
%ADD10C,1.244600*%
%ADD11R,1.451600X1.451600*%
%ADD12C,1.451600*%
%ADD13C,1.509600*%
%ADD14R,1.509600X1.509600*%
%ADD15R,2.351600X2.351600*%
%ADD16C,1.981200*%
%ADD17P,1.539592X8X112.500000*%
%ADD18C,1.422400*%
%ADD19P,2.446851X8X22.500000*%
%ADD20C,2.051600*%
%ADD21C,1.981200*%
%ADD22C,2.901600*%
%ADD23R,2.641600X5.181600*%
%ADD24P,1.539592X8X292.500000*%
%ADD25C,1.401600*%
%ADD26C,1.351600*%


D10*
X427300Y291875D03*
X427300Y341875D03*
D11*
X837850Y501050D03*
D12*
X817850Y501050D03*
D10*
X173700Y659750D03*
X173700Y609750D03*
X152200Y815100D03*
X152200Y865100D03*
D11*
X154850Y562250D03*
D12*
X174850Y562250D03*
D11*
X154804Y436179D03*
D12*
X174804Y436179D03*
D11*
X674200Y799900D03*
D12*
X674200Y819900D03*
D11*
X425050Y521000D03*
D12*
X425050Y541000D03*
D11*
X304950Y562850D03*
D12*
X284950Y562850D03*
D11*
X175000Y712400D03*
D12*
X155000Y712400D03*
D10*
X567600Y626600D03*
X567600Y576600D03*
X282100Y707350D03*
X282100Y757350D03*
X438300Y572450D03*
X438300Y622450D03*
D11*
X424850Y802850D03*
D12*
X424850Y782850D03*
D10*
X178300Y864600D03*
X178300Y814600D03*
D13*
X845300Y119850D03*
D14*
X819900Y119850D03*
D13*
X746300Y448500D03*
D14*
X746300Y423100D03*
D15*
X508750Y850000D03*
X471250Y850000D03*
X508750Y354000D03*
X378750Y850000D03*
X341250Y850000D03*
X378750Y354000D03*
X638750Y850000D03*
X601250Y850000D03*
X638750Y354000D03*
D16*
X174100Y760650D03*
X155050Y773350D03*
X174100Y786050D03*
D17*
X304050Y852000D03*
X285000Y839300D03*
X304050Y826600D03*
X174100Y514150D03*
X155050Y501450D03*
X174100Y488750D03*
D16*
X304100Y488300D03*
X285050Y501000D03*
X304100Y513700D03*
D18*
X773396Y635400D02*
X786604Y635400D01*
X786604Y610000D02*
X773396Y610000D01*
X773396Y584600D02*
X786604Y584600D01*
X726604Y584600D02*
X713396Y584600D01*
X713396Y610000D02*
X726604Y610000D01*
X726604Y635400D02*
X713396Y635400D01*
X773396Y530400D02*
X786604Y530400D01*
X786604Y505000D02*
X773396Y505000D01*
X773396Y479600D02*
X786604Y479600D01*
X726604Y479600D02*
X713396Y479600D01*
X713396Y505000D02*
X726604Y505000D01*
X726604Y530400D02*
X713396Y530400D01*
X773396Y740400D02*
X786604Y740400D01*
X786604Y715000D02*
X773396Y715000D01*
X773396Y689600D02*
X786604Y689600D01*
X726604Y689600D02*
X713396Y689600D01*
X713396Y715000D02*
X726604Y715000D01*
X726604Y740400D02*
X713396Y740400D01*
D13*
X177800Y938000D03*
D14*
X177800Y912600D03*
D13*
X152400Y908600D03*
D14*
X152400Y934000D03*
D13*
X281450Y635350D03*
D14*
X281450Y660750D03*
D13*
X307400Y664750D03*
D14*
X307400Y639350D03*
D10*
X412000Y571950D03*
X412000Y621950D03*
X682900Y476600D03*
X682900Y526600D03*
D13*
X542600Y582650D03*
D14*
X542600Y557250D03*
D13*
X541800Y500100D03*
D14*
X541800Y525500D03*
D18*
X713396Y794600D02*
X726604Y794600D01*
X726604Y820000D02*
X713396Y820000D01*
X713396Y845400D02*
X726604Y845400D01*
X773396Y845400D02*
X786604Y845400D01*
X786604Y820000D02*
X773396Y820000D01*
X773396Y794600D02*
X786604Y794600D01*
D15*
X211250Y350000D03*
X248750Y350000D03*
X211250Y846000D03*
D11*
X555100Y438150D03*
D12*
X555100Y418150D03*
D11*
X424675Y395500D03*
D12*
X424675Y375500D03*
D17*
X750000Y367300D03*
X750000Y392700D03*
D19*
X358850Y144200D03*
X391200Y144200D03*
D20*
X40050Y218850D02*
X20550Y218850D01*
X20550Y381150D02*
X40050Y381150D01*
X147550Y218850D02*
X167050Y218850D01*
X167050Y381150D02*
X147550Y381150D01*
X809750Y381150D02*
X829250Y381150D01*
X829250Y218850D02*
X809750Y218850D01*
X702250Y381150D02*
X682750Y381150D01*
X682750Y218850D02*
X702250Y218850D01*
D21*
X687100Y881702D02*
X687100Y900498D01*
X712500Y900498D02*
X712500Y881702D01*
X737900Y881702D02*
X737900Y900498D01*
X763300Y900498D02*
X763300Y881702D01*
X243250Y50848D02*
X243250Y32052D01*
X268650Y32052D02*
X268650Y50848D01*
X294050Y50848D02*
X294050Y32052D01*
X319450Y32052D02*
X319450Y50848D01*
X344850Y50848D02*
X344850Y32052D01*
X370250Y32052D02*
X370250Y50848D01*
D11*
X675750Y95800D03*
D12*
X675750Y75800D03*
D11*
X829450Y89350D03*
D12*
X829450Y69350D03*
D13*
X755800Y193200D03*
D14*
X781200Y193200D03*
D13*
X817200Y549400D03*
D14*
X842600Y549400D03*
D15*
X81250Y350000D03*
X118750Y350000D03*
X81250Y846000D03*
D19*
X815150Y174000D03*
X848900Y174000D03*
D22*
X90000Y960000D03*
X760000Y960000D03*
D10*
X38650Y538250D03*
X38650Y488250D03*
D23*
X311150Y967000D03*
D24*
X532550Y99900D03*
X551600Y112600D03*
X532550Y125300D03*
D11*
X683550Y564050D03*
D12*
X683550Y584050D03*
D11*
X425350Y673950D03*
D12*
X425350Y653950D03*
D10*
X435100Y483875D03*
X435100Y433875D03*
X567900Y500650D03*
X567900Y550650D03*
D11*
X700550Y162750D03*
D12*
X700550Y142750D03*
D22*
X609000Y55000D03*
X175000Y58000D03*
D25*
X359000Y122000D03*
X391000Y122000D03*
X816000Y196000D03*
X848000Y196000D03*
D20*
X78000Y135000D02*
X78000Y115500D01*
X110000Y115500D02*
X110000Y135000D01*
X142000Y135000D02*
X142000Y115500D01*
X142000Y165000D02*
X142000Y184500D01*
X110000Y184500D02*
X110000Y165000D01*
X78000Y165000D02*
X78000Y184500D01*
D26*
X53000Y120000D03*
X167000Y180000D03*
D11*
X295000Y248000D03*
D12*
X295000Y228000D03*
D11*
X285000Y297000D03*
D12*
X305000Y297000D03*
D11*
X285000Y355000D03*
D12*
X305000Y355000D03*
M02*
