G04 EAGLE Gerber X2 export*
%TF.Part,Single*%
%TF.FileFunction,Soldermask,Top,1*%
%TF.FilePolarity,Positive*%
%TF.GenerationSoftware,Autodesk,EAGLE,9.2.0*%
%TF.CreationDate,2018-10-30T13:39:26Z*%
G75*
%MOMM*%
%FSLAX34Y34*%
%LPD*%
%INSoldermask Top*%
%IPPOS*%
%AMOC8*
5,1,8,0,0,1.08239X$1,22.5*%
G01*
%ADD10C,1.244600*%
%ADD11R,1.451600X1.451600*%
%ADD12C,1.451600*%
%ADD13R,1.601600X1.401600*%
%ADD14R,1.401600X1.601600*%
%ADD15R,1.601600X2.051600*%
%ADD16R,1.401600X1.701600*%
%ADD17C,1.509600*%
%ADD18R,1.509600X1.509600*%
%ADD19R,0.701600X2.301600*%
%ADD20R,2.336800X1.320800*%
%ADD21R,2.301600X3.701600*%
%ADD22R,2.351600X2.351600*%
%ADD23R,2.501600X1.801600*%
%ADD24C,1.981200*%
%ADD25P,1.539592X8X112.500000*%
%ADD26R,1.701600X1.904600*%
%ADD27R,1.904600X1.701600*%
%ADD28C,1.422400*%
%ADD29R,1.524000X0.812800*%
%ADD30R,1.168400X2.286000*%
%ADD31R,0.635000X1.651000*%
%ADD32R,1.101600X1.701600*%
%ADD33R,5.501600X6.301600*%
%ADD34R,1.901600X1.701600*%
%ADD35R,1.701600X2.101600*%
%ADD36R,3.201600X0.901600*%
%ADD37R,1.371600X2.641600*%
%ADD38R,2.101600X1.701600*%
%ADD39P,2.446851X8X22.500000*%
%ADD40C,2.051600*%
%ADD41C,1.981200*%
%ADD42R,2.311400X0.711200*%
%ADD43R,2.501600X2.501600*%
%ADD44R,1.371600X1.371600*%
%ADD45C,2.901600*%
%ADD46P,1.539592X8X292.500000*%
%ADD47R,0.736600X1.371600*%
%ADD48R,1.701600X1.901600*%
%ADD49C,1.401600*%
%ADD50C,1.351600*%
%ADD51R,2.133600X1.371600*%
%ADD52R,1.371600X2.133600*%

G36*
X538050Y626107D02*
X538050Y626107D01*
X538116Y626109D01*
X538159Y626127D01*
X538206Y626135D01*
X538263Y626169D01*
X538323Y626194D01*
X538358Y626225D01*
X538399Y626250D01*
X538441Y626301D01*
X538489Y626345D01*
X538511Y626387D01*
X538540Y626424D01*
X538561Y626486D01*
X538592Y626545D01*
X538600Y626599D01*
X538612Y626636D01*
X538611Y626676D01*
X538619Y626730D01*
X538619Y629270D01*
X538608Y629335D01*
X538606Y629401D01*
X538588Y629444D01*
X538580Y629491D01*
X538546Y629548D01*
X538521Y629608D01*
X538490Y629643D01*
X538465Y629684D01*
X538414Y629726D01*
X538370Y629774D01*
X538328Y629796D01*
X538291Y629825D01*
X538229Y629846D01*
X538170Y629877D01*
X538116Y629885D01*
X538079Y629897D01*
X538039Y629896D01*
X537985Y629904D01*
X534175Y629904D01*
X534110Y629893D01*
X534044Y629891D01*
X534001Y629873D01*
X533954Y629865D01*
X533897Y629831D01*
X533837Y629806D01*
X533802Y629775D01*
X533761Y629750D01*
X533720Y629699D01*
X533671Y629655D01*
X533649Y629613D01*
X533620Y629576D01*
X533599Y629514D01*
X533568Y629455D01*
X533560Y629401D01*
X533548Y629364D01*
X533548Y629361D01*
X533549Y629324D01*
X533541Y629270D01*
X533541Y626730D01*
X533552Y626665D01*
X533554Y626599D01*
X533572Y626556D01*
X533580Y626509D01*
X533614Y626452D01*
X533639Y626392D01*
X533670Y626357D01*
X533695Y626316D01*
X533746Y626275D01*
X533790Y626226D01*
X533832Y626204D01*
X533869Y626175D01*
X533931Y626154D01*
X533990Y626123D01*
X534044Y626115D01*
X534081Y626103D01*
X534121Y626104D01*
X534175Y626096D01*
X537985Y626096D01*
X538050Y626107D01*
G37*
D10*
X427300Y291875D03*
X427300Y341875D03*
D11*
X837850Y501050D03*
D12*
X817850Y501050D03*
D13*
X665400Y689000D03*
X665400Y708000D03*
D14*
X656200Y741084D03*
X675200Y741084D03*
D10*
X173700Y659750D03*
X173700Y609750D03*
X152200Y815100D03*
X152200Y865100D03*
D11*
X154850Y562250D03*
D12*
X174850Y562250D03*
D11*
X154804Y436179D03*
D12*
X174804Y436179D03*
D11*
X674200Y799900D03*
D12*
X674200Y819900D03*
D11*
X425050Y521000D03*
D12*
X425050Y541000D03*
D11*
X304950Y562850D03*
D12*
X284950Y562850D03*
D11*
X175000Y712400D03*
D12*
X155000Y712400D03*
D10*
X567600Y626600D03*
X567600Y576600D03*
X282100Y707350D03*
X282100Y757350D03*
D15*
X626083Y684750D03*
X626083Y712250D03*
D10*
X438300Y572450D03*
X438300Y622450D03*
D11*
X424850Y802850D03*
D12*
X424850Y782850D03*
D15*
X441180Y709400D03*
X441180Y736900D03*
D16*
X636083Y650600D03*
X616083Y650600D03*
D10*
X178300Y864600D03*
X178300Y814600D03*
D17*
X845300Y119850D03*
D18*
X819900Y119850D03*
D17*
X746300Y448500D03*
D18*
X746300Y423100D03*
D19*
X572850Y902300D03*
X560150Y902300D03*
X547450Y902300D03*
X534750Y902300D03*
X534750Y850300D03*
X547450Y850300D03*
X560150Y850300D03*
X572850Y850300D03*
D20*
X844688Y406336D03*
X844688Y429450D03*
X844688Y452564D03*
D21*
X782710Y429450D03*
D22*
X508750Y850000D03*
X471250Y850000D03*
X508750Y354000D03*
X378750Y850000D03*
X341250Y850000D03*
X378750Y354000D03*
X638750Y850000D03*
X601250Y850000D03*
X638750Y354000D03*
D23*
X626083Y771500D03*
X626083Y734500D03*
D24*
X174100Y760650D03*
X155050Y773350D03*
X174100Y786050D03*
D25*
X304050Y852000D03*
X285000Y839300D03*
X304050Y826600D03*
X174100Y514150D03*
X155050Y501450D03*
X174100Y488750D03*
D24*
X304100Y488300D03*
X285050Y501000D03*
X304100Y513700D03*
D26*
X604930Y627400D03*
X633370Y627400D03*
D27*
X412900Y705446D03*
X412900Y733886D03*
X635551Y822220D03*
X635551Y793780D03*
X209950Y649220D03*
X209950Y620780D03*
D26*
X310320Y896400D03*
X281880Y896400D03*
X178870Y966050D03*
X150430Y966050D03*
D27*
X125200Y821680D03*
X125200Y850120D03*
D26*
X210380Y790550D03*
X238820Y790550D03*
D27*
X245900Y520721D03*
X245900Y492281D03*
X216300Y492281D03*
X216300Y520721D03*
X751304Y594942D03*
X751304Y623382D03*
X94050Y514320D03*
X94050Y485880D03*
D26*
X276680Y790550D03*
X305120Y790550D03*
D27*
X337000Y599220D03*
X337000Y570780D03*
X749793Y496945D03*
X749793Y525385D03*
X751304Y701611D03*
X751304Y730051D03*
D26*
X474145Y307800D03*
X502585Y307800D03*
X374220Y417850D03*
X345780Y417850D03*
D27*
X470550Y705446D03*
X470550Y733886D03*
X385000Y598886D03*
X385000Y570446D03*
D28*
X773396Y635400D02*
X786604Y635400D01*
X786604Y610000D02*
X773396Y610000D01*
X773396Y584600D02*
X786604Y584600D01*
X726604Y584600D02*
X713396Y584600D01*
X713396Y610000D02*
X726604Y610000D01*
X726604Y635400D02*
X713396Y635400D01*
X773396Y530400D02*
X786604Y530400D01*
X786604Y505000D02*
X773396Y505000D01*
X773396Y479600D02*
X786604Y479600D01*
X726604Y479600D02*
X713396Y479600D01*
X713396Y505000D02*
X726604Y505000D01*
X726604Y530400D02*
X713396Y530400D01*
X773396Y740400D02*
X786604Y740400D01*
X786604Y715000D02*
X773396Y715000D01*
X773396Y689600D02*
X786604Y689600D01*
X726604Y689600D02*
X713396Y689600D01*
X713396Y715000D02*
X726604Y715000D01*
X726604Y740400D02*
X713396Y740400D01*
D29*
X590550Y711200D03*
X590550Y698500D03*
X590550Y736600D03*
X501650Y711200D03*
X590550Y685800D03*
X590550Y723900D03*
X590550Y774700D03*
X501650Y762000D03*
X501650Y698500D03*
X590550Y647700D03*
X501650Y647700D03*
X590550Y673100D03*
X501650Y749300D03*
X501650Y736600D03*
X501650Y723900D03*
X501650Y685800D03*
X501650Y673100D03*
X590550Y660400D03*
X501650Y660400D03*
X501650Y800100D03*
X501650Y787400D03*
X501650Y774700D03*
X590550Y812800D03*
X501650Y812800D03*
X590550Y800100D03*
X590550Y787400D03*
X590550Y762000D03*
X590550Y749300D03*
D17*
X177800Y938000D03*
D18*
X177800Y912600D03*
D17*
X152400Y908600D03*
D18*
X152400Y934000D03*
D17*
X281450Y635350D03*
D18*
X281450Y660750D03*
D17*
X307400Y664750D03*
D18*
X307400Y639350D03*
D30*
X634300Y549900D03*
X620300Y505900D03*
X606300Y549900D03*
D27*
X361000Y570446D03*
X361000Y598886D03*
D10*
X412000Y571950D03*
X412000Y621950D03*
D26*
X345780Y474161D03*
X374220Y474161D03*
D10*
X682900Y476600D03*
X682900Y526600D03*
D17*
X542600Y582650D03*
D18*
X542600Y557250D03*
D17*
X541800Y500100D03*
D18*
X541800Y525500D03*
D28*
X713396Y794600D02*
X726604Y794600D01*
X726604Y820000D02*
X713396Y820000D01*
X713396Y845400D02*
X726604Y845400D01*
X773396Y845400D02*
X786604Y845400D01*
X786604Y820000D02*
X773396Y820000D01*
X773396Y794600D02*
X786604Y794600D01*
D22*
X211250Y350000D03*
X248750Y350000D03*
X211250Y846000D03*
D11*
X555100Y438150D03*
D12*
X555100Y418150D03*
D11*
X424675Y395500D03*
D12*
X424675Y375500D03*
D31*
X325200Y156334D03*
X312500Y156334D03*
X299800Y156334D03*
X287100Y156334D03*
X287100Y82166D03*
X299800Y82166D03*
X312500Y82166D03*
X325200Y82166D03*
D25*
X750000Y367300D03*
X750000Y392700D03*
D32*
X791100Y171700D03*
X745500Y171700D03*
D33*
X768300Y98700D03*
D34*
X720800Y97850D03*
X720800Y69850D03*
D35*
X387200Y173150D03*
X359200Y173150D03*
D36*
X481200Y177900D03*
X481200Y209900D03*
X481200Y231900D03*
X481200Y253900D03*
X428200Y177900D03*
X428200Y209900D03*
X428200Y231900D03*
X428200Y253900D03*
D37*
X538100Y160500D03*
X563500Y160500D03*
X563500Y230500D03*
X538100Y230500D03*
D35*
X518850Y69650D03*
X546850Y69650D03*
X546950Y36000D03*
X518950Y36000D03*
D38*
X480200Y97750D03*
X480200Y69750D03*
D39*
X358850Y144200D03*
X391200Y144200D03*
D40*
X40050Y218850D02*
X20550Y218850D01*
X20550Y381150D02*
X40050Y381150D01*
X147550Y218850D02*
X167050Y218850D01*
X167050Y381150D02*
X147550Y381150D01*
X809750Y381150D02*
X829250Y381150D01*
X829250Y218850D02*
X809750Y218850D01*
X702250Y381150D02*
X682750Y381150D01*
X682750Y218850D02*
X702250Y218850D01*
D41*
X687100Y881702D02*
X687100Y900498D01*
X712500Y900498D02*
X712500Y881702D01*
X737900Y881702D02*
X737900Y900498D01*
X763300Y900498D02*
X763300Y881702D01*
X243250Y50848D02*
X243250Y32052D01*
X268650Y32052D02*
X268650Y50848D01*
X294050Y50848D02*
X294050Y32052D01*
X319450Y32052D02*
X319450Y50848D01*
X344850Y50848D02*
X344850Y32052D01*
X370250Y32052D02*
X370250Y50848D01*
D11*
X675750Y95800D03*
D12*
X675750Y75800D03*
D11*
X829450Y89350D03*
D12*
X829450Y69350D03*
D34*
X683400Y414550D03*
X683400Y442550D03*
D17*
X755800Y193200D03*
D18*
X781200Y193200D03*
D17*
X817200Y549400D03*
D18*
X842600Y549400D03*
D22*
X81250Y350000D03*
X118750Y350000D03*
X81250Y846000D03*
D42*
X462788Y446950D03*
X462788Y434250D03*
X462788Y421550D03*
X462788Y408850D03*
X515112Y408850D03*
X515112Y421550D03*
X515112Y434250D03*
X515112Y446950D03*
X462788Y546100D03*
X462788Y533400D03*
X462788Y520700D03*
X462788Y508000D03*
X515112Y508000D03*
X515112Y520700D03*
X515112Y533400D03*
X515112Y546100D03*
D39*
X815150Y174000D03*
X848900Y174000D03*
D43*
X475650Y135000D03*
X431650Y135000D03*
D44*
X780700Y45500D03*
X755300Y45500D03*
D45*
X90000Y960000D03*
X760000Y960000D03*
D10*
X38650Y538250D03*
X38650Y488250D03*
D46*
X532550Y99900D03*
X551600Y112600D03*
X532550Y125300D03*
D11*
X683550Y564050D03*
D12*
X683550Y584050D03*
D26*
X541170Y605850D03*
X512730Y605850D03*
D27*
X409000Y475585D03*
X409000Y447145D03*
D26*
X374220Y446000D03*
X345780Y446000D03*
D11*
X425350Y673950D03*
D12*
X425350Y653950D03*
D10*
X435100Y483875D03*
X435100Y433875D03*
D26*
X570000Y469000D03*
X541560Y469000D03*
D10*
X567900Y500650D03*
X567900Y550650D03*
D34*
X717000Y424000D03*
X717000Y452000D03*
D11*
X700550Y162750D03*
D12*
X700550Y142750D03*
D26*
X245000Y404000D03*
X216560Y404000D03*
D45*
X609000Y55000D03*
X175000Y58000D03*
D27*
X468000Y599220D03*
X468000Y570780D03*
D47*
X520840Y628000D03*
X531000Y628000D03*
X541160Y628000D03*
D48*
X818000Y146000D03*
X846000Y146000D03*
D49*
X359000Y122000D03*
X391000Y122000D03*
X816000Y196000D03*
X848000Y196000D03*
D40*
X78000Y135000D02*
X78000Y115500D01*
X110000Y115500D02*
X110000Y135000D01*
X142000Y135000D02*
X142000Y115500D01*
X142000Y165000D02*
X142000Y184500D01*
X110000Y184500D02*
X110000Y165000D01*
X78000Y165000D02*
X78000Y184500D01*
D50*
X53000Y120000D03*
X167000Y180000D03*
D11*
X295000Y248000D03*
D12*
X295000Y228000D03*
D26*
X347780Y320000D03*
X376220Y320000D03*
X217780Y232000D03*
X246220Y232000D03*
X245220Y467000D03*
X216780Y467000D03*
X245220Y441000D03*
X216780Y441000D03*
D11*
X285000Y297000D03*
D12*
X305000Y297000D03*
D11*
X285000Y355000D03*
D12*
X305000Y355000D03*
D48*
X346000Y392000D03*
X374000Y392000D03*
D19*
X298650Y396000D03*
X298650Y448000D03*
X285950Y396000D03*
X311350Y396000D03*
X324050Y396000D03*
X285950Y448000D03*
X311350Y448000D03*
X324050Y448000D03*
D51*
X231000Y692490D03*
X231000Y725510D03*
X94000Y600510D03*
X94000Y567490D03*
D52*
X376510Y511000D03*
X343490Y511000D03*
D51*
X363000Y277510D03*
X363000Y244490D03*
X600000Y306510D03*
X600000Y273490D03*
M02*
