G04 EAGLE Gerber X2 export*
%TF.Part,Single*%
%TF.FileFunction,Paste,Top*%
%TF.FilePolarity,Positive*%
%TF.GenerationSoftware,Autodesk,EAGLE,9.2.2*%
%TF.CreationDate,2019-06-08T20:54:27Z*%
G75*
%MOMM*%
%FSLAX34Y34*%
%LPD*%
%INSolderpaste Top*%
%AMOC8*
5,1,8,0,0,1.08239X$1,22.5*%
G01*
%ADD10R,1.000000X1.100000*%
%ADD11R,1.800000X1.600000*%
%ADD12R,1.600000X1.800000*%
%ADD13R,0.609600X2.209800*%
%ADD14R,1.600000X2.000000*%
%ADD15R,2.000000X1.600000*%
%ADD16R,1.320800X2.184400*%
%ADD17R,1.981200X0.558800*%
%ADD18R,1.270000X0.558800*%
%ADD19R,0.558800X1.270000*%
%ADD20R,3.100000X0.800000*%
%ADD21R,1.600000X1.000000*%
%ADD22R,6.200000X5.400000*%
%ADD23R,2.400000X2.400000*%
%ADD24R,1.270000X1.270000*%
%ADD25R,5.080000X2.540000*%
%ADD26R,1.720000X0.600000*%


D10*
X811550Y707000D03*
X811550Y690000D03*
X760750Y707000D03*
X760750Y690000D03*
D11*
X106700Y649000D03*
X106700Y621000D03*
D12*
X247700Y882650D03*
X219700Y882650D03*
X276850Y755650D03*
X304850Y755650D03*
D13*
X214650Y761238D03*
X227350Y761238D03*
X240050Y761238D03*
X252750Y761238D03*
X252750Y813562D03*
X240050Y813562D03*
X227350Y813562D03*
X214650Y813562D03*
D14*
X219700Y850900D03*
X247700Y850900D03*
X276850Y723900D03*
X304850Y723900D03*
X314950Y685800D03*
X342950Y685800D03*
D15*
X341650Y750600D03*
X341650Y722600D03*
D16*
X405180Y726850D03*
X392450Y682850D03*
X379720Y726850D03*
D14*
X679500Y825500D03*
X651500Y825500D03*
D15*
X284500Y877600D03*
X284500Y849600D03*
X144800Y621000D03*
X144800Y649000D03*
D14*
X245100Y590550D03*
X273100Y590550D03*
D15*
X342926Y401539D03*
X342926Y373539D03*
X106700Y557500D03*
X106700Y585500D03*
X290850Y649000D03*
X290850Y621000D03*
X246400Y649000D03*
X246400Y621000D03*
D16*
X182870Y613000D03*
X195600Y657000D03*
X208330Y613000D03*
D17*
X207538Y527050D03*
X207538Y539750D03*
X207538Y552450D03*
X207538Y565150D03*
X158262Y565150D03*
X158262Y552450D03*
X158262Y539750D03*
X158262Y527050D03*
D18*
X708426Y613350D03*
X708426Y621350D03*
X708426Y629350D03*
X708426Y637350D03*
X708426Y645350D03*
X708426Y653350D03*
X708426Y661350D03*
X708426Y669350D03*
D19*
X693500Y684276D03*
X685500Y684276D03*
X677500Y684276D03*
X669500Y684276D03*
X661500Y684276D03*
X653500Y684276D03*
X645500Y684276D03*
X637500Y684276D03*
D18*
X622574Y669350D03*
X622574Y661350D03*
X622574Y653350D03*
X622574Y645350D03*
X622574Y637350D03*
X622574Y629350D03*
X622574Y621350D03*
X622574Y613350D03*
D19*
X637500Y598424D03*
X645500Y598424D03*
X653500Y598424D03*
X661500Y598424D03*
X669500Y598424D03*
X677500Y598424D03*
X685500Y598424D03*
X693500Y598424D03*
D15*
X767100Y532100D03*
X767100Y560100D03*
X798850Y532100D03*
X798850Y560100D03*
X830600Y532100D03*
X830600Y560100D03*
X735350Y532100D03*
X735350Y560100D03*
X304399Y374155D03*
X304399Y402155D03*
D14*
X437489Y405703D03*
X409489Y405703D03*
D20*
X415261Y317400D03*
X415261Y285400D03*
X415261Y263400D03*
X415261Y241400D03*
X468261Y317400D03*
X468261Y285400D03*
X468261Y263400D03*
X468261Y241400D03*
D14*
X646205Y495312D03*
X618205Y495312D03*
X561938Y553029D03*
X589938Y553029D03*
D15*
X682778Y471657D03*
X682778Y499657D03*
D12*
X651500Y850900D03*
X679500Y850900D03*
D11*
X570250Y979200D03*
X570250Y951200D03*
D21*
X630200Y975300D03*
X630200Y929700D03*
D22*
X703200Y952500D03*
D14*
X575429Y206433D03*
X603429Y206433D03*
D12*
X524500Y889000D03*
X552500Y889000D03*
X524500Y863600D03*
X552500Y863600D03*
X524500Y838200D03*
X552500Y838200D03*
D11*
X582950Y864900D03*
X582950Y836900D03*
D23*
X402200Y355600D03*
X446200Y355600D03*
D24*
X729000Y914400D03*
X729000Y889000D03*
D14*
X759908Y414194D03*
X731908Y414194D03*
D12*
X552500Y920750D03*
X524500Y920750D03*
D25*
X853134Y850000D03*
X29946Y850000D03*
D10*
X570250Y639200D03*
X570250Y656200D03*
D26*
X602000Y698500D03*
X602000Y711200D03*
X602000Y723900D03*
X602000Y736600D03*
X551200Y736600D03*
X551200Y723900D03*
X551200Y711200D03*
X551200Y698500D03*
D14*
X813494Y605553D03*
X841494Y605553D03*
D15*
X683176Y416622D03*
X683176Y444622D03*
D14*
X580746Y388234D03*
X552746Y388234D03*
D15*
X290458Y457711D03*
X290458Y485711D03*
M02*
