G04 EAGLE Gerber X2 export*
%TF.Part,Single*%
%TF.FileFunction,Soldermask,Top,1*%
%TF.FilePolarity,Positive*%
%TF.GenerationSoftware,Autodesk,EAGLE,9.2.2*%
%TF.CreationDate,2019-06-08T20:54:27Z*%
G75*
%MOMM*%
%FSLAX34Y34*%
%LPD*%
%INSoldermask Top*%
%AMOC8*
5,1,8,0,0,1.08239X$1,22.5*%
G01*
%ADD10R,1.451600X1.451600*%
%ADD11C,1.451600*%
%ADD12R,1.101600X1.201600*%
%ADD13C,1.752600*%
%ADD14R,1.901600X1.701600*%
%ADD15C,1.244600*%
%ADD16R,1.701600X1.901600*%
%ADD17C,1.509600*%
%ADD18R,1.509600X1.509600*%
%ADD19R,0.711200X2.311400*%
%ADD20C,1.981200*%
%ADD21R,1.701600X2.101600*%
%ADD22R,2.101600X1.701600*%
%ADD23R,1.422400X2.286000*%
%ADD24R,1.981200X1.981200*%
%ADD25P,3.357141X8X22.500000*%
%ADD26C,1.101600*%
%ADD27R,1.422400X1.422400*%
%ADD28C,1.422400*%
%ADD29R,2.082800X0.660400*%
%ADD30R,1.371600X0.660400*%
%ADD31R,0.660400X1.371600*%
%ADD32P,3.357141X8X112.500000*%
%ADD33P,3.357141X8X202.500000*%
%ADD34P,3.357141X8X292.500000*%
%ADD35R,3.201600X0.901600*%
%ADD36C,2.051600*%
%ADD37R,1.701600X1.101600*%
%ADD38R,6.301600X5.501600*%
%ADD39P,2.446851X8X22.500000*%
%ADD40R,2.501600X2.501600*%
%ADD41R,1.371600X1.371600*%
%ADD42C,1.351600*%
%ADD43C,1.981200*%
%ADD44C,2.901600*%
%ADD45R,5.181600X2.641600*%
%ADD46P,1.539592X8X22.500000*%
%ADD47R,1.821600X0.701600*%
%ADD48C,1.601600*%
%ADD49P,2.446851X8X202.500000*%
%ADD50P,1.539592X8X292.500000*%


D10*
X343874Y644664D03*
D11*
X343874Y624664D03*
D10*
X360700Y790100D03*
D11*
X360700Y810100D03*
D10*
X297200Y810100D03*
D11*
X297200Y790100D03*
D12*
X811550Y707000D03*
X811550Y690000D03*
X760750Y707000D03*
X760750Y690000D03*
D13*
X595650Y635000D03*
X595650Y660400D03*
D10*
X325300Y863600D03*
D11*
X345300Y863600D03*
D14*
X106700Y649000D03*
X106700Y621000D03*
D15*
X296800Y520700D03*
X246800Y520700D03*
D10*
X293550Y933450D03*
D11*
X313550Y933450D03*
D16*
X247700Y882650D03*
X219700Y882650D03*
X276850Y755650D03*
X304850Y755650D03*
D17*
X246400Y914400D03*
D18*
X221000Y914400D03*
D19*
X214650Y761238D03*
X227350Y761238D03*
X240050Y761238D03*
X252750Y761238D03*
X252750Y813562D03*
X240050Y813562D03*
X227350Y813562D03*
X214650Y813562D03*
D20*
X538500Y796798D02*
X538500Y778002D01*
X563900Y778002D02*
X563900Y796798D01*
X589300Y796798D02*
X589300Y778002D01*
X614700Y778002D02*
X614700Y796798D01*
X640100Y796798D02*
X640100Y778002D01*
X665500Y778002D02*
X665500Y796798D01*
D21*
X219700Y850900D03*
X247700Y850900D03*
X276850Y723900D03*
X304850Y723900D03*
X314950Y685800D03*
X342950Y685800D03*
D22*
X341650Y750600D03*
X341650Y722600D03*
D23*
X405180Y726850D03*
X392450Y682850D03*
X379720Y726850D03*
D21*
X679500Y825500D03*
X651500Y825500D03*
D22*
X284500Y877600D03*
X284500Y849600D03*
X144800Y621000D03*
X144800Y649000D03*
D21*
X245100Y590550D03*
X273100Y590550D03*
D22*
X342926Y401539D03*
X342926Y373539D03*
X106700Y557500D03*
X106700Y585500D03*
X290850Y649000D03*
X290850Y621000D03*
X246400Y649000D03*
X246400Y621000D03*
D23*
X182870Y613000D03*
X195600Y657000D03*
X208330Y613000D03*
D24*
X177000Y845000D03*
X177000Y820000D03*
X177000Y795000D03*
D25*
X107000Y864000D03*
X107000Y776000D03*
D26*
X107000Y820000D03*
D27*
X240050Y711200D03*
D28*
X214650Y717804D02*
X214650Y704596D01*
X189250Y704596D02*
X189250Y717804D01*
X163850Y717804D02*
X163850Y704596D01*
X138450Y704596D02*
X138450Y717804D01*
X113050Y717804D02*
X113050Y704596D01*
X87650Y704596D02*
X87650Y717804D01*
X62250Y717804D02*
X62250Y704596D01*
D29*
X207538Y527050D03*
X207538Y539750D03*
X207538Y552450D03*
X207538Y565150D03*
X158262Y565150D03*
X158262Y552450D03*
X158262Y539750D03*
X158262Y527050D03*
D30*
X708426Y613350D03*
X708426Y621350D03*
X708426Y629350D03*
X708426Y637350D03*
X708426Y645350D03*
X708426Y653350D03*
X708426Y661350D03*
X708426Y669350D03*
D31*
X693500Y684276D03*
X685500Y684276D03*
X677500Y684276D03*
X669500Y684276D03*
X661500Y684276D03*
X653500Y684276D03*
X645500Y684276D03*
X637500Y684276D03*
D30*
X622574Y669350D03*
X622574Y661350D03*
X622574Y653350D03*
X622574Y645350D03*
X622574Y637350D03*
X622574Y629350D03*
X622574Y621350D03*
X622574Y613350D03*
D31*
X637500Y598424D03*
X645500Y598424D03*
X653500Y598424D03*
X661500Y598424D03*
X669500Y598424D03*
X677500Y598424D03*
X685500Y598424D03*
X693500Y598424D03*
D13*
X760750Y647700D03*
X811550Y647700D03*
D22*
X767100Y532100D03*
X767100Y560100D03*
X798850Y532100D03*
X798850Y560100D03*
X830600Y532100D03*
X830600Y560100D03*
X735350Y532100D03*
X735350Y560100D03*
D24*
X417000Y580000D03*
X442000Y580000D03*
X467000Y580000D03*
D32*
X398000Y510000D03*
X486000Y510000D03*
D26*
X442000Y510000D03*
D24*
X707000Y795000D03*
X707000Y820000D03*
X707000Y845000D03*
D33*
X777000Y776000D03*
X777000Y864000D03*
D26*
X777000Y820000D03*
D24*
X467000Y800000D03*
X442000Y800000D03*
X417000Y800000D03*
D34*
X486000Y870000D03*
X398000Y870000D03*
D26*
X442000Y870000D03*
D22*
X304399Y374155D03*
X304399Y402155D03*
D21*
X437489Y405703D03*
X409489Y405703D03*
D35*
X415261Y317400D03*
X415261Y285400D03*
X415261Y263400D03*
X415261Y241400D03*
X468261Y317400D03*
X468261Y285400D03*
X468261Y263400D03*
X468261Y241400D03*
D21*
X646205Y495312D03*
X618205Y495312D03*
X561938Y553029D03*
X589938Y553029D03*
D22*
X682778Y471657D03*
X682778Y499657D03*
D36*
X106250Y218850D02*
X86750Y218850D01*
X86750Y381150D02*
X106250Y381150D01*
X213750Y218850D02*
X233250Y218850D01*
X233250Y381150D02*
X213750Y381150D01*
X778750Y381150D02*
X798250Y381150D01*
X798250Y218850D02*
X778750Y218850D01*
X671250Y381150D02*
X651750Y381150D01*
X651750Y218850D02*
X671250Y218850D01*
D16*
X651500Y850900D03*
X679500Y850900D03*
D10*
X655500Y889000D03*
D11*
X675500Y889000D03*
D10*
X515800Y965200D03*
D11*
X535800Y965200D03*
D14*
X570250Y979200D03*
X570250Y951200D03*
D17*
X608350Y838200D03*
D18*
X608350Y863600D03*
D17*
X602000Y952500D03*
D18*
X602000Y977900D03*
D37*
X630200Y975300D03*
X630200Y929700D03*
D38*
X703200Y952500D03*
D10*
X233700Y467200D03*
D11*
X233700Y447200D03*
D21*
X575429Y206433D03*
X603429Y206433D03*
D15*
X296800Y558800D03*
X246800Y558800D03*
D16*
X524500Y889000D03*
X552500Y889000D03*
X524500Y863600D03*
X552500Y863600D03*
X524500Y838200D03*
X552500Y838200D03*
D14*
X582950Y864900D03*
X582950Y836900D03*
D39*
X627400Y533400D03*
X665500Y533400D03*
X582950Y920750D03*
X582950Y889000D03*
D40*
X402200Y355600D03*
X446200Y355600D03*
D41*
X729000Y914400D03*
X729000Y889000D03*
D36*
X145000Y135000D02*
X145000Y115500D01*
X177000Y115500D02*
X177000Y135000D01*
X209000Y135000D02*
X209000Y115500D01*
X209000Y165000D02*
X209000Y184500D01*
X177000Y184500D02*
X177000Y165000D01*
X145000Y165000D02*
X145000Y184500D01*
D42*
X120000Y120000D03*
X234000Y180000D03*
D43*
X474512Y72606D03*
X409488Y72606D03*
X474512Y27394D03*
X409488Y27394D03*
X170200Y50000D03*
X144800Y50000D03*
X309900Y50000D03*
X284500Y50000D03*
X599700Y50000D03*
X574300Y50000D03*
X744700Y50000D03*
X719300Y50000D03*
D21*
X759908Y414194D03*
X731908Y414194D03*
D44*
X107000Y960000D03*
X777000Y960000D03*
D16*
X552500Y920750D03*
X524500Y920750D03*
D45*
X853134Y850000D03*
X29946Y850000D03*
D46*
X580644Y488094D03*
X567944Y507144D03*
X555244Y488094D03*
D13*
X741700Y711200D03*
X741700Y685800D03*
X830600Y711200D03*
X830600Y685800D03*
D12*
X570250Y639200D03*
X570250Y656200D03*
D44*
X297000Y140000D03*
X587000Y140000D03*
D47*
X602000Y698500D03*
X602000Y711200D03*
X602000Y723900D03*
X602000Y736600D03*
X551200Y736600D03*
X551200Y723900D03*
X551200Y711200D03*
X551200Y698500D03*
D10*
X506750Y740250D03*
D11*
X506750Y720250D03*
D48*
X608350Y889000D03*
X608350Y920750D03*
X627400Y558800D03*
X665500Y558800D03*
D49*
X785183Y604258D03*
D39*
X736512Y604258D03*
D48*
X785183Y502936D03*
X736512Y502936D03*
D21*
X813494Y605553D03*
X841494Y605553D03*
D48*
X393696Y440002D03*
X522315Y440002D03*
D39*
X435510Y440002D03*
X480500Y440002D03*
D20*
X507602Y200000D02*
X526398Y200000D01*
X526398Y225400D02*
X507602Y225400D01*
X376398Y200000D02*
X357602Y200000D01*
X357602Y225400D02*
X376398Y225400D01*
X507602Y15000D02*
X526398Y15000D01*
X526398Y40400D02*
X507602Y40400D01*
X376398Y15000D02*
X357602Y15000D01*
X357602Y40400D02*
X376398Y40400D01*
D43*
X766746Y18896D03*
X741346Y18896D03*
X715946Y18896D03*
X690546Y18896D03*
X665146Y18896D03*
X639746Y18896D03*
X860263Y444561D03*
X834863Y444561D03*
X809463Y444561D03*
X784063Y444561D03*
X758663Y444561D03*
X733263Y444561D03*
D48*
X157500Y75000D03*
X297200Y75000D03*
X587000Y75000D03*
X732000Y75000D03*
X159511Y235000D03*
X732000Y235000D03*
X442000Y75000D03*
X442000Y145000D03*
D28*
X573857Y342533D02*
X573857Y355741D01*
X548457Y355741D02*
X548457Y342533D01*
X548457Y266333D02*
X548457Y253125D01*
X573857Y253125D02*
X573857Y266333D01*
D50*
X566828Y423537D03*
X585878Y436237D03*
X566828Y448937D03*
D22*
X683176Y416622D03*
X683176Y444622D03*
D10*
X642699Y436411D03*
D11*
X622699Y436411D03*
D21*
X580746Y388234D03*
X552746Y388234D03*
D22*
X290458Y457711D03*
X290458Y485711D03*
M02*
