G04 EAGLE Gerber X2 export*
%TF.Part,Single*%
%TF.FileFunction,Soldermask,Bot,1*%
%TF.FilePolarity,Positive*%
%TF.GenerationSoftware,Autodesk,EAGLE,9.2.2*%
%TF.CreationDate,2019-06-08T20:54:27Z*%
G75*
%MOMM*%
%FSLAX34Y34*%
%LPD*%
%INSoldermask Bottom*%
%AMOC8*
5,1,8,0,0,1.08239X$1,22.5*%
G01*
%ADD10R,1.451600X1.451600*%
%ADD11C,1.451600*%
%ADD12C,1.752600*%
%ADD13C,1.244600*%
%ADD14C,1.509600*%
%ADD15R,1.509600X1.509600*%
%ADD16C,1.981200*%
%ADD17R,1.981200X1.981200*%
%ADD18P,3.357141X8X22.500000*%
%ADD19C,1.101600*%
%ADD20R,1.422400X1.422400*%
%ADD21C,1.422400*%
%ADD22P,3.357141X8X112.500000*%
%ADD23P,3.357141X8X202.500000*%
%ADD24P,3.357141X8X292.500000*%
%ADD25C,2.051600*%
%ADD26P,2.446851X8X22.500000*%
%ADD27C,1.351600*%
%ADD28C,1.981200*%
%ADD29C,2.901600*%
%ADD30P,1.539592X8X22.500000*%
%ADD31C,1.601600*%
%ADD32P,2.446851X8X202.500000*%
%ADD33P,1.539592X8X292.500000*%


D10*
X343874Y644664D03*
D11*
X343874Y624664D03*
D10*
X360700Y790100D03*
D11*
X360700Y810100D03*
D10*
X297200Y810100D03*
D11*
X297200Y790100D03*
D12*
X595650Y635000D03*
X595650Y660400D03*
D10*
X325300Y863600D03*
D11*
X345300Y863600D03*
D13*
X296800Y520700D03*
X246800Y520700D03*
D10*
X293550Y933450D03*
D11*
X313550Y933450D03*
D14*
X246400Y914400D03*
D15*
X221000Y914400D03*
D16*
X538500Y796798D02*
X538500Y778002D01*
X563900Y778002D02*
X563900Y796798D01*
X589300Y796798D02*
X589300Y778002D01*
X614700Y778002D02*
X614700Y796798D01*
X640100Y796798D02*
X640100Y778002D01*
X665500Y778002D02*
X665500Y796798D01*
D17*
X177000Y845000D03*
X177000Y820000D03*
X177000Y795000D03*
D18*
X107000Y864000D03*
X107000Y776000D03*
D19*
X107000Y820000D03*
D20*
X240050Y711200D03*
D21*
X214650Y717804D02*
X214650Y704596D01*
X189250Y704596D02*
X189250Y717804D01*
X163850Y717804D02*
X163850Y704596D01*
X138450Y704596D02*
X138450Y717804D01*
X113050Y717804D02*
X113050Y704596D01*
X87650Y704596D02*
X87650Y717804D01*
X62250Y717804D02*
X62250Y704596D01*
D12*
X760750Y647700D03*
X811550Y647700D03*
D17*
X417000Y580000D03*
X442000Y580000D03*
X467000Y580000D03*
D22*
X398000Y510000D03*
X486000Y510000D03*
D19*
X442000Y510000D03*
D17*
X707000Y795000D03*
X707000Y820000D03*
X707000Y845000D03*
D23*
X777000Y776000D03*
X777000Y864000D03*
D19*
X777000Y820000D03*
D17*
X467000Y800000D03*
X442000Y800000D03*
X417000Y800000D03*
D24*
X486000Y870000D03*
X398000Y870000D03*
D19*
X442000Y870000D03*
D25*
X106250Y218850D02*
X86750Y218850D01*
X86750Y381150D02*
X106250Y381150D01*
X213750Y218850D02*
X233250Y218850D01*
X233250Y381150D02*
X213750Y381150D01*
X778750Y381150D02*
X798250Y381150D01*
X798250Y218850D02*
X778750Y218850D01*
X671250Y381150D02*
X651750Y381150D01*
X651750Y218850D02*
X671250Y218850D01*
D10*
X655500Y889000D03*
D11*
X675500Y889000D03*
D10*
X515800Y965200D03*
D11*
X535800Y965200D03*
D14*
X608350Y838200D03*
D15*
X608350Y863600D03*
D14*
X602000Y952500D03*
D15*
X602000Y977900D03*
D10*
X233700Y467200D03*
D11*
X233700Y447200D03*
D13*
X296800Y558800D03*
X246800Y558800D03*
D26*
X627400Y533400D03*
X665500Y533400D03*
X582950Y920750D03*
X582950Y889000D03*
D25*
X145000Y135000D02*
X145000Y115500D01*
X177000Y115500D02*
X177000Y135000D01*
X209000Y135000D02*
X209000Y115500D01*
X209000Y165000D02*
X209000Y184500D01*
X177000Y184500D02*
X177000Y165000D01*
X145000Y165000D02*
X145000Y184500D01*
D27*
X120000Y120000D03*
X234000Y180000D03*
D28*
X474512Y72606D03*
X409488Y72606D03*
X474512Y27394D03*
X409488Y27394D03*
X170200Y50000D03*
X144800Y50000D03*
X309900Y50000D03*
X284500Y50000D03*
X599700Y50000D03*
X574300Y50000D03*
X744700Y50000D03*
X719300Y50000D03*
D29*
X107000Y960000D03*
X777000Y960000D03*
D30*
X580644Y488094D03*
X567944Y507144D03*
X555244Y488094D03*
D12*
X741700Y711200D03*
X741700Y685800D03*
X830600Y711200D03*
X830600Y685800D03*
D29*
X297000Y140000D03*
X587000Y140000D03*
D10*
X506750Y740250D03*
D11*
X506750Y720250D03*
D31*
X608350Y889000D03*
X608350Y920750D03*
X627400Y558800D03*
X665500Y558800D03*
D32*
X785183Y604258D03*
D26*
X736512Y604258D03*
D31*
X785183Y502936D03*
X736512Y502936D03*
X393696Y440002D03*
X522315Y440002D03*
D26*
X435510Y440002D03*
X480500Y440002D03*
D16*
X507602Y200000D02*
X526398Y200000D01*
X526398Y225400D02*
X507602Y225400D01*
X376398Y200000D02*
X357602Y200000D01*
X357602Y225400D02*
X376398Y225400D01*
X507602Y15000D02*
X526398Y15000D01*
X526398Y40400D02*
X507602Y40400D01*
X376398Y15000D02*
X357602Y15000D01*
X357602Y40400D02*
X376398Y40400D01*
D28*
X766746Y18896D03*
X741346Y18896D03*
X715946Y18896D03*
X690546Y18896D03*
X665146Y18896D03*
X639746Y18896D03*
X860263Y444561D03*
X834863Y444561D03*
X809463Y444561D03*
X784063Y444561D03*
X758663Y444561D03*
X733263Y444561D03*
D31*
X157500Y75000D03*
X297200Y75000D03*
X587000Y75000D03*
X732000Y75000D03*
X159511Y235000D03*
X732000Y235000D03*
X442000Y75000D03*
X442000Y145000D03*
D21*
X573857Y342533D02*
X573857Y355741D01*
X548457Y355741D02*
X548457Y342533D01*
X548457Y266333D02*
X548457Y253125D01*
X573857Y253125D02*
X573857Y266333D01*
D33*
X566828Y423537D03*
X585878Y436237D03*
X566828Y448937D03*
D10*
X642699Y436411D03*
D11*
X622699Y436411D03*
M02*
