G04 EAGLE Gerber X2 export*
%TF.Part,Single*%
%TF.FileFunction,Copper,L1,Top,Mixed*%
%TF.FilePolarity,Positive*%
%TF.GenerationSoftware,Autodesk,EAGLE,9.2.2*%
%TF.CreationDate,2019-06-08T20:53:07Z*%
G75*
%MOMM*%
%FSLAX34Y34*%
%LPD*%
%INTop Copper*%
%AMOC8*
5,1,8,0,0,1.08239X$1,22.5*%
G01*
%ADD10P,2.336880X8X202.500000*%
%ADD11R,1.350000X1.350000*%
%ADD12C,1.350000*%
%ADD13R,1.800000X1.600000*%
%ADD14R,1.600000X1.800000*%
%ADD15R,2.400000X2.400000*%
%ADD16C,1.408000*%
%ADD17R,1.408000X1.408000*%
%ADD18C,1.950000*%
%ADD19R,3.100000X0.800000*%
%ADD20P,2.336880X8X22.500000*%
%ADD21R,2.000000X1.600000*%
%ADD22R,1.600000X2.000000*%
%ADD23C,1.308000*%
%ADD24R,1.879600X1.879600*%
%ADD25P,3.247170X8X292.500000*%
%ADD26P,3.247170X8X22.500000*%
%ADD27P,3.247170X8X202.500000*%
%ADD28R,1.524000X0.330200*%
%ADD29R,1.270000X1.270000*%
%ADD30C,0.812800*%
%ADD31R,1.219200X2.235200*%
%ADD32R,3.600000X2.200000*%
%ADD33P,1.429621X8X202.500000*%
%ADD34C,1.879600*%
%ADD35C,1.955800*%
%ADD36C,1.879600*%
%ADD37R,2.200000X0.600000*%
%ADD38C,1.143000*%
%ADD39C,1.320800*%
%ADD40P,1.429621X8X22.500000*%
%ADD41C,0.152400*%
%ADD42C,0.756400*%
%ADD43C,0.203200*%


D10*
X267672Y964694D03*
X267672Y928475D03*
D11*
X697770Y962330D03*
D12*
X717770Y962330D03*
D13*
X412595Y872038D03*
X412595Y844038D03*
X450737Y870599D03*
X450737Y842599D03*
D14*
X636299Y897536D03*
X664299Y897536D03*
X639425Y923765D03*
X667425Y923765D03*
D11*
X641639Y964091D03*
D12*
X661639Y964091D03*
D11*
X216194Y959020D03*
D12*
X216194Y939020D03*
D13*
X861632Y96183D03*
X861632Y124183D03*
D15*
X302066Y221866D03*
X346066Y221866D03*
D16*
X603556Y960896D03*
D17*
X603556Y935496D03*
D16*
X166692Y957507D03*
D17*
X166692Y932107D03*
D18*
X106250Y218850D02*
X86750Y218850D01*
X86750Y381150D02*
X106250Y381150D01*
X213750Y218850D02*
X233250Y218850D01*
X233250Y381150D02*
X213750Y381150D01*
D19*
X285941Y176872D03*
X285941Y144872D03*
X285941Y122872D03*
X285941Y100872D03*
X338941Y176872D03*
X338941Y144872D03*
X338941Y122872D03*
X338941Y100872D03*
D10*
X308500Y379478D03*
D20*
X308500Y417580D03*
D18*
X778750Y381150D02*
X798250Y381150D01*
X798250Y218850D02*
X778750Y218850D01*
X671250Y381150D02*
X651750Y381150D01*
X651750Y218850D02*
X671250Y218850D01*
D21*
X440330Y346012D03*
X440330Y374012D03*
X572942Y333354D03*
X572942Y305354D03*
D22*
X543071Y395345D03*
X515071Y395345D03*
X514224Y474884D03*
X486224Y474884D03*
X408047Y470244D03*
X380047Y470244D03*
D21*
X387866Y218297D03*
X387866Y246297D03*
D22*
X507599Y243633D03*
X479599Y243633D03*
X479612Y285242D03*
X507612Y285242D03*
D21*
X600558Y248449D03*
X600558Y276449D03*
X339206Y429029D03*
X339206Y457029D03*
X82949Y510767D03*
X82949Y538767D03*
D22*
X862692Y184359D03*
X834692Y184359D03*
X862517Y153087D03*
X834517Y153087D03*
X773725Y186046D03*
X801725Y186046D03*
D13*
X368642Y900618D03*
X368642Y872618D03*
D23*
X692260Y901700D02*
X705340Y901700D01*
X705340Y876300D02*
X692260Y876300D01*
X692260Y850900D02*
X705340Y850900D01*
X705340Y825500D02*
X692260Y825500D01*
X692260Y800100D02*
X705340Y800100D01*
X705340Y774700D02*
X692260Y774700D01*
X692260Y749300D02*
X705340Y749300D01*
X705340Y723900D02*
X692260Y723900D01*
X692260Y698500D02*
X705340Y698500D01*
X705340Y673100D02*
X692260Y673100D01*
X692260Y647700D02*
X705340Y647700D01*
X705340Y622300D02*
X692260Y622300D01*
X692260Y596900D02*
X705340Y596900D01*
X705340Y571500D02*
X692260Y571500D01*
X692260Y546100D02*
X705340Y546100D01*
X705340Y520700D02*
X692260Y520700D01*
X692260Y495300D02*
X705340Y495300D01*
X705340Y469900D02*
X692260Y469900D01*
X692260Y444500D02*
X705340Y444500D01*
X705340Y419100D02*
X692260Y419100D01*
X844660Y901700D02*
X857740Y901700D01*
X857740Y876300D02*
X844660Y876300D01*
X844660Y850900D02*
X857740Y850900D01*
X857740Y825500D02*
X844660Y825500D01*
X844660Y800100D02*
X857740Y800100D01*
X857740Y774700D02*
X844660Y774700D01*
X844660Y749300D02*
X857740Y749300D01*
X857740Y723900D02*
X844660Y723900D01*
X844660Y698500D02*
X857740Y698500D01*
X857740Y673100D02*
X844660Y673100D01*
X844660Y647700D02*
X857740Y647700D01*
X857740Y622300D02*
X844660Y622300D01*
X844660Y596900D02*
X857740Y596900D01*
X857740Y571500D02*
X844660Y571500D01*
X844660Y546100D02*
X857740Y546100D01*
X857740Y520700D02*
X844660Y520700D01*
X844660Y495300D02*
X857740Y495300D01*
X857740Y469900D02*
X844660Y469900D01*
X844660Y444500D02*
X857740Y444500D01*
X857740Y419100D02*
X844660Y419100D01*
D24*
X750000Y660000D03*
X775000Y660000D03*
X800000Y660000D03*
D25*
X731000Y730000D03*
X819000Y730000D03*
D24*
X295000Y455000D03*
X295000Y480000D03*
X295000Y505000D03*
D26*
X225000Y436000D03*
X225000Y524000D03*
D24*
X600000Y780000D03*
X625000Y780000D03*
X650000Y780000D03*
D25*
X581000Y850000D03*
X669000Y850000D03*
D24*
X590000Y505000D03*
X590000Y480000D03*
X590000Y455000D03*
D27*
X660000Y524000D03*
X660000Y436000D03*
D24*
X417500Y590000D03*
X442500Y590000D03*
X467500Y590000D03*
D25*
X398500Y660000D03*
X486500Y660000D03*
D28*
X808423Y145206D03*
X808423Y150032D03*
X808423Y155112D03*
X808423Y160192D03*
X808423Y165018D03*
X767783Y165018D03*
X767783Y160192D03*
X767783Y155112D03*
X767783Y150032D03*
X767783Y145206D03*
D24*
X85000Y660000D03*
X110000Y660000D03*
X135000Y660000D03*
D25*
X66000Y730000D03*
X154000Y730000D03*
D29*
X537690Y887107D03*
X563090Y887107D03*
D30*
X537690Y887107D01*
D31*
X527613Y913320D03*
X550727Y913320D03*
X573841Y913320D03*
D32*
X550727Y975298D03*
D33*
X405200Y430000D03*
X379800Y430000D03*
X505200Y430000D03*
X479800Y430000D03*
X545200Y350000D03*
X519800Y350000D03*
X565200Y270000D03*
X539800Y270000D03*
D22*
X367462Y393482D03*
X339462Y393482D03*
X350787Y313218D03*
X322787Y313218D03*
D33*
X365200Y350000D03*
X339800Y350000D03*
X345200Y270000D03*
X319800Y270000D03*
D34*
X30000Y430602D02*
X30000Y449398D01*
X55400Y449398D02*
X55400Y430602D01*
X80800Y430602D02*
X80800Y449398D01*
X106200Y449398D02*
X106200Y430602D01*
X131600Y430602D02*
X131600Y449398D01*
D35*
X54887Y799030D02*
X35329Y799030D01*
X35329Y824430D02*
X54887Y824430D01*
X54887Y849830D02*
X35329Y849830D01*
X525329Y799030D02*
X544887Y799030D01*
X544887Y824430D02*
X525329Y824430D01*
X525329Y849830D02*
X544887Y849830D01*
X285908Y739891D02*
X285908Y720333D01*
X260508Y720333D02*
X260508Y739891D01*
X235108Y739891D02*
X235108Y720333D01*
D24*
X235000Y780000D03*
X260000Y780000D03*
X285000Y780000D03*
D25*
X216000Y850000D03*
X304000Y850000D03*
D36*
X475012Y382606D03*
X409988Y382606D03*
X475012Y337394D03*
X409988Y337394D03*
D22*
X193342Y184719D03*
X165342Y184719D03*
D21*
X62093Y185973D03*
X62093Y157973D03*
D11*
X46555Y119279D03*
D12*
X46555Y99279D03*
D16*
X126508Y178437D03*
D17*
X101108Y178437D03*
D11*
X125012Y42305D03*
D12*
X145012Y42305D03*
D13*
X88787Y54753D03*
X88787Y82753D03*
D14*
X123599Y85679D03*
X151599Y85679D03*
D37*
X116899Y139581D03*
X168899Y139581D03*
X116899Y152281D03*
X116899Y126881D03*
X116899Y114181D03*
X168899Y152281D03*
X168899Y126881D03*
X168899Y114181D03*
D38*
X245740Y37760D03*
X245740Y87760D03*
D21*
X213937Y86198D03*
X213937Y58198D03*
D22*
X293606Y36948D03*
X321606Y36948D03*
D11*
X651721Y90841D03*
D12*
X651721Y110841D03*
D22*
X600728Y85077D03*
X572728Y85077D03*
D21*
X180608Y58405D03*
X180608Y86405D03*
X29055Y185092D03*
X29055Y157092D03*
D34*
X700000Y109398D02*
X700000Y90602D01*
X725400Y90602D02*
X725400Y109398D01*
X750800Y109398D02*
X750800Y90602D01*
X776200Y90602D02*
X776200Y109398D01*
X801600Y109398D02*
X801600Y90602D01*
D20*
X424723Y211066D03*
X533127Y212693D03*
D36*
X410439Y283600D03*
X423139Y302650D03*
X435839Y283600D03*
D11*
X71819Y610452D03*
D12*
X71819Y590452D03*
D34*
X580602Y370000D02*
X599398Y370000D01*
X599398Y395400D02*
X580602Y395400D01*
X771413Y569697D02*
X790209Y569697D01*
X790209Y544297D02*
X771413Y544297D01*
X771413Y518897D02*
X790209Y518897D01*
X790209Y493497D02*
X771413Y493497D01*
D36*
X540898Y82827D03*
X464698Y82827D03*
X189670Y23816D03*
X776054Y42886D03*
D37*
X598542Y41123D03*
X650542Y41123D03*
X598542Y53823D03*
X598542Y28423D03*
X598542Y15723D03*
X650542Y53823D03*
X650542Y28423D03*
X650542Y15723D03*
D21*
X507701Y52015D03*
X507701Y24015D03*
X553287Y23315D03*
X553287Y51315D03*
X690208Y47832D03*
X690208Y19832D03*
X732300Y18962D03*
X732300Y46962D03*
D11*
X448144Y48737D03*
D12*
X448144Y28737D03*
D11*
X374718Y26105D03*
D12*
X374718Y46105D03*
D39*
X422061Y168381D02*
X422061Y181589D01*
X396661Y181589D02*
X396661Y168381D01*
X396661Y92181D02*
X396661Y78973D01*
X422061Y78973D02*
X422061Y92181D01*
D40*
X532371Y145545D03*
X519671Y164595D03*
X506971Y145545D03*
D22*
X573389Y203460D03*
X601389Y203460D03*
D21*
X464479Y162877D03*
X464479Y134877D03*
D11*
X572310Y148233D03*
D12*
X592310Y148233D03*
D41*
X167640Y150876D02*
X146304Y150876D01*
X138684Y143256D01*
X167640Y150876D02*
X168899Y152281D01*
X192024Y231648D02*
X192024Y379476D01*
X192024Y231648D02*
X192024Y185928D01*
X192024Y379476D02*
X132588Y438912D01*
X192024Y185928D02*
X193342Y184719D01*
X132588Y438912D02*
X131600Y440000D01*
X190500Y182880D02*
X190500Y169164D01*
X190500Y182880D02*
X192024Y184404D01*
X193342Y184719D01*
D42*
X138684Y143256D03*
X190500Y169164D03*
D41*
X131600Y440000D02*
X132588Y440988D01*
X368642Y872618D02*
X368531Y872730D01*
X351904Y156257D02*
X282655Y156257D01*
X245364Y193548D01*
X245364Y224028D01*
X237744Y231648D01*
X192024Y231648D01*
X690201Y50292D02*
X690208Y47832D01*
X688848Y48768D02*
X655320Y48768D01*
X650748Y53340D01*
X688848Y48768D02*
X690208Y47832D01*
X650748Y53340D02*
X650542Y53823D01*
X534924Y115824D02*
X534924Y115824D01*
X392337Y115824D01*
X351904Y156257D01*
D42*
X555640Y90742D03*
X534924Y115824D03*
D43*
X549990Y812111D02*
X557206Y819327D01*
X557206Y829533D01*
X549990Y836749D01*
X473783Y812111D02*
X381000Y719328D01*
X473783Y812111D02*
X549990Y812111D01*
X549990Y836749D02*
X548189Y836749D01*
X535108Y849830D01*
D41*
X381000Y719328D02*
X132588Y470916D01*
X132588Y440988D01*
D43*
X382663Y858597D02*
X368642Y872618D01*
X526341Y858597D02*
X535108Y849830D01*
X526341Y858597D02*
X382663Y858597D01*
X555640Y90742D02*
X562188Y84194D01*
X562188Y74025D01*
X576850Y59363D01*
D41*
X615696Y54864D02*
X649501Y54864D01*
X650542Y53823D01*
D43*
X615696Y54864D02*
X611197Y59363D01*
X576850Y59363D01*
D41*
X699516Y470916D02*
X758952Y470916D01*
X780288Y492252D01*
X699516Y470916D02*
X698800Y469900D01*
X780288Y492252D02*
X780811Y493497D01*
X538560Y450168D02*
X499872Y411480D01*
X670223Y673100D02*
X698800Y673100D01*
X538560Y541436D02*
X538560Y450168D01*
X538560Y541436D02*
X670223Y673100D01*
X499872Y411480D02*
X499872Y292982D01*
X507612Y285242D01*
X556074Y359850D02*
X531876Y384048D01*
X531876Y438912D01*
X543113Y450149D01*
X543113Y539058D01*
X663998Y659943D01*
X714756Y659943D01*
X556074Y335280D02*
X556074Y335161D01*
X556074Y335280D02*
X556074Y359850D01*
X714756Y659943D02*
X714756Y682544D01*
X698800Y698500D01*
X600456Y300228D02*
X600456Y277368D01*
X600456Y300228D02*
X579120Y321564D01*
X562356Y321564D01*
X556260Y327660D01*
X556260Y335280D01*
X600456Y277368D02*
X600558Y276449D01*
X556260Y335280D02*
X556074Y335280D01*
X466344Y345948D02*
X440436Y345948D01*
X466344Y345948D02*
X473964Y338328D01*
X440436Y345948D02*
X440330Y346012D01*
X473964Y338328D02*
X475012Y337394D01*
X338328Y428244D02*
X318516Y428244D01*
X309372Y419100D01*
X338328Y428244D02*
X339206Y429029D01*
X309372Y419100D02*
X308500Y417580D01*
X286512Y38100D02*
X246888Y38100D01*
X286512Y38100D02*
X292608Y38100D01*
X293606Y36948D01*
X246888Y38100D02*
X245740Y37760D01*
X286512Y38100D02*
X286512Y100584D01*
X285941Y100872D01*
X286512Y38100D02*
X293606Y36948D01*
X234696Y115824D02*
X179832Y170688D01*
X179832Y269748D01*
X82949Y463773D02*
X82949Y510767D01*
X82949Y463773D02*
X92484Y454238D01*
X92484Y403906D01*
X74714Y386136D01*
X74714Y374866D01*
X179832Y269748D01*
X82949Y510767D02*
X82949Y517534D01*
X95235Y529820D01*
X95235Y567036D01*
X71819Y590452D01*
X234696Y115824D02*
X323989Y115824D01*
X338941Y100872D01*
X395097Y211066D02*
X424723Y211066D01*
X395097Y211066D02*
X387866Y218297D01*
X345948Y220980D02*
X345948Y184404D01*
X339852Y178308D01*
X345948Y220980D02*
X346066Y221866D01*
X339852Y178308D02*
X338941Y176872D01*
X363087Y221866D02*
X372849Y231628D01*
X435839Y231628D01*
X531403Y212693D02*
X533127Y212693D01*
X435839Y231628D02*
X435839Y283600D01*
D43*
X363087Y221866D02*
X362201Y220980D01*
X345948Y220980D01*
D41*
X435839Y231628D02*
X435884Y231628D01*
X437388Y230124D01*
X515696Y230124D01*
X533127Y212693D01*
X480060Y243840D02*
X480060Y284988D01*
X480060Y243840D02*
X479599Y243633D01*
X480060Y284988D02*
X479612Y285242D01*
X468818Y285242D01*
X451409Y302650D02*
X423139Y302650D01*
X451409Y302650D02*
X468818Y285242D01*
X284988Y123444D02*
X271272Y137160D01*
X269748Y137160D01*
X222504Y184404D01*
X222504Y217932D01*
X284988Y123444D02*
X285941Y122872D01*
X222504Y217932D02*
X223500Y218850D01*
X338941Y122872D02*
X339852Y121920D01*
D43*
X338941Y122872D02*
X365969Y122872D01*
X396661Y92181D01*
X413091Y108610D01*
X582419Y108610D02*
X686026Y212218D01*
X582419Y108610D02*
X413091Y108610D01*
X686026Y212218D02*
X686026Y356624D01*
X661500Y381150D01*
D41*
X330708Y38100D02*
X323088Y38100D01*
X330708Y38100D02*
X352044Y59436D01*
X323088Y38100D02*
X321606Y36948D01*
X413004Y842772D02*
X412595Y844038D01*
X449580Y842772D02*
X450737Y842599D01*
X88392Y83820D02*
X62484Y83820D01*
X47244Y99060D01*
X88392Y83820D02*
X88787Y82753D01*
X47244Y99060D02*
X46555Y99279D01*
X62484Y187452D02*
X94488Y219456D01*
X62484Y187452D02*
X62093Y185973D01*
X94488Y219456D02*
X96500Y218850D01*
X117348Y114300D02*
X124968Y114300D01*
X156972Y146304D01*
X181356Y146304D01*
X182880Y147828D01*
X182880Y163068D01*
X176784Y169164D01*
X176784Y195072D01*
X173736Y198120D01*
X146304Y198120D01*
X128016Y179832D01*
X117348Y114300D02*
X116899Y114181D01*
X126508Y178437D02*
X128016Y179832D01*
X298704Y112776D02*
X352044Y59436D01*
X298704Y112776D02*
X217932Y112776D01*
X182880Y147828D01*
X835064Y96183D02*
X861632Y96183D01*
X835064Y96183D02*
X834215Y97033D01*
D42*
X834215Y97033D03*
D41*
X700000Y99577D02*
X700000Y92984D01*
X700000Y99577D02*
X700000Y100000D01*
X728032Y76710D02*
X737084Y85762D01*
X728032Y76710D02*
X726693Y76710D01*
X716274Y76710D01*
X700000Y92984D01*
X737084Y114507D02*
X767783Y145206D01*
X737084Y114507D02*
X737084Y85762D01*
X551688Y914400D02*
X551688Y973836D01*
X550727Y975298D01*
X537690Y887107D02*
X537690Y874406D01*
X535845Y872562D01*
D42*
X535845Y872562D03*
D41*
X537690Y900283D02*
X550727Y913320D01*
X537690Y900283D02*
X537690Y887107D01*
X537690Y886746D01*
X450909Y842772D02*
X450737Y842599D01*
X80800Y461611D02*
X80800Y440000D01*
X70663Y471748D02*
X70663Y526481D01*
X70663Y471748D02*
X80800Y461611D01*
X70663Y526481D02*
X82949Y538767D01*
D43*
X550727Y913320D02*
X551688Y914281D01*
X551688Y914400D01*
D41*
X573024Y22860D02*
X591312Y22860D01*
X573024Y22860D02*
X554736Y22860D01*
X591312Y22860D02*
X597408Y16764D01*
X554736Y22860D02*
X553287Y23315D01*
X597408Y16764D02*
X598542Y15723D01*
D42*
X573024Y22860D03*
D41*
X272437Y928475D02*
X267672Y928475D01*
X272437Y928475D02*
X356874Y844038D01*
X412595Y844038D01*
D43*
X413861Y842772D01*
X449580Y842772D01*
X732300Y71103D02*
X732300Y46962D01*
X732300Y71103D02*
X726693Y76710D01*
X700000Y99577D02*
X679469Y99577D01*
X658914Y120131D01*
X635783Y120131D01*
X600728Y85077D01*
D41*
X88849Y82753D02*
X88787Y82753D01*
X88849Y82753D02*
X103632Y97536D01*
X139742Y97536D01*
X151599Y85679D01*
X664464Y897636D02*
X664464Y922020D01*
X665988Y923544D01*
X664464Y897636D02*
X664299Y897536D01*
X665988Y923544D02*
X667425Y923765D01*
X665988Y925068D02*
X665988Y960120D01*
X662940Y963168D01*
X665988Y925068D02*
X667425Y923765D01*
X662940Y963168D02*
X661639Y964091D01*
X563090Y887107D02*
X560842Y884860D01*
X560842Y868664D01*
D42*
X560842Y868664D03*
D41*
X539800Y270000D02*
X533966Y270000D01*
X507599Y243633D01*
D42*
X817347Y195489D03*
D41*
X792778Y198332D02*
X791439Y196993D01*
X807534Y161081D02*
X808423Y160192D01*
X807534Y161081D02*
X799856Y161081D01*
X792778Y198332D02*
X810672Y198332D01*
X813515Y195489D01*
X817347Y195489D01*
X791439Y169498D02*
X799856Y161081D01*
X791439Y169498D02*
X791439Y196993D01*
X268224Y964692D02*
X267672Y964694D01*
D43*
X331748Y900618D02*
X368642Y900618D01*
X311516Y931966D02*
X305040Y938442D01*
X293924Y938442D02*
X267672Y964694D01*
X311516Y920850D02*
X331748Y900618D01*
X305040Y938442D02*
X293924Y938442D01*
X311516Y931966D02*
X311516Y920850D01*
D41*
X800100Y144780D02*
X807720Y144780D01*
X800100Y144780D02*
X792480Y152400D01*
X792480Y158496D01*
X774192Y176784D01*
X774192Y185928D01*
X807720Y144780D02*
X808423Y145206D01*
X774192Y185928D02*
X773725Y186046D01*
X809244Y144780D02*
X816864Y144780D01*
X809244Y144780D02*
X808423Y145206D01*
X758952Y582168D02*
X758952Y659892D01*
X750000Y660000D01*
X618967Y803148D02*
X600000Y784181D01*
X600000Y780000D01*
X618967Y803148D02*
X665988Y803148D01*
X674206Y811366D01*
X715862Y811366D01*
X760984Y856488D01*
X301752Y220980D02*
X301752Y193548D01*
X300228Y192024D02*
X286512Y178308D01*
X300228Y192024D02*
X301752Y193548D01*
X301752Y220980D02*
X302066Y221866D01*
X286512Y178308D02*
X285941Y176872D01*
X301752Y223215D02*
X301752Y331911D01*
X301752Y223215D02*
X301752Y222504D01*
X262952Y387920D02*
X294132Y419100D01*
X262952Y387920D02*
X262952Y370711D01*
X301752Y331911D01*
X301752Y222504D02*
X302066Y221866D01*
X577596Y778764D02*
X603504Y778764D01*
X600000Y780000D01*
X861060Y152400D02*
X861060Y140208D01*
X861060Y124192D01*
X861632Y124183D01*
X861060Y152400D02*
X862517Y153087D01*
X862584Y153924D02*
X862584Y182880D01*
X862692Y184359D01*
X862584Y153924D02*
X862517Y153087D01*
X861060Y140208D02*
X821436Y140208D01*
X816864Y144780D01*
X574548Y914400D02*
X574548Y931164D01*
X603504Y960120D01*
X603556Y960896D01*
X637032Y922020D02*
X637032Y914400D01*
X637032Y897636D01*
X637032Y922020D02*
X638556Y923544D01*
X637032Y897636D02*
X636299Y897536D01*
X638556Y923544D02*
X639425Y923765D01*
X676656Y963168D02*
X697678Y963168D01*
X676656Y963168D02*
X665988Y973836D01*
X652272Y973836D01*
X643128Y964692D01*
X697678Y963168D02*
X697770Y962330D01*
X643128Y964692D02*
X641639Y964091D01*
X640080Y961644D02*
X640080Y925068D01*
X640080Y961644D02*
X641604Y963168D01*
X640080Y925068D02*
X639425Y923765D01*
X641604Y963168D02*
X641639Y964091D01*
X637032Y914400D02*
X574548Y914400D01*
X573841Y913320D01*
X702564Y928116D02*
X702564Y962111D01*
X702564Y928116D02*
X734568Y896112D01*
X734568Y856488D01*
X702564Y962111D02*
X697770Y962330D01*
X734568Y856488D02*
X760984Y856488D01*
X387866Y246297D02*
X324833Y246297D01*
X301752Y223215D01*
X627888Y582168D02*
X758952Y582168D01*
X627888Y582168D02*
X574548Y528828D01*
X591312Y504444D02*
X591312Y501396D01*
X601980Y490728D01*
X601980Y469392D01*
X600456Y467868D01*
X579120Y467868D01*
X574548Y472440D01*
X574548Y528828D01*
X590000Y505000D02*
X591312Y504444D01*
X601980Y490728D02*
X652272Y490728D01*
X682752Y521208D01*
X682752Y524256D01*
X688848Y530352D01*
X708660Y530352D01*
X714756Y524256D01*
X714756Y490728D01*
X704088Y480060D01*
X688848Y480060D01*
X682752Y473964D01*
X682752Y434340D01*
X697992Y419100D01*
X294132Y419100D02*
X294132Y454152D01*
X295000Y455000D01*
X390144Y591312D02*
X577596Y778764D01*
X390144Y591312D02*
X387096Y591312D01*
D42*
X387096Y591312D03*
D41*
X845612Y856488D02*
X851200Y850900D01*
X845612Y856488D02*
X760984Y856488D01*
D43*
X698800Y419100D02*
X697992Y419100D01*
D41*
X376428Y190500D02*
X355092Y169164D01*
X323088Y169164D01*
X300228Y192024D01*
X376428Y190500D02*
X462016Y190500D01*
X506971Y145545D01*
X773725Y186046D02*
X773725Y186395D01*
X759149Y200971D01*
X759149Y358751D01*
X698800Y419100D01*
X767783Y165018D02*
X768209Y164592D01*
X801600Y138969D02*
X801600Y100000D01*
X775977Y164592D02*
X768209Y164592D01*
X775977Y164592D02*
X801600Y138969D01*
X781812Y153924D02*
X775716Y160020D01*
X776200Y108447D02*
X776200Y100000D01*
X776200Y108447D02*
X781812Y114059D01*
X781812Y153924D01*
X775716Y160020D02*
X767955Y160020D01*
X767783Y160192D01*
X768096Y155448D02*
X775716Y155448D01*
X778764Y152400D01*
X778764Y128486D01*
X767783Y155112D02*
X768096Y155448D01*
X778764Y128486D02*
X764516Y114238D01*
X764516Y113716D01*
X750800Y100000D01*
X724984Y100416D02*
X724984Y114911D01*
X724984Y100416D02*
X725400Y100000D01*
X767103Y149352D02*
X767783Y150032D01*
X767103Y149352D02*
X759425Y149352D01*
X724984Y114911D01*
X833628Y173736D02*
X833628Y182880D01*
X833628Y173736D02*
X818388Y158496D01*
X818388Y156972D01*
X816864Y155448D01*
X809244Y155448D01*
X833628Y182880D02*
X834692Y184359D01*
X809244Y155448D02*
X808423Y155112D01*
X808087Y155448D02*
X800100Y155448D01*
X808087Y155448D02*
X808423Y155112D01*
X745236Y527304D02*
X720852Y527304D01*
X745236Y527304D02*
X766572Y505968D01*
X795528Y505968D01*
X825707Y475789D01*
X825707Y228299D01*
X800100Y202692D01*
X786384Y202692D01*
D42*
X720852Y527304D03*
D43*
X786384Y202692D02*
X785401Y201709D01*
X796641Y158907D02*
X800100Y155448D01*
X796641Y158907D02*
X796641Y159315D01*
X785401Y170555D01*
X785401Y201709D01*
D41*
X809244Y150876D02*
X808423Y150032D01*
X809244Y150876D02*
X832104Y150876D01*
X833628Y152400D01*
X834517Y153087D02*
X845820Y164390D01*
D43*
X834517Y153087D02*
X833830Y152400D01*
X833628Y152400D01*
D41*
X845817Y392243D02*
X846743Y393169D01*
X845817Y392243D02*
X845817Y204585D01*
X845820Y204582D01*
X845820Y164390D01*
D42*
X846743Y393169D03*
D41*
X698800Y495300D02*
X693420Y495300D01*
X611124Y413004D01*
X611124Y390144D01*
X591312Y370332D01*
X590000Y370000D01*
X591312Y396240D02*
X605028Y396240D01*
X591312Y396240D02*
X590000Y395400D01*
X697992Y513588D02*
X697992Y519684D01*
X697992Y513588D02*
X669036Y484632D01*
X669036Y475488D01*
X605028Y411480D01*
X605028Y396240D01*
X697992Y519684D02*
X698800Y520700D01*
X605028Y396240D02*
X590000Y395400D01*
X786384Y600456D02*
X786384Y659892D01*
X775000Y660000D01*
X839724Y547116D02*
X861060Y547116D01*
X839724Y547116D02*
X786384Y600456D01*
X851200Y546100D02*
X861060Y547116D01*
X861060Y606552D02*
X861060Y623316D01*
X861060Y606552D02*
X867156Y600456D01*
X867156Y542544D01*
X861060Y536448D01*
X800100Y536448D01*
X795528Y531876D01*
X851200Y622300D02*
X861060Y623316D01*
X589788Y483108D02*
X589788Y480060D01*
X589788Y483108D02*
X577596Y495300D01*
X577596Y515112D01*
X605028Y542544D01*
X682752Y542544D01*
X691896Y533400D01*
X765048Y533400D01*
X766572Y531876D01*
X795528Y531876D01*
X590000Y480000D02*
X589788Y480060D01*
X777240Y714756D02*
X778764Y714756D01*
X777240Y714756D02*
X758952Y733044D01*
X758952Y737616D01*
X734568Y762000D01*
X632460Y762000D01*
X509016Y638556D01*
X845820Y647700D02*
X851200Y647700D01*
X845820Y647700D02*
X778764Y714756D01*
X446532Y591312D02*
X443484Y591312D01*
X446532Y591312D02*
X493776Y638556D01*
X509016Y638556D01*
X443484Y591312D02*
X442500Y590000D01*
X698800Y895322D02*
X698800Y901700D01*
X698800Y895322D02*
X699525Y894597D01*
X336804Y641604D02*
X336804Y460248D01*
X336804Y641604D02*
X481584Y786384D01*
X550164Y786384D01*
X617220Y853440D01*
X617220Y854964D01*
X647700Y885444D01*
X690372Y885444D01*
X699525Y894597D01*
X338328Y458724D02*
X338328Y457200D01*
X338328Y458724D02*
X336804Y460248D01*
X338328Y457200D02*
X339206Y457029D01*
X436650Y370332D02*
X440330Y374012D01*
X436650Y370332D02*
X368808Y370332D01*
X354717Y384423D01*
X354717Y641229D01*
X486615Y773127D02*
X562232Y773127D01*
X665406Y876300D02*
X698800Y876300D01*
X486615Y773127D02*
X354717Y641229D01*
X562232Y773127D02*
X665406Y876300D01*
X872541Y358851D02*
X873719Y357673D01*
X873719Y83131D01*
X868496Y77908D01*
X872541Y499359D02*
X851200Y520700D01*
X872541Y499359D02*
X872541Y358851D01*
X775716Y44196D02*
X776054Y42886D01*
X777240Y44196D02*
X803148Y44196D01*
X836676Y77724D01*
X777240Y44196D02*
X776787Y43695D01*
X776054Y42886D01*
D43*
X752054Y18962D02*
X732300Y18962D01*
X752054Y18962D02*
X776787Y43695D01*
X732300Y18962D02*
X712016Y39247D01*
X836676Y77724D02*
X868312Y77724D01*
X868496Y77908D01*
D41*
X662940Y109728D02*
X652834Y109728D01*
X651721Y110841D01*
D43*
X712016Y60653D02*
X712016Y39247D01*
X712016Y60653D02*
X662940Y109728D01*
D41*
X807720Y166116D02*
X807720Y181356D01*
X803148Y185928D01*
X807720Y166116D02*
X808423Y165018D01*
X803148Y185928D02*
X801725Y186046D01*
X338328Y144780D02*
X286512Y144780D01*
X285941Y144872D01*
X338328Y144780D02*
X338941Y144872D01*
X515112Y475488D02*
X515112Y534924D01*
X515112Y475488D02*
X514224Y474884D01*
X697992Y717804D02*
X697992Y723900D01*
X697992Y717804D02*
X515112Y534924D01*
X697992Y723900D02*
X698800Y723900D01*
X698800Y749300D02*
X680527Y749300D01*
X408047Y476821D01*
X408047Y470244D01*
X781812Y519684D02*
X830580Y519684D01*
X844296Y533400D01*
X862584Y533400D01*
X870204Y541020D01*
X870204Y673608D01*
X854964Y688848D01*
X833628Y688848D01*
X751332Y771144D01*
X722376Y771144D01*
X781812Y519684D02*
X780811Y518897D01*
D42*
X722376Y771144D03*
D41*
X381000Y469392D02*
X381000Y454152D01*
X403860Y431292D01*
X381000Y469392D02*
X380047Y470244D01*
X403860Y431292D02*
X405200Y430000D01*
X487680Y448056D02*
X487680Y473964D01*
X487680Y448056D02*
X504444Y431292D01*
X487680Y473964D02*
X486224Y474884D01*
X504444Y431292D02*
X505200Y430000D01*
X515112Y394716D02*
X515112Y370332D01*
X530626Y354818D01*
X515112Y394716D02*
X515071Y395345D01*
X540902Y354298D02*
X545200Y350000D01*
X540902Y354298D02*
X530626Y354818D01*
X565200Y307583D02*
X572942Y305354D01*
X565200Y307583D02*
X565200Y270000D01*
X507492Y641604D02*
X633984Y768096D01*
X446532Y641604D02*
X368808Y563880D01*
X446532Y641604D02*
X507492Y641604D01*
X368808Y563880D02*
X368808Y394828D01*
X367462Y393482D01*
X692196Y768096D02*
X698800Y774700D01*
X692196Y768096D02*
X633984Y768096D01*
X822960Y614172D02*
X822960Y573024D01*
X822960Y614172D02*
X847344Y638556D01*
X862584Y638556D01*
X867156Y643128D01*
X867156Y652272D01*
X856488Y662940D01*
X841248Y662940D01*
X783336Y720852D01*
X783336Y734568D01*
X752856Y765048D01*
X708660Y765048D01*
X699516Y774192D01*
X698800Y774700D01*
D42*
X822960Y573024D03*
D41*
X463296Y374904D02*
X451104Y362712D01*
X463296Y374904D02*
X463296Y507492D01*
D42*
X726948Y755904D03*
D41*
X688848Y733044D02*
X463296Y507492D01*
X400281Y362712D02*
X350787Y313218D01*
X400281Y362712D02*
X451104Y362712D01*
X688848Y733044D02*
X704088Y733044D01*
X726948Y755904D01*
X339852Y393192D02*
X339852Y374904D01*
X364236Y350520D01*
X339852Y393192D02*
X339462Y393482D01*
X364236Y350520D02*
X365200Y350000D01*
X323088Y312420D02*
X323088Y304800D01*
X345948Y281940D01*
X323088Y312420D02*
X322787Y313218D01*
X345948Y281940D02*
X345200Y270000D01*
X56388Y440436D02*
X56388Y647700D01*
X68580Y659892D01*
X56388Y440436D02*
X55400Y440000D01*
X68580Y659892D02*
X85000Y660000D01*
X60960Y156972D02*
X60960Y134112D01*
X47244Y120396D01*
X60960Y156972D02*
X62093Y157973D01*
X47244Y120396D02*
X46555Y119279D01*
X164592Y178308D02*
X164592Y184404D01*
X164592Y178308D02*
X131064Y144780D01*
X131064Y135636D01*
X123444Y128016D01*
X117348Y128016D01*
X164592Y184404D02*
X165342Y184719D01*
X117348Y128016D02*
X116899Y126881D01*
X109728Y134112D02*
X60960Y134112D01*
X109728Y134112D02*
X115824Y128016D01*
X116899Y126881D01*
X117348Y140208D02*
X117348Y150876D01*
X117348Y140208D02*
X116899Y139581D01*
X117348Y150876D02*
X116899Y152281D01*
X114300Y53340D02*
X124968Y42672D01*
X125012Y42305D01*
X123444Y62484D02*
X123444Y70104D01*
X123444Y85344D01*
X123444Y62484D02*
X114300Y53340D01*
X123444Y85344D02*
X123599Y85679D01*
X201168Y59436D02*
X213360Y59436D01*
X201168Y59436D02*
X190500Y70104D01*
X123444Y70104D01*
X213360Y59436D02*
X213937Y58198D01*
X115824Y152400D02*
X89916Y152400D01*
X73152Y169164D01*
X48768Y169164D02*
X19812Y169164D01*
X48768Y169164D02*
X73152Y169164D01*
X19812Y169164D02*
X16764Y166116D01*
X16764Y115824D01*
X77724Y54864D01*
X88392Y54864D01*
X115824Y152400D02*
X116899Y152281D01*
X88787Y54753D02*
X88392Y54864D01*
X60960Y207264D02*
X60960Y379476D01*
X60960Y207264D02*
X48768Y195072D01*
X48768Y169164D01*
D42*
X60960Y379476D03*
D41*
X106200Y440000D02*
X106680Y440480D01*
X388620Y804672D02*
X457200Y804672D01*
X388620Y804672D02*
X245364Y661416D01*
X135636Y661416D01*
X135000Y660000D01*
D43*
X106680Y510540D02*
X106680Y440480D01*
X457200Y804672D02*
X476958Y824430D01*
X535108Y824430D01*
D41*
X106680Y631680D02*
X106680Y510540D01*
X106680Y631680D02*
X135000Y660000D01*
X114300Y53340D02*
X90201Y53340D01*
X88787Y54753D01*
X158496Y108204D02*
X179832Y86868D01*
X158496Y108204D02*
X156972Y108204D01*
X155448Y109728D01*
X155448Y118872D01*
X163068Y126492D01*
X167640Y126492D01*
X179832Y86868D02*
X180608Y86405D01*
X167640Y126492D02*
X168899Y126881D01*
X30480Y117348D02*
X30480Y156972D01*
X30480Y117348D02*
X38100Y109728D01*
X103632Y109728D01*
X105156Y108204D01*
X156972Y108204D01*
X30480Y156972D02*
X29055Y157092D01*
X169164Y138684D02*
X169164Y128016D01*
X169164Y138684D02*
X168899Y139581D01*
X169164Y128016D02*
X168899Y126881D01*
X214884Y86868D02*
X245364Y86868D01*
X214884Y86868D02*
X213937Y86198D01*
X245364Y86868D02*
X245740Y87760D01*
X187452Y112776D02*
X169164Y112776D01*
X187452Y112776D02*
X213360Y86868D01*
X169164Y112776D02*
X168899Y114181D01*
X213360Y86868D02*
X213937Y86198D01*
X30480Y440436D02*
X30480Y786384D01*
X39624Y795528D01*
X30480Y440436D02*
X30000Y440000D01*
X39624Y795528D02*
X45108Y799030D01*
X285000Y731020D02*
X285908Y730112D01*
X285000Y731020D02*
X285000Y780000D01*
X260000Y730620D02*
X260508Y730112D01*
X260000Y730620D02*
X260000Y780000D01*
X235000Y730220D02*
X235108Y730112D01*
X235000Y730220D02*
X235000Y780000D01*
X16764Y811000D02*
X16764Y426720D01*
X30194Y824430D02*
X45108Y824430D01*
X30194Y824430D02*
X16764Y811000D01*
X41148Y822960D02*
X41148Y845820D01*
X45108Y849830D01*
X45108Y824430D02*
X41148Y822960D01*
X16764Y426720D02*
X29055Y414429D01*
X29055Y185092D01*
X580644Y557784D02*
X582168Y557784D01*
X571500Y361188D02*
X571500Y333756D01*
X571500Y361188D02*
X554736Y377952D01*
X571500Y333756D02*
X572942Y333354D01*
X554736Y377952D02*
X554736Y531876D01*
X580644Y557784D01*
X582168Y557784D02*
X621284Y596900D01*
X698800Y596900D01*
X548571Y400845D02*
X543071Y395345D01*
X548571Y400845D02*
X548571Y537582D01*
X633288Y622300D01*
X698800Y622300D01*
X71819Y621819D02*
X71819Y610452D01*
X71819Y621819D02*
X110000Y660000D01*
X527304Y897636D02*
X527304Y912876D01*
X527613Y913320D01*
X605028Y935736D02*
X605028Y947928D01*
X614172Y957072D01*
X614172Y964692D01*
X589788Y989076D01*
X531876Y989076D01*
X528828Y986028D01*
X528828Y914400D01*
X603556Y935496D02*
X605028Y935736D01*
X528828Y914400D02*
X527613Y913320D01*
X193548Y958596D02*
X167640Y932688D01*
X166692Y932107D01*
X193548Y958596D02*
X213360Y958596D01*
X213360Y957072D01*
X228600Y941832D01*
X274320Y941832D01*
X289560Y926592D01*
X289560Y922020D01*
D43*
X412595Y872038D02*
X449298Y872038D01*
X450737Y870599D01*
X500267Y870599D01*
X527304Y897636D01*
X412595Y872038D02*
X401759Y872038D01*
X389463Y884333D01*
X327247Y884333D01*
X289560Y922020D01*
X216194Y959020D02*
X213784Y959020D01*
X213360Y958596D01*
D41*
X597736Y42672D02*
X598542Y41123D01*
X531876Y22860D02*
X509016Y22860D01*
X531876Y22860D02*
X545592Y9144D01*
X609600Y9144D01*
X612648Y12192D01*
X612648Y32004D01*
X605028Y39624D01*
X598932Y39624D01*
X509016Y22860D02*
X507701Y24015D01*
X598542Y41123D02*
X598932Y39624D01*
X507701Y24015D02*
X500449Y16764D01*
X222249Y16764D01*
X180608Y58405D01*
X571500Y54864D02*
X597408Y54864D01*
X571500Y54864D02*
X544068Y82296D01*
X541020Y82296D01*
X597408Y54864D02*
X598542Y53823D01*
X541020Y82296D02*
X540898Y82827D01*
X552330Y51816D02*
X553287Y51315D01*
X544068Y50292D02*
X544068Y45720D01*
X690154Y21336D02*
X690208Y19832D01*
X690372Y21336D01*
X553212Y50292D02*
X544068Y50292D01*
X553212Y50292D02*
X553287Y51315D01*
X554736Y50292D02*
X571500Y50292D01*
X580644Y41148D02*
X592836Y28956D01*
X580644Y41148D02*
X571500Y50292D01*
X592836Y28956D02*
X597408Y28956D01*
X554736Y50292D02*
X553287Y51315D01*
X597408Y28956D02*
X598542Y28423D01*
X552074Y51181D02*
X544068Y50292D01*
X552074Y51181D02*
X553287Y51315D01*
X611124Y47244D02*
X637032Y21336D01*
X611124Y47244D02*
X586740Y47244D01*
X580644Y41148D01*
D43*
X415727Y26105D02*
X374718Y26105D01*
X427649Y38027D02*
X538920Y38027D01*
X427649Y38027D02*
X415727Y26105D01*
X538920Y38027D02*
X552074Y51181D01*
D41*
X637032Y21336D02*
X688704Y21336D01*
X690208Y19832D01*
X507701Y52015D02*
X507492Y52930D01*
X646176Y85344D02*
X650748Y89916D01*
X651721Y90841D01*
X507492Y53340D02*
X493776Y53340D01*
X473964Y73152D02*
X464820Y82296D01*
X473964Y73152D02*
X493776Y53340D01*
X507492Y53340D02*
X507701Y52015D01*
X464820Y82296D02*
X464698Y82827D01*
X473964Y73152D02*
X449580Y48768D01*
X448144Y48737D01*
X507701Y52015D02*
X509016Y53340D01*
D43*
X572728Y85077D02*
X579136Y85077D01*
X591676Y72537D01*
X633417Y72537D01*
X651721Y90841D01*
X572728Y85077D02*
X570245Y85077D01*
X528960Y73274D02*
X507701Y52015D01*
X558258Y97064D02*
X570245Y85077D01*
X528960Y87772D02*
X528960Y73274D01*
X538252Y97064D02*
X558258Y97064D01*
X538252Y97064D02*
X528960Y87772D01*
D41*
X600456Y204216D02*
X600456Y248412D01*
X600558Y248449D01*
X600456Y204216D02*
X601389Y203460D01*
X573024Y175260D02*
X573024Y149352D01*
X573024Y175260D02*
X600456Y202692D01*
X573024Y149352D02*
X572310Y148233D01*
X600456Y202692D02*
X601389Y203460D01*
X465238Y135636D02*
X464479Y134877D01*
X522463Y135636D02*
X532371Y145545D01*
X522463Y135636D02*
X465238Y135636D01*
X463296Y163068D02*
X426720Y163068D01*
X422148Y167640D01*
X463296Y163068D02*
X464479Y162877D01*
X422148Y167640D02*
X422061Y168381D01*
X572621Y202692D02*
X573389Y203460D01*
X557769Y202692D02*
X519671Y164595D01*
X557769Y202692D02*
X572621Y202692D01*
M02*
