G04 EAGLE Gerber X2 export*
%TF.Part,Single*%
%TF.FileFunction,Profile,NP*%
%TF.FilePolarity,Positive*%
%TF.GenerationSoftware,Autodesk,EAGLE,9.2.2*%
%TF.CreationDate,2019-06-08T20:53:07Z*%
G75*
%MOMM*%
%FSLAX34Y34*%
%LPD*%
%IN*%
%AMOC8*
5,1,8,0,0,1.08239X$1,22.5*%
G01*
%ADD10C,0.254000*%


D10*
X0Y0D02*
X438000Y0D01*
X438000Y5000D01*
X448000Y5000D01*
X448000Y0D01*
X885000Y0D01*
X885000Y920000D01*
X810000Y920000D01*
X810000Y1000000D01*
X513000Y1000000D01*
X513000Y980000D01*
X493000Y980000D01*
X493000Y900000D01*
X445000Y900000D01*
X445000Y895000D01*
X440000Y895000D01*
X440000Y900000D01*
X393000Y900000D01*
X393000Y980000D01*
X373000Y980000D01*
X373000Y1000000D01*
X75000Y1000000D01*
X75000Y920000D01*
X0Y920000D01*
X0Y505000D01*
X5000Y505000D01*
X5000Y495000D01*
X0Y495000D01*
X0Y0D01*
X836000Y38585D02*
X836071Y37588D01*
X836214Y36598D01*
X836426Y35621D01*
X836708Y34661D01*
X837057Y33724D01*
X837473Y32814D01*
X837952Y31937D01*
X838493Y31095D01*
X839092Y30295D01*
X839747Y29539D01*
X840454Y28832D01*
X841210Y28177D01*
X842010Y27578D01*
X842852Y27037D01*
X843729Y26558D01*
X844639Y26142D01*
X845576Y25793D01*
X846536Y25511D01*
X847513Y25299D01*
X848503Y25156D01*
X849500Y25085D01*
X850500Y25085D01*
X851498Y25156D01*
X852487Y25299D01*
X853465Y25511D01*
X854424Y25793D01*
X855361Y26142D01*
X856271Y26558D01*
X857148Y27037D01*
X857990Y27578D01*
X858790Y28177D01*
X859546Y28832D01*
X860253Y29539D01*
X860908Y30295D01*
X861507Y31095D01*
X862048Y31937D01*
X862527Y32814D01*
X862943Y33724D01*
X863292Y34661D01*
X863574Y35621D01*
X863786Y36598D01*
X863929Y37588D01*
X864000Y38585D01*
X864000Y39585D01*
X863929Y40583D01*
X863786Y41572D01*
X863574Y42550D01*
X863292Y43509D01*
X862943Y44446D01*
X862527Y45356D01*
X862048Y46233D01*
X861507Y47075D01*
X860908Y47875D01*
X860253Y48631D01*
X859546Y49338D01*
X858790Y49993D01*
X857990Y50592D01*
X857148Y51133D01*
X856271Y51612D01*
X855361Y52028D01*
X854424Y52377D01*
X853465Y52659D01*
X852487Y52871D01*
X851498Y53014D01*
X850500Y53085D01*
X849500Y53085D01*
X848503Y53014D01*
X847513Y52871D01*
X846536Y52659D01*
X845576Y52377D01*
X844639Y52028D01*
X843729Y51612D01*
X842852Y51133D01*
X842010Y50592D01*
X841210Y49993D01*
X840454Y49338D01*
X839747Y48631D01*
X839092Y47875D01*
X838493Y47075D01*
X837952Y46233D01*
X837473Y45356D01*
X837057Y44446D01*
X836708Y43509D01*
X836426Y42550D01*
X836214Y41572D01*
X836071Y40583D01*
X836000Y39585D01*
X836000Y38585D01*
X49000Y37318D02*
X48929Y36321D01*
X48786Y35331D01*
X48574Y34354D01*
X48292Y33394D01*
X47943Y32457D01*
X47527Y31548D01*
X47048Y30670D01*
X46507Y29829D01*
X45908Y29028D01*
X45253Y28272D01*
X44546Y27565D01*
X43790Y26910D01*
X42990Y26311D01*
X42148Y25770D01*
X41271Y25291D01*
X40361Y24876D01*
X39424Y24526D01*
X38465Y24245D01*
X37487Y24032D01*
X36498Y23890D01*
X35500Y23818D01*
X34500Y23818D01*
X33503Y23890D01*
X32513Y24032D01*
X31536Y24245D01*
X30576Y24526D01*
X29639Y24876D01*
X28729Y25291D01*
X27852Y25770D01*
X27010Y26311D01*
X26210Y26910D01*
X25454Y27565D01*
X24747Y28272D01*
X24092Y29028D01*
X23493Y29829D01*
X22952Y30670D01*
X22473Y31548D01*
X22057Y32457D01*
X21708Y33394D01*
X21426Y34354D01*
X21214Y35331D01*
X21071Y36321D01*
X21000Y37318D01*
X21000Y38318D01*
X21071Y39316D01*
X21214Y40306D01*
X21426Y41283D01*
X21708Y42242D01*
X22057Y43179D01*
X22473Y44089D01*
X22952Y44967D01*
X23493Y45808D01*
X24092Y46608D01*
X24747Y47364D01*
X25454Y48071D01*
X26210Y48726D01*
X27010Y49326D01*
X27852Y49866D01*
X28729Y50345D01*
X29639Y50761D01*
X30576Y51110D01*
X31536Y51392D01*
X32513Y51605D01*
X33503Y51747D01*
X34500Y51818D01*
X35500Y51818D01*
X36498Y51747D01*
X37487Y51605D01*
X38465Y51392D01*
X39424Y51110D01*
X40361Y50761D01*
X41271Y50345D01*
X42148Y49866D01*
X42990Y49326D01*
X43790Y48726D01*
X44546Y48071D01*
X45253Y47364D01*
X45908Y46608D01*
X46507Y45808D01*
X47048Y44967D01*
X47527Y44089D01*
X47943Y43179D01*
X48292Y42242D01*
X48574Y41283D01*
X48786Y40306D01*
X48929Y39316D01*
X49000Y38318D01*
X49000Y37318D01*
X774719Y725000D02*
X774161Y725063D01*
X773614Y725188D01*
X773084Y725373D01*
X772578Y725617D01*
X772102Y725916D01*
X771663Y726266D01*
X771266Y726663D01*
X770916Y727102D01*
X770617Y727578D01*
X770373Y728084D01*
X770188Y728614D01*
X770063Y729161D01*
X770000Y729719D01*
X770000Y730281D01*
X770063Y730839D01*
X770188Y731386D01*
X770373Y731916D01*
X770617Y732422D01*
X770916Y732898D01*
X771266Y733337D01*
X771663Y733734D01*
X772102Y734084D01*
X772578Y734383D01*
X773084Y734627D01*
X773614Y734812D01*
X774161Y734937D01*
X774719Y735000D01*
X775281Y735000D01*
X775839Y734937D01*
X776386Y734812D01*
X776916Y734627D01*
X777422Y734383D01*
X777898Y734084D01*
X778337Y733734D01*
X778734Y733337D01*
X779084Y732898D01*
X779383Y732422D01*
X779627Y731916D01*
X779812Y731386D01*
X779937Y730839D01*
X780000Y730281D01*
X780000Y729719D01*
X779937Y729161D01*
X779812Y728614D01*
X779627Y728084D01*
X779383Y727578D01*
X779084Y727102D01*
X778734Y726663D01*
X778337Y726266D01*
X777898Y725916D01*
X777422Y725617D01*
X776916Y725373D01*
X776386Y725188D01*
X775839Y725063D01*
X775281Y725000D01*
X774719Y725000D01*
X230000Y479719D02*
X229937Y479161D01*
X229812Y478614D01*
X229627Y478084D01*
X229383Y477578D01*
X229084Y477102D01*
X228734Y476663D01*
X228337Y476266D01*
X227898Y475916D01*
X227422Y475617D01*
X226916Y475373D01*
X226386Y475188D01*
X225839Y475063D01*
X225281Y475000D01*
X224719Y475000D01*
X224161Y475063D01*
X223614Y475188D01*
X223084Y475373D01*
X222578Y475617D01*
X222102Y475916D01*
X221663Y476266D01*
X221266Y476663D01*
X220916Y477102D01*
X220617Y477578D01*
X220373Y478084D01*
X220188Y478614D01*
X220063Y479161D01*
X220000Y479719D01*
X220000Y480281D01*
X220063Y480839D01*
X220188Y481386D01*
X220373Y481916D01*
X220617Y482422D01*
X220916Y482898D01*
X221266Y483337D01*
X221663Y483734D01*
X222102Y484084D01*
X222578Y484383D01*
X223084Y484627D01*
X223614Y484812D01*
X224161Y484937D01*
X224719Y485000D01*
X225281Y485000D01*
X225839Y484937D01*
X226386Y484812D01*
X226916Y484627D01*
X227422Y484383D01*
X227898Y484084D01*
X228337Y483734D01*
X228734Y483337D01*
X229084Y482898D01*
X229383Y482422D01*
X229627Y481916D01*
X229812Y481386D01*
X229937Y480839D01*
X230000Y480281D01*
X230000Y479719D01*
X624719Y845000D02*
X624161Y845063D01*
X623614Y845188D01*
X623084Y845373D01*
X622578Y845617D01*
X622102Y845916D01*
X621663Y846266D01*
X621266Y846663D01*
X620916Y847102D01*
X620617Y847578D01*
X620373Y848084D01*
X620188Y848614D01*
X620063Y849161D01*
X620000Y849719D01*
X620000Y850281D01*
X620063Y850839D01*
X620188Y851386D01*
X620373Y851916D01*
X620617Y852422D01*
X620916Y852898D01*
X621266Y853337D01*
X621663Y853734D01*
X622102Y854084D01*
X622578Y854383D01*
X623084Y854627D01*
X623614Y854812D01*
X624161Y854937D01*
X624719Y855000D01*
X625281Y855000D01*
X625839Y854937D01*
X626386Y854812D01*
X626916Y854627D01*
X627422Y854383D01*
X627898Y854084D01*
X628337Y853734D01*
X628734Y853337D01*
X629084Y852898D01*
X629383Y852422D01*
X629627Y851916D01*
X629812Y851386D01*
X629937Y850839D01*
X630000Y850281D01*
X630000Y849719D01*
X629937Y849161D01*
X629812Y848614D01*
X629627Y848084D01*
X629383Y847578D01*
X629084Y847102D01*
X628734Y846663D01*
X628337Y846266D01*
X627898Y845916D01*
X627422Y845617D01*
X626916Y845373D01*
X626386Y845188D01*
X625839Y845063D01*
X625281Y845000D01*
X624719Y845000D01*
X655000Y480281D02*
X655063Y480839D01*
X655188Y481386D01*
X655373Y481916D01*
X655617Y482422D01*
X655916Y482898D01*
X656266Y483337D01*
X656663Y483734D01*
X657102Y484084D01*
X657578Y484383D01*
X658084Y484627D01*
X658614Y484812D01*
X659161Y484937D01*
X659719Y485000D01*
X660281Y485000D01*
X660839Y484937D01*
X661386Y484812D01*
X661916Y484627D01*
X662422Y484383D01*
X662898Y484084D01*
X663337Y483734D01*
X663734Y483337D01*
X664084Y482898D01*
X664383Y482422D01*
X664627Y481916D01*
X664812Y481386D01*
X664937Y480839D01*
X665000Y480281D01*
X665000Y479719D01*
X664937Y479161D01*
X664812Y478614D01*
X664627Y478084D01*
X664383Y477578D01*
X664084Y477102D01*
X663734Y476663D01*
X663337Y476266D01*
X662898Y475916D01*
X662422Y475617D01*
X661916Y475373D01*
X661386Y475188D01*
X660839Y475063D01*
X660281Y475000D01*
X659719Y475000D01*
X659161Y475063D01*
X658614Y475188D01*
X658084Y475373D01*
X657578Y475617D01*
X657102Y475916D01*
X656663Y476266D01*
X656266Y476663D01*
X655916Y477102D01*
X655617Y477578D01*
X655373Y478084D01*
X655188Y478614D01*
X655063Y479161D01*
X655000Y479719D01*
X655000Y480281D01*
X442219Y655000D02*
X441661Y655063D01*
X441114Y655188D01*
X440584Y655373D01*
X440078Y655617D01*
X439602Y655916D01*
X439163Y656266D01*
X438766Y656663D01*
X438416Y657102D01*
X438117Y657578D01*
X437873Y658084D01*
X437688Y658614D01*
X437563Y659161D01*
X437500Y659719D01*
X437500Y660281D01*
X437563Y660839D01*
X437688Y661386D01*
X437873Y661916D01*
X438117Y662422D01*
X438416Y662898D01*
X438766Y663337D01*
X439163Y663734D01*
X439602Y664084D01*
X440078Y664383D01*
X440584Y664627D01*
X441114Y664812D01*
X441661Y664937D01*
X442219Y665000D01*
X442781Y665000D01*
X443339Y664937D01*
X443886Y664812D01*
X444416Y664627D01*
X444922Y664383D01*
X445398Y664084D01*
X445837Y663734D01*
X446234Y663337D01*
X446584Y662898D01*
X446883Y662422D01*
X447127Y661916D01*
X447312Y661386D01*
X447437Y660839D01*
X447500Y660281D01*
X447500Y659719D01*
X447437Y659161D01*
X447312Y658614D01*
X447127Y658084D01*
X446883Y657578D01*
X446584Y657102D01*
X446234Y656663D01*
X445837Y656266D01*
X445398Y655916D01*
X444922Y655617D01*
X444416Y655373D01*
X443886Y655188D01*
X443339Y655063D01*
X442781Y655000D01*
X442219Y655000D01*
X109719Y725000D02*
X109161Y725063D01*
X108614Y725188D01*
X108084Y725373D01*
X107578Y725617D01*
X107102Y725916D01*
X106663Y726266D01*
X106266Y726663D01*
X105916Y727102D01*
X105617Y727578D01*
X105373Y728084D01*
X105188Y728614D01*
X105063Y729161D01*
X105000Y729719D01*
X105000Y730281D01*
X105063Y730839D01*
X105188Y731386D01*
X105373Y731916D01*
X105617Y732422D01*
X105916Y732898D01*
X106266Y733337D01*
X106663Y733734D01*
X107102Y734084D01*
X107578Y734383D01*
X108084Y734627D01*
X108614Y734812D01*
X109161Y734937D01*
X109719Y735000D01*
X110281Y735000D01*
X110839Y734937D01*
X111386Y734812D01*
X111916Y734627D01*
X112422Y734383D01*
X112898Y734084D01*
X113337Y733734D01*
X113734Y733337D01*
X114084Y732898D01*
X114383Y732422D01*
X114627Y731916D01*
X114812Y731386D01*
X114937Y730839D01*
X115000Y730281D01*
X115000Y729719D01*
X114937Y729161D01*
X114812Y728614D01*
X114627Y728084D01*
X114383Y727578D01*
X114084Y727102D01*
X113734Y726663D01*
X113337Y726266D01*
X112898Y725916D01*
X112422Y725617D01*
X111916Y725373D01*
X111386Y725188D01*
X110839Y725063D01*
X110281Y725000D01*
X109719Y725000D01*
X284500Y417461D02*
X284428Y416728D01*
X284284Y416005D01*
X284070Y415300D01*
X283788Y414619D01*
X283441Y413969D01*
X283031Y413357D01*
X282564Y412787D01*
X282043Y412266D01*
X281473Y411798D01*
X280860Y411389D01*
X280211Y411042D01*
X279530Y410760D01*
X278825Y410546D01*
X278102Y410402D01*
X277368Y410330D01*
X276632Y410330D01*
X275898Y410402D01*
X275175Y410546D01*
X274470Y410760D01*
X273789Y411042D01*
X273140Y411389D01*
X272527Y411798D01*
X271957Y412266D01*
X271436Y412787D01*
X270969Y413357D01*
X270559Y413969D01*
X270212Y414619D01*
X269930Y415300D01*
X269716Y416005D01*
X269572Y416728D01*
X269500Y417461D01*
X269500Y418198D01*
X269572Y418932D01*
X269716Y419654D01*
X269930Y420359D01*
X270212Y421040D01*
X270559Y421690D01*
X270969Y422303D01*
X271436Y422873D01*
X271957Y423394D01*
X272527Y423861D01*
X273140Y424270D01*
X273789Y424618D01*
X274470Y424900D01*
X275175Y425114D01*
X275898Y425258D01*
X276632Y425330D01*
X277368Y425330D01*
X278102Y425258D01*
X278825Y425114D01*
X279530Y424900D01*
X280211Y424618D01*
X280860Y424270D01*
X281473Y423861D01*
X282043Y423394D01*
X282564Y422873D01*
X283031Y422303D01*
X283441Y421690D01*
X283788Y421040D01*
X284070Y420359D01*
X284284Y419654D01*
X284428Y418932D01*
X284500Y418198D01*
X284500Y417461D01*
X284500Y379680D02*
X284428Y378946D01*
X284284Y378224D01*
X284070Y377519D01*
X283788Y376838D01*
X283441Y376188D01*
X283031Y375575D01*
X282564Y375006D01*
X282043Y374484D01*
X281473Y374017D01*
X280860Y373608D01*
X280211Y373260D01*
X279530Y372978D01*
X278825Y372764D01*
X278102Y372621D01*
X277368Y372548D01*
X276632Y372548D01*
X275898Y372621D01*
X275175Y372764D01*
X274470Y372978D01*
X273789Y373260D01*
X273140Y373608D01*
X272527Y374017D01*
X271957Y374484D01*
X271436Y375006D01*
X270969Y375575D01*
X270559Y376188D01*
X270212Y376838D01*
X269930Y377519D01*
X269716Y378224D01*
X269572Y378946D01*
X269500Y379680D01*
X269500Y380417D01*
X269572Y381150D01*
X269716Y381873D01*
X269930Y382578D01*
X270212Y383259D01*
X270559Y383909D01*
X270969Y384521D01*
X271436Y385091D01*
X271957Y385612D01*
X272527Y386080D01*
X273140Y386489D01*
X273789Y386836D01*
X274470Y387118D01*
X275175Y387332D01*
X275898Y387476D01*
X276632Y387548D01*
X277368Y387548D01*
X278102Y387476D01*
X278825Y387332D01*
X279530Y387118D01*
X280211Y386836D01*
X280860Y386489D01*
X281473Y386080D01*
X282043Y385612D01*
X282564Y385091D01*
X283031Y384521D01*
X283441Y383909D01*
X283788Y383259D01*
X284070Y382578D01*
X284284Y381873D01*
X284428Y381150D01*
X284500Y380417D01*
X284500Y379680D01*
X307960Y964610D02*
X307888Y963876D01*
X307744Y963153D01*
X307530Y962448D01*
X307248Y961767D01*
X306901Y961118D01*
X306491Y960505D01*
X306024Y959935D01*
X305503Y959414D01*
X304933Y958947D01*
X304321Y958537D01*
X303671Y958190D01*
X302990Y957908D01*
X302285Y957694D01*
X301562Y957550D01*
X300829Y957478D01*
X300092Y957478D01*
X299358Y957550D01*
X298636Y957694D01*
X297930Y957908D01*
X297250Y958190D01*
X296600Y958537D01*
X295987Y958947D01*
X295417Y959414D01*
X294896Y959935D01*
X294429Y960505D01*
X294019Y961118D01*
X293672Y961767D01*
X293390Y962448D01*
X293176Y963153D01*
X293032Y963876D01*
X292960Y964610D01*
X292960Y965346D01*
X293032Y966080D01*
X293176Y966803D01*
X293390Y967508D01*
X293672Y968188D01*
X294019Y968838D01*
X294429Y969451D01*
X294896Y970021D01*
X295417Y970542D01*
X295987Y971009D01*
X296600Y971419D01*
X297250Y971766D01*
X297930Y972048D01*
X298636Y972262D01*
X299358Y972406D01*
X300092Y972478D01*
X300829Y972478D01*
X301562Y972406D01*
X302285Y972262D01*
X302990Y972048D01*
X303671Y971766D01*
X304321Y971419D01*
X304933Y971009D01*
X305503Y970542D01*
X306024Y970021D01*
X306491Y969451D01*
X306901Y968838D01*
X307248Y968188D01*
X307530Y967508D01*
X307744Y966803D01*
X307888Y966080D01*
X307960Y965346D01*
X307960Y964610D01*
X307960Y927018D02*
X307888Y926284D01*
X307744Y925561D01*
X307530Y924856D01*
X307248Y924175D01*
X306901Y923526D01*
X306491Y922913D01*
X306024Y922343D01*
X305503Y921822D01*
X304933Y921355D01*
X304321Y920945D01*
X303671Y920598D01*
X302990Y920316D01*
X302285Y920102D01*
X301562Y919958D01*
X300829Y919886D01*
X300092Y919886D01*
X299358Y919958D01*
X298636Y920102D01*
X297930Y920316D01*
X297250Y920598D01*
X296600Y920945D01*
X295987Y921355D01*
X295417Y921822D01*
X294896Y922343D01*
X294429Y922913D01*
X294019Y923526D01*
X293672Y924175D01*
X293390Y924856D01*
X293176Y925561D01*
X293032Y926284D01*
X292960Y927018D01*
X292960Y927754D01*
X293032Y928488D01*
X293176Y929211D01*
X293390Y929916D01*
X293672Y930596D01*
X294019Y931246D01*
X294429Y931859D01*
X294896Y932429D01*
X295417Y932950D01*
X295987Y933417D01*
X296600Y933827D01*
X297250Y934174D01*
X297930Y934456D01*
X298636Y934670D01*
X299358Y934814D01*
X300092Y934886D01*
X300829Y934886D01*
X301562Y934814D01*
X302285Y934670D01*
X302990Y934456D01*
X303671Y934174D01*
X304321Y933827D01*
X304933Y933417D01*
X305503Y932950D01*
X306024Y932429D01*
X306491Y931859D01*
X306901Y931246D01*
X307248Y930596D01*
X307530Y929916D01*
X307744Y929211D01*
X307888Y928488D01*
X307960Y927754D01*
X307960Y927018D01*
X255000Y850281D02*
X255063Y850839D01*
X255188Y851386D01*
X255373Y851916D01*
X255617Y852422D01*
X255916Y852898D01*
X256266Y853337D01*
X256663Y853734D01*
X257102Y854084D01*
X257578Y854383D01*
X258084Y854627D01*
X258614Y854812D01*
X259161Y854937D01*
X259719Y855000D01*
X260281Y855000D01*
X260839Y854937D01*
X261386Y854812D01*
X261916Y854627D01*
X262422Y854383D01*
X262898Y854084D01*
X263337Y853734D01*
X263734Y853337D01*
X264084Y852898D01*
X264383Y852422D01*
X264627Y851916D01*
X264812Y851386D01*
X264937Y850839D01*
X265000Y850281D01*
X265000Y849719D01*
X264937Y849161D01*
X264812Y848614D01*
X264627Y848084D01*
X264383Y847578D01*
X264084Y847102D01*
X263734Y846663D01*
X263337Y846266D01*
X262898Y845916D01*
X262422Y845617D01*
X261916Y845373D01*
X261386Y845188D01*
X260839Y845063D01*
X260281Y845000D01*
X259719Y845000D01*
X259161Y845063D01*
X258614Y845188D01*
X258084Y845373D01*
X257578Y845617D01*
X257102Y845916D01*
X256663Y846266D01*
X256266Y846663D01*
X255916Y847102D01*
X255617Y847578D01*
X255373Y848084D01*
X255188Y848614D01*
X255063Y849161D01*
X255000Y849719D01*
X255000Y850281D01*
X124534Y962997D02*
X124463Y961999D01*
X124320Y961009D01*
X124108Y960032D01*
X123826Y959073D01*
X123477Y958136D01*
X123061Y957226D01*
X122582Y956348D01*
X122041Y955507D01*
X121442Y954707D01*
X120787Y953951D01*
X120080Y953244D01*
X119324Y952589D01*
X118524Y951990D01*
X117682Y951449D01*
X116805Y950970D01*
X115895Y950554D01*
X114958Y950205D01*
X113999Y949923D01*
X113021Y949710D01*
X112032Y949568D01*
X111034Y949497D01*
X110034Y949497D01*
X109037Y949568D01*
X108047Y949710D01*
X107070Y949923D01*
X106110Y950205D01*
X105173Y950554D01*
X104263Y950970D01*
X103386Y951449D01*
X102545Y951990D01*
X101744Y952589D01*
X100988Y953244D01*
X100281Y953951D01*
X99626Y954707D01*
X99027Y955507D01*
X98486Y956348D01*
X98007Y957226D01*
X97592Y958136D01*
X97242Y959073D01*
X96960Y960032D01*
X96748Y961009D01*
X96605Y961999D01*
X96534Y962997D01*
X96534Y963997D01*
X96605Y964994D01*
X96748Y965984D01*
X96960Y966961D01*
X97242Y967921D01*
X97592Y968858D01*
X98007Y969767D01*
X98486Y970645D01*
X99027Y971486D01*
X99626Y972287D01*
X100281Y973043D01*
X100988Y973750D01*
X101744Y974405D01*
X102545Y975004D01*
X103386Y975545D01*
X104263Y976024D01*
X105173Y976439D01*
X106110Y976789D01*
X107070Y977071D01*
X108047Y977283D01*
X109037Y977425D01*
X110034Y977497D01*
X111034Y977497D01*
X112032Y977425D01*
X113021Y977283D01*
X113999Y977071D01*
X114958Y976789D01*
X115895Y976439D01*
X116805Y976024D01*
X117682Y975545D01*
X118524Y975004D01*
X119324Y974405D01*
X120080Y973750D01*
X120787Y973043D01*
X121442Y972287D01*
X122041Y971486D01*
X122582Y970645D01*
X123061Y969767D01*
X123477Y968858D01*
X123826Y967921D01*
X124108Y966961D01*
X124320Y965984D01*
X124463Y964994D01*
X124534Y963997D01*
X124534Y962997D01*
X758959Y962723D02*
X759031Y961725D01*
X759173Y960735D01*
X759385Y959758D01*
X759667Y958799D01*
X760017Y957862D01*
X760432Y956952D01*
X760911Y956074D01*
X761452Y955233D01*
X762051Y954433D01*
X762706Y953677D01*
X763413Y952970D01*
X764169Y952315D01*
X764970Y951716D01*
X765811Y951175D01*
X766689Y950696D01*
X767598Y950280D01*
X768535Y949931D01*
X769495Y949649D01*
X770472Y949436D01*
X771462Y949294D01*
X772459Y949223D01*
X773459Y949223D01*
X774457Y949294D01*
X775447Y949436D01*
X776424Y949649D01*
X777383Y949931D01*
X778320Y950280D01*
X779230Y950696D01*
X780108Y951175D01*
X780949Y951716D01*
X781749Y952315D01*
X782505Y952970D01*
X783212Y953677D01*
X783867Y954433D01*
X784466Y955233D01*
X785007Y956074D01*
X785486Y956952D01*
X785902Y957862D01*
X786251Y958799D01*
X786533Y959758D01*
X786746Y960735D01*
X786888Y961725D01*
X786959Y962723D01*
X786959Y963723D01*
X786888Y964720D01*
X786746Y965710D01*
X786533Y966687D01*
X786251Y967647D01*
X785902Y968584D01*
X785486Y969493D01*
X785007Y970371D01*
X784466Y971212D01*
X783867Y972013D01*
X783212Y972769D01*
X782505Y973476D01*
X781749Y974131D01*
X780949Y974730D01*
X780108Y975271D01*
X779230Y975750D01*
X778320Y976165D01*
X777383Y976515D01*
X776424Y976797D01*
X775447Y977009D01*
X774457Y977151D01*
X773459Y977223D01*
X772459Y977223D01*
X771462Y977151D01*
X770472Y977009D01*
X769495Y976797D01*
X768535Y976515D01*
X767598Y976165D01*
X766689Y975750D01*
X765811Y975271D01*
X764970Y974730D01*
X764169Y974131D01*
X763413Y973476D01*
X762706Y972769D01*
X762051Y972013D01*
X761452Y971212D01*
X760911Y970371D01*
X760432Y969493D01*
X760017Y968584D01*
X759667Y967647D01*
X759385Y966687D01*
X759173Y965710D01*
X759031Y964720D01*
X758959Y963723D01*
X758959Y962723D01*
X463894Y210020D02*
X463822Y209286D01*
X463678Y208564D01*
X463464Y207859D01*
X463182Y207178D01*
X462835Y206528D01*
X462425Y205915D01*
X461958Y205346D01*
X461437Y204824D01*
X460867Y204357D01*
X460255Y203948D01*
X459605Y203600D01*
X458924Y203318D01*
X458219Y203104D01*
X457496Y202961D01*
X456763Y202888D01*
X456026Y202888D01*
X455292Y202961D01*
X454570Y203104D01*
X453864Y203318D01*
X453184Y203600D01*
X452534Y203948D01*
X451921Y204357D01*
X451351Y204824D01*
X450830Y205346D01*
X450363Y205915D01*
X449953Y206528D01*
X449606Y207178D01*
X449324Y207859D01*
X449110Y208564D01*
X448966Y209286D01*
X448894Y210020D01*
X448894Y210757D01*
X448966Y211490D01*
X449110Y212213D01*
X449324Y212918D01*
X449606Y213599D01*
X449953Y214249D01*
X450363Y214861D01*
X450830Y215431D01*
X451351Y215952D01*
X451921Y216420D01*
X452534Y216829D01*
X453184Y217176D01*
X453864Y217458D01*
X454570Y217672D01*
X455292Y217816D01*
X456026Y217888D01*
X456763Y217888D01*
X457496Y217816D01*
X458219Y217672D01*
X458924Y217458D01*
X459605Y217176D01*
X460255Y216829D01*
X460867Y216420D01*
X461437Y215952D01*
X461958Y215431D01*
X462425Y214861D01*
X462835Y214249D01*
X463182Y213599D01*
X463464Y212918D01*
X463678Y212213D01*
X463822Y211490D01*
X463894Y210757D01*
X463894Y210020D01*
X507338Y211026D02*
X507265Y210292D01*
X507122Y209569D01*
X506908Y208864D01*
X506626Y208184D01*
X506278Y207534D01*
X505869Y206921D01*
X505402Y206351D01*
X504880Y205830D01*
X504311Y205363D01*
X503698Y204953D01*
X503048Y204606D01*
X502367Y204324D01*
X501662Y204110D01*
X500940Y203966D01*
X500206Y203894D01*
X499469Y203894D01*
X498736Y203966D01*
X498013Y204110D01*
X497308Y204324D01*
X496627Y204606D01*
X495977Y204953D01*
X495365Y205363D01*
X494795Y205830D01*
X494274Y206351D01*
X493806Y206921D01*
X493397Y207534D01*
X493050Y208184D01*
X492768Y208864D01*
X492554Y209569D01*
X492410Y210292D01*
X492338Y211026D01*
X492338Y211762D01*
X492410Y212496D01*
X492554Y213219D01*
X492768Y213924D01*
X493050Y214605D01*
X493397Y215254D01*
X493806Y215867D01*
X494274Y216437D01*
X494795Y216958D01*
X495365Y217425D01*
X495977Y217835D01*
X496627Y218182D01*
X497308Y218464D01*
X498013Y218678D01*
X498736Y218822D01*
X499469Y218894D01*
X500206Y218894D01*
X500940Y218822D01*
X501662Y218678D01*
X502367Y218464D01*
X503048Y218182D01*
X503698Y217835D01*
X504311Y217425D01*
X504880Y216958D01*
X505402Y216437D01*
X505869Y215867D01*
X506278Y215254D01*
X506626Y214605D01*
X506908Y213924D01*
X507122Y213219D01*
X507265Y212496D01*
X507338Y211762D01*
X507338Y211026D01*
M02*
