G04 EAGLE Gerber X2 export*
%TF.Part,Single*%
%TF.FileFunction,Soldermask,Top,1*%
%TF.FilePolarity,Positive*%
%TF.GenerationSoftware,Autodesk,EAGLE,9.2.2*%
%TF.CreationDate,2019-06-08T20:53:07Z*%
G75*
%MOMM*%
%FSLAX34Y34*%
%LPD*%
%INSoldermask Top*%
%AMOC8*
5,1,8,0,0,1.08239X$1,22.5*%
G01*
%ADD10P,2.556822X8X202.500000*%
%ADD11R,1.553200X1.553200*%
%ADD12C,1.553200*%
%ADD13R,2.003200X1.803200*%
%ADD14R,1.803200X2.003200*%
%ADD15R,2.603200X2.603200*%
%ADD16C,1.611200*%
%ADD17R,1.611200X1.611200*%
%ADD18C,3.003200*%
%ADD19C,2.153200*%
%ADD20R,3.303200X1.003200*%
%ADD21P,2.556822X8X22.500000*%
%ADD22R,2.203200X1.803200*%
%ADD23R,1.803200X2.203200*%
%ADD24C,1.511200*%
%ADD25R,2.082800X2.082800*%
%ADD26P,3.467112X8X292.500000*%
%ADD27C,1.203200*%
%ADD28P,3.467112X8X22.500000*%
%ADD29P,3.467112X8X202.500000*%
%ADD30R,1.727200X0.533400*%
%ADD31R,1.473200X1.473200*%
%ADD32R,1.422400X2.438400*%
%ADD33R,3.803200X2.403200*%
%ADD34C,1.703200*%
%ADD35P,1.649562X8X202.500000*%
%ADD36C,2.082800*%
%ADD37C,2.159000*%
%ADD38C,2.082800*%
%ADD39R,2.403200X0.803200*%
%ADD40C,1.346200*%
%ADD41C,1.524000*%
%ADD42P,1.649562X8X22.500000*%
%ADD43C,0.959600*%


D10*
X267672Y964694D03*
X267672Y928475D03*
D11*
X697770Y962330D03*
D12*
X717770Y962330D03*
D13*
X412595Y872038D03*
X412595Y844038D03*
X450737Y870599D03*
X450737Y842599D03*
D14*
X636299Y897536D03*
X664299Y897536D03*
X639425Y923765D03*
X667425Y923765D03*
D11*
X641639Y964091D03*
D12*
X661639Y964091D03*
D11*
X216194Y959020D03*
D12*
X216194Y939020D03*
D13*
X861632Y96183D03*
X861632Y124183D03*
D15*
X302066Y221866D03*
X346066Y221866D03*
D16*
X603556Y960896D03*
D17*
X603556Y935496D03*
D16*
X166692Y957507D03*
D17*
X166692Y932107D03*
D18*
X850000Y39085D03*
X35000Y37818D03*
D19*
X86750Y218850D02*
X106250Y218850D01*
X106250Y381150D02*
X86750Y381150D01*
X213750Y218850D02*
X233250Y218850D01*
X233250Y381150D02*
X213750Y381150D01*
D20*
X285941Y176872D03*
X285941Y144872D03*
X285941Y122872D03*
X285941Y100872D03*
X338941Y176872D03*
X338941Y144872D03*
X338941Y122872D03*
X338941Y100872D03*
D10*
X308500Y379478D03*
D21*
X308500Y417580D03*
D19*
X778750Y381150D02*
X798250Y381150D01*
X798250Y218850D02*
X778750Y218850D01*
X671250Y381150D02*
X651750Y381150D01*
X651750Y218850D02*
X671250Y218850D01*
D22*
X440330Y346012D03*
X440330Y374012D03*
X572942Y333354D03*
X572942Y305354D03*
D23*
X543071Y395345D03*
X515071Y395345D03*
X514224Y474884D03*
X486224Y474884D03*
X408047Y470244D03*
X380047Y470244D03*
D22*
X387866Y218297D03*
X387866Y246297D03*
D23*
X507599Y243633D03*
X479599Y243633D03*
X479612Y285242D03*
X507612Y285242D03*
D22*
X600558Y248449D03*
X600558Y276449D03*
X339206Y429029D03*
X339206Y457029D03*
X82949Y510767D03*
X82949Y538767D03*
D23*
X862692Y184359D03*
X834692Y184359D03*
X862517Y153087D03*
X834517Y153087D03*
X773725Y186046D03*
X801725Y186046D03*
D13*
X368642Y900618D03*
X368642Y872618D03*
D24*
X692260Y901700D02*
X705340Y901700D01*
X705340Y876300D02*
X692260Y876300D01*
X692260Y850900D02*
X705340Y850900D01*
X705340Y825500D02*
X692260Y825500D01*
X692260Y800100D02*
X705340Y800100D01*
X705340Y774700D02*
X692260Y774700D01*
X692260Y749300D02*
X705340Y749300D01*
X705340Y723900D02*
X692260Y723900D01*
X692260Y698500D02*
X705340Y698500D01*
X705340Y673100D02*
X692260Y673100D01*
X692260Y647700D02*
X705340Y647700D01*
X705340Y622300D02*
X692260Y622300D01*
X692260Y596900D02*
X705340Y596900D01*
X705340Y571500D02*
X692260Y571500D01*
X692260Y546100D02*
X705340Y546100D01*
X705340Y520700D02*
X692260Y520700D01*
X692260Y495300D02*
X705340Y495300D01*
X705340Y469900D02*
X692260Y469900D01*
X692260Y444500D02*
X705340Y444500D01*
X705340Y419100D02*
X692260Y419100D01*
X844660Y901700D02*
X857740Y901700D01*
X857740Y876300D02*
X844660Y876300D01*
X844660Y850900D02*
X857740Y850900D01*
X857740Y825500D02*
X844660Y825500D01*
X844660Y800100D02*
X857740Y800100D01*
X857740Y774700D02*
X844660Y774700D01*
X844660Y749300D02*
X857740Y749300D01*
X857740Y723900D02*
X844660Y723900D01*
X844660Y698500D02*
X857740Y698500D01*
X857740Y673100D02*
X844660Y673100D01*
X844660Y647700D02*
X857740Y647700D01*
X857740Y622300D02*
X844660Y622300D01*
X844660Y596900D02*
X857740Y596900D01*
X857740Y571500D02*
X844660Y571500D01*
X844660Y546100D02*
X857740Y546100D01*
X857740Y520700D02*
X844660Y520700D01*
X844660Y495300D02*
X857740Y495300D01*
X857740Y469900D02*
X844660Y469900D01*
X844660Y444500D02*
X857740Y444500D01*
X857740Y419100D02*
X844660Y419100D01*
D25*
X750000Y660000D03*
X775000Y660000D03*
X800000Y660000D03*
D26*
X731000Y730000D03*
X819000Y730000D03*
D27*
X775000Y730000D03*
D25*
X295000Y455000D03*
X295000Y480000D03*
X295000Y505000D03*
D28*
X225000Y436000D03*
X225000Y524000D03*
D27*
X225000Y480000D03*
D25*
X600000Y780000D03*
X625000Y780000D03*
X650000Y780000D03*
D26*
X581000Y850000D03*
X669000Y850000D03*
D27*
X625000Y850000D03*
D25*
X590000Y505000D03*
X590000Y480000D03*
X590000Y455000D03*
D29*
X660000Y524000D03*
X660000Y436000D03*
D27*
X660000Y480000D03*
D25*
X417500Y590000D03*
X442500Y590000D03*
X467500Y590000D03*
D26*
X398500Y660000D03*
X486500Y660000D03*
D27*
X442500Y660000D03*
D30*
X808423Y145206D03*
X808423Y150032D03*
X808423Y155112D03*
X808423Y160192D03*
X808423Y165018D03*
X767783Y165018D03*
X767783Y160192D03*
X767783Y155112D03*
X767783Y150032D03*
X767783Y145206D03*
D25*
X85000Y660000D03*
X110000Y660000D03*
X135000Y660000D03*
D26*
X66000Y730000D03*
X154000Y730000D03*
D27*
X110000Y730000D03*
D31*
X537690Y887107D03*
X563090Y887107D03*
D32*
X527613Y913320D03*
X550727Y913320D03*
X573841Y913320D03*
D33*
X550727Y975298D03*
D34*
X277000Y417830D03*
X277000Y380048D03*
X300460Y964978D03*
X300460Y927386D03*
D35*
X405200Y430000D03*
X379800Y430000D03*
X505200Y430000D03*
X479800Y430000D03*
X545200Y350000D03*
X519800Y350000D03*
X565200Y270000D03*
X539800Y270000D03*
D23*
X367462Y393482D03*
X339462Y393482D03*
X350787Y313218D03*
X322787Y313218D03*
D35*
X365200Y350000D03*
X339800Y350000D03*
X345200Y270000D03*
X319800Y270000D03*
D36*
X30000Y430602D02*
X30000Y449398D01*
X55400Y449398D02*
X55400Y430602D01*
X80800Y430602D02*
X80800Y449398D01*
X106200Y449398D02*
X106200Y430602D01*
X131600Y430602D02*
X131600Y449398D01*
D37*
X54887Y799030D02*
X35329Y799030D01*
X35329Y824430D02*
X54887Y824430D01*
X54887Y849830D02*
X35329Y849830D01*
X525329Y799030D02*
X544887Y799030D01*
X544887Y824430D02*
X525329Y824430D01*
X525329Y849830D02*
X544887Y849830D01*
X285908Y739891D02*
X285908Y720333D01*
X260508Y720333D02*
X260508Y739891D01*
X235108Y739891D02*
X235108Y720333D01*
D25*
X235000Y780000D03*
X260000Y780000D03*
X285000Y780000D03*
D26*
X216000Y850000D03*
X304000Y850000D03*
D27*
X260000Y850000D03*
D38*
X475012Y382606D03*
X409988Y382606D03*
X475012Y337394D03*
X409988Y337394D03*
D23*
X193342Y184719D03*
X165342Y184719D03*
D22*
X62093Y185973D03*
X62093Y157973D03*
D11*
X46555Y119279D03*
D12*
X46555Y99279D03*
D16*
X126508Y178437D03*
D17*
X101108Y178437D03*
D11*
X125012Y42305D03*
D12*
X145012Y42305D03*
D13*
X88787Y54753D03*
X88787Y82753D03*
D14*
X123599Y85679D03*
X151599Y85679D03*
D39*
X116899Y139581D03*
X168899Y139581D03*
X116899Y152281D03*
X116899Y126881D03*
X116899Y114181D03*
X168899Y152281D03*
X168899Y126881D03*
X168899Y114181D03*
D40*
X245740Y37760D03*
X245740Y87760D03*
D22*
X213937Y86198D03*
X213937Y58198D03*
D23*
X293606Y36948D03*
X321606Y36948D03*
D11*
X651721Y90841D03*
D12*
X651721Y110841D03*
D23*
X600728Y85077D03*
X572728Y85077D03*
D22*
X180608Y58405D03*
X180608Y86405D03*
X29055Y185092D03*
X29055Y157092D03*
D36*
X700000Y109398D02*
X700000Y90602D01*
X725400Y90602D02*
X725400Y109398D01*
X750800Y109398D02*
X750800Y90602D01*
X776200Y90602D02*
X776200Y109398D01*
X801600Y109398D02*
X801600Y90602D01*
D18*
X110534Y963497D03*
X772959Y963223D03*
D34*
X456394Y210388D03*
X499838Y211394D03*
D21*
X424723Y211066D03*
X533127Y212693D03*
D38*
X410439Y283600D03*
X423139Y302650D03*
X435839Y283600D03*
D11*
X71819Y610452D03*
D12*
X71819Y590452D03*
D36*
X580602Y370000D02*
X599398Y370000D01*
X599398Y395400D02*
X580602Y395400D01*
X771413Y569697D02*
X790209Y569697D01*
X790209Y544297D02*
X771413Y544297D01*
X771413Y518897D02*
X790209Y518897D01*
X790209Y493497D02*
X771413Y493497D01*
D38*
X540898Y82827D03*
X464698Y82827D03*
X189670Y23816D03*
X776054Y42886D03*
D39*
X598542Y41123D03*
X650542Y41123D03*
X598542Y53823D03*
X598542Y28423D03*
X598542Y15723D03*
X650542Y53823D03*
X650542Y28423D03*
X650542Y15723D03*
D22*
X507701Y52015D03*
X507701Y24015D03*
X553287Y23315D03*
X553287Y51315D03*
X690208Y47832D03*
X690208Y19832D03*
X732300Y18962D03*
X732300Y46962D03*
D11*
X448144Y48737D03*
D12*
X448144Y28737D03*
D11*
X374718Y26105D03*
D12*
X374718Y46105D03*
D41*
X422061Y168381D02*
X422061Y181589D01*
X396661Y181589D02*
X396661Y168381D01*
X396661Y92181D02*
X396661Y78973D01*
X422061Y78973D02*
X422061Y92181D01*
D42*
X532371Y145545D03*
X519671Y164595D03*
X506971Y145545D03*
D23*
X573389Y203460D03*
X601389Y203460D03*
D22*
X464479Y162877D03*
X464479Y134877D03*
D11*
X572310Y148233D03*
D12*
X592310Y148233D03*
D43*
X138684Y143256D03*
X190500Y169164D03*
X555640Y90742D03*
X534924Y115824D03*
X834215Y97033D03*
X535845Y872562D03*
X573024Y22860D03*
X560842Y868664D03*
X817347Y195489D03*
X387096Y591312D03*
X720852Y527304D03*
X846743Y393169D03*
X722376Y771144D03*
X822960Y573024D03*
X726948Y755904D03*
X60960Y379476D03*
M02*
