G04 EAGLE Gerber X2 export*
%TF.Part,Single*%
%TF.FileFunction,Copper,L2,Bot,Mixed*%
%TF.FilePolarity,Positive*%
%TF.GenerationSoftware,Autodesk,EAGLE,9.2.2*%
%TF.CreationDate,2019-04-19T13:45:25Z*%
G75*
%MOMM*%
%FSLAX34Y34*%
%LPD*%
%INBottom Copper*%
%AMOC8*
5,1,8,0,0,1.08239X$1,22.5*%
G01*
%ADD10C,1.143000*%
%ADD11C,1.408000*%
%ADD12R,1.408000X1.408000*%
%ADD13C,1.955800*%
%ADD14C,1.320800*%
%ADD15C,0.756400*%
%ADD16C,0.152400*%

G36*
X829293Y20619D02*
X829293Y20619D01*
X829351Y20618D01*
X829433Y20639D01*
X829516Y20651D01*
X829570Y20675D01*
X829626Y20690D01*
X829698Y20733D01*
X829776Y20767D01*
X829820Y20805D01*
X829870Y20835D01*
X829928Y20896D01*
X829993Y20951D01*
X830025Y20999D01*
X830065Y21042D01*
X830103Y21117D01*
X830150Y21187D01*
X830168Y21243D01*
X830194Y21295D01*
X830206Y21363D01*
X830236Y21458D01*
X830238Y21558D01*
X830250Y21626D01*
X830250Y626126D01*
X830242Y626184D01*
X830243Y626243D01*
X830222Y626324D01*
X830210Y626408D01*
X830186Y626461D01*
X830171Y626518D01*
X830128Y626590D01*
X830094Y626667D01*
X830056Y626712D01*
X830026Y626762D01*
X829965Y626820D01*
X829910Y626884D01*
X829862Y626917D01*
X829819Y626957D01*
X829744Y626995D01*
X829674Y627042D01*
X829618Y627059D01*
X829566Y627086D01*
X829498Y627097D01*
X829402Y627128D01*
X829303Y627130D01*
X829235Y627142D01*
X632090Y627142D01*
X632032Y627133D01*
X631974Y627135D01*
X631892Y627114D01*
X631809Y627102D01*
X631755Y627078D01*
X631699Y627063D01*
X631626Y627020D01*
X631549Y626985D01*
X631505Y626948D01*
X631454Y626918D01*
X631397Y626856D01*
X631332Y626802D01*
X631300Y626753D01*
X631260Y626710D01*
X631222Y626635D01*
X631175Y626565D01*
X631157Y626509D01*
X631131Y626457D01*
X631119Y626389D01*
X631089Y626294D01*
X631086Y626194D01*
X631075Y626126D01*
X631075Y21626D01*
X631083Y21568D01*
X631082Y21510D01*
X631103Y21428D01*
X631115Y21345D01*
X631139Y21291D01*
X631154Y21235D01*
X631197Y21162D01*
X631231Y21085D01*
X631269Y21041D01*
X631299Y20990D01*
X631360Y20933D01*
X631415Y20868D01*
X631463Y20836D01*
X631506Y20796D01*
X631581Y20758D01*
X631651Y20711D01*
X631707Y20693D01*
X631759Y20667D01*
X631827Y20655D01*
X631922Y20625D01*
X632022Y20622D01*
X632090Y20611D01*
X829235Y20611D01*
X829293Y20619D01*
G37*
G36*
X613484Y452458D02*
X613484Y452458D01*
X613543Y452457D01*
X613624Y452478D01*
X613708Y452490D01*
X613761Y452514D01*
X613818Y452529D01*
X613890Y452572D01*
X613967Y452606D01*
X614012Y452644D01*
X614062Y452674D01*
X614120Y452735D01*
X614184Y452790D01*
X614217Y452839D01*
X614257Y452881D01*
X614295Y452956D01*
X614342Y453027D01*
X614359Y453082D01*
X614386Y453134D01*
X614397Y453202D01*
X614428Y453298D01*
X614430Y453397D01*
X614442Y453465D01*
X614442Y650610D01*
X614433Y650668D01*
X614435Y650726D01*
X614414Y650808D01*
X614402Y650891D01*
X614378Y650945D01*
X614363Y651001D01*
X614320Y651074D01*
X614285Y651151D01*
X614248Y651195D01*
X614218Y651246D01*
X614156Y651303D01*
X614102Y651368D01*
X614053Y651400D01*
X614010Y651440D01*
X613935Y651478D01*
X613865Y651525D01*
X613809Y651543D01*
X613757Y651569D01*
X613689Y651581D01*
X613594Y651611D01*
X613494Y651614D01*
X613426Y651625D01*
X11926Y651625D01*
X11868Y651617D01*
X11810Y651618D01*
X11728Y651597D01*
X11644Y651585D01*
X11591Y651561D01*
X11535Y651546D01*
X11462Y651503D01*
X11385Y651469D01*
X11340Y651431D01*
X11290Y651401D01*
X11232Y651340D01*
X11168Y651285D01*
X11136Y651237D01*
X11096Y651194D01*
X11057Y651119D01*
X11010Y651049D01*
X10993Y650993D01*
X10966Y650941D01*
X10955Y650873D01*
X10925Y650778D01*
X10922Y650678D01*
X10911Y650610D01*
X10911Y453465D01*
X10919Y453408D01*
X10917Y453349D01*
X10939Y453267D01*
X10951Y453184D01*
X10974Y453131D01*
X10989Y453074D01*
X11032Y453002D01*
X11067Y452924D01*
X11105Y452880D01*
X11134Y452830D01*
X11196Y452772D01*
X11250Y452707D01*
X11299Y452675D01*
X11342Y452635D01*
X11417Y452597D01*
X11487Y452550D01*
X11543Y452532D01*
X11595Y452506D01*
X11663Y452494D01*
X11758Y452464D01*
X11858Y452462D01*
X11926Y452450D01*
X613426Y452450D01*
X613484Y452458D01*
G37*
G36*
X613484Y20658D02*
X613484Y20658D01*
X613543Y20657D01*
X613624Y20678D01*
X613708Y20690D01*
X613761Y20714D01*
X613818Y20729D01*
X613890Y20772D01*
X613967Y20806D01*
X614012Y20844D01*
X614062Y20874D01*
X614120Y20935D01*
X614184Y20990D01*
X614217Y21039D01*
X614257Y21081D01*
X614295Y21156D01*
X614342Y21227D01*
X614359Y21282D01*
X614386Y21334D01*
X614397Y21402D01*
X614428Y21498D01*
X614430Y21597D01*
X614442Y21665D01*
X614442Y218810D01*
X614433Y218868D01*
X614435Y218926D01*
X614414Y219008D01*
X614402Y219091D01*
X614378Y219145D01*
X614363Y219201D01*
X614320Y219274D01*
X614285Y219351D01*
X614248Y219395D01*
X614218Y219446D01*
X614156Y219503D01*
X614102Y219568D01*
X614053Y219600D01*
X614010Y219640D01*
X613935Y219678D01*
X613865Y219725D01*
X613809Y219743D01*
X613757Y219769D01*
X613689Y219781D01*
X613594Y219811D01*
X613494Y219814D01*
X613426Y219825D01*
X11926Y219825D01*
X11868Y219817D01*
X11810Y219818D01*
X11728Y219797D01*
X11644Y219785D01*
X11591Y219761D01*
X11535Y219746D01*
X11462Y219703D01*
X11385Y219669D01*
X11340Y219631D01*
X11290Y219601D01*
X11232Y219540D01*
X11168Y219485D01*
X11136Y219437D01*
X11096Y219394D01*
X11057Y219319D01*
X11010Y219249D01*
X10993Y219193D01*
X10966Y219141D01*
X10955Y219073D01*
X10925Y218978D01*
X10922Y218878D01*
X10911Y218810D01*
X10911Y21665D01*
X10919Y21608D01*
X10917Y21549D01*
X10939Y21467D01*
X10951Y21384D01*
X10974Y21331D01*
X10989Y21274D01*
X11032Y21202D01*
X11067Y21124D01*
X11105Y21080D01*
X11134Y21030D01*
X11196Y20972D01*
X11250Y20907D01*
X11299Y20875D01*
X11342Y20835D01*
X11417Y20797D01*
X11487Y20750D01*
X11543Y20732D01*
X11595Y20706D01*
X11663Y20694D01*
X11758Y20664D01*
X11858Y20662D01*
X11926Y20650D01*
X613426Y20650D01*
X613484Y20658D01*
G37*
G36*
X613484Y668358D02*
X613484Y668358D01*
X613543Y668357D01*
X613624Y668378D01*
X613708Y668390D01*
X613761Y668414D01*
X613818Y668429D01*
X613890Y668472D01*
X613967Y668506D01*
X614012Y668544D01*
X614062Y668574D01*
X614120Y668635D01*
X614184Y668690D01*
X614217Y668739D01*
X614257Y668781D01*
X614295Y668856D01*
X614342Y668927D01*
X614359Y668982D01*
X614386Y669034D01*
X614397Y669102D01*
X614428Y669198D01*
X614430Y669297D01*
X614442Y669365D01*
X614442Y866510D01*
X614433Y866568D01*
X614435Y866626D01*
X614414Y866708D01*
X614402Y866791D01*
X614378Y866845D01*
X614363Y866901D01*
X614320Y866974D01*
X614285Y867051D01*
X614248Y867095D01*
X614218Y867146D01*
X614156Y867203D01*
X614102Y867268D01*
X614053Y867300D01*
X614010Y867340D01*
X613935Y867378D01*
X613865Y867425D01*
X613809Y867443D01*
X613757Y867469D01*
X613689Y867481D01*
X613594Y867511D01*
X613494Y867514D01*
X613426Y867525D01*
X11926Y867525D01*
X11868Y867517D01*
X11810Y867518D01*
X11728Y867497D01*
X11644Y867485D01*
X11591Y867461D01*
X11535Y867446D01*
X11462Y867403D01*
X11385Y867369D01*
X11340Y867331D01*
X11290Y867301D01*
X11232Y867240D01*
X11168Y867185D01*
X11136Y867137D01*
X11096Y867094D01*
X11057Y867019D01*
X11010Y866949D01*
X10993Y866893D01*
X10966Y866841D01*
X10955Y866773D01*
X10925Y866678D01*
X10922Y866578D01*
X10911Y866510D01*
X10911Y669365D01*
X10919Y669308D01*
X10917Y669249D01*
X10939Y669167D01*
X10951Y669084D01*
X10974Y669031D01*
X10989Y668974D01*
X11032Y668902D01*
X11067Y668824D01*
X11105Y668780D01*
X11134Y668730D01*
X11196Y668672D01*
X11250Y668607D01*
X11299Y668575D01*
X11342Y668535D01*
X11417Y668497D01*
X11487Y668450D01*
X11543Y668432D01*
X11595Y668406D01*
X11663Y668394D01*
X11758Y668364D01*
X11858Y668362D01*
X11926Y668350D01*
X613426Y668350D01*
X613484Y668358D01*
G37*
G36*
X613484Y236558D02*
X613484Y236558D01*
X613543Y236557D01*
X613624Y236578D01*
X613708Y236590D01*
X613761Y236614D01*
X613818Y236629D01*
X613890Y236672D01*
X613967Y236706D01*
X614012Y236744D01*
X614062Y236774D01*
X614120Y236835D01*
X614184Y236890D01*
X614217Y236939D01*
X614257Y236981D01*
X614295Y237056D01*
X614342Y237127D01*
X614359Y237182D01*
X614386Y237234D01*
X614397Y237302D01*
X614428Y237398D01*
X614430Y237497D01*
X614442Y237565D01*
X614442Y434710D01*
X614433Y434768D01*
X614435Y434826D01*
X614414Y434908D01*
X614402Y434991D01*
X614378Y435045D01*
X614363Y435101D01*
X614320Y435174D01*
X614285Y435251D01*
X614248Y435295D01*
X614218Y435346D01*
X614156Y435403D01*
X614102Y435468D01*
X614053Y435500D01*
X614010Y435540D01*
X613935Y435578D01*
X613865Y435625D01*
X613809Y435643D01*
X613757Y435669D01*
X613689Y435681D01*
X613594Y435711D01*
X613494Y435714D01*
X613426Y435725D01*
X11926Y435725D01*
X11868Y435717D01*
X11810Y435718D01*
X11728Y435697D01*
X11644Y435685D01*
X11591Y435661D01*
X11535Y435646D01*
X11462Y435603D01*
X11385Y435569D01*
X11340Y435531D01*
X11290Y435501D01*
X11232Y435440D01*
X11168Y435385D01*
X11136Y435337D01*
X11096Y435294D01*
X11057Y435219D01*
X11010Y435149D01*
X10993Y435093D01*
X10966Y435041D01*
X10955Y434973D01*
X10925Y434878D01*
X10922Y434778D01*
X10911Y434710D01*
X10911Y237565D01*
X10919Y237508D01*
X10917Y237449D01*
X10939Y237367D01*
X10951Y237284D01*
X10974Y237231D01*
X10989Y237174D01*
X11032Y237102D01*
X11067Y237024D01*
X11105Y236980D01*
X11134Y236930D01*
X11196Y236872D01*
X11250Y236807D01*
X11299Y236775D01*
X11342Y236735D01*
X11417Y236697D01*
X11487Y236650D01*
X11543Y236632D01*
X11595Y236606D01*
X11663Y236594D01*
X11758Y236564D01*
X11858Y236562D01*
X11926Y236550D01*
X613426Y236550D01*
X613484Y236558D01*
G37*
%LPC*%
G36*
X449148Y275612D02*
X449148Y275612D01*
X443675Y281085D01*
X443605Y281138D01*
X443541Y281198D01*
X443492Y281223D01*
X443448Y281256D01*
X443366Y281287D01*
X443288Y281327D01*
X443241Y281335D01*
X443182Y281358D01*
X443035Y281370D01*
X442957Y281383D01*
X436936Y281383D01*
X436935Y281383D01*
X436933Y281383D01*
X436793Y281363D01*
X436655Y281343D01*
X436653Y281342D01*
X436652Y281342D01*
X436526Y281285D01*
X436395Y281227D01*
X436394Y281226D01*
X436393Y281225D01*
X436285Y281134D01*
X436178Y281043D01*
X436177Y281042D01*
X436176Y281041D01*
X436168Y281028D01*
X436021Y280806D01*
X436011Y280777D01*
X435998Y280756D01*
X435506Y279569D01*
X433470Y277532D01*
X430809Y276430D01*
X427929Y276430D01*
X425268Y277532D01*
X423231Y279568D01*
X422129Y282229D01*
X422129Y285110D01*
X423231Y287771D01*
X425268Y289807D01*
X427929Y290909D01*
X430809Y290909D01*
X433470Y289807D01*
X435506Y287771D01*
X435998Y286583D01*
X435999Y286582D01*
X435999Y286580D01*
X436071Y286460D01*
X436143Y286338D01*
X436144Y286337D01*
X436145Y286336D01*
X436249Y286238D01*
X436349Y286143D01*
X436351Y286142D01*
X436352Y286141D01*
X436478Y286077D01*
X436602Y286013D01*
X436604Y286012D01*
X436605Y286012D01*
X436620Y286009D01*
X436881Y285958D01*
X436911Y285960D01*
X436936Y285956D01*
X444634Y285956D01*
X444692Y285964D01*
X444750Y285963D01*
X444832Y285984D01*
X444915Y285996D01*
X444969Y286020D01*
X445025Y286035D01*
X445098Y286078D01*
X445175Y286112D01*
X445219Y286150D01*
X445269Y286180D01*
X445327Y286242D01*
X445392Y286296D01*
X445424Y286345D01*
X445464Y286387D01*
X445502Y286462D01*
X445549Y286533D01*
X445567Y286588D01*
X445593Y286640D01*
X445605Y286708D01*
X445635Y286804D01*
X445638Y286903D01*
X445649Y286972D01*
X445649Y288406D01*
X446886Y291394D01*
X449173Y293680D01*
X452161Y294918D01*
X468603Y294918D01*
X471590Y293680D01*
X473877Y291394D01*
X475114Y288406D01*
X475114Y285172D01*
X473877Y282185D01*
X473611Y281919D01*
X473600Y281904D01*
X473591Y281897D01*
X473586Y281890D01*
X473571Y281877D01*
X473509Y281783D01*
X473440Y281692D01*
X473430Y281664D01*
X473414Y281640D01*
X473379Y281532D01*
X473339Y281426D01*
X473337Y281397D01*
X473328Y281369D01*
X473325Y281256D01*
X473315Y281143D01*
X473321Y281114D01*
X473321Y281085D01*
X473349Y280975D01*
X473371Y280864D01*
X473385Y280838D01*
X473392Y280810D01*
X473450Y280712D01*
X473502Y280612D01*
X473523Y280591D01*
X473538Y280565D01*
X473620Y280488D01*
X473698Y280406D01*
X473723Y280391D01*
X473745Y280371D01*
X473846Y280319D01*
X473943Y280262D01*
X473972Y280255D01*
X473998Y280241D01*
X474075Y280229D01*
X474219Y280192D01*
X474281Y280194D01*
X474329Y280186D01*
X522634Y280186D01*
X522663Y280190D01*
X522693Y280188D01*
X522803Y280210D01*
X522916Y280226D01*
X522943Y280238D01*
X522971Y280244D01*
X523072Y280296D01*
X523175Y280342D01*
X523198Y280361D01*
X523224Y280375D01*
X523306Y280453D01*
X523392Y280526D01*
X523408Y280550D01*
X523430Y280570D01*
X523487Y280668D01*
X523550Y280762D01*
X523559Y280790D01*
X523573Y280816D01*
X523601Y280925D01*
X523636Y281033D01*
X523636Y281063D01*
X523644Y281091D01*
X523640Y281204D01*
X523643Y281318D01*
X523635Y281346D01*
X523634Y281375D01*
X523600Y281483D01*
X523571Y281593D01*
X523556Y281618D01*
X523547Y281646D01*
X523501Y281710D01*
X523426Y281837D01*
X523407Y281854D01*
X523406Y281857D01*
X523378Y281883D01*
X523352Y281919D01*
X523086Y282185D01*
X521849Y285172D01*
X521849Y288406D01*
X523086Y291394D01*
X525373Y293680D01*
X528361Y294918D01*
X544803Y294918D01*
X547790Y293680D01*
X550077Y291394D01*
X551314Y288406D01*
X551314Y285172D01*
X550077Y282185D01*
X547790Y279898D01*
X544803Y278661D01*
X532107Y278661D01*
X532021Y278648D01*
X531933Y278646D01*
X531881Y278629D01*
X531826Y278621D01*
X531746Y278585D01*
X531663Y278558D01*
X531624Y278530D01*
X531566Y278504D01*
X531453Y278409D01*
X531390Y278363D01*
X528639Y275612D01*
X449148Y275612D01*
G37*
%LPD*%
%LPC*%
G36*
X449148Y491512D02*
X449148Y491512D01*
X443675Y496985D01*
X443605Y497038D01*
X443541Y497098D01*
X443492Y497123D01*
X443448Y497156D01*
X443366Y497187D01*
X443288Y497227D01*
X443241Y497235D01*
X443182Y497258D01*
X443035Y497270D01*
X442957Y497283D01*
X436936Y497283D01*
X436935Y497283D01*
X436933Y497283D01*
X436793Y497263D01*
X436655Y497243D01*
X436653Y497242D01*
X436652Y497242D01*
X436526Y497185D01*
X436395Y497127D01*
X436394Y497126D01*
X436393Y497125D01*
X436285Y497034D01*
X436178Y496943D01*
X436177Y496942D01*
X436176Y496941D01*
X436168Y496928D01*
X436021Y496706D01*
X436011Y496677D01*
X435998Y496656D01*
X435506Y495469D01*
X433470Y493432D01*
X430809Y492330D01*
X427929Y492330D01*
X425268Y493432D01*
X423231Y495468D01*
X422129Y498129D01*
X422129Y501010D01*
X423231Y503671D01*
X425268Y505707D01*
X427929Y506809D01*
X430809Y506809D01*
X433470Y505707D01*
X435506Y503671D01*
X435998Y502483D01*
X435999Y502482D01*
X435999Y502480D01*
X436071Y502360D01*
X436143Y502238D01*
X436144Y502237D01*
X436145Y502236D01*
X436249Y502138D01*
X436349Y502043D01*
X436351Y502042D01*
X436352Y502041D01*
X436478Y501977D01*
X436602Y501913D01*
X436604Y501912D01*
X436605Y501912D01*
X436620Y501909D01*
X436881Y501858D01*
X436911Y501860D01*
X436936Y501856D01*
X444634Y501856D01*
X444692Y501864D01*
X444750Y501863D01*
X444832Y501884D01*
X444915Y501896D01*
X444969Y501920D01*
X445025Y501935D01*
X445098Y501978D01*
X445175Y502012D01*
X445219Y502050D01*
X445269Y502080D01*
X445327Y502142D01*
X445392Y502196D01*
X445424Y502245D01*
X445464Y502287D01*
X445502Y502362D01*
X445549Y502433D01*
X445567Y502488D01*
X445593Y502540D01*
X445605Y502608D01*
X445635Y502704D01*
X445638Y502803D01*
X445649Y502872D01*
X445649Y504306D01*
X446886Y507294D01*
X449173Y509580D01*
X452161Y510818D01*
X468603Y510818D01*
X471590Y509580D01*
X473877Y507294D01*
X475114Y504306D01*
X475114Y501072D01*
X473877Y498085D01*
X473611Y497819D01*
X473600Y497804D01*
X473591Y497797D01*
X473586Y497790D01*
X473571Y497777D01*
X473509Y497683D01*
X473440Y497592D01*
X473430Y497564D01*
X473414Y497540D01*
X473379Y497432D01*
X473339Y497326D01*
X473337Y497297D01*
X473328Y497269D01*
X473325Y497156D01*
X473315Y497043D01*
X473321Y497014D01*
X473321Y496985D01*
X473349Y496875D01*
X473371Y496764D01*
X473385Y496738D01*
X473392Y496710D01*
X473450Y496612D01*
X473502Y496512D01*
X473523Y496491D01*
X473538Y496465D01*
X473620Y496388D01*
X473698Y496306D01*
X473723Y496291D01*
X473745Y496271D01*
X473846Y496219D01*
X473943Y496162D01*
X473972Y496155D01*
X473998Y496141D01*
X474075Y496129D01*
X474219Y496092D01*
X474281Y496094D01*
X474329Y496086D01*
X522634Y496086D01*
X522663Y496090D01*
X522693Y496088D01*
X522803Y496110D01*
X522916Y496126D01*
X522943Y496138D01*
X522971Y496144D01*
X523072Y496196D01*
X523175Y496242D01*
X523198Y496261D01*
X523224Y496275D01*
X523306Y496353D01*
X523392Y496426D01*
X523408Y496450D01*
X523430Y496470D01*
X523487Y496568D01*
X523550Y496662D01*
X523559Y496690D01*
X523573Y496716D01*
X523601Y496825D01*
X523636Y496933D01*
X523636Y496963D01*
X523644Y496991D01*
X523640Y497104D01*
X523643Y497218D01*
X523635Y497246D01*
X523634Y497275D01*
X523600Y497383D01*
X523571Y497493D01*
X523556Y497518D01*
X523547Y497546D01*
X523501Y497610D01*
X523426Y497737D01*
X523407Y497754D01*
X523406Y497757D01*
X523378Y497783D01*
X523352Y497819D01*
X523086Y498085D01*
X521849Y501072D01*
X521849Y504306D01*
X523086Y507294D01*
X525373Y509580D01*
X528361Y510818D01*
X544803Y510818D01*
X547790Y509580D01*
X550077Y507294D01*
X551314Y504306D01*
X551314Y501072D01*
X550077Y498085D01*
X547790Y495798D01*
X544803Y494561D01*
X532107Y494561D01*
X532021Y494548D01*
X531933Y494546D01*
X531881Y494529D01*
X531826Y494521D01*
X531746Y494485D01*
X531663Y494458D01*
X531624Y494430D01*
X531566Y494404D01*
X531453Y494309D01*
X531390Y494263D01*
X528639Y491512D01*
X449148Y491512D01*
G37*
%LPD*%
%LPC*%
G36*
X781690Y434829D02*
X781690Y434829D01*
X779029Y435931D01*
X776993Y437968D01*
X775891Y440629D01*
X775891Y443509D01*
X776993Y446170D01*
X779029Y448206D01*
X780217Y448698D01*
X780218Y448699D01*
X780220Y448699D01*
X780340Y448771D01*
X780462Y448843D01*
X780463Y448844D01*
X780464Y448845D01*
X780562Y448949D01*
X780657Y449049D01*
X780658Y449051D01*
X780659Y449052D01*
X780723Y449177D01*
X780787Y449302D01*
X780788Y449304D01*
X780788Y449305D01*
X780791Y449320D01*
X780842Y449581D01*
X780840Y449611D01*
X780844Y449636D01*
X780844Y457334D01*
X780836Y457392D01*
X780837Y457450D01*
X780816Y457532D01*
X780804Y457615D01*
X780780Y457669D01*
X780765Y457725D01*
X780722Y457798D01*
X780688Y457875D01*
X780650Y457919D01*
X780620Y457969D01*
X780558Y458027D01*
X780504Y458092D01*
X780455Y458124D01*
X780413Y458164D01*
X780338Y458202D01*
X780267Y458249D01*
X780212Y458267D01*
X780160Y458293D01*
X780092Y458305D01*
X779996Y458335D01*
X779897Y458338D01*
X779828Y458349D01*
X778394Y458349D01*
X775406Y459586D01*
X773120Y461873D01*
X771882Y464861D01*
X771882Y481303D01*
X773120Y484290D01*
X775406Y486577D01*
X778394Y487814D01*
X781628Y487814D01*
X784615Y486577D01*
X784881Y486311D01*
X784904Y486294D01*
X784923Y486271D01*
X785017Y486209D01*
X785108Y486140D01*
X785136Y486130D01*
X785160Y486114D01*
X785268Y486079D01*
X785374Y486039D01*
X785403Y486037D01*
X785431Y486028D01*
X785544Y486025D01*
X785657Y486015D01*
X785686Y486021D01*
X785715Y486021D01*
X785825Y486049D01*
X785936Y486071D01*
X785962Y486085D01*
X785990Y486092D01*
X786088Y486150D01*
X786188Y486202D01*
X786209Y486223D01*
X786235Y486238D01*
X786312Y486320D01*
X786394Y486398D01*
X786409Y486423D01*
X786429Y486445D01*
X786481Y486546D01*
X786538Y486643D01*
X786545Y486672D01*
X786559Y486698D01*
X786571Y486775D01*
X786608Y486919D01*
X786606Y486981D01*
X786614Y487029D01*
X786614Y535334D01*
X786610Y535363D01*
X786612Y535393D01*
X786590Y535503D01*
X786574Y535616D01*
X786562Y535643D01*
X786556Y535671D01*
X786504Y535772D01*
X786458Y535875D01*
X786439Y535898D01*
X786425Y535924D01*
X786347Y536006D01*
X786274Y536092D01*
X786250Y536108D01*
X786230Y536130D01*
X786132Y536187D01*
X786038Y536250D01*
X786010Y536259D01*
X785984Y536273D01*
X785875Y536301D01*
X785767Y536336D01*
X785737Y536336D01*
X785709Y536344D01*
X785596Y536340D01*
X785482Y536343D01*
X785454Y536335D01*
X785425Y536334D01*
X785317Y536300D01*
X785207Y536271D01*
X785182Y536256D01*
X785154Y536247D01*
X785090Y536201D01*
X784963Y536126D01*
X784920Y536080D01*
X784881Y536052D01*
X784615Y535786D01*
X781628Y534549D01*
X778394Y534549D01*
X775406Y535786D01*
X773120Y538073D01*
X771882Y541061D01*
X771882Y557503D01*
X773120Y560490D01*
X775406Y562777D01*
X778394Y564014D01*
X781628Y564014D01*
X784615Y562777D01*
X786902Y560490D01*
X788139Y557503D01*
X788139Y544807D01*
X788152Y544721D01*
X788154Y544633D01*
X788171Y544581D01*
X788179Y544526D01*
X788215Y544446D01*
X788242Y544363D01*
X788270Y544324D01*
X788296Y544266D01*
X788391Y544153D01*
X788437Y544089D01*
X791188Y541339D01*
X791188Y461848D01*
X785715Y456375D01*
X785662Y456305D01*
X785602Y456241D01*
X785577Y456192D01*
X785544Y456148D01*
X785513Y456066D01*
X785473Y455988D01*
X785465Y455941D01*
X785442Y455882D01*
X785430Y455735D01*
X785417Y455657D01*
X785417Y449636D01*
X785417Y449635D01*
X785417Y449633D01*
X785437Y449493D01*
X785457Y449355D01*
X785458Y449353D01*
X785458Y449352D01*
X785515Y449226D01*
X785573Y449095D01*
X785574Y449094D01*
X785575Y449093D01*
X785666Y448985D01*
X785757Y448878D01*
X785758Y448877D01*
X785759Y448876D01*
X785772Y448868D01*
X785994Y448721D01*
X786023Y448711D01*
X786044Y448698D01*
X787231Y448206D01*
X789268Y446170D01*
X790370Y443509D01*
X790370Y440629D01*
X789268Y437968D01*
X787232Y435931D01*
X784571Y434829D01*
X781690Y434829D01*
G37*
%LPD*%
%LPC*%
G36*
X449148Y59712D02*
X449148Y59712D01*
X447511Y61349D01*
X443675Y65185D01*
X443605Y65238D01*
X443541Y65298D01*
X443492Y65323D01*
X443448Y65356D01*
X443366Y65387D01*
X443288Y65427D01*
X443241Y65435D01*
X443182Y65458D01*
X443035Y65470D01*
X442957Y65483D01*
X436936Y65483D01*
X436935Y65483D01*
X436933Y65483D01*
X436793Y65463D01*
X436655Y65443D01*
X436653Y65442D01*
X436652Y65442D01*
X436526Y65385D01*
X436395Y65327D01*
X436394Y65326D01*
X436393Y65325D01*
X436285Y65234D01*
X436178Y65143D01*
X436177Y65142D01*
X436176Y65141D01*
X436168Y65128D01*
X436021Y64906D01*
X436011Y64877D01*
X435998Y64856D01*
X435506Y63669D01*
X433470Y61632D01*
X430809Y60530D01*
X427929Y60530D01*
X425268Y61632D01*
X423231Y63668D01*
X422129Y66329D01*
X422129Y69210D01*
X423231Y71871D01*
X425268Y73907D01*
X427929Y75009D01*
X430809Y75009D01*
X433470Y73907D01*
X435506Y71871D01*
X435998Y70683D01*
X435999Y70682D01*
X435999Y70680D01*
X436071Y70560D01*
X436143Y70438D01*
X436144Y70437D01*
X436145Y70436D01*
X436249Y70338D01*
X436349Y70243D01*
X436351Y70242D01*
X436352Y70241D01*
X436478Y70177D01*
X436602Y70113D01*
X436604Y70112D01*
X436605Y70112D01*
X436620Y70109D01*
X436881Y70058D01*
X436911Y70060D01*
X436936Y70056D01*
X444634Y70056D01*
X444692Y70064D01*
X444750Y70063D01*
X444832Y70084D01*
X444915Y70096D01*
X444969Y70120D01*
X445025Y70135D01*
X445098Y70178D01*
X445175Y70212D01*
X445219Y70250D01*
X445269Y70280D01*
X445327Y70342D01*
X445392Y70396D01*
X445424Y70445D01*
X445464Y70487D01*
X445502Y70562D01*
X445549Y70633D01*
X445567Y70688D01*
X445593Y70740D01*
X445605Y70808D01*
X445635Y70904D01*
X445638Y71003D01*
X445649Y71072D01*
X445649Y72506D01*
X446886Y75494D01*
X449173Y77780D01*
X452161Y79018D01*
X468603Y79018D01*
X471590Y77780D01*
X473877Y75494D01*
X475114Y72506D01*
X475114Y69272D01*
X473877Y66285D01*
X473611Y66019D01*
X473600Y66004D01*
X473591Y65997D01*
X473586Y65990D01*
X473571Y65977D01*
X473509Y65883D01*
X473440Y65792D01*
X473430Y65764D01*
X473414Y65740D01*
X473379Y65632D01*
X473339Y65526D01*
X473337Y65497D01*
X473328Y65469D01*
X473325Y65356D01*
X473315Y65243D01*
X473321Y65214D01*
X473321Y65185D01*
X473349Y65075D01*
X473371Y64964D01*
X473385Y64938D01*
X473392Y64910D01*
X473450Y64812D01*
X473502Y64712D01*
X473523Y64691D01*
X473538Y64665D01*
X473620Y64588D01*
X473698Y64506D01*
X473723Y64491D01*
X473745Y64471D01*
X473846Y64419D01*
X473943Y64362D01*
X473972Y64355D01*
X473998Y64341D01*
X474075Y64329D01*
X474219Y64292D01*
X474281Y64294D01*
X474329Y64286D01*
X522634Y64286D01*
X522663Y64290D01*
X522693Y64288D01*
X522803Y64310D01*
X522916Y64326D01*
X522943Y64338D01*
X522971Y64344D01*
X523072Y64396D01*
X523175Y64442D01*
X523198Y64461D01*
X523224Y64475D01*
X523306Y64553D01*
X523392Y64626D01*
X523408Y64650D01*
X523430Y64670D01*
X523487Y64768D01*
X523550Y64862D01*
X523559Y64890D01*
X523573Y64916D01*
X523601Y65025D01*
X523636Y65133D01*
X523636Y65163D01*
X523644Y65191D01*
X523640Y65304D01*
X523643Y65418D01*
X523635Y65446D01*
X523634Y65475D01*
X523600Y65583D01*
X523571Y65693D01*
X523556Y65718D01*
X523547Y65746D01*
X523501Y65810D01*
X523426Y65937D01*
X523407Y65954D01*
X523406Y65957D01*
X523378Y65983D01*
X523352Y66019D01*
X523086Y66285D01*
X521849Y69272D01*
X521849Y72506D01*
X523086Y75494D01*
X525373Y77780D01*
X528361Y79018D01*
X544803Y79018D01*
X547790Y77780D01*
X550077Y75494D01*
X551314Y72506D01*
X551314Y69272D01*
X550077Y66285D01*
X547790Y63998D01*
X544803Y62761D01*
X532107Y62761D01*
X532021Y62748D01*
X531933Y62746D01*
X531881Y62729D01*
X531826Y62721D01*
X531746Y62685D01*
X531663Y62658D01*
X531624Y62630D01*
X531566Y62604D01*
X531453Y62509D01*
X531389Y62463D01*
X528639Y59712D01*
X449148Y59712D01*
G37*
%LPD*%
%LPC*%
G36*
X449148Y707412D02*
X449148Y707412D01*
X447511Y709049D01*
X443675Y712885D01*
X443605Y712938D01*
X443541Y712998D01*
X443492Y713023D01*
X443448Y713056D01*
X443366Y713087D01*
X443288Y713127D01*
X443241Y713135D01*
X443182Y713158D01*
X443035Y713170D01*
X442957Y713183D01*
X436936Y713183D01*
X436935Y713183D01*
X436933Y713183D01*
X436793Y713163D01*
X436655Y713143D01*
X436653Y713142D01*
X436652Y713142D01*
X436526Y713085D01*
X436395Y713027D01*
X436394Y713026D01*
X436393Y713025D01*
X436285Y712934D01*
X436178Y712843D01*
X436177Y712842D01*
X436176Y712841D01*
X436168Y712828D01*
X436021Y712606D01*
X436011Y712577D01*
X435998Y712556D01*
X435506Y711369D01*
X433470Y709332D01*
X430809Y708230D01*
X427929Y708230D01*
X425268Y709332D01*
X423231Y711368D01*
X422129Y714029D01*
X422129Y716910D01*
X423231Y719571D01*
X425268Y721607D01*
X427929Y722709D01*
X430809Y722709D01*
X433470Y721607D01*
X435506Y719571D01*
X435998Y718383D01*
X435999Y718382D01*
X435999Y718380D01*
X436071Y718260D01*
X436143Y718138D01*
X436144Y718137D01*
X436145Y718136D01*
X436249Y718038D01*
X436349Y717943D01*
X436351Y717942D01*
X436352Y717941D01*
X436478Y717877D01*
X436602Y717813D01*
X436604Y717812D01*
X436605Y717812D01*
X436620Y717809D01*
X436881Y717758D01*
X436911Y717760D01*
X436936Y717756D01*
X444634Y717756D01*
X444692Y717764D01*
X444750Y717763D01*
X444832Y717784D01*
X444915Y717796D01*
X444969Y717820D01*
X445025Y717835D01*
X445098Y717878D01*
X445175Y717912D01*
X445219Y717950D01*
X445269Y717980D01*
X445327Y718042D01*
X445392Y718096D01*
X445424Y718145D01*
X445464Y718187D01*
X445502Y718262D01*
X445549Y718333D01*
X445567Y718388D01*
X445593Y718440D01*
X445605Y718508D01*
X445635Y718604D01*
X445638Y718703D01*
X445649Y718772D01*
X445649Y720206D01*
X446886Y723194D01*
X449173Y725480D01*
X452161Y726718D01*
X468603Y726718D01*
X471590Y725480D01*
X473877Y723194D01*
X475114Y720206D01*
X475114Y716972D01*
X473877Y713985D01*
X473611Y713719D01*
X473600Y713704D01*
X473591Y713697D01*
X473586Y713690D01*
X473571Y713677D01*
X473509Y713583D01*
X473440Y713492D01*
X473430Y713464D01*
X473414Y713440D01*
X473379Y713332D01*
X473339Y713226D01*
X473337Y713197D01*
X473328Y713169D01*
X473325Y713056D01*
X473315Y712943D01*
X473321Y712914D01*
X473321Y712885D01*
X473349Y712775D01*
X473371Y712664D01*
X473385Y712638D01*
X473392Y712610D01*
X473450Y712512D01*
X473502Y712412D01*
X473523Y712391D01*
X473538Y712365D01*
X473620Y712288D01*
X473698Y712206D01*
X473723Y712191D01*
X473745Y712171D01*
X473846Y712119D01*
X473943Y712062D01*
X473972Y712055D01*
X473998Y712041D01*
X474075Y712029D01*
X474219Y711992D01*
X474281Y711994D01*
X474329Y711986D01*
X522634Y711986D01*
X522663Y711990D01*
X522693Y711988D01*
X522803Y712010D01*
X522916Y712026D01*
X522943Y712038D01*
X522971Y712044D01*
X523072Y712096D01*
X523175Y712142D01*
X523198Y712161D01*
X523224Y712175D01*
X523306Y712253D01*
X523392Y712326D01*
X523408Y712350D01*
X523430Y712370D01*
X523487Y712468D01*
X523550Y712562D01*
X523559Y712590D01*
X523573Y712616D01*
X523601Y712725D01*
X523636Y712833D01*
X523636Y712863D01*
X523644Y712891D01*
X523640Y713004D01*
X523643Y713118D01*
X523635Y713146D01*
X523634Y713175D01*
X523600Y713283D01*
X523571Y713393D01*
X523556Y713418D01*
X523547Y713446D01*
X523501Y713510D01*
X523426Y713637D01*
X523407Y713654D01*
X523406Y713657D01*
X523378Y713683D01*
X523352Y713719D01*
X523086Y713985D01*
X521849Y716972D01*
X521849Y720206D01*
X523086Y723194D01*
X525373Y725480D01*
X528361Y726718D01*
X544803Y726718D01*
X547790Y725480D01*
X550077Y723194D01*
X551314Y720206D01*
X551314Y716972D01*
X550077Y713985D01*
X547790Y711698D01*
X544803Y710461D01*
X532107Y710461D01*
X532021Y710448D01*
X531933Y710446D01*
X531881Y710429D01*
X531826Y710421D01*
X531746Y710385D01*
X531663Y710358D01*
X531624Y710330D01*
X531566Y710304D01*
X531453Y710209D01*
X531389Y710163D01*
X528639Y707412D01*
X449148Y707412D01*
G37*
%LPD*%
%LPC*%
G36*
X760972Y304863D02*
X760972Y304863D01*
X759021Y305671D01*
X757528Y307164D01*
X756720Y309115D01*
X756720Y311226D01*
X757528Y313176D01*
X759021Y314669D01*
X759114Y314707D01*
X759115Y314708D01*
X759117Y314709D01*
X759232Y314777D01*
X759359Y314852D01*
X759360Y314853D01*
X759361Y314854D01*
X759456Y314955D01*
X759554Y315059D01*
X759554Y315060D01*
X759556Y315061D01*
X759620Y315187D01*
X759684Y315311D01*
X759684Y315313D01*
X759685Y315314D01*
X759687Y315329D01*
X759739Y315590D01*
X759736Y315621D01*
X759740Y315645D01*
X759740Y375858D01*
X759728Y375945D01*
X759725Y376032D01*
X759708Y376085D01*
X759701Y376140D01*
X759665Y376220D01*
X759638Y376303D01*
X759610Y376342D01*
X759584Y376399D01*
X759488Y376513D01*
X759443Y376576D01*
X721609Y414411D01*
X721609Y468058D01*
X723245Y469694D01*
X734647Y481096D01*
X734716Y481188D01*
X734790Y481276D01*
X734801Y481301D01*
X734818Y481323D01*
X734859Y481431D01*
X734906Y481536D01*
X734909Y481563D01*
X734919Y481589D01*
X734929Y481703D01*
X734945Y481817D01*
X734941Y481845D01*
X734943Y481872D01*
X734920Y481985D01*
X734904Y482099D01*
X734892Y482124D01*
X734887Y482151D01*
X734834Y482253D01*
X734787Y482358D01*
X734769Y482379D01*
X734756Y482403D01*
X734677Y482487D01*
X734602Y482574D01*
X734581Y482587D01*
X734560Y482610D01*
X734330Y482744D01*
X734318Y482752D01*
X734005Y482882D01*
X731968Y484918D01*
X730866Y487579D01*
X730866Y490459D01*
X731968Y493120D01*
X734005Y495157D01*
X736666Y496259D01*
X739546Y496259D01*
X742207Y495157D01*
X744243Y493120D01*
X745346Y490459D01*
X745346Y487579D01*
X744243Y484918D01*
X742207Y482882D01*
X740557Y482198D01*
X740555Y482197D01*
X740554Y482197D01*
X740436Y482127D01*
X740312Y482054D01*
X740311Y482053D01*
X740309Y482052D01*
X740212Y481948D01*
X740117Y481847D01*
X740116Y481846D01*
X740115Y481844D01*
X740050Y481719D01*
X739986Y481594D01*
X739986Y481593D01*
X739985Y481591D01*
X739983Y481576D01*
X739931Y481315D01*
X739934Y481285D01*
X739930Y481260D01*
X739930Y479911D01*
X726479Y466460D01*
X726427Y466391D01*
X726367Y466327D01*
X726342Y466277D01*
X726308Y466233D01*
X726277Y466152D01*
X726238Y466074D01*
X726230Y466026D01*
X726207Y465968D01*
X726195Y465820D01*
X726182Y465743D01*
X726182Y447810D01*
X726186Y447781D01*
X726184Y447752D01*
X726206Y447640D01*
X726222Y447528D01*
X726234Y447502D01*
X726240Y447473D01*
X726292Y447372D01*
X726338Y447269D01*
X726357Y447247D01*
X726371Y447220D01*
X726449Y447138D01*
X726522Y447052D01*
X726546Y447036D01*
X726566Y447014D01*
X726664Y446957D01*
X726758Y446894D01*
X726786Y446885D01*
X726812Y446871D01*
X726921Y446843D01*
X727029Y446809D01*
X727059Y446808D01*
X727087Y446801D01*
X727200Y446804D01*
X727314Y446801D01*
X727342Y446809D01*
X727371Y446810D01*
X727479Y446844D01*
X727589Y446873D01*
X727614Y446888D01*
X727642Y446897D01*
X727706Y446943D01*
X727833Y447018D01*
X727876Y447064D01*
X727915Y447092D01*
X729029Y448206D01*
X731690Y449308D01*
X734571Y449308D01*
X737232Y448206D01*
X739268Y446170D01*
X740370Y443509D01*
X740370Y440629D01*
X739268Y437968D01*
X737232Y435931D01*
X734571Y434829D01*
X731690Y434829D01*
X729029Y435931D01*
X727915Y437046D01*
X727892Y437063D01*
X727873Y437086D01*
X727779Y437148D01*
X727688Y437216D01*
X727661Y437227D01*
X727636Y437243D01*
X727528Y437277D01*
X727422Y437318D01*
X727393Y437320D01*
X727365Y437329D01*
X727252Y437332D01*
X727139Y437341D01*
X727110Y437335D01*
X727081Y437336D01*
X726971Y437308D01*
X726860Y437285D01*
X726834Y437272D01*
X726806Y437264D01*
X726709Y437207D01*
X726608Y437154D01*
X726587Y437134D01*
X726561Y437119D01*
X726484Y437037D01*
X726402Y436959D01*
X726387Y436933D01*
X726367Y436912D01*
X726315Y436811D01*
X726258Y436713D01*
X726251Y436685D01*
X726238Y436659D01*
X726225Y436581D01*
X726188Y436438D01*
X726190Y436375D01*
X726182Y436328D01*
X726182Y416726D01*
X726194Y416639D01*
X726197Y416552D01*
X726214Y416499D01*
X726222Y416444D01*
X726258Y416364D01*
X726285Y416281D01*
X726313Y416242D01*
X726338Y416185D01*
X726434Y416072D01*
X726479Y416008D01*
X764314Y378173D01*
X764314Y315645D01*
X764314Y315644D01*
X764314Y315642D01*
X764334Y315504D01*
X764354Y315364D01*
X764354Y315362D01*
X764355Y315361D01*
X764412Y315235D01*
X764470Y315104D01*
X764471Y315103D01*
X764472Y315102D01*
X764566Y314991D01*
X764654Y314887D01*
X764655Y314887D01*
X764656Y314885D01*
X764669Y314877D01*
X764890Y314730D01*
X764919Y314721D01*
X764941Y314707D01*
X765033Y314669D01*
X766526Y313176D01*
X767334Y311226D01*
X767334Y309115D01*
X766526Y307164D01*
X765033Y305671D01*
X763083Y304863D01*
X760972Y304863D01*
G37*
%LPD*%
%LPC*%
G36*
X296415Y515366D02*
X296415Y515366D01*
X294464Y516174D01*
X292971Y517667D01*
X292163Y519617D01*
X292163Y521728D01*
X292971Y523679D01*
X294464Y525172D01*
X296415Y525980D01*
X298526Y525980D01*
X300476Y525172D01*
X301969Y523679D01*
X302007Y523586D01*
X302008Y523585D01*
X302009Y523583D01*
X302081Y523462D01*
X302152Y523341D01*
X302153Y523340D01*
X302154Y523339D01*
X302259Y523240D01*
X302359Y523146D01*
X302360Y523146D01*
X302361Y523144D01*
X302487Y523080D01*
X302611Y523016D01*
X302613Y523016D01*
X302614Y523015D01*
X302629Y523013D01*
X302890Y522961D01*
X302921Y522964D01*
X302945Y522960D01*
X363158Y522960D01*
X363245Y522972D01*
X363332Y522975D01*
X363385Y522992D01*
X363440Y522999D01*
X363520Y523035D01*
X363603Y523062D01*
X363642Y523090D01*
X363699Y523116D01*
X363813Y523212D01*
X363876Y523257D01*
X401711Y561091D01*
X455358Y561091D01*
X456994Y559455D01*
X468396Y548053D01*
X468488Y547984D01*
X468576Y547910D01*
X468601Y547899D01*
X468623Y547882D01*
X468731Y547841D01*
X468836Y547794D01*
X468863Y547791D01*
X468889Y547781D01*
X469003Y547771D01*
X469117Y547755D01*
X469145Y547759D01*
X469172Y547757D01*
X469285Y547780D01*
X469399Y547796D01*
X469424Y547808D01*
X469451Y547813D01*
X469553Y547866D01*
X469658Y547913D01*
X469679Y547931D01*
X469703Y547944D01*
X469787Y548023D01*
X469874Y548098D01*
X469887Y548119D01*
X469910Y548140D01*
X470044Y548369D01*
X470052Y548382D01*
X470182Y548695D01*
X472218Y550732D01*
X474879Y551834D01*
X477759Y551834D01*
X480420Y550732D01*
X482457Y548695D01*
X483559Y546034D01*
X483559Y543154D01*
X482457Y540493D01*
X480420Y538457D01*
X477759Y537354D01*
X474879Y537354D01*
X472218Y538457D01*
X470182Y540493D01*
X469498Y542143D01*
X469497Y542145D01*
X469497Y542146D01*
X469425Y542267D01*
X469354Y542388D01*
X469353Y542389D01*
X469352Y542391D01*
X469248Y542488D01*
X469147Y542583D01*
X469146Y542584D01*
X469144Y542585D01*
X469019Y542649D01*
X468894Y542714D01*
X468893Y542714D01*
X468891Y542715D01*
X468876Y542717D01*
X468615Y542769D01*
X468585Y542766D01*
X468560Y542770D01*
X467211Y542770D01*
X453760Y556221D01*
X453691Y556273D01*
X453627Y556333D01*
X453577Y556358D01*
X453533Y556392D01*
X453452Y556423D01*
X453374Y556462D01*
X453326Y556470D01*
X453268Y556493D01*
X453120Y556505D01*
X453043Y556518D01*
X435110Y556518D01*
X435081Y556514D01*
X435052Y556516D01*
X434940Y556494D01*
X434828Y556478D01*
X434802Y556466D01*
X434773Y556460D01*
X434672Y556408D01*
X434569Y556362D01*
X434547Y556343D01*
X434520Y556329D01*
X434438Y556251D01*
X434352Y556178D01*
X434336Y556154D01*
X434314Y556134D01*
X434257Y556036D01*
X434194Y555942D01*
X434185Y555914D01*
X434171Y555888D01*
X434143Y555779D01*
X434109Y555671D01*
X434108Y555641D01*
X434101Y555613D01*
X434104Y555500D01*
X434101Y555386D01*
X434109Y555358D01*
X434110Y555329D01*
X434144Y555221D01*
X434173Y555111D01*
X434188Y555086D01*
X434197Y555058D01*
X434243Y554994D01*
X434318Y554867D01*
X434364Y554824D01*
X434392Y554785D01*
X435506Y553671D01*
X436608Y551010D01*
X436608Y548129D01*
X435506Y545468D01*
X433470Y543432D01*
X430809Y542330D01*
X427929Y542330D01*
X425268Y543432D01*
X423231Y545468D01*
X422129Y548129D01*
X422129Y551010D01*
X423231Y553671D01*
X424346Y554785D01*
X424363Y554808D01*
X424386Y554827D01*
X424448Y554921D01*
X424516Y555012D01*
X424527Y555039D01*
X424543Y555064D01*
X424577Y555172D01*
X424618Y555278D01*
X424620Y555307D01*
X424629Y555335D01*
X424632Y555448D01*
X424641Y555561D01*
X424635Y555590D01*
X424636Y555619D01*
X424608Y555729D01*
X424585Y555840D01*
X424572Y555866D01*
X424564Y555894D01*
X424507Y555991D01*
X424454Y556092D01*
X424434Y556113D01*
X424419Y556139D01*
X424337Y556216D01*
X424259Y556298D01*
X424233Y556313D01*
X424212Y556333D01*
X424111Y556385D01*
X424013Y556442D01*
X423985Y556449D01*
X423959Y556462D01*
X423881Y556475D01*
X423738Y556512D01*
X423675Y556510D01*
X423628Y556518D01*
X404026Y556518D01*
X403939Y556506D01*
X403852Y556503D01*
X403799Y556486D01*
X403744Y556478D01*
X403664Y556442D01*
X403581Y556415D01*
X403542Y556387D01*
X403485Y556362D01*
X403372Y556266D01*
X403308Y556221D01*
X365473Y518386D01*
X302945Y518386D01*
X302944Y518386D01*
X302942Y518386D01*
X302804Y518366D01*
X302664Y518346D01*
X302662Y518346D01*
X302661Y518345D01*
X302535Y518288D01*
X302404Y518230D01*
X302403Y518229D01*
X302402Y518228D01*
X302294Y518136D01*
X302187Y518046D01*
X302187Y518045D01*
X302185Y518044D01*
X302177Y518031D01*
X302030Y517810D01*
X302021Y517781D01*
X302007Y517759D01*
X301969Y517667D01*
X300476Y516174D01*
X298526Y515366D01*
X296415Y515366D01*
G37*
%LPD*%
%LPC*%
G36*
X296415Y299466D02*
X296415Y299466D01*
X294464Y300274D01*
X292971Y301767D01*
X292163Y303717D01*
X292163Y305828D01*
X292971Y307779D01*
X294464Y309272D01*
X296415Y310080D01*
X298526Y310080D01*
X300476Y309272D01*
X301969Y307779D01*
X302007Y307686D01*
X302008Y307685D01*
X302009Y307683D01*
X302081Y307562D01*
X302152Y307441D01*
X302153Y307440D01*
X302154Y307439D01*
X302259Y307340D01*
X302359Y307246D01*
X302360Y307246D01*
X302361Y307244D01*
X302487Y307180D01*
X302611Y307116D01*
X302613Y307116D01*
X302614Y307115D01*
X302629Y307113D01*
X302890Y307061D01*
X302921Y307064D01*
X302945Y307060D01*
X363158Y307060D01*
X363245Y307072D01*
X363332Y307075D01*
X363385Y307092D01*
X363440Y307099D01*
X363520Y307135D01*
X363603Y307162D01*
X363642Y307190D01*
X363699Y307216D01*
X363813Y307312D01*
X363876Y307357D01*
X401711Y345191D01*
X455358Y345191D01*
X456994Y343555D01*
X468396Y332153D01*
X468488Y332084D01*
X468576Y332010D01*
X468601Y331999D01*
X468623Y331982D01*
X468731Y331941D01*
X468836Y331894D01*
X468863Y331891D01*
X468889Y331881D01*
X469003Y331871D01*
X469117Y331855D01*
X469145Y331859D01*
X469172Y331857D01*
X469285Y331880D01*
X469399Y331896D01*
X469424Y331908D01*
X469451Y331913D01*
X469553Y331966D01*
X469658Y332013D01*
X469679Y332031D01*
X469703Y332044D01*
X469787Y332123D01*
X469874Y332198D01*
X469887Y332219D01*
X469910Y332240D01*
X470044Y332469D01*
X470052Y332482D01*
X470182Y332795D01*
X472218Y334832D01*
X474879Y335934D01*
X477759Y335934D01*
X480420Y334832D01*
X482457Y332795D01*
X483559Y330134D01*
X483559Y327254D01*
X482457Y324593D01*
X480420Y322557D01*
X477759Y321454D01*
X474879Y321454D01*
X472218Y322557D01*
X470182Y324593D01*
X469498Y326243D01*
X469497Y326245D01*
X469497Y326246D01*
X469425Y326367D01*
X469354Y326488D01*
X469353Y326489D01*
X469352Y326491D01*
X469248Y326588D01*
X469147Y326683D01*
X469146Y326684D01*
X469144Y326685D01*
X469019Y326749D01*
X468894Y326814D01*
X468893Y326814D01*
X468891Y326815D01*
X468876Y326817D01*
X468615Y326869D01*
X468585Y326866D01*
X468560Y326870D01*
X467211Y326870D01*
X453760Y340321D01*
X453691Y340373D01*
X453627Y340433D01*
X453577Y340458D01*
X453533Y340492D01*
X453452Y340523D01*
X453374Y340562D01*
X453326Y340570D01*
X453268Y340593D01*
X453120Y340605D01*
X453043Y340618D01*
X435110Y340618D01*
X435081Y340614D01*
X435052Y340616D01*
X434940Y340594D01*
X434828Y340578D01*
X434802Y340566D01*
X434773Y340560D01*
X434672Y340508D01*
X434569Y340462D01*
X434547Y340443D01*
X434520Y340429D01*
X434438Y340351D01*
X434352Y340278D01*
X434336Y340254D01*
X434314Y340234D01*
X434257Y340136D01*
X434194Y340042D01*
X434185Y340014D01*
X434171Y339988D01*
X434143Y339879D01*
X434109Y339771D01*
X434108Y339741D01*
X434101Y339713D01*
X434104Y339600D01*
X434101Y339486D01*
X434109Y339458D01*
X434110Y339429D01*
X434144Y339321D01*
X434173Y339211D01*
X434188Y339186D01*
X434197Y339158D01*
X434243Y339094D01*
X434318Y338967D01*
X434364Y338924D01*
X434392Y338885D01*
X435506Y337771D01*
X436608Y335110D01*
X436608Y332229D01*
X435506Y329568D01*
X433470Y327532D01*
X430809Y326430D01*
X427929Y326430D01*
X425268Y327532D01*
X423231Y329568D01*
X422129Y332229D01*
X422129Y335110D01*
X423231Y337771D01*
X424346Y338885D01*
X424363Y338908D01*
X424386Y338927D01*
X424448Y339021D01*
X424516Y339112D01*
X424527Y339139D01*
X424543Y339164D01*
X424577Y339272D01*
X424618Y339378D01*
X424620Y339407D01*
X424629Y339435D01*
X424632Y339548D01*
X424641Y339661D01*
X424635Y339690D01*
X424636Y339719D01*
X424608Y339829D01*
X424585Y339940D01*
X424572Y339966D01*
X424564Y339994D01*
X424507Y340091D01*
X424454Y340192D01*
X424434Y340213D01*
X424419Y340239D01*
X424337Y340316D01*
X424259Y340398D01*
X424233Y340413D01*
X424212Y340433D01*
X424111Y340485D01*
X424013Y340542D01*
X423985Y340549D01*
X423959Y340562D01*
X423881Y340575D01*
X423738Y340612D01*
X423675Y340610D01*
X423628Y340618D01*
X404026Y340618D01*
X403939Y340606D01*
X403852Y340603D01*
X403799Y340586D01*
X403744Y340578D01*
X403664Y340542D01*
X403581Y340515D01*
X403542Y340487D01*
X403485Y340462D01*
X403372Y340366D01*
X403308Y340321D01*
X365473Y302486D01*
X302945Y302486D01*
X302944Y302486D01*
X302942Y302486D01*
X302804Y302466D01*
X302664Y302446D01*
X302662Y302446D01*
X302661Y302445D01*
X302535Y302388D01*
X302404Y302330D01*
X302403Y302329D01*
X302402Y302328D01*
X302294Y302236D01*
X302187Y302146D01*
X302187Y302145D01*
X302185Y302144D01*
X302177Y302131D01*
X302030Y301910D01*
X302021Y301881D01*
X302007Y301859D01*
X301969Y301767D01*
X300476Y300274D01*
X298526Y299466D01*
X296415Y299466D01*
G37*
%LPD*%
%LPC*%
G36*
X296415Y731266D02*
X296415Y731266D01*
X294464Y732074D01*
X292971Y733567D01*
X292163Y735517D01*
X292163Y737628D01*
X292971Y739579D01*
X294464Y741072D01*
X296415Y741880D01*
X298526Y741880D01*
X300476Y741072D01*
X301969Y739579D01*
X302007Y739486D01*
X302008Y739485D01*
X302009Y739483D01*
X302081Y739362D01*
X302152Y739242D01*
X302153Y739240D01*
X302154Y739239D01*
X302259Y739140D01*
X302358Y739046D01*
X302360Y739046D01*
X302361Y739044D01*
X302488Y738979D01*
X302611Y738916D01*
X302613Y738916D01*
X302614Y738915D01*
X302630Y738913D01*
X302890Y738861D01*
X302921Y738864D01*
X302945Y738860D01*
X363158Y738860D01*
X363245Y738872D01*
X363332Y738875D01*
X363385Y738892D01*
X363440Y738899D01*
X363520Y738935D01*
X363603Y738962D01*
X363642Y738990D01*
X363699Y739016D01*
X363813Y739112D01*
X363876Y739157D01*
X401711Y776991D01*
X455358Y776991D01*
X456994Y775355D01*
X468396Y763953D01*
X468488Y763884D01*
X468576Y763810D01*
X468601Y763799D01*
X468623Y763782D01*
X468731Y763741D01*
X468836Y763694D01*
X468863Y763691D01*
X468889Y763681D01*
X469003Y763671D01*
X469117Y763655D01*
X469145Y763659D01*
X469172Y763657D01*
X469285Y763680D01*
X469399Y763696D01*
X469424Y763708D01*
X469451Y763713D01*
X469553Y763766D01*
X469658Y763813D01*
X469679Y763831D01*
X469703Y763844D01*
X469787Y763923D01*
X469874Y763998D01*
X469887Y764019D01*
X469910Y764040D01*
X470044Y764269D01*
X470052Y764282D01*
X470182Y764595D01*
X472218Y766632D01*
X474879Y767734D01*
X477759Y767734D01*
X480420Y766632D01*
X482457Y764595D01*
X483559Y761934D01*
X483559Y759054D01*
X482457Y756393D01*
X480420Y754357D01*
X477759Y753254D01*
X474879Y753254D01*
X472218Y754357D01*
X470182Y756393D01*
X469498Y758043D01*
X469497Y758045D01*
X469497Y758046D01*
X469427Y758164D01*
X469354Y758288D01*
X469353Y758289D01*
X469352Y758291D01*
X469248Y758388D01*
X469147Y758483D01*
X469146Y758484D01*
X469144Y758485D01*
X469019Y758550D01*
X468894Y758614D01*
X468893Y758614D01*
X468891Y758615D01*
X468876Y758617D01*
X468615Y758669D01*
X468585Y758666D01*
X468560Y758670D01*
X467211Y758670D01*
X453760Y772121D01*
X453691Y772173D01*
X453627Y772233D01*
X453577Y772258D01*
X453533Y772292D01*
X453452Y772323D01*
X453374Y772362D01*
X453326Y772370D01*
X453268Y772393D01*
X453120Y772405D01*
X453043Y772418D01*
X435110Y772418D01*
X435081Y772414D01*
X435052Y772416D01*
X434940Y772394D01*
X434828Y772378D01*
X434802Y772366D01*
X434773Y772360D01*
X434672Y772308D01*
X434569Y772262D01*
X434547Y772243D01*
X434520Y772229D01*
X434438Y772151D01*
X434352Y772078D01*
X434336Y772054D01*
X434314Y772034D01*
X434257Y771936D01*
X434194Y771842D01*
X434185Y771814D01*
X434171Y771788D01*
X434143Y771679D01*
X434109Y771571D01*
X434108Y771541D01*
X434101Y771513D01*
X434104Y771400D01*
X434101Y771286D01*
X434109Y771258D01*
X434110Y771229D01*
X434144Y771121D01*
X434173Y771011D01*
X434188Y770986D01*
X434197Y770958D01*
X434243Y770894D01*
X434318Y770767D01*
X434364Y770724D01*
X434392Y770685D01*
X435506Y769571D01*
X436608Y766910D01*
X436608Y764029D01*
X435506Y761368D01*
X433470Y759332D01*
X430809Y758230D01*
X427929Y758230D01*
X425268Y759332D01*
X423231Y761368D01*
X422129Y764029D01*
X422129Y766910D01*
X423231Y769571D01*
X424346Y770685D01*
X424363Y770708D01*
X424386Y770727D01*
X424448Y770821D01*
X424516Y770912D01*
X424527Y770939D01*
X424543Y770964D01*
X424577Y771072D01*
X424618Y771178D01*
X424620Y771207D01*
X424629Y771235D01*
X424632Y771348D01*
X424641Y771461D01*
X424635Y771490D01*
X424636Y771519D01*
X424608Y771629D01*
X424585Y771740D01*
X424572Y771766D01*
X424564Y771794D01*
X424507Y771891D01*
X424454Y771992D01*
X424434Y772013D01*
X424419Y772039D01*
X424337Y772116D01*
X424259Y772198D01*
X424233Y772213D01*
X424212Y772233D01*
X424111Y772285D01*
X424013Y772342D01*
X423985Y772349D01*
X423959Y772362D01*
X423881Y772375D01*
X423738Y772412D01*
X423675Y772410D01*
X423628Y772418D01*
X404026Y772418D01*
X403939Y772406D01*
X403852Y772403D01*
X403799Y772386D01*
X403744Y772378D01*
X403664Y772342D01*
X403581Y772315D01*
X403542Y772287D01*
X403485Y772262D01*
X403372Y772166D01*
X403308Y772121D01*
X365473Y734286D01*
X302945Y734286D01*
X302944Y734286D01*
X302942Y734286D01*
X302799Y734265D01*
X302664Y734246D01*
X302662Y734246D01*
X302661Y734245D01*
X302531Y734187D01*
X302404Y734130D01*
X302403Y734129D01*
X302402Y734128D01*
X302296Y734038D01*
X302187Y733946D01*
X302186Y733945D01*
X302185Y733944D01*
X302177Y733931D01*
X302030Y733710D01*
X302021Y733680D01*
X302007Y733659D01*
X301969Y733567D01*
X300476Y732074D01*
X298526Y731266D01*
X296415Y731266D01*
G37*
%LPD*%
%LPC*%
G36*
X296415Y83566D02*
X296415Y83566D01*
X294464Y84374D01*
X292971Y85867D01*
X292163Y87817D01*
X292163Y89928D01*
X292971Y91879D01*
X294464Y93372D01*
X296415Y94180D01*
X298526Y94180D01*
X300476Y93372D01*
X301969Y91879D01*
X302007Y91786D01*
X302008Y91785D01*
X302009Y91783D01*
X302081Y91662D01*
X302152Y91542D01*
X302153Y91540D01*
X302154Y91539D01*
X302259Y91440D01*
X302358Y91346D01*
X302360Y91346D01*
X302361Y91344D01*
X302488Y91279D01*
X302611Y91216D01*
X302613Y91216D01*
X302614Y91215D01*
X302630Y91213D01*
X302890Y91161D01*
X302921Y91164D01*
X302945Y91160D01*
X363158Y91160D01*
X363245Y91172D01*
X363332Y91175D01*
X363385Y91192D01*
X363440Y91199D01*
X363520Y91235D01*
X363603Y91262D01*
X363642Y91290D01*
X363699Y91316D01*
X363813Y91412D01*
X363876Y91457D01*
X401711Y129291D01*
X455358Y129291D01*
X456994Y127655D01*
X468396Y116253D01*
X468488Y116184D01*
X468576Y116110D01*
X468601Y116099D01*
X468623Y116082D01*
X468731Y116041D01*
X468836Y115994D01*
X468863Y115991D01*
X468889Y115981D01*
X469003Y115971D01*
X469117Y115955D01*
X469145Y115959D01*
X469172Y115957D01*
X469285Y115980D01*
X469399Y115996D01*
X469424Y116008D01*
X469451Y116013D01*
X469553Y116066D01*
X469658Y116113D01*
X469679Y116131D01*
X469703Y116144D01*
X469787Y116223D01*
X469874Y116298D01*
X469887Y116319D01*
X469910Y116340D01*
X470044Y116569D01*
X470052Y116582D01*
X470182Y116895D01*
X472218Y118932D01*
X474879Y120034D01*
X477759Y120034D01*
X480420Y118932D01*
X482457Y116895D01*
X483559Y114234D01*
X483559Y111354D01*
X482457Y108693D01*
X480420Y106657D01*
X477759Y105554D01*
X474879Y105554D01*
X472218Y106657D01*
X470182Y108693D01*
X469498Y110343D01*
X469497Y110345D01*
X469497Y110346D01*
X469425Y110467D01*
X469354Y110588D01*
X469353Y110589D01*
X469352Y110591D01*
X469248Y110688D01*
X469147Y110783D01*
X469146Y110784D01*
X469144Y110785D01*
X469019Y110849D01*
X468894Y110914D01*
X468893Y110914D01*
X468891Y110915D01*
X468876Y110917D01*
X468615Y110969D01*
X468585Y110966D01*
X468560Y110970D01*
X467211Y110970D01*
X453760Y124421D01*
X453691Y124473D01*
X453627Y124533D01*
X453577Y124558D01*
X453533Y124592D01*
X453452Y124623D01*
X453374Y124662D01*
X453326Y124670D01*
X453268Y124693D01*
X453120Y124705D01*
X453043Y124718D01*
X435110Y124718D01*
X435081Y124714D01*
X435052Y124716D01*
X434940Y124694D01*
X434828Y124678D01*
X434802Y124666D01*
X434773Y124660D01*
X434672Y124608D01*
X434569Y124562D01*
X434547Y124543D01*
X434520Y124529D01*
X434438Y124451D01*
X434352Y124378D01*
X434336Y124354D01*
X434314Y124334D01*
X434257Y124236D01*
X434194Y124142D01*
X434185Y124114D01*
X434171Y124088D01*
X434143Y123979D01*
X434109Y123871D01*
X434108Y123841D01*
X434101Y123813D01*
X434104Y123700D01*
X434101Y123586D01*
X434109Y123558D01*
X434110Y123529D01*
X434144Y123421D01*
X434173Y123311D01*
X434188Y123286D01*
X434197Y123258D01*
X434243Y123194D01*
X434318Y123067D01*
X434364Y123024D01*
X434392Y122985D01*
X435506Y121871D01*
X436608Y119210D01*
X436608Y116329D01*
X435506Y113668D01*
X433470Y111632D01*
X430809Y110530D01*
X427929Y110530D01*
X425268Y111632D01*
X423231Y113668D01*
X422129Y116329D01*
X422129Y119210D01*
X423231Y121871D01*
X424346Y122985D01*
X424363Y123008D01*
X424386Y123027D01*
X424448Y123121D01*
X424516Y123212D01*
X424527Y123239D01*
X424543Y123264D01*
X424577Y123372D01*
X424618Y123478D01*
X424620Y123507D01*
X424629Y123535D01*
X424632Y123648D01*
X424641Y123761D01*
X424635Y123790D01*
X424636Y123819D01*
X424608Y123929D01*
X424585Y124040D01*
X424572Y124066D01*
X424564Y124094D01*
X424507Y124191D01*
X424454Y124292D01*
X424434Y124313D01*
X424419Y124339D01*
X424337Y124416D01*
X424259Y124498D01*
X424233Y124513D01*
X424212Y124533D01*
X424111Y124585D01*
X424013Y124642D01*
X423985Y124649D01*
X423959Y124662D01*
X423881Y124675D01*
X423738Y124712D01*
X423675Y124710D01*
X423628Y124718D01*
X404026Y124718D01*
X403939Y124706D01*
X403852Y124703D01*
X403799Y124686D01*
X403744Y124678D01*
X403664Y124642D01*
X403581Y124615D01*
X403542Y124587D01*
X403485Y124562D01*
X403372Y124466D01*
X403308Y124421D01*
X365473Y86586D01*
X302945Y86586D01*
X302944Y86586D01*
X302942Y86586D01*
X302799Y86565D01*
X302664Y86546D01*
X302662Y86546D01*
X302661Y86545D01*
X302531Y86487D01*
X302404Y86430D01*
X302403Y86429D01*
X302402Y86428D01*
X302296Y86338D01*
X302187Y86246D01*
X302186Y86245D01*
X302185Y86244D01*
X302177Y86231D01*
X302030Y86010D01*
X302021Y85980D01*
X302007Y85959D01*
X301969Y85867D01*
X300476Y84374D01*
X298526Y83566D01*
X296415Y83566D01*
G37*
%LPD*%
%LPC*%
G36*
X728935Y109247D02*
X728935Y109247D01*
X728927Y109305D01*
X728928Y109364D01*
X728907Y109445D01*
X728895Y109529D01*
X728871Y109582D01*
X728857Y109639D01*
X728814Y109711D01*
X728779Y109788D01*
X728741Y109833D01*
X728711Y109883D01*
X728650Y109941D01*
X728595Y110005D01*
X728547Y110038D01*
X728504Y110078D01*
X728429Y110116D01*
X728359Y110163D01*
X728303Y110180D01*
X728251Y110207D01*
X728183Y110218D01*
X728088Y110248D01*
X727988Y110251D01*
X727920Y110262D01*
X726903Y110262D01*
X726903Y110264D01*
X727920Y110264D01*
X727978Y110272D01*
X728036Y110271D01*
X728118Y110292D01*
X728201Y110304D01*
X728255Y110328D01*
X728311Y110343D01*
X728384Y110386D01*
X728461Y110420D01*
X728505Y110458D01*
X728556Y110488D01*
X728613Y110550D01*
X728678Y110604D01*
X728710Y110653D01*
X728750Y110695D01*
X728789Y110770D01*
X728835Y110841D01*
X728853Y110896D01*
X728880Y110948D01*
X728891Y111016D01*
X728921Y111112D01*
X728924Y111211D01*
X728935Y111279D01*
X728935Y132194D01*
X729789Y132059D01*
X731633Y131459D01*
X733361Y130579D01*
X734930Y129439D01*
X736301Y128068D01*
X737441Y126499D01*
X738321Y124772D01*
X738920Y122927D01*
X739005Y122390D01*
X739007Y122384D01*
X739007Y122378D01*
X739049Y122248D01*
X739089Y122118D01*
X739092Y122113D01*
X739094Y122107D01*
X739170Y121994D01*
X739244Y121880D01*
X739249Y121876D01*
X739252Y121871D01*
X739357Y121783D01*
X739460Y121695D01*
X739465Y121692D01*
X739470Y121688D01*
X739594Y121633D01*
X739718Y121576D01*
X739724Y121575D01*
X739730Y121572D01*
X739864Y121554D01*
X739999Y121534D01*
X740005Y121534D01*
X740011Y121534D01*
X740146Y121553D01*
X740281Y121571D01*
X740287Y121573D01*
X740293Y121574D01*
X740416Y121630D01*
X740541Y121685D01*
X740546Y121689D01*
X740552Y121691D01*
X740655Y121780D01*
X740760Y121866D01*
X740763Y121872D01*
X740768Y121876D01*
X740791Y121913D01*
X740920Y122102D01*
X740931Y122136D01*
X740946Y122160D01*
X742721Y126445D01*
X745901Y129625D01*
X750055Y131346D01*
X754552Y131346D01*
X758707Y129625D01*
X761887Y126445D01*
X763608Y122291D01*
X763608Y98236D01*
X761887Y94081D01*
X758707Y90902D01*
X754552Y89181D01*
X750055Y89181D01*
X745901Y90902D01*
X742721Y94081D01*
X740946Y98366D01*
X740943Y98372D01*
X740941Y98378D01*
X740871Y98494D01*
X740802Y98611D01*
X740797Y98616D01*
X740794Y98621D01*
X740694Y98713D01*
X740595Y98806D01*
X740589Y98809D01*
X740585Y98813D01*
X740463Y98874D01*
X740342Y98937D01*
X740336Y98938D01*
X740331Y98941D01*
X740197Y98965D01*
X740063Y98992D01*
X740057Y98991D01*
X740051Y98992D01*
X739915Y98979D01*
X739780Y98967D01*
X739774Y98965D01*
X739768Y98964D01*
X739642Y98914D01*
X739515Y98865D01*
X739510Y98861D01*
X739504Y98859D01*
X739396Y98775D01*
X739288Y98694D01*
X739284Y98689D01*
X739279Y98685D01*
X739199Y98575D01*
X739118Y98466D01*
X739116Y98460D01*
X739112Y98455D01*
X739098Y98414D01*
X739017Y98200D01*
X739015Y98164D01*
X739005Y98137D01*
X738920Y97600D01*
X738321Y95755D01*
X737441Y94027D01*
X736301Y92458D01*
X734930Y91087D01*
X733361Y89948D01*
X731633Y89067D01*
X729789Y88468D01*
X728935Y88333D01*
X728935Y109247D01*
G37*
%LPD*%
%LPC*%
G36*
X85536Y734992D02*
X85536Y734992D01*
X81381Y736713D01*
X78202Y739893D01*
X76481Y744048D01*
X76481Y748545D01*
X78202Y752699D01*
X81381Y755879D01*
X85666Y757654D01*
X85672Y757657D01*
X85678Y757659D01*
X85794Y757729D01*
X85911Y757798D01*
X85916Y757803D01*
X85921Y757806D01*
X86013Y757906D01*
X86106Y758005D01*
X86109Y758011D01*
X86113Y758015D01*
X86174Y758137D01*
X86237Y758258D01*
X86238Y758264D01*
X86241Y758269D01*
X86265Y758403D01*
X86292Y758537D01*
X86291Y758543D01*
X86292Y758549D01*
X86279Y758685D01*
X86267Y758820D01*
X86265Y758826D01*
X86264Y758832D01*
X86214Y758958D01*
X86165Y759085D01*
X86161Y759090D01*
X86159Y759096D01*
X86076Y759204D01*
X85994Y759312D01*
X85989Y759316D01*
X85985Y759321D01*
X85875Y759401D01*
X85766Y759482D01*
X85760Y759484D01*
X85755Y759488D01*
X85714Y759502D01*
X85500Y759583D01*
X85464Y759585D01*
X85437Y759595D01*
X84900Y759680D01*
X83055Y760279D01*
X81327Y761159D01*
X79758Y762299D01*
X78387Y763670D01*
X77248Y765239D01*
X76367Y766967D01*
X75768Y768811D01*
X75633Y769665D01*
X96547Y769665D01*
X96605Y769673D01*
X96664Y769672D01*
X96745Y769693D01*
X96829Y769705D01*
X96882Y769729D01*
X96939Y769743D01*
X97011Y769786D01*
X97088Y769821D01*
X97133Y769859D01*
X97183Y769889D01*
X97241Y769950D01*
X97305Y770005D01*
X97338Y770053D01*
X97378Y770096D01*
X97416Y770171D01*
X97463Y770241D01*
X97480Y770297D01*
X97507Y770349D01*
X97518Y770417D01*
X97548Y770512D01*
X97551Y770612D01*
X97562Y770680D01*
X97562Y771697D01*
X97564Y771697D01*
X97564Y770680D01*
X97572Y770622D01*
X97571Y770564D01*
X97592Y770482D01*
X97604Y770399D01*
X97628Y770345D01*
X97643Y770289D01*
X97686Y770216D01*
X97720Y770139D01*
X97758Y770095D01*
X97788Y770044D01*
X97850Y769987D01*
X97904Y769922D01*
X97953Y769890D01*
X97995Y769850D01*
X98070Y769811D01*
X98141Y769765D01*
X98196Y769747D01*
X98248Y769720D01*
X98316Y769709D01*
X98412Y769679D01*
X98511Y769676D01*
X98579Y769665D01*
X119494Y769665D01*
X119359Y768811D01*
X118759Y766967D01*
X117879Y765239D01*
X116739Y763670D01*
X115368Y762299D01*
X113799Y761159D01*
X112072Y760279D01*
X110227Y759680D01*
X109690Y759595D01*
X109684Y759593D01*
X109678Y759593D01*
X109548Y759551D01*
X109418Y759511D01*
X109413Y759508D01*
X109407Y759506D01*
X109294Y759430D01*
X109180Y759356D01*
X109176Y759351D01*
X109171Y759348D01*
X109083Y759243D01*
X108995Y759140D01*
X108992Y759135D01*
X108988Y759130D01*
X108933Y759006D01*
X108876Y758882D01*
X108875Y758876D01*
X108872Y758870D01*
X108854Y758736D01*
X108834Y758601D01*
X108834Y758595D01*
X108834Y758589D01*
X108853Y758454D01*
X108871Y758319D01*
X108873Y758313D01*
X108874Y758307D01*
X108930Y758184D01*
X108985Y758059D01*
X108989Y758054D01*
X108991Y758048D01*
X109080Y757945D01*
X109166Y757840D01*
X109172Y757837D01*
X109176Y757832D01*
X109213Y757809D01*
X109402Y757680D01*
X109436Y757669D01*
X109460Y757654D01*
X113745Y755879D01*
X116925Y752699D01*
X118646Y748545D01*
X118646Y744048D01*
X116925Y739893D01*
X113745Y736713D01*
X109591Y734992D01*
X85536Y734992D01*
G37*
%LPD*%
%LPC*%
G36*
X85536Y519092D02*
X85536Y519092D01*
X81381Y520813D01*
X78202Y523993D01*
X76481Y528148D01*
X76481Y532645D01*
X78202Y536799D01*
X81381Y539979D01*
X85666Y541754D01*
X85672Y541757D01*
X85678Y541759D01*
X85794Y541829D01*
X85911Y541898D01*
X85916Y541903D01*
X85921Y541906D01*
X86013Y542006D01*
X86106Y542105D01*
X86109Y542111D01*
X86113Y542115D01*
X86174Y542237D01*
X86237Y542358D01*
X86238Y542364D01*
X86241Y542369D01*
X86265Y542503D01*
X86292Y542637D01*
X86291Y542643D01*
X86292Y542649D01*
X86279Y542785D01*
X86267Y542920D01*
X86265Y542926D01*
X86264Y542932D01*
X86214Y543058D01*
X86165Y543185D01*
X86161Y543190D01*
X86159Y543196D01*
X86076Y543304D01*
X85994Y543412D01*
X85989Y543416D01*
X85985Y543421D01*
X85875Y543501D01*
X85766Y543582D01*
X85760Y543584D01*
X85755Y543588D01*
X85714Y543602D01*
X85500Y543683D01*
X85464Y543685D01*
X85437Y543695D01*
X84900Y543780D01*
X83055Y544379D01*
X81327Y545259D01*
X79758Y546399D01*
X78387Y547770D01*
X77248Y549339D01*
X76367Y551067D01*
X75768Y552911D01*
X75633Y553765D01*
X96547Y553765D01*
X96605Y553773D01*
X96664Y553772D01*
X96745Y553793D01*
X96829Y553805D01*
X96882Y553829D01*
X96939Y553843D01*
X97011Y553886D01*
X97088Y553921D01*
X97133Y553959D01*
X97183Y553989D01*
X97241Y554050D01*
X97305Y554105D01*
X97338Y554153D01*
X97378Y554196D01*
X97416Y554271D01*
X97463Y554341D01*
X97480Y554397D01*
X97507Y554449D01*
X97518Y554517D01*
X97548Y554612D01*
X97551Y554712D01*
X97562Y554780D01*
X97562Y555797D01*
X97564Y555797D01*
X97564Y554780D01*
X97572Y554722D01*
X97571Y554664D01*
X97592Y554582D01*
X97604Y554499D01*
X97628Y554445D01*
X97643Y554389D01*
X97686Y554316D01*
X97720Y554239D01*
X97758Y554195D01*
X97788Y554144D01*
X97850Y554087D01*
X97904Y554022D01*
X97953Y553990D01*
X97995Y553950D01*
X98070Y553911D01*
X98141Y553865D01*
X98196Y553847D01*
X98248Y553820D01*
X98316Y553809D01*
X98412Y553779D01*
X98511Y553776D01*
X98579Y553765D01*
X119494Y553765D01*
X119359Y552911D01*
X118759Y551067D01*
X117879Y549339D01*
X116739Y547770D01*
X115368Y546399D01*
X113799Y545259D01*
X112072Y544379D01*
X110227Y543780D01*
X109690Y543695D01*
X109684Y543693D01*
X109678Y543693D01*
X109548Y543651D01*
X109418Y543611D01*
X109413Y543608D01*
X109407Y543606D01*
X109294Y543530D01*
X109180Y543456D01*
X109176Y543451D01*
X109171Y543448D01*
X109083Y543343D01*
X108995Y543240D01*
X108992Y543235D01*
X108988Y543230D01*
X108933Y543106D01*
X108876Y542982D01*
X108875Y542976D01*
X108872Y542970D01*
X108854Y542836D01*
X108834Y542701D01*
X108834Y542695D01*
X108834Y542689D01*
X108853Y542554D01*
X108871Y542419D01*
X108873Y542413D01*
X108874Y542407D01*
X108930Y542284D01*
X108985Y542159D01*
X108989Y542154D01*
X108991Y542148D01*
X109080Y542045D01*
X109166Y541940D01*
X109172Y541937D01*
X109176Y541932D01*
X109213Y541909D01*
X109402Y541780D01*
X109436Y541769D01*
X109460Y541754D01*
X113745Y539979D01*
X116925Y536799D01*
X118646Y532645D01*
X118646Y528148D01*
X116925Y523993D01*
X113745Y520813D01*
X109591Y519092D01*
X85536Y519092D01*
G37*
%LPD*%
%LPC*%
G36*
X85536Y87292D02*
X85536Y87292D01*
X81381Y89013D01*
X78202Y92193D01*
X76481Y96348D01*
X76481Y100845D01*
X78202Y104999D01*
X81381Y108179D01*
X85666Y109954D01*
X85672Y109957D01*
X85678Y109959D01*
X85794Y110029D01*
X85911Y110098D01*
X85916Y110103D01*
X85921Y110106D01*
X86013Y110206D01*
X86106Y110305D01*
X86109Y110311D01*
X86113Y110315D01*
X86174Y110437D01*
X86237Y110558D01*
X86238Y110564D01*
X86241Y110569D01*
X86265Y110703D01*
X86292Y110837D01*
X86291Y110843D01*
X86292Y110849D01*
X86279Y110985D01*
X86267Y111120D01*
X86265Y111126D01*
X86264Y111132D01*
X86214Y111258D01*
X86165Y111385D01*
X86161Y111390D01*
X86159Y111396D01*
X86076Y111504D01*
X85994Y111612D01*
X85989Y111616D01*
X85985Y111621D01*
X85875Y111701D01*
X85766Y111782D01*
X85760Y111784D01*
X85755Y111788D01*
X85714Y111802D01*
X85500Y111883D01*
X85464Y111885D01*
X85437Y111895D01*
X84900Y111980D01*
X83055Y112579D01*
X81327Y113459D01*
X79758Y114599D01*
X78387Y115970D01*
X77248Y117539D01*
X76367Y119267D01*
X75768Y121111D01*
X75633Y121965D01*
X96547Y121965D01*
X96605Y121973D01*
X96664Y121972D01*
X96745Y121993D01*
X96829Y122005D01*
X96882Y122029D01*
X96939Y122043D01*
X97011Y122086D01*
X97088Y122121D01*
X97133Y122159D01*
X97183Y122189D01*
X97241Y122250D01*
X97305Y122305D01*
X97338Y122353D01*
X97378Y122396D01*
X97416Y122471D01*
X97463Y122541D01*
X97480Y122597D01*
X97507Y122649D01*
X97518Y122717D01*
X97548Y122812D01*
X97551Y122912D01*
X97562Y122980D01*
X97562Y123997D01*
X97564Y123997D01*
X97564Y122980D01*
X97572Y122922D01*
X97571Y122864D01*
X97592Y122782D01*
X97604Y122699D01*
X97628Y122645D01*
X97643Y122589D01*
X97686Y122516D01*
X97720Y122439D01*
X97758Y122395D01*
X97788Y122344D01*
X97850Y122287D01*
X97904Y122222D01*
X97953Y122190D01*
X97995Y122150D01*
X98070Y122111D01*
X98141Y122065D01*
X98196Y122047D01*
X98248Y122020D01*
X98316Y122009D01*
X98412Y121979D01*
X98511Y121976D01*
X98579Y121965D01*
X119494Y121965D01*
X119359Y121111D01*
X118759Y119267D01*
X117879Y117539D01*
X116739Y115970D01*
X115368Y114599D01*
X113799Y113459D01*
X112072Y112579D01*
X110227Y111980D01*
X109690Y111895D01*
X109684Y111893D01*
X109678Y111893D01*
X109548Y111851D01*
X109418Y111811D01*
X109413Y111808D01*
X109407Y111806D01*
X109294Y111730D01*
X109180Y111656D01*
X109176Y111651D01*
X109171Y111648D01*
X109083Y111543D01*
X108995Y111440D01*
X108992Y111435D01*
X108988Y111430D01*
X108933Y111306D01*
X108876Y111182D01*
X108875Y111176D01*
X108872Y111170D01*
X108854Y111036D01*
X108834Y110901D01*
X108834Y110895D01*
X108834Y110889D01*
X108853Y110754D01*
X108871Y110619D01*
X108873Y110613D01*
X108874Y110607D01*
X108930Y110484D01*
X108985Y110359D01*
X108989Y110354D01*
X108991Y110348D01*
X109080Y110245D01*
X109166Y110140D01*
X109172Y110137D01*
X109176Y110132D01*
X109213Y110109D01*
X109402Y109980D01*
X109436Y109969D01*
X109460Y109954D01*
X113745Y108179D01*
X116925Y104999D01*
X118646Y100845D01*
X118646Y96348D01*
X116925Y92193D01*
X113745Y89013D01*
X109591Y87292D01*
X85536Y87292D01*
G37*
%LPD*%
%LPC*%
G36*
X85536Y303192D02*
X85536Y303192D01*
X81381Y304913D01*
X78202Y308093D01*
X76481Y312248D01*
X76481Y316745D01*
X78202Y320899D01*
X81381Y324079D01*
X85666Y325854D01*
X85672Y325857D01*
X85678Y325859D01*
X85795Y325930D01*
X85911Y325998D01*
X85916Y326003D01*
X85921Y326006D01*
X86013Y326106D01*
X86106Y326205D01*
X86109Y326211D01*
X86114Y326215D01*
X86174Y326337D01*
X86237Y326458D01*
X86238Y326464D01*
X86241Y326469D01*
X86265Y326603D01*
X86292Y326737D01*
X86291Y326743D01*
X86292Y326749D01*
X86279Y326885D01*
X86267Y327020D01*
X86265Y327026D01*
X86264Y327032D01*
X86214Y327158D01*
X86165Y327285D01*
X86161Y327290D01*
X86159Y327296D01*
X86076Y327403D01*
X85994Y327512D01*
X85989Y327516D01*
X85985Y327521D01*
X85875Y327600D01*
X85766Y327682D01*
X85760Y327684D01*
X85755Y327688D01*
X85714Y327702D01*
X85500Y327783D01*
X85464Y327785D01*
X85437Y327795D01*
X84900Y327880D01*
X83055Y328479D01*
X81327Y329359D01*
X79758Y330499D01*
X78387Y331870D01*
X77248Y333439D01*
X76367Y335167D01*
X75768Y337011D01*
X75633Y337865D01*
X96547Y337865D01*
X96605Y337873D01*
X96664Y337872D01*
X96745Y337893D01*
X96829Y337905D01*
X96882Y337929D01*
X96939Y337943D01*
X97011Y337986D01*
X97088Y338021D01*
X97133Y338059D01*
X97183Y338089D01*
X97241Y338150D01*
X97305Y338205D01*
X97338Y338253D01*
X97378Y338296D01*
X97416Y338371D01*
X97463Y338441D01*
X97480Y338497D01*
X97507Y338549D01*
X97518Y338617D01*
X97548Y338712D01*
X97551Y338812D01*
X97562Y338880D01*
X97562Y339897D01*
X97564Y339897D01*
X97564Y338880D01*
X97572Y338822D01*
X97571Y338764D01*
X97592Y338682D01*
X97604Y338599D01*
X97628Y338545D01*
X97643Y338489D01*
X97686Y338416D01*
X97720Y338339D01*
X97758Y338295D01*
X97788Y338244D01*
X97850Y338187D01*
X97904Y338122D01*
X97953Y338090D01*
X97995Y338050D01*
X98070Y338011D01*
X98141Y337965D01*
X98196Y337947D01*
X98248Y337920D01*
X98316Y337909D01*
X98412Y337879D01*
X98511Y337876D01*
X98579Y337865D01*
X119494Y337865D01*
X119359Y337011D01*
X118759Y335167D01*
X117879Y333439D01*
X116739Y331870D01*
X115368Y330499D01*
X113799Y329359D01*
X112072Y328479D01*
X110227Y327880D01*
X109690Y327795D01*
X109684Y327793D01*
X109678Y327793D01*
X109548Y327751D01*
X109418Y327711D01*
X109413Y327708D01*
X109407Y327706D01*
X109293Y327630D01*
X109180Y327556D01*
X109176Y327551D01*
X109171Y327548D01*
X109083Y327443D01*
X108994Y327340D01*
X108992Y327335D01*
X108988Y327330D01*
X108933Y327206D01*
X108876Y327082D01*
X108875Y327076D01*
X108872Y327070D01*
X108854Y326936D01*
X108834Y326801D01*
X108834Y326795D01*
X108833Y326789D01*
X108853Y326654D01*
X108871Y326519D01*
X108873Y326513D01*
X108874Y326507D01*
X108930Y326383D01*
X108985Y326259D01*
X108989Y326254D01*
X108991Y326248D01*
X109080Y326145D01*
X109166Y326040D01*
X109172Y326037D01*
X109176Y326032D01*
X109213Y326009D01*
X109402Y325880D01*
X109436Y325869D01*
X109460Y325854D01*
X113745Y324079D01*
X116925Y320899D01*
X118646Y316745D01*
X118646Y312248D01*
X116925Y308093D01*
X113745Y304913D01*
X109591Y303192D01*
X85536Y303192D01*
G37*
%LPD*%
%LPC*%
G36*
X369915Y387731D02*
X369915Y387731D01*
X365760Y389452D01*
X362581Y392632D01*
X360860Y396787D01*
X360860Y420842D01*
X362581Y424996D01*
X365760Y428176D01*
X369915Y429897D01*
X374412Y429897D01*
X378566Y428176D01*
X381746Y424996D01*
X383467Y420842D01*
X383467Y396787D01*
X381746Y392632D01*
X378566Y389452D01*
X374412Y387731D01*
X369915Y387731D01*
G37*
%LPD*%
%LPC*%
G36*
X575536Y760392D02*
X575536Y760392D01*
X571381Y762113D01*
X568202Y765293D01*
X566481Y769448D01*
X566481Y773945D01*
X568202Y778099D01*
X571381Y781279D01*
X575536Y783000D01*
X599591Y783000D01*
X603745Y781279D01*
X606925Y778099D01*
X608646Y773945D01*
X608646Y769448D01*
X606925Y765293D01*
X603745Y762113D01*
X599591Y760392D01*
X575536Y760392D01*
G37*
%LPD*%
%LPC*%
G36*
X395315Y171831D02*
X395315Y171831D01*
X391160Y173552D01*
X387981Y176732D01*
X386260Y180887D01*
X386260Y204942D01*
X387981Y209096D01*
X391160Y212276D01*
X395315Y213997D01*
X399812Y213997D01*
X403966Y212276D01*
X407146Y209096D01*
X408867Y204942D01*
X408867Y180887D01*
X407146Y176732D01*
X403966Y173552D01*
X399812Y171831D01*
X395315Y171831D01*
G37*
%LPD*%
%LPC*%
G36*
X369915Y171831D02*
X369915Y171831D01*
X365760Y173552D01*
X362581Y176732D01*
X360860Y180887D01*
X360860Y204942D01*
X362581Y209096D01*
X365760Y212276D01*
X369915Y213997D01*
X374412Y213997D01*
X378566Y212276D01*
X381746Y209096D01*
X383467Y204942D01*
X383467Y180887D01*
X381746Y176732D01*
X378566Y173552D01*
X374412Y171831D01*
X369915Y171831D01*
G37*
%LPD*%
%LPC*%
G36*
X344515Y171831D02*
X344515Y171831D01*
X340360Y173552D01*
X337181Y176732D01*
X335460Y180887D01*
X335460Y204942D01*
X337181Y209096D01*
X340360Y212276D01*
X344515Y213997D01*
X349012Y213997D01*
X353166Y212276D01*
X356346Y209096D01*
X358067Y204942D01*
X358067Y180887D01*
X356346Y176732D01*
X353166Y173552D01*
X349012Y171831D01*
X344515Y171831D01*
G37*
%LPD*%
%LPC*%
G36*
X85536Y277792D02*
X85536Y277792D01*
X81381Y279513D01*
X78202Y282693D01*
X76481Y286848D01*
X76481Y291345D01*
X78202Y295499D01*
X81381Y298679D01*
X85536Y300400D01*
X109591Y300400D01*
X113745Y298679D01*
X116925Y295499D01*
X118646Y291345D01*
X118646Y286848D01*
X116925Y282693D01*
X113745Y279513D01*
X109591Y277792D01*
X85536Y277792D01*
G37*
%LPD*%
%LPC*%
G36*
X575536Y734992D02*
X575536Y734992D01*
X571381Y736713D01*
X568202Y739893D01*
X566481Y744048D01*
X566481Y748545D01*
X568202Y752699D01*
X571381Y755879D01*
X575536Y757600D01*
X599591Y757600D01*
X603745Y755879D01*
X606925Y752699D01*
X608646Y748545D01*
X608646Y744048D01*
X606925Y739893D01*
X603745Y736713D01*
X599591Y734992D01*
X575536Y734992D01*
G37*
%LPD*%
%LPC*%
G36*
X575536Y277792D02*
X575536Y277792D01*
X571381Y279513D01*
X568202Y282693D01*
X566481Y286848D01*
X566481Y291345D01*
X568202Y295499D01*
X571381Y298679D01*
X575536Y300400D01*
X599591Y300400D01*
X603745Y298679D01*
X606925Y295499D01*
X608646Y291345D01*
X608646Y286848D01*
X606925Y282693D01*
X603745Y279513D01*
X599591Y277792D01*
X575536Y277792D01*
G37*
%LPD*%
%LPC*%
G36*
X575536Y303192D02*
X575536Y303192D01*
X571381Y304913D01*
X568202Y308093D01*
X566481Y312248D01*
X566481Y316745D01*
X568202Y320899D01*
X571381Y324079D01*
X575536Y325800D01*
X599591Y325800D01*
X603745Y324079D01*
X606925Y320899D01*
X608646Y316745D01*
X608646Y312248D01*
X606925Y308093D01*
X603745Y304913D01*
X599591Y303192D01*
X575536Y303192D01*
G37*
%LPD*%
%LPC*%
G36*
X575536Y709592D02*
X575536Y709592D01*
X571381Y711313D01*
X568202Y714493D01*
X566481Y718648D01*
X566481Y723145D01*
X568202Y727299D01*
X571381Y730479D01*
X575536Y732200D01*
X599591Y732200D01*
X603745Y730479D01*
X606925Y727299D01*
X608646Y723145D01*
X608646Y718648D01*
X606925Y714493D01*
X603745Y711313D01*
X599591Y709592D01*
X575536Y709592D01*
G37*
%LPD*%
%LPC*%
G36*
X85536Y709592D02*
X85536Y709592D01*
X81381Y711313D01*
X78202Y714493D01*
X76481Y718648D01*
X76481Y723145D01*
X78202Y727299D01*
X81381Y730479D01*
X85536Y732200D01*
X109591Y732200D01*
X113745Y730479D01*
X116925Y727299D01*
X118646Y723145D01*
X118646Y718648D01*
X116925Y714493D01*
X113745Y711313D01*
X109591Y709592D01*
X85536Y709592D01*
G37*
%LPD*%
%LPC*%
G36*
X575536Y112692D02*
X575536Y112692D01*
X571381Y114413D01*
X568202Y117593D01*
X566481Y121748D01*
X566481Y126245D01*
X568202Y130399D01*
X571381Y133579D01*
X575536Y135300D01*
X599591Y135300D01*
X603745Y133579D01*
X606925Y130399D01*
X608646Y126245D01*
X608646Y121748D01*
X606925Y117593D01*
X603745Y114413D01*
X599591Y112692D01*
X575536Y112692D01*
G37*
%LPD*%
%LPC*%
G36*
X395315Y819531D02*
X395315Y819531D01*
X391160Y821252D01*
X387981Y824432D01*
X386260Y828587D01*
X386260Y852642D01*
X387981Y856796D01*
X391160Y859976D01*
X395315Y861697D01*
X399812Y861697D01*
X403966Y859976D01*
X407146Y856796D01*
X408867Y852642D01*
X408867Y828587D01*
X407146Y824432D01*
X403966Y821252D01*
X399812Y819531D01*
X395315Y819531D01*
G37*
%LPD*%
%LPC*%
G36*
X775455Y89181D02*
X775455Y89181D01*
X771301Y90902D01*
X768121Y94081D01*
X766400Y98236D01*
X766400Y122291D01*
X768121Y126445D01*
X771301Y129625D01*
X775455Y131346D01*
X779952Y131346D01*
X784107Y129625D01*
X787287Y126445D01*
X789008Y122291D01*
X789008Y98236D01*
X787287Y94081D01*
X784107Y90902D01*
X779952Y89181D01*
X775455Y89181D01*
G37*
%LPD*%
%LPC*%
G36*
X575536Y328592D02*
X575536Y328592D01*
X571381Y330313D01*
X568202Y333493D01*
X566481Y337648D01*
X566481Y342145D01*
X568202Y346299D01*
X571381Y349479D01*
X575536Y351200D01*
X599591Y351200D01*
X603745Y349479D01*
X606925Y346299D01*
X608646Y342145D01*
X608646Y337648D01*
X606925Y333493D01*
X603745Y330313D01*
X599591Y328592D01*
X575536Y328592D01*
G37*
%LPD*%
%LPC*%
G36*
X645958Y348160D02*
X645958Y348160D01*
X641804Y349881D01*
X638624Y353060D01*
X636903Y357215D01*
X636903Y361712D01*
X638624Y365866D01*
X641804Y369046D01*
X645958Y370767D01*
X670013Y370767D01*
X674168Y369046D01*
X677348Y365866D01*
X679069Y361712D01*
X679069Y357215D01*
X677348Y353060D01*
X674168Y349881D01*
X670013Y348160D01*
X645958Y348160D01*
G37*
%LPD*%
%LPC*%
G36*
X645958Y373560D02*
X645958Y373560D01*
X641804Y375281D01*
X638624Y378460D01*
X636903Y382615D01*
X636903Y387112D01*
X638624Y391266D01*
X641804Y394446D01*
X645958Y396167D01*
X670013Y396167D01*
X674168Y394446D01*
X677348Y391266D01*
X679069Y387112D01*
X679069Y382615D01*
X677348Y378460D01*
X674168Y375281D01*
X670013Y373560D01*
X645958Y373560D01*
G37*
%LPD*%
%LPC*%
G36*
X369915Y819531D02*
X369915Y819531D01*
X365760Y821252D01*
X362581Y824432D01*
X360860Y828587D01*
X360860Y852642D01*
X362581Y856796D01*
X365760Y859976D01*
X369915Y861697D01*
X374412Y861697D01*
X378566Y859976D01*
X381746Y856796D01*
X383467Y852642D01*
X383467Y828587D01*
X381746Y824432D01*
X378566Y821252D01*
X374412Y819531D01*
X369915Y819531D01*
G37*
%LPD*%
%LPC*%
G36*
X344515Y819531D02*
X344515Y819531D01*
X340360Y821252D01*
X337181Y824432D01*
X335460Y828587D01*
X335460Y852642D01*
X337181Y856796D01*
X340360Y859976D01*
X344515Y861697D01*
X349012Y861697D01*
X353166Y859976D01*
X356346Y856796D01*
X358067Y852642D01*
X358067Y828587D01*
X356346Y824432D01*
X353166Y821252D01*
X349012Y819531D01*
X344515Y819531D01*
G37*
%LPD*%
%LPC*%
G36*
X645958Y398960D02*
X645958Y398960D01*
X641804Y400681D01*
X638624Y403860D01*
X636903Y408015D01*
X636903Y412512D01*
X638624Y416666D01*
X641804Y419846D01*
X645958Y421567D01*
X670013Y421567D01*
X674168Y419846D01*
X677348Y416666D01*
X679069Y412512D01*
X679069Y408015D01*
X677348Y403860D01*
X674168Y400681D01*
X670013Y398960D01*
X645958Y398960D01*
G37*
%LPD*%
%LPC*%
G36*
X395315Y387731D02*
X395315Y387731D01*
X391160Y389452D01*
X387981Y392632D01*
X386260Y396787D01*
X386260Y420842D01*
X387981Y424996D01*
X391160Y428176D01*
X395315Y429897D01*
X399812Y429897D01*
X403966Y428176D01*
X407146Y424996D01*
X408867Y420842D01*
X408867Y396787D01*
X407146Y392632D01*
X403966Y389452D01*
X399812Y387731D01*
X395315Y387731D01*
G37*
%LPD*%
%LPC*%
G36*
X344515Y387731D02*
X344515Y387731D01*
X340360Y389452D01*
X337181Y392632D01*
X335460Y396787D01*
X335460Y420842D01*
X337181Y424996D01*
X340360Y428176D01*
X344515Y429897D01*
X349012Y429897D01*
X353166Y428176D01*
X356346Y424996D01*
X358067Y420842D01*
X358067Y396787D01*
X356346Y392632D01*
X353166Y389452D01*
X349012Y387731D01*
X344515Y387731D01*
G37*
%LPD*%
%LPC*%
G36*
X575536Y544492D02*
X575536Y544492D01*
X571381Y546213D01*
X568202Y549393D01*
X566481Y553548D01*
X566481Y558045D01*
X568202Y562199D01*
X571381Y565379D01*
X575536Y567100D01*
X599591Y567100D01*
X603745Y565379D01*
X606925Y562199D01*
X608646Y558045D01*
X608646Y553548D01*
X606925Y549393D01*
X603745Y546213D01*
X599591Y544492D01*
X575536Y544492D01*
G37*
%LPD*%
%LPC*%
G36*
X575536Y87292D02*
X575536Y87292D01*
X571381Y89013D01*
X568202Y92193D01*
X566481Y96348D01*
X566481Y100845D01*
X568202Y104999D01*
X571381Y108179D01*
X575536Y109900D01*
X599591Y109900D01*
X603745Y108179D01*
X606925Y104999D01*
X608646Y100845D01*
X608646Y96348D01*
X606925Y92193D01*
X603745Y89013D01*
X599591Y87292D01*
X575536Y87292D01*
G37*
%LPD*%
%LPC*%
G36*
X395315Y603631D02*
X395315Y603631D01*
X391160Y605352D01*
X387981Y608532D01*
X386260Y612687D01*
X386260Y636742D01*
X387981Y640896D01*
X391160Y644076D01*
X395315Y645797D01*
X399812Y645797D01*
X403966Y644076D01*
X407146Y640896D01*
X408867Y636742D01*
X408867Y612687D01*
X407146Y608532D01*
X403966Y605352D01*
X399812Y603631D01*
X395315Y603631D01*
G37*
%LPD*%
%LPC*%
G36*
X369915Y603631D02*
X369915Y603631D01*
X365760Y605352D01*
X362581Y608532D01*
X360860Y612687D01*
X360860Y636742D01*
X362581Y640896D01*
X365760Y644076D01*
X369915Y645797D01*
X374412Y645797D01*
X378566Y644076D01*
X381746Y640896D01*
X383467Y636742D01*
X383467Y612687D01*
X381746Y608532D01*
X378566Y605352D01*
X374412Y603631D01*
X369915Y603631D01*
G37*
%LPD*%
%LPC*%
G36*
X344515Y603631D02*
X344515Y603631D01*
X340360Y605352D01*
X337181Y608532D01*
X335460Y612687D01*
X335460Y636742D01*
X337181Y640896D01*
X340360Y644076D01*
X344515Y645797D01*
X349012Y645797D01*
X353166Y644076D01*
X356346Y640896D01*
X358067Y636742D01*
X358067Y612687D01*
X356346Y608532D01*
X353166Y605352D01*
X349012Y603631D01*
X344515Y603631D01*
G37*
%LPD*%
%LPC*%
G36*
X85536Y61892D02*
X85536Y61892D01*
X81381Y63613D01*
X78202Y66793D01*
X76481Y70948D01*
X76481Y75445D01*
X78202Y79599D01*
X81381Y82779D01*
X85536Y84500D01*
X109591Y84500D01*
X113745Y82779D01*
X116925Y79599D01*
X118646Y75445D01*
X118646Y70948D01*
X116925Y66793D01*
X113745Y63613D01*
X109591Y61892D01*
X85536Y61892D01*
G37*
%LPD*%
%LPC*%
G36*
X575536Y519092D02*
X575536Y519092D01*
X571381Y520813D01*
X568202Y523993D01*
X566481Y528148D01*
X566481Y532645D01*
X568202Y536799D01*
X571381Y539979D01*
X575536Y541700D01*
X599591Y541700D01*
X603745Y539979D01*
X606925Y536799D01*
X608646Y532645D01*
X608646Y528148D01*
X606925Y523993D01*
X603745Y520813D01*
X599591Y519092D01*
X575536Y519092D01*
G37*
%LPD*%
%LPC*%
G36*
X575536Y493692D02*
X575536Y493692D01*
X571381Y495413D01*
X568202Y498593D01*
X566481Y502748D01*
X566481Y507245D01*
X568202Y511399D01*
X571381Y514579D01*
X575536Y516300D01*
X599591Y516300D01*
X603745Y514579D01*
X606925Y511399D01*
X608646Y507245D01*
X608646Y502748D01*
X606925Y498593D01*
X603745Y495413D01*
X599591Y493692D01*
X575536Y493692D01*
G37*
%LPD*%
%LPC*%
G36*
X775455Y579181D02*
X775455Y579181D01*
X771301Y580902D01*
X768121Y584081D01*
X766400Y588236D01*
X766400Y612291D01*
X768121Y616445D01*
X771301Y619625D01*
X775455Y621346D01*
X779952Y621346D01*
X784107Y619625D01*
X787287Y616445D01*
X789008Y612291D01*
X789008Y588236D01*
X787287Y584081D01*
X784107Y580902D01*
X779952Y579181D01*
X775455Y579181D01*
G37*
%LPD*%
%LPC*%
G36*
X575536Y61892D02*
X575536Y61892D01*
X571381Y63613D01*
X568202Y66793D01*
X566481Y70948D01*
X566481Y75445D01*
X568202Y79599D01*
X571381Y82779D01*
X575536Y84500D01*
X599591Y84500D01*
X603745Y82779D01*
X606925Y79599D01*
X608646Y75445D01*
X608646Y70948D01*
X606925Y66793D01*
X603745Y63613D01*
X599591Y61892D01*
X575536Y61892D01*
G37*
%LPD*%
%LPC*%
G36*
X750055Y579181D02*
X750055Y579181D01*
X745901Y580902D01*
X742721Y584081D01*
X741000Y588236D01*
X741000Y612291D01*
X742721Y616445D01*
X745901Y619625D01*
X750055Y621346D01*
X754552Y621346D01*
X758707Y619625D01*
X761887Y616445D01*
X763608Y612291D01*
X763608Y588236D01*
X761887Y584081D01*
X758707Y580902D01*
X754552Y579181D01*
X750055Y579181D01*
G37*
%LPD*%
%LPC*%
G36*
X85536Y493692D02*
X85536Y493692D01*
X81381Y495413D01*
X78202Y498593D01*
X76481Y502748D01*
X76481Y507245D01*
X78202Y511399D01*
X81381Y514579D01*
X85536Y516300D01*
X109591Y516300D01*
X113745Y514579D01*
X116925Y511399D01*
X118646Y507245D01*
X118646Y502748D01*
X116925Y498593D01*
X113745Y495413D01*
X109591Y493692D01*
X85536Y493692D01*
G37*
%LPD*%
%LPC*%
G36*
X724655Y579181D02*
X724655Y579181D01*
X720501Y580902D01*
X717321Y584081D01*
X715600Y588236D01*
X715600Y612291D01*
X717321Y616445D01*
X720501Y619625D01*
X724655Y621346D01*
X729152Y621346D01*
X733307Y619625D01*
X736487Y616445D01*
X738208Y612291D01*
X738208Y588236D01*
X736487Y584081D01*
X733307Y580902D01*
X729152Y579181D01*
X724655Y579181D01*
G37*
%LPD*%
%LPC*%
G36*
X528361Y37361D02*
X528361Y37361D01*
X525373Y38598D01*
X523086Y40885D01*
X521849Y43872D01*
X521849Y47106D01*
X523086Y50094D01*
X525373Y52380D01*
X528361Y53618D01*
X544803Y53618D01*
X547790Y52380D01*
X550077Y50094D01*
X551314Y47106D01*
X551314Y43872D01*
X550077Y40885D01*
X547790Y38598D01*
X544803Y37361D01*
X528361Y37361D01*
G37*
%LPD*%
%LPC*%
G36*
X452161Y37361D02*
X452161Y37361D01*
X449173Y38598D01*
X446886Y40885D01*
X445649Y43872D01*
X445649Y47106D01*
X446886Y50094D01*
X449173Y52380D01*
X452161Y53618D01*
X468603Y53618D01*
X471590Y52380D01*
X473877Y50094D01*
X475114Y47106D01*
X475114Y43872D01*
X473877Y40885D01*
X471590Y38598D01*
X468603Y37361D01*
X452161Y37361D01*
G37*
%LPD*%
%LPC*%
G36*
X803794Y458349D02*
X803794Y458349D01*
X800806Y459586D01*
X798520Y461873D01*
X797282Y464861D01*
X797282Y481303D01*
X798520Y484290D01*
X800806Y486577D01*
X803794Y487814D01*
X807028Y487814D01*
X810015Y486577D01*
X812302Y484290D01*
X813539Y481303D01*
X813539Y464861D01*
X812302Y461873D01*
X810015Y459586D01*
X807028Y458349D01*
X803794Y458349D01*
G37*
%LPD*%
%LPC*%
G36*
X452161Y469161D02*
X452161Y469161D01*
X449173Y470398D01*
X446886Y472685D01*
X445649Y475672D01*
X445649Y478906D01*
X446886Y481894D01*
X449173Y484180D01*
X452161Y485418D01*
X468603Y485418D01*
X471590Y484180D01*
X473877Y481894D01*
X475114Y478906D01*
X475114Y475672D01*
X473877Y472685D01*
X471590Y470398D01*
X468603Y469161D01*
X452161Y469161D01*
G37*
%LPD*%
%LPC*%
G36*
X528361Y469161D02*
X528361Y469161D01*
X525373Y470398D01*
X523086Y472685D01*
X521849Y475672D01*
X521849Y478906D01*
X523086Y481894D01*
X525373Y484180D01*
X528361Y485418D01*
X544803Y485418D01*
X547790Y484180D01*
X550077Y481894D01*
X551314Y478906D01*
X551314Y475672D01*
X550077Y472685D01*
X547790Y470398D01*
X544803Y469161D01*
X528361Y469161D01*
G37*
%LPD*%
%LPC*%
G36*
X452161Y685061D02*
X452161Y685061D01*
X449173Y686298D01*
X446886Y688585D01*
X445649Y691572D01*
X445649Y694806D01*
X446886Y697794D01*
X449173Y700080D01*
X452161Y701318D01*
X468603Y701318D01*
X471590Y700080D01*
X473877Y697794D01*
X475114Y694806D01*
X475114Y691572D01*
X473877Y688585D01*
X471590Y686298D01*
X468603Y685061D01*
X452161Y685061D01*
G37*
%LPD*%
%LPC*%
G36*
X528361Y685061D02*
X528361Y685061D01*
X525373Y686298D01*
X523086Y688585D01*
X521849Y691572D01*
X521849Y694806D01*
X523086Y697794D01*
X525373Y700080D01*
X528361Y701318D01*
X544803Y701318D01*
X547790Y700080D01*
X550077Y697794D01*
X551314Y694806D01*
X551314Y691572D01*
X550077Y688585D01*
X547790Y686298D01*
X544803Y685061D01*
X528361Y685061D01*
G37*
%LPD*%
%LPC*%
G36*
X803794Y534549D02*
X803794Y534549D01*
X800806Y535786D01*
X798520Y538073D01*
X797282Y541061D01*
X797282Y557503D01*
X798520Y560490D01*
X800806Y562777D01*
X803794Y564014D01*
X807028Y564014D01*
X810015Y562777D01*
X812302Y560490D01*
X813539Y557503D01*
X813539Y541061D01*
X812302Y538073D01*
X810015Y535786D01*
X807028Y534549D01*
X803794Y534549D01*
G37*
%LPD*%
%LPC*%
G36*
X528361Y253261D02*
X528361Y253261D01*
X525373Y254498D01*
X523086Y256785D01*
X521849Y259772D01*
X521849Y263006D01*
X523086Y265994D01*
X525373Y268280D01*
X528361Y269518D01*
X544803Y269518D01*
X547790Y268280D01*
X550077Y265994D01*
X551314Y263006D01*
X551314Y259772D01*
X550077Y256785D01*
X547790Y254498D01*
X544803Y253261D01*
X528361Y253261D01*
G37*
%LPD*%
%LPC*%
G36*
X452161Y253261D02*
X452161Y253261D01*
X449173Y254498D01*
X446886Y256785D01*
X445649Y259772D01*
X445649Y263006D01*
X446886Y265994D01*
X449173Y268280D01*
X452161Y269518D01*
X468603Y269518D01*
X471590Y268280D01*
X473877Y265994D01*
X475114Y263006D01*
X475114Y259772D01*
X473877Y256785D01*
X471590Y254498D01*
X468603Y253261D01*
X452161Y253261D01*
G37*
%LPD*%
%LPC*%
G36*
X487655Y408001D02*
X487655Y408001D01*
X486762Y408894D01*
X486762Y424237D01*
X487655Y425130D01*
X502998Y425130D01*
X503891Y424237D01*
X503891Y408894D01*
X502998Y408001D01*
X487655Y408001D01*
G37*
%LPD*%
%LPC*%
G36*
X413410Y32442D02*
X413410Y32442D01*
X412517Y33335D01*
X412517Y48679D01*
X413410Y49572D01*
X428753Y49572D01*
X429646Y48679D01*
X429646Y33335D01*
X428753Y32442D01*
X413410Y32442D01*
G37*
%LPD*%
%LPC*%
G36*
X361855Y708601D02*
X361855Y708601D01*
X360962Y709494D01*
X360962Y724837D01*
X361855Y725730D01*
X377198Y725730D01*
X378091Y724837D01*
X378091Y709494D01*
X377198Y708601D01*
X361855Y708601D01*
G37*
%LPD*%
%LPC*%
G36*
X391466Y708752D02*
X391466Y708752D01*
X390572Y709646D01*
X390572Y724989D01*
X391466Y725882D01*
X406809Y725882D01*
X407702Y724989D01*
X407702Y709646D01*
X406809Y708752D01*
X391466Y708752D01*
G37*
%LPD*%
%LPC*%
G36*
X801580Y351738D02*
X801580Y351738D01*
X800687Y352631D01*
X800687Y367974D01*
X801580Y368867D01*
X816923Y368867D01*
X817816Y367974D01*
X817816Y352631D01*
X816923Y351738D01*
X801580Y351738D01*
G37*
%LPD*%
%LPC*%
G36*
X391466Y276952D02*
X391466Y276952D01*
X390572Y277846D01*
X390572Y293189D01*
X391466Y294082D01*
X406809Y294082D01*
X407702Y293189D01*
X407702Y277846D01*
X406809Y276952D01*
X391466Y276952D01*
G37*
%LPD*%
%LPC*%
G36*
X339931Y33084D02*
X339931Y33084D01*
X339038Y33977D01*
X339038Y49320D01*
X339931Y50213D01*
X355274Y50213D01*
X356167Y49320D01*
X356167Y33977D01*
X355274Y33084D01*
X339931Y33084D01*
G37*
%LPD*%
%LPC*%
G36*
X361855Y276801D02*
X361855Y276801D01*
X360962Y277694D01*
X360962Y293037D01*
X361855Y293930D01*
X377198Y293930D01*
X378091Y293037D01*
X378091Y277694D01*
X377198Y276801D01*
X361855Y276801D01*
G37*
%LPD*%
%LPC*%
G36*
X487655Y839801D02*
X487655Y839801D01*
X486762Y840694D01*
X486762Y856037D01*
X487655Y856930D01*
X502998Y856930D01*
X503891Y856037D01*
X503891Y840694D01*
X502998Y839801D01*
X487655Y839801D01*
G37*
%LPD*%
%LPC*%
G36*
X773763Y373662D02*
X773763Y373662D01*
X772870Y374555D01*
X772870Y389898D01*
X773763Y390791D01*
X789106Y390791D01*
X789999Y389898D01*
X789999Y374555D01*
X789106Y373662D01*
X773763Y373662D01*
G37*
%LPD*%
%LPC*%
G36*
X513255Y386601D02*
X513255Y386601D01*
X512362Y387494D01*
X512362Y402837D01*
X513255Y403730D01*
X528598Y403730D01*
X529491Y402837D01*
X529491Y387494D01*
X528598Y386601D01*
X513255Y386601D01*
G37*
%LPD*%
%LPC*%
G36*
X361855Y60901D02*
X361855Y60901D01*
X360962Y61794D01*
X360962Y77137D01*
X361855Y78030D01*
X377198Y78030D01*
X378091Y77137D01*
X378091Y61794D01*
X377198Y60901D01*
X361855Y60901D01*
G37*
%LPD*%
%LPC*%
G36*
X391466Y61052D02*
X391466Y61052D01*
X390572Y61946D01*
X390572Y77289D01*
X391466Y78182D01*
X406809Y78182D01*
X407702Y77289D01*
X407702Y61946D01*
X406809Y61052D01*
X391466Y61052D01*
G37*
%LPD*%
%LPC*%
G36*
X663963Y525062D02*
X663963Y525062D01*
X663070Y525955D01*
X663070Y541298D01*
X663963Y542191D01*
X679306Y542191D01*
X680199Y541298D01*
X680199Y525955D01*
X679306Y525062D01*
X663963Y525062D01*
G37*
%LPD*%
%LPC*%
G36*
X339931Y248984D02*
X339931Y248984D01*
X339038Y249877D01*
X339038Y265220D01*
X339931Y266113D01*
X355274Y266113D01*
X356167Y265220D01*
X356167Y249877D01*
X355274Y248984D01*
X339931Y248984D01*
G37*
%LPD*%
%LPC*%
G36*
X773611Y403272D02*
X773611Y403272D01*
X772718Y404166D01*
X772718Y419509D01*
X773611Y420402D01*
X788954Y420402D01*
X789848Y419509D01*
X789848Y404166D01*
X788954Y403272D01*
X773611Y403272D01*
G37*
%LPD*%
%LPC*%
G36*
X339931Y680784D02*
X339931Y680784D01*
X339038Y681677D01*
X339038Y697020D01*
X339931Y697913D01*
X355274Y697913D01*
X356167Y697020D01*
X356167Y681677D01*
X355274Y680784D01*
X339931Y680784D01*
G37*
%LPD*%
%LPC*%
G36*
X413410Y248342D02*
X413410Y248342D01*
X412517Y249235D01*
X412517Y264579D01*
X413410Y265472D01*
X428753Y265472D01*
X429646Y264579D01*
X429646Y249235D01*
X428753Y248342D01*
X413410Y248342D01*
G37*
%LPD*%
%LPC*%
G36*
X642563Y499462D02*
X642563Y499462D01*
X641670Y500355D01*
X641670Y515698D01*
X642563Y516591D01*
X657906Y516591D01*
X658799Y515698D01*
X658799Y500355D01*
X657906Y499462D01*
X642563Y499462D01*
G37*
%LPD*%
%LPC*%
G36*
X487655Y192101D02*
X487655Y192101D01*
X486762Y192994D01*
X486762Y208337D01*
X487655Y209230D01*
X502998Y209230D01*
X503891Y208337D01*
X503891Y192994D01*
X502998Y192101D01*
X487655Y192101D01*
G37*
%LPD*%
%LPC*%
G36*
X513255Y602501D02*
X513255Y602501D01*
X512362Y603394D01*
X512362Y618737D01*
X513255Y619630D01*
X528598Y619630D01*
X529491Y618737D01*
X529491Y603394D01*
X528598Y602501D01*
X513255Y602501D01*
G37*
%LPD*%
%LPC*%
G36*
X513255Y818401D02*
X513255Y818401D01*
X512362Y819294D01*
X512362Y834637D01*
X513255Y835530D01*
X528598Y835530D01*
X529491Y834637D01*
X529491Y819294D01*
X528598Y818401D01*
X513255Y818401D01*
G37*
%LPD*%
%LPC*%
G36*
X413410Y680142D02*
X413410Y680142D01*
X412517Y681035D01*
X412517Y696379D01*
X413410Y697272D01*
X428753Y697272D01*
X429646Y696379D01*
X429646Y681035D01*
X428753Y680142D01*
X413410Y680142D01*
G37*
%LPD*%
%LPC*%
G36*
X391466Y492852D02*
X391466Y492852D01*
X390572Y493746D01*
X390572Y509089D01*
X391466Y509982D01*
X406809Y509982D01*
X407702Y509089D01*
X407702Y493746D01*
X406809Y492852D01*
X391466Y492852D01*
G37*
%LPD*%
%LPC*%
G36*
X361855Y492701D02*
X361855Y492701D01*
X360962Y493594D01*
X360962Y508937D01*
X361855Y509830D01*
X377198Y509830D01*
X378091Y508937D01*
X378091Y493594D01*
X377198Y492701D01*
X361855Y492701D01*
G37*
%LPD*%
%LPC*%
G36*
X802221Y425217D02*
X802221Y425217D01*
X801328Y426110D01*
X801328Y441453D01*
X802221Y442346D01*
X817565Y442346D01*
X818458Y441453D01*
X818458Y426110D01*
X817565Y425217D01*
X802221Y425217D01*
G37*
%LPD*%
%LPC*%
G36*
X413410Y464242D02*
X413410Y464242D01*
X412517Y465135D01*
X412517Y480479D01*
X413410Y481372D01*
X428753Y481372D01*
X429646Y480479D01*
X429646Y465135D01*
X428753Y464242D01*
X413410Y464242D01*
G37*
%LPD*%
%LPC*%
G36*
X339931Y464884D02*
X339931Y464884D01*
X339038Y465777D01*
X339038Y481120D01*
X339931Y482013D01*
X355274Y482013D01*
X356167Y481120D01*
X356167Y465777D01*
X355274Y464884D01*
X339931Y464884D01*
G37*
%LPD*%
%LPC*%
G36*
X487655Y623901D02*
X487655Y623901D01*
X486762Y624794D01*
X486762Y640137D01*
X487655Y641030D01*
X502998Y641030D01*
X503891Y640137D01*
X503891Y624794D01*
X502998Y623901D01*
X487655Y623901D01*
G37*
%LPD*%
%LPC*%
G36*
X513255Y170701D02*
X513255Y170701D01*
X512362Y171594D01*
X512362Y186937D01*
X513255Y187830D01*
X528598Y187830D01*
X529491Y186937D01*
X529491Y171594D01*
X528598Y170701D01*
X513255Y170701D01*
G37*
%LPD*%
%LPC*%
G36*
X493623Y166701D02*
X493623Y166701D01*
X490475Y168005D01*
X488065Y170414D01*
X486762Y173562D01*
X486762Y176969D01*
X488065Y180117D01*
X490475Y182526D01*
X493623Y183830D01*
X497030Y183830D01*
X500178Y182526D01*
X502587Y180117D01*
X503891Y176969D01*
X503891Y173562D01*
X502587Y170414D01*
X500178Y168005D01*
X497030Y166701D01*
X493623Y166701D01*
G37*
%LPD*%
%LPC*%
G36*
X393978Y32442D02*
X393978Y32442D01*
X390830Y33746D01*
X388421Y36155D01*
X387117Y39303D01*
X387117Y42711D01*
X388421Y45859D01*
X390830Y48268D01*
X393978Y49572D01*
X397385Y49572D01*
X400533Y48268D01*
X402942Y45859D01*
X404246Y42711D01*
X404246Y39303D01*
X402942Y36155D01*
X400533Y33746D01*
X397385Y32442D01*
X393978Y32442D01*
G37*
%LPD*%
%LPC*%
G36*
X342423Y708601D02*
X342423Y708601D01*
X339275Y709905D01*
X336865Y712314D01*
X335562Y715462D01*
X335562Y718869D01*
X336865Y722017D01*
X339275Y724426D01*
X342423Y725730D01*
X345830Y725730D01*
X348978Y724426D01*
X351387Y722017D01*
X352691Y718869D01*
X352691Y715462D01*
X351387Y712314D01*
X348978Y709905D01*
X345830Y708601D01*
X342423Y708601D01*
G37*
%LPD*%
%LPC*%
G36*
X371299Y464884D02*
X371299Y464884D01*
X368151Y466188D01*
X365741Y468597D01*
X364438Y471745D01*
X364438Y475152D01*
X365741Y478300D01*
X368151Y480710D01*
X371299Y482013D01*
X374706Y482013D01*
X377854Y480710D01*
X380263Y478300D01*
X381567Y475152D01*
X381567Y471745D01*
X380263Y468597D01*
X377854Y466188D01*
X374706Y464884D01*
X371299Y464884D01*
G37*
%LPD*%
%LPC*%
G36*
X393978Y464242D02*
X393978Y464242D01*
X390830Y465546D01*
X388421Y467955D01*
X387117Y471103D01*
X387117Y474511D01*
X388421Y477659D01*
X390830Y480068D01*
X393978Y481372D01*
X397385Y481372D01*
X400533Y480068D01*
X402942Y477659D01*
X404246Y474511D01*
X404246Y471103D01*
X402942Y467955D01*
X400533Y465546D01*
X397385Y464242D01*
X393978Y464242D01*
G37*
%LPD*%
%LPC*%
G36*
X397434Y734152D02*
X397434Y734152D01*
X394286Y735456D01*
X391876Y737866D01*
X390572Y741014D01*
X390572Y744421D01*
X391876Y747569D01*
X394286Y749978D01*
X397434Y751282D01*
X400841Y751282D01*
X403989Y749978D01*
X406398Y747569D01*
X407702Y744421D01*
X407702Y741014D01*
X406398Y737866D01*
X403989Y735456D01*
X400841Y734152D01*
X397434Y734152D01*
G37*
%LPD*%
%LPC*%
G36*
X342423Y492701D02*
X342423Y492701D01*
X339275Y494005D01*
X336865Y496414D01*
X335562Y499562D01*
X335562Y502969D01*
X336865Y506117D01*
X339275Y508526D01*
X342423Y509830D01*
X345830Y509830D01*
X348978Y508526D01*
X351387Y506117D01*
X352691Y502969D01*
X352691Y499562D01*
X351387Y496414D01*
X348978Y494005D01*
X345830Y492701D01*
X342423Y492701D01*
G37*
%LPD*%
%LPC*%
G36*
X519223Y627901D02*
X519223Y627901D01*
X516075Y629205D01*
X513665Y631614D01*
X512362Y634762D01*
X512362Y638169D01*
X513665Y641317D01*
X516075Y643726D01*
X519223Y645030D01*
X522630Y645030D01*
X525778Y643726D01*
X528187Y641317D01*
X529491Y638169D01*
X529491Y634762D01*
X528187Y631614D01*
X525778Y629205D01*
X522630Y627901D01*
X519223Y627901D01*
G37*
%LPD*%
%LPC*%
G36*
X493623Y814401D02*
X493623Y814401D01*
X490475Y815705D01*
X488065Y818114D01*
X486762Y821262D01*
X486762Y824669D01*
X488065Y827817D01*
X490475Y830226D01*
X493623Y831530D01*
X497030Y831530D01*
X500178Y830226D01*
X502587Y827817D01*
X503891Y824669D01*
X503891Y821262D01*
X502587Y818114D01*
X500178Y815705D01*
X497030Y814401D01*
X493623Y814401D01*
G37*
%LPD*%
%LPC*%
G36*
X393978Y680142D02*
X393978Y680142D01*
X390830Y681446D01*
X388421Y683855D01*
X387117Y687003D01*
X387117Y690411D01*
X388421Y693559D01*
X390830Y695968D01*
X393978Y697272D01*
X397385Y697272D01*
X400533Y695968D01*
X402942Y693559D01*
X404246Y690411D01*
X404246Y687003D01*
X402942Y683855D01*
X400533Y681446D01*
X397385Y680142D01*
X393978Y680142D01*
G37*
%LPD*%
%LPC*%
G36*
X371299Y680784D02*
X371299Y680784D01*
X368151Y682088D01*
X365741Y684497D01*
X364438Y687645D01*
X364438Y691052D01*
X365741Y694200D01*
X368151Y696610D01*
X371299Y697913D01*
X374706Y697913D01*
X377854Y696610D01*
X380263Y694200D01*
X381567Y691052D01*
X381567Y687645D01*
X380263Y684497D01*
X377854Y682088D01*
X374706Y680784D01*
X371299Y680784D01*
G37*
%LPD*%
%LPC*%
G36*
X519223Y412001D02*
X519223Y412001D01*
X516075Y413305D01*
X513665Y415714D01*
X512362Y418862D01*
X512362Y422269D01*
X513665Y425417D01*
X516075Y427826D01*
X519223Y429130D01*
X522630Y429130D01*
X525778Y427826D01*
X528187Y425417D01*
X529491Y422269D01*
X529491Y418862D01*
X528187Y415714D01*
X525778Y413305D01*
X522630Y412001D01*
X519223Y412001D01*
G37*
%LPD*%
%LPC*%
G36*
X673931Y499462D02*
X673931Y499462D01*
X670783Y500765D01*
X668374Y503175D01*
X667070Y506323D01*
X667070Y509730D01*
X668374Y512878D01*
X670783Y515287D01*
X673931Y516591D01*
X677338Y516591D01*
X680486Y515287D01*
X682895Y512878D01*
X684199Y509730D01*
X684199Y506323D01*
X682895Y503175D01*
X680486Y500765D01*
X677338Y499462D01*
X673931Y499462D01*
G37*
%LPD*%
%LPC*%
G36*
X519223Y196101D02*
X519223Y196101D01*
X516075Y197405D01*
X513665Y199814D01*
X512362Y202962D01*
X512362Y206369D01*
X513665Y209517D01*
X516075Y211926D01*
X519223Y213230D01*
X522630Y213230D01*
X525778Y211926D01*
X528187Y209517D01*
X529491Y206369D01*
X529491Y202962D01*
X528187Y199814D01*
X525778Y197405D01*
X522630Y196101D01*
X519223Y196101D01*
G37*
%LPD*%
%LPC*%
G36*
X397434Y518252D02*
X397434Y518252D01*
X394286Y519556D01*
X391876Y521966D01*
X390572Y525114D01*
X390572Y528521D01*
X391876Y531669D01*
X394286Y534078D01*
X397434Y535382D01*
X400841Y535382D01*
X403989Y534078D01*
X406398Y531669D01*
X407702Y528521D01*
X407702Y525114D01*
X406398Y521966D01*
X403989Y519556D01*
X400841Y518252D01*
X397434Y518252D01*
G37*
%LPD*%
%LPC*%
G36*
X393978Y248342D02*
X393978Y248342D01*
X390830Y249646D01*
X388421Y252055D01*
X387117Y255203D01*
X387117Y258611D01*
X388421Y261759D01*
X390830Y264168D01*
X393978Y265472D01*
X397385Y265472D01*
X400533Y264168D01*
X402942Y261759D01*
X404246Y258611D01*
X404246Y255203D01*
X402942Y252055D01*
X400533Y249646D01*
X397385Y248342D01*
X393978Y248342D01*
G37*
%LPD*%
%LPC*%
G36*
X779731Y348262D02*
X779731Y348262D01*
X776583Y349565D01*
X774174Y351975D01*
X772870Y355123D01*
X772870Y358530D01*
X774174Y361678D01*
X776583Y364087D01*
X779731Y365391D01*
X783138Y365391D01*
X786286Y364087D01*
X788695Y361678D01*
X789999Y358530D01*
X789999Y355123D01*
X788695Y351975D01*
X786286Y349565D01*
X783138Y348262D01*
X779731Y348262D01*
G37*
%LPD*%
%LPC*%
G36*
X754179Y403272D02*
X754179Y403272D01*
X751031Y404576D01*
X748622Y406986D01*
X747318Y410134D01*
X747318Y413541D01*
X748622Y416689D01*
X751031Y419098D01*
X754179Y420402D01*
X757586Y420402D01*
X760734Y419098D01*
X763144Y416689D01*
X764448Y413541D01*
X764448Y410134D01*
X763144Y406986D01*
X760734Y404576D01*
X757586Y403272D01*
X754179Y403272D01*
G37*
%LPD*%
%LPC*%
G36*
X397434Y86452D02*
X397434Y86452D01*
X394286Y87756D01*
X391876Y90166D01*
X390572Y93314D01*
X390572Y96721D01*
X391876Y99869D01*
X394286Y102278D01*
X397434Y103582D01*
X400841Y103582D01*
X403989Y102278D01*
X406398Y99869D01*
X407702Y96721D01*
X407702Y93314D01*
X406398Y90166D01*
X403989Y87756D01*
X400841Y86452D01*
X397434Y86452D01*
G37*
%LPD*%
%LPC*%
G36*
X808189Y399817D02*
X808189Y399817D01*
X805041Y401121D01*
X802632Y403530D01*
X801328Y406678D01*
X801328Y410085D01*
X802632Y413233D01*
X805041Y415642D01*
X808189Y416946D01*
X811597Y416946D01*
X814745Y415642D01*
X817154Y413233D01*
X818458Y410085D01*
X818458Y406678D01*
X817154Y403530D01*
X814745Y401121D01*
X811597Y399817D01*
X808189Y399817D01*
G37*
%LPD*%
%LPC*%
G36*
X644531Y525062D02*
X644531Y525062D01*
X641383Y526365D01*
X638974Y528775D01*
X637670Y531923D01*
X637670Y535330D01*
X638974Y538478D01*
X641383Y540887D01*
X644531Y542191D01*
X647938Y542191D01*
X651086Y540887D01*
X653495Y538478D01*
X654799Y535330D01*
X654799Y531923D01*
X653495Y528775D01*
X651086Y526365D01*
X647938Y525062D01*
X644531Y525062D01*
G37*
%LPD*%
%LPC*%
G36*
X371299Y248984D02*
X371299Y248984D01*
X368151Y250288D01*
X365741Y252697D01*
X364438Y255845D01*
X364438Y259252D01*
X365741Y262400D01*
X368151Y264810D01*
X371299Y266113D01*
X374706Y266113D01*
X377854Y264810D01*
X380263Y262400D01*
X381567Y259252D01*
X381567Y255845D01*
X380263Y252697D01*
X377854Y250288D01*
X374706Y248984D01*
X371299Y248984D01*
G37*
%LPD*%
%LPC*%
G36*
X342423Y60901D02*
X342423Y60901D01*
X339275Y62205D01*
X336865Y64614D01*
X335562Y67762D01*
X335562Y71169D01*
X336865Y74317D01*
X339275Y76726D01*
X342423Y78030D01*
X345830Y78030D01*
X348978Y76726D01*
X351387Y74317D01*
X352691Y71169D01*
X352691Y67762D01*
X351387Y64614D01*
X348978Y62205D01*
X345830Y60901D01*
X342423Y60901D01*
G37*
%LPD*%
%LPC*%
G36*
X493623Y382601D02*
X493623Y382601D01*
X490475Y383905D01*
X488065Y386314D01*
X486762Y389462D01*
X486762Y392869D01*
X488065Y396017D01*
X490475Y398426D01*
X493623Y399730D01*
X497030Y399730D01*
X500178Y398426D01*
X502587Y396017D01*
X503891Y392869D01*
X503891Y389462D01*
X502587Y386314D01*
X500178Y383905D01*
X497030Y382601D01*
X493623Y382601D01*
G37*
%LPD*%
%LPC*%
G36*
X397434Y302352D02*
X397434Y302352D01*
X394286Y303656D01*
X391876Y306066D01*
X390572Y309214D01*
X390572Y312621D01*
X391876Y315769D01*
X394286Y318178D01*
X397434Y319482D01*
X400841Y319482D01*
X403989Y318178D01*
X406398Y315769D01*
X407702Y312621D01*
X407702Y309214D01*
X406398Y306066D01*
X403989Y303656D01*
X400841Y302352D01*
X397434Y302352D01*
G37*
%LPD*%
%LPC*%
G36*
X371299Y33084D02*
X371299Y33084D01*
X368151Y34388D01*
X365741Y36797D01*
X364438Y39945D01*
X364438Y43352D01*
X365741Y46500D01*
X368151Y48910D01*
X371299Y50213D01*
X374706Y50213D01*
X377854Y48910D01*
X380263Y46500D01*
X381567Y43352D01*
X381567Y39945D01*
X380263Y36797D01*
X377854Y34388D01*
X374706Y33084D01*
X371299Y33084D01*
G37*
%LPD*%
%LPC*%
G36*
X342423Y276801D02*
X342423Y276801D01*
X339275Y278105D01*
X336865Y280514D01*
X335562Y283662D01*
X335562Y287069D01*
X336865Y290217D01*
X339275Y292626D01*
X342423Y293930D01*
X345830Y293930D01*
X348978Y292626D01*
X351387Y290217D01*
X352691Y287069D01*
X352691Y283662D01*
X351387Y280514D01*
X348978Y278105D01*
X345830Y276801D01*
X342423Y276801D01*
G37*
%LPD*%
%LPC*%
G36*
X807548Y377138D02*
X807548Y377138D01*
X804400Y378441D01*
X801990Y380851D01*
X800687Y383999D01*
X800687Y387406D01*
X801990Y390554D01*
X804400Y392963D01*
X807548Y394267D01*
X810955Y394267D01*
X814103Y392963D01*
X816512Y390554D01*
X817816Y387406D01*
X817816Y383999D01*
X816512Y380851D01*
X814103Y378441D01*
X810955Y377138D01*
X807548Y377138D01*
G37*
%LPD*%
%LPC*%
G36*
X493623Y598501D02*
X493623Y598501D01*
X490475Y599805D01*
X488065Y602214D01*
X486762Y605362D01*
X486762Y608769D01*
X488065Y611917D01*
X490475Y614326D01*
X493623Y615630D01*
X497030Y615630D01*
X500178Y614326D01*
X502587Y611917D01*
X503891Y608769D01*
X503891Y605362D01*
X502587Y602214D01*
X500178Y599805D01*
X497030Y598501D01*
X493623Y598501D01*
G37*
%LPD*%
%LPC*%
G36*
X519223Y843801D02*
X519223Y843801D01*
X516075Y845105D01*
X513665Y847514D01*
X512362Y850662D01*
X512362Y854069D01*
X513665Y857217D01*
X516075Y859626D01*
X519223Y860930D01*
X522630Y860930D01*
X525778Y859626D01*
X528187Y857217D01*
X529491Y854069D01*
X529491Y850662D01*
X528187Y847514D01*
X525778Y845105D01*
X522630Y843801D01*
X519223Y843801D01*
G37*
%LPD*%
%LPC*%
G36*
X99595Y557827D02*
X99595Y557827D01*
X99595Y568116D01*
X108312Y568116D01*
X110227Y567812D01*
X112072Y567213D01*
X113799Y566333D01*
X115368Y565193D01*
X116739Y563822D01*
X117879Y562253D01*
X118759Y560525D01*
X119359Y558681D01*
X119494Y557827D01*
X99595Y557827D01*
G37*
%LPD*%
%LPC*%
G36*
X99595Y773727D02*
X99595Y773727D01*
X99595Y784016D01*
X108312Y784016D01*
X110227Y783712D01*
X112072Y783113D01*
X113799Y782233D01*
X115368Y781093D01*
X116739Y779722D01*
X117879Y778153D01*
X118759Y776425D01*
X119359Y774581D01*
X119494Y773727D01*
X99595Y773727D01*
G37*
%LPD*%
%LPC*%
G36*
X99595Y341927D02*
X99595Y341927D01*
X99595Y352216D01*
X108312Y352216D01*
X110227Y351912D01*
X112072Y351313D01*
X113799Y350433D01*
X115368Y349293D01*
X116739Y347922D01*
X117879Y346353D01*
X118759Y344625D01*
X119359Y342781D01*
X119494Y341927D01*
X99595Y341927D01*
G37*
%LPD*%
%LPC*%
G36*
X99595Y126027D02*
X99595Y126027D01*
X99595Y136316D01*
X108312Y136316D01*
X110227Y136012D01*
X112072Y135413D01*
X113799Y134533D01*
X115368Y133393D01*
X116739Y132022D01*
X117879Y130453D01*
X118759Y128725D01*
X119359Y126881D01*
X119494Y126027D01*
X99595Y126027D01*
G37*
%LPD*%
%LPC*%
G36*
X75633Y341927D02*
X75633Y341927D01*
X75768Y342781D01*
X76367Y344625D01*
X77248Y346353D01*
X78387Y347922D01*
X79758Y349293D01*
X81327Y350433D01*
X83055Y351313D01*
X84900Y351912D01*
X86815Y352216D01*
X95532Y352216D01*
X95532Y341927D01*
X75633Y341927D01*
G37*
%LPD*%
%LPC*%
G36*
X75633Y557827D02*
X75633Y557827D01*
X75768Y558681D01*
X76367Y560525D01*
X77248Y562253D01*
X78387Y563822D01*
X79758Y565193D01*
X81327Y566333D01*
X83055Y567213D01*
X84900Y567812D01*
X86815Y568116D01*
X95532Y568116D01*
X95532Y557827D01*
X75633Y557827D01*
G37*
%LPD*%
%LPC*%
G36*
X75633Y126027D02*
X75633Y126027D01*
X75768Y126881D01*
X76367Y128725D01*
X77248Y130453D01*
X78387Y132022D01*
X79758Y133393D01*
X81327Y134533D01*
X83055Y135413D01*
X84900Y136012D01*
X86815Y136316D01*
X95532Y136316D01*
X95532Y126027D01*
X75633Y126027D01*
G37*
%LPD*%
%LPC*%
G36*
X75633Y773727D02*
X75633Y773727D01*
X75768Y774581D01*
X76367Y776425D01*
X77248Y778153D01*
X78387Y779722D01*
X79758Y781093D01*
X81327Y782233D01*
X83055Y783113D01*
X84900Y783712D01*
X86815Y784016D01*
X95532Y784016D01*
X95532Y773727D01*
X75633Y773727D01*
G37*
%LPD*%
%LPC*%
G36*
X714584Y112295D02*
X714584Y112295D01*
X714584Y121012D01*
X714888Y122927D01*
X715487Y124772D01*
X716367Y126499D01*
X717507Y128068D01*
X718878Y129439D01*
X720447Y130579D01*
X722175Y131459D01*
X724019Y132059D01*
X724873Y132194D01*
X724873Y112295D01*
X714584Y112295D01*
G37*
%LPD*%
%LPC*%
G36*
X724019Y88468D02*
X724019Y88468D01*
X722175Y89067D01*
X720447Y89948D01*
X718878Y91087D01*
X717507Y92458D01*
X716367Y94027D01*
X715487Y95755D01*
X714888Y97600D01*
X714584Y99515D01*
X714584Y108232D01*
X724873Y108232D01*
X724873Y88333D01*
X724019Y88468D01*
G37*
%LPD*%
%LPC*%
G36*
X232386Y350326D02*
X232386Y350326D01*
X229725Y351428D01*
X227689Y353464D01*
X226587Y356125D01*
X226587Y359005D01*
X227689Y361666D01*
X229725Y363703D01*
X232386Y364805D01*
X235266Y364805D01*
X237927Y363703D01*
X239964Y361666D01*
X241066Y359005D01*
X241066Y356125D01*
X239964Y353464D01*
X237927Y351428D01*
X235266Y350326D01*
X232386Y350326D01*
G37*
%LPD*%
%LPC*%
G36*
X524879Y321454D02*
X524879Y321454D01*
X522218Y322557D01*
X520182Y324593D01*
X519080Y327254D01*
X519080Y330134D01*
X520182Y332795D01*
X522218Y334832D01*
X524879Y335934D01*
X527759Y335934D01*
X530420Y334832D01*
X532457Y332795D01*
X533559Y330134D01*
X533559Y327254D01*
X532457Y324593D01*
X530420Y322557D01*
X527759Y321454D01*
X524879Y321454D01*
G37*
%LPD*%
%LPC*%
G36*
X154686Y314326D02*
X154686Y314326D01*
X152025Y315428D01*
X149989Y317464D01*
X148887Y320125D01*
X148887Y323005D01*
X149989Y325666D01*
X152025Y327703D01*
X154686Y328805D01*
X157566Y328805D01*
X160227Y327703D01*
X162264Y325666D01*
X163366Y323005D01*
X163366Y320125D01*
X162264Y317464D01*
X160227Y315428D01*
X157566Y314326D01*
X154686Y314326D01*
G37*
%LPD*%
%LPC*%
G36*
X182386Y350326D02*
X182386Y350326D01*
X179725Y351428D01*
X177689Y353464D01*
X176587Y356125D01*
X176587Y359005D01*
X177689Y361666D01*
X179725Y363703D01*
X182386Y364805D01*
X185266Y364805D01*
X187927Y363703D01*
X189964Y361666D01*
X191066Y359005D01*
X191066Y356125D01*
X189964Y353464D01*
X187927Y351428D01*
X185266Y350326D01*
X182386Y350326D01*
G37*
%LPD*%
%LPC*%
G36*
X303386Y310326D02*
X303386Y310326D01*
X300725Y311428D01*
X298689Y313464D01*
X297587Y316125D01*
X297587Y319005D01*
X298689Y321666D01*
X300725Y323703D01*
X303386Y324805D01*
X306266Y324805D01*
X308927Y323703D01*
X310964Y321666D01*
X312066Y319005D01*
X312066Y316125D01*
X310964Y313464D01*
X308927Y311428D01*
X306266Y310326D01*
X303386Y310326D01*
G37*
%LPD*%
%LPC*%
G36*
X182386Y566226D02*
X182386Y566226D01*
X179725Y567328D01*
X177689Y569364D01*
X176587Y572025D01*
X176587Y574905D01*
X177689Y577566D01*
X179725Y579603D01*
X182386Y580705D01*
X185266Y580705D01*
X187927Y579603D01*
X189964Y577566D01*
X191066Y574905D01*
X191066Y572025D01*
X189964Y569364D01*
X187927Y567328D01*
X185266Y566226D01*
X182386Y566226D01*
G37*
%LPD*%
%LPC*%
G36*
X797795Y310287D02*
X797795Y310287D01*
X795134Y311389D01*
X793097Y313425D01*
X791995Y316086D01*
X791995Y318966D01*
X793097Y321627D01*
X795134Y323664D01*
X797795Y324766D01*
X800675Y324766D01*
X803336Y323664D01*
X805372Y321627D01*
X806474Y318966D01*
X806474Y316086D01*
X805372Y313425D01*
X803336Y311389D01*
X800675Y310287D01*
X797795Y310287D01*
G37*
%LPD*%
%LPC*%
G36*
X154686Y696126D02*
X154686Y696126D01*
X152025Y697228D01*
X149989Y699264D01*
X148887Y701925D01*
X148887Y704805D01*
X149989Y707466D01*
X152025Y709503D01*
X154686Y710605D01*
X157566Y710605D01*
X160227Y709503D01*
X162264Y707466D01*
X163366Y704805D01*
X163366Y701925D01*
X162264Y699264D01*
X160227Y697228D01*
X157566Y696126D01*
X154686Y696126D01*
G37*
%LPD*%
%LPC*%
G36*
X303386Y742126D02*
X303386Y742126D01*
X300725Y743228D01*
X298689Y745264D01*
X297587Y747925D01*
X297587Y750805D01*
X298689Y753466D01*
X300725Y755503D01*
X303386Y756605D01*
X306266Y756605D01*
X308927Y755503D01*
X310964Y753466D01*
X312066Y750805D01*
X312066Y747925D01*
X310964Y745264D01*
X308927Y743228D01*
X306266Y742126D01*
X303386Y742126D01*
G37*
%LPD*%
%LPC*%
G36*
X154686Y746126D02*
X154686Y746126D01*
X152025Y747228D01*
X149989Y749264D01*
X148887Y751925D01*
X148887Y754805D01*
X149989Y757466D01*
X152025Y759503D01*
X154686Y760605D01*
X157566Y760605D01*
X160227Y759503D01*
X162264Y757466D01*
X163366Y754805D01*
X163366Y751925D01*
X162264Y749264D01*
X160227Y747228D01*
X157566Y746126D01*
X154686Y746126D01*
G37*
%LPD*%
%LPC*%
G36*
X524879Y753254D02*
X524879Y753254D01*
X522218Y754357D01*
X520182Y756393D01*
X519080Y759054D01*
X519080Y761934D01*
X520182Y764595D01*
X522218Y766632D01*
X524879Y767734D01*
X527759Y767734D01*
X530420Y766632D01*
X532457Y764595D01*
X533559Y761934D01*
X533559Y759054D01*
X532457Y756393D01*
X530420Y754357D01*
X527759Y753254D01*
X524879Y753254D01*
G37*
%LPD*%
%LPC*%
G36*
X598028Y360343D02*
X598028Y360343D01*
X595367Y361445D01*
X593331Y363481D01*
X592229Y366142D01*
X592229Y369022D01*
X593331Y371683D01*
X595367Y373720D01*
X598028Y374822D01*
X600909Y374822D01*
X603570Y373720D01*
X605606Y371683D01*
X606708Y369022D01*
X606708Y366142D01*
X605606Y363481D01*
X603570Y361445D01*
X600909Y360343D01*
X598028Y360343D01*
G37*
%LPD*%
%LPC*%
G36*
X548028Y360343D02*
X548028Y360343D01*
X545367Y361445D01*
X543331Y363481D01*
X542229Y366142D01*
X542229Y369022D01*
X543331Y371683D01*
X545367Y373720D01*
X548028Y374822D01*
X550909Y374822D01*
X553570Y373720D01*
X555606Y371683D01*
X556708Y369022D01*
X556708Y366142D01*
X555606Y363481D01*
X553570Y361445D01*
X550909Y360343D01*
X548028Y360343D01*
G37*
%LPD*%
%LPC*%
G36*
X303386Y692126D02*
X303386Y692126D01*
X300725Y693228D01*
X298689Y695264D01*
X297587Y697925D01*
X297587Y700805D01*
X298689Y703466D01*
X300725Y705503D01*
X303386Y706605D01*
X306266Y706605D01*
X308927Y705503D01*
X310964Y703466D01*
X312066Y700805D01*
X312066Y697925D01*
X310964Y695264D01*
X308927Y693228D01*
X306266Y692126D01*
X303386Y692126D01*
G37*
%LPD*%
%LPC*%
G36*
X154686Y264326D02*
X154686Y264326D01*
X152025Y265428D01*
X149989Y267464D01*
X148887Y270125D01*
X148887Y273005D01*
X149989Y275666D01*
X152025Y277703D01*
X154686Y278805D01*
X157566Y278805D01*
X160227Y277703D01*
X162264Y275666D01*
X163366Y273005D01*
X163366Y270125D01*
X162264Y267464D01*
X160227Y265428D01*
X157566Y264326D01*
X154686Y264326D01*
G37*
%LPD*%
%LPC*%
G36*
X303386Y260326D02*
X303386Y260326D01*
X300725Y261428D01*
X298689Y263464D01*
X297587Y266125D01*
X297587Y269005D01*
X298689Y271666D01*
X300725Y273703D01*
X303386Y274805D01*
X306266Y274805D01*
X308927Y273703D01*
X310964Y271666D01*
X312066Y269005D01*
X312066Y266125D01*
X310964Y263464D01*
X308927Y261428D01*
X306266Y260326D01*
X303386Y260326D01*
G37*
%LPD*%
%LPC*%
G36*
X184186Y382326D02*
X184186Y382326D01*
X181525Y383428D01*
X179489Y385464D01*
X178387Y388125D01*
X178387Y391005D01*
X179489Y393666D01*
X181525Y395703D01*
X184186Y396805D01*
X187066Y396805D01*
X189727Y395703D01*
X191764Y393666D01*
X192866Y391005D01*
X192866Y388125D01*
X191764Y385464D01*
X189727Y383428D01*
X187066Y382326D01*
X184186Y382326D01*
G37*
%LPD*%
%LPC*%
G36*
X234186Y382326D02*
X234186Y382326D01*
X231525Y383428D01*
X229489Y385464D01*
X228387Y388125D01*
X228387Y391005D01*
X229489Y393666D01*
X231525Y395703D01*
X234186Y396805D01*
X237066Y396805D01*
X239727Y395703D01*
X241764Y393666D01*
X242866Y391005D01*
X242866Y388125D01*
X241764Y385464D01*
X239727Y383428D01*
X237066Y382326D01*
X234186Y382326D01*
G37*
%LPD*%
%LPC*%
G36*
X747795Y310287D02*
X747795Y310287D01*
X745134Y311389D01*
X743097Y313425D01*
X741995Y316086D01*
X741995Y318966D01*
X743097Y321627D01*
X745134Y323664D01*
X747795Y324766D01*
X750675Y324766D01*
X753336Y323664D01*
X755372Y321627D01*
X756474Y318966D01*
X756474Y316086D01*
X755372Y313425D01*
X753336Y311389D01*
X750675Y310287D01*
X747795Y310287D01*
G37*
%LPD*%
%LPC*%
G36*
X697778Y554929D02*
X697778Y554929D01*
X695117Y556031D01*
X693080Y558067D01*
X691978Y560728D01*
X691978Y563609D01*
X693080Y566270D01*
X695117Y568306D01*
X697778Y569408D01*
X700658Y569408D01*
X703319Y568306D01*
X705355Y566270D01*
X706457Y563609D01*
X706457Y560728D01*
X705355Y558067D01*
X703319Y556031D01*
X700658Y554929D01*
X697778Y554929D01*
G37*
%LPD*%
%LPC*%
G36*
X131186Y407926D02*
X131186Y407926D01*
X128525Y409028D01*
X126489Y411064D01*
X125387Y413725D01*
X125387Y416605D01*
X126489Y419266D01*
X128525Y421303D01*
X131186Y422405D01*
X134066Y422405D01*
X136727Y421303D01*
X138764Y419266D01*
X139866Y416605D01*
X139866Y413725D01*
X138764Y411064D01*
X136727Y409028D01*
X134066Y407926D01*
X131186Y407926D01*
G37*
%LPD*%
%LPC*%
G36*
X548028Y576243D02*
X548028Y576243D01*
X545367Y577345D01*
X543331Y579381D01*
X542229Y582042D01*
X542229Y584922D01*
X543331Y587583D01*
X545367Y589620D01*
X548028Y590722D01*
X550909Y590722D01*
X553570Y589620D01*
X555606Y587583D01*
X556708Y584922D01*
X556708Y582042D01*
X555606Y579381D01*
X553570Y577345D01*
X550909Y576243D01*
X548028Y576243D01*
G37*
%LPD*%
%LPC*%
G36*
X675795Y241087D02*
X675795Y241087D01*
X673134Y242189D01*
X671097Y244225D01*
X669995Y246886D01*
X669995Y249766D01*
X671097Y252427D01*
X673134Y254464D01*
X675795Y255566D01*
X678675Y255566D01*
X681336Y254464D01*
X683372Y252427D01*
X684474Y249766D01*
X684474Y246886D01*
X683372Y244225D01*
X681336Y242189D01*
X678675Y241087D01*
X675795Y241087D01*
G37*
%LPD*%
%LPC*%
G36*
X707795Y239287D02*
X707795Y239287D01*
X705134Y240389D01*
X703097Y242425D01*
X701995Y245086D01*
X701995Y247966D01*
X703097Y250627D01*
X705134Y252664D01*
X707795Y253766D01*
X710675Y253766D01*
X713336Y252664D01*
X715372Y250627D01*
X716474Y247966D01*
X716474Y245086D01*
X715372Y242425D01*
X713336Y240389D01*
X710675Y239287D01*
X707795Y239287D01*
G37*
%LPD*%
%LPC*%
G36*
X182386Y782126D02*
X182386Y782126D01*
X179725Y783228D01*
X177689Y785264D01*
X176587Y787925D01*
X176587Y790805D01*
X177689Y793466D01*
X179725Y795503D01*
X182386Y796605D01*
X185266Y796605D01*
X187927Y795503D01*
X189964Y793466D01*
X191066Y790805D01*
X191066Y787925D01*
X189964Y785264D01*
X187927Y783228D01*
X185266Y782126D01*
X182386Y782126D01*
G37*
%LPD*%
%LPC*%
G36*
X232386Y782126D02*
X232386Y782126D01*
X229725Y783228D01*
X227689Y785264D01*
X226587Y787925D01*
X226587Y790805D01*
X227689Y793466D01*
X229725Y795503D01*
X232386Y796605D01*
X235266Y796605D01*
X237927Y795503D01*
X239964Y793466D01*
X241066Y790805D01*
X241066Y787925D01*
X239964Y785264D01*
X237927Y783228D01*
X235266Y782126D01*
X232386Y782126D01*
G37*
%LPD*%
%LPC*%
G36*
X548028Y792143D02*
X548028Y792143D01*
X545367Y793245D01*
X543331Y795281D01*
X542229Y797942D01*
X542229Y800822D01*
X543331Y803483D01*
X545367Y805520D01*
X548028Y806622D01*
X550909Y806622D01*
X553570Y805520D01*
X555606Y803483D01*
X556708Y800822D01*
X556708Y797942D01*
X555606Y795281D01*
X553570Y793245D01*
X550909Y792143D01*
X548028Y792143D01*
G37*
%LPD*%
%LPC*%
G36*
X598028Y792143D02*
X598028Y792143D01*
X595367Y793245D01*
X593331Y795281D01*
X592229Y797942D01*
X592229Y800822D01*
X593331Y803483D01*
X595367Y805520D01*
X598028Y806622D01*
X600909Y806622D01*
X603570Y805520D01*
X605606Y803483D01*
X606708Y800822D01*
X606708Y797942D01*
X605606Y795281D01*
X603570Y793245D01*
X600909Y792143D01*
X598028Y792143D01*
G37*
%LPD*%
%LPC*%
G36*
X598028Y576243D02*
X598028Y576243D01*
X595367Y577345D01*
X593331Y579381D01*
X592229Y582042D01*
X592229Y584922D01*
X593331Y587583D01*
X595367Y589620D01*
X598028Y590722D01*
X600909Y590722D01*
X603570Y589620D01*
X605606Y587583D01*
X606708Y584922D01*
X606708Y582042D01*
X605606Y579381D01*
X603570Y577345D01*
X600909Y576243D01*
X598028Y576243D01*
G37*
%LPD*%
%LPC*%
G36*
X232386Y566226D02*
X232386Y566226D01*
X229725Y567328D01*
X227689Y569364D01*
X226587Y572025D01*
X226587Y574905D01*
X227689Y577566D01*
X229725Y579603D01*
X232386Y580705D01*
X235266Y580705D01*
X237927Y579603D01*
X239964Y577566D01*
X241066Y574905D01*
X241066Y572025D01*
X239964Y569364D01*
X237927Y567328D01*
X235266Y566226D01*
X232386Y566226D01*
G37*
%LPD*%
%LPC*%
G36*
X184186Y598226D02*
X184186Y598226D01*
X181525Y599328D01*
X179489Y601364D01*
X178387Y604025D01*
X178387Y606905D01*
X179489Y609566D01*
X181525Y611603D01*
X184186Y612705D01*
X187066Y612705D01*
X189727Y611603D01*
X191764Y609566D01*
X192866Y606905D01*
X192866Y604025D01*
X191764Y601364D01*
X189727Y599328D01*
X187066Y598226D01*
X184186Y598226D01*
G37*
%LPD*%
%LPC*%
G36*
X234186Y598226D02*
X234186Y598226D01*
X231525Y599328D01*
X229489Y601364D01*
X228387Y604025D01*
X228387Y606905D01*
X229489Y609566D01*
X231525Y611603D01*
X234186Y612705D01*
X237066Y612705D01*
X239727Y611603D01*
X241764Y609566D01*
X242866Y606905D01*
X242866Y604025D01*
X241764Y601364D01*
X239727Y599328D01*
X237066Y598226D01*
X234186Y598226D01*
G37*
%LPD*%
%LPC*%
G36*
X131186Y192026D02*
X131186Y192026D01*
X128525Y193128D01*
X126489Y195164D01*
X125387Y197825D01*
X125387Y200705D01*
X126489Y203366D01*
X128525Y205403D01*
X131186Y206505D01*
X134066Y206505D01*
X136727Y205403D01*
X138764Y203366D01*
X139866Y200705D01*
X139866Y197825D01*
X138764Y195164D01*
X136727Y193128D01*
X134066Y192026D01*
X131186Y192026D01*
G37*
%LPD*%
%LPC*%
G36*
X675795Y191087D02*
X675795Y191087D01*
X673134Y192189D01*
X671097Y194225D01*
X669995Y196886D01*
X669995Y199766D01*
X671097Y202427D01*
X673134Y204464D01*
X675795Y205566D01*
X678675Y205566D01*
X681336Y204464D01*
X683372Y202427D01*
X684474Y199766D01*
X684474Y196886D01*
X683372Y194225D01*
X681336Y192189D01*
X678675Y191087D01*
X675795Y191087D01*
G37*
%LPD*%
%LPC*%
G36*
X707795Y189287D02*
X707795Y189287D01*
X705134Y190389D01*
X703097Y192425D01*
X701995Y195086D01*
X701995Y197966D01*
X703097Y200627D01*
X705134Y202664D01*
X707795Y203766D01*
X710675Y203766D01*
X713336Y202664D01*
X715372Y200627D01*
X716474Y197966D01*
X716474Y195086D01*
X715372Y192425D01*
X713336Y190389D01*
X710675Y189287D01*
X707795Y189287D01*
G37*
%LPD*%
%LPC*%
G36*
X303386Y44426D02*
X303386Y44426D01*
X300725Y45528D01*
X298689Y47564D01*
X297587Y50225D01*
X297587Y53105D01*
X298689Y55766D01*
X300725Y57803D01*
X303386Y58905D01*
X306266Y58905D01*
X308927Y57803D01*
X310964Y55766D01*
X312066Y53105D01*
X312066Y50225D01*
X310964Y47564D01*
X308927Y45528D01*
X306266Y44426D01*
X303386Y44426D01*
G37*
%LPD*%
%LPC*%
G36*
X154686Y48426D02*
X154686Y48426D01*
X152025Y49528D01*
X149989Y51564D01*
X148887Y54225D01*
X148887Y57105D01*
X149989Y59766D01*
X152025Y61803D01*
X154686Y62905D01*
X157566Y62905D01*
X160227Y61803D01*
X162264Y59766D01*
X163366Y57105D01*
X163366Y54225D01*
X162264Y51564D01*
X160227Y49528D01*
X157566Y48426D01*
X154686Y48426D01*
G37*
%LPD*%
%LPC*%
G36*
X524879Y537354D02*
X524879Y537354D01*
X522218Y538457D01*
X520182Y540493D01*
X519080Y543154D01*
X519080Y546034D01*
X520182Y548695D01*
X522218Y550732D01*
X524879Y551834D01*
X527759Y551834D01*
X530420Y550732D01*
X532457Y548695D01*
X533559Y546034D01*
X533559Y543154D01*
X532457Y540493D01*
X530420Y538457D01*
X527759Y537354D01*
X524879Y537354D01*
G37*
%LPD*%
%LPC*%
G36*
X736666Y531780D02*
X736666Y531780D01*
X734005Y532882D01*
X731968Y534918D01*
X730866Y537579D01*
X730866Y540459D01*
X731968Y543120D01*
X734005Y545157D01*
X736666Y546259D01*
X739546Y546259D01*
X742207Y545157D01*
X744243Y543120D01*
X745346Y540459D01*
X745346Y537579D01*
X744243Y534918D01*
X742207Y532882D01*
X739546Y531780D01*
X736666Y531780D01*
G37*
%LPD*%
%LPC*%
G36*
X184186Y166426D02*
X184186Y166426D01*
X181525Y167528D01*
X179489Y169564D01*
X178387Y172225D01*
X178387Y175105D01*
X179489Y177766D01*
X181525Y179803D01*
X184186Y180905D01*
X187066Y180905D01*
X189727Y179803D01*
X191764Y177766D01*
X192866Y175105D01*
X192866Y172225D01*
X191764Y169564D01*
X189727Y167528D01*
X187066Y166426D01*
X184186Y166426D01*
G37*
%LPD*%
%LPC*%
G36*
X234186Y166426D02*
X234186Y166426D01*
X231525Y167528D01*
X229489Y169564D01*
X228387Y172225D01*
X228387Y175105D01*
X229489Y177766D01*
X231525Y179803D01*
X234186Y180905D01*
X237066Y180905D01*
X239727Y179803D01*
X241764Y177766D01*
X242866Y175105D01*
X242866Y172225D01*
X241764Y169564D01*
X239727Y167528D01*
X237066Y166426D01*
X234186Y166426D01*
G37*
%LPD*%
%LPC*%
G36*
X743795Y161587D02*
X743795Y161587D01*
X741134Y162689D01*
X739097Y164725D01*
X737995Y167386D01*
X737995Y170266D01*
X739097Y172927D01*
X741134Y174964D01*
X743795Y176066D01*
X746675Y176066D01*
X749336Y174964D01*
X751372Y172927D01*
X752474Y170266D01*
X752474Y167386D01*
X751372Y164725D01*
X749336Y162689D01*
X746675Y161587D01*
X743795Y161587D01*
G37*
%LPD*%
%LPC*%
G36*
X793795Y161587D02*
X793795Y161587D01*
X791134Y162689D01*
X789097Y164725D01*
X787995Y167386D01*
X787995Y170266D01*
X789097Y172927D01*
X791134Y174964D01*
X793795Y176066D01*
X796675Y176066D01*
X799336Y174964D01*
X801372Y172927D01*
X802474Y170266D01*
X802474Y167386D01*
X801372Y164725D01*
X799336Y162689D01*
X796675Y161587D01*
X793795Y161587D01*
G37*
%LPD*%
%LPC*%
G36*
X598028Y144443D02*
X598028Y144443D01*
X595367Y145545D01*
X593331Y147581D01*
X592229Y150242D01*
X592229Y153122D01*
X593331Y155783D01*
X595367Y157820D01*
X598028Y158922D01*
X600909Y158922D01*
X603570Y157820D01*
X605606Y155783D01*
X606708Y153122D01*
X606708Y150242D01*
X605606Y147581D01*
X603570Y145545D01*
X600909Y144443D01*
X598028Y144443D01*
G37*
%LPD*%
%LPC*%
G36*
X548028Y144443D02*
X548028Y144443D01*
X545367Y145545D01*
X543331Y147581D01*
X542229Y150242D01*
X542229Y153122D01*
X543331Y155783D01*
X545367Y157820D01*
X548028Y158922D01*
X550909Y158922D01*
X553570Y157820D01*
X555606Y155783D01*
X556708Y153122D01*
X556708Y150242D01*
X555606Y147581D01*
X553570Y145545D01*
X550909Y144443D01*
X548028Y144443D01*
G37*
%LPD*%
%LPC*%
G36*
X650195Y138087D02*
X650195Y138087D01*
X647534Y139189D01*
X645497Y141225D01*
X644395Y143886D01*
X644395Y146766D01*
X645497Y149427D01*
X647534Y151464D01*
X650195Y152566D01*
X653075Y152566D01*
X655736Y151464D01*
X657772Y149427D01*
X658874Y146766D01*
X658874Y143886D01*
X657772Y141225D01*
X655736Y139189D01*
X653075Y138087D01*
X650195Y138087D01*
G37*
%LPD*%
%LPC*%
G36*
X232386Y134426D02*
X232386Y134426D01*
X229725Y135528D01*
X227689Y137564D01*
X226587Y140225D01*
X226587Y143105D01*
X227689Y145766D01*
X229725Y147803D01*
X232386Y148905D01*
X235266Y148905D01*
X237927Y147803D01*
X239964Y145766D01*
X241066Y143105D01*
X241066Y140225D01*
X239964Y137564D01*
X237927Y135528D01*
X235266Y134426D01*
X232386Y134426D01*
G37*
%LPD*%
%LPC*%
G36*
X182386Y134426D02*
X182386Y134426D01*
X179725Y135528D01*
X177689Y137564D01*
X176587Y140225D01*
X176587Y143105D01*
X177689Y145766D01*
X179725Y147803D01*
X182386Y148905D01*
X185266Y148905D01*
X187927Y147803D01*
X189964Y145766D01*
X191066Y143105D01*
X191066Y140225D01*
X189964Y137564D01*
X187927Y135528D01*
X185266Y134426D01*
X182386Y134426D01*
G37*
%LPD*%
%LPC*%
G36*
X303386Y476226D02*
X303386Y476226D01*
X300725Y477328D01*
X298689Y479364D01*
X297587Y482025D01*
X297587Y484905D01*
X298689Y487566D01*
X300725Y489603D01*
X303386Y490705D01*
X306266Y490705D01*
X308927Y489603D01*
X310964Y487566D01*
X312066Y484905D01*
X312066Y482025D01*
X310964Y479364D01*
X308927Y477328D01*
X306266Y476226D01*
X303386Y476226D01*
G37*
%LPD*%
%LPC*%
G36*
X154686Y480226D02*
X154686Y480226D01*
X152025Y481328D01*
X149989Y483364D01*
X148887Y486025D01*
X148887Y488905D01*
X149989Y491566D01*
X152025Y493603D01*
X154686Y494705D01*
X157566Y494705D01*
X160227Y493603D01*
X162264Y491566D01*
X163366Y488905D01*
X163366Y486025D01*
X162264Y483364D01*
X160227Y481328D01*
X157566Y480226D01*
X154686Y480226D01*
G37*
%LPD*%
%LPC*%
G36*
X234186Y814126D02*
X234186Y814126D01*
X231525Y815228D01*
X229489Y817264D01*
X228387Y819925D01*
X228387Y822805D01*
X229489Y825466D01*
X231525Y827503D01*
X234186Y828605D01*
X237066Y828605D01*
X239727Y827503D01*
X241764Y825466D01*
X242866Y822805D01*
X242866Y819925D01*
X241764Y817264D01*
X239727Y815228D01*
X237066Y814126D01*
X234186Y814126D01*
G37*
%LPD*%
%LPC*%
G36*
X184186Y814126D02*
X184186Y814126D01*
X181525Y815228D01*
X179489Y817264D01*
X178387Y819925D01*
X178387Y822805D01*
X179489Y825466D01*
X181525Y827503D01*
X184186Y828605D01*
X187066Y828605D01*
X189727Y827503D01*
X191764Y825466D01*
X192866Y822805D01*
X192866Y819925D01*
X191764Y817264D01*
X189727Y815228D01*
X187066Y814126D01*
X184186Y814126D01*
G37*
%LPD*%
%LPC*%
G36*
X131186Y623826D02*
X131186Y623826D01*
X128525Y624928D01*
X126489Y626964D01*
X125387Y629625D01*
X125387Y632505D01*
X126489Y635166D01*
X128525Y637203D01*
X131186Y638305D01*
X134066Y638305D01*
X136727Y637203D01*
X138764Y635166D01*
X139866Y632505D01*
X139866Y629625D01*
X138764Y626964D01*
X136727Y624928D01*
X134066Y623826D01*
X131186Y623826D01*
G37*
%LPD*%
%LPC*%
G36*
X154686Y530226D02*
X154686Y530226D01*
X152025Y531328D01*
X149989Y533364D01*
X148887Y536025D01*
X148887Y538905D01*
X149989Y541566D01*
X152025Y543603D01*
X154686Y544705D01*
X157566Y544705D01*
X160227Y543603D01*
X162264Y541566D01*
X163366Y538905D01*
X163366Y536025D01*
X162264Y533364D01*
X160227Y531328D01*
X157566Y530226D01*
X154686Y530226D01*
G37*
%LPD*%
%LPC*%
G36*
X131186Y839726D02*
X131186Y839726D01*
X128525Y840828D01*
X126489Y842864D01*
X125387Y845525D01*
X125387Y848405D01*
X126489Y851066D01*
X128525Y853103D01*
X131186Y854205D01*
X134066Y854205D01*
X136727Y853103D01*
X138764Y851066D01*
X139866Y848405D01*
X139866Y845525D01*
X138764Y842864D01*
X136727Y840828D01*
X134066Y839726D01*
X131186Y839726D01*
G37*
%LPD*%
%LPC*%
G36*
X697778Y604929D02*
X697778Y604929D01*
X695117Y606031D01*
X693080Y608067D01*
X691978Y610728D01*
X691978Y613609D01*
X693080Y616270D01*
X695117Y618306D01*
X697778Y619408D01*
X700658Y619408D01*
X703319Y618306D01*
X705355Y616270D01*
X706457Y613609D01*
X706457Y610728D01*
X705355Y608067D01*
X703319Y606031D01*
X700658Y604929D01*
X697778Y604929D01*
G37*
%LPD*%
%LPC*%
G36*
X524879Y105554D02*
X524879Y105554D01*
X522218Y106657D01*
X520182Y108693D01*
X519080Y111354D01*
X519080Y114234D01*
X520182Y116895D01*
X522218Y118932D01*
X524879Y120034D01*
X527759Y120034D01*
X530420Y118932D01*
X532457Y116895D01*
X533559Y114234D01*
X533559Y111354D01*
X532457Y108693D01*
X530420Y106657D01*
X527759Y105554D01*
X524879Y105554D01*
G37*
%LPD*%
%LPC*%
G36*
X154686Y98426D02*
X154686Y98426D01*
X152025Y99528D01*
X149989Y101564D01*
X148887Y104225D01*
X148887Y107105D01*
X149989Y109766D01*
X152025Y111803D01*
X154686Y112905D01*
X157566Y112905D01*
X160227Y111803D01*
X162264Y109766D01*
X163366Y107105D01*
X163366Y104225D01*
X162264Y101564D01*
X160227Y99528D01*
X157566Y98426D01*
X154686Y98426D01*
G37*
%LPD*%
%LPC*%
G36*
X303386Y526226D02*
X303386Y526226D01*
X300725Y527328D01*
X298689Y529364D01*
X297587Y532025D01*
X297587Y534905D01*
X298689Y537566D01*
X300725Y539603D01*
X303386Y540705D01*
X306266Y540705D01*
X308927Y539603D01*
X310964Y537566D01*
X312066Y534905D01*
X312066Y532025D01*
X310964Y529364D01*
X308927Y527328D01*
X306266Y526226D01*
X303386Y526226D01*
G37*
%LPD*%
%LPC*%
G36*
X303386Y94426D02*
X303386Y94426D01*
X300725Y95528D01*
X298689Y97564D01*
X297587Y100225D01*
X297587Y103105D01*
X298689Y105766D01*
X300725Y107803D01*
X303386Y108905D01*
X306266Y108905D01*
X308927Y107803D01*
X310964Y105766D01*
X312066Y103105D01*
X312066Y100225D01*
X310964Y97564D01*
X308927Y95528D01*
X306266Y94426D01*
X303386Y94426D01*
G37*
%LPD*%
%LPC*%
G36*
X84213Y416752D02*
X84213Y416752D01*
X84213Y423267D01*
X85034Y423104D01*
X86537Y422481D01*
X87889Y421578D01*
X89039Y420428D01*
X89942Y419076D01*
X90565Y417574D01*
X90728Y416752D01*
X84213Y416752D01*
G37*
%LPD*%
%LPC*%
G36*
X84213Y200852D02*
X84213Y200852D01*
X84213Y207367D01*
X85034Y207204D01*
X86537Y206581D01*
X87889Y205678D01*
X89039Y204528D01*
X89942Y203176D01*
X90565Y201674D01*
X90728Y200852D01*
X84213Y200852D01*
G37*
%LPD*%
%LPC*%
G36*
X84213Y632652D02*
X84213Y632652D01*
X84213Y639167D01*
X85034Y639004D01*
X86537Y638381D01*
X87889Y637478D01*
X89039Y636328D01*
X89942Y634976D01*
X90565Y633474D01*
X90728Y632652D01*
X84213Y632652D01*
G37*
%LPD*%
%LPC*%
G36*
X653221Y96913D02*
X653221Y96913D01*
X653221Y103428D01*
X654043Y103265D01*
X655545Y102642D01*
X656897Y101739D01*
X658047Y100589D01*
X658951Y99237D01*
X659573Y97734D01*
X659736Y96913D01*
X653221Y96913D01*
G37*
%LPD*%
%LPC*%
G36*
X84213Y848552D02*
X84213Y848552D01*
X84213Y855067D01*
X85034Y854904D01*
X86537Y854281D01*
X87889Y853378D01*
X89039Y852228D01*
X89942Y850876D01*
X90565Y849374D01*
X90728Y848552D01*
X84213Y848552D01*
G37*
%LPD*%
%LPC*%
G36*
X74524Y632652D02*
X74524Y632652D01*
X74688Y633474D01*
X75310Y634976D01*
X76214Y636328D01*
X77363Y637478D01*
X78716Y638381D01*
X80218Y639004D01*
X81039Y639167D01*
X81039Y632652D01*
X74524Y632652D01*
G37*
%LPD*%
%LPC*%
G36*
X84213Y629479D02*
X84213Y629479D01*
X90728Y629479D01*
X90565Y628657D01*
X89942Y627155D01*
X89039Y625803D01*
X87889Y624653D01*
X86537Y623749D01*
X85034Y623127D01*
X84213Y622964D01*
X84213Y629479D01*
G37*
%LPD*%
%LPC*%
G36*
X74524Y848552D02*
X74524Y848552D01*
X74688Y849374D01*
X75310Y850876D01*
X76214Y852228D01*
X77363Y853378D01*
X78716Y854281D01*
X80218Y854904D01*
X81039Y855067D01*
X81039Y848552D01*
X74524Y848552D01*
G37*
%LPD*%
%LPC*%
G36*
X653221Y93739D02*
X653221Y93739D01*
X659736Y93739D01*
X659573Y92918D01*
X658951Y91416D01*
X658047Y90063D01*
X656897Y88914D01*
X655545Y88010D01*
X654043Y87388D01*
X653221Y87224D01*
X653221Y93739D01*
G37*
%LPD*%
%LPC*%
G36*
X84213Y413579D02*
X84213Y413579D01*
X90728Y413579D01*
X90565Y412757D01*
X89942Y411255D01*
X89039Y409903D01*
X87889Y408753D01*
X86537Y407849D01*
X85034Y407227D01*
X84213Y407064D01*
X84213Y413579D01*
G37*
%LPD*%
%LPC*%
G36*
X84213Y845379D02*
X84213Y845379D01*
X90728Y845379D01*
X90565Y844557D01*
X89942Y843055D01*
X89039Y841703D01*
X87889Y840553D01*
X86537Y839649D01*
X85034Y839027D01*
X84213Y838864D01*
X84213Y845379D01*
G37*
%LPD*%
%LPC*%
G36*
X643533Y96913D02*
X643533Y96913D01*
X643696Y97734D01*
X644319Y99237D01*
X645222Y100589D01*
X646372Y101739D01*
X647724Y102642D01*
X649226Y103265D01*
X650048Y103428D01*
X650048Y96913D01*
X643533Y96913D01*
G37*
%LPD*%
%LPC*%
G36*
X74524Y416752D02*
X74524Y416752D01*
X74688Y417574D01*
X75310Y419076D01*
X76214Y420428D01*
X77363Y421578D01*
X78716Y422481D01*
X80218Y423104D01*
X81039Y423267D01*
X81039Y416752D01*
X74524Y416752D01*
G37*
%LPD*%
%LPC*%
G36*
X84213Y197679D02*
X84213Y197679D01*
X90728Y197679D01*
X90565Y196857D01*
X89942Y195355D01*
X89039Y194003D01*
X87889Y192853D01*
X86537Y191949D01*
X85034Y191327D01*
X84213Y191164D01*
X84213Y197679D01*
G37*
%LPD*%
%LPC*%
G36*
X74524Y200852D02*
X74524Y200852D01*
X74688Y201674D01*
X75310Y203176D01*
X76214Y204528D01*
X77363Y205678D01*
X78716Y206581D01*
X80218Y207204D01*
X81039Y207367D01*
X81039Y200852D01*
X74524Y200852D01*
G37*
%LPD*%
%LPC*%
G36*
X80218Y839027D02*
X80218Y839027D01*
X78716Y839649D01*
X77363Y840553D01*
X76214Y841703D01*
X75310Y843055D01*
X74688Y844557D01*
X74524Y845379D01*
X81039Y845379D01*
X81039Y838864D01*
X80218Y839027D01*
G37*
%LPD*%
%LPC*%
G36*
X80218Y191327D02*
X80218Y191327D01*
X78716Y191949D01*
X77363Y192853D01*
X76214Y194003D01*
X75310Y195355D01*
X74688Y196857D01*
X74524Y197679D01*
X81039Y197679D01*
X81039Y191164D01*
X80218Y191327D01*
G37*
%LPD*%
%LPC*%
G36*
X649226Y87388D02*
X649226Y87388D01*
X647724Y88010D01*
X646372Y88914D01*
X645222Y90063D01*
X644319Y91416D01*
X643696Y92918D01*
X643533Y93739D01*
X650048Y93739D01*
X650048Y87224D01*
X649226Y87388D01*
G37*
%LPD*%
%LPC*%
G36*
X80218Y407227D02*
X80218Y407227D01*
X78716Y407849D01*
X77363Y408753D01*
X76214Y409903D01*
X75310Y411255D01*
X74688Y412757D01*
X74524Y413579D01*
X81039Y413579D01*
X81039Y407064D01*
X80218Y407227D01*
G37*
%LPD*%
%LPC*%
G36*
X80218Y623127D02*
X80218Y623127D01*
X78716Y623749D01*
X77363Y624653D01*
X76214Y625803D01*
X75310Y627155D01*
X74688Y628657D01*
X74524Y629479D01*
X81039Y629479D01*
X81039Y622964D01*
X80218Y623127D01*
G37*
%LPD*%
D10*
X304826Y101665D03*
X304826Y51665D03*
X235626Y173665D03*
X185626Y173665D03*
X132626Y199265D03*
X82626Y199265D03*
X233826Y141665D03*
X183826Y141665D03*
X156126Y105665D03*
X156126Y55665D03*
D11*
X373002Y41649D03*
D12*
X347602Y41649D03*
D11*
X344126Y69465D03*
D12*
X369526Y69465D03*
D11*
X399137Y95017D03*
D12*
X399137Y69617D03*
D11*
X395682Y41007D03*
D12*
X421082Y41007D03*
D11*
X520926Y204665D03*
D12*
X520926Y179265D03*
D11*
X495326Y175265D03*
D12*
X495326Y200665D03*
D13*
X577784Y123996D02*
X597342Y123996D01*
X597342Y98596D02*
X577784Y98596D01*
X577784Y73196D02*
X597342Y73196D01*
X107342Y123996D02*
X87784Y123996D01*
X87784Y98596D02*
X107342Y98596D01*
X107342Y73196D02*
X87784Y73196D01*
X346763Y183135D02*
X346763Y202693D01*
X372163Y202693D02*
X372163Y183135D01*
X397563Y183135D02*
X397563Y202693D01*
D10*
X476319Y112794D03*
X526319Y112794D03*
D14*
X529978Y45489D02*
X543186Y45489D01*
X543186Y70889D02*
X529978Y70889D01*
X466986Y70889D02*
X453778Y70889D01*
X453778Y45489D02*
X466986Y45489D01*
D10*
X429369Y117770D03*
X429369Y67770D03*
X549469Y151682D03*
X599469Y151682D03*
X304826Y317565D03*
X304826Y267565D03*
X235626Y389565D03*
X185626Y389565D03*
X132626Y415165D03*
X82626Y415165D03*
X233826Y357565D03*
X183826Y357565D03*
X156126Y321565D03*
X156126Y271565D03*
D11*
X373002Y257549D03*
D12*
X347602Y257549D03*
D11*
X344126Y285365D03*
D12*
X369526Y285365D03*
D11*
X399137Y310917D03*
D12*
X399137Y285517D03*
D11*
X395682Y256907D03*
D12*
X421082Y256907D03*
D11*
X520926Y420565D03*
D12*
X520926Y395165D03*
D11*
X495326Y391165D03*
D12*
X495326Y416565D03*
D13*
X577784Y339896D02*
X597342Y339896D01*
X597342Y314496D02*
X577784Y314496D01*
X577784Y289096D02*
X597342Y289096D01*
X107342Y339896D02*
X87784Y339896D01*
X87784Y314496D02*
X107342Y314496D01*
X107342Y289096D02*
X87784Y289096D01*
X346763Y399035D02*
X346763Y418593D01*
X372163Y418593D02*
X372163Y399035D01*
X397563Y399035D02*
X397563Y418593D01*
D10*
X476319Y328694D03*
X526319Y328694D03*
D14*
X529978Y261389D02*
X543186Y261389D01*
X543186Y286789D02*
X529978Y286789D01*
X466986Y286789D02*
X453778Y286789D01*
X453778Y261389D02*
X466986Y261389D01*
D10*
X429369Y333670D03*
X429369Y283670D03*
X549469Y367582D03*
X599469Y367582D03*
X304826Y533465D03*
X304826Y483465D03*
X235626Y605465D03*
X185626Y605465D03*
X132626Y631065D03*
X82626Y631065D03*
X233826Y573465D03*
X183826Y573465D03*
X156126Y537465D03*
X156126Y487465D03*
D11*
X373002Y473449D03*
D12*
X347602Y473449D03*
D11*
X344126Y501265D03*
D12*
X369526Y501265D03*
D11*
X399137Y526817D03*
D12*
X399137Y501417D03*
D11*
X395682Y472807D03*
D12*
X421082Y472807D03*
D11*
X520926Y636465D03*
D12*
X520926Y611065D03*
D11*
X495326Y607065D03*
D12*
X495326Y632465D03*
D13*
X577784Y555796D02*
X597342Y555796D01*
X597342Y530396D02*
X577784Y530396D01*
X577784Y504996D02*
X597342Y504996D01*
X107342Y555796D02*
X87784Y555796D01*
X87784Y530396D02*
X107342Y530396D01*
X107342Y504996D02*
X87784Y504996D01*
X346763Y614935D02*
X346763Y634493D01*
X372163Y634493D02*
X372163Y614935D01*
X397563Y614935D02*
X397563Y634493D01*
D10*
X476319Y544594D03*
X526319Y544594D03*
D14*
X529978Y477289D02*
X543186Y477289D01*
X543186Y502689D02*
X529978Y502689D01*
X466986Y502689D02*
X453778Y502689D01*
X453778Y477289D02*
X466986Y477289D01*
D10*
X429369Y549570D03*
X429369Y499570D03*
X549469Y583482D03*
X599469Y583482D03*
X304826Y749365D03*
X304826Y699365D03*
X235626Y821365D03*
X185626Y821365D03*
X132626Y846965D03*
X82626Y846965D03*
X233826Y789365D03*
X183826Y789365D03*
X156126Y753365D03*
X156126Y703365D03*
D11*
X373002Y689349D03*
D12*
X347602Y689349D03*
D11*
X344126Y717165D03*
D12*
X369526Y717165D03*
D11*
X399137Y742717D03*
D12*
X399137Y717317D03*
D11*
X395682Y688707D03*
D12*
X421082Y688707D03*
D11*
X520926Y852365D03*
D12*
X520926Y826965D03*
D11*
X495326Y822965D03*
D12*
X495326Y848365D03*
D13*
X577784Y771696D02*
X597342Y771696D01*
X597342Y746296D02*
X577784Y746296D01*
X577784Y720896D02*
X597342Y720896D01*
X107342Y771696D02*
X87784Y771696D01*
X87784Y746296D02*
X107342Y746296D01*
X107342Y720896D02*
X87784Y720896D01*
X346763Y830835D02*
X346763Y850393D01*
X372163Y850393D02*
X372163Y830835D01*
X397563Y830835D02*
X397563Y850393D01*
D10*
X476319Y760494D03*
X526319Y760494D03*
D14*
X529978Y693189D02*
X543186Y693189D01*
X543186Y718589D02*
X529978Y718589D01*
X466986Y718589D02*
X453778Y718589D01*
X453778Y693189D02*
X466986Y693189D01*
D10*
X429369Y765470D03*
X429369Y715470D03*
X549469Y799382D03*
X599469Y799382D03*
X749235Y317526D03*
X799235Y317526D03*
X677235Y248326D03*
X677235Y198326D03*
X651635Y145326D03*
X651635Y95326D03*
X709235Y246526D03*
X709235Y196526D03*
X745235Y168826D03*
X795235Y168826D03*
D11*
X809251Y385702D03*
D12*
X809251Y360302D03*
D11*
X781435Y356826D03*
D12*
X781435Y382226D03*
D11*
X755883Y411837D03*
D12*
X781283Y411837D03*
D11*
X809893Y408382D03*
D12*
X809893Y433782D03*
D11*
X646235Y533626D03*
D12*
X671635Y533626D03*
D11*
X675635Y508026D03*
D12*
X650235Y508026D03*
D13*
X726904Y590484D02*
X726904Y610042D01*
X752304Y610042D02*
X752304Y590484D01*
X777704Y590484D02*
X777704Y610042D01*
X726904Y120042D02*
X726904Y100484D01*
X752304Y100484D02*
X752304Y120042D01*
X777704Y120042D02*
X777704Y100484D01*
X667765Y359463D02*
X648207Y359463D01*
X648207Y384863D02*
X667765Y384863D01*
X667765Y410263D02*
X648207Y410263D01*
D10*
X738106Y489019D03*
X738106Y539019D03*
D14*
X805411Y542678D02*
X805411Y555886D01*
X780011Y555886D02*
X780011Y542678D01*
X780011Y479686D02*
X780011Y466478D01*
X805411Y466478D02*
X805411Y479686D01*
D10*
X733130Y442069D03*
X783130Y442069D03*
X699218Y562169D03*
X699218Y612169D03*
D15*
X259370Y88873D03*
D16*
X429369Y67770D02*
X444325Y67770D01*
X450095Y61999D01*
X527692Y61999D01*
X536582Y70889D01*
X475778Y113257D02*
X468158Y113257D01*
X454410Y127005D01*
X402658Y127005D01*
X364526Y88873D01*
X297470Y88873D01*
X475778Y113257D02*
X476319Y112794D01*
D15*
X297470Y88873D03*
X259370Y304773D03*
D16*
X429369Y283670D02*
X444325Y283670D01*
X450095Y277899D01*
X527692Y277899D01*
X536582Y286789D01*
X475778Y329157D02*
X468158Y329157D01*
X454410Y342905D01*
X402658Y342905D01*
X364526Y304773D01*
X297470Y304773D01*
X475778Y329157D02*
X476319Y328694D01*
D15*
X297470Y304773D03*
X259370Y520673D03*
D16*
X429369Y499570D02*
X444325Y499570D01*
X450095Y493799D01*
X527692Y493799D01*
X536582Y502689D01*
X475778Y545057D02*
X468158Y545057D01*
X454410Y558805D01*
X402658Y558805D01*
X364526Y520673D01*
X297470Y520673D01*
X475778Y545057D02*
X476319Y544594D01*
D15*
X297470Y520673D03*
X259370Y736573D03*
D16*
X429369Y715470D02*
X444325Y715470D01*
X450095Y709699D01*
X527692Y709699D01*
X536582Y718589D01*
X475778Y760957D02*
X468158Y760957D01*
X454410Y774705D01*
X402658Y774705D01*
X364526Y736573D01*
X297470Y736573D01*
X475778Y760957D02*
X476319Y760494D01*
D15*
X297470Y736573D03*
X762027Y272070D03*
D16*
X783130Y442069D02*
X783130Y457025D01*
X788901Y462795D01*
X788901Y540392D01*
X780011Y549282D01*
X737643Y488478D02*
X737643Y480858D01*
X723895Y467110D01*
X723895Y415358D01*
X762027Y377226D01*
X762027Y310170D01*
X737643Y488478D02*
X738106Y489019D01*
D15*
X762027Y310170D03*
M02*
