G04 EAGLE Gerber X2 export*
%TF.Part,Single*%
%TF.FileFunction,Copper,L1,Top,Mixed*%
%TF.FilePolarity,Positive*%
%TF.GenerationSoftware,Autodesk,EAGLE,9.2.2*%
%TF.CreationDate,2019-04-19T13:45:25Z*%
G75*
%MOMM*%
%FSLAX34Y34*%
%LPD*%
%INTop Copper*%
%AMOC8*
5,1,8,0,0,1.08239X$1,22.5*%
G01*
%ADD10C,1.143000*%
%ADD11R,2.032000X0.660400*%
%ADD12R,1.803000X1.600000*%
%ADD13R,1.600000X1.803000*%
%ADD14C,1.408000*%
%ADD15R,1.408000X1.408000*%
%ADD16R,2.184400X1.320800*%
%ADD17C,1.955800*%
%ADD18C,1.320800*%
%ADD19R,1.320800X2.184400*%
%ADD20C,0.030478*%
%ADD21R,0.660400X2.032000*%
%ADD22C,0.152400*%
%ADD23C,0.756400*%
%ADD24C,0.203200*%

G36*
X818039Y589505D02*
X818039Y589505D01*
X818041Y589507D01*
X818043Y589506D01*
X820310Y590041D01*
X820312Y590044D01*
X820314Y590043D01*
X822462Y590943D01*
X822463Y590946D01*
X822466Y590945D01*
X824437Y592186D01*
X824438Y592189D01*
X824440Y592189D01*
X826181Y593736D01*
X826182Y593739D01*
X826184Y593739D01*
X827648Y595551D01*
X827647Y595554D01*
X827650Y595555D01*
X828796Y597583D01*
X828795Y597585D01*
X828798Y597586D01*
X829596Y599775D01*
X829595Y599777D01*
X829597Y599779D01*
X830025Y602068D01*
X830024Y602069D01*
X830025Y602070D01*
X830022Y602074D01*
X830008Y602096D01*
X830004Y602094D01*
X830001Y602098D01*
X801426Y602098D01*
X801425Y602097D01*
X801424Y602098D01*
X801421Y602093D01*
X801401Y602076D01*
X801402Y602075D01*
X801402Y602074D01*
X801404Y602071D01*
X801401Y602068D01*
X801829Y599779D01*
X801832Y599777D01*
X801831Y599775D01*
X802629Y597586D01*
X802631Y597585D01*
X802630Y597583D01*
X803776Y595555D01*
X803779Y595554D01*
X803779Y595551D01*
X805242Y593739D01*
X805245Y593739D01*
X805245Y593736D01*
X806986Y592189D01*
X806989Y592189D01*
X806989Y592186D01*
X808961Y590945D01*
X808963Y590946D01*
X808964Y590943D01*
X811113Y590043D01*
X811115Y590044D01*
X811116Y590041D01*
X813383Y589506D01*
X813386Y589507D01*
X813387Y589505D01*
X815711Y589348D01*
X815713Y589350D01*
X815715Y589348D01*
X818039Y589505D01*
G37*
G36*
X830001Y604271D02*
X830001Y604271D01*
X830002Y604271D01*
X830005Y604275D01*
X830025Y604292D01*
X830022Y604296D01*
X830025Y604300D01*
X829597Y606590D01*
X829595Y606591D01*
X829596Y606594D01*
X828798Y608782D01*
X828795Y608783D01*
X828796Y608786D01*
X827650Y610814D01*
X827647Y610815D01*
X827648Y610817D01*
X826184Y612629D01*
X826181Y612630D01*
X826181Y612632D01*
X824440Y614180D01*
X824437Y614180D01*
X824437Y614182D01*
X822466Y615423D01*
X822463Y615423D01*
X822462Y615425D01*
X820314Y616326D01*
X820311Y616325D01*
X820310Y616327D01*
X818043Y616863D01*
X818040Y616861D01*
X818039Y616863D01*
X815715Y617020D01*
X815713Y617019D01*
X815711Y617020D01*
X813387Y616863D01*
X813385Y616861D01*
X813383Y616863D01*
X811116Y616327D01*
X811115Y616325D01*
X811113Y616326D01*
X808964Y615425D01*
X808963Y615422D01*
X808961Y615423D01*
X806989Y614182D01*
X806988Y614179D01*
X806986Y614180D01*
X805245Y612632D01*
X805245Y612629D01*
X805242Y612629D01*
X803779Y610817D01*
X803779Y610814D01*
X803776Y610814D01*
X802630Y608786D01*
X802631Y608783D01*
X802629Y608782D01*
X801831Y606594D01*
X801831Y606592D01*
X801830Y606592D01*
X801831Y606591D01*
X801829Y606590D01*
X801401Y604300D01*
X801402Y604299D01*
X801401Y604298D01*
X801405Y604295D01*
X801418Y604272D01*
X801422Y604274D01*
X801426Y604271D01*
X830001Y604271D01*
X830001Y604271D01*
G37*
G36*
X591596Y236778D02*
X591596Y236778D01*
X591600Y236775D01*
X593890Y237203D01*
X593891Y237205D01*
X593894Y237204D01*
X596082Y238002D01*
X596083Y238005D01*
X596086Y238004D01*
X598114Y239150D01*
X598115Y239153D01*
X598117Y239152D01*
X599929Y240616D01*
X599930Y240619D01*
X599932Y240619D01*
X601480Y242360D01*
X601480Y242363D01*
X601482Y242363D01*
X602723Y244334D01*
X602723Y244337D01*
X602725Y244338D01*
X603626Y246486D01*
X603625Y246489D01*
X603627Y246490D01*
X604163Y248757D01*
X604161Y248760D01*
X604163Y248761D01*
X604320Y251085D01*
X604319Y251087D01*
X604320Y251089D01*
X604163Y253413D01*
X604162Y253414D01*
X604162Y253415D01*
X604161Y253415D01*
X604163Y253417D01*
X603627Y255684D01*
X603625Y255685D01*
X603626Y255687D01*
X602725Y257836D01*
X602722Y257837D01*
X602723Y257839D01*
X601482Y259811D01*
X601479Y259812D01*
X601480Y259814D01*
X599932Y261555D01*
X599929Y261555D01*
X599929Y261558D01*
X598117Y263021D01*
X598114Y263021D01*
X598114Y263024D01*
X596086Y264170D01*
X596083Y264169D01*
X596082Y264172D01*
X593894Y264970D01*
X593891Y264968D01*
X593890Y264971D01*
X591600Y265399D01*
X591599Y265398D01*
X591598Y265399D01*
X591595Y265396D01*
X591572Y265382D01*
X591574Y265378D01*
X591571Y265374D01*
X591571Y236799D01*
X591571Y236798D01*
X591575Y236795D01*
X591592Y236775D01*
X591596Y236778D01*
G37*
G36*
X591596Y668578D02*
X591596Y668578D01*
X591600Y668575D01*
X593890Y669003D01*
X593891Y669005D01*
X593894Y669004D01*
X596082Y669802D01*
X596083Y669805D01*
X596086Y669804D01*
X598114Y670950D01*
X598115Y670953D01*
X598117Y670952D01*
X599929Y672416D01*
X599930Y672419D01*
X599932Y672419D01*
X601480Y674160D01*
X601480Y674163D01*
X601482Y674163D01*
X602723Y676134D01*
X602723Y676137D01*
X602725Y676138D01*
X603626Y678286D01*
X603625Y678289D01*
X603627Y678290D01*
X604163Y680557D01*
X604161Y680560D01*
X604163Y680561D01*
X604320Y682885D01*
X604319Y682887D01*
X604320Y682889D01*
X604163Y685213D01*
X604161Y685214D01*
X604162Y685215D01*
X604161Y685215D01*
X604163Y685217D01*
X603627Y687484D01*
X603625Y687485D01*
X603626Y687487D01*
X602725Y689636D01*
X602722Y689637D01*
X602723Y689639D01*
X601482Y691611D01*
X601479Y691612D01*
X601480Y691614D01*
X599932Y693355D01*
X599929Y693355D01*
X599929Y693358D01*
X598117Y694821D01*
X598114Y694821D01*
X598114Y694824D01*
X596086Y695970D01*
X596083Y695969D01*
X596082Y695972D01*
X593894Y696770D01*
X593891Y696768D01*
X593890Y696771D01*
X591600Y697199D01*
X591599Y697198D01*
X591598Y697199D01*
X591595Y697196D01*
X591572Y697182D01*
X591574Y697178D01*
X591571Y697174D01*
X591571Y668599D01*
X591571Y668598D01*
X591575Y668595D01*
X591592Y668575D01*
X591596Y668578D01*
G37*
G36*
X591596Y20878D02*
X591596Y20878D01*
X591600Y20875D01*
X593890Y21303D01*
X593891Y21305D01*
X593894Y21304D01*
X596082Y22102D01*
X596083Y22105D01*
X596086Y22104D01*
X598114Y23250D01*
X598115Y23253D01*
X598117Y23252D01*
X599929Y24716D01*
X599930Y24719D01*
X599932Y24719D01*
X601480Y26460D01*
X601480Y26463D01*
X601482Y26463D01*
X602723Y28434D01*
X602723Y28437D01*
X602725Y28438D01*
X603626Y30586D01*
X603625Y30589D01*
X603627Y30590D01*
X604163Y32857D01*
X604161Y32860D01*
X604163Y32861D01*
X604320Y35185D01*
X604319Y35187D01*
X604320Y35189D01*
X604163Y37513D01*
X604161Y37514D01*
X604162Y37515D01*
X604161Y37515D01*
X604163Y37517D01*
X603627Y39784D01*
X603625Y39785D01*
X603626Y39787D01*
X602725Y41936D01*
X602722Y41937D01*
X602723Y41939D01*
X601482Y43911D01*
X601479Y43912D01*
X601480Y43914D01*
X599932Y45655D01*
X599929Y45655D01*
X599929Y45658D01*
X598117Y47121D01*
X598114Y47121D01*
X598114Y47124D01*
X596086Y48270D01*
X596083Y48269D01*
X596082Y48272D01*
X593894Y49070D01*
X593891Y49068D01*
X593890Y49071D01*
X591600Y49499D01*
X591599Y49498D01*
X591598Y49499D01*
X591595Y49496D01*
X591572Y49482D01*
X591574Y49478D01*
X591571Y49474D01*
X591571Y20899D01*
X591571Y20898D01*
X591575Y20895D01*
X591592Y20875D01*
X591596Y20878D01*
G37*
G36*
X591596Y452678D02*
X591596Y452678D01*
X591600Y452675D01*
X593890Y453103D01*
X593891Y453105D01*
X593894Y453104D01*
X596082Y453902D01*
X596083Y453905D01*
X596086Y453904D01*
X598114Y455050D01*
X598115Y455053D01*
X598117Y455052D01*
X599929Y456516D01*
X599930Y456519D01*
X599932Y456519D01*
X601480Y458260D01*
X601480Y458263D01*
X601482Y458263D01*
X602723Y460234D01*
X602723Y460237D01*
X602725Y460238D01*
X603626Y462386D01*
X603625Y462389D01*
X603627Y462390D01*
X604163Y464657D01*
X604161Y464660D01*
X604163Y464661D01*
X604320Y466985D01*
X604319Y466987D01*
X604320Y466989D01*
X604163Y469313D01*
X604161Y469314D01*
X604162Y469315D01*
X604161Y469315D01*
X604163Y469317D01*
X603627Y471584D01*
X603625Y471585D01*
X603626Y471587D01*
X602725Y473736D01*
X602722Y473737D01*
X602723Y473739D01*
X601482Y475711D01*
X601479Y475712D01*
X601480Y475714D01*
X599932Y477455D01*
X599929Y477455D01*
X599929Y477458D01*
X598117Y478921D01*
X598114Y478921D01*
X598114Y478924D01*
X596086Y480070D01*
X596083Y480069D01*
X596082Y480072D01*
X593894Y480870D01*
X593891Y480868D01*
X593890Y480871D01*
X591600Y481299D01*
X591599Y481298D01*
X591598Y481299D01*
X591595Y481296D01*
X591572Y481282D01*
X591574Y481278D01*
X591571Y481274D01*
X591571Y452699D01*
X591571Y452698D01*
X591575Y452695D01*
X591592Y452675D01*
X591596Y452678D01*
G37*
G36*
X589374Y452678D02*
X589374Y452678D01*
X589396Y452692D01*
X589394Y452696D01*
X589398Y452699D01*
X589398Y481274D01*
X589397Y481275D01*
X589398Y481276D01*
X589393Y481279D01*
X589376Y481299D01*
X589372Y481296D01*
X589368Y481299D01*
X587079Y480871D01*
X587077Y480868D01*
X587075Y480870D01*
X584886Y480072D01*
X584885Y480069D01*
X584883Y480070D01*
X582855Y478924D01*
X582854Y478921D01*
X582851Y478921D01*
X581039Y477458D01*
X581039Y477455D01*
X581036Y477455D01*
X579489Y475714D01*
X579489Y475711D01*
X579486Y475711D01*
X578245Y473739D01*
X578246Y473737D01*
X578243Y473736D01*
X577343Y471587D01*
X577344Y471585D01*
X577341Y471584D01*
X576806Y469317D01*
X576807Y469314D01*
X576805Y469313D01*
X576648Y466989D01*
X576650Y466987D01*
X576648Y466985D01*
X576805Y464661D01*
X576807Y464659D01*
X576806Y464657D01*
X577341Y462390D01*
X577344Y462389D01*
X577343Y462386D01*
X578243Y460238D01*
X578246Y460237D01*
X578245Y460234D01*
X579486Y458263D01*
X579489Y458262D01*
X579489Y458260D01*
X581036Y456519D01*
X581039Y456518D01*
X581039Y456516D01*
X582851Y455052D01*
X582854Y455053D01*
X582855Y455050D01*
X584883Y453904D01*
X584885Y453905D01*
X584886Y453902D01*
X587075Y453104D01*
X587077Y453105D01*
X587079Y453103D01*
X589368Y452675D01*
X589369Y452676D01*
X589370Y452675D01*
X589374Y452678D01*
G37*
G36*
X589374Y236778D02*
X589374Y236778D01*
X589396Y236792D01*
X589394Y236796D01*
X589398Y236799D01*
X589398Y265374D01*
X589397Y265375D01*
X589398Y265376D01*
X589393Y265379D01*
X589376Y265399D01*
X589372Y265396D01*
X589368Y265399D01*
X587079Y264971D01*
X587077Y264968D01*
X587075Y264970D01*
X584886Y264172D01*
X584885Y264169D01*
X584883Y264170D01*
X582855Y263024D01*
X582854Y263021D01*
X582851Y263021D01*
X581039Y261558D01*
X581039Y261555D01*
X581036Y261555D01*
X579489Y259814D01*
X579489Y259811D01*
X579486Y259811D01*
X578245Y257839D01*
X578246Y257837D01*
X578243Y257836D01*
X577343Y255687D01*
X577344Y255685D01*
X577341Y255684D01*
X576806Y253417D01*
X576807Y253414D01*
X576805Y253413D01*
X576648Y251089D01*
X576650Y251087D01*
X576648Y251085D01*
X576805Y248761D01*
X576807Y248759D01*
X576806Y248757D01*
X577341Y246490D01*
X577344Y246489D01*
X577343Y246486D01*
X578243Y244338D01*
X578246Y244337D01*
X578245Y244334D01*
X579486Y242363D01*
X579489Y242362D01*
X579489Y242360D01*
X581036Y240619D01*
X581039Y240618D01*
X581039Y240616D01*
X582851Y239152D01*
X582854Y239153D01*
X582855Y239150D01*
X584883Y238004D01*
X584885Y238005D01*
X584886Y238002D01*
X587075Y237204D01*
X587077Y237205D01*
X587079Y237203D01*
X589368Y236775D01*
X589369Y236776D01*
X589370Y236775D01*
X589374Y236778D01*
G37*
G36*
X589374Y20878D02*
X589374Y20878D01*
X589396Y20892D01*
X589394Y20896D01*
X589398Y20899D01*
X589398Y49474D01*
X589397Y49475D01*
X589398Y49476D01*
X589393Y49479D01*
X589376Y49499D01*
X589372Y49496D01*
X589368Y49499D01*
X587079Y49071D01*
X587077Y49068D01*
X587075Y49070D01*
X584886Y48272D01*
X584885Y48269D01*
X584883Y48270D01*
X582855Y47124D01*
X582854Y47121D01*
X582851Y47121D01*
X581039Y45658D01*
X581039Y45655D01*
X581036Y45655D01*
X579489Y43914D01*
X579489Y43911D01*
X579486Y43911D01*
X578245Y41939D01*
X578246Y41937D01*
X578243Y41936D01*
X577343Y39787D01*
X577344Y39785D01*
X577341Y39784D01*
X576806Y37517D01*
X576807Y37514D01*
X576805Y37513D01*
X576648Y35189D01*
X576650Y35187D01*
X576648Y35185D01*
X576805Y32861D01*
X576807Y32859D01*
X576806Y32857D01*
X577341Y30590D01*
X577344Y30589D01*
X577343Y30586D01*
X578243Y28438D01*
X578246Y28437D01*
X578245Y28434D01*
X579486Y26463D01*
X579489Y26462D01*
X579489Y26460D01*
X581036Y24719D01*
X581039Y24718D01*
X581039Y24716D01*
X582851Y23252D01*
X582854Y23253D01*
X582855Y23250D01*
X584883Y22104D01*
X584885Y22105D01*
X584886Y22102D01*
X587075Y21304D01*
X587077Y21305D01*
X587079Y21303D01*
X589368Y20875D01*
X589369Y20876D01*
X589370Y20875D01*
X589374Y20878D01*
G37*
G36*
X589374Y668578D02*
X589374Y668578D01*
X589396Y668592D01*
X589394Y668596D01*
X589398Y668599D01*
X589398Y697174D01*
X589397Y697175D01*
X589398Y697176D01*
X589393Y697179D01*
X589376Y697199D01*
X589372Y697196D01*
X589368Y697199D01*
X587079Y696771D01*
X587077Y696768D01*
X587075Y696770D01*
X584886Y695972D01*
X584885Y695969D01*
X584883Y695970D01*
X582855Y694824D01*
X582854Y694821D01*
X582851Y694821D01*
X581039Y693358D01*
X581039Y693355D01*
X581036Y693355D01*
X579489Y691614D01*
X579489Y691611D01*
X579486Y691611D01*
X578245Y689639D01*
X578246Y689637D01*
X578243Y689636D01*
X577343Y687487D01*
X577344Y687485D01*
X577341Y687484D01*
X576806Y685217D01*
X576807Y685214D01*
X576805Y685213D01*
X576648Y682889D01*
X576650Y682887D01*
X576648Y682885D01*
X576805Y680561D01*
X576807Y680559D01*
X576806Y680557D01*
X577341Y678290D01*
X577344Y678289D01*
X577343Y678286D01*
X578243Y676138D01*
X578246Y676137D01*
X578245Y676134D01*
X579486Y674163D01*
X579489Y674162D01*
X579489Y674160D01*
X581036Y672419D01*
X581039Y672418D01*
X581039Y672416D01*
X582851Y670952D01*
X582854Y670953D01*
X582855Y670950D01*
X584883Y669804D01*
X584885Y669805D01*
X584886Y669802D01*
X587075Y669004D01*
X587077Y669005D01*
X587079Y669003D01*
X589368Y668575D01*
X589369Y668576D01*
X589370Y668575D01*
X589374Y668578D01*
G37*
D10*
X304826Y101665D03*
X304826Y51665D03*
X235626Y173665D03*
X185626Y173665D03*
X132626Y199265D03*
X82626Y199265D03*
X233826Y141665D03*
X183826Y141665D03*
X156126Y105665D03*
X156126Y55665D03*
D11*
X275560Y50215D03*
X214092Y50215D03*
X275560Y62915D03*
X275560Y75615D03*
X214092Y62915D03*
X214092Y75615D03*
X275560Y88315D03*
X214092Y88315D03*
D12*
X302841Y168329D03*
X302841Y196769D03*
X273768Y196569D03*
X273768Y168129D03*
D13*
X211546Y203765D03*
X183106Y203765D03*
X304046Y140114D03*
X275606Y140114D03*
D12*
X187926Y82385D03*
X187926Y53945D03*
D13*
X370546Y95965D03*
X342106Y95965D03*
X191306Y111165D03*
X219746Y111165D03*
D14*
X373002Y41649D03*
D15*
X347602Y41649D03*
D14*
X344126Y69465D03*
D15*
X369526Y69465D03*
D14*
X399137Y95017D03*
D15*
X399137Y69617D03*
D14*
X395682Y41007D03*
D15*
X421082Y41007D03*
D16*
X554426Y200595D03*
X598426Y187865D03*
X554426Y175135D03*
D13*
X503418Y147443D03*
X474978Y147443D03*
D14*
X520926Y204665D03*
D15*
X520926Y179265D03*
D14*
X495326Y175265D03*
D15*
X495326Y200665D03*
D17*
X577784Y123996D02*
X597342Y123996D01*
X597342Y98596D02*
X577784Y98596D01*
X577784Y73196D02*
X597342Y73196D01*
X107342Y123996D02*
X87784Y123996D01*
X87784Y98596D02*
X107342Y98596D01*
X107342Y73196D02*
X87784Y73196D01*
X346763Y183135D02*
X346763Y202693D01*
X372163Y202693D02*
X372163Y183135D01*
X397563Y183135D02*
X397563Y202693D01*
D10*
X476319Y112794D03*
X526319Y112794D03*
D13*
X274479Y110201D03*
X246039Y110201D03*
D18*
X529978Y45489D02*
X543186Y45489D01*
X543186Y70889D02*
X529978Y70889D01*
X466986Y70889D02*
X453778Y70889D01*
X453778Y45489D02*
X466986Y45489D01*
D19*
X421713Y148943D03*
X434443Y192943D03*
X447173Y148943D03*
D12*
X468651Y175142D03*
X468651Y203582D03*
D10*
X429369Y117770D03*
X429369Y67770D03*
X549469Y151682D03*
X599469Y151682D03*
D20*
X577174Y36559D02*
X577174Y33815D01*
X577174Y36559D02*
X578394Y36559D01*
X578394Y33815D01*
X577174Y33815D01*
X577174Y34105D02*
X578394Y34105D01*
X578394Y34395D02*
X577174Y34395D01*
X577174Y34685D02*
X578394Y34685D01*
X578394Y34975D02*
X577174Y34975D01*
X577174Y35265D02*
X578394Y35265D01*
X578394Y35555D02*
X577174Y35555D01*
X577174Y35845D02*
X578394Y35845D01*
X578394Y36135D02*
X577174Y36135D01*
X577174Y36425D02*
X578394Y36425D01*
X603794Y36559D02*
X603794Y33815D01*
X602574Y33815D01*
X602574Y36559D01*
X603794Y36559D01*
X603794Y34105D02*
X602574Y34105D01*
X602574Y34395D02*
X603794Y34395D01*
X603794Y34685D02*
X602574Y34685D01*
X602574Y34975D02*
X603794Y34975D01*
X603794Y35265D02*
X602574Y35265D01*
X602574Y35555D02*
X603794Y35555D01*
X603794Y35845D02*
X602574Y35845D01*
X602574Y36135D02*
X603794Y36135D01*
X603794Y36425D02*
X602574Y36425D01*
D10*
X304826Y317565D03*
X304826Y267565D03*
X235626Y389565D03*
X185626Y389565D03*
X132626Y415165D03*
X82626Y415165D03*
X233826Y357565D03*
X183826Y357565D03*
X156126Y321565D03*
X156126Y271565D03*
D11*
X275560Y266115D03*
X214092Y266115D03*
X275560Y278815D03*
X275560Y291515D03*
X214092Y278815D03*
X214092Y291515D03*
X275560Y304215D03*
X214092Y304215D03*
D12*
X302841Y384229D03*
X302841Y412669D03*
X273768Y412469D03*
X273768Y384029D03*
D13*
X211546Y419665D03*
X183106Y419665D03*
X304046Y356014D03*
X275606Y356014D03*
D12*
X187926Y298285D03*
X187926Y269845D03*
D13*
X370546Y311865D03*
X342106Y311865D03*
X191306Y327065D03*
X219746Y327065D03*
D14*
X373002Y257549D03*
D15*
X347602Y257549D03*
D14*
X344126Y285365D03*
D15*
X369526Y285365D03*
D14*
X399137Y310917D03*
D15*
X399137Y285517D03*
D14*
X395682Y256907D03*
D15*
X421082Y256907D03*
D16*
X554426Y416495D03*
X598426Y403765D03*
X554426Y391035D03*
D13*
X503418Y363343D03*
X474978Y363343D03*
D14*
X520926Y420565D03*
D15*
X520926Y395165D03*
D14*
X495326Y391165D03*
D15*
X495326Y416565D03*
D17*
X577784Y339896D02*
X597342Y339896D01*
X597342Y314496D02*
X577784Y314496D01*
X577784Y289096D02*
X597342Y289096D01*
X107342Y339896D02*
X87784Y339896D01*
X87784Y314496D02*
X107342Y314496D01*
X107342Y289096D02*
X87784Y289096D01*
X346763Y399035D02*
X346763Y418593D01*
X372163Y418593D02*
X372163Y399035D01*
X397563Y399035D02*
X397563Y418593D01*
D10*
X476319Y328694D03*
X526319Y328694D03*
D13*
X274479Y326101D03*
X246039Y326101D03*
D18*
X529978Y261389D02*
X543186Y261389D01*
X543186Y286789D02*
X529978Y286789D01*
X466986Y286789D02*
X453778Y286789D01*
X453778Y261389D02*
X466986Y261389D01*
D19*
X421713Y364843D03*
X434443Y408843D03*
X447173Y364843D03*
D12*
X468651Y391042D03*
X468651Y419482D03*
D10*
X429369Y333670D03*
X429369Y283670D03*
X549469Y367582D03*
X599469Y367582D03*
D20*
X577174Y252459D02*
X577174Y249715D01*
X577174Y252459D02*
X578394Y252459D01*
X578394Y249715D01*
X577174Y249715D01*
X577174Y250005D02*
X578394Y250005D01*
X578394Y250295D02*
X577174Y250295D01*
X577174Y250585D02*
X578394Y250585D01*
X578394Y250875D02*
X577174Y250875D01*
X577174Y251165D02*
X578394Y251165D01*
X578394Y251455D02*
X577174Y251455D01*
X577174Y251745D02*
X578394Y251745D01*
X578394Y252035D02*
X577174Y252035D01*
X577174Y252325D02*
X578394Y252325D01*
X603794Y252459D02*
X603794Y249715D01*
X602574Y249715D01*
X602574Y252459D01*
X603794Y252459D01*
X603794Y250005D02*
X602574Y250005D01*
X602574Y250295D02*
X603794Y250295D01*
X603794Y250585D02*
X602574Y250585D01*
X602574Y250875D02*
X603794Y250875D01*
X603794Y251165D02*
X602574Y251165D01*
X602574Y251455D02*
X603794Y251455D01*
X603794Y251745D02*
X602574Y251745D01*
X602574Y252035D02*
X603794Y252035D01*
X603794Y252325D02*
X602574Y252325D01*
D10*
X304826Y533465D03*
X304826Y483465D03*
X235626Y605465D03*
X185626Y605465D03*
X132626Y631065D03*
X82626Y631065D03*
X233826Y573465D03*
X183826Y573465D03*
X156126Y537465D03*
X156126Y487465D03*
D11*
X275560Y482015D03*
X214092Y482015D03*
X275560Y494715D03*
X275560Y507415D03*
X214092Y494715D03*
X214092Y507415D03*
X275560Y520115D03*
X214092Y520115D03*
D12*
X302841Y600129D03*
X302841Y628569D03*
X273768Y628369D03*
X273768Y599929D03*
D13*
X211546Y635565D03*
X183106Y635565D03*
X304046Y571914D03*
X275606Y571914D03*
D12*
X187926Y514185D03*
X187926Y485745D03*
D13*
X370546Y527765D03*
X342106Y527765D03*
X191306Y542965D03*
X219746Y542965D03*
D14*
X373002Y473449D03*
D15*
X347602Y473449D03*
D14*
X344126Y501265D03*
D15*
X369526Y501265D03*
D14*
X399137Y526817D03*
D15*
X399137Y501417D03*
D14*
X395682Y472807D03*
D15*
X421082Y472807D03*
D16*
X554426Y632395D03*
X598426Y619665D03*
X554426Y606935D03*
D13*
X503418Y579243D03*
X474978Y579243D03*
D14*
X520926Y636465D03*
D15*
X520926Y611065D03*
D14*
X495326Y607065D03*
D15*
X495326Y632465D03*
D17*
X577784Y555796D02*
X597342Y555796D01*
X597342Y530396D02*
X577784Y530396D01*
X577784Y504996D02*
X597342Y504996D01*
X107342Y555796D02*
X87784Y555796D01*
X87784Y530396D02*
X107342Y530396D01*
X107342Y504996D02*
X87784Y504996D01*
X346763Y614935D02*
X346763Y634493D01*
X372163Y634493D02*
X372163Y614935D01*
X397563Y614935D02*
X397563Y634493D01*
D10*
X476319Y544594D03*
X526319Y544594D03*
D13*
X274479Y542001D03*
X246039Y542001D03*
D18*
X529978Y477289D02*
X543186Y477289D01*
X543186Y502689D02*
X529978Y502689D01*
X466986Y502689D02*
X453778Y502689D01*
X453778Y477289D02*
X466986Y477289D01*
D19*
X421713Y580743D03*
X434443Y624743D03*
X447173Y580743D03*
D12*
X468651Y606942D03*
X468651Y635382D03*
D10*
X429369Y549570D03*
X429369Y499570D03*
X549469Y583482D03*
X599469Y583482D03*
D20*
X577174Y468359D02*
X577174Y465615D01*
X577174Y468359D02*
X578394Y468359D01*
X578394Y465615D01*
X577174Y465615D01*
X577174Y465905D02*
X578394Y465905D01*
X578394Y466195D02*
X577174Y466195D01*
X577174Y466485D02*
X578394Y466485D01*
X578394Y466775D02*
X577174Y466775D01*
X577174Y467065D02*
X578394Y467065D01*
X578394Y467355D02*
X577174Y467355D01*
X577174Y467645D02*
X578394Y467645D01*
X578394Y467935D02*
X577174Y467935D01*
X577174Y468225D02*
X578394Y468225D01*
X603794Y468359D02*
X603794Y465615D01*
X602574Y465615D01*
X602574Y468359D01*
X603794Y468359D01*
X603794Y465905D02*
X602574Y465905D01*
X602574Y466195D02*
X603794Y466195D01*
X603794Y466485D02*
X602574Y466485D01*
X602574Y466775D02*
X603794Y466775D01*
X603794Y467065D02*
X602574Y467065D01*
X602574Y467355D02*
X603794Y467355D01*
X603794Y467645D02*
X602574Y467645D01*
X602574Y467935D02*
X603794Y467935D01*
X603794Y468225D02*
X602574Y468225D01*
D10*
X304826Y749365D03*
X304826Y699365D03*
X235626Y821365D03*
X185626Y821365D03*
X132626Y846965D03*
X82626Y846965D03*
X233826Y789365D03*
X183826Y789365D03*
X156126Y753365D03*
X156126Y703365D03*
D11*
X275560Y697915D03*
X214092Y697915D03*
X275560Y710615D03*
X275560Y723315D03*
X214092Y710615D03*
X214092Y723315D03*
X275560Y736015D03*
X214092Y736015D03*
D12*
X302841Y816029D03*
X302841Y844469D03*
X273768Y844269D03*
X273768Y815829D03*
D13*
X211546Y851465D03*
X183106Y851465D03*
X304046Y787814D03*
X275606Y787814D03*
D12*
X187926Y730085D03*
X187926Y701645D03*
D13*
X370546Y743665D03*
X342106Y743665D03*
X191306Y758865D03*
X219746Y758865D03*
D14*
X373002Y689349D03*
D15*
X347602Y689349D03*
D14*
X344126Y717165D03*
D15*
X369526Y717165D03*
D14*
X399137Y742717D03*
D15*
X399137Y717317D03*
D14*
X395682Y688707D03*
D15*
X421082Y688707D03*
D16*
X554426Y848295D03*
X598426Y835565D03*
X554426Y822835D03*
D13*
X503418Y795143D03*
X474978Y795143D03*
D14*
X520926Y852365D03*
D15*
X520926Y826965D03*
D14*
X495326Y822965D03*
D15*
X495326Y848365D03*
D17*
X577784Y771696D02*
X597342Y771696D01*
X597342Y746296D02*
X577784Y746296D01*
X577784Y720896D02*
X597342Y720896D01*
X107342Y771696D02*
X87784Y771696D01*
X87784Y746296D02*
X107342Y746296D01*
X107342Y720896D02*
X87784Y720896D01*
X346763Y830835D02*
X346763Y850393D01*
X372163Y850393D02*
X372163Y830835D01*
X397563Y830835D02*
X397563Y850393D01*
D10*
X476319Y760494D03*
X526319Y760494D03*
D13*
X274479Y757901D03*
X246039Y757901D03*
D18*
X529978Y693189D02*
X543186Y693189D01*
X543186Y718589D02*
X529978Y718589D01*
X466986Y718589D02*
X453778Y718589D01*
X453778Y693189D02*
X466986Y693189D01*
D19*
X421713Y796643D03*
X434443Y840643D03*
X447173Y796643D03*
D12*
X468651Y822842D03*
X468651Y851282D03*
D10*
X429369Y765470D03*
X429369Y715470D03*
X549469Y799382D03*
X599469Y799382D03*
D20*
X577174Y684259D02*
X577174Y681515D01*
X577174Y684259D02*
X578394Y684259D01*
X578394Y681515D01*
X577174Y681515D01*
X577174Y681805D02*
X578394Y681805D01*
X578394Y682095D02*
X577174Y682095D01*
X577174Y682385D02*
X578394Y682385D01*
X578394Y682675D02*
X577174Y682675D01*
X577174Y682965D02*
X578394Y682965D01*
X578394Y683255D02*
X577174Y683255D01*
X577174Y683545D02*
X578394Y683545D01*
X578394Y683835D02*
X577174Y683835D01*
X577174Y684125D02*
X578394Y684125D01*
X603794Y684259D02*
X603794Y681515D01*
X602574Y681515D01*
X602574Y684259D01*
X603794Y684259D01*
X603794Y681805D02*
X602574Y681805D01*
X602574Y682095D02*
X603794Y682095D01*
X603794Y682385D02*
X602574Y682385D01*
X602574Y682675D02*
X603794Y682675D01*
X603794Y682965D02*
X602574Y682965D01*
X602574Y683255D02*
X603794Y683255D01*
X603794Y683545D02*
X602574Y683545D01*
X602574Y683835D02*
X603794Y683835D01*
X603794Y684125D02*
X602574Y684125D01*
D10*
X749235Y317526D03*
X799235Y317526D03*
X677235Y248326D03*
X677235Y198326D03*
X651635Y145326D03*
X651635Y95326D03*
X709235Y246526D03*
X709235Y196526D03*
X745235Y168826D03*
X795235Y168826D03*
D21*
X800685Y288260D03*
X800685Y226792D03*
X787985Y288260D03*
X775285Y288260D03*
X787985Y226792D03*
X775285Y226792D03*
X762585Y288260D03*
X762585Y226792D03*
D13*
X682571Y315541D03*
X654131Y315541D03*
X654331Y286468D03*
X682771Y286468D03*
D12*
X647135Y224246D03*
X647135Y195806D03*
X710786Y316746D03*
X710786Y288306D03*
D13*
X768515Y200626D03*
X796955Y200626D03*
D12*
X754935Y383246D03*
X754935Y354806D03*
X739735Y204006D03*
X739735Y232446D03*
D14*
X809251Y385702D03*
D15*
X809251Y360302D03*
D14*
X781435Y356826D03*
D15*
X781435Y382226D03*
D14*
X755883Y411837D03*
D15*
X781283Y411837D03*
D14*
X809893Y408382D03*
D15*
X809893Y433782D03*
D19*
X650305Y567126D03*
X663035Y611126D03*
X675765Y567126D03*
D12*
X703457Y516118D03*
X703457Y487678D03*
D14*
X646235Y533626D03*
D15*
X671635Y533626D03*
D14*
X675635Y508026D03*
D15*
X650235Y508026D03*
D17*
X726904Y590484D02*
X726904Y610042D01*
X752304Y610042D02*
X752304Y590484D01*
X777704Y590484D02*
X777704Y610042D01*
X726904Y120042D02*
X726904Y100484D01*
X752304Y100484D02*
X752304Y120042D01*
X777704Y120042D02*
X777704Y100484D01*
X667765Y359463D02*
X648207Y359463D01*
X648207Y384863D02*
X667765Y384863D01*
X667765Y410263D02*
X648207Y410263D01*
D10*
X738106Y489019D03*
X738106Y539019D03*
D12*
X740699Y287179D03*
X740699Y258739D03*
D18*
X805411Y542678D02*
X805411Y555886D01*
X780011Y555886D02*
X780011Y542678D01*
X780011Y479686D02*
X780011Y466478D01*
X805411Y466478D02*
X805411Y479686D01*
D16*
X701957Y434413D03*
X657957Y447143D03*
X701957Y459873D03*
D13*
X675758Y481351D03*
X647318Y481351D03*
D10*
X733130Y442069D03*
X783130Y442069D03*
X699218Y562169D03*
X699218Y612169D03*
D20*
X814341Y589874D02*
X817085Y589874D01*
X814341Y589874D02*
X814341Y591094D01*
X817085Y591094D01*
X817085Y589874D01*
X817085Y590164D02*
X814341Y590164D01*
X814341Y590454D02*
X817085Y590454D01*
X817085Y590744D02*
X814341Y590744D01*
X814341Y591034D02*
X817085Y591034D01*
X817085Y616494D02*
X814341Y616494D01*
X817085Y616494D02*
X817085Y615274D01*
X814341Y615274D01*
X814341Y616494D01*
X814341Y615564D02*
X817085Y615564D01*
X817085Y615854D02*
X814341Y615854D01*
X814341Y616144D02*
X817085Y616144D01*
X817085Y616434D02*
X814341Y616434D01*
D22*
X213650Y50773D02*
X206030Y50773D01*
X199934Y56869D01*
X199934Y62965D01*
X192314Y70585D01*
X99350Y70585D01*
X97826Y72109D01*
X213650Y50773D02*
X214092Y50215D01*
X97826Y72109D02*
X97563Y73196D01*
X259370Y88873D02*
X274610Y88873D01*
X275560Y88315D01*
D23*
X259370Y88873D03*
D22*
X245654Y110209D02*
X221270Y110209D01*
X245654Y110209D02*
X246039Y110201D01*
X221270Y110209D02*
X219746Y111165D01*
X215174Y105637D02*
X215174Y88873D01*
X215174Y105637D02*
X219746Y110209D01*
X215174Y88873D02*
X214092Y88315D01*
X219746Y110209D02*
X219746Y111165D01*
X219746Y111733D02*
X219746Y117829D01*
X187742Y149833D01*
X151166Y149833D01*
X100874Y99541D01*
X97826Y99541D01*
X219746Y111165D02*
X219746Y111733D01*
X97826Y99541D02*
X97563Y98596D01*
X536738Y70585D02*
X536738Y66013D01*
X553502Y49249D01*
X553502Y43153D01*
X537850Y27500D01*
X115003Y27500D01*
X74966Y67537D01*
X74966Y78205D01*
X96302Y99541D01*
X536582Y70889D02*
X536738Y70585D01*
X97563Y98596D02*
X96302Y99541D01*
X516926Y90545D02*
X536582Y70889D01*
X516926Y90545D02*
X516926Y137635D01*
X554426Y175135D01*
D24*
X549469Y170178D01*
D22*
X549469Y151682D01*
X587495Y125897D02*
X587495Y177713D01*
X587495Y125897D02*
X588554Y125449D01*
X587495Y177713D02*
X598426Y187865D01*
X588554Y125449D02*
X587563Y123996D01*
X273086Y169645D02*
X239558Y169645D01*
X236510Y172693D01*
X273086Y169645D02*
X273768Y168129D01*
X236510Y172693D02*
X235626Y173665D01*
X183170Y175741D02*
X183170Y200125D01*
X183170Y203173D01*
X183170Y175741D02*
X184694Y174217D01*
X183170Y203173D02*
X183106Y203765D01*
X184694Y174217D02*
X185626Y173665D01*
X183170Y200125D02*
X132878Y200125D01*
X132626Y199265D01*
X183170Y200125D02*
X183106Y203765D01*
X234986Y140689D02*
X274610Y140689D01*
X275606Y140114D01*
X234986Y140689D02*
X233826Y141665D01*
X189266Y108685D02*
X189266Y105637D01*
X189266Y82777D01*
X189266Y108685D02*
X190790Y110209D01*
X189266Y82777D02*
X187926Y82385D01*
X190790Y110209D02*
X191306Y111165D01*
X189266Y105637D02*
X157262Y105637D01*
X156126Y105665D01*
X189266Y105637D02*
X191306Y111165D01*
X184694Y117829D02*
X184694Y140689D01*
X184694Y117829D02*
X190790Y111733D01*
X184694Y140689D02*
X183826Y141665D01*
X190790Y111733D02*
X191306Y111165D01*
X341666Y94969D02*
X341666Y81253D01*
X314234Y53821D01*
X314234Y49249D01*
X308138Y43153D01*
X257846Y43153D01*
X225842Y75157D01*
X215174Y75157D01*
X341666Y94969D02*
X342106Y95965D01*
X215174Y75157D02*
X214092Y75615D01*
X199934Y81253D02*
X189266Y81253D01*
X199934Y81253D02*
X204506Y76681D01*
X213650Y76681D01*
X189266Y81253D02*
X187926Y82385D01*
X213650Y76681D02*
X214092Y75615D01*
X344714Y69061D02*
X344714Y44483D01*
X344714Y69061D02*
X344126Y69465D01*
X344714Y44483D02*
X347602Y41649D01*
X396530Y41300D02*
X396530Y67537D01*
X398054Y69061D01*
X396530Y41300D02*
X395682Y41007D01*
X398054Y69061D02*
X399137Y69617D01*
X370622Y70585D02*
X370622Y94969D01*
X370622Y70585D02*
X369526Y69465D01*
X370622Y94969D02*
X398054Y94969D01*
X399137Y95017D01*
X370622Y94969D02*
X370546Y95965D01*
X283754Y62965D02*
X276134Y62965D01*
X283754Y62965D02*
X303566Y82777D01*
X303566Y101065D01*
X276134Y62965D02*
X275560Y62915D01*
X303566Y101065D02*
X304826Y101665D01*
X302042Y168121D02*
X300320Y169843D01*
X274610Y195553D01*
X273768Y196569D01*
X266990Y203173D02*
X212126Y203173D01*
X266990Y203173D02*
X273086Y197077D01*
X212126Y203173D02*
X211546Y203765D01*
X273086Y197077D02*
X273768Y196569D01*
X303566Y105234D02*
X303566Y102589D01*
X303566Y105234D02*
X286698Y122102D01*
X286698Y156220D01*
X300320Y169843D01*
X303566Y102589D02*
X304826Y101665D01*
X302042Y168121D02*
X302841Y168329D01*
X527594Y111733D02*
X574838Y111733D01*
X587030Y99541D01*
X527594Y111733D02*
X526319Y112794D01*
X587030Y99541D02*
X587563Y98596D01*
X588554Y98017D02*
X588554Y73633D01*
X587563Y73196D01*
X588554Y98017D02*
X587563Y98596D01*
X587563Y73196D02*
X587563Y44966D01*
X577784Y35187D01*
X187742Y55345D02*
X157262Y55345D01*
X187742Y55345D02*
X187926Y53945D01*
X157262Y55345D02*
X156126Y55665D01*
X215174Y61441D02*
X224318Y61441D01*
X227366Y58393D01*
X227366Y46201D01*
X224318Y43153D01*
X199934Y43153D01*
X189266Y53821D01*
X214092Y62915D02*
X215174Y61441D01*
X189266Y53821D02*
X187926Y53945D01*
X513878Y67537D02*
X535214Y46201D01*
X536582Y45489D01*
X250226Y46201D02*
X227366Y46201D01*
X250226Y46201D02*
X265524Y30903D01*
X477245Y30903D01*
X513298Y66957D02*
X513878Y67537D01*
X513298Y66957D02*
X477245Y30903D01*
X513298Y137563D02*
X503418Y147443D01*
X513298Y137563D02*
X513298Y66957D01*
X459014Y44677D02*
X427010Y44677D01*
X420914Y38581D01*
X459014Y44677D02*
X460382Y45489D01*
X421082Y41007D02*
X420914Y40637D01*
X373922Y41216D02*
X373002Y41649D01*
X419745Y39899D02*
X421082Y41007D01*
X373002Y41649D02*
X373002Y54898D01*
X389811Y71707D01*
X389811Y77604D01*
X391150Y78943D01*
X397048Y78943D01*
X398286Y80181D01*
X399524Y78943D01*
X407124Y78943D01*
X420914Y65153D01*
X420914Y40637D01*
X420914Y38581D01*
X460382Y70889D02*
X460538Y72109D01*
X494066Y200125D02*
X495326Y200665D01*
X497114Y203173D02*
X519974Y203173D01*
X497114Y203173D02*
X495590Y201649D01*
X519974Y203173D02*
X520528Y204040D01*
X520926Y204665D01*
X495590Y201649D02*
X495359Y200788D01*
X495326Y200665D01*
X495359Y200788D02*
X494518Y200788D01*
X493132Y103639D02*
X460382Y70889D01*
X537260Y166540D02*
X537260Y187308D01*
X520528Y204040D01*
X493132Y157405D02*
X493132Y103639D01*
X493132Y157405D02*
X502267Y166540D01*
X537260Y166540D01*
X495376Y175265D02*
X495326Y175265D01*
X495376Y175265D02*
X516926Y175265D01*
X520926Y179265D01*
X475684Y148274D02*
X474978Y147443D01*
X475684Y148274D02*
X497122Y173519D01*
X495376Y175265D01*
X475016Y148943D02*
X447173Y148943D01*
X475016Y148943D02*
X475684Y148274D01*
X305156Y141224D02*
X304046Y140114D01*
D24*
X363903Y140114D01*
X397563Y173775D02*
X397563Y192914D01*
X397563Y173775D02*
X363903Y140114D01*
D22*
X303566Y50773D02*
X276134Y50773D01*
X275560Y50215D01*
X303566Y50773D02*
X304826Y51665D01*
X305090Y51929D01*
X305090Y67029D01*
D24*
X313081Y75020D01*
X313081Y109390D01*
X293506Y128965D01*
X293506Y150182D01*
X298054Y154729D01*
X335779Y154729D01*
X372163Y191113D01*
X372163Y192914D01*
D22*
X303566Y195553D02*
X302841Y196769D01*
X342909Y196769D01*
X346763Y192914D01*
X274610Y108685D02*
X288326Y94969D01*
X288326Y88873D02*
X288326Y79729D01*
X288326Y88873D02*
X288326Y94969D01*
X288326Y79729D02*
X285278Y76681D01*
X276134Y76681D01*
X274610Y108685D02*
X274479Y110201D01*
X276134Y76681D02*
X275560Y75615D01*
X288326Y88873D02*
X297470Y88873D01*
D23*
X297470Y88873D03*
D22*
X434443Y192943D02*
X452243Y175142D01*
X468651Y175142D01*
X468651Y203582D02*
X480931Y203582D01*
X491340Y213991D01*
X543946Y213991D01*
X558651Y199287D02*
X558651Y197147D01*
X554426Y203511D02*
X543946Y213991D01*
X554426Y203511D02*
X554426Y200595D01*
D24*
X610400Y197009D02*
X611888Y195521D01*
X611888Y180209D01*
X558012Y197009D02*
X554426Y200595D01*
X558012Y197009D02*
X610400Y197009D01*
X611888Y180209D02*
X599469Y167790D01*
X599469Y152481D01*
X599469Y151682D01*
D22*
X557342Y200595D02*
X554426Y200595D01*
X557342Y200595D02*
X558651Y199287D01*
X612381Y44384D02*
X603184Y35187D01*
X612381Y44384D02*
X612381Y139721D01*
X612229Y139721D01*
X599469Y152481D01*
X429369Y117770D02*
X421713Y125425D01*
X421713Y148943D01*
X213650Y266673D02*
X206030Y266673D01*
X199934Y272769D01*
X199934Y278865D01*
X192314Y286485D01*
X99350Y286485D01*
X97826Y288009D01*
X213650Y266673D02*
X214092Y266115D01*
X97826Y288009D02*
X97563Y289096D01*
X259370Y304773D02*
X274610Y304773D01*
X275560Y304215D01*
D23*
X259370Y304773D03*
D22*
X245654Y326109D02*
X221270Y326109D01*
X245654Y326109D02*
X246039Y326101D01*
X221270Y326109D02*
X219746Y327065D01*
X215174Y321537D02*
X215174Y304773D01*
X215174Y321537D02*
X219746Y326109D01*
X215174Y304773D02*
X214092Y304215D01*
X219746Y326109D02*
X219746Y327065D01*
X219746Y327633D02*
X219746Y333729D01*
X187742Y365733D01*
X151166Y365733D01*
X100874Y315441D01*
X97826Y315441D01*
X219746Y327065D02*
X219746Y327633D01*
X97826Y315441D02*
X97563Y314496D01*
X536738Y286485D02*
X536738Y281913D01*
X553502Y265149D01*
X553502Y259053D01*
X537850Y243400D01*
X115003Y243400D01*
X74966Y283437D01*
X74966Y294105D01*
X96302Y315441D01*
X536582Y286789D02*
X536738Y286485D01*
X97563Y314496D02*
X96302Y315441D01*
X516926Y306445D02*
X536582Y286789D01*
X516926Y306445D02*
X516926Y353535D01*
X554426Y391035D01*
D24*
X549469Y386078D01*
D22*
X549469Y367582D01*
X587495Y341797D02*
X587495Y393613D01*
X587495Y341797D02*
X588554Y341349D01*
X587495Y393613D02*
X598426Y403765D01*
X588554Y341349D02*
X587563Y339896D01*
X273086Y385545D02*
X239558Y385545D01*
X236510Y388593D01*
X273086Y385545D02*
X273768Y384029D01*
X236510Y388593D02*
X235626Y389565D01*
X183170Y391641D02*
X183170Y416025D01*
X183170Y419073D01*
X183170Y391641D02*
X184694Y390117D01*
X183170Y419073D02*
X183106Y419665D01*
X184694Y390117D02*
X185626Y389565D01*
X183170Y416025D02*
X132878Y416025D01*
X132626Y415165D01*
X183170Y416025D02*
X183106Y419665D01*
X234986Y356589D02*
X274610Y356589D01*
X275606Y356014D01*
X234986Y356589D02*
X233826Y357565D01*
X189266Y324585D02*
X189266Y321537D01*
X189266Y298677D01*
X189266Y324585D02*
X190790Y326109D01*
X189266Y298677D02*
X187926Y298285D01*
X190790Y326109D02*
X191306Y327065D01*
X189266Y321537D02*
X157262Y321537D01*
X156126Y321565D01*
X189266Y321537D02*
X191306Y327065D01*
X184694Y333729D02*
X184694Y356589D01*
X184694Y333729D02*
X190790Y327633D01*
X184694Y356589D02*
X183826Y357565D01*
X190790Y327633D02*
X191306Y327065D01*
X341666Y310869D02*
X341666Y297153D01*
X314234Y269721D01*
X314234Y265149D01*
X308138Y259053D01*
X257846Y259053D01*
X225842Y291057D01*
X215174Y291057D01*
X341666Y310869D02*
X342106Y311865D01*
X215174Y291057D02*
X214092Y291515D01*
X199934Y297153D02*
X189266Y297153D01*
X199934Y297153D02*
X204506Y292581D01*
X213650Y292581D01*
X189266Y297153D02*
X187926Y298285D01*
X213650Y292581D02*
X214092Y291515D01*
X344714Y284961D02*
X344714Y260383D01*
X344714Y284961D02*
X344126Y285365D01*
X344714Y260383D02*
X347602Y257549D01*
X396530Y257200D02*
X396530Y283437D01*
X398054Y284961D01*
X396530Y257200D02*
X395682Y256907D01*
X398054Y284961D02*
X399137Y285517D01*
X370622Y286485D02*
X370622Y310869D01*
X370622Y286485D02*
X369526Y285365D01*
X370622Y310869D02*
X398054Y310869D01*
X399137Y310917D01*
X370622Y310869D02*
X370546Y311865D01*
X283754Y278865D02*
X276134Y278865D01*
X283754Y278865D02*
X303566Y298677D01*
X303566Y316965D01*
X276134Y278865D02*
X275560Y278815D01*
X303566Y316965D02*
X304826Y317565D01*
X302042Y384021D02*
X300320Y385743D01*
X274610Y411453D01*
X273768Y412469D01*
X266990Y419073D02*
X212126Y419073D01*
X266990Y419073D02*
X273086Y412977D01*
X212126Y419073D02*
X211546Y419665D01*
X273086Y412977D02*
X273768Y412469D01*
X303566Y321134D02*
X303566Y318489D01*
X303566Y321134D02*
X286698Y338002D01*
X286698Y372120D01*
X300320Y385743D01*
X303566Y318489D02*
X304826Y317565D01*
X302042Y384021D02*
X302841Y384229D01*
X527594Y327633D02*
X574838Y327633D01*
X587030Y315441D01*
X527594Y327633D02*
X526319Y328694D01*
X587030Y315441D02*
X587563Y314496D01*
X588554Y313917D02*
X588554Y289533D01*
X587563Y289096D01*
X588554Y313917D02*
X587563Y314496D01*
X587563Y289096D02*
X587563Y260866D01*
X577784Y251087D01*
X187742Y271245D02*
X157262Y271245D01*
X187742Y271245D02*
X187926Y269845D01*
X157262Y271245D02*
X156126Y271565D01*
X215174Y277341D02*
X224318Y277341D01*
X227366Y274293D01*
X227366Y262101D01*
X224318Y259053D01*
X199934Y259053D01*
X189266Y269721D01*
X214092Y278815D02*
X215174Y277341D01*
X189266Y269721D02*
X187926Y269845D01*
X513878Y283437D02*
X535214Y262101D01*
X536582Y261389D01*
X250226Y262101D02*
X227366Y262101D01*
X250226Y262101D02*
X265524Y246803D01*
X477245Y246803D01*
X513298Y282857D02*
X513878Y283437D01*
X513298Y282857D02*
X477245Y246803D01*
X513298Y353463D02*
X503418Y363343D01*
X513298Y353463D02*
X513298Y282857D01*
X459014Y260577D02*
X427010Y260577D01*
X420914Y254481D01*
X459014Y260577D02*
X460382Y261389D01*
X421082Y256907D02*
X420914Y256537D01*
X373922Y257116D02*
X373002Y257549D01*
X419745Y255799D02*
X421082Y256907D01*
X373002Y257549D02*
X373002Y270798D01*
X389811Y287607D01*
X389811Y293504D01*
X391150Y294843D01*
X397048Y294843D01*
X398286Y296081D01*
X399524Y294843D01*
X407124Y294843D01*
X420914Y281053D01*
X420914Y256537D01*
X420914Y254481D01*
X460382Y286789D02*
X460538Y288009D01*
X494066Y416025D02*
X495326Y416565D01*
X497114Y419073D02*
X519974Y419073D01*
X497114Y419073D02*
X495590Y417549D01*
X519974Y419073D02*
X520528Y419940D01*
X520926Y420565D01*
X495590Y417549D02*
X495359Y416688D01*
X495326Y416565D01*
X495359Y416688D02*
X494518Y416688D01*
X493132Y319539D02*
X460382Y286789D01*
X537260Y382440D02*
X537260Y403208D01*
X520528Y419940D01*
X493132Y373305D02*
X493132Y319539D01*
X493132Y373305D02*
X502267Y382440D01*
X537260Y382440D01*
X495376Y391165D02*
X495326Y391165D01*
X495376Y391165D02*
X516926Y391165D01*
X520926Y395165D01*
X475684Y364174D02*
X474978Y363343D01*
X475684Y364174D02*
X497122Y389419D01*
X495376Y391165D01*
X475016Y364843D02*
X447173Y364843D01*
X475016Y364843D02*
X475684Y364174D01*
X305156Y357124D02*
X304046Y356014D01*
D24*
X363903Y356014D01*
X397563Y389675D02*
X397563Y408814D01*
X397563Y389675D02*
X363903Y356014D01*
D22*
X303566Y266673D02*
X276134Y266673D01*
X275560Y266115D01*
X303566Y266673D02*
X304826Y267565D01*
D24*
X308973Y286812D02*
X308973Y299512D01*
X308973Y286812D02*
X305090Y282929D01*
D22*
X305090Y267829D02*
X304826Y267565D01*
X305090Y267829D02*
X305090Y282929D01*
D24*
X308973Y299512D02*
X313081Y303620D01*
X313081Y325290D01*
X293506Y344865D01*
X293506Y366082D01*
X298054Y370629D01*
X335779Y370629D01*
X372163Y407013D01*
X372163Y408814D01*
D22*
X303566Y411453D02*
X302841Y412669D01*
X342909Y412669D01*
X346763Y408814D01*
X274610Y324585D02*
X288326Y310869D01*
X288326Y304773D02*
X288326Y295629D01*
X288326Y304773D02*
X288326Y310869D01*
X288326Y295629D02*
X285278Y292581D01*
X276134Y292581D01*
X274610Y324585D02*
X274479Y326101D01*
X276134Y292581D02*
X275560Y291515D01*
X288326Y304773D02*
X297470Y304773D01*
D23*
X297470Y304773D03*
D22*
X434443Y408843D02*
X452243Y391042D01*
X468651Y391042D01*
X468651Y419482D02*
X480931Y419482D01*
X491340Y429891D01*
X543946Y429891D01*
X558651Y415187D02*
X558651Y413047D01*
X554426Y419411D02*
X543946Y429891D01*
X554426Y419411D02*
X554426Y416495D01*
D24*
X610400Y412909D02*
X611888Y411421D01*
X611888Y396109D01*
X558012Y412909D02*
X554426Y416495D01*
X558012Y412909D02*
X610400Y412909D01*
X611888Y396109D02*
X599469Y383690D01*
X599469Y368381D01*
X599469Y367582D01*
D22*
X557342Y416495D02*
X554426Y416495D01*
X557342Y416495D02*
X558651Y415187D01*
X612381Y260284D02*
X603184Y251087D01*
X612381Y260284D02*
X612381Y355621D01*
X612229Y355621D01*
X599469Y368381D01*
X429369Y333670D02*
X421713Y341325D01*
X421713Y364843D01*
X213650Y482573D02*
X206030Y482573D01*
X199934Y488669D01*
X199934Y494765D01*
X192314Y502385D01*
X99350Y502385D01*
X97826Y503909D01*
X213650Y482573D02*
X214092Y482015D01*
X97826Y503909D02*
X97563Y504996D01*
X259370Y520673D02*
X274610Y520673D01*
X275560Y520115D01*
D23*
X259370Y520673D03*
D22*
X245654Y542009D02*
X221270Y542009D01*
X245654Y542009D02*
X246039Y542001D01*
X221270Y542009D02*
X219746Y542965D01*
X215174Y537437D02*
X215174Y520673D01*
X215174Y537437D02*
X219746Y542009D01*
X215174Y520673D02*
X214092Y520115D01*
X219746Y542009D02*
X219746Y542965D01*
X219746Y543533D02*
X219746Y549629D01*
X187742Y581633D01*
X151166Y581633D01*
X100874Y531341D01*
X97826Y531341D01*
X219746Y542965D02*
X219746Y543533D01*
X97826Y531341D02*
X97563Y530396D01*
X536738Y502385D02*
X536738Y497813D01*
X553502Y481049D01*
X553502Y474953D01*
X537850Y459300D01*
X115003Y459300D01*
X74966Y499337D01*
X74966Y510005D01*
X96302Y531341D01*
X536582Y502689D02*
X536738Y502385D01*
X97563Y530396D02*
X96302Y531341D01*
X516926Y522345D02*
X536582Y502689D01*
X516926Y522345D02*
X516926Y569435D01*
X554426Y606935D01*
D24*
X549469Y601978D01*
D22*
X549469Y583482D01*
X587495Y557697D02*
X587495Y609513D01*
X587495Y557697D02*
X588554Y557249D01*
X587495Y609513D02*
X598426Y619665D01*
X588554Y557249D02*
X587563Y555796D01*
X273086Y601445D02*
X239558Y601445D01*
X236510Y604493D01*
X273086Y601445D02*
X273768Y599929D01*
X236510Y604493D02*
X235626Y605465D01*
X183170Y607541D02*
X183170Y631925D01*
X183170Y634973D01*
X183170Y607541D02*
X184694Y606017D01*
X183170Y634973D02*
X183106Y635565D01*
X184694Y606017D02*
X185626Y605465D01*
X183170Y631925D02*
X132878Y631925D01*
X132626Y631065D01*
X183170Y631925D02*
X183106Y635565D01*
X234986Y572489D02*
X274610Y572489D01*
X275606Y571914D01*
X234986Y572489D02*
X233826Y573465D01*
X189266Y540485D02*
X189266Y537437D01*
X189266Y514577D01*
X189266Y540485D02*
X190790Y542009D01*
X189266Y514577D02*
X187926Y514185D01*
X190790Y542009D02*
X191306Y542965D01*
X189266Y537437D02*
X157262Y537437D01*
X156126Y537465D01*
X189266Y537437D02*
X191306Y542965D01*
X184694Y549629D02*
X184694Y572489D01*
X184694Y549629D02*
X190790Y543533D01*
X184694Y572489D02*
X183826Y573465D01*
X190790Y543533D02*
X191306Y542965D01*
X341666Y526769D02*
X341666Y513053D01*
X314234Y485621D01*
X314234Y481049D01*
X308138Y474953D01*
X257846Y474953D01*
X225842Y506957D01*
X215174Y506957D01*
X341666Y526769D02*
X342106Y527765D01*
X215174Y506957D02*
X214092Y507415D01*
X199934Y513053D02*
X189266Y513053D01*
X199934Y513053D02*
X204506Y508481D01*
X213650Y508481D01*
X189266Y513053D02*
X187926Y514185D01*
X213650Y508481D02*
X214092Y507415D01*
X344714Y500861D02*
X344714Y476283D01*
X344714Y500861D02*
X344126Y501265D01*
X344714Y476283D02*
X347602Y473449D01*
X396530Y473100D02*
X396530Y499337D01*
X398054Y500861D01*
X396530Y473100D02*
X395682Y472807D01*
X398054Y500861D02*
X399137Y501417D01*
X370622Y502385D02*
X370622Y526769D01*
X370622Y502385D02*
X369526Y501265D01*
X370622Y526769D02*
X398054Y526769D01*
X399137Y526817D01*
X370622Y526769D02*
X370546Y527765D01*
X283754Y494765D02*
X276134Y494765D01*
X283754Y494765D02*
X303566Y514577D01*
X303566Y532865D01*
X276134Y494765D02*
X275560Y494715D01*
X303566Y532865D02*
X304826Y533465D01*
X302042Y599921D02*
X300320Y601643D01*
X274610Y627353D01*
X273768Y628369D01*
X266990Y634973D02*
X212126Y634973D01*
X266990Y634973D02*
X273086Y628877D01*
X212126Y634973D02*
X211546Y635565D01*
X273086Y628877D02*
X273768Y628369D01*
X303566Y537034D02*
X303566Y534389D01*
X303566Y537034D02*
X286698Y553902D01*
X286698Y588020D01*
X300320Y601643D01*
X303566Y534389D02*
X304826Y533465D01*
X302042Y599921D02*
X302841Y600129D01*
X527594Y543533D02*
X574838Y543533D01*
X587030Y531341D01*
X527594Y543533D02*
X526319Y544594D01*
X587030Y531341D02*
X587563Y530396D01*
X588554Y529817D02*
X588554Y505433D01*
X587563Y504996D01*
X588554Y529817D02*
X587563Y530396D01*
X587563Y504996D02*
X587563Y476766D01*
X577784Y466987D01*
X187742Y487145D02*
X157262Y487145D01*
X187742Y487145D02*
X187926Y485745D01*
X157262Y487145D02*
X156126Y487465D01*
X215174Y493241D02*
X224318Y493241D01*
X227366Y490193D01*
X227366Y478001D01*
X224318Y474953D01*
X199934Y474953D01*
X189266Y485621D01*
X214092Y494715D02*
X215174Y493241D01*
X189266Y485621D02*
X187926Y485745D01*
X513878Y499337D02*
X535214Y478001D01*
X536582Y477289D01*
X250226Y478001D02*
X227366Y478001D01*
X250226Y478001D02*
X265524Y462703D01*
X477245Y462703D01*
X513298Y498757D02*
X513878Y499337D01*
X513298Y498757D02*
X477245Y462703D01*
X513298Y569363D02*
X503418Y579243D01*
X513298Y569363D02*
X513298Y498757D01*
X459014Y476477D02*
X427010Y476477D01*
X420914Y470381D01*
X459014Y476477D02*
X460382Y477289D01*
X421082Y472807D02*
X420914Y472437D01*
X373922Y473016D02*
X373002Y473449D01*
X419745Y471699D02*
X421082Y472807D01*
X373002Y473449D02*
X373002Y486698D01*
X389811Y503507D01*
X389811Y509404D01*
X391150Y510743D01*
X397048Y510743D01*
X398286Y511981D01*
X399524Y510743D01*
X407124Y510743D01*
X420914Y496953D01*
X420914Y472437D01*
X420914Y470381D01*
X460382Y502689D02*
X460538Y503909D01*
X494066Y631925D02*
X495326Y632465D01*
X497114Y634973D02*
X519974Y634973D01*
X497114Y634973D02*
X495590Y633449D01*
X519974Y634973D02*
X520528Y635840D01*
X520926Y636465D01*
X495590Y633449D02*
X495359Y632588D01*
X495326Y632465D01*
X495359Y632588D02*
X494518Y632588D01*
X493132Y535439D02*
X460382Y502689D01*
X537260Y598340D02*
X537260Y619108D01*
X520528Y635840D01*
X493132Y589205D02*
X493132Y535439D01*
X493132Y589205D02*
X502267Y598340D01*
X537260Y598340D01*
X495376Y607065D02*
X495326Y607065D01*
X495376Y607065D02*
X516926Y607065D01*
X520926Y611065D01*
X475684Y580074D02*
X474978Y579243D01*
X475684Y580074D02*
X497122Y605319D01*
X495376Y607065D01*
X475016Y580743D02*
X447173Y580743D01*
X475016Y580743D02*
X475684Y580074D01*
X305156Y573024D02*
X304046Y571914D01*
D24*
X363903Y571914D01*
X397563Y605575D02*
X397563Y624714D01*
X397563Y605575D02*
X363903Y571914D01*
D22*
X303566Y482573D02*
X276134Y482573D01*
X275560Y482015D01*
X303566Y482573D02*
X304826Y483465D01*
D24*
X308973Y502712D02*
X308973Y515412D01*
X308973Y502712D02*
X305090Y498829D01*
D22*
X305090Y483729D02*
X304826Y483465D01*
X305090Y483729D02*
X305090Y498829D01*
D24*
X308973Y515412D02*
X313081Y519520D01*
X313081Y541190D01*
X293506Y560765D01*
X293506Y581982D01*
X298054Y586529D01*
X335779Y586529D01*
X372163Y622913D01*
X372163Y624714D01*
D22*
X303566Y627353D02*
X302841Y628569D01*
X342909Y628569D01*
X346763Y624714D01*
X274610Y540485D02*
X288326Y526769D01*
X288326Y520673D02*
X288326Y511529D01*
X288326Y520673D02*
X288326Y526769D01*
X288326Y511529D02*
X285278Y508481D01*
X276134Y508481D01*
X274610Y540485D02*
X274479Y542001D01*
X276134Y508481D02*
X275560Y507415D01*
X288326Y520673D02*
X297470Y520673D01*
D23*
X297470Y520673D03*
D22*
X434443Y624743D02*
X452243Y606942D01*
X468651Y606942D01*
X468651Y635382D02*
X480931Y635382D01*
X491340Y645791D01*
X543946Y645791D01*
X558651Y631087D02*
X558651Y628947D01*
X554426Y635311D02*
X543946Y645791D01*
X554426Y635311D02*
X554426Y632395D01*
D24*
X610400Y628809D02*
X611888Y627321D01*
X611888Y612009D01*
X558012Y628809D02*
X554426Y632395D01*
X558012Y628809D02*
X610400Y628809D01*
X611888Y612009D02*
X599469Y599590D01*
X599469Y584281D01*
X599469Y583482D01*
D22*
X557342Y632395D02*
X554426Y632395D01*
X557342Y632395D02*
X558651Y631087D01*
X612381Y476184D02*
X603184Y466987D01*
X612381Y476184D02*
X612381Y571521D01*
X612229Y571521D01*
X599469Y584281D01*
X429369Y549570D02*
X421713Y557225D01*
X421713Y580743D01*
X213650Y698473D02*
X206030Y698473D01*
X199934Y704569D01*
X199934Y710665D01*
X192314Y718285D01*
X99350Y718285D01*
X97826Y719809D01*
X213650Y698473D02*
X214092Y697915D01*
X97826Y719809D02*
X97563Y720896D01*
X259370Y736573D02*
X274610Y736573D01*
X275560Y736015D01*
D23*
X259370Y736573D03*
D22*
X245654Y757909D02*
X221270Y757909D01*
X245654Y757909D02*
X246039Y757901D01*
X221270Y757909D02*
X219746Y758865D01*
X215174Y753337D02*
X215174Y736573D01*
X215174Y753337D02*
X219746Y757909D01*
X215174Y736573D02*
X214092Y736015D01*
X219746Y757909D02*
X219746Y758865D01*
X219746Y759433D02*
X219746Y765529D01*
X187742Y797533D01*
X151166Y797533D01*
X100874Y747241D01*
X97826Y747241D01*
X219746Y758865D02*
X219746Y759433D01*
X97826Y747241D02*
X97563Y746296D01*
X536738Y718285D02*
X536738Y713713D01*
X553502Y696949D01*
X553502Y690853D01*
X537850Y675200D01*
X115003Y675200D01*
X74966Y715237D01*
X74966Y725905D01*
X96302Y747241D01*
X536582Y718589D02*
X536738Y718285D01*
X97563Y746296D02*
X96302Y747241D01*
X516926Y738245D02*
X536582Y718589D01*
X516926Y738245D02*
X516926Y785335D01*
X554426Y822835D01*
D24*
X549469Y817878D01*
D22*
X549469Y799382D01*
X587495Y773597D02*
X587495Y825413D01*
X587495Y773597D02*
X588554Y773149D01*
X587495Y825413D02*
X598426Y835565D01*
X588554Y773149D02*
X587563Y771696D01*
X273086Y817345D02*
X239558Y817345D01*
X236510Y820393D01*
X273086Y817345D02*
X273768Y815829D01*
X236510Y820393D02*
X235626Y821365D01*
X183170Y823441D02*
X183170Y847825D01*
X183170Y850873D01*
X183170Y823441D02*
X184694Y821917D01*
X183170Y850873D02*
X183106Y851465D01*
X184694Y821917D02*
X185626Y821365D01*
X183170Y847825D02*
X132878Y847825D01*
X132626Y846965D01*
X183170Y847825D02*
X183106Y851465D01*
X234986Y788389D02*
X274610Y788389D01*
X275606Y787814D01*
X234986Y788389D02*
X233826Y789365D01*
X189266Y756385D02*
X189266Y753337D01*
X189266Y730477D01*
X189266Y756385D02*
X190790Y757909D01*
X189266Y730477D02*
X187926Y730085D01*
X190790Y757909D02*
X191306Y758865D01*
X189266Y753337D02*
X157262Y753337D01*
X156126Y753365D01*
X189266Y753337D02*
X191306Y758865D01*
X184694Y765529D02*
X184694Y788389D01*
X184694Y765529D02*
X190790Y759433D01*
X184694Y788389D02*
X183826Y789365D01*
X190790Y759433D02*
X191306Y758865D01*
X341666Y742669D02*
X341666Y728953D01*
X314234Y701521D01*
X314234Y696949D01*
X308138Y690853D01*
X257846Y690853D01*
X225842Y722857D01*
X215174Y722857D01*
X341666Y742669D02*
X342106Y743665D01*
X215174Y722857D02*
X214092Y723315D01*
X199934Y728953D02*
X189266Y728953D01*
X199934Y728953D02*
X204506Y724381D01*
X213650Y724381D01*
X189266Y728953D02*
X187926Y730085D01*
X213650Y724381D02*
X214092Y723315D01*
X344714Y716761D02*
X344714Y692183D01*
X344714Y716761D02*
X344126Y717165D01*
X344714Y692183D02*
X347602Y689349D01*
X396530Y689000D02*
X396530Y715237D01*
X398054Y716761D01*
X396530Y689000D02*
X395682Y688707D01*
X398054Y716761D02*
X399137Y717317D01*
X370622Y718285D02*
X370622Y742669D01*
X370622Y718285D02*
X369526Y717165D01*
X370622Y742669D02*
X398054Y742669D01*
X399137Y742717D01*
X370622Y742669D02*
X370546Y743665D01*
X283754Y710665D02*
X276134Y710665D01*
X283754Y710665D02*
X303566Y730477D01*
X303566Y748765D01*
X276134Y710665D02*
X275560Y710615D01*
X303566Y748765D02*
X304826Y749365D01*
X302042Y815821D02*
X300320Y817543D01*
X274610Y843253D01*
X273768Y844269D01*
X266990Y850873D02*
X212126Y850873D01*
X266990Y850873D02*
X273086Y844777D01*
X212126Y850873D02*
X211546Y851465D01*
X273086Y844777D02*
X273768Y844269D01*
X303566Y752934D02*
X303566Y750289D01*
X303566Y752934D02*
X286698Y769802D01*
X286698Y803920D01*
X300320Y817543D01*
X303566Y750289D02*
X304826Y749365D01*
X302042Y815821D02*
X302841Y816029D01*
X527594Y759433D02*
X574838Y759433D01*
X587030Y747241D01*
X527594Y759433D02*
X526319Y760494D01*
X587030Y747241D02*
X587563Y746296D01*
X588554Y745717D02*
X588554Y721333D01*
X587563Y720896D01*
X588554Y745717D02*
X587563Y746296D01*
X587563Y720896D02*
X587563Y692666D01*
X577784Y682887D01*
X187742Y703045D02*
X157262Y703045D01*
X187742Y703045D02*
X187926Y701645D01*
X157262Y703045D02*
X156126Y703365D01*
X215174Y709141D02*
X224318Y709141D01*
X227366Y706093D01*
X227366Y693901D01*
X224318Y690853D01*
X199934Y690853D01*
X189266Y701521D01*
X214092Y710615D02*
X215174Y709141D01*
X189266Y701521D02*
X187926Y701645D01*
X513878Y715237D02*
X535214Y693901D01*
X536582Y693189D01*
X250226Y693901D02*
X227366Y693901D01*
X250226Y693901D02*
X265524Y678603D01*
X477245Y678603D01*
X513298Y714657D02*
X513878Y715237D01*
X513298Y714657D02*
X477245Y678603D01*
X513298Y785263D02*
X503418Y795143D01*
X513298Y785263D02*
X513298Y714657D01*
X459014Y692377D02*
X427010Y692377D01*
X420914Y686281D01*
X459014Y692377D02*
X460382Y693189D01*
X421082Y688707D02*
X420914Y688337D01*
X373922Y688916D02*
X373002Y689349D01*
X419745Y687599D02*
X421082Y688707D01*
X373002Y689349D02*
X373002Y702598D01*
X389811Y719407D01*
X389811Y725304D01*
X391150Y726643D01*
X397048Y726643D01*
X398286Y727881D01*
X399524Y726643D01*
X407124Y726643D01*
X420914Y712853D01*
X420914Y688337D01*
X420914Y686281D01*
X460382Y718589D02*
X460538Y719809D01*
X494066Y847825D02*
X495326Y848365D01*
X497114Y850873D02*
X519974Y850873D01*
X497114Y850873D02*
X495590Y849349D01*
X519974Y850873D02*
X520528Y851740D01*
X520926Y852365D01*
X495590Y849349D02*
X495359Y848488D01*
X495326Y848365D01*
X495359Y848488D02*
X494518Y848488D01*
X493132Y751339D02*
X460382Y718589D01*
X537260Y814240D02*
X537260Y835008D01*
X520528Y851740D01*
X493132Y805105D02*
X493132Y751339D01*
X493132Y805105D02*
X502267Y814240D01*
X537260Y814240D01*
X495376Y822965D02*
X495326Y822965D01*
X495376Y822965D02*
X516926Y822965D01*
X520926Y826965D01*
X475684Y795974D02*
X474978Y795143D01*
X475684Y795974D02*
X497122Y821219D01*
X495376Y822965D01*
X475016Y796643D02*
X447173Y796643D01*
X475016Y796643D02*
X475684Y795974D01*
X305156Y788924D02*
X304046Y787814D01*
D24*
X363903Y787814D01*
X397563Y821475D02*
X397563Y840614D01*
X397563Y821475D02*
X363903Y787814D01*
D22*
X303566Y698473D02*
X276134Y698473D01*
X275560Y697915D01*
X303566Y698473D02*
X304826Y699365D01*
D24*
X308973Y718612D02*
X308973Y731312D01*
X308973Y718612D02*
X305090Y714729D01*
D22*
X305090Y699629D02*
X304826Y699365D01*
X305090Y699629D02*
X305090Y714729D01*
D24*
X308973Y731312D02*
X313081Y735420D01*
X313081Y757090D01*
X293506Y776665D01*
X293506Y797882D01*
X298054Y802429D01*
X335779Y802429D01*
X372163Y838813D01*
X372163Y840614D01*
D22*
X303566Y843253D02*
X302841Y844469D01*
X342909Y844469D01*
X346763Y840614D01*
X274610Y756385D02*
X288326Y742669D01*
X288326Y736573D02*
X288326Y727429D01*
X288326Y736573D02*
X288326Y742669D01*
X288326Y727429D02*
X285278Y724381D01*
X276134Y724381D01*
X274610Y756385D02*
X274479Y757901D01*
X276134Y724381D02*
X275560Y723315D01*
X288326Y736573D02*
X297470Y736573D01*
D23*
X297470Y736573D03*
D22*
X434443Y840643D02*
X452243Y822842D01*
X468651Y822842D01*
X468651Y851282D02*
X480931Y851282D01*
X491340Y861691D01*
X543946Y861691D01*
X558651Y846987D02*
X558651Y844847D01*
X554426Y851211D02*
X543946Y861691D01*
X554426Y851211D02*
X554426Y848295D01*
D24*
X610400Y844709D02*
X611888Y843221D01*
X611888Y827909D01*
X558012Y844709D02*
X554426Y848295D01*
X558012Y844709D02*
X610400Y844709D01*
X611888Y827909D02*
X599469Y815490D01*
X599469Y800181D01*
X599469Y799382D01*
D22*
X557342Y848295D02*
X554426Y848295D01*
X557342Y848295D02*
X558651Y846987D01*
X612381Y692084D02*
X603184Y682887D01*
X612381Y692084D02*
X612381Y787421D01*
X612229Y787421D01*
X599469Y800181D01*
X429369Y765470D02*
X421713Y773125D01*
X421713Y796643D01*
X800127Y226350D02*
X800127Y218730D01*
X794031Y212634D01*
X787935Y212634D01*
X780315Y205014D01*
X780315Y112050D01*
X778791Y110526D01*
X800127Y226350D02*
X800685Y226792D01*
X778791Y110526D02*
X777704Y110263D01*
X762027Y272070D02*
X762027Y287310D01*
X762585Y288260D01*
D23*
X762027Y272070D03*
D22*
X740691Y258354D02*
X740691Y233970D01*
X740691Y258354D02*
X740699Y258739D01*
X740691Y233970D02*
X739735Y232446D01*
X745263Y227874D02*
X762027Y227874D01*
X745263Y227874D02*
X740691Y232446D01*
X762027Y227874D02*
X762585Y226792D01*
X740691Y232446D02*
X739735Y232446D01*
X739167Y232446D02*
X733071Y232446D01*
X701067Y200442D01*
X701067Y163866D01*
X751359Y113574D01*
X751359Y110526D01*
X739735Y232446D02*
X739167Y232446D01*
X751359Y110526D02*
X752304Y110263D01*
X780315Y549438D02*
X784887Y549438D01*
X801651Y566202D01*
X807747Y566202D01*
X823400Y550550D01*
X823400Y127703D01*
X783363Y87666D01*
X772695Y87666D01*
X751359Y109002D01*
X780011Y549282D02*
X780315Y549438D01*
X752304Y110263D02*
X751359Y109002D01*
X760355Y529626D02*
X780011Y549282D01*
X760355Y529626D02*
X713265Y529626D01*
X675765Y567126D01*
D24*
X680722Y562169D01*
D22*
X699218Y562169D01*
X725003Y600195D02*
X673187Y600195D01*
X725003Y600195D02*
X725451Y601254D01*
X673187Y600195D02*
X663035Y611126D01*
X725451Y601254D02*
X726904Y600263D01*
X681255Y285786D02*
X681255Y252258D01*
X678207Y249210D01*
X681255Y285786D02*
X682771Y286468D01*
X678207Y249210D02*
X677235Y248326D01*
X675159Y195870D02*
X650775Y195870D01*
X647727Y195870D01*
X675159Y195870D02*
X676683Y197394D01*
X647727Y195870D02*
X647135Y195806D01*
X676683Y197394D02*
X677235Y198326D01*
X650775Y195870D02*
X650775Y145578D01*
X651635Y145326D01*
X650775Y195870D02*
X647135Y195806D01*
X710211Y247686D02*
X710211Y287310D01*
X710786Y288306D01*
X710211Y247686D02*
X709235Y246526D01*
X742215Y201966D02*
X745263Y201966D01*
X768123Y201966D01*
X742215Y201966D02*
X740691Y203490D01*
X768123Y201966D02*
X768515Y200626D01*
X740691Y203490D02*
X739735Y204006D01*
X745263Y201966D02*
X745263Y169962D01*
X745235Y168826D01*
X745263Y201966D02*
X739735Y204006D01*
X733071Y197394D02*
X710211Y197394D01*
X733071Y197394D02*
X739167Y203490D01*
X710211Y197394D02*
X709235Y196526D01*
X739167Y203490D02*
X739735Y204006D01*
X755931Y354366D02*
X769647Y354366D01*
X797079Y326934D01*
X801651Y326934D01*
X807747Y320838D01*
X807747Y270546D01*
X775743Y238542D01*
X775743Y227874D01*
X755931Y354366D02*
X754935Y354806D01*
X775743Y227874D02*
X775285Y226792D01*
X769647Y212634D02*
X769647Y201966D01*
X769647Y212634D02*
X774219Y217206D01*
X774219Y226350D01*
X769647Y201966D02*
X768515Y200626D01*
X774219Y226350D02*
X775285Y226792D01*
X781839Y357414D02*
X806417Y357414D01*
X781839Y357414D02*
X781435Y356826D01*
X806417Y357414D02*
X809251Y360302D01*
X809600Y409230D02*
X783363Y409230D01*
X781839Y410754D01*
X809600Y409230D02*
X809893Y408382D01*
X781839Y410754D02*
X781283Y411837D01*
X780315Y383322D02*
X755931Y383322D01*
X780315Y383322D02*
X781435Y382226D01*
X755931Y383322D02*
X755931Y410754D01*
X755883Y411837D01*
X755931Y383322D02*
X754935Y383246D01*
X787935Y296454D02*
X787935Y288834D01*
X787935Y296454D02*
X768123Y316266D01*
X749835Y316266D01*
X787935Y288834D02*
X787985Y288260D01*
X749835Y316266D02*
X749235Y317526D01*
X682779Y314742D02*
X681057Y313020D01*
X655347Y287310D01*
X654331Y286468D01*
X647727Y279690D02*
X647727Y224826D01*
X647727Y279690D02*
X653823Y285786D01*
X647727Y224826D02*
X647135Y224246D01*
X653823Y285786D02*
X654331Y286468D01*
X745666Y316266D02*
X748311Y316266D01*
X745666Y316266D02*
X728798Y299398D01*
X694680Y299398D01*
X681057Y313020D01*
X748311Y316266D02*
X749235Y317526D01*
X682779Y314742D02*
X682571Y315541D01*
X739167Y540294D02*
X739167Y587538D01*
X751359Y599730D01*
X739167Y540294D02*
X738106Y539019D01*
X751359Y599730D02*
X752304Y600263D01*
X752883Y601254D02*
X777267Y601254D01*
X777704Y600263D01*
X752883Y601254D02*
X752304Y600263D01*
X777704Y600263D02*
X805934Y600263D01*
X815713Y590484D01*
X795555Y200442D02*
X795555Y169962D01*
X795555Y200442D02*
X796955Y200626D01*
X795555Y169962D02*
X795235Y168826D01*
X789459Y227874D02*
X789459Y237018D01*
X792507Y240066D01*
X804699Y240066D01*
X807747Y237018D01*
X807747Y212634D01*
X797079Y201966D01*
X787985Y226792D02*
X789459Y227874D01*
X797079Y201966D02*
X796955Y200626D01*
X783363Y526578D02*
X804699Y547914D01*
X805411Y549282D01*
X804699Y262926D02*
X804699Y240066D01*
X804699Y262926D02*
X819997Y278224D01*
X819997Y489945D01*
X783943Y525998D02*
X783363Y526578D01*
X783943Y525998D02*
X819997Y489945D01*
X713337Y525998D02*
X703457Y516118D01*
X713337Y525998D02*
X783943Y525998D01*
X806223Y471714D02*
X806223Y439710D01*
X812319Y433614D01*
X806223Y471714D02*
X805411Y473082D01*
X809893Y433782D02*
X810263Y433614D01*
X809684Y386622D02*
X809251Y385702D01*
X811001Y432445D02*
X809893Y433782D01*
X809251Y385702D02*
X796002Y385702D01*
X779193Y402511D01*
X773296Y402511D01*
X771957Y403850D01*
X771957Y409748D01*
X770719Y410986D01*
X771957Y412224D01*
X771957Y419824D01*
X785747Y433614D01*
X810263Y433614D01*
X812319Y433614D01*
X780011Y473082D02*
X778791Y473238D01*
X650775Y506766D02*
X650235Y508026D01*
X647727Y509814D02*
X647727Y532674D01*
X647727Y509814D02*
X649251Y508290D01*
X647727Y532674D02*
X646860Y533228D01*
X646235Y533626D01*
X649251Y508290D02*
X650112Y508059D01*
X650235Y508026D01*
X650112Y508059D02*
X650112Y507218D01*
X747261Y505832D02*
X780011Y473082D01*
X684360Y549960D02*
X663592Y549960D01*
X646860Y533228D01*
X693495Y505832D02*
X747261Y505832D01*
X693495Y505832D02*
X684360Y514967D01*
X684360Y549960D01*
X675635Y508076D02*
X675635Y508026D01*
X675635Y508076D02*
X675635Y529626D01*
X671635Y533626D01*
X702626Y488384D02*
X703457Y487678D01*
X702626Y488384D02*
X677381Y509822D01*
X675635Y508076D01*
X701957Y487716D02*
X701957Y459873D01*
X701957Y487716D02*
X702626Y488384D01*
X709676Y317856D02*
X710786Y316746D01*
D24*
X710786Y376603D01*
X677125Y410263D02*
X657986Y410263D01*
X677125Y410263D02*
X710786Y376603D01*
D22*
X800127Y316266D02*
X800127Y288834D01*
X800685Y288260D01*
X800127Y316266D02*
X799235Y317526D01*
X798971Y317790D01*
X796571Y317790D01*
D24*
X788580Y325781D01*
X741510Y325781D01*
X721935Y306206D01*
X700718Y306206D01*
X696171Y310754D01*
X696171Y348479D01*
X659787Y384863D01*
X657986Y384863D01*
D22*
X655347Y316266D02*
X654131Y315541D01*
X654131Y355609D01*
X657986Y359463D01*
X742215Y287310D02*
X755931Y301026D01*
X762027Y301026D02*
X771171Y301026D01*
X762027Y301026D02*
X755931Y301026D01*
X771171Y301026D02*
X774219Y297978D01*
X774219Y288834D01*
X742215Y287310D02*
X740699Y287179D01*
X774219Y288834D02*
X775285Y288260D01*
X762027Y301026D02*
X762027Y310170D01*
D23*
X762027Y310170D03*
D22*
X657957Y447143D02*
X675758Y464943D01*
X675758Y481351D01*
X647318Y481351D02*
X647318Y493631D01*
X636909Y504040D01*
X636909Y556646D01*
X651613Y571351D02*
X653753Y571351D01*
X647389Y567126D02*
X636909Y556646D01*
X647389Y567126D02*
X650305Y567126D01*
D24*
X653891Y623100D02*
X655379Y624588D01*
X670691Y624588D01*
X653891Y570712D02*
X650305Y567126D01*
X653891Y570712D02*
X653891Y623100D01*
X670691Y624588D02*
X683110Y612169D01*
X698419Y612169D01*
X699218Y612169D01*
D22*
X650305Y570042D02*
X650305Y567126D01*
X650305Y570042D02*
X651613Y571351D01*
X806516Y625081D02*
X815713Y615884D01*
X806516Y625081D02*
X711179Y625081D01*
X711179Y624929D01*
X698419Y612169D01*
X733130Y442069D02*
X725475Y434413D01*
X701957Y434413D01*
M02*
