M48
;GenerationSoftware,Autodesk,EAGLE,9.2.2*%
;CreationDate,2019-04-19T13:45:25Z*%
FMAT,2
ICI,OFF
METRIC,TZ,000.000
T5C0.350
T4C0.635
T3C0.813
T2C0.900
T1C1.118
%
G90
M71
T1
X39756Y62471
X37216Y62471
X34676Y62471
X9756Y50500
X9756Y53040
X65799Y41026
X65799Y38486
X65799Y35946
X77770Y11026
X75230Y11026
X72690Y11026
X77770Y60026
X75230Y60026
X72690Y60026
X9756Y55580
X58756Y50500
X58756Y53040
X58756Y55580
X58756Y77170
X58756Y74630
X58756Y72090
X39756Y40881
X37216Y40881
X34676Y40881
X9756Y28910
X9756Y31450
X9756Y33990
X58756Y28910
X58756Y31450
X58756Y33990
X9756Y77170
X9756Y74630
X58756Y12400
X58756Y9860
X58756Y7320
X9756Y12400
X9756Y9860
X9756Y7320
X34676Y19291
X37216Y19291
X39756Y19291
X9756Y72090
X34676Y84061
X37216Y84061
X39756Y84061
T2
X34760Y25755
X39914Y50142
X78143Y38223
X78143Y35683
X80925Y36030
X80925Y38570
X65023Y50803
X67563Y50803
X67163Y53363
X64623Y53363
X49533Y63247
X49533Y60707
X75588Y41184
X78128Y41184
X49533Y20067
X49533Y17527
X37300Y25755
X52093Y61107
X34413Y28537
X36953Y28537
X39914Y31092
X39914Y28552
X39568Y25691
X42108Y25691
X52093Y42057
X52093Y39517
X49533Y39117
X49533Y41657
X52093Y17927
X52093Y20467
X42108Y4101
X39568Y4101
X39914Y6962
X39914Y9502
X36953Y6947
X34413Y6947
X34760Y4165
X37300Y4165
X80989Y40838
X52093Y63647
X42108Y47281
X39568Y47281
X39914Y52682
X80989Y43378
X49533Y84837
X49533Y82297
X52093Y82697
X52093Y85237
X42108Y68871
X39568Y68871
X39914Y71732
X39914Y74272
X36953Y71717
X34413Y71717
X34760Y68935
X37300Y68935
X36953Y50127
X37300Y47345
X34760Y47345
X34413Y50127
T3
X46038Y47729
X46038Y26139
X46038Y50269
X46038Y28679
X53658Y28679
X53658Y26139
X46038Y7089
X53658Y4549
X53658Y7089
X53658Y69319
X53658Y71859
X46038Y71859
X46038Y69319
X80541Y54928
X78001Y54928
X78001Y47308
X80541Y47308
X46038Y4549
X53658Y50269
X53658Y47729
T4
X52632Y54459
X47632Y54459
X69922Y61217
X15613Y48747
X42937Y54957
X42937Y49957
X54947Y58348
X59947Y58348
X30483Y74937
X30483Y69937
X23563Y82137
X18563Y82137
X13263Y84697
X8263Y84697
X23383Y78937
X18383Y78937
X15613Y75337
X15613Y70337
X15613Y53747
X18383Y57347
X23383Y57347
X8263Y63107
X13263Y63107
X18563Y60547
X23563Y60547
X30483Y48347
X30483Y53347
X59947Y36758
X54947Y36758
X42937Y28367
X42937Y33367
X52632Y32869
X47632Y32869
X15613Y27157
X15613Y32157
X18383Y35757
X23383Y35757
X8263Y41517
X13263Y41517
X47632Y76049
X52632Y76049
X18563Y38957
X23563Y38957
X30483Y26757
X30483Y31757
X42937Y76547
X42937Y71547
X54947Y79938
X59947Y79938
X74923Y31753
X79923Y31753
X67723Y24833
X67723Y19833
X65163Y14533
X65163Y9533
X70923Y24653
X70923Y19653
X74523Y16883
X79523Y16883
X59947Y15168
X54947Y15168
X42937Y6777
X42937Y11777
X52632Y11279
X47632Y11279
X15613Y5567
X15613Y10567
X18383Y14167
X23383Y14167
X8263Y19927
X13263Y19927
X18563Y17367
X23563Y17367
X30483Y5167
X30483Y10167
X69922Y56217
X78313Y44207
X73313Y44207
X73811Y53902
X73811Y48902
T5
X29747Y52067
X25937Y73657
X25937Y52067
X29747Y30477
X25937Y30477
X29747Y8887
X29747Y73657
X76203Y27207
X76203Y31017
X25937Y8887
M30