G04 EAGLE Gerber X2 export*
%TF.Part,Single*%
%TF.FileFunction,Legend,Bot,1*%
%TF.FilePolarity,Positive*%
%TF.GenerationSoftware,Autodesk,EAGLE,9.2.2*%
%TF.CreationDate,2019-04-19T13:45:25Z*%
G75*
%MOMM*%
%FSLAX34Y34*%
%LPD*%
%INSilkscreen Bottom*%
%AMOC8*
5,1,8,0,0,1.08239X$1,22.5*%
G01*
%ADD10C,0.101600*%


D10*
X387417Y174118D02*
X387417Y165680D01*
X387418Y165680D02*
X387416Y165567D01*
X387410Y165454D01*
X387400Y165341D01*
X387386Y165228D01*
X387369Y165116D01*
X387347Y165005D01*
X387322Y164895D01*
X387292Y164785D01*
X387259Y164677D01*
X387222Y164570D01*
X387182Y164464D01*
X387137Y164360D01*
X387089Y164257D01*
X387038Y164156D01*
X386983Y164057D01*
X386925Y163960D01*
X386863Y163865D01*
X386798Y163772D01*
X386730Y163682D01*
X386659Y163594D01*
X386584Y163508D01*
X386507Y163425D01*
X386427Y163345D01*
X386344Y163268D01*
X386258Y163193D01*
X386170Y163122D01*
X386080Y163054D01*
X385987Y162989D01*
X385892Y162927D01*
X385795Y162869D01*
X385696Y162814D01*
X385595Y162763D01*
X385492Y162715D01*
X385388Y162670D01*
X385282Y162630D01*
X385175Y162593D01*
X385067Y162560D01*
X384957Y162530D01*
X384847Y162505D01*
X384736Y162483D01*
X384624Y162466D01*
X384511Y162452D01*
X384398Y162442D01*
X384285Y162436D01*
X384172Y162434D01*
X384059Y162436D01*
X383946Y162442D01*
X383833Y162452D01*
X383720Y162466D01*
X383608Y162483D01*
X383497Y162505D01*
X383387Y162530D01*
X383277Y162560D01*
X383169Y162593D01*
X383062Y162630D01*
X382956Y162670D01*
X382852Y162715D01*
X382749Y162763D01*
X382648Y162814D01*
X382549Y162869D01*
X382452Y162927D01*
X382357Y162989D01*
X382264Y163054D01*
X382174Y163122D01*
X382086Y163193D01*
X382000Y163268D01*
X381917Y163345D01*
X381837Y163425D01*
X381760Y163508D01*
X381685Y163594D01*
X381614Y163682D01*
X381546Y163772D01*
X381481Y163865D01*
X381419Y163960D01*
X381361Y164057D01*
X381306Y164156D01*
X381255Y164257D01*
X381207Y164360D01*
X381162Y164464D01*
X381122Y164570D01*
X381085Y164677D01*
X381052Y164785D01*
X381022Y164895D01*
X380997Y165005D01*
X380975Y165116D01*
X380958Y165228D01*
X380944Y165341D01*
X380934Y165454D01*
X380928Y165567D01*
X380926Y165680D01*
X380926Y174118D01*
X373123Y174118D02*
X373123Y162434D01*
X373123Y168276D02*
X374746Y169250D01*
X374746Y169249D02*
X374819Y169296D01*
X374890Y169345D01*
X374960Y169398D01*
X375026Y169454D01*
X375090Y169513D01*
X375152Y169574D01*
X375210Y169638D01*
X375266Y169705D01*
X375318Y169774D01*
X375368Y169846D01*
X375414Y169920D01*
X375457Y169995D01*
X375496Y170073D01*
X375532Y170152D01*
X375564Y170233D01*
X375593Y170315D01*
X375618Y170398D01*
X375639Y170482D01*
X375656Y170567D01*
X375670Y170653D01*
X375679Y170739D01*
X375685Y170826D01*
X375687Y170913D01*
X375685Y171000D01*
X375679Y171087D01*
X375669Y171173D01*
X375656Y171259D01*
X375638Y171344D01*
X375617Y171428D01*
X375592Y171511D01*
X375563Y171594D01*
X375531Y171674D01*
X375495Y171753D01*
X375456Y171831D01*
X375413Y171906D01*
X375366Y171980D01*
X375317Y172051D01*
X375264Y172121D01*
X375209Y172187D01*
X375150Y172251D01*
X375089Y172313D01*
X375024Y172372D01*
X374958Y172427D01*
X374889Y172480D01*
X374817Y172530D01*
X374744Y172576D01*
X374668Y172619D01*
X374591Y172658D01*
X374512Y172694D01*
X374431Y172727D01*
X374349Y172755D01*
X374266Y172781D01*
X374182Y172802D01*
X374096Y172819D01*
X374096Y172820D02*
X373956Y172844D01*
X373814Y172864D01*
X373673Y172880D01*
X373531Y172891D01*
X373388Y172899D01*
X373246Y172903D01*
X373103Y172904D01*
X372960Y172900D01*
X372818Y172892D01*
X372676Y172880D01*
X372534Y172864D01*
X372393Y172845D01*
X372252Y172821D01*
X372112Y172794D01*
X371973Y172762D01*
X371835Y172727D01*
X371697Y172688D01*
X371561Y172645D01*
X371427Y172599D01*
X371293Y172548D01*
X371161Y172495D01*
X371031Y172437D01*
X370902Y172376D01*
X370775Y172311D01*
X370649Y172243D01*
X370526Y172171D01*
X373123Y168276D02*
X371500Y167302D01*
X371500Y167303D02*
X371427Y167256D01*
X371356Y167207D01*
X371286Y167154D01*
X371220Y167098D01*
X371156Y167039D01*
X371094Y166978D01*
X371036Y166914D01*
X370980Y166847D01*
X370928Y166778D01*
X370878Y166706D01*
X370832Y166632D01*
X370789Y166557D01*
X370750Y166479D01*
X370714Y166400D01*
X370682Y166319D01*
X370653Y166237D01*
X370628Y166154D01*
X370607Y166070D01*
X370590Y165985D01*
X370576Y165899D01*
X370567Y165813D01*
X370561Y165726D01*
X370559Y165639D01*
X370561Y165552D01*
X370567Y165465D01*
X370577Y165379D01*
X370590Y165293D01*
X370608Y165208D01*
X370629Y165124D01*
X370654Y165041D01*
X370683Y164958D01*
X370715Y164878D01*
X370751Y164799D01*
X370790Y164721D01*
X370833Y164646D01*
X370880Y164572D01*
X370929Y164501D01*
X370982Y164431D01*
X371037Y164365D01*
X371096Y164301D01*
X371157Y164239D01*
X371222Y164180D01*
X371288Y164125D01*
X371357Y164072D01*
X371429Y164022D01*
X371502Y163976D01*
X371578Y163933D01*
X371655Y163894D01*
X371734Y163858D01*
X371815Y163825D01*
X371897Y163797D01*
X371980Y163771D01*
X372064Y163750D01*
X372149Y163733D01*
X372149Y163732D02*
X372289Y163708D01*
X372431Y163688D01*
X372572Y163672D01*
X372714Y163661D01*
X372857Y163653D01*
X372999Y163649D01*
X373142Y163648D01*
X373285Y163652D01*
X373427Y163660D01*
X373569Y163672D01*
X373711Y163688D01*
X373852Y163707D01*
X373993Y163731D01*
X374133Y163758D01*
X374272Y163790D01*
X374410Y163825D01*
X374548Y163864D01*
X374684Y163907D01*
X374818Y163953D01*
X374952Y164004D01*
X375084Y164057D01*
X375215Y164115D01*
X375343Y164176D01*
X375470Y164241D01*
X375596Y164309D01*
X375719Y164381D01*
X362130Y174118D02*
X362023Y174116D01*
X361917Y174110D01*
X361811Y174100D01*
X361705Y174087D01*
X361599Y174069D01*
X361495Y174048D01*
X361391Y174023D01*
X361288Y173994D01*
X361187Y173962D01*
X361087Y173925D01*
X360988Y173885D01*
X360890Y173842D01*
X360794Y173795D01*
X360700Y173744D01*
X360608Y173690D01*
X360518Y173633D01*
X360430Y173573D01*
X360345Y173509D01*
X360262Y173442D01*
X360181Y173372D01*
X360103Y173300D01*
X360027Y173224D01*
X359955Y173146D01*
X359885Y173065D01*
X359818Y172982D01*
X359754Y172897D01*
X359694Y172809D01*
X359637Y172719D01*
X359583Y172627D01*
X359532Y172533D01*
X359485Y172437D01*
X359442Y172339D01*
X359402Y172240D01*
X359365Y172140D01*
X359333Y172039D01*
X359304Y171936D01*
X359279Y171832D01*
X359258Y171728D01*
X359240Y171622D01*
X359227Y171516D01*
X359217Y171410D01*
X359211Y171304D01*
X359209Y171197D01*
X362130Y174118D02*
X362251Y174116D01*
X362372Y174110D01*
X362492Y174100D01*
X362613Y174087D01*
X362732Y174069D01*
X362852Y174048D01*
X362970Y174023D01*
X363087Y173994D01*
X363204Y173961D01*
X363319Y173925D01*
X363433Y173884D01*
X363546Y173841D01*
X363658Y173793D01*
X363767Y173742D01*
X363875Y173687D01*
X363982Y173629D01*
X364086Y173568D01*
X364188Y173503D01*
X364288Y173435D01*
X364386Y173364D01*
X364482Y173290D01*
X364575Y173213D01*
X364665Y173132D01*
X364753Y173049D01*
X364838Y172963D01*
X364921Y172874D01*
X365000Y172783D01*
X365077Y172689D01*
X365150Y172593D01*
X365220Y172495D01*
X365287Y172394D01*
X365351Y172291D01*
X365412Y172186D01*
X365469Y172079D01*
X365522Y171971D01*
X365572Y171861D01*
X365618Y171749D01*
X365661Y171636D01*
X365700Y171521D01*
X360184Y168925D02*
X360105Y169003D01*
X360029Y169083D01*
X359956Y169166D01*
X359886Y169252D01*
X359819Y169339D01*
X359755Y169430D01*
X359695Y169522D01*
X359637Y169616D01*
X359583Y169713D01*
X359533Y169811D01*
X359486Y169911D01*
X359442Y170012D01*
X359402Y170115D01*
X359366Y170220D01*
X359334Y170325D01*
X359305Y170432D01*
X359280Y170539D01*
X359258Y170648D01*
X359241Y170757D01*
X359227Y170866D01*
X359218Y170976D01*
X359212Y171087D01*
X359210Y171197D01*
X360183Y168925D02*
X365700Y162434D01*
X359209Y162434D01*
X347779Y171197D02*
X347781Y171304D01*
X347787Y171410D01*
X347797Y171516D01*
X347810Y171622D01*
X347828Y171728D01*
X347849Y171832D01*
X347874Y171936D01*
X347903Y172039D01*
X347935Y172140D01*
X347972Y172240D01*
X348012Y172339D01*
X348055Y172437D01*
X348102Y172533D01*
X348153Y172627D01*
X348207Y172719D01*
X348264Y172809D01*
X348324Y172897D01*
X348388Y172982D01*
X348455Y173065D01*
X348525Y173146D01*
X348597Y173224D01*
X348673Y173300D01*
X348751Y173372D01*
X348832Y173442D01*
X348915Y173509D01*
X349000Y173573D01*
X349088Y173633D01*
X349178Y173690D01*
X349270Y173744D01*
X349364Y173795D01*
X349460Y173842D01*
X349558Y173885D01*
X349657Y173925D01*
X349757Y173962D01*
X349858Y173994D01*
X349961Y174023D01*
X350065Y174048D01*
X350169Y174069D01*
X350275Y174087D01*
X350381Y174100D01*
X350487Y174110D01*
X350593Y174116D01*
X350700Y174118D01*
X350821Y174116D01*
X350942Y174110D01*
X351062Y174100D01*
X351183Y174087D01*
X351302Y174069D01*
X351422Y174048D01*
X351540Y174023D01*
X351657Y173994D01*
X351774Y173961D01*
X351889Y173925D01*
X352003Y173884D01*
X352116Y173841D01*
X352228Y173793D01*
X352337Y173742D01*
X352445Y173687D01*
X352552Y173629D01*
X352656Y173568D01*
X352758Y173503D01*
X352858Y173435D01*
X352956Y173364D01*
X353052Y173290D01*
X353145Y173213D01*
X353235Y173132D01*
X353323Y173049D01*
X353408Y172963D01*
X353491Y172874D01*
X353570Y172783D01*
X353647Y172689D01*
X353720Y172593D01*
X353790Y172495D01*
X353857Y172394D01*
X353921Y172291D01*
X353982Y172186D01*
X354039Y172079D01*
X354092Y171971D01*
X354142Y171861D01*
X354188Y171749D01*
X354231Y171636D01*
X354270Y171521D01*
X348754Y168925D02*
X348675Y169003D01*
X348599Y169083D01*
X348526Y169166D01*
X348456Y169252D01*
X348389Y169339D01*
X348325Y169430D01*
X348265Y169522D01*
X348207Y169616D01*
X348153Y169713D01*
X348103Y169811D01*
X348056Y169911D01*
X348012Y170012D01*
X347972Y170115D01*
X347936Y170220D01*
X347904Y170325D01*
X347875Y170432D01*
X347850Y170539D01*
X347828Y170648D01*
X347811Y170757D01*
X347797Y170866D01*
X347788Y170976D01*
X347782Y171087D01*
X347780Y171197D01*
X348753Y168925D02*
X354270Y162434D01*
X347779Y162434D01*
X387417Y381580D02*
X387417Y390018D01*
X387418Y381580D02*
X387416Y381467D01*
X387410Y381354D01*
X387400Y381241D01*
X387386Y381128D01*
X387369Y381016D01*
X387347Y380905D01*
X387322Y380795D01*
X387292Y380685D01*
X387259Y380577D01*
X387222Y380470D01*
X387182Y380364D01*
X387137Y380260D01*
X387089Y380157D01*
X387038Y380056D01*
X386983Y379957D01*
X386925Y379860D01*
X386863Y379765D01*
X386798Y379672D01*
X386730Y379582D01*
X386659Y379494D01*
X386584Y379408D01*
X386507Y379325D01*
X386427Y379245D01*
X386344Y379168D01*
X386258Y379093D01*
X386170Y379022D01*
X386080Y378954D01*
X385987Y378889D01*
X385892Y378827D01*
X385795Y378769D01*
X385696Y378714D01*
X385595Y378663D01*
X385492Y378615D01*
X385388Y378570D01*
X385282Y378530D01*
X385175Y378493D01*
X385067Y378460D01*
X384957Y378430D01*
X384847Y378405D01*
X384736Y378383D01*
X384624Y378366D01*
X384511Y378352D01*
X384398Y378342D01*
X384285Y378336D01*
X384172Y378334D01*
X384059Y378336D01*
X383946Y378342D01*
X383833Y378352D01*
X383720Y378366D01*
X383608Y378383D01*
X383497Y378405D01*
X383387Y378430D01*
X383277Y378460D01*
X383169Y378493D01*
X383062Y378530D01*
X382956Y378570D01*
X382852Y378615D01*
X382749Y378663D01*
X382648Y378714D01*
X382549Y378769D01*
X382452Y378827D01*
X382357Y378889D01*
X382264Y378954D01*
X382174Y379022D01*
X382086Y379093D01*
X382000Y379168D01*
X381917Y379245D01*
X381837Y379325D01*
X381760Y379408D01*
X381685Y379494D01*
X381614Y379582D01*
X381546Y379672D01*
X381481Y379765D01*
X381419Y379860D01*
X381361Y379957D01*
X381306Y380056D01*
X381255Y380157D01*
X381207Y380260D01*
X381162Y380364D01*
X381122Y380470D01*
X381085Y380577D01*
X381052Y380685D01*
X381022Y380795D01*
X380997Y380905D01*
X380975Y381016D01*
X380958Y381128D01*
X380944Y381241D01*
X380934Y381354D01*
X380928Y381467D01*
X380926Y381580D01*
X380926Y390018D01*
X373123Y390018D02*
X373123Y378334D01*
X373123Y384176D02*
X374746Y385150D01*
X374746Y385149D02*
X374819Y385196D01*
X374890Y385245D01*
X374960Y385298D01*
X375026Y385354D01*
X375090Y385413D01*
X375152Y385474D01*
X375210Y385538D01*
X375266Y385605D01*
X375318Y385674D01*
X375368Y385746D01*
X375414Y385820D01*
X375457Y385895D01*
X375496Y385973D01*
X375532Y386052D01*
X375564Y386133D01*
X375593Y386215D01*
X375618Y386298D01*
X375639Y386382D01*
X375656Y386467D01*
X375670Y386553D01*
X375679Y386639D01*
X375685Y386726D01*
X375687Y386813D01*
X375685Y386900D01*
X375679Y386987D01*
X375669Y387073D01*
X375656Y387159D01*
X375638Y387244D01*
X375617Y387328D01*
X375592Y387411D01*
X375563Y387494D01*
X375531Y387574D01*
X375495Y387653D01*
X375456Y387731D01*
X375413Y387806D01*
X375366Y387880D01*
X375317Y387951D01*
X375264Y388021D01*
X375209Y388087D01*
X375150Y388151D01*
X375089Y388213D01*
X375024Y388272D01*
X374958Y388327D01*
X374889Y388380D01*
X374817Y388430D01*
X374744Y388476D01*
X374668Y388519D01*
X374591Y388558D01*
X374512Y388594D01*
X374431Y388627D01*
X374349Y388655D01*
X374266Y388681D01*
X374182Y388702D01*
X374096Y388719D01*
X374096Y388720D02*
X373956Y388744D01*
X373814Y388764D01*
X373673Y388780D01*
X373531Y388791D01*
X373388Y388799D01*
X373246Y388803D01*
X373103Y388804D01*
X372960Y388800D01*
X372818Y388792D01*
X372676Y388780D01*
X372534Y388764D01*
X372393Y388745D01*
X372252Y388721D01*
X372112Y388694D01*
X371973Y388662D01*
X371835Y388627D01*
X371697Y388588D01*
X371561Y388545D01*
X371427Y388499D01*
X371293Y388448D01*
X371161Y388395D01*
X371031Y388337D01*
X370902Y388276D01*
X370775Y388211D01*
X370649Y388143D01*
X370526Y388071D01*
X373123Y384176D02*
X371500Y383202D01*
X371500Y383203D02*
X371427Y383156D01*
X371356Y383107D01*
X371286Y383054D01*
X371220Y382998D01*
X371156Y382939D01*
X371094Y382878D01*
X371036Y382814D01*
X370980Y382747D01*
X370928Y382678D01*
X370878Y382606D01*
X370832Y382532D01*
X370789Y382457D01*
X370750Y382379D01*
X370714Y382300D01*
X370682Y382219D01*
X370653Y382137D01*
X370628Y382054D01*
X370607Y381970D01*
X370590Y381885D01*
X370576Y381799D01*
X370567Y381713D01*
X370561Y381626D01*
X370559Y381539D01*
X370561Y381452D01*
X370567Y381365D01*
X370577Y381279D01*
X370590Y381193D01*
X370608Y381108D01*
X370629Y381024D01*
X370654Y380941D01*
X370683Y380858D01*
X370715Y380778D01*
X370751Y380699D01*
X370790Y380621D01*
X370833Y380546D01*
X370880Y380472D01*
X370929Y380401D01*
X370982Y380331D01*
X371037Y380265D01*
X371096Y380201D01*
X371157Y380139D01*
X371222Y380080D01*
X371288Y380025D01*
X371357Y379972D01*
X371429Y379922D01*
X371502Y379876D01*
X371578Y379833D01*
X371655Y379794D01*
X371734Y379758D01*
X371815Y379725D01*
X371897Y379697D01*
X371980Y379671D01*
X372064Y379650D01*
X372149Y379633D01*
X372149Y379632D02*
X372289Y379608D01*
X372431Y379588D01*
X372572Y379572D01*
X372714Y379561D01*
X372857Y379553D01*
X372999Y379549D01*
X373142Y379548D01*
X373285Y379552D01*
X373427Y379560D01*
X373569Y379572D01*
X373711Y379588D01*
X373852Y379607D01*
X373993Y379631D01*
X374133Y379658D01*
X374272Y379690D01*
X374410Y379725D01*
X374548Y379764D01*
X374684Y379807D01*
X374818Y379853D01*
X374952Y379904D01*
X375084Y379957D01*
X375215Y380015D01*
X375343Y380076D01*
X375470Y380141D01*
X375596Y380209D01*
X375719Y380281D01*
X365700Y378334D02*
X362455Y378334D01*
X362342Y378336D01*
X362229Y378342D01*
X362116Y378352D01*
X362003Y378366D01*
X361891Y378383D01*
X361780Y378405D01*
X361670Y378430D01*
X361560Y378460D01*
X361452Y378493D01*
X361345Y378530D01*
X361239Y378570D01*
X361135Y378615D01*
X361032Y378663D01*
X360931Y378714D01*
X360832Y378769D01*
X360735Y378827D01*
X360640Y378889D01*
X360547Y378954D01*
X360457Y379022D01*
X360369Y379093D01*
X360283Y379168D01*
X360200Y379245D01*
X360120Y379325D01*
X360043Y379408D01*
X359968Y379494D01*
X359897Y379582D01*
X359829Y379672D01*
X359764Y379765D01*
X359702Y379860D01*
X359644Y379957D01*
X359589Y380056D01*
X359538Y380157D01*
X359490Y380260D01*
X359445Y380364D01*
X359405Y380470D01*
X359368Y380577D01*
X359335Y380685D01*
X359305Y380795D01*
X359280Y380905D01*
X359258Y381016D01*
X359241Y381128D01*
X359227Y381241D01*
X359217Y381354D01*
X359211Y381467D01*
X359209Y381580D01*
X359211Y381693D01*
X359217Y381806D01*
X359227Y381919D01*
X359241Y382032D01*
X359258Y382144D01*
X359280Y382255D01*
X359305Y382365D01*
X359335Y382475D01*
X359368Y382583D01*
X359405Y382690D01*
X359445Y382796D01*
X359490Y382900D01*
X359538Y383003D01*
X359589Y383104D01*
X359644Y383203D01*
X359702Y383300D01*
X359764Y383395D01*
X359829Y383488D01*
X359897Y383578D01*
X359968Y383666D01*
X360043Y383752D01*
X360120Y383835D01*
X360200Y383915D01*
X360283Y383992D01*
X360369Y384067D01*
X360457Y384138D01*
X360547Y384206D01*
X360640Y384271D01*
X360735Y384333D01*
X360832Y384391D01*
X360931Y384446D01*
X361032Y384497D01*
X361135Y384545D01*
X361239Y384590D01*
X361345Y384630D01*
X361452Y384667D01*
X361560Y384700D01*
X361670Y384730D01*
X361780Y384755D01*
X361891Y384777D01*
X362003Y384794D01*
X362116Y384808D01*
X362229Y384818D01*
X362342Y384824D01*
X362455Y384826D01*
X361806Y390018D02*
X365700Y390018D01*
X361806Y390018D02*
X361705Y390016D01*
X361605Y390010D01*
X361505Y390000D01*
X361405Y389987D01*
X361306Y389969D01*
X361207Y389948D01*
X361110Y389923D01*
X361013Y389894D01*
X360918Y389861D01*
X360824Y389825D01*
X360732Y389785D01*
X360641Y389742D01*
X360552Y389695D01*
X360465Y389645D01*
X360379Y389591D01*
X360296Y389534D01*
X360216Y389474D01*
X360137Y389411D01*
X360061Y389344D01*
X359988Y389275D01*
X359918Y389203D01*
X359850Y389129D01*
X359785Y389052D01*
X359724Y388972D01*
X359665Y388890D01*
X359610Y388806D01*
X359558Y388720D01*
X359509Y388632D01*
X359464Y388542D01*
X359422Y388450D01*
X359384Y388357D01*
X359350Y388262D01*
X359319Y388167D01*
X359292Y388070D01*
X359269Y387972D01*
X359249Y387873D01*
X359234Y387773D01*
X359222Y387673D01*
X359214Y387573D01*
X359210Y387472D01*
X359210Y387372D01*
X359214Y387271D01*
X359222Y387171D01*
X359234Y387071D01*
X359249Y386971D01*
X359269Y386872D01*
X359292Y386774D01*
X359319Y386677D01*
X359350Y386582D01*
X359384Y386487D01*
X359422Y386394D01*
X359464Y386302D01*
X359509Y386212D01*
X359558Y386124D01*
X359610Y386038D01*
X359665Y385954D01*
X359724Y385872D01*
X359785Y385792D01*
X359850Y385715D01*
X359918Y385641D01*
X359988Y385569D01*
X360061Y385500D01*
X360137Y385433D01*
X360216Y385370D01*
X360296Y385310D01*
X360379Y385253D01*
X360465Y385199D01*
X360552Y385149D01*
X360641Y385102D01*
X360732Y385059D01*
X360824Y385019D01*
X360918Y384983D01*
X361013Y384950D01*
X361110Y384921D01*
X361207Y384896D01*
X361306Y384875D01*
X361405Y384857D01*
X361505Y384844D01*
X361605Y384834D01*
X361705Y384828D01*
X361806Y384826D01*
X361806Y384825D02*
X364402Y384825D01*
X354270Y380931D02*
X351674Y390018D01*
X354270Y380931D02*
X347779Y380931D01*
X349727Y383527D02*
X349727Y378334D01*
X387417Y597480D02*
X387417Y605918D01*
X387418Y597480D02*
X387416Y597367D01*
X387410Y597254D01*
X387400Y597141D01*
X387386Y597028D01*
X387369Y596916D01*
X387347Y596805D01*
X387322Y596695D01*
X387292Y596585D01*
X387259Y596477D01*
X387222Y596370D01*
X387182Y596264D01*
X387137Y596160D01*
X387089Y596057D01*
X387038Y595956D01*
X386983Y595857D01*
X386925Y595760D01*
X386863Y595665D01*
X386798Y595572D01*
X386730Y595482D01*
X386659Y595394D01*
X386584Y595308D01*
X386507Y595225D01*
X386427Y595145D01*
X386344Y595068D01*
X386258Y594993D01*
X386170Y594922D01*
X386080Y594854D01*
X385987Y594789D01*
X385892Y594727D01*
X385795Y594669D01*
X385696Y594614D01*
X385595Y594563D01*
X385492Y594515D01*
X385388Y594470D01*
X385282Y594430D01*
X385175Y594393D01*
X385067Y594360D01*
X384957Y594330D01*
X384847Y594305D01*
X384736Y594283D01*
X384624Y594266D01*
X384511Y594252D01*
X384398Y594242D01*
X384285Y594236D01*
X384172Y594234D01*
X384059Y594236D01*
X383946Y594242D01*
X383833Y594252D01*
X383720Y594266D01*
X383608Y594283D01*
X383497Y594305D01*
X383387Y594330D01*
X383277Y594360D01*
X383169Y594393D01*
X383062Y594430D01*
X382956Y594470D01*
X382852Y594515D01*
X382749Y594563D01*
X382648Y594614D01*
X382549Y594669D01*
X382452Y594727D01*
X382357Y594789D01*
X382264Y594854D01*
X382174Y594922D01*
X382086Y594993D01*
X382000Y595068D01*
X381917Y595145D01*
X381837Y595225D01*
X381760Y595308D01*
X381685Y595394D01*
X381614Y595482D01*
X381546Y595572D01*
X381481Y595665D01*
X381419Y595760D01*
X381361Y595857D01*
X381306Y595956D01*
X381255Y596057D01*
X381207Y596160D01*
X381162Y596264D01*
X381122Y596370D01*
X381085Y596477D01*
X381052Y596585D01*
X381022Y596695D01*
X380997Y596805D01*
X380975Y596916D01*
X380958Y597028D01*
X380944Y597141D01*
X380934Y597254D01*
X380928Y597367D01*
X380926Y597480D01*
X380926Y605918D01*
X373123Y605918D02*
X373123Y594234D01*
X373123Y600076D02*
X374746Y601050D01*
X374746Y601049D02*
X374819Y601096D01*
X374890Y601145D01*
X374960Y601198D01*
X375026Y601254D01*
X375090Y601313D01*
X375152Y601374D01*
X375210Y601438D01*
X375266Y601505D01*
X375318Y601574D01*
X375368Y601646D01*
X375414Y601720D01*
X375457Y601795D01*
X375496Y601873D01*
X375532Y601952D01*
X375564Y602033D01*
X375593Y602115D01*
X375618Y602198D01*
X375639Y602282D01*
X375656Y602367D01*
X375670Y602453D01*
X375679Y602539D01*
X375685Y602626D01*
X375687Y602713D01*
X375685Y602800D01*
X375679Y602887D01*
X375669Y602973D01*
X375656Y603059D01*
X375638Y603144D01*
X375617Y603228D01*
X375592Y603311D01*
X375563Y603394D01*
X375531Y603474D01*
X375495Y603553D01*
X375456Y603631D01*
X375413Y603706D01*
X375366Y603780D01*
X375317Y603851D01*
X375264Y603921D01*
X375209Y603987D01*
X375150Y604051D01*
X375089Y604113D01*
X375024Y604172D01*
X374958Y604227D01*
X374889Y604280D01*
X374817Y604330D01*
X374744Y604376D01*
X374668Y604419D01*
X374591Y604458D01*
X374512Y604494D01*
X374431Y604527D01*
X374349Y604555D01*
X374266Y604581D01*
X374182Y604602D01*
X374096Y604619D01*
X374096Y604620D02*
X373956Y604644D01*
X373814Y604664D01*
X373673Y604680D01*
X373531Y604691D01*
X373388Y604699D01*
X373246Y604703D01*
X373103Y604704D01*
X372960Y604700D01*
X372818Y604692D01*
X372676Y604680D01*
X372534Y604664D01*
X372393Y604645D01*
X372252Y604621D01*
X372112Y604594D01*
X371973Y604562D01*
X371835Y604527D01*
X371697Y604488D01*
X371561Y604445D01*
X371427Y604399D01*
X371293Y604348D01*
X371161Y604295D01*
X371031Y604237D01*
X370902Y604176D01*
X370775Y604111D01*
X370649Y604043D01*
X370526Y603971D01*
X373123Y600076D02*
X371500Y599102D01*
X371500Y599103D02*
X371427Y599056D01*
X371356Y599007D01*
X371286Y598954D01*
X371220Y598898D01*
X371156Y598839D01*
X371094Y598778D01*
X371036Y598714D01*
X370980Y598647D01*
X370928Y598578D01*
X370878Y598506D01*
X370832Y598432D01*
X370789Y598357D01*
X370750Y598279D01*
X370714Y598200D01*
X370682Y598119D01*
X370653Y598037D01*
X370628Y597954D01*
X370607Y597870D01*
X370590Y597785D01*
X370576Y597699D01*
X370567Y597613D01*
X370561Y597526D01*
X370559Y597439D01*
X370561Y597352D01*
X370567Y597265D01*
X370577Y597179D01*
X370590Y597093D01*
X370608Y597008D01*
X370629Y596924D01*
X370654Y596841D01*
X370683Y596758D01*
X370715Y596678D01*
X370751Y596599D01*
X370790Y596521D01*
X370833Y596446D01*
X370880Y596372D01*
X370929Y596301D01*
X370982Y596231D01*
X371037Y596165D01*
X371096Y596101D01*
X371157Y596039D01*
X371222Y595980D01*
X371288Y595925D01*
X371357Y595872D01*
X371429Y595822D01*
X371502Y595776D01*
X371578Y595733D01*
X371655Y595694D01*
X371734Y595658D01*
X371815Y595625D01*
X371897Y595597D01*
X371980Y595571D01*
X372064Y595550D01*
X372149Y595533D01*
X372149Y595532D02*
X372289Y595508D01*
X372431Y595488D01*
X372572Y595472D01*
X372714Y595461D01*
X372857Y595453D01*
X372999Y595449D01*
X373142Y595448D01*
X373285Y595452D01*
X373427Y595460D01*
X373569Y595472D01*
X373711Y595488D01*
X373852Y595507D01*
X373993Y595531D01*
X374133Y595558D01*
X374272Y595590D01*
X374410Y595625D01*
X374548Y595664D01*
X374684Y595707D01*
X374818Y595753D01*
X374952Y595804D01*
X375084Y595857D01*
X375215Y595915D01*
X375343Y595976D01*
X375470Y596041D01*
X375596Y596109D01*
X375719Y596181D01*
X365700Y594234D02*
X361806Y594234D01*
X361806Y594235D02*
X361707Y594237D01*
X361607Y594243D01*
X361508Y594252D01*
X361410Y594265D01*
X361312Y594282D01*
X361214Y594303D01*
X361118Y594328D01*
X361023Y594356D01*
X360929Y594388D01*
X360836Y594423D01*
X360744Y594462D01*
X360654Y594505D01*
X360566Y594550D01*
X360479Y594600D01*
X360395Y594652D01*
X360312Y594708D01*
X360232Y594766D01*
X360154Y594828D01*
X360079Y594893D01*
X360006Y594961D01*
X359936Y595031D01*
X359868Y595104D01*
X359803Y595179D01*
X359741Y595257D01*
X359683Y595337D01*
X359627Y595420D01*
X359575Y595504D01*
X359525Y595591D01*
X359480Y595679D01*
X359437Y595769D01*
X359398Y595861D01*
X359363Y595954D01*
X359331Y596048D01*
X359303Y596143D01*
X359278Y596239D01*
X359257Y596337D01*
X359240Y596435D01*
X359227Y596533D01*
X359218Y596632D01*
X359212Y596732D01*
X359210Y596831D01*
X359209Y596831D02*
X359209Y598129D01*
X359210Y598129D02*
X359212Y598228D01*
X359218Y598328D01*
X359227Y598427D01*
X359240Y598525D01*
X359257Y598623D01*
X359278Y598721D01*
X359303Y598817D01*
X359331Y598912D01*
X359363Y599006D01*
X359398Y599099D01*
X359437Y599191D01*
X359480Y599281D01*
X359525Y599369D01*
X359575Y599456D01*
X359627Y599540D01*
X359683Y599623D01*
X359741Y599703D01*
X359803Y599781D01*
X359868Y599856D01*
X359936Y599929D01*
X360006Y599999D01*
X360079Y600067D01*
X360154Y600132D01*
X360232Y600194D01*
X360312Y600252D01*
X360395Y600308D01*
X360479Y600360D01*
X360566Y600410D01*
X360654Y600455D01*
X360744Y600498D01*
X360836Y600537D01*
X360929Y600572D01*
X361023Y600604D01*
X361118Y600632D01*
X361214Y600657D01*
X361312Y600678D01*
X361410Y600695D01*
X361508Y600708D01*
X361607Y600717D01*
X361707Y600723D01*
X361806Y600725D01*
X365700Y600725D01*
X365700Y605918D01*
X359209Y605918D01*
X354271Y597480D02*
X354269Y597593D01*
X354263Y597706D01*
X354253Y597819D01*
X354239Y597932D01*
X354222Y598044D01*
X354200Y598155D01*
X354175Y598265D01*
X354145Y598375D01*
X354112Y598483D01*
X354075Y598590D01*
X354035Y598696D01*
X353990Y598800D01*
X353942Y598903D01*
X353891Y599004D01*
X353836Y599103D01*
X353778Y599200D01*
X353716Y599295D01*
X353651Y599388D01*
X353583Y599478D01*
X353512Y599566D01*
X353437Y599652D01*
X353360Y599735D01*
X353280Y599815D01*
X353197Y599892D01*
X353111Y599967D01*
X353023Y600038D01*
X352933Y600106D01*
X352840Y600171D01*
X352745Y600233D01*
X352648Y600291D01*
X352549Y600346D01*
X352448Y600397D01*
X352345Y600445D01*
X352241Y600490D01*
X352135Y600530D01*
X352028Y600567D01*
X351920Y600600D01*
X351810Y600630D01*
X351700Y600655D01*
X351589Y600677D01*
X351477Y600694D01*
X351364Y600708D01*
X351251Y600718D01*
X351138Y600724D01*
X351025Y600726D01*
X350912Y600724D01*
X350799Y600718D01*
X350686Y600708D01*
X350573Y600694D01*
X350461Y600677D01*
X350350Y600655D01*
X350240Y600630D01*
X350130Y600600D01*
X350022Y600567D01*
X349915Y600530D01*
X349809Y600490D01*
X349705Y600445D01*
X349602Y600397D01*
X349501Y600346D01*
X349402Y600291D01*
X349305Y600233D01*
X349210Y600171D01*
X349117Y600106D01*
X349027Y600038D01*
X348939Y599967D01*
X348853Y599892D01*
X348770Y599815D01*
X348690Y599735D01*
X348613Y599652D01*
X348538Y599566D01*
X348467Y599478D01*
X348399Y599388D01*
X348334Y599295D01*
X348272Y599200D01*
X348214Y599103D01*
X348159Y599004D01*
X348108Y598903D01*
X348060Y598800D01*
X348015Y598696D01*
X347975Y598590D01*
X347938Y598483D01*
X347905Y598375D01*
X347875Y598265D01*
X347850Y598155D01*
X347828Y598044D01*
X347811Y597932D01*
X347797Y597819D01*
X347787Y597706D01*
X347781Y597593D01*
X347779Y597480D01*
X347781Y597367D01*
X347787Y597254D01*
X347797Y597141D01*
X347811Y597028D01*
X347828Y596916D01*
X347850Y596805D01*
X347875Y596695D01*
X347905Y596585D01*
X347938Y596477D01*
X347975Y596370D01*
X348015Y596264D01*
X348060Y596160D01*
X348108Y596057D01*
X348159Y595956D01*
X348214Y595857D01*
X348272Y595760D01*
X348334Y595665D01*
X348399Y595572D01*
X348467Y595482D01*
X348538Y595394D01*
X348613Y595308D01*
X348690Y595225D01*
X348770Y595145D01*
X348853Y595068D01*
X348939Y594993D01*
X349027Y594922D01*
X349117Y594854D01*
X349210Y594789D01*
X349305Y594727D01*
X349402Y594669D01*
X349501Y594614D01*
X349602Y594563D01*
X349705Y594515D01*
X349809Y594470D01*
X349915Y594430D01*
X350022Y594393D01*
X350130Y594360D01*
X350240Y594330D01*
X350350Y594305D01*
X350461Y594283D01*
X350573Y594266D01*
X350686Y594252D01*
X350799Y594242D01*
X350912Y594236D01*
X351025Y594234D01*
X351138Y594236D01*
X351251Y594242D01*
X351364Y594252D01*
X351477Y594266D01*
X351589Y594283D01*
X351700Y594305D01*
X351810Y594330D01*
X351920Y594360D01*
X352028Y594393D01*
X352135Y594430D01*
X352241Y594470D01*
X352345Y594515D01*
X352448Y594563D01*
X352549Y594614D01*
X352648Y594669D01*
X352745Y594727D01*
X352840Y594789D01*
X352933Y594854D01*
X353023Y594922D01*
X353111Y594993D01*
X353197Y595068D01*
X353280Y595145D01*
X353360Y595225D01*
X353437Y595308D01*
X353512Y595394D01*
X353583Y595482D01*
X353651Y595572D01*
X353716Y595665D01*
X353778Y595760D01*
X353836Y595857D01*
X353891Y595956D01*
X353942Y596057D01*
X353990Y596160D01*
X354035Y596264D01*
X354075Y596370D01*
X354112Y596477D01*
X354145Y596585D01*
X354175Y596695D01*
X354200Y596805D01*
X354222Y596916D01*
X354239Y597028D01*
X354253Y597141D01*
X354263Y597254D01*
X354269Y597367D01*
X354271Y597480D01*
X353621Y603322D02*
X353619Y603423D01*
X353613Y603523D01*
X353603Y603623D01*
X353590Y603723D01*
X353572Y603822D01*
X353551Y603921D01*
X353526Y604018D01*
X353497Y604115D01*
X353464Y604210D01*
X353428Y604304D01*
X353388Y604396D01*
X353345Y604487D01*
X353298Y604576D01*
X353248Y604663D01*
X353194Y604749D01*
X353137Y604832D01*
X353077Y604912D01*
X353014Y604991D01*
X352947Y605067D01*
X352878Y605140D01*
X352806Y605210D01*
X352732Y605278D01*
X352655Y605343D01*
X352575Y605404D01*
X352493Y605463D01*
X352409Y605518D01*
X352323Y605570D01*
X352235Y605619D01*
X352145Y605664D01*
X352053Y605706D01*
X351960Y605744D01*
X351865Y605778D01*
X351770Y605809D01*
X351673Y605836D01*
X351575Y605859D01*
X351476Y605879D01*
X351376Y605894D01*
X351276Y605906D01*
X351176Y605914D01*
X351075Y605918D01*
X350975Y605918D01*
X350874Y605914D01*
X350774Y605906D01*
X350674Y605894D01*
X350574Y605879D01*
X350475Y605859D01*
X350377Y605836D01*
X350280Y605809D01*
X350185Y605778D01*
X350090Y605744D01*
X349997Y605706D01*
X349905Y605664D01*
X349815Y605619D01*
X349727Y605570D01*
X349641Y605518D01*
X349557Y605463D01*
X349475Y605404D01*
X349395Y605343D01*
X349318Y605278D01*
X349244Y605210D01*
X349172Y605140D01*
X349103Y605067D01*
X349036Y604991D01*
X348973Y604912D01*
X348913Y604832D01*
X348856Y604749D01*
X348802Y604663D01*
X348752Y604576D01*
X348705Y604487D01*
X348662Y604396D01*
X348622Y604304D01*
X348586Y604210D01*
X348553Y604115D01*
X348524Y604018D01*
X348499Y603921D01*
X348478Y603822D01*
X348460Y603723D01*
X348447Y603623D01*
X348437Y603523D01*
X348431Y603423D01*
X348429Y603322D01*
X348431Y603221D01*
X348437Y603121D01*
X348447Y603021D01*
X348460Y602921D01*
X348478Y602822D01*
X348499Y602723D01*
X348524Y602626D01*
X348553Y602529D01*
X348586Y602434D01*
X348622Y602340D01*
X348662Y602248D01*
X348705Y602157D01*
X348752Y602068D01*
X348802Y601981D01*
X348856Y601895D01*
X348913Y601812D01*
X348973Y601732D01*
X349036Y601653D01*
X349103Y601577D01*
X349172Y601504D01*
X349244Y601434D01*
X349318Y601366D01*
X349395Y601301D01*
X349475Y601240D01*
X349557Y601181D01*
X349641Y601126D01*
X349727Y601074D01*
X349815Y601025D01*
X349905Y600980D01*
X349997Y600938D01*
X350090Y600900D01*
X350185Y600866D01*
X350280Y600835D01*
X350377Y600808D01*
X350475Y600785D01*
X350574Y600765D01*
X350674Y600750D01*
X350774Y600738D01*
X350874Y600730D01*
X350975Y600726D01*
X351075Y600726D01*
X351176Y600730D01*
X351276Y600738D01*
X351376Y600750D01*
X351476Y600765D01*
X351575Y600785D01*
X351673Y600808D01*
X351770Y600835D01*
X351865Y600866D01*
X351960Y600900D01*
X352053Y600938D01*
X352145Y600980D01*
X352235Y601025D01*
X352323Y601074D01*
X352409Y601126D01*
X352493Y601181D01*
X352575Y601240D01*
X352655Y601301D01*
X352732Y601366D01*
X352806Y601434D01*
X352878Y601504D01*
X352947Y601577D01*
X353014Y601653D01*
X353077Y601732D01*
X353137Y601812D01*
X353194Y601895D01*
X353248Y601981D01*
X353298Y602068D01*
X353345Y602157D01*
X353388Y602248D01*
X353428Y602340D01*
X353464Y602434D01*
X353497Y602529D01*
X353526Y602626D01*
X353551Y602723D01*
X353572Y602822D01*
X353590Y602921D01*
X353603Y603021D01*
X353613Y603121D01*
X353619Y603221D01*
X353621Y603322D01*
X387417Y813380D02*
X387417Y821818D01*
X387418Y813380D02*
X387416Y813267D01*
X387410Y813154D01*
X387400Y813041D01*
X387386Y812928D01*
X387369Y812816D01*
X387347Y812705D01*
X387322Y812595D01*
X387292Y812485D01*
X387259Y812377D01*
X387222Y812270D01*
X387182Y812164D01*
X387137Y812060D01*
X387089Y811957D01*
X387038Y811856D01*
X386983Y811757D01*
X386925Y811660D01*
X386863Y811565D01*
X386798Y811472D01*
X386730Y811382D01*
X386659Y811294D01*
X386584Y811208D01*
X386507Y811125D01*
X386427Y811045D01*
X386344Y810968D01*
X386258Y810893D01*
X386170Y810822D01*
X386080Y810754D01*
X385987Y810689D01*
X385892Y810627D01*
X385795Y810569D01*
X385696Y810514D01*
X385595Y810463D01*
X385492Y810415D01*
X385388Y810370D01*
X385282Y810330D01*
X385175Y810293D01*
X385067Y810260D01*
X384957Y810230D01*
X384847Y810205D01*
X384736Y810183D01*
X384624Y810166D01*
X384511Y810152D01*
X384398Y810142D01*
X384285Y810136D01*
X384172Y810134D01*
X384059Y810136D01*
X383946Y810142D01*
X383833Y810152D01*
X383720Y810166D01*
X383608Y810183D01*
X383497Y810205D01*
X383387Y810230D01*
X383277Y810260D01*
X383169Y810293D01*
X383062Y810330D01*
X382956Y810370D01*
X382852Y810415D01*
X382749Y810463D01*
X382648Y810514D01*
X382549Y810569D01*
X382452Y810627D01*
X382357Y810689D01*
X382264Y810754D01*
X382174Y810822D01*
X382086Y810893D01*
X382000Y810968D01*
X381917Y811045D01*
X381837Y811125D01*
X381760Y811208D01*
X381685Y811294D01*
X381614Y811382D01*
X381546Y811472D01*
X381481Y811565D01*
X381419Y811660D01*
X381361Y811757D01*
X381306Y811856D01*
X381255Y811957D01*
X381207Y812060D01*
X381162Y812164D01*
X381122Y812270D01*
X381085Y812377D01*
X381052Y812485D01*
X381022Y812595D01*
X380997Y812705D01*
X380975Y812816D01*
X380958Y812928D01*
X380944Y813041D01*
X380934Y813154D01*
X380928Y813267D01*
X380926Y813380D01*
X380926Y821818D01*
X373123Y821818D02*
X373123Y810134D01*
X373123Y815976D02*
X374746Y816950D01*
X374746Y816949D02*
X374819Y816996D01*
X374890Y817045D01*
X374960Y817098D01*
X375026Y817154D01*
X375090Y817213D01*
X375152Y817274D01*
X375210Y817338D01*
X375266Y817405D01*
X375318Y817474D01*
X375368Y817546D01*
X375414Y817620D01*
X375457Y817695D01*
X375496Y817773D01*
X375532Y817852D01*
X375564Y817933D01*
X375593Y818015D01*
X375618Y818098D01*
X375639Y818182D01*
X375656Y818267D01*
X375670Y818353D01*
X375679Y818439D01*
X375685Y818526D01*
X375687Y818613D01*
X375685Y818700D01*
X375679Y818787D01*
X375669Y818873D01*
X375656Y818959D01*
X375638Y819044D01*
X375617Y819128D01*
X375592Y819211D01*
X375563Y819294D01*
X375531Y819374D01*
X375495Y819453D01*
X375456Y819531D01*
X375413Y819606D01*
X375366Y819680D01*
X375317Y819751D01*
X375264Y819821D01*
X375209Y819887D01*
X375150Y819951D01*
X375089Y820013D01*
X375024Y820072D01*
X374958Y820127D01*
X374889Y820180D01*
X374817Y820230D01*
X374744Y820276D01*
X374668Y820319D01*
X374591Y820358D01*
X374512Y820394D01*
X374431Y820427D01*
X374349Y820455D01*
X374266Y820481D01*
X374182Y820502D01*
X374096Y820519D01*
X374096Y820520D02*
X373956Y820544D01*
X373814Y820564D01*
X373673Y820580D01*
X373531Y820591D01*
X373388Y820599D01*
X373246Y820603D01*
X373103Y820604D01*
X372960Y820600D01*
X372818Y820592D01*
X372676Y820580D01*
X372534Y820564D01*
X372393Y820545D01*
X372252Y820521D01*
X372112Y820494D01*
X371973Y820462D01*
X371835Y820427D01*
X371697Y820388D01*
X371561Y820345D01*
X371427Y820299D01*
X371293Y820248D01*
X371161Y820195D01*
X371031Y820137D01*
X370902Y820076D01*
X370775Y820011D01*
X370649Y819943D01*
X370526Y819871D01*
X373123Y815976D02*
X371500Y815002D01*
X371500Y815003D02*
X371427Y814956D01*
X371356Y814907D01*
X371286Y814854D01*
X371220Y814798D01*
X371156Y814739D01*
X371094Y814678D01*
X371036Y814614D01*
X370980Y814547D01*
X370928Y814478D01*
X370878Y814406D01*
X370832Y814332D01*
X370789Y814257D01*
X370750Y814179D01*
X370714Y814100D01*
X370682Y814019D01*
X370653Y813937D01*
X370628Y813854D01*
X370607Y813770D01*
X370590Y813685D01*
X370576Y813599D01*
X370567Y813513D01*
X370561Y813426D01*
X370559Y813339D01*
X370561Y813252D01*
X370567Y813165D01*
X370577Y813079D01*
X370590Y812993D01*
X370608Y812908D01*
X370629Y812824D01*
X370654Y812741D01*
X370683Y812658D01*
X370715Y812578D01*
X370751Y812499D01*
X370790Y812421D01*
X370833Y812346D01*
X370880Y812272D01*
X370929Y812201D01*
X370982Y812131D01*
X371037Y812065D01*
X371096Y812001D01*
X371157Y811939D01*
X371222Y811880D01*
X371288Y811825D01*
X371357Y811772D01*
X371429Y811722D01*
X371502Y811676D01*
X371578Y811633D01*
X371655Y811594D01*
X371734Y811558D01*
X371815Y811525D01*
X371897Y811497D01*
X371980Y811471D01*
X372064Y811450D01*
X372149Y811433D01*
X372149Y811432D02*
X372289Y811408D01*
X372431Y811388D01*
X372572Y811372D01*
X372714Y811361D01*
X372857Y811353D01*
X372999Y811349D01*
X373142Y811348D01*
X373285Y811352D01*
X373427Y811360D01*
X373569Y811372D01*
X373711Y811388D01*
X373852Y811407D01*
X373993Y811431D01*
X374133Y811458D01*
X374272Y811490D01*
X374410Y811525D01*
X374548Y811564D01*
X374684Y811607D01*
X374818Y811653D01*
X374952Y811704D01*
X375084Y811757D01*
X375215Y811815D01*
X375343Y811876D01*
X375470Y811941D01*
X375596Y812009D01*
X375719Y812081D01*
X365701Y813380D02*
X365699Y813493D01*
X365693Y813606D01*
X365683Y813719D01*
X365669Y813832D01*
X365652Y813944D01*
X365630Y814055D01*
X365605Y814165D01*
X365575Y814275D01*
X365542Y814383D01*
X365505Y814490D01*
X365465Y814596D01*
X365420Y814700D01*
X365372Y814803D01*
X365321Y814904D01*
X365266Y815003D01*
X365208Y815100D01*
X365146Y815195D01*
X365081Y815288D01*
X365013Y815378D01*
X364942Y815466D01*
X364867Y815552D01*
X364790Y815635D01*
X364710Y815715D01*
X364627Y815792D01*
X364541Y815867D01*
X364453Y815938D01*
X364363Y816006D01*
X364270Y816071D01*
X364175Y816133D01*
X364078Y816191D01*
X363979Y816246D01*
X363878Y816297D01*
X363775Y816345D01*
X363671Y816390D01*
X363565Y816430D01*
X363458Y816467D01*
X363350Y816500D01*
X363240Y816530D01*
X363130Y816555D01*
X363019Y816577D01*
X362907Y816594D01*
X362794Y816608D01*
X362681Y816618D01*
X362568Y816624D01*
X362455Y816626D01*
X362342Y816624D01*
X362229Y816618D01*
X362116Y816608D01*
X362003Y816594D01*
X361891Y816577D01*
X361780Y816555D01*
X361670Y816530D01*
X361560Y816500D01*
X361452Y816467D01*
X361345Y816430D01*
X361239Y816390D01*
X361135Y816345D01*
X361032Y816297D01*
X360931Y816246D01*
X360832Y816191D01*
X360735Y816133D01*
X360640Y816071D01*
X360547Y816006D01*
X360457Y815938D01*
X360369Y815867D01*
X360283Y815792D01*
X360200Y815715D01*
X360120Y815635D01*
X360043Y815552D01*
X359968Y815466D01*
X359897Y815378D01*
X359829Y815288D01*
X359764Y815195D01*
X359702Y815100D01*
X359644Y815003D01*
X359589Y814904D01*
X359538Y814803D01*
X359490Y814700D01*
X359445Y814596D01*
X359405Y814490D01*
X359368Y814383D01*
X359335Y814275D01*
X359305Y814165D01*
X359280Y814055D01*
X359258Y813944D01*
X359241Y813832D01*
X359227Y813719D01*
X359217Y813606D01*
X359211Y813493D01*
X359209Y813380D01*
X359211Y813267D01*
X359217Y813154D01*
X359227Y813041D01*
X359241Y812928D01*
X359258Y812816D01*
X359280Y812705D01*
X359305Y812595D01*
X359335Y812485D01*
X359368Y812377D01*
X359405Y812270D01*
X359445Y812164D01*
X359490Y812060D01*
X359538Y811957D01*
X359589Y811856D01*
X359644Y811757D01*
X359702Y811660D01*
X359764Y811565D01*
X359829Y811472D01*
X359897Y811382D01*
X359968Y811294D01*
X360043Y811208D01*
X360120Y811125D01*
X360200Y811045D01*
X360283Y810968D01*
X360369Y810893D01*
X360457Y810822D01*
X360547Y810754D01*
X360640Y810689D01*
X360735Y810627D01*
X360832Y810569D01*
X360931Y810514D01*
X361032Y810463D01*
X361135Y810415D01*
X361239Y810370D01*
X361345Y810330D01*
X361452Y810293D01*
X361560Y810260D01*
X361670Y810230D01*
X361780Y810205D01*
X361891Y810183D01*
X362003Y810166D01*
X362116Y810152D01*
X362229Y810142D01*
X362342Y810136D01*
X362455Y810134D01*
X362568Y810136D01*
X362681Y810142D01*
X362794Y810152D01*
X362907Y810166D01*
X363019Y810183D01*
X363130Y810205D01*
X363240Y810230D01*
X363350Y810260D01*
X363458Y810293D01*
X363565Y810330D01*
X363671Y810370D01*
X363775Y810415D01*
X363878Y810463D01*
X363979Y810514D01*
X364078Y810569D01*
X364175Y810627D01*
X364270Y810689D01*
X364363Y810754D01*
X364453Y810822D01*
X364541Y810893D01*
X364627Y810968D01*
X364710Y811045D01*
X364790Y811125D01*
X364867Y811208D01*
X364942Y811294D01*
X365013Y811382D01*
X365081Y811472D01*
X365146Y811565D01*
X365208Y811660D01*
X365266Y811757D01*
X365321Y811856D01*
X365372Y811957D01*
X365420Y812060D01*
X365465Y812164D01*
X365505Y812270D01*
X365542Y812377D01*
X365575Y812485D01*
X365605Y812595D01*
X365630Y812705D01*
X365652Y812816D01*
X365669Y812928D01*
X365683Y813041D01*
X365693Y813154D01*
X365699Y813267D01*
X365701Y813380D01*
X365051Y819222D02*
X365049Y819323D01*
X365043Y819423D01*
X365033Y819523D01*
X365020Y819623D01*
X365002Y819722D01*
X364981Y819821D01*
X364956Y819918D01*
X364927Y820015D01*
X364894Y820110D01*
X364858Y820204D01*
X364818Y820296D01*
X364775Y820387D01*
X364728Y820476D01*
X364678Y820563D01*
X364624Y820649D01*
X364567Y820732D01*
X364507Y820812D01*
X364444Y820891D01*
X364377Y820967D01*
X364308Y821040D01*
X364236Y821110D01*
X364162Y821178D01*
X364085Y821243D01*
X364005Y821304D01*
X363923Y821363D01*
X363839Y821418D01*
X363753Y821470D01*
X363665Y821519D01*
X363575Y821564D01*
X363483Y821606D01*
X363390Y821644D01*
X363295Y821678D01*
X363200Y821709D01*
X363103Y821736D01*
X363005Y821759D01*
X362906Y821779D01*
X362806Y821794D01*
X362706Y821806D01*
X362606Y821814D01*
X362505Y821818D01*
X362405Y821818D01*
X362304Y821814D01*
X362204Y821806D01*
X362104Y821794D01*
X362004Y821779D01*
X361905Y821759D01*
X361807Y821736D01*
X361710Y821709D01*
X361615Y821678D01*
X361520Y821644D01*
X361427Y821606D01*
X361335Y821564D01*
X361245Y821519D01*
X361157Y821470D01*
X361071Y821418D01*
X360987Y821363D01*
X360905Y821304D01*
X360825Y821243D01*
X360748Y821178D01*
X360674Y821110D01*
X360602Y821040D01*
X360533Y820967D01*
X360466Y820891D01*
X360403Y820812D01*
X360343Y820732D01*
X360286Y820649D01*
X360232Y820563D01*
X360182Y820476D01*
X360135Y820387D01*
X360092Y820296D01*
X360052Y820204D01*
X360016Y820110D01*
X359983Y820015D01*
X359954Y819918D01*
X359929Y819821D01*
X359908Y819722D01*
X359890Y819623D01*
X359877Y819523D01*
X359867Y819423D01*
X359861Y819323D01*
X359859Y819222D01*
X359861Y819121D01*
X359867Y819021D01*
X359877Y818921D01*
X359890Y818821D01*
X359908Y818722D01*
X359929Y818623D01*
X359954Y818526D01*
X359983Y818429D01*
X360016Y818334D01*
X360052Y818240D01*
X360092Y818148D01*
X360135Y818057D01*
X360182Y817968D01*
X360232Y817881D01*
X360286Y817795D01*
X360343Y817712D01*
X360403Y817632D01*
X360466Y817553D01*
X360533Y817477D01*
X360602Y817404D01*
X360674Y817334D01*
X360748Y817266D01*
X360825Y817201D01*
X360905Y817140D01*
X360987Y817081D01*
X361071Y817026D01*
X361157Y816974D01*
X361245Y816925D01*
X361335Y816880D01*
X361427Y816838D01*
X361520Y816800D01*
X361615Y816766D01*
X361710Y816735D01*
X361807Y816708D01*
X361905Y816685D01*
X362004Y816665D01*
X362104Y816650D01*
X362204Y816638D01*
X362304Y816630D01*
X362405Y816626D01*
X362505Y816626D01*
X362606Y816630D01*
X362706Y816638D01*
X362806Y816650D01*
X362906Y816665D01*
X363005Y816685D01*
X363103Y816708D01*
X363200Y816735D01*
X363295Y816766D01*
X363390Y816800D01*
X363483Y816838D01*
X363575Y816880D01*
X363665Y816925D01*
X363753Y816974D01*
X363839Y817026D01*
X363923Y817081D01*
X364005Y817140D01*
X364085Y817201D01*
X364162Y817266D01*
X364236Y817334D01*
X364308Y817404D01*
X364377Y817477D01*
X364444Y817553D01*
X364507Y817632D01*
X364567Y817712D01*
X364624Y817795D01*
X364678Y817881D01*
X364728Y817968D01*
X364775Y818057D01*
X364818Y818148D01*
X364858Y818240D01*
X364894Y818334D01*
X364927Y818429D01*
X364956Y818526D01*
X364981Y818623D01*
X365002Y818722D01*
X365020Y818821D01*
X365033Y818921D01*
X365043Y819021D01*
X365049Y819121D01*
X365051Y819222D01*
X350700Y821818D02*
X350593Y821816D01*
X350487Y821810D01*
X350381Y821800D01*
X350275Y821787D01*
X350169Y821769D01*
X350065Y821748D01*
X349961Y821723D01*
X349858Y821694D01*
X349757Y821662D01*
X349657Y821625D01*
X349558Y821585D01*
X349460Y821542D01*
X349364Y821495D01*
X349270Y821444D01*
X349178Y821390D01*
X349088Y821333D01*
X349000Y821273D01*
X348915Y821209D01*
X348832Y821142D01*
X348751Y821072D01*
X348673Y821000D01*
X348597Y820924D01*
X348525Y820846D01*
X348455Y820765D01*
X348388Y820682D01*
X348324Y820597D01*
X348264Y820509D01*
X348207Y820419D01*
X348153Y820327D01*
X348102Y820233D01*
X348055Y820137D01*
X348012Y820039D01*
X347972Y819940D01*
X347935Y819840D01*
X347903Y819739D01*
X347874Y819636D01*
X347849Y819532D01*
X347828Y819428D01*
X347810Y819322D01*
X347797Y819216D01*
X347787Y819110D01*
X347781Y819004D01*
X347779Y818897D01*
X350700Y821818D02*
X350821Y821816D01*
X350942Y821810D01*
X351062Y821800D01*
X351183Y821787D01*
X351302Y821769D01*
X351422Y821748D01*
X351540Y821723D01*
X351657Y821694D01*
X351774Y821661D01*
X351889Y821625D01*
X352003Y821584D01*
X352116Y821541D01*
X352228Y821493D01*
X352337Y821442D01*
X352445Y821387D01*
X352552Y821329D01*
X352656Y821268D01*
X352758Y821203D01*
X352858Y821135D01*
X352956Y821064D01*
X353052Y820990D01*
X353145Y820913D01*
X353235Y820832D01*
X353323Y820749D01*
X353408Y820663D01*
X353491Y820574D01*
X353570Y820483D01*
X353647Y820389D01*
X353720Y820293D01*
X353790Y820195D01*
X353857Y820094D01*
X353921Y819991D01*
X353982Y819886D01*
X354039Y819779D01*
X354092Y819671D01*
X354142Y819561D01*
X354188Y819449D01*
X354231Y819336D01*
X354270Y819221D01*
X348754Y816625D02*
X348675Y816703D01*
X348599Y816783D01*
X348526Y816866D01*
X348456Y816952D01*
X348389Y817039D01*
X348325Y817130D01*
X348265Y817222D01*
X348207Y817316D01*
X348153Y817413D01*
X348103Y817511D01*
X348056Y817611D01*
X348012Y817712D01*
X347972Y817815D01*
X347936Y817920D01*
X347904Y818025D01*
X347875Y818132D01*
X347850Y818239D01*
X347828Y818348D01*
X347811Y818457D01*
X347797Y818566D01*
X347788Y818676D01*
X347782Y818787D01*
X347780Y818897D01*
X348753Y816625D02*
X354270Y810134D01*
X347779Y810134D01*
X680027Y360479D02*
X688466Y360479D01*
X680027Y360479D02*
X679914Y360481D01*
X679801Y360487D01*
X679688Y360497D01*
X679575Y360511D01*
X679463Y360528D01*
X679352Y360550D01*
X679242Y360575D01*
X679132Y360605D01*
X679024Y360638D01*
X678917Y360675D01*
X678811Y360715D01*
X678707Y360760D01*
X678604Y360808D01*
X678503Y360859D01*
X678404Y360914D01*
X678307Y360972D01*
X678212Y361034D01*
X678119Y361099D01*
X678029Y361167D01*
X677941Y361238D01*
X677855Y361313D01*
X677772Y361390D01*
X677692Y361470D01*
X677615Y361553D01*
X677540Y361639D01*
X677469Y361727D01*
X677401Y361817D01*
X677336Y361910D01*
X677274Y362005D01*
X677216Y362102D01*
X677161Y362201D01*
X677110Y362302D01*
X677062Y362405D01*
X677017Y362509D01*
X676977Y362615D01*
X676940Y362722D01*
X676907Y362830D01*
X676877Y362940D01*
X676852Y363050D01*
X676830Y363161D01*
X676813Y363273D01*
X676799Y363386D01*
X676789Y363499D01*
X676783Y363612D01*
X676781Y363725D01*
X676783Y363838D01*
X676789Y363951D01*
X676799Y364064D01*
X676813Y364177D01*
X676830Y364289D01*
X676852Y364400D01*
X676877Y364510D01*
X676907Y364620D01*
X676940Y364728D01*
X676977Y364835D01*
X677017Y364941D01*
X677062Y365045D01*
X677110Y365148D01*
X677161Y365249D01*
X677216Y365348D01*
X677274Y365445D01*
X677336Y365540D01*
X677401Y365633D01*
X677469Y365723D01*
X677540Y365811D01*
X677615Y365897D01*
X677692Y365980D01*
X677772Y366060D01*
X677855Y366137D01*
X677941Y366212D01*
X678029Y366283D01*
X678119Y366351D01*
X678212Y366416D01*
X678307Y366478D01*
X678404Y366536D01*
X678503Y366591D01*
X678604Y366642D01*
X678707Y366690D01*
X678811Y366735D01*
X678917Y366775D01*
X679024Y366812D01*
X679132Y366845D01*
X679242Y366875D01*
X679352Y366900D01*
X679463Y366922D01*
X679575Y366939D01*
X679688Y366953D01*
X679801Y366963D01*
X679914Y366969D01*
X680027Y366971D01*
X680027Y366970D02*
X688466Y366970D01*
X688466Y374774D02*
X676782Y374774D01*
X682624Y374774D02*
X683598Y373151D01*
X683597Y373151D02*
X683644Y373078D01*
X683693Y373007D01*
X683746Y372937D01*
X683802Y372871D01*
X683861Y372807D01*
X683922Y372745D01*
X683986Y372687D01*
X684053Y372631D01*
X684122Y372579D01*
X684194Y372529D01*
X684268Y372483D01*
X684343Y372440D01*
X684421Y372401D01*
X684500Y372365D01*
X684581Y372333D01*
X684663Y372304D01*
X684746Y372279D01*
X684830Y372258D01*
X684915Y372241D01*
X685001Y372227D01*
X685087Y372218D01*
X685174Y372212D01*
X685261Y372210D01*
X685348Y372212D01*
X685435Y372218D01*
X685521Y372228D01*
X685607Y372241D01*
X685692Y372259D01*
X685776Y372280D01*
X685859Y372305D01*
X685942Y372334D01*
X686022Y372366D01*
X686101Y372402D01*
X686179Y372441D01*
X686254Y372484D01*
X686328Y372531D01*
X686399Y372580D01*
X686469Y372633D01*
X686535Y372688D01*
X686599Y372747D01*
X686661Y372808D01*
X686720Y372873D01*
X686775Y372939D01*
X686828Y373008D01*
X686878Y373080D01*
X686924Y373153D01*
X686967Y373229D01*
X687006Y373306D01*
X687042Y373385D01*
X687075Y373466D01*
X687103Y373548D01*
X687129Y373631D01*
X687150Y373715D01*
X687167Y373801D01*
X687168Y373800D02*
X687192Y373940D01*
X687212Y374082D01*
X687228Y374223D01*
X687239Y374365D01*
X687247Y374508D01*
X687251Y374650D01*
X687252Y374793D01*
X687248Y374936D01*
X687240Y375078D01*
X687228Y375220D01*
X687212Y375362D01*
X687193Y375503D01*
X687169Y375644D01*
X687142Y375784D01*
X687110Y375923D01*
X687075Y376061D01*
X687036Y376199D01*
X686993Y376335D01*
X686947Y376469D01*
X686896Y376603D01*
X686843Y376735D01*
X686785Y376865D01*
X686724Y376994D01*
X686659Y377121D01*
X686591Y377247D01*
X686519Y377370D01*
X682624Y374774D02*
X681650Y376397D01*
X681651Y376397D02*
X681604Y376470D01*
X681555Y376541D01*
X681502Y376611D01*
X681446Y376677D01*
X681387Y376741D01*
X681326Y376803D01*
X681262Y376861D01*
X681195Y376917D01*
X681126Y376969D01*
X681054Y377019D01*
X680980Y377065D01*
X680905Y377108D01*
X680827Y377147D01*
X680748Y377183D01*
X680667Y377215D01*
X680585Y377244D01*
X680502Y377269D01*
X680418Y377290D01*
X680333Y377307D01*
X680247Y377321D01*
X680161Y377330D01*
X680074Y377336D01*
X679987Y377338D01*
X679900Y377336D01*
X679813Y377330D01*
X679727Y377320D01*
X679641Y377307D01*
X679556Y377289D01*
X679472Y377268D01*
X679389Y377243D01*
X679306Y377214D01*
X679226Y377182D01*
X679147Y377146D01*
X679069Y377107D01*
X678994Y377064D01*
X678920Y377017D01*
X678849Y376968D01*
X678779Y376915D01*
X678713Y376860D01*
X678649Y376801D01*
X678587Y376740D01*
X678528Y376675D01*
X678473Y376609D01*
X678420Y376540D01*
X678370Y376468D01*
X678324Y376395D01*
X678281Y376319D01*
X678242Y376242D01*
X678206Y376163D01*
X678173Y376082D01*
X678145Y376000D01*
X678119Y375917D01*
X678098Y375833D01*
X678081Y375748D01*
X678080Y375747D02*
X678056Y375607D01*
X678036Y375465D01*
X678020Y375324D01*
X678009Y375182D01*
X678001Y375039D01*
X677997Y374897D01*
X677996Y374754D01*
X678000Y374611D01*
X678008Y374469D01*
X678020Y374327D01*
X678036Y374185D01*
X678055Y374044D01*
X678079Y373903D01*
X678106Y373763D01*
X678138Y373624D01*
X678173Y373486D01*
X678212Y373348D01*
X678255Y373212D01*
X678301Y373078D01*
X678352Y372944D01*
X678405Y372812D01*
X678463Y372682D01*
X678524Y372553D01*
X678589Y372426D01*
X678657Y372300D01*
X678729Y372177D01*
X679378Y382196D02*
X688466Y384793D01*
X679378Y382196D02*
X679378Y388687D01*
X681975Y386740D02*
X676782Y386740D01*
X683273Y393626D02*
X683273Y397521D01*
X683271Y397620D01*
X683265Y397720D01*
X683256Y397819D01*
X683243Y397917D01*
X683226Y398015D01*
X683205Y398113D01*
X683180Y398209D01*
X683152Y398304D01*
X683120Y398398D01*
X683085Y398491D01*
X683046Y398583D01*
X683003Y398673D01*
X682958Y398761D01*
X682908Y398848D01*
X682856Y398932D01*
X682800Y399015D01*
X682742Y399095D01*
X682680Y399173D01*
X682615Y399248D01*
X682547Y399321D01*
X682477Y399391D01*
X682404Y399459D01*
X682329Y399524D01*
X682251Y399586D01*
X682171Y399644D01*
X682088Y399700D01*
X682004Y399752D01*
X681917Y399802D01*
X681829Y399847D01*
X681739Y399890D01*
X681647Y399929D01*
X681554Y399964D01*
X681460Y399996D01*
X681365Y400024D01*
X681269Y400049D01*
X681171Y400070D01*
X681073Y400087D01*
X680975Y400100D01*
X680876Y400109D01*
X680776Y400115D01*
X680677Y400117D01*
X680027Y400117D01*
X680027Y400118D02*
X679914Y400116D01*
X679801Y400110D01*
X679688Y400100D01*
X679575Y400086D01*
X679463Y400069D01*
X679352Y400047D01*
X679242Y400022D01*
X679132Y399992D01*
X679024Y399959D01*
X678917Y399922D01*
X678811Y399882D01*
X678707Y399837D01*
X678604Y399789D01*
X678503Y399738D01*
X678404Y399683D01*
X678307Y399625D01*
X678212Y399563D01*
X678119Y399498D01*
X678029Y399430D01*
X677941Y399359D01*
X677855Y399284D01*
X677772Y399207D01*
X677692Y399127D01*
X677615Y399044D01*
X677540Y398958D01*
X677469Y398870D01*
X677401Y398780D01*
X677336Y398687D01*
X677274Y398592D01*
X677216Y398495D01*
X677161Y398396D01*
X677110Y398295D01*
X677062Y398192D01*
X677017Y398088D01*
X676977Y397982D01*
X676940Y397875D01*
X676907Y397767D01*
X676877Y397657D01*
X676852Y397547D01*
X676830Y397436D01*
X676813Y397324D01*
X676799Y397211D01*
X676789Y397098D01*
X676783Y396985D01*
X676781Y396872D01*
X676783Y396759D01*
X676789Y396646D01*
X676799Y396533D01*
X676813Y396420D01*
X676830Y396308D01*
X676852Y396197D01*
X676877Y396087D01*
X676907Y395977D01*
X676940Y395869D01*
X676977Y395762D01*
X677017Y395656D01*
X677062Y395552D01*
X677110Y395449D01*
X677161Y395348D01*
X677216Y395249D01*
X677274Y395152D01*
X677336Y395057D01*
X677401Y394964D01*
X677469Y394874D01*
X677540Y394786D01*
X677615Y394700D01*
X677692Y394617D01*
X677772Y394537D01*
X677855Y394460D01*
X677941Y394385D01*
X678029Y394314D01*
X678119Y394246D01*
X678212Y394181D01*
X678307Y394119D01*
X678404Y394061D01*
X678503Y394006D01*
X678604Y393955D01*
X678707Y393907D01*
X678811Y393862D01*
X678917Y393822D01*
X679024Y393785D01*
X679132Y393752D01*
X679242Y393722D01*
X679352Y393697D01*
X679463Y393675D01*
X679575Y393658D01*
X679688Y393644D01*
X679801Y393634D01*
X679914Y393628D01*
X680027Y393626D01*
X683273Y393626D01*
X683416Y393628D01*
X683559Y393634D01*
X683702Y393644D01*
X683844Y393658D01*
X683986Y393675D01*
X684128Y393697D01*
X684269Y393722D01*
X684409Y393752D01*
X684548Y393785D01*
X684686Y393822D01*
X684823Y393863D01*
X684959Y393907D01*
X685094Y393956D01*
X685227Y394008D01*
X685359Y394063D01*
X685489Y394123D01*
X685618Y394186D01*
X685745Y394252D01*
X685869Y394322D01*
X685992Y394395D01*
X686113Y394472D01*
X686232Y394552D01*
X686348Y394635D01*
X686463Y394721D01*
X686574Y394810D01*
X686684Y394903D01*
X686790Y394998D01*
X686894Y395097D01*
X686995Y395198D01*
X687094Y395302D01*
X687189Y395408D01*
X687282Y395518D01*
X687371Y395629D01*
X687457Y395744D01*
X687540Y395860D01*
X687620Y395979D01*
X687697Y396100D01*
X687770Y396222D01*
X687840Y396347D01*
X687906Y396474D01*
X687969Y396603D01*
X688029Y396733D01*
X688084Y396865D01*
X688136Y396998D01*
X688185Y397133D01*
X688229Y397269D01*
X688270Y397406D01*
X688307Y397544D01*
X688340Y397683D01*
X688370Y397823D01*
X688395Y397964D01*
X688417Y398106D01*
X688434Y398248D01*
X688448Y398390D01*
X688458Y398533D01*
X688464Y398676D01*
X688466Y398819D01*
M02*
