G04 EAGLE Gerber X2 export*
%TF.Part,Single*%
%TF.FileFunction,Soldermask,Bot,1*%
%TF.FilePolarity,Positive*%
%TF.GenerationSoftware,Autodesk,EAGLE,9.2.2*%
%TF.CreationDate,2019-04-19T13:45:25Z*%
G75*
%MOMM*%
%FSLAX34Y34*%
%LPD*%
%INSoldermask Bottom*%
%AMOC8*
5,1,8,0,0,1.08239X$1,22.5*%
G01*
%ADD10C,1.346200*%
%ADD11C,1.611200*%
%ADD12R,1.611200X1.611200*%
%ADD13C,2.159000*%
%ADD14C,1.524000*%
%ADD15C,0.959600*%


D10*
X304826Y101665D03*
X304826Y51665D03*
X235626Y173665D03*
X185626Y173665D03*
X132626Y199265D03*
X82626Y199265D03*
X233826Y141665D03*
X183826Y141665D03*
X156126Y105665D03*
X156126Y55665D03*
D11*
X373002Y41649D03*
D12*
X347602Y41649D03*
D11*
X344126Y69465D03*
D12*
X369526Y69465D03*
D11*
X399137Y95017D03*
D12*
X399137Y69617D03*
D11*
X395682Y41007D03*
D12*
X421082Y41007D03*
D11*
X520926Y204665D03*
D12*
X520926Y179265D03*
D11*
X495326Y175265D03*
D12*
X495326Y200665D03*
D13*
X577784Y123996D02*
X597342Y123996D01*
X597342Y98596D02*
X577784Y98596D01*
X577784Y73196D02*
X597342Y73196D01*
X107342Y123996D02*
X87784Y123996D01*
X87784Y98596D02*
X107342Y98596D01*
X107342Y73196D02*
X87784Y73196D01*
X346763Y183135D02*
X346763Y202693D01*
X372163Y202693D02*
X372163Y183135D01*
X397563Y183135D02*
X397563Y202693D01*
D10*
X476319Y112794D03*
X526319Y112794D03*
D14*
X529978Y45489D02*
X543186Y45489D01*
X543186Y70889D02*
X529978Y70889D01*
X466986Y70889D02*
X453778Y70889D01*
X453778Y45489D02*
X466986Y45489D01*
D10*
X429369Y117770D03*
X429369Y67770D03*
X549469Y151682D03*
X599469Y151682D03*
X304826Y317565D03*
X304826Y267565D03*
X235626Y389565D03*
X185626Y389565D03*
X132626Y415165D03*
X82626Y415165D03*
X233826Y357565D03*
X183826Y357565D03*
X156126Y321565D03*
X156126Y271565D03*
D11*
X373002Y257549D03*
D12*
X347602Y257549D03*
D11*
X344126Y285365D03*
D12*
X369526Y285365D03*
D11*
X399137Y310917D03*
D12*
X399137Y285517D03*
D11*
X395682Y256907D03*
D12*
X421082Y256907D03*
D11*
X520926Y420565D03*
D12*
X520926Y395165D03*
D11*
X495326Y391165D03*
D12*
X495326Y416565D03*
D13*
X577784Y339896D02*
X597342Y339896D01*
X597342Y314496D02*
X577784Y314496D01*
X577784Y289096D02*
X597342Y289096D01*
X107342Y339896D02*
X87784Y339896D01*
X87784Y314496D02*
X107342Y314496D01*
X107342Y289096D02*
X87784Y289096D01*
X346763Y399035D02*
X346763Y418593D01*
X372163Y418593D02*
X372163Y399035D01*
X397563Y399035D02*
X397563Y418593D01*
D10*
X476319Y328694D03*
X526319Y328694D03*
D14*
X529978Y261389D02*
X543186Y261389D01*
X543186Y286789D02*
X529978Y286789D01*
X466986Y286789D02*
X453778Y286789D01*
X453778Y261389D02*
X466986Y261389D01*
D10*
X429369Y333670D03*
X429369Y283670D03*
X549469Y367582D03*
X599469Y367582D03*
X304826Y533465D03*
X304826Y483465D03*
X235626Y605465D03*
X185626Y605465D03*
X132626Y631065D03*
X82626Y631065D03*
X233826Y573465D03*
X183826Y573465D03*
X156126Y537465D03*
X156126Y487465D03*
D11*
X373002Y473449D03*
D12*
X347602Y473449D03*
D11*
X344126Y501265D03*
D12*
X369526Y501265D03*
D11*
X399137Y526817D03*
D12*
X399137Y501417D03*
D11*
X395682Y472807D03*
D12*
X421082Y472807D03*
D11*
X520926Y636465D03*
D12*
X520926Y611065D03*
D11*
X495326Y607065D03*
D12*
X495326Y632465D03*
D13*
X577784Y555796D02*
X597342Y555796D01*
X597342Y530396D02*
X577784Y530396D01*
X577784Y504996D02*
X597342Y504996D01*
X107342Y555796D02*
X87784Y555796D01*
X87784Y530396D02*
X107342Y530396D01*
X107342Y504996D02*
X87784Y504996D01*
X346763Y614935D02*
X346763Y634493D01*
X372163Y634493D02*
X372163Y614935D01*
X397563Y614935D02*
X397563Y634493D01*
D10*
X476319Y544594D03*
X526319Y544594D03*
D14*
X529978Y477289D02*
X543186Y477289D01*
X543186Y502689D02*
X529978Y502689D01*
X466986Y502689D02*
X453778Y502689D01*
X453778Y477289D02*
X466986Y477289D01*
D10*
X429369Y549570D03*
X429369Y499570D03*
X549469Y583482D03*
X599469Y583482D03*
X304826Y749365D03*
X304826Y699365D03*
X235626Y821365D03*
X185626Y821365D03*
X132626Y846965D03*
X82626Y846965D03*
X233826Y789365D03*
X183826Y789365D03*
X156126Y753365D03*
X156126Y703365D03*
D11*
X373002Y689349D03*
D12*
X347602Y689349D03*
D11*
X344126Y717165D03*
D12*
X369526Y717165D03*
D11*
X399137Y742717D03*
D12*
X399137Y717317D03*
D11*
X395682Y688707D03*
D12*
X421082Y688707D03*
D11*
X520926Y852365D03*
D12*
X520926Y826965D03*
D11*
X495326Y822965D03*
D12*
X495326Y848365D03*
D13*
X577784Y771696D02*
X597342Y771696D01*
X597342Y746296D02*
X577784Y746296D01*
X577784Y720896D02*
X597342Y720896D01*
X107342Y771696D02*
X87784Y771696D01*
X87784Y746296D02*
X107342Y746296D01*
X107342Y720896D02*
X87784Y720896D01*
X346763Y830835D02*
X346763Y850393D01*
X372163Y850393D02*
X372163Y830835D01*
X397563Y830835D02*
X397563Y850393D01*
D10*
X476319Y760494D03*
X526319Y760494D03*
D14*
X529978Y693189D02*
X543186Y693189D01*
X543186Y718589D02*
X529978Y718589D01*
X466986Y718589D02*
X453778Y718589D01*
X453778Y693189D02*
X466986Y693189D01*
D10*
X429369Y765470D03*
X429369Y715470D03*
X549469Y799382D03*
X599469Y799382D03*
X749235Y317526D03*
X799235Y317526D03*
X677235Y248326D03*
X677235Y198326D03*
X651635Y145326D03*
X651635Y95326D03*
X709235Y246526D03*
X709235Y196526D03*
X745235Y168826D03*
X795235Y168826D03*
D11*
X809251Y385702D03*
D12*
X809251Y360302D03*
D11*
X781435Y356826D03*
D12*
X781435Y382226D03*
D11*
X755883Y411837D03*
D12*
X781283Y411837D03*
D11*
X809893Y408382D03*
D12*
X809893Y433782D03*
D11*
X646235Y533626D03*
D12*
X671635Y533626D03*
D11*
X675635Y508026D03*
D12*
X650235Y508026D03*
D13*
X726904Y590484D02*
X726904Y610042D01*
X752304Y610042D02*
X752304Y590484D01*
X777704Y590484D02*
X777704Y610042D01*
X726904Y120042D02*
X726904Y100484D01*
X752304Y100484D02*
X752304Y120042D01*
X777704Y120042D02*
X777704Y100484D01*
X667765Y359463D02*
X648207Y359463D01*
X648207Y384863D02*
X667765Y384863D01*
X667765Y410263D02*
X648207Y410263D01*
D10*
X738106Y489019D03*
X738106Y539019D03*
D14*
X805411Y542678D02*
X805411Y555886D01*
X780011Y555886D02*
X780011Y542678D01*
X780011Y479686D02*
X780011Y466478D01*
X805411Y466478D02*
X805411Y479686D01*
D10*
X733130Y442069D03*
X783130Y442069D03*
X699218Y562169D03*
X699218Y612169D03*
D15*
X259370Y88873D03*
X297470Y88873D03*
X259370Y304773D03*
X297470Y304773D03*
X259370Y520673D03*
X297470Y520673D03*
X259370Y736573D03*
X297470Y736573D03*
X762027Y272070D03*
X762027Y310170D03*
M02*
