G04 EAGLE Gerber X2 export*
%TF.Part,Single*%
%TF.FileFunction,Paste,Top*%
%TF.FilePolarity,Positive*%
%TF.GenerationSoftware,Autodesk,EAGLE,9.2.2*%
%TF.CreationDate,2019-04-19T13:45:25Z*%
G75*
%MOMM*%
%FSLAX34Y34*%
%LPD*%
%INSolderpaste Top*%
%AMOC8*
5,1,8,0,0,1.08239X$1,22.5*%
G01*
%ADD10R,2.032000X0.660400*%
%ADD11R,1.803000X1.600000*%
%ADD12R,1.600000X1.803000*%
%ADD13R,2.184400X1.320800*%
%ADD14R,1.320800X2.184400*%
%ADD15R,0.660400X2.032000*%


D10*
X275560Y50215D03*
X214092Y50215D03*
X275560Y62915D03*
X275560Y75615D03*
X214092Y62915D03*
X214092Y75615D03*
X275560Y88315D03*
X214092Y88315D03*
D11*
X302841Y168329D03*
X302841Y196769D03*
X273768Y196569D03*
X273768Y168129D03*
D12*
X211546Y203765D03*
X183106Y203765D03*
X304046Y140114D03*
X275606Y140114D03*
D11*
X187926Y82385D03*
X187926Y53945D03*
D12*
X370546Y95965D03*
X342106Y95965D03*
X191306Y111165D03*
X219746Y111165D03*
D13*
X554426Y200595D03*
X598426Y187865D03*
X554426Y175135D03*
D12*
X503418Y147443D03*
X474978Y147443D03*
X274479Y110201D03*
X246039Y110201D03*
D14*
X421713Y148943D03*
X434443Y192943D03*
X447173Y148943D03*
D11*
X468651Y175142D03*
X468651Y203582D03*
D10*
X275560Y266115D03*
X214092Y266115D03*
X275560Y278815D03*
X275560Y291515D03*
X214092Y278815D03*
X214092Y291515D03*
X275560Y304215D03*
X214092Y304215D03*
D11*
X302841Y384229D03*
X302841Y412669D03*
X273768Y412469D03*
X273768Y384029D03*
D12*
X211546Y419665D03*
X183106Y419665D03*
X304046Y356014D03*
X275606Y356014D03*
D11*
X187926Y298285D03*
X187926Y269845D03*
D12*
X370546Y311865D03*
X342106Y311865D03*
X191306Y327065D03*
X219746Y327065D03*
D13*
X554426Y416495D03*
X598426Y403765D03*
X554426Y391035D03*
D12*
X503418Y363343D03*
X474978Y363343D03*
X274479Y326101D03*
X246039Y326101D03*
D14*
X421713Y364843D03*
X434443Y408843D03*
X447173Y364843D03*
D11*
X468651Y391042D03*
X468651Y419482D03*
D10*
X275560Y482015D03*
X214092Y482015D03*
X275560Y494715D03*
X275560Y507415D03*
X214092Y494715D03*
X214092Y507415D03*
X275560Y520115D03*
X214092Y520115D03*
D11*
X302841Y600129D03*
X302841Y628569D03*
X273768Y628369D03*
X273768Y599929D03*
D12*
X211546Y635565D03*
X183106Y635565D03*
X304046Y571914D03*
X275606Y571914D03*
D11*
X187926Y514185D03*
X187926Y485745D03*
D12*
X370546Y527765D03*
X342106Y527765D03*
X191306Y542965D03*
X219746Y542965D03*
D13*
X554426Y632395D03*
X598426Y619665D03*
X554426Y606935D03*
D12*
X503418Y579243D03*
X474978Y579243D03*
X274479Y542001D03*
X246039Y542001D03*
D14*
X421713Y580743D03*
X434443Y624743D03*
X447173Y580743D03*
D11*
X468651Y606942D03*
X468651Y635382D03*
D10*
X275560Y697915D03*
X214092Y697915D03*
X275560Y710615D03*
X275560Y723315D03*
X214092Y710615D03*
X214092Y723315D03*
X275560Y736015D03*
X214092Y736015D03*
D11*
X302841Y816029D03*
X302841Y844469D03*
X273768Y844269D03*
X273768Y815829D03*
D12*
X211546Y851465D03*
X183106Y851465D03*
X304046Y787814D03*
X275606Y787814D03*
D11*
X187926Y730085D03*
X187926Y701645D03*
D12*
X370546Y743665D03*
X342106Y743665D03*
X191306Y758865D03*
X219746Y758865D03*
D13*
X554426Y848295D03*
X598426Y835565D03*
X554426Y822835D03*
D12*
X503418Y795143D03*
X474978Y795143D03*
X274479Y757901D03*
X246039Y757901D03*
D14*
X421713Y796643D03*
X434443Y840643D03*
X447173Y796643D03*
D11*
X468651Y822842D03*
X468651Y851282D03*
D15*
X800685Y288260D03*
X800685Y226792D03*
X787985Y288260D03*
X775285Y288260D03*
X787985Y226792D03*
X775285Y226792D03*
X762585Y288260D03*
X762585Y226792D03*
D12*
X682571Y315541D03*
X654131Y315541D03*
X654331Y286468D03*
X682771Y286468D03*
D11*
X647135Y224246D03*
X647135Y195806D03*
X710786Y316746D03*
X710786Y288306D03*
D12*
X768515Y200626D03*
X796955Y200626D03*
D11*
X754935Y383246D03*
X754935Y354806D03*
X739735Y204006D03*
X739735Y232446D03*
D14*
X650305Y567126D03*
X663035Y611126D03*
X675765Y567126D03*
D11*
X703457Y516118D03*
X703457Y487678D03*
X740699Y287179D03*
X740699Y258739D03*
D13*
X701957Y434413D03*
X657957Y447143D03*
X701957Y459873D03*
D12*
X675758Y481351D03*
X647318Y481351D03*
M02*
