G04 EAGLE Gerber X2 export*
%TF.Part,Single*%
%TF.FileFunction,Copper,L1,Top,Mixed*%
%TF.FilePolarity,Positive*%
%TF.GenerationSoftware,Autodesk,EAGLE,9.2.2*%
%TF.CreationDate,2019-03-12T13:45:00Z*%
G75*
%MOMM*%
%FSLAX34Y34*%
%LPD*%
%INTop Copper*%
%AMOC8*
5,1,8,0,0,1.08239X$1,22.5*%
G01*
%ADD10R,1.350000X1.350000*%
%ADD11C,1.350000*%
%ADD12R,1.000000X1.100000*%
%ADD13C,1.651000*%
%ADD14R,1.800000X1.600000*%
%ADD15C,1.143000*%
%ADD16R,1.600000X1.800000*%
%ADD17C,1.408000*%
%ADD18R,1.408000X1.408000*%
%ADD19R,0.609600X2.209800*%
%ADD20C,1.879600*%
%ADD21R,1.600000X2.000000*%
%ADD22R,2.000000X1.600000*%
%ADD23R,1.320800X2.184400*%
%ADD24R,1.879600X1.879600*%
%ADD25P,3.247170X8X22.500000*%
%ADD26R,1.320800X1.320800*%
%ADD27C,1.320800*%
%ADD28R,1.981200X0.558800*%
%ADD29R,1.270000X0.558800*%
%ADD30R,0.558800X1.270000*%
%ADD31P,3.247170X8X112.500000*%
%ADD32P,3.247170X8X202.500000*%
%ADD33P,3.247170X8X292.500000*%
%ADD34R,3.100000X0.800000*%
%ADD35R,1.270000X2.540000*%
%ADD36C,1.950000*%
%ADD37R,1.600000X1.000000*%
%ADD38R,6.200000X5.400000*%
%ADD39P,2.336880X8X22.500000*%
%ADD40R,2.400000X2.400000*%
%ADD41R,1.270000X1.270000*%
%ADD42C,0.812800*%
%ADD43C,1.879600*%
%ADD44R,5.080000X2.540000*%
%ADD45P,1.429621X8X22.500000*%
%ADD46R,1.720000X0.600000*%
%ADD47P,2.336880X8X202.500000*%
%ADD48C,0.203200*%
%ADD49C,0.604800*%


D10*
X55900Y637700D03*
D11*
X55900Y657700D03*
D10*
X360700Y790100D03*
D11*
X360700Y810100D03*
D10*
X297200Y810100D03*
D11*
X297200Y790100D03*
D12*
X811550Y707000D03*
X811550Y690000D03*
X760750Y707000D03*
X760750Y690000D03*
D13*
X595650Y635000D03*
X595650Y660400D03*
D10*
X325300Y863600D03*
D11*
X345300Y863600D03*
D14*
X106700Y649000D03*
X106700Y621000D03*
D15*
X296800Y520700D03*
X246800Y520700D03*
D10*
X293550Y933450D03*
D11*
X313550Y933450D03*
D16*
X247700Y882650D03*
X219700Y882650D03*
X276850Y755650D03*
X304850Y755650D03*
D17*
X246400Y914400D03*
D18*
X221000Y914400D03*
D19*
X214650Y761238D03*
X227350Y761238D03*
X240050Y761238D03*
X252750Y761238D03*
X252750Y813562D03*
X240050Y813562D03*
X227350Y813562D03*
X214650Y813562D03*
D20*
X538500Y796798D02*
X538500Y778002D01*
X563900Y778002D02*
X563900Y796798D01*
X589300Y796798D02*
X589300Y778002D01*
X614700Y778002D02*
X614700Y796798D01*
X640100Y796798D02*
X640100Y778002D01*
X665500Y778002D02*
X665500Y796798D01*
D21*
X219700Y850900D03*
X247700Y850900D03*
X276850Y723900D03*
X304850Y723900D03*
X314950Y685800D03*
X342950Y685800D03*
D22*
X341650Y750600D03*
X341650Y722600D03*
D23*
X405180Y726850D03*
X392450Y682850D03*
X379720Y726850D03*
D21*
X679500Y825500D03*
X651500Y825500D03*
D22*
X284500Y877600D03*
X284500Y849600D03*
X144800Y621000D03*
X144800Y649000D03*
D21*
X245100Y590550D03*
X273100Y590550D03*
D22*
X342926Y401539D03*
X342926Y373539D03*
X106700Y557500D03*
X106700Y585500D03*
X290850Y649000D03*
X290850Y621000D03*
X246400Y649000D03*
X246400Y621000D03*
D23*
X182870Y613000D03*
X195600Y657000D03*
X208330Y613000D03*
D24*
X177000Y845000D03*
X177000Y820000D03*
X177000Y795000D03*
D25*
X107000Y864000D03*
X107000Y776000D03*
D26*
X240050Y711200D03*
D27*
X214650Y717804D02*
X214650Y704596D01*
X189250Y704596D02*
X189250Y717804D01*
X163850Y717804D02*
X163850Y704596D01*
X138450Y704596D02*
X138450Y717804D01*
X113050Y717804D02*
X113050Y704596D01*
X87650Y704596D02*
X87650Y717804D01*
X62250Y717804D02*
X62250Y704596D01*
D28*
X207538Y527050D03*
X207538Y539750D03*
X207538Y552450D03*
X207538Y565150D03*
X158262Y565150D03*
X158262Y552450D03*
X158262Y539750D03*
X158262Y527050D03*
D29*
X708426Y613350D03*
X708426Y621350D03*
X708426Y629350D03*
X708426Y637350D03*
X708426Y645350D03*
X708426Y653350D03*
X708426Y661350D03*
X708426Y669350D03*
D30*
X693500Y684276D03*
X685500Y684276D03*
X677500Y684276D03*
X669500Y684276D03*
X661500Y684276D03*
X653500Y684276D03*
X645500Y684276D03*
X637500Y684276D03*
D29*
X622574Y669350D03*
X622574Y661350D03*
X622574Y653350D03*
X622574Y645350D03*
X622574Y637350D03*
X622574Y629350D03*
X622574Y621350D03*
X622574Y613350D03*
D30*
X637500Y598424D03*
X645500Y598424D03*
X653500Y598424D03*
X661500Y598424D03*
X669500Y598424D03*
X677500Y598424D03*
X685500Y598424D03*
X693500Y598424D03*
D13*
X760750Y647700D03*
X811550Y647700D03*
D22*
X767100Y532100D03*
X767100Y560100D03*
X798850Y532100D03*
X798850Y560100D03*
X830600Y532100D03*
X830600Y560100D03*
X735350Y532100D03*
X735350Y560100D03*
D24*
X417000Y580000D03*
X442000Y580000D03*
X467000Y580000D03*
D31*
X398000Y510000D03*
X486000Y510000D03*
D24*
X707000Y795000D03*
X707000Y820000D03*
X707000Y845000D03*
D32*
X777000Y776000D03*
X777000Y864000D03*
D24*
X467000Y800000D03*
X442000Y800000D03*
X417000Y800000D03*
D33*
X486000Y870000D03*
X398000Y870000D03*
D22*
X304399Y374155D03*
X304399Y402155D03*
D21*
X437489Y405703D03*
X409489Y405703D03*
D34*
X415261Y317400D03*
X415261Y285400D03*
X415261Y263400D03*
X415261Y241400D03*
X468261Y317400D03*
X468261Y285400D03*
X468261Y263400D03*
X468261Y241400D03*
D35*
X538500Y327100D03*
X513100Y327100D03*
X513100Y257100D03*
X538500Y257100D03*
D22*
X582950Y464850D03*
X582950Y436850D03*
X621050Y436850D03*
X621050Y464850D03*
X659150Y436850D03*
X659150Y464850D03*
D36*
X106250Y218850D02*
X86750Y218850D01*
X86750Y381150D02*
X106250Y381150D01*
X213750Y218850D02*
X233250Y218850D01*
X233250Y381150D02*
X213750Y381150D01*
X778750Y381150D02*
X798250Y381150D01*
X798250Y218850D02*
X778750Y218850D01*
X671250Y381150D02*
X651750Y381150D01*
X651750Y218850D02*
X671250Y218850D01*
D16*
X651500Y850900D03*
X679500Y850900D03*
D10*
X655500Y889000D03*
D11*
X675500Y889000D03*
D10*
X515800Y965200D03*
D11*
X535800Y965200D03*
D14*
X570250Y979200D03*
X570250Y951200D03*
D17*
X608350Y838200D03*
D18*
X608350Y863600D03*
D17*
X602000Y952500D03*
D18*
X602000Y977900D03*
D37*
X630200Y975300D03*
X630200Y929700D03*
D38*
X703200Y952500D03*
D10*
X233700Y467200D03*
D11*
X233700Y447200D03*
D21*
X564237Y221972D03*
X592237Y221972D03*
D15*
X296800Y558800D03*
X246800Y558800D03*
D16*
X524500Y889000D03*
X552500Y889000D03*
X524500Y863600D03*
X552500Y863600D03*
X524500Y838200D03*
X552500Y838200D03*
D14*
X582950Y864900D03*
X582950Y836900D03*
D39*
X627400Y533400D03*
X665500Y533400D03*
X582950Y920750D03*
X582950Y889000D03*
D40*
X402200Y355600D03*
X446200Y355600D03*
D41*
X729000Y914400D03*
X729000Y889000D03*
D42*
X729000Y914400D01*
D36*
X145000Y135000D02*
X145000Y115500D01*
X177000Y115500D02*
X177000Y135000D01*
X209000Y135000D02*
X209000Y115500D01*
X209000Y165000D02*
X209000Y184500D01*
X177000Y184500D02*
X177000Y165000D01*
X145000Y165000D02*
X145000Y184500D01*
D43*
X474512Y72606D03*
X409488Y72606D03*
X474512Y27394D03*
X409488Y27394D03*
X170200Y50000D03*
X144800Y50000D03*
X309900Y50000D03*
X284500Y50000D03*
X599700Y50000D03*
X574300Y50000D03*
X744700Y50000D03*
X719300Y50000D03*
D22*
X697250Y436850D03*
X697250Y464850D03*
D16*
X552500Y920750D03*
X524500Y920750D03*
D44*
X853134Y850000D03*
X29946Y850000D03*
D45*
X538500Y393700D03*
X525800Y412750D03*
X513100Y393700D03*
D13*
X741700Y711200D03*
X741700Y685800D03*
X830600Y711200D03*
X830600Y685800D03*
D12*
X570250Y639200D03*
X570250Y656200D03*
D46*
X602000Y698500D03*
X602000Y711200D03*
X602000Y723900D03*
X602000Y736600D03*
X551200Y736600D03*
X551200Y723900D03*
X551200Y711200D03*
X551200Y698500D03*
D10*
X506750Y740250D03*
D11*
X506750Y720250D03*
D47*
X785183Y604258D03*
D39*
X736512Y604258D03*
D21*
X813494Y605553D03*
X841494Y605553D03*
D39*
X435510Y440002D03*
X480500Y440002D03*
D20*
X507602Y200000D02*
X526398Y200000D01*
X526398Y225400D02*
X507602Y225400D01*
X376398Y200000D02*
X357602Y200000D01*
X357602Y225400D02*
X376398Y225400D01*
X507602Y15000D02*
X526398Y15000D01*
X526398Y40400D02*
X507602Y40400D01*
X376398Y15000D02*
X357602Y15000D01*
X357602Y40400D02*
X376398Y40400D01*
D43*
X766746Y18896D03*
X741346Y18896D03*
X715946Y18896D03*
X690546Y18896D03*
X665146Y18896D03*
X639746Y18896D03*
X860263Y444561D03*
X834863Y444561D03*
X809463Y444561D03*
X784063Y444561D03*
X758663Y444561D03*
X733263Y444561D03*
D48*
X253512Y849376D02*
X249448Y849376D01*
X253512Y849376D02*
X283992Y849376D01*
X284500Y849600D01*
X249448Y849376D02*
X247700Y850900D01*
X253512Y849376D02*
X253512Y814832D01*
X252750Y813562D01*
X253512Y849376D02*
X247700Y850900D01*
X298216Y863600D02*
X325300Y863600D01*
X298216Y863600D02*
X286024Y851408D01*
X284500Y849600D01*
X170200Y528320D02*
X160040Y528320D01*
X170200Y528320D02*
X184424Y542544D01*
X184424Y587248D01*
X208808Y611632D01*
X160040Y528320D02*
X158262Y527050D01*
X208808Y611632D02*
X208330Y613000D01*
X131592Y665226D02*
X87650Y709168D01*
X87650Y711200D01*
X131592Y665226D02*
X131592Y598932D01*
X143276Y587248D01*
X184424Y587248D01*
X605048Y975360D02*
X629432Y975360D01*
X605048Y975360D02*
X603016Y977392D01*
X629432Y975360D02*
X630200Y975300D01*
X603016Y977392D02*
X602000Y977900D01*
X600984Y979424D02*
X570504Y979424D01*
X570250Y979200D01*
X600984Y979424D02*
X602000Y977900D01*
X608350Y863600D02*
X584728Y863600D01*
X582950Y864900D01*
X525800Y863600D02*
X525800Y851408D01*
X525800Y839216D01*
X524500Y838200D01*
X525800Y863600D02*
X525800Y887984D01*
X524500Y889000D01*
X524500Y863600D02*
X525800Y863600D01*
X525800Y890016D02*
X525800Y920496D01*
X524500Y920750D01*
X525800Y890016D02*
X524500Y889000D01*
X517672Y928624D02*
X517672Y965200D01*
X517672Y928624D02*
X523768Y922528D01*
X524500Y920750D01*
X574568Y863600D02*
X582696Y863600D01*
X574568Y863600D02*
X562376Y851408D01*
X525800Y851408D01*
X582696Y863600D02*
X582950Y864900D01*
X568472Y977392D02*
X529864Y977392D01*
X517672Y965200D01*
X568472Y977392D02*
X570250Y979200D01*
X517672Y965200D02*
X515800Y965200D01*
X221000Y914400D02*
X221000Y883920D01*
X219700Y882650D01*
X221000Y881888D02*
X221000Y851408D01*
X219700Y850900D01*
X221000Y881888D02*
X219700Y882650D01*
X214904Y845312D02*
X214904Y814832D01*
X214904Y845312D02*
X218968Y849376D01*
X214904Y814832D02*
X214650Y813562D01*
X218968Y849376D02*
X219700Y850900D01*
X334792Y890016D02*
X334792Y892048D01*
X294152Y932688D01*
X293550Y933450D01*
X231160Y914400D02*
X221000Y914400D01*
X231160Y914400D02*
X249448Y932688D01*
X292120Y932688D01*
X293550Y933450D01*
X334792Y890016D02*
X373400Y890016D01*
X374327Y889089D02*
X524436Y889089D01*
X524500Y889000D01*
X380460Y882956D02*
X374327Y889089D01*
X373400Y890016D01*
X380460Y752840D02*
X405180Y726850D01*
X380460Y752840D02*
X380460Y882956D01*
X212872Y552704D02*
X208808Y552704D01*
X239288Y579120D02*
X243352Y583184D01*
X239288Y579120D02*
X212872Y552704D01*
X243352Y583184D02*
X243352Y589280D01*
X208808Y552704D02*
X207538Y552450D01*
X243352Y589280D02*
X245100Y590550D01*
X247416Y546608D02*
X247416Y522224D01*
X247416Y546608D02*
X255544Y554736D01*
X255544Y562864D01*
X239288Y579120D01*
X247416Y522224D02*
X246800Y520700D01*
X208808Y536448D02*
X208808Y538480D01*
X208808Y536448D02*
X208808Y528320D01*
X207538Y527050D01*
X208808Y538480D02*
X207538Y539750D01*
X231160Y558800D02*
X246800Y558800D01*
X231160Y558800D02*
X208808Y536448D01*
X233192Y501904D02*
X233192Y467360D01*
X233192Y501904D02*
X208808Y526288D01*
X233192Y467360D02*
X233700Y467200D01*
X208808Y526288D02*
X207538Y527050D01*
X286024Y568960D02*
X286024Y617073D01*
X286024Y568960D02*
X296184Y558800D01*
X286024Y617073D02*
X290850Y621000D01*
X296184Y558800D02*
X296800Y558800D01*
X290850Y649000D02*
X290850Y660400D01*
X240050Y711200D01*
X245384Y650240D02*
X229128Y650240D01*
X168168Y711200D01*
X163850Y711200D01*
X245384Y650240D02*
X246400Y649000D01*
X245384Y621792D02*
X231160Y621792D01*
X196616Y656336D01*
X245384Y621792D02*
X246400Y621000D01*
X196616Y656336D02*
X195600Y657000D01*
X306344Y725424D02*
X306344Y753872D01*
X304850Y755650D01*
X306344Y725424D02*
X304850Y723900D01*
X314472Y715264D02*
X314472Y686816D01*
X314472Y715264D02*
X306344Y723392D01*
X314472Y686816D02*
X314950Y685800D01*
X306344Y723392D02*
X304850Y723900D01*
X258338Y749137D02*
X256850Y747649D01*
X258338Y749137D02*
X258338Y757730D01*
X267798Y767190D01*
X293026Y767190D01*
X306344Y753872D01*
X235950Y747649D02*
X234462Y749137D01*
X234462Y754126D01*
X227350Y761238D01*
X235950Y747649D02*
X256850Y747649D01*
X342920Y721360D02*
X342920Y686816D01*
X342920Y721360D02*
X341650Y722600D01*
X342920Y686816D02*
X342950Y685800D01*
X332760Y762000D02*
X359176Y788416D01*
X332760Y762000D02*
X330728Y762000D01*
X328696Y759968D01*
X328696Y735584D01*
X340888Y723392D01*
X359176Y788416D02*
X360700Y790100D01*
X340888Y723392D02*
X341650Y722600D01*
X143784Y707136D02*
X143784Y650240D01*
X143784Y707136D02*
X139720Y711200D01*
X143784Y650240D02*
X144800Y649000D01*
X139720Y711200D02*
X138450Y711200D01*
X107208Y648208D02*
X107208Y642112D01*
X119400Y629920D01*
X119400Y599440D01*
X113304Y593344D02*
X107208Y587248D01*
X113304Y593344D02*
X119400Y599440D01*
X107208Y648208D02*
X106700Y649000D01*
X107208Y587248D02*
X106700Y585500D01*
X153944Y552704D02*
X158008Y552704D01*
X153944Y552704D02*
X113304Y593344D01*
X158008Y552704D02*
X158262Y552450D01*
X113304Y593344D02*
X106700Y585500D01*
X62504Y692912D02*
X62504Y711200D01*
X62504Y692912D02*
X105176Y650240D01*
X62504Y711200D02*
X62250Y711200D01*
X105176Y650240D02*
X106700Y649000D01*
X123464Y540512D02*
X158008Y540512D01*
X123464Y540512D02*
X107208Y556768D01*
X158008Y540512D02*
X158262Y539750D01*
X107208Y556768D02*
X106700Y557500D01*
X92984Y621792D02*
X70632Y621792D01*
X92984Y621792D02*
X105176Y621792D01*
X70632Y621792D02*
X56408Y636016D01*
X105176Y621792D02*
X106700Y621000D01*
X56408Y636016D02*
X55900Y637700D01*
X105176Y564896D02*
X105176Y558800D01*
X105176Y564896D02*
X92984Y577088D01*
X92984Y621792D01*
X105176Y558800D02*
X106700Y557500D01*
X354190Y721110D02*
X392450Y682850D01*
X354190Y721110D02*
X354190Y738060D01*
X341650Y750600D01*
X550692Y699008D02*
X551200Y698500D01*
X407562Y699008D02*
X379720Y726850D01*
X407562Y699008D02*
X550692Y699008D01*
X745256Y688848D02*
X759480Y688848D01*
X745256Y688848D02*
X743224Y686816D01*
X759480Y688848D02*
X760750Y690000D01*
X743224Y686816D02*
X741700Y685800D01*
X726968Y670560D02*
X708680Y670560D01*
X726968Y670560D02*
X741192Y684784D01*
X708680Y670560D02*
X708426Y669350D01*
X741192Y684784D02*
X741700Y685800D01*
X761512Y688848D02*
X761512Y648208D01*
X760750Y647700D01*
X761512Y688848D02*
X760750Y690000D01*
X812312Y688848D02*
X828568Y688848D01*
X830600Y686816D01*
X830600Y685800D01*
X753384Y621792D02*
X714776Y660400D01*
X753384Y621792D02*
X753384Y550672D01*
X755416Y548640D01*
X810280Y548640D01*
X812312Y646176D02*
X811550Y647700D01*
X812312Y648208D02*
X812312Y688848D01*
X811550Y690000D01*
X812312Y648208D02*
X811550Y647700D01*
X829617Y618199D02*
X829617Y592728D01*
X811550Y574661D01*
X811550Y636266D02*
X811550Y647700D01*
X811550Y636266D02*
X829617Y618199D01*
X714776Y660400D02*
X709376Y660400D01*
X708426Y661350D01*
X811550Y549910D02*
X810280Y548640D01*
X811550Y549910D02*
X811550Y574661D01*
X590824Y656336D02*
X570504Y656336D01*
X590824Y656336D02*
X594888Y660400D01*
X570504Y656336D02*
X570250Y656200D01*
X594888Y660400D02*
X595650Y660400D01*
X611144Y646176D02*
X621304Y646176D01*
X611144Y646176D02*
X596920Y660400D01*
X621304Y646176D02*
X622574Y645350D01*
X596920Y660400D02*
X595650Y660400D01*
X614700Y677224D02*
X622574Y669350D01*
X614700Y677224D02*
X614700Y704850D01*
X613890Y705660D01*
X592348Y705660D01*
X590860Y707148D01*
X590860Y715252D01*
X592348Y716740D01*
X594840Y716740D01*
X602000Y723900D01*
X590860Y715252D02*
X590860Y735897D01*
X577362Y749395D01*
X577362Y801743D02*
X584355Y808736D01*
X594245Y808736D01*
X601238Y801743D01*
X601238Y800862D01*
X614700Y787400D01*
X577362Y801743D02*
X577362Y749395D01*
D49*
X633750Y698500D03*
D48*
X637500Y694750D02*
X637500Y684276D01*
X637500Y694750D02*
X633750Y698500D01*
X600984Y735584D02*
X596920Y735584D01*
X600984Y735584D02*
X602000Y736600D01*
X590824Y741680D02*
X590824Y786384D01*
X590824Y741680D02*
X596920Y735584D01*
X590824Y786384D02*
X589300Y787400D01*
X602000Y736600D02*
X596920Y735584D01*
X602000Y736600D02*
X609160Y729440D01*
X611652Y729440D01*
X645500Y695592D01*
X645500Y684276D01*
X670072Y613664D02*
X670072Y599440D01*
X670072Y613664D02*
X674136Y617728D01*
X674136Y670560D01*
X674136Y696976D02*
X674136Y778256D01*
X666008Y786384D01*
X670072Y599440D02*
X669500Y598424D01*
X666008Y786384D02*
X665500Y787400D01*
X678200Y800608D02*
X678200Y824992D01*
X678200Y800608D02*
X666008Y788416D01*
X678200Y824992D02*
X679500Y825500D01*
X666008Y788416D02*
X665500Y787400D01*
D49*
X674136Y670560D03*
X674136Y696976D03*
D48*
X653500Y598424D02*
X651784Y596708D01*
X659912Y599440D02*
X661500Y598424D01*
X678200Y597408D02*
X678200Y581152D01*
X698520Y560832D01*
X735096Y560832D01*
X678200Y597408D02*
X677500Y598424D01*
X735096Y560832D02*
X735350Y560100D01*
X686328Y587248D02*
X686328Y597408D01*
X818408Y573024D02*
X830600Y560832D01*
X686328Y597408D02*
X685500Y598424D01*
X830600Y560832D02*
X830600Y560100D01*
D49*
X686328Y587248D03*
X818408Y573024D03*
D48*
X686328Y690880D02*
X722904Y727456D01*
X761512Y727456D01*
X798199Y565575D02*
X798199Y560726D01*
X798850Y560100D01*
X825553Y594412D02*
X825553Y616516D01*
X798850Y567708D02*
X798850Y560100D01*
X798850Y567708D02*
X825553Y594412D01*
X686328Y685104D02*
X685500Y684276D01*
X686328Y685104D02*
X686328Y690880D01*
X761512Y727456D02*
X798028Y690940D01*
X798028Y644041D01*
X825553Y616516D01*
X678200Y678688D02*
X678200Y682752D01*
X678200Y678688D02*
X682264Y674624D01*
X698520Y674624D01*
X729000Y705104D01*
X729000Y715264D01*
X737128Y723392D01*
X759480Y723392D01*
X771672Y711200D01*
X678200Y682752D02*
X677500Y684276D01*
X771672Y711200D02*
X771672Y564672D01*
X767100Y560100D01*
X455440Y593440D02*
X442000Y580000D01*
X616224Y621350D02*
X622574Y621350D01*
X616224Y621350D02*
X610824Y615950D01*
X595650Y615950D01*
X573140Y593440D02*
X455440Y593440D01*
X573140Y593440D02*
X595650Y615950D01*
X623336Y613664D02*
X629432Y613664D01*
X650260Y634492D01*
X650260Y666242D01*
X623336Y613664D02*
X622574Y613350D01*
D49*
X650260Y666242D03*
D48*
X460950Y781050D02*
X442000Y800000D01*
X460950Y781050D02*
X506750Y781050D01*
D49*
X506750Y781050D03*
X631150Y598424D03*
D48*
X637500Y598424D01*
X450616Y613664D02*
X418104Y581152D01*
X417000Y580000D01*
X615208Y662432D02*
X621304Y662432D01*
X615208Y662432D02*
X581045Y696595D01*
X621304Y662432D02*
X622574Y661350D01*
X527832Y798576D02*
X468904Y798576D01*
X527832Y798576D02*
X537992Y788416D01*
X468904Y798576D02*
X467000Y800000D01*
X537992Y788416D02*
X538500Y787400D01*
X651784Y827024D02*
X651784Y839216D01*
X651784Y849376D01*
X651500Y850900D01*
X651784Y827024D02*
X651500Y825500D01*
X631464Y912368D02*
X631464Y928624D01*
X631464Y912368D02*
X653816Y890016D01*
X631464Y928624D02*
X630200Y929700D01*
X653816Y890016D02*
X655500Y889000D01*
X651784Y885952D02*
X651784Y851408D01*
X651784Y885952D02*
X653816Y887984D01*
X651784Y851408D02*
X651500Y850900D01*
X653816Y887984D02*
X655500Y889000D01*
X651784Y839216D02*
X609112Y839216D01*
X608350Y838200D01*
X702584Y638048D02*
X706648Y638048D01*
X702584Y638048D02*
X698520Y642112D01*
X698520Y648208D01*
X702584Y652272D01*
X706648Y652272D01*
X706648Y638048D02*
X708426Y637350D01*
X706648Y652272D02*
X708426Y653350D01*
X702584Y652272D02*
X696488Y658368D01*
X696488Y664464D01*
X702584Y652272D02*
X708426Y653350D01*
X708680Y794512D02*
X707000Y795000D01*
X688360Y839216D02*
X651784Y839216D01*
X688360Y839216D02*
X694456Y833120D01*
X694456Y808736D01*
X706648Y796544D01*
X707000Y795000D01*
X550184Y798576D02*
X540024Y788416D01*
X550184Y798576D02*
X550184Y800608D01*
X574568Y824992D01*
X594888Y824992D01*
X607080Y837184D01*
X540024Y788416D02*
X538500Y787400D01*
X607080Y837184D02*
X608350Y838200D01*
D49*
X696488Y664464D03*
D48*
X505348Y691990D02*
X503860Y690502D01*
X576440Y691990D02*
X581045Y696595D01*
X576440Y691990D02*
X505348Y691990D01*
X551200Y723900D02*
X558360Y731060D01*
X560852Y731060D01*
X551200Y723900D02*
X558360Y716740D01*
X560852Y716740D01*
X580997Y696595D02*
X581045Y696595D01*
X580997Y696595D02*
X560852Y716740D01*
X506750Y740250D02*
X540024Y773524D01*
X540024Y788416D01*
X538500Y787400D02*
X551962Y773938D01*
X562340Y740652D02*
X562340Y732548D01*
X560852Y731060D01*
X551962Y751030D02*
X551962Y773938D01*
X551962Y751030D02*
X562340Y740652D01*
X581045Y696595D02*
X600095Y696595D01*
X602000Y698500D01*
X503860Y690502D02*
X503860Y613664D01*
X450616Y613664D01*
X402200Y398415D02*
X402200Y355600D01*
X402200Y398415D02*
X409489Y405703D01*
X409489Y444796D01*
X417000Y452308D01*
X417000Y580000D01*
X402200Y330461D02*
X415261Y317400D01*
X402200Y330461D02*
X402200Y355600D01*
X668040Y619760D02*
X668040Y682752D01*
X668040Y619760D02*
X666008Y617728D01*
X668040Y682752D02*
X669500Y684276D01*
D49*
X666008Y617728D03*
D48*
X621304Y508000D02*
X621304Y465328D01*
X621304Y508000D02*
X641624Y528320D01*
X641624Y566928D01*
X639592Y568960D01*
X621304Y465328D02*
X621050Y464850D01*
D49*
X639592Y568960D03*
D48*
X659912Y648208D02*
X659912Y682752D01*
X659912Y648208D02*
X657880Y646176D01*
X657880Y613664D01*
X659912Y682752D02*
X661500Y684276D01*
D49*
X657880Y613664D03*
D48*
X657880Y520192D02*
X657880Y465328D01*
X657880Y520192D02*
X645688Y532384D01*
X645688Y583184D01*
X657880Y465328D02*
X659150Y464850D01*
D49*
X645688Y583184D03*
D48*
X697250Y436850D02*
X701344Y436850D01*
X733690Y419588D02*
X758663Y444561D01*
X733690Y419588D02*
X717624Y419588D01*
X700363Y436850D01*
X697250Y436850D01*
X749320Y570992D02*
X708680Y611632D01*
X749320Y570992D02*
X749320Y550672D01*
X743224Y544576D01*
X708680Y611632D02*
X708426Y613350D01*
X714776Y534416D02*
X666008Y534416D01*
X714776Y534416D02*
X724936Y544576D01*
X743224Y544576D01*
X666008Y534416D02*
X665500Y533400D01*
X296800Y520700D02*
X296184Y520192D01*
X413819Y263400D02*
X415261Y263400D01*
X342926Y474574D02*
X296800Y520700D01*
X342926Y474574D02*
X342926Y401539D01*
X357144Y300099D02*
X378859Y278384D01*
X400277Y278384D01*
X415261Y263400D01*
X357144Y387321D02*
X342926Y401539D01*
X357144Y387321D02*
X357144Y300099D01*
D49*
X265450Y704850D03*
D48*
X467161Y241400D02*
X468261Y241400D01*
X546120Y223520D02*
X562376Y223520D01*
X546120Y223520D02*
X529864Y239776D01*
X468904Y239776D01*
X562376Y223520D02*
X564237Y221972D01*
X468904Y239776D02*
X468261Y241400D01*
X379606Y292608D02*
X365371Y306843D01*
X379606Y292608D02*
X485160Y292608D01*
X487192Y290576D01*
X487192Y280416D01*
X477032Y270256D01*
X450616Y270256D01*
X448584Y268224D01*
X448584Y257829D01*
X465014Y241400D01*
X468261Y241400D01*
X365371Y604929D02*
X265450Y704850D01*
X365371Y604929D02*
X365371Y306843D01*
X437489Y405703D02*
X437489Y438024D01*
X435510Y440002D01*
X483128Y392176D02*
X511576Y392176D01*
X483128Y392176D02*
X446552Y355600D01*
X511576Y392176D02*
X513100Y393700D01*
X446552Y355600D02*
X446200Y355600D01*
X513100Y407402D02*
X480500Y440002D01*
X513100Y407402D02*
X513100Y393700D01*
X446552Y339109D02*
X468261Y317400D01*
X446552Y339109D02*
X446552Y355600D01*
X584728Y436880D02*
X619272Y436880D01*
X584728Y436880D02*
X582950Y436850D01*
X619272Y436880D02*
X621050Y436850D01*
X582696Y434848D02*
X546120Y434848D01*
X525800Y414528D01*
X582696Y434848D02*
X582950Y436850D01*
X525800Y414528D02*
X525800Y412750D01*
X649722Y436850D02*
X659150Y436850D01*
X539972Y327100D02*
X538500Y327100D01*
X539972Y327100D02*
X649722Y436850D01*
X415261Y241400D02*
X413313Y239776D01*
X160040Y136144D02*
X145816Y136144D01*
X160040Y136144D02*
X176296Y152400D01*
X196616Y152400D01*
X208808Y164592D01*
X145816Y136144D02*
X145000Y135000D01*
X208808Y164592D02*
X209000Y165000D01*
X245384Y239776D02*
X414040Y239776D01*
X245384Y239776D02*
X225064Y219456D01*
X414040Y239776D02*
X415261Y241400D01*
X225064Y219456D02*
X223500Y218850D01*
X210840Y205232D02*
X210840Y166624D01*
X210840Y205232D02*
X223032Y217424D01*
X210840Y166624D02*
X209000Y165000D01*
X223032Y217424D02*
X223500Y218850D01*
X451359Y284480D02*
X466872Y284480D01*
X451359Y284480D02*
X442117Y275238D01*
X442117Y243469D01*
X385592Y186944D01*
X257576Y186944D01*
X218968Y148336D01*
X190520Y148336D01*
X178328Y136144D01*
X466872Y284480D02*
X468261Y285400D01*
X178328Y136144D02*
X177000Y135000D01*
X279928Y402336D02*
X304312Y402336D01*
X279928Y402336D02*
X235224Y447040D01*
X304312Y402336D02*
X304399Y402155D01*
X235224Y447040D02*
X233700Y447200D01*
X434360Y268224D02*
X434360Y258064D01*
X426232Y249936D01*
X227096Y249936D01*
X178328Y201168D01*
X178328Y166328D02*
X177000Y165000D01*
X178328Y166328D02*
X178328Y201168D01*
X415261Y285400D02*
X417184Y285400D01*
X434360Y268224D01*
X471745Y258064D02*
X511576Y258064D01*
X513100Y257100D01*
X471745Y258064D02*
X468261Y263400D01*
X513100Y257100D02*
X536670Y280670D01*
X625495Y280670D01*
X661500Y316675D02*
X661500Y381150D01*
X661500Y316675D02*
X625495Y280670D01*
X208808Y566928D02*
X208808Y591312D01*
X218968Y601472D01*
X218968Y623824D01*
X214904Y627888D01*
X196616Y627888D01*
X182392Y613664D01*
X208808Y566928D02*
X207538Y565150D01*
X182870Y613000D02*
X182392Y613664D01*
X174264Y619760D02*
X145816Y619760D01*
X174264Y619760D02*
X180360Y613664D01*
X145816Y619760D02*
X144800Y621000D01*
X180360Y613664D02*
X182870Y613000D01*
X540024Y256032D02*
X540024Y247904D01*
X540024Y256032D02*
X538500Y257100D01*
X554248Y837184D02*
X582696Y837184D01*
X554248Y837184D02*
X552500Y838200D01*
X582696Y837184D02*
X582950Y836900D01*
X554248Y863600D02*
X554248Y887984D01*
X554248Y863600D02*
X552500Y863600D01*
X554248Y887984D02*
X552500Y889000D01*
X551200Y711200D02*
X550184Y711200D01*
X247416Y883920D02*
X247416Y914400D01*
X247416Y883920D02*
X247700Y882650D01*
X247416Y914400D02*
X246400Y914400D01*
X570504Y950976D02*
X600984Y950976D01*
X570504Y950976D02*
X570250Y951200D01*
X600984Y950976D02*
X602000Y952500D01*
X305923Y374947D02*
X304399Y374155D01*
X283992Y877824D02*
X253512Y877824D01*
X249448Y881888D01*
X283992Y877824D02*
X284500Y877600D01*
X249448Y881888D02*
X247700Y882650D01*
X253512Y762000D02*
X252750Y761238D01*
X554248Y890016D02*
X582696Y890016D01*
X554248Y890016D02*
X552500Y889000D01*
X582696Y890016D02*
X582950Y889000D01*
X584728Y837184D02*
X592856Y837184D01*
X609112Y853440D01*
X617240Y853440D01*
X619272Y855472D01*
X619272Y871728D01*
X615208Y875792D01*
X596920Y875792D01*
X584728Y887984D01*
X584728Y837184D02*
X582950Y836900D01*
X584728Y887984D02*
X582950Y889000D01*
X603016Y953008D02*
X702584Y953008D01*
X703200Y952500D01*
X603016Y953008D02*
X602000Y952500D01*
X206776Y564896D02*
X202712Y564896D01*
X188488Y550672D01*
X206776Y564896D02*
X207538Y565150D01*
D49*
X533166Y739394D03*
D48*
X342926Y373539D02*
X333976Y373539D01*
X342134Y374331D02*
X342926Y373539D01*
X252750Y761238D02*
X281612Y790100D01*
X297200Y790100D01*
X702584Y940816D02*
X702584Y953008D01*
X551200Y736600D02*
X523100Y736600D01*
X506750Y720250D01*
X515800Y711200D02*
X551200Y711200D01*
X515800Y711200D02*
X506750Y720250D01*
X584728Y223520D02*
X590824Y223520D01*
X584728Y223520D02*
X560344Y247904D01*
X540024Y247904D01*
X590824Y223520D02*
X592237Y221972D01*
X540024Y247904D02*
X538500Y257100D01*
X334792Y373888D02*
X306344Y373888D01*
X334792Y373888D02*
X342926Y373539D01*
X306344Y373888D02*
X304399Y374155D01*
X304312Y375920D02*
X229128Y375920D01*
X225064Y379984D01*
X304312Y375920D02*
X304399Y374155D01*
X225064Y379984D02*
X223500Y381150D01*
X592856Y221488D02*
X657880Y221488D01*
X659912Y219456D01*
X592856Y221488D02*
X592237Y221972D01*
X659912Y219456D02*
X661500Y218850D01*
X188488Y416560D02*
X188488Y550672D01*
X188488Y416560D02*
X223032Y382016D01*
X223500Y381150D01*
X30103Y849843D02*
X29946Y850000D01*
X30103Y849843D02*
X30103Y845000D01*
X177000Y845000D01*
X702584Y953008D02*
X729000Y914400D01*
X765557Y914400D01*
X829957Y850000D01*
X853134Y850000D01*
X714776Y629920D02*
X708680Y629920D01*
X714776Y629920D02*
X718840Y633984D01*
X718840Y640080D01*
X714776Y644144D01*
X708680Y644144D01*
X708680Y629920D02*
X708426Y629350D01*
X708680Y644144D02*
X708426Y645350D01*
X592856Y638048D02*
X570504Y638048D01*
X592856Y638048D02*
X594888Y636016D01*
X570504Y638048D02*
X570250Y639200D01*
X594888Y636016D02*
X595650Y635000D01*
X747288Y707136D02*
X759480Y707136D01*
X747288Y707136D02*
X743224Y711200D01*
X759480Y707136D02*
X760750Y707000D01*
X743224Y711200D02*
X741700Y711200D01*
X812312Y707136D02*
X826536Y707136D01*
X830600Y711200D01*
X812312Y707136D02*
X811550Y707000D01*
X621304Y636016D02*
X596920Y636016D01*
X621304Y636016D02*
X622574Y637350D01*
X596920Y636016D02*
X595650Y635000D01*
X690900Y849376D02*
X702584Y849376D01*
X690900Y849376D02*
X680232Y849376D01*
X702584Y849376D02*
X706648Y845312D01*
X680232Y849376D02*
X679500Y850900D01*
X706648Y845312D02*
X707000Y845000D01*
X718840Y633984D02*
X720872Y633984D01*
X584474Y466090D02*
X582950Y464850D01*
X517672Y325120D02*
X513608Y325120D01*
X513100Y327100D01*
D49*
X720872Y633984D03*
D48*
X690900Y850900D02*
X729000Y889000D01*
X690900Y850900D02*
X690900Y849376D01*
X584728Y489712D02*
X584728Y465328D01*
X584728Y489712D02*
X627400Y532384D01*
X584728Y465328D02*
X582950Y464850D01*
X627400Y532384D02*
X627400Y533400D01*
X830600Y711200D02*
X841494Y700306D01*
X841494Y605553D01*
X538500Y352500D02*
X513100Y327100D01*
X538500Y352500D02*
X538500Y393700D01*
X239288Y814832D02*
X229128Y814832D01*
X227350Y813562D01*
X239288Y814832D02*
X240050Y813562D01*
X239288Y759968D02*
X239288Y753872D01*
X221000Y781050D02*
X221000Y806704D01*
X221000Y781050D02*
X221000Y776224D01*
X221000Y806704D02*
X227096Y812800D01*
X240050Y761238D02*
X239288Y759968D01*
X227096Y812800D02*
X227350Y813562D01*
X265704Y808736D02*
X296184Y808736D01*
X265704Y808736D02*
X255544Y798576D01*
X249448Y798576D01*
X241320Y806704D01*
X241320Y812800D01*
X296184Y808736D02*
X297200Y810100D01*
X241320Y812800D02*
X240050Y813562D01*
X271800Y646176D02*
X271800Y591312D01*
X271800Y646176D02*
X223032Y694944D01*
X206776Y694944D01*
X190520Y711200D01*
X271800Y591312D02*
X273100Y590550D01*
X221000Y776224D02*
X210840Y776224D01*
X190520Y755904D01*
X190520Y711200D01*
X189250Y711200D01*
X91438Y726948D02*
X83862Y726948D01*
X78506Y721592D01*
X123464Y599948D02*
X158262Y565150D01*
X107186Y711200D02*
X91438Y726948D01*
X78506Y721592D02*
X78506Y697786D01*
X123464Y652828D01*
X123464Y599948D01*
X113050Y711200D02*
X107186Y711200D01*
X221000Y781050D02*
X227223Y774827D01*
X231450Y774827D01*
X240050Y766227D01*
X240050Y761238D01*
X767100Y461524D02*
X784063Y444561D01*
X767100Y461524D02*
X767100Y532100D01*
X798088Y530352D02*
X798850Y532100D01*
X798850Y455174D01*
X809463Y444561D01*
X830600Y448824D02*
X830600Y532100D01*
X830600Y448824D02*
X834863Y444561D01*
X747161Y534289D02*
X757448Y544576D01*
X747161Y534289D02*
X745256Y532384D01*
X757448Y544576D02*
X840760Y544576D01*
X848888Y536448D01*
X747161Y534289D02*
X737539Y534289D01*
X735350Y532100D01*
X848888Y536448D02*
X848888Y455936D01*
X860263Y444561D01*
X694456Y573024D02*
X694456Y597408D01*
X694456Y573024D02*
X700552Y566928D01*
X700552Y528320D02*
X700552Y467360D01*
X698520Y465328D01*
X694456Y597408D02*
X693500Y598424D01*
X698520Y465328D02*
X697250Y464850D01*
D49*
X700552Y566928D03*
X700552Y528320D03*
D48*
X744700Y40942D02*
X766746Y18896D01*
X744700Y40942D02*
X744700Y50000D01*
X722180Y38062D02*
X741346Y18896D01*
X722180Y38062D02*
X714355Y38062D01*
X702417Y50000D02*
X599700Y50000D01*
X702417Y50000D02*
X714355Y38062D01*
X715946Y18896D02*
X707429Y18896D01*
X695491Y6958D01*
X551323Y6958D02*
X531343Y26938D01*
X490939Y26938D01*
X479457Y15456D01*
X392825Y15456D01*
X381343Y26938D01*
X551323Y6958D02*
X695491Y6958D01*
X332962Y26938D02*
X309900Y50000D01*
X332962Y26938D02*
X381343Y26938D01*
X267617Y50000D02*
X170200Y50000D01*
X267617Y50000D02*
X279555Y61938D01*
X314845Y61938D02*
X324445Y52338D01*
X314845Y61938D02*
X279555Y61938D01*
X671380Y38062D02*
X690546Y18896D01*
X671380Y38062D02*
X594755Y38062D01*
X586238Y46579D01*
X586238Y54945D01*
X556639Y84544D01*
X442793Y84544D01*
X410587Y52338D02*
X324445Y52338D01*
X410587Y52338D02*
X442793Y84544D01*
X554248Y920496D02*
X582696Y920496D01*
X554248Y920496D02*
X552500Y920750D01*
X582696Y920496D02*
X582950Y920750D01*
X54376Y676656D02*
X54376Y658368D01*
X54376Y676656D02*
X48280Y682752D01*
X48280Y723392D01*
X82824Y757936D01*
X139720Y757936D01*
X176296Y794512D01*
X55900Y657700D02*
X54376Y658368D01*
X176296Y794512D02*
X177000Y795000D01*
X277896Y753872D02*
X277896Y725424D01*
X277896Y753872D02*
X276850Y755650D01*
X277896Y725424D02*
X276850Y723900D01*
X214904Y725424D02*
X214904Y711200D01*
X214904Y725424D02*
X214904Y759968D01*
X214650Y761238D01*
X214904Y711200D02*
X214650Y711200D01*
X214904Y725424D02*
X275864Y725424D01*
X276850Y723900D01*
X649346Y675386D02*
X650834Y676874D01*
X615573Y709724D02*
X603476Y709724D01*
X615573Y709724D02*
X618764Y706533D01*
X650834Y681610D02*
X653500Y684276D01*
X650834Y681610D02*
X650834Y676874D01*
X649346Y675386D02*
X633654Y675386D01*
X618764Y690276D01*
X618764Y706533D01*
X603476Y709724D02*
X602000Y711200D01*
X708426Y621350D02*
X719421Y621350D01*
X736512Y604258D01*
X786477Y605553D02*
X813494Y605553D01*
X786477Y605553D02*
X785183Y604258D01*
X367304Y223520D02*
X367304Y201168D01*
X367000Y200000D01*
X367304Y223520D02*
X367000Y225400D01*
X517672Y223520D02*
X517672Y201168D01*
X517000Y200000D01*
X517672Y223520D02*
X517000Y225400D01*
X518279Y72606D02*
X474512Y72606D01*
X653208Y30834D02*
X665146Y18896D01*
X560051Y30834D02*
X518279Y72606D01*
X560051Y30834D02*
X653208Y30834D01*
M02*
