G04 EAGLE Gerber X2 export*
%TF.Part,Single*%
%TF.FileFunction,Profile,NP*%
%TF.FilePolarity,Positive*%
%TF.GenerationSoftware,Autodesk,EAGLE,9.2.2*%
%TF.CreationDate,2019-03-12T13:45:00Z*%
G75*
%MOMM*%
%FSLAX34Y34*%
%LPD*%
%IN*%
%AMOC8*
5,1,8,0,0,1.08239X$1,22.5*%
G01*
%ADD10C,0.254000*%


D10*
X0Y95000D02*
X94000Y95000D01*
X94000Y0D01*
X437000Y0D01*
X437000Y5000D01*
X447000Y5000D01*
X447000Y0D01*
X790000Y0D01*
X790000Y95000D01*
X884000Y95000D01*
X884000Y230000D01*
X877000Y230000D01*
X877000Y240000D01*
X884000Y240000D01*
X884000Y900000D01*
X810000Y900000D01*
X810000Y1000000D01*
X492000Y1000000D01*
X492000Y900000D01*
X447000Y900000D01*
X447000Y895000D01*
X437000Y895000D01*
X437000Y900000D01*
X392000Y900000D01*
X392000Y1000000D01*
X74000Y1000000D01*
X74000Y900000D01*
X0Y900000D01*
X0Y240000D01*
X7000Y240000D01*
X7000Y230000D01*
X0Y230000D01*
X0Y95000D01*
X112000Y820281D02*
X111937Y820839D01*
X111812Y821386D01*
X111627Y821916D01*
X111383Y822422D01*
X111084Y822898D01*
X110734Y823337D01*
X110337Y823734D01*
X109898Y824084D01*
X109422Y824383D01*
X108916Y824627D01*
X108386Y824812D01*
X107839Y824937D01*
X107281Y825000D01*
X106719Y825000D01*
X106161Y824937D01*
X105614Y824812D01*
X105084Y824627D01*
X104578Y824383D01*
X104102Y824084D01*
X103663Y823734D01*
X103266Y823337D01*
X102916Y822898D01*
X102617Y822422D01*
X102373Y821916D01*
X102188Y821386D01*
X102063Y820839D01*
X102000Y820281D01*
X102000Y819719D01*
X102063Y819161D01*
X102188Y818614D01*
X102373Y818084D01*
X102617Y817578D01*
X102916Y817102D01*
X103266Y816663D01*
X103663Y816266D01*
X104102Y815916D01*
X104578Y815617D01*
X105084Y815373D01*
X105614Y815188D01*
X106161Y815063D01*
X106719Y815000D01*
X107281Y815000D01*
X107839Y815063D01*
X108386Y815188D01*
X108916Y815373D01*
X109422Y815617D01*
X109898Y815916D01*
X110337Y816266D01*
X110734Y816663D01*
X111084Y817102D01*
X111383Y817578D01*
X111627Y818084D01*
X111812Y818614D01*
X111937Y819161D01*
X112000Y819719D01*
X112000Y820281D01*
X441719Y515000D02*
X441161Y514937D01*
X440614Y514812D01*
X440084Y514627D01*
X439578Y514383D01*
X439102Y514084D01*
X438663Y513734D01*
X438266Y513337D01*
X437916Y512898D01*
X437617Y512422D01*
X437373Y511916D01*
X437188Y511386D01*
X437063Y510839D01*
X437000Y510281D01*
X437000Y509719D01*
X437063Y509161D01*
X437188Y508614D01*
X437373Y508084D01*
X437617Y507578D01*
X437916Y507102D01*
X438266Y506663D01*
X438663Y506266D01*
X439102Y505916D01*
X439578Y505617D01*
X440084Y505373D01*
X440614Y505188D01*
X441161Y505063D01*
X441719Y505000D01*
X442281Y505000D01*
X442839Y505063D01*
X443386Y505188D01*
X443916Y505373D01*
X444422Y505617D01*
X444898Y505916D01*
X445337Y506266D01*
X445734Y506663D01*
X446084Y507102D01*
X446383Y507578D01*
X446627Y508084D01*
X446812Y508614D01*
X446937Y509161D01*
X447000Y509719D01*
X447000Y510281D01*
X446937Y510839D01*
X446812Y511386D01*
X446627Y511916D01*
X446383Y512422D01*
X446084Y512898D01*
X445734Y513337D01*
X445337Y513734D01*
X444898Y514084D01*
X444422Y514383D01*
X443916Y514627D01*
X443386Y514812D01*
X442839Y514937D01*
X442281Y515000D01*
X441719Y515000D01*
X772000Y819719D02*
X772063Y819161D01*
X772188Y818614D01*
X772373Y818084D01*
X772617Y817578D01*
X772916Y817102D01*
X773266Y816663D01*
X773663Y816266D01*
X774102Y815916D01*
X774578Y815617D01*
X775084Y815373D01*
X775614Y815188D01*
X776161Y815063D01*
X776719Y815000D01*
X777281Y815000D01*
X777839Y815063D01*
X778386Y815188D01*
X778916Y815373D01*
X779422Y815617D01*
X779898Y815916D01*
X780337Y816266D01*
X780734Y816663D01*
X781084Y817102D01*
X781383Y817578D01*
X781627Y818084D01*
X781812Y818614D01*
X781937Y819161D01*
X782000Y819719D01*
X782000Y820281D01*
X781937Y820839D01*
X781812Y821386D01*
X781627Y821916D01*
X781383Y822422D01*
X781084Y822898D01*
X780734Y823337D01*
X780337Y823734D01*
X779898Y824084D01*
X779422Y824383D01*
X778916Y824627D01*
X778386Y824812D01*
X777839Y824937D01*
X777281Y825000D01*
X776719Y825000D01*
X776161Y824937D01*
X775614Y824812D01*
X775084Y824627D01*
X774578Y824383D01*
X774102Y824084D01*
X773663Y823734D01*
X773266Y823337D01*
X772916Y822898D01*
X772617Y822422D01*
X772373Y821916D01*
X772188Y821386D01*
X772063Y820839D01*
X772000Y820281D01*
X772000Y819719D01*
X442281Y865000D02*
X442839Y865063D01*
X443386Y865188D01*
X443916Y865373D01*
X444422Y865617D01*
X444898Y865916D01*
X445337Y866266D01*
X445734Y866663D01*
X446084Y867102D01*
X446383Y867578D01*
X446627Y868084D01*
X446812Y868614D01*
X446937Y869161D01*
X447000Y869719D01*
X447000Y870281D01*
X446937Y870839D01*
X446812Y871386D01*
X446627Y871916D01*
X446383Y872422D01*
X446084Y872898D01*
X445734Y873337D01*
X445337Y873734D01*
X444898Y874084D01*
X444422Y874383D01*
X443916Y874627D01*
X443386Y874812D01*
X442839Y874937D01*
X442281Y875000D01*
X441719Y875000D01*
X441161Y874937D01*
X440614Y874812D01*
X440084Y874627D01*
X439578Y874383D01*
X439102Y874084D01*
X438663Y873734D01*
X438266Y873337D01*
X437916Y872898D01*
X437617Y872422D01*
X437373Y871916D01*
X437188Y871386D01*
X437063Y870839D01*
X437000Y870281D01*
X437000Y869719D01*
X437063Y869161D01*
X437188Y868614D01*
X437373Y868084D01*
X437617Y867578D01*
X437916Y867102D01*
X438266Y866663D01*
X438663Y866266D01*
X439102Y865916D01*
X439578Y865617D01*
X440084Y865373D01*
X440614Y865188D01*
X441161Y865063D01*
X441719Y865000D01*
X442281Y865000D01*
X126250Y119649D02*
X126171Y118951D01*
X126015Y118267D01*
X125783Y117604D01*
X125479Y116972D01*
X125105Y116378D01*
X124668Y115829D01*
X124171Y115332D01*
X123622Y114895D01*
X123028Y114521D01*
X122396Y114217D01*
X121733Y113985D01*
X121049Y113829D01*
X120351Y113750D01*
X119649Y113750D01*
X118951Y113829D01*
X118267Y113985D01*
X117604Y114217D01*
X116972Y114521D01*
X116378Y114895D01*
X115829Y115332D01*
X115332Y115829D01*
X114895Y116378D01*
X114521Y116972D01*
X114217Y117604D01*
X113985Y118267D01*
X113829Y118951D01*
X113750Y119649D01*
X113750Y120351D01*
X113829Y121049D01*
X113985Y121733D01*
X114217Y122396D01*
X114521Y123028D01*
X114895Y123622D01*
X115332Y124171D01*
X115829Y124668D01*
X116378Y125105D01*
X116972Y125479D01*
X117604Y125783D01*
X118267Y126015D01*
X118951Y126171D01*
X119649Y126250D01*
X120351Y126250D01*
X121049Y126171D01*
X121733Y126015D01*
X122396Y125783D01*
X123028Y125479D01*
X123622Y125105D01*
X124171Y124668D01*
X124668Y124171D01*
X125105Y123622D01*
X125479Y123028D01*
X125783Y122396D01*
X126015Y121733D01*
X126171Y121049D01*
X126250Y120351D01*
X126250Y119649D01*
X240250Y179649D02*
X240171Y178951D01*
X240015Y178267D01*
X239783Y177604D01*
X239479Y176972D01*
X239105Y176378D01*
X238668Y175829D01*
X238171Y175332D01*
X237622Y174895D01*
X237028Y174521D01*
X236396Y174217D01*
X235733Y173985D01*
X235049Y173829D01*
X234351Y173750D01*
X233649Y173750D01*
X232951Y173829D01*
X232267Y173985D01*
X231604Y174217D01*
X230972Y174521D01*
X230378Y174895D01*
X229829Y175332D01*
X229332Y175829D01*
X228895Y176378D01*
X228521Y176972D01*
X228217Y177604D01*
X227985Y178267D01*
X227829Y178951D01*
X227750Y179649D01*
X227750Y180351D01*
X227829Y181049D01*
X227985Y181733D01*
X228217Y182396D01*
X228521Y183028D01*
X228895Y183622D01*
X229332Y184171D01*
X229829Y184668D01*
X230378Y185105D01*
X230972Y185479D01*
X231604Y185783D01*
X232267Y186015D01*
X232951Y186171D01*
X233649Y186250D01*
X234351Y186250D01*
X235049Y186171D01*
X235733Y186015D01*
X236396Y185783D01*
X237028Y185479D01*
X237622Y185105D01*
X238171Y184668D01*
X238668Y184171D01*
X239105Y183622D01*
X239479Y183028D01*
X239783Y182396D01*
X240015Y181733D01*
X240171Y181049D01*
X240250Y180351D01*
X240250Y179649D01*
X121000Y959500D02*
X120929Y958503D01*
X120786Y957513D01*
X120574Y956536D01*
X120292Y955576D01*
X119943Y954639D01*
X119527Y953729D01*
X119048Y952852D01*
X118507Y952010D01*
X117908Y951210D01*
X117253Y950454D01*
X116546Y949747D01*
X115790Y949092D01*
X114990Y948493D01*
X114148Y947952D01*
X113271Y947473D01*
X112361Y947057D01*
X111424Y946708D01*
X110465Y946426D01*
X109487Y946214D01*
X108498Y946071D01*
X107500Y946000D01*
X106500Y946000D01*
X105503Y946071D01*
X104513Y946214D01*
X103536Y946426D01*
X102576Y946708D01*
X101639Y947057D01*
X100729Y947473D01*
X99852Y947952D01*
X99010Y948493D01*
X98210Y949092D01*
X97454Y949747D01*
X96747Y950454D01*
X96092Y951210D01*
X95493Y952010D01*
X94952Y952852D01*
X94473Y953729D01*
X94057Y954639D01*
X93708Y955576D01*
X93426Y956536D01*
X93214Y957513D01*
X93071Y958503D01*
X93000Y959500D01*
X93000Y960500D01*
X93071Y961498D01*
X93214Y962487D01*
X93426Y963465D01*
X93708Y964424D01*
X94057Y965361D01*
X94473Y966271D01*
X94952Y967148D01*
X95493Y967990D01*
X96092Y968790D01*
X96747Y969546D01*
X97454Y970253D01*
X98210Y970908D01*
X99010Y971507D01*
X99852Y972048D01*
X100729Y972527D01*
X101639Y972943D01*
X102576Y973292D01*
X103536Y973574D01*
X104513Y973786D01*
X105503Y973929D01*
X106500Y974000D01*
X107500Y974000D01*
X108498Y973929D01*
X109487Y973786D01*
X110465Y973574D01*
X111424Y973292D01*
X112361Y972943D01*
X113271Y972527D01*
X114148Y972048D01*
X114990Y971507D01*
X115790Y970908D01*
X116546Y970253D01*
X117253Y969546D01*
X117908Y968790D01*
X118507Y967990D01*
X119048Y967148D01*
X119527Y966271D01*
X119943Y965361D01*
X120292Y964424D01*
X120574Y963465D01*
X120786Y962487D01*
X120929Y961498D01*
X121000Y960500D01*
X121000Y959500D01*
X791000Y959500D02*
X790929Y958503D01*
X790786Y957513D01*
X790574Y956536D01*
X790292Y955576D01*
X789943Y954639D01*
X789527Y953729D01*
X789048Y952852D01*
X788507Y952010D01*
X787908Y951210D01*
X787253Y950454D01*
X786546Y949747D01*
X785790Y949092D01*
X784990Y948493D01*
X784148Y947952D01*
X783271Y947473D01*
X782361Y947057D01*
X781424Y946708D01*
X780465Y946426D01*
X779487Y946214D01*
X778498Y946071D01*
X777500Y946000D01*
X776500Y946000D01*
X775503Y946071D01*
X774513Y946214D01*
X773536Y946426D01*
X772576Y946708D01*
X771639Y947057D01*
X770729Y947473D01*
X769852Y947952D01*
X769010Y948493D01*
X768210Y949092D01*
X767454Y949747D01*
X766747Y950454D01*
X766092Y951210D01*
X765493Y952010D01*
X764952Y952852D01*
X764473Y953729D01*
X764057Y954639D01*
X763708Y955576D01*
X763426Y956536D01*
X763214Y957513D01*
X763071Y958503D01*
X763000Y959500D01*
X763000Y960500D01*
X763071Y961498D01*
X763214Y962487D01*
X763426Y963465D01*
X763708Y964424D01*
X764057Y965361D01*
X764473Y966271D01*
X764952Y967148D01*
X765493Y967990D01*
X766092Y968790D01*
X766747Y969546D01*
X767454Y970253D01*
X768210Y970908D01*
X769010Y971507D01*
X769852Y972048D01*
X770729Y972527D01*
X771639Y972943D01*
X772576Y973292D01*
X773536Y973574D01*
X774513Y973786D01*
X775503Y973929D01*
X776500Y974000D01*
X777500Y974000D01*
X778498Y973929D01*
X779487Y973786D01*
X780465Y973574D01*
X781424Y973292D01*
X782361Y972943D01*
X783271Y972527D01*
X784148Y972048D01*
X784990Y971507D01*
X785790Y970908D01*
X786546Y970253D01*
X787253Y969546D01*
X787908Y968790D01*
X788507Y967990D01*
X789048Y967148D01*
X789527Y966271D01*
X789943Y965361D01*
X790292Y964424D01*
X790574Y963465D01*
X790786Y962487D01*
X790929Y961498D01*
X791000Y960500D01*
X791000Y959500D01*
X311000Y139500D02*
X310929Y138503D01*
X310786Y137513D01*
X310574Y136536D01*
X310292Y135576D01*
X309943Y134639D01*
X309527Y133729D01*
X309048Y132852D01*
X308507Y132010D01*
X307908Y131210D01*
X307253Y130454D01*
X306546Y129747D01*
X305790Y129092D01*
X304990Y128493D01*
X304148Y127952D01*
X303271Y127473D01*
X302361Y127057D01*
X301424Y126708D01*
X300465Y126426D01*
X299487Y126214D01*
X298498Y126071D01*
X297500Y126000D01*
X296500Y126000D01*
X295503Y126071D01*
X294513Y126214D01*
X293536Y126426D01*
X292576Y126708D01*
X291639Y127057D01*
X290729Y127473D01*
X289852Y127952D01*
X289010Y128493D01*
X288210Y129092D01*
X287454Y129747D01*
X286747Y130454D01*
X286092Y131210D01*
X285493Y132010D01*
X284952Y132852D01*
X284473Y133729D01*
X284057Y134639D01*
X283708Y135576D01*
X283426Y136536D01*
X283214Y137513D01*
X283071Y138503D01*
X283000Y139500D01*
X283000Y140500D01*
X283071Y141498D01*
X283214Y142487D01*
X283426Y143465D01*
X283708Y144424D01*
X284057Y145361D01*
X284473Y146271D01*
X284952Y147148D01*
X285493Y147990D01*
X286092Y148790D01*
X286747Y149546D01*
X287454Y150253D01*
X288210Y150908D01*
X289010Y151507D01*
X289852Y152048D01*
X290729Y152527D01*
X291639Y152943D01*
X292576Y153292D01*
X293536Y153574D01*
X294513Y153786D01*
X295503Y153929D01*
X296500Y154000D01*
X297500Y154000D01*
X298498Y153929D01*
X299487Y153786D01*
X300465Y153574D01*
X301424Y153292D01*
X302361Y152943D01*
X303271Y152527D01*
X304148Y152048D01*
X304990Y151507D01*
X305790Y150908D01*
X306546Y150253D01*
X307253Y149546D01*
X307908Y148790D01*
X308507Y147990D01*
X309048Y147148D01*
X309527Y146271D01*
X309943Y145361D01*
X310292Y144424D01*
X310574Y143465D01*
X310786Y142487D01*
X310929Y141498D01*
X311000Y140500D01*
X311000Y139500D01*
X601000Y139500D02*
X600929Y138503D01*
X600786Y137513D01*
X600574Y136536D01*
X600292Y135576D01*
X599943Y134639D01*
X599527Y133729D01*
X599048Y132852D01*
X598507Y132010D01*
X597908Y131210D01*
X597253Y130454D01*
X596546Y129747D01*
X595790Y129092D01*
X594990Y128493D01*
X594148Y127952D01*
X593271Y127473D01*
X592361Y127057D01*
X591424Y126708D01*
X590465Y126426D01*
X589487Y126214D01*
X588498Y126071D01*
X587500Y126000D01*
X586500Y126000D01*
X585503Y126071D01*
X584513Y126214D01*
X583536Y126426D01*
X582576Y126708D01*
X581639Y127057D01*
X580729Y127473D01*
X579852Y127952D01*
X579010Y128493D01*
X578210Y129092D01*
X577454Y129747D01*
X576747Y130454D01*
X576092Y131210D01*
X575493Y132010D01*
X574952Y132852D01*
X574473Y133729D01*
X574057Y134639D01*
X573708Y135576D01*
X573426Y136536D01*
X573214Y137513D01*
X573071Y138503D01*
X573000Y139500D01*
X573000Y140500D01*
X573071Y141498D01*
X573214Y142487D01*
X573426Y143465D01*
X573708Y144424D01*
X574057Y145361D01*
X574473Y146271D01*
X574952Y147148D01*
X575493Y147990D01*
X576092Y148790D01*
X576747Y149546D01*
X577454Y150253D01*
X578210Y150908D01*
X579010Y151507D01*
X579852Y152048D01*
X580729Y152527D01*
X581639Y152943D01*
X582576Y153292D01*
X583536Y153574D01*
X584513Y153786D01*
X585503Y153929D01*
X586500Y154000D01*
X587500Y154000D01*
X588498Y153929D01*
X589487Y153786D01*
X590465Y153574D01*
X591424Y153292D01*
X592361Y152943D01*
X593271Y152527D01*
X594148Y152048D01*
X594990Y151507D01*
X595790Y150908D01*
X596546Y150253D01*
X597253Y149546D01*
X597908Y148790D01*
X598507Y147990D01*
X599048Y147148D01*
X599527Y146271D01*
X599943Y145361D01*
X600292Y144424D01*
X600574Y143465D01*
X600786Y142487D01*
X600929Y141498D01*
X601000Y140500D01*
X601000Y139500D01*
X614850Y888681D02*
X614787Y888045D01*
X614663Y887419D01*
X614477Y886808D01*
X614233Y886218D01*
X613932Y885654D01*
X613577Y885123D01*
X613172Y884630D01*
X612720Y884178D01*
X612227Y883773D01*
X611696Y883418D01*
X611132Y883117D01*
X610542Y882873D01*
X609931Y882687D01*
X609305Y882563D01*
X608669Y882500D01*
X608031Y882500D01*
X607395Y882563D01*
X606769Y882687D01*
X606158Y882873D01*
X605568Y883117D01*
X605004Y883418D01*
X604473Y883773D01*
X603980Y884178D01*
X603528Y884630D01*
X603123Y885123D01*
X602768Y885654D01*
X602467Y886218D01*
X602223Y886808D01*
X602037Y887419D01*
X601913Y888045D01*
X601850Y888681D01*
X601850Y889319D01*
X601913Y889955D01*
X602037Y890581D01*
X602223Y891192D01*
X602467Y891782D01*
X602768Y892346D01*
X603123Y892877D01*
X603528Y893370D01*
X603980Y893822D01*
X604473Y894227D01*
X605004Y894582D01*
X605568Y894883D01*
X606158Y895127D01*
X606769Y895313D01*
X607395Y895437D01*
X608031Y895500D01*
X608669Y895500D01*
X609305Y895437D01*
X609931Y895313D01*
X610542Y895127D01*
X611132Y894883D01*
X611696Y894582D01*
X612227Y894227D01*
X612720Y893822D01*
X613172Y893370D01*
X613577Y892877D01*
X613932Y892346D01*
X614233Y891782D01*
X614477Y891192D01*
X614663Y890581D01*
X614787Y889955D01*
X614850Y889319D01*
X614850Y888681D01*
X614850Y920431D02*
X614787Y919795D01*
X614663Y919169D01*
X614477Y918558D01*
X614233Y917968D01*
X613932Y917404D01*
X613577Y916873D01*
X613172Y916380D01*
X612720Y915928D01*
X612227Y915523D01*
X611696Y915168D01*
X611132Y914867D01*
X610542Y914623D01*
X609931Y914437D01*
X609305Y914313D01*
X608669Y914250D01*
X608031Y914250D01*
X607395Y914313D01*
X606769Y914437D01*
X606158Y914623D01*
X605568Y914867D01*
X605004Y915168D01*
X604473Y915523D01*
X603980Y915928D01*
X603528Y916380D01*
X603123Y916873D01*
X602768Y917404D01*
X602467Y917968D01*
X602223Y918558D01*
X602037Y919169D01*
X601913Y919795D01*
X601850Y920431D01*
X601850Y921069D01*
X601913Y921705D01*
X602037Y922331D01*
X602223Y922942D01*
X602467Y923532D01*
X602768Y924096D01*
X603123Y924627D01*
X603528Y925120D01*
X603980Y925572D01*
X604473Y925977D01*
X605004Y926332D01*
X605568Y926633D01*
X606158Y926877D01*
X606769Y927063D01*
X607395Y927187D01*
X608031Y927250D01*
X608669Y927250D01*
X609305Y927187D01*
X609931Y927063D01*
X610542Y926877D01*
X611132Y926633D01*
X611696Y926332D01*
X612227Y925977D01*
X612720Y925572D01*
X613172Y925120D01*
X613577Y924627D01*
X613932Y924096D01*
X614233Y923532D01*
X614477Y922942D01*
X614663Y922331D01*
X614787Y921705D01*
X614850Y921069D01*
X614850Y920431D01*
X633900Y558481D02*
X633837Y557845D01*
X633713Y557219D01*
X633527Y556608D01*
X633283Y556018D01*
X632982Y555454D01*
X632627Y554923D01*
X632222Y554430D01*
X631770Y553978D01*
X631277Y553573D01*
X630746Y553218D01*
X630182Y552917D01*
X629592Y552673D01*
X628981Y552487D01*
X628355Y552363D01*
X627719Y552300D01*
X627081Y552300D01*
X626445Y552363D01*
X625819Y552487D01*
X625208Y552673D01*
X624618Y552917D01*
X624054Y553218D01*
X623523Y553573D01*
X623030Y553978D01*
X622578Y554430D01*
X622173Y554923D01*
X621818Y555454D01*
X621517Y556018D01*
X621273Y556608D01*
X621087Y557219D01*
X620963Y557845D01*
X620900Y558481D01*
X620900Y559119D01*
X620963Y559755D01*
X621087Y560381D01*
X621273Y560992D01*
X621517Y561582D01*
X621818Y562146D01*
X622173Y562677D01*
X622578Y563170D01*
X623030Y563622D01*
X623523Y564027D01*
X624054Y564382D01*
X624618Y564683D01*
X625208Y564927D01*
X625819Y565113D01*
X626445Y565237D01*
X627081Y565300D01*
X627719Y565300D01*
X628355Y565237D01*
X628981Y565113D01*
X629592Y564927D01*
X630182Y564683D01*
X630746Y564382D01*
X631277Y564027D01*
X631770Y563622D01*
X632222Y563170D01*
X632627Y562677D01*
X632982Y562146D01*
X633283Y561582D01*
X633527Y560992D01*
X633713Y560381D01*
X633837Y559755D01*
X633900Y559119D01*
X633900Y558481D01*
X672000Y558481D02*
X671937Y557845D01*
X671813Y557219D01*
X671627Y556608D01*
X671383Y556018D01*
X671082Y555454D01*
X670727Y554923D01*
X670322Y554430D01*
X669870Y553978D01*
X669377Y553573D01*
X668846Y553218D01*
X668282Y552917D01*
X667692Y552673D01*
X667081Y552487D01*
X666455Y552363D01*
X665819Y552300D01*
X665181Y552300D01*
X664545Y552363D01*
X663919Y552487D01*
X663308Y552673D01*
X662718Y552917D01*
X662154Y553218D01*
X661623Y553573D01*
X661130Y553978D01*
X660678Y554430D01*
X660273Y554923D01*
X659918Y555454D01*
X659617Y556018D01*
X659373Y556608D01*
X659187Y557219D01*
X659063Y557845D01*
X659000Y558481D01*
X659000Y559119D01*
X659063Y559755D01*
X659187Y560381D01*
X659373Y560992D01*
X659617Y561582D01*
X659918Y562146D01*
X660273Y562677D01*
X660678Y563170D01*
X661130Y563622D01*
X661623Y564027D01*
X662154Y564382D01*
X662718Y564683D01*
X663308Y564927D01*
X663919Y565113D01*
X664545Y565237D01*
X665181Y565300D01*
X665819Y565300D01*
X666455Y565237D01*
X667081Y565113D01*
X667692Y564927D01*
X668282Y564683D01*
X668846Y564382D01*
X669377Y564027D01*
X669870Y563622D01*
X670322Y563170D01*
X670727Y562677D01*
X671082Y562146D01*
X671383Y561582D01*
X671627Y560992D01*
X671813Y560381D01*
X671937Y559755D01*
X672000Y559119D01*
X672000Y558481D01*
X791683Y502617D02*
X791620Y501981D01*
X791495Y501355D01*
X791310Y500743D01*
X791066Y500153D01*
X790765Y499590D01*
X790410Y499059D01*
X790005Y498565D01*
X789553Y498114D01*
X789059Y497709D01*
X788528Y497354D01*
X787965Y497053D01*
X787375Y496808D01*
X786764Y496623D01*
X786138Y496498D01*
X785502Y496436D01*
X784863Y496436D01*
X784228Y496498D01*
X783601Y496623D01*
X782990Y496808D01*
X782400Y497053D01*
X781837Y497354D01*
X781306Y497709D01*
X780812Y498114D01*
X780361Y498565D01*
X779955Y499059D01*
X779601Y499590D01*
X779300Y500153D01*
X779055Y500743D01*
X778870Y501355D01*
X778745Y501981D01*
X778683Y502617D01*
X778683Y503255D01*
X778745Y503891D01*
X778870Y504517D01*
X779055Y505128D01*
X779300Y505718D01*
X779601Y506282D01*
X779955Y506813D01*
X780361Y507306D01*
X780812Y507758D01*
X781306Y508163D01*
X781837Y508518D01*
X782400Y508819D01*
X782990Y509063D01*
X783601Y509249D01*
X784228Y509373D01*
X784863Y509436D01*
X785502Y509436D01*
X786138Y509373D01*
X786764Y509249D01*
X787375Y509063D01*
X787965Y508819D01*
X788528Y508518D01*
X789059Y508163D01*
X789553Y507758D01*
X790005Y507306D01*
X790410Y506813D01*
X790765Y506282D01*
X791066Y505718D01*
X791310Y505128D01*
X791495Y504517D01*
X791620Y503891D01*
X791683Y503255D01*
X791683Y502617D01*
X743012Y502617D02*
X742950Y501981D01*
X742825Y501355D01*
X742640Y500743D01*
X742395Y500153D01*
X742094Y499590D01*
X741740Y499059D01*
X741334Y498565D01*
X740883Y498114D01*
X740389Y497709D01*
X739858Y497354D01*
X739295Y497053D01*
X738705Y496808D01*
X738094Y496623D01*
X737467Y496498D01*
X736832Y496436D01*
X736193Y496436D01*
X735557Y496498D01*
X734931Y496623D01*
X734320Y496808D01*
X733730Y497053D01*
X733167Y497354D01*
X732636Y497709D01*
X732142Y498114D01*
X731690Y498565D01*
X731285Y499059D01*
X730930Y499590D01*
X730629Y500153D01*
X730385Y500743D01*
X730200Y501355D01*
X730075Y501981D01*
X730012Y502617D01*
X730012Y503255D01*
X730075Y503891D01*
X730200Y504517D01*
X730385Y505128D01*
X730629Y505718D01*
X730930Y506282D01*
X731285Y506813D01*
X731690Y507306D01*
X732142Y507758D01*
X732636Y508163D01*
X733167Y508518D01*
X733730Y508819D01*
X734320Y509063D01*
X734931Y509249D01*
X735557Y509373D01*
X736193Y509436D01*
X736832Y509436D01*
X737467Y509373D01*
X738094Y509249D01*
X738705Y509063D01*
X739295Y508819D01*
X739858Y508518D01*
X740389Y508163D01*
X740883Y507758D01*
X741334Y507306D01*
X741740Y506813D01*
X742094Y506282D01*
X742395Y505718D01*
X742640Y505128D01*
X742825Y504517D01*
X742950Y503891D01*
X743012Y503255D01*
X743012Y502617D01*
X400196Y439682D02*
X400133Y439047D01*
X400009Y438420D01*
X399823Y437809D01*
X399579Y437219D01*
X399278Y436656D01*
X398923Y436125D01*
X398518Y435631D01*
X398066Y435180D01*
X397572Y434775D01*
X397041Y434420D01*
X396478Y434119D01*
X395888Y433874D01*
X395277Y433689D01*
X394651Y433564D01*
X394015Y433502D01*
X393376Y433502D01*
X392741Y433564D01*
X392114Y433689D01*
X391503Y433874D01*
X390913Y434119D01*
X390350Y434420D01*
X389819Y434775D01*
X389325Y435180D01*
X388874Y435631D01*
X388469Y436125D01*
X388114Y436656D01*
X387813Y437219D01*
X387568Y437809D01*
X387383Y438420D01*
X387258Y439047D01*
X387196Y439682D01*
X387196Y440321D01*
X387258Y440957D01*
X387383Y441583D01*
X387568Y442194D01*
X387813Y442784D01*
X388114Y443347D01*
X388469Y443878D01*
X388874Y444372D01*
X389325Y444824D01*
X389819Y445229D01*
X390350Y445584D01*
X390913Y445885D01*
X391503Y446129D01*
X392114Y446315D01*
X392741Y446439D01*
X393376Y446502D01*
X394015Y446502D01*
X394651Y446439D01*
X395277Y446315D01*
X395888Y446129D01*
X396478Y445885D01*
X397041Y445584D01*
X397572Y445229D01*
X398066Y444824D01*
X398518Y444372D01*
X398923Y443878D01*
X399278Y443347D01*
X399579Y442784D01*
X399823Y442194D01*
X400009Y441583D01*
X400133Y440957D01*
X400196Y440321D01*
X400196Y439682D01*
X528815Y439682D02*
X528752Y439047D01*
X528628Y438420D01*
X528442Y437809D01*
X528198Y437219D01*
X527897Y436656D01*
X527542Y436125D01*
X527137Y435631D01*
X526685Y435180D01*
X526192Y434775D01*
X525661Y434420D01*
X525097Y434119D01*
X524507Y433874D01*
X523896Y433689D01*
X523270Y433564D01*
X522634Y433502D01*
X521996Y433502D01*
X521360Y433564D01*
X520734Y433689D01*
X520122Y433874D01*
X519532Y434119D01*
X518969Y434420D01*
X518438Y434775D01*
X517945Y435180D01*
X517493Y435631D01*
X517088Y436125D01*
X516733Y436656D01*
X516432Y437219D01*
X516188Y437809D01*
X516002Y438420D01*
X515878Y439047D01*
X515815Y439682D01*
X515815Y440321D01*
X515878Y440957D01*
X516002Y441583D01*
X516188Y442194D01*
X516432Y442784D01*
X516733Y443347D01*
X517088Y443878D01*
X517493Y444372D01*
X517945Y444824D01*
X518438Y445229D01*
X518969Y445584D01*
X519532Y445885D01*
X520122Y446129D01*
X520734Y446315D01*
X521360Y446439D01*
X521996Y446502D01*
X522634Y446502D01*
X523270Y446439D01*
X523896Y446315D01*
X524507Y446129D01*
X525097Y445885D01*
X525661Y445584D01*
X526192Y445229D01*
X526685Y444824D01*
X527137Y444372D01*
X527542Y443878D01*
X527897Y443347D01*
X528198Y442784D01*
X528442Y442194D01*
X528628Y441583D01*
X528752Y440957D01*
X528815Y440321D01*
X528815Y439682D01*
X164000Y73681D02*
X163937Y73045D01*
X163813Y72419D01*
X163627Y71808D01*
X163383Y71218D01*
X163082Y70654D01*
X162727Y70123D01*
X162322Y69630D01*
X161870Y69178D01*
X161377Y68773D01*
X160846Y68418D01*
X160282Y68117D01*
X159692Y67873D01*
X159081Y67687D01*
X158455Y67563D01*
X157819Y67500D01*
X157181Y67500D01*
X156545Y67563D01*
X155919Y67687D01*
X155308Y67873D01*
X154718Y68117D01*
X154154Y68418D01*
X153623Y68773D01*
X153130Y69178D01*
X152678Y69630D01*
X152273Y70123D01*
X151918Y70654D01*
X151617Y71218D01*
X151373Y71808D01*
X151187Y72419D01*
X151063Y73045D01*
X151000Y73681D01*
X151000Y74319D01*
X151063Y74955D01*
X151187Y75581D01*
X151373Y76192D01*
X151617Y76782D01*
X151918Y77346D01*
X152273Y77877D01*
X152678Y78370D01*
X153130Y78822D01*
X153623Y79227D01*
X154154Y79582D01*
X154718Y79883D01*
X155308Y80127D01*
X155919Y80313D01*
X156545Y80437D01*
X157181Y80500D01*
X157819Y80500D01*
X158455Y80437D01*
X159081Y80313D01*
X159692Y80127D01*
X160282Y79883D01*
X160846Y79582D01*
X161377Y79227D01*
X161870Y78822D01*
X162322Y78370D01*
X162727Y77877D01*
X163082Y77346D01*
X163383Y76782D01*
X163627Y76192D01*
X163813Y75581D01*
X163937Y74955D01*
X164000Y74319D01*
X164000Y73681D01*
X303700Y73681D02*
X303637Y73045D01*
X303513Y72419D01*
X303327Y71808D01*
X303083Y71218D01*
X302782Y70654D01*
X302427Y70123D01*
X302022Y69630D01*
X301570Y69178D01*
X301077Y68773D01*
X300546Y68418D01*
X299982Y68117D01*
X299392Y67873D01*
X298781Y67687D01*
X298155Y67563D01*
X297519Y67500D01*
X296881Y67500D01*
X296245Y67563D01*
X295619Y67687D01*
X295008Y67873D01*
X294418Y68117D01*
X293854Y68418D01*
X293323Y68773D01*
X292830Y69178D01*
X292378Y69630D01*
X291973Y70123D01*
X291618Y70654D01*
X291317Y71218D01*
X291073Y71808D01*
X290887Y72419D01*
X290763Y73045D01*
X290700Y73681D01*
X290700Y74319D01*
X290763Y74955D01*
X290887Y75581D01*
X291073Y76192D01*
X291317Y76782D01*
X291618Y77346D01*
X291973Y77877D01*
X292378Y78370D01*
X292830Y78822D01*
X293323Y79227D01*
X293854Y79582D01*
X294418Y79883D01*
X295008Y80127D01*
X295619Y80313D01*
X296245Y80437D01*
X296881Y80500D01*
X297519Y80500D01*
X298155Y80437D01*
X298781Y80313D01*
X299392Y80127D01*
X299982Y79883D01*
X300546Y79582D01*
X301077Y79227D01*
X301570Y78822D01*
X302022Y78370D01*
X302427Y77877D01*
X302782Y77346D01*
X303083Y76782D01*
X303327Y76192D01*
X303513Y75581D01*
X303637Y74955D01*
X303700Y74319D01*
X303700Y73681D01*
X593500Y73681D02*
X593437Y73045D01*
X593313Y72419D01*
X593127Y71808D01*
X592883Y71218D01*
X592582Y70654D01*
X592227Y70123D01*
X591822Y69630D01*
X591370Y69178D01*
X590877Y68773D01*
X590346Y68418D01*
X589782Y68117D01*
X589192Y67873D01*
X588581Y67687D01*
X587955Y67563D01*
X587319Y67500D01*
X586681Y67500D01*
X586045Y67563D01*
X585419Y67687D01*
X584808Y67873D01*
X584218Y68117D01*
X583654Y68418D01*
X583123Y68773D01*
X582630Y69178D01*
X582178Y69630D01*
X581773Y70123D01*
X581418Y70654D01*
X581117Y71218D01*
X580873Y71808D01*
X580687Y72419D01*
X580563Y73045D01*
X580500Y73681D01*
X580500Y74319D01*
X580563Y74955D01*
X580687Y75581D01*
X580873Y76192D01*
X581117Y76782D01*
X581418Y77346D01*
X581773Y77877D01*
X582178Y78370D01*
X582630Y78822D01*
X583123Y79227D01*
X583654Y79582D01*
X584218Y79883D01*
X584808Y80127D01*
X585419Y80313D01*
X586045Y80437D01*
X586681Y80500D01*
X587319Y80500D01*
X587955Y80437D01*
X588581Y80313D01*
X589192Y80127D01*
X589782Y79883D01*
X590346Y79582D01*
X590877Y79227D01*
X591370Y78822D01*
X591822Y78370D01*
X592227Y77877D01*
X592582Y77346D01*
X592883Y76782D01*
X593127Y76192D01*
X593313Y75581D01*
X593437Y74955D01*
X593500Y74319D01*
X593500Y73681D01*
X738500Y73681D02*
X738437Y73045D01*
X738313Y72419D01*
X738127Y71808D01*
X737883Y71218D01*
X737582Y70654D01*
X737227Y70123D01*
X736822Y69630D01*
X736370Y69178D01*
X735877Y68773D01*
X735346Y68418D01*
X734782Y68117D01*
X734192Y67873D01*
X733581Y67687D01*
X732955Y67563D01*
X732319Y67500D01*
X731681Y67500D01*
X731045Y67563D01*
X730419Y67687D01*
X729808Y67873D01*
X729218Y68117D01*
X728654Y68418D01*
X728123Y68773D01*
X727630Y69178D01*
X727178Y69630D01*
X726773Y70123D01*
X726418Y70654D01*
X726117Y71218D01*
X725873Y71808D01*
X725687Y72419D01*
X725563Y73045D01*
X725500Y73681D01*
X725500Y74319D01*
X725563Y74955D01*
X725687Y75581D01*
X725873Y76192D01*
X726117Y76782D01*
X726418Y77346D01*
X726773Y77877D01*
X727178Y78370D01*
X727630Y78822D01*
X728123Y79227D01*
X728654Y79582D01*
X729218Y79883D01*
X729808Y80127D01*
X730419Y80313D01*
X731045Y80437D01*
X731681Y80500D01*
X732319Y80500D01*
X732955Y80437D01*
X733581Y80313D01*
X734192Y80127D01*
X734782Y79883D01*
X735346Y79582D01*
X735877Y79227D01*
X736370Y78822D01*
X736822Y78370D01*
X737227Y77877D01*
X737582Y77346D01*
X737883Y76782D01*
X738127Y76192D01*
X738313Y75581D01*
X738437Y74955D01*
X738500Y74319D01*
X738500Y73681D01*
M02*
