G04 EAGLE Gerber X2 export*
%TF.Part,Single*%
%TF.FileFunction,Copper,L1,Top,Mixed*%
%TF.FilePolarity,Positive*%
%TF.GenerationSoftware,Autodesk,EAGLE,9.2.2*%
%TF.CreationDate,2019-01-20T16:46:20Z*%
G75*
%MOMM*%
%FSLAX34Y34*%
%LPD*%
%INTop Copper*%
%AMOC8*
5,1,8,0,0,1.08239X$1,22.5*%
G01*
%ADD10C,1.143000*%
%ADD11R,1.350000X1.350000*%
%ADD12C,1.350000*%
%ADD13R,1.800000X1.600000*%
%ADD14R,1.600000X1.800000*%
%ADD15C,1.408000*%
%ADD16R,1.408000X1.408000*%
%ADD17C,1.320800*%
%ADD18R,0.600000X2.200000*%
%ADD19R,2.200000X0.600000*%
%ADD20C,1.950000*%
%ADD21R,0.800000X3.100000*%
%ADD22P,1.429621X8X202.500000*%
%ADD23P,2.336880X8X112.500000*%
%ADD24R,1.270000X2.540000*%
%ADD25C,1.879600*%
%ADD26P,1.429621X8X292.500000*%
%ADD27P,1.429621X8X112.500000*%
%ADD28R,1.600000X1.803000*%
%ADD29R,1.320800X2.184400*%
%ADD30R,1.803000X1.600000*%
%ADD31R,2.184400X1.320800*%
%ADD32R,2.000000X1.600000*%
%ADD33R,1.600000X2.000000*%
%ADD34R,1.879600X1.879600*%
%ADD35P,3.247170X8X112.500000*%
%ADD36R,1.000000X1.600000*%
%ADD37R,5.400000X6.200000*%
%ADD38R,1.549400X0.533400*%
%ADD39P,3.247170X8X22.500000*%
%ADD40P,2.336880X8X22.500000*%
%ADD41P,2.336880X8X202.500000*%
%ADD42R,2.400000X2.400000*%
%ADD43R,1.270000X1.270000*%
%ADD44C,0.812800*%
%ADD45C,1.800000*%
%ADD46P,4.123906X8X22.500000*%
%ADD47C,1.879600*%
%ADD48C,0.203200*%
%ADD49C,0.604800*%
%ADD50C,0.654800*%


D10*
X369510Y377210D03*
X319510Y377210D03*
D11*
X525700Y799150D03*
D12*
X525700Y819150D03*
D11*
X520700Y695800D03*
D12*
X520700Y675800D03*
D11*
X227212Y668498D03*
D12*
X227212Y648498D03*
D11*
X622749Y624127D03*
D12*
X602749Y624127D03*
D11*
X448150Y663480D03*
D12*
X428150Y663480D03*
D13*
X521847Y451022D03*
X521847Y423022D03*
D10*
X514350Y596500D03*
X514350Y546500D03*
X247334Y497833D03*
X247334Y547833D03*
D11*
X227423Y590350D03*
D12*
X227423Y610350D03*
D11*
X562450Y514350D03*
D12*
X542450Y514350D03*
D11*
X564801Y384258D03*
D12*
X584801Y384258D03*
D10*
X50691Y471019D03*
X50691Y521019D03*
D11*
X237276Y722116D03*
D12*
X217276Y722116D03*
D10*
X591173Y543656D03*
X641173Y543656D03*
D11*
X414670Y477000D03*
D12*
X414670Y457000D03*
D11*
X276580Y395840D03*
D12*
X276580Y375840D03*
D14*
X565390Y341550D03*
X593390Y341550D03*
D10*
X684850Y652588D03*
X684850Y702588D03*
D11*
X323850Y47150D03*
D12*
X323850Y67150D03*
D14*
X287050Y82550D03*
X259050Y82550D03*
X430500Y127000D03*
X458500Y127000D03*
D11*
X444500Y167800D03*
D12*
X444500Y187800D03*
D11*
X260350Y117000D03*
D12*
X260350Y137000D03*
D13*
X304800Y113000D03*
X304800Y141000D03*
D10*
X57150Y745160D03*
X57150Y795160D03*
D11*
X702740Y955743D03*
D12*
X722740Y955743D03*
D11*
X584360Y955743D03*
D12*
X604360Y955743D03*
D10*
X609600Y839380D03*
X609600Y889380D03*
X545700Y851870D03*
X495700Y851870D03*
D15*
X387350Y50800D03*
D16*
X361950Y50800D03*
D15*
X330200Y139700D03*
D16*
X330200Y114300D03*
D17*
X334200Y708396D02*
X334200Y721604D01*
X309200Y721604D02*
X309200Y708396D01*
X284200Y708396D02*
X284200Y721604D01*
X284200Y768396D02*
X284200Y781604D01*
X309200Y781604D02*
X309200Y768396D01*
X334200Y768396D02*
X334200Y781604D01*
D18*
X111561Y472640D03*
X111561Y524640D03*
X98861Y472640D03*
X124261Y472640D03*
X136961Y472640D03*
X98861Y524640D03*
X124261Y524640D03*
X136961Y524640D03*
X162361Y472640D03*
X162361Y524640D03*
X149661Y472640D03*
X175061Y472640D03*
X149661Y524640D03*
X175061Y524640D03*
D19*
X483200Y533400D03*
X431200Y533400D03*
X483200Y520700D03*
X483200Y546100D03*
X483200Y558800D03*
X431200Y520700D03*
X431200Y546100D03*
X431200Y558800D03*
X483200Y584200D03*
X431200Y584200D03*
X483200Y571500D03*
X483200Y596900D03*
X431200Y571500D03*
X431200Y596900D03*
D18*
X577850Y483200D03*
X577850Y431200D03*
X590550Y483200D03*
X565150Y483200D03*
X552450Y483200D03*
X590550Y431200D03*
X565150Y431200D03*
X552450Y431200D03*
D20*
X89050Y218850D02*
X69550Y218850D01*
X69550Y381150D02*
X89050Y381150D01*
X196550Y218850D02*
X216050Y218850D01*
X216050Y381150D02*
X196550Y381150D01*
D21*
X393600Y293200D03*
X361600Y293200D03*
X339600Y293200D03*
X317600Y293200D03*
X393600Y240200D03*
X361600Y240200D03*
X339600Y240200D03*
X317600Y240200D03*
D22*
X487700Y300000D03*
X462300Y300000D03*
D23*
X543560Y165100D03*
X544560Y92280D03*
D17*
X334200Y843396D02*
X334200Y856604D01*
X309200Y856604D02*
X309200Y843396D01*
X284200Y843396D02*
X284200Y856604D01*
X284200Y903396D02*
X284200Y916604D01*
X309200Y916604D02*
X309200Y903396D01*
X334200Y903396D02*
X334200Y916604D01*
X124200Y916604D02*
X124200Y903396D01*
X149200Y903396D02*
X149200Y916604D01*
X174200Y916604D02*
X174200Y903396D01*
X174200Y856604D02*
X174200Y843396D01*
X149200Y843396D02*
X149200Y856604D01*
X124200Y856604D02*
X124200Y843396D01*
D24*
X596900Y244400D03*
X622300Y244400D03*
X622300Y314400D03*
X596900Y314400D03*
D20*
X861050Y381150D02*
X880550Y381150D01*
X880550Y218850D02*
X861050Y218850D01*
X753550Y381150D02*
X734050Y381150D01*
X734050Y218850D02*
X753550Y218850D01*
D25*
X577850Y911320D03*
X565150Y892270D03*
X552450Y911320D03*
D26*
X649240Y943045D03*
X668290Y955745D03*
X649240Y968445D03*
D27*
X605467Y775216D03*
X605467Y749816D03*
X605467Y724416D03*
D25*
X585360Y696580D03*
X604410Y683880D03*
X585360Y671180D03*
D28*
X454140Y460470D03*
X482580Y460470D03*
X522220Y876490D03*
X493780Y876490D03*
X639830Y882650D03*
X668270Y882650D03*
X401030Y886260D03*
X372590Y886260D03*
X484120Y781050D03*
X455680Y781050D03*
D29*
X374620Y657450D03*
X387350Y701450D03*
X400080Y657450D03*
D28*
X668270Y857250D03*
X639830Y857250D03*
D30*
X570150Y820290D03*
X570150Y791850D03*
X482600Y671580D03*
X482600Y700020D03*
D28*
X509520Y730250D03*
X481080Y730250D03*
D30*
X641350Y696370D03*
X641350Y667930D03*
X792270Y679260D03*
X792270Y650820D03*
D31*
X551940Y620540D03*
X507940Y633270D03*
X551940Y646000D03*
X414430Y730220D03*
X370430Y742950D03*
X414430Y755680D03*
D29*
X400080Y625250D03*
X387350Y581250D03*
X374620Y625250D03*
D30*
X251918Y472845D03*
X251918Y444405D03*
D28*
X226593Y412530D03*
X198153Y412530D03*
D29*
X78770Y623440D03*
X66040Y579440D03*
X53310Y623440D03*
X53310Y669819D03*
X66040Y713819D03*
X78770Y669819D03*
D30*
X76731Y439970D03*
X76731Y468410D03*
X641350Y436630D03*
X641350Y465070D03*
D28*
X423930Y704850D03*
X452370Y704850D03*
D31*
X251289Y762631D03*
X207289Y775361D03*
X251289Y788091D03*
X207892Y836078D03*
X251892Y823348D03*
X207892Y810618D03*
D30*
X276499Y522836D03*
X276499Y551276D03*
D28*
X291360Y346930D03*
X319800Y346930D03*
D31*
X397920Y527020D03*
X353920Y539750D03*
X397920Y552480D03*
D32*
X520700Y278100D03*
X520700Y306100D03*
D28*
X454310Y422674D03*
X482750Y422674D03*
D30*
X615950Y436630D03*
X615950Y465070D03*
X512097Y512377D03*
X512097Y483937D03*
D33*
X515650Y190500D03*
X487650Y190500D03*
D30*
X565150Y592070D03*
X565150Y563630D03*
D28*
X700020Y541290D03*
X671580Y541290D03*
X700020Y566880D03*
X671580Y566880D03*
D33*
X487650Y158750D03*
X515650Y158750D03*
D32*
X654050Y248950D03*
X654050Y220950D03*
D28*
X372970Y347730D03*
X344530Y347730D03*
D30*
X539750Y563630D03*
X539750Y592070D03*
X76731Y520750D03*
X76731Y492310D03*
X276638Y471499D03*
X276638Y499939D03*
X222169Y517431D03*
X222169Y545871D03*
X197300Y518438D03*
X197300Y546878D03*
D28*
X216713Y909899D03*
X245153Y909899D03*
D34*
X695800Y890000D03*
X720800Y890000D03*
X745800Y890000D03*
D35*
X676800Y820000D03*
X764800Y820000D03*
D15*
X374650Y863600D03*
D16*
X374650Y838200D03*
D15*
X407339Y835715D03*
D16*
X407339Y861115D03*
D15*
X723362Y650113D03*
D16*
X723362Y675513D03*
D15*
X763270Y679450D03*
D16*
X763270Y654050D03*
D36*
X358200Y79000D03*
X403800Y79000D03*
D37*
X381000Y152000D03*
D38*
X578866Y196850D03*
X578866Y184150D03*
X578866Y171450D03*
X578866Y158750D03*
X653034Y158750D03*
X653034Y171450D03*
X653034Y184150D03*
X653034Y196850D03*
D34*
X379200Y490400D03*
X379200Y465400D03*
X379200Y440400D03*
D39*
X309200Y509400D03*
X309200Y421400D03*
D31*
X371700Y806480D03*
X415700Y793750D03*
X371700Y781020D03*
D17*
X124200Y781604D02*
X124200Y768396D01*
X149200Y768396D02*
X149200Y781604D01*
X174200Y781604D02*
X174200Y768396D01*
X174200Y721604D02*
X174200Y708396D01*
X149200Y708396D02*
X149200Y721604D01*
X124200Y721604D02*
X124200Y708396D01*
D40*
X184150Y69850D03*
D41*
X222250Y69850D03*
D42*
X431800Y288700D03*
X431800Y244700D03*
D43*
X361950Y196850D03*
X387350Y196850D03*
D44*
X361950Y196850D01*
D45*
X690800Y601000D02*
X690800Y619000D01*
X670800Y619000D02*
X670800Y601000D01*
X770800Y601000D02*
X770800Y619000D01*
X710800Y619000D02*
X710800Y601000D01*
X730800Y601000D02*
X730800Y619000D01*
X750800Y619000D02*
X750800Y601000D01*
D46*
X660800Y500000D03*
X780800Y500000D03*
D47*
X711200Y130048D02*
X711200Y111252D01*
X685800Y111252D02*
X685800Y130048D01*
X660400Y130048D02*
X660400Y111252D01*
X635000Y111252D02*
X635000Y130048D01*
X609600Y130048D02*
X609600Y111252D01*
X584200Y111252D02*
X584200Y130048D01*
D20*
X128800Y135000D02*
X128800Y115500D01*
X160800Y115500D02*
X160800Y135000D01*
X192800Y135000D02*
X192800Y115500D01*
X192800Y165000D02*
X192800Y184500D01*
X160800Y184500D02*
X160800Y165000D01*
X128800Y165000D02*
X128800Y184500D01*
D10*
X507200Y755650D03*
X457200Y755650D03*
X475450Y622300D03*
X425450Y622300D03*
X643046Y779801D03*
X643046Y729801D03*
X450850Y869550D03*
X450850Y819550D03*
D15*
X402249Y941311D03*
D16*
X402249Y966711D03*
D15*
X372429Y970281D03*
D16*
X372429Y944881D03*
D22*
X482600Y241300D03*
X495300Y222250D03*
X508000Y241300D03*
D28*
X217305Y872145D03*
X245745Y872145D03*
X724140Y857780D03*
X695700Y857780D03*
D17*
X124200Y646604D02*
X124200Y633396D01*
X149200Y633396D02*
X149200Y646604D01*
X174200Y646604D02*
X174200Y633396D01*
X174200Y586604D02*
X174200Y573396D01*
X149200Y573396D02*
X149200Y586604D01*
X124200Y586604D02*
X124200Y573396D01*
X334200Y573396D02*
X334200Y586604D01*
X309200Y586604D02*
X309200Y573396D01*
X284200Y573396D02*
X284200Y586604D01*
X284200Y633396D02*
X284200Y646604D01*
X309200Y646604D02*
X309200Y633396D01*
X334200Y633396D02*
X334200Y646604D01*
D10*
X684919Y729425D03*
X684919Y779425D03*
D14*
X187720Y36960D03*
X215720Y36960D03*
D33*
X515904Y126365D03*
X487904Y126365D03*
D28*
X221878Y491587D03*
X193438Y491587D03*
D15*
X224152Y467974D03*
D16*
X224152Y442574D03*
D15*
X196571Y438828D03*
D16*
X196571Y464228D03*
D15*
X51756Y412250D03*
D16*
X51756Y437650D03*
D15*
X77080Y416419D03*
D16*
X102480Y416419D03*
D28*
X372474Y915011D03*
X400914Y915011D03*
D48*
X617728Y465328D02*
X640080Y465328D01*
X617728Y465328D02*
X615950Y465070D01*
X640080Y465328D02*
X641350Y465070D01*
X564896Y483616D02*
X564896Y512064D01*
X562864Y514096D01*
X564896Y483616D02*
X565150Y483200D01*
X562864Y514096D02*
X562450Y514350D01*
X577088Y465328D02*
X615696Y465328D01*
X577088Y465328D02*
X566928Y475488D01*
X566928Y481584D01*
X615696Y465328D02*
X615950Y465070D01*
X566928Y481584D02*
X565150Y483200D01*
X279306Y467445D02*
X276638Y471499D01*
X158309Y538180D02*
X156821Y536692D01*
X156821Y531800D02*
X149661Y524640D01*
X156821Y531800D02*
X156821Y536692D01*
X179113Y538180D02*
X186588Y530704D01*
X179113Y538180D02*
X158309Y538180D01*
X186588Y530704D02*
X235479Y530704D01*
X286504Y445733D02*
X286504Y410216D01*
X319510Y377210D01*
X286504Y445733D02*
X276638Y455599D01*
X276638Y471499D01*
X263038Y503145D02*
X235479Y530704D01*
X263038Y503145D02*
X263038Y485099D01*
X276638Y471499D01*
X339600Y310867D02*
X339600Y293200D01*
X339600Y310867D02*
X372970Y344237D01*
X372970Y347730D01*
X369510Y351190D01*
X369510Y377210D01*
X131421Y531800D02*
X124261Y524640D01*
X151897Y546736D02*
X152039Y546878D01*
X197300Y546878D01*
X131421Y542512D02*
X131421Y531800D01*
X131421Y542512D02*
X135644Y546736D01*
X151897Y546736D01*
X111165Y524548D02*
X98973Y524548D01*
X98861Y524640D01*
X111165Y524548D02*
X111561Y524640D01*
X98861Y524640D02*
X97923Y525588D01*
X42672Y730682D02*
X57150Y745160D01*
X42672Y730682D02*
X42672Y566928D01*
X75252Y534348D02*
X99277Y534348D01*
X99277Y524852D01*
X98973Y524548D01*
X75252Y534348D02*
X42672Y566928D01*
X361696Y741680D02*
X369824Y741680D01*
X361696Y741680D02*
X335280Y715264D01*
X369824Y741680D02*
X370430Y742950D01*
X335280Y715264D02*
X334600Y713857D01*
X334600Y715000D02*
X335280Y715264D01*
X334200Y715000D01*
X227212Y648498D02*
X272601Y603109D01*
X272601Y555175D01*
X276499Y551276D01*
X227212Y668498D02*
X226506Y670146D01*
X249936Y753872D02*
X249936Y762000D01*
X249936Y753872D02*
X227584Y731520D01*
X227584Y668528D01*
X249936Y762000D02*
X251289Y762631D01*
X227584Y668528D02*
X227212Y668498D01*
X251289Y762631D02*
X249936Y764032D01*
X251289Y762631D02*
X212446Y801474D01*
X199487Y823332D02*
X199487Y830943D01*
X199487Y832540D01*
X199487Y823332D02*
X195918Y819762D01*
X199487Y820933D02*
X199487Y823332D01*
X195918Y819762D02*
X194430Y818274D01*
X194430Y802962D01*
X195918Y801474D01*
X198316Y819762D02*
X199487Y820933D01*
X198316Y819762D02*
X195918Y819762D01*
X195918Y801474D02*
X212446Y801474D01*
X202756Y830943D02*
X207892Y836078D01*
X202756Y830943D02*
X199487Y830943D01*
X149200Y776143D02*
X148336Y776224D01*
X149200Y775000D01*
X193040Y776224D02*
X207264Y776224D01*
X193040Y776224D02*
X176784Y792480D01*
X166624Y792480D01*
X150368Y776224D01*
X207264Y776224D02*
X207289Y775361D01*
X150368Y776224D02*
X149200Y775000D01*
X125984Y776224D02*
X124200Y775000D01*
X194422Y845222D01*
X230018Y845222D01*
X251892Y823348D01*
X522224Y591312D02*
X538480Y591312D01*
X522224Y591312D02*
X518160Y587248D01*
X497840Y587248D01*
X493776Y591312D01*
X471424Y591312D01*
X469392Y589280D01*
X469392Y579120D01*
X475488Y573024D01*
X538480Y591312D02*
X539750Y592070D01*
X469392Y589280D02*
X467360Y591312D01*
D49*
X467360Y591312D03*
D48*
X481676Y573024D02*
X483200Y571500D01*
X481676Y573024D02*
X475488Y573024D01*
X491420Y469310D02*
X482580Y460470D01*
X483616Y520192D02*
X483200Y520700D01*
X491420Y472530D02*
X491420Y469310D01*
X512016Y483937D02*
X483200Y512752D01*
X483200Y520700D01*
X512016Y483937D02*
X512097Y483937D01*
X502827Y483937D02*
X491420Y472530D01*
X502827Y483937D02*
X512097Y483937D01*
X481584Y532384D02*
X483200Y533400D01*
X560832Y562864D02*
X564896Y562864D01*
X565150Y563630D01*
X483200Y533400D02*
X475840Y533400D01*
X483200Y533400D02*
X503091Y533400D01*
X526353Y533400D01*
X544469Y551516D01*
X553548Y551516D02*
X564896Y562864D01*
X553548Y551516D02*
X544469Y551516D01*
X512097Y524394D02*
X512097Y512377D01*
X512097Y524394D02*
X503091Y533400D01*
X539750Y563630D02*
X542060Y563630D01*
X544543Y563630D01*
X517769Y538245D02*
X510931Y538245D01*
X517769Y538245D02*
X522605Y543081D01*
X503076Y546100D02*
X483200Y546100D01*
X522605Y544175D02*
X522605Y543081D01*
X510931Y538245D02*
X503076Y546100D01*
X522605Y544175D02*
X542060Y563630D01*
X476040Y538940D02*
X471148Y538940D01*
X482750Y439693D02*
X482750Y422674D01*
X482750Y439693D02*
X472040Y450403D01*
X472040Y468303D01*
X459000Y481343D01*
X459000Y526792D02*
X471148Y538940D01*
X459000Y526792D02*
X459000Y481343D01*
X476040Y538940D02*
X483200Y546100D01*
X483097Y423022D02*
X521847Y423022D01*
X483097Y423022D02*
X482750Y422674D01*
X560832Y593344D02*
X564896Y593344D01*
X560832Y593344D02*
X550672Y603504D01*
X522224Y603504D01*
X516128Y597408D01*
X564896Y593344D02*
X565150Y592070D01*
X516128Y597408D02*
X514350Y596500D01*
X670560Y564896D02*
X671580Y566880D01*
X566928Y591312D02*
X565150Y592070D01*
X647148Y591312D02*
X671580Y566880D01*
X647148Y591312D02*
X566928Y591312D01*
X514350Y596500D02*
X513950Y596900D01*
X483200Y596900D01*
X670560Y540512D02*
X671580Y541290D01*
X495808Y583184D02*
X483616Y583184D01*
X495808Y583184D02*
X497136Y581856D01*
X483616Y583184D02*
X483200Y584200D01*
X649205Y563665D02*
X671580Y541290D01*
X649205Y563665D02*
X649205Y568569D01*
X529683Y581530D02*
X529357Y581856D01*
X497136Y581856D01*
X636244Y581530D02*
X649205Y568569D01*
X636244Y581530D02*
X529683Y581530D01*
X514350Y564642D02*
X514350Y546500D01*
X514350Y564642D02*
X497136Y581856D01*
X425672Y521176D02*
X423480Y521176D01*
X398998Y521176D01*
X426148Y520700D02*
X431200Y520700D01*
X426148Y520700D02*
X425672Y521176D01*
X398998Y521176D02*
X397920Y527020D01*
X423480Y485810D02*
X414670Y477000D01*
X423480Y485810D02*
X423480Y521176D01*
X343408Y274320D02*
X319024Y249936D01*
X343408Y274320D02*
X345440Y274320D01*
X353568Y282448D01*
X361125Y319088D02*
X370475Y319088D01*
X361125Y319088D02*
X353568Y311531D01*
X353568Y282448D01*
X319024Y249936D02*
X319024Y241624D01*
X317600Y240200D01*
X365760Y430784D02*
X365760Y451960D01*
X365760Y430784D02*
X386632Y409912D01*
X386632Y335245D02*
X370475Y319088D01*
X386632Y335245D02*
X386632Y409912D01*
X365760Y451960D02*
X379200Y465400D01*
X701040Y542544D02*
X701040Y546608D01*
X711200Y556768D01*
X711200Y609600D01*
X701040Y542544D02*
X700020Y541290D01*
X711200Y609600D02*
X710800Y610000D01*
X711200Y611632D02*
X729488Y611632D01*
X730800Y610000D01*
X711200Y611632D02*
X710800Y610000D01*
X699008Y601472D02*
X699008Y566928D01*
X699008Y601472D02*
X690880Y609600D01*
X699008Y566928D02*
X700020Y566880D01*
X690880Y609600D02*
X690800Y610000D01*
X688848Y611632D02*
X672592Y611632D01*
X670800Y610000D01*
X688848Y611632D02*
X690800Y610000D01*
X451104Y666496D02*
X451104Y703072D01*
X451104Y666496D02*
X449072Y664464D01*
X451104Y703072D02*
X452370Y704850D01*
X449072Y664464D02*
X448150Y663480D01*
X456600Y622300D02*
X475450Y622300D01*
X456600Y622300D02*
X431200Y596900D01*
X449072Y662558D02*
X448150Y663480D01*
X449072Y648678D02*
X475450Y622300D01*
X449072Y648678D02*
X449072Y662558D01*
X150368Y851408D02*
X149200Y853043D01*
X121920Y827024D02*
X91440Y796544D01*
X123168Y851810D02*
X123800Y853043D01*
X123952Y851408D02*
X148336Y851408D01*
X149200Y853043D01*
X123952Y851408D02*
X123800Y853043D01*
X123800Y851900D02*
X123952Y851408D01*
X148336Y851408D02*
X149200Y851900D01*
X124200Y850000D02*
X123952Y851408D01*
X123168Y851810D01*
X148336Y851408D02*
X149200Y850000D01*
X123168Y851810D02*
X121920Y850562D01*
X121920Y827024D01*
X91440Y796544D02*
X58534Y796544D01*
X57150Y795160D01*
X208859Y909899D02*
X216713Y909899D01*
X208859Y909899D02*
X150368Y851408D01*
X745744Y887984D02*
X745800Y890000D01*
D50*
X261641Y916266D03*
D48*
X255273Y909899D01*
X245153Y909899D01*
X721360Y890016D02*
X721360Y955040D01*
X722740Y955743D01*
X721360Y890016D02*
X720800Y890000D01*
X668528Y883920D02*
X668528Y955040D01*
X668528Y883920D02*
X668270Y882650D01*
X668528Y955040D02*
X701040Y955040D01*
X702740Y955743D01*
X668528Y955040D02*
X668290Y955745D01*
X648208Y967232D02*
X595376Y967232D01*
X585216Y957072D01*
X648208Y967232D02*
X649240Y968445D01*
X585216Y957072D02*
X584360Y955743D01*
X579120Y950976D02*
X579120Y912368D01*
X579120Y950976D02*
X583184Y955040D01*
X579120Y912368D02*
X577850Y911320D01*
X583184Y955040D02*
X584360Y955743D01*
X534416Y863600D02*
X544576Y853440D01*
X534416Y863600D02*
X522224Y875792D01*
X522220Y876490D01*
X544576Y853440D02*
X545700Y851870D01*
X568960Y890016D02*
X609600Y890016D01*
X568960Y890016D02*
X566928Y892048D01*
X609600Y890016D02*
X609600Y889380D01*
X566928Y892048D02*
X565150Y892270D01*
X564896Y894080D02*
X534416Y863600D01*
X565150Y892270D02*
X564896Y894080D01*
X640080Y881888D02*
X640080Y857504D01*
X639830Y857250D01*
X640080Y881888D02*
X639830Y882650D01*
X623824Y841248D02*
X609600Y841248D01*
X623824Y841248D02*
X638048Y855472D01*
X609600Y841248D02*
X609600Y839380D01*
X638048Y855472D02*
X639830Y857250D01*
X648208Y892048D02*
X648208Y942848D01*
X648208Y892048D02*
X640080Y883920D01*
X648208Y942848D02*
X649240Y943045D01*
X640080Y883920D02*
X639830Y882650D01*
X510032Y782320D02*
X485648Y782320D01*
X484120Y781050D01*
X510032Y782320D02*
X525700Y797988D01*
X525700Y799150D01*
X455168Y808736D02*
X455168Y814832D01*
X455168Y808736D02*
X455168Y782320D01*
X455168Y814832D02*
X451104Y818896D01*
X455168Y782320D02*
X455680Y781050D01*
X451104Y818896D02*
X450850Y819550D01*
X455168Y808736D02*
X371856Y808736D01*
X371700Y806480D01*
X521480Y696580D02*
X585360Y696580D01*
X521480Y696580D02*
X520700Y695800D01*
X603504Y713232D02*
X603504Y723392D01*
X603504Y713232D02*
X587248Y696976D01*
X603504Y723392D02*
X605467Y724416D01*
X587248Y696976D02*
X585360Y696580D01*
X483616Y701040D02*
X483616Y705104D01*
X508000Y729488D01*
X483616Y701040D02*
X482600Y700020D01*
X508000Y729488D02*
X509520Y730250D01*
X508000Y755904D02*
X585216Y755904D01*
X603504Y774192D01*
X508000Y755904D02*
X507200Y755650D01*
X603504Y774192D02*
X605467Y775216D01*
X607568Y778256D02*
X615696Y778256D01*
X641653Y778256D01*
X607568Y778256D02*
X605536Y776224D01*
X641653Y778256D02*
X643046Y779801D01*
X605536Y776224D02*
X605467Y775216D01*
X607568Y737616D02*
X512064Y737616D01*
X607568Y737616D02*
X615696Y745744D01*
X615696Y778256D01*
X512064Y737616D02*
X509520Y730250D01*
X479552Y731520D02*
X457200Y753872D01*
X479552Y731520D02*
X481080Y730250D01*
X457200Y753872D02*
X457200Y755650D01*
X420624Y792480D02*
X416560Y792480D01*
X420624Y792480D02*
X457200Y755904D01*
X416560Y792480D02*
X415700Y793750D01*
X457200Y755904D02*
X457200Y755650D01*
X514096Y749808D02*
X603504Y749808D01*
X514096Y749808D02*
X508000Y743712D01*
X493776Y743712D01*
X481584Y731520D01*
X603504Y749808D02*
X605467Y749816D01*
X481584Y731520D02*
X481080Y730250D01*
X607602Y608980D02*
X622749Y624127D01*
X607602Y608980D02*
X583790Y608980D01*
X573500Y619270D01*
X551940Y620540D01*
X430784Y585216D02*
X424688Y585216D01*
X416560Y593344D01*
X416560Y610296D02*
X416560Y613664D01*
X416560Y610296D02*
X416560Y593344D01*
X416560Y613664D02*
X424688Y621792D01*
X430784Y585216D02*
X431200Y584200D01*
X424688Y621792D02*
X425450Y622300D01*
X422656Y705104D02*
X422656Y719328D01*
X414528Y727456D01*
X422656Y705104D02*
X423930Y704850D01*
X414528Y727456D02*
X414430Y730220D01*
X377952Y658368D02*
X373888Y658368D01*
X377952Y658368D02*
X422656Y703072D01*
X373888Y658368D02*
X374620Y657450D01*
X422656Y703072D02*
X423930Y704850D01*
X416560Y610296D02*
X390467Y610296D01*
X386024Y614739D01*
X386024Y650296D01*
X377952Y658368D01*
X374620Y657450D01*
X453136Y461264D02*
X453482Y460991D01*
X454140Y460470D01*
X278384Y709168D02*
X282448Y713232D01*
X283270Y714307D01*
X283800Y713857D01*
X454310Y460162D02*
X454310Y422674D01*
X454310Y460162D02*
X453482Y460991D01*
X449412Y565500D02*
X406018Y565500D01*
X400304Y571214D01*
X400304Y594824D01*
X449412Y565500D02*
X454310Y560602D01*
X400304Y594824D02*
X388319Y606810D01*
X454310Y560602D02*
X454310Y460162D01*
X352264Y663043D02*
X350794Y664513D01*
X352264Y663043D02*
X352264Y626488D01*
X284480Y713232D02*
X283800Y715000D01*
X283800Y713857D02*
X284480Y713232D01*
X333064Y664513D02*
X350794Y664513D01*
X333064Y664513D02*
X283270Y714307D01*
X371942Y606810D02*
X388319Y606810D01*
X371942Y606810D02*
X352264Y626488D01*
X284200Y715000D02*
X284480Y715264D01*
X283800Y715000D01*
X251289Y788091D02*
X249936Y788416D01*
X251968Y786384D02*
X282448Y755904D01*
X282448Y715264D01*
X251968Y786384D02*
X251289Y788091D01*
X282448Y715264D02*
X284200Y715000D01*
X227734Y810618D02*
X207892Y810618D01*
X227734Y810618D02*
X251968Y786384D01*
X345239Y701040D02*
X386080Y701040D01*
X345239Y701040D02*
X341000Y696801D01*
X327327Y696801D01*
X310896Y713232D01*
X386080Y701040D02*
X387350Y701450D01*
X310896Y713232D02*
X309200Y713857D01*
X308864Y713232D02*
X309200Y715000D01*
X309200Y713857D02*
X308864Y713232D01*
X423032Y851408D02*
X493776Y851408D01*
X423032Y851408D02*
X407339Y835715D01*
X493776Y851408D02*
X495700Y851870D01*
X404368Y837184D02*
X375920Y837184D01*
X374650Y838200D01*
X406817Y835715D02*
X407339Y835715D01*
X406817Y835715D02*
X404368Y837184D01*
X247334Y547833D02*
X245372Y545871D01*
X222169Y545871D01*
X247334Y497833D02*
X247334Y477429D01*
X251918Y472845D01*
X162361Y472640D02*
X161965Y471716D01*
X251918Y444405D02*
X253728Y442603D01*
X156401Y489731D02*
X156401Y494340D01*
X214045Y491587D02*
X221878Y491587D01*
X214045Y491587D02*
X202490Y503142D01*
X162361Y483771D02*
X162361Y472640D01*
X162361Y483771D02*
X156401Y489731D01*
X156401Y494340D02*
X165202Y503142D01*
X202490Y503142D01*
X248604Y434541D02*
X226593Y412530D01*
X221878Y483797D02*
X221878Y491587D01*
X221878Y483797D02*
X233732Y471942D01*
X233732Y460240D01*
X251918Y444405D02*
X248604Y441092D01*
X248604Y434541D01*
X249567Y444405D02*
X251918Y444405D01*
X249567Y444405D02*
X233732Y460240D01*
X227423Y610350D02*
X214333Y623440D01*
X78770Y623440D01*
X78770Y592170D01*
X66040Y579440D01*
X52832Y670560D02*
X52832Y701040D01*
X65024Y713232D01*
X52832Y670560D02*
X53310Y669819D01*
X65024Y713232D02*
X66040Y713819D01*
X186944Y723392D02*
X215392Y723392D01*
X186944Y723392D02*
X178816Y731520D01*
X83312Y731520D01*
X67056Y715264D01*
X215392Y723392D02*
X217276Y722116D01*
X67056Y715264D02*
X66040Y713819D01*
X654304Y158496D02*
X654304Y128016D01*
X660400Y121920D01*
X654304Y158496D02*
X653034Y158750D01*
X660400Y121920D02*
X660400Y120650D01*
X653034Y171450D02*
X660400Y178816D01*
X662432Y178816D01*
X664464Y180848D01*
X664464Y209296D01*
X654304Y219456D01*
X654050Y220950D01*
X654304Y170688D02*
X660400Y164592D01*
X662432Y164592D01*
X684784Y142240D01*
X684784Y121920D01*
X654304Y170688D02*
X653034Y171450D01*
X684784Y121920D02*
X685800Y120650D01*
X646176Y176784D02*
X652272Y182880D01*
X646176Y176784D02*
X644144Y176784D01*
X636016Y168656D01*
X636016Y121920D01*
X652272Y182880D02*
X653034Y184150D01*
X636016Y121920D02*
X635000Y120650D01*
X583184Y195072D02*
X579120Y195072D01*
X583184Y195072D02*
X589280Y188976D01*
X589280Y125984D01*
X585216Y121920D01*
X579120Y195072D02*
X578866Y196850D01*
X585216Y121920D02*
X584200Y120650D01*
X520192Y278384D02*
X510032Y278384D01*
X489712Y298704D01*
X520192Y278384D02*
X520700Y278100D01*
X489712Y298704D02*
X487700Y300000D01*
X430784Y243840D02*
X396240Y243840D01*
X394208Y241808D01*
X430784Y243840D02*
X431800Y244700D01*
X394208Y241808D02*
X393600Y240200D01*
X508000Y241300D02*
X508000Y254000D01*
X473456Y288544D02*
X463296Y298704D01*
X473456Y288544D02*
X508000Y254000D01*
X463296Y298704D02*
X462300Y300000D01*
X473456Y286512D02*
X432816Y245872D01*
X473456Y286512D02*
X473456Y288544D01*
X432816Y245872D02*
X431800Y244700D01*
X487680Y188976D02*
X487680Y160528D01*
X487650Y158750D01*
X487680Y188976D02*
X487650Y190500D01*
X493776Y197104D02*
X493776Y221488D01*
X493776Y197104D02*
X487680Y191008D01*
X493776Y221488D02*
X495300Y222250D01*
X487680Y191008D02*
X487650Y190500D01*
X538480Y182880D02*
X577088Y182880D01*
X538480Y182880D02*
X516128Y160528D01*
X577088Y182880D02*
X578866Y184150D01*
X516128Y160528D02*
X515650Y158750D01*
X640080Y209296D02*
X652272Y197104D01*
X640080Y209296D02*
X640080Y229616D01*
X642112Y231648D01*
X666496Y231648D01*
X711200Y186944D01*
X653034Y196850D02*
X652272Y197104D01*
X520192Y306832D02*
X495808Y306832D01*
X491744Y310896D01*
X453136Y310896D01*
X432816Y290576D01*
X520192Y306832D02*
X520700Y306100D01*
X432816Y290576D02*
X431800Y288700D01*
X428752Y292608D02*
X394208Y292608D01*
X428752Y292608D02*
X430784Y290576D01*
X394208Y292608D02*
X393600Y293200D01*
X430784Y290576D02*
X431800Y288700D01*
X402336Y77216D02*
X402336Y65024D01*
X388112Y50800D01*
X402336Y77216D02*
X403800Y79000D01*
X388112Y50800D02*
X387350Y50800D01*
X430784Y128016D02*
X430784Y154432D01*
X442976Y166624D01*
X430784Y128016D02*
X430500Y127000D01*
X404368Y101600D02*
X404368Y79248D01*
X404368Y101600D02*
X428752Y125984D01*
X404368Y79248D02*
X403800Y79000D01*
X428752Y125984D02*
X430500Y127000D01*
X392176Y262128D02*
X392176Y292608D01*
X392176Y262128D02*
X386080Y256032D01*
X386080Y223520D01*
X442976Y166624D01*
X392176Y292608D02*
X393600Y293200D01*
X444500Y167800D02*
X442976Y166624D01*
X666496Y231648D02*
X666496Y239776D01*
X668528Y241808D01*
X668528Y258064D01*
X658132Y268460D01*
X558564Y268460D01*
X522224Y304800D01*
X520700Y306100D01*
X711200Y186944D02*
X711200Y120650D01*
X447264Y110236D02*
X430500Y127000D01*
X471775Y110236D02*
X487904Y126365D01*
X471775Y110236D02*
X447264Y110236D01*
X548640Y170688D02*
X577088Y170688D01*
X548640Y170688D02*
X544576Y166624D01*
X577088Y170688D02*
X578866Y171450D01*
X544576Y166624D02*
X543560Y165100D01*
X543560Y154021D01*
X532084Y142545D02*
X515904Y126365D01*
X532084Y142545D02*
X532084Y144910D01*
X538830Y151656D01*
X541195Y151656D01*
X543560Y154021D01*
X640080Y249936D02*
X652272Y249936D01*
X640080Y249936D02*
X629920Y260096D01*
X611632Y260096D01*
X597408Y245872D01*
X652272Y249936D02*
X654050Y248950D01*
X597408Y245872D02*
X596900Y244400D01*
X144272Y136144D02*
X130048Y136144D01*
X144272Y136144D02*
X160528Y152400D01*
X178816Y152400D01*
X191008Y164592D01*
X130048Y136144D02*
X128800Y135000D01*
X191008Y164592D02*
X192800Y165000D01*
X280416Y292608D02*
X316992Y292608D01*
X280416Y292608D02*
X207264Y219456D01*
X316992Y292608D02*
X317600Y293200D01*
X207264Y219456D02*
X206300Y218850D01*
X193040Y205232D02*
X193040Y166624D01*
X193040Y205232D02*
X205232Y217424D01*
X193040Y166624D02*
X192800Y165000D01*
X205232Y217424D02*
X206300Y218850D01*
X359664Y235712D02*
X359664Y239776D01*
X359664Y235712D02*
X272288Y148336D01*
X174752Y148336D01*
X162560Y136144D01*
X359664Y239776D02*
X361600Y240200D01*
X162560Y136144D02*
X160800Y135000D01*
X291360Y346930D02*
X276580Y361710D01*
X276580Y375840D01*
X359664Y282448D02*
X337312Y260096D01*
X335280Y260096D01*
X325120Y249936D01*
X325120Y223520D01*
X323088Y221488D01*
X312928Y221488D01*
X310896Y223520D01*
X310896Y262128D01*
X325120Y276352D01*
X325120Y308864D01*
X321056Y312928D01*
X272288Y312928D01*
X162560Y203200D01*
X162560Y166760D02*
X160800Y165000D01*
X162560Y166760D02*
X162560Y203200D01*
X359664Y282448D02*
X359664Y291264D01*
X361600Y293200D01*
X570150Y820290D02*
X568960Y820928D01*
X402336Y865632D02*
X402336Y885952D01*
X402336Y865632D02*
X405640Y862328D01*
X402336Y885952D02*
X401030Y886260D01*
X405640Y862328D02*
X407339Y861115D01*
X495808Y877824D02*
X501904Y877824D01*
X518160Y894080D01*
X534416Y894080D01*
X550672Y910336D01*
X495808Y877824D02*
X493780Y876490D01*
X550672Y910336D02*
X552450Y911320D01*
X477520Y859536D02*
X412074Y859536D01*
X489712Y871728D02*
X493776Y875792D01*
X489712Y871728D02*
X477520Y859536D01*
X412074Y859536D02*
X407339Y861115D01*
X493776Y875792D02*
X493780Y876490D01*
X489712Y871728D01*
X525700Y819150D02*
X569010Y819150D01*
X570150Y820290D01*
X525700Y844570D02*
X493780Y876490D01*
X525700Y844570D02*
X525700Y819150D01*
X623824Y314960D02*
X678688Y314960D01*
X743712Y379984D01*
X623824Y314960D02*
X622300Y314400D01*
X743712Y379984D02*
X743800Y381150D01*
X341376Y247904D02*
X341376Y241808D01*
X341376Y247904D02*
X372220Y278748D01*
X372220Y311944D01*
X384968Y324692D01*
X561752Y324692D01*
X587740Y298704D01*
X607568Y298704D01*
X621792Y312928D01*
X341376Y241808D02*
X339600Y240200D01*
X621792Y312928D02*
X622300Y314400D01*
X359664Y77216D02*
X359664Y52832D01*
X361696Y50800D01*
X359664Y77216D02*
X358200Y79000D01*
X361696Y50800D02*
X361950Y50800D01*
X355600Y48768D02*
X325120Y48768D01*
X355600Y48768D02*
X359664Y52832D01*
X325120Y48768D02*
X323850Y47150D01*
X359664Y52832D02*
X361950Y50800D01*
X329184Y113792D02*
X304800Y113792D01*
X329184Y113792D02*
X330200Y114300D01*
X260096Y81280D02*
X217424Y38608D01*
X215720Y36960D01*
X260096Y81280D02*
X259050Y82550D01*
X178816Y24384D02*
X115824Y87376D01*
X260096Y83312D02*
X260096Y113792D01*
X260096Y115824D01*
X260350Y117000D01*
X260096Y83312D02*
X259050Y82550D01*
X260096Y113792D02*
X304800Y113792D01*
X304800Y113000D01*
X260350Y117000D02*
X260096Y113792D01*
X357632Y87376D02*
X357632Y79248D01*
X357632Y87376D02*
X331216Y113792D01*
X357632Y79248D02*
X358200Y79000D01*
X331216Y113792D02*
X330200Y114300D01*
X636016Y434848D02*
X640080Y434848D01*
X636016Y434848D02*
X617728Y416560D01*
X587248Y416560D01*
X579120Y424688D01*
X579120Y430784D01*
X640080Y434848D02*
X641350Y436630D01*
X579120Y430784D02*
X577850Y431200D01*
X784352Y579120D02*
X784352Y610352D01*
X784352Y579120D02*
X678688Y473456D01*
X371856Y50800D02*
X361950Y50800D01*
X371856Y50800D02*
X382016Y40640D01*
X709188Y40640D01*
X766064Y97516D01*
X766064Y386080D01*
X678688Y473456D01*
X784352Y610352D02*
X806730Y632730D01*
X571110Y790890D02*
X570150Y791850D01*
X792270Y650820D02*
X793145Y649945D01*
X806730Y636360D01*
X806730Y632730D01*
X641862Y436630D02*
X641350Y436630D01*
X641862Y436630D02*
X678688Y473456D01*
X483200Y558800D02*
X476040Y565960D01*
X471148Y565960D01*
X579455Y607568D02*
X582107Y604916D01*
X465999Y605520D02*
X461796Y601317D01*
X465999Y605520D02*
X494756Y605520D01*
X496804Y607568D01*
X579455Y607568D01*
X471148Y565960D02*
X461796Y575312D01*
X461796Y601317D01*
X773740Y630540D02*
X793145Y649945D01*
X773740Y630540D02*
X666020Y630540D01*
X640396Y604916D02*
X582107Y604916D01*
X640396Y604916D02*
X666020Y630540D01*
X135549Y471228D02*
X135549Y417392D01*
X135549Y471228D02*
X136961Y472640D01*
X215720Y36960D02*
X203144Y24384D01*
X178816Y24384D01*
X785714Y692658D02*
X724797Y744524D01*
X806730Y692658D02*
X806730Y636360D01*
X806730Y692658D02*
X785714Y692658D01*
X135549Y417392D02*
X115824Y397667D01*
X115824Y87376D01*
X570150Y791850D02*
X650120Y791850D01*
X697446Y744524D02*
X724797Y744524D01*
X697446Y744524D02*
X650120Y791850D01*
X276352Y877824D02*
X254286Y877824D01*
X284480Y869696D02*
X298704Y855472D01*
X284480Y869696D02*
X276352Y877824D01*
X298704Y855472D02*
X298704Y839216D01*
X357632Y780288D01*
X369824Y780288D01*
X254286Y877824D02*
X245745Y872145D01*
X369824Y780288D02*
X371700Y781020D01*
X593390Y341550D02*
X596058Y314709D01*
X596900Y314400D01*
X593344Y434848D02*
X615696Y434848D01*
X593344Y434848D02*
X591312Y432816D01*
X615696Y434848D02*
X615950Y436630D01*
X591312Y432816D02*
X590550Y431200D01*
X668528Y857504D02*
X694944Y857504D01*
X668528Y857504D02*
X668270Y857250D01*
X694944Y857504D02*
X695700Y857780D01*
X310896Y81280D02*
X288544Y81280D01*
X310896Y81280D02*
X323088Y69088D01*
X288544Y81280D02*
X287050Y82550D01*
X323088Y69088D02*
X323850Y67150D01*
X329184Y140208D02*
X304800Y140208D01*
X304800Y141000D01*
X329184Y140208D02*
X330200Y139700D01*
X483616Y672592D02*
X518160Y672592D01*
X520192Y674624D01*
X483616Y672592D02*
X482600Y671580D01*
X520192Y674624D02*
X520700Y675800D01*
X136961Y524640D02*
X132961Y520640D01*
X132961Y506924D01*
X431200Y558800D02*
X447040Y558800D01*
X550672Y505968D02*
X550672Y483616D01*
X550672Y505968D02*
X542544Y514096D01*
X550672Y483616D02*
X552450Y483200D01*
X542544Y514096D02*
X542450Y514350D01*
X666496Y857504D02*
X666496Y863600D01*
X656336Y873760D01*
X656336Y936752D01*
X660400Y940816D01*
X660400Y944880D01*
X650240Y955040D01*
X605536Y955040D01*
X666496Y857504D02*
X668270Y857250D01*
X605536Y955040D02*
X604360Y955743D01*
X552704Y475488D02*
X593344Y434848D01*
X552704Y475488D02*
X552704Y481584D01*
X593344Y434848D02*
X590550Y431200D01*
X552704Y481584D02*
X552450Y483200D01*
X379984Y150368D02*
X341376Y150368D01*
X331216Y140208D01*
X379984Y150368D02*
X381000Y152000D01*
X331216Y140208D02*
X330200Y139700D01*
D49*
X132961Y506924D03*
X447040Y558800D03*
X284480Y869696D03*
D48*
X361950Y171050D02*
X381000Y152000D01*
X343730Y346930D02*
X344530Y347730D01*
X343730Y346930D02*
X320300Y346930D01*
X319800Y346930D01*
X320300Y346930D02*
X308745Y335375D01*
X252075Y335375D02*
X206300Y381150D01*
X252075Y335375D02*
X308745Y335375D01*
X361950Y196850D02*
X361950Y171050D01*
X586310Y348630D02*
X593390Y341550D01*
X584801Y350139D02*
X584801Y384258D01*
X584801Y350139D02*
X593390Y341550D01*
X373888Y916432D02*
X373888Y944880D01*
X373888Y916432D02*
X372474Y915011D01*
X372429Y944881D02*
X373888Y944880D01*
X577088Y158496D02*
X577088Y140208D01*
X556768Y119888D01*
X556768Y105664D01*
X544576Y93472D01*
X577088Y158496D02*
X578866Y158750D01*
X544576Y93472D02*
X544560Y92280D01*
X457200Y128016D02*
X457200Y174752D01*
X445008Y186944D01*
X457200Y128016D02*
X458500Y127000D01*
X445008Y186944D02*
X444500Y187800D01*
X514096Y191008D02*
X514096Y217424D01*
X491744Y239776D01*
X483616Y239776D01*
X514096Y191008D02*
X515650Y190500D01*
X483616Y239776D02*
X482600Y241300D01*
X595376Y217424D02*
X621792Y243840D01*
X595376Y217424D02*
X514096Y217424D01*
X621792Y243840D02*
X622300Y244400D01*
D49*
X400380Y192500D03*
D48*
X396030Y196850D02*
X387350Y196850D01*
X396030Y196850D02*
X400380Y192500D01*
X579120Y483616D02*
X579120Y522224D01*
X579120Y483616D02*
X577850Y483200D01*
X578134Y522224D02*
X591173Y543656D01*
X591312Y544047D01*
X566928Y430784D02*
X566928Y426580D01*
X566928Y430784D02*
X565150Y431200D01*
X573024Y522224D02*
X578134Y522224D01*
X573024Y522224D02*
X570992Y524256D01*
X538480Y524256D01*
X526288Y512064D01*
X125389Y479844D02*
X125389Y473748D01*
X124261Y472640D01*
X550846Y646176D02*
X551940Y646000D01*
X521847Y451022D02*
X526288Y446820D01*
X556502Y444740D02*
X557990Y443252D01*
X565422Y426580D02*
X566928Y426580D01*
X551940Y644620D02*
X551940Y646000D01*
X551940Y644620D02*
X560540Y636020D01*
D49*
X560540Y636020D03*
D48*
X557990Y443252D02*
X557990Y438360D01*
X565150Y431200D01*
X133517Y487972D02*
X125389Y479844D01*
X133517Y487972D02*
X139613Y487972D01*
X147741Y479844D01*
X147741Y473748D01*
X125389Y479844D02*
X124261Y472640D01*
X147741Y473748D02*
X149661Y472640D01*
X148191Y456177D02*
X148191Y419410D01*
X149661Y457647D02*
X149661Y472640D01*
X149661Y457647D02*
X148191Y456177D01*
X148191Y419410D02*
X173360Y394240D01*
X316091Y368955D02*
X322929Y368955D01*
X268778Y386550D02*
X261088Y394240D01*
X268778Y386550D02*
X298496Y386550D01*
X316091Y368955D01*
X261088Y394240D02*
X173360Y394240D01*
X322929Y368955D02*
X345078Y391104D01*
X526288Y446820D02*
X526288Y512064D01*
X276499Y522836D02*
X276499Y500078D01*
X276638Y499939D01*
X309643Y478194D02*
X344044Y478194D01*
X345078Y477161D02*
X345078Y391104D01*
X345078Y477161D02*
X344044Y478194D01*
X345078Y477161D02*
X362261Y477161D01*
X368573Y477161D01*
X368750Y477338D01*
X391511Y477338D01*
X424040Y538940D02*
X431200Y546100D01*
X367262Y482162D02*
X362261Y477161D01*
X388722Y538940D02*
X424040Y538940D01*
X388722Y538940D02*
X367262Y517480D01*
X367262Y482162D01*
X391511Y477338D02*
X401912Y466936D01*
X419016Y466936D01*
X424688Y461264D01*
X424688Y415101D01*
X498239Y341550D01*
X565390Y341550D01*
X564801Y384258D02*
X565150Y384607D01*
X565150Y431200D01*
X564801Y384258D02*
X565390Y383669D01*
X565390Y341550D01*
X578134Y522224D02*
X579120Y522224D01*
X287899Y499939D02*
X276638Y499939D01*
X287899Y499939D02*
X309643Y478194D01*
X521847Y451022D02*
X528129Y444740D01*
X556502Y444740D01*
X197607Y526580D02*
X176189Y526580D01*
X197607Y526580D02*
X197300Y518438D01*
X176189Y526580D02*
X175061Y524640D01*
X174157Y524548D02*
X163997Y524548D01*
X162361Y524640D01*
X174157Y524548D02*
X175061Y524640D01*
X161361Y511048D02*
X149807Y499494D01*
X161361Y511048D02*
X161361Y523640D01*
X162361Y524640D01*
X149807Y499494D02*
X95388Y499494D01*
X76731Y518151D01*
X76731Y520750D01*
X232081Y507519D02*
X239860Y488738D01*
X239860Y463674D01*
X245989Y457544D01*
X262245Y457544D01*
X276580Y443209D01*
X276580Y395840D01*
X221161Y518438D02*
X197300Y518438D01*
X221161Y518438D02*
X222169Y517431D01*
X232081Y507519D01*
X398070Y440400D02*
X414670Y457000D01*
X398070Y440400D02*
X379200Y440400D01*
X416560Y900176D02*
X416560Y942848D01*
X402249Y966711D02*
X392698Y966711D01*
X389127Y970281D01*
X372429Y970281D01*
X402249Y966711D02*
X402249Y957159D01*
X416560Y942848D01*
X416560Y900176D02*
X447186Y869550D01*
X450850Y869550D01*
X749808Y611632D02*
X750800Y610000D01*
X751840Y611632D02*
X770128Y611632D01*
X770800Y610000D01*
X751840Y611632D02*
X750800Y610000D01*
X770800Y610000D02*
X710560Y549760D01*
X710560Y531223D01*
X709072Y529735D01*
X648607Y543656D02*
X641173Y543656D01*
X648607Y543656D02*
X662528Y529735D01*
X709072Y529735D01*
X719328Y652272D02*
X686816Y652272D01*
X719328Y652272D02*
X721360Y650240D01*
X686816Y652272D02*
X684850Y652588D01*
X721360Y650240D02*
X723362Y650113D01*
X725424Y652272D02*
X762000Y652272D01*
X725424Y652272D02*
X723392Y650240D01*
X762000Y652272D02*
X763270Y654050D01*
X723392Y650240D02*
X723362Y650113D01*
X642112Y654304D02*
X642112Y666496D01*
X641689Y667292D01*
X641350Y667930D01*
X642112Y654304D02*
X684784Y654304D01*
X684850Y652588D01*
X637801Y671180D02*
X585360Y671180D01*
X637801Y671180D02*
X641689Y667292D01*
X602749Y653791D02*
X602749Y624127D01*
X602749Y653791D02*
X585360Y671180D01*
X763270Y654050D02*
X788480Y679260D01*
X792270Y679260D01*
X174752Y851408D02*
X174600Y853043D01*
X174600Y851900D02*
X174752Y851408D01*
X181140Y867701D01*
X174752Y851408D02*
X174200Y850000D01*
X181140Y867701D02*
X221206Y867701D01*
X217305Y871602D01*
X217305Y872145D01*
X227423Y590350D02*
X183386Y590350D01*
X177988Y595748D01*
X164948Y595748D01*
X149200Y580000D01*
X94909Y469684D02*
X78653Y469684D01*
X94909Y469684D02*
X96941Y471716D01*
X78653Y469684D02*
X76731Y468410D01*
X96941Y471716D02*
X98861Y472640D01*
X76621Y467652D02*
X70525Y473748D01*
X76731Y468410D02*
X76621Y467652D01*
D49*
X86181Y549260D03*
D48*
X323457Y592677D02*
X334600Y603820D01*
X334600Y636016D02*
X334600Y636957D01*
X334600Y636016D02*
X334600Y603820D01*
X323457Y592677D02*
X323457Y572151D01*
X335280Y636016D02*
X335280Y638048D01*
X334600Y638100D01*
X334600Y636016D02*
X335280Y636016D01*
X335280Y638048D02*
X334200Y640000D01*
X76731Y468410D02*
X70525Y473748D01*
X86181Y549260D02*
X96041Y559120D01*
X263261Y553326D02*
X263261Y535850D01*
X287156Y535850D01*
X323457Y572151D01*
X76731Y468410D02*
X50691Y494449D01*
X50691Y495257D01*
X50691Y521019D01*
X51756Y412250D02*
X67701Y412250D01*
X73112Y406839D01*
X92900Y406839D01*
X102480Y416419D01*
X51756Y494192D02*
X50691Y495257D01*
X51756Y419978D02*
X51756Y412250D01*
X51756Y483758D02*
X51756Y494192D01*
X42176Y429558D02*
X51756Y419978D01*
X42176Y429558D02*
X42176Y474178D01*
X51756Y483758D01*
X96041Y559120D02*
X257467Y559120D01*
X263261Y553326D01*
X402336Y625856D02*
X402336Y638048D01*
X426720Y662432D01*
X402336Y625856D02*
X400080Y625250D01*
X426720Y662432D02*
X428150Y663480D01*
X694944Y887984D02*
X723392Y859536D01*
X724140Y857780D01*
X694944Y887984D02*
X695800Y890000D01*
X309200Y636957D02*
X308562Y636319D01*
X308864Y636016D02*
X308864Y638048D01*
X308562Y636319D02*
X308864Y636016D01*
X308864Y638048D02*
X309200Y640000D01*
X308864Y640080D02*
X308864Y650240D01*
X237744Y721360D01*
X308864Y640080D02*
X309200Y640000D01*
X237744Y721360D02*
X237276Y722116D01*
X402336Y662432D02*
X402336Y658368D01*
X402336Y662432D02*
X434848Y694944D01*
X434848Y717296D02*
X434848Y735584D01*
X434848Y717296D02*
X434848Y694944D01*
X434848Y735584D02*
X414528Y755904D01*
X402336Y658368D02*
X400080Y657450D01*
X414430Y755680D02*
X414528Y755904D01*
X497840Y631952D02*
X505968Y631952D01*
X495808Y629920D02*
X476536Y610648D01*
X495808Y629920D02*
X497840Y631952D01*
X476536Y610648D02*
X453992Y610648D01*
X449628Y606284D01*
X449628Y583740D01*
X438912Y573024D01*
X505968Y631952D02*
X507940Y633270D01*
X461264Y717296D02*
X434848Y717296D01*
X461264Y717296D02*
X465328Y713232D01*
X465328Y660400D01*
X495808Y629920D01*
X438912Y573024D02*
X432724Y573024D01*
X431200Y571500D01*
X373888Y863600D02*
X373888Y885952D01*
X372590Y886260D01*
X373888Y863600D02*
X374650Y863600D01*
X615696Y694944D02*
X640080Y694944D01*
X615696Y694944D02*
X605536Y684784D01*
X640080Y694944D02*
X641350Y696370D01*
X605536Y684784D02*
X604410Y683880D01*
X684850Y702588D02*
X686816Y703072D01*
X684850Y729294D02*
X684919Y729425D01*
X684784Y703072D02*
X684850Y702588D01*
X721360Y699008D02*
X721360Y680720D01*
X721360Y676656D01*
X721360Y699008D02*
X717296Y703072D01*
X721360Y676656D02*
X723362Y675513D01*
X721360Y680720D02*
X762000Y680720D01*
X763270Y679450D01*
X723362Y675513D02*
X721360Y680720D01*
X642112Y696976D02*
X641350Y696370D01*
X684850Y702588D02*
X686923Y702588D01*
X716812Y702588D01*
X717296Y703072D01*
X684919Y702657D02*
X684850Y702588D01*
X684919Y702657D02*
X684919Y729425D01*
X641350Y728105D02*
X641350Y696370D01*
X641350Y728105D02*
X643046Y729801D01*
X659711Y729801D01*
X686923Y702588D01*
X648645Y798567D02*
X638476Y808736D01*
X453136Y829056D02*
X416560Y829056D01*
X410464Y822960D01*
X371856Y822960D01*
X345440Y849376D01*
X345440Y859536D01*
X313929Y891047D01*
X301737Y891047D01*
X284480Y908304D01*
X283800Y906957D01*
X283800Y908100D02*
X284480Y908304D01*
X284200Y910000D01*
X665777Y798567D02*
X684919Y779425D01*
X665777Y798567D02*
X648645Y798567D01*
X473456Y808736D02*
X453136Y829056D01*
X473456Y808736D02*
X638476Y808736D01*
X186944Y67056D02*
X186944Y38608D01*
X186944Y67056D02*
X184150Y69850D01*
X186944Y38608D02*
X187720Y36960D01*
X396240Y554736D02*
X396240Y573024D01*
X388112Y581152D01*
X396240Y554736D02*
X397920Y552480D01*
X388112Y581152D02*
X387350Y581250D01*
X368906Y554736D02*
X353920Y539750D01*
X368906Y554736D02*
X396240Y554736D01*
X443252Y551640D02*
X445084Y549808D01*
X445084Y542392D01*
X443252Y540560D01*
X438360Y540560D01*
X431200Y533400D01*
X400030Y551640D02*
X397920Y552480D01*
X400030Y551640D02*
X443252Y551640D01*
X81280Y658720D02*
X81280Y668528D01*
X78770Y669819D01*
X346486Y651055D02*
X346486Y557452D01*
X346486Y651055D02*
X341290Y656250D01*
X83109Y656891D02*
X81280Y658720D01*
X346486Y557452D02*
X353920Y550018D01*
X353920Y539750D01*
X81280Y651410D02*
X53310Y623440D01*
X81280Y651410D02*
X81280Y658720D01*
X83312Y656336D02*
X221488Y656336D01*
X223520Y658368D01*
X245872Y658368D01*
X280416Y623824D01*
X312928Y623824D01*
X323088Y633984D01*
X323088Y650240D01*
X329184Y656336D01*
X83312Y656336D02*
X83109Y656891D01*
X341290Y656250D02*
X341376Y656336D01*
X341204Y656336D02*
X329184Y656336D01*
X341204Y656336D02*
X341290Y656250D01*
X193438Y491587D02*
X196571Y488454D01*
X196571Y464228D01*
X200317Y467974D01*
X224152Y467974D01*
X174157Y473748D02*
X174157Y479844D01*
X161965Y492036D01*
X174157Y473748D02*
X175061Y472640D01*
D49*
X161965Y492036D03*
D48*
X196571Y451130D02*
X196571Y438828D01*
X186991Y460710D02*
X175061Y472640D01*
X186991Y460710D02*
X186991Y456136D01*
X188478Y454648D01*
X193053Y454648D01*
X196571Y451130D01*
X196571Y438828D02*
X198153Y437245D01*
X198153Y412530D01*
X203482Y442574D02*
X224152Y442574D01*
X203482Y442574D02*
X198153Y437245D01*
X98973Y492036D02*
X78653Y492036D01*
X98973Y492036D02*
X111165Y479844D01*
X111165Y473748D01*
X78653Y492036D02*
X76731Y492310D01*
X111165Y473748D02*
X111561Y472640D01*
X86781Y441236D02*
X78653Y441236D01*
X86781Y441236D02*
X111165Y465620D01*
X111165Y471716D01*
X78653Y441236D02*
X76731Y439970D01*
X111165Y471716D02*
X111561Y472640D01*
X50691Y471019D02*
X50691Y466009D01*
X76731Y439970D01*
X54076Y439970D01*
X51756Y437650D01*
X77080Y439620D02*
X77080Y416419D01*
X77080Y439620D02*
X76731Y439970D01*
X402336Y916432D02*
X402336Y940816D01*
X402336Y916432D02*
X400914Y915011D01*
X402336Y940816D02*
X402249Y941311D01*
M02*
