G04 EAGLE Gerber X2 export*
%TF.Part,Single*%
%TF.FileFunction,Profile,NP*%
%TF.FilePolarity,Positive*%
%TF.GenerationSoftware,Autodesk,EAGLE,9.2.2*%
%TF.CreationDate,2019-01-20T16:46:20Z*%
G75*
%MOMM*%
%FSLAX34Y34*%
%LPD*%
%IN*%
%AMOC8*
5,1,8,0,0,1.08239X$1,22.5*%
G01*
%ADD10C,0.254000*%


D10*
X33000Y820000D02*
X33100Y50800D01*
X50000Y38900D01*
X50000Y30000D01*
X300000Y0D01*
X470000Y0D01*
X470000Y5000D01*
X480000Y5000D01*
X480000Y0D01*
X650000Y0D01*
X900000Y30000D01*
X900000Y38900D01*
X917000Y50800D01*
X917000Y820000D01*
X843000Y820000D01*
X843000Y990000D01*
X750000Y1000000D01*
X525000Y1000000D01*
X525000Y900000D01*
X480000Y900000D01*
X480000Y895000D01*
X470000Y895000D01*
X470000Y900000D01*
X425000Y900000D01*
X425000Y1000000D01*
X200000Y1000000D01*
X107000Y990000D01*
X107000Y820000D01*
X33000Y820000D01*
X304200Y744719D02*
X304263Y744161D01*
X304388Y743614D01*
X304573Y743084D01*
X304817Y742578D01*
X305116Y742102D01*
X305466Y741663D01*
X305863Y741266D01*
X306302Y740916D01*
X306778Y740617D01*
X307284Y740373D01*
X307814Y740188D01*
X308361Y740063D01*
X308919Y740000D01*
X309481Y740000D01*
X310039Y740063D01*
X310586Y740188D01*
X311116Y740373D01*
X311622Y740617D01*
X312098Y740916D01*
X312537Y741266D01*
X312934Y741663D01*
X313284Y742102D01*
X313583Y742578D01*
X313827Y743084D01*
X314012Y743614D01*
X314137Y744161D01*
X314200Y744719D01*
X314200Y745281D01*
X314137Y745839D01*
X314012Y746386D01*
X313827Y746916D01*
X313583Y747422D01*
X313284Y747898D01*
X312934Y748337D01*
X312537Y748734D01*
X312098Y749084D01*
X311622Y749383D01*
X311116Y749627D01*
X310586Y749812D01*
X310039Y749937D01*
X309481Y750000D01*
X308919Y750000D01*
X308361Y749937D01*
X307814Y749812D01*
X307284Y749627D01*
X306778Y749383D01*
X306302Y749084D01*
X305863Y748734D01*
X305466Y748337D01*
X305116Y747898D01*
X304817Y747422D01*
X304573Y746916D01*
X304388Y746386D01*
X304263Y745839D01*
X304200Y745281D01*
X304200Y744719D01*
X127800Y211636D02*
X127876Y212704D01*
X128029Y213765D01*
X128257Y214812D01*
X128559Y215840D01*
X128933Y216844D01*
X129378Y217819D01*
X129892Y218759D01*
X130471Y219660D01*
X131113Y220518D01*
X131815Y221328D01*
X132572Y222085D01*
X133382Y222787D01*
X134240Y223429D01*
X135141Y224008D01*
X136081Y224522D01*
X137056Y224967D01*
X138060Y225341D01*
X139088Y225643D01*
X140135Y225871D01*
X141196Y226024D01*
X142264Y226100D01*
X143336Y226100D01*
X144404Y226024D01*
X145465Y225871D01*
X146512Y225643D01*
X147540Y225341D01*
X148544Y224967D01*
X149519Y224522D01*
X150459Y224008D01*
X151360Y223429D01*
X152218Y222787D01*
X153028Y222085D01*
X153785Y221328D01*
X154487Y220518D01*
X155129Y219660D01*
X155708Y218759D01*
X156222Y217819D01*
X156667Y216844D01*
X157041Y215840D01*
X157343Y214812D01*
X157571Y213765D01*
X157724Y212704D01*
X157800Y211636D01*
X157800Y210564D01*
X157724Y209496D01*
X157571Y208435D01*
X157343Y207388D01*
X157041Y206360D01*
X156667Y205356D01*
X156222Y204381D01*
X155708Y203441D01*
X155129Y202540D01*
X154487Y201682D01*
X153785Y200872D01*
X153028Y200115D01*
X152218Y199413D01*
X151360Y198771D01*
X150459Y198192D01*
X149519Y197678D01*
X148544Y197233D01*
X147540Y196859D01*
X146512Y196557D01*
X145465Y196329D01*
X144404Y196176D01*
X143336Y196100D01*
X142264Y196100D01*
X141196Y196176D01*
X140135Y196329D01*
X139088Y196557D01*
X138060Y196859D01*
X137056Y197233D01*
X136081Y197678D01*
X135141Y198192D01*
X134240Y198771D01*
X133382Y199413D01*
X132572Y200115D01*
X131815Y200872D01*
X131113Y201682D01*
X130471Y202540D01*
X129892Y203441D01*
X129378Y204381D01*
X128933Y205356D01*
X128559Y206360D01*
X128257Y207388D01*
X128029Y208435D01*
X127876Y209496D01*
X127800Y210564D01*
X127800Y211636D01*
X127800Y389436D02*
X127876Y390504D01*
X128029Y391565D01*
X128257Y392612D01*
X128559Y393640D01*
X128933Y394644D01*
X129378Y395619D01*
X129892Y396559D01*
X130471Y397460D01*
X131113Y398318D01*
X131815Y399128D01*
X132572Y399885D01*
X133382Y400587D01*
X134240Y401229D01*
X135141Y401808D01*
X136081Y402322D01*
X137056Y402767D01*
X138060Y403141D01*
X139088Y403443D01*
X140135Y403671D01*
X141196Y403824D01*
X142264Y403900D01*
X143336Y403900D01*
X144404Y403824D01*
X145465Y403671D01*
X146512Y403443D01*
X147540Y403141D01*
X148544Y402767D01*
X149519Y402322D01*
X150459Y401808D01*
X151360Y401229D01*
X152218Y400587D01*
X153028Y399885D01*
X153785Y399128D01*
X154487Y398318D01*
X155129Y397460D01*
X155708Y396559D01*
X156222Y395619D01*
X156667Y394644D01*
X157041Y393640D01*
X157343Y392612D01*
X157571Y391565D01*
X157724Y390504D01*
X157800Y389436D01*
X157800Y388364D01*
X157724Y387296D01*
X157571Y386235D01*
X157343Y385188D01*
X157041Y384160D01*
X156667Y383156D01*
X156222Y382181D01*
X155708Y381241D01*
X155129Y380340D01*
X154487Y379482D01*
X153785Y378672D01*
X153028Y377915D01*
X152218Y377213D01*
X151360Y376571D01*
X150459Y375992D01*
X149519Y375478D01*
X148544Y375033D01*
X147540Y374659D01*
X146512Y374357D01*
X145465Y374129D01*
X144404Y373976D01*
X143336Y373900D01*
X142264Y373900D01*
X141196Y373976D01*
X140135Y374129D01*
X139088Y374357D01*
X138060Y374659D01*
X137056Y375033D01*
X136081Y375478D01*
X135141Y375992D01*
X134240Y376571D01*
X133382Y377213D01*
X132572Y377915D01*
X131815Y378672D01*
X131113Y379482D01*
X130471Y380340D01*
X129892Y381241D01*
X129378Y382181D01*
X128933Y383156D01*
X128559Y384160D01*
X128257Y385188D01*
X128029Y386235D01*
X127876Y387296D01*
X127800Y388364D01*
X127800Y389436D01*
X304200Y879719D02*
X304263Y879161D01*
X304388Y878614D01*
X304573Y878084D01*
X304817Y877578D01*
X305116Y877102D01*
X305466Y876663D01*
X305863Y876266D01*
X306302Y875916D01*
X306778Y875617D01*
X307284Y875373D01*
X307814Y875188D01*
X308361Y875063D01*
X308919Y875000D01*
X309481Y875000D01*
X310039Y875063D01*
X310586Y875188D01*
X311116Y875373D01*
X311622Y875617D01*
X312098Y875916D01*
X312537Y876266D01*
X312934Y876663D01*
X313284Y877102D01*
X313583Y877578D01*
X313827Y878084D01*
X314012Y878614D01*
X314137Y879161D01*
X314200Y879719D01*
X314200Y880281D01*
X314137Y880839D01*
X314012Y881386D01*
X313827Y881916D01*
X313583Y882422D01*
X313284Y882898D01*
X312934Y883337D01*
X312537Y883734D01*
X312098Y884084D01*
X311622Y884383D01*
X311116Y884627D01*
X310586Y884812D01*
X310039Y884937D01*
X309481Y885000D01*
X308919Y885000D01*
X308361Y884937D01*
X307814Y884812D01*
X307284Y884627D01*
X306778Y884383D01*
X306302Y884084D01*
X305863Y883734D01*
X305466Y883337D01*
X305116Y882898D01*
X304817Y882422D01*
X304573Y881916D01*
X304388Y881386D01*
X304263Y880839D01*
X304200Y880281D01*
X304200Y879719D01*
X154200Y880281D02*
X154137Y880839D01*
X154012Y881386D01*
X153827Y881916D01*
X153583Y882422D01*
X153284Y882898D01*
X152934Y883337D01*
X152537Y883734D01*
X152098Y884084D01*
X151622Y884383D01*
X151116Y884627D01*
X150586Y884812D01*
X150039Y884937D01*
X149481Y885000D01*
X148919Y885000D01*
X148361Y884937D01*
X147814Y884812D01*
X147284Y884627D01*
X146778Y884383D01*
X146302Y884084D01*
X145863Y883734D01*
X145466Y883337D01*
X145116Y882898D01*
X144817Y882422D01*
X144573Y881916D01*
X144388Y881386D01*
X144263Y880839D01*
X144200Y880281D01*
X144200Y879719D01*
X144263Y879161D01*
X144388Y878614D01*
X144573Y878084D01*
X144817Y877578D01*
X145116Y877102D01*
X145466Y876663D01*
X145863Y876266D01*
X146302Y875916D01*
X146778Y875617D01*
X147284Y875373D01*
X147814Y875188D01*
X148361Y875063D01*
X148919Y875000D01*
X149481Y875000D01*
X150039Y875063D01*
X150586Y875188D01*
X151116Y875373D01*
X151622Y875617D01*
X152098Y875916D01*
X152537Y876266D01*
X152934Y876663D01*
X153284Y877102D01*
X153583Y877578D01*
X153827Y878084D01*
X154012Y878614D01*
X154137Y879161D01*
X154200Y879719D01*
X154200Y880281D01*
X822300Y388364D02*
X822224Y387296D01*
X822071Y386235D01*
X821843Y385188D01*
X821541Y384160D01*
X821167Y383156D01*
X820722Y382181D01*
X820208Y381241D01*
X819629Y380340D01*
X818987Y379482D01*
X818285Y378672D01*
X817528Y377915D01*
X816718Y377213D01*
X815860Y376571D01*
X814959Y375992D01*
X814019Y375478D01*
X813044Y375033D01*
X812040Y374659D01*
X811012Y374357D01*
X809965Y374129D01*
X808904Y373976D01*
X807836Y373900D01*
X806764Y373900D01*
X805696Y373976D01*
X804635Y374129D01*
X803588Y374357D01*
X802560Y374659D01*
X801556Y375033D01*
X800581Y375478D01*
X799641Y375992D01*
X798740Y376571D01*
X797882Y377213D01*
X797072Y377915D01*
X796315Y378672D01*
X795613Y379482D01*
X794971Y380340D01*
X794392Y381241D01*
X793878Y382181D01*
X793433Y383156D01*
X793059Y384160D01*
X792757Y385188D01*
X792529Y386235D01*
X792376Y387296D01*
X792300Y388364D01*
X792300Y389436D01*
X792376Y390504D01*
X792529Y391565D01*
X792757Y392612D01*
X793059Y393640D01*
X793433Y394644D01*
X793878Y395619D01*
X794392Y396559D01*
X794971Y397460D01*
X795613Y398318D01*
X796315Y399128D01*
X797072Y399885D01*
X797882Y400587D01*
X798740Y401229D01*
X799641Y401808D01*
X800581Y402322D01*
X801556Y402767D01*
X802560Y403141D01*
X803588Y403443D01*
X804635Y403671D01*
X805696Y403824D01*
X806764Y403900D01*
X807836Y403900D01*
X808904Y403824D01*
X809965Y403671D01*
X811012Y403443D01*
X812040Y403141D01*
X813044Y402767D01*
X814019Y402322D01*
X814959Y401808D01*
X815860Y401229D01*
X816718Y400587D01*
X817528Y399885D01*
X818285Y399128D01*
X818987Y398318D01*
X819629Y397460D01*
X820208Y396559D01*
X820722Y395619D01*
X821167Y394644D01*
X821541Y393640D01*
X821843Y392612D01*
X822071Y391565D01*
X822224Y390504D01*
X822300Y389436D01*
X822300Y388364D01*
X822300Y210564D02*
X822224Y209496D01*
X822071Y208435D01*
X821843Y207388D01*
X821541Y206360D01*
X821167Y205356D01*
X820722Y204381D01*
X820208Y203441D01*
X819629Y202540D01*
X818987Y201682D01*
X818285Y200872D01*
X817528Y200115D01*
X816718Y199413D01*
X815860Y198771D01*
X814959Y198192D01*
X814019Y197678D01*
X813044Y197233D01*
X812040Y196859D01*
X811012Y196557D01*
X809965Y196329D01*
X808904Y196176D01*
X807836Y196100D01*
X806764Y196100D01*
X805696Y196176D01*
X804635Y196329D01*
X803588Y196557D01*
X802560Y196859D01*
X801556Y197233D01*
X800581Y197678D01*
X799641Y198192D01*
X798740Y198771D01*
X797882Y199413D01*
X797072Y200115D01*
X796315Y200872D01*
X795613Y201682D01*
X794971Y202540D01*
X794392Y203441D01*
X793878Y204381D01*
X793433Y205356D01*
X793059Y206360D01*
X792757Y207388D01*
X792529Y208435D01*
X792376Y209496D01*
X792300Y210564D01*
X792300Y211636D01*
X792376Y212704D01*
X792529Y213765D01*
X792757Y214812D01*
X793059Y215840D01*
X793433Y216844D01*
X793878Y217819D01*
X794392Y218759D01*
X794971Y219660D01*
X795613Y220518D01*
X796315Y221328D01*
X797072Y222085D01*
X797882Y222787D01*
X798740Y223429D01*
X799641Y224008D01*
X800581Y224522D01*
X801556Y224967D01*
X802560Y225341D01*
X803588Y225643D01*
X804635Y225871D01*
X805696Y226024D01*
X806764Y226100D01*
X807836Y226100D01*
X808904Y226024D01*
X809965Y225871D01*
X811012Y225643D01*
X812040Y225341D01*
X813044Y224967D01*
X814019Y224522D01*
X814959Y224008D01*
X815860Y223429D01*
X816718Y222787D01*
X817528Y222085D01*
X818285Y221328D01*
X818987Y220518D01*
X819629Y219660D01*
X820208Y218759D01*
X820722Y217819D01*
X821167Y216844D01*
X821541Y215840D01*
X821843Y214812D01*
X822071Y213765D01*
X822224Y212704D01*
X822300Y211636D01*
X822300Y210564D01*
X720519Y825000D02*
X719961Y824937D01*
X719414Y824812D01*
X718884Y824627D01*
X718378Y824383D01*
X717902Y824084D01*
X717463Y823734D01*
X717066Y823337D01*
X716716Y822898D01*
X716417Y822422D01*
X716173Y821916D01*
X715988Y821386D01*
X715863Y820839D01*
X715800Y820281D01*
X715800Y819719D01*
X715863Y819161D01*
X715988Y818614D01*
X716173Y818084D01*
X716417Y817578D01*
X716716Y817102D01*
X717066Y816663D01*
X717463Y816266D01*
X717902Y815916D01*
X718378Y815617D01*
X718884Y815373D01*
X719414Y815188D01*
X719961Y815063D01*
X720519Y815000D01*
X721081Y815000D01*
X721639Y815063D01*
X722186Y815188D01*
X722716Y815373D01*
X723222Y815617D01*
X723698Y815916D01*
X724137Y816266D01*
X724534Y816663D01*
X724884Y817102D01*
X725183Y817578D01*
X725427Y818084D01*
X725612Y818614D01*
X725737Y819161D01*
X725800Y819719D01*
X725800Y820281D01*
X725737Y820839D01*
X725612Y821386D01*
X725427Y821916D01*
X725183Y822422D01*
X724884Y822898D01*
X724534Y823337D01*
X724137Y823734D01*
X723698Y824084D01*
X723222Y824383D01*
X722716Y824627D01*
X722186Y824812D01*
X721639Y824937D01*
X721081Y825000D01*
X720519Y825000D01*
X314200Y465681D02*
X314137Y466239D01*
X314012Y466786D01*
X313827Y467316D01*
X313583Y467822D01*
X313284Y468298D01*
X312934Y468737D01*
X312537Y469134D01*
X312098Y469484D01*
X311622Y469783D01*
X311116Y470027D01*
X310586Y470212D01*
X310039Y470337D01*
X309481Y470400D01*
X308919Y470400D01*
X308361Y470337D01*
X307814Y470212D01*
X307284Y470027D01*
X306778Y469783D01*
X306302Y469484D01*
X305863Y469134D01*
X305466Y468737D01*
X305116Y468298D01*
X304817Y467822D01*
X304573Y467316D01*
X304388Y466786D01*
X304263Y466239D01*
X304200Y465681D01*
X304200Y465119D01*
X304263Y464561D01*
X304388Y464014D01*
X304573Y463484D01*
X304817Y462978D01*
X305116Y462502D01*
X305466Y462063D01*
X305863Y461666D01*
X306302Y461316D01*
X306778Y461017D01*
X307284Y460773D01*
X307814Y460588D01*
X308361Y460463D01*
X308919Y460400D01*
X309481Y460400D01*
X310039Y460463D01*
X310586Y460588D01*
X311116Y460773D01*
X311622Y461017D01*
X312098Y461316D01*
X312537Y461666D01*
X312934Y462063D01*
X313284Y462502D01*
X313583Y462978D01*
X313827Y463484D01*
X314012Y464014D01*
X314137Y464561D01*
X314200Y465119D01*
X314200Y465681D01*
X154200Y745281D02*
X154137Y745839D01*
X154012Y746386D01*
X153827Y746916D01*
X153583Y747422D01*
X153284Y747898D01*
X152934Y748337D01*
X152537Y748734D01*
X152098Y749084D01*
X151622Y749383D01*
X151116Y749627D01*
X150586Y749812D01*
X150039Y749937D01*
X149481Y750000D01*
X148919Y750000D01*
X148361Y749937D01*
X147814Y749812D01*
X147284Y749627D01*
X146778Y749383D01*
X146302Y749084D01*
X145863Y748734D01*
X145466Y748337D01*
X145116Y747898D01*
X144817Y747422D01*
X144573Y746916D01*
X144388Y746386D01*
X144263Y745839D01*
X144200Y745281D01*
X144200Y744719D01*
X144263Y744161D01*
X144388Y743614D01*
X144573Y743084D01*
X144817Y742578D01*
X145116Y742102D01*
X145466Y741663D01*
X145863Y741266D01*
X146302Y740916D01*
X146778Y740617D01*
X147284Y740373D01*
X147814Y740188D01*
X148361Y740063D01*
X148919Y740000D01*
X149481Y740000D01*
X150039Y740063D01*
X150586Y740188D01*
X151116Y740373D01*
X151622Y740617D01*
X152098Y740916D01*
X152537Y741266D01*
X152934Y741663D01*
X153284Y742102D01*
X153583Y742578D01*
X153827Y743084D01*
X154012Y743614D01*
X154137Y744161D01*
X154200Y744719D01*
X154200Y745281D01*
X725800Y500281D02*
X725737Y500839D01*
X725612Y501386D01*
X725427Y501916D01*
X725183Y502422D01*
X724884Y502898D01*
X724534Y503337D01*
X724137Y503734D01*
X723698Y504084D01*
X723222Y504383D01*
X722716Y504627D01*
X722186Y504812D01*
X721639Y504937D01*
X721081Y505000D01*
X720519Y505000D01*
X719961Y504937D01*
X719414Y504812D01*
X718884Y504627D01*
X718378Y504383D01*
X717902Y504084D01*
X717463Y503734D01*
X717066Y503337D01*
X716716Y502898D01*
X716417Y502422D01*
X716173Y501916D01*
X715988Y501386D01*
X715863Y500839D01*
X715800Y500281D01*
X715800Y499719D01*
X715863Y499161D01*
X715988Y498614D01*
X716173Y498084D01*
X716417Y497578D01*
X716716Y497102D01*
X717066Y496663D01*
X717463Y496266D01*
X717902Y495916D01*
X718378Y495617D01*
X718884Y495373D01*
X719414Y495188D01*
X719961Y495063D01*
X720519Y495000D01*
X721081Y495000D01*
X721639Y495063D01*
X722186Y495188D01*
X722716Y495373D01*
X723222Y495617D01*
X723698Y495916D01*
X724137Y496266D01*
X724534Y496663D01*
X724884Y497102D01*
X725183Y497578D01*
X725427Y498084D01*
X725612Y498614D01*
X725737Y499161D01*
X725800Y499719D01*
X725800Y500281D01*
X110050Y119649D02*
X109971Y118951D01*
X109815Y118267D01*
X109583Y117604D01*
X109279Y116972D01*
X108905Y116378D01*
X108468Y115829D01*
X107971Y115332D01*
X107422Y114895D01*
X106828Y114521D01*
X106196Y114217D01*
X105533Y113985D01*
X104849Y113829D01*
X104151Y113750D01*
X103449Y113750D01*
X102751Y113829D01*
X102067Y113985D01*
X101404Y114217D01*
X100772Y114521D01*
X100178Y114895D01*
X99629Y115332D01*
X99132Y115829D01*
X98695Y116378D01*
X98321Y116972D01*
X98017Y117604D01*
X97785Y118267D01*
X97629Y118951D01*
X97550Y119649D01*
X97550Y120351D01*
X97629Y121049D01*
X97785Y121733D01*
X98017Y122396D01*
X98321Y123028D01*
X98695Y123622D01*
X99132Y124171D01*
X99629Y124668D01*
X100178Y125105D01*
X100772Y125479D01*
X101404Y125783D01*
X102067Y126015D01*
X102751Y126171D01*
X103449Y126250D01*
X104151Y126250D01*
X104849Y126171D01*
X105533Y126015D01*
X106196Y125783D01*
X106828Y125479D01*
X107422Y125105D01*
X107971Y124668D01*
X108468Y124171D01*
X108905Y123622D01*
X109279Y123028D01*
X109583Y122396D01*
X109815Y121733D01*
X109971Y121049D01*
X110050Y120351D01*
X110050Y119649D01*
X224050Y179649D02*
X223971Y178951D01*
X223815Y178267D01*
X223583Y177604D01*
X223279Y176972D01*
X222905Y176378D01*
X222468Y175829D01*
X221971Y175332D01*
X221422Y174895D01*
X220828Y174521D01*
X220196Y174217D01*
X219533Y173985D01*
X218849Y173829D01*
X218151Y173750D01*
X217449Y173750D01*
X216751Y173829D01*
X216067Y173985D01*
X215404Y174217D01*
X214772Y174521D01*
X214178Y174895D01*
X213629Y175332D01*
X213132Y175829D01*
X212695Y176378D01*
X212321Y176972D01*
X212017Y177604D01*
X211785Y178267D01*
X211629Y178951D01*
X211550Y179649D01*
X211550Y180351D01*
X211629Y181049D01*
X211785Y181733D01*
X212017Y182396D01*
X212321Y183028D01*
X212695Y183622D01*
X213132Y184171D01*
X213629Y184668D01*
X214178Y185105D01*
X214772Y185479D01*
X215404Y185783D01*
X216067Y186015D01*
X216751Y186171D01*
X217449Y186250D01*
X218151Y186250D01*
X218849Y186171D01*
X219533Y186015D01*
X220196Y185783D01*
X220828Y185479D01*
X221422Y185105D01*
X221971Y184668D01*
X222468Y184171D01*
X222905Y183622D01*
X223279Y183028D01*
X223583Y182396D01*
X223815Y181733D01*
X223971Y181049D01*
X224050Y180351D01*
X224050Y179649D01*
X154000Y959500D02*
X153929Y958503D01*
X153786Y957513D01*
X153574Y956536D01*
X153292Y955576D01*
X152943Y954639D01*
X152527Y953729D01*
X152048Y952852D01*
X151507Y952010D01*
X150908Y951210D01*
X150253Y950454D01*
X149546Y949747D01*
X148790Y949092D01*
X147990Y948493D01*
X147148Y947952D01*
X146271Y947473D01*
X145361Y947057D01*
X144424Y946708D01*
X143465Y946426D01*
X142487Y946214D01*
X141498Y946071D01*
X140500Y946000D01*
X139500Y946000D01*
X138503Y946071D01*
X137513Y946214D01*
X136536Y946426D01*
X135576Y946708D01*
X134639Y947057D01*
X133729Y947473D01*
X132852Y947952D01*
X132010Y948493D01*
X131210Y949092D01*
X130454Y949747D01*
X129747Y950454D01*
X129092Y951210D01*
X128493Y952010D01*
X127952Y952852D01*
X127473Y953729D01*
X127057Y954639D01*
X126708Y955576D01*
X126426Y956536D01*
X126214Y957513D01*
X126071Y958503D01*
X126000Y959500D01*
X126000Y960500D01*
X126071Y961498D01*
X126214Y962487D01*
X126426Y963465D01*
X126708Y964424D01*
X127057Y965361D01*
X127473Y966271D01*
X127952Y967148D01*
X128493Y967990D01*
X129092Y968790D01*
X129747Y969546D01*
X130454Y970253D01*
X131210Y970908D01*
X132010Y971507D01*
X132852Y972048D01*
X133729Y972527D01*
X134639Y972943D01*
X135576Y973292D01*
X136536Y973574D01*
X137513Y973786D01*
X138503Y973929D01*
X139500Y974000D01*
X140500Y974000D01*
X141498Y973929D01*
X142487Y973786D01*
X143465Y973574D01*
X144424Y973292D01*
X145361Y972943D01*
X146271Y972527D01*
X147148Y972048D01*
X147990Y971507D01*
X148790Y970908D01*
X149546Y970253D01*
X150253Y969546D01*
X150908Y968790D01*
X151507Y967990D01*
X152048Y967148D01*
X152527Y966271D01*
X152943Y965361D01*
X153292Y964424D01*
X153574Y963465D01*
X153786Y962487D01*
X153929Y961498D01*
X154000Y960500D01*
X154000Y959500D01*
X824000Y959500D02*
X823929Y958503D01*
X823786Y957513D01*
X823574Y956536D01*
X823292Y955576D01*
X822943Y954639D01*
X822527Y953729D01*
X822048Y952852D01*
X821507Y952010D01*
X820908Y951210D01*
X820253Y950454D01*
X819546Y949747D01*
X818790Y949092D01*
X817990Y948493D01*
X817148Y947952D01*
X816271Y947473D01*
X815361Y947057D01*
X814424Y946708D01*
X813465Y946426D01*
X812487Y946214D01*
X811498Y946071D01*
X810500Y946000D01*
X809500Y946000D01*
X808503Y946071D01*
X807513Y946214D01*
X806536Y946426D01*
X805576Y946708D01*
X804639Y947057D01*
X803729Y947473D01*
X802852Y947952D01*
X802010Y948493D01*
X801210Y949092D01*
X800454Y949747D01*
X799747Y950454D01*
X799092Y951210D01*
X798493Y952010D01*
X797952Y952852D01*
X797473Y953729D01*
X797057Y954639D01*
X796708Y955576D01*
X796426Y956536D01*
X796214Y957513D01*
X796071Y958503D01*
X796000Y959500D01*
X796000Y960500D01*
X796071Y961498D01*
X796214Y962487D01*
X796426Y963465D01*
X796708Y964424D01*
X797057Y965361D01*
X797473Y966271D01*
X797952Y967148D01*
X798493Y967990D01*
X799092Y968790D01*
X799747Y969546D01*
X800454Y970253D01*
X801210Y970908D01*
X802010Y971507D01*
X802852Y972048D01*
X803729Y972527D01*
X804639Y972943D01*
X805576Y973292D01*
X806536Y973574D01*
X807513Y973786D01*
X808503Y973929D01*
X809500Y974000D01*
X810500Y974000D01*
X811498Y973929D01*
X812487Y973786D01*
X813465Y973574D01*
X814424Y973292D01*
X815361Y972943D01*
X816271Y972527D01*
X817148Y972048D01*
X817990Y971507D01*
X818790Y970908D01*
X819546Y970253D01*
X820253Y969546D01*
X820908Y968790D01*
X821507Y967990D01*
X822048Y967148D01*
X822527Y966271D01*
X822943Y965361D01*
X823292Y964424D01*
X823574Y963465D01*
X823786Y962487D01*
X823929Y961498D01*
X824000Y960500D01*
X824000Y959500D01*
X154200Y610281D02*
X154137Y610839D01*
X154012Y611386D01*
X153827Y611916D01*
X153583Y612422D01*
X153284Y612898D01*
X152934Y613337D01*
X152537Y613734D01*
X152098Y614084D01*
X151622Y614383D01*
X151116Y614627D01*
X150586Y614812D01*
X150039Y614937D01*
X149481Y615000D01*
X148919Y615000D01*
X148361Y614937D01*
X147814Y614812D01*
X147284Y614627D01*
X146778Y614383D01*
X146302Y614084D01*
X145863Y613734D01*
X145466Y613337D01*
X145116Y612898D01*
X144817Y612422D01*
X144573Y611916D01*
X144388Y611386D01*
X144263Y610839D01*
X144200Y610281D01*
X144200Y609719D01*
X144263Y609161D01*
X144388Y608614D01*
X144573Y608084D01*
X144817Y607578D01*
X145116Y607102D01*
X145466Y606663D01*
X145863Y606266D01*
X146302Y605916D01*
X146778Y605617D01*
X147284Y605373D01*
X147814Y605188D01*
X148361Y605063D01*
X148919Y605000D01*
X149481Y605000D01*
X150039Y605063D01*
X150586Y605188D01*
X151116Y605373D01*
X151622Y605617D01*
X152098Y605916D01*
X152537Y606266D01*
X152934Y606663D01*
X153284Y607102D01*
X153583Y607578D01*
X153827Y608084D01*
X154012Y608614D01*
X154137Y609161D01*
X154200Y609719D01*
X154200Y610281D01*
X304200Y609719D02*
X304263Y609161D01*
X304388Y608614D01*
X304573Y608084D01*
X304817Y607578D01*
X305116Y607102D01*
X305466Y606663D01*
X305863Y606266D01*
X306302Y605916D01*
X306778Y605617D01*
X307284Y605373D01*
X307814Y605188D01*
X308361Y605063D01*
X308919Y605000D01*
X309481Y605000D01*
X310039Y605063D01*
X310586Y605188D01*
X311116Y605373D01*
X311622Y605617D01*
X312098Y605916D01*
X312537Y606266D01*
X312934Y606663D01*
X313284Y607102D01*
X313583Y607578D01*
X313827Y608084D01*
X314012Y608614D01*
X314137Y609161D01*
X314200Y609719D01*
X314200Y610281D01*
X314137Y610839D01*
X314012Y611386D01*
X313827Y611916D01*
X313583Y612422D01*
X313284Y612898D01*
X312934Y613337D01*
X312537Y613734D01*
X312098Y614084D01*
X311622Y614383D01*
X311116Y614627D01*
X310586Y614812D01*
X310039Y614937D01*
X309481Y615000D01*
X308919Y615000D01*
X308361Y614937D01*
X307814Y614812D01*
X307284Y614627D01*
X306778Y614383D01*
X306302Y614084D01*
X305863Y613734D01*
X305466Y613337D01*
X305116Y612898D01*
X304817Y612422D01*
X304573Y611916D01*
X304388Y611386D01*
X304263Y610839D01*
X304200Y610281D01*
X304200Y609719D01*
X95480Y69380D02*
X95409Y68383D01*
X95266Y67393D01*
X95054Y66416D01*
X94772Y65456D01*
X94423Y64519D01*
X94007Y63609D01*
X93528Y62732D01*
X92987Y61890D01*
X92388Y61090D01*
X91733Y60334D01*
X91026Y59627D01*
X90270Y58972D01*
X89470Y58373D01*
X88628Y57832D01*
X87751Y57353D01*
X86841Y56937D01*
X85904Y56588D01*
X84945Y56306D01*
X83967Y56094D01*
X82978Y55951D01*
X81980Y55880D01*
X80980Y55880D01*
X79983Y55951D01*
X78993Y56094D01*
X78016Y56306D01*
X77056Y56588D01*
X76119Y56937D01*
X75209Y57353D01*
X74332Y57832D01*
X73490Y58373D01*
X72690Y58972D01*
X71934Y59627D01*
X71227Y60334D01*
X70572Y61090D01*
X69973Y61890D01*
X69432Y62732D01*
X68953Y63609D01*
X68537Y64519D01*
X68188Y65456D01*
X67906Y66416D01*
X67694Y67393D01*
X67551Y68383D01*
X67480Y69380D01*
X67480Y70380D01*
X67551Y71378D01*
X67694Y72367D01*
X67906Y73345D01*
X68188Y74304D01*
X68537Y75241D01*
X68953Y76151D01*
X69432Y77028D01*
X69973Y77870D01*
X70572Y78670D01*
X71227Y79426D01*
X71934Y80133D01*
X72690Y80788D01*
X73490Y81387D01*
X74332Y81928D01*
X75209Y82407D01*
X76119Y82823D01*
X77056Y83172D01*
X78016Y83454D01*
X78993Y83666D01*
X79983Y83809D01*
X80980Y83880D01*
X81980Y83880D01*
X82978Y83809D01*
X83967Y83666D01*
X84945Y83454D01*
X85904Y83172D01*
X86841Y82823D01*
X87751Y82407D01*
X88628Y81928D01*
X89470Y81387D01*
X90270Y80788D01*
X91026Y80133D01*
X91733Y79426D01*
X92388Y78670D01*
X92987Y77870D01*
X93528Y77028D01*
X94007Y76151D01*
X94423Y75241D01*
X94772Y74304D01*
X95054Y73345D01*
X95266Y72367D01*
X95409Y71378D01*
X95480Y70380D01*
X95480Y69380D01*
X888680Y74000D02*
X888609Y73003D01*
X888466Y72013D01*
X888254Y71036D01*
X887972Y70076D01*
X887623Y69139D01*
X887207Y68229D01*
X886728Y67352D01*
X886187Y66510D01*
X885588Y65710D01*
X884933Y64954D01*
X884226Y64247D01*
X883470Y63592D01*
X882670Y62993D01*
X881828Y62452D01*
X880951Y61973D01*
X880041Y61557D01*
X879104Y61208D01*
X878145Y60926D01*
X877167Y60714D01*
X876178Y60571D01*
X875180Y60500D01*
X874180Y60500D01*
X873183Y60571D01*
X872193Y60714D01*
X871216Y60926D01*
X870256Y61208D01*
X869319Y61557D01*
X868409Y61973D01*
X867532Y62452D01*
X866690Y62993D01*
X865890Y63592D01*
X865134Y64247D01*
X864427Y64954D01*
X863772Y65710D01*
X863173Y66510D01*
X862632Y67352D01*
X862153Y68229D01*
X861737Y69139D01*
X861388Y70076D01*
X861106Y71036D01*
X860894Y72013D01*
X860751Y73003D01*
X860680Y74000D01*
X860680Y75000D01*
X860751Y75998D01*
X860894Y76987D01*
X861106Y77965D01*
X861388Y78924D01*
X861737Y79861D01*
X862153Y80771D01*
X862632Y81648D01*
X863173Y82490D01*
X863772Y83290D01*
X864427Y84046D01*
X865134Y84753D01*
X865890Y85408D01*
X866690Y86007D01*
X867532Y86548D01*
X868409Y87027D01*
X869319Y87443D01*
X870256Y87792D01*
X871216Y88074D01*
X872193Y88286D01*
X873183Y88429D01*
X874180Y88500D01*
X875180Y88500D01*
X876178Y88429D01*
X877167Y88286D01*
X878145Y88074D01*
X879104Y87792D01*
X880041Y87443D01*
X880951Y87027D01*
X881828Y86548D01*
X882670Y86007D01*
X883470Y85408D01*
X884226Y84753D01*
X884933Y84046D01*
X885588Y83290D01*
X886187Y82490D01*
X886728Y81648D01*
X887207Y80771D01*
X887623Y79861D01*
X887972Y78924D01*
X888254Y77965D01*
X888466Y76987D01*
X888609Y75998D01*
X888680Y75000D01*
X888680Y74000D01*
X191280Y93621D02*
X191217Y92985D01*
X191093Y92359D01*
X190907Y91748D01*
X190663Y91158D01*
X190362Y90594D01*
X190007Y90063D01*
X189602Y89570D01*
X189150Y89118D01*
X188657Y88713D01*
X188126Y88358D01*
X187562Y88057D01*
X186972Y87813D01*
X186361Y87627D01*
X185735Y87503D01*
X185099Y87440D01*
X184461Y87440D01*
X183825Y87503D01*
X183199Y87627D01*
X182588Y87813D01*
X181998Y88057D01*
X181434Y88358D01*
X180903Y88713D01*
X180410Y89118D01*
X179958Y89570D01*
X179553Y90063D01*
X179198Y90594D01*
X178897Y91158D01*
X178653Y91748D01*
X178467Y92359D01*
X178343Y92985D01*
X178280Y93621D01*
X178280Y94259D01*
X178343Y94895D01*
X178467Y95521D01*
X178653Y96132D01*
X178897Y96722D01*
X179198Y97286D01*
X179553Y97817D01*
X179958Y98310D01*
X180410Y98762D01*
X180903Y99167D01*
X181434Y99522D01*
X181998Y99823D01*
X182588Y100067D01*
X183199Y100253D01*
X183825Y100377D01*
X184461Y100440D01*
X185099Y100440D01*
X185735Y100377D01*
X186361Y100253D01*
X186972Y100067D01*
X187562Y99823D01*
X188126Y99522D01*
X188657Y99167D01*
X189150Y98762D01*
X189602Y98310D01*
X190007Y97817D01*
X190362Y97286D01*
X190663Y96722D01*
X190907Y96132D01*
X191093Y95521D01*
X191217Y94895D01*
X191280Y94259D01*
X191280Y93621D01*
X228240Y93621D02*
X228177Y92985D01*
X228053Y92359D01*
X227867Y91748D01*
X227623Y91158D01*
X227322Y90594D01*
X226967Y90063D01*
X226562Y89570D01*
X226110Y89118D01*
X225617Y88713D01*
X225086Y88358D01*
X224522Y88057D01*
X223932Y87813D01*
X223321Y87627D01*
X222695Y87503D01*
X222059Y87440D01*
X221421Y87440D01*
X220785Y87503D01*
X220159Y87627D01*
X219548Y87813D01*
X218958Y88057D01*
X218394Y88358D01*
X217863Y88713D01*
X217370Y89118D01*
X216918Y89570D01*
X216513Y90063D01*
X216158Y90594D01*
X215857Y91158D01*
X215613Y91748D01*
X215427Y92359D01*
X215303Y92985D01*
X215240Y93621D01*
X215240Y94259D01*
X215303Y94895D01*
X215427Y95521D01*
X215613Y96132D01*
X215857Y96722D01*
X216158Y97286D01*
X216513Y97817D01*
X216918Y98310D01*
X217370Y98762D01*
X217863Y99167D01*
X218394Y99522D01*
X218958Y99823D01*
X219548Y100067D01*
X220159Y100253D01*
X220785Y100377D01*
X221421Y100440D01*
X222059Y100440D01*
X222695Y100377D01*
X223321Y100253D01*
X223932Y100067D01*
X224522Y99823D01*
X225086Y99522D01*
X225617Y99167D01*
X226110Y98762D01*
X226562Y98310D01*
X226967Y97817D01*
X227322Y97286D01*
X227623Y96722D01*
X227867Y96132D01*
X228053Y95521D01*
X228177Y94895D01*
X228240Y94259D01*
X228240Y93621D01*
X550100Y116721D02*
X550037Y116085D01*
X549913Y115459D01*
X549727Y114848D01*
X549483Y114258D01*
X549182Y113694D01*
X548827Y113163D01*
X548422Y112670D01*
X547970Y112218D01*
X547477Y111813D01*
X546946Y111458D01*
X546382Y111157D01*
X545792Y110913D01*
X545181Y110727D01*
X544555Y110603D01*
X543919Y110540D01*
X543281Y110540D01*
X542645Y110603D01*
X542019Y110727D01*
X541408Y110913D01*
X540818Y111157D01*
X540254Y111458D01*
X539723Y111813D01*
X539230Y112218D01*
X538778Y112670D01*
X538373Y113163D01*
X538018Y113694D01*
X537717Y114258D01*
X537473Y114848D01*
X537287Y115459D01*
X537163Y116085D01*
X537100Y116721D01*
X537100Y117359D01*
X537163Y117995D01*
X537287Y118621D01*
X537473Y119232D01*
X537717Y119822D01*
X538018Y120386D01*
X538373Y120917D01*
X538778Y121410D01*
X539230Y121862D01*
X539723Y122267D01*
X540254Y122622D01*
X540818Y122923D01*
X541408Y123167D01*
X542019Y123353D01*
X542645Y123477D01*
X543281Y123540D01*
X543919Y123540D01*
X544555Y123477D01*
X545181Y123353D01*
X545792Y123167D01*
X546382Y122923D01*
X546946Y122622D01*
X547477Y122267D01*
X547970Y121862D01*
X548422Y121410D01*
X548827Y120917D01*
X549182Y120386D01*
X549483Y119822D01*
X549727Y119232D01*
X549913Y118621D01*
X550037Y117995D01*
X550100Y117359D01*
X550100Y116721D01*
X550100Y139821D02*
X550037Y139185D01*
X549913Y138559D01*
X549727Y137948D01*
X549483Y137358D01*
X549182Y136794D01*
X548827Y136263D01*
X548422Y135770D01*
X547970Y135318D01*
X547477Y134913D01*
X546946Y134558D01*
X546382Y134257D01*
X545792Y134013D01*
X545181Y133827D01*
X544555Y133703D01*
X543919Y133640D01*
X543281Y133640D01*
X542645Y133703D01*
X542019Y133827D01*
X541408Y134013D01*
X540818Y134257D01*
X540254Y134558D01*
X539723Y134913D01*
X539230Y135318D01*
X538778Y135770D01*
X538373Y136263D01*
X538018Y136794D01*
X537717Y137358D01*
X537473Y137948D01*
X537287Y138559D01*
X537163Y139185D01*
X537100Y139821D01*
X537100Y140459D01*
X537163Y141095D01*
X537287Y141721D01*
X537473Y142332D01*
X537717Y142922D01*
X538018Y143486D01*
X538373Y144017D01*
X538778Y144510D01*
X539230Y144962D01*
X539723Y145367D01*
X540254Y145722D01*
X540818Y146023D01*
X541408Y146267D01*
X542019Y146453D01*
X542645Y146577D01*
X543281Y146640D01*
X543919Y146640D01*
X544555Y146577D01*
X545181Y146453D01*
X545792Y146267D01*
X546382Y146023D01*
X546946Y145722D01*
X547477Y145367D01*
X547970Y144962D01*
X548422Y144510D01*
X548827Y144017D01*
X549182Y143486D01*
X549483Y142922D01*
X549727Y142332D01*
X549913Y141721D01*
X550037Y141095D01*
X550100Y140459D01*
X550100Y139821D01*
M02*
