M48
;GenerationSoftware,Autodesk,EAGLE,9.2.2*%
;CreationDate,2019-03-16T21:24:13Z*%
FMAT,2
ICI,OFF
METRIC,TZ,000.000
T6C0.350
T5C0.635
T4C0.700
T3C0.800
T2C0.900
T1C1.118
%
G90
M71
T1
X80160Y10000
X77620Y10000
X75080Y10000
X72540Y10000
X70000Y10000
X13160Y44000
X10620Y44000
X8080Y44000
X5540Y44000
X3000Y44000
T2
X2728Y57527
X2728Y54987
X5712Y55265
X5712Y57805
T3
X5740Y51572
X5740Y49572
T4
X39142Y36884
X39142Y34344
X39142Y31804
X33655Y37020
X33655Y34480
X33655Y31940
T5
X42316Y64287
X37316Y64287
X35881Y59977
X40881Y59977
X43410Y55701
X38410Y55701
X2664Y60558
X7664Y60558
X17189Y46844
X22189Y46844
T6
X25603Y60655
X41148Y58826
X48768Y8077
X44348Y58826
X27127Y59588
X37033Y51968
X47854Y49378
X19660Y57150
X24841Y51968
X50444Y47396
X24689Y60655
X34356Y48037
X30328Y56388
X54102Y40538
X52883Y41758
X45757Y36371
X49225Y49225
X50292Y40081
X51206Y40996
X26822Y53035
X40081Y27127
X22250Y55626
X23165Y56540
X50749Y9144
X54407Y12802
X55169Y65684
X22250Y51968
X47244Y14326
X49835Y56540
X6858Y65684
X45720Y45415
X26975Y64465
X23470Y60960
X51206Y39167
X52121Y40081
X45720Y11125
X39321Y58031
M30