M48
;GenerationSoftware,Autodesk,EAGLE,9.2.2*%
;CreationDate,2019-04-19T13:43:20Z*%
FMAT,2
ICI,OFF
METRIC,TZ,000.000
T14C0.300
T13C0.635
T12C0.700
T11C0.800
T10C0.813
T9C0.900
T8C1.000
T7C1.016
T6C1.118
T5C1.250
T4C1.300
T3C1.500
T2C2.000
T1C2.800
%
G90
M71
T1
X58700Y14000
X29700Y14000
X77700Y96000
X10700Y96000
T2
X48600Y51000
X10700Y86400
X10700Y77600
X39800Y51000
X77700Y77600
X77700Y86400
X48600Y87000
X39800Y87000
T3
X60835Y92075
X52231Y44000
X44200Y14500
X44200Y7500
X73200Y23500
X15951Y23500
X73200Y7500
X58700Y7500
X29720Y7500
X15750Y7500
X39370Y44000
X73651Y50294
X78518Y50294
X66550Y55880
X62740Y55880
X60835Y88900
T4
X17700Y13500
X20900Y13500
X14500Y16500
X17700Y16500
X20900Y16500
X9650Y38115
X22350Y21885
X22350Y38115
X78850Y38115
X78850Y21885
X66150Y38115
X66150Y21885
X14500Y13500
X9650Y21885
T5
X23400Y18000
X12000Y12000
T6
X51700Y20000
X51700Y22540
X36700Y20000
X36700Y22540
X51700Y1500
X51700Y4040
X36700Y1500
X36700Y4040
X66550Y78740
X64010Y78740
X61470Y78740
X58930Y78740
X56390Y78740
X53850Y78740
T7
X73326Y44456
X73651Y60426
X78518Y60426
X40949Y2739
X75866Y44456
X78406Y44456
X47451Y2739
X40949Y7261
X80946Y44456
X83486Y44456
X86026Y44456
X47451Y7261
X43551Y44000
X48050Y44000
X76675Y1890
X74135Y1890
X71595Y1890
X69055Y1890
X58295Y88900
X58295Y92075
X66550Y53340
X62740Y53340
X66515Y1890
X63975Y1890
T8
X44200Y58000
X46700Y58000
X41700Y58000
X17700Y79500
X70700Y79500
X70700Y82000
X70700Y84500
X17700Y82000
X17700Y84500
X46700Y80000
X44200Y80000
X41700Y80000
X10700Y82000
X44200Y51000
X77700Y82000
X44200Y87000
T9
X22100Y91440
X24640Y91440
X60835Y83820
X60835Y86360
X60200Y95250
X60200Y97790
T10
X24005Y71120
X51310Y39370
X52580Y41275
X53850Y39370
X71930Y5000
X74470Y5000
X57430Y5000
X59970Y5000
X28450Y5000
X30990Y5000
X14480Y5000
X17020Y5000
X21465Y71120
X6225Y71120
X8765Y71120
X11305Y71120
X13845Y71120
X16385Y71120
X18925Y71120
T11
X34387Y62466
X32530Y86360
X34530Y86360
X29355Y93345
X29720Y79010
X23370Y44720
X23370Y46720
X53580Y96520
X51580Y96520
X67550Y88900
X34387Y64466
X29720Y81010
X36070Y81010
X36070Y79010
X50675Y74025
X50675Y72025
X31355Y93345
X65550Y88900
T12
X76075Y64770
X59565Y63500
X59565Y66040
X81155Y64770
X74170Y71120
X74170Y68580
X83060Y71120
X83060Y68580
T13
X24680Y55880
X29680Y55880
X29680Y52070
X24680Y52070
T14
X63959Y56896
X69649Y66446
X63115Y59842
X50675Y78105
X65026Y66624
X81841Y57302
X68633Y58725
X67414Y69698
X67414Y67056
X65788Y61366
X64569Y58318
X53317Y73939
X3048Y83109
X66601Y61773
X72087Y63398
X70055Y56693
X70055Y52832
X63375Y69850
M30