G04 EAGLE Gerber X2 export*
%TF.Part,Single*%
%TF.FileFunction,Soldermask,Bot,1*%
%TF.FilePolarity,Positive*%
%TF.GenerationSoftware,Autodesk,EAGLE,9.2.0*%
%TF.CreationDate,2018-10-30T13:38:44Z*%
G75*
%MOMM*%
%FSLAX34Y34*%
%LPD*%
%INSoldermask Bottom*%
%IPPOS*%
%AMOC8*
5,1,8,0,0,1.08239X$1,22.5*%
G01*
%ADD10R,1.451600X1.451600*%
%ADD11C,1.451600*%
%ADD12C,1.752600*%
%ADD13C,1.244600*%
%ADD14C,1.509600*%
%ADD15R,1.509600X1.509600*%
%ADD16C,1.981200*%
%ADD17R,1.981200X1.981200*%
%ADD18P,3.357141X8X22.500000*%
%ADD19R,1.422400X1.422400*%
%ADD20C,1.422400*%
%ADD21P,3.357141X8X112.500000*%
%ADD22P,3.357141X8X202.500000*%
%ADD23P,3.357141X8X292.500000*%
%ADD24C,2.051600*%
%ADD25P,2.446851X8X22.500000*%
%ADD26C,1.351600*%
%ADD27C,2.286000*%
%ADD28C,1.778000*%
%ADD29C,1.981200*%
%ADD30C,2.901600*%
%ADD31R,2.641600X5.181600*%
%ADD32P,1.539592X8X22.500000*%
%ADD33C,1.401600*%


D10*
X88900Y637700D03*
D11*
X88900Y657700D03*
D10*
X393700Y790100D03*
D11*
X393700Y810100D03*
D10*
X330200Y810100D03*
D11*
X330200Y790100D03*
D12*
X628650Y635000D03*
X628650Y660400D03*
D10*
X358300Y863600D03*
D11*
X378300Y863600D03*
D13*
X329800Y520700D03*
X279800Y520700D03*
D10*
X326550Y933450D03*
D11*
X346550Y933450D03*
D14*
X279400Y914400D03*
D15*
X254000Y914400D03*
D16*
X571500Y796798D02*
X571500Y778002D01*
X596900Y778002D02*
X596900Y796798D01*
X622300Y796798D02*
X622300Y778002D01*
X647700Y778002D02*
X647700Y796798D01*
X673100Y796798D02*
X673100Y778002D01*
X698500Y778002D02*
X698500Y796798D01*
D17*
X210000Y845000D03*
X210000Y820000D03*
X210000Y795000D03*
D18*
X140000Y864000D03*
X140000Y776000D03*
D19*
X273050Y711200D03*
D20*
X247650Y717804D02*
X247650Y704596D01*
X222250Y704596D02*
X222250Y717804D01*
X196850Y717804D02*
X196850Y704596D01*
X171450Y704596D02*
X171450Y717804D01*
X146050Y717804D02*
X146050Y704596D01*
X120650Y704596D02*
X120650Y717804D01*
X95250Y717804D02*
X95250Y704596D01*
D12*
X793750Y647700D03*
X844550Y647700D03*
D17*
X450000Y580000D03*
X475000Y580000D03*
X500000Y580000D03*
D21*
X431000Y510000D03*
X519000Y510000D03*
D17*
X740000Y795000D03*
X740000Y820000D03*
X740000Y845000D03*
D22*
X810000Y776000D03*
X810000Y864000D03*
D17*
X500000Y800000D03*
X475000Y800000D03*
X450000Y800000D03*
D23*
X519000Y870000D03*
X431000Y870000D03*
D24*
X89250Y218850D02*
X69750Y218850D01*
X69750Y381150D02*
X89250Y381150D01*
X196750Y218850D02*
X216250Y218850D01*
X216250Y381150D02*
X196750Y381150D01*
X860950Y381150D02*
X880450Y381150D01*
X880450Y218850D02*
X860950Y218850D01*
X753450Y381150D02*
X733950Y381150D01*
X733950Y218850D02*
X753450Y218850D01*
D10*
X688500Y889000D03*
D11*
X708500Y889000D03*
D10*
X548800Y965200D03*
D11*
X568800Y965200D03*
D14*
X641350Y838200D03*
D15*
X641350Y863600D03*
D14*
X635000Y952500D03*
D15*
X635000Y977900D03*
D10*
X266700Y467200D03*
D11*
X266700Y447200D03*
D13*
X329800Y558800D03*
X279800Y558800D03*
D25*
X660400Y533400D03*
X698500Y533400D03*
D16*
X870000Y339398D02*
X870000Y320602D01*
X844600Y320602D02*
X844600Y339398D01*
X819200Y339398D02*
X819200Y320602D01*
X793800Y320602D02*
X793800Y339398D01*
X768400Y339398D02*
X768400Y320602D01*
X743000Y320602D02*
X743000Y339398D01*
X717600Y339398D02*
X717600Y320602D01*
D25*
X615950Y920750D03*
X615950Y889000D03*
D24*
X128000Y135000D02*
X128000Y115500D01*
X160000Y115500D02*
X160000Y135000D01*
X192000Y135000D02*
X192000Y115500D01*
X192000Y165000D02*
X192000Y184500D01*
X160000Y184500D02*
X160000Y165000D01*
X128000Y165000D02*
X128000Y184500D01*
D26*
X103000Y120000D03*
X217000Y180000D03*
D27*
X440000Y50400D03*
D28*
X500000Y25400D03*
X450000Y25400D03*
D27*
X510000Y50400D03*
D29*
X177800Y25400D03*
X203200Y25400D03*
X317500Y25400D03*
X342900Y25400D03*
X607300Y25400D03*
X632700Y25400D03*
X752300Y25400D03*
X777700Y25400D03*
D16*
X870000Y50602D02*
X870000Y69398D01*
X844600Y69398D02*
X844600Y50602D01*
X819200Y50602D02*
X819200Y69398D01*
X793800Y69398D02*
X793800Y50602D01*
X768400Y50602D02*
X768400Y69398D01*
X743000Y69398D02*
X743000Y50602D01*
X717600Y50602D02*
X717600Y69398D01*
X120000Y320602D02*
X120000Y339398D01*
X145400Y339398D02*
X145400Y320602D01*
X170800Y320602D02*
X170800Y339398D01*
X196200Y339398D02*
X196200Y320602D01*
X120000Y69398D02*
X120000Y50602D01*
X145400Y50602D02*
X145400Y69398D01*
X170800Y69398D02*
X170800Y50602D01*
X196200Y50602D02*
X196200Y69398D01*
D29*
X462300Y63500D03*
X487700Y63500D03*
D30*
X140000Y960000D03*
X810000Y960000D03*
D16*
X620000Y69398D02*
X620000Y50602D01*
X620000Y320602D02*
X620000Y339398D01*
D31*
X387350Y970000D03*
X475000Y133350D03*
D32*
X571500Y393700D03*
X558800Y412750D03*
X546100Y393700D03*
D12*
X774700Y711200D03*
X774700Y685800D03*
X863600Y711200D03*
X863600Y685800D03*
D30*
X330000Y210000D03*
X620000Y210000D03*
D10*
X539750Y740250D03*
D11*
X539750Y720250D03*
D33*
X641350Y889000D03*
X641350Y920750D03*
X660400Y558800D03*
X698500Y558800D03*
M02*
