%MOIN*%
%OFA0B0*%
%FSLAX34Y34*%
%IPPOS*%
%LPD*%
%AMOC8*
5,1,8,0,0,$1,22.5*%
%AMOC80*
5,1,8,0,0,$1,22.5*%
%AMOC81*
5,1,8,0,0,$1,22.5*%
%AMOC800*
5,1,8,0,0,$1,22.5*%
%ADD10C,0.053000000000000005*%
%ADD11R,0.088X0.034*%
%ADD12R,0.078984251968503949X0.070992125984251975*%
%ADD13R,0.070992125984251975X0.078984251968503949*%
%ADD14C,0.063433070866141736*%
%ADD15R,0.063433070866141736X0.063433070866141736*%
%ADD16R,0.094X0.060000000000000005*%
%ADD17C,0.084999999999999992*%
%ADD18C,0.060000000000000005*%
%ADD19R,0.060000000000000005X0.094*%
%ADD20C,0.037779527559055122*%
%ADD31R,0.094X0.060000000000000005*%
%ADD32C,0.053000000000000005*%
%ADD33R,0.070992125984251975X0.078984251968503949*%
%ADD34R,0.0611496062992126X0.0611496062992126*%
%ADD35C,0.0611496062992126*%
%ADD36C,0.082000000000000017*%
%ADD37P,0.064943385826771657X8X292.5*%
%ADD38R,0.078984251968503949X0.070992125984251975*%
%ADD39C,0.063433070866141736*%
%ADD40R,0.063433070866141736X0.063433070866141736*%
%ADD41P,0.064943385826771657X8X112.5*%
%ADD42C,0.084999999999999992*%
%ADD43R,0.060000000000000005X0.094*%
%ADD44C,0.064*%
%ADD45C,0.037779527559055122*%
%ADD56R,0.057149606299212605X0.057149606299212605*%
%ADD57C,0.057149606299212605*%
%ADD58R,0.043370078740157476X0.047307086614173231*%
%ADD59C,0.069*%
%ADD60R,0.074866141732283467X0.066992125984251971*%
%ADD61C,0.049*%
%ADD62R,0.066992125984251971X0.074866141732283467*%
%ADD63C,0.059433070866141739*%
%ADD64R,0.059433070866141739X0.059433070866141739*%
%ADD65R,0.028000000000000004X0.091*%
%ADD66C,0.078000000000000014*%
%ADD67R,0.066992125984251971X0.082740157480314963*%
%ADD68R,0.082740157480314963X0.066992125984251971*%
%ADD69R,0.056000000000000008X0.090000000000000011*%
%ADD70R,0.078000000000000014X0.078000000000000014*%
%ADD71P,0.13217090551181102X8X22.5*%
%ADD72C,0.043370078740157476*%
%ADD73R,0.056000000000000008X0.056000000000000008*%
%ADD74C,0.056000000000000008*%
%ADD75R,0.082000000000000017X0.026000000000000002*%
%ADD76R,0.054X0.026000000000000002*%
%ADD77R,0.026000000000000002X0.054*%
%ADD78P,0.13217090551181102X8X112.5*%
%ADD79P,0.13217090551181102X8X202.5*%
%ADD80P,0.13217090551181102X8X292.5*%
%ADD81R,0.1260472440944882X0.035496062992125987*%
%ADD82R,0.054X0.10400000000000001*%
%ADD83C,0.080771653543307093*%
%ADD84R,0.066992125984251971X0.043370078740157476*%
%ADD85R,0.24809448818897636X0.21659842519685041*%
%ADD86P,0.096332716535433086X8X22.5*%
%ADD87R,0.098488188976377955X0.098488188976377955*%
%ADD88R,0.054X0.054*%
%ADD89C,0.05321259842519685*%
%ADD90C,0.078000000000000014*%
%ADD91C,0.11423622047244096*%
%ADD92R,0.20400000000000002X0.10400000000000001*%
%ADD93P,0.060613858267716543X8X22.5*%
%ADD94R,0.071716535433070869X0.027622047244094491*%
%ADD95C,0.055181102362204727*%
%ADD96P,0.096332716535433086X8X202.5*%
%ADD107C,0.049*%
%ADD108R,0.057149606299212605X0.057149606299212605*%
%ADD109C,0.057149606299212605*%
%ADD110R,0.066992125984251971X0.074866141732283467*%
%ADD111R,0.074866141732283467X0.066992125984251971*%
%ADD112C,0.059433070866141739*%
%ADD113R,0.059433070866141739X0.059433070866141739*%
%ADD114R,0.027622047244094491X0.090614173228346459*%
%ADD115C,0.080771653543307093*%
%ADD116R,0.035496062992125987X0.1260472440944882*%
%ADD117P,0.096332716535433086X8X112.5*%
%ADD118R,0.054X0.10400000000000001*%
%ADD119R,0.066992125984251971X0.074984251968503945*%
%ADD120R,0.090000000000000011X0.056000000000000008*%
%ADD121R,0.074984251968503945X0.066992125984251971*%
%ADD122R,0.056000000000000008X0.090000000000000011*%
%ADD123R,0.082740157480314963X0.066992125984251971*%
%ADD124R,0.066992125984251971X0.082740157480314963*%
%ADD125R,0.043370078740157476X0.066992125984251971*%
%ADD126R,0.21659842519685041X0.24809448818897636*%
%ADD127R,0.065X0.025*%
%ADD128R,0.078000000000000014X0.078000000000000014*%
%ADD129P,0.13217090551181102X8X292.5*%
%ADD130C,0.043370078740157476*%
%ADD131P,0.096332716535433086X8X22.5*%
%ADD132P,0.096332716535433086X8X202.5*%
%ADD133R,0.098488188976377955X0.098488188976377955*%
%ADD134R,0.054X0.054*%
%ADD135C,0.063370078740157487*%
%ADD136P,0.16668807086614174X8X292.5*%
%ADD137C,0.078000000000000014*%
%ADD138C,0.05321259842519685*%
%ADD139C,0.11423622047244096*%
%ADD140R,0.20400000000000002X0.10400000000000001*%
%ADD141P,0.060613858267716543X8X112.5*%
%ADD142C,0.055181102362204727*%
%ADD143P,0.13217090551181102X8X202.5*%
%ADD144C,0.081*%
%ADD145P,0.13217090551181102X8X112.5*%
%ADD146C,0.060000000000000005*%
%LPD*%
G75*
G01*
D10*
X-0005118Y0016141D02*
X0015596Y0025114D03*
X0017565Y0025114D03*
X0014431Y0024165D03*
X0014431Y0022195D03*
X0011707Y0027000D03*
X0009738Y0027000D03*
X0007651Y0028007D03*
X0005683Y0028007D03*
X0017455Y0026243D03*
X0015486Y0026243D03*
X0011636Y0025740D03*
X0009667Y0025740D03*
X0008577Y0024322D03*
X0008577Y0022354D03*
D11*
X0013279Y0022139D03*
X0010859Y0022139D03*
X0013279Y0022639D03*
X0013279Y0023139D03*
X0010859Y0022639D03*
X0010859Y0023139D03*
X0013279Y0023639D03*
X0010859Y0023639D03*
D12*
X0014353Y0026789D03*
X0014353Y0027908D03*
X0013208Y0027900D03*
X0013208Y0026782D03*
D13*
X0010759Y0028184D03*
X0009639Y0028184D03*
X0014399Y0025678D03*
X0013281Y0025678D03*
D12*
X0009829Y0023405D03*
X0009829Y0022286D03*
D13*
X0017018Y0023940D03*
X0015899Y0023940D03*
X0009962Y0024539D03*
X0011081Y0024539D03*
D14*
X0017045Y0021578D03*
D15*
X0016045Y0021578D03*
D14*
X0015978Y0022897D03*
D15*
X0016978Y0022897D03*
D14*
X0018144Y0023903D03*
D15*
X0018144Y0022902D03*
D14*
X0017994Y0021665D03*
D15*
X0018994Y0021665D03*
D16*
X0024258Y0028059D03*
X0025990Y0027559D03*
X0024258Y0027056D03*
D13*
X0022250Y0025966D03*
X0021130Y0025966D03*
D14*
X0022939Y0028220D03*
D15*
X0022939Y0027219D03*
D14*
X0021931Y0027063D03*
D15*
X0021931Y0028062D03*
D17*
X0025177Y0025044D02*
X0025947Y0025044D01*
X0025947Y0024044D02*
X0025177Y0024044D01*
X0025177Y0023043D02*
X0025947Y0023043D01*
X0006655Y0025044D02*
X0005886Y0025044D01*
X0005886Y0024044D02*
X0006655Y0024044D01*
X0006655Y0023043D02*
X0005886Y0023043D01*
X0016082Y0027372D02*
X0016082Y0028142D01*
X0017082Y0028142D02*
X0017082Y0027372D01*
X0018082Y0027372D02*
X0018082Y0028142D01*
D10*
X0021183Y0024603D03*
X0023151Y0024603D03*
D13*
X0013236Y0024501D03*
X0012117Y0024501D03*
D18*
X0023295Y0021953D02*
X0023815Y0021953D01*
X0023815Y0022953D02*
X0023295Y0022953D01*
X0020815Y0022953D02*
X0020295Y0022953D01*
X0020295Y0021953D02*
X0020815Y0021953D01*
D19*
X0019032Y0026025D03*
X0019534Y0027758D03*
X0020035Y0026025D03*
D12*
X0020881Y0027058D03*
X0020881Y0028177D03*
D10*
X0019334Y0024799D03*
X0019334Y0022830D03*
X0024063Y0026134D03*
X0026031Y0026134D03*
D20*
X0012641Y0023661D03*
X0014141Y0023661D03*
G75*
G01*
D31*
X0001968Y0050000D02*
X0023844Y0057417D03*
X0025577Y0056917D03*
X0023844Y0056416D03*
D32*
X0022314Y0053644D03*
X0022314Y0055612D03*
D33*
X0020315Y0057261D03*
X0019195Y0057261D03*
D34*
X0018296Y0054922D03*
D35*
X0017509Y0054922D03*
D36*
X0018593Y0051018D03*
X0017843Y0051518D03*
X0018593Y0052018D03*
D37*
X0020358Y0050961D03*
X0021107Y0051462D03*
X0020358Y0051962D03*
D34*
X0022464Y0051481D03*
D35*
X0023252Y0051481D03*
D33*
X0017453Y0053160D03*
X0018573Y0053160D03*
D38*
X0016856Y0050909D03*
X0016856Y0052028D03*
D32*
X0015665Y0053282D03*
X0015665Y0055250D03*
D38*
X0009573Y0051997D03*
X0009573Y0050877D03*
D32*
X0012517Y0055231D03*
X0012517Y0053263D03*
D39*
X0010511Y0050922D03*
D40*
X0011511Y0050922D03*
D39*
X0011660Y0052047D03*
D40*
X0010660Y0052047D03*
D34*
X0014299Y0057417D03*
D35*
X0014299Y0056630D03*
D38*
X0012802Y0057544D03*
X0012802Y0056424D03*
D31*
X0011718Y0056472D03*
X0009986Y0056974D03*
X0011718Y0057474D03*
D41*
X0006225Y0057629D03*
X0006225Y0056628D03*
X0006225Y0055628D03*
D36*
X0003947Y0056308D03*
X0003447Y0055559D03*
X0002948Y0056308D03*
D34*
X0007892Y0054886D03*
D35*
X0008680Y0054886D03*
D38*
X0015633Y0050909D03*
X0015633Y0052028D03*
X0008650Y0051997D03*
X0008650Y0050877D03*
D33*
X0002770Y0057570D03*
X0003890Y0057570D03*
D38*
X0009968Y0055559D03*
X0009968Y0054439D03*
X0005011Y0055940D03*
X0005011Y0057059D03*
X0007765Y0050857D03*
X0007765Y0051977D03*
D39*
X0004029Y0053561D03*
D40*
X0004029Y0054561D03*
D39*
X0002943Y0054700D03*
D40*
X0002943Y0053700D03*
D32*
X0002867Y0050735D03*
X0002867Y0052703D03*
D34*
X0008424Y0057446D03*
D35*
X0008424Y0056658D03*
D32*
X0010968Y0055326D03*
X0010968Y0053358D03*
X0009782Y0053228D03*
X0007813Y0053228D03*
X0014097Y0053301D03*
X0014097Y0055269D03*
D39*
X0013511Y0050968D03*
D40*
X0014511Y0050968D03*
D39*
X0014668Y0052046D03*
D40*
X0013667Y0052046D03*
D33*
X0021408Y0057261D03*
X0022528Y0057261D03*
D38*
X0012573Y0051966D03*
X0012573Y0050847D03*
D42*
X0024853Y0054446D02*
X0025623Y0054446D01*
X0025623Y0053446D02*
X0024853Y0053446D01*
X0024853Y0052446D02*
X0025623Y0052446D01*
X0006331Y0054446D02*
X0005561Y0054446D01*
X0005561Y0053446D02*
X0006331Y0053446D01*
X0006331Y0052446D02*
X0005561Y0052446D01*
X0015756Y0056773D02*
X0015756Y0057544D01*
X0016757Y0057544D02*
X0016757Y0056773D01*
X0017757Y0056773D02*
X0017757Y0057544D01*
D43*
X0020867Y0055405D03*
X0020366Y0053673D03*
X0019864Y0055405D03*
D32*
X0003891Y0050747D03*
X0003891Y0052714D03*
D44*
X0005737Y0051373D02*
X0005737Y0050813D01*
X0006737Y0050813D02*
X0006737Y0051373D01*
D45*
X0002788Y0058140D03*
X0023861Y0055519D03*
G04 next file*
%LPD*%
G75*
G01*
D56*
X0032677Y0019685D02*
X0034877Y0044791D03*
D57*
X0034877Y0045578D03*
D56*
X0046877Y0050791D03*
D57*
X0046877Y0051578D03*
D56*
X0044377Y0051578D03*
D57*
X0044377Y0050791D03*
D58*
X0064627Y0047519D03*
X0064627Y0046849D03*
X0062627Y0047519D03*
X0062627Y0046849D03*
D59*
X0056127Y0044685D03*
X0056127Y0045685D03*
D56*
X0045484Y0053684D03*
D57*
X0046271Y0053684D03*
D60*
X0036877Y0045236D03*
X0036877Y0044132D03*
D61*
X0044362Y0040185D03*
X0042393Y0040185D03*
D56*
X0044234Y0056435D03*
D57*
X0045021Y0056435D03*
D62*
X0042429Y0054435D03*
X0041326Y0054435D03*
X0043576Y0049435D03*
X0044679Y0049435D03*
D63*
X0042377Y0055685D03*
D64*
X0041377Y0055685D03*
D65*
X0041127Y0049654D03*
X0041627Y0049654D03*
X0042127Y0049654D03*
X0042627Y0049654D03*
X0042627Y0051715D03*
X0042127Y0051715D03*
X0041627Y0051715D03*
X0041127Y0051715D03*
D66*
X0053877Y0051055D02*
X0053877Y0050315D01*
X0054876Y0050315D02*
X0054876Y0051055D01*
X0055876Y0051055D02*
X0055876Y0050315D01*
X0056877Y0050315D02*
X0056877Y0051055D01*
X0057877Y0051055D02*
X0057877Y0050315D01*
X0058877Y0050315D02*
X0058877Y0051055D01*
D67*
X0041326Y0053185D03*
X0042429Y0053185D03*
X0043576Y0048185D03*
X0044679Y0048185D03*
X0045076Y0046685D03*
X0046179Y0046685D03*
D68*
X0046127Y0049236D03*
X0046127Y0048133D03*
D69*
X0048629Y0048301D03*
X0048127Y0046567D03*
X0047626Y0048301D03*
D67*
X0059429Y0052185D03*
X0058326Y0052185D03*
D68*
X0043877Y0054236D03*
X0043877Y0053133D03*
X0038377Y0044132D03*
X0038377Y0045236D03*
D67*
X0042326Y0042935D03*
X0043429Y0042935D03*
D68*
X0046178Y0035493D03*
X0046178Y0034391D03*
X0036877Y0041632D03*
X0036877Y0042736D03*
X0044127Y0045236D03*
X0044127Y0044132D03*
X0042377Y0045236D03*
X0042377Y0044132D03*
D69*
X0039876Y0043818D03*
X0040377Y0045551D03*
X0040879Y0043818D03*
D70*
X0039645Y0052951D03*
X0039645Y0051968D03*
X0039645Y0050984D03*
D71*
X0036888Y0053700D03*
X0036888Y0050236D03*
D72*
X0036888Y0051968D03*
D73*
X0042127Y0047685D03*
D74*
X0041127Y0047945D02*
X0041127Y0047425D01*
X0040127Y0047425D02*
X0040127Y0047945D01*
X0039126Y0047945D02*
X0039126Y0047425D01*
X0038127Y0047425D02*
X0038127Y0047945D01*
X0037127Y0047945D02*
X0037127Y0047425D01*
X0036127Y0047425D02*
X0036127Y0047945D01*
X0035127Y0047945D02*
X0035127Y0047425D01*
D75*
X0040847Y0040435D03*
X0040847Y0040935D03*
X0040847Y0041435D03*
X0040847Y0041935D03*
X0038907Y0041935D03*
X0038907Y0041435D03*
X0038907Y0040935D03*
X0038907Y0040435D03*
D76*
X0060567Y0043832D03*
X0060567Y0044147D03*
X0060567Y0044462D03*
X0060567Y0044776D03*
X0060567Y0045092D03*
X0060567Y0045407D03*
X0060567Y0045721D03*
X0060567Y0046037D03*
D77*
X0059980Y0046625D03*
X0059665Y0046625D03*
X0059350Y0046625D03*
X0059035Y0046625D03*
X0058720Y0046625D03*
X0058404Y0046625D03*
X0058090Y0046625D03*
X0057775Y0046625D03*
D76*
X0057187Y0046037D03*
X0057187Y0045721D03*
X0057187Y0045407D03*
X0057187Y0045092D03*
X0057187Y0044776D03*
X0057187Y0044462D03*
X0057187Y0044147D03*
X0057187Y0043832D03*
D77*
X0057775Y0043244D03*
X0058090Y0043244D03*
X0058404Y0043244D03*
X0058720Y0043244D03*
X0059035Y0043244D03*
X0059350Y0043244D03*
X0059665Y0043244D03*
X0059980Y0043244D03*
D59*
X0062627Y0045185D03*
X0064627Y0045185D03*
D68*
X0062876Y0040633D03*
X0062876Y0041736D03*
X0064127Y0040633D03*
X0064127Y0041736D03*
X0065377Y0040633D03*
X0065377Y0041736D03*
X0061627Y0040633D03*
X0061627Y0041736D03*
D70*
X0049094Y0042519D03*
X0050077Y0042519D03*
X0051062Y0042519D03*
D78*
X0048346Y0039763D03*
X0051810Y0039763D03*
D72*
X0050077Y0039763D03*
D70*
X0060511Y0050984D03*
X0060511Y0051968D03*
X0060511Y0052951D03*
D79*
X0063267Y0050236D03*
X0063267Y0053700D03*
D72*
X0063267Y0051968D03*
D70*
X0051062Y0051181D03*
X0050077Y0051181D03*
X0049094Y0051181D03*
D80*
X0051810Y0053937D03*
X0048346Y0053937D03*
D72*
X0050077Y0053937D03*
D68*
X0044661Y0034415D03*
X0044661Y0035517D03*
D67*
X0049901Y0035657D03*
X0048798Y0035657D03*
D81*
X0049025Y0032181D03*
X0049025Y0030921D03*
X0049025Y0030055D03*
X0049025Y0029188D03*
X0051112Y0032181D03*
X0051112Y0030921D03*
X0051112Y0030055D03*
X0051112Y0029188D03*
D82*
X0053877Y0032562D03*
X0052877Y0032562D03*
X0052877Y0029807D03*
X0053877Y0029807D03*
D68*
X0055627Y0037986D03*
X0055627Y0036883D03*
X0057127Y0036883D03*
X0057127Y0037986D03*
X0058627Y0036883D03*
X0058627Y0037986D03*
D83*
X0036860Y0028301D02*
X0036092Y0028301D01*
X0036092Y0034690D02*
X0036860Y0034690D01*
X0041092Y0028301D02*
X0041860Y0028301D01*
X0041860Y0034690D02*
X0041092Y0034690D01*
X0063336Y0034690D02*
X0064104Y0034690D01*
X0064104Y0028301D02*
X0063336Y0028301D01*
X0059104Y0034690D02*
X0058335Y0034690D01*
X0058335Y0028301D02*
X0059104Y0028301D01*
D62*
X0058326Y0053185D03*
X0059429Y0053185D03*
D56*
X0058484Y0054685D03*
D57*
X0059271Y0054685D03*
D56*
X0052983Y0057685D03*
D57*
X0053771Y0057685D03*
D60*
X0055127Y0058236D03*
X0055127Y0057133D03*
D63*
X0056627Y0052684D03*
D64*
X0056627Y0053684D03*
D63*
X0056377Y0057185D03*
D64*
X0056377Y0058185D03*
D84*
X0057488Y0058082D03*
X0057488Y0056287D03*
D85*
X0060362Y0057185D03*
D56*
X0041877Y0038077D03*
D57*
X0041877Y0037291D03*
D67*
X0054891Y0028423D03*
X0055993Y0028423D03*
D61*
X0044362Y0041685D03*
X0042393Y0041685D03*
D62*
X0053326Y0054685D03*
X0054429Y0054685D03*
X0053326Y0053684D03*
X0054429Y0053684D03*
X0053326Y0052684D03*
X0054429Y0052684D03*
D60*
X0055627Y0053735D03*
X0055627Y0052633D03*
D86*
X0057377Y0040685D03*
X0058877Y0040685D03*
X0055627Y0055935D03*
X0055627Y0054685D03*
D87*
X0048511Y0033685D03*
X0050244Y0033685D03*
D88*
X0061377Y0055685D03*
X0061377Y0054685D03*
D83*
X0038385Y0025000D02*
X0038385Y0024232D01*
X0039645Y0024232D02*
X0039645Y0025000D01*
X0040904Y0025000D02*
X0040904Y0024232D01*
X0040904Y0026181D02*
X0040904Y0026948D01*
X0039645Y0026948D02*
X0039645Y0026181D01*
X0038385Y0026181D02*
X0038385Y0026948D01*
D89*
X0037401Y0024409D03*
X0041889Y0026770D03*
D90*
X0051357Y0022543D03*
X0048798Y0022543D03*
X0051357Y0020762D03*
X0048798Y0020762D03*
X0039377Y0021652D03*
X0038377Y0021652D03*
X0044877Y0021652D03*
X0043877Y0021652D03*
X0056287Y0021652D03*
X0055287Y0021652D03*
X0061996Y0021652D03*
X0060996Y0021652D03*
D68*
X0060127Y0036883D03*
X0060127Y0037986D03*
D91*
X0036888Y0057480D03*
X0063267Y0057480D03*
D62*
X0054429Y0055935D03*
X0053326Y0055935D03*
D92*
X0066265Y0053149D03*
X0033856Y0053149D03*
D93*
X0053877Y0035184D03*
X0053377Y0035935D03*
X0052877Y0035184D03*
D59*
X0061877Y0047685D03*
X0061877Y0046685D03*
X0065377Y0047685D03*
X0065377Y0046685D03*
D58*
X0055127Y0044850D03*
X0055127Y0045519D03*
D91*
X0044370Y0025196D03*
X0055787Y0025196D03*
D94*
X0056377Y0047185D03*
X0056377Y0047685D03*
X0056377Y0048185D03*
X0056377Y0048685D03*
X0054377Y0048685D03*
X0054377Y0048185D03*
X0054377Y0047685D03*
X0054377Y0047185D03*
D56*
X0052627Y0048827D03*
D57*
X0052627Y0048041D03*
D95*
X0056627Y0054685D03*
X0056627Y0055935D03*
X0057377Y0041685D03*
X0058877Y0041685D03*
D96*
X0063589Y0043474D03*
D86*
X0061673Y0043474D03*
D95*
X0063589Y0039485D03*
X0061673Y0039485D03*
D67*
X0064704Y0043525D03*
X0065806Y0043525D03*
D95*
X0048177Y0037007D03*
X0053239Y0037007D03*
D86*
X0049823Y0037007D03*
X0051594Y0037007D03*
D66*
X0052661Y0027559D02*
X0053400Y0027559D01*
X0053400Y0028559D02*
X0052661Y0028559D01*
X0047495Y0027559D02*
X0046755Y0027559D01*
X0046755Y0028559D02*
X0047495Y0028559D01*
X0052661Y0020275D02*
X0053400Y0020275D01*
X0053400Y0021275D02*
X0052661Y0021275D01*
X0047495Y0020275D02*
X0046755Y0020275D01*
X0046755Y0021275D02*
X0047495Y0021275D01*
D90*
X0062864Y0020428D03*
X0061864Y0020428D03*
X0060864Y0020428D03*
X0059864Y0020428D03*
X0058864Y0020428D03*
X0057864Y0020428D03*
X0066545Y0037187D03*
X0065545Y0037187D03*
X0064545Y0037187D03*
X0063545Y0037187D03*
X0062545Y0037187D03*
X0061545Y0037187D03*
D95*
X0038877Y0022597D03*
X0044377Y0022597D03*
X0055787Y0022597D03*
X0061496Y0022597D03*
G04 next file*
G04 EAGLE Gerber RS-274X export*
G75*
G01*
D107*
X0072440Y0019685D02*
X0092666Y0034820D03*
X0092666Y0036789D03*
D108*
X0104431Y0044698D03*
D109*
X0105218Y0044698D03*
D108*
X0083225Y0045609D03*
D109*
X0082438Y0045609D03*
D110*
X0099195Y0042398D03*
X0100298Y0042398D03*
D107*
X0103263Y0043021D03*
X0105231Y0043021D03*
X0093211Y0045221D03*
X0091242Y0045221D03*
D108*
X0085109Y0039738D03*
D109*
X0085109Y0040526D03*
D108*
X0103471Y0052455D03*
D109*
X0104259Y0052455D03*
D108*
X0106341Y0050298D03*
D109*
X0105553Y0050298D03*
D107*
X0096248Y0044936D03*
X0098216Y0044936D03*
D108*
X0083310Y0043247D03*
D109*
X0082523Y0043247D03*
D107*
X0098340Y0040576D03*
X0098340Y0038607D03*
D108*
X0080449Y0042148D03*
D109*
X0080449Y0041360D03*
D108*
X0087358Y0034598D03*
D109*
X0086570Y0034598D03*
D111*
X0095725Y0036829D03*
X0095725Y0035727D03*
D108*
X0083308Y0057709D03*
D109*
X0082521Y0057709D03*
D110*
X0079700Y0055725D03*
X0080802Y0055725D03*
X0088167Y0023246D03*
X0089269Y0023246D03*
D108*
X0088311Y0025391D03*
D109*
X0089098Y0025391D03*
D108*
X0080444Y0057703D03*
D109*
X0079656Y0057703D03*
D110*
X0083500Y0054098D03*
X0082398Y0054098D03*
D112*
X0086533Y0020500D03*
D113*
X0085533Y0020500D03*
D112*
X0082556Y0056025D03*
D113*
X0083557Y0056025D03*
D114*
X0092960Y0038256D03*
X0092960Y0040303D03*
X0092461Y0038256D03*
X0093461Y0038256D03*
X0093961Y0038256D03*
X0092461Y0040303D03*
X0093461Y0040303D03*
X0093961Y0040303D03*
X0094961Y0038256D03*
X0094961Y0040303D03*
X0094461Y0038256D03*
X0095460Y0038256D03*
X0094461Y0040303D03*
X0095460Y0040303D03*
X0100718Y0046348D03*
X0100718Y0048396D03*
X0100218Y0046348D03*
X0101218Y0046348D03*
X0101717Y0046348D03*
X0100218Y0048396D03*
X0101218Y0048396D03*
X0101717Y0048396D03*
X0102718Y0046348D03*
X0102718Y0048396D03*
X0102218Y0046348D03*
X0103218Y0046348D03*
X0102218Y0048396D03*
X0103218Y0048396D03*
D115*
X0076624Y0028301D02*
X0075856Y0028301D01*
X0075856Y0034690D02*
X0076624Y0034690D01*
X0080856Y0028301D02*
X0081624Y0028301D01*
X0081624Y0034690D02*
X0080856Y0034690D01*
D116*
X0088512Y0030219D03*
X0087251Y0030219D03*
X0086386Y0030219D03*
X0085519Y0030219D03*
X0088512Y0028133D03*
X0087251Y0028133D03*
X0086386Y0028133D03*
X0085519Y0028133D03*
D117*
X0092750Y0020978D03*
X0094553Y0020978D03*
D118*
X0093168Y0030832D03*
X0094168Y0030832D03*
X0094168Y0033589D03*
X0093168Y0033589D03*
D115*
X0103100Y0034690D02*
X0103867Y0034690D01*
X0103867Y0028301D02*
X0103100Y0028301D01*
X0098867Y0034690D02*
X0098100Y0034690D01*
X0098100Y0028301D02*
X0098867Y0028301D01*
D119*
X0100275Y0044290D03*
X0099155Y0044290D03*
D120*
X0101984Y0050871D03*
X0100252Y0051373D03*
X0101984Y0051874D03*
X0086759Y0045527D03*
X0085027Y0046028D03*
X0086759Y0046529D03*
D121*
X0093561Y0044124D03*
X0093561Y0043004D03*
D119*
X0093512Y0041731D03*
X0092393Y0041731D03*
D120*
X0086792Y0043682D03*
X0085060Y0044185D03*
X0086792Y0044686D03*
D119*
X0096224Y0046708D03*
X0097344Y0046708D03*
X0104298Y0049821D03*
X0103179Y0049821D03*
X0101209Y0052958D03*
X0100089Y0052958D03*
D122*
X0104365Y0046616D03*
X0104867Y0048348D03*
X0105368Y0046616D03*
D121*
X0106477Y0047673D03*
X0106477Y0046553D03*
X0083779Y0035205D03*
X0083779Y0034085D03*
D120*
X0075511Y0042401D03*
X0073779Y0042901D03*
X0075511Y0043403D03*
D123*
X0094225Y0029026D03*
X0094225Y0027924D03*
D119*
X0099170Y0043346D03*
X0100290Y0043346D03*
X0104248Y0050789D03*
X0103129Y0050789D03*
X0100287Y0045174D03*
X0099167Y0045174D03*
D124*
X0093610Y0026525D03*
X0092507Y0026525D03*
D119*
X0102352Y0044284D03*
X0101232Y0044284D03*
X0104384Y0040149D03*
X0103265Y0040149D03*
X0104302Y0041830D03*
X0103182Y0041830D03*
D124*
X0092507Y0025112D03*
X0093610Y0025112D03*
D123*
X0095696Y0029031D03*
X0095696Y0027930D03*
D119*
X0090306Y0035039D03*
X0091425Y0035039D03*
X0101237Y0045175D03*
X0102356Y0045175D03*
X0094708Y0041708D03*
X0095828Y0041708D03*
D121*
X0094603Y0035693D03*
X0094603Y0036812D03*
D119*
X0092646Y0046211D03*
X0091526Y0046211D03*
X0093795Y0046905D03*
X0094914Y0046905D03*
D125*
X0085098Y0021644D03*
X0086893Y0021644D03*
D126*
X0085996Y0024518D03*
D127*
X0096357Y0025057D03*
X0096357Y0024557D03*
X0096357Y0024057D03*
X0096357Y0023557D03*
X0099277Y0023557D03*
X0099277Y0024057D03*
X0099277Y0024557D03*
X0099277Y0025057D03*
D128*
X0079055Y0037007D03*
X0078070Y0037007D03*
X0077086Y0037007D03*
D129*
X0079803Y0039763D03*
X0076338Y0039763D03*
D130*
X0078070Y0039763D03*
D131*
X0085523Y0055825D03*
D132*
X0085523Y0058003D03*
D133*
X0090557Y0029807D03*
X0090557Y0028075D03*
D134*
X0085637Y0026175D03*
X0086637Y0026175D03*
D135*
X0105687Y0040944D02*
X0106281Y0040944D01*
X0106281Y0041731D02*
X0105687Y0041731D01*
X0105687Y0037795D02*
X0106281Y0037795D01*
X0106281Y0040157D02*
X0105687Y0040157D01*
X0105687Y0039369D02*
X0106281Y0039369D01*
X0106281Y0038582D02*
X0105687Y0038582D01*
D136*
X0101653Y0042125D03*
X0101653Y0037401D03*
D130*
X0101653Y0039763D03*
D137*
X0102334Y0026049D02*
X0103074Y0026049D01*
X0103074Y0025049D02*
X0102334Y0025049D01*
X0102334Y0024049D02*
X0103074Y0024049D01*
X0103074Y0023049D02*
X0102334Y0023049D01*
X0102334Y0022049D02*
X0103074Y0022049D01*
X0103074Y0021049D02*
X0102334Y0021049D01*
D115*
X0078220Y0024232D02*
X0078220Y0025000D01*
X0079480Y0025000D02*
X0079480Y0024232D01*
X0080740Y0024232D02*
X0080740Y0025000D01*
X0080740Y0026181D02*
X0080740Y0026948D01*
X0079480Y0026948D02*
X0079480Y0026181D01*
X0078220Y0026181D02*
X0078220Y0026948D01*
D138*
X0077236Y0024409D03*
X0081724Y0026770D03*
D139*
X0076692Y0057480D03*
X0103070Y0057480D03*
D107*
X0100088Y0049871D03*
X0102057Y0049871D03*
D140*
X0106115Y0055118D03*
X0073642Y0055118D03*
D141*
X0092794Y0029031D03*
X0092044Y0028532D03*
X0092794Y0028032D03*
D139*
X0074291Y0022618D03*
X0105433Y0022618D03*
D142*
X0086792Y0057417D03*
X0086792Y0056391D03*
X0096317Y0020978D03*
X0090986Y0020978D03*
D110*
X0086251Y0054055D03*
X0085149Y0054055D03*
D124*
X0093610Y0023699D03*
X0092507Y0023699D03*
D121*
X0092391Y0042989D03*
X0092391Y0044109D03*
D112*
X0088573Y0044922D03*
D113*
X0088573Y0043922D03*
D112*
X0090056Y0043804D03*
D113*
X0090056Y0044804D03*
D112*
X0098086Y0042078D03*
D113*
X0097086Y0042078D03*
D112*
X0097003Y0043531D03*
D113*
X0098003Y0043531D03*
D107*
X0088440Y0046142D03*
X0090408Y0046142D03*
D119*
X0080934Y0045548D03*
X0079814Y0045548D03*
X0079838Y0043996D03*
X0080958Y0043996D03*
D128*
X0087106Y0040748D03*
X0087106Y0039763D03*
X0087106Y0038779D03*
D143*
X0089862Y0041496D03*
X0089862Y0038031D03*
D130*
X0089862Y0039763D03*
D120*
X0086785Y0041804D03*
X0085053Y0042305D03*
X0086785Y0042806D03*
D121*
X0091449Y0038055D03*
X0091449Y0039175D03*
X0096324Y0038140D03*
X0096324Y0039260D03*
D114*
X0078277Y0043906D03*
X0078277Y0041859D03*
X0078776Y0043906D03*
X0077777Y0043906D03*
X0077277Y0043906D03*
X0078776Y0041859D03*
X0077777Y0041859D03*
X0077277Y0041859D03*
D110*
X0098390Y0022057D03*
X0097287Y0022057D03*
D131*
X0091251Y0031509D03*
X0089578Y0031509D03*
D142*
X0091251Y0033216D03*
X0089561Y0033203D03*
D121*
X0088581Y0039661D03*
X0088581Y0040781D03*
D144*
X0097937Y0051219D02*
X0098707Y0051219D01*
X0098707Y0050218D02*
X0097937Y0050218D01*
X0097937Y0049219D02*
X0098707Y0049219D01*
X0079416Y0051219D02*
X0078646Y0051219D01*
X0078646Y0050218D02*
X0079416Y0050218D01*
X0079416Y0049219D02*
X0078646Y0049219D01*
X0088842Y0053547D02*
X0088842Y0054317D01*
X0089842Y0054317D02*
X0089842Y0053547D01*
X0090841Y0053547D02*
X0090841Y0054317D01*
D128*
X0090846Y0051968D03*
X0089862Y0051968D03*
X0088877Y0051968D03*
D145*
X0091594Y0049212D03*
X0088129Y0049212D03*
D130*
X0089862Y0049212D03*
D146*
X0094637Y0043852D02*
X0095197Y0043852D01*
X0095197Y0044852D02*
X0094637Y0044852D01*
X0094637Y0045852D02*
X0095197Y0045852D01*
M02*