%MOIN*%
%OFA0B0*%
%FSLAX34Y34*%
%IPPOS*%
%LPD*%
%AMOC8*
5,1,8,0,0,$1,22.5*%
%AMOC80*
5,1,8,0,0,$1,22.5*%
%AMOC81*
5,1,8,0,0,$1,22.5*%
%AMOC800*
5,1,8,0,0,$1,22.5*%
%ADD10C,0.045000000000000005*%
%ADD11R,0.08X0.026000000000000002*%
%ADD12R,0.070984251968503942X0.062992125984251982*%
%ADD13R,0.062992125984251982X0.070984251968503942*%
%ADD14C,0.055433070866141729*%
%ADD15R,0.055433070866141729X0.055433070866141729*%
%ADD16R,0.086000000000000007X0.052000000000000005*%
%ADD17C,0.077*%
%ADD18C,0.052000000000000005*%
%ADD19R,0.052000000000000005X0.086000000000000007*%
%ADD20C,0.006000000000000001*%
%ADD21C,0.029779527559055118*%
%ADD22C,0.008*%
%ADD33R,0.086000000000000007X0.052000000000000005*%
%ADD34C,0.045000000000000005*%
%ADD35R,0.062992125984251982X0.070984251968503942*%
%ADD36R,0.053149606299212608X0.053149606299212608*%
%ADD37C,0.053149606299212608*%
%ADD38C,0.074*%
%ADD39P,0.056284291338582683X8X292.5*%
%ADD40R,0.070984251968503942X0.062992125984251982*%
%ADD41C,0.055433070866141729*%
%ADD42R,0.055433070866141729X0.055433070866141729*%
%ADD43P,0.056284291338582683X8X112.5*%
%ADD44C,0.077*%
%ADD45R,0.052000000000000005X0.086000000000000007*%
%ADD46C,0.056000000000000008*%
%ADD47C,0.006000000000000001*%
%ADD48C,0.029779527559055118*%
%ADD49C,0.008*%
%ADD60R,0.053149606299212608X0.053149606299212608*%
%ADD61C,0.053149606299212608*%
%ADD62R,0.03937007874015748X0.043307086614173235*%
%ADD63C,0.065*%
%ADD64R,0.070866141732283464X0.062992125984251982*%
%ADD65C,0.045000000000000005*%
%ADD66R,0.062992125984251982X0.070866141732283464*%
%ADD67C,0.055433070866141729*%
%ADD68R,0.055433070866141729X0.055433070866141729*%
%ADD69R,0.024000000000000004X0.087000000000000008*%
%ADD70C,0.074*%
%ADD71R,0.062992125984251982X0.07874015748031496*%
%ADD72R,0.07874015748031496X0.062992125984251982*%
%ADD73R,0.052000000000000005X0.086000000000000007*%
%ADD74R,0.074X0.074*%
%ADD75P,0.12784133858267718X8X22.5*%
%ADD76R,0.052000000000000005X0.052000000000000005*%
%ADD77C,0.052000000000000005*%
%ADD78R,0.078000000000000014X0.022*%
%ADD79R,0.05X0.022*%
%ADD80R,0.022X0.05*%
%ADD81P,0.12784133858267718X8X112.5*%
%ADD82P,0.12784133858267718X8X202.5*%
%ADD83P,0.12784133858267718X8X292.5*%
%ADD84R,0.12204724409448819X0.031496062992125991*%
%ADD85R,0.05X0.1*%
%ADD86C,0.076771653543307089*%
%ADD87R,0.062992125984251982X0.03937007874015748*%
%ADD88R,0.24409448818897639X0.21259842519685043*%
%ADD89P,0.092003149606299212X8X22.5*%
%ADD90R,0.094488188976377951X0.094488188976377951*%
%ADD91R,0.05X0.05*%
%ADD92C,0.032*%
%ADD93C,0.074*%
%ADD94R,0.2X0.1*%
%ADD95P,0.056284291338582683X8X22.5*%
%ADD96R,0.067716535433070865X0.023622047244094488*%
%ADD97P,0.092003149606299212X8X202.5*%
%ADD98C,0.008*%
%ADD99C,0.023811023622047244*%
%ADD110C,0.045000000000000005*%
%ADD111R,0.053149606299212608X0.053149606299212608*%
%ADD112C,0.053149606299212608*%
%ADD113R,0.062992125984251982X0.070866141732283464*%
%ADD114R,0.070866141732283464X0.062992125984251982*%
%ADD115C,0.055433070866141729*%
%ADD116R,0.055433070866141729X0.055433070866141729*%
%ADD117R,0.023622047244094488X0.086614173228346469*%
%ADD118C,0.076771653543307089*%
%ADD119R,0.031496062992125991X0.12204724409448819*%
%ADD120P,0.092003149606299212X8X112.5*%
%ADD121R,0.05X0.1*%
%ADD122R,0.062992125984251982X0.070984251968503942*%
%ADD123R,0.086000000000000007X0.052000000000000005*%
%ADD124R,0.070984251968503942X0.062992125984251982*%
%ADD125R,0.052000000000000005X0.086000000000000007*%
%ADD126R,0.07874015748031496X0.062992125984251982*%
%ADD127R,0.062992125984251982X0.07874015748031496*%
%ADD128R,0.03937007874015748X0.062992125984251982*%
%ADD129R,0.21259842519685043X0.24409448818897639*%
%ADD130R,0.061000000000000006X0.021*%
%ADD131R,0.074X0.074*%
%ADD132P,0.12784133858267718X8X292.5*%
%ADD133P,0.092003149606299212X8X22.5*%
%ADD134P,0.092003149606299212X8X202.5*%
%ADD135R,0.094488188976377951X0.094488188976377951*%
%ADD136R,0.05X0.05*%
%ADD137C,0.032*%
%ADD138C,0.059370078740157484*%
%ADD139P,0.16235850393700788X8X292.5*%
%ADD140C,0.074*%
%ADD141R,0.2X0.1*%
%ADD142P,0.056284291338582683X8X112.5*%
%ADD143P,0.12784133858267718X8X202.5*%
%ADD144C,0.077*%
%ADD145P,0.12784133858267718X8X112.5*%
%ADD146C,0.056000000000000008*%
%ADD147C,0.008*%
%ADD148C,0.023811023622047244*%
%ADD149C,0.025779527559055122*%
%LPD*%
G75*
G01*
D10*
X-0005118Y0016141D02*
X0015596Y0025114D03*
X0017565Y0025114D03*
X0014431Y0024165D03*
X0014431Y0022195D03*
X0011707Y0027000D03*
X0009738Y0027000D03*
X0007651Y0028007D03*
X0005683Y0028007D03*
X0017455Y0026243D03*
X0015486Y0026243D03*
X0011636Y0025740D03*
X0009667Y0025740D03*
X0008577Y0024322D03*
X0008577Y0022354D03*
D11*
X0013279Y0022139D03*
X0010859Y0022139D03*
X0013279Y0022639D03*
X0013279Y0023139D03*
X0010859Y0022639D03*
X0010859Y0023139D03*
X0013279Y0023639D03*
X0010859Y0023639D03*
D12*
X0014353Y0026789D03*
X0014353Y0027908D03*
X0013208Y0027900D03*
X0013208Y0026782D03*
D13*
X0010759Y0028184D03*
X0009639Y0028184D03*
X0014399Y0025678D03*
X0013281Y0025678D03*
D12*
X0009829Y0023405D03*
X0009829Y0022286D03*
D13*
X0017018Y0023940D03*
X0015899Y0023940D03*
X0009962Y0024539D03*
X0011081Y0024539D03*
D14*
X0017045Y0021578D03*
D15*
X0016045Y0021578D03*
D14*
X0015978Y0022897D03*
D15*
X0016978Y0022897D03*
D14*
X0018144Y0023903D03*
D15*
X0018144Y0022902D03*
D14*
X0017994Y0021665D03*
D15*
X0018994Y0021665D03*
D16*
X0024258Y0028059D03*
X0025990Y0027559D03*
X0024258Y0027056D03*
D13*
X0022250Y0025966D03*
X0021130Y0025966D03*
D14*
X0022939Y0028220D03*
D15*
X0022939Y0027219D03*
D14*
X0021931Y0027063D03*
D15*
X0021931Y0028062D03*
D17*
X0025177Y0025044D02*
X0025947Y0025044D01*
X0025947Y0024044D02*
X0025177Y0024044D01*
X0025177Y0023043D02*
X0025947Y0023043D01*
X0006655Y0025044D02*
X0005886Y0025044D01*
X0005886Y0024044D02*
X0006655Y0024044D01*
X0006655Y0023043D02*
X0005886Y0023043D01*
X0016082Y0027372D02*
X0016082Y0028142D01*
X0017082Y0028142D02*
X0017082Y0027372D01*
X0018082Y0027372D02*
X0018082Y0028142D01*
D10*
X0021183Y0024603D03*
X0023151Y0024603D03*
D13*
X0013236Y0024501D03*
X0012117Y0024501D03*
D18*
X0023295Y0021953D02*
X0023815Y0021953D01*
X0023815Y0022953D02*
X0023295Y0022953D01*
X0020815Y0022953D02*
X0020295Y0022953D01*
X0020295Y0021953D02*
X0020815Y0021953D01*
D19*
X0019032Y0026025D03*
X0019534Y0027758D03*
X0020035Y0026025D03*
D12*
X0020881Y0027058D03*
X0020881Y0028177D03*
D10*
X0019334Y0024799D03*
X0019334Y0022830D03*
X0024063Y0026134D03*
X0026031Y0026134D03*
D20*
X0010841Y0022161D02*
X0010541Y0022161D01*
X0010301Y0022401D01*
X0010301Y0022641D01*
X0010001Y0022940D01*
X0006341Y0022940D01*
X0006281Y0023001D01*
X0010841Y0022161D02*
X0010859Y0022139D01*
X0006281Y0023001D02*
X0006271Y0023043D01*
X0012641Y0023661D02*
X0013241Y0023661D01*
X0013279Y0023639D01*
D21*
X0012641Y0023661D03*
D20*
X0012101Y0024501D02*
X0011141Y0024501D01*
X0012101Y0024501D02*
X0012117Y0024501D01*
X0011141Y0024501D02*
X0011081Y0024539D01*
X0010901Y0024321D02*
X0010901Y0023661D01*
X0010901Y0024321D02*
X0011081Y0024501D01*
X0010901Y0023661D02*
X0010859Y0023639D01*
X0011081Y0024501D02*
X0011081Y0024539D01*
X0011081Y0024561D02*
X0011081Y0024801D01*
X0009821Y0026061D01*
X0008381Y0026061D01*
X0006401Y0024081D01*
X0006281Y0024081D01*
X0011081Y0024539D02*
X0011081Y0024561D01*
X0006281Y0024081D02*
X0006271Y0024044D01*
X0023561Y0022940D02*
X0023561Y0022761D01*
X0024221Y0022101D01*
X0024221Y0021861D01*
X0023381Y0021021D01*
X0007181Y0021021D01*
X0005381Y0022820D01*
X0005381Y0023241D01*
X0006221Y0024081D01*
X0023555Y0022953D02*
X0023561Y0022940D01*
X0006271Y0024044D02*
X0006221Y0024081D01*
X0022780Y0023727D02*
X0023555Y0022953D01*
X0022780Y0023727D02*
X0022780Y0025581D01*
X0024258Y0027056D01*
D22*
X0024063Y0026862D02*
X0024063Y0026134D01*
X0024063Y0026862D02*
X0024258Y0027056D01*
D20*
X0025560Y0027159D02*
X0025560Y0025118D01*
X0025601Y0025101D01*
X0025560Y0027159D02*
X0025990Y0027559D01*
X0025601Y0025101D02*
X0025562Y0025044D01*
X0013181Y0026841D02*
X0011861Y0026841D01*
X0011741Y0026961D01*
X0013181Y0026841D02*
X0013208Y0026782D01*
X0011741Y0026961D02*
X0011707Y0027000D01*
X0009641Y0027081D02*
X0009641Y0028041D01*
X0009641Y0028160D01*
X0009641Y0027081D02*
X0009701Y0027021D01*
X0009641Y0028160D02*
X0009639Y0028184D01*
X0009701Y0027021D02*
X0009738Y0027000D01*
X0009641Y0028041D02*
X0007661Y0028041D01*
X0007651Y0028007D01*
X0009641Y0028041D02*
X0009639Y0028184D01*
X0014441Y0025701D02*
X0014921Y0025701D01*
X0015461Y0026241D01*
X0014441Y0025701D02*
X0014399Y0025678D01*
X0015461Y0026241D02*
X0015486Y0026243D01*
X0013241Y0025701D02*
X0011681Y0025701D01*
X0013241Y0025701D02*
X0013281Y0025678D01*
X0011681Y0025701D02*
X0011636Y0025740D01*
X0013301Y0022161D02*
X0014381Y0022161D01*
X0013301Y0022161D02*
X0013279Y0022139D01*
X0014381Y0022161D02*
X0014431Y0022195D01*
X0015581Y0024441D02*
X0015581Y0025101D01*
X0015581Y0024441D02*
X0014441Y0023301D01*
X0014441Y0022221D01*
X0015581Y0025101D02*
X0015596Y0025114D01*
X0014441Y0022221D02*
X0014431Y0022195D01*
X0009881Y0024321D02*
X0009881Y0024441D01*
X0009881Y0024321D02*
X0009881Y0023421D01*
X0009881Y0024441D02*
X0009941Y0024501D01*
X0009881Y0023421D02*
X0009829Y0023405D01*
X0009941Y0024501D02*
X0009962Y0024539D01*
X0009881Y0024321D02*
X0008621Y0024321D01*
X0008577Y0024322D01*
X0009881Y0024321D02*
X0009962Y0024539D01*
X0009701Y0024801D02*
X0009701Y0025701D01*
X0009701Y0024801D02*
X0009941Y0024561D01*
X0009701Y0025701D02*
X0009667Y0025740D01*
X0009941Y0024561D02*
X0009962Y0024539D01*
X0015880Y0023901D02*
X0015880Y0023361D01*
X0014801Y0022281D01*
X0014801Y0022101D01*
X0014561Y0021861D01*
X0012581Y0021861D01*
X0011321Y0023121D01*
X0010901Y0023121D01*
X0015880Y0023901D02*
X0015899Y0023940D01*
X0010901Y0023121D02*
X0010859Y0023139D01*
X0010301Y0023361D02*
X0009881Y0023361D01*
X0010301Y0023361D02*
X0010481Y0023181D01*
X0010841Y0023181D01*
X0009881Y0023361D02*
X0009829Y0023405D01*
X0010841Y0023181D02*
X0010859Y0023139D01*
X0016000Y0022881D02*
X0016000Y0021621D01*
X0016000Y0022881D02*
X0015978Y0022897D01*
X0016000Y0021621D02*
X0016045Y0021578D01*
X0018041Y0021681D02*
X0018041Y0022820D01*
X0018101Y0022881D01*
X0018041Y0021681D02*
X0017994Y0021665D01*
X0018101Y0022881D02*
X0018144Y0022902D01*
X0017021Y0022940D02*
X0017021Y0023901D01*
X0017021Y0022940D02*
X0016978Y0022897D01*
X0017021Y0023901D02*
X0018101Y0023901D01*
X0018144Y0023903D01*
X0017021Y0023901D02*
X0017018Y0023940D01*
X0013601Y0022641D02*
X0013301Y0022641D01*
X0013601Y0022641D02*
X0014381Y0023421D01*
X0014381Y0024141D01*
X0013301Y0022641D02*
X0013279Y0022639D01*
X0014381Y0024141D02*
X0014431Y0024165D01*
X0014321Y0026781D02*
X0013241Y0027860D01*
X0013208Y0027900D01*
X0012941Y0028160D02*
X0010781Y0028160D01*
X0012941Y0028160D02*
X0013181Y0027921D01*
X0010781Y0028160D02*
X0010759Y0028184D01*
X0013181Y0027921D02*
X0013208Y0027900D01*
X0014381Y0024861D02*
X0014381Y0024201D01*
X0014381Y0024861D02*
X0013960Y0025280D01*
X0013960Y0026421D01*
X0014321Y0026781D01*
X0014381Y0024201D02*
X0014431Y0024165D01*
X0014321Y0026781D02*
X0014353Y0026789D01*
X0023201Y0024561D02*
X0025061Y0024561D01*
X0025541Y0024081D01*
X0023201Y0024561D02*
X0023151Y0024603D01*
X0025541Y0024081D02*
X0025562Y0024044D01*
X0025601Y0024021D02*
X0025601Y0023060D01*
X0025562Y0023043D01*
X0025601Y0024021D02*
X0025562Y0024044D01*
X0009821Y0022341D02*
X0008621Y0022341D01*
X0009821Y0022341D02*
X0009829Y0022286D01*
X0008621Y0022341D02*
X0008577Y0022354D01*
X0010901Y0022581D02*
X0011261Y0022581D01*
X0011380Y0022461D01*
X0011380Y0021981D01*
X0011261Y0021861D01*
X0010301Y0021861D01*
X0009881Y0022281D01*
X0010859Y0022639D02*
X0010901Y0022581D01*
X0009881Y0022281D02*
X0009829Y0022286D01*
X0022660Y0022820D02*
X0023501Y0021981D01*
X0023555Y0021953D01*
X0012281Y0021981D02*
X0011380Y0021981D01*
X0012281Y0021981D02*
X0013121Y0021141D01*
X0020981Y0021141D01*
X0022639Y0022798D02*
X0022660Y0022820D01*
X0022639Y0022798D02*
X0020981Y0021141D01*
X0022639Y0025578D02*
X0022250Y0025966D01*
X0022639Y0025578D02*
X0022639Y0022798D01*
X0020501Y0021921D02*
X0019241Y0021921D01*
X0019001Y0021681D01*
X0020501Y0021921D02*
X0020555Y0021953D01*
X0019001Y0021681D02*
X0018994Y0021665D01*
X0017561Y0021561D02*
X0017081Y0021561D01*
X0017561Y0021561D02*
X0017861Y0021261D01*
X0018581Y0021261D01*
X0018941Y0021621D01*
X0017081Y0021561D02*
X0017045Y0021578D01*
X0018941Y0021621D02*
X0018994Y0021665D01*
X0020555Y0022953D02*
X0020560Y0023001D01*
X0021881Y0028041D02*
X0021931Y0028062D01*
X0022001Y0028160D02*
X0022900Y0028160D01*
X0022001Y0028160D02*
X0021941Y0028101D01*
X0022900Y0028160D02*
X0022923Y0028195D01*
X0022939Y0028220D01*
X0021941Y0028101D02*
X0021932Y0028067D01*
X0021931Y0028062D01*
X0021932Y0028067D02*
X0021899Y0028067D01*
X0021845Y0024243D02*
X0020555Y0022953D01*
X0023582Y0026719D02*
X0023582Y0027536D01*
X0022923Y0028195D01*
X0021845Y0026359D02*
X0021845Y0024243D01*
X0021845Y0026359D02*
X0022204Y0026719D01*
X0023582Y0026719D01*
X0021932Y0027063D02*
X0021931Y0027063D01*
X0021932Y0027063D02*
X0022780Y0027063D01*
X0022939Y0027219D01*
X0021158Y0025999D02*
X0021130Y0025966D01*
X0021158Y0025999D02*
X0022002Y0026993D01*
X0021932Y0027063D01*
X0021131Y0026025D02*
X0020035Y0026025D01*
X0021131Y0026025D02*
X0021158Y0025999D01*
X0017441Y0026301D02*
X0016120Y0027621D01*
X0016120Y0027740D01*
X0017441Y0026301D02*
X0017455Y0026243D01*
X0016120Y0027740D02*
X0016082Y0027757D01*
X0017621Y0025941D02*
X0017621Y0025160D01*
X0017621Y0025941D02*
X0017801Y0026121D01*
X0017801Y0026961D01*
X0017141Y0027621D01*
X0017141Y0027740D01*
X0017621Y0025160D02*
X0017565Y0025114D01*
X0017141Y0027740D02*
X0017082Y0027757D01*
X0014381Y0027860D02*
X0017201Y0025041D01*
X0017201Y0024981D01*
X0017441Y0024741D01*
X0017681Y0024741D01*
X0018041Y0025101D01*
X0018041Y0027740D01*
X0014381Y0027860D02*
X0014353Y0027908D01*
X0018041Y0027740D02*
X0018082Y0027757D01*
X0013781Y0023901D02*
X0013241Y0024441D01*
X0013781Y0023661D02*
X0013781Y0023301D01*
X0013781Y0023661D02*
X0013781Y0023901D01*
X0013781Y0023301D02*
X0013661Y0023181D01*
X0013301Y0023181D01*
X0013241Y0024441D02*
X0013236Y0024501D01*
X0013301Y0023181D02*
X0013279Y0023139D01*
X0013781Y0023661D02*
X0014141Y0023661D01*
D21*
X0014141Y0023661D03*
D20*
X0019534Y0027758D02*
X0020235Y0027058D01*
X0020881Y0027058D01*
X0020881Y0028177D02*
X0021364Y0028177D01*
X0021774Y0028587D01*
X0023845Y0028587D01*
X0024424Y0028008D02*
X0024424Y0027924D01*
X0024258Y0028175D02*
X0023845Y0028587D01*
X0024258Y0028175D02*
X0024258Y0028059D01*
D22*
X0026461Y0027919D02*
X0026520Y0027860D01*
X0026520Y0027256D01*
X0024399Y0027919D02*
X0024258Y0028059D01*
X0024399Y0027919D02*
X0026461Y0027919D01*
X0026520Y0027256D02*
X0026031Y0026768D01*
X0026031Y0026134D01*
D20*
X0019334Y0024799D02*
X0019032Y0025099D01*
X0019032Y0026025D01*
G75*
G01*
D33*
X0001968Y0050000D02*
X0023844Y0057417D03*
X0025577Y0056917D03*
X0023844Y0056416D03*
D34*
X0022314Y0053644D03*
X0022314Y0055612D03*
D35*
X0020315Y0057261D03*
X0019195Y0057261D03*
D36*
X0018296Y0054922D03*
D37*
X0017509Y0054922D03*
D38*
X0018593Y0051018D03*
X0017843Y0051518D03*
X0018593Y0052018D03*
D39*
X0020358Y0050961D03*
X0021107Y0051462D03*
X0020358Y0051962D03*
D36*
X0022464Y0051481D03*
D37*
X0023252Y0051481D03*
D35*
X0017453Y0053160D03*
X0018573Y0053160D03*
D40*
X0016856Y0050909D03*
X0016856Y0052028D03*
D34*
X0015665Y0053282D03*
X0015665Y0055250D03*
D40*
X0009573Y0051997D03*
X0009573Y0050877D03*
D34*
X0012517Y0055231D03*
X0012517Y0053263D03*
D41*
X0010511Y0050922D03*
D42*
X0011511Y0050922D03*
D41*
X0011660Y0052047D03*
D42*
X0010660Y0052047D03*
D36*
X0014299Y0057417D03*
D37*
X0014299Y0056630D03*
D40*
X0012802Y0057544D03*
X0012802Y0056424D03*
D33*
X0011718Y0056472D03*
X0009986Y0056974D03*
X0011718Y0057474D03*
D43*
X0006225Y0057629D03*
X0006225Y0056628D03*
X0006225Y0055628D03*
D38*
X0003947Y0056308D03*
X0003447Y0055559D03*
X0002948Y0056308D03*
D36*
X0007892Y0054886D03*
D37*
X0008680Y0054886D03*
D40*
X0015633Y0050909D03*
X0015633Y0052028D03*
X0008650Y0051997D03*
X0008650Y0050877D03*
D35*
X0002770Y0057570D03*
X0003890Y0057570D03*
D40*
X0009968Y0055559D03*
X0009968Y0054439D03*
X0005011Y0055940D03*
X0005011Y0057059D03*
X0007765Y0050857D03*
X0007765Y0051977D03*
D41*
X0004029Y0053561D03*
D42*
X0004029Y0054561D03*
D41*
X0002943Y0054700D03*
D42*
X0002943Y0053700D03*
D34*
X0002867Y0050735D03*
X0002867Y0052703D03*
D36*
X0008424Y0057446D03*
D37*
X0008424Y0056658D03*
D34*
X0010968Y0055326D03*
X0010968Y0053358D03*
X0009782Y0053228D03*
X0007813Y0053228D03*
X0014097Y0053301D03*
X0014097Y0055269D03*
D41*
X0013511Y0050968D03*
D42*
X0014511Y0050968D03*
D41*
X0014668Y0052046D03*
D42*
X0013667Y0052046D03*
D35*
X0021408Y0057261D03*
X0022528Y0057261D03*
D40*
X0012573Y0051966D03*
X0012573Y0050847D03*
D44*
X0024853Y0054446D02*
X0025623Y0054446D01*
X0025623Y0053446D02*
X0024853Y0053446D01*
X0024853Y0052446D02*
X0025623Y0052446D01*
X0006331Y0054446D02*
X0005561Y0054446D01*
X0005561Y0053446D02*
X0006331Y0053446D01*
X0006331Y0052446D02*
X0005561Y0052446D01*
X0015756Y0056773D02*
X0015756Y0057544D01*
X0016757Y0057544D02*
X0016757Y0056773D01*
X0017757Y0056773D02*
X0017757Y0057544D01*
D45*
X0020867Y0055405D03*
X0020366Y0053673D03*
X0019864Y0055405D03*
D34*
X0003891Y0050747D03*
X0003891Y0052714D03*
D46*
X0005737Y0051373D02*
X0005737Y0050813D01*
X0006737Y0050813D02*
X0006737Y0051373D01*
D47*
X0005968Y0052440D02*
X0005946Y0052446D01*
X0007765Y0051977D02*
X0007765Y0051946D01*
X0007765Y0051762D01*
X0008650Y0050877D01*
X0007266Y0052446D02*
X0005946Y0052446D01*
X0007266Y0052446D02*
X0007765Y0051946D01*
X0012573Y0052020D02*
X0012868Y0052020D01*
X0012573Y0052020D02*
X0012573Y0051966D01*
X0021988Y0053820D02*
X0022648Y0054480D01*
X0021988Y0053820D02*
X0021988Y0052800D01*
X0022498Y0057292D02*
X0022500Y0057452D01*
X0022498Y0057292D02*
X0022498Y0057135D01*
X0022528Y0057261D01*
X0002788Y0057599D02*
X0002788Y0058140D01*
X0002788Y0057599D02*
X0002770Y0057570D01*
X0011788Y0057480D02*
X0011788Y0057382D01*
D48*
X0002788Y0058140D03*
D47*
X0023252Y0051535D02*
X0023252Y0051481D01*
X0023252Y0051535D02*
X0021988Y0052800D01*
D49*
X0022648Y0054480D02*
X0022648Y0056449D01*
D47*
X0021841Y0053673D02*
X0020366Y0053673D01*
X0021841Y0053673D02*
X0021988Y0053820D01*
X0020366Y0054903D02*
X0019864Y0055405D01*
X0020366Y0054903D02*
X0020366Y0053673D01*
X0022648Y0056449D02*
X0022648Y0057145D01*
X0022498Y0057292D01*
X0008680Y0054886D02*
X0008680Y0053884D01*
X0009651Y0052913D01*
X0011171Y0052913D01*
X0011428Y0053170D01*
X0011428Y0055816D01*
X0014196Y0050601D02*
X0014825Y0050601D01*
X0014196Y0050601D02*
X0014142Y0050654D01*
X0015132Y0050909D02*
X0015633Y0050909D01*
X0015132Y0050909D02*
X0014825Y0050601D01*
X0014142Y0051570D02*
X0013687Y0052026D01*
X0013667Y0052046D01*
X0014142Y0051570D02*
X0014142Y0050654D01*
X0011428Y0055816D02*
X0011069Y0056175D01*
X0011069Y0056826D01*
X0011718Y0057474D01*
X0012573Y0051966D02*
X0013626Y0051966D01*
X0013687Y0052026D01*
X0023788Y0056460D02*
X0023832Y0056426D01*
X0023844Y0056416D01*
D48*
X0023861Y0055519D03*
D47*
X0023832Y0055548D01*
X0023832Y0056426D01*
X0025527Y0056879D02*
X0025527Y0054720D01*
X0025287Y0054480D01*
X0025527Y0056879D02*
X0025577Y0056917D01*
X0025287Y0054480D02*
X0025238Y0054446D01*
X0025048Y0053640D02*
X0022348Y0053640D01*
X0025048Y0053640D02*
X0025228Y0053460D01*
X0022348Y0053640D02*
X0022314Y0053644D01*
X0025228Y0053460D02*
X0025238Y0053446D01*
X0025228Y0053400D02*
X0025228Y0052500D01*
X0025238Y0052446D01*
X0025228Y0053400D02*
X0025238Y0053446D01*
X0022309Y0055615D02*
X0022288Y0055620D01*
X0022309Y0055615D02*
X0022314Y0055612D01*
D49*
X0022309Y0055615D02*
X0022273Y0055615D01*
D47*
X0022099Y0055405D02*
X0020867Y0055405D01*
X0022099Y0055405D02*
X0022309Y0055615D01*
X0020867Y0055405D02*
X0020867Y0056708D01*
X0020315Y0057261D01*
X0016528Y0058019D02*
X0015808Y0057300D01*
X0015808Y0057180D01*
X0015756Y0057159D01*
X0018436Y0058019D02*
X0019195Y0057261D01*
X0018436Y0058019D02*
X0016528Y0058019D01*
X0016757Y0057159D02*
X0016757Y0055673D01*
X0017509Y0054922D01*
X0016856Y0052048D02*
X0016856Y0052028D01*
X0018978Y0052769D02*
X0018978Y0053553D01*
X0018978Y0052769D02*
X0018925Y0052716D01*
X0017543Y0052716D02*
X0016856Y0052028D01*
X0018296Y0054234D02*
X0018296Y0054922D01*
X0018296Y0054234D02*
X0018978Y0053553D01*
X0018925Y0052716D02*
X0017543Y0052716D01*
X0019528Y0051960D02*
X0020308Y0051960D01*
X0019528Y0051960D02*
X0018628Y0051060D01*
X0020308Y0051960D02*
X0020358Y0051962D01*
X0018628Y0051060D02*
X0018593Y0051018D01*
X0021568Y0051540D02*
X0022408Y0051540D01*
X0021568Y0051540D02*
X0021147Y0051960D01*
X0020368Y0051960D01*
X0022408Y0051540D02*
X0022464Y0051481D01*
X0020368Y0051960D02*
X0020358Y0051962D01*
X0015688Y0055199D02*
X0015665Y0055250D01*
X0013708Y0055199D02*
X0012568Y0055199D01*
X0013708Y0055199D02*
X0014008Y0054900D01*
X0015328Y0054900D01*
X0015628Y0055199D01*
X0012568Y0055199D02*
X0012517Y0055231D01*
X0015628Y0055199D02*
X0015665Y0055250D01*
X0017738Y0051623D02*
X0017843Y0051518D01*
X0017738Y0051623D02*
X0016463Y0051623D01*
X0016287Y0051799D01*
X0016287Y0052257D01*
X0017191Y0053160D01*
X0017453Y0053160D01*
X0015665Y0054950D02*
X0015665Y0055250D01*
X0015665Y0054950D02*
X0017453Y0053160D01*
X0015208Y0052860D02*
X0015208Y0052385D01*
X0015208Y0052860D02*
X0015628Y0053280D01*
X0015208Y0052385D02*
X0015633Y0052028D01*
X0015628Y0053280D02*
X0015665Y0053282D01*
X0016255Y0051000D02*
X0016856Y0051000D01*
X0016856Y0050909D01*
X0016255Y0051000D02*
X0015633Y0052028D01*
X0019168Y0050940D02*
X0020308Y0050940D01*
X0019168Y0050940D02*
X0018748Y0050519D01*
X0016888Y0050519D01*
X0016856Y0050551D01*
X0020308Y0050940D02*
X0020358Y0050961D01*
X0016856Y0050909D02*
X0016856Y0050551D01*
X0012821Y0057524D02*
X0012802Y0057544D01*
X0012928Y0057417D01*
X0014299Y0057417D01*
X0012731Y0056460D02*
X0011721Y0056460D01*
X0012731Y0056460D02*
X0012802Y0056424D01*
X0011721Y0056460D02*
X0011718Y0056472D01*
X0013123Y0056264D02*
X0014068Y0055320D01*
X0014097Y0055269D01*
X0013123Y0056264D02*
X0012802Y0056424D01*
X0006225Y0055720D02*
X0006225Y0055628D01*
X0006225Y0055720D02*
X0006074Y0055720D01*
X0005395Y0056399D01*
X0004038Y0056399D02*
X0003947Y0056308D01*
X0004038Y0056399D02*
X0005395Y0056399D01*
X0007058Y0055720D02*
X0007892Y0054886D01*
X0007058Y0055720D02*
X0006225Y0055720D01*
X0003928Y0057599D02*
X0003890Y0057570D01*
X0009988Y0055500D02*
X0010828Y0055500D01*
X0010948Y0055380D01*
X0009988Y0055500D02*
X0009968Y0055559D01*
X0010948Y0055380D02*
X0010968Y0055326D01*
X0010648Y0053220D02*
X0009808Y0053220D01*
X0010648Y0053220D02*
X0010828Y0053040D01*
X0011128Y0053040D01*
X0011308Y0053220D01*
X0011308Y0055020D01*
X0011008Y0055320D01*
X0009808Y0053220D02*
X0009782Y0053228D01*
X0010968Y0055326D02*
X0011008Y0055320D01*
X0010622Y0056702D02*
X0010622Y0057297D01*
X0010569Y0057350D01*
X0009467Y0057350D01*
X0009968Y0056048D02*
X0009968Y0055559D01*
X0009968Y0056048D02*
X0010622Y0056702D01*
X0009467Y0057350D02*
X0009207Y0057089D01*
X0008121Y0057089D01*
X0006166Y0057570D02*
X0003890Y0057570D01*
X0006166Y0057570D02*
X0006225Y0057629D01*
X0007582Y0057629D01*
X0008121Y0057089D01*
X0009988Y0054420D02*
X0011008Y0053400D01*
X0009988Y0054420D02*
X0009968Y0054439D01*
X0011008Y0053400D02*
X0010968Y0053358D01*
X0010048Y0056460D02*
X0010048Y0056974D01*
X0009522Y0055934D02*
X0009508Y0055919D01*
X0009522Y0055934D02*
X0010048Y0056460D01*
X0009508Y0055919D02*
X0009508Y0054900D01*
X0009928Y0054480D01*
X0009986Y0056974D02*
X0010048Y0056974D01*
X0009928Y0054480D02*
X0009968Y0054439D01*
X0006919Y0055934D02*
X0006225Y0056628D01*
X0006919Y0055934D02*
X0009522Y0055934D01*
X0009295Y0057446D02*
X0008424Y0057446D01*
X0009295Y0057446D02*
X0009999Y0058151D01*
X0023112Y0058151D02*
X0023844Y0057417D01*
X0023112Y0058151D02*
X0009999Y0058151D01*
X0012267Y0053220D02*
X0012508Y0053220D01*
X0012267Y0053220D02*
X0011689Y0052640D01*
X0012508Y0053220D02*
X0012517Y0053263D01*
X0011689Y0052640D02*
X0011660Y0052047D01*
X0011008Y0051671D02*
X0011008Y0050922D01*
X0011511Y0050922D01*
X0011008Y0051671D02*
X0011660Y0052047D01*
X0009573Y0052080D02*
X0009279Y0052080D01*
X0008813Y0052080D02*
X0008650Y0051997D01*
X0008813Y0052080D02*
X0009279Y0052080D01*
X0009573Y0052080D02*
X0009573Y0051997D01*
X0009279Y0052080D02*
X0010660Y0052047D01*
X0018573Y0053160D02*
X0018573Y0053531D01*
X0017940Y0054164D02*
X0017778Y0054326D01*
X0018573Y0053531D02*
X0018593Y0053511D01*
X0018599Y0055277D02*
X0017993Y0055277D01*
X0017940Y0055225D01*
X0018593Y0052214D02*
X0018593Y0052018D01*
X0018593Y0052214D02*
X0019098Y0052718D01*
X0019098Y0054778D01*
X0018599Y0055277D01*
X0017940Y0054164D02*
X0018573Y0053531D01*
X0017940Y0054164D02*
X0017940Y0055225D01*
X0017778Y0054326D02*
X0016604Y0054326D01*
X0015980Y0055380D02*
X0015794Y0055565D01*
X0015365Y0055565D02*
X0014299Y0056630D01*
X0015980Y0054950D02*
X0016604Y0054326D01*
X0015794Y0055565D02*
X0015365Y0055565D01*
X0015980Y0055380D02*
X0015980Y0054950D01*
X0014097Y0053301D02*
X0014097Y0052617D01*
X0014668Y0052046D01*
X0014511Y0051889D01*
X0014511Y0050968D01*
X0008424Y0056658D02*
X0007858Y0056658D01*
X0007458Y0057059D02*
X0005011Y0057059D01*
X0007458Y0057059D02*
X0007858Y0056658D01*
X0005011Y0057059D02*
X0004951Y0057000D01*
X0003638Y0057000D02*
X0002948Y0056308D01*
X0003638Y0057000D02*
X0004951Y0057000D01*
X0006972Y0050857D02*
X0007765Y0050857D01*
X0006972Y0050857D02*
X0006797Y0051031D01*
X0006737Y0051093D01*
X0006540Y0051093D01*
X0002943Y0053700D02*
X0002943Y0054180D01*
X0002576Y0054548D01*
X0002576Y0055937D01*
X0002948Y0056308D01*
X0002867Y0050735D02*
X0003360Y0050735D01*
X0003458Y0050735D01*
X0003760Y0050432D01*
X0006197Y0050432D01*
X0006797Y0051031D01*
X0003889Y0053700D02*
X0002943Y0053700D01*
X0003889Y0053700D02*
X0004029Y0053561D01*
X0002552Y0052834D02*
X0002552Y0052573D01*
X0003360Y0051765D02*
X0003360Y0050735D01*
X0003360Y0051765D02*
X0002552Y0052573D01*
X0002552Y0052834D02*
X0002943Y0053226D01*
X0002943Y0053700D01*
X0009617Y0050922D02*
X0010511Y0050922D01*
X0009617Y0050922D02*
X0009573Y0050877D01*
X0005008Y0055919D02*
X0004468Y0055919D01*
X0003928Y0055380D01*
X0003847Y0055380D02*
X0003630Y0055380D01*
X0003847Y0055380D02*
X0003928Y0055380D01*
X0005008Y0055919D02*
X0005011Y0055940D01*
X0003630Y0055380D02*
X0003447Y0055559D01*
X0007227Y0053280D02*
X0007768Y0053280D01*
X0007227Y0053280D02*
X0006568Y0053940D01*
X0007768Y0053280D02*
X0007813Y0053228D01*
X0004029Y0054561D02*
X0004029Y0055198D01*
X0003847Y0055380D01*
X0002943Y0055054D02*
X0002943Y0054700D01*
X0002943Y0055054D02*
X0003447Y0055559D01*
X0003879Y0052703D02*
X0002867Y0052703D01*
X0003879Y0052703D02*
X0003891Y0052714D01*
X0004029Y0054080D02*
X0004029Y0054561D01*
X0004029Y0054080D02*
X0004323Y0053785D01*
X0004396Y0053713D01*
X0004396Y0053221D01*
X0003891Y0052714D01*
X0004323Y0053785D02*
X0004477Y0053940D01*
X0006568Y0053940D01*
X0012573Y0050968D02*
X0013511Y0050968D01*
X0012573Y0050968D02*
X0012573Y0050847D01*
X0021307Y0057159D02*
X0021408Y0057261D01*
X0019547Y0056816D02*
X0018843Y0056816D01*
X0019910Y0057653D02*
X0019963Y0057705D01*
X0020667Y0057705D01*
X0019910Y0057653D02*
X0019910Y0057178D01*
X0021214Y0057159D02*
X0021307Y0057159D01*
X0018843Y0056816D02*
X0018500Y0057159D01*
X0019547Y0056816D02*
X0019910Y0057178D01*
X0020667Y0057705D02*
X0021214Y0057159D01*
X0018500Y0057159D02*
X0017757Y0057159D01*
X0005737Y0051093D02*
X0005385Y0050740D01*
X0003897Y0050740D01*
X0003891Y0050747D01*
G04 next file*
%LPD*%
G75*
G01*
D60*
X0032677Y0019685D02*
X0034877Y0044791D03*
D61*
X0034877Y0045578D03*
D60*
X0046877Y0050791D03*
D61*
X0046877Y0051578D03*
D60*
X0044377Y0051578D03*
D61*
X0044377Y0050791D03*
D62*
X0064627Y0047519D03*
X0064627Y0046849D03*
X0062627Y0047519D03*
X0062627Y0046849D03*
D63*
X0056127Y0044685D03*
X0056127Y0045685D03*
D60*
X0045484Y0053684D03*
D61*
X0046271Y0053684D03*
D64*
X0036877Y0045236D03*
X0036877Y0044132D03*
D65*
X0044362Y0040185D03*
X0042393Y0040185D03*
D60*
X0044234Y0056435D03*
D61*
X0045021Y0056435D03*
D66*
X0042429Y0054435D03*
X0041326Y0054435D03*
X0043576Y0049435D03*
X0044679Y0049435D03*
D67*
X0042377Y0055685D03*
D68*
X0041377Y0055685D03*
D69*
X0041127Y0049654D03*
X0041627Y0049654D03*
X0042127Y0049654D03*
X0042627Y0049654D03*
X0042627Y0051715D03*
X0042127Y0051715D03*
X0041627Y0051715D03*
X0041127Y0051715D03*
D70*
X0053877Y0051055D02*
X0053877Y0050315D01*
X0054876Y0050315D02*
X0054876Y0051055D01*
X0055876Y0051055D02*
X0055876Y0050315D01*
X0056877Y0050315D02*
X0056877Y0051055D01*
X0057877Y0051055D02*
X0057877Y0050315D01*
X0058877Y0050315D02*
X0058877Y0051055D01*
D71*
X0041326Y0053185D03*
X0042429Y0053185D03*
X0043576Y0048185D03*
X0044679Y0048185D03*
X0045076Y0046685D03*
X0046179Y0046685D03*
D72*
X0046127Y0049236D03*
X0046127Y0048133D03*
D73*
X0048629Y0048301D03*
X0048127Y0046567D03*
X0047626Y0048301D03*
D71*
X0059429Y0052185D03*
X0058326Y0052185D03*
D72*
X0043877Y0054236D03*
X0043877Y0053133D03*
X0038377Y0044132D03*
X0038377Y0045236D03*
D71*
X0042326Y0042935D03*
X0043429Y0042935D03*
D72*
X0046178Y0035493D03*
X0046178Y0034391D03*
X0036877Y0041632D03*
X0036877Y0042736D03*
X0044127Y0045236D03*
X0044127Y0044132D03*
X0042377Y0045236D03*
X0042377Y0044132D03*
D73*
X0039876Y0043818D03*
X0040377Y0045551D03*
X0040879Y0043818D03*
D74*
X0039645Y0052951D03*
X0039645Y0051968D03*
X0039645Y0050984D03*
D75*
X0036888Y0053700D03*
X0036888Y0050236D03*
D76*
X0042127Y0047685D03*
D77*
X0041127Y0047945D02*
X0041127Y0047425D01*
X0040127Y0047425D02*
X0040127Y0047945D01*
X0039126Y0047945D02*
X0039126Y0047425D01*
X0038127Y0047425D02*
X0038127Y0047945D01*
X0037127Y0047945D02*
X0037127Y0047425D01*
X0036127Y0047425D02*
X0036127Y0047945D01*
X0035127Y0047945D02*
X0035127Y0047425D01*
D78*
X0040847Y0040435D03*
X0040847Y0040935D03*
X0040847Y0041435D03*
X0040847Y0041935D03*
X0038907Y0041935D03*
X0038907Y0041435D03*
X0038907Y0040935D03*
X0038907Y0040435D03*
D79*
X0060567Y0043832D03*
X0060567Y0044147D03*
X0060567Y0044462D03*
X0060567Y0044776D03*
X0060567Y0045092D03*
X0060567Y0045407D03*
X0060567Y0045721D03*
X0060567Y0046037D03*
D80*
X0059980Y0046625D03*
X0059665Y0046625D03*
X0059350Y0046625D03*
X0059035Y0046625D03*
X0058720Y0046625D03*
X0058404Y0046625D03*
X0058090Y0046625D03*
X0057775Y0046625D03*
D79*
X0057187Y0046037D03*
X0057187Y0045721D03*
X0057187Y0045407D03*
X0057187Y0045092D03*
X0057187Y0044776D03*
X0057187Y0044462D03*
X0057187Y0044147D03*
X0057187Y0043832D03*
D80*
X0057775Y0043244D03*
X0058090Y0043244D03*
X0058404Y0043244D03*
X0058720Y0043244D03*
X0059035Y0043244D03*
X0059350Y0043244D03*
X0059665Y0043244D03*
X0059980Y0043244D03*
D63*
X0062627Y0045185D03*
X0064627Y0045185D03*
D72*
X0062876Y0040633D03*
X0062876Y0041736D03*
X0064127Y0040633D03*
X0064127Y0041736D03*
X0065377Y0040633D03*
X0065377Y0041736D03*
X0061627Y0040633D03*
X0061627Y0041736D03*
D74*
X0049094Y0042519D03*
X0050077Y0042519D03*
X0051062Y0042519D03*
D81*
X0048346Y0039763D03*
X0051810Y0039763D03*
D74*
X0060511Y0050984D03*
X0060511Y0051968D03*
X0060511Y0052951D03*
D82*
X0063267Y0050236D03*
X0063267Y0053700D03*
D74*
X0051062Y0051181D03*
X0050077Y0051181D03*
X0049094Y0051181D03*
D83*
X0051810Y0053937D03*
X0048346Y0053937D03*
D72*
X0044661Y0034415D03*
X0044661Y0035517D03*
D71*
X0049901Y0035657D03*
X0048798Y0035657D03*
D84*
X0049025Y0032181D03*
X0049025Y0030921D03*
X0049025Y0030055D03*
X0049025Y0029188D03*
X0051112Y0032181D03*
X0051112Y0030921D03*
X0051112Y0030055D03*
X0051112Y0029188D03*
D85*
X0053877Y0032562D03*
X0052877Y0032562D03*
X0052877Y0029807D03*
X0053877Y0029807D03*
D72*
X0055627Y0037986D03*
X0055627Y0036883D03*
X0057127Y0036883D03*
X0057127Y0037986D03*
X0058627Y0036883D03*
X0058627Y0037986D03*
D86*
X0036860Y0028301D02*
X0036092Y0028301D01*
X0036092Y0034690D02*
X0036860Y0034690D01*
X0041092Y0028301D02*
X0041860Y0028301D01*
X0041860Y0034690D02*
X0041092Y0034690D01*
X0063336Y0034690D02*
X0064104Y0034690D01*
X0064104Y0028301D02*
X0063336Y0028301D01*
X0059104Y0034690D02*
X0058335Y0034690D01*
X0058335Y0028301D02*
X0059104Y0028301D01*
D66*
X0058326Y0053185D03*
X0059429Y0053185D03*
D60*
X0058484Y0054685D03*
D61*
X0059271Y0054685D03*
D60*
X0052983Y0057685D03*
D61*
X0053771Y0057685D03*
D64*
X0055127Y0058236D03*
X0055127Y0057133D03*
D67*
X0056627Y0052684D03*
D68*
X0056627Y0053684D03*
D67*
X0056377Y0057185D03*
D68*
X0056377Y0058185D03*
D87*
X0057488Y0058082D03*
X0057488Y0056287D03*
D88*
X0060362Y0057185D03*
D60*
X0041877Y0038077D03*
D61*
X0041877Y0037291D03*
D71*
X0054891Y0028423D03*
X0055993Y0028423D03*
D65*
X0044362Y0041685D03*
X0042393Y0041685D03*
D66*
X0053326Y0054685D03*
X0054429Y0054685D03*
X0053326Y0053684D03*
X0054429Y0053684D03*
X0053326Y0052684D03*
X0054429Y0052684D03*
D64*
X0055627Y0053735D03*
X0055627Y0052633D03*
D89*
X0057377Y0040685D03*
X0058877Y0040685D03*
X0055627Y0055935D03*
X0055627Y0054685D03*
D90*
X0048511Y0033685D03*
X0050244Y0033685D03*
D91*
X0061377Y0055685D03*
X0061377Y0054685D03*
D92*
X0061377Y0055685D01*
D86*
X0038385Y0025000D02*
X0038385Y0024232D01*
X0039645Y0024232D02*
X0039645Y0025000D01*
X0040904Y0025000D02*
X0040904Y0024232D01*
X0040904Y0026181D02*
X0040904Y0026948D01*
X0039645Y0026948D02*
X0039645Y0026181D01*
X0038385Y0026181D02*
X0038385Y0026948D01*
D93*
X0051357Y0022543D03*
X0048798Y0022543D03*
X0051357Y0020762D03*
X0048798Y0020762D03*
X0039377Y0021652D03*
X0038377Y0021652D03*
X0044877Y0021652D03*
X0043877Y0021652D03*
X0056287Y0021652D03*
X0055287Y0021652D03*
X0061996Y0021652D03*
X0060996Y0021652D03*
D72*
X0060127Y0036883D03*
X0060127Y0037986D03*
D66*
X0054429Y0055935D03*
X0053326Y0055935D03*
D94*
X0066265Y0053149D03*
X0033856Y0053149D03*
D95*
X0053877Y0035184D03*
X0053377Y0035935D03*
X0052877Y0035184D03*
D63*
X0061877Y0047685D03*
X0061877Y0046685D03*
X0065377Y0047685D03*
X0065377Y0046685D03*
D62*
X0055127Y0044850D03*
X0055127Y0045519D03*
D96*
X0056377Y0047185D03*
X0056377Y0047685D03*
X0056377Y0048185D03*
X0056377Y0048685D03*
X0054377Y0048685D03*
X0054377Y0048185D03*
X0054377Y0047685D03*
X0054377Y0047185D03*
D60*
X0052627Y0048827D03*
D61*
X0052627Y0048041D03*
D97*
X0063589Y0043474D03*
D89*
X0061673Y0043474D03*
D71*
X0064704Y0043525D03*
X0065806Y0043525D03*
D89*
X0049823Y0037007D03*
X0051594Y0037007D03*
D70*
X0052661Y0027559D02*
X0053400Y0027559D01*
X0053400Y0028559D02*
X0052661Y0028559D01*
X0047495Y0027559D02*
X0046755Y0027559D01*
X0046755Y0028559D02*
X0047495Y0028559D01*
X0052661Y0020275D02*
X0053400Y0020275D01*
X0053400Y0021275D02*
X0052661Y0021275D01*
X0047495Y0020275D02*
X0046755Y0020275D01*
X0046755Y0021275D02*
X0047495Y0021275D01*
D93*
X0062864Y0020428D03*
X0061864Y0020428D03*
X0060864Y0020428D03*
X0059864Y0020428D03*
X0058864Y0020428D03*
X0057864Y0020428D03*
X0066545Y0037187D03*
X0065545Y0037187D03*
X0064545Y0037187D03*
X0063545Y0037187D03*
X0062545Y0037187D03*
X0061545Y0037187D03*
D98*
X0042657Y0053125D02*
X0042497Y0053125D01*
X0042657Y0053125D02*
X0043857Y0053125D01*
X0043877Y0053133D01*
X0042497Y0053125D02*
X0042429Y0053185D01*
X0042657Y0053125D02*
X0042657Y0051765D01*
X0042627Y0051715D01*
X0042657Y0053125D02*
X0042429Y0053185D01*
X0044417Y0053684D02*
X0045484Y0053684D01*
X0044417Y0053684D02*
X0043937Y0053204D01*
X0043877Y0053133D01*
X0039377Y0040485D02*
X0038977Y0040485D01*
X0039377Y0040485D02*
X0039937Y0041045D01*
X0039937Y0042805D01*
X0040897Y0043765D01*
X0038977Y0040485D02*
X0038907Y0040435D01*
X0040897Y0043765D02*
X0040879Y0043818D01*
X0037857Y0045875D02*
X0036127Y0047605D01*
X0036127Y0047685D01*
X0037857Y0045875D02*
X0037857Y0043265D01*
X0038317Y0042805D01*
X0039937Y0042805D01*
X0056497Y0058085D02*
X0057457Y0058085D01*
X0056497Y0058085D02*
X0056417Y0058164D01*
X0057457Y0058085D02*
X0057488Y0058082D01*
X0056417Y0058164D02*
X0056377Y0058185D01*
X0056337Y0058244D02*
X0055137Y0058244D01*
X0055127Y0058236D01*
X0056337Y0058244D02*
X0056377Y0058185D01*
X0056627Y0053684D02*
X0055697Y0053684D01*
X0055627Y0053735D01*
X0053377Y0053684D02*
X0053377Y0053204D01*
X0053377Y0052725D01*
X0053326Y0052684D01*
X0053377Y0053684D02*
X0053377Y0054644D01*
X0053326Y0054685D01*
X0053326Y0053684D02*
X0053377Y0053684D01*
X0053377Y0054725D02*
X0053377Y0055925D01*
X0053326Y0055935D01*
X0053377Y0054725D02*
X0053326Y0054685D01*
X0053057Y0056245D02*
X0053057Y0057685D01*
X0053057Y0056245D02*
X0053297Y0056005D01*
X0053326Y0055935D01*
X0055297Y0053684D02*
X0055617Y0053684D01*
X0055297Y0053684D02*
X0054817Y0053204D01*
X0053377Y0053204D01*
X0055617Y0053684D02*
X0055627Y0053735D01*
X0055057Y0058164D02*
X0053537Y0058164D01*
X0053057Y0057685D01*
X0055057Y0058164D02*
X0055127Y0058236D01*
X0053057Y0057685D02*
X0052983Y0057685D01*
X0041377Y0055685D02*
X0041377Y0054485D01*
X0041326Y0054435D01*
X0041377Y0054404D02*
X0041377Y0053204D01*
X0041326Y0053185D01*
X0041377Y0054404D02*
X0041326Y0054435D01*
X0041137Y0052964D02*
X0041137Y0051765D01*
X0041137Y0052964D02*
X0041297Y0053125D01*
X0041137Y0051765D02*
X0041127Y0051715D01*
X0041297Y0053125D02*
X0041326Y0053185D01*
X0045857Y0054725D02*
X0045857Y0054805D01*
X0044257Y0056405D01*
X0044234Y0056435D01*
X0041777Y0055685D02*
X0041377Y0055685D01*
X0041777Y0055685D02*
X0042497Y0056405D01*
X0044177Y0056405D01*
X0044234Y0056435D01*
X0045857Y0054725D02*
X0047377Y0054725D01*
X0047413Y0054687D02*
X0053324Y0054687D01*
X0053326Y0054685D01*
X0047655Y0054447D02*
X0047413Y0054687D01*
X0047377Y0054725D01*
X0047655Y0049324D02*
X0048629Y0048301D01*
X0047655Y0049324D02*
X0047655Y0054447D01*
X0041057Y0041445D02*
X0040897Y0041445D01*
X0042097Y0042485D02*
X0042257Y0042645D01*
X0042097Y0042485D02*
X0041057Y0041445D01*
X0042257Y0042645D02*
X0042257Y0042885D01*
X0040897Y0041445D02*
X0040847Y0041435D01*
X0042257Y0042885D02*
X0042326Y0042935D01*
X0042417Y0041205D02*
X0042417Y0040245D01*
X0042417Y0041205D02*
X0042737Y0041525D01*
X0042737Y0041845D01*
X0042097Y0042485D01*
X0042417Y0040245D02*
X0042393Y0040185D01*
X0040897Y0040805D02*
X0040897Y0040885D01*
X0040897Y0040805D02*
X0040897Y0040485D01*
X0040847Y0040435D01*
X0040897Y0040885D02*
X0040847Y0040935D01*
X0041777Y0041685D02*
X0042393Y0041685D01*
X0041777Y0041685D02*
X0040897Y0040805D01*
X0041857Y0039445D02*
X0041857Y0038085D01*
X0041857Y0039445D02*
X0040897Y0040405D01*
X0041857Y0038085D02*
X0041877Y0038077D01*
X0040897Y0040405D02*
X0040847Y0040435D01*
X0043937Y0042085D02*
X0043937Y0043979D01*
X0043937Y0042085D02*
X0044337Y0041685D01*
X0043937Y0043979D02*
X0044127Y0044132D01*
X0044337Y0041685D02*
X0044362Y0041685D01*
X0044127Y0045236D02*
X0044127Y0045685D01*
X0042127Y0047685D01*
X0042337Y0045285D02*
X0041697Y0045285D01*
X0039297Y0047685D01*
X0039126Y0047685D01*
X0042337Y0045285D02*
X0042377Y0045236D01*
X0042337Y0044165D02*
X0041777Y0044165D01*
X0040416Y0045525D01*
X0042337Y0044165D02*
X0042377Y0044132D01*
X0040416Y0045525D02*
X0040377Y0045551D01*
X0044737Y0048244D02*
X0044737Y0049365D01*
X0044679Y0049435D01*
X0044737Y0048244D02*
X0044679Y0048185D01*
X0045057Y0047845D02*
X0045057Y0046725D01*
X0045057Y0047845D02*
X0044737Y0048164D01*
X0045057Y0046725D02*
X0045076Y0046685D01*
X0044737Y0048164D02*
X0044679Y0048185D01*
X0042847Y0049178D02*
X0042789Y0049120D01*
X0042847Y0049178D02*
X0042847Y0049516D01*
X0043220Y0049889D01*
X0044212Y0049889D01*
X0044737Y0049365D01*
X0041966Y0049120D02*
X0041907Y0049178D01*
X0041907Y0049375D01*
X0041627Y0049654D01*
X0041966Y0049120D02*
X0042789Y0049120D01*
X0046177Y0048085D02*
X0046177Y0046725D01*
X0046177Y0048085D02*
X0046127Y0048133D01*
X0046177Y0046725D02*
X0046179Y0046685D01*
X0045777Y0049685D02*
X0046817Y0050725D01*
X0045777Y0049685D02*
X0045697Y0049685D01*
X0045617Y0049605D01*
X0045617Y0048644D01*
X0046097Y0048164D01*
X0046817Y0050725D02*
X0046877Y0050791D01*
X0046097Y0048164D02*
X0046127Y0048133D01*
X0038337Y0047525D02*
X0038337Y0045285D01*
X0038337Y0047525D02*
X0038177Y0047685D01*
X0038337Y0045285D02*
X0038377Y0045236D01*
X0038177Y0047685D02*
X0038127Y0047685D01*
X0036897Y0045205D02*
X0036897Y0044965D01*
X0037376Y0044485D01*
X0037376Y0043285D01*
X0037136Y0043045D02*
X0036897Y0042805D01*
X0037136Y0043045D02*
X0037376Y0043285D01*
X0036897Y0045205D02*
X0036877Y0045236D01*
X0036897Y0042805D02*
X0036877Y0042736D01*
X0038737Y0041445D02*
X0038897Y0041445D01*
X0038737Y0041445D02*
X0037136Y0043045D01*
X0038897Y0041445D02*
X0038907Y0041435D01*
X0037136Y0043045D02*
X0036877Y0042736D01*
X0035137Y0046965D02*
X0035137Y0047685D01*
X0035137Y0046965D02*
X0036817Y0045285D01*
X0035137Y0047685D02*
X0035127Y0047685D01*
X0036817Y0045285D02*
X0036877Y0045236D01*
X0037537Y0040965D02*
X0038897Y0040965D01*
X0037537Y0040965D02*
X0036897Y0041605D01*
X0038897Y0040965D02*
X0038907Y0040935D01*
X0036897Y0041605D02*
X0036877Y0041632D01*
X0036337Y0044165D02*
X0035457Y0044165D01*
X0036337Y0044165D02*
X0036817Y0044165D01*
X0035457Y0044165D02*
X0034897Y0044725D01*
X0036817Y0044165D02*
X0036877Y0044132D01*
X0034897Y0044725D02*
X0034877Y0044791D01*
X0036817Y0041925D02*
X0036817Y0041685D01*
X0036817Y0041925D02*
X0036337Y0042405D01*
X0036337Y0044165D01*
X0036817Y0041685D02*
X0036877Y0041632D01*
X0046621Y0048075D02*
X0048127Y0046567D01*
X0046621Y0048075D02*
X0046621Y0048742D01*
X0046127Y0049236D01*
X0054357Y0047205D02*
X0054377Y0047185D01*
X0048722Y0047205D02*
X0047626Y0048301D01*
X0048722Y0047205D02*
X0054357Y0047205D01*
X0062017Y0046805D02*
X0062577Y0046805D01*
X0062017Y0046805D02*
X0061937Y0046725D01*
X0062577Y0046805D02*
X0062627Y0046849D01*
X0061937Y0046725D02*
X0061877Y0046685D01*
X0061297Y0046085D02*
X0060577Y0046085D01*
X0061297Y0046085D02*
X0061857Y0046645D01*
X0060577Y0046085D02*
X0060567Y0046037D01*
X0061857Y0046645D02*
X0061877Y0046685D01*
X0062657Y0046805D02*
X0062657Y0045205D01*
X0062627Y0045185D01*
X0062657Y0046805D02*
X0062627Y0046849D01*
X0064657Y0046805D02*
X0065297Y0046805D01*
X0065377Y0046725D01*
X0065377Y0046685D01*
X0062337Y0044165D02*
X0060817Y0045685D01*
X0062337Y0044165D02*
X0062337Y0041365D01*
X0062417Y0041285D01*
X0064577Y0041285D01*
X0064657Y0045125D02*
X0064627Y0045185D01*
X0064657Y0045205D02*
X0064657Y0046805D01*
X0064627Y0046849D01*
X0064657Y0045205D02*
X0064627Y0045185D01*
X0065339Y0044023D02*
X0065339Y0043019D01*
X0064627Y0042309D01*
X0064627Y0044734D02*
X0064627Y0045185D01*
X0064627Y0044734D02*
X0065339Y0044023D01*
X0060817Y0045685D02*
X0060605Y0045685D01*
X0060567Y0045721D01*
X0064627Y0041335D02*
X0064577Y0041285D01*
X0064627Y0041335D02*
X0064627Y0042309D01*
X0055937Y0045525D02*
X0055137Y0045525D01*
X0055937Y0045525D02*
X0056097Y0045685D01*
X0055137Y0045525D02*
X0055127Y0045519D01*
X0056097Y0045685D02*
X0056127Y0045685D01*
X0056737Y0045125D02*
X0057137Y0045125D01*
X0056737Y0045125D02*
X0056177Y0045685D01*
X0057137Y0045125D02*
X0057187Y0045092D01*
X0056177Y0045685D02*
X0056127Y0045685D01*
X0056877Y0046346D02*
X0057187Y0046037D01*
X0056877Y0046346D02*
X0056877Y0047435D01*
X0056846Y0047466D01*
X0055997Y0047466D01*
X0055938Y0047525D01*
X0055938Y0047844D01*
X0055997Y0047903D01*
X0056096Y0047903D01*
X0056377Y0048185D01*
X0055938Y0047844D02*
X0055938Y0048657D01*
X0055407Y0049188D01*
X0055407Y0051249D02*
X0055682Y0051525D01*
X0056072Y0051525D01*
X0056346Y0051249D01*
X0056346Y0051215D01*
X0056877Y0050685D01*
X0055407Y0051249D02*
X0055407Y0049188D01*
D99*
X0057626Y0047185D03*
D98*
X0057775Y0047037D02*
X0057775Y0046625D01*
X0057775Y0047037D02*
X0057626Y0047185D01*
X0056337Y0048644D02*
X0056177Y0048644D01*
X0056337Y0048644D02*
X0056377Y0048685D01*
X0055937Y0048884D02*
X0055937Y0050645D01*
X0055937Y0048884D02*
X0056177Y0048644D01*
X0055937Y0050645D02*
X0055876Y0050685D01*
X0056377Y0048685D02*
X0056177Y0048644D01*
X0056377Y0048685D02*
X0056658Y0048403D01*
X0056757Y0048403D01*
X0058090Y0047070D01*
X0058090Y0046625D01*
X0059057Y0043845D02*
X0059057Y0043285D01*
X0059057Y0043845D02*
X0059217Y0044005D01*
X0059217Y0046085D01*
X0059217Y0047125D02*
X0059217Y0050325D01*
X0058897Y0050645D01*
X0059057Y0043285D02*
X0059035Y0043244D01*
X0058897Y0050645D02*
X0058877Y0050685D01*
X0059377Y0051205D02*
X0059377Y0052165D01*
X0059377Y0051205D02*
X0058897Y0050725D01*
X0059377Y0052165D02*
X0059429Y0052185D01*
X0058897Y0050725D02*
X0058877Y0050685D01*
D99*
X0059217Y0046085D03*
X0059217Y0047125D03*
D98*
X0058404Y0043244D02*
X0058337Y0043177D01*
X0058657Y0043285D02*
X0058720Y0043244D01*
X0059377Y0043205D02*
X0059377Y0042565D01*
X0060176Y0041765D01*
X0061617Y0041765D01*
X0059377Y0043205D02*
X0059350Y0043244D01*
X0061617Y0041765D02*
X0061627Y0041736D01*
X0059696Y0042805D02*
X0059696Y0043205D01*
X0064897Y0042245D02*
X0065377Y0041765D01*
X0059696Y0043205D02*
X0059665Y0043244D01*
X0065377Y0041765D02*
X0065377Y0041736D01*
D99*
X0059696Y0042805D03*
X0064897Y0042245D03*
D98*
X0059696Y0046885D02*
X0061137Y0048324D01*
X0062657Y0048324D01*
X0064102Y0041951D02*
X0064102Y0041760D01*
X0064127Y0041736D01*
X0065179Y0043087D02*
X0065179Y0043957D01*
X0064127Y0042035D02*
X0064127Y0041736D01*
X0064127Y0042035D02*
X0065179Y0043087D01*
X0059696Y0046657D02*
X0059665Y0046625D01*
X0059696Y0046657D02*
X0059696Y0046885D01*
X0062657Y0048324D02*
X0064095Y0046887D01*
X0064095Y0045039D01*
X0065179Y0043957D01*
X0059377Y0046405D02*
X0059377Y0046565D01*
X0059377Y0046405D02*
X0059537Y0046245D01*
X0060176Y0046245D01*
X0061377Y0047445D01*
X0061377Y0047845D01*
X0061697Y0048164D01*
X0062577Y0048164D01*
X0063057Y0047685D01*
X0059377Y0046565D02*
X0059350Y0046625D01*
X0063057Y0047685D02*
X0063057Y0041916D01*
X0062876Y0041736D01*
X0050607Y0043048D02*
X0050077Y0042519D01*
X0056937Y0044147D02*
X0057187Y0044147D01*
X0056937Y0044147D02*
X0056725Y0043935D01*
X0056127Y0043935D01*
X0055241Y0043048D02*
X0050607Y0043048D01*
X0055241Y0043048D02*
X0056127Y0043935D01*
X0057217Y0043845D02*
X0057457Y0043845D01*
X0058276Y0044665D01*
X0058276Y0045915D01*
X0057217Y0043845D02*
X0057187Y0043832D01*
D99*
X0058276Y0045915D03*
D98*
X0050824Y0050435D02*
X0050077Y0051181D01*
X0050824Y0050435D02*
X0052627Y0050435D01*
D99*
X0052627Y0050435D03*
X0057524Y0043244D03*
D98*
X0057775Y0043244D01*
X0050416Y0043845D02*
X0049137Y0042565D01*
X0049094Y0042519D01*
X0056897Y0045765D02*
X0057137Y0045765D01*
X0056897Y0045765D02*
X0055552Y0047110D01*
X0057137Y0045765D02*
X0057187Y0045721D01*
X0053457Y0051125D02*
X0051137Y0051125D01*
X0053457Y0051125D02*
X0053857Y0050725D01*
X0051137Y0051125D02*
X0051062Y0051181D01*
X0053857Y0050725D02*
X0053877Y0050685D01*
X0058337Y0052245D02*
X0058337Y0052725D01*
X0058337Y0053125D01*
X0058326Y0053185D01*
X0058337Y0052245D02*
X0058326Y0052185D01*
X0057537Y0055604D02*
X0057537Y0056245D01*
X0057537Y0055604D02*
X0058417Y0054725D01*
X0057537Y0056245D02*
X0057488Y0056287D01*
X0058417Y0054725D02*
X0058484Y0054685D01*
X0058337Y0054565D02*
X0058337Y0053204D01*
X0058337Y0054565D02*
X0058417Y0054644D01*
X0058337Y0053204D02*
X0058326Y0053185D01*
X0058417Y0054644D02*
X0058484Y0054685D01*
X0058337Y0052725D02*
X0056657Y0052725D01*
X0056627Y0052684D01*
X0060337Y0044805D02*
X0060496Y0044805D01*
X0060337Y0044805D02*
X0060176Y0044965D01*
X0060176Y0045205D01*
X0060337Y0045365D01*
X0060496Y0045365D01*
X0060496Y0044805D02*
X0060567Y0044776D01*
X0060496Y0045365D02*
X0060567Y0045407D01*
X0060337Y0045365D02*
X0060097Y0045605D01*
X0060097Y0045845D01*
X0060337Y0045365D02*
X0060567Y0045407D01*
X0060577Y0050965D02*
X0060511Y0050984D01*
X0059776Y0052725D02*
X0058337Y0052725D01*
X0059776Y0052725D02*
X0060016Y0052485D01*
X0060016Y0051525D01*
X0060496Y0051045D01*
X0060511Y0050984D01*
X0054337Y0051125D02*
X0053937Y0050725D01*
X0054337Y0051125D02*
X0054337Y0051205D01*
X0055297Y0052165D01*
X0056097Y0052165D01*
X0056577Y0052645D01*
X0053937Y0050725D02*
X0053877Y0050685D01*
X0056577Y0052645D02*
X0056627Y0052684D01*
D99*
X0060097Y0045845D03*
D98*
X0052572Y0046928D02*
X0052514Y0046870D01*
X0055371Y0046928D02*
X0055552Y0047110D01*
X0055371Y0046928D02*
X0052572Y0046928D01*
X0054377Y0048185D02*
X0054659Y0048465D01*
X0054757Y0048465D01*
X0054377Y0048185D02*
X0054659Y0047903D01*
X0054757Y0047903D01*
X0055551Y0047110D02*
X0055552Y0047110D01*
X0055551Y0047110D02*
X0054757Y0047903D01*
X0052627Y0048827D02*
X0053937Y0050138D01*
X0053937Y0050725D01*
X0053877Y0050685D02*
X0054407Y0050155D01*
X0054816Y0048844D02*
X0054816Y0048525D01*
X0054757Y0048465D01*
X0054407Y0049253D02*
X0054407Y0050155D01*
X0054407Y0049253D02*
X0054816Y0048844D01*
X0055552Y0047110D02*
X0056302Y0047110D01*
X0056377Y0047185D01*
X0052514Y0046870D02*
X0052514Y0043845D01*
X0050416Y0043845D01*
X0048511Y0035370D02*
X0048511Y0033685D01*
X0048511Y0035370D02*
X0048798Y0035657D01*
X0048798Y0037196D01*
X0049094Y0037492D01*
X0049094Y0042519D01*
X0048511Y0032695D02*
X0049025Y0032181D01*
X0048511Y0032695D02*
X0048511Y0033685D01*
X0058977Y0044085D02*
X0058977Y0046565D01*
X0058977Y0044085D02*
X0058897Y0044005D01*
X0058977Y0046565D02*
X0059035Y0046625D01*
D99*
X0058897Y0044005D03*
D98*
X0057137Y0039685D02*
X0057137Y0038005D01*
X0057137Y0039685D02*
X0057937Y0040485D01*
X0057937Y0042005D01*
X0057857Y0042085D01*
X0057137Y0038005D02*
X0057127Y0037986D01*
D99*
X0057857Y0042085D03*
D98*
X0058657Y0045205D02*
X0058657Y0046565D01*
X0058657Y0045205D02*
X0058577Y0045125D01*
X0058577Y0043845D01*
X0058657Y0046565D02*
X0058720Y0046625D01*
D99*
X0058577Y0043845D03*
D98*
X0058577Y0040165D02*
X0058577Y0038005D01*
X0058577Y0040165D02*
X0058097Y0040645D01*
X0058097Y0042645D01*
X0058577Y0038005D02*
X0058627Y0037986D01*
D99*
X0058097Y0042645D03*
D98*
X0060127Y0036883D02*
X0060289Y0036883D01*
X0061562Y0036204D02*
X0062545Y0037187D01*
X0061562Y0036204D02*
X0060929Y0036204D01*
X0060250Y0036883D01*
X0060127Y0036883D01*
X0062177Y0042165D02*
X0060577Y0043765D01*
X0062177Y0042165D02*
X0062177Y0041365D01*
X0061937Y0041125D01*
X0060577Y0043765D02*
X0060567Y0043832D01*
X0060817Y0040725D02*
X0058897Y0040725D01*
X0060817Y0040725D02*
X0061217Y0041125D01*
X0061937Y0041125D01*
X0058897Y0040725D02*
X0058877Y0040685D01*
X0044362Y0040185D02*
X0044337Y0040165D01*
X0048968Y0030055D02*
X0049025Y0030055D01*
X0046178Y0038369D02*
X0044362Y0040185D01*
X0046178Y0038369D02*
X0046178Y0035493D01*
X0046737Y0031499D02*
X0047592Y0030644D01*
X0048436Y0030644D01*
X0049025Y0030055D01*
X0046737Y0034933D02*
X0046178Y0035493D01*
X0046737Y0034933D02*
X0046737Y0031499D01*
D99*
X0043127Y0047435D03*
D98*
X0051069Y0029188D02*
X0051112Y0029188D01*
X0054177Y0028485D02*
X0054817Y0028485D01*
X0054177Y0028485D02*
X0053537Y0029124D01*
X0051137Y0029124D01*
X0054817Y0028485D02*
X0054891Y0028423D01*
X0051137Y0029124D02*
X0051112Y0029188D01*
X0047622Y0031205D02*
X0047061Y0031765D01*
X0047622Y0031205D02*
X0051777Y0031205D01*
X0051857Y0031125D01*
X0051857Y0030724D01*
X0051457Y0030324D01*
X0050416Y0030324D01*
X0050336Y0030245D01*
X0050336Y0029835D01*
X0050984Y0029188D01*
X0051112Y0029188D01*
X0047061Y0043501D02*
X0043127Y0047435D01*
X0047061Y0043501D02*
X0047061Y0031765D01*
X0049901Y0035657D02*
X0049901Y0036930D01*
X0049823Y0037007D01*
X0051697Y0035125D02*
X0052817Y0035125D01*
X0051697Y0035125D02*
X0050256Y0033685D01*
X0052817Y0035125D02*
X0052877Y0035184D01*
X0050256Y0033685D02*
X0050244Y0033685D01*
X0052877Y0035724D02*
X0051594Y0037007D01*
X0052877Y0035724D02*
X0052877Y0035184D01*
X0050256Y0033035D02*
X0051112Y0032181D01*
X0050256Y0033035D02*
X0050256Y0033685D01*
X0055697Y0036884D02*
X0057057Y0036884D01*
X0055697Y0036884D02*
X0055627Y0036883D01*
X0057057Y0036884D02*
X0057127Y0036883D01*
X0055617Y0036805D02*
X0054177Y0036805D01*
X0053377Y0036005D01*
X0055617Y0036805D02*
X0055627Y0036883D01*
X0053377Y0036005D02*
X0053377Y0035935D01*
X0058256Y0036883D02*
X0058627Y0036883D01*
X0053935Y0032562D02*
X0053877Y0032562D01*
X0053935Y0032562D02*
X0058256Y0036883D01*
X0049025Y0029188D02*
X0048949Y0029124D01*
X0038977Y0025045D02*
X0038417Y0025045D01*
X0038977Y0025045D02*
X0039617Y0025684D01*
X0040416Y0025684D01*
X0040897Y0026165D01*
X0038417Y0025045D02*
X0038385Y0025000D01*
X0040897Y0026165D02*
X0040904Y0026181D01*
X0042337Y0029124D02*
X0048977Y0029124D01*
X0042337Y0029124D02*
X0041537Y0028325D01*
X0048977Y0029124D02*
X0049025Y0029188D01*
X0041537Y0028325D02*
X0041476Y0028301D01*
X0040977Y0027765D02*
X0040977Y0026245D01*
X0040977Y0027765D02*
X0041457Y0028245D01*
X0040977Y0026245D02*
X0040904Y0026181D01*
X0041457Y0028245D02*
X0041476Y0028301D01*
X0050447Y0030884D02*
X0051057Y0030884D01*
X0050447Y0030884D02*
X0050083Y0030520D01*
X0050083Y0029270D01*
X0047857Y0027045D01*
X0042817Y0027045D01*
X0041297Y0025525D01*
X0040176Y0025525D01*
X0039697Y0025045D01*
X0051057Y0030884D02*
X0051112Y0030921D01*
X0039697Y0025045D02*
X0039645Y0025000D01*
X0043697Y0035525D02*
X0044657Y0035525D01*
X0043697Y0035525D02*
X0041937Y0037285D01*
X0044657Y0035525D02*
X0044661Y0035517D01*
X0041937Y0037285D02*
X0041877Y0037291D01*
X0049776Y0030245D02*
X0049776Y0029844D01*
X0049457Y0029525D01*
X0041617Y0029525D01*
X0039697Y0027605D01*
X0039697Y0026233D02*
X0039645Y0026181D01*
X0039697Y0026233D02*
X0039697Y0027605D01*
X0049025Y0030921D02*
X0049101Y0030921D01*
X0049776Y0030245D01*
X0051249Y0029844D02*
X0052817Y0029844D01*
X0052877Y0029807D01*
X0051249Y0029844D02*
X0051112Y0030055D01*
X0052877Y0029807D02*
X0053804Y0030735D01*
X0057302Y0030735D01*
X0058720Y0032152D02*
X0058720Y0034690D01*
X0058720Y0032152D02*
X0057302Y0030735D01*
X0040897Y0042005D02*
X0040897Y0042965D01*
X0041297Y0043365D01*
X0041297Y0044245D01*
X0041137Y0044405D01*
X0040416Y0044405D01*
X0039857Y0043845D01*
X0040897Y0042005D02*
X0040847Y0041935D01*
X0039876Y0043818D02*
X0039857Y0043845D01*
X0039537Y0044085D02*
X0038417Y0044085D01*
X0039537Y0044085D02*
X0039777Y0043845D01*
X0038417Y0044085D02*
X0038377Y0044132D01*
X0039777Y0043845D02*
X0039876Y0043818D01*
X0053937Y0029765D02*
X0053937Y0029445D01*
X0053937Y0029765D02*
X0053877Y0029807D01*
X0054497Y0052645D02*
X0055617Y0052645D01*
X0054497Y0052645D02*
X0054429Y0052684D01*
X0055617Y0052645D02*
X0055627Y0052633D01*
X0054497Y0053684D02*
X0054497Y0054644D01*
X0054497Y0053684D02*
X0054429Y0053684D01*
X0054497Y0054644D02*
X0054429Y0054685D01*
X0054377Y0047685D02*
X0054337Y0047685D01*
X0042417Y0054485D02*
X0042417Y0055685D01*
X0042417Y0054485D02*
X0042429Y0054435D01*
X0042417Y0055685D02*
X0042377Y0055685D01*
X0055137Y0057125D02*
X0056337Y0057125D01*
X0055137Y0057125D02*
X0055127Y0057133D01*
X0056337Y0057125D02*
X0056377Y0057185D01*
X0044721Y0034446D02*
X0044661Y0034415D01*
X0043857Y0054245D02*
X0042657Y0054245D01*
X0042497Y0054404D01*
X0043857Y0054245D02*
X0043877Y0054236D01*
X0042497Y0054404D02*
X0042429Y0054435D01*
X0042657Y0049685D02*
X0042627Y0049654D01*
X0054497Y0054725D02*
X0055617Y0054725D01*
X0054497Y0054725D02*
X0054429Y0054685D01*
X0055617Y0054725D02*
X0055627Y0054685D01*
X0055697Y0052645D02*
X0056017Y0052645D01*
X0056657Y0053285D01*
X0056977Y0053285D01*
X0057057Y0053365D01*
X0057057Y0054005D01*
X0056897Y0054164D01*
X0056177Y0054164D01*
X0055697Y0054644D01*
X0055697Y0052645D02*
X0055627Y0052633D01*
X0055697Y0054644D02*
X0055627Y0054685D01*
X0056417Y0057205D02*
X0060337Y0057205D01*
X0060362Y0057185D01*
X0056417Y0057205D02*
X0056377Y0057185D01*
X0040817Y0041925D02*
X0040657Y0041925D01*
X0040096Y0041365D01*
X0040817Y0041925D02*
X0040847Y0041935D01*
D99*
X0053667Y0048795D03*
D98*
X0046178Y0034391D02*
X0045824Y0034391D01*
X0046147Y0034422D02*
X0046178Y0034391D01*
X0042627Y0049654D02*
X0043764Y0050791D01*
X0044377Y0050791D01*
X0060337Y0056725D02*
X0060337Y0057205D01*
X0054377Y0048685D02*
X0053271Y0048685D01*
X0052627Y0048041D01*
X0052983Y0047685D02*
X0054377Y0047685D01*
X0052983Y0047685D02*
X0052627Y0048041D01*
X0055697Y0028485D02*
X0055937Y0028485D01*
X0055697Y0028485D02*
X0054737Y0029445D01*
X0053937Y0029445D01*
X0055937Y0028485D02*
X0055993Y0028423D01*
X0053937Y0029445D02*
X0053877Y0029807D01*
X0045857Y0034405D02*
X0044737Y0034405D01*
X0045857Y0034405D02*
X0046178Y0034391D01*
X0044737Y0034405D02*
X0044661Y0034415D01*
X0044657Y0034485D02*
X0041697Y0034485D01*
X0041537Y0034645D01*
X0044657Y0034485D02*
X0044661Y0034415D01*
X0041537Y0034645D02*
X0041476Y0034690D01*
X0056017Y0028404D02*
X0058577Y0028404D01*
X0058657Y0028325D01*
X0056017Y0028404D02*
X0055993Y0028423D01*
X0058657Y0028325D02*
X0058720Y0028301D01*
X0040096Y0036085D02*
X0040096Y0041365D01*
X0040096Y0036085D02*
X0041457Y0034725D01*
X0041476Y0034690D01*
X0033862Y0053143D02*
X0033856Y0053149D01*
X0033862Y0053143D02*
X0033862Y0052951D01*
X0039645Y0052951D01*
X0060337Y0057205D02*
X0061377Y0055685D01*
X0062817Y0055685D01*
X0065351Y0053149D01*
X0066265Y0053149D01*
X0060817Y0044485D02*
X0060577Y0044485D01*
X0060817Y0044485D02*
X0060977Y0044645D01*
X0060977Y0044885D01*
X0060817Y0045045D01*
X0060577Y0045045D01*
X0060577Y0044485D02*
X0060567Y0044462D01*
X0060577Y0045045D02*
X0060567Y0045092D01*
X0056017Y0044805D02*
X0055137Y0044805D01*
X0056017Y0044805D02*
X0056097Y0044725D01*
X0055137Y0044805D02*
X0055127Y0044850D01*
X0056097Y0044725D02*
X0056127Y0044685D01*
X0062097Y0047525D02*
X0062577Y0047525D01*
X0062097Y0047525D02*
X0061937Y0047685D01*
X0062577Y0047525D02*
X0062627Y0047519D01*
X0061937Y0047685D02*
X0061877Y0047685D01*
X0064657Y0047525D02*
X0065217Y0047525D01*
X0065377Y0047685D01*
X0064657Y0047525D02*
X0064627Y0047519D01*
X0057137Y0044725D02*
X0056177Y0044725D01*
X0057137Y0044725D02*
X0057187Y0044776D01*
X0056177Y0044725D02*
X0056127Y0044685D01*
X0059877Y0053125D02*
X0060337Y0053125D01*
X0059877Y0053125D02*
X0059457Y0053125D01*
X0060337Y0053125D02*
X0060496Y0052964D01*
X0059457Y0053125D02*
X0059429Y0053185D01*
X0060496Y0052964D02*
X0060511Y0052951D01*
X0060977Y0044645D02*
X0061057Y0044645D01*
X0055687Y0038035D02*
X0055627Y0037986D01*
X0053057Y0032485D02*
X0052897Y0032485D01*
X0052877Y0032562D01*
D99*
X0061057Y0044645D03*
D98*
X0059877Y0053185D02*
X0061377Y0054685D01*
X0059877Y0053185D02*
X0059877Y0053125D01*
X0055697Y0038965D02*
X0055697Y0038005D01*
X0055697Y0038965D02*
X0057377Y0040645D01*
X0055697Y0038005D02*
X0055627Y0037986D01*
X0057377Y0040645D02*
X0057377Y0040685D01*
X0065377Y0047685D02*
X0065806Y0047256D01*
X0065806Y0043525D01*
X0053877Y0033562D02*
X0052877Y0032562D01*
X0053877Y0033562D02*
X0053877Y0035184D01*
X0042097Y0051765D02*
X0041697Y0051765D01*
X0041627Y0051715D01*
X0042097Y0051765D02*
X0042127Y0051715D01*
X0042097Y0049605D02*
X0042097Y0049365D01*
X0041377Y0050435D02*
X0041377Y0051445D01*
X0041377Y0050435D02*
X0041377Y0050245D01*
X0041377Y0051445D02*
X0041617Y0051685D01*
X0042127Y0049654D02*
X0042097Y0049605D01*
X0041617Y0051685D02*
X0041627Y0051715D01*
X0043137Y0051525D02*
X0044337Y0051525D01*
X0043137Y0051525D02*
X0042737Y0051125D01*
X0042497Y0051125D01*
X0042177Y0051445D01*
X0042177Y0051685D01*
X0044337Y0051525D02*
X0044377Y0051578D01*
X0042177Y0051685D02*
X0042127Y0051715D01*
X0043377Y0045125D02*
X0043377Y0042965D01*
X0043377Y0045125D02*
X0041457Y0047045D01*
X0040817Y0047045D01*
X0040176Y0047685D01*
X0043377Y0042965D02*
X0043429Y0042935D01*
X0041377Y0050245D02*
X0040977Y0050245D01*
X0040176Y0049445D01*
X0040176Y0047685D01*
X0040127Y0047685D01*
X0036276Y0048305D02*
X0035978Y0048305D01*
X0035767Y0048094D01*
X0037537Y0043305D02*
X0038907Y0041935D01*
X0036897Y0047685D02*
X0036276Y0048305D01*
X0035767Y0048094D02*
X0035767Y0047156D01*
X0037537Y0045386D01*
X0037537Y0043305D01*
X0037127Y0047685D02*
X0036897Y0047685D01*
X0041377Y0050435D02*
X0041622Y0050190D01*
X0041788Y0050190D01*
X0042127Y0049851D01*
X0042127Y0049654D01*
X0062876Y0037855D02*
X0063545Y0037187D01*
X0062876Y0037855D02*
X0062876Y0040633D01*
X0064097Y0040565D02*
X0064127Y0040633D01*
X0064127Y0037605D01*
X0064545Y0037187D01*
X0065377Y0037355D02*
X0065377Y0040633D01*
X0065377Y0037355D02*
X0065545Y0037187D01*
X0062092Y0040720D02*
X0062497Y0041125D01*
X0062092Y0040720D02*
X0062017Y0040645D01*
X0062497Y0041125D02*
X0065777Y0041125D01*
X0066097Y0040805D01*
X0062092Y0040720D02*
X0061714Y0040720D01*
X0061627Y0040633D01*
X0066097Y0040805D02*
X0066097Y0037635D01*
X0066545Y0037187D01*
X0060016Y0042245D02*
X0060016Y0043205D01*
X0060016Y0042245D02*
X0060256Y0042005D01*
X0060256Y0040485D02*
X0060256Y0038085D01*
X0060176Y0038005D01*
X0060016Y0043205D02*
X0059980Y0043244D01*
X0060176Y0038005D02*
X0060127Y0037986D01*
D99*
X0060256Y0042005D03*
X0060256Y0040485D03*
D98*
X0061996Y0021296D02*
X0062864Y0020428D01*
X0061996Y0021296D02*
X0061996Y0021652D01*
X0061109Y0021183D02*
X0061864Y0020428D01*
X0061109Y0021183D02*
X0060801Y0021183D01*
X0060331Y0021652D02*
X0056287Y0021652D01*
X0060331Y0021652D02*
X0060801Y0021183D01*
X0060864Y0020428D02*
X0060528Y0020428D01*
X0060058Y0019958D01*
X0054382Y0019958D02*
X0053596Y0020745D01*
X0052005Y0020745D01*
X0051553Y0020293D01*
X0048141Y0020293D01*
X0047690Y0020745D01*
X0054382Y0019958D02*
X0060058Y0019958D01*
X0045785Y0020745D02*
X0044877Y0021652D01*
X0045785Y0020745D02*
X0047690Y0020745D01*
X0043213Y0021652D02*
X0039377Y0021652D01*
X0043213Y0021652D02*
X0043682Y0022123D01*
X0045072Y0022123D02*
X0045450Y0021745D01*
X0045072Y0022123D02*
X0043682Y0022123D01*
X0059109Y0021183D02*
X0059864Y0020428D01*
X0059109Y0021183D02*
X0056092Y0021183D01*
X0055757Y0021518D01*
X0055757Y0021848D01*
X0054592Y0023013D01*
X0050109Y0023013D01*
X0048842Y0021745D02*
X0045450Y0021745D01*
X0048842Y0021745D02*
X0050109Y0023013D01*
X0054497Y0055925D02*
X0055617Y0055925D01*
X0054497Y0055925D02*
X0054429Y0055935D01*
X0055617Y0055925D02*
X0055627Y0055935D01*
X0034817Y0046325D02*
X0034817Y0045605D01*
X0034817Y0046325D02*
X0034576Y0046565D01*
X0034576Y0048164D01*
X0035937Y0049525D01*
X0038177Y0049525D01*
X0039617Y0050965D01*
X0034877Y0045578D02*
X0034817Y0045605D01*
X0039617Y0050965D02*
X0039645Y0050984D01*
X0043617Y0049365D02*
X0043617Y0048244D01*
X0043617Y0049365D02*
X0043576Y0049435D01*
X0043617Y0048244D02*
X0043576Y0048185D01*
X0041137Y0048244D02*
X0041137Y0047685D01*
X0041137Y0048244D02*
X0041137Y0049605D01*
X0041127Y0049654D01*
X0041137Y0047685D02*
X0041127Y0047685D01*
X0041137Y0048244D02*
X0043537Y0048244D01*
X0043576Y0048185D01*
X0058240Y0046275D02*
X0058300Y0046333D01*
X0056912Y0047626D02*
X0056436Y0047626D01*
X0056912Y0047626D02*
X0057036Y0047501D01*
X0058300Y0046520D02*
X0058404Y0046625D01*
X0058300Y0046520D02*
X0058300Y0046333D01*
X0058240Y0046275D02*
X0057624Y0046275D01*
X0057036Y0046861D01*
X0057036Y0047501D01*
X0056436Y0047626D02*
X0056377Y0047685D01*
X0060567Y0044147D02*
X0060999Y0044147D01*
X0061673Y0043474D01*
X0063640Y0043525D02*
X0064704Y0043525D01*
X0063640Y0043525D02*
X0063589Y0043474D01*
X0047137Y0028485D02*
X0047137Y0027605D01*
X0047125Y0027559D01*
X0047137Y0028485D02*
X0047125Y0028559D01*
X0053057Y0028485D02*
X0053057Y0027605D01*
X0053031Y0027559D01*
X0053057Y0028485D02*
X0053031Y0028559D01*
X0053081Y0022543D02*
X0051357Y0022543D01*
X0058394Y0020898D02*
X0058864Y0020428D01*
X0054726Y0020898D02*
X0053081Y0022543D01*
X0054726Y0020898D02*
X0058394Y0020898D01*
G04 next file*
G04 EAGLE Gerber RS-274X export*
G75*
G01*
D110*
X0072440Y0019685D02*
X0092666Y0034820D03*
X0092666Y0036789D03*
D111*
X0104431Y0044698D03*
D112*
X0105218Y0044698D03*
D111*
X0083225Y0045609D03*
D112*
X0082438Y0045609D03*
D113*
X0099195Y0042398D03*
X0100298Y0042398D03*
D110*
X0103263Y0043021D03*
X0105231Y0043021D03*
X0093211Y0045221D03*
X0091242Y0045221D03*
D111*
X0085109Y0039738D03*
D112*
X0085109Y0040526D03*
D111*
X0103471Y0052455D03*
D112*
X0104259Y0052455D03*
D111*
X0106341Y0050298D03*
D112*
X0105553Y0050298D03*
D110*
X0096248Y0044936D03*
X0098216Y0044936D03*
D111*
X0083310Y0043247D03*
D112*
X0082523Y0043247D03*
D110*
X0098340Y0040576D03*
X0098340Y0038607D03*
D111*
X0080449Y0042148D03*
D112*
X0080449Y0041360D03*
D111*
X0087358Y0034598D03*
D112*
X0086570Y0034598D03*
D114*
X0095725Y0036829D03*
X0095725Y0035727D03*
D111*
X0083308Y0057709D03*
D112*
X0082521Y0057709D03*
D113*
X0079700Y0055725D03*
X0080802Y0055725D03*
X0088167Y0023246D03*
X0089269Y0023246D03*
D111*
X0088311Y0025391D03*
D112*
X0089098Y0025391D03*
D111*
X0080444Y0057703D03*
D112*
X0079656Y0057703D03*
D113*
X0083500Y0054098D03*
X0082398Y0054098D03*
D115*
X0086533Y0020500D03*
D116*
X0085533Y0020500D03*
D115*
X0082556Y0056025D03*
D116*
X0083557Y0056025D03*
D117*
X0092960Y0038256D03*
X0092960Y0040303D03*
X0092461Y0038256D03*
X0093461Y0038256D03*
X0093961Y0038256D03*
X0092461Y0040303D03*
X0093461Y0040303D03*
X0093961Y0040303D03*
X0094961Y0038256D03*
X0094961Y0040303D03*
X0094461Y0038256D03*
X0095460Y0038256D03*
X0094461Y0040303D03*
X0095460Y0040303D03*
X0100718Y0046348D03*
X0100718Y0048396D03*
X0100218Y0046348D03*
X0101218Y0046348D03*
X0101717Y0046348D03*
X0100218Y0048396D03*
X0101218Y0048396D03*
X0101717Y0048396D03*
X0102718Y0046348D03*
X0102718Y0048396D03*
X0102218Y0046348D03*
X0103218Y0046348D03*
X0102218Y0048396D03*
X0103218Y0048396D03*
D118*
X0076624Y0028301D02*
X0075856Y0028301D01*
X0075856Y0034690D02*
X0076624Y0034690D01*
X0080856Y0028301D02*
X0081624Y0028301D01*
X0081624Y0034690D02*
X0080856Y0034690D01*
D119*
X0088512Y0030219D03*
X0087251Y0030219D03*
X0086386Y0030219D03*
X0085519Y0030219D03*
X0088512Y0028133D03*
X0087251Y0028133D03*
X0086386Y0028133D03*
X0085519Y0028133D03*
D120*
X0092750Y0020978D03*
X0094553Y0020978D03*
D121*
X0093168Y0030832D03*
X0094168Y0030832D03*
X0094168Y0033589D03*
X0093168Y0033589D03*
D118*
X0103100Y0034690D02*
X0103867Y0034690D01*
X0103867Y0028301D02*
X0103100Y0028301D01*
X0098867Y0034690D02*
X0098100Y0034690D01*
X0098100Y0028301D02*
X0098867Y0028301D01*
D122*
X0100275Y0044290D03*
X0099155Y0044290D03*
D123*
X0101984Y0050871D03*
X0100252Y0051373D03*
X0101984Y0051874D03*
X0086759Y0045527D03*
X0085027Y0046028D03*
X0086759Y0046529D03*
D124*
X0093561Y0044124D03*
X0093561Y0043004D03*
D122*
X0093512Y0041731D03*
X0092393Y0041731D03*
D123*
X0086792Y0043682D03*
X0085060Y0044185D03*
X0086792Y0044686D03*
D122*
X0096224Y0046708D03*
X0097344Y0046708D03*
X0104298Y0049821D03*
X0103179Y0049821D03*
X0101209Y0052958D03*
X0100089Y0052958D03*
D125*
X0104365Y0046616D03*
X0104867Y0048348D03*
X0105368Y0046616D03*
D124*
X0106477Y0047673D03*
X0106477Y0046553D03*
X0083779Y0035205D03*
X0083779Y0034085D03*
D123*
X0075511Y0042401D03*
X0073779Y0042901D03*
X0075511Y0043403D03*
D126*
X0094225Y0029026D03*
X0094225Y0027924D03*
D122*
X0099170Y0043346D03*
X0100290Y0043346D03*
X0104248Y0050789D03*
X0103129Y0050789D03*
X0100287Y0045174D03*
X0099167Y0045174D03*
D127*
X0093610Y0026525D03*
X0092507Y0026525D03*
D122*
X0102352Y0044284D03*
X0101232Y0044284D03*
X0104384Y0040149D03*
X0103265Y0040149D03*
X0104302Y0041830D03*
X0103182Y0041830D03*
D127*
X0092507Y0025112D03*
X0093610Y0025112D03*
D126*
X0095696Y0029031D03*
X0095696Y0027930D03*
D122*
X0090306Y0035039D03*
X0091425Y0035039D03*
X0101237Y0045175D03*
X0102356Y0045175D03*
X0094708Y0041708D03*
X0095828Y0041708D03*
D124*
X0094603Y0035693D03*
X0094603Y0036812D03*
D122*
X0092646Y0046211D03*
X0091526Y0046211D03*
X0093795Y0046905D03*
X0094914Y0046905D03*
D128*
X0085098Y0021644D03*
X0086893Y0021644D03*
D129*
X0085996Y0024518D03*
D130*
X0096357Y0025057D03*
X0096357Y0024557D03*
X0096357Y0024057D03*
X0096357Y0023557D03*
X0099277Y0023557D03*
X0099277Y0024057D03*
X0099277Y0024557D03*
X0099277Y0025057D03*
D131*
X0079055Y0037007D03*
X0078070Y0037007D03*
X0077086Y0037007D03*
D132*
X0079803Y0039763D03*
X0076338Y0039763D03*
D133*
X0085523Y0055825D03*
D134*
X0085523Y0058003D03*
D135*
X0090557Y0029807D03*
X0090557Y0028075D03*
D136*
X0085637Y0026175D03*
X0086637Y0026175D03*
D137*
X0085637Y0026175D01*
D138*
X0105687Y0040944D02*
X0106281Y0040944D01*
X0106281Y0041731D02*
X0105687Y0041731D01*
X0105687Y0037795D02*
X0106281Y0037795D01*
X0106281Y0040157D02*
X0105687Y0040157D01*
X0105687Y0039369D02*
X0106281Y0039369D01*
X0106281Y0038582D02*
X0105687Y0038582D01*
D139*
X0101653Y0042125D03*
X0101653Y0037401D03*
D140*
X0102334Y0026049D02*
X0103074Y0026049D01*
X0103074Y0025049D02*
X0102334Y0025049D01*
X0102334Y0024049D02*
X0103074Y0024049D01*
X0103074Y0023049D02*
X0102334Y0023049D01*
X0102334Y0022049D02*
X0103074Y0022049D01*
X0103074Y0021049D02*
X0102334Y0021049D01*
D118*
X0078220Y0024232D02*
X0078220Y0025000D01*
X0079480Y0025000D02*
X0079480Y0024232D01*
X0080740Y0024232D02*
X0080740Y0025000D01*
X0080740Y0026181D02*
X0080740Y0026948D01*
X0079480Y0026948D02*
X0079480Y0026181D01*
X0078220Y0026181D02*
X0078220Y0026948D01*
D110*
X0100088Y0049871D03*
X0102057Y0049871D03*
D141*
X0106115Y0055118D03*
X0073642Y0055118D03*
D142*
X0092794Y0029031D03*
X0092044Y0028532D03*
X0092794Y0028032D03*
D113*
X0086251Y0054055D03*
X0085149Y0054055D03*
D127*
X0093610Y0023699D03*
X0092507Y0023699D03*
D124*
X0092391Y0042989D03*
X0092391Y0044109D03*
D115*
X0088573Y0044922D03*
D116*
X0088573Y0043922D03*
D115*
X0090056Y0043804D03*
D116*
X0090056Y0044804D03*
D115*
X0098086Y0042078D03*
D116*
X0097086Y0042078D03*
D115*
X0097003Y0043531D03*
D116*
X0098003Y0043531D03*
D110*
X0088440Y0046142D03*
X0090408Y0046142D03*
D122*
X0080934Y0045548D03*
X0079814Y0045548D03*
X0079838Y0043996D03*
X0080958Y0043996D03*
D131*
X0087106Y0040748D03*
X0087106Y0039763D03*
X0087106Y0038779D03*
D143*
X0089862Y0041496D03*
X0089862Y0038031D03*
D123*
X0086785Y0041804D03*
X0085053Y0042305D03*
X0086785Y0042806D03*
D124*
X0091449Y0038055D03*
X0091449Y0039175D03*
X0096324Y0038140D03*
X0096324Y0039260D03*
D117*
X0078277Y0043906D03*
X0078277Y0041859D03*
X0078776Y0043906D03*
X0077777Y0043906D03*
X0077277Y0043906D03*
X0078776Y0041859D03*
X0077777Y0041859D03*
X0077277Y0041859D03*
D113*
X0098390Y0022057D03*
X0097287Y0022057D03*
D133*
X0091251Y0031509D03*
X0089578Y0031509D03*
D124*
X0088581Y0039661D03*
X0088581Y0040781D03*
D144*
X0097937Y0051219D02*
X0098707Y0051219D01*
X0098707Y0050218D02*
X0097937Y0050218D01*
X0097937Y0049219D02*
X0098707Y0049219D01*
X0079416Y0051219D02*
X0078646Y0051219D01*
X0078646Y0050218D02*
X0079416Y0050218D01*
X0079416Y0049219D02*
X0078646Y0049219D01*
X0088842Y0053547D02*
X0088842Y0054317D01*
X0089842Y0054317D02*
X0089842Y0053547D01*
X0090841Y0053547D02*
X0090841Y0054317D01*
D131*
X0090846Y0051968D03*
X0089862Y0051968D03*
X0088877Y0051968D03*
D145*
X0091594Y0049212D03*
X0088129Y0049212D03*
D146*
X0094637Y0043852D02*
X0095197Y0043852D01*
X0095197Y0044852D02*
X0094637Y0044852D01*
X0094637Y0045852D02*
X0095197Y0045852D01*
D147*
X0103162Y0049898D02*
X0103162Y0050782D01*
X0103129Y0050789D01*
X0103162Y0049898D02*
X0103179Y0049821D01*
X0102278Y0048934D02*
X0102278Y0048451D01*
X0102278Y0048934D02*
X0103162Y0049817D01*
X0102278Y0048451D02*
X0102218Y0048396D01*
X0103162Y0049817D02*
X0103179Y0049821D01*
X0103402Y0051102D02*
X0103402Y0052389D01*
X0103402Y0051102D02*
X0103162Y0050861D01*
X0103402Y0052389D02*
X0103471Y0052455D01*
X0103162Y0050861D02*
X0103129Y0050789D01*
X0094564Y0035755D02*
X0093680Y0035755D01*
X0092716Y0036720D01*
X0094564Y0035755D02*
X0094603Y0035693D01*
X0092716Y0036720D02*
X0092666Y0036789D01*
X0093439Y0037523D02*
X0093439Y0038246D01*
X0093439Y0037523D02*
X0092716Y0036800D01*
X0093439Y0038246D02*
X0093461Y0038256D01*
X0092716Y0036800D02*
X0092666Y0036789D01*
X0090546Y0035032D02*
X0090385Y0035032D01*
X0090546Y0035032D02*
X0091028Y0034549D01*
X0092394Y0034549D01*
X0092635Y0034791D01*
X0090385Y0035032D02*
X0090306Y0035039D01*
X0092635Y0034791D02*
X0092666Y0034820D01*
X0086448Y0031175D02*
X0086448Y0030291D01*
X0086448Y0031175D02*
X0090305Y0035032D01*
X0086448Y0030291D02*
X0086386Y0030219D01*
X0090305Y0035032D02*
X0090306Y0035039D01*
X0105368Y0046616D02*
X0105412Y0046684D01*
X0100189Y0050541D02*
X0100189Y0051344D01*
X0100189Y0050541D02*
X0099705Y0050058D01*
X0099705Y0048130D01*
X0100108Y0047728D01*
X0100992Y0047728D01*
X0100189Y0051344D02*
X0100252Y0051373D01*
X0105330Y0046603D02*
X0104608Y0045880D01*
X0105330Y0046603D02*
X0105368Y0046616D01*
D148*
X0100992Y0047728D03*
X0104608Y0045880D03*
D147*
X0100114Y0044290D02*
X0099170Y0043346D01*
X0100920Y0043646D02*
X0101227Y0043646D01*
D149*
X0101227Y0043646D03*
D147*
X0100920Y0043646D02*
X0100275Y0044290D01*
X0105218Y0044698D02*
X0105251Y0044755D01*
X0105218Y0045294D02*
X0106477Y0046553D01*
X0105218Y0045294D02*
X0105218Y0044698D01*
X0104367Y0044755D02*
X0104367Y0046603D01*
X0104365Y0046616D01*
X0104367Y0044755D02*
X0104431Y0044698D01*
X0102278Y0046362D02*
X0102278Y0046684D01*
X0102278Y0046362D02*
X0102218Y0046348D01*
X0102225Y0045306D02*
X0102356Y0045175D01*
X0104126Y0048291D02*
X0104848Y0048291D01*
X0104126Y0048291D02*
X0102760Y0046925D01*
X0102518Y0046925D01*
X0102278Y0046684D01*
X0104848Y0048291D02*
X0104867Y0048348D01*
X0102278Y0046684D02*
X0102218Y0046348D01*
X0102197Y0046282D02*
X0102197Y0045344D01*
X0102356Y0045175D01*
X0102197Y0046282D02*
X0102218Y0046348D01*
X0100189Y0046282D02*
X0100189Y0045960D01*
X0100189Y0046282D02*
X0100218Y0046348D01*
X0100189Y0045960D02*
X0099465Y0045237D01*
X0100189Y0045960D02*
X0100218Y0046348D01*
X0099167Y0045174D02*
X0099167Y0044302D01*
X0099155Y0044290D01*
X0100318Y0045077D02*
X0100287Y0045174D01*
X0100282Y0045169D01*
X0100671Y0045559D02*
X0100671Y0046282D01*
X0100671Y0045559D02*
X0100349Y0045237D01*
X0100671Y0046282D02*
X0100718Y0046348D01*
X0100349Y0045237D02*
X0100287Y0045174D01*
X0100359Y0045157D02*
X0101232Y0044284D01*
X0100359Y0045157D02*
X0100349Y0045157D01*
X0100269Y0045157D01*
X0100287Y0045174D02*
X0100349Y0045157D01*
X0101153Y0046362D02*
X0101153Y0046684D01*
X0101153Y0046362D02*
X0101218Y0046348D01*
X0101237Y0045175D02*
X0101240Y0045095D01*
X0101233Y0045176D02*
X0101233Y0046282D01*
X0101233Y0045176D02*
X0101237Y0045175D01*
X0101233Y0046282D02*
X0101218Y0046348D01*
X0101676Y0043456D02*
X0101565Y0043346D01*
X0100371Y0043346D01*
X0100290Y0043346D01*
X0101676Y0044736D02*
X0101237Y0045175D01*
X0101676Y0044736D02*
X0101676Y0043456D01*
X0100298Y0043273D02*
X0100298Y0042398D01*
X0100298Y0043273D02*
X0100371Y0043346D01*
X0103242Y0042987D02*
X0103242Y0041862D01*
X0103182Y0041830D01*
X0103242Y0042987D02*
X0103263Y0043021D01*
X0103242Y0043068D01*
X0103162Y0046282D02*
X0103218Y0046348D01*
X0103242Y0043394D02*
X0103242Y0042987D01*
X0103242Y0043394D02*
X0102352Y0044284D01*
X0103162Y0045094D01*
X0103162Y0046282D01*
X0103322Y0041059D02*
X0103322Y0040175D01*
X0103322Y0041059D02*
X0103804Y0041541D01*
X0103804Y0042184D01*
X0104608Y0042987D01*
X0105170Y0042987D01*
X0103322Y0040175D02*
X0103265Y0040149D01*
X0105170Y0042987D02*
X0105231Y0043021D01*
X0102760Y0046362D02*
X0102760Y0046684D01*
X0103001Y0046925D01*
X0103402Y0046925D01*
X0103965Y0046362D01*
X0103965Y0043630D01*
X0104608Y0042987D01*
X0102760Y0046362D02*
X0102718Y0046348D01*
X0077448Y0042425D02*
X0075520Y0042425D01*
X0077448Y0042425D02*
X0077770Y0042103D01*
X0077770Y0041862D01*
X0075520Y0042425D02*
X0075511Y0042401D01*
X0077770Y0041862D02*
X0077777Y0041859D01*
X0080196Y0042401D02*
X0080449Y0042148D01*
X0080196Y0042401D02*
X0078957Y0042401D01*
X0078945Y0042412D01*
X0078079Y0042412D01*
X0077770Y0042103D01*
X0083716Y0028122D02*
X0081225Y0025631D01*
X0078011Y0025631D01*
X0077689Y0025952D01*
X0077689Y0035987D01*
X0078070Y0036368D02*
X0078070Y0037007D01*
X0078070Y0036368D02*
X0077689Y0035987D01*
X0083716Y0028122D02*
X0085508Y0028122D01*
X0085519Y0028133D01*
X0104446Y0040175D02*
X0105974Y0040175D01*
X0104446Y0040175D02*
X0104384Y0040149D01*
X0105974Y0040175D02*
X0105983Y0040157D01*
X0106053Y0040095D02*
X0106053Y0039370D01*
X0105983Y0039369D01*
X0106053Y0040095D02*
X0105983Y0040157D01*
X0105974Y0041782D02*
X0104367Y0041782D01*
X0104302Y0041830D01*
X0105974Y0041782D02*
X0105983Y0041731D01*
X0106053Y0041702D02*
X0106053Y0040978D01*
X0105983Y0040944D01*
X0106053Y0041702D02*
X0105983Y0041731D01*
X0100108Y0052389D02*
X0100108Y0052951D01*
X0100108Y0052389D02*
X0100831Y0051666D01*
X0100831Y0050621D01*
X0100108Y0049898D01*
X0100108Y0052951D02*
X0100089Y0052958D01*
X0100108Y0049898D02*
X0100088Y0049871D01*
X0100189Y0049737D02*
X0100189Y0048451D01*
X0100189Y0049737D02*
X0100108Y0049817D01*
X0100189Y0048451D02*
X0100218Y0048396D01*
X0100108Y0049817D02*
X0100088Y0049871D01*
X0100108Y0052389D02*
X0096382Y0052389D01*
X0092445Y0048451D01*
X0089662Y0048451D01*
X0086759Y0045548D01*
X0086759Y0045527D01*
X0101233Y0051666D02*
X0101233Y0052951D01*
X0101233Y0051666D02*
X0101956Y0050942D01*
X0101233Y0052951D02*
X0101209Y0052958D01*
X0101956Y0050942D02*
X0101984Y0050871D01*
X0100751Y0048692D02*
X0100751Y0048451D01*
X0100751Y0048692D02*
X0101876Y0049817D01*
X0102037Y0049817D01*
X0100751Y0048451D02*
X0100718Y0048396D01*
X0102037Y0049817D02*
X0102057Y0049871D01*
X0102037Y0049898D02*
X0102037Y0050861D01*
X0101984Y0050871D01*
X0102037Y0049898D02*
X0102057Y0049871D01*
X0091268Y0045237D02*
X0091242Y0045221D01*
X0091480Y0046399D02*
X0091433Y0046445D01*
X0091430Y0046348D02*
X0091430Y0046215D01*
X0091430Y0046348D02*
X0091480Y0046398D01*
X0091480Y0046399D01*
X0091517Y0046128D02*
X0091526Y0046119D01*
X0091517Y0046128D02*
X0091430Y0046215D01*
X0091526Y0045505D02*
X0091242Y0045221D01*
X0091526Y0045505D02*
X0091526Y0046211D01*
X0091517Y0046128D02*
X0091510Y0046121D01*
X0091526Y0046211D01*
X0093519Y0044916D02*
X0093519Y0044193D01*
X0093519Y0044916D02*
X0093278Y0045157D01*
X0093519Y0044193D02*
X0093561Y0044124D01*
X0093278Y0045157D02*
X0093211Y0045221D01*
X0093519Y0042987D02*
X0092394Y0042987D01*
X0092391Y0042989D01*
X0093519Y0042987D02*
X0093519Y0041782D01*
X0093512Y0041731D01*
X0093519Y0042987D02*
X0093561Y0043004D01*
X0093036Y0041300D02*
X0093036Y0040336D01*
X0093036Y0041300D02*
X0093439Y0041702D01*
X0093036Y0040336D02*
X0092960Y0040303D01*
X0093439Y0041702D02*
X0093512Y0041731D01*
X0099305Y0023542D02*
X0102197Y0023542D01*
X0102678Y0024024D01*
X0099305Y0023542D02*
X0099277Y0023557D01*
X0102678Y0024024D02*
X0102704Y0024049D01*
X0099224Y0024104D02*
X0099064Y0024265D01*
X0098983Y0024265D01*
X0098821Y0024425D01*
X0098821Y0024747D01*
X0098903Y0024827D01*
X0102518Y0024827D01*
X0102678Y0024988D01*
X0099277Y0024057D02*
X0099224Y0024104D01*
X0102678Y0024988D02*
X0102704Y0025049D01*
X0098821Y0024827D02*
X0095769Y0027881D01*
X0098821Y0024827D02*
X0098903Y0024827D01*
X0095769Y0027881D02*
X0095696Y0027930D01*
X0103277Y0024540D02*
X0103565Y0024253D01*
X0103565Y0023846D01*
X0103277Y0023559D01*
X0103213Y0023559D01*
X0102704Y0023049D01*
X0099294Y0024540D02*
X0099277Y0024557D01*
X0099294Y0024540D02*
X0103277Y0024540D01*
X0097215Y0024988D02*
X0096412Y0024988D01*
X0097215Y0024988D02*
X0101153Y0021051D01*
X0102678Y0021051D01*
X0096412Y0024988D02*
X0096357Y0025057D01*
X0102678Y0021051D02*
X0102704Y0021049D01*
X0094162Y0029086D02*
X0093680Y0029086D01*
X0091268Y0031497D01*
X0094162Y0029086D02*
X0094225Y0029026D01*
X0091268Y0031497D02*
X0091251Y0031509D01*
X0089582Y0028122D02*
X0088537Y0028122D01*
X0089582Y0028122D02*
X0090546Y0028122D01*
X0090557Y0028075D01*
X0088537Y0028122D02*
X0088512Y0028133D01*
X0092716Y0028041D02*
X0092716Y0028443D01*
X0092233Y0028925D01*
X0091430Y0028925D01*
X0090626Y0028122D01*
X0092716Y0028041D02*
X0092794Y0028032D01*
X0090626Y0028122D02*
X0090557Y0028075D01*
X0089582Y0028122D02*
X0089582Y0031497D01*
X0089578Y0031509D01*
X0092555Y0026515D02*
X0092555Y0025149D01*
X0092507Y0025112D01*
X0092555Y0026515D02*
X0092507Y0026525D01*
X0092073Y0026997D02*
X0092073Y0028523D01*
X0092073Y0026997D02*
X0092475Y0026595D01*
X0092073Y0028523D02*
X0092044Y0028532D01*
X0092475Y0026595D02*
X0092507Y0026525D01*
X0094162Y0024586D02*
X0096332Y0024586D01*
X0094162Y0024586D02*
X0093680Y0025068D01*
X0096332Y0024586D02*
X0096357Y0024557D01*
X0093680Y0025068D02*
X0093610Y0025112D01*
X0090546Y0029809D02*
X0090546Y0031015D01*
X0090144Y0031416D01*
X0090144Y0031738D01*
X0089823Y0032059D01*
X0089341Y0032059D01*
X0088537Y0031256D01*
X0088537Y0030291D01*
X0090546Y0029809D02*
X0090557Y0029807D01*
X0088537Y0030291D02*
X0088512Y0030219D01*
X0086850Y0021613D02*
X0086850Y0020810D01*
X0086609Y0020568D01*
X0086850Y0021613D02*
X0086893Y0021644D01*
X0086609Y0020568D02*
X0086533Y0020500D01*
X0088216Y0023300D02*
X0088216Y0025309D01*
X0088295Y0025390D01*
X0088216Y0023300D02*
X0088167Y0023246D01*
X0088295Y0025390D02*
X0088311Y0025391D01*
X0086930Y0022014D02*
X0086930Y0021692D01*
X0086930Y0022014D02*
X0088135Y0023220D01*
X0086930Y0021692D02*
X0086893Y0021644D01*
X0088135Y0023220D02*
X0088167Y0023246D01*
X0088457Y0029086D02*
X0088457Y0030211D01*
X0088457Y0029086D02*
X0088216Y0028845D01*
X0088216Y0025550D01*
X0088295Y0025470D01*
X0088457Y0030211D02*
X0088512Y0030219D01*
X0088295Y0025470D02*
X0088311Y0025391D01*
X0099305Y0025068D02*
X0101635Y0025068D01*
X0102678Y0026113D01*
X0099305Y0025068D02*
X0099277Y0025057D01*
X0102678Y0026113D02*
X0102704Y0026049D01*
X0098340Y0022014D02*
X0098099Y0022014D01*
X0096492Y0020408D01*
X0092475Y0020408D01*
X0092152Y0020729D01*
X0092152Y0022738D02*
X0092152Y0023300D01*
X0092152Y0022738D02*
X0092152Y0020729D01*
X0092152Y0023300D02*
X0092475Y0023622D01*
X0098340Y0022014D02*
X0098390Y0022057D01*
X0092507Y0023699D02*
X0092475Y0023622D01*
X0094162Y0026193D02*
X0094162Y0027881D01*
X0094162Y0026193D02*
X0093599Y0025631D01*
X0093198Y0025631D01*
X0092957Y0025390D01*
X0092957Y0024104D01*
X0092555Y0023702D01*
X0094162Y0027881D02*
X0094225Y0027924D01*
X0092555Y0023702D02*
X0092507Y0023699D01*
X0099224Y0025068D02*
X0099224Y0025309D01*
X0096090Y0028443D01*
X0094724Y0028443D01*
X0094242Y0027961D01*
X0099224Y0025068D02*
X0099277Y0025057D01*
X0094225Y0027924D02*
X0094242Y0027961D01*
X0088376Y0023220D02*
X0088216Y0023220D01*
X0088376Y0023220D02*
X0088859Y0022738D01*
X0092152Y0022738D01*
X0088216Y0023220D02*
X0088167Y0023246D01*
X0094001Y0024024D02*
X0096332Y0024024D01*
X0094001Y0024024D02*
X0093680Y0023702D01*
X0096332Y0024024D02*
X0096357Y0024057D01*
X0093680Y0023702D02*
X0093610Y0023699D01*
X0092796Y0022818D02*
X0092796Y0021051D01*
X0092796Y0022818D02*
X0093599Y0023622D01*
X0092796Y0021051D02*
X0092750Y0020978D01*
X0093599Y0023622D02*
X0093610Y0023699D01*
X0095046Y0029086D02*
X0095689Y0029086D01*
X0095046Y0029086D02*
X0093920Y0030211D01*
X0093760Y0030211D01*
X0093198Y0030773D01*
X0095689Y0029086D02*
X0095696Y0029031D01*
X0093198Y0030773D02*
X0093168Y0030832D01*
X0085484Y0030211D02*
X0083153Y0030211D01*
X0081305Y0028363D01*
X0085484Y0030211D02*
X0085519Y0030219D01*
X0081305Y0028363D02*
X0081240Y0028301D01*
X0080742Y0027799D02*
X0080742Y0026193D01*
X0080742Y0027799D02*
X0081225Y0028282D01*
X0080742Y0026193D02*
X0080740Y0026181D01*
X0081225Y0028282D02*
X0081240Y0028301D01*
X0086689Y0027559D02*
X0087251Y0028122D01*
X0086689Y0027559D02*
X0086689Y0027479D01*
X0085805Y0026595D01*
X0083877Y0026595D01*
X0080984Y0023702D01*
X0080502Y0023702D01*
X0079537Y0024667D01*
X0079537Y0024988D01*
X0087251Y0028122D02*
X0087251Y0028133D01*
X0079537Y0024988D02*
X0079480Y0025000D01*
X0086320Y0034598D02*
X0086570Y0034598D01*
X0086320Y0034598D02*
X0085713Y0035205D01*
X0083779Y0035205D01*
X0087251Y0030211D02*
X0086689Y0029647D01*
X0086689Y0029568D01*
X0086609Y0029488D01*
X0086127Y0029488D01*
X0085805Y0029809D01*
X0085805Y0030934D01*
X0085725Y0031015D01*
X0082832Y0031015D01*
X0079537Y0027719D01*
X0079537Y0026193D01*
X0087251Y0030211D02*
X0087251Y0030219D01*
X0079537Y0026193D02*
X0079480Y0026181D01*
X0094242Y0033666D02*
X0097456Y0033666D01*
X0098421Y0034630D01*
X0094242Y0033666D02*
X0094168Y0033589D01*
X0098421Y0034630D02*
X0098484Y0034690D01*
X0086448Y0028443D02*
X0086448Y0028202D01*
X0086448Y0028443D02*
X0087731Y0029728D01*
X0087731Y0031187D01*
X0089247Y0032702D01*
X0093278Y0032702D01*
X0094162Y0033585D01*
X0086448Y0028202D02*
X0086386Y0028133D01*
X0094162Y0033585D02*
X0094168Y0033589D01*
X0094242Y0036318D02*
X0094001Y0036559D01*
X0097135Y0036744D02*
X0097135Y0038243D01*
X0097135Y0036744D02*
X0096709Y0036318D01*
X0094242Y0036318D01*
X0097135Y0038243D02*
X0098516Y0039624D01*
X0080742Y0056647D02*
X0080742Y0057451D01*
X0080742Y0056647D02*
X0080742Y0055764D01*
X0080742Y0057451D02*
X0080502Y0057692D01*
X0080742Y0055764D02*
X0080802Y0055725D01*
X0080502Y0057692D02*
X0080444Y0057703D01*
X0083554Y0054076D02*
X0085082Y0054076D01*
X0085149Y0054055D01*
X0083554Y0054076D02*
X0083500Y0054098D01*
X0083314Y0056326D02*
X0083314Y0056647D01*
X0083314Y0057692D01*
X0083314Y0056326D02*
X0083554Y0056084D01*
X0083314Y0057692D02*
X0083308Y0057709D01*
X0083554Y0056084D02*
X0083557Y0056025D01*
X0083554Y0056005D02*
X0083554Y0054156D01*
X0083500Y0054098D01*
X0083554Y0056005D02*
X0083557Y0056025D01*
X0083314Y0056647D02*
X0080742Y0056647D01*
X0085162Y0021613D02*
X0085162Y0020890D01*
X0085484Y0020568D01*
X0085162Y0021613D02*
X0085098Y0021644D01*
X0085484Y0020568D02*
X0085533Y0020500D01*
X0078331Y0041862D02*
X0078277Y0041859D01*
X0078787Y0021692D02*
X0085082Y0021692D01*
X0078787Y0021692D02*
X0075690Y0024792D01*
X0075690Y0027229D01*
X0073591Y0029327D01*
X0073591Y0039612D01*
X0073619Y0039640D02*
X0075279Y0041300D01*
X0073619Y0039640D02*
X0073591Y0039612D01*
X0075279Y0041300D02*
X0078011Y0041300D01*
X0078252Y0041541D01*
X0078252Y0041782D01*
X0085082Y0021692D02*
X0085098Y0021644D01*
X0078252Y0041782D02*
X0078277Y0041859D01*
X0083475Y0054076D02*
X0083500Y0054098D01*
X0073227Y0040031D02*
X0073619Y0039640D01*
X0073227Y0043397D02*
X0079031Y0049219D01*
X0073227Y0043397D02*
X0073227Y0040031D01*
X0078623Y0049219D02*
X0079031Y0049219D01*
X0078623Y0049219D02*
X0078035Y0049830D01*
X0078035Y0052958D02*
X0080802Y0055725D01*
X0078035Y0052958D02*
X0078035Y0049830D01*
X0085149Y0054055D02*
X0087780Y0051425D01*
X0094001Y0038216D02*
X0094001Y0036559D01*
X0094001Y0038216D02*
X0093961Y0038256D01*
X0100441Y0039624D02*
X0102678Y0041862D01*
X0100441Y0039624D02*
X0098516Y0039624D01*
X0104286Y0049775D02*
X0104286Y0049817D01*
X0101796Y0046684D02*
X0101796Y0046362D01*
X0104286Y0049817D02*
X0104298Y0049821D01*
X0101796Y0046362D02*
X0101717Y0046348D01*
X0101796Y0046684D02*
X0101635Y0046684D01*
X0101796Y0046684D02*
X0101717Y0046348D01*
X0101717Y0044921D01*
X0101881Y0044757D01*
X0101881Y0043815D01*
X0102678Y0043017D01*
X0102678Y0041862D01*
X0092119Y0051425D02*
X0094324Y0053630D01*
X0103858Y0052772D02*
X0103858Y0052141D01*
X0103698Y0050363D02*
X0104286Y0049775D01*
X0103698Y0051982D02*
X0103858Y0052141D01*
X0103698Y0051982D02*
X0103698Y0050363D01*
X0103858Y0052772D02*
X0103000Y0053630D01*
X0094324Y0053630D01*
X0092119Y0051425D02*
X0087780Y0051425D01*
X0103581Y0049104D02*
X0104298Y0049821D01*
X0103581Y0049104D02*
X0102705Y0049104D01*
X0102457Y0048856D01*
X0102457Y0047345D01*
X0101796Y0046684D01*
X0095689Y0035675D02*
X0095448Y0035675D01*
X0094001Y0034228D01*
X0093760Y0034228D01*
X0093198Y0033666D01*
X0095689Y0035675D02*
X0095725Y0035727D01*
X0093198Y0033666D02*
X0093168Y0033589D01*
X0092394Y0035113D02*
X0091430Y0035113D01*
X0092394Y0035113D02*
X0092475Y0035192D01*
X0092796Y0035192D01*
X0093760Y0034228D01*
X0091425Y0035039D02*
X0091430Y0035113D01*
X0079698Y0055764D02*
X0079698Y0057692D01*
X0079698Y0055764D02*
X0079700Y0055725D01*
X0079698Y0057692D02*
X0079656Y0057703D01*
X0082430Y0055923D02*
X0082430Y0054156D01*
X0082430Y0055923D02*
X0082510Y0056005D01*
X0082430Y0054156D02*
X0082398Y0054098D01*
X0082510Y0056005D02*
X0082556Y0056025D01*
X0081786Y0034148D02*
X0083716Y0034148D01*
X0081786Y0034148D02*
X0081305Y0034630D01*
X0083716Y0034148D02*
X0083779Y0034085D01*
X0081305Y0034630D02*
X0081240Y0034690D01*
X0077277Y0043906D02*
X0077288Y0043952D01*
X0079031Y0051219D02*
X0078975Y0051263D01*
X0094001Y0040978D02*
X0094001Y0040336D01*
X0093961Y0040303D01*
X0079136Y0055121D02*
X0073672Y0055121D01*
X0079136Y0055121D02*
X0079698Y0055682D01*
X0073672Y0055121D02*
X0073642Y0055118D01*
X0079698Y0055682D02*
X0079700Y0055725D01*
X0084680Y0024506D02*
X0085966Y0024506D01*
X0085996Y0024518D01*
X0095769Y0035755D02*
X0100751Y0035755D01*
X0100831Y0035836D01*
X0102358Y0035836D01*
X0103483Y0034711D01*
X0095769Y0035755D02*
X0095725Y0035727D01*
X0103483Y0034711D02*
X0103484Y0034690D01*
D148*
X0094001Y0040978D03*
X0084680Y0024506D03*
D147*
X0085996Y0025816D02*
X0085637Y0026175D01*
X0085996Y0025816D02*
X0085996Y0024518D01*
X0077277Y0043906D02*
X0076951Y0044231D01*
X0076951Y0045037D01*
D149*
X0076951Y0045037D03*
D147*
X0104286Y0050782D02*
X0105010Y0050782D01*
X0105492Y0050300D01*
X0104286Y0050782D02*
X0104248Y0050789D01*
X0105492Y0050300D02*
X0105553Y0050298D01*
X0101715Y0048371D02*
X0101715Y0047728D01*
X0101715Y0048371D02*
X0101717Y0048396D01*
X0106053Y0054237D02*
X0106053Y0055039D01*
X0106053Y0054237D02*
X0104286Y0052468D01*
X0106053Y0055039D02*
X0106115Y0055118D01*
X0104286Y0052468D02*
X0104259Y0052455D01*
D148*
X0101715Y0047728D03*
D147*
X0096412Y0023542D02*
X0096412Y0022899D01*
X0097215Y0022094D01*
X0096412Y0023542D02*
X0096357Y0023557D01*
X0097215Y0022094D02*
X0097287Y0022057D01*
X0089260Y0023300D02*
X0089260Y0025229D01*
X0089100Y0025390D01*
X0089260Y0023300D02*
X0089269Y0023246D01*
X0089100Y0025390D02*
X0089098Y0025391D01*
X0093599Y0026595D02*
X0093599Y0028202D01*
X0092796Y0029006D01*
X0093599Y0026595D02*
X0093610Y0026525D01*
X0092796Y0029006D02*
X0092794Y0029031D01*
X0094162Y0030854D02*
X0092957Y0032059D01*
X0091028Y0032059D01*
X0090626Y0031656D01*
X0090626Y0031175D01*
X0092716Y0029086D01*
X0094168Y0030832D02*
X0094162Y0030854D01*
X0092794Y0029031D02*
X0092716Y0029086D01*
X0096412Y0022899D02*
X0094564Y0021051D01*
X0094553Y0020978D01*
X0087362Y0026175D02*
X0086637Y0026175D01*
X0087362Y0026175D02*
X0087411Y0026126D01*
D149*
X0087411Y0026126D03*
D147*
X0077850Y0046369D02*
X0077850Y0046443D01*
X0077850Y0046369D02*
X0077850Y0043952D01*
X0077777Y0043906D01*
X0078975Y0050138D02*
X0079031Y0050218D01*
X0086609Y0044755D02*
X0086769Y0044755D01*
X0086609Y0044755D02*
X0086207Y0045157D01*
X0086207Y0046041D01*
X0086689Y0046523D01*
X0086769Y0044755D02*
X0086792Y0044686D01*
X0086689Y0046523D02*
X0086759Y0046529D01*
X0087091Y0038809D02*
X0085323Y0038809D01*
X0084680Y0039452D01*
X0084680Y0040657D01*
X0086207Y0042184D01*
X0086287Y0042184D01*
X0086527Y0042425D01*
X0087332Y0042425D01*
X0087411Y0042505D01*
X0087411Y0043068D01*
X0087251Y0043228D01*
X0086367Y0043228D01*
X0086207Y0043389D01*
X0086207Y0044353D01*
X0086609Y0044755D01*
X0087091Y0038809D02*
X0087106Y0038779D01*
X0086792Y0044686D02*
X0086609Y0044755D01*
X0085805Y0046443D02*
X0077850Y0046443D01*
X0085805Y0046443D02*
X0086207Y0046041D01*
X0093519Y0040255D02*
X0093519Y0040014D01*
X0093817Y0039716D02*
X0093841Y0039693D01*
X0093817Y0039716D02*
X0093519Y0040014D01*
X0093841Y0039693D02*
X0094082Y0039693D01*
X0094269Y0039880D02*
X0094403Y0040014D01*
X0094269Y0039880D02*
X0094082Y0039693D01*
X0094403Y0040014D02*
X0094403Y0040255D01*
X0093519Y0040255D02*
X0093461Y0040303D01*
X0094403Y0040255D02*
X0094461Y0040303D01*
X0094644Y0036800D02*
X0095689Y0036800D01*
X0095725Y0036829D01*
X0094644Y0036800D02*
X0094603Y0036812D01*
X0094483Y0036961D02*
X0094483Y0038246D01*
X0094483Y0036961D02*
X0094564Y0036880D01*
X0094483Y0038246D02*
X0094461Y0038256D01*
X0094564Y0036880D02*
X0094603Y0036812D01*
X0094735Y0039413D02*
X0094269Y0039880D01*
X0094735Y0039413D02*
X0095330Y0039413D01*
X0096171Y0040255D01*
X0096492Y0040255D01*
X0096733Y0040014D02*
X0096974Y0039773D01*
X0096733Y0040014D02*
X0096492Y0040255D01*
X0096974Y0039773D02*
X0096974Y0037684D01*
X0096171Y0036880D01*
X0095769Y0036880D01*
X0094403Y0040014D02*
X0094461Y0040303D01*
X0095769Y0036880D02*
X0095725Y0036829D01*
X0097536Y0040817D02*
X0098581Y0041862D01*
X0097536Y0040817D02*
X0096733Y0040014D01*
X0098581Y0041862D02*
X0098581Y0042324D01*
X0093473Y0039370D02*
X0092073Y0039370D01*
X0093473Y0039370D02*
X0093817Y0039716D01*
X0093519Y0040014D02*
X0093461Y0040303D01*
D148*
X0092073Y0039370D03*
D147*
X0079941Y0049428D02*
X0079645Y0049725D01*
X0079545Y0049725D02*
X0079031Y0050218D01*
X0079545Y0049725D02*
X0079645Y0049725D01*
X0079941Y0049428D02*
X0079941Y0048461D01*
X0077850Y0046369D01*
X0097536Y0040817D02*
X0097777Y0040576D01*
X0102760Y0048451D02*
X0103162Y0048451D01*
X0102760Y0048451D02*
X0102718Y0048396D01*
X0103162Y0048451D02*
X0103218Y0048396D01*
X0103242Y0048420D02*
X0103242Y0048943D01*
X0103242Y0048420D02*
X0103218Y0048396D01*
X0103242Y0048943D02*
X0105020Y0048943D01*
X0105428Y0049352D01*
X0099195Y0042398D02*
X0099120Y0042324D01*
X0098581Y0042324D01*
X0106477Y0047673D02*
X0106477Y0048303D01*
X0105428Y0049352D01*
X0098340Y0040576D02*
X0097777Y0040576D01*
X0105428Y0049352D02*
X0106341Y0050265D01*
X0106341Y0050298D01*
X0092233Y0038086D02*
X0091510Y0038086D01*
X0092233Y0038086D02*
X0092394Y0038246D01*
X0091510Y0038086D02*
X0091449Y0038055D01*
X0092394Y0038246D02*
X0092461Y0038256D01*
X0092475Y0038246D02*
X0092957Y0038246D01*
X0092960Y0038256D01*
X0092475Y0038246D02*
X0092461Y0038256D01*
X0094644Y0041782D02*
X0094644Y0043228D01*
X0094082Y0043791D01*
X0094082Y0044593D01*
X0093599Y0045077D01*
X0093599Y0046121D01*
X0094644Y0041782D02*
X0094708Y0041708D01*
X0092736Y0046121D02*
X0092646Y0046211D01*
X0092736Y0046121D02*
X0093599Y0046121D01*
X0093680Y0046201D01*
X0093680Y0046910D01*
X0093734Y0046965D01*
X0093760Y0046925D02*
X0093680Y0046925D01*
X0093760Y0046925D02*
X0093795Y0046905D01*
X0093680Y0046910D02*
X0093680Y0046925D01*
X0089158Y0036398D02*
X0087358Y0034598D01*
X0089792Y0036398D02*
X0091449Y0038055D01*
X0089792Y0036398D02*
X0089158Y0036398D01*
X0093223Y0040786D02*
X0093293Y0040857D01*
X0093223Y0039842D02*
X0093130Y0039749D01*
X0093223Y0039842D02*
X0093223Y0040786D01*
X0093293Y0040857D02*
X0093539Y0040857D01*
X0094393Y0041708D01*
X0094708Y0041708D01*
X0091449Y0038055D02*
X0090948Y0038557D01*
X0090948Y0039532D01*
X0091165Y0039749D01*
X0093130Y0039749D01*
X0079563Y0040475D02*
X0079508Y0040475D01*
X0079563Y0040475D02*
X0080449Y0041360D01*
X0077086Y0038053D02*
X0077086Y0037007D01*
X0077086Y0038053D02*
X0079508Y0040475D01*
X0105983Y0038582D02*
X0106053Y0038648D01*
X0106053Y0038568D02*
X0106053Y0037845D01*
X0105983Y0037795D01*
X0106053Y0038568D02*
X0105983Y0038582D01*
X0106014Y0038607D02*
X0098340Y0038607D01*
X0106014Y0038607D02*
X0106053Y0038648D01*
X0096010Y0040336D02*
X0095528Y0040336D01*
X0096010Y0040336D02*
X0097296Y0041621D01*
X0097617Y0041621D01*
X0098019Y0042023D01*
X0095528Y0040336D02*
X0095460Y0040303D01*
X0098019Y0042023D02*
X0098086Y0042078D01*
X0098019Y0042103D02*
X0098019Y0043469D01*
X0098003Y0043531D01*
X0098019Y0042103D02*
X0098086Y0042078D01*
X0097376Y0045800D02*
X0097376Y0046684D01*
X0097376Y0045800D02*
X0098180Y0044996D01*
X0097376Y0046684D02*
X0097344Y0046708D01*
X0098180Y0044996D02*
X0098216Y0044936D01*
X0086850Y0043871D02*
X0086850Y0043710D01*
X0086850Y0043871D02*
X0088055Y0045077D01*
X0088055Y0046282D01*
X0089341Y0047567D01*
X0086850Y0043710D02*
X0086792Y0043682D01*
X0098019Y0043550D02*
X0098019Y0044755D01*
X0098180Y0044916D01*
X0098019Y0043550D02*
X0098003Y0043531D01*
X0098180Y0044916D02*
X0098216Y0044936D01*
X0097344Y0046708D02*
X0096485Y0047567D01*
X0089341Y0047567D01*
X0086207Y0054076D02*
X0086207Y0055121D01*
X0085564Y0055764D01*
X0086207Y0054076D02*
X0086251Y0054055D01*
X0085564Y0055764D02*
X0085523Y0055825D01*
X0085082Y0042344D02*
X0086207Y0042344D01*
X0086609Y0042746D01*
X0086769Y0042746D01*
X0085082Y0042344D02*
X0085053Y0042305D01*
X0086769Y0042746D02*
X0086785Y0042806D01*
X0074957Y0042907D02*
X0073832Y0042907D01*
X0074957Y0042907D02*
X0075438Y0043389D01*
X0073832Y0042907D02*
X0073779Y0042901D01*
X0075438Y0043389D02*
X0075511Y0043403D01*
X0079859Y0044032D02*
X0079859Y0044513D01*
X0079859Y0045477D01*
X0079814Y0045548D01*
X0079859Y0044032D02*
X0079838Y0043996D01*
X0078331Y0043952D02*
X0078331Y0044193D01*
X0078654Y0044513D01*
X0079859Y0044513D01*
X0078331Y0043952D02*
X0078277Y0043906D01*
X0077045Y0043389D02*
X0075520Y0043389D01*
X0077045Y0043389D02*
X0077127Y0043309D01*
X0077930Y0043309D01*
X0078252Y0043630D01*
X0078252Y0043871D01*
X0075520Y0043389D02*
X0075511Y0043403D01*
X0078252Y0043871D02*
X0078277Y0043906D01*
X0081466Y0042344D02*
X0085002Y0042344D01*
X0081466Y0042344D02*
X0079859Y0043952D01*
X0085002Y0042344D02*
X0085053Y0042305D01*
X0079859Y0043952D02*
X0079838Y0043996D01*
X0096251Y0044996D02*
X0096251Y0046684D01*
X0096224Y0046708D01*
X0096251Y0044996D02*
X0096248Y0044936D01*
X0095849Y0041782D02*
X0096814Y0041782D01*
X0097055Y0042023D01*
X0095849Y0041782D02*
X0095828Y0041708D01*
X0097055Y0042023D02*
X0097086Y0042078D01*
X0094965Y0040898D02*
X0094965Y0040336D01*
X0094965Y0040898D02*
X0095769Y0041702D01*
X0094965Y0040336D02*
X0094961Y0040303D01*
X0095769Y0041702D02*
X0095828Y0041708D01*
X0097055Y0042103D02*
X0097055Y0043469D01*
X0097003Y0043531D01*
X0097055Y0042103D02*
X0097086Y0042078D01*
X0096251Y0044273D02*
X0096251Y0044916D01*
X0096251Y0044273D02*
X0096974Y0043550D01*
X0096251Y0044916D02*
X0096248Y0044936D01*
X0096974Y0043550D02*
X0097003Y0043531D01*
X0088457Y0045077D02*
X0088457Y0046121D01*
X0088457Y0045077D02*
X0088537Y0044996D01*
X0088457Y0046121D02*
X0088440Y0046142D01*
X0088537Y0044996D02*
X0088573Y0044922D01*
X0088698Y0044835D02*
X0089984Y0044835D01*
X0088698Y0044835D02*
X0088617Y0044916D01*
X0089984Y0044835D02*
X0090056Y0044804D01*
X0088617Y0044916D02*
X0088573Y0044922D01*
X0091832Y0044112D02*
X0092314Y0044112D01*
X0091832Y0044112D02*
X0090466Y0045477D01*
X0090466Y0046121D01*
X0092314Y0044112D02*
X0092391Y0044109D01*
X0090466Y0046121D02*
X0090408Y0046142D01*
X0088537Y0040818D02*
X0087171Y0040818D01*
X0088537Y0040818D02*
X0088581Y0040781D01*
X0087171Y0040818D02*
X0087106Y0040748D01*
X0092394Y0040336D02*
X0092394Y0041702D01*
X0092393Y0041731D01*
X0092394Y0040336D02*
X0092461Y0040303D01*
X0089984Y0043871D02*
X0088617Y0043871D01*
X0089984Y0043871D02*
X0090056Y0043804D01*
X0092073Y0041782D02*
X0092314Y0041782D01*
X0092073Y0041782D02*
X0090064Y0043791D01*
X0092314Y0041782D02*
X0092393Y0041731D01*
X0090064Y0043791D02*
X0090056Y0043804D01*
X0088617Y0043871D02*
X0088617Y0040818D01*
X0088581Y0040781D01*
X0088617Y0043871D02*
X0088573Y0043922D01*
X0088537Y0039693D02*
X0087171Y0039693D01*
X0088537Y0039693D02*
X0088581Y0039661D01*
X0087171Y0039693D02*
X0087106Y0039763D01*
X0087091Y0039773D02*
X0085162Y0039773D01*
X0085109Y0039738D01*
X0087091Y0039773D02*
X0087106Y0039763D01*
X0102037Y0051826D02*
X0102599Y0051263D01*
X0102599Y0049898D01*
X0101715Y0049014D01*
X0101555Y0049014D01*
X0101233Y0048692D01*
X0101233Y0048451D01*
X0102037Y0051826D02*
X0101984Y0051874D01*
X0101233Y0048451D02*
X0101218Y0048396D01*
X0098821Y0050782D02*
X0098421Y0051183D01*
X0098821Y0050782D02*
X0098903Y0050782D01*
X0099545Y0050138D01*
X0099545Y0048050D01*
X0100108Y0047487D01*
X0101153Y0047487D01*
X0101233Y0047567D01*
X0101233Y0048371D01*
X0098421Y0051183D02*
X0098322Y0051219D01*
X0101218Y0048396D02*
X0101233Y0048371D01*
X0095769Y0038648D02*
X0096251Y0038166D01*
X0095769Y0038648D02*
X0095769Y0038729D01*
X0095608Y0038889D01*
X0095367Y0038889D01*
X0094965Y0038487D01*
X0094965Y0038327D01*
X0096251Y0038166D02*
X0096324Y0038140D01*
X0094961Y0038256D02*
X0094965Y0038327D01*
X0094323Y0039130D02*
X0091510Y0039130D01*
X0094323Y0039130D02*
X0094965Y0038487D01*
X0091510Y0039130D02*
X0091449Y0039175D01*
X0094965Y0038487D02*
X0094961Y0038256D01*
X0096332Y0039049D02*
X0096332Y0039211D01*
X0096332Y0039049D02*
X0096814Y0038568D01*
X0096814Y0037764D01*
X0096733Y0037684D01*
X0095930Y0037684D01*
X0095528Y0038086D01*
X0095528Y0038246D01*
X0096332Y0039211D02*
X0096324Y0039260D01*
X0095528Y0038246D02*
X0095460Y0038256D01*
X0096332Y0039291D02*
X0096332Y0040014D01*
X0096332Y0039291D02*
X0096324Y0039260D01*
D148*
X0096332Y0040014D03*
D147*
X0094885Y0044032D02*
X0093841Y0045077D01*
X0094885Y0044032D02*
X0094885Y0043871D01*
X0094917Y0043852D01*
X0093841Y0045831D02*
X0094914Y0046905D01*
X0093841Y0045831D02*
X0093841Y0045077D01*
X0085002Y0044112D02*
X0084118Y0044112D01*
X0083314Y0043309D01*
X0085002Y0044112D02*
X0085060Y0044185D01*
X0083314Y0043309D02*
X0083310Y0043247D01*
X0081868Y0043952D02*
X0080984Y0043952D01*
X0081868Y0043952D02*
X0082510Y0043309D01*
X0080984Y0043952D02*
X0080958Y0043996D01*
X0082510Y0043309D02*
X0082523Y0043247D01*
X0086367Y0041782D02*
X0086769Y0041782D01*
X0086367Y0041782D02*
X0085162Y0040577D01*
X0086769Y0041782D02*
X0086785Y0041804D01*
X0085162Y0040577D02*
X0085109Y0040526D01*
X0085002Y0045960D02*
X0083554Y0045960D01*
X0083234Y0045639D01*
X0085002Y0045960D02*
X0085027Y0046028D01*
X0083234Y0045639D02*
X0083225Y0045609D01*
X0082430Y0045559D02*
X0080984Y0045559D01*
X0080934Y0045548D01*
X0082430Y0045559D02*
X0082438Y0045609D01*
X0090867Y0051987D02*
X0090867Y0053915D01*
X0090867Y0051987D02*
X0090846Y0051968D01*
X0090867Y0053915D02*
X0090841Y0053932D01*
X0089903Y0053915D02*
X0089903Y0051987D01*
X0089862Y0051968D01*
X0089903Y0053915D02*
X0089842Y0053932D01*
X0088939Y0053915D02*
X0088939Y0051987D01*
X0088877Y0051968D01*
X0088939Y0053915D02*
X0088842Y0053932D01*
X0094965Y0044916D02*
X0094917Y0044852D01*
X0098340Y0049255D02*
X0098340Y0050138D01*
X0098340Y0049255D02*
X0098322Y0049219D01*
X0098340Y0050138D02*
X0098322Y0050218D01*
M02*