%
M48
METRIC,000.000
T05C0.35
T04C0.64
T03C0.81
T02C0.90
T01C1.12
T10C0.80
T11C0.91
T12C0.30
T13C0.70
T14C1.00
T15C1.02
T16C1.25
T17C1.30
T18C2.00
T19C2.80
T20C0.50
%
T05
X035920Y060101
X032110Y060101
X060609Y141019
X007083Y147676
X222026Y066361
X195458Y114394
X257120Y110860
T04
X066120Y066382
X021786Y056780
X021786Y061780
X024555Y065379
X029555Y065379
X039336Y066660
X044336Y066660
X014436Y071140
X019436Y071140
X024735Y068580
X029735Y068580
X036656Y056380
X053805Y062492
X058805Y062492
X036656Y061379
X044616Y063790
X039616Y063790
X049110Y062989
X049110Y057989
X061120Y066382
X007282Y128866
X007282Y133867
X027860Y140530
X027860Y135530
X024847Y135200
X019847Y135200
X035807Y135386
X035807Y140386
X031795Y135289
X031795Y140289
X039790Y140337
X039790Y135337
X056680Y141259
X056680Y136259
X009884Y128898
X009884Y133898
X112680Y105880
X107680Y105880
X107680Y102070
X112680Y102070
X229638Y117203
X224638Y117203
X231756Y114863
X236756Y114863
X267291Y109275
X262291Y109275
X259225Y126676
X254225Y126676
X244471Y114141
X249471Y114141
X235372Y093446
X235372Y088446
X249786Y103064
X249786Y098064
T03
X052212Y055762
X052212Y058302
X059831Y058302
X059831Y055762
X053616Y130714
X051711Y129443
X047227Y132128
X045322Y130858
X047227Y129588
X051711Y131984
X015813Y146379
X015813Y143839
X015813Y141299
X010029Y143027
X008759Y141122
X007489Y143027
X101925Y121120
X104465Y121120
X107005Y121120
X099385Y121120
X096845Y121120
X094305Y121120
X091765Y121120
X089225Y121120
X134310Y089370
X135579Y091275
X136850Y089370
X154930Y055000
X157470Y055000
X140430Y055000
X142970Y055000
X111450Y055000
X113990Y055000
X097480Y055000
X100020Y055000
X235697Y073741
X233792Y072471
X235697Y071201
T02
X048246Y055030
X055706Y071280
X055706Y068740
X043296Y054810
X040756Y054810
X040586Y058160
X043126Y058160
X046087Y060715
X046087Y058175
X045706Y055030
X058266Y069140
X058266Y071680
X034718Y132198
X026698Y129342
X029238Y129342
X029618Y132201
X027078Y132201
X037258Y132198
X036858Y129461
X034318Y129461
X007477Y136400
X010235Y136046
X010235Y138586
X007477Y138940
X143835Y133820
X143835Y136360
X143200Y145250
X143200Y147790
X105100Y141440
X107640Y141440
X217256Y052071
X219796Y052071
X212236Y142305
X209696Y142305
X248928Y110569
X246388Y110569
X246601Y106878
X249141Y106878
X228744Y113804
X228744Y111264
X224977Y111564
X224977Y114104
T01
X045930Y070505
X043390Y070505
X040850Y070505
X015930Y058533
X015930Y061073
X015930Y063613
X064930Y058533
X064930Y061073
X064930Y063613
X045105Y145185
X042565Y145185
X040025Y145185
X015105Y133213
X064104Y138293
X064104Y135753
X064104Y133213
X015105Y138293
X015105Y135753
X119700Y054040
X119700Y051500
X149550Y128740
X147010Y128740
X144470Y128740
X141930Y128740
X134700Y070000
X134700Y072539
X119700Y070000
X119700Y072539
X134700Y051500
X134700Y054040
X139390Y128740
X136850Y128740
X200739Y130096
X249739Y130096
X249739Y127557
X249739Y125017
X200739Y127557
X200739Y125017
X260870Y053467
X260870Y056007
X260870Y058547
X260870Y061087
X260870Y063627
X260870Y066167
X225659Y136989
X228199Y136989
X230739Y136989
T10
X022048Y139411
X021398Y145915
X021398Y143915
X020048Y139411
X036322Y143843
X036322Y145843
X059061Y130762
X057061Y130762
X044473Y139502
X046473Y139502
X115530Y136360
X088590Y115770
X148550Y138900
X112720Y129008
X112720Y131008
X119070Y131008
X119070Y129008
X117530Y136360
X150550Y138900
X088590Y113770
X112355Y143345
X114355Y143345
X133675Y122025
X133675Y124025
X106370Y094720
X106370Y096720
X136579Y146519
X134579Y146519
X202329Y146566
X204329Y146566
X209609Y109848
X211609Y109848
X265255Y113533
X267255Y113533
X268107Y127758
X270107Y127758
X264818Y133241
X262818Y133241
X211394Y115848
X209394Y115848
X204343Y107057
X204343Y105057
X221890Y087880
X219890Y087880
X211603Y146582
X209603Y146582
X224311Y064495
X226311Y064495
X216179Y100938
X216179Y102938
T11
X017112Y129776
X014572Y129776
X241091Y116465
X241091Y113925
X241091Y111384
T12
X153055Y102832
X153055Y106693
X155087Y113398
X136317Y123939
X109545Y120485
X147569Y108318
X148788Y111366
X146959Y106896
X149601Y111773
X152649Y116446
X146115Y109842
X133675Y128104
X148026Y116624
X164841Y107301
X151632Y108725
X150414Y119698
X150414Y117056
X146375Y119850
X244683Y101637
X233866Y100003
X258358Y121231
X215089Y062246
X238764Y104086
X265706Y116537
X256521Y121231
T13
X157170Y121120
X157170Y118580
X166060Y121120
X166060Y118580
X142565Y116040
X142565Y113500
X159075Y114770
X164155Y114770
T14
X127200Y108000
X129699Y108000
X124700Y108000
X093700Y132000
X153700Y129500
X153700Y132000
X153700Y134500
X127200Y101000
X127200Y137000
X129699Y130000
X127200Y130000
X124700Y130000
X160700Y132000
X100700Y134500
X100700Y132000
X100700Y129500
X269200Y096000
X269200Y106000
X269200Y104000
X269200Y102000
X269200Y100000
X269200Y098000
X221250Y103500
X221250Y101000
X221250Y098500
X228250Y125000
X228250Y101000
X258200Y101000
X198300Y101000
X230750Y132000
X195800Y094000
X228250Y132000
X225750Y132000
X200800Y094000
X198300Y094000
T15
X149550Y103340
X145740Y103340
X141295Y142075
X141295Y138900
X130451Y057261
X123949Y057261
X130451Y052739
X123949Y052739
X161518Y110426
X156651Y110426
X152055Y051890
X149515Y051890
X146975Y051890
X154595Y051890
X157135Y051890
X159675Y051890
X126551Y094000
X131050Y094000
X169026Y094456
X166486Y094456
X163946Y094456
X161406Y094456
X158866Y094456
X156326Y094456
X227529Y080037
X231778Y080033
X235587Y053285
X240168Y053285
X217228Y141800
X217228Y147329
T16
X095000Y062000
X106400Y068000
X196180Y062000
X207579Y068000
T17
X156200Y057400
X156651Y100294
X097500Y063500
X100700Y063500
X103900Y063500
X103900Y066500
X100700Y066500
X097500Y066500
X092650Y071885
X092650Y088115
X105350Y071885
X105350Y088115
X161850Y088115
X161850Y071885
X143835Y138900
X143835Y142075
X145740Y105880
X149550Y105880
X161518Y100294
X149150Y071885
X122370Y094000
X135231Y094000
X098750Y057400
X112720Y057400
X141700Y057400
X149150Y088115
X262850Y088115
X198680Y063500
X201880Y063500
X205079Y063500
X250150Y071885
X250150Y088115
X220452Y145843
X220452Y143236
X244647Y053285
X231108Y053285
X206350Y088115
X231778Y084370
X227485Y084337
X206350Y071885
X205079Y066500
X201880Y066500
X198680Y066500
X193650Y071885
X193650Y088115
X262850Y071885
T18
X122800Y101000
X131600Y101000
X160700Y127600
X160700Y136400
X131600Y137000
X122800Y137000
X093700Y127600
X093700Y136400
X228250Y096600
X193900Y101000
X258200Y107000
X258200Y095000
X232650Y125000
X223850Y125000
X202700Y101000
X228250Y105400
T19
X141700Y064000
X112700Y064000
X160700Y146000
X093700Y146000
X267800Y057450
X188700Y057450
X261800Y146000
X194800Y146000
T20
M30