%MOIN*%
%OFA0B0*%
%FSLAX34Y34*%
%IPPOS*%
%LPD*%
%AMOC8*
5,1,8,0,0,$1,22.5*%
%AMOC80*
5,1,8,0,0,$1,22.5*%
%AMOC81*
5,1,8,0,0,$1,22.5*%
%AMOC800*
5,1,8,0,0,$1,22.5*%
%ADD10C,0.053000000000000005*%
%ADD11C,0.063433070866141736*%
%ADD12R,0.063433070866141736X0.063433070866141736*%
%ADD13C,0.084999999999999992*%
%ADD14C,0.060000000000000005*%
%ADD15C,0.037779527559055122*%
%ADD26C,0.053000000000000005*%
%ADD27R,0.0611496062992126X0.0611496062992126*%
%ADD28C,0.0611496062992126*%
%ADD29C,0.082000000000000017*%
%ADD30P,0.064943385826771657X8X292.5*%
%ADD31C,0.063433070866141736*%
%ADD32R,0.063433070866141736X0.063433070866141736*%
%ADD33P,0.064943385826771657X8X112.5*%
%ADD34C,0.084999999999999992*%
%ADD35C,0.064*%
%ADD36C,0.037779527559055122*%
%ADD47R,0.057149606299212605X0.057149606299212605*%
%ADD48C,0.057149606299212605*%
%ADD49C,0.069*%
%ADD50C,0.049*%
%ADD51C,0.059433070866141739*%
%ADD52R,0.059433070866141739X0.059433070866141739*%
%ADD53C,0.078000000000000014*%
%ADD54R,0.078000000000000014X0.078000000000000014*%
%ADD55P,0.13217090551181102X8X22.5*%
%ADD56C,0.043370078740157476*%
%ADD57R,0.056000000000000008X0.056000000000000008*%
%ADD58C,0.056000000000000008*%
%ADD59P,0.13217090551181102X8X112.5*%
%ADD60P,0.13217090551181102X8X202.5*%
%ADD61P,0.13217090551181102X8X292.5*%
%ADD62C,0.080771653543307093*%
%ADD63P,0.096332716535433086X8X22.5*%
%ADD64C,0.05321259842519685*%
%ADD65C,0.078000000000000014*%
%ADD66C,0.11423622047244096*%
%ADD67P,0.060613858267716543X8X22.5*%
%ADD68C,0.055181102362204727*%
%ADD69P,0.096332716535433086X8X202.5*%
%ADD80C,0.049*%
%ADD81R,0.057149606299212605X0.057149606299212605*%
%ADD82C,0.057149606299212605*%
%ADD83C,0.059433070866141739*%
%ADD84R,0.059433070866141739X0.059433070866141739*%
%ADD85C,0.080771653543307093*%
%ADD86P,0.096332716535433086X8X112.5*%
%ADD87R,0.078000000000000014X0.078000000000000014*%
%ADD88P,0.13217090551181102X8X292.5*%
%ADD89C,0.043370078740157476*%
%ADD90P,0.096332716535433086X8X22.5*%
%ADD91P,0.096332716535433086X8X202.5*%
%ADD92C,0.063370078740157487*%
%ADD93P,0.16668807086614174X8X292.5*%
%ADD94C,0.078000000000000014*%
%ADD95C,0.05321259842519685*%
%ADD96C,0.11423622047244096*%
%ADD97P,0.060613858267716543X8X112.5*%
%ADD98C,0.055181102362204727*%
%ADD99P,0.13217090551181102X8X202.5*%
%ADD100C,0.081*%
%ADD101P,0.13217090551181102X8X112.5*%
%ADD102C,0.060000000000000005*%
%LPD*%
G75*
G01*
D10*
X-0005118Y0016141D02*
X0015596Y0025114D03*
X0017565Y0025114D03*
X0014431Y0024165D03*
X0014431Y0022195D03*
X0011707Y0027000D03*
X0009738Y0027000D03*
X0007651Y0028007D03*
X0005683Y0028007D03*
X0017455Y0026243D03*
X0015486Y0026243D03*
X0011636Y0025740D03*
X0009667Y0025740D03*
X0008577Y0024322D03*
X0008577Y0022354D03*
D11*
X0017045Y0021578D03*
D12*
X0016045Y0021578D03*
D11*
X0015978Y0022897D03*
D12*
X0016978Y0022897D03*
D11*
X0018144Y0023903D03*
D12*
X0018144Y0022902D03*
D11*
X0017994Y0021665D03*
D12*
X0018994Y0021665D03*
D11*
X0022939Y0028220D03*
D12*
X0022939Y0027219D03*
D11*
X0021931Y0027063D03*
D12*
X0021931Y0028062D03*
D13*
X0025177Y0025044D02*
X0025947Y0025044D01*
X0025947Y0024044D02*
X0025177Y0024044D01*
X0025177Y0023043D02*
X0025947Y0023043D01*
X0006655Y0025044D02*
X0005886Y0025044D01*
X0005886Y0024044D02*
X0006655Y0024044D01*
X0006655Y0023043D02*
X0005886Y0023043D01*
X0016082Y0027372D02*
X0016082Y0028142D01*
X0017082Y0028142D02*
X0017082Y0027372D01*
X0018082Y0027372D02*
X0018082Y0028142D01*
D10*
X0021183Y0024603D03*
X0023151Y0024603D03*
D14*
X0023295Y0021953D02*
X0023815Y0021953D01*
X0023815Y0022953D02*
X0023295Y0022953D01*
X0020815Y0022953D02*
X0020295Y0022953D01*
X0020295Y0021953D02*
X0020815Y0021953D01*
D10*
X0019334Y0024799D03*
X0019334Y0022830D03*
X0024063Y0026134D03*
X0026031Y0026134D03*
D15*
X0012641Y0023661D03*
X0014141Y0023661D03*
G75*
G01*
D26*
X0001968Y0050000D02*
X0022314Y0053644D03*
X0022314Y0055612D03*
D27*
X0018296Y0054922D03*
D28*
X0017509Y0054922D03*
D29*
X0018593Y0051018D03*
X0017843Y0051518D03*
X0018593Y0052018D03*
D30*
X0020358Y0050961D03*
X0021107Y0051462D03*
X0020358Y0051962D03*
D27*
X0022464Y0051481D03*
D28*
X0023252Y0051481D03*
D26*
X0015665Y0053282D03*
X0015665Y0055250D03*
X0012517Y0055231D03*
X0012517Y0053263D03*
D31*
X0010511Y0050922D03*
D32*
X0011511Y0050922D03*
D31*
X0011660Y0052047D03*
D32*
X0010660Y0052047D03*
D27*
X0014299Y0057417D03*
D28*
X0014299Y0056630D03*
D33*
X0006225Y0057629D03*
X0006225Y0056628D03*
X0006225Y0055628D03*
D29*
X0003947Y0056308D03*
X0003447Y0055559D03*
X0002948Y0056308D03*
D27*
X0007892Y0054886D03*
D28*
X0008680Y0054886D03*
D31*
X0004029Y0053561D03*
D32*
X0004029Y0054561D03*
D31*
X0002943Y0054700D03*
D32*
X0002943Y0053700D03*
D26*
X0002867Y0050735D03*
X0002867Y0052703D03*
D27*
X0008424Y0057446D03*
D28*
X0008424Y0056658D03*
D26*
X0010968Y0055326D03*
X0010968Y0053358D03*
X0009782Y0053228D03*
X0007813Y0053228D03*
X0014097Y0053301D03*
X0014097Y0055269D03*
D31*
X0013511Y0050968D03*
D32*
X0014511Y0050968D03*
D31*
X0014668Y0052046D03*
D32*
X0013667Y0052046D03*
D34*
X0024853Y0054446D02*
X0025623Y0054446D01*
X0025623Y0053446D02*
X0024853Y0053446D01*
X0024853Y0052446D02*
X0025623Y0052446D01*
X0006331Y0054446D02*
X0005561Y0054446D01*
X0005561Y0053446D02*
X0006331Y0053446D01*
X0006331Y0052446D02*
X0005561Y0052446D01*
X0015756Y0056773D02*
X0015756Y0057544D01*
X0016757Y0057544D02*
X0016757Y0056773D01*
X0017757Y0056773D02*
X0017757Y0057544D01*
D26*
X0003891Y0050747D03*
X0003891Y0052714D03*
D35*
X0005737Y0051373D02*
X0005737Y0050813D01*
X0006737Y0050813D02*
X0006737Y0051373D01*
D36*
X0002788Y0058140D03*
X0023861Y0055519D03*
G04 next file*
%LPD*%
G75*
G01*
D47*
X0032677Y0019685D02*
X0034877Y0044791D03*
D48*
X0034877Y0045578D03*
D47*
X0046877Y0050791D03*
D48*
X0046877Y0051578D03*
D47*
X0044377Y0051578D03*
D48*
X0044377Y0050791D03*
D49*
X0056127Y0044685D03*
X0056127Y0045685D03*
D47*
X0045484Y0053684D03*
D48*
X0046271Y0053684D03*
D50*
X0044362Y0040185D03*
X0042393Y0040185D03*
D47*
X0044234Y0056435D03*
D48*
X0045021Y0056435D03*
D51*
X0042377Y0055685D03*
D52*
X0041377Y0055685D03*
D53*
X0053877Y0051055D02*
X0053877Y0050315D01*
X0054876Y0050315D02*
X0054876Y0051055D01*
X0055876Y0051055D02*
X0055876Y0050315D01*
X0056877Y0050315D02*
X0056877Y0051055D01*
X0057877Y0051055D02*
X0057877Y0050315D01*
X0058877Y0050315D02*
X0058877Y0051055D01*
D54*
X0039645Y0052951D03*
X0039645Y0051968D03*
X0039645Y0050984D03*
D55*
X0036888Y0053700D03*
X0036888Y0050236D03*
D56*
X0036888Y0051968D03*
D57*
X0042127Y0047685D03*
D58*
X0041127Y0047945D02*
X0041127Y0047425D01*
X0040127Y0047425D02*
X0040127Y0047945D01*
X0039126Y0047945D02*
X0039126Y0047425D01*
X0038127Y0047425D02*
X0038127Y0047945D01*
X0037127Y0047945D02*
X0037127Y0047425D01*
X0036127Y0047425D02*
X0036127Y0047945D01*
X0035127Y0047945D02*
X0035127Y0047425D01*
D49*
X0062627Y0045185D03*
X0064627Y0045185D03*
D54*
X0049094Y0042519D03*
X0050077Y0042519D03*
X0051062Y0042519D03*
D59*
X0048346Y0039763D03*
X0051810Y0039763D03*
D56*
X0050077Y0039763D03*
D54*
X0060511Y0050984D03*
X0060511Y0051968D03*
X0060511Y0052951D03*
D60*
X0063267Y0050236D03*
X0063267Y0053700D03*
D56*
X0063267Y0051968D03*
D54*
X0051062Y0051181D03*
X0050077Y0051181D03*
X0049094Y0051181D03*
D61*
X0051810Y0053937D03*
X0048346Y0053937D03*
D56*
X0050077Y0053937D03*
D62*
X0036860Y0028301D02*
X0036092Y0028301D01*
X0036092Y0034690D02*
X0036860Y0034690D01*
X0041092Y0028301D02*
X0041860Y0028301D01*
X0041860Y0034690D02*
X0041092Y0034690D01*
X0063336Y0034690D02*
X0064104Y0034690D01*
X0064104Y0028301D02*
X0063336Y0028301D01*
X0059104Y0034690D02*
X0058335Y0034690D01*
X0058335Y0028301D02*
X0059104Y0028301D01*
D47*
X0058484Y0054685D03*
D48*
X0059271Y0054685D03*
D47*
X0052983Y0057685D03*
D48*
X0053771Y0057685D03*
D51*
X0056627Y0052684D03*
D52*
X0056627Y0053684D03*
D51*
X0056377Y0057185D03*
D52*
X0056377Y0058185D03*
D47*
X0041877Y0038077D03*
D48*
X0041877Y0037291D03*
D50*
X0044362Y0041685D03*
X0042393Y0041685D03*
D63*
X0057377Y0040685D03*
X0058877Y0040685D03*
X0055627Y0055935D03*
X0055627Y0054685D03*
D62*
X0038385Y0025000D02*
X0038385Y0024232D01*
X0039645Y0024232D02*
X0039645Y0025000D01*
X0040904Y0025000D02*
X0040904Y0024232D01*
X0040904Y0026181D02*
X0040904Y0026948D01*
X0039645Y0026948D02*
X0039645Y0026181D01*
X0038385Y0026181D02*
X0038385Y0026948D01*
D64*
X0037401Y0024409D03*
X0041889Y0026770D03*
D65*
X0051357Y0022543D03*
X0048798Y0022543D03*
X0051357Y0020762D03*
X0048798Y0020762D03*
X0039377Y0021652D03*
X0038377Y0021652D03*
X0044877Y0021652D03*
X0043877Y0021652D03*
X0056287Y0021652D03*
X0055287Y0021652D03*
X0061996Y0021652D03*
X0060996Y0021652D03*
D66*
X0036888Y0057480D03*
X0063267Y0057480D03*
D67*
X0053877Y0035184D03*
X0053377Y0035935D03*
X0052877Y0035184D03*
D49*
X0061877Y0047685D03*
X0061877Y0046685D03*
X0065377Y0047685D03*
X0065377Y0046685D03*
D66*
X0044370Y0025196D03*
X0055787Y0025196D03*
D47*
X0052627Y0048827D03*
D48*
X0052627Y0048041D03*
D68*
X0056627Y0054685D03*
X0056627Y0055935D03*
X0057377Y0041685D03*
X0058877Y0041685D03*
D69*
X0063589Y0043474D03*
D63*
X0061673Y0043474D03*
D68*
X0063589Y0039485D03*
X0061673Y0039485D03*
X0048177Y0037007D03*
X0053239Y0037007D03*
D63*
X0049823Y0037007D03*
X0051594Y0037007D03*
D53*
X0052661Y0027559D02*
X0053400Y0027559D01*
X0053400Y0028559D02*
X0052661Y0028559D01*
X0047495Y0027559D02*
X0046755Y0027559D01*
X0046755Y0028559D02*
X0047495Y0028559D01*
X0052661Y0020275D02*
X0053400Y0020275D01*
X0053400Y0021275D02*
X0052661Y0021275D01*
X0047495Y0020275D02*
X0046755Y0020275D01*
X0046755Y0021275D02*
X0047495Y0021275D01*
D65*
X0062864Y0020428D03*
X0061864Y0020428D03*
X0060864Y0020428D03*
X0059864Y0020428D03*
X0058864Y0020428D03*
X0057864Y0020428D03*
X0066545Y0037187D03*
X0065545Y0037187D03*
X0064545Y0037187D03*
X0063545Y0037187D03*
X0062545Y0037187D03*
X0061545Y0037187D03*
D68*
X0038877Y0022597D03*
X0044377Y0022597D03*
X0055787Y0022597D03*
X0061496Y0022597D03*
G04 next file*
G04 EAGLE Gerber RS-274X export*
G75*
G01*
D80*
X0072440Y0019685D02*
X0092666Y0034820D03*
X0092666Y0036789D03*
D81*
X0104431Y0044698D03*
D82*
X0105218Y0044698D03*
D81*
X0083225Y0045609D03*
D82*
X0082438Y0045609D03*
D80*
X0103263Y0043021D03*
X0105231Y0043021D03*
X0093211Y0045221D03*
X0091242Y0045221D03*
D81*
X0085109Y0039738D03*
D82*
X0085109Y0040526D03*
D81*
X0103471Y0052455D03*
D82*
X0104259Y0052455D03*
D81*
X0106341Y0050298D03*
D82*
X0105553Y0050298D03*
D80*
X0096248Y0044936D03*
X0098216Y0044936D03*
D81*
X0083310Y0043247D03*
D82*
X0082523Y0043247D03*
D80*
X0098340Y0040576D03*
X0098340Y0038607D03*
D81*
X0080449Y0042148D03*
D82*
X0080449Y0041360D03*
D81*
X0087358Y0034598D03*
D82*
X0086570Y0034598D03*
D81*
X0083308Y0057709D03*
D82*
X0082521Y0057709D03*
D81*
X0088311Y0025391D03*
D82*
X0089098Y0025391D03*
D81*
X0080444Y0057703D03*
D82*
X0079656Y0057703D03*
D83*
X0086533Y0020500D03*
D84*
X0085533Y0020500D03*
D83*
X0082556Y0056025D03*
D84*
X0083557Y0056025D03*
D85*
X0076624Y0028301D02*
X0075856Y0028301D01*
X0075856Y0034690D02*
X0076624Y0034690D01*
X0080856Y0028301D02*
X0081624Y0028301D01*
X0081624Y0034690D02*
X0080856Y0034690D01*
D86*
X0092750Y0020978D03*
X0094553Y0020978D03*
D85*
X0103100Y0034690D02*
X0103867Y0034690D01*
X0103867Y0028301D02*
X0103100Y0028301D01*
X0098867Y0034690D02*
X0098100Y0034690D01*
X0098100Y0028301D02*
X0098867Y0028301D01*
D87*
X0079055Y0037007D03*
X0078070Y0037007D03*
X0077086Y0037007D03*
D88*
X0079803Y0039763D03*
X0076338Y0039763D03*
D89*
X0078070Y0039763D03*
D90*
X0085523Y0055825D03*
D91*
X0085523Y0058003D03*
D92*
X0105687Y0040944D02*
X0106281Y0040944D01*
X0106281Y0041731D02*
X0105687Y0041731D01*
X0105687Y0037795D02*
X0106281Y0037795D01*
X0106281Y0040157D02*
X0105687Y0040157D01*
X0105687Y0039369D02*
X0106281Y0039369D01*
X0106281Y0038582D02*
X0105687Y0038582D01*
D93*
X0101653Y0042125D03*
X0101653Y0037401D03*
D89*
X0101653Y0039763D03*
D94*
X0102334Y0026049D02*
X0103074Y0026049D01*
X0103074Y0025049D02*
X0102334Y0025049D01*
X0102334Y0024049D02*
X0103074Y0024049D01*
X0103074Y0023049D02*
X0102334Y0023049D01*
X0102334Y0022049D02*
X0103074Y0022049D01*
X0103074Y0021049D02*
X0102334Y0021049D01*
D85*
X0078220Y0024232D02*
X0078220Y0025000D01*
X0079480Y0025000D02*
X0079480Y0024232D01*
X0080740Y0024232D02*
X0080740Y0025000D01*
X0080740Y0026181D02*
X0080740Y0026948D01*
X0079480Y0026948D02*
X0079480Y0026181D01*
X0078220Y0026181D02*
X0078220Y0026948D01*
D95*
X0077236Y0024409D03*
X0081724Y0026770D03*
D96*
X0076692Y0057480D03*
X0103070Y0057480D03*
D80*
X0100088Y0049871D03*
X0102057Y0049871D03*
D97*
X0092794Y0029031D03*
X0092044Y0028532D03*
X0092794Y0028032D03*
D96*
X0074291Y0022618D03*
X0105433Y0022618D03*
D98*
X0086792Y0057417D03*
X0086792Y0056391D03*
X0096317Y0020978D03*
X0090986Y0020978D03*
D83*
X0088573Y0044922D03*
D84*
X0088573Y0043922D03*
D83*
X0090056Y0043804D03*
D84*
X0090056Y0044804D03*
D83*
X0098086Y0042078D03*
D84*
X0097086Y0042078D03*
D83*
X0097003Y0043531D03*
D84*
X0098003Y0043531D03*
D80*
X0088440Y0046142D03*
X0090408Y0046142D03*
D87*
X0087106Y0040748D03*
X0087106Y0039763D03*
X0087106Y0038779D03*
D99*
X0089862Y0041496D03*
X0089862Y0038031D03*
D89*
X0089862Y0039763D03*
D90*
X0091251Y0031509D03*
X0089578Y0031509D03*
D98*
X0091251Y0033216D03*
X0089561Y0033203D03*
D100*
X0097937Y0051219D02*
X0098707Y0051219D01*
X0098707Y0050218D02*
X0097937Y0050218D01*
X0097937Y0049219D02*
X0098707Y0049219D01*
X0079416Y0051219D02*
X0078646Y0051219D01*
X0078646Y0050218D02*
X0079416Y0050218D01*
X0079416Y0049219D02*
X0078646Y0049219D01*
X0088842Y0053547D02*
X0088842Y0054317D01*
X0089842Y0054317D02*
X0089842Y0053547D01*
X0090841Y0053547D02*
X0090841Y0054317D01*
D87*
X0090846Y0051968D03*
X0089862Y0051968D03*
X0088877Y0051968D03*
D101*
X0091594Y0049212D03*
X0088129Y0049212D03*
D89*
X0089862Y0049212D03*
D102*
X0094637Y0043852D02*
X0095197Y0043852D01*
X0095197Y0044852D02*
X0094637Y0044852D01*
X0094637Y0045852D02*
X0095197Y0045852D01*
M02*