G04 EAGLE Gerber X2 export*
%TF.Part,Single*%
%TF.FileFunction,Copper,L2,Bot,Mixed*%
%TF.FilePolarity,Positive*%
%TF.GenerationSoftware,Autodesk,EAGLE,9.2.2*%
%TF.CreationDate,2019-04-19T13:44:04Z*%
G75*
%MOMM*%
%FSLAX34Y34*%
%LPD*%
%INBottom Copper*%
%AMOC8*
5,1,8,0,0,1.08239X$1,22.5*%
G01*
%ADD10P,2.336880X8X202.500000*%
%ADD11R,1.350000X1.350000*%
%ADD12C,1.350000*%
%ADD13C,1.408000*%
%ADD14R,1.408000X1.408000*%
%ADD15C,1.950000*%
%ADD16P,2.336880X8X22.500000*%
%ADD17C,1.308000*%
%ADD18R,1.879600X1.879600*%
%ADD19P,3.247170X8X292.500000*%
%ADD20P,3.247170X8X22.500000*%
%ADD21P,3.247170X8X202.500000*%
%ADD22P,1.429621X8X202.500000*%
%ADD23C,1.879600*%
%ADD24C,1.955800*%
%ADD25C,1.879600*%
%ADD26C,1.143000*%
%ADD27C,1.320800*%
%ADD28P,1.429621X8X22.500000*%
%ADD29C,1.320800*%
%ADD30C,0.152400*%
%ADD31C,0.756400*%

G36*
X434162Y3100D02*
X434162Y3100D01*
X434181Y3098D01*
X434283Y3120D01*
X434385Y3136D01*
X434402Y3146D01*
X434422Y3150D01*
X434511Y3203D01*
X434602Y3252D01*
X434616Y3266D01*
X434633Y3276D01*
X434700Y3355D01*
X434772Y3430D01*
X434780Y3448D01*
X434793Y3463D01*
X434832Y3559D01*
X434875Y3653D01*
X434877Y3673D01*
X434885Y3691D01*
X434903Y3858D01*
X434903Y6283D01*
X436356Y7735D01*
X436398Y7794D01*
X436447Y7846D01*
X436469Y7893D01*
X436500Y7935D01*
X436521Y8004D01*
X436551Y8069D01*
X436557Y8120D01*
X436572Y8170D01*
X436570Y8242D01*
X436578Y8313D01*
X436567Y8364D01*
X436566Y8416D01*
X436541Y8483D01*
X436526Y8554D01*
X436499Y8598D01*
X436481Y8647D01*
X436436Y8703D01*
X436400Y8765D01*
X436360Y8799D01*
X436327Y8839D01*
X436267Y8878D01*
X436213Y8925D01*
X436164Y8944D01*
X436120Y8972D01*
X436051Y8990D01*
X435984Y9017D01*
X435913Y9024D01*
X435882Y9032D01*
X435859Y9030D01*
X435818Y9035D01*
X432000Y9035D01*
X428435Y10512D01*
X425706Y13241D01*
X424229Y16806D01*
X424229Y20665D01*
X425706Y24231D01*
X428435Y26960D01*
X432000Y28436D01*
X435859Y28436D01*
X439425Y26960D01*
X442154Y24231D01*
X443631Y20665D01*
X443631Y16806D01*
X442154Y13241D01*
X439425Y10512D01*
X437130Y9561D01*
X437047Y9510D01*
X436961Y9464D01*
X436943Y9445D01*
X436921Y9432D01*
X436859Y9357D01*
X436792Y9286D01*
X436781Y9262D01*
X436764Y9242D01*
X436729Y9151D01*
X436688Y9063D01*
X436685Y9037D01*
X436676Y9013D01*
X436672Y8915D01*
X436661Y8819D01*
X436667Y8793D01*
X436665Y8767D01*
X436693Y8673D01*
X436713Y8578D01*
X436727Y8556D01*
X436734Y8531D01*
X436790Y8451D01*
X436839Y8367D01*
X436859Y8350D01*
X436874Y8329D01*
X436952Y8270D01*
X437026Y8207D01*
X437051Y8197D01*
X437072Y8182D01*
X437164Y8152D01*
X437255Y8115D01*
X437287Y8112D01*
X437306Y8106D01*
X437339Y8106D01*
X437421Y8097D01*
X449283Y8097D01*
X451097Y6283D01*
X451097Y3858D01*
X451100Y3838D01*
X451098Y3819D01*
X451120Y3717D01*
X451136Y3615D01*
X451146Y3598D01*
X451150Y3578D01*
X451203Y3489D01*
X451252Y3398D01*
X451266Y3384D01*
X451276Y3367D01*
X451355Y3300D01*
X451430Y3228D01*
X451448Y3220D01*
X451463Y3207D01*
X451559Y3168D01*
X451653Y3125D01*
X451673Y3123D01*
X451691Y3115D01*
X451858Y3097D01*
X833380Y3097D01*
X833447Y3108D01*
X833515Y3109D01*
X833568Y3127D01*
X833623Y3136D01*
X833683Y3168D01*
X833747Y3191D01*
X833791Y3225D01*
X833840Y3252D01*
X833887Y3301D01*
X833940Y3342D01*
X833971Y3389D01*
X834010Y3430D01*
X834038Y3491D01*
X834076Y3548D01*
X834090Y3602D01*
X834113Y3653D01*
X834121Y3720D01*
X834138Y3786D01*
X834134Y3842D01*
X834141Y3897D01*
X834126Y3964D01*
X834122Y4031D01*
X834100Y4083D01*
X834088Y4138D01*
X834054Y4196D01*
X834028Y4259D01*
X833991Y4301D01*
X833962Y4349D01*
X833911Y4393D01*
X833866Y4444D01*
X833800Y4487D01*
X833775Y4509D01*
X833756Y4517D01*
X833726Y4536D01*
X827284Y7819D01*
X818734Y16369D01*
X813244Y27142D01*
X811353Y39085D01*
X813244Y51028D01*
X818734Y61801D01*
X827284Y70351D01*
X838057Y75841D01*
X850000Y77732D01*
X861943Y75841D01*
X872716Y70351D01*
X880604Y62464D01*
X880662Y62422D01*
X880714Y62373D01*
X880761Y62351D01*
X880803Y62320D01*
X880872Y62299D01*
X880937Y62269D01*
X880989Y62263D01*
X881039Y62248D01*
X881110Y62250D01*
X881181Y62242D01*
X881232Y62253D01*
X881284Y62254D01*
X881352Y62279D01*
X881422Y62294D01*
X881467Y62321D01*
X881515Y62339D01*
X881571Y62384D01*
X881633Y62420D01*
X881667Y62460D01*
X881707Y62492D01*
X881746Y62553D01*
X881793Y62607D01*
X881812Y62656D01*
X881840Y62699D01*
X881858Y62769D01*
X881885Y62835D01*
X881893Y62907D01*
X881901Y62938D01*
X881899Y62961D01*
X881903Y63002D01*
X881903Y118657D01*
X881900Y118677D01*
X881902Y118696D01*
X881880Y118798D01*
X881864Y118900D01*
X881854Y118917D01*
X881850Y118937D01*
X881797Y119026D01*
X881748Y119117D01*
X881734Y119131D01*
X881724Y119148D01*
X881645Y119215D01*
X881570Y119286D01*
X881552Y119295D01*
X881537Y119308D01*
X881441Y119346D01*
X881347Y119390D01*
X881327Y119392D01*
X881309Y119400D01*
X881142Y119418D01*
X811088Y119418D01*
X811017Y119407D01*
X810945Y119405D01*
X810897Y119387D01*
X810845Y119378D01*
X810782Y119345D01*
X810714Y119320D01*
X810674Y119288D01*
X810628Y119263D01*
X810578Y119211D01*
X810522Y119167D01*
X810494Y119123D01*
X810458Y119085D01*
X810428Y119020D01*
X810389Y118960D01*
X810377Y118909D01*
X810355Y118862D01*
X810347Y118791D01*
X810329Y118721D01*
X810333Y118669D01*
X810328Y118617D01*
X810343Y118547D01*
X810349Y118476D01*
X810369Y118428D01*
X810380Y118377D01*
X810417Y118315D01*
X810445Y118250D01*
X810490Y118194D01*
X810506Y118166D01*
X810524Y118151D01*
X810550Y118119D01*
X812193Y116476D01*
X814095Y111883D01*
X814095Y88117D01*
X812193Y83524D01*
X808678Y80009D01*
X804085Y78107D01*
X799115Y78107D01*
X794522Y80009D01*
X791007Y83524D01*
X789603Y86914D01*
X789565Y86975D01*
X789536Y87041D01*
X789501Y87079D01*
X789474Y87123D01*
X789418Y87169D01*
X789370Y87222D01*
X789324Y87247D01*
X789284Y87280D01*
X789217Y87306D01*
X789154Y87340D01*
X789103Y87350D01*
X789055Y87368D01*
X788983Y87371D01*
X788912Y87384D01*
X788861Y87377D01*
X788809Y87379D01*
X788740Y87359D01*
X788669Y87348D01*
X788623Y87325D01*
X788573Y87310D01*
X788514Y87269D01*
X788450Y87237D01*
X788413Y87200D01*
X788371Y87170D01*
X788328Y87112D01*
X788278Y87061D01*
X788243Y86998D01*
X788224Y86973D01*
X788217Y86950D01*
X788197Y86914D01*
X786793Y83524D01*
X783278Y80009D01*
X778685Y78107D01*
X773715Y78107D01*
X769122Y80009D01*
X765607Y83524D01*
X764203Y86914D01*
X764165Y86975D01*
X764136Y87041D01*
X764101Y87079D01*
X764074Y87123D01*
X764018Y87169D01*
X763970Y87222D01*
X763924Y87247D01*
X763884Y87280D01*
X763817Y87306D01*
X763754Y87340D01*
X763703Y87350D01*
X763655Y87368D01*
X763583Y87371D01*
X763512Y87384D01*
X763461Y87377D01*
X763409Y87379D01*
X763340Y87359D01*
X763269Y87348D01*
X763223Y87325D01*
X763173Y87310D01*
X763114Y87269D01*
X763050Y87237D01*
X763013Y87200D01*
X762971Y87170D01*
X762928Y87112D01*
X762878Y87061D01*
X762843Y86998D01*
X762824Y86973D01*
X762817Y86950D01*
X762797Y86914D01*
X761393Y83524D01*
X757878Y80009D01*
X753285Y78107D01*
X748315Y78107D01*
X743722Y80009D01*
X740207Y83524D01*
X738803Y86914D01*
X738765Y86975D01*
X738736Y87041D01*
X738701Y87079D01*
X738674Y87123D01*
X738618Y87169D01*
X738570Y87222D01*
X738524Y87247D01*
X738484Y87280D01*
X738417Y87306D01*
X738354Y87340D01*
X738303Y87350D01*
X738255Y87368D01*
X738183Y87371D01*
X738112Y87384D01*
X738061Y87377D01*
X738009Y87379D01*
X737940Y87359D01*
X737869Y87348D01*
X737823Y87325D01*
X737773Y87310D01*
X737714Y87269D01*
X737650Y87237D01*
X737613Y87200D01*
X737571Y87170D01*
X737528Y87112D01*
X737478Y87061D01*
X737443Y86998D01*
X737424Y86973D01*
X737417Y86950D01*
X737397Y86914D01*
X735993Y83524D01*
X732478Y80009D01*
X727885Y78107D01*
X722915Y78107D01*
X718322Y80009D01*
X714807Y83524D01*
X713045Y87779D01*
X712992Y87865D01*
X712943Y87954D01*
X712927Y87969D01*
X712915Y87988D01*
X712838Y88053D01*
X712763Y88122D01*
X712743Y88131D01*
X712726Y88145D01*
X712631Y88181D01*
X712539Y88223D01*
X712517Y88225D01*
X712496Y88233D01*
X712395Y88238D01*
X712294Y88248D01*
X712273Y88243D01*
X712251Y88244D01*
X712153Y88216D01*
X712055Y88193D01*
X712036Y88181D01*
X712014Y88175D01*
X711931Y88118D01*
X711845Y88065D01*
X711831Y88048D01*
X711812Y88035D01*
X711752Y87954D01*
X711687Y87876D01*
X711676Y87851D01*
X711666Y87838D01*
X711655Y87806D01*
X711618Y87723D01*
X711064Y86019D01*
X710211Y84345D01*
X709106Y82824D01*
X707778Y81496D01*
X706257Y80391D01*
X704583Y79538D01*
X702796Y78957D01*
X701523Y78756D01*
X701523Y99238D01*
X701520Y99258D01*
X701522Y99277D01*
X701500Y99379D01*
X701483Y99481D01*
X701474Y99498D01*
X701470Y99518D01*
X701417Y99607D01*
X701368Y99698D01*
X701354Y99712D01*
X701344Y99729D01*
X701265Y99796D01*
X701190Y99867D01*
X701172Y99876D01*
X701157Y99889D01*
X701061Y99927D01*
X700967Y99971D01*
X700947Y99973D01*
X700929Y99981D01*
X700762Y99999D01*
X699999Y99999D01*
X699999Y100001D01*
X700762Y100001D01*
X700782Y100004D01*
X700801Y100002D01*
X700903Y100024D01*
X701005Y100041D01*
X701022Y100050D01*
X701042Y100054D01*
X701131Y100107D01*
X701222Y100156D01*
X701236Y100170D01*
X701253Y100180D01*
X701320Y100259D01*
X701391Y100334D01*
X701400Y100352D01*
X701413Y100367D01*
X701452Y100463D01*
X701495Y100557D01*
X701497Y100577D01*
X701505Y100595D01*
X701523Y100762D01*
X701523Y121244D01*
X702796Y121043D01*
X704583Y120462D01*
X706257Y119609D01*
X707778Y118504D01*
X709106Y117176D01*
X710211Y115655D01*
X711064Y113981D01*
X711618Y112277D01*
X711664Y112187D01*
X711705Y112094D01*
X711720Y112078D01*
X711731Y112058D01*
X711803Y111988D01*
X711872Y111913D01*
X711891Y111903D01*
X711907Y111887D01*
X711998Y111843D01*
X712087Y111795D01*
X712109Y111791D01*
X712129Y111781D01*
X712230Y111769D01*
X712329Y111751D01*
X712351Y111754D01*
X712373Y111751D01*
X712472Y111772D01*
X712573Y111787D01*
X712592Y111797D01*
X712614Y111801D01*
X712702Y111852D01*
X712792Y111898D01*
X712807Y111914D01*
X712827Y111925D01*
X712893Y112001D01*
X712964Y112074D01*
X712977Y112098D01*
X712988Y112110D01*
X713001Y112141D01*
X713045Y112221D01*
X714807Y116476D01*
X718322Y119991D01*
X722915Y121893D01*
X727885Y121893D01*
X732478Y119991D01*
X735993Y116476D01*
X737397Y113086D01*
X737434Y113025D01*
X737464Y112959D01*
X737499Y112921D01*
X737526Y112877D01*
X737581Y112831D01*
X737630Y112778D01*
X737676Y112753D01*
X737716Y112720D01*
X737783Y112694D01*
X737846Y112660D01*
X737897Y112650D01*
X737945Y112632D01*
X738017Y112629D01*
X738088Y112616D01*
X738139Y112623D01*
X738191Y112621D01*
X738260Y112641D01*
X738331Y112652D01*
X738377Y112675D01*
X738427Y112690D01*
X738486Y112731D01*
X738550Y112763D01*
X738587Y112800D01*
X738629Y112830D01*
X738672Y112888D01*
X738722Y112939D01*
X738757Y113002D01*
X738776Y113027D01*
X738783Y113050D01*
X738803Y113086D01*
X740207Y116476D01*
X743722Y119991D01*
X748315Y121893D01*
X753285Y121893D01*
X757878Y119991D01*
X761393Y116476D01*
X762797Y113086D01*
X762835Y113025D01*
X762864Y112959D01*
X762899Y112921D01*
X762926Y112877D01*
X762982Y112831D01*
X763030Y112778D01*
X763076Y112753D01*
X763116Y112720D01*
X763183Y112694D01*
X763246Y112660D01*
X763297Y112650D01*
X763345Y112632D01*
X763417Y112629D01*
X763488Y112616D01*
X763539Y112623D01*
X763591Y112621D01*
X763660Y112641D01*
X763731Y112652D01*
X763777Y112675D01*
X763827Y112690D01*
X763886Y112731D01*
X763950Y112763D01*
X763987Y112800D01*
X764029Y112830D01*
X764072Y112888D01*
X764122Y112939D01*
X764157Y113002D01*
X764176Y113027D01*
X764183Y113050D01*
X764203Y113086D01*
X765607Y116476D01*
X769122Y119991D01*
X773715Y121893D01*
X778685Y121893D01*
X783278Y119991D01*
X786793Y116476D01*
X788197Y113086D01*
X788235Y113025D01*
X788264Y112959D01*
X788299Y112921D01*
X788326Y112877D01*
X788382Y112831D01*
X788430Y112778D01*
X788476Y112753D01*
X788516Y112720D01*
X788583Y112694D01*
X788646Y112660D01*
X788697Y112650D01*
X788745Y112632D01*
X788817Y112629D01*
X788888Y112616D01*
X788939Y112623D01*
X788991Y112621D01*
X789060Y112641D01*
X789131Y112652D01*
X789177Y112675D01*
X789227Y112690D01*
X789286Y112731D01*
X789350Y112763D01*
X789387Y112800D01*
X789429Y112830D01*
X789472Y112888D01*
X789522Y112939D01*
X789557Y113002D01*
X789576Y113027D01*
X789583Y113050D01*
X789603Y113086D01*
X791007Y116476D01*
X792650Y118119D01*
X792692Y118177D01*
X792742Y118229D01*
X792764Y118276D01*
X792794Y118318D01*
X792815Y118387D01*
X792845Y118452D01*
X792851Y118504D01*
X792866Y118553D01*
X792864Y118625D01*
X792872Y118696D01*
X792861Y118747D01*
X792860Y118799D01*
X792835Y118867D01*
X792820Y118937D01*
X792793Y118981D01*
X792775Y119030D01*
X792731Y119086D01*
X792694Y119148D01*
X792654Y119182D01*
X792622Y119222D01*
X792561Y119261D01*
X792507Y119308D01*
X792459Y119327D01*
X792415Y119355D01*
X792345Y119373D01*
X792279Y119400D01*
X792207Y119408D01*
X792176Y119415D01*
X792153Y119414D01*
X792112Y119418D01*
X790696Y119418D01*
X790692Y119417D01*
X790686Y119418D01*
X789088Y119397D01*
X787958Y120526D01*
X787955Y120529D01*
X787951Y120533D01*
X786806Y121648D01*
X786806Y123246D01*
X786805Y123250D01*
X786806Y123256D01*
X785816Y197216D01*
X785801Y197301D01*
X785794Y197387D01*
X785790Y197396D01*
X785790Y199113D01*
X785790Y199117D01*
X785790Y199123D01*
X785769Y200722D01*
X786898Y201852D01*
X786901Y201855D01*
X786906Y201859D01*
X788020Y203004D01*
X789618Y203004D01*
X789622Y203005D01*
X789628Y203004D01*
X791348Y203027D01*
X791360Y203022D01*
X791408Y203017D01*
X791433Y203010D01*
X791463Y203011D01*
X791527Y203004D01*
X817826Y203004D01*
X817850Y203008D01*
X817875Y203006D01*
X817971Y203028D01*
X818069Y203044D01*
X818090Y203055D01*
X818114Y203061D01*
X818199Y203113D01*
X818286Y203159D01*
X818303Y203177D01*
X818324Y203190D01*
X818387Y203266D01*
X818455Y203337D01*
X818466Y203360D01*
X818482Y203379D01*
X818517Y203471D01*
X818559Y203560D01*
X818562Y203585D01*
X818571Y203608D01*
X818587Y203775D01*
X816198Y394617D01*
X816196Y394629D01*
X816198Y394642D01*
X816175Y394750D01*
X816156Y394859D01*
X816149Y394870D01*
X816147Y394883D01*
X816091Y394978D01*
X816038Y395075D01*
X816028Y395084D01*
X816022Y395095D01*
X815938Y395167D01*
X815857Y395242D01*
X815846Y395247D01*
X815836Y395256D01*
X815733Y395298D01*
X815633Y395343D01*
X815620Y395344D01*
X815608Y395349D01*
X815442Y395369D01*
X639436Y396429D01*
X639414Y396426D01*
X639392Y396428D01*
X639293Y396407D01*
X639193Y396391D01*
X639173Y396381D01*
X639151Y396376D01*
X639065Y396324D01*
X638975Y396277D01*
X638959Y396261D01*
X638940Y396250D01*
X638875Y396173D01*
X638804Y396100D01*
X638795Y396080D01*
X638780Y396063D01*
X638743Y395969D01*
X638699Y395878D01*
X638697Y395856D01*
X638689Y395835D01*
X638670Y395668D01*
X638670Y386969D01*
X638686Y386873D01*
X638695Y386776D01*
X638706Y386752D01*
X638710Y386727D01*
X638755Y386641D01*
X638795Y386552D01*
X638813Y386532D01*
X638825Y386509D01*
X638895Y386442D01*
X638961Y386370D01*
X638984Y386358D01*
X639003Y386340D01*
X639092Y386299D01*
X639177Y386252D01*
X639203Y386247D01*
X639226Y386236D01*
X639323Y386225D01*
X639419Y386208D01*
X639445Y386212D01*
X639471Y386209D01*
X639566Y386230D01*
X639662Y386244D01*
X639686Y386256D01*
X639711Y386261D01*
X639795Y386311D01*
X639881Y386355D01*
X639900Y386374D01*
X639922Y386388D01*
X639985Y386461D01*
X640054Y386531D01*
X640069Y386560D01*
X640082Y386574D01*
X640095Y386605D01*
X640135Y386678D01*
X640859Y388427D01*
X644473Y392041D01*
X649195Y393997D01*
X673805Y393997D01*
X678527Y392041D01*
X682141Y388427D01*
X684097Y383705D01*
X684097Y378595D01*
X682141Y373873D01*
X678527Y370259D01*
X673805Y368303D01*
X649195Y368303D01*
X644473Y370259D01*
X640859Y373873D01*
X640135Y375622D01*
X640083Y375705D01*
X640038Y375791D01*
X640019Y375809D01*
X640005Y375831D01*
X639930Y375893D01*
X639859Y375960D01*
X639836Y375971D01*
X639816Y375988D01*
X639725Y376023D01*
X639636Y376064D01*
X639610Y376067D01*
X639586Y376076D01*
X639489Y376080D01*
X639392Y376091D01*
X639366Y376085D01*
X639340Y376086D01*
X639247Y376059D01*
X639151Y376039D01*
X639129Y376025D01*
X639104Y376018D01*
X639024Y375962D01*
X638940Y375912D01*
X638923Y375893D01*
X638902Y375878D01*
X638844Y375800D01*
X638780Y375726D01*
X638771Y375701D01*
X638755Y375680D01*
X638725Y375588D01*
X638689Y375497D01*
X638685Y375465D01*
X638679Y375446D01*
X638679Y375413D01*
X638670Y375331D01*
X638670Y284038D01*
X515973Y161341D01*
X484252Y161341D01*
X484162Y161326D01*
X484071Y161319D01*
X484041Y161307D01*
X484009Y161301D01*
X483928Y161259D01*
X483844Y161223D01*
X483812Y161197D01*
X483792Y161186D01*
X483769Y161163D01*
X483713Y161118D01*
X474813Y152218D01*
X354139Y152218D01*
X354049Y152203D01*
X353958Y152196D01*
X353928Y152184D01*
X353896Y152178D01*
X353816Y152136D01*
X353732Y152100D01*
X353700Y152074D01*
X353679Y152063D01*
X353657Y152040D01*
X353601Y151995D01*
X353356Y151751D01*
X345024Y151751D01*
X335440Y161335D01*
X335365Y161389D01*
X335295Y161449D01*
X335265Y161461D01*
X335240Y161479D01*
X335152Y161506D01*
X335066Y161540D01*
X335027Y161545D01*
X335005Y161551D01*
X334973Y161550D01*
X334899Y161558D01*
X264972Y161347D01*
X264932Y161340D01*
X263058Y161341D01*
X263057Y161341D01*
X263055Y161341D01*
X261462Y161336D01*
X260332Y162467D01*
X260331Y162468D01*
X260330Y162469D01*
X259197Y163595D01*
X259197Y165198D01*
X259197Y165199D01*
X259197Y165201D01*
X259192Y167048D01*
X259198Y167106D01*
X259299Y397961D01*
X259296Y397981D01*
X259298Y398001D01*
X259276Y398102D01*
X259260Y398204D01*
X259250Y398221D01*
X259246Y398241D01*
X259193Y398330D01*
X259145Y398421D01*
X259130Y398435D01*
X259120Y398452D01*
X259041Y398519D01*
X258966Y398591D01*
X258948Y398599D01*
X258933Y398612D01*
X258837Y398651D01*
X258743Y398694D01*
X258723Y398697D01*
X258705Y398704D01*
X258538Y398723D01*
X156975Y398723D01*
X156975Y398722D01*
X156974Y398723D01*
X155379Y398719D01*
X154244Y399854D01*
X154243Y399854D01*
X154243Y399855D01*
X153115Y400978D01*
X153115Y402582D01*
X153115Y402583D01*
X153115Y402584D01*
X152668Y626110D01*
X152665Y626133D01*
X152665Y628022D01*
X152665Y628023D01*
X152665Y628024D01*
X152661Y629621D01*
X153796Y630756D01*
X153797Y630757D01*
X155118Y632083D01*
X155144Y632104D01*
X203438Y680398D01*
X205922Y682882D01*
X320217Y682882D01*
X320307Y682896D01*
X320398Y682903D01*
X320428Y682916D01*
X320460Y682921D01*
X320540Y682964D01*
X320624Y683000D01*
X320656Y683025D01*
X320677Y683036D01*
X320687Y683047D01*
X320688Y683048D01*
X320702Y683062D01*
X320755Y683105D01*
X351968Y714318D01*
X549228Y714318D01*
X549247Y714321D01*
X549267Y714319D01*
X549368Y714341D01*
X549470Y714358D01*
X549488Y714367D01*
X549507Y714371D01*
X549596Y714424D01*
X549688Y714473D01*
X549701Y714487D01*
X549718Y714497D01*
X549786Y714576D01*
X549857Y714651D01*
X549865Y714669D01*
X549878Y714684D01*
X549917Y714780D01*
X549961Y714874D01*
X549963Y714894D01*
X549970Y714912D01*
X549989Y715079D01*
X549989Y786686D01*
X549986Y786702D01*
X549988Y786718D01*
X549966Y786823D01*
X549949Y786929D01*
X549942Y786943D01*
X549938Y786959D01*
X549884Y787051D01*
X549834Y787146D01*
X549822Y787157D01*
X549814Y787171D01*
X549734Y787242D01*
X549656Y787316D01*
X549641Y787322D01*
X549629Y787333D01*
X549530Y787374D01*
X549433Y787419D01*
X549417Y787421D01*
X549402Y787427D01*
X549295Y787435D01*
X549188Y787446D01*
X549173Y787443D01*
X549157Y787444D01*
X548992Y787410D01*
X547772Y787014D01*
X545857Y786710D01*
X536631Y786710D01*
X536631Y798268D01*
X536628Y798288D01*
X536630Y798307D01*
X536608Y798409D01*
X536591Y798511D01*
X536582Y798528D01*
X536578Y798548D01*
X536525Y798637D01*
X536476Y798728D01*
X536462Y798742D01*
X536452Y798759D01*
X536373Y798826D01*
X536298Y798897D01*
X536280Y798906D01*
X536265Y798919D01*
X536169Y798957D01*
X536075Y799001D01*
X536055Y799003D01*
X536037Y799011D01*
X535870Y799029D01*
X535107Y799029D01*
X535107Y799792D01*
X535104Y799812D01*
X535106Y799831D01*
X535084Y799933D01*
X535067Y800035D01*
X535058Y800052D01*
X535054Y800072D01*
X535001Y800161D01*
X534952Y800252D01*
X534938Y800266D01*
X534928Y800283D01*
X534849Y800350D01*
X534774Y800421D01*
X534756Y800430D01*
X534741Y800443D01*
X534645Y800482D01*
X534551Y800525D01*
X534531Y800527D01*
X534513Y800535D01*
X534346Y800553D01*
X513097Y800553D01*
X513313Y801915D01*
X513912Y803759D01*
X514792Y805487D01*
X515932Y807056D01*
X517303Y808427D01*
X518872Y809567D01*
X520600Y810447D01*
X521350Y810691D01*
X521440Y810737D01*
X521533Y810779D01*
X521549Y810794D01*
X521569Y810804D01*
X521639Y810876D01*
X521714Y810945D01*
X521725Y810964D01*
X521740Y810980D01*
X521784Y811072D01*
X521832Y811160D01*
X521836Y811182D01*
X521846Y811202D01*
X521858Y811303D01*
X521876Y811403D01*
X521873Y811424D01*
X521876Y811446D01*
X521855Y811546D01*
X521840Y811646D01*
X521830Y811666D01*
X521826Y811687D01*
X521775Y811775D01*
X521729Y811865D01*
X521713Y811881D01*
X521702Y811900D01*
X521626Y811966D01*
X521553Y812037D01*
X521529Y812051D01*
X521517Y812062D01*
X521487Y812074D01*
X521406Y812118D01*
X517928Y813559D01*
X517815Y813585D01*
X517701Y813614D01*
X517695Y813614D01*
X517689Y813615D01*
X517572Y813604D01*
X517456Y813595D01*
X517450Y813592D01*
X517444Y813592D01*
X517337Y813544D01*
X517230Y813499D01*
X517224Y813494D01*
X517219Y813492D01*
X517206Y813479D01*
X517099Y813394D01*
X507002Y803297D01*
X504518Y800813D01*
X463385Y800813D01*
X463294Y800799D01*
X463204Y800791D01*
X463174Y800779D01*
X463142Y800774D01*
X463061Y800731D01*
X462977Y800695D01*
X462945Y800669D01*
X462924Y800658D01*
X462902Y800635D01*
X462846Y800590D01*
X461097Y798841D01*
X458568Y797793D01*
X455832Y797793D01*
X453303Y798841D01*
X451369Y800775D01*
X450321Y803304D01*
X450321Y806040D01*
X451369Y808569D01*
X453303Y810503D01*
X455832Y811551D01*
X457992Y811551D01*
X458063Y811562D01*
X458135Y811564D01*
X458183Y811582D01*
X458235Y811590D01*
X458298Y811624D01*
X458366Y811649D01*
X458406Y811681D01*
X458452Y811706D01*
X458502Y811758D01*
X458558Y811802D01*
X458586Y811846D01*
X458622Y811884D01*
X458652Y811949D01*
X458691Y812009D01*
X458703Y812060D01*
X458725Y812107D01*
X458733Y812178D01*
X458751Y812248D01*
X458747Y812300D01*
X458752Y812351D01*
X458737Y812422D01*
X458731Y812493D01*
X458711Y812541D01*
X458700Y812592D01*
X458663Y812653D01*
X458635Y812719D01*
X458590Y812775D01*
X458574Y812803D01*
X458556Y812818D01*
X458530Y812850D01*
X456477Y814904D01*
X455000Y818469D01*
X455000Y822328D01*
X456477Y825894D01*
X459206Y828623D01*
X462771Y830100D01*
X479838Y830100D01*
X483404Y828623D01*
X486132Y825894D01*
X487609Y822328D01*
X487609Y818469D01*
X486132Y814904D01*
X483404Y812175D01*
X479838Y810698D01*
X462740Y810698D01*
X462669Y810687D01*
X462597Y810685D01*
X462548Y810667D01*
X462497Y810658D01*
X462434Y810625D01*
X462366Y810600D01*
X462325Y810568D01*
X462280Y810543D01*
X462230Y810491D01*
X462174Y810447D01*
X462146Y810403D01*
X462110Y810365D01*
X462080Y810300D01*
X462041Y810240D01*
X462028Y810189D01*
X462007Y810142D01*
X461999Y810071D01*
X461981Y810001D01*
X461985Y809949D01*
X461979Y809897D01*
X461995Y809827D01*
X462000Y809756D01*
X462021Y809708D01*
X462032Y809657D01*
X462068Y809595D01*
X462097Y809530D01*
X462141Y809474D01*
X462158Y809446D01*
X462176Y809431D01*
X462201Y809399D01*
X462846Y808754D01*
X462920Y808700D01*
X462990Y808641D01*
X463020Y808629D01*
X463046Y808610D01*
X463133Y808583D01*
X463218Y808549D01*
X463259Y808545D01*
X463281Y808538D01*
X463313Y808539D01*
X463385Y808531D01*
X501006Y808531D01*
X501096Y808545D01*
X501187Y808553D01*
X501217Y808565D01*
X501249Y808570D01*
X501330Y808613D01*
X501414Y808649D01*
X501446Y808675D01*
X501466Y808686D01*
X501489Y808709D01*
X501545Y808754D01*
X512740Y819949D01*
X512807Y820043D01*
X512878Y820138D01*
X512880Y820144D01*
X512883Y820149D01*
X512918Y820260D01*
X512954Y820371D01*
X512954Y820378D01*
X512956Y820384D01*
X512953Y820501D01*
X512952Y820617D01*
X512950Y820625D01*
X512949Y820630D01*
X512943Y820647D01*
X512905Y820779D01*
X512453Y821869D01*
X512453Y826991D01*
X514413Y831724D01*
X518035Y835346D01*
X520646Y836427D01*
X520707Y836465D01*
X520772Y836494D01*
X520810Y836529D01*
X520855Y836556D01*
X520900Y836612D01*
X520953Y836660D01*
X520978Y836706D01*
X521012Y836746D01*
X521037Y836813D01*
X521072Y836876D01*
X521081Y836927D01*
X521100Y836975D01*
X521103Y837047D01*
X521116Y837118D01*
X521108Y837169D01*
X521110Y837221D01*
X521090Y837290D01*
X521080Y837361D01*
X521056Y837407D01*
X521042Y837457D01*
X521001Y837516D01*
X520968Y837580D01*
X520931Y837617D01*
X520901Y837659D01*
X520844Y837702D01*
X520793Y837752D01*
X520730Y837787D01*
X520704Y837806D01*
X520682Y837813D01*
X520646Y837833D01*
X518035Y838914D01*
X514413Y842536D01*
X512453Y847269D01*
X512453Y852391D01*
X514413Y857124D01*
X518035Y860746D01*
X522768Y862706D01*
X547448Y862706D01*
X548936Y862089D01*
X548981Y862079D01*
X549023Y862060D01*
X549100Y862051D01*
X549176Y862033D01*
X549221Y862037D01*
X549267Y862032D01*
X549343Y862049D01*
X549421Y862056D01*
X549462Y862075D01*
X549507Y862085D01*
X549574Y862125D01*
X549645Y862156D01*
X549679Y862187D01*
X549718Y862211D01*
X549769Y862270D01*
X549826Y862323D01*
X549849Y862363D01*
X549878Y862398D01*
X549907Y862470D01*
X549945Y862538D01*
X549953Y862583D01*
X549970Y862626D01*
X549985Y862762D01*
X549989Y862780D01*
X549988Y862785D01*
X549989Y862793D01*
X549989Y992198D01*
X552249Y994459D01*
X750001Y994459D01*
X750094Y994474D01*
X750189Y994482D01*
X750223Y994495D01*
X750243Y994498D01*
X750272Y994514D01*
X750346Y994542D01*
X752156Y995464D01*
X752211Y995504D01*
X752270Y995536D01*
X752309Y995576D01*
X752354Y995609D01*
X752393Y995665D01*
X752440Y995714D01*
X752463Y995765D01*
X752496Y995811D01*
X752515Y995876D01*
X752543Y995937D01*
X752550Y995993D01*
X752565Y996046D01*
X752563Y996114D01*
X752570Y996181D01*
X752559Y996236D01*
X752557Y996292D01*
X752533Y996356D01*
X752518Y996422D01*
X752489Y996470D01*
X752470Y996522D01*
X752427Y996575D01*
X752392Y996633D01*
X752350Y996669D01*
X752314Y996713D01*
X752257Y996749D01*
X752205Y996793D01*
X752153Y996814D01*
X752106Y996844D01*
X752040Y996859D01*
X751977Y996885D01*
X751899Y996893D01*
X751867Y996901D01*
X751846Y996899D01*
X751810Y996903D01*
X516858Y996903D01*
X516838Y996900D01*
X516819Y996902D01*
X516717Y996880D01*
X516615Y996864D01*
X516598Y996854D01*
X516578Y996850D01*
X516489Y996797D01*
X516398Y996748D01*
X516384Y996734D01*
X516367Y996724D01*
X516300Y996645D01*
X516228Y996570D01*
X516220Y996552D01*
X516207Y996537D01*
X516168Y996441D01*
X516125Y996347D01*
X516123Y996327D01*
X516115Y996309D01*
X516097Y996142D01*
X516097Y978717D01*
X514283Y976903D01*
X496858Y976903D01*
X496838Y976900D01*
X496819Y976902D01*
X496717Y976880D01*
X496615Y976864D01*
X496598Y976854D01*
X496578Y976850D01*
X496489Y976797D01*
X496398Y976748D01*
X496384Y976734D01*
X496367Y976724D01*
X496300Y976645D01*
X496228Y976570D01*
X496220Y976552D01*
X496207Y976537D01*
X496168Y976441D01*
X496125Y976347D01*
X496123Y976327D01*
X496115Y976309D01*
X496097Y976142D01*
X496097Y898717D01*
X494283Y896903D01*
X448858Y896903D01*
X448838Y896900D01*
X448819Y896902D01*
X448717Y896880D01*
X448615Y896864D01*
X448598Y896854D01*
X448578Y896850D01*
X448489Y896797D01*
X448398Y896748D01*
X448384Y896734D01*
X448367Y896724D01*
X448300Y896645D01*
X448228Y896570D01*
X448220Y896552D01*
X448207Y896537D01*
X448168Y896441D01*
X448125Y896347D01*
X448123Y896327D01*
X448115Y896309D01*
X448097Y896142D01*
X448097Y893717D01*
X446283Y891903D01*
X438717Y891903D01*
X436903Y893717D01*
X436903Y896142D01*
X436900Y896162D01*
X436902Y896181D01*
X436880Y896283D01*
X436864Y896385D01*
X436854Y896402D01*
X436850Y896422D01*
X436797Y896511D01*
X436748Y896602D01*
X436734Y896616D01*
X436724Y896633D01*
X436645Y896700D01*
X436570Y896772D01*
X436552Y896780D01*
X436537Y896793D01*
X436441Y896832D01*
X436347Y896875D01*
X436327Y896877D01*
X436309Y896885D01*
X436142Y896903D01*
X391717Y896903D01*
X389903Y898717D01*
X389903Y976142D01*
X389900Y976162D01*
X389902Y976181D01*
X389880Y976283D01*
X389864Y976385D01*
X389854Y976402D01*
X389850Y976422D01*
X389797Y976511D01*
X389748Y976602D01*
X389734Y976616D01*
X389724Y976633D01*
X389645Y976700D01*
X389570Y976772D01*
X389552Y976780D01*
X389537Y976793D01*
X389441Y976832D01*
X389347Y976875D01*
X389327Y976877D01*
X389309Y976885D01*
X389142Y976903D01*
X371717Y976903D01*
X369903Y978717D01*
X369903Y996142D01*
X369900Y996162D01*
X369902Y996181D01*
X369880Y996283D01*
X369864Y996385D01*
X369854Y996402D01*
X369850Y996422D01*
X369797Y996511D01*
X369748Y996602D01*
X369734Y996616D01*
X369724Y996633D01*
X369645Y996700D01*
X369570Y996772D01*
X369552Y996780D01*
X369537Y996793D01*
X369441Y996832D01*
X369347Y996875D01*
X369327Y996877D01*
X369309Y996885D01*
X369142Y996903D01*
X132221Y996903D01*
X132154Y996892D01*
X132086Y996891D01*
X132033Y996873D01*
X131978Y996864D01*
X131918Y996832D01*
X131854Y996809D01*
X131810Y996775D01*
X131761Y996748D01*
X131714Y996699D01*
X131661Y996658D01*
X131630Y996611D01*
X131591Y996570D01*
X131563Y996509D01*
X131526Y996452D01*
X131511Y996398D01*
X131488Y996347D01*
X131480Y996280D01*
X131463Y996214D01*
X131467Y996158D01*
X131461Y996103D01*
X131475Y996036D01*
X131480Y995969D01*
X131501Y995917D01*
X131513Y995862D01*
X131548Y995804D01*
X131574Y995741D01*
X131610Y995699D01*
X131639Y995651D01*
X131691Y995607D01*
X131735Y995556D01*
X131801Y995513D01*
X131826Y995491D01*
X131845Y995483D01*
X131875Y995464D01*
X133250Y994763D01*
X141800Y986213D01*
X147290Y975439D01*
X149181Y963497D01*
X147290Y951554D01*
X141800Y940780D01*
X133250Y932231D01*
X122477Y926741D01*
X110534Y924850D01*
X98591Y926741D01*
X87818Y932231D01*
X79396Y940652D01*
X79338Y940694D01*
X79286Y940743D01*
X79239Y940765D01*
X79197Y940796D01*
X79128Y940817D01*
X79063Y940847D01*
X79011Y940853D01*
X78961Y940868D01*
X78890Y940866D01*
X78819Y940874D01*
X78768Y940863D01*
X78716Y940862D01*
X78648Y940837D01*
X78578Y940822D01*
X78533Y940795D01*
X78485Y940777D01*
X78429Y940732D01*
X78367Y940696D01*
X78333Y940656D01*
X78293Y940623D01*
X78254Y940563D01*
X78207Y940509D01*
X78188Y940460D01*
X78160Y940417D01*
X78142Y940347D01*
X78115Y940280D01*
X78107Y940209D01*
X78099Y940178D01*
X78101Y940155D01*
X78097Y940114D01*
X78097Y918717D01*
X76283Y916903D01*
X3858Y916903D01*
X3838Y916900D01*
X3819Y916902D01*
X3717Y916880D01*
X3615Y916864D01*
X3598Y916854D01*
X3578Y916850D01*
X3489Y916797D01*
X3398Y916748D01*
X3384Y916734D01*
X3367Y916724D01*
X3300Y916645D01*
X3228Y916570D01*
X3220Y916552D01*
X3207Y916537D01*
X3168Y916441D01*
X3125Y916347D01*
X3123Y916327D01*
X3115Y916309D01*
X3097Y916142D01*
X3097Y508858D01*
X3100Y508838D01*
X3098Y508819D01*
X3120Y508717D01*
X3136Y508615D01*
X3146Y508598D01*
X3150Y508578D01*
X3203Y508489D01*
X3252Y508398D01*
X3266Y508384D01*
X3276Y508367D01*
X3355Y508300D01*
X3430Y508228D01*
X3448Y508220D01*
X3463Y508207D01*
X3559Y508168D01*
X3653Y508125D01*
X3673Y508123D01*
X3691Y508115D01*
X3858Y508097D01*
X6283Y508097D01*
X8097Y506283D01*
X8097Y493717D01*
X6283Y491903D01*
X3858Y491903D01*
X3838Y491900D01*
X3819Y491902D01*
X3717Y491880D01*
X3615Y491864D01*
X3598Y491854D01*
X3578Y491850D01*
X3489Y491797D01*
X3398Y491748D01*
X3384Y491734D01*
X3367Y491724D01*
X3300Y491645D01*
X3228Y491570D01*
X3220Y491552D01*
X3207Y491537D01*
X3168Y491441D01*
X3125Y491347D01*
X3123Y491327D01*
X3115Y491309D01*
X3097Y491142D01*
X3097Y61735D01*
X3108Y61665D01*
X3110Y61593D01*
X3128Y61544D01*
X3136Y61493D01*
X3170Y61429D01*
X3195Y61362D01*
X3227Y61321D01*
X3252Y61275D01*
X3304Y61226D01*
X3348Y61170D01*
X3392Y61142D01*
X3430Y61106D01*
X3495Y61076D01*
X3555Y61037D01*
X3606Y61024D01*
X3653Y61002D01*
X3724Y60994D01*
X3794Y60977D01*
X3846Y60981D01*
X3897Y60975D01*
X3968Y60990D01*
X4039Y60996D01*
X4087Y61016D01*
X4138Y61027D01*
X4199Y61064D01*
X4265Y61092D01*
X4321Y61137D01*
X4349Y61154D01*
X4364Y61171D01*
X4396Y61197D01*
X12284Y69085D01*
X23057Y74574D01*
X35000Y76466D01*
X46943Y74574D01*
X57716Y69085D01*
X66266Y60535D01*
X71756Y49761D01*
X73647Y37818D01*
X71756Y25876D01*
X66266Y15102D01*
X57716Y6552D01*
X53760Y4536D01*
X53705Y4496D01*
X53646Y4464D01*
X53607Y4424D01*
X53562Y4391D01*
X53523Y4335D01*
X53476Y4286D01*
X53453Y4235D01*
X53420Y4189D01*
X53401Y4124D01*
X53373Y4063D01*
X53366Y4007D01*
X53351Y3954D01*
X53353Y3886D01*
X53346Y3819D01*
X53357Y3764D01*
X53359Y3708D01*
X53383Y3645D01*
X53398Y3578D01*
X53427Y3530D01*
X53446Y3478D01*
X53489Y3425D01*
X53524Y3367D01*
X53566Y3331D01*
X53602Y3287D01*
X53659Y3251D01*
X53711Y3207D01*
X53763Y3186D01*
X53810Y3156D01*
X53876Y3141D01*
X53939Y3115D01*
X54017Y3107D01*
X54049Y3099D01*
X54070Y3101D01*
X54106Y3097D01*
X434142Y3097D01*
X434162Y3100D01*
G37*
G36*
X881718Y122519D02*
X881718Y122519D01*
X881737Y122517D01*
X881839Y122539D01*
X881941Y122555D01*
X881958Y122565D01*
X881978Y122569D01*
X882067Y122622D01*
X882158Y122670D01*
X882172Y122685D01*
X882189Y122695D01*
X882256Y122774D01*
X882328Y122849D01*
X882336Y122867D01*
X882349Y122882D01*
X882388Y122978D01*
X882431Y123072D01*
X882433Y123092D01*
X882441Y123110D01*
X882459Y123277D01*
X882459Y916698D01*
X882456Y916718D01*
X882458Y916737D01*
X882436Y916839D01*
X882420Y916941D01*
X882410Y916958D01*
X882406Y916978D01*
X882353Y917067D01*
X882304Y917158D01*
X882290Y917172D01*
X882280Y917189D01*
X882201Y917256D01*
X882126Y917328D01*
X882108Y917336D01*
X882093Y917349D01*
X881997Y917388D01*
X881903Y917431D01*
X881883Y917433D01*
X881865Y917441D01*
X881698Y917459D01*
X808948Y917459D01*
X807459Y918948D01*
X807459Y944892D01*
X807448Y944959D01*
X807447Y945027D01*
X807429Y945079D01*
X807420Y945135D01*
X807388Y945195D01*
X807365Y945259D01*
X807331Y945303D01*
X807304Y945352D01*
X807255Y945399D01*
X807214Y945452D01*
X807167Y945483D01*
X807126Y945521D01*
X807065Y945550D01*
X807008Y945587D01*
X806954Y945602D01*
X806903Y945625D01*
X806836Y945633D01*
X806770Y945650D01*
X806714Y945646D01*
X806659Y945652D01*
X806592Y945638D01*
X806525Y945633D01*
X806473Y945612D01*
X806418Y945600D01*
X806360Y945565D01*
X806297Y945539D01*
X806255Y945503D01*
X806207Y945474D01*
X806163Y945422D01*
X806112Y945378D01*
X806069Y945312D01*
X806047Y945287D01*
X806039Y945267D01*
X806020Y945238D01*
X803776Y940833D01*
X795349Y932406D01*
X784730Y926996D01*
X772959Y925132D01*
X761188Y926996D01*
X750570Y932406D01*
X742143Y940833D01*
X736732Y951452D01*
X734868Y963223D01*
X736732Y974994D01*
X742143Y985612D01*
X746592Y990062D01*
X746634Y990120D01*
X746683Y990172D01*
X746705Y990219D01*
X746736Y990261D01*
X746757Y990330D01*
X746787Y990395D01*
X746793Y990447D01*
X746808Y990497D01*
X746806Y990568D01*
X746814Y990639D01*
X746803Y990690D01*
X746802Y990742D01*
X746777Y990810D01*
X746762Y990880D01*
X746735Y990924D01*
X746717Y990973D01*
X746672Y991029D01*
X746636Y991091D01*
X746596Y991125D01*
X746564Y991165D01*
X746503Y991204D01*
X746449Y991251D01*
X746400Y991270D01*
X746357Y991298D01*
X746287Y991316D01*
X746221Y991343D01*
X746149Y991351D01*
X746118Y991359D01*
X746095Y991357D01*
X746054Y991361D01*
X553848Y991361D01*
X553828Y991358D01*
X553808Y991360D01*
X553707Y991338D01*
X553605Y991322D01*
X553587Y991312D01*
X553568Y991308D01*
X553479Y991255D01*
X553387Y991206D01*
X553374Y991192D01*
X553357Y991182D01*
X553289Y991103D01*
X553218Y991028D01*
X553210Y991010D01*
X553197Y990995D01*
X553158Y990899D01*
X553114Y990805D01*
X553112Y990785D01*
X553105Y990767D01*
X553086Y990600D01*
X553086Y859369D01*
X553101Y859279D01*
X553108Y859188D01*
X553121Y859158D01*
X553126Y859126D01*
X553169Y859045D01*
X553204Y858961D01*
X553230Y858929D01*
X553241Y858909D01*
X553264Y858886D01*
X553309Y858830D01*
X555331Y856809D01*
X557207Y852281D01*
X557207Y847379D01*
X555331Y842851D01*
X553309Y840830D01*
X553256Y840756D01*
X553197Y840686D01*
X553185Y840656D01*
X553166Y840630D01*
X553139Y840543D01*
X553105Y840458D01*
X553100Y840417D01*
X553093Y840395D01*
X553094Y840363D01*
X553086Y840291D01*
X553086Y833969D01*
X553101Y833879D01*
X553108Y833788D01*
X553121Y833758D01*
X553126Y833726D01*
X553169Y833645D01*
X553204Y833561D01*
X553230Y833529D01*
X553241Y833509D01*
X553264Y833486D01*
X553309Y833430D01*
X555331Y831409D01*
X557207Y826881D01*
X557207Y821979D01*
X555331Y817451D01*
X553309Y815430D01*
X553256Y815356D01*
X553197Y815286D01*
X553185Y815256D01*
X553166Y815230D01*
X553139Y815143D01*
X553105Y815058D01*
X553100Y815017D01*
X553093Y814995D01*
X553094Y814963D01*
X553086Y814891D01*
X553086Y808569D01*
X553101Y808479D01*
X553108Y808388D01*
X553121Y808358D01*
X553126Y808326D01*
X553169Y808245D01*
X553204Y808161D01*
X553230Y808129D01*
X553241Y808109D01*
X553264Y808086D01*
X553309Y808030D01*
X555331Y806009D01*
X557207Y801481D01*
X557207Y796579D01*
X555331Y792051D01*
X553309Y790030D01*
X553256Y789956D01*
X553197Y789886D01*
X553185Y789856D01*
X553166Y789830D01*
X553139Y789743D01*
X553105Y789658D01*
X553100Y789617D01*
X553093Y789595D01*
X553094Y789563D01*
X553086Y789491D01*
X553086Y711220D01*
X353567Y711220D01*
X353477Y711206D01*
X353386Y711198D01*
X353356Y711186D01*
X353324Y711181D01*
X353243Y711138D01*
X353160Y711102D01*
X353127Y711076D01*
X353107Y711066D01*
X353085Y711042D01*
X353029Y710997D01*
X321815Y679784D01*
X207520Y679784D01*
X207430Y679769D01*
X207339Y679762D01*
X207309Y679750D01*
X207277Y679744D01*
X207197Y679702D01*
X207113Y679666D01*
X207081Y679640D01*
X207060Y679629D01*
X207038Y679606D01*
X206982Y679561D01*
X155985Y628565D01*
X155932Y628490D01*
X155872Y628420D01*
X155860Y628390D01*
X155842Y628365D01*
X155815Y628277D01*
X155780Y628192D01*
X155776Y628152D01*
X155769Y628130D01*
X155770Y628097D01*
X155762Y628025D01*
X156212Y402580D01*
X156216Y402561D01*
X156213Y402542D01*
X156236Y402440D01*
X156253Y402337D01*
X156262Y402320D01*
X156266Y402301D01*
X156319Y402212D01*
X156368Y402120D01*
X156382Y402107D01*
X156392Y402090D01*
X156471Y402023D01*
X156547Y401951D01*
X156564Y401943D01*
X156579Y401930D01*
X156676Y401891D01*
X156770Y401848D01*
X156789Y401846D01*
X156807Y401838D01*
X156974Y401820D01*
X262398Y401820D01*
X262295Y165200D01*
X262298Y165179D01*
X262296Y165158D01*
X262318Y165058D01*
X262335Y164957D01*
X262345Y164939D01*
X262349Y164918D01*
X262402Y164830D01*
X262450Y164740D01*
X262465Y164725D01*
X262476Y164707D01*
X262554Y164641D01*
X262628Y164570D01*
X262647Y164562D01*
X262663Y164548D01*
X262758Y164510D01*
X262851Y164467D01*
X262872Y164464D01*
X262892Y164457D01*
X263058Y164439D01*
X336495Y164661D01*
X346085Y155071D01*
X346158Y155018D01*
X346228Y154959D01*
X346258Y154947D01*
X346284Y154928D01*
X346371Y154901D01*
X346456Y154867D01*
X346497Y154862D01*
X346519Y154855D01*
X346552Y154856D01*
X346623Y154848D01*
X351758Y154848D01*
X351848Y154863D01*
X351939Y154870D01*
X351969Y154883D01*
X352001Y154888D01*
X352082Y154931D01*
X352165Y154966D01*
X352198Y154992D01*
X352218Y155003D01*
X352240Y155027D01*
X352296Y155071D01*
X352541Y155316D01*
X473215Y155316D01*
X473305Y155330D01*
X473396Y155337D01*
X473426Y155350D01*
X473458Y155355D01*
X473539Y155398D01*
X473622Y155434D01*
X473655Y155459D01*
X473675Y155470D01*
X473697Y155494D01*
X473753Y155539D01*
X482653Y164439D01*
X514375Y164439D01*
X514465Y164453D01*
X514556Y164460D01*
X514586Y164473D01*
X514618Y164478D01*
X514698Y164521D01*
X514782Y164557D01*
X514814Y164582D01*
X514835Y164593D01*
X514857Y164617D01*
X514913Y164662D01*
X635350Y285098D01*
X635403Y285172D01*
X635462Y285241D01*
X635474Y285272D01*
X635493Y285298D01*
X635520Y285385D01*
X635554Y285470D01*
X635559Y285510D01*
X635566Y285533D01*
X635565Y285565D01*
X635573Y285636D01*
X635573Y399550D01*
X819248Y398443D01*
X821733Y199907D01*
X789649Y199907D01*
X789624Y199902D01*
X789599Y199905D01*
X789503Y199883D01*
X789406Y199867D01*
X789384Y199855D01*
X789360Y199849D01*
X789276Y199798D01*
X789189Y199752D01*
X789172Y199734D01*
X789150Y199720D01*
X789087Y199645D01*
X789020Y199573D01*
X789009Y199551D01*
X788993Y199531D01*
X788957Y199440D01*
X788916Y199350D01*
X788913Y199325D01*
X788904Y199302D01*
X788888Y199135D01*
X789904Y123267D01*
X789906Y123252D01*
X789905Y123237D01*
X789928Y123131D01*
X789947Y123024D01*
X789954Y123012D01*
X789957Y122997D01*
X790012Y122904D01*
X790065Y122809D01*
X790076Y122799D01*
X790083Y122786D01*
X790166Y122715D01*
X790245Y122642D01*
X790259Y122636D01*
X790270Y122626D01*
X790371Y122585D01*
X790470Y122541D01*
X790484Y122540D01*
X790498Y122534D01*
X790665Y122516D01*
X881698Y122516D01*
X881718Y122519D01*
G37*
%LPC*%
G36*
X284550Y443061D02*
X284550Y443061D01*
X283061Y444550D01*
X283061Y454141D01*
X283047Y454231D01*
X283039Y454322D01*
X283027Y454351D01*
X283022Y454383D01*
X282979Y454464D01*
X282943Y454548D01*
X282917Y454580D01*
X282906Y454601D01*
X282883Y454623D01*
X282838Y454679D01*
X274065Y463452D01*
X274065Y519528D01*
X347628Y593091D01*
X380480Y593091D01*
X380595Y593110D01*
X380711Y593127D01*
X380717Y593129D01*
X380723Y593130D01*
X380826Y593185D01*
X380931Y593238D01*
X380935Y593243D01*
X380941Y593246D01*
X381020Y593330D01*
X381103Y593414D01*
X381107Y593420D01*
X381110Y593424D01*
X381118Y593441D01*
X381184Y593561D01*
X381736Y594894D01*
X383514Y596672D01*
X385838Y597635D01*
X388354Y597635D01*
X390678Y596672D01*
X392456Y594894D01*
X393008Y593561D01*
X393070Y593461D01*
X393130Y593361D01*
X393134Y593357D01*
X393138Y593352D01*
X393228Y593277D01*
X393317Y593201D01*
X393323Y593199D01*
X393327Y593195D01*
X393436Y593153D01*
X393545Y593109D01*
X393552Y593108D01*
X393557Y593107D01*
X393575Y593106D01*
X393712Y593091D01*
X404800Y593091D01*
X404820Y593094D01*
X404839Y593092D01*
X404941Y593114D01*
X405043Y593130D01*
X405060Y593140D01*
X405080Y593144D01*
X405169Y593197D01*
X405260Y593246D01*
X405274Y593260D01*
X405291Y593270D01*
X405358Y593349D01*
X405430Y593424D01*
X405438Y593442D01*
X405451Y593457D01*
X405490Y593553D01*
X405533Y593647D01*
X405535Y593667D01*
X405543Y593685D01*
X405561Y593852D01*
X405561Y600450D01*
X407050Y601939D01*
X427950Y601939D01*
X429462Y600427D01*
X429478Y600416D01*
X429490Y600400D01*
X429578Y600344D01*
X429661Y600284D01*
X429680Y600278D01*
X429697Y600267D01*
X429798Y600242D01*
X429897Y600212D01*
X429916Y600212D01*
X429936Y600207D01*
X430039Y600215D01*
X430142Y600218D01*
X430161Y600225D01*
X430181Y600226D01*
X430276Y600267D01*
X430373Y600302D01*
X430389Y600315D01*
X430407Y600323D01*
X430538Y600427D01*
X432050Y601939D01*
X452950Y601939D01*
X454585Y600304D01*
X454681Y600235D01*
X454777Y600164D01*
X454781Y600163D01*
X454785Y600161D01*
X454897Y600126D01*
X455012Y600089D01*
X455016Y600090D01*
X455020Y600088D01*
X455138Y600091D01*
X455258Y600093D01*
X455261Y600095D01*
X455266Y600095D01*
X455377Y600135D01*
X455489Y600175D01*
X455493Y600178D01*
X455497Y600179D01*
X455589Y600253D01*
X455683Y600327D01*
X455686Y600331D01*
X455689Y600333D01*
X455696Y600345D01*
X455782Y600462D01*
X456069Y600958D01*
X456542Y601431D01*
X457121Y601766D01*
X457768Y601939D01*
X465977Y601939D01*
X465977Y590762D01*
X465980Y590742D01*
X465978Y590723D01*
X466000Y590621D01*
X466017Y590519D01*
X466026Y590502D01*
X466030Y590482D01*
X466083Y590393D01*
X466132Y590302D01*
X466146Y590288D01*
X466156Y590271D01*
X466235Y590204D01*
X466310Y590133D01*
X466328Y590124D01*
X466343Y590111D01*
X466439Y590073D01*
X466533Y590029D01*
X466553Y590027D01*
X466571Y590019D01*
X466738Y590001D01*
X467501Y590001D01*
X467501Y589999D01*
X466738Y589999D01*
X466718Y589996D01*
X466699Y589998D01*
X466597Y589976D01*
X466495Y589959D01*
X466478Y589950D01*
X466458Y589946D01*
X466369Y589893D01*
X466278Y589844D01*
X466264Y589830D01*
X466247Y589820D01*
X466180Y589741D01*
X466109Y589666D01*
X466100Y589648D01*
X466087Y589633D01*
X466048Y589537D01*
X466005Y589443D01*
X466003Y589423D01*
X465995Y589405D01*
X465977Y589238D01*
X465977Y578061D01*
X457768Y578061D01*
X457121Y578234D01*
X456542Y578569D01*
X456069Y579042D01*
X455782Y579538D01*
X455707Y579630D01*
X455633Y579723D01*
X455629Y579725D01*
X455627Y579728D01*
X455527Y579791D01*
X455426Y579856D01*
X455422Y579857D01*
X455418Y579859D01*
X455303Y579887D01*
X455187Y579916D01*
X455183Y579916D01*
X455179Y579917D01*
X455060Y579906D01*
X454942Y579897D01*
X454938Y579895D01*
X454934Y579895D01*
X454825Y579847D01*
X454716Y579801D01*
X454712Y579797D01*
X454709Y579796D01*
X454699Y579787D01*
X454585Y579696D01*
X452950Y578061D01*
X432050Y578061D01*
X430538Y579573D01*
X430522Y579584D01*
X430510Y579600D01*
X430422Y579656D01*
X430339Y579716D01*
X430320Y579722D01*
X430303Y579733D01*
X430202Y579758D01*
X430103Y579788D01*
X430084Y579788D01*
X430064Y579793D01*
X429961Y579785D01*
X429858Y579782D01*
X429839Y579775D01*
X429819Y579774D01*
X429724Y579733D01*
X429627Y579698D01*
X429611Y579685D01*
X429593Y579677D01*
X429462Y579573D01*
X427950Y578061D01*
X407050Y578061D01*
X405561Y579550D01*
X405561Y585724D01*
X405558Y585744D01*
X405560Y585763D01*
X405538Y585865D01*
X405522Y585967D01*
X405512Y585984D01*
X405508Y586004D01*
X405455Y586093D01*
X405406Y586184D01*
X405392Y586198D01*
X405382Y586215D01*
X405303Y586282D01*
X405228Y586354D01*
X405210Y586362D01*
X405195Y586375D01*
X405099Y586414D01*
X405005Y586457D01*
X404985Y586459D01*
X404967Y586467D01*
X404800Y586485D01*
X391526Y586485D01*
X391436Y586471D01*
X391345Y586463D01*
X391315Y586451D01*
X391284Y586446D01*
X391203Y586403D01*
X391119Y586367D01*
X391087Y586341D01*
X391066Y586330D01*
X391044Y586307D01*
X390988Y586262D01*
X390678Y585952D01*
X388354Y584989D01*
X385838Y584989D01*
X383514Y585952D01*
X383204Y586262D01*
X383130Y586315D01*
X383061Y586375D01*
X383031Y586387D01*
X383004Y586406D01*
X382917Y586433D01*
X382832Y586467D01*
X382792Y586471D01*
X382769Y586478D01*
X382737Y586477D01*
X382666Y586485D01*
X350679Y586485D01*
X350589Y586471D01*
X350498Y586463D01*
X350469Y586451D01*
X350437Y586446D01*
X350356Y586403D01*
X350272Y586367D01*
X350240Y586341D01*
X350219Y586330D01*
X350197Y586307D01*
X350141Y586262D01*
X280894Y517015D01*
X280841Y516941D01*
X280781Y516872D01*
X280769Y516841D01*
X280750Y516815D01*
X280723Y516728D01*
X280689Y516643D01*
X280685Y516602D01*
X280678Y516580D01*
X280679Y516548D01*
X280671Y516477D01*
X280671Y466503D01*
X280685Y466413D01*
X280693Y466322D01*
X280705Y466292D01*
X280710Y466261D01*
X280753Y466180D01*
X280789Y466096D01*
X280815Y466064D01*
X280826Y466043D01*
X280849Y466021D01*
X280894Y465965D01*
X281762Y465097D01*
X281820Y465055D01*
X281872Y465006D01*
X281919Y464984D01*
X281961Y464953D01*
X282030Y464932D01*
X282095Y464902D01*
X282147Y464896D01*
X282197Y464881D01*
X282268Y464883D01*
X282339Y464875D01*
X282390Y464886D01*
X282442Y464887D01*
X282510Y464912D01*
X282580Y464927D01*
X282625Y464954D01*
X282673Y464972D01*
X282729Y465017D01*
X282791Y465054D01*
X282825Y465093D01*
X282865Y465126D01*
X282904Y465186D01*
X282951Y465240D01*
X282970Y465289D01*
X282998Y465333D01*
X283016Y465402D01*
X283018Y465407D01*
X284573Y466962D01*
X284584Y466978D01*
X284600Y466990D01*
X284656Y467078D01*
X284716Y467161D01*
X284722Y467180D01*
X284733Y467197D01*
X284758Y467298D01*
X284788Y467397D01*
X284788Y467416D01*
X284793Y467436D01*
X284785Y467539D01*
X284782Y467642D01*
X284775Y467661D01*
X284774Y467681D01*
X284733Y467776D01*
X284698Y467873D01*
X284685Y467889D01*
X284677Y467907D01*
X284573Y468038D01*
X283061Y469550D01*
X283061Y490450D01*
X284696Y492085D01*
X284765Y492181D01*
X284836Y492277D01*
X284837Y492281D01*
X284839Y492285D01*
X284874Y492397D01*
X284911Y492512D01*
X284910Y492516D01*
X284912Y492520D01*
X284909Y492638D01*
X284907Y492758D01*
X284905Y492761D01*
X284905Y492766D01*
X284865Y492877D01*
X284825Y492989D01*
X284822Y492993D01*
X284821Y492997D01*
X284747Y493089D01*
X284673Y493183D01*
X284669Y493186D01*
X284667Y493189D01*
X284655Y493196D01*
X284538Y493282D01*
X284042Y493569D01*
X283569Y494042D01*
X283234Y494621D01*
X283061Y495268D01*
X283061Y503477D01*
X294238Y503477D01*
X294258Y503480D01*
X294277Y503478D01*
X294379Y503500D01*
X294481Y503517D01*
X294498Y503526D01*
X294518Y503530D01*
X294607Y503583D01*
X294698Y503632D01*
X294712Y503646D01*
X294729Y503656D01*
X294796Y503735D01*
X294867Y503810D01*
X294876Y503828D01*
X294889Y503843D01*
X294927Y503939D01*
X294971Y504033D01*
X294973Y504053D01*
X294981Y504071D01*
X294999Y504238D01*
X294999Y505001D01*
X295001Y505001D01*
X295001Y504238D01*
X295004Y504218D01*
X295002Y504199D01*
X295024Y504097D01*
X295041Y503995D01*
X295050Y503978D01*
X295054Y503958D01*
X295107Y503869D01*
X295156Y503778D01*
X295170Y503764D01*
X295180Y503747D01*
X295259Y503680D01*
X295334Y503609D01*
X295352Y503600D01*
X295367Y503587D01*
X295463Y503548D01*
X295557Y503505D01*
X295577Y503503D01*
X295595Y503495D01*
X295762Y503477D01*
X306939Y503477D01*
X306939Y495268D01*
X306766Y494621D01*
X306431Y494042D01*
X305958Y493569D01*
X305462Y493282D01*
X305370Y493207D01*
X305277Y493133D01*
X305275Y493129D01*
X305272Y493127D01*
X305209Y493027D01*
X305144Y492926D01*
X305143Y492922D01*
X305141Y492918D01*
X305113Y492803D01*
X305084Y492687D01*
X305084Y492683D01*
X305083Y492679D01*
X305094Y492560D01*
X305103Y492442D01*
X305105Y492438D01*
X305105Y492434D01*
X305153Y492325D01*
X305199Y492216D01*
X305203Y492212D01*
X305204Y492209D01*
X305213Y492199D01*
X305304Y492085D01*
X306939Y490450D01*
X306939Y490231D01*
X306950Y490161D01*
X306952Y490089D01*
X306970Y490040D01*
X306978Y489989D01*
X307012Y489925D01*
X307037Y489858D01*
X307069Y489817D01*
X307094Y489771D01*
X307146Y489722D01*
X307190Y489666D01*
X307234Y489638D01*
X307272Y489602D01*
X307337Y489572D01*
X307397Y489533D01*
X307448Y489520D01*
X307495Y489498D01*
X307566Y489490D01*
X307636Y489473D01*
X307688Y489477D01*
X307739Y489471D01*
X307810Y489486D01*
X307881Y489492D01*
X307929Y489512D01*
X307980Y489523D01*
X308041Y489560D01*
X308107Y489588D01*
X308163Y489633D01*
X308191Y489650D01*
X308206Y489667D01*
X308238Y489693D01*
X334802Y516257D01*
X334855Y516331D01*
X334915Y516400D01*
X334927Y516431D01*
X334946Y516457D01*
X334973Y516544D01*
X335007Y516629D01*
X335011Y516670D01*
X335018Y516692D01*
X335017Y516724D01*
X335025Y516795D01*
X335025Y563724D01*
X336960Y565659D01*
X624681Y565659D01*
X624771Y565673D01*
X624862Y565681D01*
X624891Y565693D01*
X624923Y565698D01*
X625004Y565741D01*
X625088Y565777D01*
X625120Y565803D01*
X625141Y565814D01*
X625163Y565837D01*
X625219Y565882D01*
X649380Y590043D01*
X684437Y590043D01*
X684508Y590054D01*
X684580Y590056D01*
X684629Y590074D01*
X684680Y590082D01*
X684743Y590116D01*
X684811Y590141D01*
X684852Y590173D01*
X684897Y590198D01*
X684947Y590250D01*
X685003Y590294D01*
X685031Y590338D01*
X685067Y590376D01*
X685097Y590441D01*
X685136Y590501D01*
X685149Y590552D01*
X685170Y590599D01*
X685178Y590670D01*
X685196Y590740D01*
X685192Y590792D01*
X685198Y590843D01*
X685182Y590914D01*
X685177Y590985D01*
X685156Y591033D01*
X685145Y591084D01*
X685109Y591145D01*
X685080Y591211D01*
X685036Y591267D01*
X685019Y591295D01*
X685001Y591310D01*
X684976Y591342D01*
X684562Y591756D01*
X683179Y595094D01*
X683179Y598706D01*
X684562Y602044D01*
X687116Y604598D01*
X690454Y605981D01*
X707146Y605981D01*
X710484Y604598D01*
X713038Y602044D01*
X714421Y598706D01*
X714421Y595094D01*
X713038Y591756D01*
X712624Y591342D01*
X712582Y591284D01*
X712533Y591232D01*
X712511Y591185D01*
X712481Y591143D01*
X712460Y591074D01*
X712430Y591009D01*
X712424Y590957D01*
X712408Y590907D01*
X712410Y590836D01*
X712402Y590765D01*
X712413Y590714D01*
X712415Y590662D01*
X712439Y590594D01*
X712455Y590524D01*
X712481Y590479D01*
X712499Y590431D01*
X712544Y590375D01*
X712581Y590313D01*
X712620Y590279D01*
X712653Y590239D01*
X712713Y590200D01*
X712768Y590153D01*
X712816Y590134D01*
X712860Y590106D01*
X712929Y590088D01*
X712996Y590061D01*
X713067Y590053D01*
X713098Y590045D01*
X713122Y590047D01*
X713163Y590043D01*
X827376Y590043D01*
X829534Y587885D01*
X838330Y579089D01*
X838346Y579077D01*
X838359Y579061D01*
X838446Y579006D01*
X838530Y578945D01*
X838549Y578939D01*
X838566Y578929D01*
X838666Y578903D01*
X838765Y578873D01*
X838785Y578873D01*
X838804Y578868D01*
X838907Y578876D01*
X839011Y578879D01*
X839029Y578886D01*
X839049Y578888D01*
X839145Y578928D01*
X839242Y578964D01*
X839257Y578976D01*
X839276Y578984D01*
X839407Y579089D01*
X839516Y579198D01*
X842854Y580581D01*
X859546Y580581D01*
X862884Y579198D01*
X865438Y576644D01*
X866821Y573306D01*
X866821Y569694D01*
X865438Y566356D01*
X862884Y563802D01*
X859546Y562419D01*
X842854Y562419D01*
X839516Y563802D01*
X836962Y566356D01*
X835579Y569694D01*
X835579Y572183D01*
X835565Y572273D01*
X835557Y572364D01*
X835545Y572393D01*
X835540Y572425D01*
X835497Y572506D01*
X835461Y572590D01*
X835435Y572622D01*
X835424Y572643D01*
X835401Y572665D01*
X835356Y572721D01*
X824863Y583214D01*
X824789Y583267D01*
X824720Y583327D01*
X824689Y583339D01*
X824663Y583358D01*
X824576Y583385D01*
X824491Y583419D01*
X824450Y583423D01*
X824428Y583430D01*
X824396Y583429D01*
X824325Y583437D01*
X652431Y583437D01*
X652341Y583423D01*
X652250Y583415D01*
X652221Y583403D01*
X652189Y583398D01*
X652108Y583355D01*
X652024Y583319D01*
X651992Y583293D01*
X651971Y583282D01*
X651949Y583259D01*
X651893Y583214D01*
X627732Y559053D01*
X342392Y559053D01*
X342372Y559050D01*
X342353Y559052D01*
X342251Y559030D01*
X342149Y559014D01*
X342132Y559004D01*
X342112Y559000D01*
X342023Y558947D01*
X341932Y558898D01*
X341918Y558884D01*
X341901Y558874D01*
X341834Y558795D01*
X341762Y558720D01*
X341754Y558702D01*
X341741Y558687D01*
X341702Y558591D01*
X341659Y558497D01*
X341657Y558477D01*
X341649Y558459D01*
X341631Y558292D01*
X341631Y513744D01*
X307162Y479275D01*
X307109Y479201D01*
X307049Y479132D01*
X307037Y479101D01*
X307018Y479075D01*
X306991Y478988D01*
X306957Y478903D01*
X306953Y478862D01*
X306946Y478840D01*
X306947Y478808D01*
X306939Y478737D01*
X306939Y469550D01*
X305427Y468038D01*
X305416Y468022D01*
X305400Y468010D01*
X305344Y467922D01*
X305284Y467839D01*
X305278Y467820D01*
X305267Y467803D01*
X305242Y467702D01*
X305212Y467603D01*
X305212Y467584D01*
X305207Y467564D01*
X305215Y467461D01*
X305218Y467358D01*
X305225Y467339D01*
X305226Y467319D01*
X305267Y467224D01*
X305302Y467127D01*
X305315Y467111D01*
X305323Y467093D01*
X305427Y466962D01*
X306939Y465450D01*
X306939Y444550D01*
X305450Y443061D01*
X284550Y443061D01*
G37*
%LPD*%
%LPC*%
G36*
X842854Y587819D02*
X842854Y587819D01*
X839516Y589202D01*
X836962Y591756D01*
X836183Y593635D01*
X836122Y593735D01*
X836062Y593835D01*
X836057Y593839D01*
X836054Y593844D01*
X835964Y593919D01*
X835875Y593995D01*
X835869Y593997D01*
X835864Y594001D01*
X835756Y594043D01*
X835647Y594087D01*
X835639Y594088D01*
X835635Y594089D01*
X835616Y594090D01*
X835480Y594105D01*
X787558Y594105D01*
X724974Y656690D01*
X724974Y702600D01*
X724971Y702615D01*
X724972Y702628D01*
X724959Y702691D01*
X724952Y702781D01*
X724939Y702811D01*
X724934Y702843D01*
X724891Y702924D01*
X724855Y703008D01*
X724830Y703040D01*
X724819Y703061D01*
X724795Y703083D01*
X724751Y703139D01*
X716659Y711230D01*
X716585Y711283D01*
X716516Y711343D01*
X716485Y711355D01*
X716459Y711374D01*
X716372Y711401D01*
X716287Y711435D01*
X716246Y711439D01*
X716224Y711446D01*
X716192Y711445D01*
X716121Y711453D01*
X685956Y711453D01*
X629571Y767838D01*
X629497Y767891D01*
X629428Y767951D01*
X629397Y767963D01*
X629371Y767982D01*
X629284Y768009D01*
X629199Y768043D01*
X629158Y768047D01*
X629136Y768054D01*
X629104Y768053D01*
X629033Y768061D01*
X614550Y768061D01*
X613038Y769573D01*
X613022Y769584D01*
X613010Y769600D01*
X612922Y769656D01*
X612839Y769716D01*
X612820Y769722D01*
X612803Y769733D01*
X612702Y769758D01*
X612603Y769788D01*
X612584Y769788D01*
X612564Y769793D01*
X612461Y769785D01*
X612358Y769782D01*
X612339Y769775D01*
X612319Y769774D01*
X612224Y769733D01*
X612127Y769698D01*
X612111Y769685D01*
X612093Y769677D01*
X611962Y769573D01*
X610450Y768061D01*
X589550Y768061D01*
X588061Y769550D01*
X588061Y790450D01*
X589550Y791939D01*
X610450Y791939D01*
X611962Y790427D01*
X611978Y790416D01*
X611990Y790400D01*
X612078Y790344D01*
X612161Y790284D01*
X612180Y790278D01*
X612197Y790267D01*
X612298Y790242D01*
X612397Y790212D01*
X612416Y790212D01*
X612436Y790207D01*
X612539Y790215D01*
X612642Y790218D01*
X612661Y790225D01*
X612681Y790226D01*
X612776Y790267D01*
X612873Y790302D01*
X612889Y790315D01*
X612907Y790323D01*
X613038Y790427D01*
X614550Y791939D01*
X635450Y791939D01*
X637085Y790304D01*
X637180Y790236D01*
X637277Y790164D01*
X637281Y790163D01*
X637285Y790161D01*
X637397Y790126D01*
X637512Y790089D01*
X637516Y790090D01*
X637520Y790088D01*
X637638Y790091D01*
X637758Y790093D01*
X637761Y790095D01*
X637766Y790095D01*
X637878Y790136D01*
X637989Y790175D01*
X637993Y790178D01*
X637997Y790179D01*
X638090Y790254D01*
X638183Y790327D01*
X638186Y790331D01*
X638189Y790333D01*
X638196Y790345D01*
X638282Y790462D01*
X638569Y790958D01*
X639042Y791431D01*
X639621Y791766D01*
X640268Y791939D01*
X648477Y791939D01*
X648477Y780762D01*
X648480Y780742D01*
X648478Y780723D01*
X648500Y780621D01*
X648517Y780519D01*
X648526Y780502D01*
X648530Y780482D01*
X648583Y780393D01*
X648632Y780302D01*
X648646Y780288D01*
X648656Y780271D01*
X648735Y780204D01*
X648810Y780133D01*
X648828Y780124D01*
X648843Y780111D01*
X648939Y780073D01*
X649033Y780029D01*
X649053Y780027D01*
X649071Y780019D01*
X649238Y780001D01*
X650001Y780001D01*
X650001Y779999D01*
X649238Y779999D01*
X649218Y779996D01*
X649199Y779998D01*
X649097Y779976D01*
X648995Y779959D01*
X648978Y779950D01*
X648958Y779946D01*
X648869Y779893D01*
X648778Y779844D01*
X648764Y779830D01*
X648747Y779820D01*
X648680Y779741D01*
X648609Y779666D01*
X648600Y779648D01*
X648587Y779633D01*
X648548Y779537D01*
X648505Y779443D01*
X648503Y779423D01*
X648495Y779405D01*
X648477Y779238D01*
X648477Y768061D01*
X640527Y768061D01*
X640457Y768050D01*
X640385Y768048D01*
X640336Y768030D01*
X640285Y768022D01*
X640221Y767988D01*
X640154Y767963D01*
X640113Y767931D01*
X640067Y767906D01*
X640018Y767855D01*
X639962Y767810D01*
X639934Y767766D01*
X639898Y767728D01*
X639868Y767663D01*
X639829Y767603D01*
X639816Y767552D01*
X639794Y767505D01*
X639786Y767434D01*
X639769Y767364D01*
X639773Y767312D01*
X639767Y767261D01*
X639782Y767190D01*
X639788Y767119D01*
X639808Y767071D01*
X639819Y767020D01*
X639856Y766959D01*
X639884Y766893D01*
X639929Y766837D01*
X639946Y766809D01*
X639950Y766805D01*
X639951Y766803D01*
X639965Y766791D01*
X639989Y766762D01*
X681880Y724871D01*
X681938Y724829D01*
X681990Y724780D01*
X682037Y724758D01*
X682079Y724727D01*
X682148Y724706D01*
X682213Y724676D01*
X682265Y724670D01*
X682315Y724655D01*
X682386Y724657D01*
X682457Y724649D01*
X682508Y724660D01*
X682560Y724661D01*
X682628Y724686D01*
X682698Y724701D01*
X682742Y724728D01*
X682791Y724746D01*
X682847Y724791D01*
X682909Y724828D01*
X682943Y724867D01*
X682983Y724900D01*
X683022Y724960D01*
X683069Y725014D01*
X683088Y725063D01*
X683116Y725107D01*
X683134Y725176D01*
X683161Y725243D01*
X683169Y725314D01*
X683177Y725345D01*
X683175Y725368D01*
X683179Y725409D01*
X683179Y725706D01*
X684562Y729044D01*
X687116Y731598D01*
X690454Y732981D01*
X707146Y732981D01*
X710484Y731598D01*
X712160Y729922D01*
X712218Y729881D01*
X712270Y729831D01*
X712317Y729809D01*
X712359Y729779D01*
X712428Y729758D01*
X712493Y729728D01*
X712545Y729722D01*
X712595Y729706D01*
X712666Y729708D01*
X712737Y729700D01*
X712788Y729711D01*
X712840Y729713D01*
X712908Y729737D01*
X712978Y729753D01*
X713023Y729779D01*
X713071Y729797D01*
X713127Y729842D01*
X713189Y729879D01*
X713223Y729918D01*
X713263Y729951D01*
X713302Y730011D01*
X713349Y730066D01*
X713368Y730114D01*
X713396Y730158D01*
X713414Y730227D01*
X713441Y730294D01*
X713449Y730365D01*
X713457Y730396D01*
X713455Y730420D01*
X713459Y730461D01*
X713459Y737266D01*
X723734Y747541D01*
X738266Y747541D01*
X748541Y737266D01*
X748541Y722734D01*
X738266Y712459D01*
X726609Y712459D01*
X726539Y712448D01*
X726467Y712446D01*
X726418Y712428D01*
X726367Y712420D01*
X726303Y712386D01*
X726236Y712361D01*
X726195Y712329D01*
X726149Y712304D01*
X726100Y712252D01*
X726044Y712208D01*
X726016Y712164D01*
X725980Y712126D01*
X725950Y712061D01*
X725911Y712001D01*
X725898Y711950D01*
X725876Y711903D01*
X725868Y711832D01*
X725851Y711762D01*
X725855Y711710D01*
X725849Y711659D01*
X725864Y711588D01*
X725870Y711517D01*
X725890Y711469D01*
X725901Y711418D01*
X725938Y711357D01*
X725966Y711291D01*
X726011Y711235D01*
X726028Y711207D01*
X726045Y711192D01*
X726071Y711160D01*
X731579Y705652D01*
X731579Y659741D01*
X731594Y659651D01*
X731601Y659560D01*
X731613Y659530D01*
X731619Y659498D01*
X731661Y659418D01*
X731697Y659334D01*
X731723Y659302D01*
X731734Y659281D01*
X731757Y659259D01*
X731802Y659203D01*
X736762Y654243D01*
X736820Y654201D01*
X736872Y654152D01*
X736919Y654130D01*
X736961Y654100D01*
X737030Y654078D01*
X737095Y654048D01*
X737147Y654042D01*
X737197Y654027D01*
X737268Y654029D01*
X737339Y654021D01*
X737390Y654032D01*
X737442Y654034D01*
X737510Y654058D01*
X737580Y654073D01*
X737625Y654100D01*
X737673Y654118D01*
X737729Y654163D01*
X737791Y654200D01*
X737825Y654239D01*
X737865Y654272D01*
X737904Y654332D01*
X737951Y654386D01*
X737970Y654435D01*
X737998Y654479D01*
X738016Y654548D01*
X738043Y654615D01*
X738051Y654686D01*
X738059Y654717D01*
X738057Y654740D01*
X738061Y654781D01*
X738061Y670450D01*
X739550Y671939D01*
X756412Y671939D01*
X756432Y671942D01*
X756451Y671940D01*
X756553Y671962D01*
X756655Y671978D01*
X756672Y671988D01*
X756692Y671992D01*
X756781Y672045D01*
X756872Y672094D01*
X756886Y672108D01*
X756903Y672118D01*
X756970Y672197D01*
X757042Y672272D01*
X757050Y672290D01*
X757063Y672305D01*
X757102Y672401D01*
X757145Y672495D01*
X757147Y672515D01*
X757155Y672533D01*
X757173Y672700D01*
X757173Y760626D01*
X759331Y762784D01*
X839094Y842547D01*
X839106Y842563D01*
X839122Y842576D01*
X839178Y842663D01*
X839238Y842747D01*
X839244Y842766D01*
X839255Y842782D01*
X839280Y842883D01*
X839310Y842982D01*
X839310Y843002D01*
X839315Y843021D01*
X839307Y843124D01*
X839304Y843228D01*
X839297Y843246D01*
X839295Y843266D01*
X839255Y843361D01*
X839219Y843459D01*
X839207Y843474D01*
X839199Y843493D01*
X839094Y843624D01*
X836962Y845756D01*
X835579Y849094D01*
X835579Y852706D01*
X836962Y856044D01*
X839516Y858598D01*
X842854Y859981D01*
X859546Y859981D01*
X862884Y858598D01*
X865438Y856044D01*
X866821Y852706D01*
X866821Y849094D01*
X865438Y845756D01*
X862884Y843202D01*
X859546Y841819D01*
X848023Y841819D01*
X847933Y841805D01*
X847842Y841797D01*
X847813Y841785D01*
X847781Y841780D01*
X847700Y841737D01*
X847616Y841701D01*
X847584Y841675D01*
X847563Y841664D01*
X847541Y841641D01*
X847485Y841596D01*
X841490Y835601D01*
X841433Y835522D01*
X841371Y835447D01*
X841362Y835422D01*
X841346Y835401D01*
X841318Y835308D01*
X841283Y835217D01*
X841282Y835191D01*
X841274Y835166D01*
X841277Y835069D01*
X841272Y834972D01*
X841280Y834946D01*
X841280Y834920D01*
X841314Y834829D01*
X841341Y834735D01*
X841356Y834714D01*
X841365Y834689D01*
X841426Y834613D01*
X841481Y834533D01*
X841502Y834518D01*
X841519Y834497D01*
X841601Y834445D01*
X841679Y834387D01*
X841703Y834378D01*
X841725Y834364D01*
X841820Y834340D01*
X841913Y834310D01*
X841939Y834311D01*
X841964Y834304D01*
X842061Y834312D01*
X842158Y834313D01*
X842190Y834322D01*
X842209Y834323D01*
X842239Y834336D01*
X842320Y834359D01*
X842854Y834581D01*
X859546Y834581D01*
X862884Y833198D01*
X865438Y830644D01*
X866821Y827306D01*
X866821Y823694D01*
X865438Y820356D01*
X862884Y817802D01*
X859546Y816419D01*
X842854Y816419D01*
X839516Y817802D01*
X836962Y820356D01*
X835579Y823694D01*
X835579Y827306D01*
X835801Y827840D01*
X835823Y827935D01*
X835851Y828028D01*
X835851Y828054D01*
X835857Y828080D01*
X835848Y828177D01*
X835845Y828274D01*
X835836Y828299D01*
X835834Y828325D01*
X835794Y828414D01*
X835761Y828505D01*
X835744Y828526D01*
X835734Y828550D01*
X835668Y828621D01*
X835607Y828697D01*
X835585Y828711D01*
X835567Y828731D01*
X835482Y828778D01*
X835400Y828830D01*
X835375Y828837D01*
X835352Y828849D01*
X835256Y828867D01*
X835161Y828890D01*
X835135Y828888D01*
X835110Y828893D01*
X835013Y828879D01*
X834916Y828871D01*
X834892Y828861D01*
X834866Y828857D01*
X834779Y828813D01*
X834690Y828775D01*
X834665Y828755D01*
X834647Y828746D01*
X834624Y828722D01*
X834559Y828670D01*
X764002Y758113D01*
X763949Y758039D01*
X763889Y757969D01*
X763877Y757939D01*
X763858Y757913D01*
X763831Y757826D01*
X763797Y757741D01*
X763793Y757700D01*
X763786Y757678D01*
X763787Y757646D01*
X763779Y757574D01*
X763779Y672700D01*
X763782Y672680D01*
X763780Y672661D01*
X763802Y672559D01*
X763818Y672457D01*
X763828Y672440D01*
X763832Y672420D01*
X763885Y672331D01*
X763934Y672240D01*
X763948Y672226D01*
X763958Y672209D01*
X764037Y672142D01*
X764112Y672070D01*
X764130Y672062D01*
X764145Y672049D01*
X764241Y672010D01*
X764335Y671967D01*
X764355Y671965D01*
X764373Y671957D01*
X764540Y671939D01*
X785450Y671939D01*
X787085Y670304D01*
X787181Y670235D01*
X787277Y670164D01*
X787281Y670163D01*
X787285Y670161D01*
X787397Y670126D01*
X787512Y670089D01*
X787516Y670090D01*
X787520Y670088D01*
X787638Y670091D01*
X787758Y670093D01*
X787761Y670095D01*
X787766Y670095D01*
X787877Y670135D01*
X787989Y670175D01*
X787993Y670178D01*
X787997Y670179D01*
X788089Y670253D01*
X788183Y670327D01*
X788186Y670331D01*
X788189Y670333D01*
X788196Y670345D01*
X788282Y670462D01*
X788569Y670958D01*
X789042Y671431D01*
X789621Y671766D01*
X790268Y671939D01*
X798477Y671939D01*
X798477Y660762D01*
X798480Y660742D01*
X798478Y660723D01*
X798500Y660621D01*
X798517Y660519D01*
X798526Y660502D01*
X798530Y660482D01*
X798583Y660393D01*
X798632Y660302D01*
X798646Y660288D01*
X798656Y660271D01*
X798735Y660204D01*
X798810Y660133D01*
X798828Y660124D01*
X798843Y660111D01*
X798939Y660073D01*
X799033Y660029D01*
X799053Y660027D01*
X799071Y660019D01*
X799238Y660001D01*
X800001Y660001D01*
X800001Y659999D01*
X799238Y659999D01*
X799218Y659996D01*
X799199Y659998D01*
X799097Y659976D01*
X798995Y659959D01*
X798978Y659950D01*
X798958Y659946D01*
X798869Y659893D01*
X798778Y659844D01*
X798764Y659830D01*
X798747Y659820D01*
X798680Y659741D01*
X798609Y659666D01*
X798600Y659648D01*
X798587Y659633D01*
X798548Y659537D01*
X798505Y659443D01*
X798503Y659423D01*
X798495Y659405D01*
X798477Y659238D01*
X798477Y648061D01*
X790268Y648061D01*
X789621Y648234D01*
X789042Y648569D01*
X788569Y649042D01*
X788282Y649538D01*
X788207Y649630D01*
X788133Y649723D01*
X788129Y649725D01*
X788127Y649728D01*
X788027Y649791D01*
X787926Y649856D01*
X787922Y649857D01*
X787918Y649859D01*
X787803Y649887D01*
X787687Y649916D01*
X787683Y649916D01*
X787679Y649917D01*
X787560Y649906D01*
X787442Y649897D01*
X787438Y649895D01*
X787434Y649895D01*
X787325Y649847D01*
X787216Y649801D01*
X787212Y649797D01*
X787209Y649796D01*
X787199Y649787D01*
X787085Y649696D01*
X785450Y648061D01*
X764550Y648061D01*
X763038Y649573D01*
X763022Y649584D01*
X763010Y649600D01*
X762922Y649656D01*
X762839Y649716D01*
X762820Y649722D01*
X762803Y649733D01*
X762702Y649758D01*
X762603Y649788D01*
X762584Y649788D01*
X762564Y649793D01*
X762461Y649785D01*
X762358Y649782D01*
X762339Y649775D01*
X762319Y649774D01*
X762224Y649733D01*
X762127Y649698D01*
X762111Y649685D01*
X762093Y649677D01*
X761962Y649573D01*
X760450Y648061D01*
X744781Y648061D01*
X744711Y648050D01*
X744639Y648048D01*
X744590Y648030D01*
X744539Y648022D01*
X744475Y647988D01*
X744408Y647963D01*
X744367Y647931D01*
X744321Y647906D01*
X744272Y647854D01*
X744216Y647810D01*
X744188Y647766D01*
X744152Y647728D01*
X744122Y647663D01*
X744083Y647603D01*
X744070Y647552D01*
X744048Y647505D01*
X744040Y647434D01*
X744023Y647364D01*
X744027Y647312D01*
X744021Y647261D01*
X744036Y647190D01*
X744042Y647119D01*
X744062Y647071D01*
X744073Y647020D01*
X744110Y646959D01*
X744138Y646893D01*
X744183Y646837D01*
X744200Y646809D01*
X744217Y646794D01*
X744243Y646762D01*
X790071Y600934D01*
X790145Y600881D01*
X790215Y600821D01*
X790245Y600809D01*
X790271Y600790D01*
X790358Y600763D01*
X790443Y600729D01*
X790484Y600725D01*
X790506Y600718D01*
X790538Y600719D01*
X790609Y600711D01*
X835901Y600711D01*
X836016Y600730D01*
X836132Y600747D01*
X836137Y600749D01*
X836144Y600750D01*
X836246Y600805D01*
X836351Y600858D01*
X836356Y600863D01*
X836361Y600866D01*
X836441Y600950D01*
X836523Y601034D01*
X836527Y601040D01*
X836530Y601044D01*
X836538Y601061D01*
X836604Y601181D01*
X836962Y602044D01*
X839516Y604598D01*
X842854Y605981D01*
X859546Y605981D01*
X862884Y604598D01*
X865438Y602044D01*
X866821Y598706D01*
X866821Y595094D01*
X865438Y591756D01*
X862884Y589202D01*
X859546Y587819D01*
X842854Y587819D01*
G37*
%LPD*%
%LPC*%
G36*
X59592Y372597D02*
X59592Y372597D01*
X57063Y373645D01*
X55129Y375579D01*
X54081Y378108D01*
X54081Y380844D01*
X55129Y383373D01*
X57063Y385307D01*
X59011Y386114D01*
X59067Y386149D01*
X59127Y386174D01*
X59192Y386226D01*
X59220Y386244D01*
X59233Y386259D01*
X59258Y386279D01*
X59585Y386606D01*
X95517Y422538D01*
X95529Y422555D01*
X95545Y422567D01*
X95601Y422654D01*
X95661Y422738D01*
X95667Y422757D01*
X95678Y422774D01*
X95703Y422875D01*
X95733Y422973D01*
X95732Y422993D01*
X95737Y423013D01*
X95729Y423116D01*
X95727Y423219D01*
X95720Y423238D01*
X95718Y423258D01*
X95678Y423353D01*
X95642Y423450D01*
X95634Y423460D01*
X93845Y427779D01*
X93792Y427866D01*
X93743Y427954D01*
X93727Y427969D01*
X93715Y427988D01*
X93637Y428053D01*
X93563Y428122D01*
X93543Y428131D01*
X93526Y428145D01*
X93431Y428181D01*
X93339Y428223D01*
X93317Y428225D01*
X93296Y428233D01*
X93195Y428238D01*
X93094Y428248D01*
X93073Y428243D01*
X93051Y428244D01*
X92953Y428215D01*
X92855Y428193D01*
X92836Y428181D01*
X92814Y428175D01*
X92731Y428117D01*
X92645Y428065D01*
X92630Y428048D01*
X92612Y428035D01*
X92552Y427954D01*
X92487Y427876D01*
X92476Y427851D01*
X92465Y427838D01*
X92455Y427806D01*
X92418Y427723D01*
X91864Y426019D01*
X91011Y424345D01*
X89906Y422824D01*
X88578Y421496D01*
X87057Y420391D01*
X85383Y419538D01*
X83596Y418957D01*
X82323Y418756D01*
X82323Y439238D01*
X82320Y439258D01*
X82322Y439277D01*
X82300Y439379D01*
X82283Y439481D01*
X82274Y439498D01*
X82270Y439518D01*
X82217Y439607D01*
X82168Y439698D01*
X82154Y439712D01*
X82144Y439729D01*
X82065Y439796D01*
X81990Y439867D01*
X81972Y439876D01*
X81957Y439889D01*
X81861Y439927D01*
X81767Y439971D01*
X81747Y439973D01*
X81729Y439981D01*
X81562Y439999D01*
X80038Y439999D01*
X80018Y439996D01*
X79999Y439998D01*
X79897Y439976D01*
X79795Y439959D01*
X79778Y439950D01*
X79758Y439946D01*
X79669Y439893D01*
X79578Y439844D01*
X79564Y439830D01*
X79547Y439820D01*
X79480Y439741D01*
X79409Y439666D01*
X79400Y439648D01*
X79387Y439633D01*
X79348Y439537D01*
X79305Y439443D01*
X79303Y439423D01*
X79295Y439405D01*
X79277Y439238D01*
X79277Y418756D01*
X78004Y418957D01*
X76217Y419538D01*
X74543Y420391D01*
X73022Y421496D01*
X71694Y422824D01*
X70589Y424345D01*
X69736Y426019D01*
X69182Y427723D01*
X69136Y427813D01*
X69095Y427906D01*
X69080Y427922D01*
X69069Y427942D01*
X68997Y428012D01*
X68928Y428087D01*
X68909Y428098D01*
X68893Y428113D01*
X68802Y428157D01*
X68713Y428205D01*
X68691Y428209D01*
X68671Y428219D01*
X68570Y428231D01*
X68471Y428249D01*
X68449Y428246D01*
X68427Y428249D01*
X68328Y428228D01*
X68227Y428213D01*
X68208Y428203D01*
X68186Y428199D01*
X68099Y428148D01*
X68008Y428102D01*
X67993Y428086D01*
X67973Y428075D01*
X67907Y427999D01*
X67836Y427926D01*
X67823Y427902D01*
X67812Y427890D01*
X67799Y427859D01*
X67755Y427779D01*
X65993Y423524D01*
X62478Y420009D01*
X57885Y418107D01*
X52915Y418107D01*
X48322Y420009D01*
X44807Y423524D01*
X43403Y426914D01*
X43365Y426975D01*
X43336Y427041D01*
X43301Y427079D01*
X43274Y427123D01*
X43218Y427169D01*
X43170Y427222D01*
X43124Y427247D01*
X43084Y427280D01*
X43017Y427306D01*
X42954Y427340D01*
X42903Y427350D01*
X42855Y427368D01*
X42783Y427371D01*
X42712Y427384D01*
X42661Y427377D01*
X42609Y427379D01*
X42540Y427359D01*
X42469Y427348D01*
X42423Y427325D01*
X42373Y427310D01*
X42314Y427269D01*
X42250Y427237D01*
X42213Y427200D01*
X42171Y427170D01*
X42128Y427112D01*
X42078Y427061D01*
X42043Y426998D01*
X42024Y426973D01*
X42017Y426950D01*
X41997Y426914D01*
X40593Y423524D01*
X37078Y420009D01*
X32485Y418107D01*
X27515Y418107D01*
X22922Y420009D01*
X19407Y423524D01*
X17505Y428117D01*
X17505Y451883D01*
X19407Y456476D01*
X22922Y459991D01*
X27515Y461893D01*
X32485Y461893D01*
X37078Y459991D01*
X40593Y456476D01*
X41997Y453086D01*
X42035Y453025D01*
X42064Y452959D01*
X42099Y452921D01*
X42126Y452877D01*
X42182Y452831D01*
X42230Y452778D01*
X42276Y452753D01*
X42316Y452720D01*
X42383Y452694D01*
X42446Y452660D01*
X42497Y452650D01*
X42545Y452632D01*
X42617Y452629D01*
X42688Y452616D01*
X42739Y452623D01*
X42791Y452621D01*
X42860Y452641D01*
X42931Y452652D01*
X42977Y452675D01*
X43027Y452690D01*
X43086Y452731D01*
X43150Y452763D01*
X43187Y452800D01*
X43229Y452830D01*
X43272Y452888D01*
X43322Y452939D01*
X43357Y453002D01*
X43376Y453027D01*
X43383Y453050D01*
X43403Y453086D01*
X44807Y456476D01*
X48322Y459991D01*
X52915Y461893D01*
X57885Y461893D01*
X62478Y459991D01*
X65993Y456476D01*
X67755Y452221D01*
X67808Y452134D01*
X67857Y452046D01*
X67873Y452031D01*
X67885Y452012D01*
X67963Y451947D01*
X68037Y451878D01*
X68057Y451869D01*
X68074Y451855D01*
X68169Y451819D01*
X68261Y451777D01*
X68283Y451775D01*
X68304Y451767D01*
X68405Y451762D01*
X68506Y451752D01*
X68527Y451757D01*
X68549Y451756D01*
X68647Y451784D01*
X68745Y451807D01*
X68764Y451819D01*
X68786Y451825D01*
X68869Y451882D01*
X68955Y451935D01*
X68969Y451952D01*
X68988Y451965D01*
X69048Y452046D01*
X69113Y452124D01*
X69124Y452149D01*
X69134Y452162D01*
X69145Y452194D01*
X69182Y452277D01*
X69736Y453981D01*
X70589Y455655D01*
X71694Y457176D01*
X73022Y458504D01*
X74543Y459609D01*
X76217Y460462D01*
X78004Y461043D01*
X79277Y461244D01*
X79277Y440762D01*
X79280Y440742D01*
X79278Y440723D01*
X79300Y440621D01*
X79317Y440519D01*
X79326Y440502D01*
X79330Y440482D01*
X79383Y440393D01*
X79432Y440302D01*
X79446Y440288D01*
X79456Y440271D01*
X79535Y440204D01*
X79610Y440133D01*
X79628Y440124D01*
X79643Y440111D01*
X79739Y440073D01*
X79833Y440029D01*
X79853Y440027D01*
X79871Y440019D01*
X80038Y440001D01*
X81562Y440001D01*
X81582Y440004D01*
X81601Y440002D01*
X81703Y440024D01*
X81805Y440041D01*
X81822Y440050D01*
X81842Y440054D01*
X81931Y440107D01*
X82022Y440156D01*
X82036Y440170D01*
X82053Y440180D01*
X82120Y440259D01*
X82191Y440334D01*
X82200Y440352D01*
X82213Y440367D01*
X82252Y440463D01*
X82295Y440557D01*
X82297Y440577D01*
X82305Y440595D01*
X82323Y440762D01*
X82323Y461244D01*
X83596Y461043D01*
X85383Y460462D01*
X87057Y459609D01*
X88578Y458504D01*
X89906Y457176D01*
X91011Y455655D01*
X91864Y453981D01*
X92418Y452277D01*
X92464Y452187D01*
X92505Y452094D01*
X92520Y452078D01*
X92531Y452058D01*
X92603Y451988D01*
X92672Y451913D01*
X92691Y451902D01*
X92707Y451887D01*
X92798Y451843D01*
X92887Y451795D01*
X92909Y451791D01*
X92929Y451781D01*
X93030Y451769D01*
X93129Y451751D01*
X93151Y451754D01*
X93173Y451751D01*
X93272Y451772D01*
X93373Y451787D01*
X93392Y451797D01*
X93414Y451801D01*
X93502Y451852D01*
X93592Y451898D01*
X93607Y451914D01*
X93627Y451925D01*
X93693Y452001D01*
X93764Y452074D01*
X93777Y452098D01*
X93788Y452110D01*
X93801Y452141D01*
X93845Y452221D01*
X95607Y456476D01*
X99122Y459991D01*
X103715Y461893D01*
X108685Y461893D01*
X113278Y459991D01*
X116793Y456476D01*
X118197Y453086D01*
X118235Y453025D01*
X118264Y452959D01*
X118299Y452921D01*
X118326Y452877D01*
X118382Y452831D01*
X118430Y452778D01*
X118476Y452753D01*
X118516Y452720D01*
X118583Y452694D01*
X118646Y452660D01*
X118697Y452650D01*
X118745Y452632D01*
X118817Y452629D01*
X118888Y452616D01*
X118939Y452623D01*
X118991Y452621D01*
X119060Y452641D01*
X119131Y452652D01*
X119177Y452675D01*
X119227Y452690D01*
X119286Y452731D01*
X119350Y452763D01*
X119387Y452800D01*
X119429Y452830D01*
X119472Y452888D01*
X119522Y452939D01*
X119557Y453002D01*
X119576Y453027D01*
X119583Y453050D01*
X119603Y453086D01*
X121007Y456476D01*
X124522Y459991D01*
X129115Y461893D01*
X134085Y461893D01*
X138678Y459991D01*
X142193Y456476D01*
X144095Y451883D01*
X144095Y428117D01*
X142193Y423524D01*
X138678Y420009D01*
X134085Y418107D01*
X129115Y418107D01*
X124522Y420009D01*
X121007Y423524D01*
X119603Y426914D01*
X119565Y426975D01*
X119536Y427041D01*
X119501Y427079D01*
X119474Y427123D01*
X119418Y427169D01*
X119370Y427222D01*
X119324Y427247D01*
X119284Y427280D01*
X119217Y427306D01*
X119154Y427340D01*
X119103Y427350D01*
X119055Y427368D01*
X118983Y427371D01*
X118912Y427384D01*
X118861Y427377D01*
X118809Y427379D01*
X118740Y427359D01*
X118669Y427348D01*
X118623Y427325D01*
X118573Y427310D01*
X118514Y427269D01*
X118450Y427237D01*
X118413Y427200D01*
X118371Y427170D01*
X118328Y427112D01*
X118278Y427061D01*
X118243Y426998D01*
X118224Y426973D01*
X118217Y426950D01*
X118197Y426914D01*
X116793Y423524D01*
X113278Y420009D01*
X108685Y418107D01*
X103715Y418107D01*
X102972Y418415D01*
X102859Y418441D01*
X102745Y418470D01*
X102739Y418469D01*
X102733Y418471D01*
X102616Y418460D01*
X102500Y418451D01*
X102494Y418448D01*
X102488Y418448D01*
X102380Y418400D01*
X102274Y418355D01*
X102268Y418350D01*
X102263Y418348D01*
X102250Y418335D01*
X102143Y418250D01*
X67290Y383397D01*
X67222Y383302D01*
X67152Y383208D01*
X67150Y383202D01*
X67146Y383197D01*
X67112Y383086D01*
X67076Y382974D01*
X67076Y382968D01*
X67074Y382962D01*
X67077Y382845D01*
X67078Y382728D01*
X67080Y382721D01*
X67080Y382716D01*
X67087Y382699D01*
X67125Y382567D01*
X67839Y380844D01*
X67839Y378108D01*
X66791Y375579D01*
X64857Y373645D01*
X62328Y372597D01*
X59592Y372597D01*
G37*
%LPD*%
%LPC*%
G36*
X32768Y786154D02*
X32768Y786154D01*
X28035Y788114D01*
X24413Y791736D01*
X22453Y796469D01*
X22453Y801591D01*
X24413Y806324D01*
X28035Y809946D01*
X30646Y811027D01*
X30707Y811065D01*
X30772Y811094D01*
X30810Y811129D01*
X30855Y811156D01*
X30900Y811212D01*
X30953Y811260D01*
X30978Y811306D01*
X31012Y811346D01*
X31037Y811413D01*
X31072Y811476D01*
X31081Y811527D01*
X31100Y811575D01*
X31103Y811647D01*
X31116Y811718D01*
X31108Y811769D01*
X31110Y811821D01*
X31090Y811890D01*
X31080Y811961D01*
X31056Y812007D01*
X31042Y812057D01*
X31001Y812116D01*
X30968Y812180D01*
X30931Y812217D01*
X30901Y812259D01*
X30844Y812302D01*
X30793Y812352D01*
X30730Y812387D01*
X30704Y812406D01*
X30682Y812413D01*
X30646Y812433D01*
X28035Y813514D01*
X24413Y817136D01*
X22453Y821869D01*
X22453Y826991D01*
X24413Y831724D01*
X28035Y835346D01*
X30646Y836427D01*
X30707Y836465D01*
X30772Y836494D01*
X30810Y836529D01*
X30855Y836556D01*
X30900Y836612D01*
X30953Y836660D01*
X30978Y836706D01*
X31012Y836746D01*
X31037Y836813D01*
X31072Y836876D01*
X31081Y836927D01*
X31100Y836975D01*
X31103Y837047D01*
X31116Y837118D01*
X31108Y837169D01*
X31110Y837221D01*
X31090Y837290D01*
X31080Y837361D01*
X31056Y837407D01*
X31042Y837457D01*
X31001Y837516D01*
X30968Y837580D01*
X30931Y837617D01*
X30901Y837659D01*
X30844Y837702D01*
X30793Y837752D01*
X30730Y837787D01*
X30704Y837806D01*
X30682Y837813D01*
X30646Y837833D01*
X28035Y838914D01*
X24413Y842536D01*
X22453Y847269D01*
X22453Y852391D01*
X24413Y857124D01*
X28035Y860746D01*
X32768Y862706D01*
X57448Y862706D01*
X62181Y860746D01*
X65803Y857124D01*
X67763Y852391D01*
X67763Y847269D01*
X65803Y842536D01*
X62181Y838914D01*
X59570Y837833D01*
X59509Y837795D01*
X59444Y837766D01*
X59406Y837731D01*
X59361Y837704D01*
X59316Y837648D01*
X59263Y837600D01*
X59238Y837554D01*
X59204Y837514D01*
X59179Y837447D01*
X59144Y837384D01*
X59135Y837333D01*
X59116Y837285D01*
X59113Y837213D01*
X59100Y837142D01*
X59108Y837091D01*
X59106Y837039D01*
X59126Y836970D01*
X59136Y836899D01*
X59160Y836853D01*
X59174Y836803D01*
X59215Y836744D01*
X59248Y836680D01*
X59285Y836643D01*
X59315Y836601D01*
X59372Y836558D01*
X59423Y836508D01*
X59486Y836473D01*
X59512Y836454D01*
X59534Y836447D01*
X59570Y836427D01*
X62181Y835346D01*
X65803Y831724D01*
X67763Y826991D01*
X67763Y821869D01*
X65803Y817136D01*
X62181Y813514D01*
X59570Y812433D01*
X59509Y812395D01*
X59444Y812366D01*
X59406Y812331D01*
X59361Y812304D01*
X59316Y812248D01*
X59263Y812200D01*
X59238Y812154D01*
X59204Y812114D01*
X59179Y812047D01*
X59144Y811984D01*
X59135Y811933D01*
X59116Y811885D01*
X59113Y811813D01*
X59100Y811742D01*
X59108Y811691D01*
X59106Y811639D01*
X59126Y811570D01*
X59136Y811499D01*
X59160Y811453D01*
X59174Y811403D01*
X59215Y811344D01*
X59248Y811280D01*
X59285Y811243D01*
X59315Y811201D01*
X59372Y811158D01*
X59423Y811108D01*
X59486Y811073D01*
X59512Y811054D01*
X59534Y811047D01*
X59570Y811027D01*
X62181Y809946D01*
X65803Y806324D01*
X67763Y801591D01*
X67763Y796469D01*
X65803Y791736D01*
X62181Y788114D01*
X57448Y786154D01*
X32768Y786154D01*
G37*
%LPD*%
%LPC*%
G36*
X232547Y707457D02*
X232547Y707457D01*
X227814Y709417D01*
X224192Y713039D01*
X222232Y717772D01*
X222232Y742452D01*
X224192Y747185D01*
X227814Y750807D01*
X232547Y752767D01*
X237669Y752767D01*
X242402Y750807D01*
X246024Y747185D01*
X247105Y744574D01*
X247143Y744513D01*
X247172Y744448D01*
X247207Y744410D01*
X247234Y744365D01*
X247290Y744320D01*
X247338Y744267D01*
X247384Y744242D01*
X247424Y744208D01*
X247491Y744183D01*
X247554Y744148D01*
X247605Y744139D01*
X247653Y744120D01*
X247725Y744117D01*
X247796Y744104D01*
X247847Y744112D01*
X247899Y744110D01*
X247968Y744130D01*
X248039Y744140D01*
X248085Y744164D01*
X248135Y744178D01*
X248194Y744219D01*
X248258Y744252D01*
X248295Y744289D01*
X248337Y744319D01*
X248380Y744376D01*
X248430Y744427D01*
X248465Y744490D01*
X248484Y744516D01*
X248491Y744538D01*
X248511Y744574D01*
X249592Y747185D01*
X253214Y750807D01*
X257947Y752767D01*
X263069Y752767D01*
X267802Y750807D01*
X271424Y747185D01*
X272505Y744574D01*
X272543Y744513D01*
X272572Y744448D01*
X272607Y744410D01*
X272634Y744365D01*
X272690Y744320D01*
X272738Y744267D01*
X272784Y744242D01*
X272824Y744208D01*
X272891Y744183D01*
X272954Y744148D01*
X273005Y744139D01*
X273053Y744120D01*
X273125Y744117D01*
X273196Y744104D01*
X273247Y744112D01*
X273299Y744110D01*
X273368Y744130D01*
X273439Y744140D01*
X273485Y744164D01*
X273535Y744178D01*
X273594Y744219D01*
X273658Y744252D01*
X273695Y744289D01*
X273737Y744319D01*
X273780Y744376D01*
X273830Y744427D01*
X273865Y744490D01*
X273884Y744516D01*
X273891Y744538D01*
X273911Y744574D01*
X274992Y747185D01*
X278614Y750807D01*
X283347Y752767D01*
X288469Y752767D01*
X293202Y750807D01*
X296824Y747185D01*
X298784Y742452D01*
X298784Y717772D01*
X296824Y713039D01*
X293202Y709417D01*
X288469Y707457D01*
X283347Y707457D01*
X278614Y709417D01*
X274992Y713039D01*
X273911Y715650D01*
X273873Y715711D01*
X273844Y715776D01*
X273809Y715814D01*
X273782Y715859D01*
X273726Y715904D01*
X273678Y715957D01*
X273632Y715982D01*
X273592Y716016D01*
X273525Y716041D01*
X273462Y716076D01*
X273411Y716085D01*
X273363Y716104D01*
X273291Y716107D01*
X273220Y716120D01*
X273169Y716112D01*
X273117Y716114D01*
X273048Y716094D01*
X272977Y716084D01*
X272931Y716060D01*
X272881Y716046D01*
X272822Y716005D01*
X272758Y715972D01*
X272721Y715935D01*
X272679Y715905D01*
X272636Y715848D01*
X272586Y715797D01*
X272551Y715734D01*
X272532Y715708D01*
X272525Y715686D01*
X272505Y715650D01*
X271424Y713039D01*
X267802Y709417D01*
X263069Y707457D01*
X257947Y707457D01*
X253214Y709417D01*
X249592Y713039D01*
X248511Y715650D01*
X248473Y715711D01*
X248444Y715776D01*
X248409Y715814D01*
X248382Y715859D01*
X248326Y715904D01*
X248278Y715957D01*
X248232Y715982D01*
X248192Y716016D01*
X248125Y716041D01*
X248062Y716076D01*
X248011Y716085D01*
X247963Y716104D01*
X247891Y716107D01*
X247820Y716120D01*
X247769Y716112D01*
X247717Y716114D01*
X247648Y716094D01*
X247577Y716084D01*
X247531Y716060D01*
X247481Y716046D01*
X247422Y716005D01*
X247358Y715972D01*
X247321Y715935D01*
X247279Y715905D01*
X247236Y715848D01*
X247186Y715797D01*
X247151Y715734D01*
X247132Y715708D01*
X247125Y715686D01*
X247105Y715650D01*
X246024Y713039D01*
X242402Y709417D01*
X237669Y707457D01*
X232547Y707457D01*
G37*
%LPD*%
%LPC*%
G36*
X769039Y506958D02*
X769039Y506958D01*
X764651Y508776D01*
X761292Y512134D01*
X759475Y516522D01*
X759475Y521272D01*
X759526Y521395D01*
X759552Y521508D01*
X759581Y521622D01*
X759581Y521628D01*
X759582Y521634D01*
X759571Y521751D01*
X759562Y521867D01*
X759559Y521873D01*
X759559Y521879D01*
X759511Y521987D01*
X759466Y522093D01*
X759461Y522099D01*
X759459Y522104D01*
X759446Y522118D01*
X759361Y522224D01*
X745615Y535970D01*
X745541Y536023D01*
X745472Y536083D01*
X745441Y536095D01*
X745415Y536114D01*
X745328Y536141D01*
X745243Y536175D01*
X745202Y536179D01*
X745180Y536186D01*
X745148Y536185D01*
X745077Y536193D01*
X716436Y536193D01*
X712894Y539735D01*
X712878Y539747D01*
X712865Y539762D01*
X712778Y539819D01*
X712694Y539879D01*
X712675Y539885D01*
X712658Y539895D01*
X712558Y539921D01*
X712459Y539951D01*
X712439Y539951D01*
X712420Y539956D01*
X712317Y539948D01*
X712213Y539945D01*
X712194Y539938D01*
X712175Y539936D01*
X712080Y539896D01*
X711982Y539860D01*
X711967Y539848D01*
X711948Y539840D01*
X711817Y539735D01*
X710484Y538402D01*
X707146Y537019D01*
X690454Y537019D01*
X687116Y538402D01*
X684562Y540956D01*
X683179Y544294D01*
X683179Y547906D01*
X684562Y551244D01*
X687116Y553798D01*
X690454Y555181D01*
X707146Y555181D01*
X710484Y553798D01*
X713038Y551244D01*
X714421Y547906D01*
X714421Y547865D01*
X714435Y547775D01*
X714443Y547684D01*
X714455Y547655D01*
X714460Y547623D01*
X714503Y547542D01*
X714539Y547458D01*
X714565Y547426D01*
X714576Y547405D01*
X714599Y547383D01*
X714644Y547327D01*
X718949Y543022D01*
X719023Y542969D01*
X719092Y542909D01*
X719123Y542897D01*
X719149Y542878D01*
X719236Y542851D01*
X719321Y542817D01*
X719362Y542813D01*
X719384Y542806D01*
X719416Y542807D01*
X719487Y542799D01*
X748128Y542799D01*
X750286Y540641D01*
X762741Y528185D01*
X762758Y528174D01*
X762770Y528158D01*
X762857Y528102D01*
X762941Y528042D01*
X762960Y528036D01*
X762977Y528025D01*
X763078Y528000D01*
X763176Y527969D01*
X763196Y527970D01*
X763216Y527965D01*
X763319Y527973D01*
X763422Y527976D01*
X763441Y527983D01*
X763461Y527984D01*
X763556Y528025D01*
X763653Y528060D01*
X763669Y528073D01*
X763687Y528080D01*
X763818Y528185D01*
X764651Y529018D01*
X769039Y530835D01*
X792584Y530835D01*
X796972Y529018D01*
X799273Y526718D01*
X799352Y526661D01*
X799427Y526599D01*
X799451Y526589D01*
X799472Y526574D01*
X799565Y526545D01*
X799656Y526511D01*
X799682Y526509D01*
X799707Y526502D01*
X799805Y526504D01*
X799902Y526500D01*
X799927Y526507D01*
X799953Y526508D01*
X800045Y526542D01*
X800138Y526569D01*
X800160Y526584D01*
X800184Y526593D01*
X800260Y526653D01*
X800340Y526709D01*
X800356Y526730D01*
X800376Y526746D01*
X800429Y526828D01*
X800487Y526906D01*
X800495Y526931D01*
X800509Y526953D01*
X800533Y527048D01*
X800563Y527140D01*
X800563Y527166D01*
X800569Y527192D01*
X800562Y527289D01*
X800561Y527386D01*
X800552Y527418D01*
X800550Y527437D01*
X800537Y527467D01*
X800514Y527547D01*
X799873Y529094D01*
X799873Y531689D01*
X799859Y531779D01*
X799851Y531870D01*
X799839Y531899D01*
X799834Y531931D01*
X799791Y532012D01*
X799755Y532096D01*
X799729Y532128D01*
X799718Y532149D01*
X799695Y532171D01*
X799650Y532227D01*
X797848Y534030D01*
X797753Y534097D01*
X797659Y534168D01*
X797653Y534169D01*
X797648Y534173D01*
X797537Y534207D01*
X797425Y534244D01*
X797419Y534244D01*
X797413Y534245D01*
X797296Y534242D01*
X797179Y534241D01*
X797172Y534239D01*
X797167Y534239D01*
X797150Y534233D01*
X797018Y534195D01*
X792584Y532358D01*
X769039Y532358D01*
X764651Y534176D01*
X761292Y537534D01*
X759475Y541922D01*
X759475Y546672D01*
X761292Y551060D01*
X764651Y554418D01*
X769039Y556235D01*
X792584Y556235D01*
X796972Y554418D01*
X800331Y551060D01*
X802148Y546672D01*
X802148Y541922D01*
X801508Y540376D01*
X801481Y540262D01*
X801452Y540149D01*
X801453Y540142D01*
X801452Y540136D01*
X801463Y540020D01*
X801472Y539903D01*
X801474Y539898D01*
X801475Y539891D01*
X801522Y539784D01*
X801568Y539677D01*
X801573Y539671D01*
X801575Y539667D01*
X801587Y539653D01*
X801673Y539546D01*
X804321Y536898D01*
X804395Y536845D01*
X804464Y536785D01*
X804495Y536773D01*
X804521Y536754D01*
X804608Y536727D01*
X804693Y536693D01*
X804734Y536689D01*
X804756Y536682D01*
X804788Y536683D01*
X804859Y536675D01*
X807454Y536675D01*
X809778Y535712D01*
X811556Y533934D01*
X812519Y531610D01*
X812519Y529094D01*
X811556Y526770D01*
X809778Y524992D01*
X807454Y524029D01*
X804938Y524029D01*
X802614Y524992D01*
X801894Y525712D01*
X801815Y525769D01*
X801740Y525831D01*
X801715Y525841D01*
X801694Y525856D01*
X801601Y525885D01*
X801510Y525919D01*
X801484Y525921D01*
X801459Y525928D01*
X801362Y525926D01*
X801265Y525930D01*
X801239Y525923D01*
X801213Y525922D01*
X801122Y525888D01*
X801028Y525861D01*
X801007Y525846D01*
X800982Y525837D01*
X800906Y525777D01*
X800826Y525721D01*
X800811Y525700D01*
X800790Y525684D01*
X800738Y525602D01*
X800679Y525524D01*
X800671Y525499D01*
X800657Y525477D01*
X800633Y525382D01*
X800603Y525290D01*
X800604Y525264D01*
X800597Y525238D01*
X800605Y525141D01*
X800606Y525044D01*
X800615Y525013D01*
X800616Y524993D01*
X800629Y524963D01*
X800652Y524883D01*
X802148Y521272D01*
X802148Y516522D01*
X800331Y512134D01*
X796972Y508776D01*
X792584Y506958D01*
X769039Y506958D01*
G37*
%LPD*%
%LPC*%
G36*
X224319Y767505D02*
X224319Y767505D01*
X222505Y769319D01*
X222505Y790681D01*
X224319Y792495D01*
X245681Y792495D01*
X246962Y791214D01*
X246978Y791202D01*
X246990Y791187D01*
X247078Y791130D01*
X247161Y791070D01*
X247180Y791064D01*
X247197Y791054D01*
X247298Y791028D01*
X247397Y790998D01*
X247416Y790998D01*
X247436Y790993D01*
X247539Y791002D01*
X247642Y791004D01*
X247661Y791011D01*
X247681Y791013D01*
X247776Y791053D01*
X247873Y791089D01*
X247889Y791101D01*
X247907Y791109D01*
X248038Y791214D01*
X249319Y792495D01*
X270681Y792495D01*
X271962Y791214D01*
X271978Y791202D01*
X271990Y791187D01*
X272078Y791130D01*
X272161Y791070D01*
X272180Y791064D01*
X272197Y791054D01*
X272298Y791028D01*
X272397Y790998D01*
X272416Y790998D01*
X272436Y790993D01*
X272539Y791002D01*
X272642Y791004D01*
X272661Y791011D01*
X272681Y791013D01*
X272776Y791053D01*
X272873Y791089D01*
X272889Y791101D01*
X272907Y791109D01*
X273038Y791214D01*
X274319Y792495D01*
X295681Y792495D01*
X297495Y790681D01*
X297495Y769319D01*
X295681Y767505D01*
X274319Y767505D01*
X273038Y768786D01*
X273022Y768798D01*
X273010Y768813D01*
X272922Y768870D01*
X272839Y768930D01*
X272820Y768936D01*
X272803Y768946D01*
X272702Y768972D01*
X272603Y769002D01*
X272584Y769002D01*
X272564Y769007D01*
X272461Y768998D01*
X272358Y768996D01*
X272339Y768989D01*
X272319Y768987D01*
X272224Y768947D01*
X272127Y768911D01*
X272111Y768899D01*
X272093Y768891D01*
X271962Y768786D01*
X270681Y767505D01*
X249319Y767505D01*
X248038Y768786D01*
X248022Y768798D01*
X248010Y768813D01*
X247922Y768870D01*
X247839Y768930D01*
X247820Y768936D01*
X247803Y768946D01*
X247702Y768972D01*
X247603Y769002D01*
X247584Y769002D01*
X247564Y769007D01*
X247461Y768998D01*
X247358Y768996D01*
X247339Y768989D01*
X247319Y768987D01*
X247224Y768947D01*
X247127Y768911D01*
X247111Y768899D01*
X247093Y768891D01*
X246962Y768786D01*
X245681Y767505D01*
X224319Y767505D01*
G37*
%LPD*%
%LPC*%
G36*
X74319Y647505D02*
X74319Y647505D01*
X72505Y649319D01*
X72505Y670681D01*
X74319Y672495D01*
X95681Y672495D01*
X96962Y671214D01*
X96978Y671202D01*
X96990Y671187D01*
X97078Y671130D01*
X97161Y671070D01*
X97180Y671064D01*
X97197Y671054D01*
X97298Y671028D01*
X97397Y670998D01*
X97416Y670998D01*
X97436Y670993D01*
X97539Y671002D01*
X97642Y671004D01*
X97661Y671011D01*
X97681Y671013D01*
X97776Y671053D01*
X97873Y671089D01*
X97889Y671101D01*
X97907Y671109D01*
X98038Y671214D01*
X99319Y672495D01*
X120681Y672495D01*
X121962Y671214D01*
X121978Y671202D01*
X121990Y671187D01*
X122078Y671130D01*
X122161Y671070D01*
X122180Y671064D01*
X122197Y671054D01*
X122298Y671028D01*
X122397Y670998D01*
X122416Y670998D01*
X122436Y670993D01*
X122539Y671002D01*
X122642Y671004D01*
X122661Y671011D01*
X122681Y671013D01*
X122776Y671053D01*
X122873Y671089D01*
X122889Y671101D01*
X122907Y671109D01*
X123038Y671214D01*
X124319Y672495D01*
X145681Y672495D01*
X147495Y670681D01*
X147495Y649319D01*
X145681Y647505D01*
X124319Y647505D01*
X123038Y648786D01*
X123022Y648798D01*
X123010Y648813D01*
X122922Y648870D01*
X122839Y648930D01*
X122820Y648936D01*
X122803Y648946D01*
X122702Y648972D01*
X122603Y649002D01*
X122584Y649002D01*
X122564Y649007D01*
X122461Y648998D01*
X122358Y648996D01*
X122339Y648989D01*
X122319Y648987D01*
X122224Y648947D01*
X122127Y648911D01*
X122111Y648899D01*
X122093Y648891D01*
X121962Y648786D01*
X120681Y647505D01*
X99319Y647505D01*
X98038Y648786D01*
X98022Y648798D01*
X98010Y648813D01*
X97922Y648870D01*
X97839Y648930D01*
X97820Y648936D01*
X97803Y648946D01*
X97702Y648972D01*
X97603Y649002D01*
X97584Y649002D01*
X97564Y649007D01*
X97461Y648998D01*
X97358Y648996D01*
X97339Y648989D01*
X97319Y648987D01*
X97224Y648947D01*
X97127Y648911D01*
X97111Y648899D01*
X97093Y648891D01*
X96962Y648786D01*
X95681Y647505D01*
X74319Y647505D01*
G37*
%LPD*%
%LPC*%
G36*
X811734Y712459D02*
X811734Y712459D01*
X801459Y722734D01*
X801459Y737266D01*
X811734Y747541D01*
X826266Y747541D01*
X836541Y737266D01*
X836541Y730461D01*
X836552Y730390D01*
X836554Y730318D01*
X836572Y730269D01*
X836580Y730218D01*
X836614Y730155D01*
X836639Y730087D01*
X836671Y730047D01*
X836696Y730001D01*
X836748Y729951D01*
X836792Y729895D01*
X836836Y729867D01*
X836874Y729831D01*
X836939Y729801D01*
X836999Y729762D01*
X837050Y729749D01*
X837097Y729728D01*
X837168Y729720D01*
X837238Y729702D01*
X837290Y729706D01*
X837341Y729700D01*
X837412Y729716D01*
X837483Y729721D01*
X837531Y729742D01*
X837582Y729753D01*
X837643Y729789D01*
X837709Y729818D01*
X837765Y729862D01*
X837793Y729879D01*
X837808Y729897D01*
X837840Y729922D01*
X839516Y731598D01*
X842854Y732981D01*
X859546Y732981D01*
X862884Y731598D01*
X865438Y729044D01*
X866821Y725706D01*
X866821Y722094D01*
X865438Y718756D01*
X862884Y716202D01*
X859546Y714819D01*
X842854Y714819D01*
X839516Y716202D01*
X836962Y718756D01*
X836109Y720814D01*
X836085Y720853D01*
X836069Y720896D01*
X836021Y720957D01*
X835980Y721023D01*
X835944Y721053D01*
X835916Y721088D01*
X835850Y721131D01*
X835790Y721180D01*
X835747Y721197D01*
X835709Y721221D01*
X835633Y721241D01*
X835560Y721268D01*
X835515Y721270D01*
X835470Y721282D01*
X835393Y721276D01*
X835315Y721279D01*
X835271Y721266D01*
X835225Y721262D01*
X835153Y721232D01*
X835079Y721210D01*
X835041Y721184D01*
X834999Y721166D01*
X834892Y721081D01*
X834876Y721070D01*
X834873Y721066D01*
X834868Y721061D01*
X826266Y712459D01*
X811734Y712459D01*
G37*
%LPD*%
%LPC*%
G36*
X661734Y832459D02*
X661734Y832459D01*
X651459Y842734D01*
X651459Y857266D01*
X661734Y867541D01*
X676266Y867541D01*
X685624Y858182D01*
X685640Y858171D01*
X685652Y858155D01*
X685739Y858099D01*
X685824Y858039D01*
X685843Y858033D01*
X685859Y858022D01*
X685960Y857997D01*
X686059Y857967D01*
X686079Y857967D01*
X686098Y857962D01*
X686201Y857970D01*
X686305Y857973D01*
X686323Y857980D01*
X686343Y857981D01*
X686438Y858022D01*
X686536Y858057D01*
X686551Y858070D01*
X686569Y858078D01*
X686700Y858182D01*
X687116Y858598D01*
X690454Y859981D01*
X707146Y859981D01*
X710484Y858598D01*
X713038Y856044D01*
X714421Y852706D01*
X714421Y849094D01*
X713038Y845756D01*
X710484Y843202D01*
X707146Y841819D01*
X690454Y841819D01*
X687510Y843039D01*
X687396Y843065D01*
X687283Y843094D01*
X687276Y843093D01*
X687270Y843095D01*
X687154Y843084D01*
X687037Y843075D01*
X687032Y843072D01*
X687025Y843072D01*
X686918Y843024D01*
X686811Y842979D01*
X686805Y842974D01*
X686801Y842972D01*
X686787Y842959D01*
X686680Y842874D01*
X676266Y832459D01*
X661734Y832459D01*
G37*
%LPD*%
%LPC*%
G36*
X589999Y454999D02*
X589999Y454999D01*
X589999Y455762D01*
X589996Y455782D01*
X589998Y455801D01*
X589976Y455903D01*
X589959Y456005D01*
X589950Y456022D01*
X589946Y456042D01*
X589893Y456131D01*
X589844Y456222D01*
X589830Y456236D01*
X589820Y456253D01*
X589741Y456320D01*
X589666Y456391D01*
X589648Y456400D01*
X589633Y456413D01*
X589537Y456452D01*
X589443Y456495D01*
X589423Y456497D01*
X589405Y456505D01*
X589238Y456523D01*
X578061Y456523D01*
X578061Y464732D01*
X578234Y465379D01*
X578569Y465958D01*
X579042Y466431D01*
X579538Y466718D01*
X579571Y466744D01*
X579592Y466755D01*
X579617Y466782D01*
X579630Y466793D01*
X579723Y466867D01*
X579725Y466871D01*
X579728Y466873D01*
X579791Y466973D01*
X579856Y467074D01*
X579857Y467078D01*
X579859Y467082D01*
X579887Y467197D01*
X579916Y467313D01*
X579916Y467317D01*
X579917Y467321D01*
X579906Y467440D01*
X579897Y467558D01*
X579895Y467562D01*
X579895Y467566D01*
X579847Y467675D01*
X579801Y467784D01*
X579797Y467788D01*
X579796Y467791D01*
X579787Y467801D01*
X579696Y467915D01*
X578061Y469550D01*
X578061Y490450D01*
X579573Y491962D01*
X579584Y491978D01*
X579600Y491990D01*
X579630Y492037D01*
X579647Y492055D01*
X579660Y492084D01*
X579716Y492161D01*
X579722Y492180D01*
X579733Y492197D01*
X579758Y492298D01*
X579788Y492397D01*
X579788Y492416D01*
X579793Y492436D01*
X579785Y492539D01*
X579782Y492642D01*
X579775Y492661D01*
X579774Y492681D01*
X579733Y492776D01*
X579698Y492873D01*
X579685Y492889D01*
X579677Y492907D01*
X579573Y493038D01*
X578061Y494550D01*
X578061Y515450D01*
X579550Y516939D01*
X600450Y516939D01*
X601939Y515450D01*
X601939Y494550D01*
X600427Y493038D01*
X600416Y493022D01*
X600400Y493010D01*
X600344Y492922D01*
X600284Y492839D01*
X600278Y492820D01*
X600267Y492803D01*
X600242Y492702D01*
X600212Y492603D01*
X600212Y492584D01*
X600207Y492564D01*
X600215Y492461D01*
X600218Y492358D01*
X600225Y492339D01*
X600226Y492319D01*
X600267Y492224D01*
X600302Y492127D01*
X600315Y492111D01*
X600323Y492093D01*
X600394Y492003D01*
X600401Y491992D01*
X600408Y491986D01*
X600427Y491962D01*
X601939Y490450D01*
X601939Y469550D01*
X600304Y467915D01*
X600235Y467819D01*
X600164Y467723D01*
X600163Y467719D01*
X600161Y467715D01*
X600126Y467603D01*
X600089Y467488D01*
X600090Y467484D01*
X600088Y467480D01*
X600091Y467361D01*
X600093Y467242D01*
X600095Y467239D01*
X600095Y467234D01*
X600135Y467123D01*
X600175Y467011D01*
X600178Y467007D01*
X600179Y467003D01*
X600253Y466911D01*
X600327Y466817D01*
X600331Y466814D01*
X600333Y466811D01*
X600345Y466804D01*
X600462Y466718D01*
X600958Y466431D01*
X601431Y465958D01*
X601766Y465379D01*
X601939Y464732D01*
X601939Y456523D01*
X590762Y456523D01*
X590742Y456520D01*
X590723Y456522D01*
X590621Y456500D01*
X590519Y456483D01*
X590502Y456474D01*
X590482Y456470D01*
X590393Y456417D01*
X590302Y456368D01*
X590288Y456354D01*
X590271Y456344D01*
X590204Y456265D01*
X590133Y456190D01*
X590124Y456172D01*
X590111Y456157D01*
X590073Y456061D01*
X590029Y455967D01*
X590027Y455947D01*
X590019Y455929D01*
X590001Y455762D01*
X590001Y454999D01*
X589999Y454999D01*
G37*
%LPD*%
%LPC*%
G36*
X137316Y136377D02*
X137316Y136377D01*
X134787Y137425D01*
X132853Y139359D01*
X131805Y141888D01*
X131805Y144362D01*
X131791Y144452D01*
X131783Y144543D01*
X131771Y144573D01*
X131766Y144605D01*
X131723Y144686D01*
X131687Y144770D01*
X131661Y144802D01*
X131650Y144822D01*
X131627Y144845D01*
X131582Y144901D01*
X108405Y168078D01*
X108331Y168131D01*
X108262Y168190D01*
X108232Y168202D01*
X108206Y168221D01*
X108119Y168248D01*
X108034Y168282D01*
X107993Y168287D01*
X107971Y168294D01*
X107938Y168293D01*
X107867Y168301D01*
X92785Y168301D01*
X90971Y170115D01*
X90971Y186760D01*
X92785Y188574D01*
X109431Y188574D01*
X111245Y186760D01*
X111245Y176467D01*
X111260Y176377D01*
X111267Y176286D01*
X111279Y176257D01*
X111285Y176225D01*
X111327Y176144D01*
X111363Y176060D01*
X111389Y176028D01*
X111400Y176007D01*
X111423Y175985D01*
X111468Y175929D01*
X137039Y150358D01*
X137113Y150305D01*
X137183Y150245D01*
X137213Y150233D01*
X137239Y150214D01*
X137326Y150187D01*
X137411Y150153D01*
X137452Y150149D01*
X137474Y150142D01*
X137506Y150143D01*
X137578Y150135D01*
X140052Y150135D01*
X142581Y149087D01*
X144330Y147338D01*
X144404Y147285D01*
X144474Y147225D01*
X144504Y147213D01*
X144530Y147194D01*
X144617Y147167D01*
X144702Y147133D01*
X144743Y147129D01*
X144765Y147122D01*
X144797Y147123D01*
X144869Y147115D01*
X162678Y147115D01*
X162768Y147129D01*
X162859Y147137D01*
X162889Y147149D01*
X162921Y147154D01*
X163002Y147197D01*
X163086Y147233D01*
X163118Y147259D01*
X163138Y147270D01*
X163161Y147293D01*
X163217Y147338D01*
X183398Y167519D01*
X183451Y167593D01*
X183511Y167663D01*
X183523Y167693D01*
X183542Y167719D01*
X183569Y167806D01*
X183603Y167891D01*
X183607Y167932D01*
X183614Y167954D01*
X183613Y167986D01*
X183621Y168058D01*
X183621Y170532D01*
X184669Y173061D01*
X186603Y174995D01*
X189132Y176043D01*
X191868Y176043D01*
X194397Y174995D01*
X196331Y173061D01*
X197379Y170532D01*
X197379Y167796D01*
X196331Y165267D01*
X194397Y163333D01*
X191868Y162285D01*
X189394Y162285D01*
X189304Y162271D01*
X189213Y162263D01*
X189183Y162251D01*
X189151Y162246D01*
X189070Y162203D01*
X188986Y162167D01*
X188954Y162141D01*
X188934Y162130D01*
X188911Y162107D01*
X188855Y162062D01*
X166190Y139397D01*
X144869Y139397D01*
X144778Y139383D01*
X144688Y139375D01*
X144658Y139363D01*
X144626Y139358D01*
X144545Y139315D01*
X144461Y139279D01*
X144429Y139253D01*
X144408Y139242D01*
X144386Y139219D01*
X144330Y139174D01*
X142581Y137425D01*
X140052Y136377D01*
X137316Y136377D01*
G37*
%LPD*%
%LPC*%
G36*
X296504Y831903D02*
X296504Y831903D01*
X285903Y842504D01*
X285903Y857496D01*
X296504Y868097D01*
X311496Y868097D01*
X322097Y857496D01*
X322097Y842504D01*
X311496Y831903D01*
X296504Y831903D01*
G37*
%LPD*%
%LPC*%
G36*
X58504Y711903D02*
X58504Y711903D01*
X47903Y722504D01*
X47903Y737496D01*
X58504Y748097D01*
X73496Y748097D01*
X84097Y737496D01*
X84097Y722504D01*
X73496Y711903D01*
X58504Y711903D01*
G37*
%LPD*%
%LPC*%
G36*
X146504Y711903D02*
X146504Y711903D01*
X135903Y722504D01*
X135903Y737496D01*
X146504Y748097D01*
X161496Y748097D01*
X172097Y737496D01*
X172097Y722504D01*
X161496Y711903D01*
X146504Y711903D01*
G37*
%LPD*%
%LPC*%
G36*
X208504Y831903D02*
X208504Y831903D01*
X197903Y842504D01*
X197903Y857496D01*
X208504Y868097D01*
X223496Y868097D01*
X234097Y857496D01*
X234097Y842504D01*
X223496Y831903D01*
X208504Y831903D01*
G37*
%LPD*%
%LPC*%
G36*
X516986Y82822D02*
X516986Y82822D01*
X512393Y84724D01*
X508879Y88239D01*
X506976Y92832D01*
X506976Y97802D01*
X508879Y102395D01*
X512393Y105909D01*
X516879Y107768D01*
X516979Y107829D01*
X517079Y107889D01*
X517083Y107894D01*
X517088Y107897D01*
X517163Y107987D01*
X517239Y108076D01*
X517241Y108082D01*
X517245Y108087D01*
X517287Y108195D01*
X517331Y108304D01*
X517332Y108312D01*
X517333Y108316D01*
X517334Y108335D01*
X517349Y108471D01*
X517349Y109802D01*
X525431Y117884D01*
X525499Y117978D01*
X525569Y118073D01*
X525571Y118079D01*
X525575Y118084D01*
X525609Y118195D01*
X525645Y118307D01*
X525645Y118313D01*
X525647Y118319D01*
X525644Y118436D01*
X525643Y118553D01*
X525641Y118560D01*
X525641Y118565D01*
X525634Y118582D01*
X525596Y118714D01*
X524479Y121411D01*
X524479Y126382D01*
X526381Y130975D01*
X529896Y134489D01*
X534488Y136392D01*
X539459Y136392D01*
X544051Y134489D01*
X547566Y130975D01*
X549468Y126382D01*
X549468Y121411D01*
X547566Y116819D01*
X544051Y113304D01*
X539459Y111402D01*
X534488Y111402D01*
X531688Y112562D01*
X531574Y112589D01*
X531461Y112617D01*
X531454Y112617D01*
X531448Y112618D01*
X531332Y112607D01*
X531215Y112598D01*
X531210Y112596D01*
X531203Y112595D01*
X531096Y112547D01*
X530989Y112502D01*
X530983Y112497D01*
X530979Y112495D01*
X530965Y112482D01*
X530858Y112397D01*
X525814Y107353D01*
X525787Y107316D01*
X525754Y107285D01*
X525716Y107216D01*
X525671Y107153D01*
X525657Y107110D01*
X525635Y107069D01*
X525621Y106993D01*
X525598Y106918D01*
X525599Y106872D01*
X525591Y106827D01*
X525603Y106750D01*
X525605Y106672D01*
X525620Y106629D01*
X525627Y106584D01*
X525662Y106514D01*
X525689Y106441D01*
X525718Y106406D01*
X525739Y106365D01*
X525794Y106310D01*
X525843Y106249D01*
X525881Y106224D01*
X525914Y106192D01*
X526034Y106126D01*
X526050Y106116D01*
X526055Y106115D01*
X526061Y106111D01*
X526549Y105909D01*
X530064Y102395D01*
X531966Y97802D01*
X531966Y92832D01*
X530064Y88239D01*
X526549Y84724D01*
X521957Y82822D01*
X516986Y82822D01*
G37*
%LPD*%
%LPC*%
G36*
X211195Y206003D02*
X211195Y206003D01*
X206473Y207959D01*
X202859Y211573D01*
X200903Y216295D01*
X200903Y221405D01*
X202859Y226127D01*
X206473Y229741D01*
X211195Y231697D01*
X235805Y231697D01*
X240527Y229741D01*
X244141Y226127D01*
X246097Y221405D01*
X246097Y216295D01*
X244141Y211573D01*
X240527Y207959D01*
X235805Y206003D01*
X211195Y206003D01*
G37*
%LPD*%
%LPC*%
G36*
X652734Y506459D02*
X652734Y506459D01*
X642459Y516734D01*
X642459Y531266D01*
X652734Y541541D01*
X667266Y541541D01*
X677541Y531266D01*
X677541Y516734D01*
X667266Y506459D01*
X652734Y506459D01*
G37*
%LPD*%
%LPC*%
G36*
X217734Y506459D02*
X217734Y506459D01*
X207459Y516734D01*
X207459Y531266D01*
X217734Y541541D01*
X232266Y541541D01*
X242541Y531266D01*
X242541Y516734D01*
X232266Y506459D01*
X217734Y506459D01*
G37*
%LPD*%
%LPC*%
G36*
X391234Y642459D02*
X391234Y642459D01*
X380959Y652734D01*
X380959Y667266D01*
X391234Y677541D01*
X405766Y677541D01*
X416041Y667266D01*
X416041Y652734D01*
X405766Y642459D01*
X391234Y642459D01*
G37*
%LPD*%
%LPC*%
G36*
X479234Y642459D02*
X479234Y642459D01*
X468959Y652734D01*
X468959Y667266D01*
X479234Y677541D01*
X493766Y677541D01*
X504041Y667266D01*
X504041Y652734D01*
X493766Y642459D01*
X479234Y642459D01*
G37*
%LPD*%
%LPC*%
G36*
X573734Y832459D02*
X573734Y832459D01*
X563459Y842734D01*
X563459Y857266D01*
X573734Y867541D01*
X588266Y867541D01*
X598541Y857266D01*
X598541Y842734D01*
X588266Y832459D01*
X573734Y832459D01*
G37*
%LPD*%
%LPC*%
G36*
X217734Y418459D02*
X217734Y418459D01*
X207459Y428734D01*
X207459Y443266D01*
X217734Y453541D01*
X232266Y453541D01*
X242541Y443266D01*
X242541Y428734D01*
X232266Y418459D01*
X217734Y418459D01*
G37*
%LPD*%
%LPC*%
G36*
X652734Y418459D02*
X652734Y418459D01*
X642459Y428734D01*
X642459Y443266D01*
X652734Y453541D01*
X667266Y453541D01*
X677541Y443266D01*
X677541Y428734D01*
X667266Y418459D01*
X652734Y418459D01*
G37*
%LPD*%
%LPC*%
G36*
X433465Y271662D02*
X433465Y271662D01*
X429077Y273479D01*
X425718Y276838D01*
X423901Y281226D01*
X423901Y285975D01*
X425427Y289659D01*
X425437Y289704D01*
X425456Y289745D01*
X425465Y289823D01*
X425483Y289899D01*
X425479Y289944D01*
X425484Y289990D01*
X425467Y290066D01*
X425460Y290143D01*
X425441Y290185D01*
X425431Y290230D01*
X425391Y290297D01*
X425360Y290368D01*
X425329Y290402D01*
X425305Y290441D01*
X425246Y290492D01*
X425193Y290549D01*
X425153Y290571D01*
X425118Y290601D01*
X425046Y290630D01*
X424978Y290668D01*
X424933Y290676D01*
X424890Y290693D01*
X424754Y290708D01*
X424736Y290712D01*
X424731Y290711D01*
X424723Y290712D01*
X421457Y290712D01*
X421383Y290699D01*
X421307Y290697D01*
X421262Y290680D01*
X421215Y290672D01*
X421148Y290636D01*
X421077Y290610D01*
X421040Y290579D01*
X420997Y290557D01*
X420945Y290502D01*
X420887Y290454D01*
X420861Y290413D01*
X420828Y290378D01*
X420796Y290310D01*
X420756Y290246D01*
X420745Y290199D01*
X420724Y290155D01*
X420716Y290080D01*
X420698Y290007D01*
X420703Y289959D01*
X420697Y289911D01*
X420713Y289837D01*
X420720Y289762D01*
X420743Y289701D01*
X420750Y289671D01*
X420763Y289648D01*
X420779Y289605D01*
X421503Y288183D01*
X422084Y286396D01*
X422286Y285124D01*
X411963Y285124D01*
X411963Y295449D01*
X412050Y295450D01*
X412156Y295445D01*
X412173Y295451D01*
X412191Y295451D01*
X412291Y295485D01*
X412392Y295514D01*
X412407Y295524D01*
X412424Y295530D01*
X412507Y295594D01*
X412594Y295654D01*
X412605Y295669D01*
X412619Y295680D01*
X412678Y295767D01*
X412741Y295852D01*
X412746Y295869D01*
X412756Y295884D01*
X412784Y295985D01*
X412817Y296086D01*
X412817Y296104D01*
X412821Y296121D01*
X412815Y296226D01*
X412814Y296331D01*
X412808Y296353D01*
X412807Y296367D01*
X412796Y296396D01*
X412768Y296493D01*
X411201Y300276D01*
X411201Y305025D01*
X413018Y309413D01*
X416377Y312771D01*
X420765Y314589D01*
X425514Y314589D01*
X429902Y312771D01*
X433261Y309413D01*
X435078Y305025D01*
X435078Y300276D01*
X433552Y296592D01*
X433542Y296547D01*
X433522Y296505D01*
X433514Y296428D01*
X433496Y296352D01*
X433500Y296306D01*
X433495Y296261D01*
X433512Y296185D01*
X433519Y296107D01*
X433538Y296065D01*
X433548Y296021D01*
X433588Y295954D01*
X433619Y295883D01*
X433650Y295849D01*
X433674Y295809D01*
X433733Y295759D01*
X433786Y295701D01*
X433826Y295679D01*
X433861Y295649D01*
X433933Y295620D01*
X434001Y295583D01*
X434046Y295575D01*
X434089Y295558D01*
X434225Y295542D01*
X434243Y295539D01*
X434248Y295540D01*
X434256Y295539D01*
X438214Y295539D01*
X442602Y293721D01*
X445961Y290363D01*
X447778Y285975D01*
X447778Y281226D01*
X445961Y276838D01*
X442602Y273479D01*
X438214Y271662D01*
X433465Y271662D01*
G37*
%LPD*%
%LPC*%
G36*
X725690Y749581D02*
X725690Y749581D01*
X723366Y750544D01*
X721588Y752322D01*
X720625Y754646D01*
X720625Y757162D01*
X721588Y759486D01*
X723366Y761264D01*
X725690Y762227D01*
X725932Y762227D01*
X725952Y762230D01*
X725971Y762228D01*
X726073Y762250D01*
X726175Y762266D01*
X726192Y762276D01*
X726212Y762280D01*
X726301Y762333D01*
X726392Y762382D01*
X726406Y762396D01*
X726423Y762406D01*
X726490Y762485D01*
X726562Y762560D01*
X726570Y762578D01*
X726583Y762593D01*
X726622Y762689D01*
X726665Y762783D01*
X726667Y762803D01*
X726675Y762821D01*
X726693Y762988D01*
X726693Y781653D01*
X726679Y781743D01*
X726671Y781834D01*
X726659Y781863D01*
X726654Y781895D01*
X726611Y781976D01*
X726575Y782060D01*
X726549Y782092D01*
X726538Y782113D01*
X726515Y782135D01*
X726470Y782191D01*
X713910Y794751D01*
X713894Y794763D01*
X713881Y794778D01*
X713794Y794835D01*
X713710Y794895D01*
X713691Y794901D01*
X713674Y794911D01*
X713574Y794937D01*
X713475Y794967D01*
X713455Y794967D01*
X713436Y794972D01*
X713333Y794964D01*
X713229Y794961D01*
X713210Y794954D01*
X713191Y794952D01*
X713096Y794912D01*
X712998Y794876D01*
X712983Y794864D01*
X712964Y794856D01*
X712833Y794751D01*
X710484Y792402D01*
X707146Y791019D01*
X690454Y791019D01*
X687116Y792402D01*
X684562Y794956D01*
X683179Y798294D01*
X683179Y801906D01*
X684562Y805244D01*
X687116Y807798D01*
X690454Y809181D01*
X707146Y809181D01*
X710484Y807798D01*
X713038Y805244D01*
X713606Y803873D01*
X713668Y803773D01*
X713728Y803673D01*
X713733Y803669D01*
X713736Y803664D01*
X713825Y803589D01*
X713915Y803513D01*
X713921Y803511D01*
X713925Y803507D01*
X714033Y803465D01*
X714143Y803421D01*
X714150Y803420D01*
X714155Y803419D01*
X714173Y803418D01*
X714310Y803403D01*
X714600Y803403D01*
X716758Y801245D01*
X731141Y786862D01*
X733299Y784704D01*
X733299Y757431D01*
X733289Y757407D01*
X733285Y757366D01*
X733278Y757344D01*
X733279Y757312D01*
X733271Y757241D01*
X733271Y754646D01*
X732308Y752322D01*
X730530Y750544D01*
X728206Y749581D01*
X725690Y749581D01*
G37*
%LPD*%
%LPC*%
G36*
X578227Y358061D02*
X578227Y358061D01*
X573839Y359879D01*
X570481Y363237D01*
X568663Y367625D01*
X568663Y372375D01*
X570481Y376763D01*
X573839Y380121D01*
X578227Y381939D01*
X601773Y381939D01*
X606161Y380121D01*
X609519Y376763D01*
X611337Y372375D01*
X611337Y367625D01*
X609519Y363237D01*
X606161Y359879D01*
X601773Y358061D01*
X578227Y358061D01*
G37*
%LPD*%
%LPC*%
G36*
X769039Y481558D02*
X769039Y481558D01*
X764651Y483376D01*
X761292Y486734D01*
X759475Y491122D01*
X759475Y495872D01*
X761292Y500260D01*
X764651Y503618D01*
X769039Y505435D01*
X792584Y505435D01*
X796972Y503618D01*
X800331Y500260D01*
X802148Y495872D01*
X802148Y491122D01*
X800331Y486734D01*
X796972Y483376D01*
X792584Y481558D01*
X769039Y481558D01*
G37*
%LPD*%
%LPC*%
G36*
X578227Y383461D02*
X578227Y383461D01*
X573839Y385279D01*
X570481Y388637D01*
X568663Y393025D01*
X568663Y397775D01*
X570481Y402163D01*
X573839Y405521D01*
X578227Y407339D01*
X601773Y407339D01*
X606161Y405521D01*
X609519Y402163D01*
X611337Y397775D01*
X611337Y393025D01*
X609519Y388637D01*
X606161Y385279D01*
X601773Y383461D01*
X578227Y383461D01*
G37*
%LPD*%
%LPC*%
G36*
X638686Y70990D02*
X638686Y70990D01*
X636872Y72804D01*
X636872Y88869D01*
X638686Y90683D01*
X641673Y90683D01*
X641769Y90699D01*
X641866Y90708D01*
X641890Y90719D01*
X641916Y90723D01*
X642002Y90769D01*
X642091Y90808D01*
X642110Y90826D01*
X642133Y90838D01*
X642200Y90909D01*
X642272Y90975D01*
X642285Y90998D01*
X642303Y91017D01*
X642344Y91105D01*
X642391Y91190D01*
X642395Y91216D01*
X642406Y91240D01*
X642417Y91336D01*
X642434Y91432D01*
X642431Y91458D01*
X642433Y91484D01*
X642413Y91579D01*
X642399Y91676D01*
X642387Y91699D01*
X642381Y91724D01*
X642331Y91808D01*
X642287Y91895D01*
X642268Y91913D01*
X642255Y91936D01*
X642181Y91999D01*
X642111Y92067D01*
X642083Y92083D01*
X642068Y92095D01*
X642037Y92108D01*
X641964Y92148D01*
X641141Y92489D01*
X638371Y95259D01*
X636872Y98878D01*
X636872Y102795D01*
X638371Y106414D01*
X641141Y109184D01*
X644760Y110683D01*
X648677Y110683D01*
X652297Y109184D01*
X655066Y106414D01*
X656566Y102795D01*
X656566Y98878D01*
X655066Y95259D01*
X652297Y92489D01*
X651473Y92148D01*
X651390Y92096D01*
X651304Y92051D01*
X651286Y92032D01*
X651264Y92018D01*
X651202Y91943D01*
X651135Y91873D01*
X651124Y91849D01*
X651107Y91829D01*
X651072Y91738D01*
X651031Y91650D01*
X651028Y91624D01*
X651019Y91599D01*
X651015Y91502D01*
X651004Y91405D01*
X651010Y91380D01*
X651009Y91353D01*
X651036Y91260D01*
X651056Y91165D01*
X651070Y91142D01*
X651077Y91117D01*
X651133Y91037D01*
X651183Y90954D01*
X651203Y90937D01*
X651217Y90915D01*
X651296Y90857D01*
X651370Y90794D01*
X651394Y90784D01*
X651415Y90768D01*
X651507Y90738D01*
X651598Y90702D01*
X651630Y90698D01*
X651649Y90692D01*
X651682Y90692D01*
X651764Y90683D01*
X654752Y90683D01*
X656566Y88869D01*
X656566Y72804D01*
X654752Y70990D01*
X638686Y70990D01*
G37*
%LPD*%
%LPC*%
G36*
X69860Y580606D02*
X69860Y580606D01*
X66241Y582105D01*
X63471Y584875D01*
X61972Y588494D01*
X61972Y592411D01*
X63471Y596030D01*
X66241Y598800D01*
X67065Y599141D01*
X67148Y599193D01*
X67233Y599238D01*
X67251Y599257D01*
X67274Y599271D01*
X67336Y599346D01*
X67403Y599416D01*
X67414Y599440D01*
X67431Y599460D01*
X67465Y599551D01*
X67506Y599639D01*
X67509Y599665D01*
X67519Y599690D01*
X67523Y599787D01*
X67534Y599884D01*
X67528Y599909D01*
X67529Y599936D01*
X67502Y600029D01*
X67481Y600124D01*
X67468Y600147D01*
X67461Y600172D01*
X67405Y600252D01*
X67355Y600335D01*
X67335Y600352D01*
X67320Y600374D01*
X67242Y600432D01*
X67168Y600495D01*
X67144Y600505D01*
X67123Y600521D01*
X67030Y600551D01*
X66940Y600587D01*
X66908Y600591D01*
X66889Y600597D01*
X66856Y600597D01*
X66773Y600606D01*
X63786Y600606D01*
X61972Y602420D01*
X61972Y618485D01*
X63786Y620299D01*
X79852Y620299D01*
X81666Y618485D01*
X81666Y602420D01*
X79852Y600606D01*
X76865Y600606D01*
X76769Y600590D01*
X76672Y600581D01*
X76648Y600570D01*
X76622Y600566D01*
X76536Y600521D01*
X76447Y600481D01*
X76427Y600463D01*
X76404Y600451D01*
X76337Y600380D01*
X76266Y600314D01*
X76253Y600291D01*
X76235Y600272D01*
X76194Y600184D01*
X76147Y600099D01*
X76142Y600073D01*
X76131Y600049D01*
X76121Y599953D01*
X76103Y599857D01*
X76107Y599831D01*
X76104Y599805D01*
X76125Y599710D01*
X76139Y599613D01*
X76151Y599590D01*
X76157Y599565D01*
X76207Y599481D01*
X76251Y599394D01*
X76269Y599376D01*
X76283Y599353D01*
X76357Y599290D01*
X76426Y599222D01*
X76455Y599206D01*
X76470Y599194D01*
X76500Y599181D01*
X76573Y599141D01*
X77397Y598800D01*
X80167Y596030D01*
X81666Y592411D01*
X81666Y588494D01*
X80167Y584875D01*
X77397Y582105D01*
X73778Y580606D01*
X69860Y580606D01*
G37*
%LPD*%
%LPC*%
G36*
X482800Y85235D02*
X482800Y85235D01*
X479235Y86712D01*
X476506Y89441D01*
X475029Y93006D01*
X475029Y96865D01*
X476506Y100431D01*
X476617Y100542D01*
X476628Y100558D01*
X476644Y100570D01*
X476700Y100657D01*
X476760Y100741D01*
X476766Y100760D01*
X476777Y100777D01*
X476802Y100877D01*
X476833Y100976D01*
X476832Y100996D01*
X476837Y101016D01*
X476829Y101119D01*
X476826Y101222D01*
X476819Y101241D01*
X476818Y101261D01*
X476777Y101356D01*
X476742Y101453D01*
X476729Y101469D01*
X476722Y101487D01*
X476617Y101618D01*
X463445Y114790D01*
X460961Y117274D01*
X460961Y121831D01*
X460947Y121922D01*
X460939Y122012D01*
X460927Y122042D01*
X460922Y122074D01*
X460879Y122155D01*
X460843Y122239D01*
X460817Y122271D01*
X460806Y122292D01*
X460783Y122314D01*
X460766Y122335D01*
X460761Y122343D01*
X460757Y122347D01*
X460738Y122370D01*
X458989Y124119D01*
X457941Y126648D01*
X457941Y129384D01*
X458989Y131913D01*
X460923Y133847D01*
X463452Y134895D01*
X466188Y134895D01*
X468717Y133847D01*
X470651Y131913D01*
X471699Y129384D01*
X471699Y126648D01*
X470651Y124119D01*
X468902Y122370D01*
X468857Y122307D01*
X468831Y122280D01*
X468826Y122269D01*
X468789Y122226D01*
X468777Y122196D01*
X468758Y122170D01*
X468731Y122083D01*
X468697Y121998D01*
X468693Y121957D01*
X468686Y121935D01*
X468687Y121903D01*
X468679Y121831D01*
X468679Y120786D01*
X468693Y120696D01*
X468701Y120605D01*
X468713Y120575D01*
X468718Y120543D01*
X468761Y120462D01*
X468797Y120378D01*
X468823Y120346D01*
X468834Y120326D01*
X468857Y120303D01*
X468902Y120247D01*
X484290Y104859D01*
X484364Y104806D01*
X484433Y104747D01*
X484463Y104735D01*
X484489Y104716D01*
X484576Y104689D01*
X484661Y104655D01*
X484702Y104650D01*
X484724Y104644D01*
X484757Y104644D01*
X484828Y104636D01*
X486659Y104636D01*
X490225Y103160D01*
X492954Y100431D01*
X494431Y96865D01*
X494431Y93006D01*
X492954Y89441D01*
X490225Y86712D01*
X486659Y85235D01*
X482800Y85235D01*
G37*
%LPD*%
%LPC*%
G36*
X261918Y950802D02*
X261918Y950802D01*
X253780Y958940D01*
X253780Y970448D01*
X261918Y978586D01*
X273426Y978586D01*
X281564Y970448D01*
X281564Y958940D01*
X273426Y950802D01*
X261918Y950802D01*
G37*
%LPD*%
%LPC*%
G36*
X381772Y166636D02*
X381772Y166636D01*
X373960Y174448D01*
X373960Y185495D01*
X381772Y193307D01*
X392819Y193307D01*
X400631Y185495D01*
X400631Y174448D01*
X392819Y166636D01*
X381772Y166636D01*
G37*
%LPD*%
%LPC*%
G36*
X435322Y166636D02*
X435322Y166636D01*
X427510Y174448D01*
X427510Y185495D01*
X435322Y193307D01*
X446370Y193307D01*
X454182Y185495D01*
X454182Y174448D01*
X446370Y166636D01*
X435322Y166636D01*
G37*
%LPD*%
%LPC*%
G36*
X302976Y404244D02*
X302976Y404244D01*
X295164Y412056D01*
X295164Y423104D01*
X302976Y430916D01*
X314024Y430916D01*
X321836Y423104D01*
X321836Y412056D01*
X314024Y404244D01*
X302976Y404244D01*
G37*
%LPD*%
%LPC*%
G36*
X842854Y537019D02*
X842854Y537019D01*
X839516Y538402D01*
X836962Y540956D01*
X835579Y544294D01*
X835579Y547906D01*
X836962Y551244D01*
X839516Y553798D01*
X842854Y555181D01*
X859546Y555181D01*
X862884Y553798D01*
X865438Y551244D01*
X866821Y547906D01*
X866821Y544294D01*
X865438Y540956D01*
X862884Y538402D01*
X859546Y537019D01*
X842854Y537019D01*
G37*
%LPD*%
%LPC*%
G36*
X842854Y791019D02*
X842854Y791019D01*
X839516Y792402D01*
X836962Y794956D01*
X835579Y798294D01*
X835579Y801906D01*
X836962Y805244D01*
X839516Y807798D01*
X842854Y809181D01*
X859546Y809181D01*
X862884Y807798D01*
X865438Y805244D01*
X866821Y801906D01*
X866821Y798294D01*
X865438Y794956D01*
X862884Y792402D01*
X859546Y791019D01*
X842854Y791019D01*
G37*
%LPD*%
%LPC*%
G36*
X690454Y867219D02*
X690454Y867219D01*
X687116Y868602D01*
X684562Y871156D01*
X683179Y874494D01*
X683179Y878106D01*
X684562Y881444D01*
X687116Y883998D01*
X690454Y885381D01*
X707146Y885381D01*
X710484Y883998D01*
X713038Y881444D01*
X714421Y878106D01*
X714421Y874494D01*
X713038Y871156D01*
X710484Y868602D01*
X707146Y867219D01*
X690454Y867219D01*
G37*
%LPD*%
%LPC*%
G36*
X842854Y511619D02*
X842854Y511619D01*
X839516Y513002D01*
X836962Y515556D01*
X835579Y518894D01*
X835579Y522506D01*
X836962Y525844D01*
X839516Y528398D01*
X842854Y529781D01*
X859546Y529781D01*
X862884Y528398D01*
X865438Y525844D01*
X866821Y522506D01*
X866821Y518894D01*
X865438Y515556D01*
X862884Y513002D01*
X859546Y511619D01*
X842854Y511619D01*
G37*
%LPD*%
%LPC*%
G36*
X690454Y562419D02*
X690454Y562419D01*
X687116Y563802D01*
X684562Y566356D01*
X683179Y569694D01*
X683179Y573306D01*
X684562Y576644D01*
X687116Y579198D01*
X690454Y580581D01*
X707146Y580581D01*
X710484Y579198D01*
X713038Y576644D01*
X714421Y573306D01*
X714421Y569694D01*
X713038Y566356D01*
X710484Y563802D01*
X707146Y562419D01*
X690454Y562419D01*
G37*
%LPD*%
%LPC*%
G36*
X690454Y511619D02*
X690454Y511619D01*
X687116Y513002D01*
X684562Y515556D01*
X683179Y518894D01*
X683179Y522506D01*
X684562Y525844D01*
X687116Y528398D01*
X690454Y529781D01*
X707146Y529781D01*
X710484Y528398D01*
X713038Y525844D01*
X714421Y522506D01*
X714421Y518894D01*
X713038Y515556D01*
X710484Y513002D01*
X707146Y511619D01*
X690454Y511619D01*
G37*
%LPD*%
%LPC*%
G36*
X842854Y486219D02*
X842854Y486219D01*
X839516Y487602D01*
X836962Y490156D01*
X835579Y493494D01*
X835579Y497106D01*
X836962Y500444D01*
X839516Y502998D01*
X842854Y504381D01*
X859546Y504381D01*
X862884Y502998D01*
X865438Y500444D01*
X866821Y497106D01*
X866821Y493494D01*
X865438Y490156D01*
X862884Y487602D01*
X859546Y486219D01*
X842854Y486219D01*
G37*
%LPD*%
%LPC*%
G36*
X690454Y892619D02*
X690454Y892619D01*
X687116Y894002D01*
X684562Y896556D01*
X683179Y899894D01*
X683179Y903506D01*
X684562Y906844D01*
X687116Y909398D01*
X690454Y910781D01*
X707146Y910781D01*
X710484Y909398D01*
X713038Y906844D01*
X714421Y903506D01*
X714421Y899894D01*
X713038Y896556D01*
X710484Y894002D01*
X707146Y892619D01*
X690454Y892619D01*
G37*
%LPD*%
%LPC*%
G36*
X842854Y689419D02*
X842854Y689419D01*
X839516Y690802D01*
X836962Y693356D01*
X835579Y696694D01*
X835579Y700306D01*
X836962Y703644D01*
X839516Y706198D01*
X842854Y707581D01*
X859546Y707581D01*
X862884Y706198D01*
X865438Y703644D01*
X866821Y700306D01*
X866821Y696694D01*
X865438Y693356D01*
X862884Y690802D01*
X859546Y689419D01*
X842854Y689419D01*
G37*
%LPD*%
%LPC*%
G36*
X842854Y435419D02*
X842854Y435419D01*
X839516Y436802D01*
X836962Y439356D01*
X835579Y442694D01*
X835579Y446306D01*
X836962Y449644D01*
X839516Y452198D01*
X842854Y453581D01*
X859546Y453581D01*
X862884Y452198D01*
X865438Y449644D01*
X866821Y446306D01*
X866821Y442694D01*
X865438Y439356D01*
X862884Y436802D01*
X859546Y435419D01*
X842854Y435419D01*
G37*
%LPD*%
%LPC*%
G36*
X690454Y816419D02*
X690454Y816419D01*
X687116Y817802D01*
X684562Y820356D01*
X683179Y823694D01*
X683179Y827306D01*
X684562Y830644D01*
X687116Y833198D01*
X690454Y834581D01*
X707146Y834581D01*
X710484Y833198D01*
X713038Y830644D01*
X714421Y827306D01*
X714421Y823694D01*
X713038Y820356D01*
X710484Y817802D01*
X707146Y816419D01*
X690454Y816419D01*
G37*
%LPD*%
%LPC*%
G36*
X690454Y613219D02*
X690454Y613219D01*
X687116Y614602D01*
X684562Y617156D01*
X683179Y620494D01*
X683179Y624106D01*
X684562Y627444D01*
X687116Y629998D01*
X690454Y631381D01*
X707146Y631381D01*
X710484Y629998D01*
X713038Y627444D01*
X714421Y624106D01*
X714421Y620494D01*
X713038Y617156D01*
X710484Y614602D01*
X707146Y613219D01*
X690454Y613219D01*
G37*
%LPD*%
%LPC*%
G36*
X842854Y664019D02*
X842854Y664019D01*
X839516Y665402D01*
X836962Y667956D01*
X835579Y671294D01*
X835579Y674906D01*
X836962Y678244D01*
X839516Y680798D01*
X842854Y682181D01*
X859546Y682181D01*
X862884Y680798D01*
X865438Y678244D01*
X866821Y674906D01*
X866821Y671294D01*
X865438Y667956D01*
X862884Y665402D01*
X859546Y664019D01*
X842854Y664019D01*
G37*
%LPD*%
%LPC*%
G36*
X842854Y613219D02*
X842854Y613219D01*
X839516Y614602D01*
X836962Y617156D01*
X835579Y620494D01*
X835579Y624106D01*
X836962Y627444D01*
X839516Y629998D01*
X842854Y631381D01*
X859546Y631381D01*
X862884Y629998D01*
X865438Y627444D01*
X866821Y624106D01*
X866821Y620494D01*
X865438Y617156D01*
X862884Y614602D01*
X859546Y613219D01*
X842854Y613219D01*
G37*
%LPD*%
%LPC*%
G36*
X842854Y410019D02*
X842854Y410019D01*
X839516Y411402D01*
X836962Y413956D01*
X835579Y417294D01*
X835579Y420906D01*
X836962Y424244D01*
X839516Y426798D01*
X842854Y428181D01*
X859546Y428181D01*
X862884Y426798D01*
X865438Y424244D01*
X866821Y420906D01*
X866821Y417294D01*
X865438Y413956D01*
X862884Y411402D01*
X859546Y410019D01*
X842854Y410019D01*
G37*
%LPD*%
%LPC*%
G36*
X690454Y410019D02*
X690454Y410019D01*
X687116Y411402D01*
X684562Y413956D01*
X683179Y417294D01*
X683179Y420906D01*
X684562Y424244D01*
X687116Y426798D01*
X690454Y428181D01*
X707146Y428181D01*
X710484Y426798D01*
X713038Y424244D01*
X714421Y420906D01*
X714421Y417294D01*
X713038Y413956D01*
X710484Y411402D01*
X707146Y410019D01*
X690454Y410019D01*
G37*
%LPD*%
%LPC*%
G36*
X690454Y638619D02*
X690454Y638619D01*
X687116Y640002D01*
X684562Y642556D01*
X683179Y645894D01*
X683179Y649506D01*
X684562Y652844D01*
X687116Y655398D01*
X690454Y656781D01*
X707146Y656781D01*
X710484Y655398D01*
X713038Y652844D01*
X714421Y649506D01*
X714421Y645894D01*
X713038Y642556D01*
X710484Y640002D01*
X707146Y638619D01*
X690454Y638619D01*
G37*
%LPD*%
%LPC*%
G36*
X690454Y689419D02*
X690454Y689419D01*
X687116Y690802D01*
X684562Y693356D01*
X683179Y696694D01*
X683179Y700306D01*
X684562Y703644D01*
X687116Y706198D01*
X690454Y707581D01*
X707146Y707581D01*
X710484Y706198D01*
X713038Y703644D01*
X714421Y700306D01*
X714421Y696694D01*
X713038Y693356D01*
X710484Y690802D01*
X707146Y689419D01*
X690454Y689419D01*
G37*
%LPD*%
%LPC*%
G36*
X842854Y638619D02*
X842854Y638619D01*
X839516Y640002D01*
X836962Y642556D01*
X835579Y645894D01*
X835579Y649506D01*
X836962Y652844D01*
X839516Y655398D01*
X842854Y656781D01*
X859546Y656781D01*
X862884Y655398D01*
X865438Y652844D01*
X866821Y649506D01*
X866821Y645894D01*
X865438Y642556D01*
X862884Y640002D01*
X859546Y638619D01*
X842854Y638619D01*
G37*
%LPD*%
%LPC*%
G36*
X690454Y486219D02*
X690454Y486219D01*
X687116Y487602D01*
X684562Y490156D01*
X683179Y493494D01*
X683179Y497106D01*
X684562Y500444D01*
X687116Y502998D01*
X690454Y504381D01*
X707146Y504381D01*
X710484Y502998D01*
X713038Y500444D01*
X714421Y497106D01*
X714421Y493494D01*
X713038Y490156D01*
X710484Y487602D01*
X707146Y486219D01*
X690454Y486219D01*
G37*
%LPD*%
%LPC*%
G36*
X842854Y460819D02*
X842854Y460819D01*
X839516Y462202D01*
X836962Y464756D01*
X835579Y468094D01*
X835579Y471706D01*
X836962Y475044D01*
X839516Y477598D01*
X842854Y478981D01*
X859546Y478981D01*
X862884Y477598D01*
X865438Y475044D01*
X866821Y471706D01*
X866821Y468094D01*
X865438Y464756D01*
X862884Y462202D01*
X859546Y460819D01*
X842854Y460819D01*
G37*
%LPD*%
%LPC*%
G36*
X842854Y765619D02*
X842854Y765619D01*
X839516Y767002D01*
X836962Y769556D01*
X835579Y772894D01*
X835579Y776506D01*
X836962Y779844D01*
X839516Y782398D01*
X842854Y783781D01*
X859546Y783781D01*
X862884Y782398D01*
X865438Y779844D01*
X866821Y776506D01*
X866821Y772894D01*
X865438Y769556D01*
X862884Y767002D01*
X859546Y765619D01*
X842854Y765619D01*
G37*
%LPD*%
%LPC*%
G36*
X690454Y765619D02*
X690454Y765619D01*
X687116Y767002D01*
X684562Y769556D01*
X683179Y772894D01*
X683179Y776506D01*
X684562Y779844D01*
X687116Y782398D01*
X690454Y783781D01*
X707146Y783781D01*
X710484Y782398D01*
X713038Y779844D01*
X714421Y776506D01*
X714421Y772894D01*
X713038Y769556D01*
X710484Y767002D01*
X707146Y765619D01*
X690454Y765619D01*
G37*
%LPD*%
%LPC*%
G36*
X690454Y460819D02*
X690454Y460819D01*
X687116Y462202D01*
X684562Y464756D01*
X683179Y468094D01*
X683179Y471706D01*
X684562Y475044D01*
X687116Y477598D01*
X690454Y478981D01*
X707146Y478981D01*
X710484Y477598D01*
X713038Y475044D01*
X714421Y471706D01*
X714421Y468094D01*
X713038Y464756D01*
X710484Y462202D01*
X707146Y460819D01*
X690454Y460819D01*
G37*
%LPD*%
%LPC*%
G36*
X842854Y740219D02*
X842854Y740219D01*
X839516Y741602D01*
X836962Y744156D01*
X835579Y747494D01*
X835579Y751106D01*
X836962Y754444D01*
X839516Y756998D01*
X842854Y758381D01*
X859546Y758381D01*
X862884Y756998D01*
X865438Y754444D01*
X866821Y751106D01*
X866821Y747494D01*
X865438Y744156D01*
X862884Y741602D01*
X859546Y740219D01*
X842854Y740219D01*
G37*
%LPD*%
%LPC*%
G36*
X690454Y740219D02*
X690454Y740219D01*
X687116Y741602D01*
X684562Y744156D01*
X683179Y747494D01*
X683179Y751106D01*
X684562Y754444D01*
X687116Y756998D01*
X690454Y758381D01*
X707146Y758381D01*
X710484Y756998D01*
X713038Y754444D01*
X714421Y751106D01*
X714421Y747494D01*
X713038Y744156D01*
X710484Y741602D01*
X707146Y740219D01*
X690454Y740219D01*
G37*
%LPD*%
%LPC*%
G36*
X690454Y664019D02*
X690454Y664019D01*
X687116Y665402D01*
X684562Y667956D01*
X683179Y671294D01*
X683179Y674906D01*
X684562Y678244D01*
X687116Y680798D01*
X690454Y682181D01*
X707146Y682181D01*
X710484Y680798D01*
X713038Y678244D01*
X714421Y674906D01*
X714421Y671294D01*
X713038Y667956D01*
X710484Y665402D01*
X707146Y664019D01*
X690454Y664019D01*
G37*
%LPD*%
%LPC*%
G36*
X187185Y11322D02*
X187185Y11322D01*
X182593Y13224D01*
X179078Y16739D01*
X177176Y21331D01*
X177176Y26302D01*
X179078Y30894D01*
X182593Y34409D01*
X187185Y36311D01*
X192156Y36311D01*
X196748Y34409D01*
X200263Y30894D01*
X202165Y26302D01*
X202165Y21331D01*
X200263Y16739D01*
X196748Y13224D01*
X192156Y11322D01*
X187185Y11322D01*
G37*
%LPD*%
%LPC*%
G36*
X516986Y6622D02*
X516986Y6622D01*
X512393Y8524D01*
X508879Y12039D01*
X506976Y16632D01*
X506976Y21602D01*
X508879Y26195D01*
X512393Y29709D01*
X516986Y31612D01*
X521957Y31612D01*
X526549Y29709D01*
X530064Y26195D01*
X531966Y21602D01*
X531966Y16632D01*
X530064Y12039D01*
X526549Y8524D01*
X521957Y6622D01*
X516986Y6622D01*
G37*
%LPD*%
%LPC*%
G36*
X610688Y111402D02*
X610688Y111402D01*
X606096Y113304D01*
X602581Y116819D01*
X600679Y121411D01*
X600679Y126382D01*
X602581Y130975D01*
X606096Y134489D01*
X610688Y136392D01*
X615659Y136392D01*
X620251Y134489D01*
X623766Y130975D01*
X625668Y126382D01*
X625668Y121411D01*
X623766Y116819D01*
X620251Y113304D01*
X615659Y111402D01*
X610688Y111402D01*
G37*
%LPD*%
%LPC*%
G36*
X773568Y30391D02*
X773568Y30391D01*
X768976Y32293D01*
X765461Y35808D01*
X763559Y40401D01*
X763559Y45371D01*
X765461Y49964D01*
X768976Y53478D01*
X773568Y55381D01*
X778539Y55381D01*
X783131Y53478D01*
X786646Y49964D01*
X788548Y45371D01*
X788548Y40401D01*
X786646Y35808D01*
X783131Y32293D01*
X778539Y30391D01*
X773568Y30391D01*
G37*
%LPD*%
%LPC*%
G36*
X46554Y99278D02*
X46554Y99278D01*
X46554Y100041D01*
X46551Y100060D01*
X46553Y100080D01*
X46531Y100181D01*
X46515Y100283D01*
X46505Y100301D01*
X46501Y100320D01*
X46448Y100409D01*
X46400Y100501D01*
X46385Y100514D01*
X46375Y100532D01*
X46296Y100599D01*
X46221Y100670D01*
X46203Y100678D01*
X46188Y100691D01*
X46092Y100730D01*
X45998Y100774D01*
X45978Y100776D01*
X45960Y100783D01*
X45793Y100802D01*
X37386Y100802D01*
X37622Y101989D01*
X38322Y103679D01*
X39339Y105201D01*
X40633Y106495D01*
X42155Y107512D01*
X43254Y107967D01*
X43337Y108019D01*
X43423Y108064D01*
X43441Y108083D01*
X43463Y108097D01*
X43525Y108172D01*
X43592Y108243D01*
X43603Y108266D01*
X43620Y108286D01*
X43655Y108377D01*
X43696Y108466D01*
X43699Y108492D01*
X43708Y108516D01*
X43712Y108613D01*
X43723Y108710D01*
X43717Y108736D01*
X43718Y108762D01*
X43691Y108855D01*
X43671Y108950D01*
X43657Y108973D01*
X43650Y108998D01*
X43594Y109078D01*
X43544Y109162D01*
X43525Y109179D01*
X43510Y109200D01*
X43431Y109258D01*
X43358Y109322D01*
X43333Y109331D01*
X43312Y109347D01*
X43220Y109377D01*
X43129Y109413D01*
X43097Y109417D01*
X43078Y109423D01*
X43045Y109423D01*
X42963Y109432D01*
X38523Y109432D01*
X36709Y111246D01*
X36709Y127311D01*
X38523Y129125D01*
X54588Y129125D01*
X56402Y127311D01*
X56402Y111246D01*
X54588Y109432D01*
X50148Y109432D01*
X50052Y109416D01*
X49955Y109407D01*
X49931Y109396D01*
X49905Y109392D01*
X49819Y109347D01*
X49730Y109307D01*
X49711Y109289D01*
X49688Y109277D01*
X49621Y109207D01*
X49549Y109141D01*
X49537Y109118D01*
X49519Y109099D01*
X49478Y109010D01*
X49431Y108925D01*
X49426Y108899D01*
X49415Y108876D01*
X49404Y108779D01*
X49387Y108683D01*
X49391Y108657D01*
X49388Y108631D01*
X49409Y108536D01*
X49423Y108440D01*
X49435Y108416D01*
X49440Y108391D01*
X49490Y108307D01*
X49534Y108220D01*
X49553Y108202D01*
X49566Y108180D01*
X49640Y108117D01*
X49710Y108048D01*
X49738Y108032D01*
X49753Y108020D01*
X49784Y108007D01*
X49857Y107967D01*
X50956Y107512D01*
X52478Y106495D01*
X53772Y105201D01*
X54789Y103679D01*
X55489Y101989D01*
X55725Y100802D01*
X47318Y100802D01*
X47298Y100799D01*
X47278Y100801D01*
X47177Y100779D01*
X47075Y100762D01*
X47057Y100753D01*
X47038Y100749D01*
X46949Y100695D01*
X46857Y100647D01*
X46844Y100633D01*
X46827Y100622D01*
X46759Y100544D01*
X46688Y100469D01*
X46680Y100451D01*
X46667Y100435D01*
X46628Y100339D01*
X46584Y100246D01*
X46582Y100226D01*
X46575Y100207D01*
X46556Y100041D01*
X46556Y99278D01*
X46554Y99278D01*
G37*
%LPD*%
%LPC*%
G36*
X216193Y939019D02*
X216193Y939019D01*
X216193Y939781D01*
X216190Y939801D01*
X216192Y939821D01*
X216170Y939922D01*
X216154Y940024D01*
X216144Y940042D01*
X216140Y940061D01*
X216087Y940150D01*
X216039Y940242D01*
X216024Y940255D01*
X216014Y940272D01*
X215935Y940340D01*
X215860Y940411D01*
X215842Y940419D01*
X215827Y940432D01*
X215731Y940471D01*
X215637Y940515D01*
X215617Y940517D01*
X215599Y940524D01*
X215432Y940543D01*
X207025Y940543D01*
X207261Y941729D01*
X207961Y943420D01*
X208978Y944942D01*
X210272Y946236D01*
X211793Y947253D01*
X212893Y947708D01*
X212976Y947760D01*
X213062Y947805D01*
X213080Y947824D01*
X213102Y947838D01*
X213164Y947913D01*
X213231Y947983D01*
X213242Y948007D01*
X213259Y948027D01*
X213294Y948118D01*
X213335Y948207D01*
X213338Y948233D01*
X213347Y948257D01*
X213351Y948354D01*
X213362Y948451D01*
X213356Y948476D01*
X213357Y948503D01*
X213330Y948596D01*
X213310Y948691D01*
X213296Y948714D01*
X213289Y948739D01*
X213233Y948819D01*
X213183Y948902D01*
X213163Y948919D01*
X213149Y948941D01*
X213070Y948999D01*
X212996Y949062D01*
X212972Y949072D01*
X212951Y949088D01*
X212859Y949118D01*
X212768Y949154D01*
X212736Y949158D01*
X212717Y949164D01*
X212684Y949164D01*
X212602Y949173D01*
X208162Y949173D01*
X206348Y950987D01*
X206348Y967052D01*
X208162Y968866D01*
X224227Y968866D01*
X226041Y967052D01*
X226041Y950987D01*
X224227Y949173D01*
X219787Y949173D01*
X219691Y949157D01*
X219594Y949148D01*
X219570Y949137D01*
X219544Y949133D01*
X219458Y949088D01*
X219369Y949048D01*
X219350Y949030D01*
X219327Y949018D01*
X219260Y948947D01*
X219188Y948881D01*
X219176Y948859D01*
X219158Y948840D01*
X219116Y948751D01*
X219070Y948666D01*
X219065Y948640D01*
X219054Y948617D01*
X219043Y948520D01*
X219026Y948424D01*
X219030Y948398D01*
X219027Y948372D01*
X219047Y948277D01*
X219062Y948181D01*
X219073Y948157D01*
X219079Y948132D01*
X219129Y948048D01*
X219173Y947961D01*
X219192Y947943D01*
X219205Y947921D01*
X219279Y947857D01*
X219349Y947789D01*
X219377Y947773D01*
X219392Y947761D01*
X219423Y947748D01*
X219496Y947708D01*
X220595Y947253D01*
X222117Y946236D01*
X223411Y944942D01*
X224428Y943420D01*
X225128Y941729D01*
X225364Y940543D01*
X216956Y940543D01*
X216937Y940539D01*
X216917Y940542D01*
X216816Y940520D01*
X216714Y940503D01*
X216696Y940494D01*
X216677Y940489D01*
X216588Y940436D01*
X216496Y940388D01*
X216483Y940373D01*
X216465Y940363D01*
X216398Y940285D01*
X216327Y940210D01*
X216319Y940191D01*
X216306Y940176D01*
X216267Y940080D01*
X216223Y939986D01*
X216221Y939967D01*
X216214Y939948D01*
X216195Y939781D01*
X216195Y939019D01*
X216193Y939019D01*
G37*
%LPD*%
%LPC*%
G36*
X116979Y32459D02*
X116979Y32459D01*
X115165Y34273D01*
X115165Y50338D01*
X116979Y52152D01*
X133045Y52152D01*
X134859Y50338D01*
X134859Y45898D01*
X134875Y45802D01*
X134884Y45705D01*
X134894Y45681D01*
X134899Y45655D01*
X134944Y45569D01*
X134984Y45480D01*
X135001Y45461D01*
X135014Y45438D01*
X135084Y45371D01*
X135150Y45299D01*
X135173Y45287D01*
X135192Y45269D01*
X135280Y45228D01*
X135366Y45181D01*
X135391Y45176D01*
X135415Y45165D01*
X135512Y45154D01*
X135608Y45137D01*
X135634Y45141D01*
X135660Y45138D01*
X135755Y45159D01*
X135851Y45173D01*
X135874Y45185D01*
X135900Y45190D01*
X135984Y45240D01*
X136070Y45284D01*
X136089Y45303D01*
X136111Y45316D01*
X136174Y45390D01*
X136243Y45460D01*
X136258Y45488D01*
X136271Y45503D01*
X136283Y45534D01*
X136323Y45607D01*
X136779Y46706D01*
X137796Y48228D01*
X139090Y49522D01*
X140611Y50539D01*
X142302Y51239D01*
X143489Y51475D01*
X143489Y43067D01*
X143492Y43048D01*
X143490Y43028D01*
X143512Y42927D01*
X143529Y42825D01*
X143538Y42807D01*
X143542Y42788D01*
X143595Y42699D01*
X143644Y42607D01*
X143658Y42594D01*
X143668Y42577D01*
X143747Y42509D01*
X143822Y42438D01*
X143840Y42430D01*
X143855Y42417D01*
X143952Y42378D01*
X144045Y42334D01*
X144065Y42332D01*
X144083Y42325D01*
X144250Y42306D01*
X145013Y42306D01*
X145013Y42304D01*
X144250Y42304D01*
X144230Y42301D01*
X144211Y42303D01*
X144109Y42281D01*
X144007Y42265D01*
X143990Y42255D01*
X143970Y42251D01*
X143881Y42198D01*
X143790Y42150D01*
X143776Y42135D01*
X143759Y42125D01*
X143692Y42046D01*
X143621Y41971D01*
X143612Y41953D01*
X143599Y41938D01*
X143561Y41842D01*
X143517Y41748D01*
X143515Y41728D01*
X143507Y41710D01*
X143489Y41543D01*
X143489Y33136D01*
X142302Y33372D01*
X140611Y34072D01*
X139090Y35089D01*
X137796Y36383D01*
X136779Y37905D01*
X136323Y39004D01*
X136272Y39087D01*
X136227Y39173D01*
X136208Y39191D01*
X136194Y39213D01*
X136119Y39275D01*
X136048Y39342D01*
X136025Y39353D01*
X136004Y39370D01*
X135913Y39405D01*
X135825Y39446D01*
X135799Y39449D01*
X135775Y39458D01*
X135677Y39462D01*
X135581Y39473D01*
X135555Y39467D01*
X135529Y39468D01*
X135435Y39441D01*
X135340Y39421D01*
X135318Y39407D01*
X135293Y39400D01*
X135213Y39344D01*
X135129Y39294D01*
X135112Y39275D01*
X135091Y39260D01*
X135033Y39181D01*
X134969Y39107D01*
X134960Y39083D01*
X134944Y39062D01*
X134914Y38970D01*
X134877Y38879D01*
X134874Y38847D01*
X134868Y38828D01*
X134868Y38795D01*
X134859Y38713D01*
X134859Y34273D01*
X133045Y32459D01*
X116979Y32459D01*
G37*
%LPD*%
%LPC*%
G36*
X472637Y325455D02*
X472637Y325455D01*
X468249Y327273D01*
X464891Y330631D01*
X463073Y335019D01*
X463073Y339769D01*
X464891Y344157D01*
X468249Y347515D01*
X472637Y349333D01*
X477387Y349333D01*
X481775Y347515D01*
X485133Y344157D01*
X486951Y339769D01*
X486951Y335019D01*
X485133Y330631D01*
X481775Y327273D01*
X477387Y325455D01*
X472637Y325455D01*
G37*
%LPD*%
%LPC*%
G36*
X407613Y325455D02*
X407613Y325455D01*
X403225Y327273D01*
X399867Y330631D01*
X398049Y335019D01*
X398049Y339769D01*
X399867Y344157D01*
X403225Y347515D01*
X407613Y349333D01*
X412363Y349333D01*
X416751Y347515D01*
X420109Y344157D01*
X421927Y339769D01*
X421927Y335019D01*
X420109Y330631D01*
X416751Y327273D01*
X412363Y325455D01*
X407613Y325455D01*
G37*
%LPD*%
%LPC*%
G36*
X407613Y370667D02*
X407613Y370667D01*
X403225Y372485D01*
X399867Y375843D01*
X398049Y380231D01*
X398049Y384981D01*
X399867Y389369D01*
X403225Y392727D01*
X407613Y394545D01*
X412363Y394545D01*
X416751Y392727D01*
X420109Y389369D01*
X421927Y384981D01*
X421927Y380231D01*
X420109Y375843D01*
X416751Y372485D01*
X412363Y370667D01*
X407613Y370667D01*
G37*
%LPD*%
%LPC*%
G36*
X689967Y953039D02*
X689967Y953039D01*
X688479Y954527D01*
X688479Y970132D01*
X689967Y971621D01*
X705572Y971621D01*
X707060Y970132D01*
X707060Y963842D01*
X707068Y963794D01*
X707067Y963745D01*
X707088Y963673D01*
X707100Y963600D01*
X707123Y963556D01*
X707137Y963509D01*
X707180Y963448D01*
X707215Y963382D01*
X707251Y963349D01*
X707279Y963309D01*
X707339Y963264D01*
X707394Y963213D01*
X707438Y963192D01*
X707478Y963163D01*
X707549Y963141D01*
X707617Y963109D01*
X707665Y963104D01*
X707712Y963089D01*
X707787Y963091D01*
X707861Y963082D01*
X707909Y963093D01*
X707958Y963094D01*
X708028Y963119D01*
X708101Y963135D01*
X708144Y963160D01*
X708190Y963176D01*
X708248Y963222D01*
X708313Y963261D01*
X708344Y963298D01*
X708383Y963328D01*
X708424Y963391D01*
X708472Y963448D01*
X708491Y963493D01*
X708518Y963534D01*
X708555Y963653D01*
X708564Y963676D01*
X708565Y963685D01*
X708568Y963694D01*
X708836Y965040D01*
X709536Y966731D01*
X710553Y968252D01*
X711847Y969546D01*
X713369Y970563D01*
X715060Y971264D01*
X716246Y971500D01*
X716246Y963092D01*
X716250Y963072D01*
X716247Y963052D01*
X716269Y962951D01*
X716286Y962849D01*
X716295Y962832D01*
X716300Y962812D01*
X716353Y962723D01*
X716401Y962632D01*
X716416Y962618D01*
X716426Y962601D01*
X716505Y962534D01*
X716580Y962462D01*
X716598Y962454D01*
X716613Y962441D01*
X716709Y962402D01*
X716803Y962359D01*
X716822Y962357D01*
X716841Y962349D01*
X717008Y962331D01*
X717771Y962331D01*
X717771Y962329D01*
X717008Y962329D01*
X716988Y962326D01*
X716968Y962328D01*
X716867Y962306D01*
X716765Y962289D01*
X716747Y962280D01*
X716728Y962276D01*
X716639Y962222D01*
X716548Y962174D01*
X716534Y962160D01*
X716517Y962149D01*
X716449Y962071D01*
X716378Y961996D01*
X716370Y961978D01*
X716357Y961963D01*
X716318Y961866D01*
X716275Y961773D01*
X716272Y961753D01*
X716265Y961734D01*
X716246Y961568D01*
X716246Y953160D01*
X715060Y953396D01*
X713369Y954096D01*
X711847Y955113D01*
X710553Y956407D01*
X709536Y957929D01*
X708836Y959620D01*
X708568Y960966D01*
X708551Y961012D01*
X708543Y961060D01*
X708508Y961126D01*
X708482Y961196D01*
X708451Y961234D01*
X708428Y961277D01*
X708374Y961329D01*
X708327Y961387D01*
X708285Y961413D01*
X708250Y961447D01*
X708182Y961478D01*
X708119Y961518D01*
X708071Y961530D01*
X708027Y961550D01*
X707952Y961558D01*
X707880Y961576D01*
X707831Y961572D01*
X707782Y961577D01*
X707709Y961561D01*
X707635Y961555D01*
X707590Y961536D01*
X707542Y961525D01*
X707478Y961487D01*
X707409Y961457D01*
X707373Y961424D01*
X707331Y961399D01*
X707282Y961342D01*
X707227Y961292D01*
X707203Y961249D01*
X707171Y961212D01*
X707143Y961142D01*
X707106Y961077D01*
X707097Y961029D01*
X707079Y960984D01*
X707065Y960859D01*
X707061Y960836D01*
X707061Y960826D01*
X707060Y960817D01*
X707060Y954527D01*
X705572Y953039D01*
X689967Y953039D01*
G37*
%LPD*%
%LPC*%
G36*
X633836Y954800D02*
X633836Y954800D01*
X632348Y956288D01*
X632348Y971893D01*
X633836Y973381D01*
X649441Y973381D01*
X650929Y971893D01*
X650929Y965603D01*
X650937Y965555D01*
X650936Y965506D01*
X650957Y965434D01*
X650969Y965360D01*
X650992Y965317D01*
X651006Y965270D01*
X651049Y965209D01*
X651084Y965143D01*
X651120Y965109D01*
X651148Y965069D01*
X651208Y965025D01*
X651263Y964974D01*
X651307Y964953D01*
X651347Y964924D01*
X651418Y964902D01*
X651486Y964870D01*
X651534Y964865D01*
X651581Y964850D01*
X651656Y964851D01*
X651730Y964843D01*
X651778Y964853D01*
X651827Y964854D01*
X651897Y964879D01*
X651970Y964895D01*
X652013Y964920D01*
X652059Y964937D01*
X652117Y964983D01*
X652182Y965021D01*
X652213Y965059D01*
X652252Y965089D01*
X652293Y965151D01*
X652341Y965208D01*
X652360Y965254D01*
X652387Y965295D01*
X652424Y965414D01*
X652433Y965436D01*
X652434Y965446D01*
X652437Y965455D01*
X652705Y966801D01*
X653405Y968491D01*
X654422Y970013D01*
X655716Y971307D01*
X657238Y972324D01*
X658929Y973024D01*
X660115Y973260D01*
X660115Y964853D01*
X660119Y964833D01*
X660116Y964813D01*
X660138Y964712D01*
X660155Y964610D01*
X660164Y964592D01*
X660169Y964573D01*
X660222Y964484D01*
X660270Y964393D01*
X660285Y964379D01*
X660295Y964362D01*
X660374Y964294D01*
X660449Y964223D01*
X660467Y964215D01*
X660482Y964202D01*
X660578Y964163D01*
X660672Y964120D01*
X660691Y964117D01*
X660710Y964110D01*
X660877Y964091D01*
X661640Y964091D01*
X661640Y964090D01*
X660877Y964090D01*
X660857Y964086D01*
X660837Y964089D01*
X660736Y964067D01*
X660634Y964050D01*
X660616Y964041D01*
X660597Y964036D01*
X660508Y963983D01*
X660417Y963935D01*
X660403Y963920D01*
X660386Y963910D01*
X660318Y963831D01*
X660247Y963756D01*
X660239Y963738D01*
X660226Y963723D01*
X660187Y963627D01*
X660144Y963533D01*
X660141Y963514D01*
X660134Y963495D01*
X660115Y963328D01*
X660115Y954921D01*
X658929Y955157D01*
X657238Y955857D01*
X655716Y956874D01*
X654422Y958168D01*
X653405Y959690D01*
X652705Y961380D01*
X652437Y962726D01*
X652420Y962772D01*
X652412Y962821D01*
X652377Y962887D01*
X652351Y962957D01*
X652320Y962995D01*
X652297Y963038D01*
X652243Y963089D01*
X652196Y963147D01*
X652154Y963174D01*
X652119Y963207D01*
X652051Y963239D01*
X651988Y963279D01*
X651940Y963290D01*
X651896Y963311D01*
X651821Y963319D01*
X651749Y963337D01*
X651700Y963333D01*
X651651Y963338D01*
X651578Y963322D01*
X651504Y963316D01*
X651459Y963296D01*
X651411Y963286D01*
X651347Y963247D01*
X651278Y963218D01*
X651242Y963185D01*
X651200Y963160D01*
X651151Y963103D01*
X651096Y963053D01*
X651072Y963010D01*
X651040Y962973D01*
X651012Y962903D01*
X650975Y962838D01*
X650966Y962790D01*
X650948Y962745D01*
X650934Y962620D01*
X650930Y962596D01*
X650930Y962587D01*
X650929Y962578D01*
X650929Y956288D01*
X649441Y954800D01*
X633836Y954800D01*
G37*
%LPD*%
%LPC*%
G36*
X158369Y921971D02*
X158369Y921971D01*
X156555Y923785D01*
X156555Y940430D01*
X158369Y942244D01*
X175015Y942244D01*
X176829Y940430D01*
X176829Y923785D01*
X175015Y921971D01*
X158369Y921971D01*
G37*
%LPD*%
%LPC*%
G36*
X595464Y925915D02*
X595464Y925915D01*
X593976Y927403D01*
X593976Y943588D01*
X595464Y945076D01*
X611649Y945076D01*
X613137Y943588D01*
X613137Y927403D01*
X611649Y925915D01*
X595464Y925915D01*
G37*
%LPD*%
%LPC*%
G36*
X298864Y954377D02*
X298864Y954377D01*
X298837Y954375D01*
X298785Y954381D01*
X298352Y954381D01*
X294458Y955994D01*
X293747Y956705D01*
X293705Y956735D01*
X293669Y956773D01*
X293573Y956830D01*
X293570Y956833D01*
X293568Y956834D01*
X293548Y956848D01*
X293538Y956851D01*
X293525Y956859D01*
X293453Y956892D01*
X293305Y957122D01*
X293299Y957129D01*
X293203Y957249D01*
X291477Y958975D01*
X290347Y961704D01*
X290330Y961730D01*
X290284Y961824D01*
X290185Y961978D01*
X290183Y961985D01*
X290183Y962051D01*
X290160Y962131D01*
X290154Y962163D01*
X290145Y962181D01*
X290136Y962212D01*
X289863Y962870D01*
X289863Y967086D01*
X290136Y967744D01*
X290151Y967808D01*
X290175Y967868D01*
X290185Y967951D01*
X290192Y967983D01*
X290192Y967989D01*
X290284Y968132D01*
X290296Y968160D01*
X290347Y968252D01*
X291477Y970981D01*
X293203Y972707D01*
X293209Y972715D01*
X293305Y972834D01*
X293453Y973064D01*
X293525Y973097D01*
X293569Y973126D01*
X293616Y973146D01*
X293707Y973219D01*
X293730Y973234D01*
X293736Y973242D01*
X293747Y973251D01*
X294458Y973961D01*
X298352Y975575D01*
X298785Y975575D01*
X298837Y975583D01*
X298842Y975582D01*
X298874Y975583D01*
X298950Y975575D01*
X302568Y975575D01*
X304432Y974802D01*
X304443Y974800D01*
X304453Y974794D01*
X304615Y974752D01*
X304905Y974711D01*
X305041Y974592D01*
X305074Y974572D01*
X305102Y974545D01*
X305249Y974464D01*
X306463Y973961D01*
X309444Y970981D01*
X311057Y967086D01*
X311057Y965438D01*
X311061Y965413D01*
X311058Y965388D01*
X311088Y965223D01*
X311160Y964978D01*
X311088Y964733D01*
X311085Y964708D01*
X311075Y964685D01*
X311057Y964518D01*
X311057Y962870D01*
X309444Y958975D01*
X306463Y955994D01*
X305249Y955492D01*
X305216Y955471D01*
X305180Y955459D01*
X305041Y955364D01*
X304905Y955245D01*
X304615Y955204D01*
X304604Y955200D01*
X304593Y955200D01*
X304432Y955153D01*
X302568Y954381D01*
X298950Y954381D01*
X298918Y954376D01*
X298874Y954374D01*
X298864Y954377D01*
G37*
%LPD*%
%LPC*%
G36*
X427343Y125907D02*
X427343Y125907D01*
X427315Y125906D01*
X427264Y125911D01*
X426831Y125911D01*
X422936Y127525D01*
X422226Y128235D01*
X422184Y128265D01*
X422148Y128303D01*
X422048Y128362D01*
X422026Y128378D01*
X422017Y128381D01*
X422004Y128389D01*
X421932Y128422D01*
X421784Y128652D01*
X421778Y128659D01*
X421682Y128779D01*
X419955Y130505D01*
X418825Y133234D01*
X418809Y133260D01*
X418762Y133354D01*
X418663Y133508D01*
X418662Y133515D01*
X418661Y133581D01*
X418638Y133661D01*
X418633Y133694D01*
X418624Y133711D01*
X418615Y133742D01*
X418342Y134400D01*
X418342Y138616D01*
X418615Y139274D01*
X418630Y139338D01*
X418654Y139399D01*
X418663Y139481D01*
X418671Y139513D01*
X418670Y139519D01*
X418762Y139662D01*
X418774Y139690D01*
X418825Y139782D01*
X419955Y142511D01*
X421682Y144237D01*
X421687Y144245D01*
X421784Y144364D01*
X421932Y144594D01*
X422004Y144627D01*
X422047Y144656D01*
X422095Y144676D01*
X422185Y144749D01*
X422208Y144764D01*
X422214Y144772D01*
X422226Y144781D01*
X422936Y145491D01*
X426831Y147105D01*
X427264Y147105D01*
X427315Y147113D01*
X427320Y147113D01*
X427353Y147113D01*
X427429Y147105D01*
X431047Y147105D01*
X432911Y146333D01*
X432922Y146330D01*
X432931Y146324D01*
X433094Y146282D01*
X433383Y146241D01*
X433520Y146122D01*
X433553Y146102D01*
X433580Y146075D01*
X433727Y145994D01*
X434941Y145491D01*
X437922Y142511D01*
X439535Y138616D01*
X439535Y136968D01*
X439540Y136943D01*
X439537Y136918D01*
X439566Y136753D01*
X439638Y136508D01*
X439566Y136263D01*
X439563Y136238D01*
X439554Y136215D01*
X439535Y136048D01*
X439535Y134400D01*
X437922Y130505D01*
X434941Y127525D01*
X433727Y127022D01*
X433695Y127001D01*
X433658Y126989D01*
X433520Y126894D01*
X433383Y126775D01*
X433094Y126734D01*
X433083Y126730D01*
X433072Y126730D01*
X432911Y126683D01*
X431047Y125911D01*
X427429Y125911D01*
X427396Y125906D01*
X427352Y125905D01*
X427343Y125907D01*
G37*
%LPD*%
%LPC*%
G36*
X298864Y916785D02*
X298864Y916785D01*
X298837Y916783D01*
X298785Y916789D01*
X298352Y916789D01*
X294458Y918402D01*
X293747Y919113D01*
X293705Y919143D01*
X293669Y919181D01*
X293570Y919240D01*
X293548Y919256D01*
X293538Y919259D01*
X293525Y919267D01*
X293453Y919300D01*
X293305Y919530D01*
X293299Y919537D01*
X293203Y919657D01*
X291477Y921383D01*
X290347Y924112D01*
X290330Y924138D01*
X290284Y924232D01*
X290185Y924386D01*
X290183Y924393D01*
X290183Y924459D01*
X290160Y924539D01*
X290154Y924571D01*
X290145Y924589D01*
X290136Y924620D01*
X289863Y925278D01*
X289863Y929494D01*
X290136Y930152D01*
X290151Y930216D01*
X290175Y930276D01*
X290185Y930359D01*
X290192Y930391D01*
X290192Y930397D01*
X290284Y930540D01*
X290296Y930568D01*
X290347Y930660D01*
X291477Y933389D01*
X293203Y935115D01*
X293209Y935123D01*
X293305Y935242D01*
X293453Y935472D01*
X293525Y935505D01*
X293569Y935534D01*
X293616Y935554D01*
X293707Y935627D01*
X293730Y935642D01*
X293736Y935650D01*
X293747Y935659D01*
X294458Y936369D01*
X298352Y937983D01*
X298785Y937983D01*
X298837Y937991D01*
X298842Y937990D01*
X298874Y937991D01*
X298950Y937983D01*
X302568Y937983D01*
X304432Y937210D01*
X304443Y937208D01*
X304453Y937202D01*
X304552Y937177D01*
X304571Y937169D01*
X304590Y937167D01*
X304615Y937160D01*
X304905Y937119D01*
X305041Y937000D01*
X305074Y936980D01*
X305102Y936953D01*
X305249Y936872D01*
X306463Y936369D01*
X309444Y933389D01*
X311057Y929494D01*
X311057Y927846D01*
X311061Y927821D01*
X311058Y927796D01*
X311088Y927631D01*
X311160Y927386D01*
X311088Y927141D01*
X311085Y927116D01*
X311075Y927093D01*
X311057Y926926D01*
X311057Y925278D01*
X309444Y921383D01*
X306463Y918402D01*
X305249Y917900D01*
X305216Y917879D01*
X305180Y917867D01*
X305041Y917772D01*
X304905Y917653D01*
X304615Y917612D01*
X304604Y917608D01*
X304593Y917608D01*
X304432Y917561D01*
X302568Y916789D01*
X298950Y916789D01*
X298918Y916784D01*
X298874Y916782D01*
X298864Y916785D01*
G37*
%LPD*%
%LPC*%
G36*
X399481Y125616D02*
X399481Y125616D01*
X399454Y125615D01*
X399402Y125620D01*
X398969Y125620D01*
X395074Y127234D01*
X394364Y127944D01*
X394322Y127974D01*
X394286Y128012D01*
X394187Y128071D01*
X394164Y128088D01*
X394155Y128090D01*
X394142Y128098D01*
X394070Y128131D01*
X393922Y128361D01*
X393916Y128368D01*
X393882Y128411D01*
X393869Y128433D01*
X393855Y128444D01*
X393820Y128488D01*
X392094Y130215D01*
X390963Y132943D01*
X390947Y132969D01*
X390901Y133063D01*
X390801Y133217D01*
X390800Y133225D01*
X390800Y133290D01*
X390776Y133370D01*
X390771Y133403D01*
X390762Y133420D01*
X390753Y133451D01*
X390480Y134109D01*
X390480Y138325D01*
X390753Y138983D01*
X390768Y139047D01*
X390792Y139108D01*
X390802Y139191D01*
X390809Y139223D01*
X390809Y139228D01*
X390901Y139371D01*
X390913Y139399D01*
X390963Y139491D01*
X392094Y142220D01*
X393820Y143946D01*
X393826Y143954D01*
X393922Y144073D01*
X394070Y144303D01*
X394142Y144336D01*
X394185Y144365D01*
X394233Y144386D01*
X394323Y144458D01*
X394346Y144473D01*
X394352Y144481D01*
X394364Y144490D01*
X395074Y145201D01*
X398969Y146814D01*
X399402Y146814D01*
X399454Y146822D01*
X399458Y146822D01*
X399491Y146822D01*
X399567Y146814D01*
X403185Y146814D01*
X405049Y146042D01*
X405060Y146039D01*
X405070Y146034D01*
X405232Y145992D01*
X405522Y145950D01*
X405658Y145832D01*
X405691Y145811D01*
X405719Y145784D01*
X405866Y145703D01*
X407080Y145201D01*
X410060Y142220D01*
X411674Y138325D01*
X411674Y136677D01*
X411678Y136652D01*
X411675Y136628D01*
X411705Y136462D01*
X411777Y136217D01*
X411705Y135972D01*
X411702Y135947D01*
X411692Y135924D01*
X411674Y135757D01*
X411674Y134109D01*
X410060Y130215D01*
X407080Y127234D01*
X405866Y126731D01*
X405833Y126711D01*
X405796Y126698D01*
X405658Y126603D01*
X405522Y126484D01*
X405232Y126443D01*
X405221Y126439D01*
X405210Y126439D01*
X405049Y126393D01*
X403185Y125620D01*
X399567Y125620D01*
X399535Y125615D01*
X399490Y125614D01*
X399481Y125616D01*
G37*
%LPD*%
%LPC*%
G36*
X275471Y407785D02*
X275471Y407785D01*
X275443Y407783D01*
X275392Y407789D01*
X275003Y407789D01*
X271312Y409318D01*
X270655Y409975D01*
X270613Y410005D01*
X270577Y410043D01*
X270478Y410102D01*
X270455Y410119D01*
X270446Y410121D01*
X270433Y410129D01*
X270357Y410164D01*
X270206Y410400D01*
X270200Y410406D01*
X270104Y410526D01*
X268488Y412142D01*
X267430Y414697D01*
X267413Y414723D01*
X267367Y414817D01*
X267260Y414984D01*
X267257Y415002D01*
X267256Y415068D01*
X267233Y415148D01*
X267228Y415180D01*
X267218Y415197D01*
X267209Y415229D01*
X266959Y415833D01*
X266959Y419827D01*
X267209Y420431D01*
X267224Y420495D01*
X267249Y420555D01*
X267258Y420638D01*
X267266Y420670D01*
X267264Y420683D01*
X267367Y420842D01*
X267379Y420870D01*
X267430Y420962D01*
X268488Y423517D01*
X270104Y425133D01*
X270109Y425140D01*
X270206Y425260D01*
X270357Y425496D01*
X270433Y425530D01*
X270476Y425559D01*
X270524Y425580D01*
X270614Y425652D01*
X270637Y425667D01*
X270643Y425675D01*
X270655Y425684D01*
X271312Y426342D01*
X275003Y427870D01*
X275392Y427870D01*
X275467Y427883D01*
X275500Y427878D01*
X275532Y427879D01*
X275608Y427870D01*
X278997Y427870D01*
X280740Y427149D01*
X280751Y427146D01*
X280760Y427141D01*
X280923Y427099D01*
X281214Y427057D01*
X281351Y426938D01*
X281384Y426917D01*
X281411Y426890D01*
X281558Y426810D01*
X282688Y426342D01*
X285512Y423517D01*
X287041Y419827D01*
X287041Y418289D01*
X287045Y418265D01*
X287042Y418240D01*
X287072Y418075D01*
X287144Y417830D01*
X287072Y417584D01*
X287069Y417560D01*
X287059Y417537D01*
X287041Y417370D01*
X287041Y415833D01*
X285512Y412142D01*
X282688Y409318D01*
X281558Y408850D01*
X281526Y408830D01*
X281489Y408817D01*
X281351Y408722D01*
X281214Y408603D01*
X280923Y408561D01*
X280912Y408558D01*
X280901Y408557D01*
X280740Y408511D01*
X278997Y407789D01*
X275608Y407789D01*
X275576Y407784D01*
X275500Y407781D01*
X275489Y407780D01*
X275471Y407785D01*
G37*
%LPD*%
%LPC*%
G36*
X275471Y370003D02*
X275471Y370003D01*
X275443Y370002D01*
X275392Y370008D01*
X275003Y370008D01*
X271312Y371536D01*
X270655Y372194D01*
X270613Y372224D01*
X270577Y372262D01*
X270478Y372321D01*
X270455Y372337D01*
X270446Y372340D01*
X270433Y372348D01*
X270357Y372382D01*
X270206Y372618D01*
X270200Y372625D01*
X270164Y372670D01*
X270148Y372697D01*
X270131Y372711D01*
X270104Y372745D01*
X268488Y374361D01*
X267430Y376916D01*
X267413Y376942D01*
X267367Y377036D01*
X267260Y377202D01*
X267257Y377221D01*
X267256Y377286D01*
X267233Y377366D01*
X267228Y377399D01*
X267218Y377416D01*
X267209Y377447D01*
X266959Y378051D01*
X266959Y382046D01*
X267209Y382649D01*
X267224Y382713D01*
X267249Y382774D01*
X267258Y382857D01*
X267266Y382889D01*
X267264Y382901D01*
X267367Y383061D01*
X267379Y383089D01*
X267430Y383181D01*
X268488Y385736D01*
X270104Y387352D01*
X270109Y387359D01*
X270206Y387478D01*
X270357Y387714D01*
X270433Y387749D01*
X270476Y387778D01*
X270524Y387798D01*
X270614Y387870D01*
X270637Y387886D01*
X270643Y387894D01*
X270655Y387903D01*
X271312Y388560D01*
X275003Y390089D01*
X275392Y390089D01*
X275467Y390101D01*
X275500Y390097D01*
X275533Y390097D01*
X275608Y390089D01*
X278997Y390089D01*
X280740Y389367D01*
X280751Y389365D01*
X280760Y389359D01*
X280923Y389317D01*
X281214Y389275D01*
X281351Y389156D01*
X281384Y389136D01*
X281412Y389109D01*
X281558Y389028D01*
X282688Y388560D01*
X285512Y385736D01*
X287041Y382046D01*
X287041Y380508D01*
X287045Y380484D01*
X287042Y380459D01*
X287072Y380294D01*
X287144Y380048D01*
X287072Y379803D01*
X287069Y379778D01*
X287059Y379755D01*
X287041Y379589D01*
X287041Y378051D01*
X285512Y374361D01*
X282688Y371536D01*
X281558Y371068D01*
X281526Y371048D01*
X281489Y371036D01*
X281351Y370940D01*
X281350Y370939D01*
X281349Y370939D01*
X281214Y370821D01*
X280923Y370779D01*
X280912Y370776D01*
X280901Y370776D01*
X280740Y370729D01*
X278997Y370008D01*
X275608Y370008D01*
X275576Y370002D01*
X275500Y370000D01*
X275489Y369998D01*
X275471Y370003D01*
G37*
%LPD*%
%LPC*%
G36*
X596389Y44310D02*
X596389Y44310D01*
X590707Y49993D01*
X590707Y58029D01*
X596389Y63712D01*
X604426Y63712D01*
X610108Y58029D01*
X610108Y49993D01*
X604426Y44310D01*
X596389Y44310D01*
G37*
%LPD*%
%LPC*%
G36*
X477545Y841334D02*
X477545Y841334D01*
X471862Y847017D01*
X471862Y855053D01*
X477545Y860735D01*
X485581Y860735D01*
X491264Y855053D01*
X491264Y847017D01*
X485581Y841334D01*
X477545Y841334D01*
G37*
%LPD*%
%LPC*%
G36*
X570989Y18910D02*
X570989Y18910D01*
X565307Y24593D01*
X565307Y32629D01*
X570989Y38312D01*
X579026Y38312D01*
X584708Y32629D01*
X584708Y24593D01*
X579026Y18910D01*
X570989Y18910D01*
G37*
%LPD*%
%LPC*%
G36*
X545589Y44310D02*
X545589Y44310D01*
X539907Y49993D01*
X539907Y58029D01*
X545589Y63712D01*
X553626Y63712D01*
X559308Y58029D01*
X559308Y49993D01*
X553626Y44310D01*
X545589Y44310D01*
G37*
%LPD*%
%LPC*%
G36*
X375945Y841334D02*
X375945Y841334D01*
X370262Y847017D01*
X370262Y855053D01*
X375945Y860735D01*
X383981Y860735D01*
X389664Y855053D01*
X389664Y847017D01*
X383981Y841334D01*
X375945Y841334D01*
G37*
%LPD*%
%LPC*%
G36*
X432000Y85235D02*
X432000Y85235D01*
X428435Y86712D01*
X425706Y89441D01*
X424229Y93006D01*
X424229Y96865D01*
X425706Y100431D01*
X428435Y103160D01*
X432000Y104636D01*
X435859Y104636D01*
X439425Y103160D01*
X442154Y100431D01*
X443631Y96865D01*
X443631Y93006D01*
X442154Y89441D01*
X439425Y86712D01*
X435859Y85235D01*
X432000Y85235D01*
G37*
%LPD*%
%LPC*%
G36*
X406600Y85235D02*
X406600Y85235D01*
X403035Y86712D01*
X400306Y89441D01*
X398829Y93006D01*
X398829Y96865D01*
X400306Y100431D01*
X403035Y103160D01*
X406600Y104636D01*
X410459Y104636D01*
X414025Y103160D01*
X416754Y100431D01*
X418231Y96865D01*
X418231Y93006D01*
X416754Y89441D01*
X414025Y86712D01*
X410459Y85235D01*
X406600Y85235D01*
G37*
%LPD*%
%LPC*%
G36*
X482800Y9035D02*
X482800Y9035D01*
X479235Y10512D01*
X476506Y13241D01*
X475029Y16806D01*
X475029Y20665D01*
X476506Y24231D01*
X479235Y26960D01*
X482800Y28436D01*
X486659Y28436D01*
X490225Y26960D01*
X492954Y24231D01*
X494431Y20665D01*
X494431Y16806D01*
X492954Y13241D01*
X490225Y10512D01*
X486659Y9035D01*
X482800Y9035D01*
G37*
%LPD*%
%LPC*%
G36*
X457400Y85235D02*
X457400Y85235D01*
X453835Y86712D01*
X451106Y89441D01*
X449629Y93006D01*
X449629Y96865D01*
X451106Y100431D01*
X453835Y103160D01*
X457400Y104636D01*
X461259Y104636D01*
X464825Y103160D01*
X467554Y100431D01*
X469031Y96865D01*
X469031Y93006D01*
X467554Y89441D01*
X464825Y86712D01*
X461259Y85235D01*
X457400Y85235D01*
G37*
%LPD*%
%LPC*%
G36*
X457400Y9035D02*
X457400Y9035D01*
X453835Y10512D01*
X451106Y13241D01*
X449629Y16806D01*
X449629Y20665D01*
X451106Y24231D01*
X453835Y26960D01*
X457400Y28436D01*
X461259Y28436D01*
X464825Y26960D01*
X467554Y24231D01*
X469031Y20665D01*
X469031Y16806D01*
X467554Y13241D01*
X464825Y10512D01*
X461259Y9035D01*
X457400Y9035D01*
G37*
%LPD*%
%LPC*%
G36*
X601651Y951315D02*
X601651Y951315D01*
X598129Y952773D01*
X595434Y955469D01*
X593976Y958990D01*
X593976Y962801D01*
X595434Y966323D01*
X598129Y969018D01*
X601651Y970476D01*
X605462Y970476D01*
X608984Y969018D01*
X611679Y966323D01*
X613137Y962801D01*
X613137Y958990D01*
X611679Y955469D01*
X608984Y952773D01*
X605462Y951315D01*
X601651Y951315D01*
G37*
%LPD*%
%LPC*%
G36*
X501412Y420855D02*
X501412Y420855D01*
X496055Y426212D01*
X496055Y433788D01*
X501412Y439145D01*
X508988Y439145D01*
X514345Y433788D01*
X514345Y426212D01*
X508988Y420855D01*
X501412Y420855D01*
G37*
%LPD*%
%LPC*%
G36*
X541412Y340855D02*
X541412Y340855D01*
X536055Y346212D01*
X536055Y353788D01*
X541412Y359145D01*
X548988Y359145D01*
X554345Y353788D01*
X554345Y346212D01*
X548988Y340855D01*
X541412Y340855D01*
G37*
%LPD*%
%LPC*%
G36*
X341412Y260855D02*
X341412Y260855D01*
X336055Y266212D01*
X336055Y273788D01*
X341412Y279145D01*
X348988Y279145D01*
X354345Y273788D01*
X354345Y266212D01*
X348988Y260855D01*
X341412Y260855D01*
G37*
%LPD*%
%LPC*%
G36*
X361412Y340855D02*
X361412Y340855D01*
X356055Y346212D01*
X356055Y353788D01*
X361412Y359145D01*
X368988Y359145D01*
X374345Y353788D01*
X374345Y346212D01*
X368988Y340855D01*
X361412Y340855D01*
G37*
%LPD*%
%LPC*%
G36*
X401412Y420855D02*
X401412Y420855D01*
X396055Y426212D01*
X396055Y433788D01*
X401412Y439145D01*
X408988Y439145D01*
X414345Y433788D01*
X414345Y426212D01*
X408988Y420855D01*
X401412Y420855D01*
G37*
%LPD*%
%LPC*%
G36*
X561412Y260855D02*
X561412Y260855D01*
X556055Y266212D01*
X556055Y273788D01*
X561412Y279145D01*
X568988Y279145D01*
X574345Y273788D01*
X574345Y266212D01*
X568988Y260855D01*
X561412Y260855D01*
G37*
%LPD*%
%LPC*%
G36*
X243987Y28948D02*
X243987Y28948D01*
X240748Y30290D01*
X238270Y32769D01*
X236928Y36007D01*
X236928Y39513D01*
X238270Y42752D01*
X240748Y45230D01*
X243987Y46572D01*
X247493Y46572D01*
X250731Y45230D01*
X253210Y42752D01*
X254552Y39513D01*
X254552Y36007D01*
X253210Y32769D01*
X250731Y30290D01*
X247493Y28948D01*
X243987Y28948D01*
G37*
%LPD*%
%LPC*%
G36*
X243987Y78948D02*
X243987Y78948D01*
X240748Y80290D01*
X238270Y82769D01*
X236928Y86007D01*
X236928Y89513D01*
X238270Y92752D01*
X240748Y95230D01*
X243987Y96572D01*
X247493Y96572D01*
X250731Y95230D01*
X253210Y92752D01*
X254552Y89513D01*
X254552Y86007D01*
X253210Y82769D01*
X250731Y80290D01*
X247493Y78948D01*
X243987Y78948D01*
G37*
%LPD*%
%LPC*%
G36*
X258389Y841903D02*
X258389Y841903D01*
X255414Y843136D01*
X253136Y845414D01*
X251903Y848389D01*
X251903Y851611D01*
X253136Y854586D01*
X255414Y856864D01*
X258389Y858097D01*
X261611Y858097D01*
X264586Y856864D01*
X266864Y854586D01*
X268097Y851611D01*
X268097Y848389D01*
X266864Y845414D01*
X264586Y843136D01*
X261611Y841903D01*
X258389Y841903D01*
G37*
%LPD*%
%LPC*%
G36*
X108389Y721903D02*
X108389Y721903D01*
X105414Y723136D01*
X103136Y725414D01*
X101903Y728389D01*
X101903Y731611D01*
X103136Y734586D01*
X105414Y736864D01*
X108389Y738097D01*
X111611Y738097D01*
X114586Y736864D01*
X116864Y734586D01*
X118097Y731611D01*
X118097Y728389D01*
X116864Y725414D01*
X114586Y723136D01*
X111611Y721903D01*
X108389Y721903D01*
G37*
%LPD*%
%LPC*%
G36*
X524359Y786710D02*
X524359Y786710D01*
X522444Y787014D01*
X520600Y787613D01*
X518872Y788493D01*
X517303Y789633D01*
X515932Y791004D01*
X514792Y792573D01*
X513912Y794301D01*
X513313Y796145D01*
X513097Y797507D01*
X533585Y797507D01*
X533585Y786710D01*
X524359Y786710D01*
G37*
%LPD*%
%LPC*%
G36*
X98023Y382673D02*
X98023Y382673D01*
X98023Y393441D01*
X107217Y393441D01*
X109128Y393138D01*
X110968Y392540D01*
X112692Y391662D01*
X114257Y390525D01*
X115625Y389157D01*
X116762Y387592D01*
X117640Y385868D01*
X118238Y384028D01*
X118453Y382673D01*
X98023Y382673D01*
G37*
%LPD*%
%LPC*%
G36*
X225023Y382673D02*
X225023Y382673D01*
X225023Y393441D01*
X234217Y393441D01*
X236128Y393138D01*
X237968Y392540D01*
X239692Y391662D01*
X241257Y390525D01*
X242625Y389157D01*
X243762Y387592D01*
X244640Y385868D01*
X245238Y384028D01*
X245453Y382673D01*
X225023Y382673D01*
G37*
%LPD*%
%LPC*%
G36*
X790023Y382673D02*
X790023Y382673D01*
X790023Y393441D01*
X799217Y393441D01*
X801128Y393138D01*
X802968Y392540D01*
X804692Y391662D01*
X806257Y390525D01*
X807625Y389157D01*
X808762Y387592D01*
X809640Y385868D01*
X810238Y384028D01*
X810453Y382673D01*
X790023Y382673D01*
G37*
%LPD*%
%LPC*%
G36*
X98023Y220373D02*
X98023Y220373D01*
X98023Y231141D01*
X107217Y231141D01*
X109128Y230838D01*
X110968Y230240D01*
X112692Y229362D01*
X114257Y228225D01*
X115625Y226857D01*
X116762Y225292D01*
X117640Y223568D01*
X118238Y221728D01*
X118453Y220373D01*
X98023Y220373D01*
G37*
%LPD*%
%LPC*%
G36*
X790023Y220373D02*
X790023Y220373D01*
X790023Y231141D01*
X799217Y231141D01*
X801128Y230838D01*
X802968Y230240D01*
X804692Y229362D01*
X806257Y228225D01*
X807625Y226857D01*
X808762Y225292D01*
X809640Y223568D01*
X810238Y221728D01*
X810453Y220373D01*
X790023Y220373D01*
G37*
%LPD*%
%LPC*%
G36*
X663023Y220373D02*
X663023Y220373D01*
X663023Y231141D01*
X672217Y231141D01*
X674128Y230838D01*
X675968Y230240D01*
X677692Y229362D01*
X679257Y228225D01*
X680625Y226857D01*
X681762Y225292D01*
X682640Y223568D01*
X683238Y221728D01*
X683453Y220373D01*
X663023Y220373D01*
G37*
%LPD*%
%LPC*%
G36*
X766547Y382673D02*
X766547Y382673D01*
X766762Y384028D01*
X767360Y385868D01*
X768238Y387592D01*
X769375Y389157D01*
X770743Y390525D01*
X772308Y391662D01*
X774032Y392540D01*
X775872Y393138D01*
X777783Y393441D01*
X786977Y393441D01*
X786977Y382673D01*
X766547Y382673D01*
G37*
%LPD*%
%LPC*%
G36*
X201547Y382673D02*
X201547Y382673D01*
X201762Y384028D01*
X202360Y385868D01*
X203238Y387592D01*
X204375Y389157D01*
X205743Y390525D01*
X207308Y391662D01*
X209032Y392540D01*
X210872Y393138D01*
X212783Y393441D01*
X221977Y393441D01*
X221977Y382673D01*
X201547Y382673D01*
G37*
%LPD*%
%LPC*%
G36*
X766547Y220373D02*
X766547Y220373D01*
X766762Y221728D01*
X767360Y223568D01*
X768238Y225292D01*
X769375Y226857D01*
X770743Y228225D01*
X772308Y229362D01*
X774032Y230240D01*
X775872Y230838D01*
X777783Y231141D01*
X786977Y231141D01*
X786977Y220373D01*
X766547Y220373D01*
G37*
%LPD*%
%LPC*%
G36*
X74547Y382673D02*
X74547Y382673D01*
X74762Y384028D01*
X75360Y385868D01*
X76238Y387592D01*
X77375Y389157D01*
X78743Y390525D01*
X80308Y391662D01*
X82032Y392540D01*
X83872Y393138D01*
X85783Y393441D01*
X94977Y393441D01*
X94977Y382673D01*
X74547Y382673D01*
G37*
%LPD*%
%LPC*%
G36*
X639547Y220373D02*
X639547Y220373D01*
X639762Y221728D01*
X640360Y223568D01*
X641238Y225292D01*
X642375Y226857D01*
X643743Y228225D01*
X645308Y229362D01*
X647032Y230240D01*
X648872Y230838D01*
X650783Y231141D01*
X659977Y231141D01*
X659977Y220373D01*
X639547Y220373D01*
G37*
%LPD*%
%LPC*%
G36*
X74547Y220373D02*
X74547Y220373D01*
X74762Y221728D01*
X75360Y223568D01*
X76238Y225292D01*
X77375Y226857D01*
X78743Y228225D01*
X80308Y229362D01*
X82032Y230240D01*
X83872Y230838D01*
X85783Y231141D01*
X94977Y231141D01*
X94977Y220373D01*
X74547Y220373D01*
G37*
%LPD*%
%LPC*%
G36*
X225023Y368859D02*
X225023Y368859D01*
X225023Y379627D01*
X245453Y379627D01*
X245238Y378272D01*
X244640Y376432D01*
X243762Y374708D01*
X242625Y373143D01*
X241257Y371775D01*
X239692Y370638D01*
X237968Y369760D01*
X236128Y369162D01*
X234217Y368859D01*
X225023Y368859D01*
G37*
%LPD*%
%LPC*%
G36*
X790023Y206559D02*
X790023Y206559D01*
X790023Y217327D01*
X810453Y217327D01*
X810238Y215972D01*
X809640Y214132D01*
X808762Y212408D01*
X807625Y210843D01*
X806257Y209475D01*
X804692Y208338D01*
X802968Y207460D01*
X801128Y206862D01*
X799217Y206559D01*
X790023Y206559D01*
G37*
%LPD*%
%LPC*%
G36*
X790023Y368859D02*
X790023Y368859D01*
X790023Y379627D01*
X810453Y379627D01*
X810238Y378272D01*
X809640Y376432D01*
X808762Y374708D01*
X807625Y373143D01*
X806257Y371775D01*
X804692Y370638D01*
X802968Y369760D01*
X801128Y369162D01*
X799217Y368859D01*
X790023Y368859D01*
G37*
%LPD*%
%LPC*%
G36*
X98023Y206559D02*
X98023Y206559D01*
X98023Y217327D01*
X118453Y217327D01*
X118238Y215972D01*
X117640Y214132D01*
X116762Y212408D01*
X115625Y210843D01*
X114257Y209475D01*
X112692Y208338D01*
X110968Y207460D01*
X109128Y206862D01*
X107217Y206559D01*
X98023Y206559D01*
G37*
%LPD*%
%LPC*%
G36*
X663023Y206559D02*
X663023Y206559D01*
X663023Y217327D01*
X683453Y217327D01*
X683238Y215972D01*
X682640Y214132D01*
X681762Y212408D01*
X680625Y210843D01*
X679257Y209475D01*
X677692Y208338D01*
X675968Y207460D01*
X674128Y206862D01*
X672217Y206559D01*
X663023Y206559D01*
G37*
%LPD*%
%LPC*%
G36*
X98023Y368859D02*
X98023Y368859D01*
X98023Y379627D01*
X118453Y379627D01*
X118238Y378272D01*
X117640Y376432D01*
X116762Y374708D01*
X115625Y373143D01*
X114257Y371775D01*
X112692Y370638D01*
X110968Y369760D01*
X109128Y369162D01*
X107217Y368859D01*
X98023Y368859D01*
G37*
%LPD*%
%LPC*%
G36*
X212783Y368859D02*
X212783Y368859D01*
X210872Y369162D01*
X209032Y369760D01*
X207308Y370638D01*
X205743Y371775D01*
X204375Y373143D01*
X203238Y374708D01*
X202360Y376432D01*
X201762Y378272D01*
X201547Y379627D01*
X221977Y379627D01*
X221977Y368859D01*
X212783Y368859D01*
G37*
%LPD*%
%LPC*%
G36*
X85783Y368859D02*
X85783Y368859D01*
X83872Y369162D01*
X82032Y369760D01*
X80308Y370638D01*
X78743Y371775D01*
X77375Y373143D01*
X76238Y374708D01*
X75360Y376432D01*
X74762Y378272D01*
X74547Y379627D01*
X94977Y379627D01*
X94977Y368859D01*
X85783Y368859D01*
G37*
%LPD*%
%LPC*%
G36*
X777783Y206559D02*
X777783Y206559D01*
X775872Y206862D01*
X774032Y207460D01*
X772308Y208338D01*
X770743Y209475D01*
X769375Y210843D01*
X768238Y212408D01*
X767360Y214132D01*
X766762Y215972D01*
X766547Y217327D01*
X786977Y217327D01*
X786977Y206559D01*
X777783Y206559D01*
G37*
%LPD*%
%LPC*%
G36*
X777783Y368859D02*
X777783Y368859D01*
X775872Y369162D01*
X774032Y369760D01*
X772308Y370638D01*
X770743Y371775D01*
X769375Y373143D01*
X768238Y374708D01*
X767360Y376432D01*
X766762Y378272D01*
X766547Y379627D01*
X786977Y379627D01*
X786977Y368859D01*
X777783Y368859D01*
G37*
%LPD*%
%LPC*%
G36*
X85783Y206559D02*
X85783Y206559D01*
X83872Y206862D01*
X82032Y207460D01*
X80308Y208338D01*
X78743Y209475D01*
X77375Y210843D01*
X76238Y212408D01*
X75360Y214132D01*
X74762Y215972D01*
X74547Y217327D01*
X94977Y217327D01*
X94977Y206559D01*
X85783Y206559D01*
G37*
%LPD*%
%LPC*%
G36*
X650783Y206559D02*
X650783Y206559D01*
X648872Y206862D01*
X647032Y207460D01*
X645308Y208338D01*
X643743Y209475D01*
X642375Y210843D01*
X641238Y212408D01*
X640360Y214132D01*
X639762Y215972D01*
X639547Y217327D01*
X659977Y217327D01*
X659977Y206559D01*
X650783Y206559D01*
G37*
%LPD*%
%LPC*%
G36*
X623500Y842459D02*
X623500Y842459D01*
X620728Y843607D01*
X618607Y845728D01*
X617459Y848500D01*
X617459Y851500D01*
X618607Y854272D01*
X620728Y856393D01*
X623500Y857541D01*
X626500Y857541D01*
X629272Y856393D01*
X631393Y854272D01*
X632541Y851500D01*
X632541Y848500D01*
X631393Y845728D01*
X629272Y843607D01*
X626500Y842459D01*
X623500Y842459D01*
G37*
%LPD*%
%LPC*%
G36*
X658500Y472459D02*
X658500Y472459D01*
X655728Y473607D01*
X653607Y475728D01*
X652459Y478500D01*
X652459Y481500D01*
X653607Y484272D01*
X655728Y486393D01*
X658500Y487541D01*
X661500Y487541D01*
X664272Y486393D01*
X666393Y484272D01*
X667541Y481500D01*
X667541Y478500D01*
X666393Y475728D01*
X664272Y473607D01*
X661500Y472459D01*
X658500Y472459D01*
G37*
%LPD*%
%LPC*%
G36*
X441000Y652459D02*
X441000Y652459D01*
X438228Y653607D01*
X436107Y655728D01*
X434959Y658500D01*
X434959Y661500D01*
X436107Y664272D01*
X438228Y666393D01*
X441000Y667541D01*
X444000Y667541D01*
X446772Y666393D01*
X448893Y664272D01*
X450041Y661500D01*
X450041Y658500D01*
X448893Y655728D01*
X446772Y653607D01*
X444000Y652459D01*
X441000Y652459D01*
G37*
%LPD*%
%LPC*%
G36*
X223500Y472459D02*
X223500Y472459D01*
X220728Y473607D01*
X218607Y475728D01*
X217459Y478500D01*
X217459Y481500D01*
X218607Y484272D01*
X220728Y486393D01*
X223500Y487541D01*
X226500Y487541D01*
X229272Y486393D01*
X231393Y484272D01*
X232541Y481500D01*
X232541Y478500D01*
X231393Y475728D01*
X229272Y473607D01*
X226500Y472459D01*
X223500Y472459D01*
G37*
%LPD*%
%LPC*%
G36*
X773500Y722459D02*
X773500Y722459D01*
X770728Y723607D01*
X768607Y725728D01*
X767459Y728500D01*
X767459Y731500D01*
X768607Y734272D01*
X770728Y736393D01*
X773500Y737541D01*
X776500Y737541D01*
X779272Y736393D01*
X781393Y734272D01*
X782541Y731500D01*
X782541Y728500D01*
X781393Y725728D01*
X779272Y723607D01*
X776500Y722459D01*
X773500Y722459D01*
G37*
%LPD*%
%LPC*%
G36*
X782335Y571220D02*
X782335Y571220D01*
X782335Y581635D01*
X791149Y581635D01*
X793005Y581342D01*
X794792Y580761D01*
X796467Y579908D01*
X797987Y578803D01*
X799316Y577474D01*
X800420Y575954D01*
X801274Y574280D01*
X801854Y572492D01*
X802056Y571220D01*
X782335Y571220D01*
G37*
%LPD*%
%LPC*%
G36*
X759567Y571220D02*
X759567Y571220D01*
X759769Y572492D01*
X760349Y574280D01*
X761202Y575954D01*
X762307Y577474D01*
X763636Y578803D01*
X765156Y579908D01*
X766831Y580761D01*
X768618Y581342D01*
X770474Y581635D01*
X779288Y581635D01*
X779288Y571220D01*
X759567Y571220D01*
G37*
%LPD*%
%LPC*%
G36*
X688061Y101523D02*
X688061Y101523D01*
X688061Y110338D01*
X688355Y112194D01*
X688936Y113981D01*
X689789Y115655D01*
X690894Y117176D01*
X692222Y118504D01*
X693743Y119609D01*
X695417Y120462D01*
X697204Y121043D01*
X698477Y121244D01*
X698477Y101523D01*
X688061Y101523D01*
G37*
%LPD*%
%LPC*%
G36*
X782335Y557758D02*
X782335Y557758D01*
X782335Y568174D01*
X802056Y568174D01*
X801854Y566901D01*
X801274Y565114D01*
X800420Y563440D01*
X799316Y561919D01*
X797987Y560590D01*
X796467Y559486D01*
X794792Y558633D01*
X793005Y558052D01*
X791149Y557758D01*
X782335Y557758D01*
G37*
%LPD*%
%LPC*%
G36*
X697204Y78957D02*
X697204Y78957D01*
X695417Y79538D01*
X693743Y80391D01*
X692222Y81496D01*
X690894Y82824D01*
X689789Y84345D01*
X688936Y86019D01*
X688355Y87806D01*
X688061Y89662D01*
X688061Y98477D01*
X698477Y98477D01*
X698477Y78756D01*
X697204Y78957D01*
G37*
%LPD*%
%LPC*%
G36*
X770474Y557758D02*
X770474Y557758D01*
X768618Y558052D01*
X766831Y558633D01*
X765156Y559486D01*
X763636Y560590D01*
X762307Y561919D01*
X761202Y563440D01*
X760349Y565114D01*
X759769Y566901D01*
X759567Y568174D01*
X779288Y568174D01*
X779288Y557758D01*
X770474Y557758D01*
G37*
%LPD*%
%LPC*%
G36*
X269195Y929999D02*
X269195Y929999D01*
X269195Y941811D01*
X273196Y941811D01*
X281008Y933999D01*
X281008Y929999D01*
X269195Y929999D01*
G37*
%LPD*%
%LPC*%
G36*
X310023Y381001D02*
X310023Y381001D01*
X310023Y392814D01*
X314024Y392814D01*
X321836Y385002D01*
X321836Y381001D01*
X310023Y381001D01*
G37*
%LPD*%
%LPC*%
G36*
X269195Y915140D02*
X269195Y915140D01*
X269195Y926952D01*
X281008Y926952D01*
X281008Y922951D01*
X273196Y915140D01*
X269195Y915140D01*
G37*
%LPD*%
%LPC*%
G36*
X295164Y381001D02*
X295164Y381001D01*
X295164Y385002D01*
X302976Y392814D01*
X306977Y392814D01*
X306977Y381001D01*
X295164Y381001D01*
G37*
%LPD*%
%LPC*%
G36*
X254336Y929999D02*
X254336Y929999D01*
X254336Y933999D01*
X262148Y941811D01*
X266149Y941811D01*
X266149Y929999D01*
X254336Y929999D01*
G37*
%LPD*%
%LPC*%
G36*
X310023Y366142D02*
X310023Y366142D01*
X310023Y377955D01*
X321836Y377955D01*
X321836Y373954D01*
X314024Y366142D01*
X310023Y366142D01*
G37*
%LPD*%
%LPC*%
G36*
X262148Y915140D02*
X262148Y915140D01*
X254336Y922951D01*
X254336Y926952D01*
X266149Y926952D01*
X266149Y915140D01*
X262148Y915140D01*
G37*
%LPD*%
%LPC*%
G36*
X302976Y366142D02*
X302976Y366142D01*
X295164Y373954D01*
X295164Y377955D01*
X306977Y377955D01*
X306977Y366142D01*
X302976Y366142D01*
G37*
%LPD*%
%LPC*%
G36*
X801523Y661523D02*
X801523Y661523D01*
X801523Y671939D01*
X809732Y671939D01*
X810379Y671766D01*
X810958Y671431D01*
X811431Y670958D01*
X811766Y670379D01*
X811939Y669732D01*
X811939Y661523D01*
X801523Y661523D01*
G37*
%LPD*%
%LPC*%
G36*
X469023Y591523D02*
X469023Y591523D01*
X469023Y601939D01*
X477232Y601939D01*
X477879Y601766D01*
X478458Y601431D01*
X478931Y600958D01*
X479266Y600379D01*
X479439Y599732D01*
X479439Y591523D01*
X469023Y591523D01*
G37*
%LPD*%
%LPC*%
G36*
X651523Y781523D02*
X651523Y781523D01*
X651523Y791939D01*
X659732Y791939D01*
X660379Y791766D01*
X660958Y791431D01*
X661431Y790958D01*
X661766Y790379D01*
X661939Y789732D01*
X661939Y781523D01*
X651523Y781523D01*
G37*
%LPD*%
%LPC*%
G36*
X296523Y506523D02*
X296523Y506523D01*
X296523Y516939D01*
X304732Y516939D01*
X305379Y516766D01*
X305958Y516431D01*
X306431Y515958D01*
X306766Y515379D01*
X306939Y514732D01*
X306939Y506523D01*
X296523Y506523D01*
G37*
%LPD*%
%LPC*%
G36*
X283061Y506523D02*
X283061Y506523D01*
X283061Y514732D01*
X283234Y515379D01*
X283569Y515958D01*
X284042Y516431D01*
X284621Y516766D01*
X285268Y516939D01*
X293477Y516939D01*
X293477Y506523D01*
X283061Y506523D01*
G37*
%LPD*%
%LPC*%
G36*
X591523Y443061D02*
X591523Y443061D01*
X591523Y453477D01*
X601939Y453477D01*
X601939Y445268D01*
X601766Y444621D01*
X601431Y444042D01*
X600958Y443569D01*
X600379Y443234D01*
X599732Y443061D01*
X591523Y443061D01*
G37*
%LPD*%
%LPC*%
G36*
X651523Y768061D02*
X651523Y768061D01*
X651523Y778477D01*
X661939Y778477D01*
X661939Y770268D01*
X661766Y769621D01*
X661431Y769042D01*
X660958Y768569D01*
X660379Y768234D01*
X659732Y768061D01*
X651523Y768061D01*
G37*
%LPD*%
%LPC*%
G36*
X469023Y578061D02*
X469023Y578061D01*
X469023Y588477D01*
X479439Y588477D01*
X479439Y580268D01*
X479266Y579621D01*
X478931Y579042D01*
X478458Y578569D01*
X477879Y578234D01*
X477232Y578061D01*
X469023Y578061D01*
G37*
%LPD*%
%LPC*%
G36*
X801523Y648061D02*
X801523Y648061D01*
X801523Y658477D01*
X811939Y658477D01*
X811939Y650268D01*
X811766Y649621D01*
X811431Y649042D01*
X810958Y648569D01*
X810379Y648234D01*
X809732Y648061D01*
X801523Y648061D01*
G37*
%LPD*%
%LPC*%
G36*
X580268Y443061D02*
X580268Y443061D01*
X579621Y443234D01*
X579042Y443569D01*
X578569Y444042D01*
X578234Y444621D01*
X578061Y445268D01*
X578061Y453477D01*
X588477Y453477D01*
X588477Y443061D01*
X580268Y443061D01*
G37*
%LPD*%
%LPC*%
G36*
X396628Y821922D02*
X396628Y821922D01*
X396628Y829544D01*
X402609Y829544D01*
X404376Y829192D01*
X406040Y828503D01*
X407538Y827502D01*
X408812Y826228D01*
X409813Y824731D01*
X410502Y823066D01*
X410730Y821922D01*
X396628Y821922D01*
G37*
%LPD*%
%LPC*%
G36*
X379480Y821922D02*
X379480Y821922D01*
X379707Y823066D01*
X380397Y824731D01*
X381398Y826228D01*
X382671Y827502D01*
X384169Y828503D01*
X385833Y829192D01*
X387600Y829544D01*
X393581Y829544D01*
X393581Y821922D01*
X379480Y821922D01*
G37*
%LPD*%
%LPC*%
G36*
X396628Y811254D02*
X396628Y811254D01*
X396628Y818876D01*
X410730Y818876D01*
X410502Y817731D01*
X409813Y816067D01*
X408812Y814569D01*
X407538Y813296D01*
X406040Y812295D01*
X404376Y811606D01*
X402609Y811254D01*
X396628Y811254D01*
G37*
%LPD*%
%LPC*%
G36*
X387600Y811254D02*
X387600Y811254D01*
X385833Y811606D01*
X384169Y812295D01*
X382671Y813296D01*
X381398Y814569D01*
X380397Y816067D01*
X379707Y817731D01*
X379480Y818876D01*
X393581Y818876D01*
X393581Y811254D01*
X387600Y811254D01*
G37*
%LPD*%
%LPC*%
G36*
X852723Y877823D02*
X852723Y877823D01*
X852723Y885381D01*
X858634Y885381D01*
X860389Y885032D01*
X862041Y884347D01*
X863529Y883353D01*
X864793Y882089D01*
X865787Y880601D01*
X866472Y878949D01*
X866696Y877823D01*
X852723Y877823D01*
G37*
%LPD*%
%LPC*%
G36*
X700323Y446023D02*
X700323Y446023D01*
X700323Y453581D01*
X706234Y453581D01*
X707989Y453232D01*
X709641Y452547D01*
X711129Y451553D01*
X712393Y450289D01*
X713387Y448801D01*
X714072Y447149D01*
X714296Y446023D01*
X700323Y446023D01*
G37*
%LPD*%
%LPC*%
G36*
X852723Y903223D02*
X852723Y903223D01*
X852723Y910781D01*
X858634Y910781D01*
X860389Y910432D01*
X862041Y909747D01*
X863529Y908753D01*
X864793Y907489D01*
X865787Y906001D01*
X866472Y904349D01*
X866696Y903223D01*
X852723Y903223D01*
G37*
%LPD*%
%LPC*%
G36*
X835704Y877823D02*
X835704Y877823D01*
X835928Y878949D01*
X836613Y880601D01*
X837607Y882089D01*
X838871Y883353D01*
X840359Y884347D01*
X842011Y885032D01*
X843766Y885381D01*
X849677Y885381D01*
X849677Y877823D01*
X835704Y877823D01*
G37*
%LPD*%
%LPC*%
G36*
X835704Y903223D02*
X835704Y903223D01*
X835928Y904349D01*
X836613Y906001D01*
X837607Y907489D01*
X838871Y908753D01*
X840359Y909747D01*
X842011Y910432D01*
X843766Y910781D01*
X849677Y910781D01*
X849677Y903223D01*
X835704Y903223D01*
G37*
%LPD*%
%LPC*%
G36*
X683304Y446023D02*
X683304Y446023D01*
X683528Y447149D01*
X684213Y448801D01*
X685207Y450289D01*
X686471Y451553D01*
X687959Y452547D01*
X689611Y453232D01*
X691366Y453581D01*
X697277Y453581D01*
X697277Y446023D01*
X683304Y446023D01*
G37*
%LPD*%
%LPC*%
G36*
X700323Y435419D02*
X700323Y435419D01*
X700323Y442977D01*
X714296Y442977D01*
X714072Y441851D01*
X713387Y440199D01*
X712393Y438711D01*
X711129Y437447D01*
X709641Y436453D01*
X707989Y435768D01*
X706234Y435419D01*
X700323Y435419D01*
G37*
%LPD*%
%LPC*%
G36*
X852723Y892619D02*
X852723Y892619D01*
X852723Y900177D01*
X866696Y900177D01*
X866472Y899051D01*
X865787Y897399D01*
X864793Y895911D01*
X863529Y894647D01*
X862041Y893653D01*
X860389Y892968D01*
X858634Y892619D01*
X852723Y892619D01*
G37*
%LPD*%
%LPC*%
G36*
X852723Y867219D02*
X852723Y867219D01*
X852723Y874777D01*
X866696Y874777D01*
X866472Y873651D01*
X865787Y871999D01*
X864793Y870511D01*
X863529Y869247D01*
X862041Y868253D01*
X860389Y867568D01*
X858634Y867219D01*
X852723Y867219D01*
G37*
%LPD*%
%LPC*%
G36*
X843766Y867219D02*
X843766Y867219D01*
X842011Y867568D01*
X840359Y868253D01*
X838871Y869247D01*
X837607Y870511D01*
X836613Y871999D01*
X835928Y873651D01*
X835704Y874777D01*
X849677Y874777D01*
X849677Y867219D01*
X843766Y867219D01*
G37*
%LPD*%
%LPC*%
G36*
X691366Y435419D02*
X691366Y435419D01*
X689611Y435768D01*
X687959Y436453D01*
X686471Y437447D01*
X685207Y438711D01*
X684213Y440199D01*
X683528Y441851D01*
X683304Y442977D01*
X697277Y442977D01*
X697277Y435419D01*
X691366Y435419D01*
G37*
%LPD*%
%LPC*%
G36*
X843766Y892619D02*
X843766Y892619D01*
X842011Y892968D01*
X840359Y893653D01*
X838871Y894647D01*
X837607Y895911D01*
X836613Y897399D01*
X835928Y899051D01*
X835704Y900177D01*
X849677Y900177D01*
X849677Y892619D01*
X843766Y892619D01*
G37*
%LPD*%
%LPC*%
G36*
X476535Y384129D02*
X476535Y384129D01*
X476535Y394452D01*
X477808Y394251D01*
X479595Y393670D01*
X481269Y392817D01*
X482790Y391712D01*
X484118Y390384D01*
X485223Y388863D01*
X486076Y387189D01*
X486657Y385402D01*
X486858Y384129D01*
X476535Y384129D01*
G37*
%LPD*%
%LPC*%
G36*
X463166Y384129D02*
X463166Y384129D01*
X463367Y385402D01*
X463948Y387189D01*
X464801Y388863D01*
X465906Y390384D01*
X467234Y391712D01*
X468755Y392817D01*
X470429Y393670D01*
X472216Y394251D01*
X473489Y394452D01*
X473489Y384129D01*
X463166Y384129D01*
G37*
%LPD*%
%LPC*%
G36*
X411963Y282077D02*
X411963Y282077D01*
X422286Y282077D01*
X422084Y280805D01*
X421503Y279017D01*
X420650Y277343D01*
X419546Y275823D01*
X418217Y274494D01*
X416697Y273389D01*
X415022Y272536D01*
X413235Y271956D01*
X411963Y271754D01*
X411963Y282077D01*
G37*
%LPD*%
%LPC*%
G36*
X476535Y381083D02*
X476535Y381083D01*
X486858Y381083D01*
X486657Y379810D01*
X486076Y378023D01*
X485223Y376349D01*
X484118Y374828D01*
X482790Y373500D01*
X481269Y372395D01*
X479595Y371542D01*
X477808Y370961D01*
X476535Y370760D01*
X476535Y381083D01*
G37*
%LPD*%
%LPC*%
G36*
X398593Y285124D02*
X398593Y285124D01*
X398795Y286396D01*
X399375Y288183D01*
X400228Y289858D01*
X401333Y291378D01*
X402662Y292707D01*
X404182Y293811D01*
X405857Y294664D01*
X407644Y295245D01*
X408916Y295447D01*
X408916Y285124D01*
X398593Y285124D01*
G37*
%LPD*%
%LPC*%
G36*
X472216Y370961D02*
X472216Y370961D01*
X470429Y371542D01*
X468755Y372395D01*
X467234Y373500D01*
X465906Y374828D01*
X464801Y376349D01*
X463948Y378023D01*
X463367Y379810D01*
X463166Y381083D01*
X473489Y381083D01*
X473489Y370760D01*
X472216Y370961D01*
G37*
%LPD*%
%LPC*%
G36*
X407644Y271956D02*
X407644Y271956D01*
X405857Y272536D01*
X404182Y273389D01*
X402662Y274494D01*
X401333Y275823D01*
X400228Y277343D01*
X399375Y279017D01*
X398795Y280805D01*
X398593Y282077D01*
X408916Y282077D01*
X408916Y271754D01*
X407644Y271956D01*
G37*
%LPD*%
%LPC*%
G36*
X168215Y959031D02*
X168215Y959031D01*
X168215Y966966D01*
X168935Y966852D01*
X170370Y966386D01*
X171713Y965702D01*
X172933Y964815D01*
X174000Y963749D01*
X174886Y962529D01*
X175571Y961185D01*
X176037Y959751D01*
X176151Y959031D01*
X168215Y959031D01*
G37*
%LPD*%
%LPC*%
G36*
X128031Y179961D02*
X128031Y179961D01*
X128031Y187896D01*
X128752Y187782D01*
X130186Y187316D01*
X131530Y186632D01*
X132750Y185745D01*
X133816Y184679D01*
X134702Y183459D01*
X135387Y182115D01*
X135853Y180681D01*
X135967Y179961D01*
X128031Y179961D01*
G37*
%LPD*%
%LPC*%
G36*
X168215Y955984D02*
X168215Y955984D01*
X176151Y955984D01*
X176037Y955264D01*
X175571Y953830D01*
X174886Y952486D01*
X174000Y951266D01*
X172933Y950200D01*
X171713Y949313D01*
X170370Y948629D01*
X168935Y948163D01*
X168215Y948048D01*
X168215Y955984D01*
G37*
%LPD*%
%LPC*%
G36*
X157233Y959031D02*
X157233Y959031D01*
X157347Y959751D01*
X157813Y961185D01*
X158498Y962529D01*
X159384Y963749D01*
X160450Y964815D01*
X161671Y965702D01*
X163014Y966386D01*
X164448Y966852D01*
X165169Y966966D01*
X165169Y959031D01*
X157233Y959031D01*
G37*
%LPD*%
%LPC*%
G36*
X128031Y176914D02*
X128031Y176914D01*
X135967Y176914D01*
X135853Y176194D01*
X135387Y174760D01*
X134702Y173416D01*
X133816Y172196D01*
X132750Y171130D01*
X131530Y170243D01*
X130186Y169559D01*
X128752Y169092D01*
X128031Y168978D01*
X128031Y176914D01*
G37*
%LPD*%
%LPC*%
G36*
X117049Y179961D02*
X117049Y179961D01*
X117163Y180681D01*
X117629Y182115D01*
X118314Y183459D01*
X119201Y184679D01*
X120267Y185745D01*
X121487Y186632D01*
X122830Y187316D01*
X124265Y187782D01*
X124985Y187896D01*
X124985Y179961D01*
X117049Y179961D01*
G37*
%LPD*%
%LPC*%
G36*
X124265Y169092D02*
X124265Y169092D01*
X122830Y169559D01*
X121487Y170243D01*
X120267Y171130D01*
X119201Y172196D01*
X118314Y173416D01*
X117629Y174760D01*
X117163Y176194D01*
X117049Y176914D01*
X124985Y176914D01*
X124985Y168978D01*
X124265Y169092D01*
G37*
%LPD*%
%LPC*%
G36*
X164448Y948163D02*
X164448Y948163D01*
X163014Y948629D01*
X161671Y949313D01*
X160450Y950200D01*
X159384Y951266D01*
X158498Y952486D01*
X157813Y953830D01*
X157347Y955264D01*
X157233Y955984D01*
X165169Y955984D01*
X165169Y948048D01*
X164448Y948163D01*
G37*
%LPD*%
%LPC*%
G36*
X321323Y271523D02*
X321323Y271523D01*
X321323Y279145D01*
X323588Y279145D01*
X328945Y273788D01*
X328945Y271523D01*
X321323Y271523D01*
G37*
%LPD*%
%LPC*%
G36*
X541323Y271523D02*
X541323Y271523D01*
X541323Y279145D01*
X543588Y279145D01*
X548945Y273788D01*
X548945Y271523D01*
X541323Y271523D01*
G37*
%LPD*%
%LPC*%
G36*
X481323Y431523D02*
X481323Y431523D01*
X481323Y439145D01*
X483588Y439145D01*
X488945Y433788D01*
X488945Y431523D01*
X481323Y431523D01*
G37*
%LPD*%
%LPC*%
G36*
X381323Y431523D02*
X381323Y431523D01*
X381323Y439145D01*
X383588Y439145D01*
X388945Y433788D01*
X388945Y431523D01*
X381323Y431523D01*
G37*
%LPD*%
%LPC*%
G36*
X341323Y351523D02*
X341323Y351523D01*
X341323Y359145D01*
X343588Y359145D01*
X348945Y353788D01*
X348945Y351523D01*
X341323Y351523D01*
G37*
%LPD*%
%LPC*%
G36*
X521323Y351523D02*
X521323Y351523D01*
X521323Y359145D01*
X523588Y359145D01*
X528945Y353788D01*
X528945Y351523D01*
X521323Y351523D01*
G37*
%LPD*%
%LPC*%
G36*
X470655Y431523D02*
X470655Y431523D01*
X470655Y433788D01*
X476012Y439145D01*
X478277Y439145D01*
X478277Y431523D01*
X470655Y431523D01*
G37*
%LPD*%
%LPC*%
G36*
X370655Y431523D02*
X370655Y431523D01*
X370655Y433788D01*
X376012Y439145D01*
X378277Y439145D01*
X378277Y431523D01*
X370655Y431523D01*
G37*
%LPD*%
%LPC*%
G36*
X330655Y351523D02*
X330655Y351523D01*
X330655Y353788D01*
X336012Y359145D01*
X338277Y359145D01*
X338277Y351523D01*
X330655Y351523D01*
G37*
%LPD*%
%LPC*%
G36*
X530655Y271523D02*
X530655Y271523D01*
X530655Y273788D01*
X536012Y279145D01*
X538277Y279145D01*
X538277Y271523D01*
X530655Y271523D01*
G37*
%LPD*%
%LPC*%
G36*
X510655Y351523D02*
X510655Y351523D01*
X510655Y353788D01*
X516012Y359145D01*
X518277Y359145D01*
X518277Y351523D01*
X510655Y351523D01*
G37*
%LPD*%
%LPC*%
G36*
X310655Y271523D02*
X310655Y271523D01*
X310655Y273788D01*
X316012Y279145D01*
X318277Y279145D01*
X318277Y271523D01*
X310655Y271523D01*
G37*
%LPD*%
%LPC*%
G36*
X481323Y420855D02*
X481323Y420855D01*
X481323Y428477D01*
X488945Y428477D01*
X488945Y426212D01*
X483588Y420855D01*
X481323Y420855D01*
G37*
%LPD*%
%LPC*%
G36*
X321323Y260855D02*
X321323Y260855D01*
X321323Y268477D01*
X328945Y268477D01*
X328945Y266212D01*
X323588Y260855D01*
X321323Y260855D01*
G37*
%LPD*%
%LPC*%
G36*
X541323Y260855D02*
X541323Y260855D01*
X541323Y268477D01*
X548945Y268477D01*
X548945Y266212D01*
X543588Y260855D01*
X541323Y260855D01*
G37*
%LPD*%
%LPC*%
G36*
X381323Y420855D02*
X381323Y420855D01*
X381323Y428477D01*
X388945Y428477D01*
X388945Y426212D01*
X383588Y420855D01*
X381323Y420855D01*
G37*
%LPD*%
%LPC*%
G36*
X341323Y340855D02*
X341323Y340855D01*
X341323Y348477D01*
X348945Y348477D01*
X348945Y346212D01*
X343588Y340855D01*
X341323Y340855D01*
G37*
%LPD*%
%LPC*%
G36*
X521323Y340855D02*
X521323Y340855D01*
X521323Y348477D01*
X528945Y348477D01*
X528945Y346212D01*
X523588Y340855D01*
X521323Y340855D01*
G37*
%LPD*%
%LPC*%
G36*
X316012Y260855D02*
X316012Y260855D01*
X310655Y266212D01*
X310655Y268477D01*
X318277Y268477D01*
X318277Y260855D01*
X316012Y260855D01*
G37*
%LPD*%
%LPC*%
G36*
X536012Y260855D02*
X536012Y260855D01*
X530655Y266212D01*
X530655Y268477D01*
X538277Y268477D01*
X538277Y260855D01*
X536012Y260855D01*
G37*
%LPD*%
%LPC*%
G36*
X516012Y340855D02*
X516012Y340855D01*
X510655Y346212D01*
X510655Y348477D01*
X518277Y348477D01*
X518277Y340855D01*
X516012Y340855D01*
G37*
%LPD*%
%LPC*%
G36*
X336012Y340855D02*
X336012Y340855D01*
X330655Y346212D01*
X330655Y348477D01*
X338277Y348477D01*
X338277Y340855D01*
X336012Y340855D01*
G37*
%LPD*%
%LPC*%
G36*
X476012Y420855D02*
X476012Y420855D01*
X470655Y426212D01*
X470655Y428477D01*
X478277Y428477D01*
X478277Y420855D01*
X476012Y420855D01*
G37*
%LPD*%
%LPC*%
G36*
X376012Y420855D02*
X376012Y420855D01*
X370655Y426212D01*
X370655Y428477D01*
X378277Y428477D01*
X378277Y420855D01*
X376012Y420855D01*
G37*
%LPD*%
%LPC*%
G36*
X719293Y963853D02*
X719293Y963853D01*
X719293Y971500D01*
X720480Y971264D01*
X722170Y970563D01*
X723692Y969546D01*
X724986Y968252D01*
X726003Y966731D01*
X726703Y965040D01*
X726939Y963853D01*
X719293Y963853D01*
G37*
%LPD*%
%LPC*%
G36*
X663162Y965614D02*
X663162Y965614D01*
X663162Y973260D01*
X664349Y973024D01*
X666039Y972324D01*
X667561Y971307D01*
X668855Y970013D01*
X669872Y968491D01*
X670572Y966800D01*
X670808Y965614D01*
X663162Y965614D01*
G37*
%LPD*%
%LPC*%
G36*
X146535Y43829D02*
X146535Y43829D01*
X146535Y51475D01*
X147722Y51239D01*
X149413Y50539D01*
X150935Y49522D01*
X152229Y48228D01*
X153246Y46706D01*
X153946Y45015D01*
X154182Y43829D01*
X146535Y43829D01*
G37*
%LPD*%
%LPC*%
G36*
X663162Y962567D02*
X663162Y962567D01*
X670808Y962567D01*
X670572Y961381D01*
X669872Y959690D01*
X668855Y958168D01*
X667561Y956874D01*
X666039Y955857D01*
X664349Y955157D01*
X663162Y954921D01*
X663162Y962567D01*
G37*
%LPD*%
%LPC*%
G36*
X48079Y97755D02*
X48079Y97755D01*
X55725Y97755D01*
X55489Y96569D01*
X54789Y94878D01*
X53772Y93356D01*
X52478Y92062D01*
X50956Y91045D01*
X49265Y90345D01*
X48079Y90109D01*
X48079Y97755D01*
G37*
%LPD*%
%LPC*%
G36*
X217717Y937496D02*
X217717Y937496D01*
X225364Y937496D01*
X225128Y936310D01*
X224428Y934619D01*
X223411Y933097D01*
X222117Y931803D01*
X220595Y930786D01*
X218904Y930086D01*
X217717Y929850D01*
X217717Y937496D01*
G37*
%LPD*%
%LPC*%
G36*
X719293Y960807D02*
X719293Y960807D01*
X726939Y960807D01*
X726703Y959620D01*
X726003Y957929D01*
X724986Y956407D01*
X723692Y955113D01*
X722170Y954096D01*
X720480Y953396D01*
X719293Y953160D01*
X719293Y960807D01*
G37*
%LPD*%
%LPC*%
G36*
X146535Y40782D02*
X146535Y40782D01*
X154182Y40782D01*
X153946Y39595D01*
X153246Y37905D01*
X152229Y36383D01*
X150935Y35089D01*
X149413Y34072D01*
X147722Y33372D01*
X146535Y33136D01*
X146535Y40782D01*
G37*
%LPD*%
%LPC*%
G36*
X43845Y90345D02*
X43845Y90345D01*
X42155Y91045D01*
X40633Y92062D01*
X39339Y93356D01*
X38322Y94878D01*
X37622Y96569D01*
X37386Y97755D01*
X45032Y97755D01*
X45032Y90109D01*
X43845Y90345D01*
G37*
%LPD*%
%LPC*%
G36*
X213484Y930086D02*
X213484Y930086D01*
X211793Y930786D01*
X210272Y931803D01*
X208978Y933097D01*
X207961Y934619D01*
X207261Y936310D01*
X207025Y937496D01*
X214671Y937496D01*
X214671Y929850D01*
X213484Y930086D01*
G37*
%LPD*%
%LPC*%
G36*
X410053Y20259D02*
X410053Y20259D01*
X410053Y27757D01*
X411197Y27529D01*
X412861Y26840D01*
X414359Y25839D01*
X415633Y24565D01*
X416634Y23067D01*
X417323Y21403D01*
X417551Y20259D01*
X410053Y20259D01*
G37*
%LPD*%
%LPC*%
G36*
X410053Y17212D02*
X410053Y17212D01*
X417551Y17212D01*
X417323Y16068D01*
X416634Y14404D01*
X415633Y12906D01*
X414359Y11633D01*
X412861Y10632D01*
X411197Y9942D01*
X410053Y9715D01*
X410053Y17212D01*
G37*
%LPD*%
%LPC*%
G36*
X399509Y20259D02*
X399509Y20259D01*
X399737Y21403D01*
X400426Y23067D01*
X401427Y24565D01*
X402700Y25839D01*
X404198Y26840D01*
X405862Y27529D01*
X407007Y27757D01*
X407007Y20259D01*
X399509Y20259D01*
G37*
%LPD*%
%LPC*%
G36*
X405862Y9942D02*
X405862Y9942D01*
X404198Y10632D01*
X402700Y11633D01*
X401427Y12906D01*
X400426Y14404D01*
X399737Y16068D01*
X399509Y17212D01*
X407007Y17212D01*
X407007Y9715D01*
X405862Y9942D01*
G37*
%LPD*%
%LPC*%
G36*
X851199Y901699D02*
X851199Y901699D01*
X851199Y901701D01*
X851201Y901701D01*
X851201Y901699D01*
X851199Y901699D01*
G37*
%LPD*%
%LPC*%
G36*
X126507Y178436D02*
X126507Y178436D01*
X126507Y178438D01*
X126509Y178438D01*
X126509Y178436D01*
X126507Y178436D01*
G37*
%LPD*%
%LPC*%
G36*
X267671Y928474D02*
X267671Y928474D01*
X267671Y928476D01*
X267673Y928476D01*
X267673Y928474D01*
X267671Y928474D01*
G37*
%LPD*%
%LPC*%
G36*
X395104Y820398D02*
X395104Y820398D01*
X395104Y820400D01*
X395106Y820400D01*
X395106Y820398D01*
X395104Y820398D01*
G37*
%LPD*%
%LPC*%
G36*
X475011Y382605D02*
X475011Y382605D01*
X475011Y382607D01*
X475013Y382607D01*
X475013Y382605D01*
X475011Y382605D01*
G37*
%LPD*%
%LPC*%
G36*
X96499Y381149D02*
X96499Y381149D01*
X96499Y381151D01*
X96501Y381151D01*
X96501Y381149D01*
X96499Y381149D01*
G37*
%LPD*%
%LPC*%
G36*
X698799Y444499D02*
X698799Y444499D01*
X698799Y444501D01*
X698801Y444501D01*
X698801Y444499D01*
X698799Y444499D01*
G37*
%LPD*%
%LPC*%
G36*
X96499Y218849D02*
X96499Y218849D01*
X96499Y218851D01*
X96501Y218851D01*
X96501Y218849D01*
X96499Y218849D01*
G37*
%LPD*%
%LPC*%
G36*
X788499Y218849D02*
X788499Y218849D01*
X788499Y218851D01*
X788501Y218851D01*
X788501Y218849D01*
X788499Y218849D01*
G37*
%LPD*%
%LPC*%
G36*
X166691Y957506D02*
X166691Y957506D01*
X166691Y957508D01*
X166693Y957508D01*
X166693Y957506D01*
X166691Y957506D01*
G37*
%LPD*%
%LPC*%
G36*
X661499Y218849D02*
X661499Y218849D01*
X661499Y218851D01*
X661501Y218851D01*
X661501Y218849D01*
X661499Y218849D01*
G37*
%LPD*%
%LPC*%
G36*
X223499Y381149D02*
X223499Y381149D01*
X223499Y381151D01*
X223501Y381151D01*
X223501Y381149D01*
X223499Y381149D01*
G37*
%LPD*%
%LPC*%
G36*
X780811Y569696D02*
X780811Y569696D01*
X780811Y569698D01*
X780812Y569698D01*
X780812Y569696D01*
X780811Y569696D01*
G37*
%LPD*%
%LPC*%
G36*
X788499Y381149D02*
X788499Y381149D01*
X788499Y381151D01*
X788501Y381151D01*
X788501Y381149D01*
X788499Y381149D01*
G37*
%LPD*%
%LPC*%
G36*
X308499Y379477D02*
X308499Y379477D01*
X308499Y379479D01*
X308501Y379479D01*
X308501Y379477D01*
X308499Y379477D01*
G37*
%LPD*%
%LPC*%
G36*
X319799Y269999D02*
X319799Y269999D01*
X319799Y270001D01*
X319801Y270001D01*
X319801Y269999D01*
X319799Y269999D01*
G37*
%LPD*%
%LPC*%
G36*
X539799Y269999D02*
X539799Y269999D01*
X539799Y270001D01*
X539801Y270001D01*
X539801Y269999D01*
X539799Y269999D01*
G37*
%LPD*%
%LPC*%
G36*
X410439Y283599D02*
X410439Y283599D01*
X410439Y283601D01*
X410440Y283601D01*
X410440Y283599D01*
X410439Y283599D01*
G37*
%LPD*%
%LPC*%
G36*
X851199Y876299D02*
X851199Y876299D01*
X851199Y876301D01*
X851201Y876301D01*
X851201Y876299D01*
X851199Y876299D01*
G37*
%LPD*%
%LPC*%
G36*
X339799Y349999D02*
X339799Y349999D01*
X339799Y350001D01*
X339801Y350001D01*
X339801Y349999D01*
X339799Y349999D01*
G37*
%LPD*%
%LPC*%
G36*
X479799Y429999D02*
X479799Y429999D01*
X479799Y430001D01*
X479801Y430001D01*
X479801Y429999D01*
X479799Y429999D01*
G37*
%LPD*%
%LPC*%
G36*
X408529Y18735D02*
X408529Y18735D01*
X408529Y18737D01*
X408531Y18737D01*
X408531Y18735D01*
X408529Y18735D01*
G37*
%LPD*%
%LPC*%
G36*
X379799Y429999D02*
X379799Y429999D01*
X379799Y430001D01*
X379801Y430001D01*
X379801Y429999D01*
X379799Y429999D01*
G37*
%LPD*%
%LPC*%
G36*
X519799Y349999D02*
X519799Y349999D01*
X519799Y350001D01*
X519801Y350001D01*
X519801Y349999D01*
X519799Y349999D01*
G37*
%LPD*%
D10*
X267672Y964694D03*
X267672Y928475D03*
D11*
X697770Y962330D03*
D12*
X717770Y962330D03*
D11*
X641639Y964091D03*
D12*
X661639Y964091D03*
D11*
X216194Y959020D03*
D12*
X216194Y939020D03*
D13*
X603556Y960896D03*
D14*
X603556Y935496D03*
D13*
X166692Y957507D03*
D14*
X166692Y932107D03*
D15*
X106250Y218850D02*
X86750Y218850D01*
X86750Y381150D02*
X106250Y381150D01*
X213750Y218850D02*
X233250Y218850D01*
X233250Y381150D02*
X213750Y381150D01*
D10*
X308500Y379478D03*
D16*
X308500Y417580D03*
D15*
X778750Y381150D02*
X798250Y381150D01*
X798250Y218850D02*
X778750Y218850D01*
X671250Y381150D02*
X651750Y381150D01*
X651750Y218850D02*
X671250Y218850D01*
D17*
X692260Y901700D02*
X705340Y901700D01*
X705340Y876300D02*
X692260Y876300D01*
X692260Y850900D02*
X705340Y850900D01*
X705340Y825500D02*
X692260Y825500D01*
X692260Y800100D02*
X705340Y800100D01*
X705340Y774700D02*
X692260Y774700D01*
X692260Y749300D02*
X705340Y749300D01*
X705340Y723900D02*
X692260Y723900D01*
X692260Y698500D02*
X705340Y698500D01*
X705340Y673100D02*
X692260Y673100D01*
X692260Y647700D02*
X705340Y647700D01*
X705340Y622300D02*
X692260Y622300D01*
X692260Y596900D02*
X705340Y596900D01*
X705340Y571500D02*
X692260Y571500D01*
X692260Y546100D02*
X705340Y546100D01*
X705340Y520700D02*
X692260Y520700D01*
X692260Y495300D02*
X705340Y495300D01*
X705340Y469900D02*
X692260Y469900D01*
X692260Y444500D02*
X705340Y444500D01*
X705340Y419100D02*
X692260Y419100D01*
X844660Y901700D02*
X857740Y901700D01*
X857740Y876300D02*
X844660Y876300D01*
X844660Y850900D02*
X857740Y850900D01*
X857740Y825500D02*
X844660Y825500D01*
X844660Y800100D02*
X857740Y800100D01*
X857740Y774700D02*
X844660Y774700D01*
X844660Y749300D02*
X857740Y749300D01*
X857740Y723900D02*
X844660Y723900D01*
X844660Y698500D02*
X857740Y698500D01*
X857740Y673100D02*
X844660Y673100D01*
X844660Y647700D02*
X857740Y647700D01*
X857740Y622300D02*
X844660Y622300D01*
X844660Y596900D02*
X857740Y596900D01*
X857740Y571500D02*
X844660Y571500D01*
X844660Y546100D02*
X857740Y546100D01*
X857740Y520700D02*
X844660Y520700D01*
X844660Y495300D02*
X857740Y495300D01*
X857740Y469900D02*
X844660Y469900D01*
X844660Y444500D02*
X857740Y444500D01*
X857740Y419100D02*
X844660Y419100D01*
D18*
X750000Y660000D03*
X775000Y660000D03*
X800000Y660000D03*
D19*
X731000Y730000D03*
X819000Y730000D03*
D18*
X295000Y455000D03*
X295000Y480000D03*
X295000Y505000D03*
D20*
X225000Y436000D03*
X225000Y524000D03*
D18*
X600000Y780000D03*
X625000Y780000D03*
X650000Y780000D03*
D19*
X581000Y850000D03*
X669000Y850000D03*
D18*
X590000Y505000D03*
X590000Y480000D03*
X590000Y455000D03*
D21*
X660000Y524000D03*
X660000Y436000D03*
D18*
X417500Y590000D03*
X442500Y590000D03*
X467500Y590000D03*
D19*
X398500Y660000D03*
X486500Y660000D03*
D18*
X85000Y660000D03*
X110000Y660000D03*
X135000Y660000D03*
D19*
X66000Y730000D03*
X154000Y730000D03*
D22*
X405200Y430000D03*
X379800Y430000D03*
X505200Y430000D03*
X479800Y430000D03*
X545200Y350000D03*
X519800Y350000D03*
X565200Y270000D03*
X539800Y270000D03*
X365200Y350000D03*
X339800Y350000D03*
X345200Y270000D03*
X319800Y270000D03*
D23*
X30000Y430602D02*
X30000Y449398D01*
X55400Y449398D02*
X55400Y430602D01*
X80800Y430602D02*
X80800Y449398D01*
X106200Y449398D02*
X106200Y430602D01*
X131600Y430602D02*
X131600Y449398D01*
D24*
X54887Y799030D02*
X35329Y799030D01*
X35329Y824430D02*
X54887Y824430D01*
X54887Y849830D02*
X35329Y849830D01*
X525329Y799030D02*
X544887Y799030D01*
X544887Y824430D02*
X525329Y824430D01*
X525329Y849830D02*
X544887Y849830D01*
X285908Y739891D02*
X285908Y720333D01*
X260508Y720333D02*
X260508Y739891D01*
X235108Y739891D02*
X235108Y720333D01*
D18*
X235000Y780000D03*
X260000Y780000D03*
X285000Y780000D03*
D19*
X216000Y850000D03*
X304000Y850000D03*
D25*
X475012Y382606D03*
X409988Y382606D03*
X475012Y337394D03*
X409988Y337394D03*
D11*
X46555Y119279D03*
D12*
X46555Y99279D03*
D13*
X126508Y178437D03*
D14*
X101108Y178437D03*
D11*
X125012Y42305D03*
D12*
X145012Y42305D03*
D26*
X245740Y37760D03*
X245740Y87760D03*
D11*
X646719Y80837D03*
D12*
X646719Y100837D03*
D23*
X700000Y109398D02*
X700000Y90602D01*
X725400Y90602D02*
X725400Y109398D01*
X750800Y109398D02*
X750800Y90602D01*
X776200Y90602D02*
X776200Y109398D01*
X801600Y109398D02*
X801600Y90602D01*
D16*
X387296Y179972D03*
X440846Y179972D03*
D25*
X410439Y283600D03*
X423139Y302650D03*
X435839Y283600D03*
D11*
X71819Y610452D03*
D12*
X71819Y590452D03*
D23*
X580602Y370000D02*
X599398Y370000D01*
X599398Y395400D02*
X580602Y395400D01*
X771413Y569697D02*
X790209Y569697D01*
X790209Y544297D02*
X771413Y544297D01*
X771413Y518897D02*
X790209Y518897D01*
X790209Y493497D02*
X771413Y493497D01*
D27*
X477909Y820399D02*
X464701Y820399D01*
X401709Y820399D02*
X388501Y820399D01*
D28*
X379963Y851035D03*
X481563Y851035D03*
D25*
X519471Y19117D03*
X519471Y95317D03*
X536973Y123897D03*
X613173Y123897D03*
D28*
X549607Y54011D03*
X600407Y54011D03*
X575007Y28611D03*
D29*
X484730Y18736D03*
X459330Y18736D03*
X459330Y94936D03*
X484730Y94936D03*
X433930Y18736D03*
X408530Y18736D03*
X433930Y94936D03*
X408530Y94936D03*
D25*
X189670Y23816D03*
X776054Y42886D03*
D30*
X138684Y143256D02*
X102108Y179832D01*
X101108Y178437D01*
X138684Y143256D02*
X164592Y143256D01*
X190500Y169164D01*
D31*
X138684Y143256D03*
X190500Y169164D03*
D30*
X484632Y99060D02*
X484632Y96012D01*
X484632Y99060D02*
X464820Y118872D01*
X464820Y128016D01*
X484632Y96012D02*
X484730Y94936D01*
D31*
X464820Y128016D03*
X834215Y97033D03*
X535845Y872562D03*
X560842Y868664D03*
X817347Y195489D03*
D30*
X387096Y589788D02*
X348996Y589788D01*
X387096Y589788D02*
X416052Y589788D01*
X348996Y589788D02*
X277368Y518160D01*
X277368Y464820D01*
X286512Y455676D01*
X294132Y455676D01*
X416052Y589788D02*
X417500Y590000D01*
X295000Y455000D02*
X294132Y455676D01*
X387096Y589788D02*
X387096Y591312D01*
D31*
X387096Y591312D03*
D30*
X851200Y849982D02*
X851200Y850900D01*
X760476Y670476D02*
X750000Y660000D01*
X760476Y759258D02*
X851200Y849982D01*
X760476Y759258D02*
X760476Y670476D01*
X766572Y519684D02*
X780288Y519684D01*
X766572Y519684D02*
X746760Y539496D01*
X717804Y539496D01*
X711708Y545592D01*
X780288Y519684D02*
X780811Y518897D01*
X711708Y545592D02*
X699516Y545592D01*
X698800Y546100D01*
X792480Y544068D02*
X806196Y530352D01*
X792480Y544068D02*
X781812Y544068D01*
X780811Y544297D01*
D31*
X806196Y530352D03*
D30*
X841248Y571500D02*
X826008Y586740D01*
X841248Y571500D02*
X851200Y571500D01*
X626364Y562356D02*
X338328Y562356D01*
X626364Y562356D02*
X650748Y586740D01*
X826008Y586740D01*
X303276Y480060D02*
X295656Y480060D01*
X303276Y480060D02*
X338328Y515112D01*
X338328Y562356D01*
X295656Y480060D02*
X295000Y480000D01*
X625000Y780000D02*
X630936Y774064D01*
X630936Y771144D01*
X850692Y597408D02*
X851200Y596900D01*
X687324Y714756D02*
X630936Y771144D01*
X728276Y704284D02*
X728276Y658058D01*
X717804Y714756D02*
X687324Y714756D01*
X717804Y714756D02*
X728276Y704284D01*
X728276Y658058D02*
X788926Y597408D01*
X850692Y597408D01*
X726948Y755904D02*
X729996Y758952D01*
X729996Y783336D01*
X713232Y800100D01*
X698800Y800100D01*
D31*
X726948Y755904D03*
D30*
X105156Y438912D02*
X105156Y426720D01*
X60960Y382524D01*
X60960Y379476D01*
X105156Y438912D02*
X106200Y440000D01*
D31*
X60960Y379476D03*
D30*
X521208Y822960D02*
X534924Y822960D01*
X521208Y822960D02*
X502920Y804672D01*
X457200Y804672D01*
X534924Y822960D02*
X535108Y824430D01*
D31*
X457200Y804672D03*
D30*
X536448Y123444D02*
X521208Y108204D01*
X521208Y97536D01*
X519684Y96012D01*
X536448Y123444D02*
X536973Y123897D01*
X519684Y96012D02*
X519471Y95317D01*
M02*
