G04 EAGLE Gerber X2 export*
%TF.Part,Single*%
%TF.FileFunction,Copper,L1,Top,Mixed*%
%TF.FilePolarity,Positive*%
%TF.GenerationSoftware,Autodesk,EAGLE,9.2.2*%
%TF.CreationDate,2019-04-19T13:44:04Z*%
G75*
%MOMM*%
%FSLAX34Y34*%
%LPD*%
%INTop Copper*%
%AMOC8*
5,1,8,0,0,1.08239X$1,22.5*%
G01*
%ADD10P,2.336880X8X202.500000*%
%ADD11R,1.350000X1.350000*%
%ADD12C,1.350000*%
%ADD13R,1.800000X1.600000*%
%ADD14R,1.600000X1.800000*%
%ADD15R,2.400000X2.400000*%
%ADD16C,1.408000*%
%ADD17R,1.408000X1.408000*%
%ADD18C,1.950000*%
%ADD19R,3.100000X0.800000*%
%ADD20R,1.270000X2.540000*%
%ADD21P,2.336880X8X22.500000*%
%ADD22R,2.000000X1.600000*%
%ADD23R,1.600000X2.000000*%
%ADD24C,1.308000*%
%ADD25R,1.879600X1.879600*%
%ADD26P,3.247170X8X292.500000*%
%ADD27P,3.247170X8X22.500000*%
%ADD28P,3.247170X8X202.500000*%
%ADD29R,1.524000X0.330200*%
%ADD30R,1.270000X1.270000*%
%ADD31C,0.812800*%
%ADD32R,1.219200X2.235200*%
%ADD33R,3.600000X2.200000*%
%ADD34P,1.429621X8X202.500000*%
%ADD35C,1.879600*%
%ADD36C,1.955800*%
%ADD37C,1.879600*%
%ADD38R,2.200000X0.600000*%
%ADD39C,1.143000*%
%ADD40C,1.320800*%
%ADD41P,1.429621X8X22.500000*%
%ADD42C,1.320800*%
%ADD43C,0.152400*%
%ADD44C,0.756400*%
%ADD45C,0.203200*%


D10*
X267672Y964694D03*
X267672Y928475D03*
D11*
X697770Y962330D03*
D12*
X717770Y962330D03*
D13*
X412595Y872038D03*
X412595Y844038D03*
X450737Y870599D03*
X450737Y842599D03*
D14*
X636299Y897536D03*
X664299Y897536D03*
X639425Y923765D03*
X667425Y923765D03*
D11*
X641639Y964091D03*
D12*
X661639Y964091D03*
D11*
X216194Y959020D03*
D12*
X216194Y939020D03*
D13*
X861632Y96183D03*
X861632Y124183D03*
D15*
X302066Y221866D03*
X346066Y221866D03*
D16*
X603556Y960896D03*
D17*
X603556Y935496D03*
D16*
X166692Y957507D03*
D17*
X166692Y932107D03*
D18*
X106250Y218850D02*
X86750Y218850D01*
X86750Y381150D02*
X106250Y381150D01*
X213750Y218850D02*
X233250Y218850D01*
X233250Y381150D02*
X213750Y381150D01*
D19*
X285941Y176872D03*
X285941Y144872D03*
X285941Y122872D03*
X285941Y100872D03*
X338941Y176872D03*
X338941Y144872D03*
X338941Y122872D03*
X338941Y100872D03*
D20*
X506899Y199394D03*
X481499Y199394D03*
X481499Y129394D03*
X506899Y129394D03*
D10*
X308500Y379478D03*
D21*
X308500Y417580D03*
D18*
X778750Y381150D02*
X798250Y381150D01*
X798250Y218850D02*
X778750Y218850D01*
X671250Y381150D02*
X651750Y381150D01*
X651750Y218850D02*
X671250Y218850D01*
D22*
X440330Y346012D03*
X440330Y374012D03*
X572942Y333354D03*
X572942Y305354D03*
D23*
X543071Y395345D03*
X515071Y395345D03*
X514224Y474884D03*
X486224Y474884D03*
X408047Y470244D03*
X380047Y470244D03*
D22*
X387866Y218297D03*
X387866Y246297D03*
D23*
X507599Y243633D03*
X479599Y243633D03*
X479612Y285242D03*
X507612Y285242D03*
D22*
X544610Y208286D03*
X544610Y236286D03*
X339206Y429029D03*
X339206Y457029D03*
X82949Y510767D03*
X82949Y538767D03*
D23*
X862692Y184359D03*
X834692Y184359D03*
X862517Y153087D03*
X834517Y153087D03*
X773725Y186046D03*
X801725Y186046D03*
D13*
X341487Y962099D03*
X341487Y934099D03*
D24*
X692260Y901700D02*
X705340Y901700D01*
X705340Y876300D02*
X692260Y876300D01*
X692260Y850900D02*
X705340Y850900D01*
X705340Y825500D02*
X692260Y825500D01*
X692260Y800100D02*
X705340Y800100D01*
X705340Y774700D02*
X692260Y774700D01*
X692260Y749300D02*
X705340Y749300D01*
X705340Y723900D02*
X692260Y723900D01*
X692260Y698500D02*
X705340Y698500D01*
X705340Y673100D02*
X692260Y673100D01*
X692260Y647700D02*
X705340Y647700D01*
X705340Y622300D02*
X692260Y622300D01*
X692260Y596900D02*
X705340Y596900D01*
X705340Y571500D02*
X692260Y571500D01*
X692260Y546100D02*
X705340Y546100D01*
X705340Y520700D02*
X692260Y520700D01*
X692260Y495300D02*
X705340Y495300D01*
X705340Y469900D02*
X692260Y469900D01*
X692260Y444500D02*
X705340Y444500D01*
X705340Y419100D02*
X692260Y419100D01*
X844660Y901700D02*
X857740Y901700D01*
X857740Y876300D02*
X844660Y876300D01*
X844660Y850900D02*
X857740Y850900D01*
X857740Y825500D02*
X844660Y825500D01*
X844660Y800100D02*
X857740Y800100D01*
X857740Y774700D02*
X844660Y774700D01*
X844660Y749300D02*
X857740Y749300D01*
X857740Y723900D02*
X844660Y723900D01*
X844660Y698500D02*
X857740Y698500D01*
X857740Y673100D02*
X844660Y673100D01*
X844660Y647700D02*
X857740Y647700D01*
X857740Y622300D02*
X844660Y622300D01*
X844660Y596900D02*
X857740Y596900D01*
X857740Y571500D02*
X844660Y571500D01*
X844660Y546100D02*
X857740Y546100D01*
X857740Y520700D02*
X844660Y520700D01*
X844660Y495300D02*
X857740Y495300D01*
X857740Y469900D02*
X844660Y469900D01*
X844660Y444500D02*
X857740Y444500D01*
X857740Y419100D02*
X844660Y419100D01*
D25*
X750000Y660000D03*
X775000Y660000D03*
X800000Y660000D03*
D26*
X731000Y730000D03*
X819000Y730000D03*
D25*
X295000Y455000D03*
X295000Y480000D03*
X295000Y505000D03*
D27*
X225000Y436000D03*
X225000Y524000D03*
D25*
X600000Y780000D03*
X625000Y780000D03*
X650000Y780000D03*
D26*
X581000Y850000D03*
X669000Y850000D03*
D25*
X590000Y505000D03*
X590000Y480000D03*
X590000Y455000D03*
D28*
X660000Y524000D03*
X660000Y436000D03*
D25*
X417500Y590000D03*
X442500Y590000D03*
X467500Y590000D03*
D26*
X398500Y660000D03*
X486500Y660000D03*
D29*
X808423Y145206D03*
X808423Y150032D03*
X808423Y155112D03*
X808423Y160192D03*
X808423Y165018D03*
X767783Y165018D03*
X767783Y160192D03*
X767783Y155112D03*
X767783Y150032D03*
X767783Y145206D03*
D25*
X85000Y660000D03*
X110000Y660000D03*
X135000Y660000D03*
D26*
X66000Y730000D03*
X154000Y730000D03*
D30*
X537690Y887107D03*
X563090Y887107D03*
D31*
X537690Y887107D01*
D32*
X527613Y913320D03*
X550727Y913320D03*
X573841Y913320D03*
D33*
X550727Y975298D03*
D34*
X405200Y430000D03*
X379800Y430000D03*
X505200Y430000D03*
X479800Y430000D03*
X545200Y350000D03*
X519800Y350000D03*
X565200Y270000D03*
X539800Y270000D03*
D23*
X367462Y393482D03*
X339462Y393482D03*
X350787Y313218D03*
X322787Y313218D03*
D34*
X365200Y350000D03*
X339800Y350000D03*
X345200Y270000D03*
X319800Y270000D03*
D35*
X30000Y430602D02*
X30000Y449398D01*
X55400Y449398D02*
X55400Y430602D01*
X80800Y430602D02*
X80800Y449398D01*
X106200Y449398D02*
X106200Y430602D01*
X131600Y430602D02*
X131600Y449398D01*
D36*
X54887Y799030D02*
X35329Y799030D01*
X35329Y824430D02*
X54887Y824430D01*
X54887Y849830D02*
X35329Y849830D01*
X525329Y799030D02*
X544887Y799030D01*
X544887Y824430D02*
X525329Y824430D01*
X525329Y849830D02*
X544887Y849830D01*
X285908Y739891D02*
X285908Y720333D01*
X260508Y720333D02*
X260508Y739891D01*
X235108Y739891D02*
X235108Y720333D01*
D25*
X235000Y780000D03*
X260000Y780000D03*
X285000Y780000D03*
D26*
X216000Y850000D03*
X304000Y850000D03*
D37*
X475012Y382606D03*
X409988Y382606D03*
X475012Y337394D03*
X409988Y337394D03*
D23*
X193342Y184719D03*
X165342Y184719D03*
D22*
X62093Y185973D03*
X62093Y157973D03*
D11*
X46555Y119279D03*
D12*
X46555Y99279D03*
D16*
X126508Y178437D03*
D17*
X101108Y178437D03*
D11*
X125012Y42305D03*
D12*
X145012Y42305D03*
D13*
X88787Y54753D03*
X88787Y82753D03*
D14*
X123599Y85679D03*
X151599Y85679D03*
D38*
X116899Y139581D03*
X168899Y139581D03*
X116899Y152281D03*
X116899Y126881D03*
X116899Y114181D03*
X168899Y152281D03*
X168899Y126881D03*
X168899Y114181D03*
D39*
X245740Y37760D03*
X245740Y87760D03*
D22*
X213937Y86198D03*
X213937Y58198D03*
D23*
X293606Y36948D03*
X321606Y36948D03*
D11*
X646719Y80837D03*
D12*
X646719Y100837D03*
D23*
X546127Y90316D03*
X574127Y90316D03*
D22*
X180608Y58405D03*
X180608Y86405D03*
X29055Y185092D03*
X29055Y157092D03*
D35*
X700000Y109398D02*
X700000Y90602D01*
X725400Y90602D02*
X725400Y109398D01*
X750800Y109398D02*
X750800Y90602D01*
X776200Y90602D02*
X776200Y109398D01*
X801600Y109398D02*
X801600Y90602D01*
D21*
X387296Y179972D03*
X440846Y179972D03*
D37*
X410439Y283600D03*
X423139Y302650D03*
X435839Y283600D03*
D11*
X71819Y610452D03*
D12*
X71819Y590452D03*
D35*
X580602Y370000D02*
X599398Y370000D01*
X599398Y395400D02*
X580602Y395400D01*
X771413Y569697D02*
X790209Y569697D01*
X790209Y544297D02*
X771413Y544297D01*
X771413Y518897D02*
X790209Y518897D01*
X790209Y493497D02*
X771413Y493497D01*
D40*
X477909Y820399D02*
X464701Y820399D01*
X401709Y820399D02*
X388501Y820399D01*
D41*
X379963Y851035D03*
X481563Y851035D03*
D37*
X519471Y19117D03*
X519471Y95317D03*
X536973Y123897D03*
X613173Y123897D03*
D41*
X549607Y54011D03*
X600407Y54011D03*
X575007Y28611D03*
D42*
X484730Y18736D03*
X459330Y18736D03*
X459330Y94936D03*
X484730Y94936D03*
X433930Y18736D03*
X408530Y18736D03*
X433930Y94936D03*
X408530Y94936D03*
D37*
X189670Y23816D03*
X776054Y42886D03*
D43*
X167640Y150876D02*
X146304Y150876D01*
X138684Y143256D01*
X167640Y150876D02*
X168899Y152281D01*
X192024Y231648D02*
X192024Y379476D01*
X192024Y231648D02*
X192024Y185928D01*
X192024Y379476D02*
X132588Y438912D01*
X192024Y185928D02*
X193342Y184719D01*
X132588Y438912D02*
X131600Y440000D01*
X190500Y182880D02*
X190500Y169164D01*
X190500Y182880D02*
X192024Y184404D01*
X193342Y184719D01*
X420084Y879526D02*
X441589Y879526D01*
X420084Y879526D02*
X412595Y872038D01*
X411480Y873252D02*
X409956Y874776D01*
X411480Y873252D02*
X412595Y872038D01*
X217932Y545592D02*
X132588Y460248D01*
X381000Y694944D02*
X381000Y719328D01*
D44*
X138684Y143256D03*
X190500Y169164D03*
D43*
X554556Y811517D02*
X561675Y818635D01*
X561675Y832913D01*
X552314Y842273D01*
X132588Y440988D02*
X131600Y440000D01*
X132588Y440988D02*
X132588Y460248D01*
X381000Y719328D02*
X466344Y804672D01*
X473189Y811517D01*
X554556Y811517D01*
X193548Y958596D02*
X167640Y932688D01*
X166692Y932107D01*
X539831Y842273D02*
X552314Y842273D01*
X539831Y842273D02*
X535108Y849830D01*
X231648Y545592D02*
X217932Y545592D01*
X231648Y545592D02*
X381000Y694944D01*
X214884Y958596D02*
X193548Y958596D01*
X214884Y958596D02*
X216194Y959020D01*
X341376Y934212D02*
X341487Y934099D01*
X342900Y932688D02*
X352044Y932688D01*
X406908Y877824D02*
X409956Y874776D01*
X406908Y877824D02*
X352044Y932688D01*
X409956Y874776D02*
X412595Y872038D01*
X406908Y877824D02*
X381000Y851916D01*
X379963Y851035D01*
X406908Y877824D02*
X412595Y872038D01*
X254508Y958596D02*
X216408Y958596D01*
X254508Y958596D02*
X268224Y944880D01*
X330708Y944880D01*
X216408Y958596D02*
X216194Y959020D01*
X435864Y156972D02*
X464820Y128016D01*
X435864Y156972D02*
X281940Y156972D01*
X245364Y193548D01*
X245364Y224028D01*
X237744Y231648D01*
X192024Y231648D01*
X451104Y862584D02*
X451104Y870204D01*
X451104Y862584D02*
X463296Y850392D01*
X463296Y832104D01*
X455676Y824484D01*
X455676Y815340D01*
X466344Y804672D01*
X451104Y870204D02*
X450737Y870599D01*
D44*
X464820Y128016D03*
D45*
X342900Y932688D02*
X330708Y944880D01*
X441589Y879526D02*
X450911Y870204D01*
X451104Y870204D01*
X342898Y932688D02*
X341487Y934099D01*
X342898Y932688D02*
X342900Y932688D01*
D43*
X699516Y470916D02*
X758952Y470916D01*
X780288Y492252D01*
X699516Y470916D02*
X698800Y469900D01*
X780288Y492252D02*
X780811Y493497D01*
X507492Y338328D02*
X507492Y286512D01*
X507492Y338328D02*
X499872Y345948D01*
X499872Y411480D01*
X538560Y450168D01*
X507492Y286512D02*
X507612Y285242D01*
X670223Y673100D02*
X698800Y673100D01*
X538560Y541436D02*
X538560Y450168D01*
X538560Y541436D02*
X670223Y673100D01*
X531876Y384048D02*
X556074Y359850D01*
X531876Y384048D02*
X531876Y438912D01*
X543113Y450149D01*
X543113Y539058D01*
X663998Y659943D01*
X714756Y659943D01*
X556074Y359850D02*
X556074Y247750D01*
X544610Y236286D01*
X699516Y691896D02*
X699516Y697992D01*
X699516Y691896D02*
X714756Y676656D01*
X714756Y659943D01*
X699516Y697992D02*
X698800Y698500D01*
X466344Y345948D02*
X440436Y345948D01*
X466344Y345948D02*
X473964Y338328D01*
X440436Y345948D02*
X440330Y346012D01*
X473964Y338328D02*
X475012Y337394D01*
X338328Y428244D02*
X318516Y428244D01*
X309372Y419100D01*
X338328Y428244D02*
X339206Y429029D01*
X309372Y419100D02*
X308500Y417580D01*
X286512Y38100D02*
X246888Y38100D01*
X286512Y38100D02*
X292608Y38100D01*
X293606Y36948D01*
X246888Y38100D02*
X245740Y37760D01*
X286512Y38100D02*
X286512Y100584D01*
X285941Y100872D01*
X286512Y38100D02*
X293606Y36948D01*
X313944Y102108D02*
X338328Y102108D01*
X313944Y102108D02*
X300228Y115824D01*
X234696Y115824D01*
X179832Y170688D01*
X179832Y269748D01*
X338328Y102108D02*
X338941Y100872D01*
X82949Y463773D02*
X82949Y510767D01*
X82949Y463773D02*
X92484Y454238D01*
X92484Y403906D01*
X74714Y386136D01*
X74714Y374866D01*
X179832Y269748D01*
X82949Y510767D02*
X82949Y517534D01*
X95235Y529820D01*
X95235Y567036D01*
X71819Y590452D01*
X387296Y217726D02*
X387296Y179972D01*
X387296Y217726D02*
X387866Y218297D01*
X345948Y220980D02*
X345948Y184404D01*
X339852Y178308D01*
X345948Y220980D02*
X346066Y221866D01*
X339852Y178308D02*
X338941Y176872D01*
X363087Y221866D02*
X372849Y231628D01*
X419507Y231628D01*
X354596Y161217D02*
X338941Y176872D01*
X422092Y161217D02*
X440846Y179972D01*
X422092Y161217D02*
X354596Y161217D01*
X419507Y231628D02*
X435839Y247960D01*
X435839Y283600D01*
D45*
X363087Y221866D02*
X362201Y220980D01*
X345948Y220980D01*
D43*
X480060Y243840D02*
X480060Y284988D01*
X480060Y243840D02*
X479599Y243633D01*
X480060Y284988D02*
X479612Y285242D01*
X468818Y285242D01*
X451409Y302650D02*
X423139Y302650D01*
X451409Y302650D02*
X468818Y285242D01*
X512614Y217932D02*
X534305Y217932D01*
X544610Y208286D01*
X512614Y217932D02*
X506899Y199394D01*
X284988Y123444D02*
X271272Y137160D01*
X269748Y137160D01*
X222504Y184404D01*
X222504Y217932D01*
X284988Y123444D02*
X285941Y122872D01*
X222504Y217932D02*
X223500Y218850D01*
X339852Y121920D02*
X478970Y121920D01*
X481499Y129394D01*
X339852Y121920D02*
X338941Y122872D01*
X670560Y295129D02*
X670560Y381000D01*
X670560Y295129D02*
X529555Y154124D01*
X489684Y154124D01*
X661500Y381150D02*
X670560Y381000D01*
X489684Y154124D02*
X481499Y145105D01*
X481499Y129394D01*
X330708Y38100D02*
X323088Y38100D01*
X330708Y38100D02*
X352044Y59436D01*
X323088Y38100D02*
X321606Y36948D01*
X413004Y842772D02*
X449580Y842772D01*
X413004Y842772D02*
X412595Y844038D01*
X449580Y842772D02*
X450737Y842599D01*
X88392Y83820D02*
X62484Y83820D01*
X47244Y99060D01*
X88392Y83820D02*
X88787Y82753D01*
X47244Y99060D02*
X46555Y99279D01*
X143256Y86868D02*
X150876Y86868D01*
X143256Y86868D02*
X132588Y97536D01*
X103632Y97536D01*
X89916Y83820D01*
X150876Y86868D02*
X151599Y85679D01*
X89916Y83820D02*
X88787Y82753D01*
X62484Y187452D02*
X94488Y219456D01*
X62484Y187452D02*
X62093Y185973D01*
X94488Y219456D02*
X96500Y218850D01*
X117348Y114300D02*
X124968Y114300D01*
X156972Y146304D01*
X181356Y146304D01*
X182880Y147828D01*
X182880Y163068D01*
X176784Y169164D01*
X176784Y195072D01*
X173736Y198120D01*
X146304Y198120D01*
X128016Y179832D01*
X117348Y114300D02*
X116899Y114181D01*
X126508Y178437D02*
X128016Y179832D01*
X298704Y112776D02*
X352044Y59436D01*
X298704Y112776D02*
X217932Y112776D01*
X182880Y147828D01*
X835064Y96183D02*
X861632Y96183D01*
X835064Y96183D02*
X834215Y97033D01*
D44*
X834215Y97033D03*
D43*
X700000Y100000D02*
X700000Y92984D01*
X728032Y76710D02*
X737084Y85762D01*
X728032Y76710D02*
X716274Y76710D01*
X700000Y92984D01*
X737084Y114507D02*
X767783Y145206D01*
X737084Y114507D02*
X737084Y85762D01*
X551688Y914400D02*
X551688Y973836D01*
X550727Y975298D01*
X537690Y887107D02*
X537690Y880757D01*
X537690Y874406D01*
X535845Y872562D01*
D44*
X535845Y872562D03*
D43*
X537690Y900283D02*
X550727Y913320D01*
X537690Y900283D02*
X537690Y887107D01*
X537690Y886746D01*
X450909Y842772D02*
X450737Y842599D01*
X515783Y880757D02*
X537690Y880757D01*
X272437Y928475D02*
X267672Y928475D01*
X402869Y110261D02*
X352044Y59436D01*
X487767Y110261D02*
X506899Y129394D01*
X487767Y110261D02*
X402869Y110261D01*
X80800Y440000D02*
X80800Y461611D01*
X70663Y471748D02*
X70663Y526481D01*
X70663Y471748D02*
X80800Y461611D01*
X70663Y526481D02*
X82949Y538767D01*
X507492Y129540D02*
X545592Y91440D01*
X546127Y90316D01*
X507492Y129540D02*
X506899Y129394D01*
X411480Y836676D02*
X411480Y842772D01*
X411480Y836676D02*
X396240Y821436D01*
X411480Y842772D02*
X412595Y844038D01*
X396240Y821436D02*
X395105Y820399D01*
D45*
X550727Y913320D02*
X551688Y914281D01*
X551688Y914400D01*
D43*
X664464Y922020D02*
X664464Y897636D01*
X664464Y922020D02*
X665988Y923544D01*
X664464Y897636D02*
X664299Y897536D01*
X665988Y923544D02*
X667425Y923765D01*
X665988Y925068D02*
X665988Y960120D01*
X662940Y963168D01*
X665988Y925068D02*
X667425Y923765D01*
X662940Y963168D02*
X661639Y964091D01*
X563090Y887107D02*
X560842Y884860D01*
X560842Y868664D01*
D44*
X560842Y868664D03*
D43*
X539800Y270000D02*
X533966Y270000D01*
X507599Y243633D01*
D44*
X817347Y195489D03*
D43*
X792778Y198332D02*
X791439Y196993D01*
X807534Y161081D02*
X808423Y160192D01*
X807534Y161081D02*
X799856Y161081D01*
X792778Y198332D02*
X810672Y198332D01*
X813515Y195489D01*
X817347Y195489D01*
X791439Y169498D02*
X799856Y161081D01*
X791439Y169498D02*
X791439Y196993D01*
X481499Y199394D02*
X481499Y217534D01*
X507599Y243633D01*
X341376Y961644D02*
X312420Y961644D01*
X304800Y954024D01*
X278892Y954024D01*
X268224Y964692D01*
X341376Y961644D02*
X341487Y962099D01*
X268224Y964692D02*
X267672Y964694D01*
X800100Y144780D02*
X807720Y144780D01*
X800100Y144780D02*
X792480Y152400D01*
X792480Y158496D01*
X774192Y176784D01*
X774192Y185928D01*
X807720Y144780D02*
X808423Y145206D01*
X774192Y185928D02*
X773725Y186046D01*
X809244Y144780D02*
X816864Y144780D01*
X809244Y144780D02*
X808423Y145206D01*
X758952Y582168D02*
X758952Y659892D01*
X750000Y660000D01*
X618967Y803148D02*
X600000Y784181D01*
X600000Y780000D01*
X618967Y803148D02*
X665988Y803148D01*
X674206Y811366D01*
X715862Y811366D01*
X760984Y856488D01*
X301752Y220980D02*
X301752Y193548D01*
X286512Y178308D01*
X301752Y220980D02*
X302066Y221866D01*
X286512Y178308D02*
X285941Y176872D01*
X301752Y223215D02*
X301752Y331911D01*
X301752Y223215D02*
X301752Y222504D01*
X262952Y387920D02*
X294132Y419100D01*
X262952Y387920D02*
X262952Y370711D01*
X301752Y331911D01*
X301752Y222504D02*
X302066Y221866D01*
X577596Y778764D02*
X603504Y778764D01*
X600000Y780000D01*
X861060Y152400D02*
X861060Y140208D01*
X861060Y124192D01*
X861632Y124183D01*
X861060Y152400D02*
X862517Y153087D01*
X862584Y153924D02*
X862584Y182880D01*
X862692Y184359D01*
X862584Y153924D02*
X862517Y153087D01*
X861060Y140208D02*
X821436Y140208D01*
X816864Y144780D01*
X574548Y914400D02*
X574548Y931164D01*
X603504Y960120D01*
X603556Y960896D01*
X637032Y922020D02*
X637032Y914400D01*
X637032Y897636D01*
X637032Y922020D02*
X638556Y923544D01*
X637032Y897636D02*
X636299Y897536D01*
X638556Y923544D02*
X639425Y923765D01*
X676656Y963168D02*
X697678Y963168D01*
X676656Y963168D02*
X665988Y973836D01*
X652272Y973836D01*
X643128Y964692D01*
X697678Y963168D02*
X697770Y962330D01*
X643128Y964692D02*
X641639Y964091D01*
X640080Y961644D02*
X640080Y925068D01*
X640080Y961644D02*
X641604Y963168D01*
X640080Y925068D02*
X639425Y923765D01*
X641604Y963168D02*
X641639Y964091D01*
X637032Y914400D02*
X574548Y914400D01*
X573841Y913320D01*
X702564Y928116D02*
X702564Y962111D01*
X702564Y928116D02*
X734568Y896112D01*
X734568Y856488D01*
X702564Y962111D02*
X697770Y962330D01*
X734568Y856488D02*
X760984Y856488D01*
X387866Y246297D02*
X324833Y246297D01*
X301752Y223215D01*
X627888Y582168D02*
X758952Y582168D01*
X627888Y582168D02*
X574548Y528828D01*
X699516Y419100D02*
X699516Y260604D01*
X772668Y187452D01*
X699516Y419100D02*
X698800Y419100D01*
X772668Y187452D02*
X773725Y186046D01*
X591312Y501396D02*
X591312Y504444D01*
X591312Y501396D02*
X601980Y490728D01*
X601980Y469392D01*
X600456Y467868D01*
X579120Y467868D01*
X574548Y472440D01*
X574548Y528828D01*
X590000Y505000D02*
X591312Y504444D01*
X601980Y490728D02*
X652272Y490728D01*
X682752Y521208D01*
X682752Y524256D01*
X688848Y530352D01*
X708660Y530352D01*
X714756Y524256D01*
X714756Y490728D01*
X704088Y480060D01*
X688848Y480060D01*
X682752Y473964D01*
X682752Y434340D01*
X697992Y419100D01*
X294132Y419100D02*
X294132Y454152D01*
X295000Y455000D01*
X390144Y591312D02*
X577596Y778764D01*
X390144Y591312D02*
X387096Y591312D01*
D44*
X387096Y591312D03*
D43*
X845612Y856488D02*
X851200Y850900D01*
X845612Y856488D02*
X760984Y856488D01*
D45*
X698800Y419100D02*
X697992Y419100D01*
D43*
X767783Y165018D02*
X768209Y164592D01*
X801600Y138969D02*
X801600Y100000D01*
X775977Y164592D02*
X768209Y164592D01*
X775977Y164592D02*
X801600Y138969D01*
X781812Y153924D02*
X775716Y160020D01*
X776200Y108447D02*
X776200Y100000D01*
X776200Y108447D02*
X781812Y114059D01*
X781812Y153924D01*
X775716Y160020D02*
X767955Y160020D01*
X767783Y160192D01*
X768096Y155448D02*
X775716Y155448D01*
X778764Y152400D01*
X778764Y128486D01*
X767783Y155112D02*
X768096Y155448D01*
X778764Y128486D02*
X764516Y114238D01*
X764516Y113716D01*
X750800Y100000D01*
X724984Y100416D02*
X724984Y114911D01*
X724984Y100416D02*
X725400Y100000D01*
X767103Y149352D02*
X767783Y150032D01*
X767103Y149352D02*
X759425Y149352D01*
X724984Y114911D01*
X785401Y170147D02*
X800100Y155448D01*
X785401Y170147D02*
X785401Y201776D01*
X833628Y182880D02*
X833628Y173736D01*
X818388Y158496D01*
X818388Y156972D01*
X816864Y155448D01*
X809244Y155448D01*
X833628Y182880D02*
X834692Y184359D01*
X809244Y155448D02*
X808423Y155112D01*
X808087Y155448D02*
X800100Y155448D01*
X808087Y155448D02*
X808423Y155112D01*
X785401Y201776D02*
X768123Y201776D01*
X749808Y220091D01*
X749808Y370332D01*
X794004Y505968D02*
X781812Y518160D01*
X794004Y505968D02*
X795528Y505968D01*
X803148Y498348D01*
X803148Y423672D01*
X749808Y370332D01*
X781812Y518160D02*
X780811Y518897D01*
X809244Y150876D02*
X808423Y150032D01*
X809244Y150876D02*
X832104Y150876D01*
X833628Y152400D01*
X834517Y153087D02*
X845820Y164390D01*
X845820Y361188D01*
X806196Y400812D01*
X806196Y530352D01*
D44*
X806196Y530352D03*
D43*
X754151Y544297D02*
X726948Y571500D01*
X754151Y544297D02*
X780811Y544297D01*
X726948Y571500D02*
X698800Y571500D01*
D45*
X834517Y153087D02*
X833830Y152400D01*
X833628Y152400D01*
D43*
X698800Y495300D02*
X693420Y495300D01*
X611124Y413004D01*
X611124Y390144D01*
X591312Y370332D01*
X590000Y370000D01*
X591312Y396240D02*
X605028Y396240D01*
X591312Y396240D02*
X590000Y395400D01*
X697992Y513588D02*
X697992Y519684D01*
X697992Y513588D02*
X669036Y484632D01*
X669036Y475488D01*
X605028Y411480D01*
X605028Y396240D01*
X697992Y519684D02*
X698800Y520700D01*
X605028Y396240D02*
X590000Y395400D01*
X786384Y600456D02*
X786384Y659892D01*
X775000Y660000D01*
X839724Y547116D02*
X861060Y547116D01*
X839724Y547116D02*
X786384Y600456D01*
X851200Y546100D02*
X861060Y547116D01*
X861060Y606552D02*
X861060Y623316D01*
X861060Y606552D02*
X867156Y600456D01*
X867156Y542544D01*
X861060Y536448D01*
X800100Y536448D01*
X795528Y531876D01*
X851200Y622300D02*
X861060Y623316D01*
X589788Y483108D02*
X589788Y480060D01*
X589788Y483108D02*
X577596Y495300D01*
X577596Y515112D01*
X605028Y542544D01*
X682752Y542544D01*
X691896Y533400D01*
X765048Y533400D01*
X766572Y531876D01*
X795528Y531876D01*
X590000Y480000D02*
X589788Y480060D01*
X777240Y714756D02*
X778764Y714756D01*
X777240Y714756D02*
X758952Y733044D01*
X758952Y737616D01*
X734568Y762000D01*
X632460Y762000D01*
X509016Y638556D01*
X845820Y647700D02*
X851200Y647700D01*
X845820Y647700D02*
X778764Y714756D01*
X446532Y591312D02*
X443484Y591312D01*
X446532Y591312D02*
X493776Y638556D01*
X509016Y638556D01*
X443484Y591312D02*
X442500Y590000D01*
X698800Y895322D02*
X698800Y901700D01*
X698800Y895322D02*
X699525Y894597D01*
X336804Y641604D02*
X336804Y460248D01*
X336804Y641604D02*
X481584Y786384D01*
X550164Y786384D01*
X617220Y853440D01*
X617220Y854964D01*
X647700Y885444D01*
X690372Y885444D01*
X699525Y894597D01*
X338328Y458724D02*
X338328Y457200D01*
X338328Y458724D02*
X336804Y460248D01*
X338328Y457200D02*
X339206Y457029D01*
X436650Y370332D02*
X440330Y374012D01*
X436650Y370332D02*
X368808Y370332D01*
X354717Y384423D01*
X354717Y641229D01*
X486615Y773127D02*
X562232Y773127D01*
X665406Y876300D02*
X698800Y876300D01*
X486615Y773127D02*
X354717Y641229D01*
X562232Y773127D02*
X665406Y876300D01*
X872541Y358851D02*
X873719Y357673D01*
X873719Y83131D01*
X867723Y77134D01*
X812116Y77134D01*
X872541Y499359D02*
X851200Y520700D01*
X872541Y499359D02*
X872541Y358851D01*
D45*
X812116Y77134D02*
X810302Y77134D01*
X776054Y42886D01*
D43*
X638556Y89916D02*
X574548Y89916D01*
X644829Y83643D02*
X646176Y82296D01*
X644829Y83643D02*
X638556Y89916D01*
X574548Y89916D02*
X574127Y90316D01*
X646176Y82296D02*
X646719Y80837D01*
D45*
X685586Y42886D02*
X776054Y42886D01*
X685586Y42886D02*
X644829Y83643D01*
D43*
X807720Y166116D02*
X807720Y181356D01*
X803148Y185928D01*
X807720Y166116D02*
X808423Y165018D01*
X803148Y185928D02*
X801725Y186046D01*
X338328Y144780D02*
X286512Y144780D01*
X285941Y144872D01*
X338328Y144780D02*
X338941Y144872D01*
X515112Y475488D02*
X515112Y534924D01*
X515112Y475488D02*
X514224Y474884D01*
X697992Y717804D02*
X697992Y723900D01*
X697992Y717804D02*
X515112Y534924D01*
X697992Y723900D02*
X698800Y723900D01*
X698800Y749300D02*
X680527Y749300D01*
X408047Y476821D01*
X408047Y470244D01*
X381000Y469392D02*
X381000Y454152D01*
X403860Y431292D01*
X381000Y469392D02*
X380047Y470244D01*
X403860Y431292D02*
X405200Y430000D01*
X487680Y448056D02*
X487680Y473964D01*
X487680Y448056D02*
X504444Y431292D01*
X487680Y473964D02*
X486224Y474884D01*
X504444Y431292D02*
X505200Y430000D01*
X515112Y394716D02*
X515112Y370332D01*
X530626Y354818D01*
X515112Y394716D02*
X515071Y395345D01*
X540902Y354298D02*
X545200Y350000D01*
X540902Y354298D02*
X530626Y354818D01*
X565200Y307583D02*
X572942Y305354D01*
X565200Y307583D02*
X565200Y270000D01*
X368808Y394716D02*
X368808Y563880D01*
X507492Y641604D02*
X633984Y768096D01*
X702564Y768096D01*
X708660Y774192D01*
X368808Y394716D02*
X367462Y393482D01*
X698800Y774700D02*
X708660Y774192D01*
X446532Y641604D02*
X368808Y563880D01*
X446532Y641604D02*
X507492Y641604D01*
X368808Y313944D02*
X352044Y313944D01*
X368808Y313944D02*
X417576Y362712D01*
X451104Y362712D01*
X463296Y374904D01*
X463296Y507492D01*
X726948Y748284D02*
X726948Y755904D01*
X352044Y313944D02*
X350787Y313218D01*
D44*
X726948Y755904D03*
D43*
X726948Y748284D02*
X717804Y748284D01*
X702564Y733044D01*
X688848Y733044D01*
X463296Y507492D01*
X339852Y393192D02*
X339852Y374904D01*
X364236Y350520D01*
X339852Y393192D02*
X339462Y393482D01*
X364236Y350520D02*
X365200Y350000D01*
X323088Y312420D02*
X323088Y304800D01*
X345948Y281940D01*
X323088Y312420D02*
X322787Y313218D01*
X345948Y281940D02*
X345200Y270000D01*
X56388Y440436D02*
X56388Y647700D01*
X68580Y659892D01*
X56388Y440436D02*
X55400Y440000D01*
X68580Y659892D02*
X85000Y660000D01*
X60960Y156972D02*
X60960Y134112D01*
X47244Y120396D01*
X60960Y156972D02*
X62093Y157973D01*
X47244Y120396D02*
X46555Y119279D01*
X164592Y178308D02*
X164592Y184404D01*
X164592Y178308D02*
X131064Y144780D01*
X131064Y135636D01*
X123444Y128016D01*
X117348Y128016D01*
X164592Y184404D02*
X165342Y184719D01*
X117348Y128016D02*
X116899Y126881D01*
X109728Y134112D02*
X60960Y134112D01*
X109728Y134112D02*
X115824Y128016D01*
X116899Y126881D01*
X117348Y140208D02*
X117348Y150876D01*
X117348Y140208D02*
X116899Y139581D01*
X117348Y150876D02*
X116899Y152281D01*
X114300Y53340D02*
X89916Y53340D01*
X114300Y53340D02*
X124968Y42672D01*
X89916Y53340D02*
X88787Y54753D01*
X124968Y42672D02*
X125012Y42305D01*
X123444Y62484D02*
X123444Y70104D01*
X123444Y85344D01*
X123444Y62484D02*
X114300Y53340D01*
X123444Y85344D02*
X123599Y85679D01*
X201168Y59436D02*
X213360Y59436D01*
X201168Y59436D02*
X190500Y70104D01*
X123444Y70104D01*
X213360Y59436D02*
X213937Y58198D01*
X115824Y152400D02*
X89916Y152400D01*
X73152Y169164D01*
X48768Y169164D02*
X19812Y169164D01*
X48768Y169164D02*
X73152Y169164D01*
X19812Y169164D02*
X16764Y166116D01*
X16764Y115824D01*
X77724Y54864D01*
X88392Y54864D01*
X115824Y152400D02*
X116899Y152281D01*
X88787Y54753D02*
X88392Y54864D01*
X60960Y207264D02*
X60960Y379476D01*
X60960Y207264D02*
X48768Y195072D01*
X48768Y169164D01*
D44*
X60960Y379476D03*
D43*
X106200Y440000D02*
X106680Y440480D01*
X134112Y537972D02*
X134112Y659892D01*
X134112Y537972D02*
X106680Y510540D01*
X134112Y659892D02*
X135000Y660000D01*
X388620Y804672D02*
X457200Y804672D01*
X388620Y804672D02*
X245364Y661416D01*
X135636Y661416D01*
X135000Y660000D01*
D44*
X457200Y804672D03*
D45*
X106680Y510540D02*
X106680Y440480D01*
D43*
X158496Y108204D02*
X179832Y86868D01*
X158496Y108204D02*
X156972Y108204D01*
X155448Y109728D01*
X155448Y118872D01*
X163068Y126492D01*
X167640Y126492D01*
X179832Y86868D02*
X180608Y86405D01*
X167640Y126492D02*
X168899Y126881D01*
X30480Y117348D02*
X30480Y156972D01*
X30480Y117348D02*
X38100Y109728D01*
X103632Y109728D01*
X105156Y108204D01*
X156972Y108204D01*
X30480Y156972D02*
X29055Y157092D01*
X169164Y138684D02*
X169164Y128016D01*
X169164Y138684D02*
X168899Y139581D01*
X169164Y128016D02*
X168899Y126881D01*
X214884Y86868D02*
X245364Y86868D01*
X214884Y86868D02*
X213937Y86198D01*
X245364Y86868D02*
X245740Y87760D01*
X187452Y112776D02*
X169164Y112776D01*
X187452Y112776D02*
X213360Y86868D01*
X169164Y112776D02*
X168899Y114181D01*
X213360Y86868D02*
X213937Y86198D01*
X30480Y440436D02*
X30480Y786384D01*
X39624Y795528D01*
X30480Y440436D02*
X30000Y440000D01*
X39624Y795528D02*
X45108Y799030D01*
X280416Y775716D02*
X280416Y728472D01*
X280416Y775716D02*
X285000Y780000D01*
X285908Y730112D02*
X280416Y728472D01*
X256032Y728472D02*
X256032Y775716D01*
X260000Y780000D01*
X260508Y730112D02*
X256032Y728472D01*
X230124Y728472D02*
X230124Y775716D01*
X235000Y780000D01*
X235108Y730112D02*
X230124Y728472D01*
X30480Y242316D02*
X30480Y185928D01*
X30480Y242316D02*
X54864Y266700D01*
X54864Y388620D01*
X16764Y426720D01*
X16764Y811000D01*
X30194Y824430D02*
X45108Y824430D01*
X30194Y824430D02*
X16764Y811000D01*
X30480Y185928D02*
X29055Y185092D01*
X41148Y822960D02*
X41148Y845820D01*
X45108Y849830D01*
X45108Y824430D02*
X41148Y822960D01*
X580644Y557784D02*
X582168Y557784D01*
X571500Y361188D02*
X571500Y333756D01*
X571500Y361188D02*
X554736Y377952D01*
X571500Y333756D02*
X572942Y333354D01*
X554736Y377952D02*
X554736Y531876D01*
X580644Y557784D01*
X582168Y557784D02*
X621284Y596900D01*
X698800Y596900D01*
X548571Y400845D02*
X543071Y395345D01*
X548571Y400845D02*
X548571Y537582D01*
X633288Y622300D01*
X698800Y622300D01*
X71819Y621819D02*
X71819Y610452D01*
X71819Y621819D02*
X110000Y660000D01*
X527304Y897636D02*
X527304Y912876D01*
X527304Y897636D02*
X481584Y851916D01*
X527304Y912876D02*
X527613Y913320D01*
X481584Y851916D02*
X481563Y851035D01*
X472440Y842772D02*
X472440Y821436D01*
X472440Y842772D02*
X480060Y850392D01*
X472440Y821436D02*
X471305Y820399D01*
X480060Y850392D02*
X481563Y851035D01*
X605028Y935736D02*
X605028Y947928D01*
X614172Y957072D01*
X614172Y964692D01*
X589788Y989076D01*
X531876Y989076D01*
X528828Y986028D01*
X528828Y914400D01*
X603556Y935496D02*
X605028Y935736D01*
X528828Y914400D02*
X527613Y913320D01*
X180608Y58405D02*
X181356Y57912D01*
D45*
X421500Y31165D02*
X433930Y18736D01*
X358798Y31165D02*
X342815Y15183D01*
X198304Y15183D01*
X189670Y23816D01*
X358798Y31165D02*
X421500Y31165D01*
X189670Y23816D02*
X189670Y49598D01*
X181356Y57912D01*
D43*
X460248Y18288D02*
X472440Y18288D01*
X481584Y9144D01*
X509016Y9144D01*
X518160Y18288D01*
X460248Y18288D02*
X459330Y18736D01*
X518160Y18288D02*
X519471Y19117D01*
X527304Y27432D02*
X574548Y27432D01*
X527304Y27432D02*
X519684Y19812D01*
X574548Y27432D02*
X575007Y28611D01*
X519684Y19812D02*
X519471Y19117D01*
X550164Y54864D02*
X550164Y71628D01*
X562356Y83820D01*
X562356Y100584D01*
X585216Y123444D01*
X612648Y123444D01*
X550164Y54864D02*
X549607Y54011D01*
X612648Y123444D02*
X613173Y123897D01*
X635508Y102108D02*
X646176Y102108D01*
X635508Y102108D02*
X614172Y123444D01*
X646176Y102108D02*
X646719Y100837D01*
X614172Y123444D02*
X613173Y123897D01*
X486156Y62484D02*
X486156Y19812D01*
X486156Y62484D02*
X518160Y94488D01*
X486156Y19812D02*
X484730Y18736D01*
X518160Y94488D02*
X519471Y95317D01*
M02*
