M48
;GenerationSoftware,Autodesk,EAGLE,9.2.2*%
;CreationDate,2019-04-19T13:44:04Z*%
FMAT,2
ICI,OFF
METRIC,TZ,000.000
T12C0.350
T11C0.635
T10C0.800
T9C0.813
T8C0.900
T7C1.000
T6C1.016
T5C1.118
T4C1.300
T3C1.500
T2C2.000
T1C2.800
%
G90
M71
T1
X77296Y96322
X11053Y96350
X3500Y3782
X85000Y3908
T2
X58100Y85000
X66900Y85000
X66000Y52400
X66000Y43600
X39850Y66000
X48650Y66000
X6600Y73000
X15400Y73000
X22500Y52400
X22500Y43600
X30400Y85000
X81900Y73000
X73100Y73000
X21600Y85000
T3
X27700Y41783
X27700Y38005
X30046Y96498
X30046Y92739
X40108Y13622
X42894Y13651
T4
X66150Y21885
X66150Y38115
X78850Y38115
X22350Y38115
X22350Y21885
X9650Y38115
X9650Y21885
X78850Y21885
T5
X26051Y73011
X23511Y73011
X78081Y49350
X28591Y73011
X53511Y84983
X53511Y82443
X53511Y79903
X4511Y84983
X4511Y82443
X78081Y51890
X78081Y54430
X78081Y56970
X59000Y39540
X59000Y37000
X80160Y10000
X77620Y10000
X70000Y10000
X72540Y10000
X75080Y10000
X4511Y79903
X13160Y44000
X10620Y44000
X8080Y44000
X5540Y44000
X3000Y44000
T6
X40999Y33739
X30850Y41758
X38730Y17997
X44085Y17997
X30850Y37948
X47501Y33739
X40999Y38261
X47501Y38261
X26767Y96469
X26767Y92848
X18967Y2382
X77605Y4289
T7
X62500Y78000
X65000Y78000
X23500Y78000
X26000Y78000
X13500Y66000
X11000Y66000
X8500Y66000
X28500Y78000
X26000Y85000
X46750Y59000
X44250Y59000
X41750Y59000
X11000Y73000
X44250Y66000
X59000Y45500
X59000Y48000
X59000Y50500
X66000Y48000
X60000Y78000
X62500Y85000
X22500Y48000
X29500Y50500
X75000Y66000
X77500Y66000
X80000Y66000
X29500Y48000
X77500Y73000
X29500Y45500
T8
X16669Y93211
X16669Y95751
X60356Y93550
X60356Y96090
X61317Y12390
X10111Y17844
X53697Y12390
X12651Y17844
X51947Y9532
X51947Y1912
T9
X48156Y85103
X37996Y85103
X41044Y28360
X39510Y82040
X54961Y5401
X60041Y5401
X57501Y2861
X48473Y1874
X45933Y1874
X45933Y9494
X48473Y9494
X43393Y1874
X40853Y1874
X43393Y9494
X40520Y43000
X37980Y43000
X50520Y43000
X47980Y43000
X54520Y35000
X51980Y35000
X56520Y27000
X53980Y27000
X36520Y35000
X33980Y35000
X34520Y27000
X31980Y27000
X47130Y82040
X43584Y28360
X42314Y30265
X40853Y9494
T10
X69880Y87630
X69880Y90170
X69880Y85090
X69880Y82550
X69880Y80010
X69880Y77470
X21619Y93902
X21619Y95902
X66164Y96409
X64164Y96409
X69880Y74930
X69880Y72390
X69880Y69850
X71777Y96233
X69777Y96233
X69880Y67310
X69880Y64770
X69880Y62230
X69880Y59690
X4656Y11928
X4656Y9928
X69880Y57150
X69880Y44450
X12501Y4231
X14501Y4231
X85120Y67310
X85120Y64770
X64672Y8084
X64672Y10084
X69880Y54610
X69880Y52070
X69880Y49530
X69880Y41910
X85120Y90170
X85120Y87630
X85120Y85090
X69880Y46990
X85120Y41910
X85120Y44450
X7182Y61045
X7182Y59045
X85120Y82550
X85120Y80010
X85120Y77470
X85120Y74930
X85120Y72390
X85120Y69850
X85120Y46990
X85120Y49530
X85120Y52070
X85120Y54610
X85120Y57150
X85120Y59690
X85120Y62230
T11
X24574Y8776
X24574Y3776
T12
X46482Y12802
X83421Y9703
X53585Y87256
X56084Y86866
X81735Y19549
X38710Y59131
X80620Y53035
X72695Y75590
X6096Y37948
X45720Y80467
X19050Y16916
X13868Y14326
M30