G04 EAGLE Gerber X2 export*
%TF.Part,Single*%
%TF.FileFunction,Soldermask,Bot,1*%
%TF.FilePolarity,Positive*%
%TF.GenerationSoftware,Autodesk,EAGLE,9.2.2*%
%TF.CreationDate,2019-04-19T13:44:04Z*%
G75*
%MOMM*%
%FSLAX34Y34*%
%LPD*%
%INSoldermask Bottom*%
%AMOC8*
5,1,8,0,0,1.08239X$1,22.5*%
G01*
%ADD10P,2.556822X8X202.500000*%
%ADD11R,1.553200X1.553200*%
%ADD12C,1.553200*%
%ADD13C,1.611200*%
%ADD14R,1.611200X1.611200*%
%ADD15C,3.003200*%
%ADD16C,2.153200*%
%ADD17P,2.556822X8X22.500000*%
%ADD18C,1.511200*%
%ADD19R,2.082800X2.082800*%
%ADD20P,3.467112X8X292.500000*%
%ADD21C,1.203200*%
%ADD22P,3.467112X8X22.500000*%
%ADD23P,3.467112X8X202.500000*%
%ADD24C,1.703200*%
%ADD25P,1.649562X8X202.500000*%
%ADD26C,2.082800*%
%ADD27C,2.159000*%
%ADD28C,2.082800*%
%ADD29C,1.346200*%
%ADD30C,1.524000*%
%ADD31P,1.649562X8X22.500000*%
%ADD32C,1.524000*%
%ADD33C,0.959600*%


D10*
X267672Y964694D03*
X267672Y928475D03*
D11*
X697770Y962330D03*
D12*
X717770Y962330D03*
D11*
X641639Y964091D03*
D12*
X661639Y964091D03*
D11*
X216194Y959020D03*
D12*
X216194Y939020D03*
D13*
X603556Y960896D03*
D14*
X603556Y935496D03*
D13*
X166692Y957507D03*
D14*
X166692Y932107D03*
D15*
X850000Y39085D03*
X35000Y37818D03*
D16*
X86750Y218850D02*
X106250Y218850D01*
X106250Y381150D02*
X86750Y381150D01*
X213750Y218850D02*
X233250Y218850D01*
X233250Y381150D02*
X213750Y381150D01*
D10*
X308500Y379478D03*
D17*
X308500Y417580D03*
D16*
X778750Y381150D02*
X798250Y381150D01*
X798250Y218850D02*
X778750Y218850D01*
X671250Y381150D02*
X651750Y381150D01*
X651750Y218850D02*
X671250Y218850D01*
D18*
X692260Y901700D02*
X705340Y901700D01*
X705340Y876300D02*
X692260Y876300D01*
X692260Y850900D02*
X705340Y850900D01*
X705340Y825500D02*
X692260Y825500D01*
X692260Y800100D02*
X705340Y800100D01*
X705340Y774700D02*
X692260Y774700D01*
X692260Y749300D02*
X705340Y749300D01*
X705340Y723900D02*
X692260Y723900D01*
X692260Y698500D02*
X705340Y698500D01*
X705340Y673100D02*
X692260Y673100D01*
X692260Y647700D02*
X705340Y647700D01*
X705340Y622300D02*
X692260Y622300D01*
X692260Y596900D02*
X705340Y596900D01*
X705340Y571500D02*
X692260Y571500D01*
X692260Y546100D02*
X705340Y546100D01*
X705340Y520700D02*
X692260Y520700D01*
X692260Y495300D02*
X705340Y495300D01*
X705340Y469900D02*
X692260Y469900D01*
X692260Y444500D02*
X705340Y444500D01*
X705340Y419100D02*
X692260Y419100D01*
X844660Y901700D02*
X857740Y901700D01*
X857740Y876300D02*
X844660Y876300D01*
X844660Y850900D02*
X857740Y850900D01*
X857740Y825500D02*
X844660Y825500D01*
X844660Y800100D02*
X857740Y800100D01*
X857740Y774700D02*
X844660Y774700D01*
X844660Y749300D02*
X857740Y749300D01*
X857740Y723900D02*
X844660Y723900D01*
X844660Y698500D02*
X857740Y698500D01*
X857740Y673100D02*
X844660Y673100D01*
X844660Y647700D02*
X857740Y647700D01*
X857740Y622300D02*
X844660Y622300D01*
X844660Y596900D02*
X857740Y596900D01*
X857740Y571500D02*
X844660Y571500D01*
X844660Y546100D02*
X857740Y546100D01*
X857740Y520700D02*
X844660Y520700D01*
X844660Y495300D02*
X857740Y495300D01*
X857740Y469900D02*
X844660Y469900D01*
X844660Y444500D02*
X857740Y444500D01*
X857740Y419100D02*
X844660Y419100D01*
D19*
X750000Y660000D03*
X775000Y660000D03*
X800000Y660000D03*
D20*
X731000Y730000D03*
X819000Y730000D03*
D21*
X775000Y730000D03*
D19*
X295000Y455000D03*
X295000Y480000D03*
X295000Y505000D03*
D22*
X225000Y436000D03*
X225000Y524000D03*
D21*
X225000Y480000D03*
D19*
X600000Y780000D03*
X625000Y780000D03*
X650000Y780000D03*
D20*
X581000Y850000D03*
X669000Y850000D03*
D21*
X625000Y850000D03*
D19*
X590000Y505000D03*
X590000Y480000D03*
X590000Y455000D03*
D23*
X660000Y524000D03*
X660000Y436000D03*
D21*
X660000Y480000D03*
D19*
X417500Y590000D03*
X442500Y590000D03*
X467500Y590000D03*
D20*
X398500Y660000D03*
X486500Y660000D03*
D21*
X442500Y660000D03*
D19*
X85000Y660000D03*
X110000Y660000D03*
X135000Y660000D03*
D20*
X66000Y730000D03*
X154000Y730000D03*
D21*
X110000Y730000D03*
D24*
X277000Y417830D03*
X277000Y380048D03*
X300460Y964978D03*
X300460Y927386D03*
D25*
X405200Y430000D03*
X379800Y430000D03*
X505200Y430000D03*
X479800Y430000D03*
X545200Y350000D03*
X519800Y350000D03*
X565200Y270000D03*
X539800Y270000D03*
X365200Y350000D03*
X339800Y350000D03*
X345200Y270000D03*
X319800Y270000D03*
D26*
X30000Y430602D02*
X30000Y449398D01*
X55400Y449398D02*
X55400Y430602D01*
X80800Y430602D02*
X80800Y449398D01*
X106200Y449398D02*
X106200Y430602D01*
X131600Y430602D02*
X131600Y449398D01*
D27*
X54887Y799030D02*
X35329Y799030D01*
X35329Y824430D02*
X54887Y824430D01*
X54887Y849830D02*
X35329Y849830D01*
X525329Y799030D02*
X544887Y799030D01*
X544887Y824430D02*
X525329Y824430D01*
X525329Y849830D02*
X544887Y849830D01*
X285908Y739891D02*
X285908Y720333D01*
X260508Y720333D02*
X260508Y739891D01*
X235108Y739891D02*
X235108Y720333D01*
D19*
X235000Y780000D03*
X260000Y780000D03*
X285000Y780000D03*
D20*
X216000Y850000D03*
X304000Y850000D03*
D21*
X260000Y850000D03*
D28*
X475012Y382606D03*
X409988Y382606D03*
X475012Y337394D03*
X409988Y337394D03*
D11*
X46555Y119279D03*
D12*
X46555Y99279D03*
D13*
X126508Y178437D03*
D14*
X101108Y178437D03*
D11*
X125012Y42305D03*
D12*
X145012Y42305D03*
D29*
X245740Y37760D03*
X245740Y87760D03*
D11*
X646719Y80837D03*
D12*
X646719Y100837D03*
D26*
X700000Y109398D02*
X700000Y90602D01*
X725400Y90602D02*
X725400Y109398D01*
X750800Y109398D02*
X750800Y90602D01*
X776200Y90602D02*
X776200Y109398D01*
X801600Y109398D02*
X801600Y90602D01*
D15*
X110534Y963497D03*
X772959Y963223D03*
D24*
X401077Y136217D03*
X428939Y136508D03*
D17*
X387296Y179972D03*
X440846Y179972D03*
D28*
X410439Y283600D03*
X423139Y302650D03*
X435839Y283600D03*
D11*
X71819Y610452D03*
D12*
X71819Y590452D03*
D26*
X580602Y370000D02*
X599398Y370000D01*
X599398Y395400D02*
X580602Y395400D01*
X771413Y569697D02*
X790209Y569697D01*
X790209Y544297D02*
X771413Y544297D01*
X771413Y518897D02*
X790209Y518897D01*
X790209Y493497D02*
X771413Y493497D01*
D30*
X477909Y820399D02*
X464701Y820399D01*
X401709Y820399D02*
X388501Y820399D01*
D31*
X379963Y851035D03*
X481563Y851035D03*
D28*
X519471Y19117D03*
X519471Y95317D03*
X536973Y123897D03*
X613173Y123897D03*
D31*
X549607Y54011D03*
X600407Y54011D03*
X575007Y28611D03*
D32*
X484730Y18736D03*
X459330Y18736D03*
X459330Y94936D03*
X484730Y94936D03*
X433930Y18736D03*
X408530Y18736D03*
X433930Y94936D03*
X408530Y94936D03*
D28*
X189670Y23816D03*
X776054Y42886D03*
D33*
X138684Y143256D03*
X190500Y169164D03*
X464820Y128016D03*
X834215Y97033D03*
X535845Y872562D03*
X560842Y868664D03*
X817347Y195489D03*
X387096Y591312D03*
X806196Y530352D03*
X726948Y755904D03*
X60960Y379476D03*
X457200Y804672D03*
M02*
