G04 EAGLE Gerber X2 export*
%TF.Part,Single*%
%TF.FileFunction,Paste,Top*%
%TF.FilePolarity,Positive*%
%TF.GenerationSoftware,Autodesk,EAGLE,9.2.2*%
%TF.CreationDate,2019-04-19T13:44:04Z*%
G75*
%MOMM*%
%FSLAX34Y34*%
%LPD*%
%INSolderpaste Top*%
%AMOC8*
5,1,8,0,0,1.08239X$1,22.5*%
G01*
%ADD10R,1.800000X1.600000*%
%ADD11R,1.600000X1.800000*%
%ADD12R,2.400000X2.400000*%
%ADD13R,3.100000X0.800000*%
%ADD14R,1.270000X2.540000*%
%ADD15R,2.000000X1.600000*%
%ADD16R,1.600000X2.000000*%
%ADD17R,1.524000X0.330200*%
%ADD18R,1.270000X1.270000*%
%ADD19R,1.219200X2.235200*%
%ADD20R,3.600000X2.200000*%
%ADD21R,2.200000X0.600000*%


D10*
X412595Y872038D03*
X412595Y844038D03*
X450737Y870599D03*
X450737Y842599D03*
D11*
X636299Y897536D03*
X664299Y897536D03*
X639425Y923765D03*
X667425Y923765D03*
D10*
X861632Y96183D03*
X861632Y124183D03*
D12*
X302066Y221866D03*
X346066Y221866D03*
D13*
X285941Y176872D03*
X285941Y144872D03*
X285941Y122872D03*
X285941Y100872D03*
X338941Y176872D03*
X338941Y144872D03*
X338941Y122872D03*
X338941Y100872D03*
D14*
X506899Y199394D03*
X481499Y199394D03*
X481499Y129394D03*
X506899Y129394D03*
D15*
X440330Y346012D03*
X440330Y374012D03*
X572942Y333354D03*
X572942Y305354D03*
D16*
X543071Y395345D03*
X515071Y395345D03*
X514224Y474884D03*
X486224Y474884D03*
X408047Y470244D03*
X380047Y470244D03*
D15*
X387866Y218297D03*
X387866Y246297D03*
D16*
X507599Y243633D03*
X479599Y243633D03*
X479612Y285242D03*
X507612Y285242D03*
D15*
X544610Y208286D03*
X544610Y236286D03*
X339206Y429029D03*
X339206Y457029D03*
X82949Y510767D03*
X82949Y538767D03*
D16*
X862692Y184359D03*
X834692Y184359D03*
X862517Y153087D03*
X834517Y153087D03*
X773725Y186046D03*
X801725Y186046D03*
D10*
X341487Y962099D03*
X341487Y934099D03*
D17*
X808423Y145206D03*
X808423Y150032D03*
X808423Y155112D03*
X808423Y160192D03*
X808423Y165018D03*
X767783Y165018D03*
X767783Y160192D03*
X767783Y155112D03*
X767783Y150032D03*
X767783Y145206D03*
D18*
X537690Y887107D03*
X563090Y887107D03*
D19*
X527613Y913320D03*
X550727Y913320D03*
X573841Y913320D03*
D20*
X550727Y975298D03*
D16*
X367462Y393482D03*
X339462Y393482D03*
X350787Y313218D03*
X322787Y313218D03*
X193342Y184719D03*
X165342Y184719D03*
D15*
X62093Y185973D03*
X62093Y157973D03*
D10*
X88787Y54753D03*
X88787Y82753D03*
D11*
X123599Y85679D03*
X151599Y85679D03*
D21*
X116899Y139581D03*
X168899Y139581D03*
X116899Y152281D03*
X116899Y126881D03*
X116899Y114181D03*
X168899Y152281D03*
X168899Y126881D03*
X168899Y114181D03*
D15*
X213937Y86198D03*
X213937Y58198D03*
D16*
X293606Y36948D03*
X321606Y36948D03*
X546127Y90316D03*
X574127Y90316D03*
D15*
X180608Y58405D03*
X180608Y86405D03*
X29055Y185092D03*
X29055Y157092D03*
M02*
