G04 EAGLE Gerber X2 export*
%TF.Part,Single*%
%TF.FileFunction,Copper,L2,Bot,Mixed*%
%TF.FilePolarity,Positive*%
%TF.GenerationSoftware,Autodesk,EAGLE,9.2.2*%
%TF.CreationDate,2019-03-12T14:11:56Z*%
G75*
%MOMM*%
%FSLAX34Y34*%
%LPD*%
%INBottom Copper*%
%AMOC8*
5,1,8,0,0,1.08239X$1,22.5*%
G01*
%ADD10C,1.143000*%
%ADD11C,1.408000*%
%ADD12R,1.408000X1.408000*%
%ADD13C,1.955800*%
%ADD14C,1.320800*%
%ADD15R,1.350000X1.350000*%
%ADD16C,1.350000*%
%ADD17C,1.879600*%
%ADD18P,1.429621X8X292.500000*%
%ADD19P,1.429621X8X112.500000*%
%ADD20C,1.422400*%
%ADD21P,1.429621X8X22.500000*%
%ADD22P,1.429621X8X202.500000*%
%ADD23C,0.756400*%
%ADD24C,0.152400*%

G36*
X613373Y373997D02*
X613373Y373997D01*
X613431Y373995D01*
X613513Y374016D01*
X613596Y374028D01*
X613650Y374052D01*
X613706Y374067D01*
X613779Y374110D01*
X613856Y374145D01*
X613900Y374182D01*
X613951Y374212D01*
X614008Y374274D01*
X614073Y374328D01*
X614105Y374377D01*
X614145Y374420D01*
X614183Y374495D01*
X614230Y374565D01*
X614248Y374621D01*
X614274Y374673D01*
X614286Y374741D01*
X614316Y374836D01*
X614319Y374936D01*
X614330Y375004D01*
X614330Y572050D01*
X614322Y572108D01*
X614323Y572167D01*
X614302Y572248D01*
X614290Y572332D01*
X614266Y572385D01*
X614251Y572442D01*
X614208Y572514D01*
X614174Y572591D01*
X614136Y572636D01*
X614106Y572686D01*
X614045Y572744D01*
X613990Y572808D01*
X613942Y572841D01*
X613899Y572881D01*
X613824Y572919D01*
X613754Y572966D01*
X613698Y572983D01*
X613646Y573010D01*
X613578Y573021D01*
X613483Y573052D01*
X613383Y573054D01*
X613315Y573066D01*
X11401Y573066D01*
X11343Y573057D01*
X11284Y573059D01*
X11203Y573038D01*
X11120Y573026D01*
X11066Y573002D01*
X11009Y572987D01*
X10937Y572944D01*
X10860Y572909D01*
X10816Y572872D01*
X10765Y572841D01*
X10708Y572780D01*
X10643Y572726D01*
X10611Y572677D01*
X10571Y572634D01*
X10532Y572559D01*
X10486Y572489D01*
X10468Y572433D01*
X10441Y572381D01*
X10430Y572313D01*
X10400Y572218D01*
X10397Y572118D01*
X10386Y572050D01*
X10490Y375003D01*
X10498Y374946D01*
X10496Y374887D01*
X10518Y374806D01*
X10530Y374722D01*
X10554Y374668D01*
X10568Y374612D01*
X10611Y374540D01*
X10646Y374462D01*
X10684Y374418D01*
X10714Y374368D01*
X10775Y374310D01*
X10830Y374245D01*
X10878Y374213D01*
X10921Y374173D01*
X10996Y374135D01*
X11067Y374088D01*
X11122Y374070D01*
X11174Y374044D01*
X11242Y374033D01*
X11338Y374002D01*
X11437Y374000D01*
X11505Y373988D01*
X613315Y373988D01*
X613373Y373997D01*
G37*
G36*
X613373Y584121D02*
X613373Y584121D01*
X613432Y584119D01*
X613513Y584140D01*
X613597Y584152D01*
X613650Y584176D01*
X613707Y584191D01*
X613779Y584234D01*
X613856Y584268D01*
X613901Y584306D01*
X613951Y584336D01*
X614009Y584398D01*
X614073Y584452D01*
X614105Y584501D01*
X614146Y584543D01*
X614184Y584619D01*
X614231Y584689D01*
X614248Y584745D01*
X614275Y584797D01*
X614286Y584865D01*
X614316Y584960D01*
X614319Y585060D01*
X614330Y585128D01*
X614330Y781928D01*
X614322Y781986D01*
X614324Y782044D01*
X614302Y782126D01*
X614291Y782209D01*
X614267Y782263D01*
X614252Y782319D01*
X614209Y782391D01*
X614174Y782469D01*
X614137Y782513D01*
X614107Y782563D01*
X614045Y782621D01*
X613991Y782686D01*
X613942Y782718D01*
X613899Y782758D01*
X613824Y782796D01*
X613754Y782843D01*
X613698Y782861D01*
X613646Y782887D01*
X613578Y782899D01*
X613483Y782929D01*
X613383Y782931D01*
X613315Y782943D01*
X11291Y782943D01*
X11233Y782935D01*
X11174Y782936D01*
X11092Y782915D01*
X11009Y782903D01*
X10956Y782879D01*
X10899Y782864D01*
X10827Y782821D01*
X10750Y782787D01*
X10705Y782749D01*
X10655Y782719D01*
X10597Y782657D01*
X10533Y782603D01*
X10500Y782554D01*
X10460Y782511D01*
X10422Y782437D01*
X10375Y782367D01*
X10358Y782310D01*
X10331Y782258D01*
X10319Y782190D01*
X10289Y782095D01*
X10287Y781995D01*
X10276Y781927D01*
X10379Y585127D01*
X10387Y585069D01*
X10386Y585011D01*
X10407Y584930D01*
X10419Y584846D01*
X10443Y584792D01*
X10458Y584736D01*
X10501Y584664D01*
X10536Y584586D01*
X10573Y584542D01*
X10603Y584492D01*
X10665Y584434D01*
X10719Y584369D01*
X10768Y584337D01*
X10810Y584297D01*
X10886Y584259D01*
X10956Y584212D01*
X11012Y584194D01*
X11063Y584168D01*
X11132Y584156D01*
X11227Y584126D01*
X11326Y584124D01*
X11394Y584112D01*
X613315Y584112D01*
X613373Y584121D01*
G37*
G36*
X613666Y793966D02*
X613666Y793966D01*
X613724Y793965D01*
X613806Y793986D01*
X613890Y793998D01*
X613943Y794022D01*
X613999Y794037D01*
X614072Y794080D01*
X614149Y794114D01*
X614194Y794152D01*
X614244Y794182D01*
X614302Y794243D01*
X614366Y794298D01*
X614398Y794347D01*
X614438Y794389D01*
X614477Y794464D01*
X614524Y794535D01*
X614541Y794590D01*
X614568Y794642D01*
X614579Y794710D01*
X614609Y794806D01*
X614612Y794905D01*
X614623Y794973D01*
X614623Y988824D01*
X614615Y988882D01*
X614617Y988940D01*
X614595Y989022D01*
X614583Y989106D01*
X614560Y989159D01*
X614545Y989215D01*
X614502Y989288D01*
X614467Y989365D01*
X614429Y989410D01*
X614400Y989460D01*
X614338Y989518D01*
X614284Y989582D01*
X614235Y989614D01*
X614192Y989654D01*
X614117Y989693D01*
X614047Y989740D01*
X613991Y989757D01*
X613939Y989784D01*
X613871Y989795D01*
X613776Y989825D01*
X613676Y989828D01*
X613608Y989839D01*
X11182Y989839D01*
X11124Y989831D01*
X11065Y989833D01*
X10984Y989811D01*
X10900Y989799D01*
X10847Y989775D01*
X10790Y989761D01*
X10718Y989718D01*
X10641Y989683D01*
X10596Y989645D01*
X10546Y989615D01*
X10488Y989554D01*
X10424Y989500D01*
X10391Y989451D01*
X10351Y989408D01*
X10313Y989333D01*
X10266Y989263D01*
X10249Y989207D01*
X10222Y989155D01*
X10211Y989087D01*
X10181Y988992D01*
X10178Y988892D01*
X10167Y988823D01*
X10269Y794973D01*
X10277Y794915D01*
X10275Y794857D01*
X10297Y794775D01*
X10309Y794691D01*
X10332Y794638D01*
X10347Y794582D01*
X10390Y794509D01*
X10425Y794432D01*
X10463Y794388D01*
X10492Y794338D01*
X10554Y794280D01*
X10609Y794215D01*
X10657Y794183D01*
X10700Y794143D01*
X10775Y794105D01*
X10845Y794058D01*
X10901Y794040D01*
X10953Y794014D01*
X11021Y794002D01*
X11117Y793972D01*
X11216Y793970D01*
X11284Y793958D01*
X613608Y793958D01*
X613666Y793966D01*
G37*
G36*
X825587Y377815D02*
X825587Y377815D01*
X825645Y377813D01*
X825727Y377835D01*
X825810Y377847D01*
X825864Y377871D01*
X825920Y377885D01*
X825993Y377928D01*
X826070Y377963D01*
X826114Y378001D01*
X826165Y378031D01*
X826222Y378092D01*
X826287Y378147D01*
X826319Y378195D01*
X826359Y378238D01*
X826398Y378313D01*
X826444Y378383D01*
X826462Y378439D01*
X826489Y378491D01*
X826500Y378559D01*
X826530Y378654D01*
X826533Y378754D01*
X826544Y378822D01*
X826544Y517152D01*
X826540Y517181D01*
X826542Y517210D01*
X826520Y517321D01*
X826504Y517433D01*
X826492Y517460D01*
X826487Y517489D01*
X826434Y517589D01*
X826388Y517693D01*
X826369Y517715D01*
X826356Y517741D01*
X826277Y517823D01*
X826204Y517910D01*
X826180Y517926D01*
X826160Y517947D01*
X826062Y518005D01*
X825968Y518067D01*
X825940Y518076D01*
X825914Y518091D01*
X825805Y518119D01*
X825697Y518153D01*
X825667Y518154D01*
X825639Y518161D01*
X825526Y518157D01*
X825412Y518160D01*
X825384Y518153D01*
X825355Y518152D01*
X825247Y518117D01*
X825137Y518089D01*
X825112Y518074D01*
X825084Y518065D01*
X825020Y518019D01*
X824893Y517943D01*
X824850Y517898D01*
X824811Y517870D01*
X807898Y500956D01*
X807880Y500933D01*
X807858Y500914D01*
X807795Y500820D01*
X807727Y500729D01*
X807716Y500702D01*
X807700Y500677D01*
X807666Y500569D01*
X807626Y500464D01*
X807623Y500434D01*
X807614Y500406D01*
X807611Y500293D01*
X807602Y500180D01*
X807608Y500152D01*
X807607Y500122D01*
X807636Y500013D01*
X807658Y499901D01*
X807671Y499875D01*
X807679Y499847D01*
X807737Y499750D01*
X807789Y499649D01*
X807809Y499628D01*
X807824Y499603D01*
X807907Y499525D01*
X807985Y499443D01*
X808010Y499428D01*
X808031Y499408D01*
X808132Y499357D01*
X808230Y499299D01*
X808258Y499292D01*
X808284Y499279D01*
X808362Y499266D01*
X808505Y499229D01*
X808568Y499231D01*
X808616Y499223D01*
X816094Y499223D01*
X819268Y497908D01*
X821697Y495479D01*
X823012Y492304D01*
X823012Y488869D01*
X821697Y485694D01*
X819268Y483265D01*
X816094Y481950D01*
X798434Y481950D01*
X795259Y483265D01*
X792830Y485694D01*
X791515Y488869D01*
X791515Y492304D01*
X792830Y495479D01*
X793316Y495965D01*
X793333Y495988D01*
X793356Y496007D01*
X793418Y496101D01*
X793487Y496192D01*
X793497Y496219D01*
X793513Y496244D01*
X793547Y496352D01*
X793588Y496458D01*
X793590Y496487D01*
X793599Y496515D01*
X793602Y496628D01*
X793611Y496741D01*
X793606Y496770D01*
X793606Y496799D01*
X793578Y496909D01*
X793555Y497020D01*
X793542Y497046D01*
X793534Y497074D01*
X793477Y497171D01*
X793424Y497272D01*
X793404Y497293D01*
X793389Y497318D01*
X793307Y497396D01*
X793229Y497478D01*
X793203Y497493D01*
X793182Y497513D01*
X793081Y497565D01*
X792983Y497622D01*
X792955Y497629D01*
X792929Y497642D01*
X792851Y497655D01*
X792708Y497692D01*
X792645Y497690D01*
X792598Y497698D01*
X776895Y497698D01*
X776809Y497686D01*
X776721Y497683D01*
X776669Y497666D01*
X776614Y497658D01*
X776534Y497622D01*
X776451Y497595D01*
X776412Y497567D01*
X776355Y497542D01*
X776241Y497446D01*
X776178Y497401D01*
X772105Y493328D01*
X772088Y493305D01*
X772065Y493286D01*
X772003Y493192D01*
X771934Y493101D01*
X771924Y493074D01*
X771908Y493049D01*
X771874Y492941D01*
X771833Y492835D01*
X771831Y492806D01*
X771822Y492778D01*
X771819Y492665D01*
X771810Y492552D01*
X771815Y492523D01*
X771815Y492494D01*
X771843Y492384D01*
X771866Y492273D01*
X771879Y492247D01*
X771886Y492219D01*
X771944Y492122D01*
X771997Y492021D01*
X772017Y492000D01*
X772032Y491975D01*
X772114Y491897D01*
X772192Y491815D01*
X772218Y491800D01*
X772239Y491780D01*
X772340Y491728D01*
X772438Y491671D01*
X772466Y491664D01*
X772492Y491651D01*
X772570Y491638D01*
X772713Y491601D01*
X772776Y491603D01*
X772823Y491595D01*
X775146Y491595D01*
X779300Y489874D01*
X782480Y486695D01*
X784201Y482540D01*
X784201Y458485D01*
X782480Y454330D01*
X779300Y451151D01*
X775146Y449430D01*
X770649Y449430D01*
X766494Y451151D01*
X763314Y454330D01*
X761593Y458485D01*
X761593Y478924D01*
X761589Y478953D01*
X761592Y478982D01*
X761569Y479093D01*
X761554Y479205D01*
X761542Y479232D01*
X761536Y479261D01*
X761484Y479361D01*
X761437Y479465D01*
X761418Y479487D01*
X761405Y479513D01*
X761327Y479595D01*
X761254Y479682D01*
X761229Y479698D01*
X761209Y479719D01*
X761111Y479776D01*
X761017Y479839D01*
X760989Y479848D01*
X760964Y479863D01*
X760854Y479891D01*
X760746Y479925D01*
X760717Y479926D01*
X760688Y479933D01*
X760575Y479929D01*
X760462Y479932D01*
X760433Y479925D01*
X760404Y479924D01*
X760296Y479889D01*
X760187Y479860D01*
X760162Y479846D01*
X760134Y479836D01*
X760070Y479791D01*
X759942Y479715D01*
X759900Y479670D01*
X759860Y479642D01*
X759098Y478880D01*
X759046Y478810D01*
X758986Y478746D01*
X758961Y478697D01*
X758927Y478652D01*
X758896Y478571D01*
X758856Y478493D01*
X758848Y478445D01*
X758826Y478387D01*
X758814Y478239D01*
X758801Y478162D01*
X758801Y458485D01*
X757080Y454330D01*
X753900Y451151D01*
X749746Y449430D01*
X745249Y449430D01*
X741094Y451151D01*
X737914Y454330D01*
X736139Y458615D01*
X736136Y458621D01*
X736135Y458627D01*
X736064Y458743D01*
X735995Y458860D01*
X735990Y458865D01*
X735987Y458870D01*
X735887Y458962D01*
X735788Y459055D01*
X735783Y459058D01*
X735778Y459063D01*
X735657Y459123D01*
X735535Y459186D01*
X735529Y459187D01*
X735524Y459190D01*
X735390Y459214D01*
X735257Y459241D01*
X735250Y459240D01*
X735244Y459241D01*
X735108Y459228D01*
X734973Y459216D01*
X734968Y459214D01*
X734961Y459213D01*
X734835Y459163D01*
X734708Y459114D01*
X734703Y459110D01*
X734697Y459108D01*
X734589Y459024D01*
X734481Y458943D01*
X734478Y458938D01*
X734473Y458934D01*
X734392Y458824D01*
X734311Y458715D01*
X734309Y458709D01*
X734305Y458704D01*
X734291Y458663D01*
X734211Y458449D01*
X734208Y458413D01*
X734199Y458386D01*
X734114Y457849D01*
X733514Y456004D01*
X732634Y454276D01*
X731494Y452708D01*
X730123Y451336D01*
X728554Y450197D01*
X726826Y449316D01*
X724982Y448717D01*
X724128Y448582D01*
X724128Y469496D01*
X724120Y469554D01*
X724122Y469613D01*
X724100Y469694D01*
X724089Y469778D01*
X724065Y469831D01*
X724050Y469888D01*
X724007Y469960D01*
X723972Y470037D01*
X723934Y470082D01*
X723905Y470132D01*
X723843Y470190D01*
X723789Y470254D01*
X723740Y470287D01*
X723697Y470327D01*
X723622Y470365D01*
X723552Y470412D01*
X723496Y470429D01*
X723444Y470456D01*
X723376Y470467D01*
X723281Y470498D01*
X723181Y470500D01*
X723113Y470512D01*
X722096Y470512D01*
X722096Y470513D01*
X723113Y470513D01*
X723171Y470521D01*
X723229Y470520D01*
X723311Y470541D01*
X723395Y470553D01*
X723448Y470577D01*
X723505Y470592D01*
X723577Y470635D01*
X723654Y470669D01*
X723699Y470707D01*
X723749Y470737D01*
X723807Y470799D01*
X723871Y470853D01*
X723903Y470902D01*
X723943Y470944D01*
X723982Y471019D01*
X724029Y471090D01*
X724046Y471145D01*
X724073Y471197D01*
X724084Y471266D01*
X724114Y471361D01*
X724117Y471460D01*
X724128Y471529D01*
X724128Y492443D01*
X724982Y492308D01*
X726826Y491709D01*
X728554Y490828D01*
X730123Y489688D01*
X731494Y488317D01*
X732634Y486748D01*
X733514Y485021D01*
X734114Y483176D01*
X734199Y482639D01*
X734200Y482633D01*
X734201Y482627D01*
X734242Y482497D01*
X734282Y482367D01*
X734285Y482362D01*
X734287Y482356D01*
X734363Y482243D01*
X734437Y482129D01*
X734442Y482125D01*
X734446Y482120D01*
X734550Y482032D01*
X734653Y481944D01*
X734658Y481941D01*
X734663Y481937D01*
X734788Y481882D01*
X734911Y481825D01*
X734917Y481824D01*
X734923Y481822D01*
X735057Y481803D01*
X735192Y481783D01*
X735198Y481783D01*
X735205Y481783D01*
X735339Y481802D01*
X735474Y481820D01*
X735480Y481822D01*
X735486Y481823D01*
X735609Y481879D01*
X735735Y481934D01*
X735739Y481938D01*
X735745Y481940D01*
X735849Y482029D01*
X735953Y482116D01*
X735957Y482121D01*
X735961Y482125D01*
X735985Y482162D01*
X736113Y482351D01*
X736124Y482385D01*
X736139Y482409D01*
X737914Y486694D01*
X741094Y489874D01*
X745249Y491595D01*
X749746Y491595D01*
X753900Y489874D01*
X757099Y486676D01*
X757120Y486639D01*
X757173Y486537D01*
X757192Y486517D01*
X757206Y486493D01*
X757290Y486414D01*
X757369Y486331D01*
X757393Y486317D01*
X757413Y486298D01*
X757516Y486245D01*
X757614Y486187D01*
X757641Y486181D01*
X757666Y486168D01*
X757779Y486145D01*
X757890Y486117D01*
X757918Y486118D01*
X757945Y486113D01*
X758059Y486123D01*
X758174Y486126D01*
X758200Y486135D01*
X758228Y486137D01*
X758335Y486178D01*
X758444Y486214D01*
X758465Y486228D01*
X758493Y486239D01*
X758705Y486400D01*
X758718Y486409D01*
X774581Y502271D01*
X802324Y502271D01*
X802411Y502284D01*
X802498Y502286D01*
X802551Y502303D01*
X802606Y502311D01*
X802686Y502347D01*
X802769Y502374D01*
X802808Y502402D01*
X802865Y502427D01*
X802978Y502523D01*
X803042Y502569D01*
X822929Y522455D01*
X822981Y522525D01*
X823041Y522589D01*
X823067Y522638D01*
X823100Y522683D01*
X823131Y522764D01*
X823171Y522842D01*
X823179Y522890D01*
X823201Y522948D01*
X823213Y523096D01*
X823226Y523173D01*
X823226Y904557D01*
X823214Y904644D01*
X823211Y904731D01*
X823194Y904784D01*
X823186Y904839D01*
X823151Y904919D01*
X823124Y905002D01*
X823096Y905041D01*
X823070Y905098D01*
X822974Y905211D01*
X822929Y905275D01*
X799005Y929199D01*
X798936Y929251D01*
X798872Y929311D01*
X798822Y929336D01*
X798778Y929369D01*
X798696Y929401D01*
X798619Y929440D01*
X798571Y929448D01*
X798513Y929471D01*
X798365Y929483D01*
X798287Y929496D01*
X700466Y929496D01*
X700353Y929480D01*
X700238Y929470D01*
X700212Y929460D01*
X700185Y929456D01*
X700080Y929409D01*
X699973Y929368D01*
X699951Y929351D01*
X699925Y929340D01*
X699838Y929266D01*
X699746Y929196D01*
X699730Y929174D01*
X699708Y929156D01*
X699645Y929061D01*
X699576Y928969D01*
X699566Y928943D01*
X699551Y928920D01*
X699516Y928810D01*
X699476Y928703D01*
X699473Y928675D01*
X699465Y928649D01*
X699462Y928534D01*
X699453Y928419D01*
X699459Y928395D01*
X699458Y928364D01*
X699525Y928107D01*
X699528Y928092D01*
X700145Y926603D01*
X700145Y924492D01*
X699337Y922541D01*
X697844Y921049D01*
X695894Y920241D01*
X693783Y920241D01*
X691832Y921049D01*
X690340Y922541D01*
X689532Y924492D01*
X689532Y926603D01*
X690340Y928554D01*
X691832Y930046D01*
X693783Y930854D01*
X694126Y930854D01*
X694213Y930867D01*
X694300Y930869D01*
X694353Y930886D01*
X694408Y930894D01*
X694488Y930930D01*
X694571Y930957D01*
X694610Y930985D01*
X694667Y931010D01*
X694780Y931106D01*
X694844Y931152D01*
X697762Y934069D01*
X800602Y934069D01*
X824811Y909861D01*
X824834Y909843D01*
X824853Y909821D01*
X824948Y909758D01*
X825038Y909690D01*
X825065Y909680D01*
X825090Y909663D01*
X825198Y909629D01*
X825304Y909589D01*
X825333Y909586D01*
X825361Y909578D01*
X825474Y909575D01*
X825587Y909565D01*
X825616Y909571D01*
X825645Y909570D01*
X825755Y909599D01*
X825866Y909621D01*
X825892Y909635D01*
X825920Y909642D01*
X826018Y909700D01*
X826118Y909752D01*
X826139Y909772D01*
X826165Y909787D01*
X826242Y909870D01*
X826324Y909948D01*
X826339Y909973D01*
X826359Y909995D01*
X826411Y910095D01*
X826468Y910193D01*
X826475Y910222D01*
X826489Y910248D01*
X826502Y910325D01*
X826538Y910469D01*
X826536Y910531D01*
X826544Y910579D01*
X826544Y984122D01*
X826536Y984180D01*
X826537Y984238D01*
X826516Y984320D01*
X826504Y984403D01*
X826480Y984457D01*
X826466Y984513D01*
X826423Y984586D01*
X826388Y984663D01*
X826350Y984707D01*
X826320Y984758D01*
X826259Y984815D01*
X826204Y984880D01*
X826156Y984912D01*
X826113Y984952D01*
X826038Y984991D01*
X825968Y985037D01*
X825912Y985055D01*
X825860Y985082D01*
X825792Y985093D01*
X825697Y985123D01*
X825597Y985126D01*
X825529Y985137D01*
X626444Y985137D01*
X626386Y985129D01*
X626327Y985130D01*
X626246Y985109D01*
X626162Y985097D01*
X626109Y985073D01*
X626052Y985059D01*
X625980Y985016D01*
X625903Y984981D01*
X625858Y984943D01*
X625808Y984913D01*
X625750Y984852D01*
X625686Y984797D01*
X625653Y984749D01*
X625613Y984706D01*
X625575Y984631D01*
X625528Y984561D01*
X625510Y984505D01*
X625484Y984453D01*
X625472Y984385D01*
X625442Y984290D01*
X625440Y984190D01*
X625428Y984122D01*
X625428Y378822D01*
X625437Y378764D01*
X625435Y378706D01*
X625456Y378624D01*
X625468Y378541D01*
X625492Y378487D01*
X625507Y378431D01*
X625550Y378358D01*
X625584Y378281D01*
X625622Y378236D01*
X625652Y378186D01*
X625714Y378128D01*
X625768Y378064D01*
X625817Y378032D01*
X625859Y377992D01*
X625934Y377953D01*
X626005Y377907D01*
X626061Y377889D01*
X626113Y377862D01*
X626181Y377851D01*
X626276Y377821D01*
X626376Y377818D01*
X626444Y377807D01*
X825529Y377807D01*
X825587Y377815D01*
G37*
G36*
X143541Y163829D02*
X143541Y163829D01*
X143571Y163826D01*
X143682Y163849D01*
X143794Y163864D01*
X143820Y163876D01*
X143849Y163882D01*
X143950Y163934D01*
X144053Y163981D01*
X144076Y164000D01*
X144102Y164013D01*
X144184Y164091D01*
X144270Y164164D01*
X144286Y164189D01*
X144308Y164209D01*
X144365Y164307D01*
X144428Y164401D01*
X144437Y164429D01*
X144451Y164454D01*
X144479Y164564D01*
X144514Y164672D01*
X144514Y164701D01*
X144522Y164730D01*
X144518Y164843D01*
X144521Y164956D01*
X144513Y164985D01*
X144512Y165014D01*
X144478Y165122D01*
X144449Y165231D01*
X144434Y165256D01*
X144425Y165284D01*
X144380Y165348D01*
X144304Y165476D01*
X144258Y165519D01*
X144230Y165558D01*
X127850Y181938D01*
X127827Y181955D01*
X127808Y181978D01*
X127713Y182041D01*
X127623Y182109D01*
X127596Y182119D01*
X127571Y182135D01*
X127463Y182170D01*
X127357Y182210D01*
X127328Y182212D01*
X127300Y182221D01*
X127187Y182224D01*
X127074Y182233D01*
X127045Y182228D01*
X127016Y182228D01*
X126906Y182200D01*
X126795Y182178D01*
X126769Y182164D01*
X126741Y182157D01*
X126644Y182099D01*
X126543Y182047D01*
X126522Y182026D01*
X126496Y182011D01*
X126419Y181929D01*
X126337Y181851D01*
X126322Y181825D01*
X126302Y181804D01*
X126250Y181703D01*
X126193Y181605D01*
X126186Y181577D01*
X126173Y181551D01*
X126160Y181474D01*
X126123Y181330D01*
X126125Y181267D01*
X126117Y181220D01*
X126117Y173742D01*
X124802Y170567D01*
X122373Y168138D01*
X119198Y166823D01*
X115762Y166823D01*
X112588Y168138D01*
X110158Y170567D01*
X108844Y173742D01*
X108844Y191402D01*
X110158Y194576D01*
X112588Y197006D01*
X115762Y198321D01*
X119198Y198321D01*
X122373Y197006D01*
X122858Y196520D01*
X122882Y196502D01*
X122901Y196480D01*
X122995Y196417D01*
X123086Y196349D01*
X123113Y196338D01*
X123138Y196322D01*
X123245Y196288D01*
X123351Y196248D01*
X123381Y196245D01*
X123409Y196236D01*
X123522Y196233D01*
X123635Y196224D01*
X123663Y196230D01*
X123693Y196229D01*
X123802Y196258D01*
X123913Y196280D01*
X123939Y196293D01*
X123968Y196301D01*
X124065Y196359D01*
X124166Y196411D01*
X124187Y196431D01*
X124212Y196446D01*
X124290Y196529D01*
X124372Y196607D01*
X124387Y196632D01*
X124407Y196653D01*
X124458Y196754D01*
X124516Y196852D01*
X124523Y196880D01*
X124536Y196907D01*
X124549Y196984D01*
X124586Y197127D01*
X124584Y197190D01*
X124592Y197238D01*
X124592Y212940D01*
X124579Y213026D01*
X124577Y213114D01*
X124560Y213167D01*
X124552Y213221D01*
X124516Y213301D01*
X124489Y213384D01*
X124461Y213424D01*
X124436Y213481D01*
X124340Y213594D01*
X124294Y213658D01*
X120222Y217730D01*
X120199Y217748D01*
X120180Y217770D01*
X120085Y217833D01*
X119995Y217901D01*
X119967Y217911D01*
X119943Y217928D01*
X119835Y217962D01*
X119729Y218002D01*
X119700Y218005D01*
X119672Y218013D01*
X119559Y218016D01*
X119446Y218026D01*
X119417Y218020D01*
X119388Y218021D01*
X119278Y217992D01*
X119167Y217970D01*
X119141Y217956D01*
X119113Y217949D01*
X119015Y217891D01*
X118915Y217839D01*
X118894Y217819D01*
X118868Y217804D01*
X118791Y217721D01*
X118709Y217643D01*
X118694Y217618D01*
X118674Y217596D01*
X118622Y217495D01*
X118565Y217398D01*
X118558Y217369D01*
X118544Y217343D01*
X118531Y217266D01*
X118495Y217122D01*
X118497Y217060D01*
X118489Y217012D01*
X118489Y214690D01*
X116768Y210535D01*
X113588Y207355D01*
X109434Y205634D01*
X85379Y205634D01*
X81224Y207355D01*
X78044Y210535D01*
X76323Y214690D01*
X76323Y219187D01*
X78044Y223341D01*
X81224Y226521D01*
X85379Y228242D01*
X105818Y228242D01*
X105847Y228246D01*
X105876Y228244D01*
X105987Y228266D01*
X106099Y228282D01*
X106126Y228294D01*
X106155Y228299D01*
X106255Y228352D01*
X106358Y228398D01*
X106381Y228417D01*
X106407Y228430D01*
X106489Y228509D01*
X106575Y228582D01*
X106592Y228606D01*
X106613Y228626D01*
X106670Y228724D01*
X106733Y228818D01*
X106742Y228846D01*
X106757Y228872D01*
X106785Y228981D01*
X106819Y229089D01*
X106820Y229119D01*
X106827Y229147D01*
X106823Y229260D01*
X106826Y229374D01*
X106819Y229402D01*
X106818Y229431D01*
X106783Y229539D01*
X106754Y229649D01*
X106739Y229674D01*
X106730Y229702D01*
X106685Y229766D01*
X106609Y229893D01*
X106563Y229936D01*
X106535Y229975D01*
X105773Y230737D01*
X105703Y230790D01*
X105640Y230850D01*
X105590Y230875D01*
X105546Y230908D01*
X105464Y230939D01*
X105387Y230979D01*
X105339Y230987D01*
X105280Y231009D01*
X105133Y231021D01*
X105055Y231034D01*
X85379Y231034D01*
X81224Y232755D01*
X78044Y235935D01*
X76323Y240090D01*
X76323Y244587D01*
X78044Y248741D01*
X81224Y251921D01*
X85509Y253696D01*
X85515Y253699D01*
X85521Y253701D01*
X85637Y253771D01*
X85754Y253840D01*
X85758Y253845D01*
X85764Y253848D01*
X85856Y253948D01*
X85949Y254047D01*
X85952Y254053D01*
X85956Y254057D01*
X86017Y254179D01*
X86079Y254300D01*
X86081Y254306D01*
X86083Y254312D01*
X86108Y254445D01*
X86135Y254579D01*
X86134Y254585D01*
X86135Y254591D01*
X86122Y254727D01*
X86110Y254862D01*
X86108Y254868D01*
X86107Y254874D01*
X86057Y255001D01*
X86008Y255127D01*
X86004Y255132D01*
X86002Y255138D01*
X85918Y255246D01*
X85836Y255354D01*
X85832Y255358D01*
X85828Y255363D01*
X85718Y255443D01*
X85609Y255524D01*
X85603Y255526D01*
X85598Y255530D01*
X85557Y255544D01*
X85343Y255625D01*
X85307Y255628D01*
X85280Y255637D01*
X84742Y255722D01*
X82898Y256321D01*
X81170Y257201D01*
X79601Y258341D01*
X78230Y259712D01*
X77090Y261281D01*
X76210Y263009D01*
X75611Y264853D01*
X75476Y265707D01*
X96390Y265707D01*
X96448Y265715D01*
X96506Y265714D01*
X96588Y265735D01*
X96672Y265747D01*
X96725Y265771D01*
X96781Y265785D01*
X96854Y265829D01*
X96931Y265863D01*
X96976Y265901D01*
X97026Y265931D01*
X97084Y265992D01*
X97148Y266047D01*
X97180Y266095D01*
X97220Y266138D01*
X97259Y266213D01*
X97306Y266283D01*
X97323Y266339D01*
X97350Y266391D01*
X97361Y266459D01*
X97391Y266554D01*
X97394Y266654D01*
X97405Y266722D01*
X97405Y267739D01*
X97407Y267739D01*
X97407Y266722D01*
X97415Y266664D01*
X97414Y266606D01*
X97435Y266524D01*
X97447Y266441D01*
X97471Y266387D01*
X97486Y266331D01*
X97529Y266258D01*
X97563Y266181D01*
X97601Y266137D01*
X97631Y266086D01*
X97692Y266029D01*
X97747Y265964D01*
X97795Y265932D01*
X97838Y265892D01*
X97913Y265853D01*
X97983Y265807D01*
X98039Y265789D01*
X98091Y265762D01*
X98159Y265751D01*
X98254Y265721D01*
X98354Y265718D01*
X98422Y265707D01*
X119337Y265707D01*
X119202Y264853D01*
X118602Y263009D01*
X117722Y261281D01*
X116582Y259712D01*
X115211Y258341D01*
X113642Y257201D01*
X111914Y256321D01*
X110070Y255722D01*
X109533Y255637D01*
X109527Y255635D01*
X109521Y255635D01*
X109391Y255593D01*
X109261Y255553D01*
X109256Y255550D01*
X109250Y255548D01*
X109137Y255472D01*
X109023Y255398D01*
X109019Y255393D01*
X109014Y255390D01*
X108926Y255285D01*
X108837Y255183D01*
X108835Y255177D01*
X108831Y255172D01*
X108775Y255048D01*
X108719Y254924D01*
X108718Y254918D01*
X108715Y254912D01*
X108697Y254778D01*
X108676Y254643D01*
X108677Y254637D01*
X108676Y254631D01*
X108696Y254496D01*
X108714Y254361D01*
X108716Y254356D01*
X108717Y254349D01*
X108773Y254226D01*
X108828Y254101D01*
X108832Y254096D01*
X108834Y254090D01*
X108922Y253987D01*
X109009Y253882D01*
X109014Y253879D01*
X109018Y253874D01*
X109056Y253851D01*
X109244Y253722D01*
X109279Y253711D01*
X109303Y253696D01*
X113588Y251921D01*
X116768Y248741D01*
X118489Y244587D01*
X118489Y240090D01*
X116768Y235935D01*
X113570Y232737D01*
X113551Y232726D01*
X113506Y232705D01*
X113492Y232694D01*
X113431Y232662D01*
X113411Y232643D01*
X113387Y232629D01*
X113308Y232545D01*
X113225Y232466D01*
X113211Y232442D01*
X113192Y232422D01*
X113139Y232320D01*
X113081Y232221D01*
X113074Y232194D01*
X113062Y232169D01*
X113039Y232056D01*
X113011Y231945D01*
X113012Y231918D01*
X113007Y231891D01*
X113016Y231776D01*
X113020Y231661D01*
X113029Y231635D01*
X113031Y231607D01*
X113072Y231500D01*
X113108Y231391D01*
X113122Y231371D01*
X113133Y231342D01*
X113293Y231130D01*
X113302Y231117D01*
X129165Y215255D01*
X129165Y187511D01*
X129177Y187425D01*
X129180Y187337D01*
X129197Y187284D01*
X129205Y187230D01*
X129241Y187150D01*
X129268Y187067D01*
X129296Y187027D01*
X129321Y186970D01*
X129417Y186857D01*
X129462Y186793D01*
X148832Y167424D01*
X148902Y167371D01*
X148966Y167311D01*
X149015Y167286D01*
X149059Y167253D01*
X149141Y167222D01*
X149219Y167182D01*
X149267Y167174D01*
X149325Y167151D01*
X149473Y167139D01*
X149550Y167126D01*
X531968Y167126D01*
X532055Y167138D01*
X532142Y167141D01*
X532195Y167158D01*
X532250Y167166D01*
X532329Y167202D01*
X532413Y167229D01*
X532452Y167257D01*
X532509Y167282D01*
X532622Y167378D01*
X532686Y167424D01*
X556092Y190830D01*
X556145Y190900D01*
X556205Y190964D01*
X556230Y191013D01*
X556263Y191057D01*
X556294Y191139D01*
X556334Y191217D01*
X556342Y191264D01*
X556364Y191323D01*
X556377Y191471D01*
X556390Y191548D01*
X556390Y289369D01*
X556374Y289483D01*
X556364Y289597D01*
X556354Y289623D01*
X556350Y289651D01*
X556303Y289755D01*
X556262Y289863D01*
X556245Y289885D01*
X556234Y289910D01*
X556160Y289998D01*
X556090Y290089D01*
X556068Y290106D01*
X556050Y290127D01*
X555954Y290191D01*
X555862Y290259D01*
X555836Y290269D01*
X555813Y290285D01*
X555704Y290319D01*
X555596Y290360D01*
X555569Y290362D01*
X555542Y290370D01*
X555427Y290373D01*
X555313Y290382D01*
X555289Y290377D01*
X555258Y290378D01*
X555001Y290311D01*
X554986Y290307D01*
X553497Y289690D01*
X551386Y289690D01*
X549435Y290498D01*
X547943Y291991D01*
X547135Y293941D01*
X547135Y296053D01*
X547943Y298003D01*
X549435Y299496D01*
X551386Y300304D01*
X553497Y300304D01*
X555447Y299496D01*
X556940Y298003D01*
X557748Y296053D01*
X557748Y295709D01*
X557760Y295622D01*
X557763Y295535D01*
X557780Y295482D01*
X557788Y295428D01*
X557824Y295348D01*
X557851Y295265D01*
X557879Y295225D01*
X557904Y295168D01*
X558000Y295055D01*
X558045Y294991D01*
X560963Y292073D01*
X560963Y189233D01*
X537288Y165558D01*
X537270Y165534D01*
X537248Y165515D01*
X537185Y165421D01*
X537117Y165331D01*
X537107Y165303D01*
X537090Y165279D01*
X537056Y165171D01*
X537016Y165065D01*
X537013Y165036D01*
X537005Y165008D01*
X537002Y164894D01*
X536992Y164782D01*
X536998Y164753D01*
X536997Y164723D01*
X537026Y164614D01*
X537048Y164503D01*
X537062Y164477D01*
X537069Y164448D01*
X537127Y164351D01*
X537179Y164251D01*
X537199Y164229D01*
X537214Y164204D01*
X537297Y164127D01*
X537375Y164044D01*
X537400Y164030D01*
X537422Y164009D01*
X537523Y163958D01*
X537620Y163901D01*
X537649Y163893D01*
X537675Y163880D01*
X537752Y163867D01*
X537896Y163831D01*
X537958Y163833D01*
X538006Y163825D01*
X611016Y163825D01*
X611074Y163833D01*
X611132Y163831D01*
X611214Y163853D01*
X611297Y163864D01*
X611351Y163888D01*
X611407Y163903D01*
X611479Y163946D01*
X611557Y163981D01*
X611601Y164018D01*
X611651Y164048D01*
X611709Y164110D01*
X611774Y164164D01*
X611806Y164213D01*
X611846Y164256D01*
X611884Y164331D01*
X611931Y164401D01*
X611949Y164457D01*
X611975Y164509D01*
X611987Y164577D01*
X612017Y164672D01*
X612019Y164772D01*
X612031Y164840D01*
X612031Y363276D01*
X612023Y363334D01*
X612024Y363393D01*
X612003Y363474D01*
X611991Y363558D01*
X611967Y363611D01*
X611952Y363668D01*
X611909Y363740D01*
X611875Y363817D01*
X611837Y363862D01*
X611807Y363912D01*
X611746Y363970D01*
X611691Y364034D01*
X611643Y364067D01*
X611600Y364107D01*
X611525Y364145D01*
X611455Y364192D01*
X611399Y364210D01*
X611347Y364236D01*
X611279Y364248D01*
X611183Y364278D01*
X611084Y364280D01*
X611016Y364292D01*
X11511Y364292D01*
X11453Y364283D01*
X11394Y364285D01*
X11313Y364264D01*
X11230Y364252D01*
X11176Y364228D01*
X11119Y364213D01*
X11047Y364170D01*
X10970Y364136D01*
X10926Y364098D01*
X10875Y364068D01*
X10817Y364006D01*
X10753Y363952D01*
X10721Y363903D01*
X10681Y363860D01*
X10642Y363785D01*
X10596Y363715D01*
X10578Y363659D01*
X10551Y363607D01*
X10540Y363539D01*
X10510Y363444D01*
X10507Y363344D01*
X10496Y363276D01*
X10518Y322238D01*
X10522Y322209D01*
X10519Y322180D01*
X10542Y322069D01*
X10557Y321957D01*
X10569Y321930D01*
X10575Y321902D01*
X10627Y321801D01*
X10674Y321697D01*
X10693Y321675D01*
X10706Y321649D01*
X10784Y321567D01*
X10858Y321480D01*
X10882Y321464D01*
X10902Y321443D01*
X11000Y321386D01*
X11094Y321323D01*
X11122Y321314D01*
X11147Y321300D01*
X11257Y321272D01*
X11365Y321237D01*
X11395Y321237D01*
X11423Y321229D01*
X11536Y321233D01*
X11650Y321230D01*
X11678Y321238D01*
X11707Y321239D01*
X11815Y321273D01*
X11925Y321302D01*
X11950Y321317D01*
X11977Y321326D01*
X12041Y321371D01*
X12169Y321448D01*
X12212Y321493D01*
X12251Y321521D01*
X15063Y324333D01*
X19077Y325996D01*
X23422Y325996D01*
X27437Y324333D01*
X30510Y321260D01*
X32172Y317246D01*
X32172Y312900D01*
X30510Y308886D01*
X29911Y308287D01*
X29859Y308218D01*
X29800Y308155D01*
X29774Y308105D01*
X29740Y308059D01*
X29709Y307979D01*
X29670Y307903D01*
X29659Y307847D01*
X29638Y307794D01*
X29631Y307708D01*
X29615Y307624D01*
X29620Y307567D01*
X29615Y307510D01*
X29632Y307426D01*
X29639Y307341D01*
X29660Y307288D01*
X29671Y307232D01*
X29710Y307155D01*
X29741Y307075D01*
X29775Y307030D01*
X29802Y306979D01*
X29861Y306917D01*
X29913Y306849D01*
X29958Y306814D01*
X29998Y306773D01*
X30072Y306730D01*
X30141Y306678D01*
X30194Y306658D01*
X30243Y306630D01*
X30326Y306608D01*
X30406Y306578D01*
X30463Y306573D01*
X30518Y306559D01*
X30604Y306562D01*
X30690Y306555D01*
X30738Y306566D01*
X30802Y306568D01*
X30940Y306613D01*
X31017Y306631D01*
X31777Y306946D01*
X36122Y306946D01*
X36883Y306631D01*
X36966Y306609D01*
X37046Y306579D01*
X37103Y306574D01*
X37158Y306560D01*
X37244Y306562D01*
X37329Y306555D01*
X37385Y306566D01*
X37442Y306568D01*
X37524Y306594D01*
X37608Y306611D01*
X37659Y306637D01*
X37713Y306655D01*
X37784Y306702D01*
X37860Y306742D01*
X37902Y306781D01*
X37949Y306813D01*
X38004Y306879D01*
X38066Y306938D01*
X38095Y306987D01*
X38132Y307030D01*
X38167Y307109D01*
X38210Y307183D01*
X38224Y307238D01*
X38247Y307290D01*
X38259Y307375D01*
X38280Y307459D01*
X38278Y307515D01*
X38286Y307572D01*
X38274Y307657D01*
X38271Y307743D01*
X38254Y307797D01*
X38246Y307853D01*
X38210Y307931D01*
X38184Y308013D01*
X38155Y308054D01*
X38129Y308112D01*
X38034Y308223D01*
X37989Y308287D01*
X37390Y308886D01*
X35727Y312900D01*
X35727Y317246D01*
X37390Y321260D01*
X40462Y324333D01*
X44477Y325996D01*
X48822Y325996D01*
X52837Y324333D01*
X55910Y321260D01*
X57572Y317246D01*
X57572Y312900D01*
X55910Y308886D01*
X52837Y305813D01*
X48822Y304150D01*
X44477Y304150D01*
X43717Y304465D01*
X43634Y304486D01*
X43553Y304517D01*
X43497Y304522D01*
X43442Y304536D01*
X43356Y304533D01*
X43270Y304541D01*
X43214Y304529D01*
X43158Y304528D01*
X43076Y304502D01*
X42991Y304485D01*
X42941Y304458D01*
X42887Y304441D01*
X42815Y304393D01*
X42739Y304354D01*
X42698Y304314D01*
X42651Y304283D01*
X42595Y304217D01*
X42533Y304158D01*
X42504Y304109D01*
X42468Y304065D01*
X42433Y303987D01*
X42389Y303913D01*
X42375Y303857D01*
X42352Y303805D01*
X42340Y303720D01*
X42319Y303637D01*
X42321Y303580D01*
X42313Y303524D01*
X42326Y303439D01*
X42328Y303353D01*
X42346Y303299D01*
X42354Y303242D01*
X42389Y303164D01*
X42416Y303082D01*
X42444Y303042D01*
X42471Y302983D01*
X42565Y302873D01*
X42611Y302809D01*
X43210Y302210D01*
X44872Y298196D01*
X44872Y293850D01*
X43210Y289836D01*
X40137Y286763D01*
X36122Y285100D01*
X31777Y285100D01*
X27762Y286763D01*
X24690Y289836D01*
X23027Y293850D01*
X23027Y298196D01*
X24690Y302210D01*
X25289Y302809D01*
X25341Y302878D01*
X25400Y302940D01*
X25426Y302991D01*
X25460Y303036D01*
X25490Y303117D01*
X25530Y303193D01*
X25541Y303249D01*
X25561Y303302D01*
X25568Y303388D01*
X25585Y303472D01*
X25580Y303529D01*
X25585Y303585D01*
X25568Y303669D01*
X25560Y303755D01*
X25540Y303808D01*
X25529Y303864D01*
X25489Y303940D01*
X25458Y304020D01*
X25424Y304066D01*
X25398Y304116D01*
X25339Y304179D01*
X25287Y304247D01*
X25241Y304281D01*
X25202Y304322D01*
X25128Y304366D01*
X25059Y304417D01*
X25006Y304437D01*
X24957Y304466D01*
X24873Y304487D01*
X24793Y304518D01*
X24736Y304522D01*
X24681Y304536D01*
X24595Y304534D01*
X24510Y304540D01*
X24461Y304529D01*
X24397Y304527D01*
X24259Y304483D01*
X24183Y304465D01*
X23422Y304150D01*
X19077Y304150D01*
X15063Y305813D01*
X12258Y308617D01*
X12235Y308635D01*
X12215Y308658D01*
X12122Y308720D01*
X12031Y308788D01*
X12003Y308799D01*
X11979Y308815D01*
X11871Y308849D01*
X11765Y308889D01*
X11736Y308892D01*
X11708Y308901D01*
X11595Y308904D01*
X11482Y308913D01*
X11453Y308907D01*
X11423Y308908D01*
X11314Y308879D01*
X11203Y308857D01*
X11177Y308843D01*
X11148Y308836D01*
X11051Y308778D01*
X10951Y308726D01*
X10930Y308706D01*
X10904Y308691D01*
X10827Y308608D01*
X10745Y308530D01*
X10730Y308505D01*
X10710Y308483D01*
X10658Y308383D01*
X10601Y308285D01*
X10594Y308256D01*
X10580Y308230D01*
X10567Y308152D01*
X10531Y308010D01*
X10533Y307947D01*
X10525Y307899D01*
X10542Y276133D01*
X10554Y276048D01*
X10556Y275963D01*
X10574Y275909D01*
X10582Y275852D01*
X10617Y275774D01*
X10643Y275692D01*
X10675Y275645D01*
X10698Y275593D01*
X10754Y275527D01*
X10801Y275456D01*
X10845Y275419D01*
X10882Y275376D01*
X10953Y275328D01*
X11019Y275273D01*
X11071Y275250D01*
X11119Y275218D01*
X11200Y275192D01*
X11279Y275158D01*
X11335Y275150D01*
X11390Y275133D01*
X11475Y275130D01*
X11560Y275119D01*
X11617Y275127D01*
X11674Y275125D01*
X11757Y275147D01*
X11842Y275159D01*
X11894Y275183D01*
X11949Y275197D01*
X12023Y275241D01*
X12101Y275276D01*
X12144Y275313D01*
X12193Y275343D01*
X12252Y275405D01*
X12317Y275461D01*
X12343Y275503D01*
X12388Y275550D01*
X12453Y275679D01*
X12495Y275745D01*
X13869Y279062D01*
X16278Y281472D01*
X19426Y282776D01*
X22833Y282776D01*
X25981Y281472D01*
X28391Y279062D01*
X29695Y275914D01*
X29695Y272507D01*
X28391Y269359D01*
X25981Y266950D01*
X22833Y265646D01*
X19426Y265646D01*
X16278Y266950D01*
X13869Y269359D01*
X12497Y272671D01*
X12453Y272746D01*
X12418Y272824D01*
X12381Y272867D01*
X12353Y272916D01*
X12290Y272975D01*
X12234Y273041D01*
X12187Y273072D01*
X12146Y273111D01*
X12069Y273151D01*
X11998Y273199D01*
X11944Y273216D01*
X11893Y273242D01*
X11809Y273258D01*
X11726Y273284D01*
X11670Y273286D01*
X11614Y273297D01*
X11528Y273289D01*
X11442Y273291D01*
X11387Y273277D01*
X11331Y273272D01*
X11251Y273241D01*
X11167Y273219D01*
X11119Y273190D01*
X11066Y273170D01*
X10997Y273118D01*
X10923Y273074D01*
X10884Y273033D01*
X10839Y272999D01*
X10787Y272930D01*
X10728Y272867D01*
X10703Y272816D01*
X10669Y272771D01*
X10638Y272690D01*
X10599Y272613D01*
X10591Y272565D01*
X10568Y272505D01*
X10557Y272360D01*
X10544Y272282D01*
X10552Y256920D01*
X10556Y256891D01*
X10554Y256862D01*
X10576Y256751D01*
X10592Y256638D01*
X10604Y256612D01*
X10610Y256583D01*
X10662Y256482D01*
X10708Y256379D01*
X10727Y256357D01*
X10741Y256331D01*
X10819Y256248D01*
X10892Y256162D01*
X10916Y256146D01*
X10936Y256125D01*
X11034Y256068D01*
X11129Y256005D01*
X11157Y255996D01*
X11182Y255981D01*
X11291Y255953D01*
X11400Y255919D01*
X11429Y255918D01*
X11457Y255911D01*
X11570Y255915D01*
X11684Y255912D01*
X11712Y255919D01*
X11741Y255920D01*
X11849Y255955D01*
X11959Y255984D01*
X11984Y255999D01*
X12012Y256008D01*
X12076Y256053D01*
X12203Y256129D01*
X12246Y256175D01*
X12285Y256202D01*
X13458Y257376D01*
X28801Y257376D01*
X29695Y256482D01*
X29695Y241139D01*
X28801Y240246D01*
X13458Y240246D01*
X12294Y241411D01*
X12270Y241429D01*
X12251Y241451D01*
X12157Y241514D01*
X12066Y241582D01*
X12039Y241592D01*
X12014Y241609D01*
X11906Y241643D01*
X11801Y241683D01*
X11771Y241685D01*
X11743Y241694D01*
X11630Y241697D01*
X11517Y241706D01*
X11489Y241701D01*
X11459Y241701D01*
X11349Y241673D01*
X11239Y241651D01*
X11212Y241637D01*
X11184Y241629D01*
X11087Y241572D01*
X10986Y241520D01*
X10965Y241499D01*
X10940Y241484D01*
X10862Y241402D01*
X10780Y241324D01*
X10765Y241298D01*
X10745Y241277D01*
X10694Y241176D01*
X10637Y241078D01*
X10629Y241050D01*
X10616Y241023D01*
X10603Y240946D01*
X10566Y240803D01*
X10568Y240740D01*
X10560Y240692D01*
X10600Y164839D01*
X10609Y164782D01*
X10607Y164723D01*
X10628Y164642D01*
X10640Y164558D01*
X10664Y164505D01*
X10679Y164448D01*
X10722Y164376D01*
X10757Y164298D01*
X10794Y164254D01*
X10824Y164204D01*
X10886Y164146D01*
X10941Y164082D01*
X10989Y164049D01*
X11031Y164009D01*
X11107Y163971D01*
X11177Y163924D01*
X11233Y163907D01*
X11285Y163880D01*
X11353Y163869D01*
X11448Y163838D01*
X11548Y163836D01*
X11616Y163825D01*
X143512Y163825D01*
X143541Y163829D01*
G37*
%LPC*%
G36*
X344358Y315573D02*
X344358Y315573D01*
X340203Y317294D01*
X337023Y320474D01*
X335302Y324629D01*
X335302Y348684D01*
X337023Y352838D01*
X339183Y354998D01*
X339198Y355018D01*
X339214Y355031D01*
X339216Y355035D01*
X339223Y355040D01*
X339286Y355135D01*
X339354Y355225D01*
X339365Y355253D01*
X339381Y355277D01*
X339415Y355385D01*
X339455Y355491D01*
X339458Y355520D01*
X339467Y355548D01*
X339470Y355662D01*
X339479Y355774D01*
X339473Y355803D01*
X339474Y355832D01*
X339445Y355942D01*
X339423Y356053D01*
X339409Y356079D01*
X339402Y356107D01*
X339344Y356205D01*
X339292Y356305D01*
X339272Y356327D01*
X339257Y356352D01*
X339174Y356429D01*
X339096Y356511D01*
X339071Y356526D01*
X339050Y356546D01*
X338949Y356598D01*
X338851Y356655D01*
X338823Y356662D01*
X338796Y356676D01*
X338719Y356689D01*
X338575Y356725D01*
X338513Y356723D01*
X338465Y356731D01*
X181894Y356731D01*
X181807Y356719D01*
X181720Y356716D01*
X181667Y356699D01*
X181612Y356691D01*
X181533Y356656D01*
X181449Y356629D01*
X181410Y356601D01*
X181353Y356575D01*
X181240Y356479D01*
X181176Y356434D01*
X168908Y344166D01*
X168856Y344097D01*
X168796Y344033D01*
X168771Y343983D01*
X168738Y343939D01*
X168706Y343857D01*
X168667Y343779D01*
X168659Y343732D01*
X168636Y343673D01*
X168624Y343526D01*
X168611Y343448D01*
X168611Y336570D01*
X167718Y335677D01*
X152955Y335677D01*
X152062Y336570D01*
X152062Y351333D01*
X152955Y352226D01*
X167718Y352226D01*
X168391Y351553D01*
X168438Y351518D01*
X168478Y351475D01*
X168551Y351433D01*
X168618Y351382D01*
X168673Y351361D01*
X168724Y351331D01*
X168805Y351311D01*
X168884Y351281D01*
X168942Y351276D01*
X168999Y351261D01*
X169083Y351264D01*
X169167Y351257D01*
X169225Y351269D01*
X169283Y351270D01*
X169363Y351296D01*
X169446Y351313D01*
X169498Y351340D01*
X169554Y351358D01*
X169610Y351398D01*
X169698Y351444D01*
X169771Y351513D01*
X169827Y351553D01*
X177942Y359668D01*
X179579Y361305D01*
X565514Y361305D01*
X575496Y351323D01*
X575497Y351322D01*
X575498Y351321D01*
X575611Y351236D01*
X575723Y351152D01*
X575724Y351151D01*
X575726Y351150D01*
X575856Y351101D01*
X575989Y351051D01*
X575990Y351051D01*
X575992Y351050D01*
X576130Y351039D01*
X576272Y351027D01*
X576273Y351028D01*
X576275Y351027D01*
X576290Y351031D01*
X576551Y351083D01*
X576578Y351097D01*
X576602Y351103D01*
X576695Y351141D01*
X578806Y351141D01*
X580756Y350333D01*
X582249Y348841D01*
X583057Y346890D01*
X583057Y344779D01*
X582249Y342828D01*
X580756Y341336D01*
X578806Y340528D01*
X576695Y340528D01*
X574744Y341336D01*
X573251Y342828D01*
X572444Y344779D01*
X572444Y346890D01*
X572482Y346983D01*
X572482Y346984D01*
X572483Y346985D01*
X572517Y347119D01*
X572553Y347258D01*
X572553Y347259D01*
X572553Y347261D01*
X572549Y347400D01*
X572545Y347542D01*
X572544Y347544D01*
X572544Y347545D01*
X572502Y347676D01*
X572458Y347813D01*
X572457Y347814D01*
X572457Y347816D01*
X572448Y347828D01*
X572300Y348049D01*
X572276Y348069D01*
X572262Y348089D01*
X563917Y356434D01*
X563847Y356486D01*
X563783Y356546D01*
X563734Y356572D01*
X563690Y356605D01*
X563608Y356636D01*
X563530Y356676D01*
X563483Y356684D01*
X563424Y356706D01*
X563276Y356718D01*
X563199Y356731D01*
X405547Y356731D01*
X405518Y356727D01*
X405489Y356730D01*
X405378Y356707D01*
X405266Y356691D01*
X405239Y356679D01*
X405210Y356674D01*
X405109Y356621D01*
X405006Y356575D01*
X404984Y356556D01*
X404958Y356543D01*
X404876Y356465D01*
X404789Y356391D01*
X404773Y356367D01*
X404752Y356347D01*
X404694Y356249D01*
X404632Y356155D01*
X404623Y356127D01*
X404608Y356102D01*
X404580Y355992D01*
X404546Y355884D01*
X404545Y355854D01*
X404538Y355826D01*
X404541Y355713D01*
X404538Y355600D01*
X404546Y355571D01*
X404547Y355542D01*
X404582Y355434D01*
X404610Y355325D01*
X404625Y355299D01*
X404634Y355271D01*
X404680Y355208D01*
X404756Y355080D01*
X404764Y355072D01*
X404765Y355071D01*
X404802Y355036D01*
X404829Y354998D01*
X406989Y352838D01*
X408710Y348684D01*
X408710Y324629D01*
X406989Y320474D01*
X403809Y317294D01*
X399655Y315573D01*
X395158Y315573D01*
X391003Y317294D01*
X387823Y320474D01*
X386102Y324629D01*
X386102Y348684D01*
X387823Y352838D01*
X389983Y354998D01*
X389998Y355018D01*
X390014Y355031D01*
X390016Y355035D01*
X390023Y355040D01*
X390086Y355135D01*
X390154Y355225D01*
X390165Y355253D01*
X390181Y355277D01*
X390215Y355385D01*
X390255Y355491D01*
X390258Y355520D01*
X390267Y355548D01*
X390270Y355662D01*
X390279Y355774D01*
X390273Y355803D01*
X390274Y355832D01*
X390245Y355942D01*
X390223Y356053D01*
X390209Y356079D01*
X390202Y356107D01*
X390144Y356205D01*
X390092Y356305D01*
X390072Y356327D01*
X390057Y356352D01*
X389974Y356429D01*
X389896Y356511D01*
X389871Y356526D01*
X389850Y356546D01*
X389749Y356598D01*
X389651Y356655D01*
X389623Y356662D01*
X389596Y356676D01*
X389519Y356689D01*
X389375Y356725D01*
X389313Y356723D01*
X389265Y356731D01*
X380147Y356731D01*
X380118Y356727D01*
X380089Y356730D01*
X379978Y356707D01*
X379866Y356691D01*
X379839Y356679D01*
X379810Y356674D01*
X379709Y356621D01*
X379606Y356575D01*
X379584Y356556D01*
X379558Y356543D01*
X379476Y356465D01*
X379389Y356391D01*
X379373Y356367D01*
X379352Y356347D01*
X379294Y356249D01*
X379232Y356155D01*
X379223Y356127D01*
X379208Y356102D01*
X379180Y355992D01*
X379146Y355884D01*
X379145Y355854D01*
X379138Y355826D01*
X379141Y355713D01*
X379138Y355600D01*
X379146Y355571D01*
X379147Y355542D01*
X379182Y355434D01*
X379210Y355325D01*
X379225Y355299D01*
X379234Y355271D01*
X379280Y355208D01*
X379356Y355080D01*
X379364Y355072D01*
X379365Y355071D01*
X379402Y355036D01*
X379429Y354998D01*
X381589Y352838D01*
X383310Y348684D01*
X383310Y324629D01*
X381589Y320474D01*
X378409Y317294D01*
X374255Y315573D01*
X369758Y315573D01*
X365603Y317294D01*
X362423Y320474D01*
X360702Y324629D01*
X360702Y348684D01*
X362423Y352838D01*
X364583Y354998D01*
X364598Y355018D01*
X364614Y355031D01*
X364616Y355035D01*
X364623Y355040D01*
X364686Y355135D01*
X364754Y355225D01*
X364765Y355253D01*
X364781Y355277D01*
X364815Y355385D01*
X364855Y355491D01*
X364858Y355520D01*
X364867Y355548D01*
X364870Y355662D01*
X364879Y355774D01*
X364873Y355803D01*
X364874Y355832D01*
X364845Y355942D01*
X364823Y356053D01*
X364809Y356079D01*
X364802Y356107D01*
X364744Y356205D01*
X364692Y356305D01*
X364672Y356327D01*
X364657Y356352D01*
X364574Y356429D01*
X364496Y356511D01*
X364471Y356526D01*
X364450Y356546D01*
X364349Y356598D01*
X364251Y356655D01*
X364223Y356662D01*
X364196Y356676D01*
X364119Y356689D01*
X363975Y356725D01*
X363913Y356723D01*
X363865Y356731D01*
X354747Y356731D01*
X354718Y356727D01*
X354689Y356730D01*
X354578Y356707D01*
X354466Y356691D01*
X354439Y356679D01*
X354410Y356674D01*
X354309Y356621D01*
X354206Y356575D01*
X354184Y356556D01*
X354158Y356543D01*
X354076Y356465D01*
X353989Y356391D01*
X353973Y356367D01*
X353952Y356347D01*
X353894Y356249D01*
X353832Y356155D01*
X353823Y356127D01*
X353808Y356102D01*
X353780Y355992D01*
X353746Y355884D01*
X353745Y355854D01*
X353738Y355826D01*
X353741Y355713D01*
X353738Y355600D01*
X353746Y355571D01*
X353747Y355542D01*
X353782Y355434D01*
X353810Y355325D01*
X353825Y355299D01*
X353834Y355271D01*
X353880Y355208D01*
X353956Y355080D01*
X353964Y355072D01*
X353965Y355071D01*
X354002Y355036D01*
X354029Y354998D01*
X356189Y352838D01*
X357910Y348684D01*
X357910Y324629D01*
X356189Y320474D01*
X353009Y317294D01*
X348855Y315573D01*
X344358Y315573D01*
G37*
%LPD*%
%LPC*%
G36*
X638502Y525168D02*
X638502Y525168D01*
X637609Y526061D01*
X637609Y538063D01*
X637597Y538149D01*
X637594Y538237D01*
X637577Y538290D01*
X637569Y538344D01*
X637534Y538424D01*
X637507Y538507D01*
X637479Y538547D01*
X637453Y538604D01*
X637357Y538717D01*
X637312Y538781D01*
X629048Y547044D01*
X629048Y776457D01*
X637766Y785175D01*
X637818Y785244D01*
X637878Y785308D01*
X637904Y785358D01*
X637937Y785402D01*
X637968Y785483D01*
X638008Y785561D01*
X638016Y785609D01*
X638038Y785667D01*
X638045Y785757D01*
X638049Y785769D01*
X638050Y785816D01*
X638063Y785892D01*
X638063Y943011D01*
X638063Y943013D01*
X638063Y943014D01*
X638043Y943153D01*
X638023Y943293D01*
X638023Y943294D01*
X638023Y943296D01*
X637968Y943417D01*
X637907Y943552D01*
X637906Y943553D01*
X637905Y943555D01*
X637813Y943663D01*
X637723Y943769D01*
X637722Y943770D01*
X637721Y943771D01*
X637708Y943779D01*
X637487Y943927D01*
X637458Y943936D01*
X637436Y943949D01*
X637344Y943988D01*
X635851Y945480D01*
X635043Y947431D01*
X635043Y949542D01*
X635851Y951493D01*
X637344Y952985D01*
X639294Y953793D01*
X641406Y953793D01*
X643356Y952985D01*
X644849Y951493D01*
X645657Y949542D01*
X645657Y947431D01*
X644849Y945480D01*
X643356Y943988D01*
X643263Y943949D01*
X643262Y943948D01*
X643261Y943948D01*
X643145Y943879D01*
X643019Y943805D01*
X643017Y943804D01*
X643016Y943803D01*
X642921Y943702D01*
X642823Y943598D01*
X642823Y943597D01*
X642822Y943596D01*
X642757Y943469D01*
X642693Y943345D01*
X642693Y943344D01*
X642692Y943342D01*
X642690Y943327D01*
X642638Y943066D01*
X642641Y943036D01*
X642637Y943011D01*
X642637Y783578D01*
X642608Y783549D01*
X642591Y783526D01*
X642568Y783507D01*
X642506Y783413D01*
X642438Y783322D01*
X642427Y783295D01*
X642411Y783270D01*
X642376Y783162D01*
X642336Y783056D01*
X642334Y783027D01*
X642325Y782999D01*
X642322Y782886D01*
X642313Y782773D01*
X642318Y782744D01*
X642318Y782715D01*
X642346Y782606D01*
X642369Y782494D01*
X642382Y782468D01*
X642390Y782440D01*
X642447Y782343D01*
X642500Y782242D01*
X642520Y782221D01*
X642535Y782196D01*
X642617Y782118D01*
X642695Y782036D01*
X642721Y782021D01*
X642742Y782001D01*
X642843Y781950D01*
X642941Y781892D01*
X642969Y781885D01*
X642995Y781872D01*
X643072Y781859D01*
X643216Y781822D01*
X643279Y781824D01*
X643326Y781816D01*
X665207Y781816D01*
X669361Y780095D01*
X672541Y776916D01*
X674262Y772761D01*
X674262Y768264D01*
X672541Y764109D01*
X669361Y760930D01*
X665207Y759209D01*
X641152Y759209D01*
X636997Y760930D01*
X635355Y762572D01*
X635331Y762589D01*
X635313Y762612D01*
X635218Y762675D01*
X635128Y762743D01*
X635100Y762753D01*
X635076Y762769D01*
X634968Y762804D01*
X634862Y762844D01*
X634833Y762846D01*
X634805Y762855D01*
X634692Y762858D01*
X634579Y762867D01*
X634550Y762862D01*
X634521Y762862D01*
X634411Y762834D01*
X634300Y762812D01*
X634274Y762798D01*
X634246Y762791D01*
X634148Y762733D01*
X634048Y762681D01*
X634026Y762660D01*
X634001Y762645D01*
X633924Y762563D01*
X633842Y762485D01*
X633827Y762459D01*
X633807Y762438D01*
X633755Y762337D01*
X633698Y762239D01*
X633691Y762211D01*
X633677Y762185D01*
X633664Y762108D01*
X633628Y761964D01*
X633630Y761901D01*
X633622Y761854D01*
X633622Y753771D01*
X633626Y753742D01*
X633623Y753713D01*
X633646Y753602D01*
X633662Y753489D01*
X633674Y753463D01*
X633679Y753434D01*
X633732Y753333D01*
X633778Y753230D01*
X633797Y753208D01*
X633810Y753182D01*
X633888Y753099D01*
X633962Y753013D01*
X633986Y752997D01*
X634006Y752976D01*
X634104Y752918D01*
X634198Y752855D01*
X634226Y752847D01*
X634251Y752832D01*
X634361Y752804D01*
X634469Y752770D01*
X634499Y752769D01*
X634527Y752762D01*
X634640Y752765D01*
X634753Y752762D01*
X634782Y752770D01*
X634811Y752771D01*
X634919Y752806D01*
X635028Y752834D01*
X635054Y752849D01*
X635082Y752858D01*
X635146Y752904D01*
X635273Y752979D01*
X635316Y753025D01*
X635355Y753053D01*
X636997Y754695D01*
X641152Y756416D01*
X665207Y756416D01*
X669361Y754695D01*
X672541Y751516D01*
X674262Y747361D01*
X674262Y742864D01*
X672541Y738709D01*
X669361Y735530D01*
X665207Y733809D01*
X641152Y733809D01*
X636997Y735530D01*
X635355Y737172D01*
X635331Y737189D01*
X635313Y737212D01*
X635218Y737275D01*
X635128Y737343D01*
X635100Y737353D01*
X635076Y737369D01*
X634968Y737404D01*
X634862Y737444D01*
X634833Y737446D01*
X634805Y737455D01*
X634692Y737458D01*
X634579Y737467D01*
X634550Y737462D01*
X634521Y737462D01*
X634411Y737434D01*
X634300Y737412D01*
X634274Y737398D01*
X634246Y737391D01*
X634148Y737333D01*
X634048Y737281D01*
X634026Y737260D01*
X634001Y737245D01*
X633924Y737163D01*
X633842Y737085D01*
X633827Y737059D01*
X633807Y737038D01*
X633755Y736937D01*
X633698Y736839D01*
X633691Y736811D01*
X633677Y736785D01*
X633664Y736708D01*
X633628Y736564D01*
X633630Y736501D01*
X633622Y736454D01*
X633622Y728371D01*
X633626Y728342D01*
X633623Y728313D01*
X633646Y728202D01*
X633662Y728089D01*
X633674Y728063D01*
X633679Y728034D01*
X633732Y727933D01*
X633778Y727830D01*
X633797Y727808D01*
X633810Y727782D01*
X633888Y727699D01*
X633962Y727613D01*
X633986Y727597D01*
X634006Y727576D01*
X634104Y727518D01*
X634198Y727455D01*
X634226Y727447D01*
X634251Y727432D01*
X634361Y727404D01*
X634469Y727370D01*
X634499Y727369D01*
X634527Y727362D01*
X634640Y727365D01*
X634753Y727362D01*
X634782Y727370D01*
X634811Y727371D01*
X634919Y727406D01*
X635028Y727434D01*
X635054Y727449D01*
X635082Y727458D01*
X635146Y727504D01*
X635273Y727579D01*
X635316Y727625D01*
X635355Y727653D01*
X636997Y729295D01*
X641152Y731016D01*
X665207Y731016D01*
X669361Y729295D01*
X672541Y726116D01*
X674262Y721961D01*
X674262Y717464D01*
X672541Y713309D01*
X669361Y710130D01*
X665207Y708409D01*
X641152Y708409D01*
X636997Y710130D01*
X635355Y711772D01*
X635331Y711789D01*
X635313Y711812D01*
X635218Y711875D01*
X635128Y711943D01*
X635100Y711953D01*
X635076Y711969D01*
X634968Y712004D01*
X634862Y712044D01*
X634833Y712046D01*
X634805Y712055D01*
X634692Y712058D01*
X634579Y712067D01*
X634550Y712062D01*
X634521Y712062D01*
X634411Y712034D01*
X634300Y712012D01*
X634274Y711998D01*
X634246Y711991D01*
X634148Y711933D01*
X634048Y711881D01*
X634026Y711860D01*
X634001Y711845D01*
X633924Y711763D01*
X633842Y711685D01*
X633827Y711659D01*
X633807Y711638D01*
X633755Y711537D01*
X633698Y711439D01*
X633691Y711411D01*
X633677Y711385D01*
X633664Y711308D01*
X633628Y711164D01*
X633630Y711101D01*
X633622Y711054D01*
X633622Y549359D01*
X633629Y549305D01*
X633628Y549268D01*
X633635Y549243D01*
X633637Y549185D01*
X633654Y549133D01*
X633662Y549078D01*
X633697Y548998D01*
X633724Y548915D01*
X633752Y548875D01*
X633778Y548818D01*
X633874Y548705D01*
X633919Y548641D01*
X640546Y542015D01*
X640616Y541962D01*
X640680Y541902D01*
X640729Y541877D01*
X640773Y541844D01*
X640855Y541813D01*
X640933Y541773D01*
X640980Y541765D01*
X641039Y541743D01*
X641186Y541730D01*
X641264Y541717D01*
X653266Y541717D01*
X654159Y540824D01*
X654159Y526061D01*
X653266Y525168D01*
X638502Y525168D01*
G37*
%LPD*%
%LPC*%
G36*
X449037Y623175D02*
X449037Y623175D01*
X443564Y628648D01*
X443494Y628700D01*
X443430Y628760D01*
X443381Y628785D01*
X443337Y628819D01*
X443255Y628850D01*
X443177Y628890D01*
X443130Y628898D01*
X443071Y628920D01*
X442923Y628932D01*
X442846Y628945D01*
X436825Y628945D01*
X436823Y628945D01*
X436822Y628945D01*
X436682Y628925D01*
X436543Y628905D01*
X436542Y628905D01*
X436540Y628904D01*
X436415Y628847D01*
X436284Y628789D01*
X436283Y628788D01*
X436281Y628787D01*
X436174Y628696D01*
X436067Y628605D01*
X436066Y628604D01*
X436065Y628603D01*
X436057Y628590D01*
X435909Y628369D01*
X435900Y628339D01*
X435887Y628318D01*
X435395Y627131D01*
X433359Y625094D01*
X430698Y623992D01*
X427818Y623992D01*
X425157Y625094D01*
X423120Y627131D01*
X422018Y629792D01*
X422018Y632672D01*
X423120Y635333D01*
X425157Y637369D01*
X427818Y638472D01*
X430698Y638472D01*
X433359Y637369D01*
X435395Y635333D01*
X435887Y634145D01*
X435888Y634144D01*
X435888Y634142D01*
X435960Y634022D01*
X436032Y633900D01*
X436033Y633899D01*
X436033Y633898D01*
X436138Y633800D01*
X436238Y633705D01*
X436240Y633705D01*
X436241Y633703D01*
X436366Y633639D01*
X436491Y633575D01*
X436493Y633575D01*
X436494Y633574D01*
X436509Y633572D01*
X436770Y633520D01*
X436800Y633523D01*
X436825Y633519D01*
X444523Y633519D01*
X444580Y633527D01*
X444639Y633525D01*
X444721Y633547D01*
X444804Y633558D01*
X444857Y633582D01*
X444914Y633597D01*
X444986Y633640D01*
X445063Y633675D01*
X445108Y633712D01*
X445158Y633742D01*
X445216Y633804D01*
X445280Y633858D01*
X445313Y633907D01*
X445353Y633950D01*
X445391Y634025D01*
X445438Y634095D01*
X445456Y634151D01*
X445482Y634203D01*
X445494Y634271D01*
X445524Y634366D01*
X445526Y634466D01*
X445538Y634534D01*
X445538Y635968D01*
X446775Y638956D01*
X449062Y641243D01*
X452050Y642480D01*
X468491Y642480D01*
X471479Y641243D01*
X473766Y638956D01*
X475003Y635968D01*
X475003Y632735D01*
X473766Y629747D01*
X473500Y629481D01*
X473489Y629466D01*
X473480Y629459D01*
X473475Y629452D01*
X473460Y629439D01*
X473397Y629345D01*
X473329Y629254D01*
X473319Y629227D01*
X473302Y629202D01*
X473268Y629094D01*
X473228Y628989D01*
X473226Y628959D01*
X473217Y628931D01*
X473214Y628818D01*
X473204Y628705D01*
X473210Y628676D01*
X473209Y628647D01*
X473238Y628538D01*
X473260Y628426D01*
X473274Y628400D01*
X473281Y628372D01*
X473339Y628275D01*
X473391Y628174D01*
X473411Y628153D01*
X473426Y628128D01*
X473509Y628050D01*
X473587Y627968D01*
X473612Y627953D01*
X473634Y627933D01*
X473735Y627882D01*
X473832Y627824D01*
X473861Y627817D01*
X473887Y627804D01*
X473964Y627791D01*
X474108Y627754D01*
X474170Y627756D01*
X474218Y627748D01*
X522523Y627748D01*
X522552Y627752D01*
X522581Y627750D01*
X522692Y627772D01*
X522805Y627788D01*
X522831Y627800D01*
X522860Y627806D01*
X522961Y627858D01*
X523064Y627904D01*
X523086Y627923D01*
X523112Y627937D01*
X523195Y628015D01*
X523281Y628088D01*
X523297Y628112D01*
X523319Y628133D01*
X523376Y628231D01*
X523439Y628325D01*
X523447Y628353D01*
X523462Y628378D01*
X523490Y628488D01*
X523524Y628596D01*
X523525Y628625D01*
X523532Y628653D01*
X523529Y628767D01*
X523532Y628880D01*
X523524Y628908D01*
X523523Y628938D01*
X523488Y629046D01*
X523460Y629155D01*
X523445Y629180D01*
X523436Y629208D01*
X523390Y629272D01*
X523315Y629399D01*
X523296Y629416D01*
X523295Y629419D01*
X523266Y629446D01*
X523241Y629481D01*
X522975Y629747D01*
X521738Y632735D01*
X521738Y635968D01*
X522975Y638956D01*
X525262Y641243D01*
X528250Y642480D01*
X544691Y642480D01*
X547679Y641243D01*
X549966Y638956D01*
X551203Y635968D01*
X551203Y632735D01*
X549966Y629747D01*
X547679Y627460D01*
X544691Y626223D01*
X531996Y626223D01*
X531910Y626211D01*
X531822Y626208D01*
X531770Y626191D01*
X531715Y626183D01*
X531635Y626147D01*
X531552Y626120D01*
X531512Y626092D01*
X531455Y626067D01*
X531342Y625971D01*
X531278Y625925D01*
X528528Y623175D01*
X449037Y623175D01*
G37*
%LPD*%
%LPC*%
G36*
X449330Y833021D02*
X449330Y833021D01*
X443857Y838493D01*
X443787Y838546D01*
X443723Y838606D01*
X443674Y838631D01*
X443630Y838664D01*
X443548Y838695D01*
X443470Y838735D01*
X443422Y838743D01*
X443364Y838766D01*
X443216Y838778D01*
X443139Y838791D01*
X437118Y838791D01*
X437116Y838791D01*
X437115Y838791D01*
X436975Y838771D01*
X436836Y838751D01*
X436835Y838750D01*
X436833Y838750D01*
X436707Y838693D01*
X436577Y838635D01*
X436576Y838634D01*
X436574Y838633D01*
X436467Y838542D01*
X436360Y838451D01*
X436359Y838450D01*
X436358Y838449D01*
X436350Y838436D01*
X436202Y838214D01*
X436193Y838185D01*
X436180Y838164D01*
X435688Y836977D01*
X433652Y834940D01*
X430991Y833838D01*
X428110Y833838D01*
X425449Y834940D01*
X423413Y836977D01*
X422311Y839638D01*
X422311Y842518D01*
X423413Y845179D01*
X425449Y847215D01*
X428110Y848317D01*
X430991Y848317D01*
X433652Y847215D01*
X435688Y845179D01*
X436180Y843991D01*
X436181Y843990D01*
X436181Y843988D01*
X436253Y843868D01*
X436324Y843746D01*
X436326Y843745D01*
X436326Y843744D01*
X436430Y843646D01*
X436531Y843551D01*
X436532Y843550D01*
X436534Y843549D01*
X436659Y843485D01*
X436784Y843421D01*
X436785Y843421D01*
X436787Y843420D01*
X436802Y843417D01*
X437063Y843366D01*
X437093Y843368D01*
X437118Y843364D01*
X444815Y843364D01*
X444873Y843372D01*
X444932Y843371D01*
X445013Y843392D01*
X445097Y843404D01*
X445150Y843428D01*
X445207Y843443D01*
X445279Y843486D01*
X445356Y843520D01*
X445401Y843558D01*
X445451Y843588D01*
X445509Y843650D01*
X445573Y843704D01*
X445606Y843753D01*
X445646Y843795D01*
X445684Y843870D01*
X445731Y843941D01*
X445749Y843996D01*
X445775Y844048D01*
X445787Y844117D01*
X445817Y844212D01*
X445819Y844311D01*
X445831Y844380D01*
X445831Y845814D01*
X447068Y848802D01*
X449355Y851089D01*
X452343Y852326D01*
X468784Y852326D01*
X471772Y851089D01*
X474059Y848802D01*
X475296Y845814D01*
X475296Y842580D01*
X474059Y839593D01*
X473793Y839327D01*
X473782Y839312D01*
X473773Y839305D01*
X473768Y839298D01*
X473753Y839285D01*
X473690Y839191D01*
X473622Y839100D01*
X473612Y839073D01*
X473595Y839048D01*
X473561Y838940D01*
X473521Y838834D01*
X473518Y838805D01*
X473510Y838777D01*
X473507Y838664D01*
X473497Y838551D01*
X473503Y838522D01*
X473502Y838493D01*
X473531Y838383D01*
X473553Y838272D01*
X473567Y838246D01*
X473574Y838218D01*
X473632Y838121D01*
X473684Y838020D01*
X473704Y837999D01*
X473719Y837973D01*
X473802Y837896D01*
X473880Y837814D01*
X473905Y837799D01*
X473927Y837779D01*
X474027Y837727D01*
X474125Y837670D01*
X474154Y837663D01*
X474180Y837649D01*
X474257Y837637D01*
X474401Y837600D01*
X474463Y837602D01*
X474511Y837594D01*
X522816Y837594D01*
X522845Y837598D01*
X522874Y837596D01*
X522985Y837618D01*
X523097Y837634D01*
X523124Y837646D01*
X523153Y837652D01*
X523253Y837704D01*
X523357Y837750D01*
X523379Y837769D01*
X523405Y837783D01*
X523488Y837861D01*
X523574Y837934D01*
X523590Y837958D01*
X523611Y837978D01*
X523669Y838076D01*
X523731Y838170D01*
X523740Y838198D01*
X523755Y838224D01*
X523783Y838334D01*
X523817Y838441D01*
X523818Y838471D01*
X523825Y838499D01*
X523822Y838613D01*
X523825Y838726D01*
X523817Y838754D01*
X523816Y838783D01*
X523781Y838891D01*
X523753Y839001D01*
X523738Y839026D01*
X523729Y839054D01*
X523683Y839118D01*
X523607Y839245D01*
X523589Y839262D01*
X523588Y839265D01*
X523559Y839291D01*
X523534Y839327D01*
X523268Y839593D01*
X522031Y842580D01*
X522031Y845814D01*
X523268Y848802D01*
X525555Y851089D01*
X528543Y852326D01*
X544984Y852326D01*
X547972Y851089D01*
X550259Y848802D01*
X551496Y845814D01*
X551496Y842580D01*
X550259Y839593D01*
X547972Y837306D01*
X544984Y836069D01*
X532289Y836069D01*
X532203Y836056D01*
X532115Y836054D01*
X532062Y836037D01*
X532008Y836029D01*
X531928Y835993D01*
X531845Y835966D01*
X531805Y835938D01*
X531748Y835913D01*
X531635Y835817D01*
X531571Y835771D01*
X528821Y833021D01*
X449330Y833021D01*
G37*
%LPD*%
%LPC*%
G36*
X449036Y413297D02*
X449036Y413297D01*
X443563Y418770D01*
X443494Y418823D01*
X443430Y418883D01*
X443380Y418908D01*
X443336Y418941D01*
X443255Y418972D01*
X443177Y419012D01*
X443129Y419020D01*
X443071Y419042D01*
X442923Y419055D01*
X442846Y419068D01*
X436825Y419068D01*
X436823Y419067D01*
X436821Y419068D01*
X436681Y419047D01*
X436543Y419028D01*
X436542Y419027D01*
X436540Y419027D01*
X436414Y418970D01*
X436284Y418912D01*
X436282Y418911D01*
X436281Y418910D01*
X436174Y418819D01*
X436067Y418728D01*
X436066Y418727D01*
X436065Y418726D01*
X436056Y418713D01*
X435909Y418491D01*
X435900Y418462D01*
X435887Y418441D01*
X435395Y417253D01*
X433358Y415217D01*
X430697Y414115D01*
X427817Y414115D01*
X425156Y415217D01*
X423120Y417253D01*
X422017Y419914D01*
X422017Y422794D01*
X423120Y425455D01*
X425156Y427492D01*
X427817Y428594D01*
X430697Y428594D01*
X433358Y427492D01*
X435395Y425455D01*
X435887Y424268D01*
X435887Y424267D01*
X435888Y424265D01*
X435959Y424145D01*
X436031Y424023D01*
X436032Y424022D01*
X436033Y424021D01*
X436140Y423921D01*
X436238Y423828D01*
X436239Y423827D01*
X436240Y423826D01*
X436366Y423762D01*
X436490Y423698D01*
X436492Y423697D01*
X436493Y423697D01*
X436508Y423694D01*
X436769Y423643D01*
X436800Y423645D01*
X436825Y423641D01*
X444522Y423641D01*
X444580Y423649D01*
X444638Y423648D01*
X444720Y423669D01*
X444804Y423681D01*
X444857Y423705D01*
X444913Y423720D01*
X444986Y423763D01*
X445063Y423797D01*
X445108Y423835D01*
X445158Y423865D01*
X445216Y423926D01*
X445280Y423981D01*
X445312Y424030D01*
X445352Y424072D01*
X445391Y424147D01*
X445438Y424218D01*
X445455Y424273D01*
X445482Y424325D01*
X445493Y424393D01*
X445523Y424489D01*
X445526Y424588D01*
X445537Y424656D01*
X445537Y426091D01*
X446775Y429079D01*
X449061Y431365D01*
X452049Y432603D01*
X468491Y432603D01*
X471479Y431365D01*
X473765Y429079D01*
X475003Y426091D01*
X475003Y422857D01*
X473765Y419870D01*
X473500Y419604D01*
X473482Y419581D01*
X473460Y419562D01*
X473397Y419468D01*
X473329Y419377D01*
X473318Y419349D01*
X473302Y419325D01*
X473268Y419217D01*
X473227Y419111D01*
X473225Y419082D01*
X473216Y419054D01*
X473213Y418941D01*
X473204Y418828D01*
X473210Y418799D01*
X473209Y418770D01*
X473238Y418660D01*
X473260Y418549D01*
X473273Y418523D01*
X473281Y418495D01*
X473339Y418397D01*
X473391Y418297D01*
X473411Y418276D01*
X473426Y418250D01*
X473509Y418173D01*
X473587Y418091D01*
X473612Y418076D01*
X473633Y418056D01*
X473734Y418004D01*
X473832Y417947D01*
X473860Y417940D01*
X473886Y417926D01*
X473964Y417913D01*
X474107Y417877D01*
X474170Y417879D01*
X474217Y417871D01*
X522523Y417871D01*
X522552Y417875D01*
X522581Y417873D01*
X522692Y417895D01*
X522804Y417911D01*
X522831Y417923D01*
X522860Y417928D01*
X522960Y417981D01*
X523064Y418027D01*
X523086Y418046D01*
X523112Y418059D01*
X523194Y418138D01*
X523281Y418211D01*
X523297Y418235D01*
X523318Y418255D01*
X523375Y418353D01*
X523438Y418447D01*
X523447Y418475D01*
X523462Y418501D01*
X523490Y418610D01*
X523524Y418718D01*
X523525Y418748D01*
X523532Y418776D01*
X523528Y418889D01*
X523531Y419002D01*
X523524Y419031D01*
X523523Y419060D01*
X523488Y419168D01*
X523459Y419278D01*
X523444Y419303D01*
X523435Y419331D01*
X523390Y419395D01*
X523314Y419522D01*
X523269Y419565D01*
X523241Y419604D01*
X522975Y419870D01*
X521737Y422857D01*
X521737Y426091D01*
X522975Y429079D01*
X525261Y431365D01*
X528249Y432603D01*
X544691Y432603D01*
X547679Y431365D01*
X549965Y429079D01*
X551203Y426091D01*
X551203Y422857D01*
X549965Y419870D01*
X547679Y417583D01*
X544691Y416345D01*
X531996Y416345D01*
X531909Y416333D01*
X531822Y416330D01*
X531769Y416313D01*
X531714Y416306D01*
X531634Y416270D01*
X531551Y416243D01*
X531512Y416215D01*
X531455Y416189D01*
X531342Y416094D01*
X531278Y416048D01*
X528527Y413297D01*
X449036Y413297D01*
G37*
%LPD*%
%LPC*%
G36*
X296596Y856874D02*
X296596Y856874D01*
X294646Y857682D01*
X293153Y859175D01*
X292345Y861125D01*
X292345Y863236D01*
X293153Y865187D01*
X294646Y866680D01*
X296596Y867488D01*
X298708Y867488D01*
X300658Y866680D01*
X302151Y865187D01*
X302189Y865094D01*
X302190Y865093D01*
X302190Y865091D01*
X302262Y864970D01*
X302334Y864849D01*
X302335Y864848D01*
X302336Y864847D01*
X302441Y864748D01*
X302540Y864654D01*
X302542Y864654D01*
X302543Y864653D01*
X302669Y864588D01*
X302793Y864524D01*
X302795Y864524D01*
X302796Y864523D01*
X302811Y864521D01*
X303072Y864469D01*
X303102Y864472D01*
X303127Y864468D01*
X363340Y864468D01*
X363427Y864480D01*
X363514Y864483D01*
X363567Y864500D01*
X363622Y864507D01*
X363702Y864543D01*
X363785Y864570D01*
X363824Y864598D01*
X363881Y864624D01*
X363994Y864720D01*
X364058Y864765D01*
X401893Y902599D01*
X455539Y902599D01*
X457176Y900963D01*
X468578Y889561D01*
X468670Y889492D01*
X468758Y889418D01*
X468783Y889407D01*
X468805Y889390D01*
X468913Y889349D01*
X469017Y889302D01*
X469045Y889299D01*
X469071Y889289D01*
X469185Y889279D01*
X469299Y889263D01*
X469327Y889267D01*
X469354Y889265D01*
X469467Y889288D01*
X469580Y889304D01*
X469606Y889316D01*
X469633Y889321D01*
X469735Y889374D01*
X469839Y889421D01*
X469861Y889439D01*
X469885Y889452D01*
X469968Y889531D01*
X470056Y889606D01*
X470069Y889627D01*
X470091Y889648D01*
X470226Y889877D01*
X470234Y889890D01*
X470363Y890203D01*
X472400Y892240D01*
X475061Y893342D01*
X477941Y893342D01*
X480602Y892240D01*
X482639Y890203D01*
X483741Y887542D01*
X483741Y884662D01*
X482639Y882001D01*
X480602Y879965D01*
X477941Y878862D01*
X475061Y878862D01*
X472400Y879965D01*
X470363Y882001D01*
X469680Y883651D01*
X469679Y883653D01*
X469679Y883654D01*
X469607Y883775D01*
X469535Y883896D01*
X469534Y883897D01*
X469533Y883899D01*
X469429Y883996D01*
X469329Y884091D01*
X469327Y884092D01*
X469326Y884093D01*
X469201Y884157D01*
X469076Y884222D01*
X469074Y884222D01*
X469073Y884223D01*
X469058Y884225D01*
X468797Y884277D01*
X468767Y884274D01*
X468742Y884278D01*
X467393Y884278D01*
X453942Y897729D01*
X453872Y897781D01*
X453809Y897841D01*
X453759Y897866D01*
X453715Y897900D01*
X453633Y897931D01*
X453555Y897971D01*
X453508Y897978D01*
X453449Y898001D01*
X453302Y898013D01*
X453224Y898026D01*
X435292Y898026D01*
X435262Y898022D01*
X435233Y898024D01*
X435122Y898002D01*
X435010Y897986D01*
X434983Y897974D01*
X434955Y897968D01*
X434854Y897916D01*
X434751Y897870D01*
X434728Y897851D01*
X434702Y897837D01*
X434620Y897759D01*
X434534Y897686D01*
X434517Y897662D01*
X434496Y897642D01*
X434439Y897544D01*
X434376Y897450D01*
X434367Y897422D01*
X434352Y897396D01*
X434325Y897287D01*
X434290Y897179D01*
X434290Y897149D01*
X434282Y897121D01*
X434286Y897008D01*
X434283Y896894D01*
X434290Y896866D01*
X434291Y896837D01*
X434326Y896729D01*
X434355Y896619D01*
X434370Y896594D01*
X434379Y896566D01*
X434424Y896502D01*
X434500Y896375D01*
X434546Y896332D01*
X434574Y896293D01*
X435688Y895179D01*
X436790Y892518D01*
X436790Y889638D01*
X435688Y886977D01*
X433652Y884940D01*
X430991Y883838D01*
X428110Y883838D01*
X425449Y884940D01*
X423413Y886977D01*
X422311Y889638D01*
X422311Y892518D01*
X423413Y895179D01*
X424527Y896293D01*
X424545Y896316D01*
X424567Y896335D01*
X424630Y896430D01*
X424698Y896520D01*
X424709Y896547D01*
X424725Y896572D01*
X424759Y896680D01*
X424799Y896786D01*
X424802Y896815D01*
X424811Y896843D01*
X424814Y896956D01*
X424823Y897069D01*
X424817Y897098D01*
X424818Y897127D01*
X424789Y897237D01*
X424767Y897348D01*
X424754Y897374D01*
X424746Y897402D01*
X424688Y897499D01*
X424636Y897600D01*
X424616Y897621D01*
X424601Y897647D01*
X424518Y897724D01*
X424440Y897806D01*
X424415Y897821D01*
X424394Y897841D01*
X424293Y897893D01*
X424195Y897950D01*
X424167Y897957D01*
X424140Y897971D01*
X424063Y897983D01*
X423920Y898020D01*
X423857Y898018D01*
X423809Y898026D01*
X404208Y898026D01*
X404121Y898014D01*
X404034Y898011D01*
X403981Y897994D01*
X403926Y897986D01*
X403846Y897950D01*
X403763Y897924D01*
X403724Y897896D01*
X403667Y897870D01*
X403553Y897774D01*
X403490Y897729D01*
X365655Y859894D01*
X303127Y859894D01*
X303126Y859894D01*
X303124Y859894D01*
X302985Y859874D01*
X302846Y859854D01*
X302844Y859854D01*
X302843Y859853D01*
X302716Y859796D01*
X302586Y859738D01*
X302585Y859737D01*
X302584Y859736D01*
X302475Y859644D01*
X302369Y859554D01*
X302368Y859553D01*
X302367Y859552D01*
X302359Y859539D01*
X302212Y859318D01*
X302202Y859289D01*
X302189Y859267D01*
X302151Y859175D01*
X300658Y857682D01*
X298708Y856874D01*
X296596Y856874D01*
G37*
%LPD*%
%LPC*%
G36*
X296303Y437151D02*
X296303Y437151D01*
X294353Y437959D01*
X292860Y439452D01*
X292052Y441402D01*
X292052Y443513D01*
X292860Y445464D01*
X294353Y446957D01*
X296303Y447764D01*
X298414Y447764D01*
X300365Y446957D01*
X301857Y445464D01*
X301896Y445371D01*
X301897Y445370D01*
X301897Y445368D01*
X301967Y445250D01*
X302040Y445126D01*
X302041Y445125D01*
X302042Y445124D01*
X302147Y445025D01*
X302247Y444931D01*
X302248Y444931D01*
X302250Y444929D01*
X302377Y444864D01*
X302500Y444801D01*
X302501Y444801D01*
X302503Y444800D01*
X302518Y444797D01*
X302778Y444746D01*
X302809Y444749D01*
X302834Y444744D01*
X363047Y444744D01*
X363133Y444757D01*
X363221Y444760D01*
X363274Y444777D01*
X363328Y444784D01*
X363408Y444820D01*
X363491Y444847D01*
X363531Y444875D01*
X363588Y444901D01*
X363701Y444996D01*
X363765Y445042D01*
X401599Y482876D01*
X455246Y482876D01*
X456883Y481240D01*
X456883Y481239D01*
X468285Y469838D01*
X468376Y469769D01*
X468464Y469695D01*
X468490Y469683D01*
X468512Y469667D01*
X468619Y469626D01*
X468724Y469579D01*
X468751Y469575D01*
X468777Y469566D01*
X468892Y469556D01*
X469006Y469540D01*
X469033Y469544D01*
X469061Y469542D01*
X469173Y469565D01*
X469287Y469581D01*
X469312Y469592D01*
X469339Y469598D01*
X469441Y469651D01*
X469546Y469698D01*
X469567Y469716D01*
X469592Y469729D01*
X469675Y469808D01*
X469762Y469882D01*
X469776Y469903D01*
X469798Y469925D01*
X469932Y470154D01*
X469940Y470167D01*
X470070Y470480D01*
X472107Y472517D01*
X474768Y473619D01*
X477648Y473619D01*
X480309Y472517D01*
X482345Y470480D01*
X483447Y467819D01*
X483447Y464939D01*
X482345Y462278D01*
X480309Y460242D01*
X477648Y459139D01*
X474768Y459139D01*
X472107Y460242D01*
X470070Y462278D01*
X469387Y463928D01*
X469386Y463930D01*
X469385Y463931D01*
X469315Y464049D01*
X469242Y464173D01*
X469241Y464174D01*
X469240Y464176D01*
X469136Y464273D01*
X469035Y464368D01*
X469034Y464369D01*
X469033Y464370D01*
X468907Y464434D01*
X468783Y464498D01*
X468781Y464499D01*
X468780Y464500D01*
X468765Y464502D01*
X468504Y464554D01*
X468473Y464551D01*
X468449Y464555D01*
X467099Y464555D01*
X453649Y478006D01*
X453579Y478058D01*
X453515Y478118D01*
X453466Y478143D01*
X453422Y478176D01*
X453340Y478208D01*
X453262Y478247D01*
X453214Y478255D01*
X453156Y478278D01*
X453008Y478290D01*
X452931Y478303D01*
X434998Y478303D01*
X434969Y478299D01*
X434940Y478301D01*
X434829Y478279D01*
X434717Y478263D01*
X434690Y478251D01*
X434661Y478245D01*
X434560Y478193D01*
X434457Y478147D01*
X434435Y478128D01*
X434409Y478114D01*
X434327Y478036D01*
X434240Y477963D01*
X434224Y477939D01*
X434203Y477919D01*
X434146Y477821D01*
X434083Y477727D01*
X434074Y477698D01*
X434059Y477673D01*
X434031Y477564D01*
X433997Y477455D01*
X433996Y477426D01*
X433989Y477398D01*
X433993Y477285D01*
X433990Y477171D01*
X433997Y477143D01*
X433998Y477114D01*
X434033Y477006D01*
X434061Y476896D01*
X434076Y476871D01*
X434085Y476843D01*
X434131Y476779D01*
X434207Y476652D01*
X434252Y476609D01*
X434280Y476570D01*
X435395Y475455D01*
X436497Y472794D01*
X436497Y469914D01*
X435395Y467253D01*
X433358Y465217D01*
X430697Y464115D01*
X427817Y464115D01*
X425156Y465217D01*
X423120Y467253D01*
X422017Y469914D01*
X422017Y472794D01*
X423120Y475455D01*
X424234Y476570D01*
X424252Y476593D01*
X424274Y476612D01*
X424337Y476706D01*
X424405Y476797D01*
X424415Y476824D01*
X424432Y476849D01*
X424466Y476957D01*
X424506Y477063D01*
X424508Y477092D01*
X424517Y477120D01*
X424520Y477233D01*
X424530Y477346D01*
X424524Y477375D01*
X424525Y477404D01*
X424496Y477514D01*
X424474Y477625D01*
X424460Y477651D01*
X424453Y477679D01*
X424395Y477776D01*
X424343Y477877D01*
X424323Y477898D01*
X424308Y477923D01*
X424225Y478001D01*
X424147Y478083D01*
X424122Y478098D01*
X424100Y478118D01*
X423999Y478170D01*
X423902Y478227D01*
X423873Y478234D01*
X423847Y478247D01*
X423770Y478260D01*
X423626Y478297D01*
X423564Y478295D01*
X423516Y478303D01*
X403914Y478303D01*
X403828Y478291D01*
X403740Y478288D01*
X403688Y478271D01*
X403633Y478263D01*
X403553Y478227D01*
X403470Y478200D01*
X403430Y478172D01*
X403373Y478147D01*
X403260Y478051D01*
X403196Y478006D01*
X365362Y440171D01*
X302834Y440171D01*
X302832Y440171D01*
X302830Y440171D01*
X302688Y440150D01*
X302552Y440131D01*
X302551Y440131D01*
X302549Y440130D01*
X302420Y440072D01*
X302293Y440015D01*
X302292Y440014D01*
X302290Y440013D01*
X302184Y439923D01*
X302076Y439831D01*
X302075Y439830D01*
X302074Y439829D01*
X302066Y439816D01*
X301918Y439595D01*
X301909Y439565D01*
X301896Y439544D01*
X301857Y439452D01*
X300365Y437959D01*
X298414Y437151D01*
X296303Y437151D01*
G37*
%LPD*%
%LPC*%
G36*
X296303Y647028D02*
X296303Y647028D01*
X294353Y647836D01*
X292860Y649329D01*
X292052Y651280D01*
X292052Y653391D01*
X292860Y655341D01*
X294353Y656834D01*
X296303Y657642D01*
X298415Y657642D01*
X300365Y656834D01*
X301858Y655341D01*
X301896Y655249D01*
X301897Y655247D01*
X301897Y655246D01*
X301969Y655124D01*
X302041Y655004D01*
X302042Y655003D01*
X302043Y655001D01*
X302148Y654903D01*
X302247Y654809D01*
X302249Y654808D01*
X302250Y654807D01*
X302377Y654742D01*
X302500Y654678D01*
X302502Y654678D01*
X302503Y654677D01*
X302518Y654675D01*
X302779Y654623D01*
X302810Y654626D01*
X302834Y654622D01*
X363047Y654622D01*
X363134Y654634D01*
X363221Y654637D01*
X363274Y654654D01*
X363329Y654662D01*
X363409Y654697D01*
X363492Y654724D01*
X363531Y654752D01*
X363588Y654778D01*
X363702Y654874D01*
X363765Y654919D01*
X401600Y692754D01*
X455246Y692754D01*
X456883Y691117D01*
X468285Y679715D01*
X468377Y679646D01*
X468465Y679572D01*
X468490Y679561D01*
X468512Y679544D01*
X468620Y679503D01*
X468725Y679457D01*
X468752Y679453D01*
X468778Y679443D01*
X468892Y679433D01*
X469006Y679418D01*
X469034Y679422D01*
X469061Y679419D01*
X469174Y679442D01*
X469287Y679458D01*
X469313Y679470D01*
X469340Y679475D01*
X469442Y679528D01*
X469547Y679575D01*
X469568Y679593D01*
X469592Y679606D01*
X469676Y679685D01*
X469763Y679760D01*
X469776Y679781D01*
X469798Y679802D01*
X469933Y680031D01*
X469941Y680044D01*
X470071Y680357D01*
X472107Y682394D01*
X474768Y683496D01*
X477648Y683496D01*
X480309Y682394D01*
X482346Y680357D01*
X483448Y677696D01*
X483448Y674816D01*
X482346Y672155D01*
X480309Y670119D01*
X477648Y669017D01*
X474768Y669017D01*
X472107Y670119D01*
X470071Y672155D01*
X469387Y673806D01*
X469386Y673807D01*
X469386Y673809D01*
X469314Y673929D01*
X469243Y674050D01*
X469241Y674052D01*
X469241Y674053D01*
X469137Y674151D01*
X469036Y674246D01*
X469034Y674246D01*
X469033Y674247D01*
X468908Y674312D01*
X468783Y674376D01*
X468782Y674376D01*
X468780Y674377D01*
X468765Y674379D01*
X468504Y674431D01*
X468474Y674428D01*
X468449Y674432D01*
X467100Y674432D01*
X453649Y687883D01*
X453580Y687935D01*
X453516Y687995D01*
X453466Y688021D01*
X453422Y688054D01*
X453340Y688085D01*
X453263Y688125D01*
X453215Y688133D01*
X453156Y688155D01*
X453009Y688167D01*
X452931Y688180D01*
X434999Y688180D01*
X434970Y688176D01*
X434940Y688179D01*
X434829Y688156D01*
X434717Y688140D01*
X434690Y688128D01*
X434662Y688123D01*
X434561Y688070D01*
X434458Y688024D01*
X434435Y688005D01*
X434409Y687992D01*
X434327Y687914D01*
X434241Y687840D01*
X434225Y687816D01*
X434203Y687796D01*
X434146Y687698D01*
X434083Y687604D01*
X434074Y687576D01*
X434060Y687551D01*
X434032Y687441D01*
X433997Y687333D01*
X433997Y687303D01*
X433989Y687275D01*
X433993Y687162D01*
X433990Y687049D01*
X433998Y687020D01*
X433998Y686991D01*
X434033Y686883D01*
X434062Y686774D01*
X434077Y686748D01*
X434086Y686720D01*
X434132Y686656D01*
X434207Y686529D01*
X434253Y686486D01*
X434281Y686447D01*
X435395Y685333D01*
X436497Y682672D01*
X436497Y679792D01*
X435395Y677131D01*
X433359Y675094D01*
X430698Y673992D01*
X427818Y673992D01*
X425157Y675094D01*
X423120Y677131D01*
X422018Y679792D01*
X422018Y682672D01*
X423120Y685333D01*
X424234Y686447D01*
X424252Y686471D01*
X424274Y686489D01*
X424337Y686584D01*
X424405Y686674D01*
X424416Y686702D01*
X424432Y686726D01*
X424466Y686834D01*
X424507Y686940D01*
X424509Y686969D01*
X424518Y686997D01*
X424521Y687110D01*
X424530Y687223D01*
X424524Y687252D01*
X424525Y687281D01*
X424496Y687391D01*
X424474Y687502D01*
X424461Y687528D01*
X424453Y687556D01*
X424396Y687653D01*
X424343Y687754D01*
X424323Y687776D01*
X424308Y687801D01*
X424226Y687878D01*
X424147Y687960D01*
X424122Y687975D01*
X424101Y687995D01*
X424000Y688047D01*
X423902Y688104D01*
X423874Y688111D01*
X423848Y688125D01*
X423770Y688138D01*
X423627Y688174D01*
X423564Y688172D01*
X423517Y688180D01*
X403915Y688180D01*
X403828Y688168D01*
X403741Y688165D01*
X403688Y688148D01*
X403633Y688140D01*
X403553Y688105D01*
X403470Y688078D01*
X403431Y688050D01*
X403374Y688024D01*
X403260Y687928D01*
X403197Y687883D01*
X365362Y650048D01*
X302834Y650048D01*
X302833Y650048D01*
X302831Y650048D01*
X302688Y650028D01*
X302553Y650009D01*
X302551Y650008D01*
X302550Y650008D01*
X302420Y649949D01*
X302293Y649892D01*
X302292Y649891D01*
X302291Y649891D01*
X302185Y649800D01*
X302076Y649709D01*
X302075Y649707D01*
X302074Y649706D01*
X302066Y649693D01*
X301919Y649472D01*
X301909Y649443D01*
X301896Y649422D01*
X301858Y649329D01*
X300365Y647836D01*
X298415Y647028D01*
X296303Y647028D01*
G37*
%LPD*%
%LPC*%
G36*
X85425Y650755D02*
X85425Y650755D01*
X81271Y652475D01*
X78091Y655655D01*
X76370Y659810D01*
X76370Y664307D01*
X78091Y668461D01*
X81271Y671641D01*
X85556Y673416D01*
X85561Y673419D01*
X85567Y673421D01*
X85684Y673492D01*
X85801Y673561D01*
X85805Y673565D01*
X85810Y673568D01*
X85903Y673669D01*
X85996Y673767D01*
X85999Y673773D01*
X86003Y673777D01*
X86064Y673899D01*
X86126Y674020D01*
X86127Y674026D01*
X86130Y674032D01*
X86155Y674165D01*
X86181Y674299D01*
X86180Y674305D01*
X86182Y674311D01*
X86168Y674448D01*
X86157Y674582D01*
X86154Y674588D01*
X86154Y674594D01*
X86103Y674721D01*
X86055Y674848D01*
X86051Y674853D01*
X86048Y674858D01*
X85965Y674966D01*
X85883Y675074D01*
X85878Y675078D01*
X85874Y675083D01*
X85764Y675163D01*
X85655Y675244D01*
X85649Y675247D01*
X85644Y675250D01*
X85603Y675264D01*
X85389Y675345D01*
X85354Y675348D01*
X85326Y675357D01*
X84789Y675442D01*
X82944Y676041D01*
X81217Y676922D01*
X79648Y678061D01*
X78277Y679432D01*
X77137Y681001D01*
X76257Y682729D01*
X75657Y684573D01*
X75522Y685427D01*
X96437Y685427D01*
X96494Y685435D01*
X96553Y685434D01*
X96635Y685455D01*
X96718Y685467D01*
X96771Y685491D01*
X96828Y685506D01*
X96900Y685549D01*
X96977Y685583D01*
X97022Y685621D01*
X97072Y685651D01*
X97130Y685712D01*
X97194Y685767D01*
X97227Y685815D01*
X97267Y685858D01*
X97305Y685933D01*
X97352Y686003D01*
X97370Y686059D01*
X97396Y686111D01*
X97408Y686179D01*
X97438Y686274D01*
X97440Y686374D01*
X97452Y686442D01*
X97452Y687459D01*
X97454Y687459D01*
X97454Y686442D01*
X97462Y686384D01*
X97460Y686326D01*
X97482Y686244D01*
X97493Y686161D01*
X97517Y686107D01*
X97532Y686051D01*
X97575Y685978D01*
X97610Y685901D01*
X97647Y685857D01*
X97677Y685807D01*
X97739Y685749D01*
X97793Y685684D01*
X97842Y685652D01*
X97885Y685612D01*
X97960Y685574D01*
X98030Y685527D01*
X98086Y685509D01*
X98138Y685483D01*
X98206Y685471D01*
X98301Y685441D01*
X98401Y685438D01*
X98469Y685427D01*
X119383Y685427D01*
X119248Y684573D01*
X118649Y682729D01*
X117768Y681001D01*
X116629Y679432D01*
X115258Y678061D01*
X113689Y676922D01*
X111961Y676041D01*
X110117Y675442D01*
X109579Y675357D01*
X109573Y675355D01*
X109567Y675355D01*
X109437Y675313D01*
X109308Y675273D01*
X109302Y675270D01*
X109296Y675268D01*
X109183Y675192D01*
X109069Y675118D01*
X109065Y675113D01*
X109060Y675110D01*
X108973Y675006D01*
X108884Y674903D01*
X108881Y674897D01*
X108877Y674892D01*
X108822Y674768D01*
X108765Y674644D01*
X108764Y674638D01*
X108762Y674633D01*
X108743Y674498D01*
X108723Y674363D01*
X108724Y674357D01*
X108723Y674351D01*
X108742Y674216D01*
X108760Y674081D01*
X108763Y674076D01*
X108764Y674070D01*
X108819Y673946D01*
X108874Y673821D01*
X108878Y673816D01*
X108881Y673811D01*
X108969Y673707D01*
X109056Y673602D01*
X109061Y673599D01*
X109065Y673594D01*
X109102Y673571D01*
X109291Y673443D01*
X109325Y673431D01*
X109350Y673416D01*
X113635Y671641D01*
X116815Y668461D01*
X118535Y664307D01*
X118535Y659810D01*
X116815Y655655D01*
X113635Y652475D01*
X109480Y650755D01*
X85425Y650755D01*
G37*
%LPD*%
%LPC*%
G36*
X85425Y440877D02*
X85425Y440877D01*
X81270Y442598D01*
X78090Y445778D01*
X76369Y449933D01*
X76369Y454429D01*
X78090Y458584D01*
X81270Y461764D01*
X85555Y463539D01*
X85561Y463542D01*
X85567Y463544D01*
X85683Y463614D01*
X85800Y463683D01*
X85804Y463688D01*
X85810Y463691D01*
X85902Y463791D01*
X85995Y463890D01*
X85998Y463895D01*
X86002Y463900D01*
X86063Y464021D01*
X86126Y464143D01*
X86127Y464149D01*
X86129Y464154D01*
X86154Y464288D01*
X86181Y464422D01*
X86180Y464428D01*
X86181Y464434D01*
X86168Y464570D01*
X86156Y464705D01*
X86154Y464711D01*
X86153Y464717D01*
X86103Y464843D01*
X86054Y464970D01*
X86050Y464975D01*
X86048Y464981D01*
X85965Y465088D01*
X85882Y465197D01*
X85878Y465200D01*
X85874Y465205D01*
X85764Y465286D01*
X85655Y465367D01*
X85649Y465369D01*
X85644Y465373D01*
X85603Y465387D01*
X85389Y465467D01*
X85353Y465470D01*
X85326Y465479D01*
X84788Y465565D01*
X82944Y466164D01*
X81216Y467044D01*
X79647Y468184D01*
X78276Y469555D01*
X77136Y471124D01*
X76256Y472852D01*
X75657Y474696D01*
X75522Y475550D01*
X96436Y475550D01*
X96494Y475558D01*
X96552Y475556D01*
X96634Y475578D01*
X96718Y475590D01*
X96771Y475613D01*
X96827Y475628D01*
X96900Y475671D01*
X96977Y475706D01*
X97022Y475744D01*
X97072Y475773D01*
X97130Y475835D01*
X97194Y475889D01*
X97226Y475938D01*
X97266Y475981D01*
X97305Y476056D01*
X97352Y476126D01*
X97369Y476182D01*
X97396Y476234D01*
X97407Y476302D01*
X97437Y476397D01*
X97440Y476497D01*
X97451Y476565D01*
X97451Y477582D01*
X97453Y477582D01*
X97453Y476565D01*
X97461Y476507D01*
X97460Y476449D01*
X97481Y476367D01*
X97493Y476283D01*
X97517Y476230D01*
X97532Y476174D01*
X97575Y476101D01*
X97609Y476024D01*
X97647Y475979D01*
X97677Y475929D01*
X97738Y475871D01*
X97793Y475807D01*
X97841Y475775D01*
X97884Y475735D01*
X97959Y475696D01*
X98029Y475649D01*
X98085Y475632D01*
X98137Y475605D01*
X98205Y475594D01*
X98301Y475564D01*
X98400Y475561D01*
X98468Y475550D01*
X119383Y475550D01*
X119248Y474696D01*
X118648Y472852D01*
X117768Y471124D01*
X116628Y469555D01*
X115257Y468184D01*
X113688Y467044D01*
X111960Y466164D01*
X110116Y465565D01*
X109579Y465479D01*
X109573Y465478D01*
X109567Y465477D01*
X109437Y465436D01*
X109307Y465396D01*
X109302Y465393D01*
X109296Y465391D01*
X109183Y465315D01*
X109069Y465241D01*
X109065Y465236D01*
X109060Y465233D01*
X108972Y465128D01*
X108883Y465025D01*
X108881Y465020D01*
X108877Y465015D01*
X108821Y464890D01*
X108765Y464767D01*
X108764Y464761D01*
X108761Y464755D01*
X108743Y464621D01*
X108722Y464486D01*
X108723Y464480D01*
X108722Y464474D01*
X108742Y464339D01*
X108760Y464204D01*
X108762Y464198D01*
X108763Y464192D01*
X108819Y464069D01*
X108874Y463944D01*
X108878Y463939D01*
X108880Y463933D01*
X108969Y463829D01*
X109055Y463725D01*
X109060Y463721D01*
X109064Y463717D01*
X109102Y463694D01*
X109291Y463565D01*
X109325Y463554D01*
X109349Y463539D01*
X113634Y461764D01*
X116814Y458584D01*
X118535Y454429D01*
X118535Y449933D01*
X116814Y445778D01*
X113634Y442598D01*
X109480Y440877D01*
X85425Y440877D01*
G37*
%LPD*%
%LPC*%
G36*
X85718Y860600D02*
X85718Y860600D01*
X81563Y862321D01*
X78384Y865501D01*
X76663Y869656D01*
X76663Y874153D01*
X78384Y878307D01*
X81563Y881487D01*
X85849Y883262D01*
X85854Y883265D01*
X85860Y883267D01*
X85977Y883338D01*
X86094Y883406D01*
X86098Y883411D01*
X86103Y883414D01*
X86195Y883514D01*
X86289Y883613D01*
X86292Y883619D01*
X86296Y883623D01*
X86356Y883745D01*
X86419Y883866D01*
X86420Y883872D01*
X86423Y883877D01*
X86447Y884011D01*
X86474Y884145D01*
X86473Y884151D01*
X86475Y884157D01*
X86461Y884293D01*
X86449Y884428D01*
X86447Y884434D01*
X86447Y884440D01*
X86396Y884567D01*
X86347Y884693D01*
X86344Y884698D01*
X86341Y884704D01*
X86258Y884811D01*
X86176Y884920D01*
X86171Y884924D01*
X86167Y884929D01*
X86058Y885008D01*
X85948Y885090D01*
X85942Y885092D01*
X85937Y885096D01*
X85896Y885110D01*
X85682Y885191D01*
X85646Y885193D01*
X85619Y885203D01*
X85082Y885288D01*
X83237Y885887D01*
X81510Y886767D01*
X79941Y887907D01*
X78570Y889278D01*
X77430Y890847D01*
X76549Y892575D01*
X75950Y894419D01*
X75815Y895273D01*
X96729Y895273D01*
X96787Y895281D01*
X96846Y895280D01*
X96927Y895301D01*
X97011Y895313D01*
X97064Y895337D01*
X97121Y895351D01*
X97193Y895394D01*
X97270Y895429D01*
X97315Y895467D01*
X97365Y895497D01*
X97423Y895558D01*
X97487Y895613D01*
X97520Y895661D01*
X97560Y895704D01*
X97598Y895779D01*
X97645Y895849D01*
X97663Y895905D01*
X97689Y895957D01*
X97701Y896025D01*
X97731Y896120D01*
X97733Y896220D01*
X97745Y896288D01*
X97745Y897305D01*
X97746Y897305D01*
X97746Y896288D01*
X97755Y896230D01*
X97753Y896172D01*
X97774Y896090D01*
X97786Y896007D01*
X97810Y895953D01*
X97825Y895897D01*
X97868Y895824D01*
X97903Y895747D01*
X97940Y895703D01*
X97970Y895652D01*
X98032Y895595D01*
X98086Y895530D01*
X98135Y895498D01*
X98178Y895458D01*
X98253Y895419D01*
X98323Y895373D01*
X98379Y895355D01*
X98431Y895328D01*
X98499Y895317D01*
X98594Y895287D01*
X98694Y895284D01*
X98762Y895273D01*
X119676Y895273D01*
X119541Y894419D01*
X118942Y892575D01*
X118061Y890847D01*
X116921Y889278D01*
X115550Y887907D01*
X113982Y886767D01*
X112254Y885887D01*
X110409Y885288D01*
X109872Y885203D01*
X109866Y885201D01*
X109860Y885201D01*
X109730Y885159D01*
X109600Y885119D01*
X109595Y885116D01*
X109589Y885114D01*
X109476Y885038D01*
X109362Y884964D01*
X109358Y884959D01*
X109353Y884956D01*
X109265Y884851D01*
X109177Y884748D01*
X109174Y884743D01*
X109170Y884738D01*
X109115Y884614D01*
X109058Y884490D01*
X109057Y884484D01*
X109055Y884478D01*
X109036Y884344D01*
X109016Y884209D01*
X109017Y884203D01*
X109016Y884197D01*
X109035Y884062D01*
X109053Y883927D01*
X109055Y883922D01*
X109056Y883915D01*
X109112Y883791D01*
X109167Y883667D01*
X109171Y883662D01*
X109173Y883656D01*
X109262Y883553D01*
X109349Y883448D01*
X109354Y883445D01*
X109358Y883440D01*
X109395Y883417D01*
X109584Y883288D01*
X109618Y883277D01*
X109642Y883262D01*
X113928Y881487D01*
X117107Y878307D01*
X118828Y874153D01*
X118828Y869656D01*
X117107Y865501D01*
X113928Y862321D01*
X109773Y860600D01*
X85718Y860600D01*
G37*
%LPD*%
%LPC*%
G36*
X416456Y169765D02*
X416456Y169765D01*
X412442Y171428D01*
X409369Y174500D01*
X407706Y178515D01*
X407706Y182860D01*
X408021Y183620D01*
X408042Y183703D01*
X408073Y183784D01*
X408078Y183840D01*
X408092Y183896D01*
X408089Y183981D01*
X408097Y184067D01*
X408085Y184123D01*
X408084Y184180D01*
X408058Y184262D01*
X408041Y184346D01*
X408014Y184396D01*
X407997Y184450D01*
X407949Y184522D01*
X407910Y184598D01*
X407871Y184639D01*
X407839Y184687D01*
X407773Y184742D01*
X407714Y184804D01*
X407665Y184833D01*
X407621Y184870D01*
X407543Y184904D01*
X407469Y184948D01*
X407414Y184962D01*
X407361Y184985D01*
X407276Y184997D01*
X407193Y185018D01*
X407136Y185016D01*
X407080Y185024D01*
X406995Y185012D01*
X406909Y185009D01*
X406855Y184992D01*
X406798Y184983D01*
X406720Y184948D01*
X406638Y184922D01*
X406598Y184893D01*
X406539Y184866D01*
X406429Y184772D01*
X406365Y184727D01*
X405766Y184128D01*
X401751Y182465D01*
X397406Y182465D01*
X393392Y184128D01*
X390319Y187200D01*
X388656Y191215D01*
X388656Y195560D01*
X390319Y199575D01*
X393392Y202647D01*
X397406Y204310D01*
X401751Y204310D01*
X405766Y202647D01*
X406365Y202048D01*
X406434Y201997D01*
X406496Y201938D01*
X406547Y201912D01*
X406592Y201877D01*
X406673Y201847D01*
X406749Y201808D01*
X406805Y201797D01*
X406858Y201776D01*
X406944Y201769D01*
X407028Y201752D01*
X407085Y201757D01*
X407141Y201753D01*
X407225Y201770D01*
X407311Y201777D01*
X407364Y201797D01*
X407420Y201809D01*
X407496Y201848D01*
X407576Y201879D01*
X407622Y201913D01*
X407672Y201940D01*
X407735Y201999D01*
X407803Y202051D01*
X407837Y202096D01*
X407878Y202135D01*
X407922Y202209D01*
X407973Y202278D01*
X407993Y202332D01*
X408022Y202381D01*
X408043Y202464D01*
X408074Y202544D01*
X408078Y202601D01*
X408092Y202656D01*
X408089Y202742D01*
X408096Y202828D01*
X408085Y202876D01*
X408083Y202940D01*
X408039Y203078D01*
X408021Y203155D01*
X407706Y203915D01*
X407706Y208260D01*
X409369Y212275D01*
X412442Y215347D01*
X416456Y217010D01*
X420801Y217010D01*
X424816Y215347D01*
X427889Y212275D01*
X429552Y208260D01*
X429552Y203915D01*
X427889Y199900D01*
X424816Y196828D01*
X420801Y195165D01*
X416456Y195165D01*
X412442Y196828D01*
X411843Y197427D01*
X411774Y197478D01*
X411711Y197537D01*
X411661Y197563D01*
X411615Y197598D01*
X411535Y197628D01*
X411459Y197668D01*
X411403Y197679D01*
X411350Y197699D01*
X411264Y197706D01*
X411180Y197723D01*
X411123Y197718D01*
X411066Y197722D01*
X410982Y197706D01*
X410897Y197698D01*
X410844Y197678D01*
X410788Y197667D01*
X410711Y197627D01*
X410631Y197596D01*
X410586Y197562D01*
X410535Y197536D01*
X410473Y197476D01*
X410405Y197424D01*
X410370Y197379D01*
X410329Y197340D01*
X410286Y197266D01*
X410234Y197197D01*
X410214Y197143D01*
X410186Y197094D01*
X410164Y197011D01*
X410134Y196931D01*
X410129Y196874D01*
X410115Y196819D01*
X410118Y196733D01*
X410111Y196647D01*
X410122Y196599D01*
X410124Y196535D01*
X410169Y196397D01*
X410187Y196320D01*
X410502Y195560D01*
X410502Y191215D01*
X410187Y190455D01*
X410165Y190372D01*
X410135Y190291D01*
X410130Y190235D01*
X410116Y190180D01*
X410118Y190094D01*
X410111Y190008D01*
X410122Y189952D01*
X410124Y189895D01*
X410150Y189814D01*
X410167Y189729D01*
X410193Y189679D01*
X410211Y189625D01*
X410258Y189553D01*
X410298Y189477D01*
X410337Y189436D01*
X410369Y189388D01*
X410435Y189333D01*
X410494Y189271D01*
X410543Y189242D01*
X410586Y189205D01*
X410665Y189171D01*
X410739Y189127D01*
X410794Y189113D01*
X410846Y189090D01*
X410931Y189078D01*
X411015Y189057D01*
X411071Y189059D01*
X411128Y189051D01*
X411213Y189063D01*
X411299Y189066D01*
X411353Y189084D01*
X411409Y189092D01*
X411487Y189127D01*
X411569Y189154D01*
X411609Y189182D01*
X411668Y189209D01*
X411779Y189303D01*
X411843Y189348D01*
X412442Y189947D01*
X416456Y191610D01*
X420801Y191610D01*
X424816Y189947D01*
X427889Y186875D01*
X429552Y182860D01*
X429552Y178515D01*
X427889Y174500D01*
X424816Y171428D01*
X420801Y169765D01*
X416456Y169765D01*
G37*
%LPD*%
%LPC*%
G36*
X794275Y761762D02*
X794275Y761762D01*
X790261Y763425D01*
X787188Y766498D01*
X785525Y770512D01*
X785525Y774858D01*
X787188Y778872D01*
X787787Y779471D01*
X787839Y779540D01*
X787898Y779602D01*
X787924Y779653D01*
X787958Y779698D01*
X787989Y779779D01*
X788028Y779855D01*
X788039Y779911D01*
X788059Y779964D01*
X788066Y780050D01*
X788083Y780134D01*
X788078Y780191D01*
X788083Y780247D01*
X788066Y780332D01*
X788058Y780417D01*
X788038Y780470D01*
X788027Y780526D01*
X787987Y780603D01*
X787956Y780683D01*
X787922Y780728D01*
X787896Y780778D01*
X787837Y780841D01*
X787785Y780909D01*
X787739Y780943D01*
X787700Y780985D01*
X787626Y781028D01*
X787557Y781079D01*
X787504Y781100D01*
X787455Y781128D01*
X787372Y781149D01*
X787291Y781180D01*
X787234Y781184D01*
X787179Y781198D01*
X787094Y781196D01*
X787008Y781203D01*
X786959Y781191D01*
X786895Y781189D01*
X786757Y781145D01*
X786681Y781127D01*
X785920Y780812D01*
X781575Y780812D01*
X777561Y782475D01*
X774488Y785548D01*
X772825Y789562D01*
X772825Y793908D01*
X774488Y797922D01*
X777561Y800995D01*
X781575Y802658D01*
X785920Y802658D01*
X789935Y800995D01*
X793008Y797922D01*
X794671Y793908D01*
X794671Y789562D01*
X793008Y785548D01*
X792409Y784949D01*
X792357Y784880D01*
X792298Y784818D01*
X792272Y784767D01*
X792238Y784722D01*
X792207Y784641D01*
X792168Y784565D01*
X792157Y784509D01*
X792137Y784456D01*
X792129Y784370D01*
X792113Y784286D01*
X792118Y784229D01*
X792113Y784173D01*
X792130Y784088D01*
X792137Y784003D01*
X792158Y783950D01*
X792169Y783894D01*
X792208Y783818D01*
X792239Y783737D01*
X792274Y783692D01*
X792300Y783642D01*
X792359Y783579D01*
X792411Y783511D01*
X792456Y783477D01*
X792496Y783435D01*
X792570Y783392D01*
X792639Y783341D01*
X792692Y783320D01*
X792741Y783292D01*
X792824Y783271D01*
X792905Y783240D01*
X792961Y783236D01*
X793016Y783222D01*
X793102Y783224D01*
X793188Y783217D01*
X793236Y783229D01*
X793301Y783231D01*
X793438Y783275D01*
X793515Y783293D01*
X794275Y783608D01*
X798620Y783608D01*
X799381Y783293D01*
X799464Y783272D01*
X799544Y783241D01*
X799601Y783236D01*
X799656Y783222D01*
X799742Y783224D01*
X799827Y783217D01*
X799883Y783229D01*
X799940Y783230D01*
X800022Y783256D01*
X800106Y783273D01*
X800157Y783299D01*
X800211Y783317D01*
X800282Y783365D01*
X800358Y783404D01*
X800400Y783443D01*
X800447Y783475D01*
X800502Y783541D01*
X800565Y783600D01*
X800593Y783649D01*
X800630Y783693D01*
X800665Y783771D01*
X800708Y783845D01*
X800722Y783900D01*
X800745Y783952D01*
X800757Y784038D01*
X800778Y784121D01*
X800777Y784178D01*
X800784Y784234D01*
X800772Y784319D01*
X800769Y784405D01*
X800752Y784459D01*
X800744Y784515D01*
X800708Y784594D01*
X800682Y784675D01*
X800653Y784716D01*
X800627Y784774D01*
X800533Y784885D01*
X800487Y784949D01*
X799888Y785548D01*
X798225Y789562D01*
X798225Y793908D01*
X799888Y797922D01*
X802961Y800995D01*
X806975Y802658D01*
X811320Y802658D01*
X815335Y800995D01*
X818408Y797922D01*
X820071Y793908D01*
X820071Y789562D01*
X818408Y785548D01*
X815335Y782475D01*
X811320Y780812D01*
X806975Y780812D01*
X806215Y781127D01*
X806132Y781149D01*
X806052Y781179D01*
X805995Y781184D01*
X805940Y781198D01*
X805854Y781196D01*
X805768Y781203D01*
X805712Y781192D01*
X805656Y781190D01*
X805574Y781164D01*
X805489Y781147D01*
X805439Y781121D01*
X805385Y781103D01*
X805313Y781055D01*
X805237Y781016D01*
X805196Y780977D01*
X805149Y780945D01*
X805093Y780879D01*
X805031Y780820D01*
X805002Y780771D01*
X804966Y780727D01*
X804931Y780649D01*
X804887Y780575D01*
X804873Y780520D01*
X804850Y780468D01*
X804838Y780382D01*
X804817Y780299D01*
X804819Y780242D01*
X804811Y780186D01*
X804824Y780101D01*
X804826Y780015D01*
X804844Y779961D01*
X804852Y779905D01*
X804887Y779826D01*
X804914Y779745D01*
X804942Y779704D01*
X804969Y779646D01*
X805063Y779535D01*
X805109Y779471D01*
X805708Y778872D01*
X807371Y774858D01*
X807371Y770512D01*
X805708Y766498D01*
X802635Y763425D01*
X798620Y761762D01*
X794275Y761762D01*
G37*
%LPD*%
%LPC*%
G36*
X672590Y383433D02*
X672590Y383433D01*
X668575Y385096D01*
X665503Y388169D01*
X663840Y392183D01*
X663840Y396529D01*
X665503Y400543D01*
X668575Y403616D01*
X672590Y405279D01*
X676935Y405279D01*
X680950Y403616D01*
X681549Y403017D01*
X681617Y402965D01*
X681680Y402906D01*
X681730Y402880D01*
X681776Y402846D01*
X681856Y402815D01*
X681933Y402776D01*
X681988Y402765D01*
X682042Y402745D01*
X682127Y402738D01*
X682212Y402721D01*
X682268Y402726D01*
X682325Y402721D01*
X682409Y402738D01*
X682495Y402745D01*
X682548Y402766D01*
X682604Y402777D01*
X682680Y402817D01*
X682760Y402847D01*
X682805Y402882D01*
X682856Y402908D01*
X682918Y402967D01*
X682987Y403019D01*
X683021Y403065D01*
X683062Y403104D01*
X683105Y403178D01*
X683157Y403247D01*
X683177Y403300D01*
X683206Y403349D01*
X683227Y403432D01*
X683257Y403513D01*
X683262Y403569D01*
X683276Y403625D01*
X683273Y403710D01*
X683280Y403796D01*
X683269Y403844D01*
X683267Y403909D01*
X683222Y404047D01*
X683205Y404123D01*
X682890Y404883D01*
X682890Y409229D01*
X683205Y409989D01*
X683226Y410072D01*
X683257Y410152D01*
X683261Y410209D01*
X683276Y410264D01*
X683273Y410350D01*
X683280Y410436D01*
X683269Y410491D01*
X683267Y410548D01*
X683241Y410630D01*
X683224Y410714D01*
X683198Y410765D01*
X683181Y410819D01*
X683133Y410890D01*
X683093Y410967D01*
X683054Y411008D01*
X683022Y411055D01*
X682957Y411110D01*
X682898Y411173D01*
X682848Y411201D01*
X682805Y411238D01*
X682726Y411273D01*
X682652Y411316D01*
X682597Y411330D01*
X682545Y411354D01*
X682460Y411365D01*
X682377Y411387D01*
X682320Y411385D01*
X682264Y411393D01*
X682178Y411380D01*
X682093Y411377D01*
X682038Y411360D01*
X681982Y411352D01*
X681904Y411316D01*
X681822Y411290D01*
X681782Y411261D01*
X681723Y411235D01*
X681613Y411141D01*
X681549Y411095D01*
X680950Y410496D01*
X676935Y408833D01*
X672590Y408833D01*
X668575Y410496D01*
X665503Y413569D01*
X663840Y417583D01*
X663840Y421929D01*
X665503Y425943D01*
X668575Y429016D01*
X672590Y430679D01*
X676935Y430679D01*
X680950Y429016D01*
X684022Y425943D01*
X685685Y421929D01*
X685685Y417583D01*
X685370Y416823D01*
X685349Y416740D01*
X685318Y416660D01*
X685314Y416603D01*
X685299Y416548D01*
X685302Y416462D01*
X685295Y416376D01*
X685306Y416321D01*
X685308Y416264D01*
X685334Y416182D01*
X685351Y416098D01*
X685377Y416047D01*
X685394Y415993D01*
X685442Y415922D01*
X685482Y415845D01*
X685521Y415804D01*
X685553Y415757D01*
X685618Y415702D01*
X685677Y415639D01*
X685727Y415610D01*
X685770Y415574D01*
X685849Y415539D01*
X685923Y415495D01*
X685978Y415481D01*
X686030Y415458D01*
X686115Y415447D01*
X686198Y415425D01*
X686255Y415427D01*
X686311Y415419D01*
X686397Y415432D01*
X686482Y415434D01*
X686537Y415452D01*
X686593Y415460D01*
X686671Y415495D01*
X686753Y415522D01*
X686793Y415551D01*
X686852Y415577D01*
X686962Y415671D01*
X687026Y415717D01*
X687625Y416316D01*
X691640Y417979D01*
X695985Y417979D01*
X700000Y416316D01*
X703072Y413243D01*
X704735Y409229D01*
X704735Y404883D01*
X703072Y400869D01*
X700000Y397796D01*
X695985Y396133D01*
X691640Y396133D01*
X687625Y397796D01*
X687026Y398395D01*
X686958Y398447D01*
X686895Y398506D01*
X686845Y398532D01*
X686799Y398566D01*
X686719Y398597D01*
X686642Y398636D01*
X686587Y398647D01*
X686533Y398667D01*
X686448Y398674D01*
X686363Y398691D01*
X686307Y398686D01*
X686250Y398691D01*
X686166Y398674D01*
X686080Y398667D01*
X686027Y398646D01*
X685971Y398635D01*
X685895Y398595D01*
X685815Y398565D01*
X685770Y398530D01*
X685719Y398504D01*
X685657Y398445D01*
X685588Y398393D01*
X685554Y398347D01*
X685513Y398308D01*
X685470Y398234D01*
X685418Y398165D01*
X685398Y398112D01*
X685369Y398063D01*
X685348Y397980D01*
X685318Y397899D01*
X685313Y397842D01*
X685299Y397787D01*
X685302Y397702D01*
X685295Y397616D01*
X685306Y397568D01*
X685308Y397503D01*
X685353Y397365D01*
X685370Y397289D01*
X685685Y396529D01*
X685685Y392183D01*
X684022Y388169D01*
X680950Y385096D01*
X676935Y383433D01*
X672590Y383433D01*
G37*
%LPD*%
%LPC*%
G36*
X702628Y775917D02*
X702628Y775917D01*
X701735Y776811D01*
X701735Y791574D01*
X702628Y792467D01*
X714630Y792467D01*
X714717Y792479D01*
X714804Y792482D01*
X714857Y792499D01*
X714912Y792507D01*
X714992Y792543D01*
X715075Y792569D01*
X715114Y792597D01*
X715171Y792623D01*
X715285Y792719D01*
X715348Y792764D01*
X780490Y857906D01*
X788749Y857906D01*
X788806Y857914D01*
X788865Y857913D01*
X788946Y857934D01*
X789030Y857946D01*
X789083Y857970D01*
X789140Y857984D01*
X789212Y858027D01*
X789289Y858062D01*
X789334Y858100D01*
X789384Y858130D01*
X789442Y858191D01*
X789506Y858246D01*
X789539Y858294D01*
X789579Y858337D01*
X789617Y858412D01*
X789664Y858482D01*
X789682Y858538D01*
X789708Y858590D01*
X789720Y858658D01*
X789750Y858753D01*
X789752Y858853D01*
X789764Y858921D01*
X789764Y858986D01*
X794525Y863748D01*
X801260Y863748D01*
X806021Y858986D01*
X806021Y852252D01*
X801260Y847490D01*
X794525Y847490D01*
X789764Y852252D01*
X789764Y852317D01*
X789756Y852375D01*
X789757Y852434D01*
X789736Y852515D01*
X789724Y852599D01*
X789700Y852652D01*
X789685Y852709D01*
X789642Y852781D01*
X789608Y852858D01*
X789570Y852903D01*
X789540Y852953D01*
X789478Y853011D01*
X789424Y853075D01*
X789375Y853107D01*
X789333Y853148D01*
X789258Y853186D01*
X789187Y853233D01*
X789132Y853250D01*
X789080Y853277D01*
X789012Y853288D01*
X788916Y853318D01*
X788817Y853321D01*
X788749Y853332D01*
X782805Y853332D01*
X782718Y853320D01*
X782631Y853317D01*
X782578Y853300D01*
X782523Y853293D01*
X782443Y853257D01*
X782360Y853230D01*
X782321Y853202D01*
X782264Y853176D01*
X782151Y853080D01*
X782087Y853035D01*
X718582Y789530D01*
X718530Y789461D01*
X718470Y789397D01*
X718444Y789347D01*
X718411Y789303D01*
X718380Y789221D01*
X718340Y789144D01*
X718332Y789096D01*
X718310Y789037D01*
X718298Y788890D01*
X718285Y788812D01*
X718285Y776811D01*
X717392Y775917D01*
X702628Y775917D01*
G37*
%LPD*%
%LPC*%
G36*
X479146Y183814D02*
X479146Y183814D01*
X474384Y188576D01*
X474384Y195310D01*
X479146Y200072D01*
X479211Y200072D01*
X479269Y200080D01*
X479327Y200078D01*
X479409Y200100D01*
X479492Y200111D01*
X479546Y200135D01*
X479602Y200150D01*
X479675Y200193D01*
X479752Y200228D01*
X479797Y200265D01*
X479847Y200295D01*
X479905Y200357D01*
X479969Y200411D01*
X480001Y200460D01*
X480041Y200503D01*
X480080Y200578D01*
X480126Y200648D01*
X480144Y200704D01*
X480171Y200756D01*
X480182Y200824D01*
X480212Y200919D01*
X480215Y201019D01*
X480226Y201087D01*
X480226Y207031D01*
X480214Y207117D01*
X480211Y207205D01*
X480194Y207257D01*
X480186Y207312D01*
X480151Y207392D01*
X480124Y207475D01*
X480096Y207514D01*
X480070Y207571D01*
X479974Y207685D01*
X479929Y207748D01*
X416424Y271253D01*
X416354Y271306D01*
X416290Y271366D01*
X416241Y271391D01*
X416197Y271424D01*
X416115Y271455D01*
X416037Y271495D01*
X415990Y271503D01*
X415931Y271525D01*
X415784Y271538D01*
X415706Y271551D01*
X403704Y271551D01*
X402811Y272444D01*
X402811Y287207D01*
X403704Y288100D01*
X418468Y288100D01*
X419361Y287207D01*
X419361Y275205D01*
X419373Y275118D01*
X419376Y275031D01*
X419393Y274978D01*
X419401Y274923D01*
X419436Y274844D01*
X419463Y274760D01*
X419491Y274721D01*
X419517Y274664D01*
X419613Y274551D01*
X419658Y274487D01*
X483163Y210982D01*
X484800Y209346D01*
X484800Y201087D01*
X484808Y201029D01*
X484806Y200970D01*
X484828Y200889D01*
X484839Y200805D01*
X484863Y200752D01*
X484878Y200695D01*
X484921Y200623D01*
X484956Y200546D01*
X484994Y200501D01*
X485023Y200451D01*
X485085Y200393D01*
X485139Y200329D01*
X485188Y200297D01*
X485231Y200256D01*
X485306Y200218D01*
X485376Y200171D01*
X485432Y200154D01*
X485484Y200127D01*
X485552Y200116D01*
X485647Y200086D01*
X485747Y200083D01*
X485815Y200072D01*
X485880Y200072D01*
X490642Y195310D01*
X490642Y188576D01*
X485880Y183814D01*
X479146Y183814D01*
G37*
%LPD*%
%LPC*%
G36*
X85425Y415477D02*
X85425Y415477D01*
X81270Y417198D01*
X78090Y420378D01*
X76369Y424533D01*
X76369Y429029D01*
X78090Y433184D01*
X81270Y436364D01*
X85425Y438085D01*
X109480Y438085D01*
X113634Y436364D01*
X116814Y433184D01*
X118535Y429029D01*
X118535Y424533D01*
X116814Y420378D01*
X113634Y417198D01*
X109480Y415477D01*
X85425Y415477D01*
G37*
%LPD*%
%LPC*%
G36*
X575425Y415477D02*
X575425Y415477D01*
X571270Y417198D01*
X568090Y420378D01*
X566369Y424533D01*
X566369Y429029D01*
X568090Y433184D01*
X571270Y436364D01*
X575425Y438085D01*
X599480Y438085D01*
X603634Y436364D01*
X606814Y433184D01*
X608535Y429029D01*
X608535Y424533D01*
X606814Y420378D01*
X603634Y417198D01*
X599480Y415477D01*
X575425Y415477D01*
G37*
%LPD*%
%LPC*%
G36*
X575425Y440877D02*
X575425Y440877D01*
X571270Y442598D01*
X568090Y445778D01*
X566369Y449933D01*
X566369Y454429D01*
X568090Y458584D01*
X571270Y461764D01*
X575425Y463485D01*
X599480Y463485D01*
X603634Y461764D01*
X606814Y458584D01*
X608535Y454429D01*
X608535Y449933D01*
X606814Y445778D01*
X603634Y442598D01*
X599480Y440877D01*
X575425Y440877D01*
G37*
%LPD*%
%LPC*%
G36*
X395497Y945139D02*
X395497Y945139D01*
X391342Y946860D01*
X388163Y950040D01*
X386442Y954195D01*
X386442Y978250D01*
X388163Y982404D01*
X391342Y985584D01*
X395497Y987305D01*
X399994Y987305D01*
X404149Y985584D01*
X407328Y982404D01*
X409049Y978250D01*
X409049Y954195D01*
X407328Y950040D01*
X404149Y946860D01*
X399994Y945139D01*
X395497Y945139D01*
G37*
%LPD*%
%LPC*%
G36*
X370097Y945139D02*
X370097Y945139D01*
X365942Y946860D01*
X362763Y950040D01*
X361042Y954195D01*
X361042Y978250D01*
X362763Y982404D01*
X365942Y985584D01*
X370097Y987305D01*
X374594Y987305D01*
X378749Y985584D01*
X381928Y982404D01*
X383649Y978250D01*
X383649Y954195D01*
X381928Y950040D01*
X378749Y946860D01*
X374594Y945139D01*
X370097Y945139D01*
G37*
%LPD*%
%LPC*%
G36*
X395204Y735294D02*
X395204Y735294D01*
X391050Y737014D01*
X387870Y740194D01*
X386149Y744349D01*
X386149Y768404D01*
X387870Y772558D01*
X391050Y775738D01*
X395204Y777459D01*
X399701Y777459D01*
X403856Y775738D01*
X407036Y772558D01*
X408756Y768404D01*
X408756Y744349D01*
X407036Y740194D01*
X403856Y737014D01*
X399701Y735294D01*
X395204Y735294D01*
G37*
%LPD*%
%LPC*%
G36*
X575425Y466277D02*
X575425Y466277D01*
X571270Y467998D01*
X568090Y471178D01*
X566369Y475333D01*
X566369Y479829D01*
X568090Y483984D01*
X571270Y487164D01*
X575425Y488885D01*
X599480Y488885D01*
X603634Y487164D01*
X606814Y483984D01*
X608535Y479829D01*
X608535Y475333D01*
X606814Y471178D01*
X603634Y467998D01*
X599480Y466277D01*
X575425Y466277D01*
G37*
%LPD*%
%LPC*%
G36*
X369804Y525416D02*
X369804Y525416D01*
X365649Y527137D01*
X362469Y530317D01*
X360748Y534472D01*
X360748Y558526D01*
X362469Y562681D01*
X365649Y565861D01*
X369804Y567582D01*
X374301Y567582D01*
X378455Y565861D01*
X381635Y562681D01*
X383356Y558526D01*
X383356Y534472D01*
X381635Y530317D01*
X378455Y527137D01*
X374301Y525416D01*
X369804Y525416D01*
G37*
%LPD*%
%LPC*%
G36*
X395204Y525416D02*
X395204Y525416D01*
X391049Y527137D01*
X387869Y530317D01*
X386148Y534472D01*
X386148Y558526D01*
X387869Y562681D01*
X391049Y565861D01*
X395204Y567582D01*
X399701Y567582D01*
X403855Y565861D01*
X407035Y562681D01*
X408756Y558526D01*
X408756Y534472D01*
X407035Y530317D01*
X403855Y527137D01*
X399701Y525416D01*
X395204Y525416D01*
G37*
%LPD*%
%LPC*%
G36*
X575718Y886000D02*
X575718Y886000D01*
X571563Y887721D01*
X568384Y890901D01*
X566663Y895056D01*
X566663Y899553D01*
X568384Y903707D01*
X571563Y906887D01*
X575718Y908608D01*
X599773Y908608D01*
X603928Y906887D01*
X607107Y903707D01*
X608828Y899553D01*
X608828Y895056D01*
X607107Y890901D01*
X603928Y887721D01*
X599773Y886000D01*
X575718Y886000D01*
G37*
%LPD*%
%LPC*%
G36*
X344404Y525416D02*
X344404Y525416D01*
X340249Y527137D01*
X337069Y530317D01*
X335348Y534472D01*
X335348Y558526D01*
X337069Y562681D01*
X340249Y565861D01*
X344404Y567582D01*
X348901Y567582D01*
X353055Y565861D01*
X356235Y562681D01*
X357956Y558526D01*
X357956Y534472D01*
X356235Y530317D01*
X353055Y527137D01*
X348901Y525416D01*
X344404Y525416D01*
G37*
%LPD*%
%LPC*%
G36*
X575379Y256434D02*
X575379Y256434D01*
X571224Y258155D01*
X568044Y261335D01*
X566323Y265490D01*
X566323Y269987D01*
X568044Y274141D01*
X571224Y277321D01*
X575379Y279042D01*
X599434Y279042D01*
X603588Y277321D01*
X606768Y274141D01*
X608489Y269987D01*
X608489Y265490D01*
X606768Y261335D01*
X603588Y258155D01*
X599434Y256434D01*
X575379Y256434D01*
G37*
%LPD*%
%LPC*%
G36*
X369804Y735294D02*
X369804Y735294D01*
X365650Y737014D01*
X362470Y740194D01*
X360749Y744349D01*
X360749Y768404D01*
X362470Y772558D01*
X365650Y775738D01*
X369804Y777459D01*
X374301Y777459D01*
X378456Y775738D01*
X381636Y772558D01*
X383356Y768404D01*
X383356Y744349D01*
X381636Y740194D01*
X378456Y737014D01*
X374301Y735294D01*
X369804Y735294D01*
G37*
%LPD*%
%LPC*%
G36*
X344404Y735294D02*
X344404Y735294D01*
X340250Y737014D01*
X337070Y740194D01*
X335349Y744349D01*
X335349Y768404D01*
X337070Y772558D01*
X340250Y775738D01*
X344404Y777459D01*
X348901Y777459D01*
X353056Y775738D01*
X356236Y772558D01*
X357956Y768404D01*
X357956Y744349D01*
X356236Y740194D01*
X353056Y737014D01*
X348901Y735294D01*
X344404Y735294D01*
G37*
%LPD*%
%LPC*%
G36*
X575379Y231034D02*
X575379Y231034D01*
X571224Y232755D01*
X568044Y235935D01*
X566323Y240090D01*
X566323Y244587D01*
X568044Y248741D01*
X571224Y251921D01*
X575379Y253642D01*
X599434Y253642D01*
X603588Y251921D01*
X606768Y248741D01*
X608489Y244587D01*
X608489Y240090D01*
X606768Y235935D01*
X603588Y232755D01*
X599434Y231034D01*
X575379Y231034D01*
G37*
%LPD*%
%LPC*%
G36*
X575379Y205634D02*
X575379Y205634D01*
X571224Y207355D01*
X568044Y210535D01*
X566323Y214690D01*
X566323Y219187D01*
X568044Y223341D01*
X571224Y226521D01*
X575379Y228242D01*
X599434Y228242D01*
X603588Y226521D01*
X606768Y223341D01*
X608489Y219187D01*
X608489Y214690D01*
X606768Y210535D01*
X603588Y207355D01*
X599434Y205634D01*
X575379Y205634D01*
G37*
%LPD*%
%LPC*%
G36*
X719849Y939430D02*
X719849Y939430D01*
X715694Y941151D01*
X712514Y944330D01*
X710793Y948485D01*
X710793Y972540D01*
X712514Y976695D01*
X715694Y979874D01*
X719849Y981595D01*
X724346Y981595D01*
X728500Y979874D01*
X731680Y976695D01*
X733401Y972540D01*
X733401Y948485D01*
X731680Y944330D01*
X728500Y941151D01*
X724346Y939430D01*
X719849Y939430D01*
G37*
%LPD*%
%LPC*%
G36*
X85425Y625355D02*
X85425Y625355D01*
X81271Y627075D01*
X78091Y630255D01*
X76370Y634410D01*
X76370Y638907D01*
X78091Y643061D01*
X81271Y646241D01*
X85425Y647962D01*
X109480Y647962D01*
X113635Y646241D01*
X116815Y643061D01*
X118535Y638907D01*
X118535Y634410D01*
X116815Y630255D01*
X113635Y627075D01*
X109480Y625355D01*
X85425Y625355D01*
G37*
%LPD*%
%LPC*%
G36*
X575425Y625355D02*
X575425Y625355D01*
X571271Y627075D01*
X568091Y630255D01*
X566370Y634410D01*
X566370Y638907D01*
X568091Y643061D01*
X571271Y646241D01*
X575425Y647962D01*
X599480Y647962D01*
X603635Y646241D01*
X606815Y643061D01*
X608535Y638907D01*
X608535Y634410D01*
X606815Y630255D01*
X603635Y627075D01*
X599480Y625355D01*
X575425Y625355D01*
G37*
%LPD*%
%LPC*%
G36*
X575425Y650755D02*
X575425Y650755D01*
X571271Y652475D01*
X568091Y655655D01*
X566370Y659810D01*
X566370Y664307D01*
X568091Y668461D01*
X571271Y671641D01*
X575425Y673362D01*
X599480Y673362D01*
X603635Y671641D01*
X606815Y668461D01*
X608535Y664307D01*
X608535Y659810D01*
X606815Y655655D01*
X603635Y652475D01*
X599480Y650755D01*
X575425Y650755D01*
G37*
%LPD*%
%LPC*%
G36*
X770649Y939430D02*
X770649Y939430D01*
X766494Y941151D01*
X763314Y944330D01*
X761593Y948485D01*
X761593Y972540D01*
X763314Y976695D01*
X766494Y979874D01*
X770649Y981595D01*
X775146Y981595D01*
X779300Y979874D01*
X782480Y976695D01*
X784201Y972540D01*
X784201Y948485D01*
X782480Y944330D01*
X779300Y941151D01*
X775146Y939430D01*
X770649Y939430D01*
G37*
%LPD*%
%LPC*%
G36*
X575718Y860600D02*
X575718Y860600D01*
X571563Y862321D01*
X568384Y865501D01*
X566663Y869656D01*
X566663Y874153D01*
X568384Y878307D01*
X571563Y881487D01*
X575718Y883208D01*
X599773Y883208D01*
X603928Y881487D01*
X607107Y878307D01*
X608828Y874153D01*
X608828Y869656D01*
X607107Y865501D01*
X603928Y862321D01*
X599773Y860600D01*
X575718Y860600D01*
G37*
%LPD*%
%LPC*%
G36*
X745249Y939430D02*
X745249Y939430D01*
X741094Y941151D01*
X737914Y944330D01*
X736193Y948485D01*
X736193Y972540D01*
X737914Y976695D01*
X741094Y979874D01*
X745249Y981595D01*
X749746Y981595D01*
X753900Y979874D01*
X757080Y976695D01*
X758801Y972540D01*
X758801Y948485D01*
X757080Y944330D01*
X753900Y941151D01*
X749746Y939430D01*
X745249Y939430D01*
G37*
%LPD*%
%LPC*%
G36*
X575425Y676155D02*
X575425Y676155D01*
X571271Y677875D01*
X568091Y681055D01*
X566370Y685210D01*
X566370Y689707D01*
X568091Y693861D01*
X571271Y697041D01*
X575425Y698762D01*
X599480Y698762D01*
X603635Y697041D01*
X606815Y693861D01*
X608535Y689707D01*
X608535Y685210D01*
X606815Y681055D01*
X603635Y677875D01*
X599480Y676155D01*
X575425Y676155D01*
G37*
%LPD*%
%LPC*%
G36*
X344697Y945139D02*
X344697Y945139D01*
X340542Y946860D01*
X337363Y950040D01*
X335642Y954195D01*
X335642Y978250D01*
X337363Y982404D01*
X340542Y985584D01*
X344697Y987305D01*
X349194Y987305D01*
X353349Y985584D01*
X356528Y982404D01*
X358249Y978250D01*
X358249Y954195D01*
X356528Y950040D01*
X353349Y946860D01*
X349194Y945139D01*
X344697Y945139D01*
G37*
%LPD*%
%LPC*%
G36*
X575718Y835200D02*
X575718Y835200D01*
X571563Y836921D01*
X568384Y840101D01*
X566663Y844256D01*
X566663Y848753D01*
X568384Y852907D01*
X571563Y856087D01*
X575718Y857808D01*
X599773Y857808D01*
X603928Y856087D01*
X607107Y852907D01*
X608828Y848753D01*
X608828Y844256D01*
X607107Y840101D01*
X603928Y836921D01*
X599773Y835200D01*
X575718Y835200D01*
G37*
%LPD*%
%LPC*%
G36*
X85718Y835200D02*
X85718Y835200D01*
X81563Y836921D01*
X78384Y840101D01*
X76663Y844256D01*
X76663Y848753D01*
X78384Y852907D01*
X81563Y856087D01*
X85718Y857808D01*
X109773Y857808D01*
X113928Y856087D01*
X117107Y852907D01*
X118828Y848753D01*
X118828Y844256D01*
X117107Y840101D01*
X113928Y836921D01*
X109773Y835200D01*
X85718Y835200D01*
G37*
%LPD*%
%LPC*%
G36*
X90362Y166823D02*
X90362Y166823D01*
X87188Y168138D01*
X84758Y170567D01*
X83444Y173742D01*
X83444Y191402D01*
X84758Y194576D01*
X87188Y197006D01*
X90362Y198321D01*
X93798Y198321D01*
X96973Y197006D01*
X99402Y194576D01*
X100717Y191402D01*
X100717Y173742D01*
X99402Y170567D01*
X96973Y168138D01*
X93798Y166823D01*
X90362Y166823D01*
G37*
%LPD*%
%LPC*%
G36*
X798434Y456550D02*
X798434Y456550D01*
X795259Y457865D01*
X792830Y460294D01*
X791515Y463469D01*
X791515Y466904D01*
X792830Y470079D01*
X795259Y472508D01*
X798434Y473823D01*
X816094Y473823D01*
X819268Y472508D01*
X821697Y470079D01*
X823012Y466904D01*
X823012Y463469D01*
X821697Y460294D01*
X819268Y457865D01*
X816094Y456550D01*
X798434Y456550D01*
G37*
%LPD*%
%LPC*%
G36*
X528250Y600823D02*
X528250Y600823D01*
X525262Y602060D01*
X522975Y604347D01*
X521738Y607335D01*
X521738Y610568D01*
X522975Y613556D01*
X525262Y615843D01*
X528250Y617080D01*
X544691Y617080D01*
X547679Y615843D01*
X549966Y613556D01*
X551203Y610568D01*
X551203Y607335D01*
X549966Y604347D01*
X547679Y602060D01*
X544691Y600823D01*
X528250Y600823D01*
G37*
%LPD*%
%LPC*%
G36*
X452049Y390945D02*
X452049Y390945D01*
X449061Y392183D01*
X446775Y394470D01*
X445537Y397457D01*
X445537Y400691D01*
X446775Y403679D01*
X449061Y405965D01*
X452049Y407203D01*
X468491Y407203D01*
X471479Y405965D01*
X473765Y403679D01*
X475003Y400691D01*
X475003Y397457D01*
X473765Y394470D01*
X471479Y392183D01*
X468491Y390945D01*
X452049Y390945D01*
G37*
%LPD*%
%LPC*%
G36*
X528249Y390945D02*
X528249Y390945D01*
X525261Y392183D01*
X522975Y394470D01*
X521737Y397457D01*
X521737Y400691D01*
X522975Y403679D01*
X525261Y405965D01*
X528249Y407203D01*
X544691Y407203D01*
X547679Y405965D01*
X549965Y403679D01*
X551203Y400691D01*
X551203Y397457D01*
X549965Y394470D01*
X547679Y392183D01*
X544691Y390945D01*
X528249Y390945D01*
G37*
%LPD*%
%LPC*%
G36*
X452050Y600823D02*
X452050Y600823D01*
X449062Y602060D01*
X446775Y604347D01*
X445538Y607335D01*
X445538Y610568D01*
X446775Y613556D01*
X449062Y615843D01*
X452050Y617080D01*
X468491Y617080D01*
X471479Y615843D01*
X473766Y613556D01*
X475003Y610568D01*
X475003Y607335D01*
X473766Y604347D01*
X471479Y602060D01*
X468491Y600823D01*
X452050Y600823D01*
G37*
%LPD*%
%LPC*%
G36*
X528543Y810669D02*
X528543Y810669D01*
X525555Y811906D01*
X523268Y814193D01*
X522031Y817180D01*
X522031Y820414D01*
X523268Y823402D01*
X525555Y825689D01*
X528543Y826926D01*
X544984Y826926D01*
X547972Y825689D01*
X550259Y823402D01*
X551496Y820414D01*
X551496Y817180D01*
X550259Y814193D01*
X547972Y811906D01*
X544984Y810669D01*
X528543Y810669D01*
G37*
%LPD*%
%LPC*%
G36*
X452343Y810669D02*
X452343Y810669D01*
X449355Y811906D01*
X447068Y814193D01*
X445831Y817180D01*
X445831Y820414D01*
X447068Y823402D01*
X449355Y825689D01*
X452343Y826926D01*
X468784Y826926D01*
X471772Y825689D01*
X474059Y823402D01*
X475296Y820414D01*
X475296Y817180D01*
X474059Y814193D01*
X471772Y811906D01*
X468784Y810669D01*
X452343Y810669D01*
G37*
%LPD*%
%LPC*%
G36*
X775346Y581673D02*
X775346Y581673D01*
X774453Y582566D01*
X774453Y597909D01*
X775346Y598803D01*
X790689Y598803D01*
X791583Y597909D01*
X791583Y582566D01*
X790689Y581673D01*
X775346Y581673D01*
G37*
%LPD*%
%LPC*%
G36*
X231066Y169670D02*
X231066Y169670D01*
X230173Y170563D01*
X230173Y185906D01*
X231066Y186799D01*
X246409Y186799D01*
X247303Y185906D01*
X247303Y170563D01*
X246409Y169670D01*
X231066Y169670D01*
G37*
%LPD*%
%LPC*%
G36*
X413236Y802909D02*
X413236Y802909D01*
X412343Y803802D01*
X412343Y819145D01*
X413236Y820038D01*
X428580Y820038D01*
X429473Y819145D01*
X429473Y803802D01*
X428580Y802909D01*
X413236Y802909D01*
G37*
%LPD*%
%LPC*%
G36*
X513143Y524286D02*
X513143Y524286D01*
X512250Y525179D01*
X512250Y540522D01*
X513143Y541415D01*
X528486Y541415D01*
X529379Y540522D01*
X529379Y525179D01*
X528486Y524286D01*
X513143Y524286D01*
G37*
%LPD*%
%LPC*%
G36*
X338336Y800709D02*
X338336Y800709D01*
X337443Y801602D01*
X337443Y816945D01*
X338336Y817838D01*
X353680Y817838D01*
X354573Y816945D01*
X354573Y801602D01*
X353680Y800709D01*
X338336Y800709D01*
G37*
%LPD*%
%LPC*%
G36*
X487543Y545686D02*
X487543Y545686D01*
X486650Y546579D01*
X486650Y561922D01*
X487543Y562815D01*
X502886Y562815D01*
X503779Y561922D01*
X503779Y546579D01*
X502886Y545686D01*
X487543Y545686D01*
G37*
%LPD*%
%LPC*%
G36*
X413299Y595905D02*
X413299Y595905D01*
X412406Y596798D01*
X412406Y612141D01*
X413299Y613034D01*
X428642Y613034D01*
X429535Y612141D01*
X429535Y596798D01*
X428642Y595905D01*
X413299Y595905D01*
G37*
%LPD*%
%LPC*%
G36*
X339820Y596546D02*
X339820Y596546D01*
X338926Y597439D01*
X338926Y612783D01*
X339820Y613676D01*
X355163Y613676D01*
X356056Y612783D01*
X356056Y597439D01*
X355163Y596546D01*
X339820Y596546D01*
G37*
%LPD*%
%LPC*%
G36*
X362036Y834209D02*
X362036Y834209D01*
X361143Y835102D01*
X361143Y850445D01*
X362036Y851338D01*
X377380Y851338D01*
X378273Y850445D01*
X378273Y835102D01*
X377380Y834209D01*
X362036Y834209D01*
G37*
%LPD*%
%LPC*%
G36*
X803929Y603279D02*
X803929Y603279D01*
X803036Y604172D01*
X803036Y619516D01*
X803929Y620409D01*
X819272Y620409D01*
X820165Y619516D01*
X820165Y604172D01*
X819272Y603279D01*
X803929Y603279D01*
G37*
%LPD*%
%LPC*%
G36*
X391647Y834360D02*
X391647Y834360D01*
X390754Y835254D01*
X390754Y850597D01*
X391647Y851490D01*
X406991Y851490D01*
X407884Y850597D01*
X407884Y835254D01*
X406991Y834360D01*
X391647Y834360D01*
G37*
%LPD*%
%LPC*%
G36*
X391354Y414637D02*
X391354Y414637D01*
X390461Y415530D01*
X390461Y430874D01*
X391354Y431767D01*
X406697Y431767D01*
X407590Y430874D01*
X407590Y415530D01*
X406697Y414637D01*
X391354Y414637D01*
G37*
%LPD*%
%LPC*%
G36*
X487544Y755563D02*
X487544Y755563D01*
X486650Y756456D01*
X486650Y771799D01*
X487544Y772692D01*
X502887Y772692D01*
X503780Y771799D01*
X503780Y756456D01*
X502887Y755563D01*
X487544Y755563D01*
G37*
%LPD*%
%LPC*%
G36*
X361743Y414486D02*
X361743Y414486D01*
X360850Y415379D01*
X360850Y430722D01*
X361743Y431615D01*
X377086Y431615D01*
X377979Y430722D01*
X377979Y415379D01*
X377086Y414486D01*
X361743Y414486D01*
G37*
%LPD*%
%LPC*%
G36*
X361744Y624363D02*
X361744Y624363D01*
X360850Y625256D01*
X360850Y640599D01*
X361744Y641492D01*
X377087Y641492D01*
X377980Y640599D01*
X377980Y625256D01*
X377087Y624363D01*
X361744Y624363D01*
G37*
%LPD*%
%LPC*%
G36*
X391354Y624515D02*
X391354Y624515D01*
X390461Y625408D01*
X390461Y640751D01*
X391354Y641644D01*
X406698Y641644D01*
X407591Y640751D01*
X407591Y625408D01*
X406698Y624515D01*
X391354Y624515D01*
G37*
%LPD*%
%LPC*%
G36*
X711497Y413245D02*
X711497Y413245D01*
X710604Y414138D01*
X710604Y429481D01*
X711497Y430374D01*
X726840Y430374D01*
X727733Y429481D01*
X727733Y414138D01*
X726840Y413245D01*
X711497Y413245D01*
G37*
%LPD*%
%LPC*%
G36*
X307266Y170853D02*
X307266Y170853D01*
X306373Y171746D01*
X306373Y187089D01*
X307266Y187982D01*
X322609Y187982D01*
X323503Y187089D01*
X323503Y171746D01*
X322609Y170853D01*
X307266Y170853D01*
G37*
%LPD*%
%LPC*%
G36*
X340175Y387806D02*
X340175Y387806D01*
X339282Y388699D01*
X339282Y404042D01*
X340175Y404936D01*
X355518Y404936D01*
X356411Y404042D01*
X356411Y388699D01*
X355518Y387806D01*
X340175Y387806D01*
G37*
%LPD*%
%LPC*%
G36*
X513144Y734163D02*
X513144Y734163D01*
X512250Y735056D01*
X512250Y750399D01*
X513144Y751292D01*
X528487Y751292D01*
X529380Y750399D01*
X529380Y735056D01*
X528487Y734163D01*
X513144Y734163D01*
G37*
%LPD*%
%LPC*%
G36*
X412943Y387624D02*
X412943Y387624D01*
X412050Y388517D01*
X412050Y403861D01*
X412943Y404754D01*
X428286Y404754D01*
X429179Y403861D01*
X429179Y388517D01*
X428286Y387624D01*
X412943Y387624D01*
G37*
%LPD*%
%LPC*%
G36*
X733353Y385671D02*
X733353Y385671D01*
X732460Y386564D01*
X732460Y401908D01*
X733353Y402801D01*
X748696Y402801D01*
X749589Y401908D01*
X749589Y386564D01*
X748696Y385671D01*
X733353Y385671D01*
G37*
%LPD*%
%LPC*%
G36*
X513436Y944009D02*
X513436Y944009D01*
X512543Y944902D01*
X512543Y960245D01*
X513436Y961138D01*
X528780Y961138D01*
X529673Y960245D01*
X529673Y944902D01*
X528780Y944009D01*
X513436Y944009D01*
G37*
%LPD*%
%LPC*%
G36*
X802746Y679479D02*
X802746Y679479D01*
X801853Y680372D01*
X801853Y695716D01*
X802746Y696609D01*
X818089Y696609D01*
X818983Y695716D01*
X818983Y680372D01*
X818089Y679479D01*
X802746Y679479D01*
G37*
%LPD*%
%LPC*%
G36*
X41032Y262102D02*
X41032Y262102D01*
X40139Y262995D01*
X40139Y278338D01*
X41032Y279231D01*
X56375Y279231D01*
X57268Y278338D01*
X57268Y262995D01*
X56375Y262102D01*
X41032Y262102D01*
G37*
%LPD*%
%LPC*%
G36*
X209460Y198253D02*
X209460Y198253D01*
X208567Y199146D01*
X208567Y214489D01*
X209460Y215382D01*
X224803Y215382D01*
X225696Y214489D01*
X225696Y199146D01*
X224803Y198253D01*
X209460Y198253D01*
G37*
%LPD*%
%LPC*%
G36*
X487836Y965409D02*
X487836Y965409D01*
X486943Y966302D01*
X486943Y981645D01*
X487836Y982538D01*
X503180Y982538D01*
X504073Y981645D01*
X504073Y966302D01*
X503180Y965409D01*
X487836Y965409D01*
G37*
%LPD*%
%LPC*%
G36*
X302193Y334958D02*
X302193Y334958D01*
X301300Y335851D01*
X301300Y350614D01*
X302193Y351507D01*
X316956Y351507D01*
X317849Y350614D01*
X317849Y335851D01*
X316956Y334958D01*
X302193Y334958D01*
G37*
%LPD*%
%LPC*%
G36*
X703536Y511668D02*
X703536Y511668D01*
X702643Y512562D01*
X702643Y527325D01*
X703536Y528218D01*
X718299Y528218D01*
X719192Y527325D01*
X719192Y512562D01*
X718299Y511668D01*
X703536Y511668D01*
G37*
%LPD*%
%LPC*%
G36*
X790029Y881794D02*
X790029Y881794D01*
X789136Y882688D01*
X789136Y897451D01*
X790029Y898344D01*
X804793Y898344D01*
X805686Y897451D01*
X805686Y882688D01*
X804793Y881794D01*
X790029Y881794D01*
G37*
%LPD*%
%LPC*%
G36*
X509581Y184150D02*
X509581Y184150D01*
X508688Y185043D01*
X508688Y199806D01*
X509581Y200699D01*
X524345Y200699D01*
X525238Y199806D01*
X525238Y185043D01*
X524345Y184150D01*
X509581Y184150D01*
G37*
%LPD*%
%LPC*%
G36*
X639221Y674406D02*
X639221Y674406D01*
X638328Y675299D01*
X638328Y690062D01*
X639221Y690955D01*
X653984Y690955D01*
X654878Y690062D01*
X654878Y675299D01*
X653984Y674406D01*
X639221Y674406D01*
G37*
%LPD*%
%LPC*%
G36*
X139455Y270643D02*
X139455Y270643D01*
X138562Y271536D01*
X138562Y286299D01*
X139455Y287192D01*
X154219Y287192D01*
X155112Y286299D01*
X155112Y271536D01*
X154219Y270643D01*
X139455Y270643D01*
G37*
%LPD*%
%LPC*%
G36*
X342311Y414486D02*
X342311Y414486D01*
X339163Y415789D01*
X336754Y418199D01*
X335450Y421347D01*
X335450Y424754D01*
X336754Y427902D01*
X339163Y430311D01*
X342311Y431615D01*
X345718Y431615D01*
X348866Y430311D01*
X351275Y427902D01*
X352579Y424754D01*
X352579Y421347D01*
X351275Y418199D01*
X348866Y415789D01*
X345718Y414486D01*
X342311Y414486D01*
G37*
%LPD*%
%LPC*%
G36*
X397615Y859760D02*
X397615Y859760D01*
X394467Y861064D01*
X392058Y863474D01*
X390754Y866622D01*
X390754Y870029D01*
X392058Y873177D01*
X394467Y875586D01*
X397615Y876890D01*
X401023Y876890D01*
X404171Y875586D01*
X406580Y873177D01*
X407884Y870029D01*
X407884Y866622D01*
X406580Y863474D01*
X404171Y861064D01*
X401023Y859760D01*
X397615Y859760D01*
G37*
%LPD*%
%LPC*%
G36*
X317234Y198224D02*
X317234Y198224D01*
X314086Y199528D01*
X311677Y201937D01*
X310373Y205085D01*
X310373Y208492D01*
X311677Y211640D01*
X314086Y214050D01*
X317234Y215353D01*
X320641Y215353D01*
X323789Y214050D01*
X326199Y211640D01*
X327503Y208492D01*
X327503Y205085D01*
X326199Y201937D01*
X323789Y199528D01*
X320641Y198224D01*
X317234Y198224D01*
G37*
%LPD*%
%LPC*%
G36*
X393804Y802909D02*
X393804Y802909D01*
X390656Y804213D01*
X388247Y806622D01*
X386943Y809770D01*
X386943Y813177D01*
X388247Y816325D01*
X390656Y818734D01*
X393804Y820038D01*
X397212Y820038D01*
X400360Y818734D01*
X402769Y816325D01*
X404073Y813177D01*
X404073Y809770D01*
X402769Y806622D01*
X400360Y804213D01*
X397212Y802909D01*
X393804Y802909D01*
G37*
%LPD*%
%LPC*%
G36*
X493511Y520286D02*
X493511Y520286D01*
X490363Y521589D01*
X487954Y523999D01*
X486650Y527147D01*
X486650Y530554D01*
X487954Y533702D01*
X490363Y536111D01*
X493511Y537415D01*
X496918Y537415D01*
X500066Y536111D01*
X502475Y533702D01*
X503779Y530554D01*
X503779Y527147D01*
X502475Y523999D01*
X500066Y521589D01*
X496918Y520286D01*
X493511Y520286D01*
G37*
%LPD*%
%LPC*%
G36*
X240828Y198253D02*
X240828Y198253D01*
X237680Y199557D01*
X235271Y201966D01*
X233967Y205114D01*
X233967Y208521D01*
X235271Y211669D01*
X237680Y214078D01*
X240828Y215382D01*
X244235Y215382D01*
X247383Y214078D01*
X249792Y211669D01*
X251096Y208521D01*
X251096Y205114D01*
X249792Y201966D01*
X247383Y199557D01*
X244235Y198253D01*
X240828Y198253D01*
G37*
%LPD*%
%LPC*%
G36*
X781343Y683479D02*
X781343Y683479D01*
X778195Y684783D01*
X775786Y687192D01*
X774482Y690340D01*
X774482Y693748D01*
X775786Y696896D01*
X778195Y699305D01*
X781343Y700609D01*
X784750Y700609D01*
X787898Y699305D01*
X790307Y696896D01*
X791611Y693748D01*
X791611Y690340D01*
X790307Y687192D01*
X787898Y684783D01*
X784750Y683479D01*
X781343Y683479D01*
G37*
%LPD*%
%LPC*%
G36*
X369704Y800709D02*
X369704Y800709D01*
X366556Y802013D01*
X364147Y804422D01*
X362843Y807570D01*
X362843Y810977D01*
X364147Y814125D01*
X366556Y816534D01*
X369704Y817838D01*
X373112Y817838D01*
X376260Y816534D01*
X378669Y814125D01*
X379973Y810977D01*
X379973Y807570D01*
X378669Y804422D01*
X376260Y802013D01*
X373112Y800709D01*
X369704Y800709D01*
G37*
%LPD*%
%LPC*%
G36*
X519111Y549686D02*
X519111Y549686D01*
X515963Y550989D01*
X513554Y553399D01*
X512250Y556547D01*
X512250Y559954D01*
X513554Y563102D01*
X515963Y565511D01*
X519111Y566815D01*
X522518Y566815D01*
X525666Y565511D01*
X528075Y563102D01*
X529379Y559954D01*
X529379Y556547D01*
X528075Y553399D01*
X525666Y550989D01*
X522518Y549686D01*
X519111Y549686D01*
G37*
%LPD*%
%LPC*%
G36*
X809897Y577879D02*
X809897Y577879D01*
X806749Y579183D01*
X804340Y581592D01*
X803036Y584740D01*
X803036Y588148D01*
X804340Y591296D01*
X806749Y593705D01*
X809897Y595009D01*
X813304Y595009D01*
X816452Y593705D01*
X818861Y591296D01*
X820165Y588148D01*
X820165Y584740D01*
X818861Y581592D01*
X816452Y579183D01*
X813304Y577879D01*
X809897Y577879D01*
G37*
%LPD*%
%LPC*%
G36*
X393867Y595905D02*
X393867Y595905D01*
X390719Y597209D01*
X388310Y599618D01*
X387006Y602766D01*
X387006Y606173D01*
X388310Y609321D01*
X390719Y611730D01*
X393867Y613034D01*
X397274Y613034D01*
X400422Y611730D01*
X402831Y609321D01*
X404135Y606173D01*
X404135Y602766D01*
X402831Y599618D01*
X400422Y597209D01*
X397274Y595905D01*
X393867Y595905D01*
G37*
%LPD*%
%LPC*%
G36*
X47000Y236702D02*
X47000Y236702D01*
X43852Y238006D01*
X41442Y240415D01*
X40139Y243563D01*
X40139Y246970D01*
X41442Y250118D01*
X43852Y252527D01*
X47000Y253831D01*
X50407Y253831D01*
X53555Y252527D01*
X55964Y250118D01*
X57268Y246970D01*
X57268Y243563D01*
X55964Y240415D01*
X53555Y238006D01*
X50407Y236702D01*
X47000Y236702D01*
G37*
%LPD*%
%LPC*%
G36*
X371188Y596546D02*
X371188Y596546D01*
X368040Y597850D01*
X365630Y600259D01*
X364326Y603407D01*
X364326Y606815D01*
X365630Y609963D01*
X368040Y612372D01*
X371188Y613676D01*
X374595Y613676D01*
X377743Y612372D01*
X380152Y609963D01*
X381456Y606815D01*
X381456Y603407D01*
X380152Y600259D01*
X377743Y597850D01*
X374595Y596546D01*
X371188Y596546D01*
G37*
%LPD*%
%LPC*%
G36*
X397322Y440037D02*
X397322Y440037D01*
X394174Y441341D01*
X391765Y443750D01*
X390461Y446898D01*
X390461Y450306D01*
X391765Y453454D01*
X394174Y455863D01*
X397322Y457167D01*
X400729Y457167D01*
X403877Y455863D01*
X406286Y453454D01*
X407590Y450306D01*
X407590Y446898D01*
X406286Y443750D01*
X403877Y441341D01*
X400729Y440037D01*
X397322Y440037D01*
G37*
%LPD*%
%LPC*%
G36*
X342604Y834209D02*
X342604Y834209D01*
X339456Y835513D01*
X337047Y837922D01*
X335743Y841070D01*
X335743Y844477D01*
X337047Y847625D01*
X339456Y850034D01*
X342604Y851338D01*
X346012Y851338D01*
X349160Y850034D01*
X351569Y847625D01*
X352873Y844477D01*
X352873Y841070D01*
X351569Y837922D01*
X349160Y835513D01*
X346012Y834209D01*
X342604Y834209D01*
G37*
%LPD*%
%LPC*%
G36*
X713921Y385671D02*
X713921Y385671D01*
X710773Y386975D01*
X708364Y389384D01*
X707060Y392532D01*
X707060Y395940D01*
X708364Y399088D01*
X710773Y401497D01*
X713921Y402801D01*
X717328Y402801D01*
X720476Y401497D01*
X722885Y399088D01*
X724189Y395940D01*
X724189Y392532D01*
X722885Y389384D01*
X720476Y386975D01*
X717328Y385671D01*
X713921Y385671D01*
G37*
%LPD*%
%LPC*%
G36*
X393511Y387624D02*
X393511Y387624D01*
X390363Y388928D01*
X387954Y391337D01*
X386650Y394485D01*
X386650Y397893D01*
X387954Y401041D01*
X390363Y403450D01*
X393511Y404754D01*
X396918Y404754D01*
X400066Y403450D01*
X402475Y401041D01*
X403779Y397893D01*
X403779Y394485D01*
X402475Y391337D01*
X400066Y388928D01*
X396918Y387624D01*
X393511Y387624D01*
G37*
%LPD*%
%LPC*%
G36*
X808714Y654079D02*
X808714Y654079D01*
X805566Y655383D01*
X803157Y657792D01*
X801853Y660940D01*
X801853Y664348D01*
X803157Y667496D01*
X805566Y669905D01*
X808714Y671209D01*
X812121Y671209D01*
X815269Y669905D01*
X817679Y667496D01*
X818983Y664348D01*
X818983Y660940D01*
X817679Y657792D01*
X815269Y655383D01*
X812121Y654079D01*
X808714Y654079D01*
G37*
%LPD*%
%LPC*%
G36*
X397322Y649915D02*
X397322Y649915D01*
X394174Y651219D01*
X391765Y653628D01*
X390461Y656776D01*
X390461Y660183D01*
X391765Y663331D01*
X394174Y665740D01*
X397322Y667044D01*
X400730Y667044D01*
X403878Y665740D01*
X406287Y663331D01*
X407591Y660183D01*
X407591Y656776D01*
X406287Y653628D01*
X403878Y651219D01*
X400730Y649915D01*
X397322Y649915D01*
G37*
%LPD*%
%LPC*%
G36*
X493512Y730163D02*
X493512Y730163D01*
X490364Y731467D01*
X487954Y733876D01*
X486650Y737024D01*
X486650Y740431D01*
X487954Y743579D01*
X490364Y745988D01*
X493512Y747292D01*
X496919Y747292D01*
X500067Y745988D01*
X502476Y743579D01*
X503780Y740431D01*
X503780Y737024D01*
X502476Y733876D01*
X500067Y731467D01*
X496919Y730163D01*
X493512Y730163D01*
G37*
%LPD*%
%LPC*%
G36*
X371543Y387806D02*
X371543Y387806D01*
X368395Y389110D01*
X365986Y391519D01*
X364682Y394667D01*
X364682Y398074D01*
X365986Y401222D01*
X368395Y403632D01*
X371543Y404936D01*
X374950Y404936D01*
X378098Y403632D01*
X380507Y401222D01*
X381811Y398074D01*
X381811Y394667D01*
X380507Y391519D01*
X378098Y389110D01*
X374950Y387806D01*
X371543Y387806D01*
G37*
%LPD*%
%LPC*%
G36*
X519404Y969409D02*
X519404Y969409D01*
X516256Y970713D01*
X513847Y973122D01*
X512543Y976270D01*
X512543Y979677D01*
X513847Y982825D01*
X516256Y985234D01*
X519404Y986538D01*
X522812Y986538D01*
X525960Y985234D01*
X528369Y982825D01*
X529673Y979677D01*
X529673Y976270D01*
X528369Y973122D01*
X525960Y970713D01*
X522812Y969409D01*
X519404Y969409D01*
G37*
%LPD*%
%LPC*%
G36*
X493804Y940009D02*
X493804Y940009D01*
X490656Y941313D01*
X488247Y943722D01*
X486943Y946870D01*
X486943Y950277D01*
X488247Y953425D01*
X490656Y955834D01*
X493804Y957138D01*
X497212Y957138D01*
X500360Y955834D01*
X502769Y953425D01*
X504073Y950277D01*
X504073Y946870D01*
X502769Y943722D01*
X500360Y941313D01*
X497212Y940009D01*
X493804Y940009D01*
G37*
%LPD*%
%LPC*%
G36*
X287834Y170853D02*
X287834Y170853D01*
X284686Y172157D01*
X282277Y174566D01*
X280973Y177714D01*
X280973Y181121D01*
X282277Y184269D01*
X284686Y186678D01*
X287834Y187982D01*
X291241Y187982D01*
X294389Y186678D01*
X296799Y184269D01*
X298103Y181121D01*
X298103Y177714D01*
X296799Y174566D01*
X294389Y172157D01*
X291241Y170853D01*
X287834Y170853D01*
G37*
%LPD*%
%LPC*%
G36*
X742865Y413245D02*
X742865Y413245D01*
X739717Y414549D01*
X737308Y416958D01*
X736004Y420106D01*
X736004Y423513D01*
X737308Y426661D01*
X739717Y429070D01*
X742865Y430374D01*
X746272Y430374D01*
X749420Y429070D01*
X751830Y426661D01*
X753133Y423513D01*
X753133Y420106D01*
X751830Y416958D01*
X749420Y414549D01*
X746272Y413245D01*
X742865Y413245D01*
G37*
%LPD*%
%LPC*%
G36*
X519112Y759563D02*
X519112Y759563D01*
X515964Y760867D01*
X513554Y763276D01*
X512250Y766424D01*
X512250Y769831D01*
X513554Y772979D01*
X515964Y775388D01*
X519112Y776692D01*
X522519Y776692D01*
X525667Y775388D01*
X528076Y772979D01*
X529380Y769831D01*
X529380Y766424D01*
X528076Y763276D01*
X525667Y760867D01*
X522519Y759563D01*
X519112Y759563D01*
G37*
%LPD*%
%LPC*%
G36*
X781314Y607073D02*
X781314Y607073D01*
X778166Y608377D01*
X775757Y610786D01*
X774453Y613934D01*
X774453Y617341D01*
X775757Y620489D01*
X778166Y622899D01*
X781314Y624203D01*
X784721Y624203D01*
X787869Y622899D01*
X790279Y620489D01*
X791583Y617341D01*
X791583Y613934D01*
X790279Y610786D01*
X787869Y608377D01*
X784721Y607073D01*
X781314Y607073D01*
G37*
%LPD*%
%LPC*%
G36*
X342312Y624363D02*
X342312Y624363D01*
X339164Y625667D01*
X336754Y628076D01*
X335450Y631224D01*
X335450Y634631D01*
X336754Y637779D01*
X339164Y640188D01*
X342312Y641492D01*
X345719Y641492D01*
X348867Y640188D01*
X351276Y637779D01*
X352580Y634631D01*
X352580Y631224D01*
X351276Y628076D01*
X348867Y625667D01*
X345719Y624363D01*
X342312Y624363D01*
G37*
%LPD*%
%LPC*%
G36*
X211634Y169670D02*
X211634Y169670D01*
X208486Y170974D01*
X206077Y173383D01*
X204773Y176531D01*
X204773Y179938D01*
X206077Y183086D01*
X208486Y185496D01*
X211634Y186799D01*
X215041Y186799D01*
X218189Y185496D01*
X220599Y183086D01*
X221903Y179938D01*
X221903Y176531D01*
X220599Y173383D01*
X218189Y170974D01*
X215041Y169670D01*
X211634Y169670D01*
G37*
%LPD*%
%LPC*%
G36*
X460096Y171114D02*
X460096Y171114D01*
X455334Y175876D01*
X455334Y182610D01*
X460096Y187372D01*
X466830Y187372D01*
X471592Y182610D01*
X471592Y175876D01*
X466830Y171114D01*
X460096Y171114D01*
G37*
%LPD*%
%LPC*%
G36*
X101115Y289663D02*
X101115Y289663D01*
X96353Y294424D01*
X96353Y301158D01*
X101115Y305920D01*
X107849Y305920D01*
X112611Y301158D01*
X112611Y294424D01*
X107849Y289663D01*
X101115Y289663D01*
G37*
%LPD*%
%LPC*%
G36*
X101115Y315063D02*
X101115Y315063D01*
X96353Y319824D01*
X96353Y326558D01*
X101115Y331320D01*
X107849Y331320D01*
X112611Y326558D01*
X112611Y319824D01*
X107849Y315063D01*
X101115Y315063D01*
G37*
%LPD*%
%LPC*%
G36*
X688677Y469460D02*
X688677Y469460D01*
X683915Y474221D01*
X683915Y480955D01*
X688677Y485717D01*
X695411Y485717D01*
X700173Y480955D01*
X700173Y474221D01*
X695411Y469460D01*
X688677Y469460D01*
G37*
%LPD*%
%LPC*%
G36*
X663277Y469460D02*
X663277Y469460D01*
X658515Y474221D01*
X658515Y480955D01*
X663277Y485717D01*
X670011Y485717D01*
X674773Y480955D01*
X674773Y474221D01*
X670011Y469460D01*
X663277Y469460D01*
G37*
%LPD*%
%LPC*%
G36*
X460096Y196514D02*
X460096Y196514D01*
X455334Y201276D01*
X455334Y208010D01*
X460096Y212772D01*
X466830Y212772D01*
X471592Y208010D01*
X471592Y201276D01*
X466830Y196514D01*
X460096Y196514D01*
G37*
%LPD*%
%LPC*%
G36*
X637877Y469460D02*
X637877Y469460D01*
X633115Y474221D01*
X633115Y480955D01*
X637877Y485717D01*
X644611Y485717D01*
X649373Y480955D01*
X649373Y474221D01*
X644611Y469460D01*
X637877Y469460D01*
G37*
%LPD*%
%LPC*%
G36*
X101115Y340463D02*
X101115Y340463D01*
X96353Y345224D01*
X96353Y351958D01*
X101115Y356720D01*
X107849Y356720D01*
X112611Y351958D01*
X112611Y345224D01*
X107849Y340463D01*
X101115Y340463D01*
G37*
%LPD*%
%LPC*%
G36*
X781825Y828440D02*
X781825Y828440D01*
X777064Y833202D01*
X777064Y839936D01*
X781825Y844698D01*
X788560Y844698D01*
X793321Y839936D01*
X793321Y833202D01*
X788560Y828440D01*
X781825Y828440D01*
G37*
%LPD*%
%LPC*%
G36*
X807225Y828440D02*
X807225Y828440D01*
X802464Y833202D01*
X802464Y839936D01*
X807225Y844698D01*
X813960Y844698D01*
X818721Y839936D01*
X818721Y833202D01*
X813960Y828440D01*
X807225Y828440D01*
G37*
%LPD*%
%LPC*%
G36*
X158690Y315677D02*
X158690Y315677D01*
X155649Y316936D01*
X153321Y319264D01*
X152062Y322305D01*
X152062Y325597D01*
X153321Y328639D01*
X155649Y330966D01*
X158690Y332226D01*
X161982Y332226D01*
X165024Y330966D01*
X167351Y328639D01*
X168611Y325597D01*
X168611Y322305D01*
X167351Y319264D01*
X165024Y316936D01*
X161982Y315677D01*
X158690Y315677D01*
G37*
%LPD*%
%LPC*%
G36*
X389440Y271551D02*
X389440Y271551D01*
X386399Y272810D01*
X384071Y275138D01*
X382811Y278179D01*
X382811Y281471D01*
X384071Y284513D01*
X386399Y286840D01*
X389440Y288100D01*
X392732Y288100D01*
X395773Y286840D01*
X398101Y284513D01*
X399361Y281471D01*
X399361Y278179D01*
X398101Y275138D01*
X395773Y272810D01*
X392732Y271551D01*
X389440Y271551D01*
G37*
%LPD*%
%LPC*%
G36*
X708364Y755917D02*
X708364Y755917D01*
X705323Y757177D01*
X702995Y759505D01*
X701735Y762546D01*
X701735Y765838D01*
X702995Y768880D01*
X705323Y771207D01*
X708364Y772467D01*
X711656Y772467D01*
X714697Y771207D01*
X717025Y768880D01*
X718285Y765838D01*
X718285Y762546D01*
X717025Y759505D01*
X714697Y757177D01*
X711656Y755917D01*
X708364Y755917D01*
G37*
%LPD*%
%LPC*%
G36*
X664957Y674406D02*
X664957Y674406D01*
X661915Y675666D01*
X659588Y677993D01*
X658328Y681035D01*
X658328Y684327D01*
X659588Y687368D01*
X661915Y689696D01*
X664957Y690955D01*
X668249Y690955D01*
X671290Y689696D01*
X673618Y687368D01*
X674878Y684327D01*
X674878Y681035D01*
X673618Y677993D01*
X671290Y675666D01*
X668249Y674406D01*
X664957Y674406D01*
G37*
%LPD*%
%LPC*%
G36*
X307929Y314958D02*
X307929Y314958D01*
X304887Y316218D01*
X302560Y318545D01*
X301300Y321587D01*
X301300Y324878D01*
X302560Y327920D01*
X304887Y330248D01*
X307929Y331507D01*
X311220Y331507D01*
X314262Y330248D01*
X316589Y327920D01*
X317849Y324878D01*
X317849Y321587D01*
X316589Y318545D01*
X314262Y316218D01*
X311220Y314958D01*
X307929Y314958D01*
G37*
%LPD*%
%LPC*%
G36*
X664238Y525168D02*
X664238Y525168D01*
X661197Y526428D01*
X658869Y528755D01*
X657609Y531797D01*
X657609Y535088D01*
X658869Y538130D01*
X661197Y540458D01*
X664238Y541717D01*
X667530Y541717D01*
X670571Y540458D01*
X672899Y538130D01*
X674159Y535088D01*
X674159Y531797D01*
X672899Y528755D01*
X670571Y526428D01*
X667530Y525168D01*
X664238Y525168D01*
G37*
%LPD*%
%LPC*%
G36*
X99484Y689490D02*
X99484Y689490D01*
X99484Y699778D01*
X108201Y699778D01*
X110117Y699475D01*
X111961Y698875D01*
X113689Y697995D01*
X115258Y696855D01*
X116629Y695484D01*
X117768Y693915D01*
X118649Y692188D01*
X119248Y690343D01*
X119383Y689490D01*
X99484Y689490D01*
G37*
%LPD*%
%LPC*%
G36*
X99437Y269769D02*
X99437Y269769D01*
X99437Y280058D01*
X108155Y280058D01*
X110070Y279755D01*
X111914Y279155D01*
X113642Y278275D01*
X115211Y277135D01*
X116582Y275764D01*
X117722Y274195D01*
X118602Y272467D01*
X119202Y270623D01*
X119337Y269769D01*
X99437Y269769D01*
G37*
%LPD*%
%LPC*%
G36*
X99483Y479612D02*
X99483Y479612D01*
X99483Y489901D01*
X108201Y489901D01*
X110116Y489597D01*
X111960Y488998D01*
X113688Y488118D01*
X115257Y486978D01*
X116628Y485607D01*
X117768Y484038D01*
X118648Y482310D01*
X119248Y480466D01*
X119383Y479612D01*
X99483Y479612D01*
G37*
%LPD*%
%LPC*%
G36*
X99777Y899335D02*
X99777Y899335D01*
X99777Y909624D01*
X108494Y909624D01*
X110409Y909320D01*
X112254Y908721D01*
X113982Y907841D01*
X115550Y906701D01*
X116921Y905330D01*
X118061Y903761D01*
X118942Y902033D01*
X119541Y900189D01*
X119676Y899335D01*
X99777Y899335D01*
G37*
%LPD*%
%LPC*%
G36*
X75522Y689490D02*
X75522Y689490D01*
X75657Y690343D01*
X76257Y692188D01*
X77137Y693915D01*
X78277Y695484D01*
X79648Y696855D01*
X81217Y697995D01*
X82944Y698875D01*
X84789Y699475D01*
X86704Y699778D01*
X95421Y699778D01*
X95421Y689490D01*
X75522Y689490D01*
G37*
%LPD*%
%LPC*%
G36*
X75476Y269769D02*
X75476Y269769D01*
X75611Y270623D01*
X76210Y272467D01*
X77090Y274195D01*
X78230Y275764D01*
X79601Y277135D01*
X81170Y278275D01*
X82898Y279155D01*
X84742Y279755D01*
X86658Y280058D01*
X95375Y280058D01*
X95375Y269769D01*
X75476Y269769D01*
G37*
%LPD*%
%LPC*%
G36*
X75522Y479612D02*
X75522Y479612D01*
X75657Y480466D01*
X76256Y482310D01*
X77136Y484038D01*
X78276Y485607D01*
X79647Y486978D01*
X81216Y488118D01*
X82944Y488998D01*
X84788Y489597D01*
X86704Y489901D01*
X95421Y489901D01*
X95421Y479612D01*
X75522Y479612D01*
G37*
%LPD*%
%LPC*%
G36*
X75815Y899335D02*
X75815Y899335D01*
X75950Y900189D01*
X76549Y902033D01*
X77430Y903761D01*
X78570Y905330D01*
X79941Y906701D01*
X81510Y907841D01*
X83237Y908721D01*
X85082Y909320D01*
X86997Y909624D01*
X95714Y909624D01*
X95714Y899335D01*
X75815Y899335D01*
G37*
%LPD*%
%LPC*%
G36*
X709777Y472544D02*
X709777Y472544D01*
X709777Y481261D01*
X710081Y483176D01*
X710680Y485021D01*
X711560Y486748D01*
X712700Y488317D01*
X714071Y489688D01*
X715640Y490828D01*
X717368Y491709D01*
X719212Y492308D01*
X720066Y492443D01*
X720066Y472544D01*
X709777Y472544D01*
G37*
%LPD*%
%LPC*%
G36*
X719212Y448717D02*
X719212Y448717D01*
X717368Y449316D01*
X715640Y450197D01*
X714071Y451336D01*
X712700Y452708D01*
X711560Y454276D01*
X710680Y456004D01*
X710081Y457849D01*
X709777Y459764D01*
X709777Y468481D01*
X720066Y468481D01*
X720066Y448582D01*
X719212Y448717D01*
G37*
%LPD*%
%LPC*%
G36*
X547917Y498028D02*
X547917Y498028D01*
X545256Y499130D01*
X543219Y501166D01*
X542117Y503827D01*
X542117Y506707D01*
X543219Y509368D01*
X545256Y511405D01*
X547917Y512507D01*
X550797Y512507D01*
X553458Y511405D01*
X555494Y509368D01*
X556597Y506707D01*
X556597Y503827D01*
X555494Y501166D01*
X553458Y499130D01*
X550797Y498028D01*
X547917Y498028D01*
G37*
%LPD*%
%LPC*%
G36*
X20426Y166034D02*
X20426Y166034D01*
X17765Y167136D01*
X15729Y169172D01*
X14627Y171833D01*
X14627Y174713D01*
X15729Y177374D01*
X17765Y179411D01*
X20426Y180513D01*
X23306Y180513D01*
X25967Y179411D01*
X28004Y177374D01*
X29106Y174713D01*
X29106Y171833D01*
X28004Y169172D01*
X25967Y167136D01*
X23306Y166034D01*
X20426Y166034D01*
G37*
%LPD*%
%LPC*%
G36*
X47067Y166549D02*
X47067Y166549D01*
X44406Y167651D01*
X42370Y169687D01*
X41267Y172348D01*
X41267Y175228D01*
X42370Y177889D01*
X44406Y179926D01*
X47067Y181028D01*
X49947Y181028D01*
X52608Y179926D01*
X54645Y177889D01*
X55747Y175228D01*
X55747Y172348D01*
X54645Y169687D01*
X52608Y167651D01*
X49947Y166549D01*
X47067Y166549D01*
G37*
%LPD*%
%LPC*%
G36*
X154868Y821734D02*
X154868Y821734D01*
X152207Y822836D01*
X150171Y824872D01*
X149068Y827533D01*
X149068Y830413D01*
X150171Y833074D01*
X152207Y835111D01*
X154868Y836213D01*
X157748Y836213D01*
X160409Y835111D01*
X162446Y833074D01*
X163548Y830413D01*
X163548Y827533D01*
X162446Y824872D01*
X160409Y822836D01*
X157748Y821734D01*
X154868Y821734D01*
G37*
%LPD*%
%LPC*%
G36*
X131075Y545611D02*
X131075Y545611D01*
X128414Y546713D01*
X126377Y548749D01*
X125275Y551410D01*
X125275Y554290D01*
X126377Y556951D01*
X128414Y558988D01*
X131075Y560090D01*
X133955Y560090D01*
X136616Y558988D01*
X138652Y556951D01*
X139754Y554290D01*
X139754Y551410D01*
X138652Y548749D01*
X136616Y546713D01*
X133955Y545611D01*
X131075Y545611D01*
G37*
%LPD*%
%LPC*%
G36*
X131075Y755488D02*
X131075Y755488D01*
X128414Y756590D01*
X126378Y758627D01*
X125275Y761288D01*
X125275Y764168D01*
X126378Y766829D01*
X128414Y768865D01*
X131075Y769967D01*
X133955Y769967D01*
X136616Y768865D01*
X138653Y766829D01*
X139755Y764168D01*
X139755Y761288D01*
X138653Y758627D01*
X136616Y756590D01*
X133955Y755488D01*
X131075Y755488D01*
G37*
%LPD*%
%LPC*%
G36*
X234075Y729888D02*
X234075Y729888D01*
X231414Y730990D01*
X229378Y733027D01*
X228275Y735688D01*
X228275Y738568D01*
X229378Y741229D01*
X231414Y743265D01*
X234075Y744367D01*
X236955Y744367D01*
X239616Y743265D01*
X241653Y741229D01*
X242755Y738568D01*
X242755Y735688D01*
X241653Y733027D01*
X239616Y730990D01*
X236955Y729888D01*
X234075Y729888D01*
G37*
%LPD*%
%LPC*%
G36*
X184075Y729888D02*
X184075Y729888D01*
X181414Y730990D01*
X179378Y733027D01*
X178275Y735688D01*
X178275Y738568D01*
X179378Y741229D01*
X181414Y743265D01*
X184075Y744367D01*
X186955Y744367D01*
X189616Y743265D01*
X191653Y741229D01*
X192755Y738568D01*
X192755Y735688D01*
X191653Y733027D01*
X189616Y730990D01*
X186955Y729888D01*
X184075Y729888D01*
G37*
%LPD*%
%LPC*%
G36*
X184075Y520011D02*
X184075Y520011D01*
X181414Y521113D01*
X179377Y523149D01*
X178275Y525810D01*
X178275Y528690D01*
X179377Y531351D01*
X181414Y533388D01*
X184075Y534490D01*
X186955Y534490D01*
X189616Y533388D01*
X191652Y531351D01*
X192754Y528690D01*
X192754Y525810D01*
X191652Y523149D01*
X189616Y521113D01*
X186955Y520011D01*
X184075Y520011D01*
G37*
%LPD*%
%LPC*%
G36*
X234075Y520011D02*
X234075Y520011D01*
X231414Y521113D01*
X229377Y523149D01*
X228275Y525810D01*
X228275Y528690D01*
X229377Y531351D01*
X231414Y533388D01*
X234075Y534490D01*
X236955Y534490D01*
X239616Y533388D01*
X241652Y531351D01*
X242754Y528690D01*
X242754Y525810D01*
X241652Y523149D01*
X239616Y521113D01*
X236955Y520011D01*
X234075Y520011D01*
G37*
%LPD*%
%LPC*%
G36*
X330075Y710688D02*
X330075Y710688D01*
X327414Y711790D01*
X325378Y713827D01*
X324275Y716488D01*
X324275Y719368D01*
X325378Y722029D01*
X327414Y724065D01*
X330075Y725167D01*
X332955Y725167D01*
X335616Y724065D01*
X337653Y722029D01*
X338755Y719368D01*
X338755Y716488D01*
X337653Y713827D01*
X335616Y711790D01*
X332955Y710688D01*
X330075Y710688D01*
G37*
%LPD*%
%LPC*%
G36*
X751589Y510693D02*
X751589Y510693D01*
X748928Y511795D01*
X746892Y513832D01*
X745790Y516493D01*
X745790Y519373D01*
X746892Y522034D01*
X748928Y524070D01*
X751589Y525172D01*
X754469Y525172D01*
X757130Y524070D01*
X759167Y522034D01*
X760269Y519373D01*
X760269Y516493D01*
X759167Y513832D01*
X757130Y511795D01*
X754469Y510693D01*
X751589Y510693D01*
G37*
%LPD*%
%LPC*%
G36*
X380075Y500811D02*
X380075Y500811D01*
X377414Y501913D01*
X375377Y503949D01*
X374275Y506610D01*
X374275Y509490D01*
X375377Y512151D01*
X377414Y514188D01*
X380075Y515290D01*
X382955Y515290D01*
X385616Y514188D01*
X387652Y512151D01*
X388754Y509490D01*
X388754Y506610D01*
X387652Y503949D01*
X385616Y501913D01*
X382955Y500811D01*
X380075Y500811D01*
G37*
%LPD*%
%LPC*%
G36*
X330075Y500811D02*
X330075Y500811D01*
X327414Y501913D01*
X325377Y503949D01*
X324275Y506610D01*
X324275Y509490D01*
X325377Y512151D01*
X327414Y514188D01*
X330075Y515290D01*
X332955Y515290D01*
X335616Y514188D01*
X337652Y512151D01*
X338754Y509490D01*
X338754Y506610D01*
X337652Y503949D01*
X335616Y501913D01*
X332955Y500811D01*
X330075Y500811D01*
G37*
%LPD*%
%LPC*%
G36*
X597917Y498028D02*
X597917Y498028D01*
X595256Y499130D01*
X593219Y501166D01*
X592117Y503827D01*
X592117Y506707D01*
X593219Y509368D01*
X595256Y511405D01*
X597917Y512507D01*
X600797Y512507D01*
X603458Y511405D01*
X605494Y509368D01*
X606597Y506707D01*
X606597Y503827D01*
X605494Y501166D01*
X603458Y499130D01*
X600797Y498028D01*
X597917Y498028D01*
G37*
%LPD*%
%LPC*%
G36*
X380075Y710688D02*
X380075Y710688D01*
X377414Y711790D01*
X375378Y713827D01*
X374275Y716488D01*
X374275Y719368D01*
X375378Y722029D01*
X377414Y724065D01*
X380075Y725167D01*
X382955Y725167D01*
X385616Y724065D01*
X387653Y722029D01*
X388755Y719368D01*
X388755Y716488D01*
X387653Y713827D01*
X385616Y711790D01*
X382955Y710688D01*
X380075Y710688D01*
G37*
%LPD*%
%LPC*%
G36*
X232275Y488011D02*
X232275Y488011D01*
X229614Y489113D01*
X227577Y491149D01*
X226475Y493810D01*
X226475Y496690D01*
X227577Y499351D01*
X229614Y501388D01*
X232275Y502490D01*
X235155Y502490D01*
X237816Y501388D01*
X239852Y499351D01*
X240954Y496690D01*
X240954Y493810D01*
X239852Y491149D01*
X237816Y489113D01*
X235155Y488011D01*
X232275Y488011D01*
G37*
%LPD*%
%LPC*%
G36*
X182275Y488011D02*
X182275Y488011D01*
X179614Y489113D01*
X177577Y491149D01*
X176475Y493810D01*
X176475Y496690D01*
X177577Y499351D01*
X179614Y501388D01*
X182275Y502490D01*
X185155Y502490D01*
X187816Y501388D01*
X189852Y499351D01*
X190954Y496690D01*
X190954Y493810D01*
X189852Y491149D01*
X187816Y489113D01*
X185155Y488011D01*
X182275Y488011D01*
G37*
%LPD*%
%LPC*%
G36*
X750216Y710119D02*
X750216Y710119D01*
X747555Y711221D01*
X745518Y713258D01*
X744416Y715919D01*
X744416Y718799D01*
X745518Y721460D01*
X747555Y723496D01*
X750216Y724599D01*
X753096Y724599D01*
X755757Y723496D01*
X757793Y721460D01*
X758895Y718799D01*
X758895Y715919D01*
X757793Y713258D01*
X755757Y711221D01*
X753096Y710119D01*
X750216Y710119D01*
G37*
%LPD*%
%LPC*%
G36*
X511711Y240155D02*
X511711Y240155D01*
X509050Y241257D01*
X507014Y243293D01*
X505912Y245954D01*
X505912Y248834D01*
X507014Y251495D01*
X509050Y253532D01*
X511711Y254634D01*
X514591Y254634D01*
X517252Y253532D01*
X519289Y251495D01*
X520391Y248834D01*
X520391Y245954D01*
X519289Y243293D01*
X517252Y241257D01*
X514591Y240155D01*
X511711Y240155D01*
G37*
%LPD*%
%LPC*%
G36*
X751589Y560693D02*
X751589Y560693D01*
X748928Y561795D01*
X746892Y563832D01*
X745790Y566493D01*
X745790Y569373D01*
X746892Y572034D01*
X748928Y574070D01*
X751589Y575172D01*
X754469Y575172D01*
X757130Y574070D01*
X759167Y572034D01*
X760269Y569373D01*
X760269Y566493D01*
X759167Y563832D01*
X757130Y561795D01*
X754469Y560693D01*
X751589Y560693D01*
G37*
%LPD*%
%LPC*%
G36*
X597917Y707905D02*
X597917Y707905D01*
X595256Y709007D01*
X593220Y711044D01*
X592118Y713705D01*
X592118Y716585D01*
X593220Y719246D01*
X595256Y721282D01*
X597917Y722384D01*
X600797Y722384D01*
X603458Y721282D01*
X605495Y719246D01*
X606597Y716585D01*
X606597Y713705D01*
X605495Y711044D01*
X603458Y709007D01*
X600797Y707905D01*
X597917Y707905D01*
G37*
%LPD*%
%LPC*%
G36*
X382875Y472111D02*
X382875Y472111D01*
X380214Y473213D01*
X378177Y475249D01*
X377075Y477910D01*
X377075Y480790D01*
X378177Y483451D01*
X380214Y485488D01*
X382875Y486590D01*
X385755Y486590D01*
X388416Y485488D01*
X390452Y483451D01*
X391554Y480790D01*
X391554Y477910D01*
X390452Y475249D01*
X388416Y473213D01*
X385755Y472111D01*
X382875Y472111D01*
G37*
%LPD*%
%LPC*%
G36*
X332875Y472111D02*
X332875Y472111D01*
X330214Y473213D01*
X328177Y475249D01*
X327075Y477910D01*
X327075Y480790D01*
X328177Y483451D01*
X330214Y485488D01*
X332875Y486590D01*
X335755Y486590D01*
X338416Y485488D01*
X340452Y483451D01*
X341554Y480790D01*
X341554Y477910D01*
X340452Y475249D01*
X338416Y473213D01*
X335755Y472111D01*
X332875Y472111D01*
G37*
%LPD*%
%LPC*%
G36*
X303568Y817734D02*
X303568Y817734D01*
X300907Y818836D01*
X298871Y820872D01*
X297768Y823533D01*
X297768Y826413D01*
X298871Y829074D01*
X300907Y831111D01*
X303568Y832213D01*
X306448Y832213D01*
X309109Y831111D01*
X311146Y829074D01*
X312248Y826413D01*
X312248Y823533D01*
X311146Y820872D01*
X309109Y818836D01*
X306448Y817734D01*
X303568Y817734D01*
G37*
%LPD*%
%LPC*%
G36*
X698289Y590822D02*
X698289Y590822D01*
X695628Y591924D01*
X693592Y593961D01*
X692490Y596622D01*
X692490Y599502D01*
X693592Y602163D01*
X695628Y604199D01*
X698289Y605301D01*
X701169Y605301D01*
X703830Y604199D01*
X705867Y602163D01*
X706969Y599502D01*
X706969Y596622D01*
X705867Y593961D01*
X703830Y591924D01*
X701169Y590822D01*
X698289Y590822D01*
G37*
%LPD*%
%LPC*%
G36*
X748289Y590822D02*
X748289Y590822D01*
X745628Y591924D01*
X743592Y593961D01*
X742490Y596622D01*
X742490Y599502D01*
X743592Y602163D01*
X745628Y604199D01*
X748289Y605301D01*
X751169Y605301D01*
X753830Y604199D01*
X755867Y602163D01*
X756969Y599502D01*
X756969Y596622D01*
X755867Y593961D01*
X753830Y591924D01*
X751169Y590822D01*
X748289Y590822D01*
G37*
%LPD*%
%LPC*%
G36*
X700216Y710119D02*
X700216Y710119D01*
X697555Y711221D01*
X695518Y713258D01*
X694416Y715919D01*
X694416Y718799D01*
X695518Y721460D01*
X697555Y723496D01*
X700216Y724599D01*
X703096Y724599D01*
X705757Y723496D01*
X707793Y721460D01*
X708895Y718799D01*
X708895Y715919D01*
X707793Y713258D01*
X705757Y711221D01*
X703096Y710119D01*
X700216Y710119D01*
G37*
%LPD*%
%LPC*%
G36*
X182568Y907734D02*
X182568Y907734D01*
X179907Y908836D01*
X177871Y910872D01*
X176768Y913533D01*
X176768Y916413D01*
X177871Y919074D01*
X179907Y921111D01*
X182568Y922213D01*
X185448Y922213D01*
X188109Y921111D01*
X190146Y919074D01*
X191248Y916413D01*
X191248Y913533D01*
X190146Y910872D01*
X188109Y908836D01*
X185448Y907734D01*
X182568Y907734D01*
G37*
%LPD*%
%LPC*%
G36*
X232568Y907734D02*
X232568Y907734D01*
X229907Y908836D01*
X227871Y910872D01*
X226768Y913533D01*
X226768Y916413D01*
X227871Y919074D01*
X229907Y921111D01*
X232568Y922213D01*
X235448Y922213D01*
X238109Y921111D01*
X240146Y919074D01*
X241248Y916413D01*
X241248Y913533D01*
X240146Y910872D01*
X238109Y908836D01*
X235448Y907734D01*
X232568Y907734D01*
G37*
%LPD*%
%LPC*%
G36*
X524768Y459139D02*
X524768Y459139D01*
X522107Y460242D01*
X520070Y462278D01*
X518968Y464939D01*
X518968Y467819D01*
X520070Y470480D01*
X522107Y472517D01*
X524768Y473619D01*
X527648Y473619D01*
X530309Y472517D01*
X532345Y470480D01*
X533447Y467819D01*
X533447Y464939D01*
X532345Y462278D01*
X530309Y460242D01*
X527648Y459139D01*
X524768Y459139D01*
G37*
%LPD*%
%LPC*%
G36*
X333168Y891834D02*
X333168Y891834D01*
X330507Y892936D01*
X328471Y894972D01*
X327368Y897633D01*
X327368Y900513D01*
X328471Y903174D01*
X330507Y905211D01*
X333168Y906313D01*
X336048Y906313D01*
X338709Y905211D01*
X340746Y903174D01*
X341848Y900513D01*
X341848Y897633D01*
X340746Y894972D01*
X338709Y892936D01*
X336048Y891834D01*
X333168Y891834D01*
G37*
%LPD*%
%LPC*%
G36*
X154575Y452011D02*
X154575Y452011D01*
X151914Y453113D01*
X149877Y455149D01*
X148775Y457810D01*
X148775Y460690D01*
X149877Y463351D01*
X151914Y465388D01*
X154575Y466490D01*
X157455Y466490D01*
X160116Y465388D01*
X162152Y463351D01*
X163254Y460690D01*
X163254Y457810D01*
X162152Y455149D01*
X160116Y453113D01*
X157455Y452011D01*
X154575Y452011D01*
G37*
%LPD*%
%LPC*%
G36*
X598210Y917751D02*
X598210Y917751D01*
X595549Y918853D01*
X593513Y920889D01*
X592411Y923550D01*
X592411Y926430D01*
X593513Y929091D01*
X595549Y931128D01*
X598210Y932230D01*
X601090Y932230D01*
X603751Y931128D01*
X605788Y929091D01*
X606890Y926430D01*
X606890Y923550D01*
X605788Y920889D01*
X603751Y918853D01*
X601090Y917751D01*
X598210Y917751D01*
G37*
%LPD*%
%LPC*%
G36*
X303275Y448011D02*
X303275Y448011D01*
X300614Y449113D01*
X298577Y451149D01*
X297475Y453810D01*
X297475Y456690D01*
X298577Y459351D01*
X300614Y461388D01*
X303275Y462490D01*
X306155Y462490D01*
X308816Y461388D01*
X310852Y459351D01*
X311954Y456690D01*
X311954Y453810D01*
X310852Y451149D01*
X308816Y449113D01*
X306155Y448011D01*
X303275Y448011D01*
G37*
%LPD*%
%LPC*%
G36*
X383168Y891834D02*
X383168Y891834D01*
X380507Y892936D01*
X378471Y894972D01*
X377368Y897633D01*
X377368Y900513D01*
X378471Y903174D01*
X380507Y905211D01*
X383168Y906313D01*
X386048Y906313D01*
X388709Y905211D01*
X390746Y903174D01*
X391848Y900513D01*
X391848Y897633D01*
X390746Y894972D01*
X388709Y892936D01*
X386048Y891834D01*
X383168Y891834D01*
G37*
%LPD*%
%LPC*%
G36*
X548210Y917751D02*
X548210Y917751D01*
X545549Y918853D01*
X543513Y920889D01*
X542411Y923550D01*
X542411Y926430D01*
X543513Y929091D01*
X545549Y931128D01*
X548210Y932230D01*
X551090Y932230D01*
X553751Y931128D01*
X555788Y929091D01*
X556890Y926430D01*
X556890Y923550D01*
X555788Y920889D01*
X553751Y918853D01*
X551090Y917751D01*
X548210Y917751D01*
G37*
%LPD*%
%LPC*%
G36*
X330368Y920534D02*
X330368Y920534D01*
X327707Y921636D01*
X325671Y923672D01*
X324568Y926333D01*
X324568Y929213D01*
X325671Y931874D01*
X327707Y933911D01*
X330368Y935013D01*
X333248Y935013D01*
X335909Y933911D01*
X337946Y931874D01*
X339048Y929213D01*
X339048Y926333D01*
X337946Y923672D01*
X335909Y921636D01*
X333248Y920534D01*
X330368Y920534D01*
G37*
%LPD*%
%LPC*%
G36*
X380368Y920534D02*
X380368Y920534D01*
X377707Y921636D01*
X375671Y923672D01*
X374568Y926333D01*
X374568Y929213D01*
X375671Y931874D01*
X377707Y933911D01*
X380368Y935013D01*
X383248Y935013D01*
X385909Y933911D01*
X387946Y931874D01*
X389048Y929213D01*
X389048Y926333D01*
X387946Y923672D01*
X385909Y921636D01*
X383248Y920534D01*
X380368Y920534D01*
G37*
%LPD*%
%LPC*%
G36*
X303275Y607888D02*
X303275Y607888D01*
X300614Y608990D01*
X298578Y611027D01*
X297475Y613688D01*
X297475Y616568D01*
X298578Y619229D01*
X300614Y621265D01*
X303275Y622367D01*
X306155Y622367D01*
X308816Y621265D01*
X310853Y619229D01*
X311955Y616568D01*
X311955Y613688D01*
X310853Y611027D01*
X308816Y608990D01*
X306155Y607888D01*
X303275Y607888D01*
G37*
%LPD*%
%LPC*%
G36*
X154575Y611888D02*
X154575Y611888D01*
X151914Y612990D01*
X149878Y615027D01*
X148775Y617688D01*
X148775Y620568D01*
X149878Y623229D01*
X151914Y625265D01*
X154575Y626367D01*
X157455Y626367D01*
X160116Y625265D01*
X162153Y623229D01*
X163255Y620568D01*
X163255Y617688D01*
X162153Y615027D01*
X160116Y612990D01*
X157455Y611888D01*
X154575Y611888D01*
G37*
%LPD*%
%LPC*%
G36*
X750697Y630171D02*
X750697Y630171D01*
X748036Y631273D01*
X746000Y633310D01*
X744897Y635971D01*
X744897Y638851D01*
X746000Y641512D01*
X748036Y643549D01*
X750697Y644651D01*
X753577Y644651D01*
X756238Y643549D01*
X758275Y641512D01*
X759377Y638851D01*
X759377Y635971D01*
X758275Y633310D01*
X756238Y631273D01*
X753577Y630171D01*
X750697Y630171D01*
G37*
%LPD*%
%LPC*%
G36*
X184368Y939734D02*
X184368Y939734D01*
X181707Y940836D01*
X179671Y942872D01*
X178568Y945533D01*
X178568Y948413D01*
X179671Y951074D01*
X181707Y953111D01*
X184368Y954213D01*
X187248Y954213D01*
X189909Y953111D01*
X191946Y951074D01*
X193048Y948413D01*
X193048Y945533D01*
X191946Y942872D01*
X189909Y940836D01*
X187248Y939734D01*
X184368Y939734D01*
G37*
%LPD*%
%LPC*%
G36*
X700697Y630171D02*
X700697Y630171D01*
X698036Y631273D01*
X696000Y633310D01*
X694897Y635971D01*
X694897Y638851D01*
X696000Y641512D01*
X698036Y643549D01*
X700697Y644651D01*
X703577Y644651D01*
X706238Y643549D01*
X708275Y641512D01*
X709377Y638851D01*
X709377Y635971D01*
X708275Y633310D01*
X706238Y631273D01*
X703577Y630171D01*
X700697Y630171D01*
G37*
%LPD*%
%LPC*%
G36*
X741001Y879018D02*
X741001Y879018D01*
X738340Y880120D01*
X736303Y882156D01*
X735201Y884817D01*
X735201Y887698D01*
X736303Y890359D01*
X738340Y892395D01*
X741001Y893497D01*
X743881Y893497D01*
X746542Y892395D01*
X748578Y890359D01*
X749681Y887698D01*
X749681Y884817D01*
X748578Y882156D01*
X746542Y880120D01*
X743881Y879018D01*
X741001Y879018D01*
G37*
%LPD*%
%LPC*%
G36*
X764607Y411064D02*
X764607Y411064D01*
X761946Y412166D01*
X759909Y414203D01*
X758807Y416864D01*
X758807Y419744D01*
X759909Y422405D01*
X761946Y424441D01*
X764607Y425544D01*
X767487Y425544D01*
X770148Y424441D01*
X772185Y422405D01*
X773287Y419744D01*
X773287Y416864D01*
X772185Y414203D01*
X770148Y412166D01*
X767487Y411064D01*
X764607Y411064D01*
G37*
%LPD*%
%LPC*%
G36*
X814607Y411064D02*
X814607Y411064D01*
X811946Y412166D01*
X809909Y414203D01*
X808807Y416864D01*
X808807Y419744D01*
X809909Y422405D01*
X811946Y424441D01*
X814607Y425544D01*
X817487Y425544D01*
X820148Y424441D01*
X822185Y422405D01*
X823287Y419744D01*
X823287Y416864D01*
X822185Y414203D01*
X820148Y412166D01*
X817487Y411064D01*
X814607Y411064D01*
G37*
%LPD*%
%LPC*%
G36*
X154575Y402011D02*
X154575Y402011D01*
X151914Y403113D01*
X149877Y405149D01*
X148775Y407810D01*
X148775Y410690D01*
X149877Y413351D01*
X151914Y415388D01*
X154575Y416490D01*
X157455Y416490D01*
X160116Y415388D01*
X162152Y413351D01*
X163254Y410690D01*
X163254Y407810D01*
X162152Y405149D01*
X160116Y403113D01*
X157455Y402011D01*
X154575Y402011D01*
G37*
%LPD*%
%LPC*%
G36*
X303275Y398011D02*
X303275Y398011D01*
X300614Y399113D01*
X298577Y401149D01*
X297475Y403810D01*
X297475Y406690D01*
X298577Y409351D01*
X300614Y411388D01*
X303275Y412490D01*
X306155Y412490D01*
X308816Y411388D01*
X310852Y409351D01*
X311954Y406690D01*
X311954Y403810D01*
X310852Y401149D01*
X308816Y399113D01*
X306155Y398011D01*
X303275Y398011D01*
G37*
%LPD*%
%LPC*%
G36*
X234368Y939734D02*
X234368Y939734D01*
X231707Y940836D01*
X229671Y942872D01*
X228568Y945533D01*
X228568Y948413D01*
X229671Y951074D01*
X231707Y953111D01*
X234368Y954213D01*
X237248Y954213D01*
X239909Y953111D01*
X241946Y951074D01*
X243048Y948413D01*
X243048Y945533D01*
X241946Y942872D01*
X239909Y940836D01*
X237248Y939734D01*
X234368Y939734D01*
G37*
%LPD*%
%LPC*%
G36*
X691001Y879018D02*
X691001Y879018D01*
X688340Y880120D01*
X686303Y882156D01*
X685201Y884817D01*
X685201Y887698D01*
X686303Y890359D01*
X688340Y892395D01*
X691001Y893497D01*
X693881Y893497D01*
X696542Y892395D01*
X698578Y890359D01*
X699681Y887698D01*
X699681Y884817D01*
X698578Y882156D01*
X696542Y880120D01*
X693881Y879018D01*
X691001Y879018D01*
G37*
%LPD*%
%LPC*%
G36*
X20426Y216034D02*
X20426Y216034D01*
X17765Y217136D01*
X15729Y219172D01*
X14627Y221833D01*
X14627Y224713D01*
X15729Y227374D01*
X17765Y229411D01*
X20426Y230513D01*
X23306Y230513D01*
X25967Y229411D01*
X28004Y227374D01*
X29106Y224713D01*
X29106Y221833D01*
X28004Y219172D01*
X25967Y217136D01*
X23306Y216034D01*
X20426Y216034D01*
G37*
%LPD*%
%LPC*%
G36*
X47067Y216549D02*
X47067Y216549D01*
X44406Y217651D01*
X42370Y219687D01*
X41267Y222348D01*
X41267Y225228D01*
X42370Y227889D01*
X44406Y229926D01*
X47067Y231028D01*
X49947Y231028D01*
X52608Y229926D01*
X54645Y227889D01*
X55747Y225228D01*
X55747Y222348D01*
X54645Y219687D01*
X52608Y217651D01*
X49947Y216549D01*
X47067Y216549D01*
G37*
%LPD*%
%LPC*%
G36*
X143386Y229566D02*
X143386Y229566D01*
X140725Y230668D01*
X138689Y232705D01*
X137587Y235366D01*
X137587Y238246D01*
X138689Y240907D01*
X140725Y242944D01*
X143386Y244046D01*
X146266Y244046D01*
X148927Y242944D01*
X150964Y240907D01*
X152066Y238246D01*
X152066Y235366D01*
X150964Y232705D01*
X148927Y230668D01*
X146266Y229566D01*
X143386Y229566D01*
G37*
%LPD*%
%LPC*%
G36*
X303275Y657888D02*
X303275Y657888D01*
X300614Y658990D01*
X298578Y661027D01*
X297475Y663688D01*
X297475Y666568D01*
X298578Y669229D01*
X300614Y671265D01*
X303275Y672367D01*
X306155Y672367D01*
X308816Y671265D01*
X310853Y669229D01*
X311955Y666568D01*
X311955Y663688D01*
X310853Y661027D01*
X308816Y658990D01*
X306155Y657888D01*
X303275Y657888D01*
G37*
%LPD*%
%LPC*%
G36*
X525061Y878862D02*
X525061Y878862D01*
X522400Y879965D01*
X520363Y882001D01*
X519261Y884662D01*
X519261Y887542D01*
X520363Y890203D01*
X522400Y892240D01*
X525061Y893342D01*
X527941Y893342D01*
X530602Y892240D01*
X532639Y890203D01*
X533741Y887542D01*
X533741Y884662D01*
X532639Y882001D01*
X530602Y879965D01*
X527941Y878862D01*
X525061Y878862D01*
G37*
%LPD*%
%LPC*%
G36*
X131368Y965334D02*
X131368Y965334D01*
X128707Y966436D01*
X126671Y968472D01*
X125568Y971133D01*
X125568Y974013D01*
X126671Y976674D01*
X128707Y978711D01*
X131368Y979813D01*
X134248Y979813D01*
X136909Y978711D01*
X138946Y976674D01*
X140048Y974013D01*
X140048Y971133D01*
X138946Y968472D01*
X136909Y966436D01*
X134248Y965334D01*
X131368Y965334D01*
G37*
%LPD*%
%LPC*%
G36*
X814915Y385044D02*
X814915Y385044D01*
X812254Y386146D01*
X810218Y388183D01*
X809115Y390844D01*
X809115Y393724D01*
X810218Y396385D01*
X812254Y398421D01*
X814915Y399523D01*
X817795Y399523D01*
X820456Y398421D01*
X822493Y396385D01*
X823595Y393724D01*
X823595Y390844D01*
X822493Y388183D01*
X820456Y386146D01*
X817795Y385044D01*
X814915Y385044D01*
G37*
%LPD*%
%LPC*%
G36*
X764915Y385044D02*
X764915Y385044D01*
X762254Y386146D01*
X760218Y388183D01*
X759115Y390844D01*
X759115Y393724D01*
X760218Y396385D01*
X762254Y398421D01*
X764915Y399523D01*
X767795Y399523D01*
X770456Y398421D01*
X772493Y396385D01*
X773595Y393724D01*
X773595Y390844D01*
X772493Y388183D01*
X770456Y386146D01*
X767795Y385044D01*
X764915Y385044D01*
G37*
%LPD*%
%LPC*%
G36*
X193386Y229566D02*
X193386Y229566D01*
X190725Y230668D01*
X188689Y232705D01*
X187587Y235366D01*
X187587Y238246D01*
X188689Y240907D01*
X190725Y242944D01*
X193386Y244046D01*
X196266Y244046D01*
X198927Y242944D01*
X200964Y240907D01*
X202066Y238246D01*
X202066Y235366D01*
X200964Y232705D01*
X198927Y230668D01*
X196266Y229566D01*
X193386Y229566D01*
G37*
%LPD*%
%LPC*%
G36*
X262865Y230458D02*
X262865Y230458D01*
X260204Y231561D01*
X258167Y233597D01*
X257065Y236258D01*
X257065Y239138D01*
X258167Y241799D01*
X260204Y243836D01*
X262865Y244938D01*
X265745Y244938D01*
X268406Y243836D01*
X270442Y241799D01*
X271545Y239138D01*
X271545Y236258D01*
X270442Y233597D01*
X268406Y231561D01*
X265745Y230458D01*
X262865Y230458D01*
G37*
%LPD*%
%LPC*%
G36*
X154575Y661888D02*
X154575Y661888D01*
X151914Y662990D01*
X149878Y665027D01*
X148775Y667688D01*
X148775Y670568D01*
X149878Y673229D01*
X151914Y675265D01*
X154575Y676367D01*
X157455Y676367D01*
X160116Y675265D01*
X162153Y673229D01*
X163255Y670568D01*
X163255Y667688D01*
X162153Y665027D01*
X160116Y662990D01*
X157455Y661888D01*
X154575Y661888D01*
G37*
%LPD*%
%LPC*%
G36*
X524768Y669017D02*
X524768Y669017D01*
X522107Y670119D01*
X520071Y672155D01*
X518968Y674816D01*
X518968Y677696D01*
X520071Y680357D01*
X522107Y682394D01*
X524768Y683496D01*
X527648Y683496D01*
X530309Y682394D01*
X532346Y680357D01*
X533448Y677696D01*
X533448Y674816D01*
X532346Y672155D01*
X530309Y670119D01*
X527648Y669017D01*
X524768Y669017D01*
G37*
%LPD*%
%LPC*%
G36*
X749734Y670296D02*
X749734Y670296D01*
X747073Y671398D01*
X745037Y673434D01*
X743934Y676095D01*
X743934Y678975D01*
X745037Y681636D01*
X747073Y683673D01*
X749734Y684775D01*
X752614Y684775D01*
X755275Y683673D01*
X757312Y681636D01*
X758414Y678975D01*
X758414Y676095D01*
X757312Y673434D01*
X755275Y671398D01*
X752614Y670296D01*
X749734Y670296D01*
G37*
%LPD*%
%LPC*%
G36*
X699734Y670296D02*
X699734Y670296D01*
X697073Y671398D01*
X695037Y673434D01*
X693934Y676095D01*
X693934Y678975D01*
X695037Y681636D01*
X697073Y683673D01*
X699734Y684775D01*
X702614Y684775D01*
X705275Y683673D01*
X707312Y681636D01*
X708414Y678975D01*
X708414Y676095D01*
X707312Y673434D01*
X705275Y671398D01*
X702614Y670296D01*
X699734Y670296D01*
G37*
%LPD*%
%LPC*%
G36*
X154868Y871734D02*
X154868Y871734D01*
X152207Y872836D01*
X150171Y874872D01*
X149068Y877533D01*
X149068Y880413D01*
X150171Y883074D01*
X152207Y885111D01*
X154868Y886213D01*
X157748Y886213D01*
X160409Y885111D01*
X162446Y883074D01*
X163548Y880413D01*
X163548Y877533D01*
X162446Y874872D01*
X160409Y872836D01*
X157748Y871734D01*
X154868Y871734D01*
G37*
%LPD*%
%LPC*%
G36*
X303568Y867734D02*
X303568Y867734D01*
X300907Y868836D01*
X298871Y870872D01*
X297768Y873533D01*
X297768Y876413D01*
X298871Y879074D01*
X300907Y881111D01*
X303568Y882213D01*
X306448Y882213D01*
X309109Y881111D01*
X311146Y879074D01*
X312248Y876413D01*
X312248Y873533D01*
X311146Y870872D01*
X309109Y868836D01*
X306448Y867734D01*
X303568Y867734D01*
G37*
%LPD*%
%LPC*%
G36*
X511711Y290155D02*
X511711Y290155D01*
X509050Y291257D01*
X507014Y293293D01*
X505912Y295954D01*
X505912Y298834D01*
X507014Y301495D01*
X509050Y303532D01*
X511711Y304634D01*
X514591Y304634D01*
X517252Y303532D01*
X519289Y301495D01*
X520391Y298834D01*
X520391Y295954D01*
X519289Y293293D01*
X517252Y291257D01*
X514591Y290155D01*
X511711Y290155D01*
G37*
%LPD*%
%LPC*%
G36*
X223515Y282866D02*
X223515Y282866D01*
X220854Y283968D01*
X218818Y286005D01*
X217716Y288666D01*
X217716Y291546D01*
X218818Y294207D01*
X220854Y296244D01*
X223515Y297346D01*
X226396Y297346D01*
X229057Y296244D01*
X231093Y294207D01*
X232195Y291546D01*
X232195Y288666D01*
X231093Y286005D01*
X229057Y283968D01*
X226396Y282866D01*
X223515Y282866D01*
G37*
%LPD*%
%LPC*%
G36*
X302989Y281422D02*
X302989Y281422D01*
X300328Y282524D01*
X298292Y284560D01*
X297189Y287221D01*
X297189Y290101D01*
X298292Y292762D01*
X300328Y294799D01*
X302989Y295901D01*
X305869Y295901D01*
X308530Y294799D01*
X310567Y292762D01*
X311669Y290101D01*
X311669Y287221D01*
X310567Y284560D01*
X308530Y282524D01*
X305869Y281422D01*
X302989Y281422D01*
G37*
%LPD*%
%LPC*%
G36*
X342813Y280940D02*
X342813Y280940D01*
X340152Y282042D01*
X338115Y284079D01*
X337013Y286740D01*
X337013Y289620D01*
X338115Y292281D01*
X340152Y294317D01*
X342813Y295419D01*
X345693Y295419D01*
X348354Y294317D01*
X350390Y292281D01*
X351492Y289620D01*
X351492Y286740D01*
X350390Y284079D01*
X348354Y282042D01*
X345693Y280940D01*
X342813Y280940D01*
G37*
%LPD*%
%LPC*%
G36*
X262865Y280458D02*
X262865Y280458D01*
X260204Y281561D01*
X258167Y283597D01*
X257065Y286258D01*
X257065Y289138D01*
X258167Y291799D01*
X260204Y293836D01*
X262865Y294938D01*
X265745Y294938D01*
X268406Y293836D01*
X270442Y291799D01*
X271545Y289138D01*
X271545Y286258D01*
X270442Y283597D01*
X268406Y281561D01*
X265745Y280458D01*
X262865Y280458D01*
G37*
%LPD*%
%LPC*%
G36*
X382875Y681988D02*
X382875Y681988D01*
X380214Y683090D01*
X378178Y685127D01*
X377075Y687788D01*
X377075Y690668D01*
X378178Y693329D01*
X380214Y695365D01*
X382875Y696467D01*
X385755Y696467D01*
X388416Y695365D01*
X390453Y693329D01*
X391555Y690668D01*
X391555Y687788D01*
X390453Y685127D01*
X388416Y683090D01*
X385755Y681988D01*
X382875Y681988D01*
G37*
%LPD*%
%LPC*%
G36*
X342813Y230940D02*
X342813Y230940D01*
X340152Y232042D01*
X338115Y234079D01*
X337013Y236740D01*
X337013Y239620D01*
X338115Y242281D01*
X340152Y244317D01*
X342813Y245419D01*
X345693Y245419D01*
X348354Y244317D01*
X350390Y242281D01*
X351492Y239620D01*
X351492Y236740D01*
X350390Y234079D01*
X348354Y232042D01*
X345693Y230940D01*
X342813Y230940D01*
G37*
%LPD*%
%LPC*%
G36*
X302989Y231422D02*
X302989Y231422D01*
X300328Y232524D01*
X298292Y234560D01*
X297189Y237221D01*
X297189Y240101D01*
X298292Y242762D01*
X300328Y244799D01*
X302989Y245901D01*
X305869Y245901D01*
X308530Y244799D01*
X310567Y242762D01*
X311669Y240101D01*
X311669Y237221D01*
X310567Y234560D01*
X308530Y232524D01*
X305869Y231422D01*
X302989Y231422D01*
G37*
%LPD*%
%LPC*%
G36*
X223515Y232866D02*
X223515Y232866D01*
X220854Y233968D01*
X218818Y236005D01*
X217716Y238666D01*
X217716Y241546D01*
X218818Y244207D01*
X220854Y246244D01*
X223515Y247346D01*
X226396Y247346D01*
X229057Y246244D01*
X231093Y244207D01*
X232195Y241546D01*
X232195Y238666D01*
X231093Y236005D01*
X229057Y233968D01*
X226396Y232866D01*
X223515Y232866D01*
G37*
%LPD*%
%LPC*%
G36*
X332875Y681988D02*
X332875Y681988D01*
X330214Y683090D01*
X328178Y685127D01*
X327075Y687788D01*
X327075Y690668D01*
X328178Y693329D01*
X330214Y695365D01*
X332875Y696467D01*
X335755Y696467D01*
X338416Y695365D01*
X340453Y693329D01*
X341555Y690668D01*
X341555Y687788D01*
X340453Y685127D01*
X338416Y683090D01*
X335755Y681988D01*
X332875Y681988D01*
G37*
%LPD*%
%LPC*%
G36*
X182275Y697888D02*
X182275Y697888D01*
X179614Y698990D01*
X177578Y701027D01*
X176475Y703688D01*
X176475Y706568D01*
X177578Y709229D01*
X179614Y711265D01*
X182275Y712367D01*
X185155Y712367D01*
X187816Y711265D01*
X189853Y709229D01*
X190955Y706568D01*
X190955Y703688D01*
X189853Y701027D01*
X187816Y698990D01*
X185155Y697888D01*
X182275Y697888D01*
G37*
%LPD*%
%LPC*%
G36*
X232275Y697888D02*
X232275Y697888D01*
X229614Y698990D01*
X227578Y701027D01*
X226475Y703688D01*
X226475Y706568D01*
X227578Y709229D01*
X229614Y711265D01*
X232275Y712367D01*
X235155Y712367D01*
X237816Y711265D01*
X239853Y709229D01*
X240955Y706568D01*
X240955Y703688D01*
X239853Y701027D01*
X237816Y698990D01*
X235155Y697888D01*
X232275Y697888D01*
G37*
%LPD*%
%LPC*%
G36*
X547917Y707905D02*
X547917Y707905D01*
X545256Y709007D01*
X543220Y711044D01*
X542118Y713705D01*
X542118Y716585D01*
X543220Y719246D01*
X545256Y721282D01*
X547917Y722384D01*
X550797Y722384D01*
X553458Y721282D01*
X555495Y719246D01*
X556597Y716585D01*
X556597Y713705D01*
X555495Y711044D01*
X553458Y709007D01*
X550797Y707905D01*
X547917Y707905D01*
G37*
%LPD*%
%LPC*%
G36*
X785078Y668675D02*
X785078Y668675D01*
X785078Y676225D01*
X790421Y676225D01*
X791067Y676052D01*
X791647Y675717D01*
X792120Y675244D01*
X792454Y674665D01*
X792627Y674019D01*
X792627Y668675D01*
X785078Y668675D01*
G37*
%LPD*%
%LPC*%
G36*
X295569Y208820D02*
X295569Y208820D01*
X295569Y216369D01*
X300912Y216369D01*
X301559Y216196D01*
X302138Y215862D01*
X302611Y215389D01*
X302945Y214810D01*
X303119Y214163D01*
X303119Y208820D01*
X295569Y208820D01*
G37*
%LPD*%
%LPC*%
G36*
X283957Y208820D02*
X283957Y208820D01*
X283957Y214163D01*
X284130Y214810D01*
X284465Y215389D01*
X284938Y215862D01*
X285517Y216196D01*
X286163Y216369D01*
X291507Y216369D01*
X291507Y208820D01*
X283957Y208820D01*
G37*
%LPD*%
%LPC*%
G36*
X773466Y668675D02*
X773466Y668675D01*
X773466Y674019D01*
X773639Y674665D01*
X773974Y675244D01*
X774447Y675717D01*
X775026Y676052D01*
X775672Y676225D01*
X781015Y676225D01*
X781015Y668675D01*
X773466Y668675D01*
G37*
%LPD*%
%LPC*%
G36*
X295569Y197208D02*
X295569Y197208D01*
X295569Y204758D01*
X303119Y204758D01*
X303119Y199414D01*
X302945Y198768D01*
X302611Y198189D01*
X302138Y197716D01*
X301559Y197381D01*
X300912Y197208D01*
X295569Y197208D01*
G37*
%LPD*%
%LPC*%
G36*
X785078Y657063D02*
X785078Y657063D01*
X785078Y664613D01*
X792627Y664613D01*
X792627Y659270D01*
X792454Y658623D01*
X792120Y658044D01*
X791647Y657571D01*
X791067Y657237D01*
X790421Y657063D01*
X785078Y657063D01*
G37*
%LPD*%
%LPC*%
G36*
X775672Y657063D02*
X775672Y657063D01*
X775026Y657237D01*
X774447Y657571D01*
X773974Y658044D01*
X773639Y658623D01*
X773466Y659270D01*
X773466Y664613D01*
X781015Y664613D01*
X781015Y657063D01*
X775672Y657063D01*
G37*
%LPD*%
%LPC*%
G36*
X286163Y197208D02*
X286163Y197208D01*
X285517Y197381D01*
X284938Y197716D01*
X284465Y198189D01*
X284130Y198768D01*
X283957Y199414D01*
X283957Y204758D01*
X291507Y204758D01*
X291507Y197208D01*
X286163Y197208D01*
G37*
%LPD*%
%LPC*%
G36*
X538962Y194424D02*
X538962Y194424D01*
X538962Y201499D01*
X539673Y201358D01*
X541364Y200658D01*
X542886Y199641D01*
X544179Y198347D01*
X545196Y196825D01*
X545897Y195135D01*
X546038Y194424D01*
X538962Y194424D01*
G37*
%LPD*%
%LPC*%
G36*
X799410Y912068D02*
X799410Y912068D01*
X799410Y919144D01*
X800121Y919003D01*
X801812Y918303D01*
X803334Y917286D01*
X804627Y915992D01*
X805644Y914470D01*
X806345Y912779D01*
X806486Y912068D01*
X799410Y912068D01*
G37*
%LPD*%
%LPC*%
G36*
X712917Y541942D02*
X712917Y541942D01*
X712917Y549018D01*
X713628Y548877D01*
X715319Y548176D01*
X716840Y547160D01*
X718134Y545866D01*
X719151Y544344D01*
X719851Y542653D01*
X719993Y541942D01*
X712917Y541942D01*
G37*
%LPD*%
%LPC*%
G36*
X168836Y280917D02*
X168836Y280917D01*
X168836Y287993D01*
X169547Y287851D01*
X171238Y287151D01*
X172760Y286134D01*
X174053Y284840D01*
X175070Y283318D01*
X175771Y281628D01*
X175912Y280917D01*
X168836Y280917D01*
G37*
%LPD*%
%LPC*%
G36*
X527888Y194424D02*
X527888Y194424D01*
X528029Y195135D01*
X528730Y196825D01*
X529746Y198347D01*
X531040Y199641D01*
X532562Y200658D01*
X534253Y201358D01*
X534964Y201499D01*
X534964Y194424D01*
X527888Y194424D01*
G37*
%LPD*%
%LPC*%
G36*
X157762Y280917D02*
X157762Y280917D01*
X157903Y281628D01*
X158604Y283318D01*
X159620Y284840D01*
X160914Y286134D01*
X162436Y287151D01*
X164127Y287851D01*
X164838Y287993D01*
X164838Y280917D01*
X157762Y280917D01*
G37*
%LPD*%
%LPC*%
G36*
X168836Y276918D02*
X168836Y276918D01*
X175912Y276918D01*
X175771Y276208D01*
X175070Y274517D01*
X174053Y272995D01*
X172760Y271701D01*
X171238Y270684D01*
X169547Y269984D01*
X168836Y269843D01*
X168836Y276918D01*
G37*
%LPD*%
%LPC*%
G36*
X788336Y912068D02*
X788336Y912068D01*
X788477Y912779D01*
X789178Y914470D01*
X790194Y915992D01*
X791488Y917286D01*
X793010Y918303D01*
X794701Y919003D01*
X795412Y919144D01*
X795412Y912068D01*
X788336Y912068D01*
G37*
%LPD*%
%LPC*%
G36*
X712917Y537944D02*
X712917Y537944D01*
X719993Y537944D01*
X719851Y537233D01*
X719151Y535542D01*
X718134Y534021D01*
X716840Y532727D01*
X715319Y531710D01*
X713628Y531009D01*
X712917Y530868D01*
X712917Y537944D01*
G37*
%LPD*%
%LPC*%
G36*
X701843Y541942D02*
X701843Y541942D01*
X701984Y542653D01*
X702684Y544344D01*
X703701Y545866D01*
X704995Y547160D01*
X706517Y548176D01*
X708208Y548877D01*
X708918Y549018D01*
X708918Y541942D01*
X701843Y541942D01*
G37*
%LPD*%
%LPC*%
G36*
X799410Y908070D02*
X799410Y908070D01*
X806486Y908070D01*
X806345Y907359D01*
X805644Y905668D01*
X804627Y904147D01*
X803334Y902853D01*
X801812Y901836D01*
X800121Y901135D01*
X799410Y900994D01*
X799410Y908070D01*
G37*
%LPD*%
%LPC*%
G36*
X538962Y190425D02*
X538962Y190425D01*
X546038Y190425D01*
X545897Y189714D01*
X545196Y188024D01*
X544179Y186502D01*
X542886Y185208D01*
X541364Y184191D01*
X539673Y183491D01*
X538962Y183349D01*
X538962Y190425D01*
G37*
%LPD*%
%LPC*%
G36*
X164127Y269984D02*
X164127Y269984D01*
X162436Y270684D01*
X160914Y271701D01*
X159620Y272995D01*
X158604Y274517D01*
X157903Y276208D01*
X157762Y276918D01*
X164838Y276918D01*
X164838Y269843D01*
X164127Y269984D01*
G37*
%LPD*%
%LPC*%
G36*
X708208Y531009D02*
X708208Y531009D01*
X706517Y531710D01*
X704995Y532727D01*
X703701Y534021D01*
X702684Y535542D01*
X701984Y537233D01*
X701843Y537944D01*
X708918Y537944D01*
X708918Y530868D01*
X708208Y531009D01*
G37*
%LPD*%
%LPC*%
G36*
X794701Y901135D02*
X794701Y901135D01*
X793010Y901836D01*
X791488Y902853D01*
X790194Y904147D01*
X789178Y905668D01*
X788477Y907359D01*
X788336Y908070D01*
X795412Y908070D01*
X795412Y900994D01*
X794701Y901135D01*
G37*
%LPD*%
%LPC*%
G36*
X534253Y183491D02*
X534253Y183491D01*
X532562Y184191D01*
X531040Y185208D01*
X529746Y186502D01*
X528730Y188024D01*
X528029Y189714D01*
X527888Y190425D01*
X534964Y190425D01*
X534964Y183349D01*
X534253Y183491D01*
G37*
%LPD*%
%LPC*%
G36*
X84101Y554437D02*
X84101Y554437D01*
X84101Y560952D01*
X84923Y560789D01*
X86425Y560166D01*
X87778Y559263D01*
X88927Y558113D01*
X89831Y556761D01*
X90453Y555258D01*
X90617Y554437D01*
X84101Y554437D01*
G37*
%LPD*%
%LPC*%
G36*
X84102Y764314D02*
X84102Y764314D01*
X84102Y770829D01*
X84923Y770666D01*
X86426Y770044D01*
X87778Y769140D01*
X88928Y767990D01*
X89831Y766638D01*
X90454Y765136D01*
X90617Y764314D01*
X84102Y764314D01*
G37*
%LPD*%
%LPC*%
G36*
X84395Y974160D02*
X84395Y974160D01*
X84395Y980675D01*
X85216Y980512D01*
X86719Y979890D01*
X88071Y978986D01*
X89221Y977836D01*
X90124Y976484D01*
X90746Y974982D01*
X90910Y974160D01*
X84395Y974160D01*
G37*
%LPD*%
%LPC*%
G36*
X84395Y970987D02*
X84395Y970987D01*
X90910Y970987D01*
X90746Y970165D01*
X90124Y968663D01*
X89221Y967311D01*
X88071Y966161D01*
X86719Y965257D01*
X85216Y964635D01*
X84395Y964472D01*
X84395Y970987D01*
G37*
%LPD*%
%LPC*%
G36*
X84102Y761141D02*
X84102Y761141D01*
X90617Y761141D01*
X90454Y760319D01*
X89831Y758817D01*
X88928Y757465D01*
X87778Y756315D01*
X86426Y755412D01*
X84923Y754789D01*
X84102Y754626D01*
X84102Y761141D01*
G37*
%LPD*%
%LPC*%
G36*
X74413Y554437D02*
X74413Y554437D01*
X74576Y555258D01*
X75199Y556761D01*
X76102Y558113D01*
X77252Y559263D01*
X78604Y560166D01*
X80107Y560789D01*
X80928Y560952D01*
X80928Y554437D01*
X74413Y554437D01*
G37*
%LPD*%
%LPC*%
G36*
X74706Y974160D02*
X74706Y974160D01*
X74870Y974982D01*
X75492Y976484D01*
X76395Y977836D01*
X77545Y978986D01*
X78897Y979890D01*
X80400Y980512D01*
X81221Y980675D01*
X81221Y974160D01*
X74706Y974160D01*
G37*
%LPD*%
%LPC*%
G36*
X74413Y764314D02*
X74413Y764314D01*
X74577Y765136D01*
X75199Y766638D01*
X76103Y767990D01*
X77252Y769140D01*
X78605Y770044D01*
X80107Y770666D01*
X80928Y770829D01*
X80928Y764314D01*
X74413Y764314D01*
G37*
%LPD*%
%LPC*%
G36*
X84101Y551263D02*
X84101Y551263D01*
X90617Y551263D01*
X90453Y550442D01*
X89831Y548940D01*
X88927Y547587D01*
X87778Y546438D01*
X86425Y545534D01*
X84923Y544912D01*
X84101Y544748D01*
X84101Y551263D01*
G37*
%LPD*%
%LPC*%
G36*
X80400Y964635D02*
X80400Y964635D01*
X78897Y965257D01*
X77545Y966161D01*
X76395Y967311D01*
X75492Y968663D01*
X74870Y970165D01*
X74706Y970987D01*
X81221Y970987D01*
X81221Y964472D01*
X80400Y964635D01*
G37*
%LPD*%
%LPC*%
G36*
X80107Y754789D02*
X80107Y754789D01*
X78605Y755412D01*
X77252Y756315D01*
X76103Y757465D01*
X75199Y758817D01*
X74577Y760319D01*
X74413Y761141D01*
X80928Y761141D01*
X80928Y754626D01*
X80107Y754789D01*
G37*
%LPD*%
%LPC*%
G36*
X80107Y544912D02*
X80107Y544912D01*
X78604Y545534D01*
X77252Y546438D01*
X76102Y547587D01*
X75199Y548940D01*
X74576Y550442D01*
X74413Y551263D01*
X80928Y551263D01*
X80928Y544748D01*
X80107Y544912D01*
G37*
%LPD*%
%LPC*%
G36*
X783046Y666643D02*
X783046Y666643D01*
X783046Y666645D01*
X783047Y666645D01*
X783047Y666643D01*
X783046Y666643D01*
G37*
%LPD*%
%LPC*%
G36*
X293537Y206788D02*
X293537Y206788D01*
X293537Y206790D01*
X293539Y206790D01*
X293539Y206788D01*
X293537Y206788D01*
G37*
%LPD*%
D10*
X334608Y899073D03*
X384608Y899073D03*
X305008Y874973D03*
X305008Y824973D03*
X235808Y946973D03*
X185808Y946973D03*
X132808Y972573D03*
X82808Y972573D03*
X381808Y927773D03*
X331808Y927773D03*
X234008Y914973D03*
X184008Y914973D03*
X156308Y878973D03*
X156308Y828973D03*
D11*
X371408Y809273D03*
D12*
X346008Y809273D03*
D11*
X344308Y842773D03*
D12*
X369708Y842773D03*
D11*
X399319Y868325D03*
D12*
X399319Y842925D03*
D11*
X395508Y811473D03*
D12*
X420908Y811473D03*
D11*
X521108Y977973D03*
D12*
X521108Y952573D03*
D11*
X495508Y948573D03*
D12*
X495508Y973973D03*
D13*
X577967Y897304D02*
X597525Y897304D01*
X597525Y871904D02*
X577967Y871904D01*
X577967Y846504D02*
X597525Y846504D01*
X107525Y897304D02*
X87967Y897304D01*
X87967Y871904D02*
X107525Y871904D01*
X107525Y846504D02*
X87967Y846504D01*
X346946Y956443D02*
X346946Y976001D01*
X372346Y976001D02*
X372346Y956443D01*
X397746Y956443D02*
X397746Y976001D01*
D10*
X476501Y886102D03*
X526501Y886102D03*
D14*
X530159Y818797D02*
X543367Y818797D01*
X543367Y844197D02*
X530159Y844197D01*
X467167Y844197D02*
X453959Y844197D01*
X453959Y818797D02*
X467167Y818797D01*
D10*
X429550Y891078D03*
X429550Y841078D03*
X549650Y924990D03*
X599650Y924990D03*
X334315Y689228D03*
X384315Y689228D03*
X304715Y665128D03*
X304715Y615128D03*
X235515Y737128D03*
X185515Y737128D03*
X132515Y762728D03*
X82515Y762728D03*
X381515Y717928D03*
X331515Y717928D03*
X233715Y705128D03*
X183715Y705128D03*
X156015Y669128D03*
X156015Y619128D03*
D11*
X372891Y605111D03*
D12*
X347491Y605111D03*
D11*
X344015Y632928D03*
D12*
X369415Y632928D03*
D11*
X399026Y658479D03*
D12*
X399026Y633079D03*
D11*
X395570Y604469D03*
D12*
X420970Y604469D03*
D11*
X520815Y768128D03*
D12*
X520815Y742728D03*
D11*
X495215Y738728D03*
D12*
X495215Y764128D03*
D13*
X577674Y687458D02*
X597232Y687458D01*
X597232Y662058D02*
X577674Y662058D01*
X577674Y636658D02*
X597232Y636658D01*
X107232Y687458D02*
X87674Y687458D01*
X87674Y662058D02*
X107232Y662058D01*
X107232Y636658D02*
X87674Y636658D01*
X346653Y746597D02*
X346653Y766155D01*
X372053Y766155D02*
X372053Y746597D01*
X397453Y746597D02*
X397453Y766155D01*
D10*
X476208Y676256D03*
X526208Y676256D03*
D14*
X529867Y608952D02*
X543075Y608952D01*
X543075Y634352D02*
X529867Y634352D01*
X466875Y634352D02*
X453667Y634352D01*
X453667Y608952D02*
X466875Y608952D01*
D10*
X429258Y681232D03*
X429258Y631232D03*
X549357Y715145D03*
X599357Y715145D03*
X334315Y479350D03*
X384315Y479350D03*
X304715Y455250D03*
X304715Y405250D03*
X235515Y527250D03*
X185515Y527250D03*
X132515Y552850D03*
X82515Y552850D03*
X381515Y508050D03*
X331515Y508050D03*
X233715Y495250D03*
X183715Y495250D03*
X156015Y459250D03*
X156015Y409250D03*
D11*
X373246Y396371D03*
D12*
X347846Y396371D03*
D11*
X344015Y423050D03*
D12*
X369415Y423050D03*
D11*
X399026Y448602D03*
D12*
X399026Y423202D03*
D11*
X395215Y396189D03*
D12*
X420615Y396189D03*
D11*
X520815Y558250D03*
D12*
X520815Y532850D03*
D11*
X495215Y528850D03*
D12*
X495215Y554250D03*
D13*
X577673Y477581D02*
X597231Y477581D01*
X597231Y452181D02*
X577673Y452181D01*
X577673Y426781D02*
X597231Y426781D01*
X107231Y477581D02*
X87673Y477581D01*
X87673Y452181D02*
X107231Y452181D01*
X107231Y426781D02*
X87673Y426781D01*
X346652Y536720D02*
X346652Y556278D01*
X372052Y556278D02*
X372052Y536720D01*
X397452Y536720D02*
X397452Y556278D01*
D10*
X476208Y466379D03*
X526208Y466379D03*
D14*
X529866Y399074D02*
X543074Y399074D01*
X543074Y424474D02*
X529866Y424474D01*
X466874Y424474D02*
X453666Y424474D01*
X453666Y399074D02*
X466874Y399074D01*
D10*
X429257Y471354D03*
X429257Y421354D03*
X549357Y505267D03*
X599357Y505267D03*
X513151Y247394D03*
X513151Y297394D03*
D15*
X411086Y279825D03*
D16*
X391086Y279825D03*
D17*
X418629Y180688D03*
X399579Y193388D03*
X418629Y206088D03*
D18*
X463463Y179243D03*
X482513Y191943D03*
X463463Y204643D03*
D15*
X516963Y192424D03*
D16*
X536963Y192424D03*
D10*
X344253Y238180D03*
X344253Y288180D03*
X264305Y287698D03*
X264305Y237698D03*
D11*
X213338Y178235D03*
D12*
X238738Y178235D03*
D11*
X242532Y206818D03*
D12*
X217132Y206818D03*
D15*
X309574Y343233D03*
D16*
X309574Y323233D03*
D19*
X104482Y348591D03*
X104482Y323191D03*
X104482Y297791D03*
D17*
X46650Y315073D03*
X33950Y296023D03*
X21250Y315073D03*
D15*
X146837Y278918D03*
D16*
X166837Y278918D03*
D11*
X48703Y245267D03*
D12*
X48703Y270667D03*
D11*
X21130Y274211D03*
D12*
X21130Y248811D03*
D10*
X21866Y173273D03*
X21866Y223273D03*
D15*
X160336Y343951D03*
D16*
X160336Y323951D03*
D10*
X224956Y290106D03*
X224956Y240106D03*
X194826Y236806D03*
X144826Y236806D03*
X304429Y238661D03*
X304429Y288661D03*
D11*
X289538Y179418D03*
D12*
X314938Y179418D03*
D11*
X318938Y206789D03*
D12*
X293538Y206789D03*
D13*
X577627Y267738D02*
X597185Y267738D01*
X597185Y242338D02*
X577627Y242338D01*
X577627Y216938D02*
X597185Y216938D01*
X107185Y267738D02*
X87627Y267738D01*
X87627Y242338D02*
X107185Y242338D01*
X107185Y216938D02*
X87627Y216938D01*
X346606Y326877D02*
X346606Y346435D01*
X372006Y346435D02*
X372006Y326877D01*
X397406Y326877D02*
X397406Y346435D01*
D10*
X48507Y173788D03*
X48507Y223788D03*
D20*
X92080Y189684D02*
X92080Y175460D01*
X117480Y175460D02*
X117480Y189684D01*
D10*
X742441Y886257D03*
X692441Y886257D03*
D15*
X710010Y784192D03*
D16*
X710010Y764192D03*
D17*
X809148Y791735D03*
X796448Y772685D03*
X783748Y791735D03*
D21*
X810593Y836569D03*
X797893Y855619D03*
X785193Y836569D03*
D15*
X797411Y890069D03*
D16*
X797411Y910069D03*
D10*
X751656Y717359D03*
X701656Y717359D03*
X702137Y637411D03*
X752137Y637411D03*
D11*
X811601Y586444D03*
D12*
X811601Y611844D03*
D11*
X783018Y615638D03*
D12*
X783018Y590238D03*
D15*
X646603Y682681D03*
D16*
X666603Y682681D03*
D22*
X641244Y477588D03*
X666644Y477588D03*
X692044Y477588D03*
D17*
X674763Y419756D03*
X693813Y407056D03*
X674763Y394356D03*
D15*
X710918Y519943D03*
D16*
X710918Y539943D03*
D11*
X744569Y421809D03*
D12*
X719169Y421809D03*
D11*
X715625Y394236D03*
D12*
X741025Y394236D03*
D10*
X816355Y392284D03*
X766355Y392284D03*
D15*
X645884Y533443D03*
D16*
X665884Y533443D03*
D10*
X699729Y598062D03*
X749729Y598062D03*
X753029Y567933D03*
X753029Y517933D03*
X751174Y677535D03*
X701174Y677535D03*
D11*
X810418Y662644D03*
D12*
X810418Y688044D03*
D11*
X783047Y692044D03*
D12*
X783047Y666644D03*
D13*
X722097Y950733D02*
X722097Y970291D01*
X747497Y970291D02*
X747497Y950733D01*
X772897Y950733D02*
X772897Y970291D01*
X722097Y480291D02*
X722097Y460733D01*
X747497Y460733D02*
X747497Y480291D01*
X772897Y480291D02*
X772897Y460733D01*
X662958Y719712D02*
X643400Y719712D01*
X643400Y745112D02*
X662958Y745112D01*
X662958Y770512D02*
X643400Y770512D01*
D10*
X816047Y418304D03*
X766047Y418304D03*
D20*
X800152Y465187D02*
X814376Y465187D01*
X814376Y490587D02*
X800152Y490587D01*
D23*
X259552Y862181D03*
D24*
X429550Y841078D02*
X444507Y841078D01*
X450277Y835307D01*
X527873Y835307D01*
X536763Y844197D01*
X475960Y886565D02*
X468340Y886565D01*
X454592Y900313D01*
X402840Y900313D01*
X364708Y862181D01*
X297652Y862181D01*
X475960Y886565D02*
X476501Y886102D01*
D23*
X297652Y862181D03*
X259259Y652335D03*
D24*
X429258Y631232D02*
X444214Y631232D01*
X449984Y625461D01*
X527580Y625461D01*
X536471Y634352D01*
X475667Y676719D02*
X468047Y676719D01*
X454299Y690467D01*
X402547Y690467D01*
X364415Y652335D01*
X297359Y652335D01*
X475667Y676719D02*
X476208Y676256D01*
D23*
X297359Y652335D03*
X259259Y442458D03*
D24*
X429257Y421354D02*
X444213Y421354D01*
X449984Y415584D01*
X527580Y415584D01*
X536470Y424474D01*
X475667Y466842D02*
X468047Y466842D01*
X454299Y480590D01*
X402546Y480590D01*
X364415Y442458D01*
X297359Y442458D01*
X475667Y466842D02*
X476208Y466379D01*
D23*
X297359Y442458D03*
D24*
X17355Y331974D02*
X17355Y331519D01*
D23*
X17355Y331974D03*
D24*
X97406Y283641D02*
X97406Y267738D01*
X155658Y267738D02*
X166837Y278918D01*
X155658Y267738D02*
X97406Y267738D01*
X513542Y169004D02*
X536963Y192424D01*
X316914Y197206D02*
X209430Y197206D01*
X166837Y239799D01*
X166837Y278918D01*
X558676Y291126D02*
X558676Y190180D01*
X558676Y291126D02*
X554806Y294997D01*
X552441Y294997D01*
D23*
X552441Y294997D03*
D24*
X558676Y190180D02*
X533336Y164840D01*
X148182Y164840D01*
X126878Y186143D01*
X112183Y229003D02*
X110741Y229003D01*
X97406Y242338D01*
X126878Y214308D02*
X126878Y186143D01*
X126878Y214308D02*
X112183Y229003D01*
X482513Y208398D02*
X482513Y191943D01*
X482513Y208398D02*
X411086Y279825D01*
X165460Y343951D02*
X160336Y343951D01*
X165460Y343951D02*
X180526Y359018D01*
X564567Y359018D01*
X577750Y345834D01*
D23*
X577750Y345834D03*
D24*
X636442Y388632D02*
X637466Y388632D01*
X636442Y388632D02*
X634784Y390290D01*
D23*
X658542Y393210D03*
D24*
X702644Y470512D02*
X722097Y470512D01*
X722097Y528764D02*
X710918Y539943D01*
X722097Y528764D02*
X722097Y470512D01*
X820832Y886648D02*
X797411Y910069D01*
X792629Y690020D02*
X792629Y582536D01*
X750036Y539943D01*
X710918Y539943D01*
X698709Y931783D02*
X799655Y931783D01*
X698709Y931783D02*
X694838Y927912D01*
X694838Y925548D01*
D23*
X694838Y925548D03*
D24*
X799655Y931783D02*
X825513Y905925D01*
X825513Y521806D01*
X803692Y499985D01*
X760832Y485289D02*
X760832Y483847D01*
X747497Y470512D01*
X775528Y499985D02*
X803692Y499985D01*
X775528Y499985D02*
X760832Y485289D01*
X781437Y855619D02*
X797893Y855619D01*
X781437Y855619D02*
X710010Y784192D01*
D23*
X640350Y948487D03*
D24*
X640350Y784525D01*
X631335Y775510D01*
X631335Y547991D01*
X645884Y533443D01*
M02*
