M48
;GenerationSoftware,Autodesk,EAGLE,9.2.2*%
;CreationDate,2019-03-12T14:11:54Z*%
FMAT,2
ICI,OFF
METRIC,TZ,000.000
T7C0.350
T6C0.635
T5C0.800
T4C0.813
T3C0.900
T2C0.914
T1C1.118
%
G90
M71
T1
X34665Y54650
X65318Y77051
X65318Y74511
X65318Y71971
X77290Y47051
X74750Y47051
X72210Y47051
X77290Y96051
X74750Y96051
X72210Y96051
X39741Y33666
X37201Y33666
X34661Y33666
X9741Y21694
X9741Y24234
X9741Y26774
X58741Y21694
X58741Y24234
X58741Y26774
X39745Y54650
X37205Y54650
X9745Y42678
X9745Y45218
X9745Y47758
X58745Y42678
X58745Y45218
X58745Y47758
X39745Y75638
X37205Y75638
X34665Y75638
X9745Y63666
X9745Y66206
X9745Y68746
X58745Y63666
X58745Y66206
X58745Y68746
X39775Y96622
X37235Y96622
X58775Y89730
X58775Y87190
X58775Y84650
X9775Y89730
X9775Y87190
X9775Y84650
X34695Y96622
T2
X80726Y49059
X9208Y18257
X80726Y46519
X11748Y18257
T3
X49551Y97397
X21334Y17823
X23874Y17823
X24253Y20682
X78305Y69204
X81042Y68804
X81042Y66264
X74102Y39424
X71562Y39424
X71917Y42181
X74457Y42181
X21713Y20682
X37141Y80927
X49521Y55425
X49521Y52885
X52081Y53285
X52081Y55825
X78302Y59024
X78302Y61564
X81160Y61184
X81160Y58644
X42061Y39619
X37289Y60511
X34749Y60511
X34402Y63293
X36942Y63293
X39903Y65848
X39903Y63308
X39557Y60447
X42097Y60447
X52082Y76813
X52082Y74273
X49522Y73873
X49522Y76413
X52111Y95257
X52111Y97797
X42091Y81147
X39551Y81147
X39932Y84293
X39932Y86833
X36971Y84277
X34431Y84277
X34601Y80927
X39521Y39619
X39903Y42320
X39903Y44860
X36941Y42305
X34401Y42305
X34785Y39637
X37325Y39637
X4870Y24527
X4870Y27067
X78305Y66664
X49551Y94857
X29354Y20679
X31894Y20679
X31494Y17942
X28954Y17942
X2113Y24881
X2113Y27421
T4
X80915Y79174
X79645Y77269
X2125Y31507
X3395Y29602
X4665Y31507
X10448Y29779
X10448Y32319
X78375Y79174
X46027Y60895
X46027Y63435
X53647Y63435
X53647Y60895
X81059Y83657
X79789Y85562
X78519Y83657
X64124Y47759
X66664Y47759
X69204Y47759
X67476Y41976
X69381Y40706
X10448Y34859
X67476Y39436
X46056Y81880
X46056Y84420
X53676Y84420
X53676Y81880
X46346Y20464
X48251Y19194
X46346Y17924
X41863Y20609
X53647Y39907
X53647Y42447
X46027Y42447
X46027Y39907
X39958Y19339
X41863Y18069
T5
X51696Y19242
X66588Y53344
X64588Y53344
X71092Y53994
X41109Y27983
X39109Y27983
X71092Y51994
X66660Y68268
X64660Y68268
X79741Y91007
X79741Y89007
X71001Y76419
X71001Y78419
X53696Y19242
X16034Y32395
X16034Y34395
X16684Y27892
X14684Y27892
X30957Y32323
X30957Y34323
T6
X18401Y91497
X15631Y87897
X23401Y91497
X33181Y92777
X15631Y82897
X15601Y40925
X15601Y45925
X18371Y49525
X23371Y49525
X33151Y50805
X26430Y23770
X26430Y28770
X38151Y50805
X8251Y55285
X13251Y55285
X18551Y52725
X2187Y17327
X2187Y22327
X34425Y28818
X34425Y23818
X22496Y29011
X22496Y24011
X19483Y23681
X14483Y23681
X30443Y23866
X30443Y28866
X23551Y52725
X30471Y40525
X30471Y45525
X38431Y47935
X13281Y97257
X18581Y94697
X23581Y94697
X30501Y82497
X30501Y87497
X38461Y89907
X33461Y89907
X47650Y88610
X76605Y41830
X4851Y17379
X4851Y22379
X33431Y47935
X59936Y71514
X74244Y88626
X69244Y88626
X54936Y50527
X38181Y92777
X54936Y71514
X42926Y63123
X42926Y68123
X52621Y67626
X47621Y67626
X15602Y61913
X8281Y97257
X47621Y46638
X75166Y71736
X70166Y71736
X70214Y63741
X75214Y63741
X15602Y66913
X18372Y70513
X23372Y70513
X33152Y71793
X52621Y46638
X42926Y47135
X38152Y71793
X8252Y76273
X13252Y76273
X18552Y73713
X23552Y73713
X30472Y61513
X42926Y42135
X51315Y29739
X30472Y66513
X38432Y68923
X33432Y68923
X59965Y92499
X81636Y39228
X76636Y39228
X51315Y24739
X59936Y50527
X69973Y59806
X74973Y59806
X75303Y56793
X75303Y51793
X75117Y67754
X70117Y67754
X54965Y92499
X42955Y84108
X42955Y89108
X52650Y88610
X81605Y41830
T7
X57775Y34583
X55244Y29500
X1735Y33197
X29736Y44246
X25926Y44246
X29736Y65234
X25926Y65234
X29765Y86218
X65854Y39321
X69484Y92555
X64035Y94849
X25955Y86218
M30