G04 EAGLE Gerber X2 export*
%TF.Part,Single*%
%TF.FileFunction,Legend,Bot,1*%
%TF.FilePolarity,Positive*%
%TF.GenerationSoftware,Autodesk,EAGLE,9.2.2*%
%TF.CreationDate,2019-03-12T14:11:56Z*%
G75*
%MOMM*%
%FSLAX34Y34*%
%LPD*%
%INSilkscreen Bottom*%
%AMOC8*
5,1,8,0,0,1.08239X$1,22.5*%
G01*
%ADD10C,0.101600*%
%ADD11C,0.127000*%
%ADD12C,0.152400*%


D10*
X387600Y947426D02*
X387600Y938988D01*
X387598Y938875D01*
X387592Y938762D01*
X387582Y938649D01*
X387568Y938536D01*
X387551Y938424D01*
X387529Y938313D01*
X387504Y938203D01*
X387474Y938093D01*
X387441Y937985D01*
X387404Y937878D01*
X387364Y937772D01*
X387319Y937668D01*
X387271Y937565D01*
X387220Y937464D01*
X387165Y937365D01*
X387107Y937268D01*
X387045Y937173D01*
X386980Y937080D01*
X386912Y936990D01*
X386841Y936902D01*
X386766Y936816D01*
X386689Y936733D01*
X386609Y936653D01*
X386526Y936576D01*
X386440Y936501D01*
X386352Y936430D01*
X386262Y936362D01*
X386169Y936297D01*
X386074Y936235D01*
X385977Y936177D01*
X385878Y936122D01*
X385777Y936071D01*
X385674Y936023D01*
X385570Y935978D01*
X385464Y935938D01*
X385357Y935901D01*
X385249Y935868D01*
X385139Y935838D01*
X385029Y935813D01*
X384918Y935791D01*
X384806Y935774D01*
X384693Y935760D01*
X384580Y935750D01*
X384467Y935744D01*
X384354Y935742D01*
X384241Y935744D01*
X384128Y935750D01*
X384015Y935760D01*
X383902Y935774D01*
X383790Y935791D01*
X383679Y935813D01*
X383569Y935838D01*
X383459Y935868D01*
X383351Y935901D01*
X383244Y935938D01*
X383138Y935978D01*
X383034Y936023D01*
X382931Y936071D01*
X382830Y936122D01*
X382731Y936177D01*
X382634Y936235D01*
X382539Y936297D01*
X382446Y936362D01*
X382356Y936430D01*
X382268Y936501D01*
X382182Y936576D01*
X382099Y936653D01*
X382019Y936733D01*
X381942Y936816D01*
X381867Y936902D01*
X381796Y936990D01*
X381728Y937080D01*
X381663Y937173D01*
X381601Y937268D01*
X381543Y937365D01*
X381488Y937464D01*
X381437Y937565D01*
X381389Y937668D01*
X381344Y937772D01*
X381304Y937878D01*
X381267Y937985D01*
X381234Y938093D01*
X381204Y938203D01*
X381179Y938313D01*
X381157Y938424D01*
X381140Y938536D01*
X381126Y938649D01*
X381116Y938762D01*
X381110Y938875D01*
X381108Y938988D01*
X381109Y938988D02*
X381109Y947426D01*
X373305Y947426D02*
X373305Y935742D01*
X373305Y941584D02*
X374928Y942558D01*
X374928Y942557D02*
X375001Y942604D01*
X375072Y942653D01*
X375142Y942706D01*
X375208Y942762D01*
X375272Y942821D01*
X375334Y942882D01*
X375392Y942946D01*
X375448Y943013D01*
X375500Y943082D01*
X375550Y943154D01*
X375596Y943228D01*
X375639Y943303D01*
X375678Y943381D01*
X375714Y943460D01*
X375746Y943541D01*
X375775Y943623D01*
X375800Y943706D01*
X375821Y943790D01*
X375838Y943875D01*
X375852Y943961D01*
X375861Y944047D01*
X375867Y944134D01*
X375869Y944221D01*
X375867Y944308D01*
X375861Y944395D01*
X375851Y944481D01*
X375838Y944567D01*
X375820Y944652D01*
X375799Y944736D01*
X375774Y944819D01*
X375745Y944902D01*
X375713Y944982D01*
X375677Y945061D01*
X375638Y945139D01*
X375595Y945214D01*
X375548Y945288D01*
X375499Y945359D01*
X375446Y945429D01*
X375391Y945495D01*
X375332Y945559D01*
X375271Y945621D01*
X375206Y945680D01*
X375140Y945735D01*
X375071Y945788D01*
X374999Y945838D01*
X374926Y945884D01*
X374850Y945927D01*
X374773Y945966D01*
X374694Y946002D01*
X374613Y946035D01*
X374531Y946063D01*
X374448Y946089D01*
X374364Y946110D01*
X374278Y946127D01*
X374278Y946128D02*
X374138Y946152D01*
X373996Y946172D01*
X373855Y946188D01*
X373713Y946199D01*
X373570Y946207D01*
X373428Y946211D01*
X373285Y946212D01*
X373142Y946208D01*
X373000Y946200D01*
X372858Y946188D01*
X372716Y946172D01*
X372575Y946153D01*
X372434Y946129D01*
X372294Y946102D01*
X372155Y946070D01*
X372017Y946035D01*
X371879Y945996D01*
X371743Y945953D01*
X371609Y945907D01*
X371475Y945856D01*
X371343Y945803D01*
X371213Y945745D01*
X371084Y945684D01*
X370957Y945619D01*
X370831Y945551D01*
X370708Y945479D01*
X373305Y941584D02*
X371682Y940610D01*
X371682Y940611D02*
X371609Y940564D01*
X371538Y940515D01*
X371468Y940462D01*
X371402Y940406D01*
X371338Y940347D01*
X371276Y940286D01*
X371218Y940222D01*
X371162Y940155D01*
X371110Y940086D01*
X371060Y940014D01*
X371014Y939940D01*
X370971Y939865D01*
X370932Y939787D01*
X370896Y939708D01*
X370864Y939627D01*
X370835Y939545D01*
X370810Y939462D01*
X370789Y939378D01*
X370772Y939293D01*
X370758Y939207D01*
X370749Y939121D01*
X370743Y939034D01*
X370741Y938947D01*
X370743Y938860D01*
X370749Y938773D01*
X370759Y938687D01*
X370772Y938601D01*
X370790Y938516D01*
X370811Y938432D01*
X370836Y938349D01*
X370865Y938266D01*
X370897Y938186D01*
X370933Y938107D01*
X370972Y938029D01*
X371015Y937954D01*
X371062Y937880D01*
X371111Y937809D01*
X371164Y937739D01*
X371219Y937673D01*
X371278Y937609D01*
X371339Y937547D01*
X371404Y937488D01*
X371470Y937433D01*
X371539Y937380D01*
X371611Y937330D01*
X371684Y937284D01*
X371760Y937241D01*
X371837Y937202D01*
X371916Y937166D01*
X371997Y937133D01*
X372079Y937105D01*
X372162Y937079D01*
X372246Y937058D01*
X372331Y937041D01*
X372332Y937040D02*
X372472Y937016D01*
X372614Y936996D01*
X372755Y936980D01*
X372897Y936969D01*
X373040Y936961D01*
X373182Y936957D01*
X373325Y936956D01*
X373468Y936960D01*
X373610Y936968D01*
X373752Y936980D01*
X373894Y936996D01*
X374035Y937015D01*
X374176Y937039D01*
X374316Y937066D01*
X374455Y937098D01*
X374593Y937133D01*
X374731Y937172D01*
X374867Y937215D01*
X375001Y937261D01*
X375135Y937312D01*
X375267Y937365D01*
X375398Y937423D01*
X375526Y937484D01*
X375653Y937549D01*
X375779Y937617D01*
X375902Y937689D01*
X365883Y944830D02*
X362637Y947426D01*
X362637Y935742D01*
X359392Y935742D02*
X365883Y935742D01*
X354453Y942233D02*
X350558Y942233D01*
X350459Y942231D01*
X350359Y942225D01*
X350260Y942216D01*
X350162Y942203D01*
X350064Y942186D01*
X349966Y942165D01*
X349870Y942140D01*
X349775Y942112D01*
X349681Y942080D01*
X349588Y942045D01*
X349496Y942006D01*
X349406Y941963D01*
X349318Y941918D01*
X349231Y941868D01*
X349147Y941816D01*
X349064Y941760D01*
X348984Y941702D01*
X348906Y941640D01*
X348831Y941575D01*
X348758Y941507D01*
X348688Y941437D01*
X348620Y941364D01*
X348555Y941289D01*
X348493Y941211D01*
X348435Y941131D01*
X348379Y941048D01*
X348327Y940964D01*
X348277Y940877D01*
X348232Y940789D01*
X348189Y940699D01*
X348150Y940607D01*
X348115Y940514D01*
X348083Y940420D01*
X348055Y940325D01*
X348030Y940229D01*
X348009Y940131D01*
X347992Y940033D01*
X347979Y939935D01*
X347970Y939836D01*
X347964Y939736D01*
X347962Y939637D01*
X347962Y938988D01*
X347961Y938988D02*
X347963Y938875D01*
X347969Y938762D01*
X347979Y938649D01*
X347993Y938536D01*
X348010Y938424D01*
X348032Y938313D01*
X348057Y938203D01*
X348087Y938093D01*
X348120Y937985D01*
X348157Y937878D01*
X348197Y937772D01*
X348242Y937668D01*
X348290Y937565D01*
X348341Y937464D01*
X348396Y937365D01*
X348454Y937268D01*
X348516Y937173D01*
X348581Y937080D01*
X348649Y936990D01*
X348720Y936902D01*
X348795Y936816D01*
X348872Y936733D01*
X348952Y936653D01*
X349035Y936576D01*
X349121Y936501D01*
X349209Y936430D01*
X349299Y936362D01*
X349392Y936297D01*
X349487Y936235D01*
X349584Y936177D01*
X349683Y936122D01*
X349784Y936071D01*
X349887Y936023D01*
X349991Y935978D01*
X350097Y935938D01*
X350204Y935901D01*
X350312Y935868D01*
X350422Y935838D01*
X350532Y935813D01*
X350643Y935791D01*
X350755Y935774D01*
X350868Y935760D01*
X350981Y935750D01*
X351094Y935744D01*
X351207Y935742D01*
X351320Y935744D01*
X351433Y935750D01*
X351546Y935760D01*
X351659Y935774D01*
X351771Y935791D01*
X351882Y935813D01*
X351992Y935838D01*
X352102Y935868D01*
X352210Y935901D01*
X352317Y935938D01*
X352423Y935978D01*
X352527Y936023D01*
X352630Y936071D01*
X352731Y936122D01*
X352830Y936177D01*
X352927Y936235D01*
X353022Y936297D01*
X353115Y936362D01*
X353205Y936430D01*
X353293Y936501D01*
X353379Y936576D01*
X353462Y936653D01*
X353542Y936733D01*
X353619Y936816D01*
X353694Y936902D01*
X353765Y936990D01*
X353833Y937080D01*
X353898Y937173D01*
X353960Y937268D01*
X354018Y937365D01*
X354073Y937464D01*
X354124Y937565D01*
X354172Y937668D01*
X354217Y937772D01*
X354257Y937878D01*
X354294Y937985D01*
X354327Y938093D01*
X354357Y938203D01*
X354382Y938313D01*
X354404Y938424D01*
X354421Y938536D01*
X354435Y938649D01*
X354445Y938762D01*
X354451Y938875D01*
X354453Y938988D01*
X354453Y942233D01*
X354451Y942376D01*
X354445Y942519D01*
X354435Y942662D01*
X354421Y942804D01*
X354404Y942946D01*
X354382Y943088D01*
X354357Y943229D01*
X354327Y943369D01*
X354294Y943508D01*
X354257Y943646D01*
X354216Y943783D01*
X354172Y943919D01*
X354123Y944054D01*
X354071Y944187D01*
X354016Y944319D01*
X353956Y944449D01*
X353893Y944578D01*
X353827Y944705D01*
X353757Y944830D01*
X353684Y944952D01*
X353607Y945073D01*
X353527Y945192D01*
X353444Y945308D01*
X353358Y945423D01*
X353269Y945534D01*
X353176Y945644D01*
X353081Y945750D01*
X352982Y945854D01*
X352881Y945955D01*
X352777Y946054D01*
X352671Y946149D01*
X352561Y946242D01*
X352450Y946331D01*
X352335Y946417D01*
X352219Y946500D01*
X352100Y946580D01*
X351979Y946657D01*
X351857Y946730D01*
X351732Y946800D01*
X351605Y946866D01*
X351476Y946929D01*
X351346Y946989D01*
X351214Y947044D01*
X351081Y947096D01*
X350946Y947145D01*
X350810Y947189D01*
X350673Y947230D01*
X350535Y947267D01*
X350396Y947300D01*
X350256Y947330D01*
X350115Y947355D01*
X349973Y947377D01*
X349831Y947394D01*
X349689Y947408D01*
X349546Y947418D01*
X349403Y947424D01*
X349260Y947426D01*
X387307Y737580D02*
X387307Y729142D01*
X387305Y729029D01*
X387299Y728916D01*
X387289Y728803D01*
X387275Y728690D01*
X387258Y728578D01*
X387236Y728467D01*
X387211Y728357D01*
X387181Y728247D01*
X387148Y728139D01*
X387111Y728032D01*
X387071Y727926D01*
X387026Y727822D01*
X386978Y727719D01*
X386927Y727618D01*
X386872Y727519D01*
X386814Y727422D01*
X386752Y727327D01*
X386687Y727234D01*
X386619Y727144D01*
X386548Y727056D01*
X386473Y726970D01*
X386396Y726887D01*
X386316Y726807D01*
X386233Y726730D01*
X386147Y726655D01*
X386059Y726584D01*
X385969Y726516D01*
X385876Y726451D01*
X385781Y726389D01*
X385684Y726331D01*
X385585Y726276D01*
X385484Y726225D01*
X385381Y726177D01*
X385277Y726132D01*
X385171Y726092D01*
X385064Y726055D01*
X384956Y726022D01*
X384846Y725992D01*
X384736Y725967D01*
X384625Y725945D01*
X384513Y725928D01*
X384400Y725914D01*
X384287Y725904D01*
X384174Y725898D01*
X384061Y725896D01*
X383948Y725898D01*
X383835Y725904D01*
X383722Y725914D01*
X383609Y725928D01*
X383497Y725945D01*
X383386Y725967D01*
X383276Y725992D01*
X383166Y726022D01*
X383058Y726055D01*
X382951Y726092D01*
X382845Y726132D01*
X382741Y726177D01*
X382638Y726225D01*
X382537Y726276D01*
X382438Y726331D01*
X382341Y726389D01*
X382246Y726451D01*
X382153Y726516D01*
X382063Y726584D01*
X381975Y726655D01*
X381889Y726730D01*
X381806Y726807D01*
X381726Y726887D01*
X381649Y726970D01*
X381574Y727056D01*
X381503Y727144D01*
X381435Y727234D01*
X381370Y727327D01*
X381308Y727422D01*
X381250Y727519D01*
X381195Y727618D01*
X381144Y727719D01*
X381096Y727822D01*
X381051Y727926D01*
X381011Y728032D01*
X380974Y728139D01*
X380941Y728247D01*
X380911Y728357D01*
X380886Y728467D01*
X380864Y728578D01*
X380847Y728690D01*
X380833Y728803D01*
X380823Y728916D01*
X380817Y729029D01*
X380815Y729142D01*
X380816Y729142D02*
X380816Y737580D01*
X373012Y737580D02*
X373012Y725896D01*
X373012Y731738D02*
X374635Y732712D01*
X374708Y732759D01*
X374779Y732808D01*
X374849Y732861D01*
X374915Y732917D01*
X374979Y732976D01*
X375041Y733037D01*
X375099Y733101D01*
X375155Y733168D01*
X375207Y733237D01*
X375257Y733309D01*
X375303Y733383D01*
X375346Y733458D01*
X375385Y733536D01*
X375421Y733615D01*
X375453Y733696D01*
X375482Y733778D01*
X375507Y733861D01*
X375528Y733945D01*
X375545Y734030D01*
X375559Y734116D01*
X375568Y734202D01*
X375574Y734289D01*
X375576Y734376D01*
X375574Y734463D01*
X375568Y734550D01*
X375558Y734636D01*
X375545Y734722D01*
X375527Y734807D01*
X375506Y734891D01*
X375481Y734974D01*
X375452Y735057D01*
X375420Y735137D01*
X375384Y735216D01*
X375345Y735294D01*
X375302Y735369D01*
X375255Y735443D01*
X375206Y735514D01*
X375153Y735584D01*
X375098Y735650D01*
X375039Y735714D01*
X374978Y735776D01*
X374913Y735835D01*
X374847Y735890D01*
X374778Y735943D01*
X374706Y735993D01*
X374633Y736039D01*
X374557Y736082D01*
X374480Y736121D01*
X374401Y736157D01*
X374320Y736190D01*
X374238Y736218D01*
X374155Y736244D01*
X374071Y736265D01*
X373985Y736282D01*
X373986Y736282D02*
X373846Y736306D01*
X373704Y736326D01*
X373563Y736342D01*
X373421Y736353D01*
X373278Y736361D01*
X373136Y736365D01*
X372993Y736366D01*
X372850Y736362D01*
X372708Y736354D01*
X372566Y736342D01*
X372424Y736326D01*
X372283Y736307D01*
X372142Y736283D01*
X372002Y736256D01*
X371863Y736224D01*
X371725Y736189D01*
X371587Y736150D01*
X371451Y736107D01*
X371317Y736061D01*
X371183Y736010D01*
X371051Y735957D01*
X370921Y735899D01*
X370792Y735838D01*
X370665Y735773D01*
X370539Y735705D01*
X370416Y735633D01*
X373012Y731738D02*
X371389Y730765D01*
X371316Y730718D01*
X371245Y730669D01*
X371175Y730616D01*
X371109Y730560D01*
X371045Y730501D01*
X370983Y730440D01*
X370925Y730376D01*
X370869Y730309D01*
X370817Y730240D01*
X370767Y730168D01*
X370721Y730094D01*
X370678Y730019D01*
X370639Y729941D01*
X370603Y729862D01*
X370571Y729781D01*
X370542Y729699D01*
X370517Y729616D01*
X370496Y729532D01*
X370479Y729447D01*
X370465Y729361D01*
X370456Y729275D01*
X370450Y729188D01*
X370448Y729101D01*
X370450Y729014D01*
X370456Y728927D01*
X370466Y728841D01*
X370479Y728755D01*
X370497Y728670D01*
X370518Y728586D01*
X370543Y728503D01*
X370572Y728420D01*
X370604Y728340D01*
X370640Y728261D01*
X370679Y728183D01*
X370722Y728108D01*
X370769Y728034D01*
X370818Y727963D01*
X370871Y727893D01*
X370926Y727827D01*
X370985Y727763D01*
X371046Y727701D01*
X371111Y727642D01*
X371177Y727587D01*
X371246Y727534D01*
X371318Y727484D01*
X371391Y727438D01*
X371467Y727395D01*
X371544Y727356D01*
X371623Y727320D01*
X371704Y727287D01*
X371786Y727259D01*
X371869Y727233D01*
X371953Y727212D01*
X372038Y727195D01*
X372039Y727194D02*
X372179Y727170D01*
X372321Y727150D01*
X372462Y727134D01*
X372604Y727123D01*
X372747Y727115D01*
X372889Y727111D01*
X373032Y727110D01*
X373175Y727114D01*
X373317Y727122D01*
X373459Y727134D01*
X373601Y727150D01*
X373742Y727169D01*
X373883Y727193D01*
X374023Y727220D01*
X374162Y727252D01*
X374300Y727287D01*
X374438Y727326D01*
X374574Y727369D01*
X374708Y727415D01*
X374842Y727466D01*
X374974Y727519D01*
X375105Y727577D01*
X375233Y727638D01*
X375360Y727703D01*
X375486Y727771D01*
X375609Y727843D01*
X365590Y725896D02*
X362344Y725896D01*
X362231Y725898D01*
X362118Y725904D01*
X362005Y725914D01*
X361892Y725928D01*
X361780Y725945D01*
X361669Y725967D01*
X361559Y725992D01*
X361449Y726022D01*
X361341Y726055D01*
X361234Y726092D01*
X361128Y726132D01*
X361024Y726177D01*
X360921Y726225D01*
X360820Y726276D01*
X360721Y726331D01*
X360624Y726389D01*
X360529Y726451D01*
X360436Y726516D01*
X360346Y726584D01*
X360258Y726655D01*
X360172Y726730D01*
X360089Y726807D01*
X360009Y726887D01*
X359932Y726970D01*
X359857Y727056D01*
X359786Y727144D01*
X359718Y727234D01*
X359653Y727327D01*
X359591Y727422D01*
X359533Y727519D01*
X359478Y727618D01*
X359427Y727719D01*
X359379Y727822D01*
X359334Y727926D01*
X359294Y728032D01*
X359257Y728139D01*
X359224Y728247D01*
X359194Y728357D01*
X359169Y728467D01*
X359147Y728578D01*
X359130Y728690D01*
X359116Y728803D01*
X359106Y728916D01*
X359100Y729029D01*
X359098Y729142D01*
X359100Y729255D01*
X359106Y729368D01*
X359116Y729481D01*
X359130Y729594D01*
X359147Y729706D01*
X359169Y729817D01*
X359194Y729927D01*
X359224Y730037D01*
X359257Y730145D01*
X359294Y730252D01*
X359334Y730358D01*
X359379Y730462D01*
X359427Y730565D01*
X359478Y730666D01*
X359533Y730765D01*
X359591Y730862D01*
X359653Y730957D01*
X359718Y731050D01*
X359786Y731140D01*
X359857Y731228D01*
X359932Y731314D01*
X360009Y731397D01*
X360089Y731477D01*
X360172Y731554D01*
X360258Y731629D01*
X360346Y731700D01*
X360436Y731768D01*
X360529Y731833D01*
X360624Y731895D01*
X360721Y731953D01*
X360820Y732008D01*
X360921Y732059D01*
X361024Y732107D01*
X361128Y732152D01*
X361234Y732192D01*
X361341Y732229D01*
X361449Y732262D01*
X361559Y732292D01*
X361669Y732317D01*
X361780Y732339D01*
X361892Y732356D01*
X362005Y732370D01*
X362118Y732380D01*
X362231Y732386D01*
X362344Y732388D01*
X361695Y737580D02*
X365590Y737580D01*
X361695Y737580D02*
X361594Y737578D01*
X361494Y737572D01*
X361394Y737562D01*
X361294Y737549D01*
X361195Y737531D01*
X361096Y737510D01*
X360999Y737485D01*
X360902Y737456D01*
X360807Y737423D01*
X360713Y737387D01*
X360621Y737347D01*
X360530Y737304D01*
X360441Y737257D01*
X360354Y737207D01*
X360268Y737153D01*
X360185Y737096D01*
X360105Y737036D01*
X360026Y736973D01*
X359950Y736906D01*
X359877Y736837D01*
X359807Y736765D01*
X359739Y736691D01*
X359674Y736614D01*
X359613Y736534D01*
X359554Y736452D01*
X359499Y736368D01*
X359447Y736282D01*
X359398Y736194D01*
X359353Y736104D01*
X359311Y736012D01*
X359273Y735919D01*
X359239Y735824D01*
X359208Y735729D01*
X359181Y735632D01*
X359158Y735534D01*
X359138Y735435D01*
X359123Y735335D01*
X359111Y735235D01*
X359103Y735135D01*
X359099Y735034D01*
X359099Y734934D01*
X359103Y734833D01*
X359111Y734733D01*
X359123Y734633D01*
X359138Y734533D01*
X359158Y734434D01*
X359181Y734336D01*
X359208Y734239D01*
X359239Y734144D01*
X359273Y734049D01*
X359311Y733956D01*
X359353Y733864D01*
X359398Y733774D01*
X359447Y733686D01*
X359499Y733600D01*
X359554Y733516D01*
X359613Y733434D01*
X359674Y733354D01*
X359739Y733277D01*
X359807Y733203D01*
X359877Y733131D01*
X359950Y733062D01*
X360026Y732995D01*
X360105Y732932D01*
X360185Y732872D01*
X360268Y732815D01*
X360354Y732761D01*
X360441Y732711D01*
X360530Y732664D01*
X360621Y732621D01*
X360713Y732581D01*
X360807Y732545D01*
X360902Y732512D01*
X360999Y732483D01*
X361096Y732458D01*
X361195Y732437D01*
X361294Y732419D01*
X361394Y732406D01*
X361494Y732396D01*
X361594Y732390D01*
X361695Y732388D01*
X361695Y732387D02*
X364292Y732387D01*
X354160Y728493D02*
X351563Y737580D01*
X354160Y728493D02*
X347669Y728493D01*
X349616Y731089D02*
X349616Y725896D01*
X387306Y527703D02*
X387306Y519265D01*
X387307Y519265D02*
X387305Y519152D01*
X387299Y519039D01*
X387289Y518926D01*
X387275Y518813D01*
X387258Y518701D01*
X387236Y518590D01*
X387211Y518480D01*
X387181Y518370D01*
X387148Y518262D01*
X387111Y518155D01*
X387071Y518049D01*
X387026Y517945D01*
X386978Y517842D01*
X386927Y517741D01*
X386872Y517642D01*
X386814Y517545D01*
X386752Y517450D01*
X386687Y517357D01*
X386619Y517267D01*
X386548Y517179D01*
X386473Y517093D01*
X386396Y517010D01*
X386316Y516930D01*
X386233Y516853D01*
X386147Y516778D01*
X386059Y516707D01*
X385969Y516639D01*
X385876Y516574D01*
X385781Y516512D01*
X385684Y516454D01*
X385585Y516399D01*
X385484Y516348D01*
X385381Y516300D01*
X385277Y516255D01*
X385171Y516215D01*
X385064Y516178D01*
X384956Y516145D01*
X384846Y516115D01*
X384736Y516090D01*
X384625Y516068D01*
X384513Y516051D01*
X384400Y516037D01*
X384287Y516027D01*
X384174Y516021D01*
X384061Y516019D01*
X383948Y516021D01*
X383835Y516027D01*
X383722Y516037D01*
X383609Y516051D01*
X383497Y516068D01*
X383386Y516090D01*
X383276Y516115D01*
X383166Y516145D01*
X383058Y516178D01*
X382951Y516215D01*
X382845Y516255D01*
X382741Y516300D01*
X382638Y516348D01*
X382537Y516399D01*
X382438Y516454D01*
X382341Y516512D01*
X382246Y516574D01*
X382153Y516639D01*
X382063Y516707D01*
X381975Y516778D01*
X381889Y516853D01*
X381806Y516930D01*
X381726Y517010D01*
X381649Y517093D01*
X381574Y517179D01*
X381503Y517267D01*
X381435Y517357D01*
X381370Y517450D01*
X381308Y517545D01*
X381250Y517642D01*
X381195Y517741D01*
X381144Y517842D01*
X381096Y517945D01*
X381051Y518049D01*
X381011Y518155D01*
X380974Y518262D01*
X380941Y518370D01*
X380911Y518480D01*
X380886Y518590D01*
X380864Y518701D01*
X380847Y518813D01*
X380833Y518926D01*
X380823Y519039D01*
X380817Y519152D01*
X380815Y519265D01*
X380815Y527703D01*
X373012Y527703D02*
X373012Y516019D01*
X373012Y521861D02*
X374635Y522835D01*
X374635Y522834D02*
X374708Y522881D01*
X374779Y522930D01*
X374849Y522983D01*
X374915Y523039D01*
X374979Y523098D01*
X375041Y523159D01*
X375099Y523223D01*
X375155Y523290D01*
X375207Y523359D01*
X375257Y523431D01*
X375303Y523505D01*
X375346Y523580D01*
X375385Y523658D01*
X375421Y523737D01*
X375453Y523818D01*
X375482Y523900D01*
X375507Y523983D01*
X375528Y524067D01*
X375545Y524152D01*
X375559Y524238D01*
X375568Y524324D01*
X375574Y524411D01*
X375576Y524498D01*
X375574Y524585D01*
X375568Y524672D01*
X375558Y524758D01*
X375545Y524844D01*
X375527Y524929D01*
X375506Y525013D01*
X375481Y525096D01*
X375452Y525179D01*
X375420Y525259D01*
X375384Y525338D01*
X375345Y525416D01*
X375302Y525491D01*
X375255Y525565D01*
X375206Y525636D01*
X375153Y525706D01*
X375098Y525772D01*
X375039Y525836D01*
X374978Y525898D01*
X374913Y525957D01*
X374847Y526012D01*
X374778Y526065D01*
X374706Y526115D01*
X374633Y526161D01*
X374557Y526204D01*
X374480Y526243D01*
X374401Y526279D01*
X374320Y526312D01*
X374238Y526340D01*
X374155Y526366D01*
X374071Y526387D01*
X373985Y526404D01*
X373985Y526405D02*
X373845Y526429D01*
X373703Y526449D01*
X373562Y526465D01*
X373420Y526476D01*
X373277Y526484D01*
X373135Y526488D01*
X372992Y526489D01*
X372849Y526485D01*
X372707Y526477D01*
X372565Y526465D01*
X372423Y526449D01*
X372282Y526430D01*
X372141Y526406D01*
X372001Y526379D01*
X371862Y526347D01*
X371724Y526312D01*
X371586Y526273D01*
X371450Y526230D01*
X371316Y526184D01*
X371182Y526133D01*
X371050Y526080D01*
X370920Y526022D01*
X370791Y525961D01*
X370664Y525896D01*
X370538Y525828D01*
X370415Y525756D01*
X373012Y521861D02*
X371389Y520887D01*
X371389Y520888D02*
X371316Y520841D01*
X371245Y520792D01*
X371175Y520739D01*
X371109Y520683D01*
X371045Y520624D01*
X370983Y520563D01*
X370925Y520499D01*
X370869Y520432D01*
X370817Y520363D01*
X370767Y520291D01*
X370721Y520217D01*
X370678Y520142D01*
X370639Y520064D01*
X370603Y519985D01*
X370571Y519904D01*
X370542Y519822D01*
X370517Y519739D01*
X370496Y519655D01*
X370479Y519570D01*
X370465Y519484D01*
X370456Y519398D01*
X370450Y519311D01*
X370448Y519224D01*
X370450Y519137D01*
X370456Y519050D01*
X370466Y518964D01*
X370479Y518878D01*
X370497Y518793D01*
X370518Y518709D01*
X370543Y518626D01*
X370572Y518543D01*
X370604Y518463D01*
X370640Y518384D01*
X370679Y518306D01*
X370722Y518231D01*
X370769Y518157D01*
X370818Y518086D01*
X370871Y518016D01*
X370926Y517950D01*
X370985Y517886D01*
X371046Y517824D01*
X371111Y517765D01*
X371177Y517710D01*
X371246Y517657D01*
X371318Y517607D01*
X371391Y517561D01*
X371467Y517518D01*
X371544Y517479D01*
X371623Y517443D01*
X371704Y517410D01*
X371786Y517382D01*
X371869Y517356D01*
X371953Y517335D01*
X372038Y517318D01*
X372038Y517317D02*
X372178Y517293D01*
X372320Y517273D01*
X372461Y517257D01*
X372603Y517246D01*
X372746Y517238D01*
X372888Y517234D01*
X373031Y517233D01*
X373174Y517237D01*
X373316Y517245D01*
X373458Y517257D01*
X373600Y517273D01*
X373741Y517292D01*
X373882Y517316D01*
X374022Y517343D01*
X374161Y517375D01*
X374299Y517410D01*
X374437Y517449D01*
X374573Y517492D01*
X374707Y517538D01*
X374841Y517589D01*
X374973Y517642D01*
X375104Y517700D01*
X375232Y517761D01*
X375359Y517826D01*
X375485Y517894D01*
X375608Y517966D01*
X365589Y518615D02*
X362993Y527703D01*
X365589Y518615D02*
X359098Y518615D01*
X361046Y516019D02*
X361046Y521212D01*
X354159Y522510D02*
X350265Y522510D01*
X350166Y522508D01*
X350066Y522502D01*
X349967Y522493D01*
X349869Y522480D01*
X349771Y522463D01*
X349673Y522442D01*
X349577Y522417D01*
X349482Y522389D01*
X349388Y522357D01*
X349295Y522322D01*
X349203Y522283D01*
X349113Y522240D01*
X349025Y522195D01*
X348938Y522145D01*
X348854Y522093D01*
X348771Y522037D01*
X348691Y521979D01*
X348613Y521917D01*
X348538Y521852D01*
X348465Y521784D01*
X348395Y521714D01*
X348327Y521641D01*
X348262Y521566D01*
X348200Y521488D01*
X348142Y521408D01*
X348086Y521325D01*
X348034Y521241D01*
X347984Y521154D01*
X347939Y521066D01*
X347896Y520976D01*
X347857Y520884D01*
X347822Y520791D01*
X347790Y520697D01*
X347762Y520602D01*
X347737Y520506D01*
X347716Y520408D01*
X347699Y520310D01*
X347686Y520212D01*
X347677Y520113D01*
X347671Y520013D01*
X347669Y519914D01*
X347668Y519914D02*
X347668Y519265D01*
X347670Y519152D01*
X347676Y519039D01*
X347686Y518926D01*
X347700Y518813D01*
X347717Y518701D01*
X347739Y518590D01*
X347764Y518480D01*
X347794Y518370D01*
X347827Y518262D01*
X347864Y518155D01*
X347904Y518049D01*
X347949Y517945D01*
X347997Y517842D01*
X348048Y517741D01*
X348103Y517642D01*
X348161Y517545D01*
X348223Y517450D01*
X348288Y517357D01*
X348356Y517267D01*
X348427Y517179D01*
X348502Y517093D01*
X348579Y517010D01*
X348659Y516930D01*
X348742Y516853D01*
X348828Y516778D01*
X348916Y516707D01*
X349006Y516639D01*
X349099Y516574D01*
X349194Y516512D01*
X349291Y516454D01*
X349390Y516399D01*
X349491Y516348D01*
X349594Y516300D01*
X349698Y516255D01*
X349804Y516215D01*
X349911Y516178D01*
X350019Y516145D01*
X350129Y516115D01*
X350239Y516090D01*
X350350Y516068D01*
X350462Y516051D01*
X350575Y516037D01*
X350688Y516027D01*
X350801Y516021D01*
X350914Y516019D01*
X351027Y516021D01*
X351140Y516027D01*
X351253Y516037D01*
X351366Y516051D01*
X351478Y516068D01*
X351589Y516090D01*
X351699Y516115D01*
X351809Y516145D01*
X351917Y516178D01*
X352024Y516215D01*
X352130Y516255D01*
X352234Y516300D01*
X352337Y516348D01*
X352438Y516399D01*
X352537Y516454D01*
X352634Y516512D01*
X352729Y516574D01*
X352822Y516639D01*
X352912Y516707D01*
X353000Y516778D01*
X353086Y516853D01*
X353169Y516930D01*
X353249Y517010D01*
X353326Y517093D01*
X353401Y517179D01*
X353472Y517267D01*
X353540Y517357D01*
X353605Y517450D01*
X353667Y517545D01*
X353725Y517642D01*
X353780Y517741D01*
X353831Y517842D01*
X353879Y517945D01*
X353924Y518049D01*
X353964Y518155D01*
X354001Y518262D01*
X354034Y518370D01*
X354064Y518480D01*
X354089Y518590D01*
X354111Y518701D01*
X354128Y518813D01*
X354142Y518926D01*
X354152Y519039D01*
X354158Y519152D01*
X354160Y519265D01*
X354159Y519265D02*
X354159Y522510D01*
X354157Y522653D01*
X354151Y522796D01*
X354141Y522939D01*
X354127Y523081D01*
X354110Y523223D01*
X354088Y523365D01*
X354063Y523506D01*
X354033Y523646D01*
X354000Y523785D01*
X353963Y523923D01*
X353922Y524060D01*
X353878Y524196D01*
X353829Y524331D01*
X353777Y524464D01*
X353722Y524596D01*
X353662Y524726D01*
X353599Y524855D01*
X353533Y524982D01*
X353463Y525107D01*
X353390Y525229D01*
X353313Y525350D01*
X353233Y525469D01*
X353150Y525585D01*
X353064Y525700D01*
X352975Y525811D01*
X352882Y525921D01*
X352787Y526027D01*
X352688Y526131D01*
X352587Y526232D01*
X352483Y526331D01*
X352377Y526426D01*
X352267Y526519D01*
X352156Y526608D01*
X352041Y526694D01*
X351925Y526777D01*
X351806Y526857D01*
X351685Y526934D01*
X351563Y527007D01*
X351438Y527077D01*
X351311Y527143D01*
X351182Y527206D01*
X351052Y527266D01*
X350920Y527321D01*
X350787Y527373D01*
X350652Y527422D01*
X350516Y527466D01*
X350379Y527507D01*
X350241Y527544D01*
X350102Y527577D01*
X349962Y527607D01*
X349821Y527632D01*
X349679Y527654D01*
X349537Y527671D01*
X349395Y527685D01*
X349252Y527695D01*
X349109Y527701D01*
X348966Y527703D01*
D11*
X374586Y279825D02*
X374594Y280475D01*
X374618Y281125D01*
X374658Y281774D01*
X374714Y282422D01*
X374785Y283069D01*
X374873Y283713D01*
X374976Y284355D01*
X375095Y284995D01*
X375230Y285631D01*
X375380Y286264D01*
X375546Y286893D01*
X375727Y287518D01*
X375924Y288138D01*
X376135Y288753D01*
X376362Y289362D01*
X376603Y289966D01*
X376859Y290564D01*
X377130Y291155D01*
X377416Y291740D01*
X377715Y292317D01*
X378029Y292887D01*
X378356Y293449D01*
X378697Y294002D01*
X379052Y294548D01*
X379420Y295084D01*
X379801Y295611D01*
X380195Y296129D01*
X380601Y296636D01*
X381020Y297134D01*
X381451Y297621D01*
X381893Y298098D01*
X382348Y298563D01*
X382813Y299018D01*
X383290Y299460D01*
X383777Y299891D01*
X384275Y300310D01*
X384782Y300716D01*
X385300Y301110D01*
X385827Y301491D01*
X386363Y301859D01*
X386909Y302214D01*
X387462Y302555D01*
X388024Y302882D01*
X388594Y303196D01*
X389171Y303495D01*
X389756Y303781D01*
X390347Y304052D01*
X390945Y304308D01*
X391549Y304549D01*
X392158Y304776D01*
X392773Y304987D01*
X393393Y305184D01*
X394018Y305365D01*
X394647Y305531D01*
X395280Y305681D01*
X395916Y305816D01*
X396556Y305935D01*
X397198Y306038D01*
X397842Y306126D01*
X398489Y306197D01*
X399137Y306253D01*
X399786Y306293D01*
X400436Y306317D01*
X401086Y306325D01*
X401736Y306317D01*
X402386Y306293D01*
X403035Y306253D01*
X403683Y306197D01*
X404330Y306126D01*
X404974Y306038D01*
X405616Y305935D01*
X406256Y305816D01*
X406892Y305681D01*
X407525Y305531D01*
X408154Y305365D01*
X408779Y305184D01*
X409399Y304987D01*
X410014Y304776D01*
X410623Y304549D01*
X411227Y304308D01*
X411825Y304052D01*
X412416Y303781D01*
X413001Y303495D01*
X413578Y303196D01*
X414148Y302882D01*
X414710Y302555D01*
X415263Y302214D01*
X415809Y301859D01*
X416345Y301491D01*
X416872Y301110D01*
X417390Y300716D01*
X417897Y300310D01*
X418395Y299891D01*
X418882Y299460D01*
X419359Y299018D01*
X419824Y298563D01*
X420279Y298098D01*
X420721Y297621D01*
X421152Y297134D01*
X421571Y296636D01*
X421977Y296129D01*
X422371Y295611D01*
X422752Y295084D01*
X423120Y294548D01*
X423475Y294002D01*
X423816Y293449D01*
X424143Y292887D01*
X424457Y292317D01*
X424756Y291740D01*
X425042Y291155D01*
X425313Y290564D01*
X425569Y289966D01*
X425810Y289362D01*
X426037Y288753D01*
X426248Y288138D01*
X426445Y287518D01*
X426626Y286893D01*
X426792Y286264D01*
X426942Y285631D01*
X427077Y284995D01*
X427196Y284355D01*
X427299Y283713D01*
X427387Y283069D01*
X427458Y282422D01*
X427514Y281774D01*
X427554Y281125D01*
X427578Y280475D01*
X427586Y279825D01*
X427578Y279175D01*
X427554Y278525D01*
X427514Y277876D01*
X427458Y277228D01*
X427387Y276581D01*
X427299Y275937D01*
X427196Y275295D01*
X427077Y274655D01*
X426942Y274019D01*
X426792Y273386D01*
X426626Y272757D01*
X426445Y272132D01*
X426248Y271512D01*
X426037Y270897D01*
X425810Y270288D01*
X425569Y269684D01*
X425313Y269086D01*
X425042Y268495D01*
X424756Y267910D01*
X424457Y267333D01*
X424143Y266763D01*
X423816Y266201D01*
X423475Y265648D01*
X423120Y265102D01*
X422752Y264566D01*
X422371Y264039D01*
X421977Y263521D01*
X421571Y263014D01*
X421152Y262516D01*
X420721Y262029D01*
X420279Y261552D01*
X419824Y261087D01*
X419359Y260632D01*
X418882Y260190D01*
X418395Y259759D01*
X417897Y259340D01*
X417390Y258934D01*
X416872Y258540D01*
X416345Y258159D01*
X415809Y257791D01*
X415263Y257436D01*
X414710Y257095D01*
X414148Y256768D01*
X413578Y256454D01*
X413001Y256155D01*
X412416Y255869D01*
X411825Y255598D01*
X411227Y255342D01*
X410623Y255101D01*
X410014Y254874D01*
X409399Y254663D01*
X408779Y254466D01*
X408154Y254285D01*
X407525Y254119D01*
X406892Y253969D01*
X406256Y253834D01*
X405616Y253715D01*
X404974Y253612D01*
X404330Y253524D01*
X403683Y253453D01*
X403035Y253397D01*
X402386Y253357D01*
X401736Y253333D01*
X401086Y253325D01*
X400436Y253333D01*
X399786Y253357D01*
X399137Y253397D01*
X398489Y253453D01*
X397842Y253524D01*
X397198Y253612D01*
X396556Y253715D01*
X395916Y253834D01*
X395280Y253969D01*
X394647Y254119D01*
X394018Y254285D01*
X393393Y254466D01*
X392773Y254663D01*
X392158Y254874D01*
X391549Y255101D01*
X390945Y255342D01*
X390347Y255598D01*
X389756Y255869D01*
X389171Y256155D01*
X388594Y256454D01*
X388024Y256768D01*
X387462Y257095D01*
X386909Y257436D01*
X386363Y257791D01*
X385827Y258159D01*
X385300Y258540D01*
X384782Y258934D01*
X384275Y259340D01*
X383777Y259759D01*
X383290Y260190D01*
X382813Y260632D01*
X382348Y261087D01*
X381893Y261552D01*
X381451Y262029D01*
X381020Y262516D01*
X380601Y263014D01*
X380195Y263521D01*
X379801Y264039D01*
X379420Y264566D01*
X379052Y265102D01*
X378697Y265648D01*
X378356Y266201D01*
X378029Y266763D01*
X377715Y267333D01*
X377416Y267910D01*
X377130Y268495D01*
X376859Y269086D01*
X376603Y269684D01*
X376362Y270288D01*
X376135Y270897D01*
X375924Y271512D01*
X375727Y272132D01*
X375546Y272757D01*
X375380Y273386D01*
X375230Y274019D01*
X375095Y274655D01*
X374976Y275295D01*
X374873Y275937D01*
X374785Y276581D01*
X374714Y277228D01*
X374658Y277876D01*
X374618Y278525D01*
X374594Y279175D01*
X374586Y279825D01*
X439186Y279825D02*
X445536Y279825D01*
X439186Y279825D02*
X432836Y279825D01*
X439186Y279825D02*
X439186Y273475D01*
X439186Y279825D02*
X439186Y286175D01*
X401086Y263315D02*
X401086Y253155D01*
X401086Y263315D02*
X401086Y269665D01*
X401086Y276015D01*
X401086Y295065D01*
X401086Y302685D01*
X401086Y306495D01*
X401086Y302685D02*
X378226Y292525D01*
X375686Y283635D02*
X401086Y295065D01*
X385211Y273475D02*
X376956Y269665D01*
X379496Y264585D02*
X401086Y276015D01*
X401086Y269665D02*
X383306Y260140D01*
X388386Y256330D02*
X401086Y263315D01*
X383586Y279825D02*
X376956Y276015D01*
X500463Y192424D02*
X500471Y193074D01*
X500495Y193724D01*
X500535Y194373D01*
X500591Y195021D01*
X500662Y195668D01*
X500750Y196312D01*
X500853Y196954D01*
X500972Y197594D01*
X501107Y198230D01*
X501257Y198863D01*
X501423Y199492D01*
X501604Y200117D01*
X501801Y200737D01*
X502012Y201352D01*
X502239Y201961D01*
X502480Y202565D01*
X502736Y203163D01*
X503007Y203754D01*
X503293Y204339D01*
X503592Y204916D01*
X503906Y205486D01*
X504233Y206048D01*
X504574Y206601D01*
X504929Y207147D01*
X505297Y207683D01*
X505678Y208210D01*
X506072Y208728D01*
X506478Y209235D01*
X506897Y209733D01*
X507328Y210220D01*
X507770Y210697D01*
X508225Y211162D01*
X508690Y211617D01*
X509167Y212059D01*
X509654Y212490D01*
X510152Y212909D01*
X510659Y213315D01*
X511177Y213709D01*
X511704Y214090D01*
X512240Y214458D01*
X512786Y214813D01*
X513339Y215154D01*
X513901Y215481D01*
X514471Y215795D01*
X515048Y216094D01*
X515633Y216380D01*
X516224Y216651D01*
X516822Y216907D01*
X517426Y217148D01*
X518035Y217375D01*
X518650Y217586D01*
X519270Y217783D01*
X519895Y217964D01*
X520524Y218130D01*
X521157Y218280D01*
X521793Y218415D01*
X522433Y218534D01*
X523075Y218637D01*
X523719Y218725D01*
X524366Y218796D01*
X525014Y218852D01*
X525663Y218892D01*
X526313Y218916D01*
X526963Y218924D01*
X527613Y218916D01*
X528263Y218892D01*
X528912Y218852D01*
X529560Y218796D01*
X530207Y218725D01*
X530851Y218637D01*
X531493Y218534D01*
X532133Y218415D01*
X532769Y218280D01*
X533402Y218130D01*
X534031Y217964D01*
X534656Y217783D01*
X535276Y217586D01*
X535891Y217375D01*
X536500Y217148D01*
X537104Y216907D01*
X537702Y216651D01*
X538293Y216380D01*
X538878Y216094D01*
X539455Y215795D01*
X540025Y215481D01*
X540587Y215154D01*
X541140Y214813D01*
X541686Y214458D01*
X542222Y214090D01*
X542749Y213709D01*
X543267Y213315D01*
X543774Y212909D01*
X544272Y212490D01*
X544759Y212059D01*
X545236Y211617D01*
X545701Y211162D01*
X546156Y210697D01*
X546598Y210220D01*
X547029Y209733D01*
X547448Y209235D01*
X547854Y208728D01*
X548248Y208210D01*
X548629Y207683D01*
X548997Y207147D01*
X549352Y206601D01*
X549693Y206048D01*
X550020Y205486D01*
X550334Y204916D01*
X550633Y204339D01*
X550919Y203754D01*
X551190Y203163D01*
X551446Y202565D01*
X551687Y201961D01*
X551914Y201352D01*
X552125Y200737D01*
X552322Y200117D01*
X552503Y199492D01*
X552669Y198863D01*
X552819Y198230D01*
X552954Y197594D01*
X553073Y196954D01*
X553176Y196312D01*
X553264Y195668D01*
X553335Y195021D01*
X553391Y194373D01*
X553431Y193724D01*
X553455Y193074D01*
X553463Y192424D01*
X553455Y191774D01*
X553431Y191124D01*
X553391Y190475D01*
X553335Y189827D01*
X553264Y189180D01*
X553176Y188536D01*
X553073Y187894D01*
X552954Y187254D01*
X552819Y186618D01*
X552669Y185985D01*
X552503Y185356D01*
X552322Y184731D01*
X552125Y184111D01*
X551914Y183496D01*
X551687Y182887D01*
X551446Y182283D01*
X551190Y181685D01*
X550919Y181094D01*
X550633Y180509D01*
X550334Y179932D01*
X550020Y179362D01*
X549693Y178800D01*
X549352Y178247D01*
X548997Y177701D01*
X548629Y177165D01*
X548248Y176638D01*
X547854Y176120D01*
X547448Y175613D01*
X547029Y175115D01*
X546598Y174628D01*
X546156Y174151D01*
X545701Y173686D01*
X545236Y173231D01*
X544759Y172789D01*
X544272Y172358D01*
X543774Y171939D01*
X543267Y171533D01*
X542749Y171139D01*
X542222Y170758D01*
X541686Y170390D01*
X541140Y170035D01*
X540587Y169694D01*
X540025Y169367D01*
X539455Y169053D01*
X538878Y168754D01*
X538293Y168468D01*
X537702Y168197D01*
X537104Y167941D01*
X536500Y167700D01*
X535891Y167473D01*
X535276Y167262D01*
X534656Y167065D01*
X534031Y166884D01*
X533402Y166718D01*
X532769Y166568D01*
X532133Y166433D01*
X531493Y166314D01*
X530851Y166211D01*
X530207Y166123D01*
X529560Y166052D01*
X528912Y165996D01*
X528263Y165956D01*
X527613Y165932D01*
X526963Y165924D01*
X526313Y165932D01*
X525663Y165956D01*
X525014Y165996D01*
X524366Y166052D01*
X523719Y166123D01*
X523075Y166211D01*
X522433Y166314D01*
X521793Y166433D01*
X521157Y166568D01*
X520524Y166718D01*
X519895Y166884D01*
X519270Y167065D01*
X518650Y167262D01*
X518035Y167473D01*
X517426Y167700D01*
X516822Y167941D01*
X516224Y168197D01*
X515633Y168468D01*
X515048Y168754D01*
X514471Y169053D01*
X513901Y169367D01*
X513339Y169694D01*
X512786Y170035D01*
X512240Y170390D01*
X511704Y170758D01*
X511177Y171139D01*
X510659Y171533D01*
X510152Y171939D01*
X509654Y172358D01*
X509167Y172789D01*
X508690Y173231D01*
X508225Y173686D01*
X507770Y174151D01*
X507328Y174628D01*
X506897Y175115D01*
X506478Y175613D01*
X506072Y176120D01*
X505678Y176638D01*
X505297Y177165D01*
X504929Y177701D01*
X504574Y178247D01*
X504233Y178800D01*
X503906Y179362D01*
X503592Y179932D01*
X503293Y180509D01*
X503007Y181094D01*
X502736Y181685D01*
X502480Y182283D01*
X502239Y182887D01*
X502012Y183496D01*
X501801Y184111D01*
X501604Y184731D01*
X501423Y185356D01*
X501257Y185985D01*
X501107Y186618D01*
X500972Y187254D01*
X500853Y187894D01*
X500750Y188536D01*
X500662Y189180D01*
X500591Y189827D01*
X500535Y190475D01*
X500495Y191124D01*
X500471Y191774D01*
X500463Y192424D01*
X488863Y192424D02*
X482513Y192424D01*
X488863Y192424D02*
X495213Y192424D01*
X488863Y192424D02*
X488863Y198774D01*
X488863Y192424D02*
X488863Y186074D01*
X526963Y208934D02*
X526963Y219094D01*
X526963Y208934D02*
X526963Y202584D01*
X526963Y196234D01*
X526963Y177184D01*
X526963Y169564D01*
X526963Y165754D01*
X526963Y169564D02*
X549823Y179724D01*
X552363Y188614D02*
X526963Y177184D01*
X542838Y198774D02*
X551093Y202584D01*
X548553Y207664D02*
X526963Y196234D01*
X526963Y202584D02*
X544743Y212109D01*
X539663Y215919D02*
X526963Y208934D01*
X544463Y192424D02*
X551093Y196234D01*
X283074Y333233D02*
X283082Y333883D01*
X283106Y334533D01*
X283146Y335182D01*
X283202Y335830D01*
X283273Y336477D01*
X283361Y337121D01*
X283464Y337763D01*
X283583Y338403D01*
X283718Y339039D01*
X283868Y339672D01*
X284034Y340301D01*
X284215Y340926D01*
X284412Y341546D01*
X284623Y342161D01*
X284850Y342770D01*
X285091Y343374D01*
X285347Y343972D01*
X285618Y344563D01*
X285904Y345148D01*
X286203Y345725D01*
X286517Y346295D01*
X286844Y346857D01*
X287185Y347410D01*
X287540Y347956D01*
X287908Y348492D01*
X288289Y349019D01*
X288683Y349537D01*
X289089Y350044D01*
X289508Y350542D01*
X289939Y351029D01*
X290381Y351506D01*
X290836Y351971D01*
X291301Y352426D01*
X291778Y352868D01*
X292265Y353299D01*
X292763Y353718D01*
X293270Y354124D01*
X293788Y354518D01*
X294315Y354899D01*
X294851Y355267D01*
X295397Y355622D01*
X295950Y355963D01*
X296512Y356290D01*
X297082Y356604D01*
X297659Y356903D01*
X298244Y357189D01*
X298835Y357460D01*
X299433Y357716D01*
X300037Y357957D01*
X300646Y358184D01*
X301261Y358395D01*
X301881Y358592D01*
X302506Y358773D01*
X303135Y358939D01*
X303768Y359089D01*
X304404Y359224D01*
X305044Y359343D01*
X305686Y359446D01*
X306330Y359534D01*
X306977Y359605D01*
X307625Y359661D01*
X308274Y359701D01*
X308924Y359725D01*
X309574Y359733D01*
X310224Y359725D01*
X310874Y359701D01*
X311523Y359661D01*
X312171Y359605D01*
X312818Y359534D01*
X313462Y359446D01*
X314104Y359343D01*
X314744Y359224D01*
X315380Y359089D01*
X316013Y358939D01*
X316642Y358773D01*
X317267Y358592D01*
X317887Y358395D01*
X318502Y358184D01*
X319111Y357957D01*
X319715Y357716D01*
X320313Y357460D01*
X320904Y357189D01*
X321489Y356903D01*
X322066Y356604D01*
X322636Y356290D01*
X323198Y355963D01*
X323751Y355622D01*
X324297Y355267D01*
X324833Y354899D01*
X325360Y354518D01*
X325878Y354124D01*
X326385Y353718D01*
X326883Y353299D01*
X327370Y352868D01*
X327847Y352426D01*
X328312Y351971D01*
X328767Y351506D01*
X329209Y351029D01*
X329640Y350542D01*
X330059Y350044D01*
X330465Y349537D01*
X330859Y349019D01*
X331240Y348492D01*
X331608Y347956D01*
X331963Y347410D01*
X332304Y346857D01*
X332631Y346295D01*
X332945Y345725D01*
X333244Y345148D01*
X333530Y344563D01*
X333801Y343972D01*
X334057Y343374D01*
X334298Y342770D01*
X334525Y342161D01*
X334736Y341546D01*
X334933Y340926D01*
X335114Y340301D01*
X335280Y339672D01*
X335430Y339039D01*
X335565Y338403D01*
X335684Y337763D01*
X335787Y337121D01*
X335875Y336477D01*
X335946Y335830D01*
X336002Y335182D01*
X336042Y334533D01*
X336066Y333883D01*
X336074Y333233D01*
X336066Y332583D01*
X336042Y331933D01*
X336002Y331284D01*
X335946Y330636D01*
X335875Y329989D01*
X335787Y329345D01*
X335684Y328703D01*
X335565Y328063D01*
X335430Y327427D01*
X335280Y326794D01*
X335114Y326165D01*
X334933Y325540D01*
X334736Y324920D01*
X334525Y324305D01*
X334298Y323696D01*
X334057Y323092D01*
X333801Y322494D01*
X333530Y321903D01*
X333244Y321318D01*
X332945Y320741D01*
X332631Y320171D01*
X332304Y319609D01*
X331963Y319056D01*
X331608Y318510D01*
X331240Y317974D01*
X330859Y317447D01*
X330465Y316929D01*
X330059Y316422D01*
X329640Y315924D01*
X329209Y315437D01*
X328767Y314960D01*
X328312Y314495D01*
X327847Y314040D01*
X327370Y313598D01*
X326883Y313167D01*
X326385Y312748D01*
X325878Y312342D01*
X325360Y311948D01*
X324833Y311567D01*
X324297Y311199D01*
X323751Y310844D01*
X323198Y310503D01*
X322636Y310176D01*
X322066Y309862D01*
X321489Y309563D01*
X320904Y309277D01*
X320313Y309006D01*
X319715Y308750D01*
X319111Y308509D01*
X318502Y308282D01*
X317887Y308071D01*
X317267Y307874D01*
X316642Y307693D01*
X316013Y307527D01*
X315380Y307377D01*
X314744Y307242D01*
X314104Y307123D01*
X313462Y307020D01*
X312818Y306932D01*
X312171Y306861D01*
X311523Y306805D01*
X310874Y306765D01*
X310224Y306741D01*
X309574Y306733D01*
X308924Y306741D01*
X308274Y306765D01*
X307625Y306805D01*
X306977Y306861D01*
X306330Y306932D01*
X305686Y307020D01*
X305044Y307123D01*
X304404Y307242D01*
X303768Y307377D01*
X303135Y307527D01*
X302506Y307693D01*
X301881Y307874D01*
X301261Y308071D01*
X300646Y308282D01*
X300037Y308509D01*
X299433Y308750D01*
X298835Y309006D01*
X298244Y309277D01*
X297659Y309563D01*
X297082Y309862D01*
X296512Y310176D01*
X295950Y310503D01*
X295397Y310844D01*
X294851Y311199D01*
X294315Y311567D01*
X293788Y311948D01*
X293270Y312342D01*
X292763Y312748D01*
X292265Y313167D01*
X291778Y313598D01*
X291301Y314040D01*
X290836Y314495D01*
X290381Y314960D01*
X289939Y315437D01*
X289508Y315924D01*
X289089Y316422D01*
X288683Y316929D01*
X288289Y317447D01*
X287908Y317974D01*
X287540Y318510D01*
X287185Y319056D01*
X286844Y319609D01*
X286517Y320171D01*
X286203Y320741D01*
X285904Y321318D01*
X285618Y321903D01*
X285347Y322494D01*
X285091Y323092D01*
X284850Y323696D01*
X284623Y324305D01*
X284412Y324920D01*
X284215Y325540D01*
X284034Y326165D01*
X283868Y326794D01*
X283718Y327427D01*
X283583Y328063D01*
X283464Y328703D01*
X283361Y329345D01*
X283273Y329989D01*
X283202Y330636D01*
X283146Y331284D01*
X283106Y331933D01*
X283082Y332583D01*
X283074Y333233D01*
X309574Y371333D02*
X309574Y377683D01*
X309574Y371333D02*
X309574Y364983D01*
X309574Y371333D02*
X315924Y371333D01*
X309574Y371333D02*
X303224Y371333D01*
X326084Y333233D02*
X336244Y333233D01*
X326084Y333233D02*
X319734Y333233D01*
X313384Y333233D01*
X294334Y333233D01*
X286714Y333233D01*
X282904Y333233D01*
X286714Y333233D02*
X296874Y310373D01*
X305764Y307833D02*
X294334Y333233D01*
X315924Y317358D02*
X319734Y309103D01*
X324814Y311643D02*
X313384Y333233D01*
X319734Y333233D02*
X329259Y315453D01*
X333069Y320533D02*
X326084Y333233D01*
X309574Y315733D02*
X313384Y309103D01*
D12*
X129967Y315328D02*
X130148Y315940D01*
X130314Y316557D01*
X130465Y317177D01*
X130602Y317801D01*
X130723Y318428D01*
X130830Y319057D01*
X130921Y319689D01*
X130997Y320323D01*
X131058Y320959D01*
X131104Y321596D01*
X131135Y322233D01*
X131150Y322872D01*
X131150Y323510D01*
X131135Y324149D01*
X131104Y324786D01*
X131058Y325423D01*
X130997Y326059D01*
X130921Y326693D01*
X130830Y327325D01*
X130723Y327954D01*
X130602Y328581D01*
X130465Y329205D01*
X130314Y329825D01*
X130148Y330442D01*
X129967Y331054D01*
D11*
X130337Y278918D02*
X130345Y279568D01*
X130369Y280218D01*
X130409Y280867D01*
X130465Y281515D01*
X130536Y282162D01*
X130624Y282806D01*
X130727Y283448D01*
X130846Y284088D01*
X130981Y284724D01*
X131131Y285357D01*
X131297Y285986D01*
X131478Y286611D01*
X131675Y287231D01*
X131886Y287846D01*
X132113Y288455D01*
X132354Y289059D01*
X132610Y289657D01*
X132881Y290248D01*
X133167Y290833D01*
X133466Y291410D01*
X133780Y291980D01*
X134107Y292542D01*
X134448Y293095D01*
X134803Y293641D01*
X135171Y294177D01*
X135552Y294704D01*
X135946Y295222D01*
X136352Y295729D01*
X136771Y296227D01*
X137202Y296714D01*
X137644Y297191D01*
X138099Y297656D01*
X138564Y298111D01*
X139041Y298553D01*
X139528Y298984D01*
X140026Y299403D01*
X140533Y299809D01*
X141051Y300203D01*
X141578Y300584D01*
X142114Y300952D01*
X142660Y301307D01*
X143213Y301648D01*
X143775Y301975D01*
X144345Y302289D01*
X144922Y302588D01*
X145507Y302874D01*
X146098Y303145D01*
X146696Y303401D01*
X147300Y303642D01*
X147909Y303869D01*
X148524Y304080D01*
X149144Y304277D01*
X149769Y304458D01*
X150398Y304624D01*
X151031Y304774D01*
X151667Y304909D01*
X152307Y305028D01*
X152949Y305131D01*
X153593Y305219D01*
X154240Y305290D01*
X154888Y305346D01*
X155537Y305386D01*
X156187Y305410D01*
X156837Y305418D01*
X157487Y305410D01*
X158137Y305386D01*
X158786Y305346D01*
X159434Y305290D01*
X160081Y305219D01*
X160725Y305131D01*
X161367Y305028D01*
X162007Y304909D01*
X162643Y304774D01*
X163276Y304624D01*
X163905Y304458D01*
X164530Y304277D01*
X165150Y304080D01*
X165765Y303869D01*
X166374Y303642D01*
X166978Y303401D01*
X167576Y303145D01*
X168167Y302874D01*
X168752Y302588D01*
X169329Y302289D01*
X169899Y301975D01*
X170461Y301648D01*
X171014Y301307D01*
X171560Y300952D01*
X172096Y300584D01*
X172623Y300203D01*
X173141Y299809D01*
X173648Y299403D01*
X174146Y298984D01*
X174633Y298553D01*
X175110Y298111D01*
X175575Y297656D01*
X176030Y297191D01*
X176472Y296714D01*
X176903Y296227D01*
X177322Y295729D01*
X177728Y295222D01*
X178122Y294704D01*
X178503Y294177D01*
X178871Y293641D01*
X179226Y293095D01*
X179567Y292542D01*
X179894Y291980D01*
X180208Y291410D01*
X180507Y290833D01*
X180793Y290248D01*
X181064Y289657D01*
X181320Y289059D01*
X181561Y288455D01*
X181788Y287846D01*
X181999Y287231D01*
X182196Y286611D01*
X182377Y285986D01*
X182543Y285357D01*
X182693Y284724D01*
X182828Y284088D01*
X182947Y283448D01*
X183050Y282806D01*
X183138Y282162D01*
X183209Y281515D01*
X183265Y280867D01*
X183305Y280218D01*
X183329Y279568D01*
X183337Y278918D01*
X183329Y278268D01*
X183305Y277618D01*
X183265Y276969D01*
X183209Y276321D01*
X183138Y275674D01*
X183050Y275030D01*
X182947Y274388D01*
X182828Y273748D01*
X182693Y273112D01*
X182543Y272479D01*
X182377Y271850D01*
X182196Y271225D01*
X181999Y270605D01*
X181788Y269990D01*
X181561Y269381D01*
X181320Y268777D01*
X181064Y268179D01*
X180793Y267588D01*
X180507Y267003D01*
X180208Y266426D01*
X179894Y265856D01*
X179567Y265294D01*
X179226Y264741D01*
X178871Y264195D01*
X178503Y263659D01*
X178122Y263132D01*
X177728Y262614D01*
X177322Y262107D01*
X176903Y261609D01*
X176472Y261122D01*
X176030Y260645D01*
X175575Y260180D01*
X175110Y259725D01*
X174633Y259283D01*
X174146Y258852D01*
X173648Y258433D01*
X173141Y258027D01*
X172623Y257633D01*
X172096Y257252D01*
X171560Y256884D01*
X171014Y256529D01*
X170461Y256188D01*
X169899Y255861D01*
X169329Y255547D01*
X168752Y255248D01*
X168167Y254962D01*
X167576Y254691D01*
X166978Y254435D01*
X166374Y254194D01*
X165765Y253967D01*
X165150Y253756D01*
X164530Y253559D01*
X163905Y253378D01*
X163276Y253212D01*
X162643Y253062D01*
X162007Y252927D01*
X161367Y252808D01*
X160725Y252705D01*
X160081Y252617D01*
X159434Y252546D01*
X158786Y252490D01*
X158137Y252450D01*
X157487Y252426D01*
X156837Y252418D01*
X156187Y252426D01*
X155537Y252450D01*
X154888Y252490D01*
X154240Y252546D01*
X153593Y252617D01*
X152949Y252705D01*
X152307Y252808D01*
X151667Y252927D01*
X151031Y253062D01*
X150398Y253212D01*
X149769Y253378D01*
X149144Y253559D01*
X148524Y253756D01*
X147909Y253967D01*
X147300Y254194D01*
X146696Y254435D01*
X146098Y254691D01*
X145507Y254962D01*
X144922Y255248D01*
X144345Y255547D01*
X143775Y255861D01*
X143213Y256188D01*
X142660Y256529D01*
X142114Y256884D01*
X141578Y257252D01*
X141051Y257633D01*
X140533Y258027D01*
X140026Y258433D01*
X139528Y258852D01*
X139041Y259283D01*
X138564Y259725D01*
X138099Y260180D01*
X137644Y260645D01*
X137202Y261122D01*
X136771Y261609D01*
X136352Y262107D01*
X135946Y262614D01*
X135552Y263132D01*
X135171Y263659D01*
X134803Y264195D01*
X134448Y264741D01*
X134107Y265294D01*
X133780Y265856D01*
X133466Y266426D01*
X133167Y267003D01*
X132881Y267588D01*
X132610Y268179D01*
X132354Y268777D01*
X132113Y269381D01*
X131886Y269990D01*
X131675Y270605D01*
X131478Y271225D01*
X131297Y271850D01*
X131131Y272479D01*
X130981Y273112D01*
X130846Y273748D01*
X130727Y274388D01*
X130624Y275030D01*
X130536Y275674D01*
X130465Y276321D01*
X130409Y276969D01*
X130369Y277618D01*
X130345Y278268D01*
X130337Y278918D01*
X118737Y278918D02*
X112387Y278918D01*
X118737Y278918D02*
X125087Y278918D01*
X118737Y278918D02*
X118737Y285268D01*
X118737Y278918D02*
X118737Y272568D01*
X156837Y295428D02*
X156837Y305588D01*
X156837Y295428D02*
X156837Y289078D01*
X156837Y282728D01*
X156837Y263678D01*
X156837Y256058D01*
X156837Y252248D01*
X156837Y256058D02*
X179697Y266218D01*
X182237Y275108D02*
X156837Y263678D01*
X172712Y285268D02*
X180967Y289078D01*
X178427Y294158D02*
X156837Y282728D01*
X156837Y289078D02*
X174617Y298603D01*
X169537Y302413D02*
X156837Y295428D01*
X174337Y278918D02*
X180967Y282728D01*
X133836Y333951D02*
X133844Y334601D01*
X133868Y335251D01*
X133908Y335900D01*
X133964Y336548D01*
X134035Y337195D01*
X134123Y337839D01*
X134226Y338481D01*
X134345Y339121D01*
X134480Y339757D01*
X134630Y340390D01*
X134796Y341019D01*
X134977Y341644D01*
X135174Y342264D01*
X135385Y342879D01*
X135612Y343488D01*
X135853Y344092D01*
X136109Y344690D01*
X136380Y345281D01*
X136666Y345866D01*
X136965Y346443D01*
X137279Y347013D01*
X137606Y347575D01*
X137947Y348128D01*
X138302Y348674D01*
X138670Y349210D01*
X139051Y349737D01*
X139445Y350255D01*
X139851Y350762D01*
X140270Y351260D01*
X140701Y351747D01*
X141143Y352224D01*
X141598Y352689D01*
X142063Y353144D01*
X142540Y353586D01*
X143027Y354017D01*
X143525Y354436D01*
X144032Y354842D01*
X144550Y355236D01*
X145077Y355617D01*
X145613Y355985D01*
X146159Y356340D01*
X146712Y356681D01*
X147274Y357008D01*
X147844Y357322D01*
X148421Y357621D01*
X149006Y357907D01*
X149597Y358178D01*
X150195Y358434D01*
X150799Y358675D01*
X151408Y358902D01*
X152023Y359113D01*
X152643Y359310D01*
X153268Y359491D01*
X153897Y359657D01*
X154530Y359807D01*
X155166Y359942D01*
X155806Y360061D01*
X156448Y360164D01*
X157092Y360252D01*
X157739Y360323D01*
X158387Y360379D01*
X159036Y360419D01*
X159686Y360443D01*
X160336Y360451D01*
X160986Y360443D01*
X161636Y360419D01*
X162285Y360379D01*
X162933Y360323D01*
X163580Y360252D01*
X164224Y360164D01*
X164866Y360061D01*
X165506Y359942D01*
X166142Y359807D01*
X166775Y359657D01*
X167404Y359491D01*
X168029Y359310D01*
X168649Y359113D01*
X169264Y358902D01*
X169873Y358675D01*
X170477Y358434D01*
X171075Y358178D01*
X171666Y357907D01*
X172251Y357621D01*
X172828Y357322D01*
X173398Y357008D01*
X173960Y356681D01*
X174513Y356340D01*
X175059Y355985D01*
X175595Y355617D01*
X176122Y355236D01*
X176640Y354842D01*
X177147Y354436D01*
X177645Y354017D01*
X178132Y353586D01*
X178609Y353144D01*
X179074Y352689D01*
X179529Y352224D01*
X179971Y351747D01*
X180402Y351260D01*
X180821Y350762D01*
X181227Y350255D01*
X181621Y349737D01*
X182002Y349210D01*
X182370Y348674D01*
X182725Y348128D01*
X183066Y347575D01*
X183393Y347013D01*
X183707Y346443D01*
X184006Y345866D01*
X184292Y345281D01*
X184563Y344690D01*
X184819Y344092D01*
X185060Y343488D01*
X185287Y342879D01*
X185498Y342264D01*
X185695Y341644D01*
X185876Y341019D01*
X186042Y340390D01*
X186192Y339757D01*
X186327Y339121D01*
X186446Y338481D01*
X186549Y337839D01*
X186637Y337195D01*
X186708Y336548D01*
X186764Y335900D01*
X186804Y335251D01*
X186828Y334601D01*
X186836Y333951D01*
X186828Y333301D01*
X186804Y332651D01*
X186764Y332002D01*
X186708Y331354D01*
X186637Y330707D01*
X186549Y330063D01*
X186446Y329421D01*
X186327Y328781D01*
X186192Y328145D01*
X186042Y327512D01*
X185876Y326883D01*
X185695Y326258D01*
X185498Y325638D01*
X185287Y325023D01*
X185060Y324414D01*
X184819Y323810D01*
X184563Y323212D01*
X184292Y322621D01*
X184006Y322036D01*
X183707Y321459D01*
X183393Y320889D01*
X183066Y320327D01*
X182725Y319774D01*
X182370Y319228D01*
X182002Y318692D01*
X181621Y318165D01*
X181227Y317647D01*
X180821Y317140D01*
X180402Y316642D01*
X179971Y316155D01*
X179529Y315678D01*
X179074Y315213D01*
X178609Y314758D01*
X178132Y314316D01*
X177645Y313885D01*
X177147Y313466D01*
X176640Y313060D01*
X176122Y312666D01*
X175595Y312285D01*
X175059Y311917D01*
X174513Y311562D01*
X173960Y311221D01*
X173398Y310894D01*
X172828Y310580D01*
X172251Y310281D01*
X171666Y309995D01*
X171075Y309724D01*
X170477Y309468D01*
X169873Y309227D01*
X169264Y309000D01*
X168649Y308789D01*
X168029Y308592D01*
X167404Y308411D01*
X166775Y308245D01*
X166142Y308095D01*
X165506Y307960D01*
X164866Y307841D01*
X164224Y307738D01*
X163580Y307650D01*
X162933Y307579D01*
X162285Y307523D01*
X161636Y307483D01*
X160986Y307459D01*
X160336Y307451D01*
X159686Y307459D01*
X159036Y307483D01*
X158387Y307523D01*
X157739Y307579D01*
X157092Y307650D01*
X156448Y307738D01*
X155806Y307841D01*
X155166Y307960D01*
X154530Y308095D01*
X153897Y308245D01*
X153268Y308411D01*
X152643Y308592D01*
X152023Y308789D01*
X151408Y309000D01*
X150799Y309227D01*
X150195Y309468D01*
X149597Y309724D01*
X149006Y309995D01*
X148421Y310281D01*
X147844Y310580D01*
X147274Y310894D01*
X146712Y311221D01*
X146159Y311562D01*
X145613Y311917D01*
X145077Y312285D01*
X144550Y312666D01*
X144032Y313060D01*
X143525Y313466D01*
X143027Y313885D01*
X142540Y314316D01*
X142063Y314758D01*
X141598Y315213D01*
X141143Y315678D01*
X140701Y316155D01*
X140270Y316642D01*
X139851Y317140D01*
X139445Y317647D01*
X139051Y318165D01*
X138670Y318692D01*
X138302Y319228D01*
X137947Y319774D01*
X137606Y320327D01*
X137279Y320889D01*
X136965Y321459D01*
X136666Y322036D01*
X136380Y322621D01*
X136109Y323212D01*
X135853Y323810D01*
X135612Y324414D01*
X135385Y325023D01*
X135174Y325638D01*
X134977Y326258D01*
X134796Y326883D01*
X134630Y327512D01*
X134480Y328145D01*
X134345Y328781D01*
X134226Y329421D01*
X134123Y330063D01*
X134035Y330707D01*
X133964Y331354D01*
X133908Y332002D01*
X133868Y332651D01*
X133844Y333301D01*
X133836Y333951D01*
X160336Y372051D02*
X160336Y378401D01*
X160336Y372051D02*
X160336Y365701D01*
X160336Y372051D02*
X166686Y372051D01*
X160336Y372051D02*
X153986Y372051D01*
X176846Y333951D02*
X187006Y333951D01*
X176846Y333951D02*
X170496Y333951D01*
X164146Y333951D01*
X145096Y333951D01*
X137476Y333951D01*
X133666Y333951D01*
X137476Y333951D02*
X147636Y311091D01*
X156526Y308551D02*
X145096Y333951D01*
X166686Y318076D02*
X170496Y309821D01*
X175576Y312361D02*
X164146Y333951D01*
X170496Y333951D02*
X180021Y316171D01*
X183831Y321251D02*
X176846Y333951D01*
X160336Y316451D02*
X164146Y309821D01*
D10*
X387260Y309422D02*
X387260Y317860D01*
X387261Y309422D02*
X387259Y309309D01*
X387253Y309196D01*
X387243Y309083D01*
X387229Y308970D01*
X387212Y308858D01*
X387190Y308747D01*
X387165Y308637D01*
X387135Y308527D01*
X387102Y308419D01*
X387065Y308312D01*
X387025Y308206D01*
X386980Y308102D01*
X386932Y307999D01*
X386881Y307898D01*
X386826Y307799D01*
X386768Y307702D01*
X386706Y307607D01*
X386641Y307514D01*
X386573Y307424D01*
X386502Y307336D01*
X386427Y307250D01*
X386350Y307167D01*
X386270Y307087D01*
X386187Y307010D01*
X386101Y306935D01*
X386013Y306864D01*
X385923Y306796D01*
X385830Y306731D01*
X385735Y306669D01*
X385638Y306611D01*
X385539Y306556D01*
X385438Y306505D01*
X385335Y306457D01*
X385231Y306412D01*
X385125Y306372D01*
X385018Y306335D01*
X384910Y306302D01*
X384800Y306272D01*
X384690Y306247D01*
X384579Y306225D01*
X384467Y306208D01*
X384354Y306194D01*
X384241Y306184D01*
X384128Y306178D01*
X384015Y306176D01*
X383902Y306178D01*
X383789Y306184D01*
X383676Y306194D01*
X383563Y306208D01*
X383451Y306225D01*
X383340Y306247D01*
X383230Y306272D01*
X383120Y306302D01*
X383012Y306335D01*
X382905Y306372D01*
X382799Y306412D01*
X382695Y306457D01*
X382592Y306505D01*
X382491Y306556D01*
X382392Y306611D01*
X382295Y306669D01*
X382200Y306731D01*
X382107Y306796D01*
X382017Y306864D01*
X381929Y306935D01*
X381843Y307010D01*
X381760Y307087D01*
X381680Y307167D01*
X381603Y307250D01*
X381528Y307336D01*
X381457Y307424D01*
X381389Y307514D01*
X381324Y307607D01*
X381262Y307702D01*
X381204Y307799D01*
X381149Y307898D01*
X381098Y307999D01*
X381050Y308102D01*
X381005Y308206D01*
X380965Y308312D01*
X380928Y308419D01*
X380895Y308527D01*
X380865Y308637D01*
X380840Y308747D01*
X380818Y308858D01*
X380801Y308970D01*
X380787Y309083D01*
X380777Y309196D01*
X380771Y309309D01*
X380769Y309422D01*
X380769Y317860D01*
X372966Y317860D02*
X372966Y306176D01*
X372966Y312018D02*
X374588Y312992D01*
X374589Y312992D02*
X374662Y313039D01*
X374733Y313088D01*
X374803Y313141D01*
X374869Y313197D01*
X374933Y313256D01*
X374995Y313317D01*
X375053Y313381D01*
X375109Y313448D01*
X375161Y313517D01*
X375211Y313589D01*
X375257Y313663D01*
X375300Y313738D01*
X375339Y313816D01*
X375375Y313895D01*
X375407Y313976D01*
X375436Y314058D01*
X375461Y314141D01*
X375482Y314225D01*
X375499Y314310D01*
X375513Y314396D01*
X375522Y314482D01*
X375528Y314569D01*
X375530Y314656D01*
X375528Y314743D01*
X375522Y314830D01*
X375512Y314916D01*
X375499Y315002D01*
X375481Y315087D01*
X375460Y315171D01*
X375435Y315254D01*
X375406Y315337D01*
X375374Y315417D01*
X375338Y315496D01*
X375299Y315574D01*
X375256Y315649D01*
X375209Y315723D01*
X375160Y315794D01*
X375107Y315864D01*
X375052Y315930D01*
X374993Y315994D01*
X374932Y316056D01*
X374867Y316115D01*
X374801Y316170D01*
X374732Y316223D01*
X374660Y316273D01*
X374587Y316319D01*
X374511Y316362D01*
X374434Y316401D01*
X374355Y316437D01*
X374274Y316470D01*
X374192Y316498D01*
X374109Y316524D01*
X374025Y316545D01*
X373939Y316562D01*
X373799Y316586D01*
X373657Y316606D01*
X373516Y316622D01*
X373374Y316633D01*
X373231Y316641D01*
X373089Y316645D01*
X372946Y316646D01*
X372803Y316642D01*
X372661Y316634D01*
X372519Y316622D01*
X372377Y316606D01*
X372236Y316587D01*
X372095Y316563D01*
X371955Y316536D01*
X371816Y316504D01*
X371678Y316469D01*
X371540Y316430D01*
X371404Y316387D01*
X371270Y316341D01*
X371136Y316290D01*
X371004Y316237D01*
X370874Y316179D01*
X370745Y316118D01*
X370618Y316053D01*
X370492Y315985D01*
X370369Y315913D01*
X372966Y312018D02*
X371343Y311045D01*
X371270Y310998D01*
X371199Y310949D01*
X371129Y310896D01*
X371063Y310840D01*
X370999Y310781D01*
X370937Y310720D01*
X370879Y310656D01*
X370823Y310589D01*
X370771Y310520D01*
X370721Y310448D01*
X370675Y310374D01*
X370632Y310299D01*
X370593Y310221D01*
X370557Y310142D01*
X370525Y310061D01*
X370496Y309979D01*
X370471Y309896D01*
X370450Y309812D01*
X370433Y309727D01*
X370419Y309641D01*
X370410Y309555D01*
X370404Y309468D01*
X370402Y309381D01*
X370404Y309294D01*
X370410Y309207D01*
X370420Y309121D01*
X370433Y309035D01*
X370451Y308950D01*
X370472Y308866D01*
X370497Y308783D01*
X370526Y308700D01*
X370558Y308620D01*
X370594Y308541D01*
X370633Y308463D01*
X370676Y308388D01*
X370723Y308314D01*
X370772Y308243D01*
X370825Y308173D01*
X370880Y308107D01*
X370939Y308043D01*
X371000Y307981D01*
X371065Y307922D01*
X371131Y307867D01*
X371200Y307814D01*
X371272Y307764D01*
X371345Y307718D01*
X371421Y307675D01*
X371498Y307636D01*
X371577Y307600D01*
X371658Y307567D01*
X371740Y307539D01*
X371823Y307513D01*
X371907Y307492D01*
X371992Y307475D01*
X371992Y307474D02*
X372132Y307450D01*
X372274Y307430D01*
X372415Y307414D01*
X372557Y307403D01*
X372700Y307395D01*
X372842Y307391D01*
X372985Y307390D01*
X373128Y307394D01*
X373270Y307402D01*
X373412Y307414D01*
X373554Y307430D01*
X373695Y307449D01*
X373836Y307473D01*
X373976Y307500D01*
X374115Y307532D01*
X374253Y307567D01*
X374391Y307606D01*
X374527Y307649D01*
X374661Y307695D01*
X374795Y307746D01*
X374927Y307799D01*
X375058Y307857D01*
X375186Y307918D01*
X375313Y307983D01*
X375439Y308051D01*
X375562Y308123D01*
X365543Y306176D02*
X361649Y306176D01*
X361649Y306177D02*
X361550Y306179D01*
X361450Y306185D01*
X361351Y306194D01*
X361253Y306207D01*
X361155Y306224D01*
X361057Y306245D01*
X360961Y306270D01*
X360866Y306298D01*
X360772Y306330D01*
X360679Y306365D01*
X360587Y306404D01*
X360497Y306447D01*
X360409Y306492D01*
X360322Y306542D01*
X360238Y306594D01*
X360155Y306650D01*
X360075Y306708D01*
X359997Y306770D01*
X359922Y306835D01*
X359849Y306903D01*
X359779Y306973D01*
X359711Y307046D01*
X359646Y307121D01*
X359584Y307199D01*
X359526Y307279D01*
X359470Y307362D01*
X359418Y307446D01*
X359368Y307533D01*
X359323Y307621D01*
X359280Y307711D01*
X359241Y307803D01*
X359206Y307896D01*
X359174Y307990D01*
X359146Y308085D01*
X359121Y308181D01*
X359100Y308279D01*
X359083Y308377D01*
X359070Y308475D01*
X359061Y308574D01*
X359055Y308674D01*
X359053Y308773D01*
X359052Y308773D02*
X359052Y310071D01*
X359053Y310071D02*
X359055Y310170D01*
X359061Y310270D01*
X359070Y310369D01*
X359083Y310467D01*
X359100Y310565D01*
X359121Y310663D01*
X359146Y310759D01*
X359174Y310854D01*
X359206Y310948D01*
X359241Y311041D01*
X359280Y311133D01*
X359323Y311223D01*
X359368Y311311D01*
X359418Y311398D01*
X359470Y311482D01*
X359526Y311565D01*
X359584Y311645D01*
X359646Y311723D01*
X359711Y311798D01*
X359779Y311871D01*
X359849Y311941D01*
X359922Y312009D01*
X359997Y312074D01*
X360075Y312136D01*
X360155Y312194D01*
X360238Y312250D01*
X360322Y312302D01*
X360409Y312352D01*
X360497Y312397D01*
X360587Y312440D01*
X360679Y312479D01*
X360772Y312514D01*
X360866Y312546D01*
X360961Y312574D01*
X361057Y312599D01*
X361155Y312620D01*
X361253Y312637D01*
X361351Y312650D01*
X361450Y312659D01*
X361550Y312665D01*
X361649Y312667D01*
X365543Y312667D01*
X365543Y317860D01*
X359052Y317860D01*
X351517Y317860D02*
X354113Y308773D01*
X347622Y308773D01*
X349570Y311369D02*
X349570Y306176D01*
D11*
X683510Y774192D02*
X683518Y774842D01*
X683542Y775492D01*
X683582Y776141D01*
X683638Y776789D01*
X683709Y777436D01*
X683797Y778080D01*
X683900Y778722D01*
X684019Y779362D01*
X684154Y779998D01*
X684304Y780631D01*
X684470Y781260D01*
X684651Y781885D01*
X684848Y782505D01*
X685059Y783120D01*
X685286Y783729D01*
X685527Y784333D01*
X685783Y784931D01*
X686054Y785522D01*
X686340Y786107D01*
X686639Y786684D01*
X686953Y787254D01*
X687280Y787816D01*
X687621Y788369D01*
X687976Y788915D01*
X688344Y789451D01*
X688725Y789978D01*
X689119Y790496D01*
X689525Y791003D01*
X689944Y791501D01*
X690375Y791988D01*
X690817Y792465D01*
X691272Y792930D01*
X691737Y793385D01*
X692214Y793827D01*
X692701Y794258D01*
X693199Y794677D01*
X693706Y795083D01*
X694224Y795477D01*
X694751Y795858D01*
X695287Y796226D01*
X695833Y796581D01*
X696386Y796922D01*
X696948Y797249D01*
X697518Y797563D01*
X698095Y797862D01*
X698680Y798148D01*
X699271Y798419D01*
X699869Y798675D01*
X700473Y798916D01*
X701082Y799143D01*
X701697Y799354D01*
X702317Y799551D01*
X702942Y799732D01*
X703571Y799898D01*
X704204Y800048D01*
X704840Y800183D01*
X705480Y800302D01*
X706122Y800405D01*
X706766Y800493D01*
X707413Y800564D01*
X708061Y800620D01*
X708710Y800660D01*
X709360Y800684D01*
X710010Y800692D01*
X710660Y800684D01*
X711310Y800660D01*
X711959Y800620D01*
X712607Y800564D01*
X713254Y800493D01*
X713898Y800405D01*
X714540Y800302D01*
X715180Y800183D01*
X715816Y800048D01*
X716449Y799898D01*
X717078Y799732D01*
X717703Y799551D01*
X718323Y799354D01*
X718938Y799143D01*
X719547Y798916D01*
X720151Y798675D01*
X720749Y798419D01*
X721340Y798148D01*
X721925Y797862D01*
X722502Y797563D01*
X723072Y797249D01*
X723634Y796922D01*
X724187Y796581D01*
X724733Y796226D01*
X725269Y795858D01*
X725796Y795477D01*
X726314Y795083D01*
X726821Y794677D01*
X727319Y794258D01*
X727806Y793827D01*
X728283Y793385D01*
X728748Y792930D01*
X729203Y792465D01*
X729645Y791988D01*
X730076Y791501D01*
X730495Y791003D01*
X730901Y790496D01*
X731295Y789978D01*
X731676Y789451D01*
X732044Y788915D01*
X732399Y788369D01*
X732740Y787816D01*
X733067Y787254D01*
X733381Y786684D01*
X733680Y786107D01*
X733966Y785522D01*
X734237Y784931D01*
X734493Y784333D01*
X734734Y783729D01*
X734961Y783120D01*
X735172Y782505D01*
X735369Y781885D01*
X735550Y781260D01*
X735716Y780631D01*
X735866Y779998D01*
X736001Y779362D01*
X736120Y778722D01*
X736223Y778080D01*
X736311Y777436D01*
X736382Y776789D01*
X736438Y776141D01*
X736478Y775492D01*
X736502Y774842D01*
X736510Y774192D01*
X736502Y773542D01*
X736478Y772892D01*
X736438Y772243D01*
X736382Y771595D01*
X736311Y770948D01*
X736223Y770304D01*
X736120Y769662D01*
X736001Y769022D01*
X735866Y768386D01*
X735716Y767753D01*
X735550Y767124D01*
X735369Y766499D01*
X735172Y765879D01*
X734961Y765264D01*
X734734Y764655D01*
X734493Y764051D01*
X734237Y763453D01*
X733966Y762862D01*
X733680Y762277D01*
X733381Y761700D01*
X733067Y761130D01*
X732740Y760568D01*
X732399Y760015D01*
X732044Y759469D01*
X731676Y758933D01*
X731295Y758406D01*
X730901Y757888D01*
X730495Y757381D01*
X730076Y756883D01*
X729645Y756396D01*
X729203Y755919D01*
X728748Y755454D01*
X728283Y754999D01*
X727806Y754557D01*
X727319Y754126D01*
X726821Y753707D01*
X726314Y753301D01*
X725796Y752907D01*
X725269Y752526D01*
X724733Y752158D01*
X724187Y751803D01*
X723634Y751462D01*
X723072Y751135D01*
X722502Y750821D01*
X721925Y750522D01*
X721340Y750236D01*
X720749Y749965D01*
X720151Y749709D01*
X719547Y749468D01*
X718938Y749241D01*
X718323Y749030D01*
X717703Y748833D01*
X717078Y748652D01*
X716449Y748486D01*
X715816Y748336D01*
X715180Y748201D01*
X714540Y748082D01*
X713898Y747979D01*
X713254Y747891D01*
X712607Y747820D01*
X711959Y747764D01*
X711310Y747724D01*
X710660Y747700D01*
X710010Y747692D01*
X709360Y747700D01*
X708710Y747724D01*
X708061Y747764D01*
X707413Y747820D01*
X706766Y747891D01*
X706122Y747979D01*
X705480Y748082D01*
X704840Y748201D01*
X704204Y748336D01*
X703571Y748486D01*
X702942Y748652D01*
X702317Y748833D01*
X701697Y749030D01*
X701082Y749241D01*
X700473Y749468D01*
X699869Y749709D01*
X699271Y749965D01*
X698680Y750236D01*
X698095Y750522D01*
X697518Y750821D01*
X696948Y751135D01*
X696386Y751462D01*
X695833Y751803D01*
X695287Y752158D01*
X694751Y752526D01*
X694224Y752907D01*
X693706Y753301D01*
X693199Y753707D01*
X692701Y754126D01*
X692214Y754557D01*
X691737Y754999D01*
X691272Y755454D01*
X690817Y755919D01*
X690375Y756396D01*
X689944Y756883D01*
X689525Y757381D01*
X689119Y757888D01*
X688725Y758406D01*
X688344Y758933D01*
X687976Y759469D01*
X687621Y760015D01*
X687280Y760568D01*
X686953Y761130D01*
X686639Y761700D01*
X686340Y762277D01*
X686054Y762862D01*
X685783Y763453D01*
X685527Y764051D01*
X685286Y764655D01*
X685059Y765264D01*
X684848Y765879D01*
X684651Y766499D01*
X684470Y767124D01*
X684304Y767753D01*
X684154Y768386D01*
X684019Y769022D01*
X683900Y769662D01*
X683797Y770304D01*
X683709Y770948D01*
X683638Y771595D01*
X683582Y772243D01*
X683542Y772892D01*
X683518Y773542D01*
X683510Y774192D01*
X710010Y812292D02*
X710010Y818642D01*
X710010Y812292D02*
X710010Y805942D01*
X710010Y812292D02*
X716360Y812292D01*
X710010Y812292D02*
X703660Y812292D01*
X726520Y774192D02*
X736680Y774192D01*
X726520Y774192D02*
X720170Y774192D01*
X713820Y774192D01*
X694770Y774192D01*
X687150Y774192D01*
X683340Y774192D01*
X687150Y774192D02*
X697310Y751332D01*
X706200Y748792D02*
X694770Y774192D01*
X716360Y758317D02*
X720170Y750062D01*
X725250Y752602D02*
X713820Y774192D01*
X720170Y774192D02*
X729695Y756412D01*
X733505Y761492D02*
X726520Y774192D01*
X710010Y756692D02*
X713820Y750062D01*
X770911Y900069D02*
X770919Y900719D01*
X770943Y901369D01*
X770983Y902018D01*
X771039Y902666D01*
X771110Y903313D01*
X771198Y903957D01*
X771301Y904599D01*
X771420Y905239D01*
X771555Y905875D01*
X771705Y906508D01*
X771871Y907137D01*
X772052Y907762D01*
X772249Y908382D01*
X772460Y908997D01*
X772687Y909606D01*
X772928Y910210D01*
X773184Y910808D01*
X773455Y911399D01*
X773741Y911984D01*
X774040Y912561D01*
X774354Y913131D01*
X774681Y913693D01*
X775022Y914246D01*
X775377Y914792D01*
X775745Y915328D01*
X776126Y915855D01*
X776520Y916373D01*
X776926Y916880D01*
X777345Y917378D01*
X777776Y917865D01*
X778218Y918342D01*
X778673Y918807D01*
X779138Y919262D01*
X779615Y919704D01*
X780102Y920135D01*
X780600Y920554D01*
X781107Y920960D01*
X781625Y921354D01*
X782152Y921735D01*
X782688Y922103D01*
X783234Y922458D01*
X783787Y922799D01*
X784349Y923126D01*
X784919Y923440D01*
X785496Y923739D01*
X786081Y924025D01*
X786672Y924296D01*
X787270Y924552D01*
X787874Y924793D01*
X788483Y925020D01*
X789098Y925231D01*
X789718Y925428D01*
X790343Y925609D01*
X790972Y925775D01*
X791605Y925925D01*
X792241Y926060D01*
X792881Y926179D01*
X793523Y926282D01*
X794167Y926370D01*
X794814Y926441D01*
X795462Y926497D01*
X796111Y926537D01*
X796761Y926561D01*
X797411Y926569D01*
X798061Y926561D01*
X798711Y926537D01*
X799360Y926497D01*
X800008Y926441D01*
X800655Y926370D01*
X801299Y926282D01*
X801941Y926179D01*
X802581Y926060D01*
X803217Y925925D01*
X803850Y925775D01*
X804479Y925609D01*
X805104Y925428D01*
X805724Y925231D01*
X806339Y925020D01*
X806948Y924793D01*
X807552Y924552D01*
X808150Y924296D01*
X808741Y924025D01*
X809326Y923739D01*
X809903Y923440D01*
X810473Y923126D01*
X811035Y922799D01*
X811588Y922458D01*
X812134Y922103D01*
X812670Y921735D01*
X813197Y921354D01*
X813715Y920960D01*
X814222Y920554D01*
X814720Y920135D01*
X815207Y919704D01*
X815684Y919262D01*
X816149Y918807D01*
X816604Y918342D01*
X817046Y917865D01*
X817477Y917378D01*
X817896Y916880D01*
X818302Y916373D01*
X818696Y915855D01*
X819077Y915328D01*
X819445Y914792D01*
X819800Y914246D01*
X820141Y913693D01*
X820468Y913131D01*
X820782Y912561D01*
X821081Y911984D01*
X821367Y911399D01*
X821638Y910808D01*
X821894Y910210D01*
X822135Y909606D01*
X822362Y908997D01*
X822573Y908382D01*
X822770Y907762D01*
X822951Y907137D01*
X823117Y906508D01*
X823267Y905875D01*
X823402Y905239D01*
X823521Y904599D01*
X823624Y903957D01*
X823712Y903313D01*
X823783Y902666D01*
X823839Y902018D01*
X823879Y901369D01*
X823903Y900719D01*
X823911Y900069D01*
X823903Y899419D01*
X823879Y898769D01*
X823839Y898120D01*
X823783Y897472D01*
X823712Y896825D01*
X823624Y896181D01*
X823521Y895539D01*
X823402Y894899D01*
X823267Y894263D01*
X823117Y893630D01*
X822951Y893001D01*
X822770Y892376D01*
X822573Y891756D01*
X822362Y891141D01*
X822135Y890532D01*
X821894Y889928D01*
X821638Y889330D01*
X821367Y888739D01*
X821081Y888154D01*
X820782Y887577D01*
X820468Y887007D01*
X820141Y886445D01*
X819800Y885892D01*
X819445Y885346D01*
X819077Y884810D01*
X818696Y884283D01*
X818302Y883765D01*
X817896Y883258D01*
X817477Y882760D01*
X817046Y882273D01*
X816604Y881796D01*
X816149Y881331D01*
X815684Y880876D01*
X815207Y880434D01*
X814720Y880003D01*
X814222Y879584D01*
X813715Y879178D01*
X813197Y878784D01*
X812670Y878403D01*
X812134Y878035D01*
X811588Y877680D01*
X811035Y877339D01*
X810473Y877012D01*
X809903Y876698D01*
X809326Y876399D01*
X808741Y876113D01*
X808150Y875842D01*
X807552Y875586D01*
X806948Y875345D01*
X806339Y875118D01*
X805724Y874907D01*
X805104Y874710D01*
X804479Y874529D01*
X803850Y874363D01*
X803217Y874213D01*
X802581Y874078D01*
X801941Y873959D01*
X801299Y873856D01*
X800655Y873768D01*
X800008Y873697D01*
X799360Y873641D01*
X798711Y873601D01*
X798061Y873577D01*
X797411Y873569D01*
X796761Y873577D01*
X796111Y873601D01*
X795462Y873641D01*
X794814Y873697D01*
X794167Y873768D01*
X793523Y873856D01*
X792881Y873959D01*
X792241Y874078D01*
X791605Y874213D01*
X790972Y874363D01*
X790343Y874529D01*
X789718Y874710D01*
X789098Y874907D01*
X788483Y875118D01*
X787874Y875345D01*
X787270Y875586D01*
X786672Y875842D01*
X786081Y876113D01*
X785496Y876399D01*
X784919Y876698D01*
X784349Y877012D01*
X783787Y877339D01*
X783234Y877680D01*
X782688Y878035D01*
X782152Y878403D01*
X781625Y878784D01*
X781107Y879178D01*
X780600Y879584D01*
X780102Y880003D01*
X779615Y880434D01*
X779138Y880876D01*
X778673Y881331D01*
X778218Y881796D01*
X777776Y882273D01*
X777345Y882760D01*
X776926Y883258D01*
X776520Y883765D01*
X776126Y884283D01*
X775745Y884810D01*
X775377Y885346D01*
X775022Y885892D01*
X774681Y886445D01*
X774354Y887007D01*
X774040Y887577D01*
X773741Y888154D01*
X773455Y888739D01*
X773184Y889330D01*
X772928Y889928D01*
X772687Y890532D01*
X772460Y891141D01*
X772249Y891756D01*
X772052Y892376D01*
X771871Y893001D01*
X771705Y893630D01*
X771555Y894263D01*
X771420Y894899D01*
X771301Y895539D01*
X771198Y896181D01*
X771110Y896825D01*
X771039Y897472D01*
X770983Y898120D01*
X770943Y898769D01*
X770919Y899419D01*
X770911Y900069D01*
X797411Y861969D02*
X797411Y855619D01*
X797411Y861969D02*
X797411Y868319D01*
X797411Y861969D02*
X791061Y861969D01*
X797411Y861969D02*
X803761Y861969D01*
X780901Y900069D02*
X770741Y900069D01*
X780901Y900069D02*
X787251Y900069D01*
X793601Y900069D01*
X812651Y900069D01*
X820271Y900069D01*
X824081Y900069D01*
X820271Y900069D02*
X810111Y922929D01*
X801221Y925469D02*
X812651Y900069D01*
X791061Y915944D02*
X787251Y924199D01*
X782171Y921659D02*
X793601Y900069D01*
X787251Y900069D02*
X777726Y917849D01*
X773916Y912769D02*
X780901Y900069D01*
X797411Y917569D02*
X793601Y924199D01*
X630103Y682681D02*
X630111Y683331D01*
X630135Y683981D01*
X630175Y684630D01*
X630231Y685278D01*
X630302Y685925D01*
X630390Y686569D01*
X630493Y687211D01*
X630612Y687851D01*
X630747Y688487D01*
X630897Y689120D01*
X631063Y689749D01*
X631244Y690374D01*
X631441Y690994D01*
X631652Y691609D01*
X631879Y692218D01*
X632120Y692822D01*
X632376Y693420D01*
X632647Y694011D01*
X632933Y694596D01*
X633232Y695173D01*
X633546Y695743D01*
X633873Y696305D01*
X634214Y696858D01*
X634569Y697404D01*
X634937Y697940D01*
X635318Y698467D01*
X635712Y698985D01*
X636118Y699492D01*
X636537Y699990D01*
X636968Y700477D01*
X637410Y700954D01*
X637865Y701419D01*
X638330Y701874D01*
X638807Y702316D01*
X639294Y702747D01*
X639792Y703166D01*
X640299Y703572D01*
X640817Y703966D01*
X641344Y704347D01*
X641880Y704715D01*
X642426Y705070D01*
X642979Y705411D01*
X643541Y705738D01*
X644111Y706052D01*
X644688Y706351D01*
X645273Y706637D01*
X645864Y706908D01*
X646462Y707164D01*
X647066Y707405D01*
X647675Y707632D01*
X648290Y707843D01*
X648910Y708040D01*
X649535Y708221D01*
X650164Y708387D01*
X650797Y708537D01*
X651433Y708672D01*
X652073Y708791D01*
X652715Y708894D01*
X653359Y708982D01*
X654006Y709053D01*
X654654Y709109D01*
X655303Y709149D01*
X655953Y709173D01*
X656603Y709181D01*
X657253Y709173D01*
X657903Y709149D01*
X658552Y709109D01*
X659200Y709053D01*
X659847Y708982D01*
X660491Y708894D01*
X661133Y708791D01*
X661773Y708672D01*
X662409Y708537D01*
X663042Y708387D01*
X663671Y708221D01*
X664296Y708040D01*
X664916Y707843D01*
X665531Y707632D01*
X666140Y707405D01*
X666744Y707164D01*
X667342Y706908D01*
X667933Y706637D01*
X668518Y706351D01*
X669095Y706052D01*
X669665Y705738D01*
X670227Y705411D01*
X670780Y705070D01*
X671326Y704715D01*
X671862Y704347D01*
X672389Y703966D01*
X672907Y703572D01*
X673414Y703166D01*
X673912Y702747D01*
X674399Y702316D01*
X674876Y701874D01*
X675341Y701419D01*
X675796Y700954D01*
X676238Y700477D01*
X676669Y699990D01*
X677088Y699492D01*
X677494Y698985D01*
X677888Y698467D01*
X678269Y697940D01*
X678637Y697404D01*
X678992Y696858D01*
X679333Y696305D01*
X679660Y695743D01*
X679974Y695173D01*
X680273Y694596D01*
X680559Y694011D01*
X680830Y693420D01*
X681086Y692822D01*
X681327Y692218D01*
X681554Y691609D01*
X681765Y690994D01*
X681962Y690374D01*
X682143Y689749D01*
X682309Y689120D01*
X682459Y688487D01*
X682594Y687851D01*
X682713Y687211D01*
X682816Y686569D01*
X682904Y685925D01*
X682975Y685278D01*
X683031Y684630D01*
X683071Y683981D01*
X683095Y683331D01*
X683103Y682681D01*
X683095Y682031D01*
X683071Y681381D01*
X683031Y680732D01*
X682975Y680084D01*
X682904Y679437D01*
X682816Y678793D01*
X682713Y678151D01*
X682594Y677511D01*
X682459Y676875D01*
X682309Y676242D01*
X682143Y675613D01*
X681962Y674988D01*
X681765Y674368D01*
X681554Y673753D01*
X681327Y673144D01*
X681086Y672540D01*
X680830Y671942D01*
X680559Y671351D01*
X680273Y670766D01*
X679974Y670189D01*
X679660Y669619D01*
X679333Y669057D01*
X678992Y668504D01*
X678637Y667958D01*
X678269Y667422D01*
X677888Y666895D01*
X677494Y666377D01*
X677088Y665870D01*
X676669Y665372D01*
X676238Y664885D01*
X675796Y664408D01*
X675341Y663943D01*
X674876Y663488D01*
X674399Y663046D01*
X673912Y662615D01*
X673414Y662196D01*
X672907Y661790D01*
X672389Y661396D01*
X671862Y661015D01*
X671326Y660647D01*
X670780Y660292D01*
X670227Y659951D01*
X669665Y659624D01*
X669095Y659310D01*
X668518Y659011D01*
X667933Y658725D01*
X667342Y658454D01*
X666744Y658198D01*
X666140Y657957D01*
X665531Y657730D01*
X664916Y657519D01*
X664296Y657322D01*
X663671Y657141D01*
X663042Y656975D01*
X662409Y656825D01*
X661773Y656690D01*
X661133Y656571D01*
X660491Y656468D01*
X659847Y656380D01*
X659200Y656309D01*
X658552Y656253D01*
X657903Y656213D01*
X657253Y656189D01*
X656603Y656181D01*
X655953Y656189D01*
X655303Y656213D01*
X654654Y656253D01*
X654006Y656309D01*
X653359Y656380D01*
X652715Y656468D01*
X652073Y656571D01*
X651433Y656690D01*
X650797Y656825D01*
X650164Y656975D01*
X649535Y657141D01*
X648910Y657322D01*
X648290Y657519D01*
X647675Y657730D01*
X647066Y657957D01*
X646462Y658198D01*
X645864Y658454D01*
X645273Y658725D01*
X644688Y659011D01*
X644111Y659310D01*
X643541Y659624D01*
X642979Y659951D01*
X642426Y660292D01*
X641880Y660647D01*
X641344Y661015D01*
X640817Y661396D01*
X640299Y661790D01*
X639792Y662196D01*
X639294Y662615D01*
X638807Y663046D01*
X638330Y663488D01*
X637865Y663943D01*
X637410Y664408D01*
X636968Y664885D01*
X636537Y665372D01*
X636118Y665870D01*
X635712Y666377D01*
X635318Y666895D01*
X634937Y667422D01*
X634569Y667958D01*
X634214Y668504D01*
X633873Y669057D01*
X633546Y669619D01*
X633232Y670189D01*
X632933Y670766D01*
X632647Y671351D01*
X632376Y671942D01*
X632120Y672540D01*
X631879Y673144D01*
X631652Y673753D01*
X631441Y674368D01*
X631244Y674988D01*
X631063Y675613D01*
X630897Y676242D01*
X630747Y676875D01*
X630612Y677511D01*
X630493Y678151D01*
X630390Y678793D01*
X630302Y679437D01*
X630231Y680084D01*
X630175Y680732D01*
X630135Y681381D01*
X630111Y682031D01*
X630103Y682681D01*
X618503Y682681D02*
X612153Y682681D01*
X618503Y682681D02*
X624853Y682681D01*
X618503Y682681D02*
X618503Y689031D01*
X618503Y682681D02*
X618503Y676331D01*
X656603Y699191D02*
X656603Y709351D01*
X656603Y699191D02*
X656603Y692841D01*
X656603Y686491D01*
X656603Y667441D01*
X656603Y659821D01*
X656603Y656011D01*
X656603Y659821D02*
X679463Y669981D01*
X682003Y678871D02*
X656603Y667441D01*
X672478Y689031D02*
X680733Y692841D01*
X678193Y697921D02*
X656603Y686491D01*
X656603Y692841D02*
X674383Y702366D01*
X669303Y706176D02*
X656603Y699191D01*
X674103Y682681D02*
X680733Y686491D01*
D12*
X674507Y503073D02*
X673895Y503254D01*
X673278Y503420D01*
X672658Y503571D01*
X672034Y503708D01*
X671407Y503829D01*
X670778Y503936D01*
X670146Y504027D01*
X669512Y504103D01*
X668876Y504164D01*
X668239Y504210D01*
X667602Y504241D01*
X666963Y504256D01*
X666325Y504256D01*
X665686Y504241D01*
X665049Y504210D01*
X664412Y504164D01*
X663776Y504103D01*
X663142Y504027D01*
X662510Y503936D01*
X661881Y503829D01*
X661254Y503708D01*
X660630Y503571D01*
X660010Y503420D01*
X659393Y503254D01*
X658781Y503073D01*
D11*
X684418Y529943D02*
X684426Y530593D01*
X684450Y531243D01*
X684490Y531892D01*
X684546Y532540D01*
X684617Y533187D01*
X684705Y533831D01*
X684808Y534473D01*
X684927Y535113D01*
X685062Y535749D01*
X685212Y536382D01*
X685378Y537011D01*
X685559Y537636D01*
X685756Y538256D01*
X685967Y538871D01*
X686194Y539480D01*
X686435Y540084D01*
X686691Y540682D01*
X686962Y541273D01*
X687248Y541858D01*
X687547Y542435D01*
X687861Y543005D01*
X688188Y543567D01*
X688529Y544120D01*
X688884Y544666D01*
X689252Y545202D01*
X689633Y545729D01*
X690027Y546247D01*
X690433Y546754D01*
X690852Y547252D01*
X691283Y547739D01*
X691725Y548216D01*
X692180Y548681D01*
X692645Y549136D01*
X693122Y549578D01*
X693609Y550009D01*
X694107Y550428D01*
X694614Y550834D01*
X695132Y551228D01*
X695659Y551609D01*
X696195Y551977D01*
X696741Y552332D01*
X697294Y552673D01*
X697856Y553000D01*
X698426Y553314D01*
X699003Y553613D01*
X699588Y553899D01*
X700179Y554170D01*
X700777Y554426D01*
X701381Y554667D01*
X701990Y554894D01*
X702605Y555105D01*
X703225Y555302D01*
X703850Y555483D01*
X704479Y555649D01*
X705112Y555799D01*
X705748Y555934D01*
X706388Y556053D01*
X707030Y556156D01*
X707674Y556244D01*
X708321Y556315D01*
X708969Y556371D01*
X709618Y556411D01*
X710268Y556435D01*
X710918Y556443D01*
X711568Y556435D01*
X712218Y556411D01*
X712867Y556371D01*
X713515Y556315D01*
X714162Y556244D01*
X714806Y556156D01*
X715448Y556053D01*
X716088Y555934D01*
X716724Y555799D01*
X717357Y555649D01*
X717986Y555483D01*
X718611Y555302D01*
X719231Y555105D01*
X719846Y554894D01*
X720455Y554667D01*
X721059Y554426D01*
X721657Y554170D01*
X722248Y553899D01*
X722833Y553613D01*
X723410Y553314D01*
X723980Y553000D01*
X724542Y552673D01*
X725095Y552332D01*
X725641Y551977D01*
X726177Y551609D01*
X726704Y551228D01*
X727222Y550834D01*
X727729Y550428D01*
X728227Y550009D01*
X728714Y549578D01*
X729191Y549136D01*
X729656Y548681D01*
X730111Y548216D01*
X730553Y547739D01*
X730984Y547252D01*
X731403Y546754D01*
X731809Y546247D01*
X732203Y545729D01*
X732584Y545202D01*
X732952Y544666D01*
X733307Y544120D01*
X733648Y543567D01*
X733975Y543005D01*
X734289Y542435D01*
X734588Y541858D01*
X734874Y541273D01*
X735145Y540682D01*
X735401Y540084D01*
X735642Y539480D01*
X735869Y538871D01*
X736080Y538256D01*
X736277Y537636D01*
X736458Y537011D01*
X736624Y536382D01*
X736774Y535749D01*
X736909Y535113D01*
X737028Y534473D01*
X737131Y533831D01*
X737219Y533187D01*
X737290Y532540D01*
X737346Y531892D01*
X737386Y531243D01*
X737410Y530593D01*
X737418Y529943D01*
X737410Y529293D01*
X737386Y528643D01*
X737346Y527994D01*
X737290Y527346D01*
X737219Y526699D01*
X737131Y526055D01*
X737028Y525413D01*
X736909Y524773D01*
X736774Y524137D01*
X736624Y523504D01*
X736458Y522875D01*
X736277Y522250D01*
X736080Y521630D01*
X735869Y521015D01*
X735642Y520406D01*
X735401Y519802D01*
X735145Y519204D01*
X734874Y518613D01*
X734588Y518028D01*
X734289Y517451D01*
X733975Y516881D01*
X733648Y516319D01*
X733307Y515766D01*
X732952Y515220D01*
X732584Y514684D01*
X732203Y514157D01*
X731809Y513639D01*
X731403Y513132D01*
X730984Y512634D01*
X730553Y512147D01*
X730111Y511670D01*
X729656Y511205D01*
X729191Y510750D01*
X728714Y510308D01*
X728227Y509877D01*
X727729Y509458D01*
X727222Y509052D01*
X726704Y508658D01*
X726177Y508277D01*
X725641Y507909D01*
X725095Y507554D01*
X724542Y507213D01*
X723980Y506886D01*
X723410Y506572D01*
X722833Y506273D01*
X722248Y505987D01*
X721657Y505716D01*
X721059Y505460D01*
X720455Y505219D01*
X719846Y504992D01*
X719231Y504781D01*
X718611Y504584D01*
X717986Y504403D01*
X717357Y504237D01*
X716724Y504087D01*
X716088Y503952D01*
X715448Y503833D01*
X714806Y503730D01*
X714162Y503642D01*
X713515Y503571D01*
X712867Y503515D01*
X712218Y503475D01*
X711568Y503451D01*
X710918Y503443D01*
X710268Y503451D01*
X709618Y503475D01*
X708969Y503515D01*
X708321Y503571D01*
X707674Y503642D01*
X707030Y503730D01*
X706388Y503833D01*
X705748Y503952D01*
X705112Y504087D01*
X704479Y504237D01*
X703850Y504403D01*
X703225Y504584D01*
X702605Y504781D01*
X701990Y504992D01*
X701381Y505219D01*
X700777Y505460D01*
X700179Y505716D01*
X699588Y505987D01*
X699003Y506273D01*
X698426Y506572D01*
X697856Y506886D01*
X697294Y507213D01*
X696741Y507554D01*
X696195Y507909D01*
X695659Y508277D01*
X695132Y508658D01*
X694614Y509052D01*
X694107Y509458D01*
X693609Y509877D01*
X693122Y510308D01*
X692645Y510750D01*
X692180Y511205D01*
X691725Y511670D01*
X691283Y512147D01*
X690852Y512634D01*
X690433Y513132D01*
X690027Y513639D01*
X689633Y514157D01*
X689252Y514684D01*
X688884Y515220D01*
X688529Y515766D01*
X688188Y516319D01*
X687861Y516881D01*
X687547Y517451D01*
X687248Y518028D01*
X686962Y518613D01*
X686691Y519204D01*
X686435Y519802D01*
X686194Y520406D01*
X685967Y521015D01*
X685756Y521630D01*
X685559Y522250D01*
X685378Y522875D01*
X685212Y523504D01*
X685062Y524137D01*
X684927Y524773D01*
X684808Y525413D01*
X684705Y526055D01*
X684617Y526699D01*
X684546Y527346D01*
X684490Y527994D01*
X684450Y528643D01*
X684426Y529293D01*
X684418Y529943D01*
X710918Y491843D02*
X710918Y485493D01*
X710918Y491843D02*
X710918Y498193D01*
X710918Y491843D02*
X704568Y491843D01*
X710918Y491843D02*
X717268Y491843D01*
X694408Y529943D02*
X684248Y529943D01*
X694408Y529943D02*
X700758Y529943D01*
X707108Y529943D01*
X726158Y529943D01*
X733778Y529943D01*
X737588Y529943D01*
X733778Y529943D02*
X723618Y552803D01*
X714728Y555343D02*
X726158Y529943D01*
X704568Y545818D02*
X700758Y554073D01*
X695678Y551533D02*
X707108Y529943D01*
X700758Y529943D02*
X691233Y547723D01*
X687423Y542643D02*
X694408Y529943D01*
X710918Y547443D02*
X707108Y554073D01*
X629384Y533443D02*
X629392Y534093D01*
X629416Y534743D01*
X629456Y535392D01*
X629512Y536040D01*
X629583Y536687D01*
X629671Y537331D01*
X629774Y537973D01*
X629893Y538613D01*
X630028Y539249D01*
X630178Y539882D01*
X630344Y540511D01*
X630525Y541136D01*
X630722Y541756D01*
X630933Y542371D01*
X631160Y542980D01*
X631401Y543584D01*
X631657Y544182D01*
X631928Y544773D01*
X632214Y545358D01*
X632513Y545935D01*
X632827Y546505D01*
X633154Y547067D01*
X633495Y547620D01*
X633850Y548166D01*
X634218Y548702D01*
X634599Y549229D01*
X634993Y549747D01*
X635399Y550254D01*
X635818Y550752D01*
X636249Y551239D01*
X636691Y551716D01*
X637146Y552181D01*
X637611Y552636D01*
X638088Y553078D01*
X638575Y553509D01*
X639073Y553928D01*
X639580Y554334D01*
X640098Y554728D01*
X640625Y555109D01*
X641161Y555477D01*
X641707Y555832D01*
X642260Y556173D01*
X642822Y556500D01*
X643392Y556814D01*
X643969Y557113D01*
X644554Y557399D01*
X645145Y557670D01*
X645743Y557926D01*
X646347Y558167D01*
X646956Y558394D01*
X647571Y558605D01*
X648191Y558802D01*
X648816Y558983D01*
X649445Y559149D01*
X650078Y559299D01*
X650714Y559434D01*
X651354Y559553D01*
X651996Y559656D01*
X652640Y559744D01*
X653287Y559815D01*
X653935Y559871D01*
X654584Y559911D01*
X655234Y559935D01*
X655884Y559943D01*
X656534Y559935D01*
X657184Y559911D01*
X657833Y559871D01*
X658481Y559815D01*
X659128Y559744D01*
X659772Y559656D01*
X660414Y559553D01*
X661054Y559434D01*
X661690Y559299D01*
X662323Y559149D01*
X662952Y558983D01*
X663577Y558802D01*
X664197Y558605D01*
X664812Y558394D01*
X665421Y558167D01*
X666025Y557926D01*
X666623Y557670D01*
X667214Y557399D01*
X667799Y557113D01*
X668376Y556814D01*
X668946Y556500D01*
X669508Y556173D01*
X670061Y555832D01*
X670607Y555477D01*
X671143Y555109D01*
X671670Y554728D01*
X672188Y554334D01*
X672695Y553928D01*
X673193Y553509D01*
X673680Y553078D01*
X674157Y552636D01*
X674622Y552181D01*
X675077Y551716D01*
X675519Y551239D01*
X675950Y550752D01*
X676369Y550254D01*
X676775Y549747D01*
X677169Y549229D01*
X677550Y548702D01*
X677918Y548166D01*
X678273Y547620D01*
X678614Y547067D01*
X678941Y546505D01*
X679255Y545935D01*
X679554Y545358D01*
X679840Y544773D01*
X680111Y544182D01*
X680367Y543584D01*
X680608Y542980D01*
X680835Y542371D01*
X681046Y541756D01*
X681243Y541136D01*
X681424Y540511D01*
X681590Y539882D01*
X681740Y539249D01*
X681875Y538613D01*
X681994Y537973D01*
X682097Y537331D01*
X682185Y536687D01*
X682256Y536040D01*
X682312Y535392D01*
X682352Y534743D01*
X682376Y534093D01*
X682384Y533443D01*
X682376Y532793D01*
X682352Y532143D01*
X682312Y531494D01*
X682256Y530846D01*
X682185Y530199D01*
X682097Y529555D01*
X681994Y528913D01*
X681875Y528273D01*
X681740Y527637D01*
X681590Y527004D01*
X681424Y526375D01*
X681243Y525750D01*
X681046Y525130D01*
X680835Y524515D01*
X680608Y523906D01*
X680367Y523302D01*
X680111Y522704D01*
X679840Y522113D01*
X679554Y521528D01*
X679255Y520951D01*
X678941Y520381D01*
X678614Y519819D01*
X678273Y519266D01*
X677918Y518720D01*
X677550Y518184D01*
X677169Y517657D01*
X676775Y517139D01*
X676369Y516632D01*
X675950Y516134D01*
X675519Y515647D01*
X675077Y515170D01*
X674622Y514705D01*
X674157Y514250D01*
X673680Y513808D01*
X673193Y513377D01*
X672695Y512958D01*
X672188Y512552D01*
X671670Y512158D01*
X671143Y511777D01*
X670607Y511409D01*
X670061Y511054D01*
X669508Y510713D01*
X668946Y510386D01*
X668376Y510072D01*
X667799Y509773D01*
X667214Y509487D01*
X666623Y509216D01*
X666025Y508960D01*
X665421Y508719D01*
X664812Y508492D01*
X664197Y508281D01*
X663577Y508084D01*
X662952Y507903D01*
X662323Y507737D01*
X661690Y507587D01*
X661054Y507452D01*
X660414Y507333D01*
X659772Y507230D01*
X659128Y507142D01*
X658481Y507071D01*
X657833Y507015D01*
X657184Y506975D01*
X656534Y506951D01*
X655884Y506943D01*
X655234Y506951D01*
X654584Y506975D01*
X653935Y507015D01*
X653287Y507071D01*
X652640Y507142D01*
X651996Y507230D01*
X651354Y507333D01*
X650714Y507452D01*
X650078Y507587D01*
X649445Y507737D01*
X648816Y507903D01*
X648191Y508084D01*
X647571Y508281D01*
X646956Y508492D01*
X646347Y508719D01*
X645743Y508960D01*
X645145Y509216D01*
X644554Y509487D01*
X643969Y509773D01*
X643392Y510072D01*
X642822Y510386D01*
X642260Y510713D01*
X641707Y511054D01*
X641161Y511409D01*
X640625Y511777D01*
X640098Y512158D01*
X639580Y512552D01*
X639073Y512958D01*
X638575Y513377D01*
X638088Y513808D01*
X637611Y514250D01*
X637146Y514705D01*
X636691Y515170D01*
X636249Y515647D01*
X635818Y516134D01*
X635399Y516632D01*
X634993Y517139D01*
X634599Y517657D01*
X634218Y518184D01*
X633850Y518720D01*
X633495Y519266D01*
X633154Y519819D01*
X632827Y520381D01*
X632513Y520951D01*
X632214Y521528D01*
X631928Y522113D01*
X631657Y522704D01*
X631401Y523302D01*
X631160Y523906D01*
X630933Y524515D01*
X630722Y525130D01*
X630525Y525750D01*
X630344Y526375D01*
X630178Y527004D01*
X630028Y527637D01*
X629893Y528273D01*
X629774Y528913D01*
X629671Y529555D01*
X629583Y530199D01*
X629512Y530846D01*
X629456Y531494D01*
X629416Y532143D01*
X629392Y532793D01*
X629384Y533443D01*
X617784Y533443D02*
X611434Y533443D01*
X617784Y533443D02*
X624134Y533443D01*
X617784Y533443D02*
X617784Y539793D01*
X617784Y533443D02*
X617784Y527093D01*
X655884Y549953D02*
X655884Y560113D01*
X655884Y549953D02*
X655884Y543603D01*
X655884Y537253D01*
X655884Y518203D01*
X655884Y510583D01*
X655884Y506773D01*
X655884Y510583D02*
X678744Y520743D01*
X681284Y529633D02*
X655884Y518203D01*
X671759Y539793D02*
X680014Y543603D01*
X677474Y548683D02*
X655884Y537253D01*
X655884Y543603D02*
X673664Y553128D01*
X668584Y556938D02*
X655884Y549953D01*
X673384Y533443D02*
X680014Y537253D01*
D10*
X683659Y720728D02*
X675221Y720728D01*
X675108Y720730D01*
X674995Y720736D01*
X674882Y720746D01*
X674769Y720760D01*
X674657Y720777D01*
X674546Y720799D01*
X674436Y720824D01*
X674326Y720854D01*
X674218Y720887D01*
X674111Y720924D01*
X674005Y720964D01*
X673901Y721009D01*
X673798Y721057D01*
X673697Y721108D01*
X673598Y721163D01*
X673501Y721221D01*
X673406Y721283D01*
X673313Y721348D01*
X673223Y721416D01*
X673135Y721487D01*
X673049Y721562D01*
X672966Y721639D01*
X672886Y721719D01*
X672809Y721802D01*
X672734Y721888D01*
X672663Y721976D01*
X672595Y722066D01*
X672530Y722159D01*
X672468Y722254D01*
X672410Y722351D01*
X672355Y722450D01*
X672304Y722551D01*
X672256Y722654D01*
X672211Y722758D01*
X672171Y722864D01*
X672134Y722971D01*
X672101Y723079D01*
X672071Y723189D01*
X672046Y723299D01*
X672024Y723410D01*
X672007Y723522D01*
X671993Y723635D01*
X671983Y723748D01*
X671977Y723861D01*
X671975Y723974D01*
X671977Y724087D01*
X671983Y724200D01*
X671993Y724313D01*
X672007Y724426D01*
X672024Y724538D01*
X672046Y724649D01*
X672071Y724759D01*
X672101Y724869D01*
X672134Y724977D01*
X672171Y725084D01*
X672211Y725190D01*
X672256Y725294D01*
X672304Y725397D01*
X672355Y725498D01*
X672410Y725597D01*
X672468Y725694D01*
X672530Y725789D01*
X672595Y725882D01*
X672663Y725972D01*
X672734Y726060D01*
X672809Y726146D01*
X672886Y726229D01*
X672966Y726309D01*
X673049Y726386D01*
X673135Y726461D01*
X673223Y726532D01*
X673313Y726600D01*
X673406Y726665D01*
X673501Y726727D01*
X673598Y726785D01*
X673697Y726840D01*
X673798Y726891D01*
X673901Y726939D01*
X674005Y726984D01*
X674111Y727024D01*
X674218Y727061D01*
X674326Y727094D01*
X674436Y727124D01*
X674546Y727149D01*
X674657Y727171D01*
X674769Y727188D01*
X674882Y727202D01*
X674995Y727212D01*
X675108Y727218D01*
X675221Y727220D01*
X683659Y727220D01*
X683659Y735023D02*
X671975Y735023D01*
X677817Y735023D02*
X678791Y733400D01*
X678790Y733400D02*
X678837Y733327D01*
X678886Y733256D01*
X678939Y733186D01*
X678995Y733120D01*
X679054Y733056D01*
X679115Y732994D01*
X679179Y732936D01*
X679246Y732880D01*
X679315Y732828D01*
X679387Y732778D01*
X679461Y732732D01*
X679536Y732689D01*
X679614Y732650D01*
X679693Y732614D01*
X679774Y732582D01*
X679856Y732553D01*
X679939Y732528D01*
X680023Y732507D01*
X680108Y732490D01*
X680194Y732476D01*
X680280Y732467D01*
X680367Y732461D01*
X680454Y732459D01*
X680541Y732461D01*
X680628Y732467D01*
X680714Y732477D01*
X680800Y732490D01*
X680885Y732508D01*
X680969Y732529D01*
X681052Y732554D01*
X681135Y732583D01*
X681215Y732615D01*
X681294Y732651D01*
X681372Y732690D01*
X681447Y732733D01*
X681521Y732780D01*
X681592Y732829D01*
X681662Y732882D01*
X681728Y732937D01*
X681792Y732996D01*
X681854Y733057D01*
X681913Y733122D01*
X681968Y733188D01*
X682021Y733257D01*
X682071Y733329D01*
X682117Y733402D01*
X682160Y733478D01*
X682199Y733555D01*
X682235Y733634D01*
X682268Y733715D01*
X682296Y733797D01*
X682322Y733880D01*
X682343Y733964D01*
X682360Y734050D01*
X682361Y734050D02*
X682385Y734190D01*
X682405Y734332D01*
X682421Y734473D01*
X682432Y734615D01*
X682440Y734758D01*
X682444Y734900D01*
X682445Y735043D01*
X682441Y735186D01*
X682433Y735328D01*
X682421Y735470D01*
X682405Y735612D01*
X682386Y735753D01*
X682362Y735894D01*
X682335Y736034D01*
X682303Y736173D01*
X682268Y736311D01*
X682229Y736449D01*
X682186Y736585D01*
X682140Y736719D01*
X682089Y736853D01*
X682036Y736985D01*
X681978Y737115D01*
X681917Y737244D01*
X681852Y737371D01*
X681784Y737497D01*
X681712Y737620D01*
X677817Y735023D02*
X676843Y736646D01*
X676844Y736646D02*
X676797Y736719D01*
X676748Y736790D01*
X676695Y736860D01*
X676639Y736926D01*
X676580Y736990D01*
X676519Y737052D01*
X676455Y737110D01*
X676388Y737166D01*
X676319Y737218D01*
X676247Y737268D01*
X676173Y737314D01*
X676098Y737357D01*
X676020Y737396D01*
X675941Y737432D01*
X675860Y737464D01*
X675778Y737493D01*
X675695Y737518D01*
X675611Y737539D01*
X675526Y737556D01*
X675440Y737570D01*
X675354Y737579D01*
X675267Y737585D01*
X675180Y737587D01*
X675093Y737585D01*
X675006Y737579D01*
X674920Y737569D01*
X674834Y737556D01*
X674749Y737538D01*
X674665Y737517D01*
X674582Y737492D01*
X674499Y737463D01*
X674419Y737431D01*
X674340Y737395D01*
X674262Y737356D01*
X674187Y737313D01*
X674113Y737266D01*
X674042Y737217D01*
X673972Y737164D01*
X673906Y737109D01*
X673842Y737050D01*
X673780Y736989D01*
X673721Y736924D01*
X673666Y736858D01*
X673613Y736789D01*
X673563Y736717D01*
X673517Y736644D01*
X673474Y736568D01*
X673435Y736491D01*
X673399Y736412D01*
X673366Y736331D01*
X673338Y736249D01*
X673312Y736166D01*
X673291Y736082D01*
X673274Y735997D01*
X673273Y735996D02*
X673249Y735856D01*
X673229Y735714D01*
X673213Y735573D01*
X673202Y735431D01*
X673194Y735288D01*
X673190Y735146D01*
X673189Y735003D01*
X673193Y734860D01*
X673201Y734718D01*
X673213Y734576D01*
X673229Y734434D01*
X673248Y734293D01*
X673272Y734152D01*
X673299Y734012D01*
X673331Y733873D01*
X673366Y733735D01*
X673405Y733597D01*
X673448Y733461D01*
X673494Y733327D01*
X673545Y733193D01*
X673598Y733061D01*
X673656Y732931D01*
X673717Y732802D01*
X673782Y732675D01*
X673850Y732549D01*
X673922Y732426D01*
X678466Y742445D02*
X678466Y746340D01*
X678464Y746439D01*
X678458Y746539D01*
X678449Y746638D01*
X678436Y746736D01*
X678419Y746834D01*
X678398Y746932D01*
X678373Y747028D01*
X678345Y747123D01*
X678313Y747217D01*
X678278Y747310D01*
X678239Y747402D01*
X678196Y747492D01*
X678151Y747580D01*
X678101Y747667D01*
X678049Y747751D01*
X677993Y747834D01*
X677935Y747914D01*
X677873Y747992D01*
X677808Y748067D01*
X677740Y748140D01*
X677670Y748210D01*
X677597Y748278D01*
X677522Y748343D01*
X677444Y748405D01*
X677364Y748463D01*
X677281Y748519D01*
X677197Y748571D01*
X677110Y748621D01*
X677022Y748666D01*
X676932Y748709D01*
X676840Y748748D01*
X676747Y748783D01*
X676653Y748815D01*
X676558Y748843D01*
X676462Y748868D01*
X676364Y748889D01*
X676266Y748906D01*
X676168Y748919D01*
X676069Y748928D01*
X675969Y748934D01*
X675870Y748936D01*
X675221Y748936D01*
X675221Y748937D02*
X675108Y748935D01*
X674995Y748929D01*
X674882Y748919D01*
X674769Y748905D01*
X674657Y748888D01*
X674546Y748866D01*
X674436Y748841D01*
X674326Y748811D01*
X674218Y748778D01*
X674111Y748741D01*
X674005Y748701D01*
X673901Y748656D01*
X673798Y748608D01*
X673697Y748557D01*
X673598Y748502D01*
X673501Y748444D01*
X673406Y748382D01*
X673313Y748317D01*
X673223Y748249D01*
X673135Y748178D01*
X673049Y748103D01*
X672966Y748026D01*
X672886Y747946D01*
X672809Y747863D01*
X672734Y747777D01*
X672663Y747689D01*
X672595Y747599D01*
X672530Y747506D01*
X672468Y747411D01*
X672410Y747314D01*
X672355Y747215D01*
X672304Y747114D01*
X672256Y747011D01*
X672211Y746907D01*
X672171Y746801D01*
X672134Y746694D01*
X672101Y746586D01*
X672071Y746476D01*
X672046Y746366D01*
X672024Y746255D01*
X672007Y746143D01*
X671993Y746030D01*
X671983Y745917D01*
X671977Y745804D01*
X671975Y745691D01*
X671977Y745578D01*
X671983Y745465D01*
X671993Y745352D01*
X672007Y745239D01*
X672024Y745127D01*
X672046Y745016D01*
X672071Y744906D01*
X672101Y744796D01*
X672134Y744688D01*
X672171Y744581D01*
X672211Y744475D01*
X672256Y744371D01*
X672304Y744268D01*
X672355Y744167D01*
X672410Y744068D01*
X672468Y743971D01*
X672530Y743876D01*
X672595Y743783D01*
X672663Y743693D01*
X672734Y743605D01*
X672809Y743519D01*
X672886Y743436D01*
X672966Y743356D01*
X673049Y743279D01*
X673135Y743204D01*
X673223Y743133D01*
X673313Y743065D01*
X673406Y743000D01*
X673501Y742938D01*
X673598Y742880D01*
X673697Y742825D01*
X673798Y742774D01*
X673901Y742726D01*
X674005Y742681D01*
X674111Y742641D01*
X674218Y742604D01*
X674326Y742571D01*
X674436Y742541D01*
X674546Y742516D01*
X674657Y742494D01*
X674769Y742477D01*
X674882Y742463D01*
X674995Y742453D01*
X675108Y742447D01*
X675221Y742445D01*
X678466Y742445D01*
X678609Y742447D01*
X678752Y742453D01*
X678895Y742463D01*
X679037Y742477D01*
X679179Y742494D01*
X679321Y742516D01*
X679462Y742541D01*
X679602Y742571D01*
X679741Y742604D01*
X679879Y742641D01*
X680016Y742682D01*
X680152Y742726D01*
X680287Y742775D01*
X680420Y742827D01*
X680552Y742882D01*
X680682Y742942D01*
X680811Y743005D01*
X680938Y743071D01*
X681062Y743141D01*
X681185Y743214D01*
X681306Y743291D01*
X681425Y743371D01*
X681541Y743454D01*
X681656Y743540D01*
X681767Y743629D01*
X681877Y743722D01*
X681983Y743817D01*
X682087Y743916D01*
X682188Y744017D01*
X682287Y744121D01*
X682382Y744227D01*
X682475Y744337D01*
X682564Y744448D01*
X682650Y744563D01*
X682733Y744679D01*
X682813Y744798D01*
X682890Y744919D01*
X682963Y745041D01*
X683033Y745166D01*
X683099Y745293D01*
X683162Y745422D01*
X683222Y745552D01*
X683277Y745684D01*
X683329Y745817D01*
X683378Y745952D01*
X683422Y746088D01*
X683463Y746225D01*
X683500Y746363D01*
X683533Y746502D01*
X683563Y746642D01*
X683588Y746783D01*
X683610Y746925D01*
X683627Y747067D01*
X683641Y747209D01*
X683651Y747352D01*
X683657Y747495D01*
X683659Y747638D01*
X671975Y753875D02*
X671975Y757121D01*
X671977Y757234D01*
X671983Y757347D01*
X671993Y757460D01*
X672007Y757573D01*
X672024Y757685D01*
X672046Y757796D01*
X672071Y757906D01*
X672101Y758016D01*
X672134Y758124D01*
X672171Y758231D01*
X672211Y758337D01*
X672256Y758441D01*
X672304Y758544D01*
X672355Y758645D01*
X672410Y758744D01*
X672468Y758841D01*
X672530Y758936D01*
X672595Y759029D01*
X672663Y759119D01*
X672734Y759207D01*
X672809Y759293D01*
X672886Y759376D01*
X672966Y759456D01*
X673049Y759533D01*
X673135Y759608D01*
X673223Y759679D01*
X673313Y759747D01*
X673406Y759812D01*
X673501Y759874D01*
X673598Y759932D01*
X673697Y759987D01*
X673798Y760038D01*
X673901Y760086D01*
X674005Y760131D01*
X674111Y760171D01*
X674218Y760208D01*
X674326Y760241D01*
X674436Y760271D01*
X674546Y760296D01*
X674657Y760318D01*
X674769Y760335D01*
X674882Y760349D01*
X674995Y760359D01*
X675108Y760365D01*
X675221Y760367D01*
X675334Y760365D01*
X675447Y760359D01*
X675560Y760349D01*
X675673Y760335D01*
X675785Y760318D01*
X675896Y760296D01*
X676006Y760271D01*
X676116Y760241D01*
X676224Y760208D01*
X676331Y760171D01*
X676437Y760131D01*
X676541Y760086D01*
X676644Y760038D01*
X676745Y759987D01*
X676844Y759932D01*
X676941Y759874D01*
X677036Y759812D01*
X677129Y759747D01*
X677219Y759679D01*
X677307Y759608D01*
X677393Y759533D01*
X677476Y759456D01*
X677556Y759376D01*
X677633Y759293D01*
X677708Y759207D01*
X677779Y759119D01*
X677847Y759029D01*
X677912Y758936D01*
X677974Y758841D01*
X678032Y758744D01*
X678087Y758645D01*
X678138Y758544D01*
X678186Y758441D01*
X678231Y758337D01*
X678271Y758231D01*
X678308Y758124D01*
X678341Y758016D01*
X678371Y757906D01*
X678396Y757796D01*
X678418Y757685D01*
X678435Y757573D01*
X678449Y757460D01*
X678459Y757347D01*
X678465Y757234D01*
X678467Y757121D01*
X683659Y757770D02*
X683659Y753875D01*
X683659Y757770D02*
X683657Y757871D01*
X683651Y757971D01*
X683641Y758071D01*
X683628Y758171D01*
X683610Y758270D01*
X683589Y758369D01*
X683564Y758466D01*
X683535Y758563D01*
X683502Y758658D01*
X683466Y758752D01*
X683426Y758844D01*
X683383Y758935D01*
X683336Y759024D01*
X683286Y759111D01*
X683232Y759197D01*
X683175Y759280D01*
X683115Y759360D01*
X683052Y759439D01*
X682985Y759515D01*
X682916Y759588D01*
X682844Y759658D01*
X682770Y759726D01*
X682693Y759791D01*
X682613Y759852D01*
X682531Y759911D01*
X682447Y759966D01*
X682361Y760018D01*
X682273Y760067D01*
X682183Y760112D01*
X682091Y760154D01*
X681998Y760192D01*
X681903Y760226D01*
X681808Y760257D01*
X681711Y760284D01*
X681613Y760307D01*
X681514Y760327D01*
X681414Y760342D01*
X681314Y760354D01*
X681214Y760362D01*
X681113Y760366D01*
X681013Y760366D01*
X680912Y760362D01*
X680812Y760354D01*
X680712Y760342D01*
X680612Y760327D01*
X680513Y760307D01*
X680415Y760284D01*
X680318Y760257D01*
X680223Y760226D01*
X680128Y760192D01*
X680035Y760154D01*
X679943Y760112D01*
X679853Y760067D01*
X679765Y760018D01*
X679679Y759966D01*
X679595Y759911D01*
X679513Y759852D01*
X679433Y759791D01*
X679356Y759726D01*
X679282Y759658D01*
X679210Y759588D01*
X679141Y759515D01*
X679074Y759439D01*
X679011Y759360D01*
X678951Y759280D01*
X678894Y759197D01*
X678840Y759111D01*
X678790Y759024D01*
X678743Y758935D01*
X678700Y758844D01*
X678660Y758752D01*
X678624Y758658D01*
X678591Y758563D01*
X678562Y758466D01*
X678537Y758369D01*
X678516Y758270D01*
X678498Y758171D01*
X678485Y758071D01*
X678475Y757971D01*
X678469Y757871D01*
X678467Y757770D01*
X678466Y757770D02*
X678466Y755174D01*
M02*
