G04 EAGLE Gerber X2 export*
%TF.Part,Single*%
%TF.FileFunction,Soldermask,Top,1*%
%TF.FilePolarity,Positive*%
%TF.GenerationSoftware,Autodesk,EAGLE,9.2.2*%
%TF.CreationDate,2019-03-12T14:11:56Z*%
G75*
%MOMM*%
%FSLAX34Y34*%
%LPD*%
%INSoldermask Top*%
%AMOC8*
5,1,8,0,0,1.08239X$1,22.5*%
G01*
%ADD10C,1.346200*%
%ADD11R,2.235200X0.863600*%
%ADD12R,2.006200X1.803200*%
%ADD13R,1.803200X2.006200*%
%ADD14C,1.611200*%
%ADD15R,1.611200X1.611200*%
%ADD16R,2.387600X1.524000*%
%ADD17C,2.159000*%
%ADD18C,1.524000*%
%ADD19R,1.524000X2.387600*%
%ADD20R,1.553200X1.553200*%
%ADD21C,1.553200*%
%ADD22C,2.082800*%
%ADD23P,1.649562X8X292.500000*%
%ADD24P,1.649562X8X112.500000*%
%ADD25C,1.625600*%
%ADD26P,1.649562X8X22.500000*%
%ADD27P,1.649562X8X202.500000*%
%ADD28C,0.959600*%


D10*
X334608Y899073D03*
X384608Y899073D03*
X305008Y874973D03*
X305008Y824973D03*
X235808Y946973D03*
X185808Y946973D03*
X132808Y972573D03*
X82808Y972573D03*
X381808Y927773D03*
X331808Y927773D03*
X234008Y914973D03*
X184008Y914973D03*
X156308Y878973D03*
X156308Y828973D03*
D11*
X275742Y823523D03*
X214274Y823523D03*
X275742Y836223D03*
X275742Y848923D03*
X214274Y836223D03*
X214274Y848923D03*
X275742Y861623D03*
X214274Y861623D03*
D12*
X303023Y941637D03*
X303023Y970077D03*
X273950Y969877D03*
X273950Y941437D03*
D13*
X211728Y977073D03*
X183288Y977073D03*
X304228Y913422D03*
X275788Y913422D03*
D12*
X188108Y855693D03*
X188108Y827253D03*
D13*
X370728Y869273D03*
X342288Y869273D03*
X191488Y884473D03*
X219928Y884473D03*
D14*
X371408Y809273D03*
D15*
X346008Y809273D03*
D14*
X344308Y842773D03*
D15*
X369708Y842773D03*
D14*
X399319Y868325D03*
D15*
X399319Y842925D03*
D14*
X395508Y811473D03*
D15*
X420908Y811473D03*
D16*
X554608Y973903D03*
X598608Y961173D03*
X554608Y948443D03*
D13*
X503599Y920751D03*
X475159Y920751D03*
D14*
X521108Y977973D03*
D15*
X521108Y952573D03*
D14*
X495508Y948573D03*
D15*
X495508Y973973D03*
D17*
X577967Y897304D02*
X597525Y897304D01*
X597525Y871904D02*
X577967Y871904D01*
X577967Y846504D02*
X597525Y846504D01*
X107525Y897304D02*
X87967Y897304D01*
X87967Y871904D02*
X107525Y871904D01*
X107525Y846504D02*
X87967Y846504D01*
X346946Y956443D02*
X346946Y976001D01*
X372346Y976001D02*
X372346Y956443D01*
X397746Y956443D02*
X397746Y976001D01*
D10*
X476501Y886102D03*
X526501Y886102D03*
D13*
X274661Y883509D03*
X246221Y883509D03*
D18*
X530159Y818797D02*
X543367Y818797D01*
X543367Y844197D02*
X530159Y844197D01*
X467167Y844197D02*
X453959Y844197D01*
X453959Y818797D02*
X467167Y818797D01*
D19*
X421895Y922251D03*
X434625Y966251D03*
X447355Y922251D03*
D12*
X468833Y948451D03*
X468833Y976891D03*
D10*
X429550Y891078D03*
X429550Y841078D03*
X549650Y924990D03*
X599650Y924990D03*
X334315Y689228D03*
X384315Y689228D03*
X304715Y665128D03*
X304715Y615128D03*
X235515Y737128D03*
X185515Y737128D03*
X132515Y762728D03*
X82515Y762728D03*
X381515Y717928D03*
X331515Y717928D03*
X233715Y705128D03*
X183715Y705128D03*
X156015Y669128D03*
X156015Y619128D03*
D11*
X275449Y613678D03*
X213981Y613678D03*
X275449Y626378D03*
X275449Y639078D03*
X213981Y626378D03*
X213981Y639078D03*
X275449Y651778D03*
X213981Y651778D03*
D12*
X302730Y731791D03*
X302730Y760231D03*
X273657Y760032D03*
X273657Y731592D03*
D13*
X211435Y767228D03*
X182995Y767228D03*
X303935Y703577D03*
X275495Y703577D03*
D12*
X187815Y645848D03*
X187815Y617408D03*
D13*
X370435Y659428D03*
X341995Y659428D03*
X191195Y674628D03*
X219635Y674628D03*
D14*
X372891Y605111D03*
D15*
X347491Y605111D03*
D14*
X344015Y632928D03*
D15*
X369415Y632928D03*
D14*
X399026Y658479D03*
D15*
X399026Y633079D03*
D14*
X395570Y604469D03*
D15*
X420970Y604469D03*
D16*
X554315Y764058D03*
X598315Y751328D03*
X554315Y738598D03*
D13*
X503307Y710905D03*
X474867Y710905D03*
D14*
X520815Y768128D03*
D15*
X520815Y742728D03*
D14*
X495215Y738728D03*
D15*
X495215Y764128D03*
D17*
X577674Y687458D02*
X597232Y687458D01*
X597232Y662058D02*
X577674Y662058D01*
X577674Y636658D02*
X597232Y636658D01*
X107232Y687458D02*
X87674Y687458D01*
X87674Y662058D02*
X107232Y662058D01*
X107232Y636658D02*
X87674Y636658D01*
X346653Y746597D02*
X346653Y766155D01*
X372053Y766155D02*
X372053Y746597D01*
X397453Y746597D02*
X397453Y766155D01*
D10*
X476208Y676256D03*
X526208Y676256D03*
D13*
X274368Y673663D03*
X245928Y673663D03*
D18*
X529867Y608952D02*
X543075Y608952D01*
X543075Y634352D02*
X529867Y634352D01*
X466875Y634352D02*
X453667Y634352D01*
X453667Y608952D02*
X466875Y608952D01*
D19*
X421602Y712405D03*
X434332Y756405D03*
X447062Y712405D03*
D12*
X468540Y738605D03*
X468540Y767045D03*
D10*
X429258Y681232D03*
X429258Y631232D03*
X549357Y715145D03*
X599357Y715145D03*
X334315Y479350D03*
X384315Y479350D03*
X304715Y455250D03*
X304715Y405250D03*
X235515Y527250D03*
X185515Y527250D03*
X132515Y552850D03*
X82515Y552850D03*
X381515Y508050D03*
X331515Y508050D03*
X233715Y495250D03*
X183715Y495250D03*
X156015Y459250D03*
X156015Y409250D03*
D11*
X275449Y403800D03*
X213981Y403800D03*
X275449Y416500D03*
X275449Y429200D03*
X213981Y416500D03*
X213981Y429200D03*
X275449Y441900D03*
X213981Y441900D03*
D12*
X302729Y521914D03*
X302729Y550354D03*
X273656Y550154D03*
X273656Y521714D03*
D13*
X211435Y557350D03*
X182995Y557350D03*
X303935Y493699D03*
X275495Y493699D03*
D12*
X187815Y435970D03*
X187815Y407530D03*
D13*
X370435Y449550D03*
X341995Y449550D03*
X191195Y464750D03*
X219635Y464750D03*
D14*
X373246Y396371D03*
D15*
X347846Y396371D03*
D14*
X344015Y423050D03*
D15*
X369415Y423050D03*
D14*
X399026Y448602D03*
D15*
X399026Y423202D03*
D14*
X395215Y396189D03*
D15*
X420615Y396189D03*
D16*
X554315Y554180D03*
X598315Y541450D03*
X554315Y528720D03*
D13*
X503306Y501028D03*
X474866Y501028D03*
D14*
X520815Y558250D03*
D15*
X520815Y532850D03*
D14*
X495215Y528850D03*
D15*
X495215Y554250D03*
D17*
X577673Y477581D02*
X597231Y477581D01*
X597231Y452181D02*
X577673Y452181D01*
X577673Y426781D02*
X597231Y426781D01*
X107231Y477581D02*
X87673Y477581D01*
X87673Y452181D02*
X107231Y452181D01*
X107231Y426781D02*
X87673Y426781D01*
X346652Y536720D02*
X346652Y556278D01*
X372052Y556278D02*
X372052Y536720D01*
X397452Y536720D02*
X397452Y556278D01*
D10*
X476208Y466379D03*
X526208Y466379D03*
D13*
X274368Y463786D03*
X245928Y463786D03*
D18*
X529866Y399074D02*
X543074Y399074D01*
X543074Y424474D02*
X529866Y424474D01*
X466874Y424474D02*
X453666Y424474D01*
X453666Y399074D02*
X466874Y399074D01*
D19*
X421601Y502528D03*
X434331Y546528D03*
X447061Y502528D03*
D12*
X468540Y528727D03*
X468540Y557167D03*
D10*
X429257Y471354D03*
X429257Y421354D03*
X549357Y505267D03*
X599357Y505267D03*
D16*
X552016Y343237D03*
X596016Y330507D03*
X552016Y317777D03*
D10*
X513151Y247394D03*
X513151Y297394D03*
D13*
X462368Y339237D03*
X433928Y339237D03*
D20*
X411086Y279825D03*
D21*
X391086Y279825D03*
D22*
X418629Y180688D03*
X399579Y193388D03*
X418629Y206088D03*
D23*
X463463Y179243D03*
X482513Y191943D03*
X463463Y204643D03*
D20*
X516963Y192424D03*
D21*
X536963Y192424D03*
D13*
X389684Y235106D03*
X418124Y235106D03*
D12*
X374500Y177898D03*
X374500Y206338D03*
D10*
X344253Y238180D03*
X344253Y288180D03*
D12*
X189513Y205549D03*
X189513Y177109D03*
D10*
X264305Y287698D03*
X264305Y237698D03*
D14*
X213338Y178235D03*
D15*
X238738Y178235D03*
D14*
X242532Y206818D03*
D15*
X217132Y206818D03*
D20*
X309574Y343233D03*
D21*
X309574Y323233D03*
D12*
X271540Y346431D03*
X271540Y317991D03*
D16*
X244002Y319219D03*
X200002Y331949D03*
X244002Y344679D03*
D24*
X104482Y348591D03*
X104482Y323191D03*
X104482Y297791D03*
D22*
X46650Y315073D03*
X33950Y296023D03*
X21250Y315073D03*
D20*
X146837Y278918D03*
D21*
X166837Y278918D03*
D12*
X343460Y177898D03*
X343460Y206338D03*
X166082Y205549D03*
X166082Y177109D03*
D13*
X19011Y346899D03*
X47451Y346899D03*
D12*
X199556Y296026D03*
X199556Y267586D03*
X73656Y305686D03*
X73656Y334126D03*
X143605Y176583D03*
X143605Y205023D03*
D14*
X48703Y245267D03*
D15*
X48703Y270667D03*
D14*
X21130Y274211D03*
D15*
X21130Y248811D03*
D10*
X21866Y173273D03*
X21866Y223273D03*
D20*
X160336Y343951D03*
D21*
X160336Y323951D03*
D10*
X224956Y290106D03*
X224956Y240106D03*
X194826Y236806D03*
X144826Y236806D03*
X304429Y238661D03*
X304429Y288661D03*
D14*
X289538Y179418D03*
D15*
X314938Y179418D03*
D14*
X318938Y206789D03*
D15*
X293538Y206789D03*
D13*
X490136Y339237D03*
X518576Y339237D03*
D12*
X265713Y204761D03*
X265713Y176321D03*
D17*
X577627Y267738D02*
X597185Y267738D01*
X597185Y242338D02*
X577627Y242338D01*
X577627Y216938D02*
X597185Y216938D01*
X107185Y267738D02*
X87627Y267738D01*
X87627Y242338D02*
X107185Y242338D01*
X107185Y216938D02*
X87627Y216938D01*
X346606Y326877D02*
X346606Y346435D01*
X372006Y346435D02*
X372006Y326877D01*
X397406Y326877D02*
X397406Y346435D01*
D19*
X476386Y292106D03*
X463656Y248106D03*
X450926Y292106D03*
D10*
X48507Y173788D03*
X48507Y223788D03*
D25*
X92080Y189684D02*
X92080Y175460D01*
X117480Y175460D02*
X117480Y189684D01*
D19*
X646599Y925122D03*
X659329Y969122D03*
X672059Y925122D03*
D10*
X742441Y886257D03*
X692441Y886257D03*
D12*
X650598Y835474D03*
X650598Y807034D03*
D20*
X710010Y784192D03*
D21*
X710010Y764192D03*
D22*
X809148Y791735D03*
X796448Y772685D03*
X783748Y791735D03*
D26*
X810593Y836569D03*
X797893Y855619D03*
X785193Y836569D03*
D20*
X797411Y890069D03*
D21*
X797411Y910069D03*
D12*
X754729Y762790D03*
X754729Y791230D03*
D13*
X811938Y747606D03*
X783498Y747606D03*
D10*
X751656Y717359D03*
X701656Y717359D03*
D13*
X784286Y562619D03*
X812726Y562619D03*
D10*
X702137Y637411D03*
X752137Y637411D03*
D14*
X811601Y586444D03*
D15*
X811601Y611844D03*
D14*
X783018Y615638D03*
D15*
X783018Y590238D03*
D20*
X646603Y682681D03*
D21*
X666603Y682681D03*
D13*
X643405Y644646D03*
X671845Y644646D03*
D19*
X670616Y617109D03*
X657886Y573109D03*
X645156Y617109D03*
D27*
X641244Y477588D03*
X666644Y477588D03*
X692044Y477588D03*
D22*
X674763Y419756D03*
X693813Y407056D03*
X674763Y394356D03*
D20*
X710918Y519943D03*
D21*
X710918Y539943D03*
D13*
X811938Y716566D03*
X783498Y716566D03*
X784286Y539188D03*
X812726Y539188D03*
D12*
X642729Y389842D03*
X642729Y418282D03*
D13*
X693809Y572662D03*
X722249Y572662D03*
X684149Y446762D03*
X655709Y446762D03*
X813253Y516711D03*
X784813Y516711D03*
D14*
X744569Y421809D03*
D15*
X719169Y421809D03*
D14*
X715625Y394236D03*
D15*
X741025Y394236D03*
D10*
X816355Y392284D03*
X766355Y392284D03*
D20*
X645884Y533443D03*
D21*
X665884Y533443D03*
D10*
X699729Y598062D03*
X749729Y598062D03*
X753029Y567933D03*
X753029Y517933D03*
X751174Y677535D03*
X701174Y677535D03*
D14*
X810418Y662644D03*
D15*
X810418Y688044D03*
D14*
X783047Y692044D03*
D15*
X783047Y666644D03*
D12*
X650598Y863242D03*
X650598Y891682D03*
D13*
X785075Y638819D03*
X813515Y638819D03*
D17*
X722097Y950733D02*
X722097Y970291D01*
X747497Y970291D02*
X747497Y950733D01*
X772897Y950733D02*
X772897Y970291D01*
X722097Y480291D02*
X722097Y460733D01*
X747497Y460733D02*
X747497Y480291D01*
X772897Y480291D02*
X772897Y460733D01*
X662958Y719712D02*
X643400Y719712D01*
X643400Y745112D02*
X662958Y745112D01*
X662958Y770512D02*
X643400Y770512D01*
D16*
X697729Y849492D03*
X741729Y836762D03*
X697729Y824032D03*
D10*
X816047Y418304D03*
X766047Y418304D03*
D25*
X800152Y465187D02*
X814376Y465187D01*
X814376Y490587D02*
X800152Y490587D01*
D28*
X259552Y862181D03*
X297652Y862181D03*
X259259Y652335D03*
X297359Y652335D03*
X259259Y442458D03*
X297359Y442458D03*
X17355Y331974D03*
X552441Y294997D03*
X577750Y345834D03*
X658542Y393210D03*
X694838Y925548D03*
X640350Y948487D03*
M02*
