G04 EAGLE Gerber X2 export*
%TF.Part,Single*%
%TF.FileFunction,Soldermask,Bot,1*%
%TF.FilePolarity,Positive*%
%TF.GenerationSoftware,Autodesk,EAGLE,9.2.2*%
%TF.CreationDate,2019-03-12T14:11:56Z*%
G75*
%MOMM*%
%FSLAX34Y34*%
%LPD*%
%INSoldermask Bottom*%
%AMOC8*
5,1,8,0,0,1.08239X$1,22.5*%
G01*
%ADD10C,1.346200*%
%ADD11C,1.611200*%
%ADD12R,1.611200X1.611200*%
%ADD13C,2.159000*%
%ADD14C,1.524000*%
%ADD15R,1.553200X1.553200*%
%ADD16C,1.553200*%
%ADD17C,2.082800*%
%ADD18P,1.649562X8X292.500000*%
%ADD19P,1.649562X8X112.500000*%
%ADD20C,1.625600*%
%ADD21P,1.649562X8X22.500000*%
%ADD22P,1.649562X8X202.500000*%
%ADD23C,0.959600*%


D10*
X334608Y899073D03*
X384608Y899073D03*
X305008Y874973D03*
X305008Y824973D03*
X235808Y946973D03*
X185808Y946973D03*
X132808Y972573D03*
X82808Y972573D03*
X381808Y927773D03*
X331808Y927773D03*
X234008Y914973D03*
X184008Y914973D03*
X156308Y878973D03*
X156308Y828973D03*
D11*
X371408Y809273D03*
D12*
X346008Y809273D03*
D11*
X344308Y842773D03*
D12*
X369708Y842773D03*
D11*
X399319Y868325D03*
D12*
X399319Y842925D03*
D11*
X395508Y811473D03*
D12*
X420908Y811473D03*
D11*
X521108Y977973D03*
D12*
X521108Y952573D03*
D11*
X495508Y948573D03*
D12*
X495508Y973973D03*
D13*
X577967Y897304D02*
X597525Y897304D01*
X597525Y871904D02*
X577967Y871904D01*
X577967Y846504D02*
X597525Y846504D01*
X107525Y897304D02*
X87967Y897304D01*
X87967Y871904D02*
X107525Y871904D01*
X107525Y846504D02*
X87967Y846504D01*
X346946Y956443D02*
X346946Y976001D01*
X372346Y976001D02*
X372346Y956443D01*
X397746Y956443D02*
X397746Y976001D01*
D10*
X476501Y886102D03*
X526501Y886102D03*
D14*
X530159Y818797D02*
X543367Y818797D01*
X543367Y844197D02*
X530159Y844197D01*
X467167Y844197D02*
X453959Y844197D01*
X453959Y818797D02*
X467167Y818797D01*
D10*
X429550Y891078D03*
X429550Y841078D03*
X549650Y924990D03*
X599650Y924990D03*
X334315Y689228D03*
X384315Y689228D03*
X304715Y665128D03*
X304715Y615128D03*
X235515Y737128D03*
X185515Y737128D03*
X132515Y762728D03*
X82515Y762728D03*
X381515Y717928D03*
X331515Y717928D03*
X233715Y705128D03*
X183715Y705128D03*
X156015Y669128D03*
X156015Y619128D03*
D11*
X372891Y605111D03*
D12*
X347491Y605111D03*
D11*
X344015Y632928D03*
D12*
X369415Y632928D03*
D11*
X399026Y658479D03*
D12*
X399026Y633079D03*
D11*
X395570Y604469D03*
D12*
X420970Y604469D03*
D11*
X520815Y768128D03*
D12*
X520815Y742728D03*
D11*
X495215Y738728D03*
D12*
X495215Y764128D03*
D13*
X577674Y687458D02*
X597232Y687458D01*
X597232Y662058D02*
X577674Y662058D01*
X577674Y636658D02*
X597232Y636658D01*
X107232Y687458D02*
X87674Y687458D01*
X87674Y662058D02*
X107232Y662058D01*
X107232Y636658D02*
X87674Y636658D01*
X346653Y746597D02*
X346653Y766155D01*
X372053Y766155D02*
X372053Y746597D01*
X397453Y746597D02*
X397453Y766155D01*
D10*
X476208Y676256D03*
X526208Y676256D03*
D14*
X529867Y608952D02*
X543075Y608952D01*
X543075Y634352D02*
X529867Y634352D01*
X466875Y634352D02*
X453667Y634352D01*
X453667Y608952D02*
X466875Y608952D01*
D10*
X429258Y681232D03*
X429258Y631232D03*
X549357Y715145D03*
X599357Y715145D03*
X334315Y479350D03*
X384315Y479350D03*
X304715Y455250D03*
X304715Y405250D03*
X235515Y527250D03*
X185515Y527250D03*
X132515Y552850D03*
X82515Y552850D03*
X381515Y508050D03*
X331515Y508050D03*
X233715Y495250D03*
X183715Y495250D03*
X156015Y459250D03*
X156015Y409250D03*
D11*
X373246Y396371D03*
D12*
X347846Y396371D03*
D11*
X344015Y423050D03*
D12*
X369415Y423050D03*
D11*
X399026Y448602D03*
D12*
X399026Y423202D03*
D11*
X395215Y396189D03*
D12*
X420615Y396189D03*
D11*
X520815Y558250D03*
D12*
X520815Y532850D03*
D11*
X495215Y528850D03*
D12*
X495215Y554250D03*
D13*
X577673Y477581D02*
X597231Y477581D01*
X597231Y452181D02*
X577673Y452181D01*
X577673Y426781D02*
X597231Y426781D01*
X107231Y477581D02*
X87673Y477581D01*
X87673Y452181D02*
X107231Y452181D01*
X107231Y426781D02*
X87673Y426781D01*
X346652Y536720D02*
X346652Y556278D01*
X372052Y556278D02*
X372052Y536720D01*
X397452Y536720D02*
X397452Y556278D01*
D10*
X476208Y466379D03*
X526208Y466379D03*
D14*
X529866Y399074D02*
X543074Y399074D01*
X543074Y424474D02*
X529866Y424474D01*
X466874Y424474D02*
X453666Y424474D01*
X453666Y399074D02*
X466874Y399074D01*
D10*
X429257Y471354D03*
X429257Y421354D03*
X549357Y505267D03*
X599357Y505267D03*
X513151Y247394D03*
X513151Y297394D03*
D15*
X411086Y279825D03*
D16*
X391086Y279825D03*
D17*
X418629Y180688D03*
X399579Y193388D03*
X418629Y206088D03*
D18*
X463463Y179243D03*
X482513Y191943D03*
X463463Y204643D03*
D15*
X516963Y192424D03*
D16*
X536963Y192424D03*
D10*
X344253Y238180D03*
X344253Y288180D03*
X264305Y287698D03*
X264305Y237698D03*
D11*
X213338Y178235D03*
D12*
X238738Y178235D03*
D11*
X242532Y206818D03*
D12*
X217132Y206818D03*
D15*
X309574Y343233D03*
D16*
X309574Y323233D03*
D19*
X104482Y348591D03*
X104482Y323191D03*
X104482Y297791D03*
D17*
X46650Y315073D03*
X33950Y296023D03*
X21250Y315073D03*
D15*
X146837Y278918D03*
D16*
X166837Y278918D03*
D11*
X48703Y245267D03*
D12*
X48703Y270667D03*
D11*
X21130Y274211D03*
D12*
X21130Y248811D03*
D10*
X21866Y173273D03*
X21866Y223273D03*
D15*
X160336Y343951D03*
D16*
X160336Y323951D03*
D10*
X224956Y290106D03*
X224956Y240106D03*
X194826Y236806D03*
X144826Y236806D03*
X304429Y238661D03*
X304429Y288661D03*
D11*
X289538Y179418D03*
D12*
X314938Y179418D03*
D11*
X318938Y206789D03*
D12*
X293538Y206789D03*
D13*
X577627Y267738D02*
X597185Y267738D01*
X597185Y242338D02*
X577627Y242338D01*
X577627Y216938D02*
X597185Y216938D01*
X107185Y267738D02*
X87627Y267738D01*
X87627Y242338D02*
X107185Y242338D01*
X107185Y216938D02*
X87627Y216938D01*
X346606Y326877D02*
X346606Y346435D01*
X372006Y346435D02*
X372006Y326877D01*
X397406Y326877D02*
X397406Y346435D01*
D10*
X48507Y173788D03*
X48507Y223788D03*
D20*
X92080Y189684D02*
X92080Y175460D01*
X117480Y175460D02*
X117480Y189684D01*
D10*
X742441Y886257D03*
X692441Y886257D03*
D15*
X710010Y784192D03*
D16*
X710010Y764192D03*
D17*
X809148Y791735D03*
X796448Y772685D03*
X783748Y791735D03*
D21*
X810593Y836569D03*
X797893Y855619D03*
X785193Y836569D03*
D15*
X797411Y890069D03*
D16*
X797411Y910069D03*
D10*
X751656Y717359D03*
X701656Y717359D03*
X702137Y637411D03*
X752137Y637411D03*
D11*
X811601Y586444D03*
D12*
X811601Y611844D03*
D11*
X783018Y615638D03*
D12*
X783018Y590238D03*
D15*
X646603Y682681D03*
D16*
X666603Y682681D03*
D22*
X641244Y477588D03*
X666644Y477588D03*
X692044Y477588D03*
D17*
X674763Y419756D03*
X693813Y407056D03*
X674763Y394356D03*
D15*
X710918Y519943D03*
D16*
X710918Y539943D03*
D11*
X744569Y421809D03*
D12*
X719169Y421809D03*
D11*
X715625Y394236D03*
D12*
X741025Y394236D03*
D10*
X816355Y392284D03*
X766355Y392284D03*
D15*
X645884Y533443D03*
D16*
X665884Y533443D03*
D10*
X699729Y598062D03*
X749729Y598062D03*
X753029Y567933D03*
X753029Y517933D03*
X751174Y677535D03*
X701174Y677535D03*
D11*
X810418Y662644D03*
D12*
X810418Y688044D03*
D11*
X783047Y692044D03*
D12*
X783047Y666644D03*
D13*
X722097Y950733D02*
X722097Y970291D01*
X747497Y970291D02*
X747497Y950733D01*
X772897Y950733D02*
X772897Y970291D01*
X722097Y480291D02*
X722097Y460733D01*
X747497Y460733D02*
X747497Y480291D01*
X772897Y480291D02*
X772897Y460733D01*
X662958Y719712D02*
X643400Y719712D01*
X643400Y745112D02*
X662958Y745112D01*
X662958Y770512D02*
X643400Y770512D01*
D10*
X816047Y418304D03*
X766047Y418304D03*
D20*
X800152Y465187D02*
X814376Y465187D01*
X814376Y490587D02*
X800152Y490587D01*
D23*
X259552Y862181D03*
X297652Y862181D03*
X259259Y652335D03*
X297359Y652335D03*
X259259Y442458D03*
X297359Y442458D03*
X17355Y331974D03*
X552441Y294997D03*
X577750Y345834D03*
X658542Y393210D03*
X694838Y925548D03*
X640350Y948487D03*
M02*
