G04 EAGLE Gerber X2 export*
%TF.Part,Single*%
%TF.FileFunction,Paste,Top*%
%TF.FilePolarity,Positive*%
%TF.GenerationSoftware,Autodesk,EAGLE,9.2.2*%
%TF.CreationDate,2019-03-12T14:11:56Z*%
G75*
%MOMM*%
%FSLAX34Y34*%
%LPD*%
%INSolderpaste Top*%
%AMOC8*
5,1,8,0,0,1.08239X$1,22.5*%
G01*
%ADD10R,2.032000X0.660400*%
%ADD11R,1.803000X1.600000*%
%ADD12R,1.600000X1.803000*%
%ADD13R,2.184400X1.320800*%
%ADD14R,1.320800X2.184400*%


D10*
X275742Y823523D03*
X214274Y823523D03*
X275742Y836223D03*
X275742Y848923D03*
X214274Y836223D03*
X214274Y848923D03*
X275742Y861623D03*
X214274Y861623D03*
D11*
X303023Y941637D03*
X303023Y970077D03*
X273950Y969877D03*
X273950Y941437D03*
D12*
X211728Y977073D03*
X183288Y977073D03*
X304228Y913422D03*
X275788Y913422D03*
D11*
X188108Y855693D03*
X188108Y827253D03*
D12*
X370728Y869273D03*
X342288Y869273D03*
X191488Y884473D03*
X219928Y884473D03*
D13*
X554608Y973903D03*
X598608Y961173D03*
X554608Y948443D03*
D12*
X503599Y920751D03*
X475159Y920751D03*
X274661Y883509D03*
X246221Y883509D03*
D14*
X421895Y922251D03*
X434625Y966251D03*
X447355Y922251D03*
D11*
X468833Y948451D03*
X468833Y976891D03*
D10*
X275449Y613678D03*
X213981Y613678D03*
X275449Y626378D03*
X275449Y639078D03*
X213981Y626378D03*
X213981Y639078D03*
X275449Y651778D03*
X213981Y651778D03*
D11*
X302730Y731791D03*
X302730Y760231D03*
X273657Y760032D03*
X273657Y731592D03*
D12*
X211435Y767228D03*
X182995Y767228D03*
X303935Y703577D03*
X275495Y703577D03*
D11*
X187815Y645848D03*
X187815Y617408D03*
D12*
X370435Y659428D03*
X341995Y659428D03*
X191195Y674628D03*
X219635Y674628D03*
D13*
X554315Y764058D03*
X598315Y751328D03*
X554315Y738598D03*
D12*
X503307Y710905D03*
X474867Y710905D03*
X274368Y673663D03*
X245928Y673663D03*
D14*
X421602Y712405D03*
X434332Y756405D03*
X447062Y712405D03*
D11*
X468540Y738605D03*
X468540Y767045D03*
D10*
X275449Y403800D03*
X213981Y403800D03*
X275449Y416500D03*
X275449Y429200D03*
X213981Y416500D03*
X213981Y429200D03*
X275449Y441900D03*
X213981Y441900D03*
D11*
X302729Y521914D03*
X302729Y550354D03*
X273656Y550154D03*
X273656Y521714D03*
D12*
X211435Y557350D03*
X182995Y557350D03*
X303935Y493699D03*
X275495Y493699D03*
D11*
X187815Y435970D03*
X187815Y407530D03*
D12*
X370435Y449550D03*
X341995Y449550D03*
X191195Y464750D03*
X219635Y464750D03*
D13*
X554315Y554180D03*
X598315Y541450D03*
X554315Y528720D03*
D12*
X503306Y501028D03*
X474866Y501028D03*
X274368Y463786D03*
X245928Y463786D03*
D14*
X421601Y502528D03*
X434331Y546528D03*
X447061Y502528D03*
D11*
X468540Y528727D03*
X468540Y557167D03*
D13*
X552016Y343237D03*
X596016Y330507D03*
X552016Y317777D03*
D12*
X462368Y339237D03*
X433928Y339237D03*
X389684Y235106D03*
X418124Y235106D03*
D11*
X374500Y177898D03*
X374500Y206338D03*
X189513Y205549D03*
X189513Y177109D03*
X271540Y346431D03*
X271540Y317991D03*
D13*
X244002Y319219D03*
X200002Y331949D03*
X244002Y344679D03*
D11*
X343460Y177898D03*
X343460Y206338D03*
X166082Y205549D03*
X166082Y177109D03*
D12*
X19011Y346899D03*
X47451Y346899D03*
D11*
X199556Y296026D03*
X199556Y267586D03*
X73656Y305686D03*
X73656Y334126D03*
X143605Y176583D03*
X143605Y205023D03*
D12*
X490136Y339237D03*
X518576Y339237D03*
D11*
X265713Y204761D03*
X265713Y176321D03*
D14*
X476386Y292106D03*
X463656Y248106D03*
X450926Y292106D03*
X646599Y925122D03*
X659329Y969122D03*
X672059Y925122D03*
D11*
X650598Y835474D03*
X650598Y807034D03*
X754729Y762790D03*
X754729Y791230D03*
D12*
X811938Y747606D03*
X783498Y747606D03*
X784286Y562619D03*
X812726Y562619D03*
X643405Y644646D03*
X671845Y644646D03*
D14*
X670616Y617109D03*
X657886Y573109D03*
X645156Y617109D03*
D12*
X811938Y716566D03*
X783498Y716566D03*
X784286Y539188D03*
X812726Y539188D03*
D11*
X642729Y389842D03*
X642729Y418282D03*
D12*
X693809Y572662D03*
X722249Y572662D03*
X684149Y446762D03*
X655709Y446762D03*
X813253Y516711D03*
X784813Y516711D03*
D11*
X650598Y863242D03*
X650598Y891682D03*
D12*
X785075Y638819D03*
X813515Y638819D03*
D13*
X697729Y849492D03*
X741729Y836762D03*
X697729Y824032D03*
M02*
