G04 EAGLE Gerber RS-274X export*
G75*
%MOMM*%
%FSLAX34Y34*%
%LPD*%
%IN*%
%IPPOS*%
%AMOC8*
5,1,8,0,0,1.08239X$1,22.5*%
G01*
%ADD10R,1.000000X1.100000*%
%ADD11R,1.800000X1.600000*%
%ADD12R,1.600000X1.800000*%
%ADD13R,0.609600X2.209800*%
%ADD14R,1.600000X2.000000*%
%ADD15R,2.000000X1.600000*%
%ADD16R,1.320800X2.184400*%
%ADD17R,1.981200X0.558800*%
%ADD18R,1.270000X0.558800*%
%ADD19R,0.558800X1.270000*%
%ADD20R,3.100000X0.800000*%
%ADD21R,1.270000X2.540000*%
%ADD22R,1.600000X1.000000*%
%ADD23R,6.200000X5.400000*%
%ADD24R,2.400000X2.400000*%
%ADD25R,1.270000X1.270000*%
%ADD26R,1.720000X0.600000*%


D10*
X844550Y707000D03*
X844550Y690000D03*
X793750Y707000D03*
X793750Y690000D03*
D11*
X139700Y649000D03*
X139700Y621000D03*
D12*
X280700Y882650D03*
X252700Y882650D03*
X309850Y755650D03*
X337850Y755650D03*
D13*
X247650Y761238D03*
X260350Y761238D03*
X273050Y761238D03*
X285750Y761238D03*
X285750Y813562D03*
X273050Y813562D03*
X260350Y813562D03*
X247650Y813562D03*
D14*
X252700Y850900D03*
X280700Y850900D03*
X309850Y723900D03*
X337850Y723900D03*
X347950Y685800D03*
X375950Y685800D03*
D15*
X374650Y750600D03*
X374650Y722600D03*
D16*
X438180Y726850D03*
X425450Y682850D03*
X412720Y726850D03*
D14*
X712500Y825500D03*
X684500Y825500D03*
D15*
X317500Y877600D03*
X317500Y849600D03*
X177800Y621000D03*
X177800Y649000D03*
D14*
X278100Y590550D03*
X306100Y590550D03*
D15*
X311150Y395000D03*
X311150Y367000D03*
X139700Y557500D03*
X139700Y585500D03*
X323850Y649000D03*
X323850Y621000D03*
X279400Y649000D03*
X279400Y621000D03*
D16*
X215870Y613000D03*
X228600Y657000D03*
X241330Y613000D03*
D17*
X240538Y527050D03*
X240538Y539750D03*
X240538Y552450D03*
X240538Y565150D03*
X191262Y565150D03*
X191262Y552450D03*
X191262Y539750D03*
X191262Y527050D03*
D18*
X741426Y613350D03*
X741426Y621350D03*
X741426Y629350D03*
X741426Y637350D03*
X741426Y645350D03*
X741426Y653350D03*
X741426Y661350D03*
X741426Y669350D03*
D19*
X726500Y684276D03*
X718500Y684276D03*
X710500Y684276D03*
X702500Y684276D03*
X694500Y684276D03*
X686500Y684276D03*
X678500Y684276D03*
X670500Y684276D03*
D18*
X655574Y669350D03*
X655574Y661350D03*
X655574Y653350D03*
X655574Y645350D03*
X655574Y637350D03*
X655574Y629350D03*
X655574Y621350D03*
X655574Y613350D03*
D19*
X670500Y598424D03*
X678500Y598424D03*
X686500Y598424D03*
X694500Y598424D03*
X702500Y598424D03*
X710500Y598424D03*
X718500Y598424D03*
X726500Y598424D03*
D15*
X800100Y532100D03*
X800100Y560100D03*
X831850Y532100D03*
X831850Y560100D03*
X863600Y532100D03*
X863600Y560100D03*
X768350Y532100D03*
X768350Y560100D03*
X266700Y367000D03*
X266700Y395000D03*
X895350Y532100D03*
X895350Y560100D03*
D20*
X430700Y317400D03*
X430700Y285400D03*
X430700Y263400D03*
X430700Y241400D03*
X483700Y317400D03*
X483700Y285400D03*
X483700Y263400D03*
X483700Y241400D03*
D21*
X571500Y327100D03*
X546100Y327100D03*
X546100Y257100D03*
X571500Y257100D03*
D15*
X615950Y464850D03*
X615950Y436850D03*
X654050Y436850D03*
X654050Y464850D03*
X692150Y436850D03*
X692150Y464850D03*
D12*
X684500Y850900D03*
X712500Y850900D03*
D11*
X603250Y979200D03*
X603250Y951200D03*
D22*
X663200Y975300D03*
X663200Y929700D03*
D23*
X736200Y952500D03*
D14*
X544800Y209550D03*
X572800Y209550D03*
D12*
X557500Y889000D03*
X585500Y889000D03*
X557500Y863600D03*
X585500Y863600D03*
X557500Y838200D03*
X585500Y838200D03*
D11*
X615950Y864900D03*
X615950Y836900D03*
D24*
X435200Y355600D03*
X479200Y355600D03*
D25*
X762000Y914400D03*
X762000Y889000D03*
D15*
X730250Y436850D03*
X730250Y464850D03*
D12*
X585500Y920750D03*
X557500Y920750D03*
D10*
X603250Y639200D03*
X603250Y656200D03*
D26*
X635000Y698500D03*
X635000Y711200D03*
X635000Y723900D03*
X635000Y736600D03*
X584200Y736600D03*
X584200Y723900D03*
X584200Y711200D03*
X584200Y698500D03*
D14*
X846494Y605553D03*
X874494Y605553D03*
M02*
