%MOIN*%
%OFA0B0*%
%FSLAX34Y34*%
%IPPOS*%
%LPD*%
%AMOC8*
5,1,8,0,0,$1,22.5*%
%AMOC80*
5,1,8,0,0,$1,22.5*%
%ADD10C,0.053000000000000005*%
%ADD11R,0.0611496062992126X0.0611496062992126*%
%ADD12C,0.0611496062992126*%
%ADD13P,0.060136574803149608X8X292.5*%
%ADD14C,0.082000000000000017*%
%ADD15C,0.063433070866141736*%
%ADD16R,0.063433070866141736X0.063433070866141736*%
%ADD17C,0.037779527559055122*%
%ADD28P,0.10066228346456693X8X202.5*%
%ADD29R,0.0611496062992126X0.0611496062992126*%
%ADD30C,0.0611496062992126*%
%ADD31C,0.063433070866141736*%
%ADD32R,0.063433070866141736X0.063433070866141736*%
%ADD33C,0.11823622047244095*%
%ADD34C,0.0847716535433071*%
%ADD35P,0.10066228346456693X8X22.5*%
%ADD36P,0.064943385826771657X8X22.5*%
%ADD37C,0.059496062992125995*%
%ADD38R,0.082000000000000017X0.082000000000000017*%
%ADD39P,0.1365004724409449X8X292.5*%
%ADD40C,0.047370078740157487*%
%ADD41P,0.1365004724409449X8X22.5*%
%ADD42P,0.1365004724409449X8X202.5*%
%ADD43C,0.059181102362204731*%
%ADD44P,0.064943385826771657X8X202.5*%
%ADD45C,0.082000000000000017*%
%ADD46C,0.084999999999999992*%
%ADD47C,0.082000000000000017*%
%ADD48C,0.053000000000000005*%
%ADD49C,0.037779527559055122*%
G75*
%LPD*%
G01*
D10*
X0065354Y0020472D02*
X0074090Y0038914D03*
X0072121Y0038914D03*
D11*
X0067613Y0040776D03*
D12*
X0067613Y0039989D03*
D10*
X0080476Y0042401D03*
X0082444Y0042401D03*
X0081448Y0044085D03*
X0079480Y0044085D03*
X0080045Y0045782D03*
X0082014Y0045782D03*
D13*
X0078604Y0033047D03*
X0078604Y0034047D03*
X0078604Y0035047D03*
X0080764Y0032993D03*
X0080764Y0033993D03*
X0080764Y0034993D03*
D14*
X0066535Y0037425D02*
X0066535Y0038165D01*
X0067535Y0038165D02*
X0067535Y0037425D01*
X0068535Y0037425D02*
X0068535Y0038165D01*
X0069535Y0038165D02*
X0069535Y0037425D01*
X0070535Y0037425D02*
X0070535Y0038165D01*
D15*
X0067603Y0043230D03*
D16*
X0067603Y0042230D03*
D15*
X0066428Y0042120D03*
D16*
X0066428Y0043120D03*
D10*
X0066403Y0044313D03*
X0068371Y0044313D03*
D14*
X0092913Y0024779D02*
X0092913Y0024039D01*
X0093913Y0024039D02*
X0093913Y0024779D01*
X0094913Y0024779D02*
X0094913Y0024039D01*
X0095913Y0024039D02*
X0095913Y0024779D01*
X0096913Y0024779D02*
X0096913Y0024039D01*
D17*
X0084554Y0023652D03*
X0083354Y0024852D03*
X0085874Y0036252D03*
X0085514Y0035892D03*
X0074594Y0044472D03*
X0075974Y0045852D03*
X0083354Y0038352D03*
X0068054Y0046332D03*
X0084974Y0042732D03*
X0083954Y0026112D03*
X0074114Y0040932D03*
X0087074Y0046332D03*
X0086774Y0025512D03*
X0085334Y0024072D03*
X0074474Y0042732D03*
X0074114Y0042372D03*
X0081134Y0031152D03*
X0075914Y0041352D03*
X0085514Y0036612D03*
X0085154Y0036252D03*
X0084734Y0039852D03*
X0083368Y0034791D03*
X0086174Y0036912D03*
X0086654Y0036432D03*
X0077294Y0042672D03*
X0078880Y0039384D03*
X0075074Y0044352D03*
X0085214Y0039132D03*
X0075134Y0040932D03*
X0073094Y0042972D03*
X0084194Y0039912D03*
X0079934Y0040932D03*
X0075434Y0044352D03*
X0081554Y0043632D03*
X0080835Y0043319D03*
X0082814Y0043632D03*
X0076034Y0043932D03*
G04 next file*
%LPD*%
G04 EAGLE Gerber RS-274X export*
G75*
G01*
D28*
X0016535Y0018110D02*
X0027073Y0056090D03*
X0027073Y0054664D03*
D29*
X0044006Y0055997D03*
D30*
X0044794Y0055997D03*
D29*
X0041796Y0056066D03*
D30*
X0042584Y0056066D03*
D29*
X0025084Y0055533D03*
D30*
X0025084Y0054746D03*
D31*
X0040297Y0055940D03*
D32*
X0040297Y0054940D03*
D31*
X0023098Y0055807D03*
D32*
X0023098Y0054807D03*
D33*
X0050000Y0019649D03*
X0017913Y0019599D03*
D34*
X0019950Y0026726D02*
X0020718Y0026726D01*
X0020718Y0033116D02*
X0019950Y0033116D01*
X0024950Y0026726D02*
X0025718Y0026726D01*
X0025718Y0033116D02*
X0024950Y0033116D01*
D28*
X0025069Y0034717D03*
D35*
X0026898Y0034712D03*
D34*
X0047194Y0033116D02*
X0047962Y0033116D01*
X0047962Y0026726D02*
X0047194Y0026726D01*
X0042962Y0033116D02*
X0042194Y0033116D01*
X0042194Y0026726D02*
X0042962Y0026726D01*
D36*
X0034073Y0027206D03*
X0033573Y0027956D03*
X0033073Y0027206D03*
D37*
X0044183Y0053610D02*
X0044698Y0053610D01*
X0044698Y0052610D02*
X0044183Y0052610D01*
X0044183Y0051610D02*
X0044698Y0051610D01*
X0044698Y0050610D02*
X0044183Y0050610D01*
X0044183Y0049610D02*
X0044698Y0049610D01*
X0044698Y0048610D02*
X0044183Y0048610D01*
X0044183Y0047610D02*
X0044698Y0047610D01*
X0044698Y0046610D02*
X0044183Y0046610D01*
X0044183Y0045610D02*
X0044698Y0045610D01*
X0044698Y0044610D02*
X0044183Y0044610D01*
X0044183Y0043610D02*
X0044698Y0043610D01*
X0044698Y0042610D02*
X0044183Y0042610D01*
X0044183Y0041610D02*
X0044698Y0041610D01*
X0044698Y0040610D02*
X0044183Y0040610D01*
X0044183Y0039610D02*
X0044698Y0039610D01*
X0044698Y0038610D02*
X0044183Y0038610D01*
X0044183Y0037610D02*
X0044698Y0037610D01*
X0044698Y0036610D02*
X0044183Y0036610D01*
X0044183Y0035610D02*
X0044698Y0035610D01*
X0044698Y0034610D02*
X0044183Y0034610D01*
X0050183Y0053610D02*
X0050698Y0053610D01*
X0050698Y0052610D02*
X0050183Y0052610D01*
X0050183Y0051610D02*
X0050698Y0051610D01*
X0050698Y0050610D02*
X0050183Y0050610D01*
X0050183Y0049610D02*
X0050698Y0049610D01*
X0050698Y0048610D02*
X0050183Y0048610D01*
X0050183Y0047610D02*
X0050698Y0047610D01*
X0050698Y0046610D02*
X0050183Y0046610D01*
X0050183Y0045610D02*
X0050698Y0045610D01*
X0050698Y0044610D02*
X0050183Y0044610D01*
X0050183Y0043610D02*
X0050698Y0043610D01*
X0050698Y0042610D02*
X0050183Y0042610D01*
X0050183Y0041610D02*
X0050698Y0041610D01*
X0050698Y0040610D02*
X0050183Y0040610D01*
X0050183Y0039610D02*
X0050698Y0039610D01*
X0050698Y0038610D02*
X0050183Y0038610D01*
X0050183Y0037610D02*
X0050698Y0037610D01*
X0050698Y0036610D02*
X0050183Y0036610D01*
X0050183Y0035610D02*
X0050698Y0035610D01*
X0050698Y0034610D02*
X0050183Y0034610D01*
D38*
X0046456Y0044094D03*
X0047440Y0044094D03*
X0048425Y0044094D03*
D39*
X0045708Y0046850D03*
X0049173Y0046850D03*
D40*
X0047440Y0046850D03*
D38*
X0027755Y0037598D03*
X0027755Y0038582D03*
X0027755Y0039566D03*
D41*
X0025000Y0036850D03*
X0025000Y0040314D03*
D40*
X0025000Y0038582D03*
D38*
X0040354Y0048818D03*
X0041338Y0048818D03*
X0042322Y0048818D03*
D39*
X0039606Y0051574D03*
X0043070Y0051574D03*
D40*
X0041338Y0051574D03*
D38*
X0040157Y0039566D03*
X0040157Y0038582D03*
X0040157Y0037598D03*
D42*
X0042913Y0040314D03*
X0042913Y0036850D03*
D40*
X0042913Y0038582D03*
D38*
X0032972Y0042913D03*
X0033956Y0042913D03*
X0034940Y0042913D03*
D39*
X0032224Y0045669D03*
X0035688Y0045669D03*
D40*
X0033956Y0045669D03*
D38*
X0019275Y0044094D03*
X0020259Y0044094D03*
X0021243Y0044094D03*
D39*
X0018527Y0046850D03*
X0021991Y0046850D03*
D40*
X0020259Y0046850D03*
D43*
X0028354Y0034624D03*
X0023619Y0034610D03*
X0028364Y0056101D03*
X0028364Y0054621D03*
D44*
X0032488Y0035039D03*
X0031488Y0035039D03*
X0036425Y0035039D03*
X0035425Y0035039D03*
X0038000Y0031889D03*
X0036999Y0031889D03*
X0038787Y0028740D03*
X0037787Y0028740D03*
X0030913Y0031889D03*
X0029913Y0031889D03*
X0030125Y0028740D03*
X0029125Y0028740D03*
D45*
X0017716Y0035063D02*
X0017716Y0035803D01*
X0018716Y0035803D02*
X0018716Y0035063D01*
X0019716Y0035063D02*
X0019716Y0035803D01*
X0020716Y0035803D02*
X0020716Y0035063D01*
X0021716Y0035063D02*
X0021716Y0035803D01*
D46*
X0018499Y0049568D02*
X0017729Y0049568D01*
X0017729Y0050568D02*
X0018499Y0050568D01*
X0018499Y0051568D02*
X0017729Y0051568D01*
X0037020Y0049568D02*
X0037790Y0049568D01*
X0037790Y0050568D02*
X0037020Y0050568D01*
X0037020Y0051568D02*
X0037790Y0051568D01*
X0027594Y0047239D02*
X0027594Y0046469D01*
X0026594Y0046469D02*
X0026594Y0047239D01*
X0025594Y0047239D02*
X0025594Y0046469D01*
D38*
X0025590Y0048818D03*
X0026574Y0048818D03*
X0027559Y0048818D03*
D39*
X0024842Y0051574D03*
X0028307Y0051574D03*
D40*
X0026574Y0051574D03*
D47*
X0035236Y0033173D03*
X0032676Y0033173D03*
X0035236Y0031393D03*
X0032676Y0031393D03*
D29*
X0018368Y0022806D03*
D30*
X0018368Y0022018D03*
D31*
X0021516Y0025135D03*
D32*
X0020516Y0025135D03*
D29*
X0021457Y0019775D03*
D30*
X0022244Y0019775D03*
D48*
X0026210Y0019596D03*
X0026210Y0021565D03*
D29*
X0032585Y0019740D03*
D30*
X0033373Y0019740D03*
D47*
X0036730Y0019961D03*
X0039730Y0019961D03*
D48*
X0037625Y0023352D03*
X0039594Y0023352D03*
D45*
X0044094Y0022417D02*
X0044094Y0021677D01*
X0045094Y0021677D02*
X0045094Y0022417D01*
X0046094Y0022417D02*
X0046094Y0021677D01*
X0047094Y0021677D02*
X0047094Y0022417D01*
X0048094Y0022417D02*
X0048094Y0021677D01*
D33*
X0020887Y0056043D03*
X0046966Y0056032D03*
D43*
X0032239Y0022083D03*
X0033638Y0022083D03*
D35*
X0031783Y0025195D03*
X0033891Y0025195D03*
D49*
X0021995Y0023750D03*
X0024035Y0024770D03*
X0049378Y0021930D03*
X0037631Y0052463D03*
X0038615Y0052309D03*
X0026442Y0035974D03*
X0045335Y0039890D03*
X0045155Y0047870D03*
X0018935Y0033050D03*
M02*