%MOIN*%
%OFA0B0*%
%FSLAX34Y34*%
%IPPOS*%
%LPD*%
%AMOC8*
5,1,8,0,0,$1,22.5*%
%AMOC80*
5,1,8,0,0,$1,22.5*%
%ADD10C,0.045000000000000005*%
%ADD11R,0.053149606299212608X0.053149606299212608*%
%ADD12C,0.053149606299212608*%
%ADD13R,0.070866141732283464X0.062992125984251982*%
%ADD14R,0.026000000000000002X0.08*%
%ADD15R,0.023622047244094488X0.086614173228346469*%
%ADD16R,0.062992125984251982X0.07874015748031496*%
%ADD17R,0.07874015748031496X0.062992125984251982*%
%ADD18P,0.051477440944881894X8X292.5*%
%ADD19R,0.086614173228346469X0.023622047244094488*%
%ADD20C,0.074*%
%ADD21C,0.055433070866141729*%
%ADD22R,0.055433070866141729X0.055433070866141729*%
%ADD23R,0.2X0.1*%
%ADD24C,0.006000000000000001*%
%ADD25C,0.029779527559055118*%
%ADD36P,0.092003149606299212X8X202.5*%
%ADD37R,0.053149606299212608X0.053149606299212608*%
%ADD38C,0.053149606299212608*%
%ADD39R,0.070866141732283464X0.062992125984251982*%
%ADD40R,0.062992125984251982X0.070866141732283464*%
%ADD41R,0.094488188976377951X0.094488188976377951*%
%ADD42C,0.055433070866141729*%
%ADD43R,0.055433070866141729X0.055433070866141729*%
%ADD44C,0.076771653543307089*%
%ADD45R,0.12204724409448819X0.031496062992125991*%
%ADD46R,0.05X0.1*%
%ADD47P,0.092003149606299212X8X22.5*%
%ADD48P,0.056284291338582683X8X22.5*%
%ADD49R,0.07874015748031496X0.062992125984251982*%
%ADD50R,0.062992125984251982X0.07874015748031496*%
%ADD51C,0.051496062992125988*%
%ADD52R,0.074X0.074*%
%ADD53P,0.12784133858267718X8X292.5*%
%ADD54P,0.12784133858267718X8X22.5*%
%ADD55P,0.12784133858267718X8X202.5*%
%ADD56R,0.060000000000000005X0.013000000000000001*%
%ADD57R,0.05X0.05*%
%ADD58C,0.032*%
%ADD59R,0.048000000000000008X0.088*%
%ADD60R,0.14173228346456693X0.086614173228346469*%
%ADD61P,0.056284291338582683X8X202.5*%
%ADD62C,0.074*%
%ADD63C,0.077*%
%ADD64C,0.074*%
%ADD65R,0.086614173228346469X0.023622047244094488*%
%ADD66C,0.045000000000000005*%
%ADD67C,0.006000000000000001*%
%ADD68C,0.029779527559055118*%
G75*
%LPD*%
G01*
D10*
X0065354Y0020472D02*
X0074090Y0038914D03*
X0072121Y0038914D03*
D11*
X0067613Y0040776D03*
D12*
X0067613Y0039989D03*
D10*
X0080476Y0042401D03*
X0082444Y0042401D03*
X0081448Y0044085D03*
X0079480Y0044085D03*
X0080045Y0045782D03*
X0082014Y0045782D03*
D13*
X0071103Y0042839D03*
X0071103Y0043941D03*
D14*
X0087224Y0040726D03*
X0087224Y0038306D03*
X0086724Y0040726D03*
X0086224Y0040726D03*
X0086724Y0038306D03*
X0086224Y0038306D03*
X0085724Y0040726D03*
X0085724Y0038306D03*
X0085224Y0040726D03*
X0085224Y0038306D03*
X0084724Y0040726D03*
X0084224Y0040726D03*
X0084724Y0038306D03*
X0084224Y0038306D03*
X0083724Y0040726D03*
X0083724Y0038306D03*
X0088825Y0045130D03*
X0088825Y0042710D03*
X0088325Y0045130D03*
X0087825Y0045130D03*
X0088325Y0042710D03*
X0087825Y0042710D03*
X0087325Y0045130D03*
X0087325Y0042710D03*
X0086825Y0045130D03*
X0086825Y0042710D03*
X0086325Y0045130D03*
X0085825Y0045130D03*
X0086325Y0042710D03*
X0085825Y0042710D03*
X0085325Y0045130D03*
X0085325Y0042710D03*
D15*
X0075029Y0043666D03*
X0075029Y0041619D03*
X0075529Y0043666D03*
X0074529Y0043666D03*
X0074029Y0043666D03*
X0075529Y0041619D03*
X0074529Y0041619D03*
X0074029Y0041619D03*
X0073029Y0043666D03*
X0073029Y0041619D03*
X0073529Y0043666D03*
X0072529Y0043666D03*
X0073529Y0041619D03*
X0072529Y0041619D03*
D16*
X0084981Y0033344D03*
X0086083Y0033344D03*
D17*
X0071274Y0046246D03*
X0071274Y0045144D03*
X0072669Y0046246D03*
X0072669Y0045144D03*
X0074064Y0046246D03*
X0074064Y0045144D03*
X0088507Y0038700D03*
X0088507Y0039802D03*
X0069919Y0043978D03*
X0069919Y0042876D03*
X0084072Y0044534D03*
X0084072Y0043431D03*
X0079308Y0040214D03*
X0079308Y0041316D03*
X0077899Y0043523D03*
X0077899Y0042421D03*
X0080536Y0040233D03*
X0080536Y0041335D03*
X0076614Y0043500D03*
X0076614Y0042397D03*
D16*
X0069975Y0041621D03*
X0071077Y0041621D03*
D17*
X0077960Y0041362D03*
X0077960Y0040259D03*
X0078472Y0037484D03*
X0078472Y0036381D03*
X0080068Y0037484D03*
X0080068Y0036381D03*
X0081664Y0037484D03*
X0081664Y0036381D03*
D16*
X0073596Y0040417D03*
X0072493Y0040417D03*
X0075298Y0045140D03*
X0076400Y0045140D03*
D18*
X0078604Y0033047D03*
X0078604Y0034047D03*
X0078604Y0035047D03*
X0080764Y0032993D03*
X0080764Y0033993D03*
X0080764Y0034993D03*
D19*
X0082585Y0027090D03*
X0084633Y0027090D03*
X0082585Y0027590D03*
X0082585Y0026590D03*
X0082585Y0026090D03*
X0084633Y0027590D03*
X0084633Y0026590D03*
X0084633Y0026090D03*
X0082585Y0025090D03*
X0084633Y0025090D03*
X0082585Y0025590D03*
X0082585Y0024590D03*
X0084633Y0025590D03*
X0084633Y0024590D03*
D17*
X0082654Y0029854D03*
X0082654Y0028752D03*
D16*
X0083871Y0036587D03*
X0082768Y0036587D03*
X0079637Y0024375D03*
X0080739Y0024375D03*
X0082875Y0022172D03*
X0083978Y0022172D03*
D17*
X0084851Y0029940D03*
X0084851Y0028837D03*
D16*
X0087178Y0026898D03*
X0088280Y0026898D03*
D17*
X0086898Y0023514D03*
X0086898Y0022412D03*
X0085902Y0027714D03*
X0085902Y0026611D03*
X0080613Y0026593D03*
X0080613Y0025491D03*
D16*
X0080447Y0027712D03*
X0081549Y0027712D03*
D17*
X0085579Y0022391D03*
X0085579Y0023493D03*
D16*
X0089545Y0024528D03*
X0090647Y0024528D03*
X0082870Y0023430D03*
X0083972Y0023430D03*
X0081481Y0023072D03*
X0080378Y0023072D03*
X0078120Y0027551D03*
X0079222Y0027551D03*
X0090641Y0026033D03*
X0089539Y0026033D03*
D20*
X0066535Y0037425D02*
X0066535Y0038165D01*
X0067535Y0038165D02*
X0067535Y0037425D01*
X0068535Y0037425D02*
X0068535Y0038165D01*
X0069535Y0038165D02*
X0069535Y0037425D01*
X0070535Y0037425D02*
X0070535Y0038165D01*
D21*
X0067603Y0043230D03*
D22*
X0067603Y0042230D03*
D21*
X0066428Y0042120D03*
D22*
X0066428Y0043120D03*
D10*
X0066403Y0044313D03*
X0068371Y0044313D03*
D17*
X0069878Y0046246D03*
X0069878Y0045144D03*
X0076638Y0040285D03*
X0076638Y0041387D03*
D23*
X0088307Y0046338D03*
X0066811Y0046338D03*
D20*
X0092913Y0024779D02*
X0092913Y0024039D01*
X0093913Y0024039D02*
X0093913Y0024779D01*
X0094913Y0024779D02*
X0094913Y0024039D01*
X0095913Y0024039D02*
X0095913Y0024779D01*
X0096913Y0024779D02*
X0096913Y0024039D01*
D24*
X0073994Y0043452D02*
X0073994Y0043632D01*
X0073994Y0043452D02*
X0073274Y0042732D01*
X0071834Y0042732D01*
X0071234Y0042132D01*
X0070694Y0042132D01*
X0070574Y0042012D01*
X0070574Y0037812D01*
X0073994Y0043632D02*
X0074029Y0043666D01*
X0070574Y0037812D02*
X0070535Y0037795D01*
X0087554Y0038652D02*
X0088454Y0038652D01*
X0087554Y0038652D02*
X0087254Y0038352D01*
X0088454Y0038652D02*
X0088507Y0038700D01*
X0087254Y0038352D02*
X0087224Y0038306D01*
X0088874Y0042732D02*
X0088874Y0044472D01*
X0089054Y0044652D01*
X0089054Y0045612D01*
X0088994Y0045672D01*
X0088694Y0045672D01*
X0088574Y0045552D01*
X0088574Y0043632D01*
X0088094Y0043152D01*
X0088094Y0041052D01*
X0088994Y0040152D01*
X0088994Y0039192D01*
X0088514Y0038712D01*
X0088825Y0042710D02*
X0088874Y0042732D01*
X0088514Y0038712D02*
X0088507Y0038700D01*
X0086894Y0022392D02*
X0085634Y0022392D01*
X0085579Y0022391D01*
X0086894Y0022392D02*
X0086898Y0022412D01*
X0081854Y0026592D02*
X0080654Y0026592D01*
X0081854Y0026592D02*
X0082334Y0026112D01*
X0082574Y0026112D01*
X0080654Y0026592D02*
X0080613Y0026593D01*
X0082574Y0026112D02*
X0082585Y0026090D01*
X0080414Y0027732D02*
X0079934Y0027732D01*
X0079574Y0028092D01*
X0078914Y0028092D01*
X0078794Y0027972D01*
X0078794Y0027132D01*
X0079274Y0026652D01*
X0080594Y0026652D01*
X0080447Y0027712D02*
X0080414Y0027732D01*
X0080594Y0026652D02*
X0080613Y0026593D01*
X0084974Y0030912D02*
X0084974Y0033312D01*
X0084974Y0030912D02*
X0083294Y0029232D01*
X0083294Y0026592D01*
X0082874Y0026172D02*
X0082814Y0026112D01*
X0082874Y0026172D02*
X0083294Y0026592D01*
X0082814Y0026112D02*
X0082634Y0026112D01*
X0084974Y0033312D02*
X0084981Y0033344D01*
X0082634Y0026112D02*
X0082585Y0026090D01*
X0085574Y0022632D02*
X0085574Y0022392D01*
X0085574Y0022632D02*
X0084554Y0023652D01*
X0083354Y0024852D02*
X0083354Y0025692D01*
X0082874Y0026172D01*
X0085574Y0022392D02*
X0085579Y0022391D01*
X0082874Y0026172D02*
X0082585Y0026090D01*
X0087194Y0037572D02*
X0087194Y0038292D01*
X0087194Y0037572D02*
X0085874Y0036252D01*
X0085514Y0035892D02*
X0085514Y0033852D01*
X0085034Y0033372D01*
X0087194Y0038292D02*
X0087224Y0038306D01*
X0085034Y0033372D02*
X0084981Y0033344D01*
X0074054Y0043692D02*
X0074054Y0043932D01*
X0074594Y0044472D01*
X0075974Y0045852D02*
X0079454Y0045852D01*
X0079874Y0046272D01*
X0086714Y0046272D01*
X0087314Y0045672D01*
X0088454Y0045672D01*
X0088574Y0045552D01*
X0074054Y0043692D02*
X0074029Y0043666D01*
D25*
X0084554Y0023652D03*
X0083354Y0024852D03*
X0085874Y0036252D03*
X0085514Y0035892D03*
X0074594Y0044472D03*
X0075974Y0045852D03*
D24*
X0083354Y0038352D02*
X0083714Y0038352D01*
X0083724Y0038306D01*
X0068054Y0046332D02*
X0066854Y0046332D01*
X0066811Y0046338D01*
X0084974Y0042732D02*
X0085274Y0042732D01*
X0085325Y0042710D01*
X0084614Y0026112D02*
X0083954Y0026112D01*
X0084614Y0026112D02*
X0084633Y0026090D01*
X0074054Y0040992D02*
X0074054Y0041592D01*
X0074054Y0040992D02*
X0074114Y0040932D01*
X0074054Y0041592D02*
X0074029Y0041619D01*
X0087074Y0046332D02*
X0088274Y0046332D01*
X0088307Y0046338D01*
D25*
X0083354Y0038352D03*
X0068054Y0046332D03*
X0084974Y0042732D03*
X0083954Y0026112D03*
X0074114Y0040932D03*
X0087074Y0046332D03*
D24*
X0077954Y0041352D02*
X0076694Y0041352D01*
X0077954Y0041352D02*
X0077960Y0041362D01*
X0076694Y0041352D02*
X0076638Y0041387D01*
X0080174Y0041352D02*
X0080534Y0041352D01*
X0080174Y0041352D02*
X0079334Y0041352D01*
X0079308Y0041316D01*
X0080534Y0041352D02*
X0080536Y0041335D01*
X0081854Y0040692D02*
X0083714Y0040692D01*
X0081854Y0040692D02*
X0080954Y0039792D01*
X0080114Y0039792D01*
X0079994Y0039912D01*
X0079994Y0040632D01*
X0080174Y0040812D01*
X0080174Y0041352D01*
X0083714Y0040692D02*
X0083724Y0040726D01*
X0080536Y0041335D02*
X0080174Y0041352D01*
X0084674Y0045132D02*
X0085274Y0045132D01*
X0084674Y0045132D02*
X0084614Y0045192D01*
X0082094Y0045192D01*
X0081074Y0044172D01*
X0081074Y0043752D01*
X0081854Y0042972D01*
X0081854Y0040692D01*
X0085274Y0045132D02*
X0085325Y0045130D01*
X0079274Y0041352D02*
X0078014Y0041352D01*
X0077960Y0041362D01*
X0079274Y0041352D02*
X0079308Y0041316D01*
X0084014Y0023412D02*
X0084014Y0022212D01*
X0083978Y0022172D01*
X0084014Y0023412D02*
X0083972Y0023430D01*
X0088154Y0026892D02*
X0088274Y0026892D01*
X0088154Y0026892D02*
X0086774Y0025512D01*
X0085334Y0024072D02*
X0084614Y0024072D01*
X0084014Y0023472D01*
X0088274Y0026892D02*
X0088280Y0026898D01*
X0084014Y0023472D02*
X0083972Y0023430D01*
X0073574Y0040452D02*
X0073574Y0041592D01*
X0073574Y0040452D02*
X0073596Y0040417D01*
X0073574Y0041592D02*
X0073529Y0041619D01*
X0074474Y0042732D02*
X0074474Y0043632D01*
X0074114Y0042372D02*
X0073934Y0042192D01*
X0073874Y0042192D01*
X0073574Y0041892D01*
X0073574Y0041652D01*
X0074474Y0043632D02*
X0074529Y0043666D01*
X0073574Y0041652D02*
X0073529Y0041619D01*
X0082274Y0036612D02*
X0082754Y0036612D01*
X0082274Y0036612D02*
X0081974Y0036912D01*
X0072914Y0036912D02*
X0070394Y0036912D01*
X0072914Y0036912D02*
X0081974Y0036912D01*
X0070394Y0036912D02*
X0069554Y0037752D01*
X0082754Y0036612D02*
X0082768Y0036587D01*
X0069554Y0037752D02*
X0069535Y0037795D01*
X0073454Y0041892D02*
X0073574Y0041892D01*
X0073454Y0041892D02*
X0073154Y0042192D01*
X0072914Y0042192D01*
X0072794Y0042072D01*
X0072794Y0040992D01*
X0072914Y0040872D01*
X0072914Y0036912D01*
X0073529Y0041619D02*
X0073574Y0041892D01*
X0081134Y0034992D02*
X0081134Y0031152D01*
X0081134Y0034992D02*
X0082274Y0036132D01*
X0082274Y0036612D01*
X0076634Y0041352D02*
X0075914Y0041352D01*
X0076634Y0041352D02*
X0076638Y0041387D01*
D25*
X0086774Y0025512D03*
X0085334Y0024072D03*
X0074474Y0042732D03*
X0074114Y0042372D03*
X0081134Y0031152D03*
X0075914Y0041352D03*
D24*
X0082694Y0029832D02*
X0082694Y0029592D01*
X0083174Y0029112D01*
X0083174Y0028152D01*
X0082634Y0027612D01*
X0082694Y0029832D02*
X0082654Y0029854D01*
X0082634Y0027612D02*
X0082585Y0027590D01*
X0086174Y0039672D02*
X0086174Y0040692D01*
X0086174Y0039672D02*
X0085994Y0039492D01*
X0085994Y0037092D01*
X0085514Y0036612D01*
X0085154Y0036252D02*
X0085154Y0034392D01*
X0082694Y0031932D01*
X0082694Y0029892D01*
X0086174Y0040692D02*
X0086224Y0040726D01*
X0082694Y0029892D02*
X0082654Y0029854D01*
D25*
X0085514Y0036612D03*
X0085154Y0036252D03*
D24*
X0079694Y0025452D02*
X0079694Y0024432D01*
X0079994Y0025752D02*
X0080174Y0025932D01*
X0079994Y0025752D02*
X0079694Y0025452D01*
X0080174Y0025932D02*
X0082034Y0025932D01*
X0082154Y0025812D01*
X0083054Y0025812D01*
X0083114Y0025752D01*
X0083114Y0024912D01*
X0082814Y0024612D01*
X0082634Y0024612D01*
X0079694Y0024432D02*
X0079637Y0024375D01*
X0082585Y0024590D02*
X0082634Y0024612D01*
X0084734Y0039852D02*
X0084734Y0040692D01*
X0083368Y0034791D02*
X0083368Y0032966D01*
X0078674Y0028272D01*
X0078674Y0027072D01*
X0079994Y0025752D01*
X0084734Y0040692D02*
X0084724Y0040726D01*
D25*
X0084734Y0039852D03*
X0083368Y0034791D03*
D24*
X0084794Y0029892D02*
X0084794Y0029652D01*
X0084314Y0029172D01*
X0084314Y0027912D01*
X0084614Y0027612D01*
X0084794Y0029892D02*
X0084851Y0029940D01*
X0084614Y0027612D02*
X0084633Y0027590D01*
X0084734Y0037032D02*
X0084734Y0038292D01*
X0084734Y0037032D02*
X0085754Y0036012D01*
X0085754Y0033852D01*
X0085394Y0033492D01*
X0085394Y0030492D01*
X0084854Y0029952D01*
X0084734Y0038292D02*
X0084724Y0038306D01*
X0084854Y0029952D02*
X0084851Y0029940D01*
X0086234Y0038352D02*
X0086234Y0039552D01*
X0086474Y0039792D01*
X0086474Y0042552D01*
X0086354Y0042672D01*
X0086234Y0038352D02*
X0086224Y0038306D01*
X0086354Y0042672D02*
X0086325Y0042710D01*
X0086654Y0027672D02*
X0088034Y0027672D01*
X0086654Y0027672D02*
X0085934Y0027672D01*
X0088034Y0027672D02*
X0088274Y0027432D01*
X0088634Y0027432D01*
X0089114Y0026952D01*
X0089114Y0025572D01*
X0089654Y0025032D01*
X0089894Y0025032D01*
X0089954Y0024972D01*
X0089954Y0024072D01*
X0088934Y0023052D01*
X0086474Y0023052D01*
X0086114Y0023412D01*
X0086114Y0023832D01*
X0085394Y0024552D01*
X0084674Y0024552D01*
X0085934Y0027672D02*
X0085902Y0027714D01*
X0084633Y0024590D02*
X0084674Y0024552D01*
X0086174Y0036912D02*
X0086174Y0038292D01*
X0086654Y0036432D02*
X0086654Y0027672D01*
X0086174Y0038292D02*
X0086224Y0038306D01*
D25*
X0086174Y0036912D03*
X0086654Y0036432D03*
D24*
X0088094Y0039852D02*
X0088454Y0039852D01*
X0088094Y0039852D02*
X0087254Y0040692D01*
X0088454Y0039852D02*
X0088507Y0039802D01*
X0087254Y0040692D02*
X0087224Y0040726D01*
X0086114Y0036252D02*
X0086114Y0033372D01*
X0086114Y0036252D02*
X0088154Y0038292D01*
X0088994Y0038292D01*
X0089114Y0038412D01*
X0089114Y0041712D01*
X0088574Y0042252D01*
X0088574Y0043452D01*
X0088754Y0043632D01*
X0088754Y0045012D01*
X0088814Y0045072D01*
X0086114Y0033372D02*
X0086083Y0033344D01*
X0088814Y0045072D02*
X0088825Y0045130D01*
X0071834Y0046212D02*
X0071294Y0046212D01*
X0071834Y0046212D02*
X0072254Y0045792D01*
X0073094Y0045792D01*
X0073574Y0046272D01*
X0073574Y0046632D01*
X0073634Y0046692D01*
X0074594Y0046692D01*
X0075854Y0045432D01*
X0075854Y0044652D01*
X0076574Y0043932D01*
X0077054Y0043932D01*
X0077114Y0043872D01*
X0077114Y0043152D01*
X0076814Y0042852D01*
X0076034Y0042852D01*
X0075314Y0042132D01*
X0075314Y0041112D01*
X0075734Y0040692D01*
X0078374Y0040692D01*
X0078794Y0040272D01*
X0078794Y0039852D01*
X0078974Y0039672D01*
X0084314Y0039672D01*
X0084494Y0039852D01*
X0084494Y0041172D01*
X0084554Y0041232D01*
X0085394Y0041232D01*
X0085694Y0040932D01*
X0085694Y0040752D01*
X0071294Y0046212D02*
X0071274Y0046246D01*
X0085694Y0040752D02*
X0085724Y0040726D01*
X0073034Y0046272D02*
X0072674Y0046272D01*
X0073034Y0046272D02*
X0073574Y0046812D01*
X0074654Y0046812D01*
X0075974Y0045492D01*
X0075974Y0044712D01*
X0076634Y0044052D01*
X0077114Y0044052D01*
X0077294Y0043872D01*
X0077294Y0042672D01*
X0078880Y0039384D02*
X0084626Y0039384D01*
X0085214Y0039972D01*
X0085214Y0040692D01*
X0072669Y0046246D02*
X0072674Y0046272D01*
X0085224Y0040726D02*
X0085214Y0040692D01*
D25*
X0077294Y0042672D03*
X0078880Y0039384D03*
D24*
X0074114Y0045972D02*
X0074114Y0046212D01*
X0074114Y0045972D02*
X0074834Y0045252D01*
X0074834Y0044592D01*
X0075074Y0044352D01*
X0085214Y0039132D02*
X0085214Y0038352D01*
X0074114Y0046212D02*
X0074064Y0046246D01*
X0085214Y0038352D02*
X0085224Y0038306D01*
D25*
X0075074Y0044352D03*
X0085214Y0039132D03*
D24*
X0072614Y0045132D02*
X0071294Y0045132D01*
X0071274Y0045144D01*
X0072614Y0045132D02*
X0072669Y0045144D01*
X0072674Y0045132D02*
X0073574Y0045132D01*
X0074054Y0045132D01*
X0074064Y0045144D01*
X0072674Y0045132D02*
X0072669Y0045144D01*
X0073574Y0045132D02*
X0073574Y0043692D01*
X0073529Y0043666D01*
X0071054Y0042852D02*
X0069974Y0042852D01*
X0071054Y0042852D02*
X0071103Y0042839D01*
X0069974Y0042852D02*
X0069919Y0042876D01*
X0069914Y0045132D02*
X0070394Y0045132D01*
X0071054Y0044472D01*
X0072434Y0044472D01*
X0072974Y0043932D01*
X0072974Y0043692D01*
X0069914Y0045132D02*
X0069878Y0045144D01*
X0072974Y0043692D02*
X0073029Y0043666D01*
X0075734Y0040332D02*
X0076634Y0040332D01*
X0075734Y0040332D02*
X0075134Y0040932D01*
X0073094Y0042972D02*
X0073094Y0043572D01*
X0073034Y0043632D01*
X0076634Y0040332D02*
X0076638Y0040285D01*
X0073034Y0043632D02*
X0073029Y0043666D01*
X0072974Y0042852D02*
X0071114Y0042852D01*
X0072974Y0042852D02*
X0073094Y0042972D01*
X0071114Y0042852D02*
X0071103Y0042839D01*
D25*
X0075134Y0040932D03*
X0073094Y0042972D03*
D24*
X0070334Y0043992D02*
X0069974Y0043992D01*
X0070334Y0043992D02*
X0070694Y0044352D01*
X0071834Y0044352D01*
X0072074Y0044112D02*
X0072494Y0043692D01*
X0072074Y0044112D02*
X0071834Y0044352D01*
X0069974Y0043992D02*
X0069919Y0043978D01*
X0072494Y0043692D02*
X0072529Y0043666D01*
X0067634Y0042192D02*
X0067634Y0042132D01*
X0067634Y0040812D01*
X0067613Y0040776D01*
X0067634Y0042192D02*
X0067603Y0042230D01*
X0067634Y0042132D02*
X0066434Y0042132D01*
X0066428Y0042120D01*
X0067603Y0042230D02*
X0067634Y0042132D01*
X0071294Y0043332D02*
X0072074Y0044112D01*
X0071294Y0043332D02*
X0068714Y0043332D01*
X0067634Y0042252D01*
X0067603Y0042230D01*
X0085694Y0039012D02*
X0085694Y0038352D01*
X0085694Y0039012D02*
X0085334Y0039372D01*
X0085094Y0039372D01*
X0084494Y0038772D01*
X0084494Y0037872D01*
X0083714Y0037092D01*
X0082154Y0037092D01*
X0082094Y0037032D01*
X0075974Y0037032D01*
X0074114Y0038892D01*
X0085694Y0038352D02*
X0085724Y0038306D01*
X0074114Y0038892D02*
X0074090Y0038914D01*
X0073034Y0039972D02*
X0073034Y0041592D01*
X0073034Y0039972D02*
X0074054Y0038952D01*
X0073034Y0041592D02*
X0073029Y0041619D01*
X0074054Y0038952D02*
X0074090Y0038914D01*
X0072494Y0040452D02*
X0072494Y0041592D01*
X0072494Y0040452D02*
X0072493Y0040417D01*
X0072494Y0041592D02*
X0072529Y0041619D01*
X0072134Y0040092D02*
X0072134Y0038952D01*
X0072134Y0040092D02*
X0072434Y0040392D01*
X0072134Y0038952D02*
X0072121Y0038914D01*
X0072434Y0040392D02*
X0072493Y0040417D01*
X0084074Y0040872D02*
X0084074Y0043392D01*
X0084074Y0040872D02*
X0084194Y0040752D01*
X0084074Y0043392D02*
X0084072Y0043431D01*
X0084194Y0040752D02*
X0084224Y0040726D01*
X0078434Y0036372D02*
X0078434Y0035352D01*
X0078254Y0035172D01*
X0078254Y0034392D01*
X0078554Y0034092D01*
X0078434Y0036372D02*
X0078472Y0036381D01*
X0078554Y0034092D02*
X0078604Y0034047D01*
X0078614Y0034032D02*
X0080714Y0034032D01*
X0080764Y0033993D01*
X0078614Y0034032D02*
X0078604Y0034047D01*
X0084194Y0039912D02*
X0084194Y0040692D01*
X0084224Y0040726D01*
D25*
X0084194Y0039912D03*
D24*
X0084194Y0044532D02*
X0084074Y0044532D01*
X0084194Y0044532D02*
X0085814Y0042912D01*
X0085814Y0042732D01*
X0084074Y0044532D02*
X0084072Y0044534D01*
X0085814Y0042732D02*
X0085825Y0042710D01*
X0082574Y0042510D02*
X0082574Y0043752D01*
X0083354Y0044532D01*
X0084014Y0044532D01*
X0082574Y0042510D02*
X0082444Y0042401D01*
X0084014Y0044532D02*
X0084072Y0044534D01*
X0079934Y0040872D02*
X0079334Y0040272D01*
X0079934Y0040872D02*
X0079934Y0040932D01*
X0079334Y0040272D02*
X0079308Y0040214D01*
D25*
X0079934Y0040932D03*
D24*
X0086774Y0042732D02*
X0086774Y0043152D01*
X0085334Y0044592D01*
X0085034Y0044592D01*
X0084554Y0045072D01*
X0082454Y0045072D01*
X0081494Y0044112D01*
X0086774Y0042732D02*
X0086825Y0042710D01*
X0081494Y0044112D02*
X0081448Y0044085D01*
X0075074Y0043992D02*
X0075074Y0043692D01*
X0075074Y0043992D02*
X0075434Y0044352D01*
X0075074Y0043692D02*
X0075029Y0043666D01*
D25*
X0075434Y0044352D03*
D24*
X0077954Y0043572D02*
X0079454Y0043572D01*
X0079814Y0043932D01*
X0079814Y0045552D01*
X0079694Y0045672D01*
X0079694Y0045912D01*
X0079934Y0046152D01*
X0081614Y0046152D01*
X0081974Y0045792D01*
X0077954Y0043572D02*
X0077899Y0043523D01*
X0081974Y0045792D02*
X0082014Y0045782D01*
X0086774Y0040092D02*
X0086774Y0038352D01*
X0086774Y0040092D02*
X0086954Y0040272D01*
X0086954Y0042132D01*
X0087074Y0042252D01*
X0087074Y0043212D01*
X0085574Y0044712D01*
X0085574Y0045552D01*
X0085394Y0045732D01*
X0082034Y0045732D01*
X0086774Y0038352D02*
X0086724Y0038306D01*
X0082034Y0045732D02*
X0082014Y0045782D01*
X0080594Y0040512D02*
X0080594Y0040272D01*
X0080594Y0040512D02*
X0081194Y0041112D01*
X0081194Y0043452D01*
X0080054Y0044592D01*
X0080054Y0045732D01*
X0080594Y0040272D02*
X0080536Y0040233D01*
X0080054Y0045732D02*
X0080045Y0045782D01*
X0077894Y0042432D02*
X0076634Y0042432D01*
X0076614Y0042397D01*
X0077894Y0042432D02*
X0077899Y0042421D01*
X0086714Y0042132D02*
X0086714Y0040752D01*
X0086714Y0042132D02*
X0086594Y0042252D01*
X0086594Y0043152D01*
X0085274Y0044472D01*
X0084974Y0044472D01*
X0084494Y0044952D01*
X0082874Y0044952D01*
X0081554Y0043632D01*
X0080835Y0043319D02*
X0080799Y0043284D01*
X0078806Y0043284D01*
X0077954Y0042432D01*
X0086714Y0040752D02*
X0086724Y0040726D01*
X0077954Y0042432D02*
X0077899Y0042421D01*
X0075854Y0041652D02*
X0075554Y0041652D01*
X0075854Y0041652D02*
X0076574Y0042372D01*
X0075554Y0041652D02*
X0075529Y0041619D01*
X0076574Y0042372D02*
X0076614Y0042397D01*
D25*
X0081554Y0043632D03*
X0080835Y0043319D03*
D24*
X0080054Y0037512D02*
X0078494Y0037512D01*
X0078472Y0037484D01*
X0080054Y0037512D02*
X0080068Y0037484D01*
X0078014Y0037932D02*
X0078014Y0039852D01*
X0078014Y0040212D01*
X0078014Y0037932D02*
X0078434Y0037512D01*
X0078014Y0040212D02*
X0077960Y0040259D01*
X0078434Y0037512D02*
X0078472Y0037484D01*
X0080114Y0037512D02*
X0081614Y0037512D01*
X0081664Y0037484D01*
X0080114Y0037512D02*
X0080068Y0037484D01*
X0074534Y0041172D02*
X0074534Y0041592D01*
X0074534Y0041172D02*
X0075854Y0039852D01*
X0078014Y0039852D01*
X0074534Y0041592D02*
X0074529Y0041619D01*
X0076454Y0045132D02*
X0078434Y0045132D01*
X0079454Y0044112D01*
X0076454Y0045132D02*
X0076400Y0045140D01*
X0079454Y0044112D02*
X0079480Y0044085D01*
X0084254Y0038712D02*
X0084254Y0038352D01*
X0084254Y0038712D02*
X0085754Y0040212D01*
X0085874Y0040212D01*
X0085994Y0040332D01*
X0085994Y0041352D01*
X0084614Y0042732D01*
X0084614Y0043752D01*
X0084494Y0043872D01*
X0083054Y0043872D01*
X0082814Y0043632D01*
X0084254Y0038352D02*
X0084224Y0038306D01*
X0075794Y0043692D02*
X0075554Y0043692D01*
X0075794Y0043692D02*
X0076034Y0043932D01*
X0075554Y0043692D02*
X0075529Y0043666D01*
D25*
X0082814Y0043632D03*
X0076034Y0043932D03*
D24*
X0079934Y0036372D02*
X0080054Y0036372D01*
X0079934Y0036372D02*
X0078614Y0035052D01*
X0080054Y0036372D02*
X0080068Y0036381D01*
X0078614Y0035052D02*
X0078604Y0035047D01*
X0081614Y0035892D02*
X0081614Y0036372D01*
X0081614Y0035892D02*
X0080774Y0035052D01*
X0081614Y0036372D02*
X0081664Y0036381D01*
X0080774Y0035052D02*
X0080764Y0034993D01*
X0075314Y0045012D02*
X0075314Y0045132D01*
X0075314Y0045012D02*
X0076574Y0043752D01*
X0076574Y0043512D01*
X0075314Y0045132D02*
X0075298Y0045140D01*
X0076574Y0043512D02*
X0076614Y0043500D01*
X0071834Y0041652D02*
X0071114Y0041652D01*
X0071834Y0041652D02*
X0072794Y0042612D01*
X0074234Y0042612D01*
X0074894Y0041952D02*
X0075014Y0041832D01*
X0074894Y0041952D02*
X0074234Y0042612D01*
X0075014Y0041832D02*
X0075014Y0041652D01*
X0071114Y0041652D02*
X0071077Y0041621D01*
X0075014Y0041652D02*
X0075029Y0041619D01*
X0076394Y0043452D02*
X0076574Y0043452D01*
X0076394Y0043452D02*
X0074894Y0041952D01*
X0076574Y0043452D02*
X0076614Y0043500D01*
X0067574Y0039972D02*
X0067574Y0037812D01*
X0067574Y0039972D02*
X0067613Y0039989D01*
X0067574Y0037812D02*
X0067535Y0037795D01*
X0069134Y0041592D02*
X0069974Y0041592D01*
X0069134Y0041592D02*
X0067934Y0040392D01*
X0067454Y0040392D01*
X0066554Y0039492D01*
X0066554Y0037812D01*
X0069974Y0041592D02*
X0069975Y0041621D01*
X0066554Y0037812D02*
X0066535Y0037795D01*
X0078134Y0027492D02*
X0078134Y0024432D01*
X0081014Y0021552D01*
X0094094Y0021552D01*
X0096914Y0024372D01*
X0078134Y0027492D02*
X0078120Y0027551D01*
X0096913Y0024409D02*
X0096914Y0024372D01*
X0081494Y0023052D02*
X0081494Y0022692D01*
X0082514Y0021672D01*
X0093254Y0021672D01*
X0095954Y0024372D01*
X0081494Y0023052D02*
X0081481Y0023072D01*
X0095913Y0024409D02*
X0095954Y0024372D01*
X0093374Y0025992D02*
X0090674Y0025992D01*
X0093374Y0025992D02*
X0094934Y0024432D01*
X0090674Y0025992D02*
X0090641Y0026033D01*
X0094913Y0024409D02*
X0094934Y0024432D01*
X0091994Y0024552D02*
X0090674Y0024552D01*
X0091994Y0024552D02*
X0092714Y0025272D01*
X0093074Y0025272D01*
X0093914Y0024432D01*
X0090674Y0024552D02*
X0090647Y0024528D01*
X0093913Y0024409D02*
X0093914Y0024432D01*
X0082634Y0028332D02*
X0082634Y0028692D01*
X0082634Y0028332D02*
X0082034Y0027732D01*
X0082034Y0027432D01*
X0082334Y0027132D01*
X0082574Y0027132D01*
X0082634Y0028692D02*
X0082654Y0028752D01*
X0082574Y0027132D02*
X0082585Y0027090D01*
X0083834Y0033252D02*
X0083834Y0036552D01*
X0083834Y0033252D02*
X0082154Y0031572D01*
X0082154Y0029232D01*
X0082634Y0028752D01*
X0083834Y0036552D02*
X0083871Y0036587D01*
X0082654Y0028752D02*
X0082634Y0028752D01*
X0081734Y0024432D02*
X0080774Y0024432D01*
X0081734Y0024432D02*
X0082334Y0025032D01*
X0082574Y0025032D01*
X0080774Y0024432D02*
X0080739Y0024375D01*
X0082574Y0025032D02*
X0082585Y0025090D01*
X0082874Y0022392D02*
X0082874Y0022212D01*
X0082874Y0022392D02*
X0081914Y0023352D01*
X0081914Y0024252D01*
X0081734Y0024432D01*
X0082874Y0022212D02*
X0082875Y0022172D01*
X0086594Y0026952D02*
X0087134Y0026952D01*
X0086594Y0026952D02*
X0086354Y0027192D01*
X0085214Y0027192D02*
X0084734Y0027192D01*
X0085214Y0027192D02*
X0086354Y0027192D01*
X0084734Y0027192D02*
X0084674Y0027132D01*
X0087134Y0026952D02*
X0087178Y0026898D01*
X0084674Y0027132D02*
X0084633Y0027090D01*
X0084854Y0028092D02*
X0084854Y0028812D01*
X0084854Y0028092D02*
X0085214Y0027732D01*
X0085214Y0027192D01*
X0084854Y0028812D02*
X0084851Y0028837D01*
X0079814Y0027492D02*
X0079274Y0027492D01*
X0079814Y0027492D02*
X0080114Y0027192D01*
X0081014Y0027192D01*
X0081374Y0027552D02*
X0081494Y0027672D01*
X0081374Y0027552D02*
X0081014Y0027192D01*
X0079274Y0027492D02*
X0079222Y0027551D01*
X0081494Y0027672D02*
X0081549Y0027712D01*
X0082334Y0026592D02*
X0082574Y0026592D01*
X0082334Y0026592D02*
X0081374Y0027552D01*
X0082574Y0026592D02*
X0082585Y0026590D01*
X0081549Y0027712D02*
X0081374Y0027552D01*
X0080354Y0023892D02*
X0080354Y0023112D01*
X0080354Y0023892D02*
X0080294Y0023952D01*
X0080294Y0025152D01*
X0080594Y0025452D01*
X0080354Y0023112D02*
X0080378Y0023072D01*
X0080594Y0025452D02*
X0080613Y0025491D01*
X0080714Y0025572D02*
X0082574Y0025572D01*
X0080714Y0025572D02*
X0080654Y0025512D01*
X0082574Y0025572D02*
X0082585Y0025590D01*
X0080654Y0025512D02*
X0080613Y0025491D01*
X0085634Y0023472D02*
X0085874Y0023472D01*
X0086414Y0022932D01*
X0088994Y0022932D01*
X0090074Y0024012D01*
X0090074Y0025512D01*
X0089594Y0025992D01*
X0085634Y0023472D02*
X0085579Y0023493D01*
X0089539Y0026033D02*
X0089594Y0025992D01*
X0084614Y0026532D02*
X0084014Y0026532D01*
X0083594Y0026112D01*
X0083594Y0024732D01*
X0082814Y0023952D01*
X0082514Y0023952D01*
X0082454Y0023892D01*
X0082454Y0022992D01*
X0082514Y0022932D01*
X0083234Y0022932D01*
X0083534Y0023232D01*
X0083534Y0023832D01*
X0084014Y0024312D01*
X0085454Y0024312D01*
X0085574Y0024192D01*
X0085574Y0023532D01*
X0084614Y0026532D02*
X0084633Y0026590D01*
X0085574Y0023532D02*
X0085579Y0023493D01*
X0086954Y0023532D02*
X0088574Y0023532D01*
X0089534Y0024492D01*
X0086954Y0023532D02*
X0086898Y0023514D01*
X0089534Y0024492D02*
X0089545Y0024528D01*
X0084854Y0025632D02*
X0084674Y0025632D01*
X0084854Y0025632D02*
X0085394Y0026172D01*
X0085394Y0026952D01*
X0085514Y0027072D01*
X0086294Y0027072D01*
X0086534Y0026832D01*
X0086534Y0023892D01*
X0086894Y0023532D01*
X0084674Y0025632D02*
X0084633Y0025590D01*
X0086894Y0023532D02*
X0086898Y0023514D01*
X0084074Y0024672D02*
X0082874Y0023472D01*
X0084074Y0024672D02*
X0084074Y0024732D01*
X0084374Y0025032D01*
X0084614Y0025032D01*
X0082874Y0023472D02*
X0082870Y0023430D01*
X0084614Y0025032D02*
X0084633Y0025090D01*
X0085874Y0026112D02*
X0085874Y0026592D01*
X0085874Y0026112D02*
X0084854Y0025092D01*
X0084674Y0025092D01*
X0085874Y0026592D02*
X0085902Y0026611D01*
X0084674Y0025092D02*
X0084633Y0025090D01*
X0069854Y0045972D02*
X0069854Y0046212D01*
X0069854Y0045972D02*
X0068414Y0044532D01*
X0068414Y0044352D01*
X0069854Y0046212D02*
X0069878Y0046246D01*
X0068414Y0044352D02*
X0068371Y0044313D01*
X0066434Y0043272D02*
X0066434Y0043152D01*
X0066434Y0043272D02*
X0066434Y0044292D01*
X0066403Y0044313D01*
X0066434Y0043152D02*
X0066428Y0043120D01*
X0070754Y0043932D02*
X0071054Y0043932D01*
X0070754Y0043932D02*
X0070274Y0043452D01*
X0067814Y0043452D01*
X0067634Y0043272D01*
X0071054Y0043932D02*
X0071103Y0043941D01*
X0067634Y0043272D02*
X0067603Y0043230D01*
X0067574Y0043272D02*
X0066434Y0043272D01*
X0066428Y0043120D01*
X0067574Y0043272D02*
X0067603Y0043230D01*
G04 next file*
%LPD*%
G04 EAGLE Gerber RS-274X export*
G75*
G01*
D36*
X0016535Y0018110D02*
X0027073Y0056090D03*
X0027073Y0054664D03*
D37*
X0044006Y0055997D03*
D38*
X0044794Y0055997D03*
D39*
X0032779Y0052442D03*
X0032779Y0051340D03*
X0034280Y0052385D03*
X0034280Y0051283D03*
D40*
X0041586Y0053446D03*
X0042688Y0053446D03*
X0041709Y0054478D03*
X0042812Y0054478D03*
D37*
X0041796Y0056066D03*
D38*
X0042584Y0056066D03*
D37*
X0025084Y0055533D03*
D38*
X0025084Y0054746D03*
D39*
X0050457Y0021896D03*
X0050457Y0022999D03*
D41*
X0028427Y0026845D03*
X0030160Y0026845D03*
D42*
X0040297Y0055940D03*
D43*
X0040297Y0054940D03*
D42*
X0023098Y0055807D03*
D43*
X0023098Y0054807D03*
D44*
X0020718Y0026726D02*
X0019950Y0026726D01*
X0019950Y0033116D02*
X0020718Y0033116D01*
X0024950Y0026726D02*
X0025718Y0026726D01*
X0025718Y0033116D02*
X0024950Y0033116D01*
D45*
X0027792Y0025073D03*
X0027792Y0023813D03*
X0027792Y0022947D03*
X0027792Y0022081D03*
X0029879Y0025073D03*
X0029879Y0023813D03*
X0029879Y0022947D03*
X0029879Y0022081D03*
D46*
X0036492Y0025960D03*
X0035492Y0025960D03*
X0035492Y0023204D03*
X0036492Y0023204D03*
D36*
X0025069Y0034717D03*
D47*
X0026898Y0034712D03*
D44*
X0047194Y0033116D02*
X0047962Y0033116D01*
X0047962Y0026726D02*
X0047194Y0026726D01*
X0042962Y0033116D02*
X0042194Y0033116D01*
X0042194Y0026726D02*
X0042962Y0026726D01*
D48*
X0034073Y0027206D03*
X0033573Y0027956D03*
X0033073Y0027206D03*
D49*
X0033871Y0031732D03*
X0033871Y0032835D03*
X0039092Y0031234D03*
X0039092Y0030132D03*
D50*
X0037916Y0033675D03*
X0036813Y0033675D03*
X0036780Y0036806D03*
X0035678Y0036806D03*
X0032600Y0036623D03*
X0031497Y0036623D03*
D49*
X0031805Y0026704D03*
X0031805Y0027806D03*
D50*
X0036519Y0027702D03*
X0035417Y0027702D03*
X0035417Y0029340D03*
X0036520Y0029340D03*
D49*
X0037976Y0026310D03*
X0037976Y0027412D03*
X0029890Y0035001D03*
X0029890Y0036103D03*
X0019801Y0038219D03*
X0019801Y0039321D03*
D50*
X0050499Y0025368D03*
X0049397Y0025368D03*
X0050492Y0024137D03*
X0049390Y0024137D03*
X0046997Y0025434D03*
X0048099Y0025434D03*
D39*
X0029979Y0055988D03*
X0029979Y0054885D03*
D51*
X0044183Y0053610D02*
X0044698Y0053610D01*
X0044698Y0052610D02*
X0044183Y0052610D01*
X0044183Y0051610D02*
X0044698Y0051610D01*
X0044698Y0050610D02*
X0044183Y0050610D01*
X0044183Y0049610D02*
X0044698Y0049610D01*
X0044698Y0048610D02*
X0044183Y0048610D01*
X0044183Y0047610D02*
X0044698Y0047610D01*
X0044698Y0046610D02*
X0044183Y0046610D01*
X0044183Y0045610D02*
X0044698Y0045610D01*
X0044698Y0044610D02*
X0044183Y0044610D01*
X0044183Y0043610D02*
X0044698Y0043610D01*
X0044698Y0042610D02*
X0044183Y0042610D01*
X0044183Y0041610D02*
X0044698Y0041610D01*
X0044698Y0040610D02*
X0044183Y0040610D01*
X0044183Y0039610D02*
X0044698Y0039610D01*
X0044698Y0038610D02*
X0044183Y0038610D01*
X0044183Y0037610D02*
X0044698Y0037610D01*
X0044698Y0036610D02*
X0044183Y0036610D01*
X0044183Y0035610D02*
X0044698Y0035610D01*
X0044698Y0034610D02*
X0044183Y0034610D01*
X0050183Y0053610D02*
X0050698Y0053610D01*
X0050698Y0052610D02*
X0050183Y0052610D01*
X0050183Y0051610D02*
X0050698Y0051610D01*
X0050698Y0050610D02*
X0050183Y0050610D01*
X0050183Y0049610D02*
X0050698Y0049610D01*
X0050698Y0048610D02*
X0050183Y0048610D01*
X0050183Y0047610D02*
X0050698Y0047610D01*
X0050698Y0046610D02*
X0050183Y0046610D01*
X0050183Y0045610D02*
X0050698Y0045610D01*
X0050698Y0044610D02*
X0050183Y0044610D01*
X0050183Y0043610D02*
X0050698Y0043610D01*
X0050698Y0042610D02*
X0050183Y0042610D01*
X0050183Y0041610D02*
X0050698Y0041610D01*
X0050698Y0040610D02*
X0050183Y0040610D01*
X0050183Y0039610D02*
X0050698Y0039610D01*
X0050698Y0038610D02*
X0050183Y0038610D01*
X0050183Y0037610D02*
X0050698Y0037610D01*
X0050698Y0036610D02*
X0050183Y0036610D01*
X0050183Y0035610D02*
X0050698Y0035610D01*
X0050698Y0034610D02*
X0050183Y0034610D01*
D52*
X0046456Y0044094D03*
X0047440Y0044094D03*
X0048425Y0044094D03*
D53*
X0045708Y0046850D03*
X0049173Y0046850D03*
D52*
X0027755Y0037598D03*
X0027755Y0038582D03*
X0027755Y0039566D03*
D54*
X0025000Y0036850D03*
X0025000Y0040314D03*
D52*
X0040354Y0048818D03*
X0041338Y0048818D03*
X0042322Y0048818D03*
D53*
X0039606Y0051574D03*
X0043070Y0051574D03*
D52*
X0040157Y0039566D03*
X0040157Y0038582D03*
X0040157Y0037598D03*
D55*
X0042913Y0040314D03*
X0042913Y0036850D03*
D52*
X0032972Y0042913D03*
X0033956Y0042913D03*
X0034940Y0042913D03*
D53*
X0032224Y0045669D03*
X0035688Y0045669D03*
D56*
X0048363Y0023827D03*
X0048363Y0024017D03*
X0048363Y0024217D03*
X0048363Y0024417D03*
X0048363Y0024607D03*
X0046763Y0024607D03*
X0046763Y0024417D03*
X0046763Y0024217D03*
X0046763Y0024017D03*
X0046763Y0023827D03*
D52*
X0019275Y0044094D03*
X0020259Y0044094D03*
X0021243Y0044094D03*
D53*
X0018527Y0046850D03*
X0021991Y0046850D03*
D57*
X0037704Y0053035D03*
X0038704Y0053035D03*
D58*
X0037704Y0053035D01*
D59*
X0037307Y0054067D03*
X0038217Y0054067D03*
X0039127Y0054067D03*
D60*
X0038217Y0056507D03*
D61*
X0032488Y0035039D03*
X0031488Y0035039D03*
X0036425Y0035039D03*
X0035425Y0035039D03*
X0038000Y0031889D03*
X0036999Y0031889D03*
X0038787Y0028740D03*
X0037787Y0028740D03*
D50*
X0031002Y0033601D03*
X0029900Y0033601D03*
X0030345Y0030441D03*
X0029243Y0030441D03*
D61*
X0030913Y0031889D03*
X0029913Y0031889D03*
X0030125Y0028740D03*
X0029125Y0028740D03*
D62*
X0017716Y0035063D02*
X0017716Y0035803D01*
X0018716Y0035803D02*
X0018716Y0035063D01*
X0019716Y0035063D02*
X0019716Y0035803D01*
X0020716Y0035803D02*
X0020716Y0035063D01*
X0021716Y0035063D02*
X0021716Y0035803D01*
D63*
X0018499Y0049568D02*
X0017729Y0049568D01*
X0017729Y0050568D02*
X0018499Y0050568D01*
X0018499Y0051568D02*
X0017729Y0051568D01*
X0037020Y0049568D02*
X0037790Y0049568D01*
X0037790Y0050568D02*
X0037020Y0050568D01*
X0037020Y0051568D02*
X0037790Y0051568D01*
X0027594Y0047239D02*
X0027594Y0046469D01*
X0026594Y0046469D02*
X0026594Y0047239D01*
X0025594Y0047239D02*
X0025594Y0046469D01*
D52*
X0025590Y0048818D03*
X0026574Y0048818D03*
X0027559Y0048818D03*
D53*
X0024842Y0051574D03*
X0028307Y0051574D03*
D64*
X0035236Y0033173D03*
X0032676Y0033173D03*
X0035236Y0031393D03*
X0032676Y0031393D03*
D50*
X0024147Y0025382D03*
X0023044Y0025382D03*
D49*
X0018980Y0025432D03*
X0018980Y0024329D03*
D37*
X0018368Y0022806D03*
D38*
X0018368Y0022018D03*
D42*
X0021516Y0025135D03*
D43*
X0020516Y0025135D03*
D37*
X0021457Y0019775D03*
D38*
X0022244Y0019775D03*
D39*
X0020030Y0020265D03*
X0020030Y0021368D03*
D40*
X0021401Y0021483D03*
X0022503Y0021483D03*
D65*
X0021137Y0023605D03*
X0023185Y0023605D03*
X0021137Y0024105D03*
X0021137Y0023105D03*
X0021137Y0022605D03*
X0023185Y0024105D03*
X0023185Y0023105D03*
X0023185Y0022605D03*
D66*
X0026210Y0019596D03*
X0026210Y0021565D03*
D49*
X0024958Y0021503D03*
X0024958Y0020401D03*
D50*
X0028094Y0019564D03*
X0029197Y0019564D03*
D37*
X0032585Y0019740D03*
D38*
X0033373Y0019740D03*
D64*
X0036730Y0019961D03*
X0039730Y0019961D03*
D50*
X0039138Y0021665D03*
X0038036Y0021665D03*
D66*
X0037625Y0023352D03*
X0039594Y0023352D03*
D49*
X0023645Y0020409D03*
X0023645Y0021512D03*
X0017679Y0025397D03*
X0017679Y0024294D03*
D62*
X0044094Y0022417D02*
X0044094Y0021677D01*
X0045094Y0021677D02*
X0045094Y0022417D01*
X0046094Y0022417D02*
X0046094Y0021677D01*
X0047094Y0021677D02*
X0047094Y0022417D01*
X0048094Y0022417D02*
X0048094Y0021677D01*
D47*
X0031783Y0025195D03*
X0033891Y0025195D03*
D67*
X0023135Y0024050D02*
X0022295Y0024050D01*
X0021995Y0023750D01*
X0023135Y0024050D02*
X0023185Y0024105D01*
X0024095Y0025430D02*
X0024095Y0033050D01*
X0021755Y0035390D01*
X0024095Y0025430D02*
X0024147Y0025382D01*
X0021755Y0035390D02*
X0021716Y0035433D01*
X0024035Y0025310D02*
X0024035Y0024770D01*
X0024035Y0025310D02*
X0024095Y0025370D01*
X0024147Y0025382D01*
X0032795Y0052430D02*
X0034235Y0052430D01*
X0034280Y0052385D01*
X0032795Y0052430D02*
X0032779Y0052442D01*
X0032735Y0052490D02*
X0032675Y0052550D01*
X0032735Y0052490D02*
X0032779Y0052442D01*
X0034280Y0052385D02*
X0034295Y0052370D01*
X0025115Y0039590D02*
X0021755Y0036230D01*
X0025115Y0039590D02*
X0025295Y0039590D01*
X0031535Y0045830D01*
X0031535Y0046430D01*
D68*
X0021995Y0023750D03*
X0024035Y0024770D03*
D67*
X0038140Y0050059D02*
X0038265Y0050184D01*
X0021755Y0035471D02*
X0021716Y0035433D01*
X0021755Y0035471D02*
X0021755Y0036230D01*
X0031535Y0046430D02*
X0035164Y0050059D01*
X0038140Y0050059D01*
X0025055Y0055490D02*
X0023795Y0055490D01*
X0023135Y0054830D01*
X0025055Y0055490D02*
X0025084Y0055533D01*
X0023135Y0054830D02*
X0023098Y0054807D01*
X0032315Y0052550D02*
X0032675Y0052550D01*
X0032779Y0052442D01*
X0027995Y0055490D02*
X0025115Y0055490D01*
X0027995Y0055490D02*
X0028175Y0055310D01*
X0029555Y0055310D01*
X0029975Y0054890D01*
X0025115Y0055490D02*
X0025084Y0055533D01*
X0029975Y0054890D02*
X0029979Y0054885D01*
X0037115Y0054050D02*
X0037295Y0054050D01*
X0037115Y0054050D02*
X0035495Y0052430D01*
X0034295Y0052430D01*
X0037295Y0054050D02*
X0037307Y0054067D01*
X0034295Y0052430D02*
X0034280Y0052385D01*
X0040355Y0054950D02*
X0040355Y0055430D01*
X0040715Y0055790D01*
X0040715Y0056090D01*
X0039755Y0057050D01*
X0039035Y0057050D02*
X0037475Y0057050D01*
X0039035Y0057050D02*
X0039755Y0057050D01*
X0037475Y0057050D02*
X0037355Y0056930D01*
X0037355Y0054110D01*
X0040297Y0054940D02*
X0040355Y0054950D01*
X0037355Y0054110D02*
X0037307Y0054067D01*
X0039035Y0054830D02*
X0039035Y0057050D01*
X0039035Y0054830D02*
X0038795Y0054590D01*
X0038795Y0053570D01*
X0038975Y0053390D01*
X0039035Y0053390D01*
X0039253Y0053171D01*
X0032315Y0052550D02*
X0029979Y0054885D01*
X0029979Y0054885D01*
X0037930Y0051043D02*
X0037987Y0051043D01*
X0037930Y0051043D02*
X0037405Y0051568D01*
X0038265Y0050764D02*
X0038265Y0050184D01*
X0038265Y0050764D02*
X0037987Y0051043D01*
X0038399Y0051568D02*
X0037405Y0051568D01*
X0038399Y0051568D02*
X0039253Y0052422D01*
X0039253Y0053171D01*
X0036515Y0031430D02*
X0036515Y0029390D01*
X0036515Y0031430D02*
X0036215Y0031730D01*
X0036215Y0034310D01*
X0038920Y0037014D01*
X0036515Y0029390D02*
X0036520Y0029340D01*
X0043214Y0044610D02*
X0044440Y0044610D01*
X0038920Y0040315D02*
X0038920Y0037014D01*
X0038920Y0040315D02*
X0043214Y0044610D01*
X0037475Y0033230D02*
X0038428Y0032277D01*
X0037475Y0033230D02*
X0037475Y0035390D01*
X0039083Y0036997D01*
X0039083Y0040231D01*
X0042943Y0044092D01*
X0045240Y0044092D01*
X0045240Y0044810D01*
X0044440Y0045610D01*
X0038428Y0032277D02*
X0038428Y0027864D01*
X0037976Y0027412D01*
X0034895Y0031730D02*
X0033875Y0031730D01*
X0034895Y0031730D02*
X0035195Y0031430D01*
X0033875Y0031730D02*
X0033871Y0031732D01*
X0035195Y0031430D02*
X0035236Y0031393D01*
X0029889Y0035347D02*
X0027415Y0035347D01*
X0029889Y0035347D02*
X0029890Y0035001D01*
X0026898Y0034830D02*
X0026898Y0034712D01*
X0026898Y0034830D02*
X0027415Y0035347D01*
X0027815Y0019610D02*
X0026255Y0019610D01*
X0027815Y0019610D02*
X0028055Y0019610D01*
X0028094Y0019564D01*
X0026255Y0019610D02*
X0026210Y0019596D01*
X0027815Y0019610D02*
X0027815Y0022070D01*
X0027792Y0022081D01*
X0027815Y0019610D02*
X0028094Y0019564D01*
X0020259Y0044094D02*
X0020255Y0044150D01*
X0028895Y0022130D02*
X0029855Y0022130D01*
X0028895Y0022130D02*
X0028355Y0022670D01*
X0025775Y0022670D01*
X0023615Y0024830D01*
X0023615Y0028730D01*
X0029855Y0022130D02*
X0029879Y0022081D01*
X0019801Y0038219D02*
X0019801Y0038485D01*
X0019317Y0038969D01*
X0019317Y0043152D01*
X0020259Y0044094D01*
X0019801Y0038219D02*
X0019801Y0036368D01*
X0020176Y0035993D01*
X0020176Y0034012D01*
X0019476Y0033312D01*
X0019476Y0032868D01*
X0023615Y0028730D01*
X0031783Y0026682D02*
X0031783Y0025195D01*
X0031783Y0026682D02*
X0031805Y0026704D01*
X0030155Y0026810D02*
X0030155Y0025370D01*
X0029915Y0025130D01*
X0030155Y0026810D02*
X0030160Y0026845D01*
X0029915Y0025130D02*
X0029879Y0025073D01*
X0030160Y0026845D02*
X0030214Y0026845D01*
X0030160Y0026845D02*
X0030830Y0026845D01*
X0031214Y0027229D01*
X0033051Y0027229D02*
X0033073Y0027206D01*
X0033051Y0027229D02*
X0031214Y0027229D01*
X0029879Y0025073D02*
X0030495Y0024457D01*
X0033153Y0024457D02*
X0033891Y0025195D01*
X0033153Y0024457D02*
X0030495Y0024457D01*
X0035435Y0027710D02*
X0035435Y0029330D01*
X0035435Y0027710D02*
X0035417Y0027702D01*
X0035435Y0029330D02*
X0035417Y0029340D01*
X0034957Y0029340D01*
X0033573Y0027956D01*
X0036717Y0026690D02*
X0037571Y0026690D01*
X0037976Y0026310D01*
X0036717Y0026690D02*
X0036492Y0025960D01*
X0027755Y0022970D02*
X0027215Y0023510D01*
X0027155Y0023510D01*
X0025295Y0025370D01*
X0025295Y0026690D01*
X0027755Y0022970D02*
X0027792Y0022947D01*
X0025295Y0026690D02*
X0025334Y0026726D01*
X0029915Y0022910D02*
X0035392Y0022910D01*
X0035492Y0023204D01*
X0029915Y0022910D02*
X0029879Y0022947D01*
X0042935Y0029729D02*
X0042935Y0033110D01*
X0042935Y0029729D02*
X0037384Y0024178D01*
X0035814Y0024178D01*
X0042578Y0033116D02*
X0042935Y0033110D01*
X0035814Y0024178D02*
X0035492Y0023823D01*
X0035492Y0023204D01*
X0029555Y0019610D02*
X0029255Y0019610D01*
X0029555Y0019610D02*
X0030395Y0020450D01*
X0029255Y0019610D02*
X0029197Y0019564D01*
X0032795Y0051290D02*
X0034235Y0051290D01*
X0032795Y0051290D02*
X0032779Y0051340D01*
X0034235Y0051290D02*
X0034280Y0051283D01*
X0020015Y0021410D02*
X0018995Y0021410D01*
X0018395Y0022010D01*
X0020015Y0021410D02*
X0020030Y0021368D01*
X0018395Y0022010D02*
X0018368Y0022018D01*
X0022175Y0021530D02*
X0022475Y0021530D01*
X0022175Y0021530D02*
X0021755Y0021950D01*
X0020615Y0021950D01*
X0020075Y0021410D01*
X0022475Y0021530D02*
X0022503Y0021483D01*
X0020075Y0021410D02*
X0020030Y0021368D01*
X0018995Y0025490D02*
X0020255Y0026750D01*
X0018995Y0025490D02*
X0018980Y0025432D01*
X0020255Y0026750D02*
X0020334Y0026726D01*
X0021155Y0022610D02*
X0021455Y0022610D01*
X0022715Y0023870D01*
X0023675Y0023870D01*
X0023735Y0023930D01*
X0023735Y0024530D01*
X0023495Y0024770D01*
X0023495Y0025790D01*
X0023375Y0025910D01*
X0022295Y0025910D01*
X0021575Y0025190D01*
X0021155Y0022610D02*
X0021137Y0022605D01*
X0021516Y0025135D02*
X0021575Y0025190D01*
X0028295Y0022550D02*
X0030395Y0020450D01*
X0028295Y0022550D02*
X0025115Y0022550D01*
X0023735Y0023930D01*
X0049411Y0021896D02*
X0050457Y0021896D01*
X0049411Y0021896D02*
X0049378Y0021930D01*
D68*
X0049378Y0021930D03*
D67*
X0044094Y0022047D02*
X0044094Y0021771D01*
X0045198Y0021130D02*
X0045554Y0021486D01*
X0045198Y0021130D02*
X0044735Y0021130D01*
X0044094Y0021771D01*
X0045554Y0022618D02*
X0046763Y0023827D01*
X0045554Y0022618D02*
X0045554Y0021486D01*
X0038255Y0054110D02*
X0038255Y0056450D01*
X0038255Y0054110D02*
X0038217Y0054067D01*
X0038255Y0056450D02*
X0038217Y0056507D01*
X0038217Y0054067D02*
X0038195Y0054050D01*
X0037704Y0053035D02*
X0037704Y0052785D01*
X0037704Y0052535D01*
X0037631Y0052463D01*
D68*
X0037631Y0052463D03*
D67*
X0037704Y0053554D02*
X0038217Y0054067D01*
X0037704Y0053554D02*
X0037704Y0053035D01*
X0037704Y0053021D01*
X0034287Y0051290D02*
X0034280Y0051283D01*
X0034287Y0051290D02*
X0035346Y0051290D01*
X0036841Y0052785D01*
X0037704Y0052785D01*
X0027261Y0054664D02*
X0027073Y0054664D01*
X0027261Y0054664D02*
X0030585Y0051340D01*
X0032779Y0051340D01*
X0030811Y0020866D02*
X0030395Y0020450D01*
X0034153Y0020866D02*
X0036492Y0023204D01*
X0034153Y0020866D02*
X0030811Y0020866D01*
X0042695Y0053450D02*
X0042695Y0054410D01*
X0042755Y0054470D01*
X0042695Y0053450D02*
X0042688Y0053446D01*
X0042755Y0054470D02*
X0042812Y0054478D01*
X0042755Y0054530D02*
X0042755Y0055910D01*
X0042635Y0056030D01*
X0042755Y0054530D02*
X0042812Y0054478D01*
X0042635Y0056030D02*
X0042584Y0056066D01*
X0038704Y0053035D02*
X0038615Y0052947D01*
X0038615Y0052309D01*
D68*
X0038615Y0052309D03*
D67*
X0034159Y0027292D02*
X0034073Y0027206D01*
X0034159Y0027292D02*
X0035492Y0025960D01*
X0037557Y0028740D02*
X0037787Y0028740D01*
X0037557Y0028740D02*
X0036519Y0027702D01*
X0029975Y0056030D02*
X0029435Y0056030D01*
X0028655Y0056810D01*
X0027755Y0056810D01*
X0027095Y0056150D01*
X0029975Y0056030D02*
X0029979Y0055988D01*
X0027095Y0056150D02*
X0027073Y0056090D01*
X0048035Y0023810D02*
X0048335Y0023810D01*
X0048035Y0023810D02*
X0047735Y0024110D01*
X0047735Y0024350D01*
X0047015Y0025070D01*
X0047015Y0025430D01*
X0048335Y0023810D02*
X0048363Y0023827D01*
X0047015Y0025430D02*
X0046997Y0025434D01*
X0048395Y0023810D02*
X0048695Y0023810D01*
X0048395Y0023810D02*
X0048363Y0023827D01*
X0045615Y0037970D02*
X0044855Y0037970D01*
X0044015Y0037970D01*
X0043835Y0037790D01*
X0043835Y0035210D01*
X0044435Y0034610D01*
X0044440Y0034610D01*
X0046415Y0039530D02*
X0046415Y0044090D01*
X0046415Y0039530D02*
X0044855Y0037970D01*
X0046415Y0044090D02*
X0046456Y0044094D01*
X0040475Y0048830D02*
X0040355Y0048830D01*
X0040475Y0048830D02*
X0041375Y0049730D01*
X0042755Y0049730D01*
X0044255Y0051230D01*
X0044855Y0051230D01*
X0045455Y0051830D01*
X0040355Y0048830D02*
X0040354Y0048818D01*
X0028415Y0026810D02*
X0028415Y0025730D01*
X0027815Y0025130D01*
X0028415Y0026810D02*
X0028427Y0026845D01*
X0027815Y0025130D02*
X0027792Y0025073D01*
X0027815Y0037610D02*
X0027815Y0037730D01*
X0032975Y0042890D01*
X0027815Y0037610D02*
X0027755Y0037598D01*
X0032975Y0042890D02*
X0032972Y0042913D01*
X0028415Y0031630D02*
X0028415Y0026898D01*
X0028415Y0026870D01*
X0028415Y0031630D02*
X0025901Y0034144D01*
X0025901Y0035432D01*
X0026442Y0035974D01*
X0028415Y0026870D02*
X0028427Y0026845D01*
X0039755Y0048770D02*
X0040295Y0048770D01*
X0039755Y0048770D02*
X0035075Y0044090D01*
X0034055Y0044090D01*
X0032915Y0042950D01*
X0040295Y0048770D02*
X0040354Y0048818D01*
X0032972Y0042913D02*
X0032915Y0042950D01*
D68*
X0026442Y0035974D03*
D67*
X0050435Y0024110D02*
X0050435Y0023630D01*
X0050435Y0022999D01*
X0050457Y0022999D01*
X0050435Y0024110D02*
X0050492Y0024137D01*
X0050495Y0024170D02*
X0050495Y0025310D01*
X0050499Y0025368D01*
X0050495Y0024170D02*
X0050492Y0024137D01*
X0050435Y0023630D02*
X0048875Y0023630D01*
X0048695Y0023810D01*
X0050425Y0031942D02*
X0049250Y0033117D01*
X0049250Y0034334D01*
X0050425Y0031942D02*
X0050425Y0025442D01*
X0050499Y0025368D01*
X0039155Y0054110D02*
X0039155Y0054770D01*
X0040295Y0055910D01*
X0040297Y0055940D01*
X0041615Y0054410D02*
X0041615Y0054110D01*
X0041615Y0053450D01*
X0041615Y0054410D02*
X0041675Y0054470D01*
X0041615Y0053450D02*
X0041586Y0053446D01*
X0041675Y0054470D02*
X0041709Y0054478D01*
X0043175Y0056030D02*
X0044003Y0056030D01*
X0043175Y0056030D02*
X0042755Y0056450D01*
X0042215Y0056450D01*
X0041855Y0056090D01*
X0044003Y0056030D02*
X0044006Y0055997D01*
X0041855Y0056090D02*
X0041796Y0056066D01*
X0041735Y0055970D02*
X0041735Y0054530D01*
X0041735Y0055970D02*
X0041795Y0056030D01*
X0041735Y0054530D02*
X0041709Y0054478D01*
X0041795Y0056030D02*
X0041796Y0056066D01*
X0041615Y0054110D02*
X0039155Y0054110D01*
X0039127Y0054067D01*
X0044195Y0054650D02*
X0044195Y0055988D01*
X0044195Y0054650D02*
X0045455Y0053390D01*
X0045455Y0051830D01*
X0044195Y0055988D02*
X0044006Y0055997D01*
X0045455Y0051830D02*
X0050255Y0051830D01*
X0050435Y0051650D01*
X0050440Y0051610D01*
X0045615Y0037970D02*
X0049250Y0034334D01*
X0031805Y0027806D02*
X0029324Y0027806D01*
X0028415Y0026898D01*
X0046763Y0024607D02*
X0046779Y0024590D01*
X0048094Y0023581D02*
X0048094Y0022047D01*
X0047085Y0024590D02*
X0046779Y0024590D01*
X0047085Y0024590D02*
X0048094Y0023581D01*
X0047315Y0024170D02*
X0047075Y0024410D01*
X0047094Y0022819D02*
X0047094Y0022047D01*
X0047094Y0022819D02*
X0047315Y0023040D01*
X0047315Y0024170D01*
X0047075Y0024410D02*
X0046769Y0024410D01*
X0046763Y0024417D01*
X0046775Y0024230D02*
X0047075Y0024230D01*
X0047195Y0024110D01*
X0047195Y0023135D02*
X0047195Y0023090D01*
X0047195Y0023135D02*
X0047195Y0024110D01*
X0046775Y0024230D02*
X0046763Y0024217D01*
X0047195Y0023135D02*
X0046937Y0022877D01*
X0046903Y0022877D01*
X0046634Y0022607D01*
X0046634Y0022587D01*
X0046094Y0022047D01*
X0045434Y0022387D02*
X0045094Y0022047D01*
X0045434Y0022387D02*
X0045434Y0022990D01*
X0046736Y0023990D02*
X0046763Y0024017D01*
X0046736Y0023990D02*
X0046434Y0023990D01*
X0045434Y0022990D01*
X0047456Y0024808D02*
X0048035Y0024230D01*
X0047456Y0024808D02*
X0047456Y0026054D01*
X0040535Y0039050D02*
X0041075Y0039590D01*
X0040535Y0039050D02*
X0039755Y0039050D01*
X0039695Y0038990D01*
X0039695Y0037190D01*
X0049355Y0025310D02*
X0049355Y0024950D01*
X0048755Y0024350D01*
X0048755Y0024290D01*
X0048695Y0024230D01*
X0048395Y0024230D01*
X0049355Y0025310D02*
X0049397Y0025368D01*
X0048395Y0024230D02*
X0048363Y0024217D01*
X0044420Y0039590D02*
X0044440Y0039610D01*
X0044420Y0039590D02*
X0041075Y0039590D01*
X0048035Y0024230D02*
X0048349Y0024230D01*
X0048363Y0024217D01*
X0047456Y0026054D02*
X0046776Y0026054D01*
X0046055Y0026775D01*
X0046055Y0030830D01*
X0039695Y0037190D01*
X0048395Y0024050D02*
X0048363Y0024017D01*
X0049364Y0024113D02*
X0049390Y0024137D01*
X0045335Y0039530D02*
X0045335Y0039890D01*
X0045335Y0039530D02*
X0044795Y0038990D01*
X0044015Y0038990D01*
X0043595Y0038570D01*
X0043595Y0033710D01*
D68*
X0045335Y0039890D03*
D67*
X0048395Y0024050D02*
X0049295Y0024050D01*
X0049355Y0024110D01*
X0049390Y0024137D01*
X0049835Y0024582D01*
X0049835Y0027470D01*
X0043595Y0033710D01*
X0047495Y0041750D02*
X0047495Y0044090D01*
X0047440Y0044094D01*
X0049595Y0039650D02*
X0050435Y0039650D01*
X0049595Y0039650D02*
X0047495Y0041750D01*
X0050435Y0039650D02*
X0050440Y0039610D01*
X0047915Y0043730D02*
X0047915Y0044510D01*
X0047855Y0044570D01*
X0046055Y0044570D01*
X0045335Y0043850D01*
X0045335Y0040250D01*
X0045095Y0040010D01*
X0045095Y0039470D01*
X0044855Y0039230D01*
X0040895Y0039230D01*
X0040295Y0038630D01*
X0040175Y0038630D01*
X0040157Y0038582D01*
X0048995Y0042650D02*
X0050435Y0042650D01*
X0048995Y0042650D02*
X0047915Y0043730D01*
X0050435Y0042650D02*
X0050440Y0042610D01*
X0047195Y0046250D02*
X0047135Y0046250D01*
X0046415Y0046970D01*
X0046415Y0047150D01*
X0045455Y0048110D01*
X0041435Y0048110D01*
X0036755Y0043430D01*
X0034475Y0043430D01*
X0033995Y0042950D01*
X0033956Y0042913D01*
X0049835Y0043610D02*
X0050440Y0043610D01*
X0049835Y0043610D02*
X0047195Y0046250D01*
X0021243Y0044094D02*
X0019801Y0042652D01*
X0019801Y0039321D01*
X0027275Y0036840D02*
X0027885Y0036230D01*
X0027275Y0036840D02*
X0027275Y0038990D01*
X0027335Y0039050D01*
X0028235Y0039050D01*
X0034955Y0045770D01*
X0034955Y0045950D01*
X0038720Y0048428D02*
X0040142Y0049850D01*
X0042335Y0049850D01*
X0043835Y0051350D01*
X0043835Y0051770D01*
X0044315Y0052250D01*
X0044855Y0052250D01*
X0038720Y0048428D02*
X0037433Y0048428D01*
X0034955Y0045950D01*
X0029763Y0036230D02*
X0027885Y0036230D01*
X0029763Y0036230D02*
X0029890Y0036103D01*
X0044855Y0052250D02*
X0045095Y0052490D01*
X0045095Y0052955D02*
X0044440Y0053610D01*
X0045095Y0052955D02*
X0045095Y0052490D01*
X0030574Y0033171D02*
X0031055Y0032690D01*
X0030574Y0033171D02*
X0030574Y0035240D01*
X0030267Y0035547D01*
X0027983Y0035547D01*
X0027155Y0036376D01*
X0027155Y0039890D01*
X0032195Y0044930D01*
X0032495Y0044930D01*
X0033275Y0045710D01*
X0033275Y0046644D01*
X0042335Y0051634D02*
X0042335Y0051830D01*
X0042335Y0051634D02*
X0040670Y0049970D01*
X0040092Y0049970D02*
X0038670Y0048548D01*
X0040092Y0049970D02*
X0040670Y0049970D01*
X0035179Y0048548D02*
X0033275Y0046644D01*
X0033871Y0032835D02*
X0033726Y0032690D01*
X0031055Y0032690D01*
X0035179Y0048548D02*
X0038670Y0048548D01*
X0043115Y0052610D02*
X0044440Y0052610D01*
X0043115Y0052610D02*
X0042335Y0051830D01*
X0039095Y0021710D02*
X0038075Y0021710D01*
X0038036Y0021665D01*
X0039095Y0021710D02*
X0039138Y0021665D01*
X0037655Y0022070D02*
X0037655Y0023330D01*
X0037655Y0022070D02*
X0038015Y0021710D01*
X0037655Y0023330D02*
X0037625Y0023352D01*
X0038015Y0021710D02*
X0038036Y0021665D01*
X0039575Y0022130D02*
X0039575Y0023330D01*
X0039575Y0022130D02*
X0039155Y0021710D01*
X0039575Y0023330D02*
X0039594Y0023352D01*
X0039155Y0021710D02*
X0039138Y0021665D01*
X0039695Y0021110D02*
X0039695Y0020367D01*
X0039695Y0020330D01*
X0039695Y0019970D01*
X0039695Y0021110D02*
X0039155Y0021650D01*
X0039695Y0019970D02*
X0039730Y0019961D01*
X0039155Y0021650D02*
X0039138Y0021665D01*
X0049835Y0033290D02*
X0050933Y0032191D01*
X0050933Y0021383D01*
X0050697Y0021147D01*
X0048508Y0021147D01*
X0047728Y0020367D01*
X0039695Y0020367D01*
X0039695Y0020330D02*
X0039730Y0019961D01*
X0049835Y0033290D02*
X0049835Y0038004D01*
X0050440Y0038610D01*
X0048335Y0025250D02*
X0048335Y0024650D01*
X0048335Y0025250D02*
X0048155Y0025430D01*
X0048335Y0024650D02*
X0048363Y0024607D01*
X0048155Y0025430D02*
X0048099Y0025434D01*
X0029855Y0023810D02*
X0027815Y0023810D01*
X0027792Y0023813D01*
X0029855Y0023810D02*
X0029879Y0023813D01*
X0036815Y0036830D02*
X0036815Y0038990D01*
X0044435Y0046610D01*
X0036815Y0036830D02*
X0036780Y0036806D01*
X0044435Y0046610D02*
X0044440Y0046610D01*
X0044440Y0047610D02*
X0043327Y0047610D01*
X0032600Y0036882D01*
X0032600Y0036623D01*
X0031535Y0036590D02*
X0031535Y0035990D01*
X0032435Y0035090D01*
X0031535Y0036590D02*
X0031497Y0036623D01*
X0032435Y0035090D02*
X0032488Y0035039D01*
X0035735Y0035750D02*
X0035735Y0036770D01*
X0035735Y0035750D02*
X0036395Y0035090D01*
X0035735Y0036770D02*
X0035678Y0036806D01*
X0036395Y0035090D02*
X0036425Y0035039D01*
X0036815Y0033650D02*
X0036815Y0032690D01*
X0037426Y0032079D01*
X0036815Y0033650D02*
X0036813Y0033675D01*
X0037830Y0032058D02*
X0038000Y0031889D01*
X0037830Y0032058D02*
X0037426Y0032079D01*
X0038787Y0030219D02*
X0039092Y0030132D01*
X0038787Y0030219D02*
X0038787Y0028740D01*
X0031055Y0033650D02*
X0031055Y0040070D01*
X0033455Y0042470D01*
X0033455Y0043310D01*
X0034115Y0043970D01*
X0037115Y0043970D01*
X0041495Y0048350D01*
X0044195Y0048350D01*
X0044435Y0048590D01*
X0031055Y0033650D02*
X0031002Y0033601D01*
X0044435Y0048590D02*
X0044440Y0048610D01*
X0031055Y0030470D02*
X0030395Y0030470D01*
X0031055Y0030470D02*
X0032975Y0032390D01*
X0034295Y0032390D01*
X0034775Y0032870D01*
X0034775Y0037730D01*
X0044255Y0047210D01*
X0044795Y0047210D01*
X0045155Y0047570D01*
X0045155Y0047870D01*
X0030395Y0030470D02*
X0030345Y0030441D01*
D68*
X0045155Y0047870D03*
D67*
X0029915Y0033590D02*
X0029915Y0032870D01*
X0030875Y0031910D01*
X0029915Y0033590D02*
X0029900Y0033601D01*
X0030875Y0031910D02*
X0030913Y0031889D01*
X0029255Y0030410D02*
X0029255Y0030110D01*
X0030155Y0029210D01*
X0029255Y0030410D02*
X0029243Y0030441D01*
X0030155Y0029210D02*
X0030125Y0028740D01*
X0018755Y0035450D02*
X0018755Y0043610D01*
X0019235Y0044090D01*
X0018755Y0035450D02*
X0018716Y0035433D01*
X0019235Y0044090D02*
X0019275Y0044094D01*
X0018935Y0024290D02*
X0018935Y0023390D01*
X0018395Y0022850D01*
X0018935Y0024290D02*
X0018980Y0024329D01*
X0018395Y0022850D02*
X0018368Y0022806D01*
X0023015Y0025130D02*
X0023015Y0025370D01*
X0023015Y0025130D02*
X0021695Y0023810D01*
X0021695Y0023450D01*
X0021395Y0023150D01*
X0021155Y0023150D01*
X0023015Y0025370D02*
X0023044Y0025382D01*
X0021155Y0023150D02*
X0021137Y0023105D01*
X0020855Y0023390D02*
X0018935Y0023390D01*
X0020855Y0023390D02*
X0021095Y0023150D01*
X0021137Y0023105D01*
X0021155Y0023630D02*
X0021155Y0024050D01*
X0021155Y0023630D02*
X0021137Y0023605D01*
X0021155Y0024050D02*
X0021137Y0024105D01*
X0021035Y0020210D02*
X0020075Y0020210D01*
X0021035Y0020210D02*
X0021455Y0019790D01*
X0020075Y0020210D02*
X0020030Y0020265D01*
X0021455Y0019790D02*
X0021457Y0019775D01*
X0021395Y0020570D02*
X0021395Y0020870D01*
X0021395Y0021470D01*
X0021395Y0020570D02*
X0021035Y0020210D01*
X0021395Y0021470D02*
X0021401Y0021483D01*
X0024455Y0020450D02*
X0024935Y0020450D01*
X0024455Y0020450D02*
X0024035Y0020870D01*
X0021395Y0020870D01*
X0024935Y0020450D02*
X0024958Y0020401D01*
X0021095Y0024110D02*
X0020075Y0024110D01*
X0019415Y0024770D01*
X0018455Y0024770D02*
X0017315Y0024770D01*
X0018455Y0024770D02*
X0019415Y0024770D01*
X0017315Y0024770D02*
X0017195Y0024650D01*
X0017195Y0022670D01*
X0019595Y0020270D01*
X0020015Y0020270D01*
X0021095Y0024110D02*
X0021137Y0024105D01*
X0020030Y0020265D02*
X0020015Y0020270D01*
X0018935Y0026270D02*
X0018935Y0033050D01*
X0018935Y0026270D02*
X0018455Y0025790D01*
X0018455Y0024770D01*
D68*
X0018935Y0033050D03*
D67*
X0020716Y0035433D02*
X0020735Y0035451D01*
X0033084Y0050568D02*
X0037405Y0050568D01*
X0020735Y0038218D02*
X0020735Y0035451D01*
X0020735Y0038218D02*
X0033084Y0050568D01*
X0022775Y0022370D02*
X0023615Y0021530D01*
X0022775Y0022370D02*
X0022715Y0022370D01*
X0022655Y0022430D01*
X0022655Y0022790D01*
X0022955Y0023090D01*
X0023135Y0023090D01*
X0023615Y0021530D02*
X0023645Y0021512D01*
X0023135Y0023090D02*
X0023185Y0023105D01*
X0017735Y0022730D02*
X0017735Y0024290D01*
X0017735Y0022730D02*
X0018035Y0022430D01*
X0020615Y0022430D01*
X0020675Y0022370D01*
X0022715Y0022370D01*
X0017735Y0024290D02*
X0017679Y0024294D01*
X0023195Y0023570D02*
X0023195Y0023150D01*
X0023195Y0023570D02*
X0023185Y0023605D01*
X0023195Y0023150D02*
X0023185Y0023105D01*
X0024995Y0021530D02*
X0026195Y0021530D01*
X0024995Y0021530D02*
X0024958Y0021503D01*
X0026195Y0021530D02*
X0026210Y0021565D01*
X0023915Y0022550D02*
X0023195Y0022550D01*
X0023915Y0022550D02*
X0024935Y0021530D01*
X0023195Y0022550D02*
X0023185Y0022605D01*
X0024935Y0021530D02*
X0024958Y0021503D01*
X0033395Y0019790D02*
X0036575Y0019790D01*
X0036695Y0019910D01*
X0033395Y0019790D02*
X0033373Y0019740D01*
X0036695Y0019910D02*
X0036730Y0019961D01*
X0024095Y0020390D02*
X0023675Y0020390D01*
X0024095Y0020390D02*
X0025415Y0019070D01*
X0031895Y0019070D01*
X0032555Y0019730D01*
X0023675Y0020390D02*
X0023645Y0020409D01*
X0032555Y0019730D02*
X0032585Y0019740D01*
X0017735Y0035450D02*
X0017735Y0049070D01*
X0018095Y0049430D01*
X0017735Y0035450D02*
X0017716Y0035433D01*
X0018095Y0049430D02*
X0018114Y0049568D01*
X0027575Y0048650D02*
X0027575Y0046790D01*
X0027575Y0048650D02*
X0027559Y0048818D01*
X0027594Y0046854D02*
X0027575Y0046790D01*
X0026615Y0046790D02*
X0026615Y0048650D01*
X0026574Y0048818D01*
X0026594Y0046854D02*
X0026615Y0046790D01*
X0025595Y0046790D02*
X0025595Y0048650D01*
X0025590Y0048818D01*
X0025594Y0046854D02*
X0025595Y0046790D01*
X0017735Y0027650D02*
X0017735Y0025430D01*
X0017735Y0027650D02*
X0018695Y0028610D01*
X0018695Y0033410D01*
X0017195Y0034910D01*
X0017195Y0050039D01*
X0017724Y0050568D02*
X0018114Y0050568D01*
X0017724Y0050568D02*
X0017195Y0050039D01*
X0017735Y0025430D02*
X0017679Y0025397D01*
X0018155Y0050510D02*
X0018155Y0051410D01*
X0018114Y0051568D01*
X0018114Y0050568D02*
X0018155Y0050510D01*
X0040995Y0041610D02*
X0044440Y0041610D01*
X0040995Y0041610D02*
X0039429Y0040043D01*
X0039429Y0030928D01*
X0039092Y0031234D01*
X0037916Y0033675D02*
X0039233Y0034992D01*
X0039233Y0040108D01*
X0041734Y0042610D01*
X0044440Y0042610D01*
M02*