%
M48
METRIC,000.000
T06C0.35
T05C0.64
T04C0.70
T03C0.80
T02C0.90
T01C1.12
T10C0.81
T11C1.00
T12C1.02
T13C1.30
T14C2.00
T15C2.80
T16C0.50
%
T06
X191603Y112655
X207148Y110826
X214768Y060077
X210348Y110826
X193127Y111588
X203033Y103968
X213853Y101378
X185660Y109150
X190841Y103968
X216444Y099396
X190689Y112655
X200356Y100037
X196328Y108388
X220102Y092538
X218883Y093758
X211757Y088371
X215225Y101225
X216292Y092081
X217206Y092996
X192822Y105035
X206081Y079127
X188250Y107626
X189165Y108539
X216749Y061144
X220406Y064801
X221168Y117684
X188250Y103968
X213244Y066326
X215835Y108539
X172858Y117684
X211720Y097414
X192975Y116465
X189470Y112960
X217206Y091167
X218121Y092081
X211720Y063125
X205321Y110031
X048096Y083948
X114695Y121590
X115152Y101321
X067164Y091375
X098084Y132866
X095585Y133256
X125421Y055703
X061050Y062916
X055868Y060326
T05
X208316Y116287
X203316Y116287
X201881Y111977
X206881Y111977
X209410Y107701
X204410Y107701
X168664Y112558
X173664Y112558
X183189Y098844
X188189Y098844
X066574Y054775
X066574Y049775
X095569Y059316
X100569Y059316
T04
X205142Y088884
X205142Y086344
X205142Y083804
X199655Y089020
X199655Y086479
X199655Y083940
T03
X171740Y103572
X171740Y101572
X128120Y087910
X128120Y090450
X128120Y092990
X128120Y095530
X128120Y098070
X128120Y100610
X128120Y103150
X128120Y105690
X128120Y108229
X128120Y110770
X128120Y113310
X128120Y115850
X128120Y118390
X128120Y120930
X128120Y123470
X128120Y126010
X128120Y128550
X128120Y131090
X128120Y133630
X128120Y136170
X112880Y087910
X112880Y090450
X112880Y092990
X112880Y095530
X112880Y098070
X112880Y100610
X112880Y103150
X112880Y105690
X112880Y108229
X112880Y110770
X112880Y113310
X112880Y115850
X112880Y118390
X112880Y120930
X112880Y123470
X112880Y126010
X112880Y128550
X112880Y131090
X112880Y133630
X112880Y136170
X063713Y139055
X063713Y141055
X108164Y142409
X106164Y142409
X046656Y057928
X046656Y055928
X113777Y142233
X111777Y142233
X054501Y050231
X056501Y050231
X084768Y050142
X082768Y050142
T02
X168728Y109527
X168728Y106987
X171712Y107265
X171712Y109805
X102356Y139550
X058669Y141751
X052111Y063844
X054650Y063844
X093295Y050702
X058669Y139211
X100916Y050702
X102356Y142090
T01
X246160Y062000
X243620Y062000
X241079Y062000
X238540Y062000
X236000Y062000
X179160Y096000
X176620Y096000
X174080Y096000
X171540Y096000
X169000Y096000
X055160Y090000
X046011Y125903
X046011Y128442
X046011Y130983
X095011Y125903
X095011Y128442
X052620Y090000
X050080Y090000
X047540Y090000
X045000Y090000
X095011Y130983
X070091Y119011
X119620Y056000
X117080Y056000
X114540Y056000
X112000Y056000
X067551Y119011
X122160Y056000
X065010Y119011
T10
X082520Y089000
X079979Y089000
X092520Y089000
X089979Y089000
X096520Y081000
X093979Y081000
X098520Y073000
X095979Y073000
X078520Y081000
X075979Y081000
X076520Y073000
X073980Y073000
X084008Y069106
X086548Y069106
X085277Y071011
T11
X083750Y109000
X067500Y131000
X070000Y124000
X102000Y095500
X102000Y098000
X102000Y100500
X065000Y124000
X120500Y119000
X107500Y124000
X105000Y124000
X102500Y124000
X063500Y098000
X105000Y131000
X070500Y100500
X070500Y098000
X070500Y095500
X109000Y098000
X086250Y116000
X123000Y112000
X120500Y112000
X118000Y112000
X086250Y109000
X067500Y124000
X053959Y112000
X051459Y112000
X048959Y112000
X088750Y109000
X051459Y119000
T12
X086085Y063997
X068767Y138848
X080729Y063997
X068767Y142469
X082999Y079739
X089501Y079739
X082999Y084261
X068321Y088169
X063677Y088183
X089501Y084261
T13
X059994Y087911
X072045Y142498
X072045Y138739
X072020Y087947
X108150Y067885
X108150Y084115
X081887Y056093
X085442Y056093
X120850Y067885
X120850Y084115
X064349Y084115
X064349Y067885
X051650Y084115
X051650Y067885
T14
X071900Y131000
X109000Y093600
X063100Y131000
X055859Y119000
X047059Y119000
X109000Y102400
X109400Y131000
X100600Y131000
X063500Y102400
X063500Y093600
X124900Y119000
X116100Y119000
X081850Y116000
X090650Y116000
T15
X119296Y142322
X053053Y142350
X127000Y049908
X045500Y049782
T16
M30