G04 EAGLE Gerber X2 export*
%TF.Part,Single*%
%TF.FileFunction,Copper,L2,Bot,Mixed*%
%TF.FilePolarity,Positive*%
%TF.GenerationSoftware,Autodesk,EAGLE,9.2.2*%
%TF.CreationDate,2019-04-19T13:44:37Z*%
G75*
%MOMM*%
%FSLAX34Y34*%
%LPD*%
%INBottom Copper*%
%AMOC8*
5,1,8,0,0,1.08239X$1,22.5*%
G01*
%ADD10C,1.143000*%
%ADD11R,1.350000X1.350000*%
%ADD12C,1.350000*%
%ADD13C,1.408000*%
%ADD14R,1.408000X1.408000*%
%ADD15C,1.950000*%
%ADD16P,2.336880X8X112.500000*%
%ADD17R,1.879600X1.879600*%
%ADD18P,3.247170X8X292.500000*%
%ADD19P,2.336880X8X22.500000*%
%ADD20P,2.336880X8X202.500000*%
%ADD21C,1.508000*%
%ADD22P,4.123906X8X292.500000*%
%ADD23C,1.879600*%
%ADD24P,1.429621X8X112.500000*%
%ADD25P,3.247170X8X202.500000*%
%ADD26C,1.955800*%
%ADD27P,3.247170X8X112.500000*%
%ADD28C,1.422400*%
%ADD29P,1.429621X8X22.500000*%
%ADD30R,1.803000X1.600000*%
%ADD31C,0.604800*%
%ADD32C,0.203200*%
%ADD33C,0.654800*%

G36*
X343620Y4004D02*
X343620Y4004D01*
X343642Y4002D01*
X343741Y4024D01*
X343840Y4040D01*
X343860Y4051D01*
X343882Y4056D01*
X343969Y4108D01*
X344057Y4156D01*
X344073Y4172D01*
X344093Y4184D01*
X344157Y4261D01*
X344227Y4334D01*
X344236Y4355D01*
X344251Y4372D01*
X344288Y4466D01*
X344330Y4557D01*
X344333Y4580D01*
X344341Y4601D01*
X344359Y4768D01*
X343075Y176747D01*
X343064Y176812D01*
X343064Y178221D01*
X343064Y178223D01*
X343064Y178227D01*
X343055Y179389D01*
X343879Y180212D01*
X343880Y180214D01*
X343883Y180216D01*
X344699Y181046D01*
X345865Y181046D01*
X345867Y181046D01*
X345871Y181046D01*
X347231Y181056D01*
X347243Y181052D01*
X347275Y181053D01*
X347342Y181046D01*
X391444Y181046D01*
X391463Y181049D01*
X391483Y181047D01*
X391584Y181069D01*
X391686Y181085D01*
X391704Y181095D01*
X391724Y181099D01*
X391813Y181152D01*
X391904Y181200D01*
X391918Y181215D01*
X391935Y181225D01*
X392002Y181304D01*
X392073Y181379D01*
X392082Y181397D01*
X392095Y181412D01*
X392133Y181508D01*
X392177Y181602D01*
X392179Y181622D01*
X392186Y181640D01*
X392205Y181807D01*
X392205Y288164D01*
X422848Y318807D01*
X424719Y320677D01*
X506418Y320677D01*
X506446Y320682D01*
X507894Y320677D01*
X507895Y320677D01*
X507896Y320677D01*
X509334Y320677D01*
X509375Y320673D01*
X624837Y320313D01*
X624838Y320313D01*
X624839Y320313D01*
X626002Y320313D01*
X626826Y319483D01*
X626827Y319482D01*
X626828Y319481D01*
X627648Y318661D01*
X627644Y317496D01*
X627644Y317495D01*
X627644Y317494D01*
X627644Y222329D01*
X627659Y222239D01*
X627666Y222148D01*
X627679Y222118D01*
X627684Y222086D01*
X627727Y222005D01*
X627762Y221922D01*
X627788Y221889D01*
X627799Y221869D01*
X627822Y221847D01*
X627867Y221791D01*
X645630Y204027D01*
X645704Y203974D01*
X645774Y203915D01*
X645804Y203903D01*
X645830Y203884D01*
X645917Y203857D01*
X646002Y203823D01*
X646043Y203818D01*
X646065Y203811D01*
X646097Y203812D01*
X646169Y203804D01*
X880238Y203804D01*
X880258Y203808D01*
X880277Y203805D01*
X880379Y203827D01*
X880481Y203844D01*
X880498Y203853D01*
X880518Y203858D01*
X880607Y203911D01*
X880698Y203959D01*
X880712Y203974D01*
X880729Y203984D01*
X880796Y204063D01*
X880868Y204138D01*
X880876Y204156D01*
X880889Y204171D01*
X880928Y204267D01*
X880971Y204361D01*
X880973Y204380D01*
X880981Y204399D01*
X880999Y204566D01*
X880999Y490238D01*
X880996Y490258D01*
X880998Y490277D01*
X880976Y490379D01*
X880960Y490481D01*
X880950Y490498D01*
X880946Y490518D01*
X880893Y490607D01*
X880844Y490698D01*
X880830Y490712D01*
X880820Y490729D01*
X880741Y490796D01*
X880666Y490868D01*
X880648Y490876D01*
X880633Y490889D01*
X880537Y490928D01*
X880443Y490971D01*
X880423Y490973D01*
X880405Y490981D01*
X880238Y490999D01*
X878343Y490999D01*
X875999Y493343D01*
X875999Y506657D01*
X878343Y509001D01*
X880238Y509001D01*
X880258Y509004D01*
X880277Y509002D01*
X880379Y509024D01*
X880481Y509040D01*
X880498Y509050D01*
X880518Y509054D01*
X880607Y509107D01*
X880698Y509156D01*
X880712Y509170D01*
X880729Y509180D01*
X880796Y509259D01*
X880868Y509334D01*
X880876Y509352D01*
X880889Y509367D01*
X880928Y509463D01*
X880971Y509557D01*
X880973Y509577D01*
X880981Y509595D01*
X880999Y509762D01*
X880999Y915238D01*
X880997Y915249D01*
X880998Y915256D01*
X880997Y915264D01*
X880998Y915277D01*
X880976Y915379D01*
X880960Y915481D01*
X880950Y915498D01*
X880946Y915518D01*
X880893Y915607D01*
X880844Y915698D01*
X880830Y915712D01*
X880820Y915729D01*
X880741Y915796D01*
X880666Y915868D01*
X880648Y915876D01*
X880633Y915889D01*
X880537Y915928D01*
X880443Y915971D01*
X880423Y915973D01*
X880405Y915981D01*
X880238Y915999D01*
X808343Y915999D01*
X805999Y918343D01*
X805999Y936503D01*
X805988Y936574D01*
X805986Y936646D01*
X805968Y936695D01*
X805960Y936746D01*
X805926Y936809D01*
X805901Y936877D01*
X805869Y936917D01*
X805844Y936964D01*
X805792Y937013D01*
X805748Y937069D01*
X805704Y937097D01*
X805666Y937133D01*
X805601Y937163D01*
X805541Y937202D01*
X805490Y937215D01*
X805443Y937237D01*
X805372Y937244D01*
X805302Y937262D01*
X805250Y937258D01*
X805199Y937264D01*
X805128Y937248D01*
X805057Y937243D01*
X805009Y937222D01*
X804958Y937211D01*
X804897Y937175D01*
X804831Y937146D01*
X804775Y937102D01*
X804747Y937085D01*
X804732Y937067D01*
X804700Y937042D01*
X798897Y931238D01*
X788986Y926189D01*
X778000Y924449D01*
X767014Y926189D01*
X757103Y931238D01*
X749238Y939103D01*
X744189Y949014D01*
X742449Y960000D01*
X744189Y970986D01*
X749238Y980897D01*
X757103Y988762D01*
X767014Y993811D01*
X771275Y994486D01*
X771336Y994506D01*
X771399Y994517D01*
X771452Y994545D01*
X771509Y994563D01*
X771560Y994602D01*
X771616Y994632D01*
X771658Y994675D01*
X771706Y994711D01*
X771742Y994764D01*
X771786Y994810D01*
X771811Y994864D01*
X771845Y994914D01*
X771862Y994975D01*
X771889Y995033D01*
X771896Y995093D01*
X771912Y995150D01*
X771909Y995214D01*
X771916Y995277D01*
X771904Y995336D01*
X771901Y995396D01*
X771878Y995455D01*
X771864Y995518D01*
X771833Y995569D01*
X771812Y995625D01*
X771771Y995674D01*
X771738Y995729D01*
X771692Y995768D01*
X771654Y995814D01*
X771600Y995847D01*
X771551Y995889D01*
X771495Y995911D01*
X771444Y995943D01*
X771382Y995957D01*
X771323Y995981D01*
X771237Y995990D01*
X771205Y995998D01*
X771180Y995997D01*
X771156Y995999D01*
X517762Y995999D01*
X517742Y995996D01*
X517723Y995998D01*
X517621Y995976D01*
X517519Y995960D01*
X517502Y995950D01*
X517482Y995946D01*
X517393Y995893D01*
X517302Y995844D01*
X517288Y995830D01*
X517271Y995820D01*
X517204Y995741D01*
X517132Y995666D01*
X517124Y995648D01*
X517111Y995633D01*
X517072Y995537D01*
X517029Y995443D01*
X517027Y995423D01*
X517019Y995405D01*
X517001Y995238D01*
X517001Y978343D01*
X514657Y975999D01*
X497762Y975999D01*
X497742Y975996D01*
X497723Y975998D01*
X497621Y975976D01*
X497519Y975960D01*
X497502Y975950D01*
X497482Y975946D01*
X497393Y975893D01*
X497302Y975844D01*
X497288Y975830D01*
X497271Y975820D01*
X497204Y975741D01*
X497132Y975666D01*
X497124Y975648D01*
X497111Y975633D01*
X497072Y975537D01*
X497029Y975443D01*
X497027Y975423D01*
X497019Y975405D01*
X497001Y975238D01*
X497001Y898343D01*
X494657Y895999D01*
X452262Y895999D01*
X452242Y895996D01*
X452223Y895998D01*
X452121Y895976D01*
X452019Y895960D01*
X452002Y895950D01*
X451982Y895946D01*
X451893Y895893D01*
X451802Y895844D01*
X451788Y895830D01*
X451771Y895820D01*
X451704Y895741D01*
X451632Y895666D01*
X451624Y895648D01*
X451611Y895633D01*
X451572Y895537D01*
X451529Y895443D01*
X451527Y895423D01*
X451519Y895405D01*
X451501Y895238D01*
X451501Y893343D01*
X449145Y890987D01*
X449085Y890986D01*
X449036Y890968D01*
X448985Y890960D01*
X448921Y890926D01*
X448854Y890901D01*
X448813Y890869D01*
X448767Y890844D01*
X448718Y890792D01*
X448662Y890748D01*
X448634Y890704D01*
X448598Y890666D01*
X448568Y890601D01*
X448529Y890541D01*
X448516Y890490D01*
X448494Y890443D01*
X448486Y890372D01*
X448469Y890302D01*
X448473Y890250D01*
X448467Y890199D01*
X448482Y890128D01*
X448488Y890057D01*
X448508Y890009D01*
X448519Y889958D01*
X448556Y889897D01*
X448584Y889831D01*
X448629Y889775D01*
X448646Y889747D01*
X448663Y889732D01*
X448689Y889700D01*
X452021Y886368D01*
X453822Y882020D01*
X453822Y857756D01*
X452021Y853408D01*
X448693Y850080D01*
X444345Y848279D01*
X439639Y848279D01*
X435291Y850080D01*
X431963Y853408D01*
X430162Y857756D01*
X430162Y882020D01*
X431963Y886368D01*
X435291Y889696D01*
X435550Y889803D01*
X435589Y889827D01*
X435633Y889843D01*
X435693Y889892D01*
X435759Y889933D01*
X435789Y889968D01*
X435825Y889997D01*
X435867Y890062D01*
X435916Y890122D01*
X435933Y890165D01*
X435958Y890204D01*
X435977Y890279D01*
X436004Y890352D01*
X436006Y890398D01*
X436018Y890442D01*
X436012Y890520D01*
X436015Y890598D01*
X436002Y890642D01*
X435998Y890687D01*
X435968Y890759D01*
X435946Y890834D01*
X435920Y890872D01*
X435902Y890914D01*
X435817Y891020D01*
X435806Y891036D01*
X435802Y891039D01*
X435797Y891045D01*
X433499Y893343D01*
X433499Y895238D01*
X433496Y895258D01*
X433498Y895277D01*
X433476Y895379D01*
X433460Y895481D01*
X433450Y895498D01*
X433446Y895518D01*
X433393Y895607D01*
X433344Y895698D01*
X433330Y895712D01*
X433320Y895729D01*
X433241Y895796D01*
X433166Y895868D01*
X433148Y895876D01*
X433133Y895889D01*
X433037Y895928D01*
X432943Y895971D01*
X432923Y895973D01*
X432905Y895981D01*
X432738Y895999D01*
X390343Y895999D01*
X387999Y898343D01*
X387999Y975238D01*
X387996Y975258D01*
X387998Y975277D01*
X387976Y975379D01*
X387960Y975481D01*
X387950Y975498D01*
X387946Y975518D01*
X387893Y975607D01*
X387844Y975698D01*
X387830Y975712D01*
X387820Y975729D01*
X387741Y975796D01*
X387666Y975868D01*
X387648Y975876D01*
X387633Y975889D01*
X387537Y975928D01*
X387443Y975971D01*
X387423Y975973D01*
X387405Y975981D01*
X387238Y975999D01*
X370343Y975999D01*
X367999Y978343D01*
X367999Y995238D01*
X367996Y995258D01*
X367998Y995277D01*
X367976Y995379D01*
X367960Y995481D01*
X367950Y995498D01*
X367946Y995518D01*
X367893Y995607D01*
X367844Y995698D01*
X367830Y995712D01*
X367820Y995729D01*
X367741Y995796D01*
X367666Y995868D01*
X367648Y995876D01*
X367633Y995889D01*
X367537Y995928D01*
X367443Y995971D01*
X367423Y995973D01*
X367405Y995981D01*
X367238Y995999D01*
X114844Y995999D01*
X114781Y995989D01*
X114717Y995989D01*
X114660Y995969D01*
X114601Y995960D01*
X114545Y995930D01*
X114484Y995909D01*
X114437Y995872D01*
X114384Y995844D01*
X114340Y995798D01*
X114289Y995759D01*
X114256Y995710D01*
X114214Y995666D01*
X114187Y995608D01*
X114152Y995555D01*
X114136Y995497D01*
X114111Y995443D01*
X114104Y995380D01*
X114087Y995318D01*
X114090Y995258D01*
X114084Y995199D01*
X114097Y995136D01*
X114101Y995072D01*
X114123Y995017D01*
X114136Y994958D01*
X114169Y994903D01*
X114192Y994844D01*
X114231Y994799D01*
X114262Y994747D01*
X114310Y994706D01*
X114352Y994657D01*
X114403Y994626D01*
X114449Y994587D01*
X114508Y994563D01*
X114563Y994530D01*
X114646Y994508D01*
X114677Y994495D01*
X114701Y994493D01*
X114725Y994486D01*
X118986Y993811D01*
X128897Y988762D01*
X136762Y980897D01*
X141811Y970986D01*
X143551Y960000D01*
X141811Y949014D01*
X136762Y939103D01*
X128897Y931238D01*
X118986Y926189D01*
X108000Y924449D01*
X97014Y926189D01*
X87103Y931238D01*
X80300Y938042D01*
X80242Y938084D01*
X80190Y938133D01*
X80143Y938155D01*
X80101Y938185D01*
X80032Y938206D01*
X79967Y938237D01*
X79915Y938242D01*
X79865Y938258D01*
X79794Y938256D01*
X79723Y938264D01*
X79672Y938253D01*
X79620Y938251D01*
X79552Y938227D01*
X79482Y938211D01*
X79437Y938185D01*
X79389Y938167D01*
X79333Y938122D01*
X79271Y938085D01*
X79237Y938046D01*
X79197Y938013D01*
X79158Y937953D01*
X79111Y937898D01*
X79092Y937850D01*
X79064Y937806D01*
X79046Y937737D01*
X79019Y937670D01*
X79011Y937599D01*
X79003Y937568D01*
X79005Y937544D01*
X79001Y937503D01*
X79001Y918343D01*
X76657Y915999D01*
X4762Y915999D01*
X4742Y915996D01*
X4723Y915998D01*
X4621Y915976D01*
X4519Y915960D01*
X4502Y915950D01*
X4482Y915946D01*
X4393Y915893D01*
X4302Y915844D01*
X4288Y915830D01*
X4271Y915820D01*
X4204Y915741D01*
X4132Y915666D01*
X4124Y915648D01*
X4111Y915633D01*
X4072Y915537D01*
X4029Y915443D01*
X4027Y915423D01*
X4019Y915405D01*
X4001Y915238D01*
X4001Y509762D01*
X4004Y509742D01*
X4002Y509723D01*
X4024Y509621D01*
X4040Y509519D01*
X4050Y509502D01*
X4054Y509482D01*
X4107Y509393D01*
X4156Y509302D01*
X4170Y509288D01*
X4180Y509271D01*
X4259Y509204D01*
X4334Y509132D01*
X4352Y509124D01*
X4367Y509111D01*
X4463Y509072D01*
X4557Y509029D01*
X4577Y509027D01*
X4595Y509019D01*
X4762Y509001D01*
X6657Y509001D01*
X9001Y506657D01*
X9001Y493343D01*
X6657Y490999D01*
X4762Y490999D01*
X4742Y490996D01*
X4723Y490998D01*
X4621Y490976D01*
X4519Y490960D01*
X4502Y490950D01*
X4482Y490946D01*
X4393Y490893D01*
X4302Y490844D01*
X4288Y490830D01*
X4271Y490820D01*
X4204Y490741D01*
X4132Y490666D01*
X4124Y490648D01*
X4111Y490633D01*
X4072Y490537D01*
X4029Y490443D01*
X4027Y490423D01*
X4019Y490405D01*
X4001Y490238D01*
X4001Y54046D01*
X4006Y54012D01*
X4004Y53979D01*
X4026Y53892D01*
X4040Y53803D01*
X4056Y53773D01*
X4064Y53741D01*
X4113Y53665D01*
X4156Y53585D01*
X4180Y53562D01*
X4198Y53534D01*
X4324Y53423D01*
X19070Y43040D01*
X19094Y43028D01*
X19113Y43011D01*
X19204Y42975D01*
X19291Y42932D01*
X19317Y42929D01*
X19342Y42919D01*
X19508Y42901D01*
X19657Y42901D01*
X20539Y42019D01*
X20565Y42001D01*
X20639Y41935D01*
X21658Y41217D01*
X21684Y41070D01*
X21692Y41046D01*
X21694Y41020D01*
X21732Y40930D01*
X21764Y40838D01*
X21780Y40817D01*
X21791Y40793D01*
X21896Y40662D01*
X22001Y40557D01*
X22001Y39310D01*
X22006Y39279D01*
X22012Y39180D01*
X22225Y37952D01*
X22140Y37830D01*
X22128Y37806D01*
X22111Y37787D01*
X22075Y37696D01*
X22032Y37609D01*
X22029Y37583D01*
X22019Y37558D01*
X22001Y37392D01*
X22001Y4762D01*
X22004Y4742D01*
X22002Y4723D01*
X22024Y4621D01*
X22040Y4519D01*
X22050Y4502D01*
X22054Y4482D01*
X22107Y4393D01*
X22156Y4302D01*
X22170Y4288D01*
X22180Y4271D01*
X22259Y4204D01*
X22334Y4132D01*
X22352Y4124D01*
X22367Y4111D01*
X22463Y4072D01*
X22557Y4029D01*
X22577Y4027D01*
X22595Y4019D01*
X22762Y4001D01*
X343597Y4001D01*
X343620Y4004D01*
G37*
G36*
X432758Y4004D02*
X432758Y4004D01*
X432777Y4002D01*
X432879Y4024D01*
X432981Y4040D01*
X432998Y4050D01*
X433018Y4054D01*
X433107Y4107D01*
X433198Y4156D01*
X433212Y4170D01*
X433229Y4180D01*
X433296Y4259D01*
X433368Y4334D01*
X433376Y4352D01*
X433389Y4367D01*
X433428Y4463D01*
X433471Y4557D01*
X433473Y4577D01*
X433481Y4595D01*
X433499Y4762D01*
X433499Y6657D01*
X435843Y9001D01*
X449157Y9001D01*
X451501Y6657D01*
X451501Y4762D01*
X451504Y4742D01*
X451502Y4723D01*
X451524Y4621D01*
X451540Y4519D01*
X451550Y4502D01*
X451554Y4482D01*
X451607Y4393D01*
X451656Y4302D01*
X451670Y4288D01*
X451680Y4271D01*
X451759Y4204D01*
X451834Y4132D01*
X451852Y4124D01*
X451867Y4111D01*
X451963Y4072D01*
X452057Y4029D01*
X452077Y4027D01*
X452095Y4019D01*
X452262Y4001D01*
X863238Y4001D01*
X863258Y4004D01*
X863277Y4002D01*
X863379Y4024D01*
X863481Y4040D01*
X863498Y4050D01*
X863518Y4054D01*
X863607Y4107D01*
X863698Y4156D01*
X863712Y4170D01*
X863729Y4180D01*
X863796Y4259D01*
X863868Y4334D01*
X863876Y4352D01*
X863889Y4367D01*
X863928Y4463D01*
X863971Y4557D01*
X863973Y4577D01*
X863981Y4595D01*
X863999Y4762D01*
X863999Y37399D01*
X863995Y37424D01*
X863998Y37449D01*
X863975Y37545D01*
X863960Y37642D01*
X863948Y37664D01*
X863942Y37688D01*
X863862Y37835D01*
X863772Y37963D01*
X863988Y39185D01*
X863988Y39216D01*
X863999Y39317D01*
X863999Y40557D01*
X864110Y40667D01*
X864124Y40688D01*
X864144Y40704D01*
X864196Y40788D01*
X864253Y40867D01*
X864261Y40891D01*
X864274Y40913D01*
X864321Y41074D01*
X864348Y41227D01*
X865364Y41938D01*
X865387Y41960D01*
X865466Y42024D01*
X866343Y42901D01*
X866499Y42901D01*
X866524Y42905D01*
X866549Y42902D01*
X866645Y42925D01*
X866742Y42940D01*
X866764Y42952D01*
X866788Y42958D01*
X866935Y43038D01*
X880675Y52656D01*
X880699Y52680D01*
X880729Y52698D01*
X880787Y52765D01*
X880851Y52827D01*
X880866Y52858D01*
X880889Y52884D01*
X880922Y52967D01*
X880963Y53046D01*
X880968Y53081D01*
X880981Y53113D01*
X880999Y53279D01*
X880999Y200992D01*
X880996Y201011D01*
X880998Y201031D01*
X880976Y201132D01*
X880960Y201234D01*
X880950Y201252D01*
X880946Y201271D01*
X880893Y201360D01*
X880844Y201452D01*
X880830Y201465D01*
X880820Y201483D01*
X880741Y201550D01*
X880666Y201621D01*
X880648Y201630D01*
X880633Y201642D01*
X880537Y201681D01*
X880443Y201725D01*
X880423Y201727D01*
X880405Y201734D01*
X880238Y201753D01*
X645004Y201753D01*
X625593Y221164D01*
X625593Y317500D01*
X625590Y317519D01*
X625592Y317537D01*
X625570Y317639D01*
X625553Y317743D01*
X625544Y317759D01*
X625540Y317778D01*
X625487Y317868D01*
X625438Y317960D01*
X625424Y317973D01*
X625415Y317989D01*
X625335Y318057D01*
X625259Y318130D01*
X625242Y318137D01*
X625228Y318150D01*
X625131Y318189D01*
X625036Y318233D01*
X625018Y318235D01*
X625000Y318242D01*
X624834Y318261D01*
X507894Y318626D01*
X507893Y318626D01*
X507892Y318626D01*
X425884Y318626D01*
X425794Y318611D01*
X425703Y318604D01*
X425673Y318591D01*
X425641Y318586D01*
X425560Y318543D01*
X425476Y318508D01*
X425444Y318482D01*
X425424Y318471D01*
X425401Y318448D01*
X425345Y318403D01*
X394479Y287537D01*
X394426Y287463D01*
X394367Y287393D01*
X394355Y287363D01*
X394336Y287337D01*
X394309Y287250D01*
X394275Y287165D01*
X394270Y287124D01*
X394264Y287102D01*
X394264Y287070D01*
X394256Y286999D01*
X394256Y178994D01*
X345877Y178994D01*
X345854Y178990D01*
X345832Y178993D01*
X345733Y178971D01*
X345634Y178954D01*
X345614Y178944D01*
X345592Y178939D01*
X345506Y178886D01*
X345417Y178839D01*
X345401Y178823D01*
X345382Y178811D01*
X345317Y178734D01*
X345247Y178661D01*
X345238Y178640D01*
X345223Y178623D01*
X345186Y178529D01*
X345144Y178438D01*
X345141Y178415D01*
X345133Y178394D01*
X345116Y178227D01*
X346410Y4756D01*
X346413Y4739D01*
X346411Y4723D01*
X346434Y4619D01*
X346452Y4514D01*
X346460Y4499D01*
X346463Y4482D01*
X346518Y4391D01*
X346568Y4297D01*
X346581Y4286D01*
X346590Y4271D01*
X346670Y4202D01*
X346748Y4129D01*
X346763Y4122D01*
X346776Y4111D01*
X346875Y4071D01*
X346972Y4027D01*
X346989Y4026D01*
X347005Y4019D01*
X347171Y4001D01*
X432738Y4001D01*
X432758Y4004D01*
G37*
%LPC*%
G36*
X144453Y103699D02*
X144453Y103699D01*
X140115Y105496D01*
X136796Y108815D01*
X134999Y113153D01*
X134999Y137347D01*
X136796Y141685D01*
X140115Y145004D01*
X144453Y146801D01*
X149147Y146801D01*
X153074Y145174D01*
X153188Y145147D01*
X153302Y145119D01*
X153308Y145119D01*
X153314Y145118D01*
X153431Y145129D01*
X153547Y145138D01*
X153552Y145140D01*
X153559Y145141D01*
X153666Y145189D01*
X153773Y145234D01*
X153779Y145239D01*
X153784Y145241D01*
X153797Y145254D01*
X153904Y145339D01*
X160625Y152060D01*
X175377Y152060D01*
X175473Y152075D01*
X175570Y152085D01*
X175594Y152095D01*
X175619Y152099D01*
X175705Y152145D01*
X175794Y152185D01*
X175814Y152202D01*
X175837Y152215D01*
X175904Y152285D01*
X175976Y152351D01*
X175988Y152374D01*
X176006Y152393D01*
X176047Y152481D01*
X176094Y152567D01*
X176099Y152592D01*
X176110Y152616D01*
X176121Y152713D01*
X176138Y152809D01*
X176134Y152835D01*
X176137Y152860D01*
X176116Y152956D01*
X176102Y153052D01*
X176090Y153075D01*
X176085Y153101D01*
X176035Y153184D01*
X175991Y153271D01*
X175972Y153290D01*
X175959Y153312D01*
X175885Y153375D01*
X175815Y153443D01*
X175786Y153459D01*
X175772Y153472D01*
X175741Y153484D01*
X175668Y153524D01*
X172115Y154996D01*
X168796Y158315D01*
X166999Y162653D01*
X166999Y186847D01*
X168796Y191185D01*
X172115Y194504D01*
X176453Y196301D01*
X181147Y196301D01*
X185485Y194504D01*
X188804Y191185D01*
X190601Y186847D01*
X190601Y162653D01*
X188804Y158315D01*
X185485Y154996D01*
X181932Y153524D01*
X181849Y153473D01*
X181763Y153427D01*
X181745Y153408D01*
X181723Y153395D01*
X181661Y153320D01*
X181594Y153249D01*
X181583Y153225D01*
X181566Y153205D01*
X181531Y153114D01*
X181490Y153026D01*
X181487Y153000D01*
X181478Y152976D01*
X181474Y152878D01*
X181463Y152782D01*
X181469Y152756D01*
X181467Y152730D01*
X181495Y152636D01*
X181515Y152541D01*
X181529Y152519D01*
X181536Y152494D01*
X181592Y152414D01*
X181641Y152330D01*
X181661Y152313D01*
X181676Y152292D01*
X181754Y152233D01*
X181828Y152170D01*
X181853Y152160D01*
X181874Y152145D01*
X181966Y152115D01*
X182057Y152078D01*
X182089Y152075D01*
X182108Y152069D01*
X182141Y152069D01*
X182223Y152060D01*
X188883Y152060D01*
X188973Y152074D01*
X189064Y152082D01*
X189094Y152094D01*
X189126Y152099D01*
X189207Y152142D01*
X189291Y152178D01*
X189323Y152204D01*
X189344Y152215D01*
X189366Y152238D01*
X189422Y152283D01*
X198872Y161733D01*
X198940Y161828D01*
X199010Y161921D01*
X199012Y161927D01*
X199015Y161932D01*
X199050Y162044D01*
X199086Y162155D01*
X199086Y162162D01*
X199088Y162168D01*
X199085Y162284D01*
X199083Y162401D01*
X199081Y162408D01*
X199081Y162413D01*
X199075Y162431D01*
X199037Y162562D01*
X198999Y162653D01*
X198999Y186847D01*
X200796Y191185D01*
X204115Y194504D01*
X208453Y196301D01*
X213147Y196301D01*
X217485Y194504D01*
X220804Y191185D01*
X222601Y186847D01*
X222601Y162653D01*
X220804Y158315D01*
X217485Y154996D01*
X213147Y153199D01*
X208453Y153199D01*
X204115Y154996D01*
X203000Y156111D01*
X202984Y156122D01*
X202972Y156138D01*
X202885Y156194D01*
X202801Y156254D01*
X202782Y156260D01*
X202765Y156271D01*
X202664Y156296D01*
X202566Y156327D01*
X202546Y156326D01*
X202526Y156331D01*
X202423Y156323D01*
X202320Y156320D01*
X202301Y156313D01*
X202281Y156312D01*
X202186Y156272D01*
X202089Y156236D01*
X202073Y156223D01*
X202055Y156216D01*
X201924Y156111D01*
X191739Y145926D01*
X186400Y145926D01*
X186330Y145915D01*
X186258Y145913D01*
X186209Y145895D01*
X186158Y145887D01*
X186094Y145853D01*
X186027Y145828D01*
X185986Y145796D01*
X185940Y145771D01*
X185891Y145719D01*
X185835Y145675D01*
X185807Y145631D01*
X185771Y145593D01*
X185741Y145528D01*
X185702Y145468D01*
X185689Y145417D01*
X185667Y145370D01*
X185659Y145299D01*
X185642Y145229D01*
X185646Y145177D01*
X185640Y145126D01*
X185655Y145055D01*
X185661Y144984D01*
X185681Y144936D01*
X185692Y144885D01*
X185729Y144824D01*
X185757Y144758D01*
X185802Y144702D01*
X185819Y144674D01*
X185836Y144659D01*
X185862Y144627D01*
X188804Y141685D01*
X190601Y137347D01*
X190601Y113153D01*
X188804Y108815D01*
X185485Y105496D01*
X181147Y103699D01*
X176453Y103699D01*
X172115Y105496D01*
X168796Y108815D01*
X166999Y113153D01*
X166999Y137347D01*
X168796Y141685D01*
X171738Y144627D01*
X171780Y144685D01*
X171829Y144737D01*
X171851Y144784D01*
X171882Y144826D01*
X171903Y144895D01*
X171933Y144960D01*
X171939Y145012D01*
X171954Y145062D01*
X171952Y145133D01*
X171960Y145204D01*
X171949Y145255D01*
X171948Y145307D01*
X171923Y145375D01*
X171908Y145445D01*
X171881Y145490D01*
X171863Y145538D01*
X171818Y145594D01*
X171781Y145656D01*
X171742Y145690D01*
X171709Y145730D01*
X171649Y145769D01*
X171595Y145816D01*
X171546Y145835D01*
X171502Y145863D01*
X171433Y145881D01*
X171366Y145908D01*
X171295Y145916D01*
X171264Y145924D01*
X171241Y145922D01*
X171200Y145926D01*
X163481Y145926D01*
X163391Y145912D01*
X163300Y145904D01*
X163270Y145892D01*
X163238Y145887D01*
X163157Y145844D01*
X163073Y145808D01*
X163041Y145782D01*
X163020Y145771D01*
X162998Y145748D01*
X162942Y145703D01*
X157785Y140546D01*
X157717Y140452D01*
X157647Y140357D01*
X157645Y140351D01*
X157641Y140346D01*
X157607Y140235D01*
X157570Y140123D01*
X157571Y140117D01*
X157569Y140111D01*
X157572Y139994D01*
X157573Y139877D01*
X157575Y139870D01*
X157575Y139865D01*
X157581Y139847D01*
X157620Y139716D01*
X158601Y137347D01*
X158601Y113153D01*
X156804Y108815D01*
X153485Y105496D01*
X149147Y103699D01*
X144453Y103699D01*
G37*
%LPD*%
%LPC*%
G36*
X827014Y40689D02*
X827014Y40689D01*
X817103Y45738D01*
X809238Y53603D01*
X804189Y63514D01*
X802449Y74500D01*
X804189Y85486D01*
X809238Y95397D01*
X817103Y103262D01*
X827014Y108311D01*
X838000Y110051D01*
X848986Y108311D01*
X858897Y103262D01*
X866762Y95397D01*
X871811Y85486D01*
X873551Y74500D01*
X871811Y63514D01*
X866762Y53603D01*
X858897Y45738D01*
X848986Y40689D01*
X838000Y38949D01*
X827014Y40689D01*
G37*
%LPD*%
%LPC*%
G36*
X36014Y40689D02*
X36014Y40689D01*
X26103Y45738D01*
X18238Y53603D01*
X13189Y63514D01*
X11449Y74500D01*
X13189Y85486D01*
X18238Y95397D01*
X26103Y103262D01*
X36014Y108311D01*
X47000Y110051D01*
X57986Y108311D01*
X67897Y103262D01*
X75762Y95397D01*
X80811Y85486D01*
X82551Y74500D01*
X80811Y63514D01*
X75762Y53603D01*
X67897Y45738D01*
X57986Y40689D01*
X47000Y38949D01*
X36014Y40689D01*
G37*
%LPD*%
%LPC*%
G36*
X842554Y450406D02*
X842554Y450406D01*
X839029Y451866D01*
X836331Y454564D01*
X834871Y458089D01*
X834871Y461904D01*
X836331Y465429D01*
X839029Y468127D01*
X841844Y469293D01*
X841905Y469331D01*
X841971Y469360D01*
X842009Y469395D01*
X842053Y469423D01*
X842099Y469478D01*
X842152Y469527D01*
X842177Y469572D01*
X842210Y469612D01*
X842236Y469679D01*
X842270Y469742D01*
X842280Y469793D01*
X842298Y469842D01*
X842301Y469913D01*
X842314Y469984D01*
X842307Y470036D01*
X842309Y470088D01*
X842289Y470157D01*
X842278Y470227D01*
X842255Y470274D01*
X842240Y470324D01*
X842199Y470383D01*
X842167Y470447D01*
X842130Y470483D01*
X842100Y470526D01*
X842042Y470569D01*
X841991Y470619D01*
X841928Y470653D01*
X841903Y470673D01*
X841880Y470680D01*
X841844Y470700D01*
X839029Y471866D01*
X836331Y474564D01*
X834871Y478089D01*
X834871Y481904D01*
X836331Y485429D01*
X839029Y488127D01*
X841844Y489293D01*
X841905Y489331D01*
X841971Y489360D01*
X842009Y489395D01*
X842053Y489423D01*
X842099Y489478D01*
X842152Y489526D01*
X842177Y489572D01*
X842210Y489612D01*
X842236Y489679D01*
X842270Y489742D01*
X842280Y489793D01*
X842298Y489842D01*
X842301Y489913D01*
X842314Y489984D01*
X842307Y490036D01*
X842309Y490088D01*
X842289Y490156D01*
X842278Y490227D01*
X842255Y490274D01*
X842240Y490324D01*
X842199Y490383D01*
X842167Y490447D01*
X842130Y490483D01*
X842100Y490526D01*
X842042Y490569D01*
X841991Y490619D01*
X841928Y490653D01*
X841903Y490673D01*
X841880Y490680D01*
X841844Y490700D01*
X839029Y491866D01*
X836331Y494564D01*
X834871Y498089D01*
X834871Y501904D01*
X836331Y505429D01*
X839029Y508127D01*
X841844Y509293D01*
X841905Y509331D01*
X841971Y509360D01*
X842009Y509395D01*
X842053Y509423D01*
X842099Y509478D01*
X842152Y509527D01*
X842177Y509572D01*
X842210Y509612D01*
X842236Y509679D01*
X842270Y509742D01*
X842280Y509793D01*
X842298Y509842D01*
X842301Y509913D01*
X842314Y509984D01*
X842307Y510036D01*
X842309Y510088D01*
X842289Y510157D01*
X842278Y510227D01*
X842255Y510274D01*
X842240Y510324D01*
X842199Y510383D01*
X842167Y510447D01*
X842130Y510483D01*
X842100Y510526D01*
X842042Y510569D01*
X841991Y510619D01*
X841928Y510653D01*
X841903Y510673D01*
X841880Y510680D01*
X841844Y510700D01*
X839029Y511866D01*
X836331Y514564D01*
X834871Y518089D01*
X834871Y521904D01*
X836331Y525429D01*
X839029Y528127D01*
X841844Y529293D01*
X841905Y529331D01*
X841971Y529360D01*
X842009Y529395D01*
X842053Y529423D01*
X842099Y529478D01*
X842152Y529527D01*
X842177Y529572D01*
X842210Y529612D01*
X842236Y529679D01*
X842270Y529742D01*
X842280Y529793D01*
X842298Y529842D01*
X842301Y529913D01*
X842314Y529984D01*
X842307Y530036D01*
X842309Y530088D01*
X842289Y530157D01*
X842278Y530227D01*
X842255Y530274D01*
X842240Y530324D01*
X842199Y530383D01*
X842167Y530447D01*
X842130Y530483D01*
X842100Y530526D01*
X842042Y530569D01*
X841991Y530619D01*
X841928Y530653D01*
X841903Y530673D01*
X841880Y530680D01*
X841844Y530700D01*
X839029Y531866D01*
X836331Y534564D01*
X834871Y538089D01*
X834871Y541904D01*
X836331Y545429D01*
X839029Y548127D01*
X841844Y549293D01*
X841905Y549331D01*
X841971Y549360D01*
X842009Y549395D01*
X842053Y549423D01*
X842099Y549478D01*
X842152Y549526D01*
X842177Y549572D01*
X842210Y549612D01*
X842236Y549679D01*
X842270Y549742D01*
X842280Y549793D01*
X842298Y549842D01*
X842301Y549913D01*
X842314Y549984D01*
X842307Y550036D01*
X842309Y550088D01*
X842289Y550156D01*
X842278Y550227D01*
X842255Y550274D01*
X842240Y550324D01*
X842199Y550383D01*
X842167Y550447D01*
X842130Y550483D01*
X842100Y550526D01*
X842042Y550569D01*
X841991Y550619D01*
X841928Y550653D01*
X841903Y550673D01*
X841880Y550680D01*
X841844Y550700D01*
X839029Y551866D01*
X836331Y554564D01*
X834871Y558089D01*
X834871Y561904D01*
X836331Y565429D01*
X839029Y568127D01*
X842554Y569587D01*
X861450Y569587D01*
X864975Y568127D01*
X867672Y565429D01*
X869133Y561904D01*
X869133Y558089D01*
X867672Y554564D01*
X864975Y551866D01*
X862159Y550700D01*
X862098Y550662D01*
X862033Y550633D01*
X861995Y550598D01*
X861950Y550570D01*
X861905Y550515D01*
X861852Y550466D01*
X861827Y550421D01*
X861794Y550381D01*
X861768Y550314D01*
X861733Y550251D01*
X861724Y550200D01*
X861705Y550151D01*
X861702Y550080D01*
X861690Y550009D01*
X861697Y549957D01*
X861695Y549905D01*
X861715Y549836D01*
X861725Y549766D01*
X861749Y549719D01*
X861763Y549669D01*
X861804Y549610D01*
X861837Y549546D01*
X861874Y549510D01*
X861904Y549467D01*
X861961Y549424D01*
X862012Y549374D01*
X862075Y549339D01*
X862101Y549320D01*
X862123Y549313D01*
X862159Y549293D01*
X864975Y548127D01*
X867672Y545429D01*
X869133Y541904D01*
X869133Y538089D01*
X867672Y534564D01*
X864975Y531866D01*
X862159Y530700D01*
X862098Y530662D01*
X862033Y530633D01*
X861995Y530598D01*
X861950Y530570D01*
X861905Y530515D01*
X861852Y530466D01*
X861827Y530421D01*
X861794Y530381D01*
X861768Y530314D01*
X861733Y530251D01*
X861724Y530200D01*
X861705Y530151D01*
X861702Y530080D01*
X861690Y530009D01*
X861697Y529957D01*
X861695Y529905D01*
X861715Y529836D01*
X861725Y529766D01*
X861749Y529719D01*
X861763Y529669D01*
X861804Y529610D01*
X861837Y529546D01*
X861874Y529510D01*
X861904Y529467D01*
X861961Y529424D01*
X862012Y529374D01*
X862075Y529339D01*
X862101Y529320D01*
X862123Y529313D01*
X862159Y529293D01*
X864975Y528127D01*
X867672Y525429D01*
X869133Y521904D01*
X869133Y518089D01*
X867672Y514564D01*
X864975Y511866D01*
X862159Y510700D01*
X862098Y510662D01*
X862033Y510633D01*
X861995Y510598D01*
X861950Y510570D01*
X861905Y510515D01*
X861852Y510466D01*
X861827Y510421D01*
X861794Y510381D01*
X861768Y510314D01*
X861733Y510251D01*
X861724Y510200D01*
X861705Y510151D01*
X861702Y510080D01*
X861690Y510009D01*
X861697Y509957D01*
X861695Y509905D01*
X861715Y509836D01*
X861725Y509766D01*
X861749Y509719D01*
X861763Y509669D01*
X861804Y509610D01*
X861837Y509546D01*
X861874Y509510D01*
X861904Y509467D01*
X861961Y509424D01*
X862012Y509374D01*
X862075Y509339D01*
X862101Y509320D01*
X862123Y509313D01*
X862159Y509293D01*
X864975Y508127D01*
X867672Y505429D01*
X869133Y501904D01*
X869133Y498089D01*
X867672Y494564D01*
X864975Y491866D01*
X862159Y490700D01*
X862098Y490662D01*
X862033Y490633D01*
X861995Y490598D01*
X861950Y490570D01*
X861905Y490515D01*
X861852Y490466D01*
X861827Y490421D01*
X861793Y490381D01*
X861768Y490314D01*
X861733Y490251D01*
X861724Y490200D01*
X861705Y490151D01*
X861702Y490080D01*
X861690Y490009D01*
X861697Y489957D01*
X861695Y489905D01*
X861715Y489836D01*
X861725Y489766D01*
X861749Y489719D01*
X861763Y489669D01*
X861804Y489610D01*
X861837Y489546D01*
X861874Y489510D01*
X861904Y489467D01*
X861961Y489424D01*
X862012Y489374D01*
X862075Y489339D01*
X862101Y489320D01*
X862123Y489313D01*
X862159Y489293D01*
X864975Y488127D01*
X867672Y485429D01*
X869133Y481904D01*
X869133Y478089D01*
X867672Y474564D01*
X864975Y471866D01*
X862159Y470700D01*
X862098Y470662D01*
X862033Y470633D01*
X861995Y470598D01*
X861950Y470570D01*
X861905Y470515D01*
X861852Y470466D01*
X861827Y470421D01*
X861793Y470381D01*
X861768Y470314D01*
X861733Y470251D01*
X861724Y470200D01*
X861705Y470151D01*
X861702Y470080D01*
X861690Y470009D01*
X861697Y469957D01*
X861695Y469905D01*
X861715Y469836D01*
X861725Y469766D01*
X861749Y469719D01*
X861763Y469669D01*
X861804Y469610D01*
X861837Y469546D01*
X861874Y469510D01*
X861904Y469467D01*
X861961Y469424D01*
X862012Y469374D01*
X862075Y469339D01*
X862101Y469320D01*
X862123Y469313D01*
X862159Y469293D01*
X864975Y468127D01*
X867672Y465429D01*
X869133Y461904D01*
X869133Y458089D01*
X867672Y454564D01*
X864975Y451866D01*
X861450Y450406D01*
X842554Y450406D01*
G37*
%LPD*%
%LPC*%
G36*
X208453Y103699D02*
X208453Y103699D01*
X204115Y105496D01*
X200796Y108815D01*
X198999Y113153D01*
X198999Y137347D01*
X200796Y141685D01*
X204115Y145004D01*
X208453Y146801D01*
X213147Y146801D01*
X216295Y145497D01*
X216409Y145470D01*
X216522Y145442D01*
X216529Y145442D01*
X216535Y145441D01*
X216651Y145452D01*
X216768Y145461D01*
X216773Y145463D01*
X216780Y145464D01*
X216887Y145512D01*
X216994Y145557D01*
X217000Y145562D01*
X217004Y145564D01*
X217018Y145576D01*
X217125Y145662D01*
X240891Y169428D01*
X240935Y169490D01*
X240969Y169525D01*
X240977Y169543D01*
X241010Y169582D01*
X241020Y169607D01*
X241035Y169628D01*
X241064Y169721D01*
X241098Y169812D01*
X241100Y169838D01*
X241107Y169863D01*
X241105Y169961D01*
X241109Y170058D01*
X241102Y170083D01*
X241101Y170109D01*
X241067Y170201D01*
X241040Y170294D01*
X241025Y170315D01*
X241016Y170340D01*
X240956Y170416D01*
X240900Y170496D01*
X240879Y170512D01*
X240863Y170532D01*
X240781Y170585D01*
X240703Y170643D01*
X240678Y170651D01*
X240656Y170665D01*
X240561Y170689D01*
X240469Y170719D01*
X240443Y170719D01*
X240417Y170725D01*
X240320Y170718D01*
X240223Y170717D01*
X240191Y170708D01*
X240172Y170706D01*
X240142Y170693D01*
X240079Y170675D01*
X240078Y170675D01*
X240062Y170670D01*
X237839Y169749D01*
X233761Y169749D01*
X229993Y171310D01*
X227110Y174193D01*
X225549Y177961D01*
X225549Y182039D01*
X227110Y185807D01*
X229993Y188690D01*
X233761Y190251D01*
X237839Y190251D01*
X241607Y188690D01*
X244490Y185807D01*
X246051Y182039D01*
X246051Y177961D01*
X245130Y175738D01*
X245108Y175643D01*
X245079Y175550D01*
X245080Y175524D01*
X245074Y175499D01*
X245083Y175402D01*
X245086Y175304D01*
X245094Y175280D01*
X245097Y175254D01*
X245137Y175165D01*
X245170Y175073D01*
X245186Y175053D01*
X245197Y175029D01*
X245263Y174957D01*
X245324Y174881D01*
X245346Y174867D01*
X245363Y174848D01*
X245449Y174801D01*
X245531Y174748D01*
X245556Y174742D01*
X245579Y174729D01*
X245675Y174712D01*
X245769Y174688D01*
X245795Y174690D01*
X245821Y174686D01*
X245917Y174700D01*
X246014Y174707D01*
X246038Y174718D01*
X246064Y174722D01*
X246151Y174766D01*
X246241Y174804D01*
X246266Y174824D01*
X246284Y174833D01*
X246307Y174857D01*
X246372Y174909D01*
X354541Y283078D01*
X354594Y283152D01*
X354654Y283222D01*
X354666Y283252D01*
X354685Y283278D01*
X354712Y283365D01*
X354746Y283450D01*
X354750Y283491D01*
X354757Y283513D01*
X354756Y283545D01*
X354764Y283617D01*
X354764Y370483D01*
X354746Y370598D01*
X354728Y370714D01*
X354726Y370720D01*
X354725Y370726D01*
X354670Y370829D01*
X354617Y370933D01*
X354612Y370938D01*
X354609Y370943D01*
X354524Y371024D01*
X354441Y371106D01*
X354435Y371109D01*
X354431Y371113D01*
X354414Y371121D01*
X354294Y371187D01*
X353917Y371343D01*
X351441Y373819D01*
X350101Y377053D01*
X350101Y380554D01*
X351441Y383789D01*
X353917Y386265D01*
X357151Y387605D01*
X360653Y387605D01*
X363887Y386265D01*
X366363Y383789D01*
X367703Y380554D01*
X367703Y377053D01*
X366363Y373819D01*
X363887Y371343D01*
X361368Y370299D01*
X361268Y370238D01*
X361168Y370178D01*
X361164Y370173D01*
X361159Y370170D01*
X361084Y370080D01*
X361008Y369991D01*
X361006Y369985D01*
X361002Y369980D01*
X360960Y369872D01*
X360916Y369763D01*
X360915Y369755D01*
X360914Y369751D01*
X360913Y369732D01*
X360898Y369596D01*
X360898Y280761D01*
X221462Y141325D01*
X221394Y141231D01*
X221324Y141136D01*
X221322Y141130D01*
X221318Y141125D01*
X221284Y141014D01*
X221248Y140902D01*
X221248Y140896D01*
X221246Y140890D01*
X221249Y140773D01*
X221250Y140656D01*
X221252Y140649D01*
X221252Y140644D01*
X221259Y140627D01*
X221297Y140495D01*
X222601Y137347D01*
X222601Y113153D01*
X220804Y108815D01*
X217485Y105496D01*
X213147Y103699D01*
X208453Y103699D01*
G37*
%LPD*%
%LPC*%
G36*
X656314Y522872D02*
X656314Y522872D01*
X653460Y524054D01*
X651275Y526239D01*
X650093Y529093D01*
X650093Y532182D01*
X651275Y535037D01*
X653460Y537221D01*
X656314Y538403D01*
X659404Y538403D01*
X662258Y537221D01*
X664442Y535037D01*
X664800Y534174D01*
X664861Y534074D01*
X664921Y533975D01*
X664926Y533971D01*
X664929Y533965D01*
X665020Y533890D01*
X665108Y533815D01*
X665114Y533812D01*
X665119Y533808D01*
X665227Y533767D01*
X665336Y533723D01*
X665344Y533722D01*
X665348Y533720D01*
X665367Y533719D01*
X665503Y533704D01*
X752929Y533704D01*
X753019Y533719D01*
X753110Y533726D01*
X753140Y533739D01*
X753172Y533744D01*
X753252Y533787D01*
X753336Y533822D01*
X753368Y533848D01*
X753389Y533859D01*
X753411Y533882D01*
X753467Y533927D01*
X863019Y643479D01*
X863072Y643553D01*
X863131Y643622D01*
X863144Y643652D01*
X863162Y643679D01*
X863189Y643765D01*
X863223Y643850D01*
X863228Y643891D01*
X863235Y643914D01*
X863234Y643946D01*
X863242Y644017D01*
X863242Y768021D01*
X863239Y768041D01*
X863241Y768061D01*
X863219Y768162D01*
X863202Y768264D01*
X863193Y768282D01*
X863189Y768301D01*
X863135Y768390D01*
X863087Y768482D01*
X863073Y768495D01*
X863062Y768512D01*
X862984Y768580D01*
X862909Y768651D01*
X862891Y768659D01*
X862875Y768672D01*
X862779Y768711D01*
X862686Y768755D01*
X862666Y768757D01*
X862647Y768764D01*
X862481Y768783D01*
X853472Y768783D01*
X852270Y769984D01*
X852270Y785183D01*
X853472Y786384D01*
X868670Y786384D01*
X869872Y785183D01*
X869872Y769984D01*
X869598Y769711D01*
X869545Y769637D01*
X869486Y769567D01*
X869474Y769537D01*
X869455Y769511D01*
X869428Y769424D01*
X869394Y769339D01*
X869389Y769298D01*
X869382Y769276D01*
X869383Y769244D01*
X869375Y769172D01*
X869375Y641161D01*
X829573Y601359D01*
X829516Y601280D01*
X829454Y601205D01*
X829445Y601181D01*
X829430Y601159D01*
X829401Y601067D01*
X829366Y600975D01*
X829365Y600949D01*
X829357Y600924D01*
X829360Y600827D01*
X829356Y600730D01*
X829363Y600705D01*
X829364Y600678D01*
X829397Y600587D01*
X829424Y600493D01*
X829439Y600472D01*
X829448Y600447D01*
X829509Y600371D01*
X829565Y600291D01*
X829586Y600276D01*
X829602Y600255D01*
X829684Y600203D01*
X829762Y600145D01*
X829787Y600137D01*
X829809Y600122D01*
X829903Y600099D01*
X829996Y600068D01*
X830022Y600069D01*
X830047Y600062D01*
X830144Y600070D01*
X830242Y600071D01*
X830273Y600080D01*
X830293Y600081D01*
X830323Y600094D01*
X830403Y600118D01*
X831360Y600514D01*
X834450Y600514D01*
X837304Y599332D01*
X839489Y597147D01*
X840671Y594293D01*
X840671Y591204D01*
X839489Y588350D01*
X837304Y586165D01*
X834450Y584983D01*
X831360Y584983D01*
X828506Y586165D01*
X826322Y588350D01*
X825139Y591204D01*
X825139Y594293D01*
X825536Y595251D01*
X825544Y595284D01*
X825545Y595287D01*
X825546Y595292D01*
X825558Y595345D01*
X825587Y595439D01*
X825586Y595465D01*
X825592Y595490D01*
X825583Y595587D01*
X825581Y595685D01*
X825572Y595709D01*
X825569Y595735D01*
X825530Y595824D01*
X825496Y595916D01*
X825480Y595936D01*
X825469Y595960D01*
X825403Y596032D01*
X825342Y596108D01*
X825320Y596122D01*
X825303Y596141D01*
X825218Y596188D01*
X825136Y596241D01*
X825110Y596247D01*
X825087Y596260D01*
X824992Y596277D01*
X824897Y596301D01*
X824871Y596299D01*
X824845Y596303D01*
X824749Y596289D01*
X824652Y596282D01*
X824628Y596271D01*
X824602Y596267D01*
X824515Y596223D01*
X824425Y596185D01*
X824400Y596165D01*
X824383Y596156D01*
X824360Y596132D01*
X824295Y596080D01*
X755785Y527571D01*
X665503Y527571D01*
X665388Y527552D01*
X665272Y527535D01*
X665266Y527532D01*
X665260Y527531D01*
X665157Y527477D01*
X665053Y527423D01*
X665048Y527419D01*
X665043Y527416D01*
X664963Y527332D01*
X664880Y527248D01*
X664877Y527241D01*
X664873Y527238D01*
X664866Y527221D01*
X664800Y527101D01*
X664442Y526239D01*
X662258Y524054D01*
X659404Y522872D01*
X656314Y522872D01*
G37*
%LPD*%
%LPC*%
G36*
X561975Y630087D02*
X561975Y630087D01*
X558607Y631482D01*
X556030Y634060D01*
X554635Y637427D01*
X554635Y641072D01*
X556030Y644440D01*
X557450Y645860D01*
X557461Y645876D01*
X557477Y645889D01*
X557533Y645976D01*
X557593Y646060D01*
X557599Y646079D01*
X557610Y646095D01*
X557635Y646196D01*
X557666Y646295D01*
X557665Y646315D01*
X557670Y646334D01*
X557662Y646437D01*
X557659Y646541D01*
X557652Y646559D01*
X557651Y646579D01*
X557610Y646674D01*
X557575Y646772D01*
X557562Y646787D01*
X557554Y646806D01*
X557450Y646936D01*
X548638Y655748D01*
X546618Y657768D01*
X546618Y680923D01*
X615768Y750073D01*
X635022Y750073D01*
X635042Y750076D01*
X635061Y750074D01*
X635163Y750096D01*
X635265Y750112D01*
X635282Y750122D01*
X635302Y750126D01*
X635391Y750179D01*
X635482Y750228D01*
X635496Y750242D01*
X635513Y750252D01*
X635580Y750331D01*
X635652Y750406D01*
X635660Y750424D01*
X635673Y750439D01*
X635712Y750535D01*
X635755Y750629D01*
X635757Y750649D01*
X635765Y750667D01*
X635783Y750834D01*
X635783Y752523D01*
X637584Y756871D01*
X640912Y760199D01*
X645260Y762000D01*
X669524Y762000D01*
X673872Y760199D01*
X677200Y756871D01*
X679001Y752523D01*
X679001Y747817D01*
X677200Y743469D01*
X673872Y740141D01*
X669524Y738340D01*
X645260Y738340D01*
X640912Y740141D01*
X637584Y743469D01*
X637523Y743569D01*
X637463Y743669D01*
X637458Y743673D01*
X637454Y743678D01*
X637365Y743753D01*
X637276Y743829D01*
X637270Y743831D01*
X637265Y743835D01*
X637157Y743877D01*
X637048Y743921D01*
X637040Y743922D01*
X637035Y743923D01*
X637017Y743924D01*
X636881Y743939D01*
X618624Y743939D01*
X618534Y743925D01*
X618443Y743917D01*
X618413Y743905D01*
X618381Y743900D01*
X618300Y743857D01*
X618216Y743821D01*
X618184Y743795D01*
X618163Y743784D01*
X618160Y743781D01*
X618141Y743760D01*
X618085Y743716D01*
X552975Y678606D01*
X552922Y678532D01*
X552862Y678462D01*
X552850Y678432D01*
X552831Y678406D01*
X552804Y678319D01*
X552770Y678234D01*
X552766Y678193D01*
X552759Y678171D01*
X552760Y678139D01*
X552752Y678067D01*
X552752Y660624D01*
X552766Y660534D01*
X552774Y660443D01*
X552786Y660413D01*
X552791Y660381D01*
X552834Y660300D01*
X552870Y660216D01*
X552896Y660184D01*
X552907Y660164D01*
X552930Y660141D01*
X552975Y660085D01*
X564425Y648636D01*
X564499Y648582D01*
X564568Y648523D01*
X564598Y648511D01*
X564624Y648492D01*
X564711Y648465D01*
X564796Y648431D01*
X564837Y648427D01*
X564859Y648420D01*
X564892Y648420D01*
X564963Y648413D01*
X579844Y648413D01*
X583212Y647018D01*
X585789Y644440D01*
X587184Y641072D01*
X587184Y637427D01*
X585789Y634060D01*
X583212Y631482D01*
X579844Y630087D01*
X561975Y630087D01*
G37*
%LPD*%
%LPC*%
G36*
X604731Y511298D02*
X604731Y511298D01*
X601758Y514271D01*
X601758Y516795D01*
X601744Y516885D01*
X601736Y516976D01*
X601724Y517006D01*
X601719Y517038D01*
X601676Y517119D01*
X601640Y517203D01*
X601614Y517235D01*
X601603Y517256D01*
X601580Y517278D01*
X601535Y517334D01*
X589479Y529390D01*
X589479Y645411D01*
X589465Y645501D01*
X589457Y645592D01*
X589445Y645622D01*
X589440Y645654D01*
X589397Y645735D01*
X589361Y645819D01*
X589335Y645851D01*
X589324Y645872D01*
X589301Y645894D01*
X589256Y645950D01*
X579942Y655264D01*
X579868Y655317D01*
X579798Y655377D01*
X579768Y655389D01*
X579742Y655408D01*
X579655Y655434D01*
X579570Y655469D01*
X579529Y655473D01*
X579507Y655480D01*
X579475Y655479D01*
X579404Y655487D01*
X561975Y655487D01*
X558607Y656882D01*
X556030Y659460D01*
X554635Y662827D01*
X554635Y666472D01*
X556030Y669840D01*
X558607Y672418D01*
X561975Y673813D01*
X579844Y673813D01*
X583212Y672418D01*
X585789Y669840D01*
X587184Y666472D01*
X587184Y662827D01*
X585789Y659460D01*
X585643Y659313D01*
X585632Y659297D01*
X585616Y659285D01*
X585560Y659198D01*
X585500Y659114D01*
X585494Y659095D01*
X585483Y659078D01*
X585458Y658978D01*
X585427Y658879D01*
X585428Y658859D01*
X585423Y658839D01*
X585431Y658736D01*
X585434Y658633D01*
X585440Y658614D01*
X585442Y658594D01*
X585482Y658499D01*
X585518Y658402D01*
X585531Y658386D01*
X585538Y658368D01*
X585643Y658237D01*
X593593Y650287D01*
X595613Y648267D01*
X595613Y643559D01*
X595628Y643463D01*
X595638Y643366D01*
X595648Y643342D01*
X595652Y643317D01*
X595698Y643231D01*
X595738Y643142D01*
X595755Y643122D01*
X595768Y643099D01*
X595838Y643032D01*
X595904Y642961D01*
X595927Y642948D01*
X595946Y642930D01*
X596034Y642889D01*
X596120Y642842D01*
X596145Y642837D01*
X596169Y642826D01*
X596266Y642816D01*
X596362Y642798D01*
X596388Y642802D01*
X596413Y642799D01*
X596509Y642820D01*
X596605Y642834D01*
X596628Y642846D01*
X596654Y642851D01*
X596737Y642901D01*
X596824Y642946D01*
X596843Y642964D01*
X596865Y642978D01*
X596928Y643052D01*
X596996Y643121D01*
X597012Y643150D01*
X597025Y643165D01*
X597037Y643195D01*
X597077Y643268D01*
X598128Y645804D01*
X600312Y647989D01*
X603167Y649171D01*
X606256Y649171D01*
X609110Y647989D01*
X611295Y645804D01*
X612477Y642950D01*
X612477Y639861D01*
X611295Y637006D01*
X609110Y634822D01*
X606256Y633640D01*
X603167Y633640D01*
X600312Y634822D01*
X598128Y637006D01*
X597077Y639542D01*
X597026Y639625D01*
X596980Y639711D01*
X596961Y639729D01*
X596948Y639752D01*
X596873Y639814D01*
X596802Y639881D01*
X596778Y639892D01*
X596758Y639908D01*
X596667Y639943D01*
X596579Y639984D01*
X596553Y639987D01*
X596529Y639997D01*
X596431Y640001D01*
X596335Y640011D01*
X596309Y640006D01*
X596283Y640007D01*
X596189Y639980D01*
X596094Y639959D01*
X596072Y639946D01*
X596047Y639938D01*
X595967Y639883D01*
X595883Y639833D01*
X595866Y639813D01*
X595845Y639798D01*
X595786Y639720D01*
X595723Y639646D01*
X595713Y639622D01*
X595698Y639601D01*
X595668Y639508D01*
X595631Y639418D01*
X595628Y639385D01*
X595622Y639367D01*
X595622Y639334D01*
X595613Y639251D01*
X595613Y532246D01*
X595627Y532156D01*
X595635Y532065D01*
X595647Y532035D01*
X595652Y532003D01*
X595695Y531922D01*
X595731Y531838D01*
X595757Y531806D01*
X595768Y531785D01*
X595791Y531763D01*
X595836Y531707D01*
X605872Y521671D01*
X605946Y521618D01*
X606016Y521558D01*
X606046Y521546D01*
X606072Y521527D01*
X606159Y521500D01*
X606244Y521466D01*
X606285Y521462D01*
X606307Y521455D01*
X606339Y521456D01*
X606411Y521448D01*
X608935Y521448D01*
X611908Y518475D01*
X611908Y514271D01*
X608935Y511298D01*
X604731Y511298D01*
G37*
%LPD*%
%LPC*%
G36*
X733262Y548896D02*
X733262Y548896D01*
X720901Y561256D01*
X720901Y578737D01*
X733262Y591097D01*
X750742Y591097D01*
X763103Y578737D01*
X763103Y561256D01*
X750742Y548896D01*
X733262Y548896D01*
G37*
%LPD*%
%LPC*%
G36*
X733262Y428896D02*
X733262Y428896D01*
X720901Y441256D01*
X720901Y458737D01*
X733262Y471097D01*
X750742Y471097D01*
X763103Y458737D01*
X763103Y441256D01*
X750742Y428896D01*
X733262Y428896D01*
G37*
%LPD*%
%LPC*%
G36*
X155260Y763740D02*
X155260Y763740D01*
X150912Y765541D01*
X147584Y768869D01*
X145783Y773217D01*
X145783Y777923D01*
X147584Y782271D01*
X150912Y785599D01*
X155333Y787430D01*
X155365Y787450D01*
X155401Y787462D01*
X155469Y787514D01*
X155542Y787560D01*
X155566Y787589D01*
X155596Y787612D01*
X155644Y787683D01*
X155699Y787749D01*
X155712Y787785D01*
X155734Y787816D01*
X155756Y787899D01*
X155787Y787979D01*
X155789Y788017D01*
X155799Y788053D01*
X155794Y788139D01*
X155797Y788224D01*
X155787Y788261D01*
X155785Y788299D01*
X155753Y788378D01*
X155729Y788461D01*
X155707Y788492D01*
X155693Y788527D01*
X155637Y788592D01*
X155589Y788663D01*
X155558Y788685D01*
X155533Y788714D01*
X155460Y788758D01*
X155391Y788809D01*
X155355Y788821D01*
X155322Y788841D01*
X155161Y788885D01*
X154728Y788954D01*
X152884Y789553D01*
X151156Y790433D01*
X149587Y791573D01*
X148216Y792944D01*
X147076Y794513D01*
X146196Y796241D01*
X145597Y798085D01*
X145381Y799447D01*
X166630Y799447D01*
X166650Y799450D01*
X166669Y799448D01*
X166771Y799470D01*
X166873Y799487D01*
X166890Y799496D01*
X166910Y799500D01*
X166999Y799553D01*
X167090Y799602D01*
X167104Y799616D01*
X167121Y799626D01*
X167188Y799705D01*
X167259Y799780D01*
X167268Y799798D01*
X167281Y799813D01*
X167319Y799909D01*
X167363Y800003D01*
X167365Y800023D01*
X167373Y800041D01*
X167391Y800208D01*
X167391Y800971D01*
X167393Y800971D01*
X167393Y800208D01*
X167396Y800188D01*
X167394Y800169D01*
X167416Y800067D01*
X167433Y799965D01*
X167442Y799948D01*
X167446Y799928D01*
X167499Y799839D01*
X167548Y799748D01*
X167562Y799734D01*
X167572Y799717D01*
X167651Y799650D01*
X167726Y799579D01*
X167744Y799570D01*
X167759Y799557D01*
X167855Y799518D01*
X167949Y799475D01*
X167969Y799473D01*
X167987Y799465D01*
X168154Y799447D01*
X189403Y799447D01*
X189187Y798085D01*
X188588Y796241D01*
X187708Y794513D01*
X186568Y792944D01*
X185197Y791573D01*
X183628Y790433D01*
X181900Y789553D01*
X180056Y788954D01*
X179623Y788885D01*
X179587Y788873D01*
X179549Y788870D01*
X179471Y788835D01*
X179390Y788808D01*
X179359Y788785D01*
X179325Y788770D01*
X179262Y788712D01*
X179193Y788660D01*
X179172Y788629D01*
X179144Y788603D01*
X179102Y788528D01*
X179054Y788458D01*
X179043Y788421D01*
X179025Y788388D01*
X179010Y788303D01*
X178986Y788221D01*
X178988Y788183D01*
X178981Y788146D01*
X178994Y788061D01*
X178998Y787975D01*
X179012Y787940D01*
X179017Y787902D01*
X179056Y787826D01*
X179087Y787746D01*
X179111Y787717D01*
X179129Y787683D01*
X179190Y787623D01*
X179245Y787557D01*
X179277Y787537D01*
X179304Y787511D01*
X179451Y787430D01*
X183872Y785599D01*
X187200Y782271D01*
X189001Y777923D01*
X189001Y773217D01*
X187200Y768869D01*
X183872Y765541D01*
X179524Y763740D01*
X155260Y763740D01*
G37*
%LPD*%
%LPC*%
G36*
X730151Y603286D02*
X730151Y603286D01*
X728194Y604097D01*
X726696Y605595D01*
X725885Y607552D01*
X725885Y609670D01*
X726696Y611627D01*
X728194Y613125D01*
X730151Y613936D01*
X731882Y613936D01*
X731972Y613950D01*
X732063Y613957D01*
X732093Y613970D01*
X732125Y613975D01*
X732206Y614018D01*
X732290Y614054D01*
X732322Y614079D01*
X732342Y614090D01*
X732365Y614114D01*
X732421Y614158D01*
X764979Y646717D01*
X764991Y646733D01*
X765007Y646746D01*
X765041Y646800D01*
X765069Y646829D01*
X765086Y646866D01*
X765123Y646917D01*
X765129Y646936D01*
X765140Y646953D01*
X765155Y647014D01*
X765173Y647052D01*
X765177Y647093D01*
X765195Y647152D01*
X765195Y647172D01*
X765200Y647191D01*
X765195Y647253D01*
X765200Y647296D01*
X765190Y647339D01*
X765189Y647398D01*
X765182Y647417D01*
X765180Y647436D01*
X765157Y647490D01*
X765147Y647537D01*
X765123Y647577D01*
X765104Y647629D01*
X765092Y647645D01*
X765084Y647663D01*
X765037Y647722D01*
X765021Y647748D01*
X765005Y647762D01*
X765005Y665821D01*
X764991Y665911D01*
X764983Y666002D01*
X764971Y666032D01*
X764966Y666064D01*
X764923Y666145D01*
X764887Y666229D01*
X764861Y666261D01*
X764850Y666282D01*
X764827Y666304D01*
X764782Y666360D01*
X724131Y707011D01*
X724057Y707064D01*
X723987Y707124D01*
X723957Y707136D01*
X723931Y707155D01*
X723844Y707182D01*
X723759Y707216D01*
X723718Y707220D01*
X723696Y707227D01*
X723664Y707226D01*
X723592Y707234D01*
X723109Y707234D01*
X720136Y710207D01*
X720136Y714411D01*
X723109Y717384D01*
X727313Y717384D01*
X730286Y714411D01*
X730286Y710024D01*
X730270Y709973D01*
X730270Y709952D01*
X730265Y709933D01*
X730273Y709830D01*
X730276Y709727D01*
X730283Y709708D01*
X730285Y709688D01*
X730325Y709593D01*
X730360Y709496D01*
X730373Y709480D01*
X730381Y709461D01*
X730486Y709330D01*
X771139Y668677D01*
X771139Y654714D01*
X771150Y654644D01*
X771152Y654572D01*
X771170Y654523D01*
X771178Y654472D01*
X771212Y654408D01*
X771237Y654341D01*
X771269Y654300D01*
X771294Y654254D01*
X771346Y654205D01*
X771390Y654149D01*
X771434Y654121D01*
X771472Y654085D01*
X771537Y654055D01*
X771597Y654016D01*
X771648Y654003D01*
X771695Y653981D01*
X771766Y653973D01*
X771836Y653956D01*
X771888Y653960D01*
X771939Y653954D01*
X772010Y653969D01*
X772081Y653975D01*
X772129Y653995D01*
X772180Y654006D01*
X772241Y654043D01*
X772307Y654071D01*
X772363Y654116D01*
X772391Y654133D01*
X772406Y654150D01*
X772438Y654176D01*
X786695Y668433D01*
X812631Y668433D01*
X812721Y668447D01*
X812812Y668455D01*
X812841Y668467D01*
X812873Y668472D01*
X812954Y668515D01*
X813038Y668551D01*
X813070Y668577D01*
X813091Y668588D01*
X813113Y668611D01*
X813169Y668656D01*
X814954Y670441D01*
X819158Y670441D01*
X822131Y667468D01*
X822131Y663264D01*
X819158Y660291D01*
X814954Y660291D01*
X813169Y662076D01*
X813095Y662129D01*
X813026Y662189D01*
X812995Y662201D01*
X812969Y662220D01*
X812882Y662247D01*
X812797Y662281D01*
X812756Y662285D01*
X812734Y662292D01*
X812702Y662291D01*
X812631Y662299D01*
X789551Y662299D01*
X789461Y662285D01*
X789370Y662277D01*
X789340Y662265D01*
X789308Y662260D01*
X789227Y662217D01*
X789143Y662181D01*
X789111Y662155D01*
X789091Y662144D01*
X789068Y662121D01*
X789013Y662076D01*
X736758Y609821D01*
X736705Y609748D01*
X736645Y609678D01*
X736633Y609648D01*
X736614Y609622D01*
X736587Y609535D01*
X736553Y609450D01*
X736549Y609409D01*
X736542Y609387D01*
X736543Y609354D01*
X736535Y609283D01*
X736535Y607552D01*
X735724Y605595D01*
X734226Y604097D01*
X732269Y603286D01*
X730151Y603286D01*
G37*
%LPD*%
%LPC*%
G36*
X362253Y473551D02*
X362253Y473551D01*
X361051Y474753D01*
X361051Y495247D01*
X362253Y496449D01*
X382747Y496449D01*
X383949Y495247D01*
X383949Y489586D01*
X383952Y489566D01*
X383950Y489547D01*
X383972Y489445D01*
X383988Y489343D01*
X383998Y489326D01*
X384002Y489306D01*
X384055Y489217D01*
X384104Y489126D01*
X384118Y489112D01*
X384128Y489095D01*
X384207Y489028D01*
X384282Y488956D01*
X384300Y488948D01*
X384315Y488935D01*
X384411Y488896D01*
X384505Y488853D01*
X384525Y488851D01*
X384543Y488843D01*
X384710Y488825D01*
X429721Y488825D01*
X429811Y488839D01*
X429902Y488847D01*
X429932Y488859D01*
X429964Y488864D01*
X430045Y488907D01*
X430129Y488943D01*
X430161Y488969D01*
X430182Y488980D01*
X430204Y489003D01*
X430260Y489048D01*
X440242Y499030D01*
X492824Y499030D01*
X492844Y499033D01*
X492863Y499031D01*
X492965Y499053D01*
X493067Y499069D01*
X493084Y499079D01*
X493104Y499083D01*
X493193Y499136D01*
X493284Y499185D01*
X493298Y499199D01*
X493315Y499209D01*
X493382Y499288D01*
X493454Y499363D01*
X493462Y499381D01*
X493475Y499396D01*
X493514Y499492D01*
X493557Y499586D01*
X493559Y499606D01*
X493567Y499624D01*
X493585Y499791D01*
X493585Y502147D01*
X496558Y505120D01*
X500762Y505120D01*
X503735Y502147D01*
X503735Y497943D01*
X500762Y494970D01*
X498238Y494970D01*
X498148Y494956D01*
X498057Y494948D01*
X498027Y494936D01*
X497995Y494931D01*
X497914Y494888D01*
X497830Y494852D01*
X497798Y494826D01*
X497777Y494815D01*
X497755Y494792D01*
X497699Y494747D01*
X495848Y492896D01*
X443098Y492896D01*
X443008Y492882D01*
X442917Y492874D01*
X442887Y492862D01*
X442855Y492857D01*
X442774Y492814D01*
X442690Y492778D01*
X442658Y492752D01*
X442637Y492741D01*
X442615Y492718D01*
X442559Y492673D01*
X432577Y482691D01*
X384710Y482691D01*
X384690Y482688D01*
X384671Y482690D01*
X384569Y482668D01*
X384467Y482652D01*
X384450Y482642D01*
X384430Y482638D01*
X384341Y482585D01*
X384250Y482536D01*
X384236Y482522D01*
X384219Y482512D01*
X384152Y482433D01*
X384080Y482358D01*
X384072Y482340D01*
X384059Y482325D01*
X384020Y482229D01*
X383977Y482135D01*
X383975Y482115D01*
X383967Y482097D01*
X383949Y481930D01*
X383949Y474753D01*
X382747Y473551D01*
X362253Y473551D01*
G37*
%LPD*%
%LPC*%
G36*
X91937Y492949D02*
X91937Y492949D01*
X81949Y502937D01*
X81949Y517063D01*
X91937Y527051D01*
X106063Y527051D01*
X116051Y517063D01*
X116051Y502937D01*
X106063Y492949D01*
X91937Y492949D01*
G37*
%LPD*%
%LPC*%
G36*
X479437Y732949D02*
X479437Y732949D01*
X469449Y742937D01*
X469449Y757063D01*
X479437Y767051D01*
X493563Y767051D01*
X503551Y757063D01*
X503551Y742937D01*
X493563Y732949D01*
X479437Y732949D01*
G37*
%LPD*%
%LPC*%
G36*
X435437Y448949D02*
X435437Y448949D01*
X425449Y458937D01*
X425449Y473063D01*
X435437Y483051D01*
X449563Y483051D01*
X459551Y473063D01*
X459551Y458937D01*
X449563Y448949D01*
X435437Y448949D01*
G37*
%LPD*%
%LPC*%
G36*
X391437Y732949D02*
X391437Y732949D01*
X381449Y742937D01*
X381449Y757063D01*
X391437Y767051D01*
X405563Y767051D01*
X415551Y757063D01*
X415551Y742937D01*
X405563Y732949D01*
X391437Y732949D01*
G37*
%LPD*%
%LPC*%
G36*
X435437Y536949D02*
X435437Y536949D01*
X425449Y546937D01*
X425449Y561063D01*
X435437Y571051D01*
X449563Y571051D01*
X459551Y561063D01*
X459551Y546937D01*
X449563Y536949D01*
X435437Y536949D01*
G37*
%LPD*%
%LPC*%
G36*
X179937Y492949D02*
X179937Y492949D01*
X169949Y502937D01*
X169949Y517063D01*
X179937Y527051D01*
X194063Y527051D01*
X204051Y517063D01*
X204051Y502937D01*
X194063Y492949D01*
X179937Y492949D01*
G37*
%LPD*%
%LPC*%
G36*
X645260Y789140D02*
X645260Y789140D01*
X640912Y790941D01*
X637584Y794269D01*
X635783Y798617D01*
X635783Y803323D01*
X637584Y807671D01*
X640912Y810999D01*
X645260Y812800D01*
X669524Y812800D01*
X673872Y810999D01*
X677200Y807671D01*
X679001Y803323D01*
X679001Y798617D01*
X677200Y794269D01*
X673872Y790941D01*
X669524Y789140D01*
X645260Y789140D01*
G37*
%LPD*%
%LPC*%
G36*
X465039Y848279D02*
X465039Y848279D01*
X460691Y850080D01*
X457363Y853408D01*
X455562Y857756D01*
X455562Y882020D01*
X457363Y886368D01*
X460691Y889696D01*
X465039Y891497D01*
X469745Y891497D01*
X474093Y889696D01*
X477421Y886368D01*
X479222Y882020D01*
X479222Y857756D01*
X477421Y853408D01*
X474093Y850080D01*
X469745Y848279D01*
X465039Y848279D01*
G37*
%LPD*%
%LPC*%
G36*
X645260Y763740D02*
X645260Y763740D01*
X640912Y765541D01*
X637584Y768869D01*
X635783Y773217D01*
X635783Y777923D01*
X637584Y782271D01*
X640912Y785599D01*
X645260Y787400D01*
X669524Y787400D01*
X673872Y785599D01*
X677200Y782271D01*
X679001Y777923D01*
X679001Y773217D01*
X677200Y768869D01*
X673872Y765541D01*
X669524Y763740D01*
X645260Y763740D01*
G37*
%LPD*%
%LPC*%
G36*
X155260Y738340D02*
X155260Y738340D01*
X150912Y740141D01*
X147584Y743469D01*
X145783Y747817D01*
X145783Y752523D01*
X147584Y756871D01*
X150912Y760199D01*
X155260Y762000D01*
X179524Y762000D01*
X183872Y760199D01*
X187200Y756871D01*
X189001Y752523D01*
X189001Y747817D01*
X187200Y743469D01*
X183872Y740141D01*
X179524Y738340D01*
X155260Y738340D01*
G37*
%LPD*%
%LPC*%
G36*
X414239Y848279D02*
X414239Y848279D01*
X409891Y850080D01*
X406563Y853408D01*
X404762Y857756D01*
X404762Y882020D01*
X406563Y886368D01*
X409891Y889696D01*
X414239Y891497D01*
X418945Y891497D01*
X423293Y889696D01*
X426621Y886368D01*
X428422Y882020D01*
X428422Y857756D01*
X426621Y853408D01*
X423293Y850080D01*
X418945Y848279D01*
X414239Y848279D01*
G37*
%LPD*%
%LPC*%
G36*
X649403Y369349D02*
X649403Y369349D01*
X645065Y371146D01*
X641746Y374465D01*
X639949Y378803D01*
X639949Y383497D01*
X641746Y387835D01*
X645065Y391154D01*
X649403Y392951D01*
X673597Y392951D01*
X677935Y391154D01*
X681254Y387835D01*
X683051Y383497D01*
X683051Y378803D01*
X681254Y374465D01*
X677935Y371146D01*
X673597Y369349D01*
X649403Y369349D01*
G37*
%LPD*%
%LPC*%
G36*
X211403Y207049D02*
X211403Y207049D01*
X207065Y208846D01*
X203746Y212165D01*
X201949Y216503D01*
X201949Y221197D01*
X203746Y225535D01*
X207065Y228854D01*
X211403Y230651D01*
X235597Y230651D01*
X239935Y228854D01*
X243254Y225535D01*
X245051Y221197D01*
X245051Y216503D01*
X243254Y212165D01*
X239935Y208846D01*
X235597Y207049D01*
X211403Y207049D01*
G37*
%LPD*%
%LPC*%
G36*
X201675Y541765D02*
X201675Y541765D01*
X198440Y543105D01*
X195965Y545581D01*
X194625Y548815D01*
X194625Y552317D01*
X195965Y555551D01*
X198440Y558027D01*
X201675Y559367D01*
X205176Y559367D01*
X208411Y558027D01*
X210886Y555551D01*
X210896Y555528D01*
X210920Y555489D01*
X210936Y555446D01*
X210985Y555385D01*
X211026Y555319D01*
X211061Y555289D01*
X211090Y555253D01*
X211155Y555211D01*
X211215Y555162D01*
X211258Y555145D01*
X211297Y555120D01*
X211372Y555101D01*
X211445Y555074D01*
X211491Y555072D01*
X211535Y555060D01*
X211613Y555066D01*
X211690Y555063D01*
X211735Y555076D01*
X211780Y555080D01*
X211852Y555110D01*
X211927Y555132D01*
X211964Y555158D01*
X212007Y555176D01*
X212114Y555261D01*
X212129Y555272D01*
X212132Y555276D01*
X212138Y555281D01*
X213035Y556178D01*
X237756Y556178D01*
X237775Y556181D01*
X237795Y556179D01*
X237896Y556201D01*
X237998Y556217D01*
X238016Y556227D01*
X238035Y556231D01*
X238124Y556284D01*
X238216Y556333D01*
X238229Y556347D01*
X238247Y556357D01*
X238314Y556436D01*
X238385Y556511D01*
X238394Y556529D01*
X238406Y556544D01*
X238445Y556640D01*
X238489Y556734D01*
X238491Y556754D01*
X238498Y556772D01*
X238517Y556939D01*
X238517Y562550D01*
X239718Y563751D01*
X259447Y563751D01*
X260648Y562550D01*
X260648Y544851D01*
X259447Y543650D01*
X239718Y543650D01*
X238517Y544851D01*
X238517Y549283D01*
X238514Y549303D01*
X238516Y549322D01*
X238494Y549424D01*
X238477Y549526D01*
X238468Y549543D01*
X238464Y549563D01*
X238410Y549652D01*
X238362Y549743D01*
X238348Y549757D01*
X238337Y549774D01*
X238259Y549841D01*
X238184Y549913D01*
X238166Y549921D01*
X238151Y549934D01*
X238054Y549973D01*
X237961Y550016D01*
X237941Y550018D01*
X237922Y550026D01*
X237756Y550044D01*
X215891Y550044D01*
X215801Y550030D01*
X215710Y550022D01*
X215680Y550010D01*
X215648Y550005D01*
X215567Y549962D01*
X215483Y549926D01*
X215451Y549900D01*
X215430Y549889D01*
X215408Y549866D01*
X215352Y549821D01*
X211482Y545951D01*
X211438Y545943D01*
X211322Y545926D01*
X211316Y545924D01*
X211310Y545923D01*
X211208Y545868D01*
X211103Y545815D01*
X211098Y545810D01*
X211093Y545807D01*
X211012Y545723D01*
X210931Y545639D01*
X210927Y545633D01*
X210923Y545629D01*
X210916Y545612D01*
X210913Y545608D01*
X208411Y543105D01*
X205176Y541765D01*
X201675Y541765D01*
G37*
%LPD*%
%LPC*%
G36*
X757021Y124817D02*
X757021Y124817D01*
X752813Y126560D01*
X749592Y129781D01*
X747849Y133989D01*
X747849Y138543D01*
X749592Y142751D01*
X752813Y145972D01*
X757021Y147715D01*
X780371Y147715D01*
X784579Y145972D01*
X787800Y142751D01*
X789543Y138543D01*
X789543Y133989D01*
X787800Y129781D01*
X784579Y126560D01*
X780371Y124817D01*
X757021Y124817D01*
G37*
%LPD*%
%LPC*%
G36*
X757021Y99417D02*
X757021Y99417D01*
X752813Y101160D01*
X749592Y104381D01*
X747849Y108589D01*
X747849Y113143D01*
X749592Y117351D01*
X752813Y120572D01*
X757021Y122315D01*
X780371Y122315D01*
X784579Y120572D01*
X787800Y117351D01*
X789543Y113143D01*
X789543Y108589D01*
X787800Y104381D01*
X784579Y101160D01*
X780371Y99417D01*
X757021Y99417D01*
G37*
%LPD*%
%LPC*%
G36*
X757021Y23217D02*
X757021Y23217D01*
X752813Y24960D01*
X749592Y28181D01*
X747849Y32389D01*
X747849Y36943D01*
X749592Y41151D01*
X752813Y44372D01*
X757021Y46115D01*
X780371Y46115D01*
X784579Y44372D01*
X787800Y41151D01*
X789543Y36943D01*
X789543Y32389D01*
X787800Y28181D01*
X784579Y24960D01*
X780371Y23217D01*
X757021Y23217D01*
G37*
%LPD*%
%LPC*%
G36*
X757021Y74017D02*
X757021Y74017D01*
X752813Y75760D01*
X749592Y78981D01*
X747849Y83189D01*
X747849Y87743D01*
X749592Y91951D01*
X752813Y95172D01*
X757021Y96915D01*
X780371Y96915D01*
X784579Y95172D01*
X787800Y91951D01*
X789543Y87743D01*
X789543Y83189D01*
X787800Y78981D01*
X784579Y75760D01*
X780371Y74017D01*
X757021Y74017D01*
G37*
%LPD*%
%LPC*%
G36*
X757021Y150217D02*
X757021Y150217D01*
X752813Y151960D01*
X749592Y155181D01*
X747849Y159389D01*
X747849Y163943D01*
X749592Y168151D01*
X752813Y171372D01*
X757021Y173115D01*
X780371Y173115D01*
X784579Y171372D01*
X787800Y168151D01*
X789543Y163943D01*
X789543Y159389D01*
X787800Y155181D01*
X784579Y151960D01*
X780371Y150217D01*
X757021Y150217D01*
G37*
%LPD*%
%LPC*%
G36*
X472459Y287485D02*
X472459Y287485D01*
X464934Y295010D01*
X464934Y305652D01*
X472459Y313177D01*
X483101Y313177D01*
X490626Y305652D01*
X490626Y295010D01*
X483101Y287485D01*
X472459Y287485D01*
G37*
%LPD*%
%LPC*%
G36*
X326969Y905157D02*
X326969Y905157D01*
X319444Y912682D01*
X319444Y923324D01*
X326969Y930849D01*
X337611Y930849D01*
X345136Y923324D01*
X345136Y912682D01*
X337611Y905157D01*
X326969Y905157D01*
G37*
%LPD*%
%LPC*%
G36*
X510553Y20009D02*
X510553Y20009D01*
X503028Y27534D01*
X503028Y38175D01*
X510553Y45700D01*
X521195Y45700D01*
X528719Y38175D01*
X528719Y27534D01*
X521195Y20009D01*
X510553Y20009D01*
G37*
%LPD*%
%LPC*%
G36*
X429971Y287522D02*
X429971Y287522D01*
X422446Y295047D01*
X422446Y305689D01*
X429971Y313213D01*
X440613Y313213D01*
X448138Y305689D01*
X448138Y295047D01*
X440613Y287522D01*
X429971Y287522D01*
G37*
%LPD*%
%LPC*%
G36*
X561975Y604687D02*
X561975Y604687D01*
X558607Y606082D01*
X556030Y608660D01*
X554635Y612027D01*
X554635Y615672D01*
X556030Y619040D01*
X558607Y621618D01*
X561975Y623013D01*
X579844Y623013D01*
X583212Y621618D01*
X585789Y619040D01*
X587184Y615672D01*
X587184Y612027D01*
X585789Y608660D01*
X583212Y606082D01*
X579844Y604687D01*
X561975Y604687D01*
G37*
%LPD*%
%LPC*%
G36*
X362253Y498551D02*
X362253Y498551D01*
X361051Y499753D01*
X361051Y520247D01*
X362253Y521449D01*
X382747Y521449D01*
X383949Y520247D01*
X383949Y499753D01*
X382747Y498551D01*
X362253Y498551D01*
G37*
%LPD*%
%LPC*%
G36*
X107753Y428551D02*
X107753Y428551D01*
X106551Y429753D01*
X106551Y450247D01*
X107753Y451449D01*
X128247Y451449D01*
X129449Y450247D01*
X129449Y429753D01*
X128247Y428551D01*
X107753Y428551D01*
G37*
%LPD*%
%LPC*%
G36*
X132753Y428551D02*
X132753Y428551D01*
X131551Y429753D01*
X131551Y450247D01*
X132753Y451449D01*
X153247Y451449D01*
X154449Y450247D01*
X154449Y429753D01*
X153247Y428551D01*
X132753Y428551D01*
G37*
%LPD*%
%LPC*%
G36*
X157753Y428551D02*
X157753Y428551D01*
X156551Y429753D01*
X156551Y450247D01*
X157753Y451449D01*
X178247Y451449D01*
X179449Y450247D01*
X179449Y429753D01*
X178247Y428551D01*
X157753Y428551D01*
G37*
%LPD*%
%LPC*%
G36*
X407253Y808551D02*
X407253Y808551D01*
X406051Y809753D01*
X406051Y830247D01*
X407253Y831449D01*
X427747Y831449D01*
X428949Y830247D01*
X428949Y809753D01*
X427747Y808551D01*
X407253Y808551D01*
G37*
%LPD*%
%LPC*%
G36*
X432253Y808551D02*
X432253Y808551D01*
X431051Y809753D01*
X431051Y830247D01*
X432253Y831449D01*
X452747Y831449D01*
X453949Y830247D01*
X453949Y809753D01*
X452747Y808551D01*
X432253Y808551D01*
G37*
%LPD*%
%LPC*%
G36*
X362253Y523551D02*
X362253Y523551D01*
X361051Y524753D01*
X361051Y545247D01*
X362253Y546449D01*
X382747Y546449D01*
X383949Y545247D01*
X383949Y524753D01*
X382747Y523551D01*
X362253Y523551D01*
G37*
%LPD*%
%LPC*%
G36*
X457253Y808551D02*
X457253Y808551D01*
X456051Y809753D01*
X456051Y830247D01*
X457253Y831449D01*
X477747Y831449D01*
X478949Y830247D01*
X478949Y809753D01*
X477747Y808551D01*
X457253Y808551D01*
G37*
%LPD*%
%LPC*%
G36*
X432567Y331870D02*
X432567Y331870D01*
X428340Y333620D01*
X425105Y336856D01*
X423354Y341083D01*
X423354Y345658D01*
X425105Y349885D01*
X428340Y353120D01*
X432567Y354871D01*
X437143Y354871D01*
X441370Y353120D01*
X444605Y349885D01*
X446356Y345658D01*
X446356Y341083D01*
X444605Y336856D01*
X441370Y333620D01*
X437143Y331870D01*
X432567Y331870D01*
G37*
%LPD*%
%LPC*%
G36*
X604181Y21354D02*
X604181Y21354D01*
X599954Y23105D01*
X596719Y26340D01*
X594968Y30567D01*
X594968Y35142D01*
X596719Y39369D01*
X599954Y42604D01*
X604181Y44355D01*
X608757Y44355D01*
X612984Y42604D01*
X616219Y39369D01*
X617970Y35142D01*
X617970Y30567D01*
X616219Y26340D01*
X612984Y23105D01*
X608757Y21354D01*
X604181Y21354D01*
G37*
%LPD*%
%LPC*%
G36*
X475492Y332200D02*
X475492Y332200D01*
X471265Y333951D01*
X468030Y337186D01*
X466279Y341413D01*
X466279Y345989D01*
X468030Y350216D01*
X471265Y353451D01*
X475492Y355202D01*
X480068Y355202D01*
X484295Y353451D01*
X487530Y350216D01*
X489281Y345989D01*
X489281Y341413D01*
X487530Y337186D01*
X484295Y333951D01*
X480068Y332200D01*
X475492Y332200D01*
G37*
%LPD*%
%LPC*%
G36*
X362232Y920858D02*
X362232Y920858D01*
X358005Y922609D01*
X354770Y925844D01*
X353019Y930072D01*
X353019Y934647D01*
X354770Y938874D01*
X358005Y942109D01*
X362232Y943860D01*
X366808Y943860D01*
X371035Y942109D01*
X374270Y938874D01*
X376021Y934647D01*
X376021Y930072D01*
X374270Y925844D01*
X371035Y922609D01*
X366808Y920858D01*
X362232Y920858D01*
G37*
%LPD*%
%LPC*%
G36*
X468796Y21354D02*
X468796Y21354D01*
X464569Y23105D01*
X461334Y26340D01*
X459583Y30567D01*
X459583Y35142D01*
X461334Y39369D01*
X464569Y42604D01*
X468796Y44355D01*
X473372Y44355D01*
X477599Y42604D01*
X480834Y39369D01*
X482585Y35142D01*
X482585Y30567D01*
X480834Y26340D01*
X477599Y23105D01*
X473372Y21354D01*
X468796Y21354D01*
G37*
%LPD*%
%LPC*%
G36*
X362232Y946931D02*
X362232Y946931D01*
X358005Y948681D01*
X354770Y951917D01*
X353019Y956144D01*
X353019Y960719D01*
X354770Y964946D01*
X358005Y968181D01*
X362232Y969932D01*
X366808Y969932D01*
X371035Y968181D01*
X374270Y964946D01*
X376021Y960719D01*
X376021Y956144D01*
X374270Y951917D01*
X371035Y948681D01*
X366808Y946931D01*
X362232Y946931D01*
G37*
%LPD*%
%LPC*%
G36*
X119761Y109749D02*
X119761Y109749D01*
X115993Y111310D01*
X113110Y114193D01*
X111549Y117961D01*
X111549Y122039D01*
X113110Y125807D01*
X115993Y128690D01*
X119761Y130251D01*
X123839Y130251D01*
X127607Y128690D01*
X130490Y125807D01*
X132051Y122039D01*
X132051Y117961D01*
X130490Y114193D01*
X127607Y111310D01*
X123839Y109749D01*
X119761Y109749D01*
G37*
%LPD*%
%LPC*%
G36*
X439548Y628953D02*
X439548Y628953D01*
X438347Y630155D01*
X438347Y645934D01*
X439548Y647135D01*
X455327Y647135D01*
X456528Y645934D01*
X456528Y630155D01*
X455327Y628953D01*
X439548Y628953D01*
G37*
%LPD*%
%LPC*%
G36*
X324668Y11615D02*
X324668Y11615D01*
X323467Y12816D01*
X323467Y28595D01*
X324668Y29796D01*
X340447Y29796D01*
X341648Y28595D01*
X341648Y12816D01*
X340447Y11615D01*
X324668Y11615D01*
G37*
%LPD*%
%LPC*%
G36*
X401884Y606545D02*
X401884Y606545D01*
X400682Y607746D01*
X400682Y623525D01*
X401884Y624726D01*
X417662Y624726D01*
X418864Y623525D01*
X418864Y607746D01*
X417662Y606545D01*
X401884Y606545D01*
G37*
%LPD*%
%LPC*%
G36*
X641395Y596603D02*
X641395Y596603D01*
X640194Y597804D01*
X640194Y613583D01*
X641395Y614785D01*
X657174Y614785D01*
X658375Y613583D01*
X658375Y597804D01*
X657174Y596603D01*
X641395Y596603D01*
G37*
%LPD*%
%LPC*%
G36*
X274471Y913958D02*
X274471Y913958D01*
X273270Y915159D01*
X273270Y930938D01*
X274471Y932139D01*
X290250Y932139D01*
X291451Y930938D01*
X291451Y915159D01*
X290250Y913958D01*
X274471Y913958D01*
G37*
%LPD*%
%LPC*%
G36*
X618117Y559704D02*
X618117Y559704D01*
X616916Y560905D01*
X616916Y576684D01*
X618117Y577885D01*
X633896Y577885D01*
X635097Y576684D01*
X635097Y560905D01*
X633896Y559704D01*
X618117Y559704D01*
G37*
%LPD*%
%LPC*%
G36*
X371303Y370003D02*
X371303Y370003D01*
X370101Y371204D01*
X370101Y386403D01*
X371303Y387605D01*
X386501Y387605D01*
X387703Y386403D01*
X387703Y371204D01*
X386501Y370003D01*
X371303Y370003D01*
G37*
%LPD*%
%LPC*%
G36*
X268438Y957019D02*
X268438Y957019D01*
X267237Y958221D01*
X267237Y973420D01*
X268438Y974621D01*
X283637Y974621D01*
X284838Y973420D01*
X284838Y958221D01*
X283637Y957019D01*
X268438Y957019D01*
G37*
%LPD*%
%LPC*%
G36*
X266340Y649676D02*
X266340Y649676D01*
X265138Y650878D01*
X265138Y666077D01*
X266340Y667278D01*
X281539Y667278D01*
X282740Y666077D01*
X282740Y650878D01*
X281539Y649676D01*
X266340Y649676D01*
G37*
%LPD*%
%LPC*%
G36*
X395510Y136162D02*
X395510Y136162D01*
X394309Y137363D01*
X394309Y152562D01*
X395510Y153763D01*
X410709Y153763D01*
X411910Y152562D01*
X411910Y137363D01*
X410709Y136162D01*
X395510Y136162D01*
G37*
%LPD*%
%LPC*%
G36*
X195688Y956864D02*
X195688Y956864D01*
X194486Y958065D01*
X194486Y973264D01*
X195688Y974466D01*
X210887Y974466D01*
X212088Y973264D01*
X212088Y958065D01*
X210887Y956864D01*
X195688Y956864D01*
G37*
%LPD*%
%LPC*%
G36*
X195826Y561765D02*
X195826Y561765D01*
X194625Y562967D01*
X194625Y578166D01*
X195826Y579367D01*
X211025Y579367D01*
X212226Y578166D01*
X212226Y562967D01*
X211025Y561765D01*
X195826Y561765D01*
G37*
%LPD*%
%LPC*%
G36*
X314195Y500576D02*
X314195Y500576D01*
X312994Y501777D01*
X312994Y516976D01*
X314195Y518178D01*
X329394Y518178D01*
X330595Y516976D01*
X330595Y501777D01*
X329394Y500576D01*
X314195Y500576D01*
G37*
%LPD*%
%LPC*%
G36*
X268489Y589683D02*
X268489Y589683D01*
X267288Y590884D01*
X267288Y606083D01*
X268489Y607284D01*
X283688Y607284D01*
X284890Y606083D01*
X284890Y590884D01*
X283688Y589683D01*
X268489Y589683D01*
G37*
%LPD*%
%LPC*%
G36*
X780583Y823606D02*
X780583Y823606D01*
X779381Y824808D01*
X779381Y840007D01*
X780583Y841208D01*
X795781Y841208D01*
X796983Y840007D01*
X796983Y824808D01*
X795781Y823606D01*
X780583Y823606D01*
G37*
%LPD*%
%LPC*%
G36*
X804952Y626544D02*
X804952Y626544D01*
X803751Y627745D01*
X803751Y642944D01*
X804952Y644146D01*
X820151Y644146D01*
X821352Y642944D01*
X821352Y627745D01*
X820151Y626544D01*
X804952Y626544D01*
G37*
%LPD*%
%LPC*%
G36*
X148323Y166523D02*
X148323Y166523D01*
X148323Y196703D01*
X149678Y196488D01*
X151518Y195890D01*
X153242Y195012D01*
X154807Y193875D01*
X156175Y192507D01*
X157312Y190942D01*
X158190Y189218D01*
X158788Y187378D01*
X159091Y185467D01*
X159091Y166523D01*
X148323Y166523D01*
G37*
%LPD*%
%LPC*%
G36*
X134509Y166523D02*
X134509Y166523D01*
X134509Y185467D01*
X134812Y187378D01*
X135410Y189218D01*
X136288Y190942D01*
X137425Y192507D01*
X138793Y193875D01*
X140358Y195012D01*
X142082Y195890D01*
X143922Y196488D01*
X145277Y196703D01*
X145277Y166523D01*
X134509Y166523D01*
G37*
%LPD*%
%LPC*%
G36*
X356149Y11615D02*
X356149Y11615D01*
X352808Y12999D01*
X350251Y15556D01*
X348867Y18897D01*
X348867Y22514D01*
X350251Y25855D01*
X352808Y28412D01*
X356149Y29796D01*
X359766Y29796D01*
X363107Y28412D01*
X365664Y25855D01*
X367048Y22514D01*
X367048Y18897D01*
X365664Y15556D01*
X363107Y12999D01*
X359766Y11615D01*
X356149Y11615D01*
G37*
%LPD*%
%LPC*%
G36*
X445629Y603553D02*
X445629Y603553D01*
X442288Y604937D01*
X439731Y607495D01*
X438347Y610836D01*
X438347Y614452D01*
X439731Y617794D01*
X442288Y620351D01*
X445629Y621735D01*
X449246Y621735D01*
X452587Y620351D01*
X455144Y617794D01*
X456528Y614452D01*
X456528Y610836D01*
X455144Y607495D01*
X452587Y604937D01*
X449246Y603553D01*
X445629Y603553D01*
G37*
%LPD*%
%LPC*%
G36*
X622076Y596603D02*
X622076Y596603D01*
X618735Y597987D01*
X616178Y600544D01*
X614794Y603886D01*
X614794Y607502D01*
X616178Y610843D01*
X618735Y613401D01*
X622076Y614785D01*
X625693Y614785D01*
X629034Y613401D01*
X631591Y610843D01*
X632975Y607502D01*
X632975Y603886D01*
X631591Y600544D01*
X629034Y597987D01*
X625693Y596603D01*
X622076Y596603D01*
G37*
%LPD*%
%LPC*%
G36*
X407965Y631945D02*
X407965Y631945D01*
X404623Y633329D01*
X402066Y635886D01*
X400682Y639227D01*
X400682Y642844D01*
X402066Y646185D01*
X404623Y648742D01*
X407965Y650126D01*
X411581Y650126D01*
X414923Y648742D01*
X417480Y646185D01*
X418864Y642844D01*
X418864Y639227D01*
X417480Y635886D01*
X414923Y633329D01*
X411581Y631945D01*
X407965Y631945D01*
G37*
%LPD*%
%LPC*%
G36*
X649598Y559704D02*
X649598Y559704D01*
X646257Y561088D01*
X643700Y563645D01*
X642316Y566986D01*
X642316Y570603D01*
X643700Y573944D01*
X646257Y576501D01*
X649598Y577885D01*
X653215Y577885D01*
X656556Y576501D01*
X659113Y573944D01*
X660497Y570603D01*
X660497Y566986D01*
X659113Y563645D01*
X656556Y561088D01*
X653215Y559704D01*
X649598Y559704D01*
G37*
%LPD*%
%LPC*%
G36*
X141210Y500999D02*
X141210Y500999D01*
X137901Y502370D01*
X135370Y504901D01*
X133999Y508210D01*
X133999Y511790D01*
X135370Y515099D01*
X137901Y517630D01*
X141210Y519001D01*
X144790Y519001D01*
X148099Y517630D01*
X150630Y515099D01*
X152001Y511790D01*
X152001Y508210D01*
X150630Y504901D01*
X148099Y502370D01*
X144790Y500999D01*
X141210Y500999D01*
G37*
%LPD*%
%LPC*%
G36*
X440710Y500999D02*
X440710Y500999D01*
X437401Y502370D01*
X434870Y504901D01*
X433499Y508210D01*
X433499Y511790D01*
X434870Y515099D01*
X437401Y517630D01*
X440710Y519001D01*
X444290Y519001D01*
X447599Y517630D01*
X450130Y515099D01*
X451501Y511790D01*
X451501Y508210D01*
X450130Y504901D01*
X447599Y502370D01*
X444290Y500999D01*
X440710Y500999D01*
G37*
%LPD*%
%LPC*%
G36*
X740211Y500996D02*
X740211Y500996D01*
X736903Y502366D01*
X734371Y504898D01*
X733001Y508206D01*
X733001Y511787D01*
X734371Y515095D01*
X736903Y517627D01*
X740211Y518997D01*
X743792Y518997D01*
X747100Y517627D01*
X749632Y515095D01*
X751003Y511787D01*
X751003Y508206D01*
X749632Y504898D01*
X747100Y502366D01*
X743792Y500996D01*
X740211Y500996D01*
G37*
%LPD*%
%LPC*%
G36*
X440710Y740999D02*
X440710Y740999D01*
X437401Y742370D01*
X434870Y744901D01*
X433499Y748210D01*
X433499Y751790D01*
X434870Y755099D01*
X437401Y757630D01*
X440710Y759001D01*
X444290Y759001D01*
X447599Y757630D01*
X450130Y755099D01*
X451501Y751790D01*
X451501Y748210D01*
X450130Y744901D01*
X447599Y742370D01*
X444290Y740999D01*
X440710Y740999D01*
G37*
%LPD*%
%LPC*%
G36*
X494336Y216059D02*
X494336Y216059D01*
X489266Y221129D01*
X489266Y228299D01*
X494336Y233368D01*
X501505Y233368D01*
X506575Y228299D01*
X506575Y221129D01*
X501505Y216059D01*
X494336Y216059D01*
G37*
%LPD*%
%LPC*%
G36*
X676612Y867456D02*
X676612Y867456D01*
X671543Y872526D01*
X671543Y879696D01*
X676612Y884766D01*
X683782Y884766D01*
X688852Y879696D01*
X688852Y872526D01*
X683782Y867456D01*
X676612Y867456D01*
G37*
%LPD*%
%LPC*%
G36*
X752812Y867456D02*
X752812Y867456D01*
X747743Y872526D01*
X747743Y879696D01*
X752812Y884766D01*
X759982Y884766D01*
X765052Y879696D01*
X765052Y872526D01*
X759982Y867456D01*
X752812Y867456D01*
G37*
%LPD*%
%LPC*%
G36*
X513386Y203359D02*
X513386Y203359D01*
X508316Y208429D01*
X508316Y215599D01*
X513386Y220668D01*
X520555Y220668D01*
X525625Y215599D01*
X525625Y208429D01*
X520555Y203359D01*
X513386Y203359D01*
G37*
%LPD*%
%LPC*%
G36*
X252189Y649676D02*
X252189Y649676D01*
X248954Y651016D01*
X246478Y653492D01*
X245138Y656727D01*
X245138Y660228D01*
X246478Y663462D01*
X248954Y665938D01*
X252189Y667278D01*
X255690Y667278D01*
X258924Y665938D01*
X261400Y663462D01*
X262740Y660228D01*
X262740Y656727D01*
X261400Y653492D01*
X258924Y651016D01*
X255690Y649676D01*
X252189Y649676D01*
G37*
%LPD*%
%LPC*%
G36*
X830801Y626544D02*
X830801Y626544D01*
X827566Y627884D01*
X825091Y630360D01*
X823751Y633594D01*
X823751Y637095D01*
X825091Y640330D01*
X827566Y642806D01*
X830801Y644146D01*
X834302Y644146D01*
X837537Y642806D01*
X840012Y640330D01*
X841352Y637095D01*
X841352Y633594D01*
X840012Y630360D01*
X837537Y627884D01*
X834302Y626544D01*
X830801Y626544D01*
G37*
%LPD*%
%LPC*%
G36*
X320044Y520576D02*
X320044Y520576D01*
X316809Y521916D01*
X314334Y524392D01*
X312994Y527626D01*
X312994Y531127D01*
X314334Y534362D01*
X316809Y536838D01*
X320044Y538178D01*
X323545Y538178D01*
X326780Y536838D01*
X329255Y534362D01*
X330595Y531127D01*
X330595Y527626D01*
X329255Y524392D01*
X326780Y521916D01*
X323545Y520576D01*
X320044Y520576D01*
G37*
%LPD*%
%LPC*%
G36*
X254338Y589683D02*
X254338Y589683D01*
X251104Y591023D01*
X248628Y593499D01*
X247288Y596733D01*
X247288Y600234D01*
X248628Y603469D01*
X251104Y605945D01*
X254338Y607284D01*
X257840Y607284D01*
X261074Y605945D01*
X263550Y603469D01*
X264890Y600234D01*
X264890Y596733D01*
X263550Y593499D01*
X261074Y591023D01*
X257840Y589683D01*
X254338Y589683D01*
G37*
%LPD*%
%LPC*%
G36*
X512177Y376694D02*
X512177Y376694D01*
X509323Y377876D01*
X507139Y380061D01*
X505956Y382915D01*
X505956Y386004D01*
X507139Y388859D01*
X509323Y391043D01*
X512177Y392226D01*
X515267Y392226D01*
X518121Y391043D01*
X520306Y388859D01*
X521488Y386004D01*
X521488Y382915D01*
X520306Y380061D01*
X518121Y377876D01*
X515267Y376694D01*
X512177Y376694D01*
G37*
%LPD*%
%LPC*%
G36*
X526017Y640869D02*
X526017Y640869D01*
X523163Y642052D01*
X520978Y644236D01*
X519796Y647090D01*
X519796Y650180D01*
X520978Y653034D01*
X523163Y655218D01*
X526017Y656401D01*
X529107Y656401D01*
X531961Y655218D01*
X534145Y653034D01*
X535328Y650180D01*
X535328Y647090D01*
X534145Y644236D01*
X531961Y642052D01*
X529107Y640869D01*
X526017Y640869D01*
G37*
%LPD*%
%LPC*%
G36*
X653167Y633640D02*
X653167Y633640D01*
X650312Y634822D01*
X648128Y637006D01*
X646946Y639861D01*
X646946Y642950D01*
X648128Y645804D01*
X650312Y647989D01*
X653167Y649171D01*
X656256Y649171D01*
X659110Y647989D01*
X661295Y645804D01*
X662477Y642950D01*
X662477Y639861D01*
X661295Y637006D01*
X659110Y634822D01*
X656256Y633640D01*
X653167Y633640D01*
G37*
%LPD*%
%LPC*%
G36*
X750708Y758993D02*
X750708Y758993D01*
X747854Y760175D01*
X745670Y762360D01*
X744487Y765214D01*
X744487Y768303D01*
X745670Y771158D01*
X747854Y773342D01*
X750708Y774524D01*
X753798Y774524D01*
X756652Y773342D01*
X758837Y771158D01*
X760019Y768303D01*
X760019Y765214D01*
X758837Y762360D01*
X756652Y760175D01*
X753798Y758993D01*
X750708Y758993D01*
G37*
%LPD*%
%LPC*%
G36*
X700708Y758993D02*
X700708Y758993D01*
X697854Y760175D01*
X695670Y762360D01*
X694487Y765214D01*
X694487Y768303D01*
X695670Y771158D01*
X697854Y773342D01*
X700708Y774524D01*
X703798Y774524D01*
X706652Y773342D01*
X708837Y771158D01*
X710019Y768303D01*
X710019Y765214D01*
X708837Y762360D01*
X706652Y760175D01*
X703798Y758993D01*
X700708Y758993D01*
G37*
%LPD*%
%LPC*%
G36*
X454837Y664266D02*
X454837Y664266D01*
X451983Y665448D01*
X449798Y667633D01*
X448616Y670487D01*
X448616Y673577D01*
X449798Y676431D01*
X451983Y678615D01*
X454837Y679798D01*
X457926Y679798D01*
X460781Y678615D01*
X462965Y676431D01*
X464147Y673577D01*
X464147Y670487D01*
X462965Y667633D01*
X460781Y665448D01*
X457926Y664266D01*
X454837Y664266D01*
G37*
%LPD*%
%LPC*%
G36*
X404837Y664266D02*
X404837Y664266D01*
X401983Y665448D01*
X399798Y667633D01*
X398616Y670487D01*
X398616Y673577D01*
X399798Y676431D01*
X401983Y678615D01*
X404837Y679798D01*
X407926Y679798D01*
X410781Y678615D01*
X412965Y676431D01*
X414147Y673577D01*
X414147Y670487D01*
X412965Y667633D01*
X410781Y665448D01*
X407926Y664266D01*
X404837Y664266D01*
G37*
%LPD*%
%LPC*%
G36*
X656314Y472872D02*
X656314Y472872D01*
X653460Y474054D01*
X651275Y476239D01*
X650093Y479093D01*
X650093Y482182D01*
X651275Y485037D01*
X653460Y487221D01*
X656314Y488403D01*
X659404Y488403D01*
X662258Y487221D01*
X664442Y485037D01*
X665625Y482182D01*
X665625Y479093D01*
X664442Y476239D01*
X662258Y474054D01*
X659404Y472872D01*
X656314Y472872D01*
G37*
%LPD*%
%LPC*%
G36*
X512177Y426694D02*
X512177Y426694D01*
X509323Y427876D01*
X507139Y430061D01*
X505956Y432915D01*
X505956Y436004D01*
X507139Y438859D01*
X509323Y441043D01*
X512177Y442226D01*
X515267Y442226D01*
X518121Y441043D01*
X520306Y438859D01*
X521488Y436004D01*
X521488Y432915D01*
X520306Y430061D01*
X518121Y427876D01*
X515267Y426694D01*
X512177Y426694D01*
G37*
%LPD*%
%LPC*%
G36*
X476017Y640869D02*
X476017Y640869D01*
X473163Y642052D01*
X470978Y644236D01*
X469796Y647090D01*
X469796Y650180D01*
X470978Y653034D01*
X473163Y655218D01*
X476017Y656401D01*
X479107Y656401D01*
X481961Y655218D01*
X484145Y653034D01*
X485328Y650180D01*
X485328Y647090D01*
X484145Y644236D01*
X481961Y642052D01*
X479107Y640869D01*
X476017Y640869D01*
G37*
%LPD*%
%LPC*%
G36*
X781360Y584983D02*
X781360Y584983D01*
X778506Y586165D01*
X776322Y588350D01*
X775139Y591204D01*
X775139Y594293D01*
X776322Y597147D01*
X778506Y599332D01*
X781360Y600514D01*
X784450Y600514D01*
X787304Y599332D01*
X789489Y597147D01*
X790671Y594293D01*
X790671Y591204D01*
X789489Y588350D01*
X787304Y586165D01*
X784450Y584983D01*
X781360Y584983D01*
G37*
%LPD*%
%LPC*%
G36*
X168915Y802493D02*
X168915Y802493D01*
X168915Y813290D01*
X178141Y813290D01*
X180056Y812986D01*
X181900Y812387D01*
X183628Y811507D01*
X185197Y810367D01*
X186568Y808996D01*
X187708Y807427D01*
X188588Y805699D01*
X189187Y803855D01*
X189403Y802493D01*
X168915Y802493D01*
G37*
%LPD*%
%LPC*%
G36*
X145381Y802493D02*
X145381Y802493D01*
X145597Y803855D01*
X146196Y805699D01*
X147076Y807427D01*
X148216Y808996D01*
X149587Y810367D01*
X151156Y811507D01*
X152884Y812387D01*
X154728Y812986D01*
X156643Y813290D01*
X165869Y813290D01*
X165869Y802493D01*
X145381Y802493D01*
G37*
%LPD*%
%LPC*%
G36*
X98023Y220373D02*
X98023Y220373D01*
X98023Y231141D01*
X107217Y231141D01*
X109128Y230838D01*
X110968Y230240D01*
X112692Y229362D01*
X114257Y228225D01*
X115625Y226857D01*
X116762Y225292D01*
X117640Y223568D01*
X118238Y221728D01*
X118453Y220373D01*
X98023Y220373D01*
G37*
%LPD*%
%LPC*%
G36*
X98023Y382673D02*
X98023Y382673D01*
X98023Y393441D01*
X107217Y393441D01*
X109128Y393138D01*
X110968Y392540D01*
X112692Y391662D01*
X114257Y390525D01*
X115625Y389157D01*
X116762Y387592D01*
X117640Y385868D01*
X118238Y384028D01*
X118453Y382673D01*
X98023Y382673D01*
G37*
%LPD*%
%LPC*%
G36*
X790023Y220373D02*
X790023Y220373D01*
X790023Y231141D01*
X799217Y231141D01*
X801128Y230838D01*
X802968Y230240D01*
X804692Y229362D01*
X806257Y228225D01*
X807625Y226857D01*
X808762Y225292D01*
X809640Y223568D01*
X810238Y221728D01*
X810453Y220373D01*
X790023Y220373D01*
G37*
%LPD*%
%LPC*%
G36*
X663023Y220373D02*
X663023Y220373D01*
X663023Y231141D01*
X672217Y231141D01*
X674128Y230838D01*
X675968Y230240D01*
X677692Y229362D01*
X679257Y228225D01*
X680625Y226857D01*
X681762Y225292D01*
X682640Y223568D01*
X683238Y221728D01*
X683453Y220373D01*
X663023Y220373D01*
G37*
%LPD*%
%LPC*%
G36*
X225023Y382673D02*
X225023Y382673D01*
X225023Y393441D01*
X234217Y393441D01*
X236128Y393138D01*
X237968Y392540D01*
X239692Y391662D01*
X241257Y390525D01*
X242625Y389157D01*
X243762Y387592D01*
X244640Y385868D01*
X245238Y384028D01*
X245453Y382673D01*
X225023Y382673D01*
G37*
%LPD*%
%LPC*%
G36*
X790023Y382673D02*
X790023Y382673D01*
X790023Y393441D01*
X799217Y393441D01*
X801128Y393138D01*
X802968Y392540D01*
X804692Y391662D01*
X806257Y390525D01*
X807625Y389157D01*
X808762Y387592D01*
X809640Y385868D01*
X810238Y384028D01*
X810453Y382673D01*
X790023Y382673D01*
G37*
%LPD*%
%LPC*%
G36*
X74547Y220373D02*
X74547Y220373D01*
X74762Y221728D01*
X75360Y223568D01*
X76238Y225292D01*
X77375Y226857D01*
X78743Y228225D01*
X80308Y229362D01*
X82032Y230240D01*
X83872Y230838D01*
X85783Y231141D01*
X94977Y231141D01*
X94977Y220373D01*
X74547Y220373D01*
G37*
%LPD*%
%LPC*%
G36*
X766547Y220373D02*
X766547Y220373D01*
X766762Y221728D01*
X767360Y223568D01*
X768238Y225292D01*
X769375Y226857D01*
X770743Y228225D01*
X772308Y229362D01*
X774032Y230240D01*
X775872Y230838D01*
X777783Y231141D01*
X786977Y231141D01*
X786977Y220373D01*
X766547Y220373D01*
G37*
%LPD*%
%LPC*%
G36*
X639547Y220373D02*
X639547Y220373D01*
X639762Y221728D01*
X640360Y223568D01*
X641238Y225292D01*
X642375Y226857D01*
X643743Y228225D01*
X645308Y229362D01*
X647032Y230240D01*
X648872Y230838D01*
X650783Y231141D01*
X659977Y231141D01*
X659977Y220373D01*
X639547Y220373D01*
G37*
%LPD*%
%LPC*%
G36*
X766547Y382673D02*
X766547Y382673D01*
X766762Y384028D01*
X767360Y385868D01*
X768238Y387592D01*
X769375Y389157D01*
X770743Y390525D01*
X772308Y391662D01*
X774032Y392540D01*
X775872Y393138D01*
X777783Y393441D01*
X786977Y393441D01*
X786977Y382673D01*
X766547Y382673D01*
G37*
%LPD*%
%LPC*%
G36*
X201547Y382673D02*
X201547Y382673D01*
X201762Y384028D01*
X202360Y385868D01*
X203238Y387592D01*
X204375Y389157D01*
X205743Y390525D01*
X207308Y391662D01*
X209032Y392540D01*
X210872Y393138D01*
X212783Y393441D01*
X221977Y393441D01*
X221977Y382673D01*
X201547Y382673D01*
G37*
%LPD*%
%LPC*%
G36*
X74547Y382673D02*
X74547Y382673D01*
X74762Y384028D01*
X75360Y385868D01*
X76238Y387592D01*
X77375Y389157D01*
X78743Y390525D01*
X80308Y391662D01*
X82032Y392540D01*
X83872Y393138D01*
X85783Y393441D01*
X94977Y393441D01*
X94977Y382673D01*
X74547Y382673D01*
G37*
%LPD*%
%LPC*%
G36*
X790023Y368859D02*
X790023Y368859D01*
X790023Y379627D01*
X810453Y379627D01*
X810238Y378272D01*
X809640Y376432D01*
X808762Y374708D01*
X807625Y373143D01*
X806257Y371775D01*
X804692Y370638D01*
X802968Y369760D01*
X801128Y369162D01*
X799217Y368859D01*
X790023Y368859D01*
G37*
%LPD*%
%LPC*%
G36*
X790023Y206559D02*
X790023Y206559D01*
X790023Y217327D01*
X810453Y217327D01*
X810238Y215972D01*
X809640Y214132D01*
X808762Y212408D01*
X807625Y210843D01*
X806257Y209475D01*
X804692Y208338D01*
X802968Y207460D01*
X801128Y206862D01*
X799217Y206559D01*
X790023Y206559D01*
G37*
%LPD*%
%LPC*%
G36*
X98023Y206559D02*
X98023Y206559D01*
X98023Y217327D01*
X118453Y217327D01*
X118238Y215972D01*
X117640Y214132D01*
X116762Y212408D01*
X115625Y210843D01*
X114257Y209475D01*
X112692Y208338D01*
X110968Y207460D01*
X109128Y206862D01*
X107217Y206559D01*
X98023Y206559D01*
G37*
%LPD*%
%LPC*%
G36*
X98023Y368859D02*
X98023Y368859D01*
X98023Y379627D01*
X118453Y379627D01*
X118238Y378272D01*
X117640Y376432D01*
X116762Y374708D01*
X115625Y373143D01*
X114257Y371775D01*
X112692Y370638D01*
X110968Y369760D01*
X109128Y369162D01*
X107217Y368859D01*
X98023Y368859D01*
G37*
%LPD*%
%LPC*%
G36*
X225023Y368859D02*
X225023Y368859D01*
X225023Y379627D01*
X245453Y379627D01*
X245238Y378272D01*
X244640Y376432D01*
X243762Y374708D01*
X242625Y373143D01*
X241257Y371775D01*
X239692Y370638D01*
X237968Y369760D01*
X236128Y369162D01*
X234217Y368859D01*
X225023Y368859D01*
G37*
%LPD*%
%LPC*%
G36*
X663023Y206559D02*
X663023Y206559D01*
X663023Y217327D01*
X683453Y217327D01*
X683238Y215972D01*
X682640Y214132D01*
X681762Y212408D01*
X680625Y210843D01*
X679257Y209475D01*
X677692Y208338D01*
X675968Y207460D01*
X674128Y206862D01*
X672217Y206559D01*
X663023Y206559D01*
G37*
%LPD*%
%LPC*%
G36*
X777783Y206559D02*
X777783Y206559D01*
X775872Y206862D01*
X774032Y207460D01*
X772308Y208338D01*
X770743Y209475D01*
X769375Y210843D01*
X768238Y212408D01*
X767360Y214132D01*
X766762Y215972D01*
X766547Y217327D01*
X786977Y217327D01*
X786977Y206559D01*
X777783Y206559D01*
G37*
%LPD*%
%LPC*%
G36*
X777783Y368859D02*
X777783Y368859D01*
X775872Y369162D01*
X774032Y369760D01*
X772308Y370638D01*
X770743Y371775D01*
X769375Y373143D01*
X768238Y374708D01*
X767360Y376432D01*
X766762Y378272D01*
X766547Y379627D01*
X786977Y379627D01*
X786977Y368859D01*
X777783Y368859D01*
G37*
%LPD*%
%LPC*%
G36*
X85783Y206559D02*
X85783Y206559D01*
X83872Y206862D01*
X82032Y207460D01*
X80308Y208338D01*
X78743Y209475D01*
X77375Y210843D01*
X76238Y212408D01*
X75360Y214132D01*
X74762Y215972D01*
X74547Y217327D01*
X94977Y217327D01*
X94977Y206559D01*
X85783Y206559D01*
G37*
%LPD*%
%LPC*%
G36*
X85783Y368859D02*
X85783Y368859D01*
X83872Y369162D01*
X82032Y369760D01*
X80308Y370638D01*
X78743Y371775D01*
X77375Y373143D01*
X76238Y374708D01*
X75360Y376432D01*
X74762Y378272D01*
X74547Y379627D01*
X94977Y379627D01*
X94977Y368859D01*
X85783Y368859D01*
G37*
%LPD*%
%LPC*%
G36*
X650783Y206559D02*
X650783Y206559D01*
X648872Y206862D01*
X647032Y207460D01*
X645308Y208338D01*
X643743Y209475D01*
X642375Y210843D01*
X641238Y212408D01*
X640360Y214132D01*
X639762Y215972D01*
X639547Y217327D01*
X659977Y217327D01*
X659977Y206559D01*
X650783Y206559D01*
G37*
%LPD*%
%LPC*%
G36*
X212783Y368859D02*
X212783Y368859D01*
X210872Y369162D01*
X209032Y369760D01*
X207308Y370638D01*
X205743Y371775D01*
X204375Y373143D01*
X203238Y374708D01*
X202360Y376432D01*
X201762Y378272D01*
X201547Y379627D01*
X221977Y379627D01*
X221977Y368859D01*
X212783Y368859D01*
G37*
%LPD*%
%LPC*%
G36*
X770219Y61589D02*
X770219Y61589D01*
X770219Y72005D01*
X779033Y72005D01*
X780890Y71711D01*
X782677Y71130D01*
X784351Y70277D01*
X785872Y69172D01*
X787200Y67844D01*
X788305Y66323D01*
X789158Y64649D01*
X789739Y62862D01*
X789940Y61589D01*
X770219Y61589D01*
G37*
%LPD*%
%LPC*%
G36*
X747452Y61589D02*
X747452Y61589D01*
X747653Y62862D01*
X748234Y64649D01*
X749087Y66323D01*
X750192Y67844D01*
X751520Y69172D01*
X753041Y70277D01*
X754715Y71130D01*
X756502Y71711D01*
X758358Y72005D01*
X767173Y72005D01*
X767173Y61589D01*
X747452Y61589D01*
G37*
%LPD*%
%LPC*%
G36*
X770219Y48127D02*
X770219Y48127D01*
X770219Y58543D01*
X789940Y58543D01*
X789739Y57270D01*
X789158Y55483D01*
X788305Y53809D01*
X787200Y52288D01*
X785872Y50960D01*
X784351Y49855D01*
X782677Y49002D01*
X780890Y48421D01*
X779033Y48127D01*
X770219Y48127D01*
G37*
%LPD*%
%LPC*%
G36*
X758358Y48127D02*
X758358Y48127D01*
X756502Y48421D01*
X754715Y49002D01*
X753041Y49855D01*
X751520Y50960D01*
X750192Y52288D01*
X749087Y53809D01*
X748234Y55483D01*
X747653Y57270D01*
X747452Y58543D01*
X767173Y58543D01*
X767173Y48127D01*
X758358Y48127D01*
G37*
%LPD*%
%LPC*%
G36*
X563203Y34378D02*
X563203Y34378D01*
X563203Y46190D01*
X567203Y46190D01*
X575015Y38378D01*
X575015Y34378D01*
X563203Y34378D01*
G37*
%LPD*%
%LPC*%
G36*
X333813Y974818D02*
X333813Y974818D01*
X333813Y986631D01*
X337814Y986631D01*
X345626Y978819D01*
X345626Y974818D01*
X333813Y974818D01*
G37*
%LPD*%
%LPC*%
G36*
X333813Y959959D02*
X333813Y959959D01*
X333813Y971772D01*
X345626Y971772D01*
X345626Y967771D01*
X337814Y959959D01*
X333813Y959959D01*
G37*
%LPD*%
%LPC*%
G36*
X548344Y34378D02*
X548344Y34378D01*
X548344Y38378D01*
X556155Y46190D01*
X560156Y46190D01*
X560156Y34378D01*
X548344Y34378D01*
G37*
%LPD*%
%LPC*%
G36*
X318954Y974818D02*
X318954Y974818D01*
X318954Y978819D01*
X326766Y986631D01*
X330767Y986631D01*
X330767Y974818D01*
X318954Y974818D01*
G37*
%LPD*%
%LPC*%
G36*
X563203Y19519D02*
X563203Y19519D01*
X563203Y31331D01*
X575015Y31331D01*
X575015Y27331D01*
X567203Y19519D01*
X563203Y19519D01*
G37*
%LPD*%
%LPC*%
G36*
X556155Y19519D02*
X556155Y19519D01*
X548344Y27331D01*
X548344Y31331D01*
X560156Y31331D01*
X560156Y19519D01*
X556155Y19519D01*
G37*
%LPD*%
%LPC*%
G36*
X326766Y959959D02*
X326766Y959959D01*
X318954Y967771D01*
X318954Y971772D01*
X330767Y971772D01*
X330767Y959959D01*
X326766Y959959D01*
G37*
%LPD*%
%LPC*%
G36*
X251106Y526784D02*
X251106Y526784D01*
X251106Y535801D01*
X258932Y535801D01*
X259578Y535628D01*
X260158Y535294D01*
X260631Y534821D01*
X260965Y534241D01*
X261138Y533595D01*
X261138Y526784D01*
X251106Y526784D01*
G37*
%LPD*%
%LPC*%
G36*
X238027Y526784D02*
X238027Y526784D01*
X238027Y533595D01*
X238200Y534241D01*
X238535Y534821D01*
X239008Y535294D01*
X239587Y535628D01*
X240233Y535801D01*
X248059Y535801D01*
X248059Y526784D01*
X238027Y526784D01*
G37*
%LPD*%
%LPC*%
G36*
X251106Y514720D02*
X251106Y514720D01*
X251106Y523737D01*
X261138Y523737D01*
X261138Y516926D01*
X260965Y516280D01*
X260631Y515700D01*
X260158Y515227D01*
X259578Y514893D01*
X258932Y514720D01*
X251106Y514720D01*
G37*
%LPD*%
%LPC*%
G36*
X240233Y514720D02*
X240233Y514720D01*
X239587Y514893D01*
X239008Y515227D01*
X238535Y515700D01*
X238200Y516280D01*
X238027Y516926D01*
X238027Y523737D01*
X248059Y523737D01*
X248059Y514720D01*
X240233Y514720D01*
G37*
%LPD*%
%LPC*%
G36*
X148323Y163477D02*
X148323Y163477D01*
X159003Y163477D01*
X158788Y162122D01*
X158190Y160282D01*
X157312Y158558D01*
X156175Y156993D01*
X154807Y155625D01*
X153242Y154488D01*
X151518Y153610D01*
X149678Y153012D01*
X148323Y152797D01*
X148323Y163477D01*
G37*
%LPD*%
%LPC*%
G36*
X143922Y153012D02*
X143922Y153012D01*
X142082Y153610D01*
X140358Y154488D01*
X138793Y155625D01*
X137425Y156993D01*
X136288Y158558D01*
X135410Y160282D01*
X134812Y162122D01*
X134597Y163477D01*
X145277Y163477D01*
X145277Y152797D01*
X143922Y153012D01*
G37*
%LPD*%
%LPC*%
G36*
X258483Y924572D02*
X258483Y924572D01*
X258483Y932507D01*
X259204Y932393D01*
X260638Y931927D01*
X261982Y931243D01*
X263202Y930356D01*
X264268Y929290D01*
X265155Y928070D01*
X265839Y926726D01*
X266305Y925292D01*
X266419Y924572D01*
X258483Y924572D01*
G37*
%LPD*%
%LPC*%
G36*
X258483Y921525D02*
X258483Y921525D01*
X266419Y921525D01*
X266305Y920805D01*
X265839Y919371D01*
X265155Y918027D01*
X264268Y916807D01*
X263202Y915741D01*
X261982Y914854D01*
X260638Y914170D01*
X259204Y913703D01*
X258483Y913589D01*
X258483Y921525D01*
G37*
%LPD*%
%LPC*%
G36*
X247501Y924572D02*
X247501Y924572D01*
X247615Y925292D01*
X248081Y926726D01*
X248766Y928070D01*
X249653Y929290D01*
X250719Y930356D01*
X251939Y931243D01*
X253282Y931927D01*
X254717Y932393D01*
X255437Y932507D01*
X255437Y924572D01*
X247501Y924572D01*
G37*
%LPD*%
%LPC*%
G36*
X254717Y913703D02*
X254717Y913703D01*
X253282Y914170D01*
X251939Y914854D01*
X250719Y915741D01*
X249653Y916807D01*
X248766Y918027D01*
X248081Y919371D01*
X247615Y920805D01*
X247501Y921525D01*
X255437Y921525D01*
X255437Y913589D01*
X254717Y913703D01*
G37*
%LPD*%
%LPC*%
G36*
X518494Y238937D02*
X518494Y238937D01*
X518494Y246558D01*
X520758Y246558D01*
X526115Y241202D01*
X526115Y238937D01*
X518494Y238937D01*
G37*
%LPD*%
%LPC*%
G36*
X507826Y238937D02*
X507826Y238937D01*
X507826Y241202D01*
X513183Y246558D01*
X515447Y246558D01*
X515447Y238937D01*
X507826Y238937D01*
G37*
%LPD*%
%LPC*%
G36*
X518494Y228269D02*
X518494Y228269D01*
X518494Y235890D01*
X526115Y235890D01*
X526115Y233626D01*
X520758Y228269D01*
X518494Y228269D01*
G37*
%LPD*%
%LPC*%
G36*
X513183Y228269D02*
X513183Y228269D01*
X507826Y233626D01*
X507826Y235890D01*
X515447Y235890D01*
X515447Y228269D01*
X513183Y228269D01*
G37*
%LPD*%
%LPC*%
G36*
X842594Y779107D02*
X842594Y779107D01*
X842594Y786753D01*
X843781Y786517D01*
X845472Y785817D01*
X846994Y784800D01*
X848288Y783506D01*
X849304Y781984D01*
X850005Y780293D01*
X850241Y779107D01*
X842594Y779107D01*
G37*
%LPD*%
%LPC*%
G36*
X809705Y833930D02*
X809705Y833930D01*
X809705Y841577D01*
X810892Y841341D01*
X812583Y840640D01*
X814105Y839624D01*
X815399Y838330D01*
X816415Y836808D01*
X817116Y835117D01*
X817352Y833930D01*
X809705Y833930D01*
G37*
%LPD*%
%LPC*%
G36*
X257560Y967343D02*
X257560Y967343D01*
X257560Y974990D01*
X258747Y974754D01*
X260438Y974053D01*
X261960Y973037D01*
X263254Y971743D01*
X264271Y970221D01*
X264971Y968530D01*
X265207Y967343D01*
X257560Y967343D01*
G37*
%LPD*%
%LPC*%
G36*
X424632Y146486D02*
X424632Y146486D01*
X424632Y154132D01*
X425819Y153896D01*
X427510Y153196D01*
X429032Y152179D01*
X430326Y150885D01*
X431343Y149363D01*
X432043Y147673D01*
X432279Y146486D01*
X424632Y146486D01*
G37*
%LPD*%
%LPC*%
G36*
X184810Y967188D02*
X184810Y967188D01*
X184810Y974835D01*
X185997Y974599D01*
X187688Y973898D01*
X189210Y972881D01*
X190504Y971587D01*
X191521Y970066D01*
X192221Y968375D01*
X192457Y967188D01*
X184810Y967188D01*
G37*
%LPD*%
%LPC*%
G36*
X257560Y964297D02*
X257560Y964297D01*
X265207Y964297D01*
X264971Y963110D01*
X264271Y961419D01*
X263254Y959898D01*
X261960Y958604D01*
X260438Y957587D01*
X258747Y956886D01*
X257560Y956650D01*
X257560Y964297D01*
G37*
%LPD*%
%LPC*%
G36*
X184810Y964142D02*
X184810Y964142D01*
X192457Y964142D01*
X192221Y962955D01*
X191521Y961264D01*
X190504Y959742D01*
X189210Y958448D01*
X187688Y957432D01*
X185997Y956731D01*
X184810Y956495D01*
X184810Y964142D01*
G37*
%LPD*%
%LPC*%
G36*
X809705Y830884D02*
X809705Y830884D01*
X817352Y830884D01*
X817116Y829697D01*
X816415Y828006D01*
X815399Y826484D01*
X814105Y825191D01*
X812583Y824174D01*
X810892Y823473D01*
X809705Y823237D01*
X809705Y830884D01*
G37*
%LPD*%
%LPC*%
G36*
X799012Y833930D02*
X799012Y833930D01*
X799248Y835117D01*
X799949Y836808D01*
X800965Y838330D01*
X802259Y839624D01*
X803781Y840640D01*
X805472Y841341D01*
X806659Y841577D01*
X806659Y833930D01*
X799012Y833930D01*
G37*
%LPD*%
%LPC*%
G36*
X246867Y967343D02*
X246867Y967343D01*
X247104Y968530D01*
X247804Y970221D01*
X248821Y971743D01*
X250115Y973037D01*
X251636Y974053D01*
X253327Y974754D01*
X254514Y974990D01*
X254514Y967343D01*
X246867Y967343D01*
G37*
%LPD*%
%LPC*%
G36*
X174117Y967188D02*
X174117Y967188D01*
X174354Y968375D01*
X175054Y970066D01*
X176071Y971587D01*
X177365Y972881D01*
X178886Y973898D01*
X180577Y974599D01*
X181764Y974835D01*
X181764Y967188D01*
X174117Y967188D01*
G37*
%LPD*%
%LPC*%
G36*
X413940Y146486D02*
X413940Y146486D01*
X414176Y147673D01*
X414876Y149363D01*
X415893Y150885D01*
X417187Y152179D01*
X418708Y153196D01*
X420399Y153896D01*
X421586Y154132D01*
X421586Y146486D01*
X413940Y146486D01*
G37*
%LPD*%
%LPC*%
G36*
X842594Y776060D02*
X842594Y776060D01*
X850241Y776060D01*
X850005Y774873D01*
X849304Y773183D01*
X848288Y771661D01*
X846994Y770367D01*
X845472Y769350D01*
X843781Y768650D01*
X842594Y768414D01*
X842594Y776060D01*
G37*
%LPD*%
%LPC*%
G36*
X831901Y779107D02*
X831901Y779107D01*
X832137Y780293D01*
X832838Y781984D01*
X833855Y783506D01*
X835148Y784800D01*
X836670Y785817D01*
X838361Y786517D01*
X839548Y786753D01*
X839548Y779107D01*
X831901Y779107D01*
G37*
%LPD*%
%LPC*%
G36*
X424632Y143439D02*
X424632Y143439D01*
X432279Y143439D01*
X432043Y142253D01*
X431343Y140562D01*
X430326Y139040D01*
X429032Y137746D01*
X427510Y136729D01*
X425819Y136029D01*
X424632Y135793D01*
X424632Y143439D01*
G37*
%LPD*%
%LPC*%
G36*
X180577Y956731D02*
X180577Y956731D01*
X178886Y957432D01*
X177365Y958448D01*
X176071Y959742D01*
X175054Y961264D01*
X174354Y962955D01*
X174117Y964142D01*
X181764Y964142D01*
X181764Y956495D01*
X180577Y956731D01*
G37*
%LPD*%
%LPC*%
G36*
X420399Y136029D02*
X420399Y136029D01*
X418708Y136729D01*
X417187Y137746D01*
X415893Y139040D01*
X414876Y140562D01*
X414176Y142253D01*
X413940Y143439D01*
X421586Y143439D01*
X421586Y135793D01*
X420399Y136029D01*
G37*
%LPD*%
%LPC*%
G36*
X838361Y768650D02*
X838361Y768650D01*
X836670Y769350D01*
X835148Y770367D01*
X833855Y771661D01*
X832838Y773183D01*
X832137Y774873D01*
X831901Y776060D01*
X839548Y776060D01*
X839548Y768414D01*
X838361Y768650D01*
G37*
%LPD*%
%LPC*%
G36*
X253327Y956886D02*
X253327Y956886D01*
X251636Y957587D01*
X250115Y958604D01*
X248821Y959898D01*
X247804Y961419D01*
X247104Y963110D01*
X246867Y964297D01*
X254514Y964297D01*
X254514Y956650D01*
X253327Y956886D01*
G37*
%LPD*%
%LPC*%
G36*
X805472Y823473D02*
X805472Y823473D01*
X803781Y824174D01*
X802259Y825191D01*
X800965Y826484D01*
X799949Y828006D01*
X799248Y829697D01*
X799012Y830884D01*
X806659Y830884D01*
X806659Y823237D01*
X805472Y823473D01*
G37*
%LPD*%
%LPC*%
G36*
X808181Y832406D02*
X808181Y832406D01*
X808181Y832408D01*
X808183Y832408D01*
X808183Y832406D01*
X808181Y832406D01*
G37*
%LPD*%
%LPC*%
G36*
X788499Y218849D02*
X788499Y218849D01*
X788499Y218851D01*
X788501Y218851D01*
X788501Y218849D01*
X788499Y218849D01*
G37*
%LPD*%
%LPC*%
G36*
X423108Y144962D02*
X423108Y144962D01*
X423108Y144964D01*
X423110Y144964D01*
X423110Y144962D01*
X423108Y144962D01*
G37*
%LPD*%
%LPC*%
G36*
X516970Y237413D02*
X516970Y237413D01*
X516970Y237415D01*
X516971Y237415D01*
X516971Y237413D01*
X516970Y237413D01*
G37*
%LPD*%
%LPC*%
G36*
X768695Y60065D02*
X768695Y60065D01*
X768695Y60067D01*
X768697Y60067D01*
X768697Y60065D01*
X768695Y60065D01*
G37*
%LPD*%
%LPC*%
G36*
X661499Y218849D02*
X661499Y218849D01*
X661499Y218851D01*
X661501Y218851D01*
X661501Y218849D01*
X661499Y218849D01*
G37*
%LPD*%
%LPC*%
G36*
X256036Y965819D02*
X256036Y965819D01*
X256036Y965821D01*
X256038Y965821D01*
X256038Y965819D01*
X256036Y965819D01*
G37*
%LPD*%
%LPC*%
G36*
X332289Y973294D02*
X332289Y973294D01*
X332289Y973296D01*
X332291Y973296D01*
X332291Y973294D01*
X332289Y973294D01*
G37*
%LPD*%
%LPC*%
G36*
X788499Y381149D02*
X788499Y381149D01*
X788499Y381151D01*
X788501Y381151D01*
X788501Y381149D01*
X788499Y381149D01*
G37*
%LPD*%
%LPC*%
G36*
X223499Y381149D02*
X223499Y381149D01*
X223499Y381151D01*
X223501Y381151D01*
X223501Y381149D01*
X223499Y381149D01*
G37*
%LPD*%
%LPC*%
G36*
X96499Y381149D02*
X96499Y381149D01*
X96499Y381151D01*
X96501Y381151D01*
X96501Y381149D01*
X96499Y381149D01*
G37*
%LPD*%
%LPC*%
G36*
X183286Y965664D02*
X183286Y965664D01*
X183286Y965666D01*
X183288Y965666D01*
X183288Y965664D01*
X183286Y965664D01*
G37*
%LPD*%
%LPC*%
G36*
X146799Y164999D02*
X146799Y164999D01*
X146799Y165001D01*
X146801Y165001D01*
X146801Y164999D01*
X146799Y164999D01*
G37*
%LPD*%
%LPC*%
G36*
X561678Y32854D02*
X561678Y32854D01*
X561678Y32855D01*
X561680Y32855D01*
X561680Y32854D01*
X561678Y32854D01*
G37*
%LPD*%
%LPC*%
G36*
X96499Y218849D02*
X96499Y218849D01*
X96499Y218851D01*
X96501Y218851D01*
X96501Y218849D01*
X96499Y218849D01*
G37*
%LPD*%
%LPC*%
G36*
X256959Y923047D02*
X256959Y923047D01*
X256959Y923049D01*
X256961Y923049D01*
X256961Y923047D01*
X256959Y923047D01*
G37*
%LPD*%
%LPC*%
G36*
X841070Y777583D02*
X841070Y777583D01*
X841070Y777584D01*
X841072Y777584D01*
X841072Y777583D01*
X841070Y777583D01*
G37*
%LPD*%
%LPC*%
G36*
X249582Y525260D02*
X249582Y525260D01*
X249582Y525261D01*
X249583Y525261D01*
X249583Y525260D01*
X249582Y525260D01*
G37*
%LPD*%
D10*
X513722Y384460D03*
X513722Y434460D03*
D11*
X812551Y635345D03*
D12*
X832551Y635345D03*
D11*
X273939Y658477D03*
D12*
X253939Y658477D03*
D10*
X782905Y592749D03*
X832905Y592749D03*
X527562Y648635D03*
X477562Y648635D03*
D11*
X321794Y509377D03*
D12*
X321794Y529377D03*
D11*
X788182Y832407D03*
D12*
X808182Y832407D03*
D11*
X861071Y777583D03*
D12*
X841071Y777583D03*
D10*
X604711Y641405D03*
X654711Y641405D03*
D11*
X276089Y598484D03*
D12*
X256089Y598484D03*
D10*
X657859Y530638D03*
X657859Y480638D03*
D11*
X203425Y570566D03*
D12*
X203425Y550566D03*
D11*
X378902Y378804D03*
D12*
X358902Y378804D03*
D11*
X276037Y965820D03*
D12*
X256037Y965820D03*
D11*
X403109Y144963D03*
D12*
X423109Y144963D03*
D11*
X203287Y965665D03*
D12*
X183287Y965665D03*
D13*
X357957Y20706D03*
D14*
X332557Y20706D03*
D13*
X256960Y923048D03*
D14*
X282360Y923048D03*
D15*
X106250Y218850D02*
X86750Y218850D01*
X86750Y381150D02*
X106250Y381150D01*
X213750Y218850D02*
X233250Y218850D01*
X233250Y381150D02*
X213750Y381150D01*
D16*
X515874Y32854D03*
X561679Y32854D03*
D15*
X778750Y381150D02*
X798250Y381150D01*
X798250Y218850D02*
X778750Y218850D01*
X671250Y381150D02*
X651750Y381150D01*
X651750Y218850D02*
X671250Y218850D01*
D17*
X168000Y440000D03*
X143000Y440000D03*
X118000Y440000D03*
D18*
X187000Y510000D03*
X99000Y510000D03*
D19*
X332290Y918003D03*
D20*
X332290Y973295D03*
D21*
X844462Y539996D02*
X859542Y539996D01*
X859542Y559996D02*
X844462Y559996D01*
X844462Y459996D02*
X859542Y459996D01*
X859542Y519996D02*
X844462Y519996D01*
X844462Y499996D02*
X859542Y499996D01*
X859542Y479996D02*
X844462Y479996D01*
D22*
X742002Y569996D03*
X742002Y449996D03*
D23*
X759298Y161666D02*
X778094Y161666D01*
X778094Y136266D02*
X759298Y136266D01*
X759298Y110866D02*
X778094Y110866D01*
X778094Y85466D02*
X759298Y85466D01*
X759298Y60066D02*
X778094Y60066D01*
X778094Y34666D02*
X759298Y34666D01*
D15*
X146800Y115500D02*
X146800Y135000D01*
X178800Y135000D02*
X178800Y115500D01*
X210800Y115500D02*
X210800Y135000D01*
X210800Y165000D02*
X210800Y184500D01*
X178800Y184500D02*
X178800Y165000D01*
X146800Y165000D02*
X146800Y184500D01*
D10*
X702253Y766759D03*
X752253Y766759D03*
D24*
X516971Y237414D03*
X497921Y224714D03*
X516971Y212014D03*
D13*
X409773Y641036D03*
D14*
X409773Y615636D03*
D13*
X447437Y612644D03*
D14*
X447437Y638044D03*
D13*
X651406Y568795D03*
D14*
X626006Y568795D03*
D13*
X623884Y605694D03*
D14*
X649284Y605694D03*
D10*
X406382Y672032D03*
X456382Y672032D03*
D17*
X372500Y535000D03*
X372500Y510000D03*
X372500Y485000D03*
D25*
X442500Y554000D03*
X442500Y466000D03*
D19*
X477780Y300331D03*
X435292Y300368D03*
D26*
X647613Y800970D02*
X667171Y800970D01*
X667171Y775570D02*
X647613Y775570D01*
X647613Y750170D02*
X667171Y750170D01*
X177171Y800970D02*
X157613Y800970D01*
X157613Y775570D02*
X177171Y775570D01*
X177171Y750170D02*
X157613Y750170D01*
X416592Y860109D02*
X416592Y879667D01*
X441992Y879667D02*
X441992Y860109D01*
X467392Y860109D02*
X467392Y879667D01*
D17*
X467500Y820000D03*
X442500Y820000D03*
X417500Y820000D03*
D27*
X486500Y750000D03*
X398500Y750000D03*
D28*
X563798Y613850D02*
X578022Y613850D01*
X578022Y639250D02*
X563798Y639250D01*
X563798Y664650D02*
X578022Y664650D01*
D29*
X680197Y876111D03*
X756397Y876111D03*
D30*
X249583Y525261D03*
X249583Y553701D03*
D31*
X725211Y712309D03*
X817056Y665366D03*
D32*
X768453Y649038D02*
X768072Y649038D01*
X768072Y667407D01*
X725211Y710268D01*
X725211Y712309D01*
D33*
X731210Y608611D03*
D32*
X768453Y645853D01*
X768453Y649038D01*
X787965Y665366D02*
X817056Y665366D01*
X787965Y665366D02*
X731210Y608611D01*
X249002Y553111D02*
X214305Y553111D01*
X210223Y549029D01*
X204100Y549029D01*
X249002Y553111D02*
X249583Y553701D01*
X204100Y549029D02*
X203425Y550566D01*
X151690Y140829D02*
X147608Y136747D01*
X151690Y140829D02*
X153731Y140829D01*
X161895Y148993D01*
X190469Y148993D01*
X204756Y163280D01*
X208838Y163280D01*
X147608Y136747D02*
X146800Y135000D01*
X208838Y163280D02*
X210800Y165000D01*
X357831Y377733D02*
X358902Y378804D01*
X357831Y377733D02*
X357831Y282031D01*
X210800Y135000D01*
D31*
X547644Y540865D03*
X310888Y122460D03*
D33*
X114576Y643942D03*
D31*
X743580Y712309D03*
D33*
X380258Y163610D03*
D32*
X374159Y485758D02*
X431307Y485758D01*
X441512Y495963D01*
X494578Y495963D01*
X498660Y500045D01*
X374159Y485758D02*
X372500Y485000D01*
D31*
X498660Y500045D03*
D32*
X657859Y530638D02*
X754515Y530638D01*
X866309Y642431D01*
X866309Y772346D01*
X861071Y777583D01*
X576218Y663325D02*
X572136Y663325D01*
X576218Y663325D02*
X592546Y646997D01*
X592546Y530660D01*
X606833Y516373D01*
X572136Y663325D02*
X570910Y664650D01*
D31*
X606833Y516373D03*
D32*
X570095Y640874D02*
X567849Y640874D01*
X549685Y659038D01*
X549685Y679653D01*
X617038Y747006D01*
X637448Y747006D01*
X639489Y749047D01*
X657858Y749047D01*
X570095Y640874D02*
X570910Y639250D01*
X657858Y749047D02*
X657392Y750170D01*
M02*
