M48
;GenerationSoftware,Autodesk,EAGLE,9.2.2*%
;CreationDate,2019-04-19T13:44:36Z*%
FMAT,2
ICI,OFF
METRIC,TZ,000.000
T15C0.300
T14C0.350
T13C0.635
T12C0.800
T11C0.813
T10C0.900
T9C0.914
T8C1.000
T7C1.016
T6C1.118
T5C1.250
T4C1.300
T3C1.500
T2C2.000
T1C2.800
%
G90
M71
T1
X83800Y7450
X4700Y7450
X77800Y96000
X10800Y96000
T2
X39850Y75000
X48650Y75000
X18700Y51000
X9900Y51000
X74200Y57000
X74200Y45000
X44250Y46600
X44250Y55400
T3
X36452Y95843
X36452Y93236
X60647Y3285
X47108Y3285
X47778Y34370
X43485Y34337
T4
X66150Y21885
X78850Y21885
X78850Y38115
X22350Y38115
X22350Y21885
X9650Y38115
X9650Y21885
X14680Y13500
X17880Y13500
X21080Y13500
X21080Y16500
X17880Y16500
X14680Y16500
X66150Y38115
T5
X12180Y12000
X23580Y18000
T6
X76870Y13627
X65739Y80097
X65739Y77557
X76870Y16167
X76870Y11087
X46739Y86989
X76870Y8547
X76870Y6007
X76870Y3467
X65739Y75017
X16739Y80097
X16739Y77557
X16739Y75017
X41659Y86989
X44199Y86989
T7
X47778Y30033
X33229Y97330
X33229Y91800
X56168Y3285
X43529Y30037
X51587Y3285
T8
X44250Y75000
X16800Y44000
X37250Y48500
X85200Y48000
X85200Y50000
X85200Y52000
X44250Y51000
X74200Y51000
X14300Y51000
X85200Y46000
X85200Y56000
X85200Y54000
X46750Y82000
X37250Y51000
X44250Y82000
X37250Y53500
X14300Y44000
X11800Y44000
X41750Y82000
T9
X57091Y66465
X57091Y63925
X57091Y61385
T10
X40977Y61564
X64928Y60569
X62388Y60569
X62601Y56879
X44744Y63804
X40977Y64104
X28236Y92305
X25696Y92305
X33256Y2071
X35796Y2071
X44744Y61264
X65141Y56879
T11
X75640Y87611
X68020Y87611
X51697Y21201
X49792Y22471
X51697Y23741
T12
X25604Y96582
X27604Y96582
X35890Y37880
X37890Y37880
X20343Y55057
X18329Y96566
X81255Y63534
X40311Y14496
X42311Y14496
X20329Y96566
X20343Y57057
X83255Y63534
X27394Y65848
X25609Y59848
X27609Y59848
X25394Y65848
X32179Y50938
X84107Y77758
X32179Y52938
X78818Y83241
X86107Y77758
X80818Y83241
T13
X45638Y67203
X40638Y67203
X60471Y64141
X47756Y64863
X52756Y64863
X83291Y59275
X78291Y59275
X65471Y64141
X65786Y53064
X65786Y48064
X75225Y76676
X51372Y43446
X51372Y38446
X70225Y76676
T14
X38026Y16361
X11458Y64394
X73121Y60861
T15
X60683Y51637
X49866Y50004
X74358Y71231
X31089Y12246
X54764Y54086
X81706Y66537
X72521Y71231
M30