G04 EAGLE Gerber X2 export*
%TF.Part,Single*%
%TF.FileFunction,Legend,Bot,1*%
%TF.FilePolarity,Positive*%
%TF.GenerationSoftware,Autodesk,EAGLE,9.2.2*%
%TF.CreationDate,2019-04-19T13:44:37Z*%
G75*
%MOMM*%
%FSLAX34Y34*%
%LPD*%
%INSilkscreen Bottom*%
%AMOC8*
5,1,8,0,0,1.08239X$1,22.5*%
G01*
%ADD10C,0.127000*%
%ADD11C,0.101600*%
%ADD12C,0.152400*%
%ADD13C,0.203200*%
%ADD14C,0.200000*%


D10*
X796051Y635345D02*
X796059Y635995D01*
X796083Y636645D01*
X796123Y637294D01*
X796179Y637942D01*
X796250Y638589D01*
X796338Y639233D01*
X796441Y639875D01*
X796560Y640515D01*
X796695Y641151D01*
X796845Y641784D01*
X797011Y642413D01*
X797192Y643038D01*
X797389Y643658D01*
X797600Y644273D01*
X797827Y644882D01*
X798068Y645486D01*
X798324Y646084D01*
X798595Y646675D01*
X798881Y647260D01*
X799180Y647837D01*
X799494Y648407D01*
X799821Y648969D01*
X800162Y649522D01*
X800517Y650068D01*
X800885Y650604D01*
X801266Y651131D01*
X801660Y651649D01*
X802066Y652156D01*
X802485Y652654D01*
X802916Y653141D01*
X803358Y653618D01*
X803813Y654083D01*
X804278Y654538D01*
X804755Y654980D01*
X805242Y655411D01*
X805740Y655830D01*
X806247Y656236D01*
X806765Y656630D01*
X807292Y657011D01*
X807828Y657379D01*
X808374Y657734D01*
X808927Y658075D01*
X809489Y658402D01*
X810059Y658716D01*
X810636Y659015D01*
X811221Y659301D01*
X811812Y659572D01*
X812410Y659828D01*
X813014Y660069D01*
X813623Y660296D01*
X814238Y660507D01*
X814858Y660704D01*
X815483Y660885D01*
X816112Y661051D01*
X816745Y661201D01*
X817381Y661336D01*
X818021Y661455D01*
X818663Y661558D01*
X819307Y661646D01*
X819954Y661717D01*
X820602Y661773D01*
X821251Y661813D01*
X821901Y661837D01*
X822551Y661845D01*
X823201Y661837D01*
X823851Y661813D01*
X824500Y661773D01*
X825148Y661717D01*
X825795Y661646D01*
X826439Y661558D01*
X827081Y661455D01*
X827721Y661336D01*
X828357Y661201D01*
X828990Y661051D01*
X829619Y660885D01*
X830244Y660704D01*
X830864Y660507D01*
X831479Y660296D01*
X832088Y660069D01*
X832692Y659828D01*
X833290Y659572D01*
X833881Y659301D01*
X834466Y659015D01*
X835043Y658716D01*
X835613Y658402D01*
X836175Y658075D01*
X836728Y657734D01*
X837274Y657379D01*
X837810Y657011D01*
X838337Y656630D01*
X838855Y656236D01*
X839362Y655830D01*
X839860Y655411D01*
X840347Y654980D01*
X840824Y654538D01*
X841289Y654083D01*
X841744Y653618D01*
X842186Y653141D01*
X842617Y652654D01*
X843036Y652156D01*
X843442Y651649D01*
X843836Y651131D01*
X844217Y650604D01*
X844585Y650068D01*
X844940Y649522D01*
X845281Y648969D01*
X845608Y648407D01*
X845922Y647837D01*
X846221Y647260D01*
X846507Y646675D01*
X846778Y646084D01*
X847034Y645486D01*
X847275Y644882D01*
X847502Y644273D01*
X847713Y643658D01*
X847910Y643038D01*
X848091Y642413D01*
X848257Y641784D01*
X848407Y641151D01*
X848542Y640515D01*
X848661Y639875D01*
X848764Y639233D01*
X848852Y638589D01*
X848923Y637942D01*
X848979Y637294D01*
X849019Y636645D01*
X849043Y635995D01*
X849051Y635345D01*
X849043Y634695D01*
X849019Y634045D01*
X848979Y633396D01*
X848923Y632748D01*
X848852Y632101D01*
X848764Y631457D01*
X848661Y630815D01*
X848542Y630175D01*
X848407Y629539D01*
X848257Y628906D01*
X848091Y628277D01*
X847910Y627652D01*
X847713Y627032D01*
X847502Y626417D01*
X847275Y625808D01*
X847034Y625204D01*
X846778Y624606D01*
X846507Y624015D01*
X846221Y623430D01*
X845922Y622853D01*
X845608Y622283D01*
X845281Y621721D01*
X844940Y621168D01*
X844585Y620622D01*
X844217Y620086D01*
X843836Y619559D01*
X843442Y619041D01*
X843036Y618534D01*
X842617Y618036D01*
X842186Y617549D01*
X841744Y617072D01*
X841289Y616607D01*
X840824Y616152D01*
X840347Y615710D01*
X839860Y615279D01*
X839362Y614860D01*
X838855Y614454D01*
X838337Y614060D01*
X837810Y613679D01*
X837274Y613311D01*
X836728Y612956D01*
X836175Y612615D01*
X835613Y612288D01*
X835043Y611974D01*
X834466Y611675D01*
X833881Y611389D01*
X833290Y611118D01*
X832692Y610862D01*
X832088Y610621D01*
X831479Y610394D01*
X830864Y610183D01*
X830244Y609986D01*
X829619Y609805D01*
X828990Y609639D01*
X828357Y609489D01*
X827721Y609354D01*
X827081Y609235D01*
X826439Y609132D01*
X825795Y609044D01*
X825148Y608973D01*
X824500Y608917D01*
X823851Y608877D01*
X823201Y608853D01*
X822551Y608845D01*
X821901Y608853D01*
X821251Y608877D01*
X820602Y608917D01*
X819954Y608973D01*
X819307Y609044D01*
X818663Y609132D01*
X818021Y609235D01*
X817381Y609354D01*
X816745Y609489D01*
X816112Y609639D01*
X815483Y609805D01*
X814858Y609986D01*
X814238Y610183D01*
X813623Y610394D01*
X813014Y610621D01*
X812410Y610862D01*
X811812Y611118D01*
X811221Y611389D01*
X810636Y611675D01*
X810059Y611974D01*
X809489Y612288D01*
X808927Y612615D01*
X808374Y612956D01*
X807828Y613311D01*
X807292Y613679D01*
X806765Y614060D01*
X806247Y614454D01*
X805740Y614860D01*
X805242Y615279D01*
X804755Y615710D01*
X804278Y616152D01*
X803813Y616607D01*
X803358Y617072D01*
X802916Y617549D01*
X802485Y618036D01*
X802066Y618534D01*
X801660Y619041D01*
X801266Y619559D01*
X800885Y620086D01*
X800517Y620622D01*
X800162Y621168D01*
X799821Y621721D01*
X799494Y622283D01*
X799180Y622853D01*
X798881Y623430D01*
X798595Y624015D01*
X798324Y624606D01*
X798068Y625204D01*
X797827Y625808D01*
X797600Y626417D01*
X797389Y627032D01*
X797192Y627652D01*
X797011Y628277D01*
X796845Y628906D01*
X796695Y629539D01*
X796560Y630175D01*
X796441Y630815D01*
X796338Y631457D01*
X796250Y632101D01*
X796179Y632748D01*
X796123Y633396D01*
X796083Y634045D01*
X796059Y634695D01*
X796051Y635345D01*
X784451Y635345D02*
X778101Y635345D01*
X784451Y635345D02*
X790801Y635345D01*
X784451Y635345D02*
X784451Y641695D01*
X784451Y635345D02*
X784451Y628995D01*
X822551Y651855D02*
X822551Y662015D01*
X822551Y651855D02*
X822551Y645505D01*
X822551Y639155D01*
X822551Y620105D01*
X822551Y612485D01*
X822551Y608675D01*
X822551Y612485D02*
X845411Y622645D01*
X847951Y631535D02*
X822551Y620105D01*
X838426Y641695D02*
X846681Y645505D01*
X844141Y650585D02*
X822551Y639155D01*
X822551Y645505D02*
X840331Y655030D01*
X835251Y658840D02*
X822551Y651855D01*
X840051Y635345D02*
X846681Y639155D01*
X237439Y658477D02*
X237447Y659127D01*
X237471Y659777D01*
X237511Y660426D01*
X237567Y661074D01*
X237638Y661721D01*
X237726Y662365D01*
X237829Y663007D01*
X237948Y663647D01*
X238083Y664283D01*
X238233Y664916D01*
X238399Y665545D01*
X238580Y666170D01*
X238777Y666790D01*
X238988Y667405D01*
X239215Y668014D01*
X239456Y668618D01*
X239712Y669216D01*
X239983Y669807D01*
X240269Y670392D01*
X240568Y670969D01*
X240882Y671539D01*
X241209Y672101D01*
X241550Y672654D01*
X241905Y673200D01*
X242273Y673736D01*
X242654Y674263D01*
X243048Y674781D01*
X243454Y675288D01*
X243873Y675786D01*
X244304Y676273D01*
X244746Y676750D01*
X245201Y677215D01*
X245666Y677670D01*
X246143Y678112D01*
X246630Y678543D01*
X247128Y678962D01*
X247635Y679368D01*
X248153Y679762D01*
X248680Y680143D01*
X249216Y680511D01*
X249762Y680866D01*
X250315Y681207D01*
X250877Y681534D01*
X251447Y681848D01*
X252024Y682147D01*
X252609Y682433D01*
X253200Y682704D01*
X253798Y682960D01*
X254402Y683201D01*
X255011Y683428D01*
X255626Y683639D01*
X256246Y683836D01*
X256871Y684017D01*
X257500Y684183D01*
X258133Y684333D01*
X258769Y684468D01*
X259409Y684587D01*
X260051Y684690D01*
X260695Y684778D01*
X261342Y684849D01*
X261990Y684905D01*
X262639Y684945D01*
X263289Y684969D01*
X263939Y684977D01*
X264589Y684969D01*
X265239Y684945D01*
X265888Y684905D01*
X266536Y684849D01*
X267183Y684778D01*
X267827Y684690D01*
X268469Y684587D01*
X269109Y684468D01*
X269745Y684333D01*
X270378Y684183D01*
X271007Y684017D01*
X271632Y683836D01*
X272252Y683639D01*
X272867Y683428D01*
X273476Y683201D01*
X274080Y682960D01*
X274678Y682704D01*
X275269Y682433D01*
X275854Y682147D01*
X276431Y681848D01*
X277001Y681534D01*
X277563Y681207D01*
X278116Y680866D01*
X278662Y680511D01*
X279198Y680143D01*
X279725Y679762D01*
X280243Y679368D01*
X280750Y678962D01*
X281248Y678543D01*
X281735Y678112D01*
X282212Y677670D01*
X282677Y677215D01*
X283132Y676750D01*
X283574Y676273D01*
X284005Y675786D01*
X284424Y675288D01*
X284830Y674781D01*
X285224Y674263D01*
X285605Y673736D01*
X285973Y673200D01*
X286328Y672654D01*
X286669Y672101D01*
X286996Y671539D01*
X287310Y670969D01*
X287609Y670392D01*
X287895Y669807D01*
X288166Y669216D01*
X288422Y668618D01*
X288663Y668014D01*
X288890Y667405D01*
X289101Y666790D01*
X289298Y666170D01*
X289479Y665545D01*
X289645Y664916D01*
X289795Y664283D01*
X289930Y663647D01*
X290049Y663007D01*
X290152Y662365D01*
X290240Y661721D01*
X290311Y661074D01*
X290367Y660426D01*
X290407Y659777D01*
X290431Y659127D01*
X290439Y658477D01*
X290431Y657827D01*
X290407Y657177D01*
X290367Y656528D01*
X290311Y655880D01*
X290240Y655233D01*
X290152Y654589D01*
X290049Y653947D01*
X289930Y653307D01*
X289795Y652671D01*
X289645Y652038D01*
X289479Y651409D01*
X289298Y650784D01*
X289101Y650164D01*
X288890Y649549D01*
X288663Y648940D01*
X288422Y648336D01*
X288166Y647738D01*
X287895Y647147D01*
X287609Y646562D01*
X287310Y645985D01*
X286996Y645415D01*
X286669Y644853D01*
X286328Y644300D01*
X285973Y643754D01*
X285605Y643218D01*
X285224Y642691D01*
X284830Y642173D01*
X284424Y641666D01*
X284005Y641168D01*
X283574Y640681D01*
X283132Y640204D01*
X282677Y639739D01*
X282212Y639284D01*
X281735Y638842D01*
X281248Y638411D01*
X280750Y637992D01*
X280243Y637586D01*
X279725Y637192D01*
X279198Y636811D01*
X278662Y636443D01*
X278116Y636088D01*
X277563Y635747D01*
X277001Y635420D01*
X276431Y635106D01*
X275854Y634807D01*
X275269Y634521D01*
X274678Y634250D01*
X274080Y633994D01*
X273476Y633753D01*
X272867Y633526D01*
X272252Y633315D01*
X271632Y633118D01*
X271007Y632937D01*
X270378Y632771D01*
X269745Y632621D01*
X269109Y632486D01*
X268469Y632367D01*
X267827Y632264D01*
X267183Y632176D01*
X266536Y632105D01*
X265888Y632049D01*
X265239Y632009D01*
X264589Y631985D01*
X263939Y631977D01*
X263289Y631985D01*
X262639Y632009D01*
X261990Y632049D01*
X261342Y632105D01*
X260695Y632176D01*
X260051Y632264D01*
X259409Y632367D01*
X258769Y632486D01*
X258133Y632621D01*
X257500Y632771D01*
X256871Y632937D01*
X256246Y633118D01*
X255626Y633315D01*
X255011Y633526D01*
X254402Y633753D01*
X253798Y633994D01*
X253200Y634250D01*
X252609Y634521D01*
X252024Y634807D01*
X251447Y635106D01*
X250877Y635420D01*
X250315Y635747D01*
X249762Y636088D01*
X249216Y636443D01*
X248680Y636811D01*
X248153Y637192D01*
X247635Y637586D01*
X247128Y637992D01*
X246630Y638411D01*
X246143Y638842D01*
X245666Y639284D01*
X245201Y639739D01*
X244746Y640204D01*
X244304Y640681D01*
X243873Y641168D01*
X243454Y641666D01*
X243048Y642173D01*
X242654Y642691D01*
X242273Y643218D01*
X241905Y643754D01*
X241550Y644300D01*
X241209Y644853D01*
X240882Y645415D01*
X240568Y645985D01*
X240269Y646562D01*
X239983Y647147D01*
X239712Y647738D01*
X239456Y648336D01*
X239215Y648940D01*
X238988Y649549D01*
X238777Y650164D01*
X238580Y650784D01*
X238399Y651409D01*
X238233Y652038D01*
X238083Y652671D01*
X237948Y653307D01*
X237829Y653947D01*
X237726Y654589D01*
X237638Y655233D01*
X237567Y655880D01*
X237511Y656528D01*
X237471Y657177D01*
X237447Y657827D01*
X237439Y658477D01*
X302039Y658477D02*
X308389Y658477D01*
X302039Y658477D02*
X295689Y658477D01*
X302039Y658477D02*
X302039Y652127D01*
X302039Y658477D02*
X302039Y664827D01*
X263939Y641967D02*
X263939Y631807D01*
X263939Y641967D02*
X263939Y648317D01*
X263939Y654667D01*
X263939Y673717D01*
X263939Y681337D01*
X263939Y685147D01*
X263939Y681337D02*
X241079Y671177D01*
X238539Y662287D02*
X263939Y673717D01*
X248064Y652127D02*
X239809Y648317D01*
X242349Y643237D02*
X263939Y654667D01*
X263939Y648317D02*
X246159Y638792D01*
X251239Y634982D02*
X263939Y641967D01*
X246439Y658477D02*
X239809Y654667D01*
X295294Y519377D02*
X295302Y520027D01*
X295326Y520677D01*
X295366Y521326D01*
X295422Y521974D01*
X295493Y522621D01*
X295581Y523265D01*
X295684Y523907D01*
X295803Y524547D01*
X295938Y525183D01*
X296088Y525816D01*
X296254Y526445D01*
X296435Y527070D01*
X296632Y527690D01*
X296843Y528305D01*
X297070Y528914D01*
X297311Y529518D01*
X297567Y530116D01*
X297838Y530707D01*
X298124Y531292D01*
X298423Y531869D01*
X298737Y532439D01*
X299064Y533001D01*
X299405Y533554D01*
X299760Y534100D01*
X300128Y534636D01*
X300509Y535163D01*
X300903Y535681D01*
X301309Y536188D01*
X301728Y536686D01*
X302159Y537173D01*
X302601Y537650D01*
X303056Y538115D01*
X303521Y538570D01*
X303998Y539012D01*
X304485Y539443D01*
X304983Y539862D01*
X305490Y540268D01*
X306008Y540662D01*
X306535Y541043D01*
X307071Y541411D01*
X307617Y541766D01*
X308170Y542107D01*
X308732Y542434D01*
X309302Y542748D01*
X309879Y543047D01*
X310464Y543333D01*
X311055Y543604D01*
X311653Y543860D01*
X312257Y544101D01*
X312866Y544328D01*
X313481Y544539D01*
X314101Y544736D01*
X314726Y544917D01*
X315355Y545083D01*
X315988Y545233D01*
X316624Y545368D01*
X317264Y545487D01*
X317906Y545590D01*
X318550Y545678D01*
X319197Y545749D01*
X319845Y545805D01*
X320494Y545845D01*
X321144Y545869D01*
X321794Y545877D01*
X322444Y545869D01*
X323094Y545845D01*
X323743Y545805D01*
X324391Y545749D01*
X325038Y545678D01*
X325682Y545590D01*
X326324Y545487D01*
X326964Y545368D01*
X327600Y545233D01*
X328233Y545083D01*
X328862Y544917D01*
X329487Y544736D01*
X330107Y544539D01*
X330722Y544328D01*
X331331Y544101D01*
X331935Y543860D01*
X332533Y543604D01*
X333124Y543333D01*
X333709Y543047D01*
X334286Y542748D01*
X334856Y542434D01*
X335418Y542107D01*
X335971Y541766D01*
X336517Y541411D01*
X337053Y541043D01*
X337580Y540662D01*
X338098Y540268D01*
X338605Y539862D01*
X339103Y539443D01*
X339590Y539012D01*
X340067Y538570D01*
X340532Y538115D01*
X340987Y537650D01*
X341429Y537173D01*
X341860Y536686D01*
X342279Y536188D01*
X342685Y535681D01*
X343079Y535163D01*
X343460Y534636D01*
X343828Y534100D01*
X344183Y533554D01*
X344524Y533001D01*
X344851Y532439D01*
X345165Y531869D01*
X345464Y531292D01*
X345750Y530707D01*
X346021Y530116D01*
X346277Y529518D01*
X346518Y528914D01*
X346745Y528305D01*
X346956Y527690D01*
X347153Y527070D01*
X347334Y526445D01*
X347500Y525816D01*
X347650Y525183D01*
X347785Y524547D01*
X347904Y523907D01*
X348007Y523265D01*
X348095Y522621D01*
X348166Y521974D01*
X348222Y521326D01*
X348262Y520677D01*
X348286Y520027D01*
X348294Y519377D01*
X348286Y518727D01*
X348262Y518077D01*
X348222Y517428D01*
X348166Y516780D01*
X348095Y516133D01*
X348007Y515489D01*
X347904Y514847D01*
X347785Y514207D01*
X347650Y513571D01*
X347500Y512938D01*
X347334Y512309D01*
X347153Y511684D01*
X346956Y511064D01*
X346745Y510449D01*
X346518Y509840D01*
X346277Y509236D01*
X346021Y508638D01*
X345750Y508047D01*
X345464Y507462D01*
X345165Y506885D01*
X344851Y506315D01*
X344524Y505753D01*
X344183Y505200D01*
X343828Y504654D01*
X343460Y504118D01*
X343079Y503591D01*
X342685Y503073D01*
X342279Y502566D01*
X341860Y502068D01*
X341429Y501581D01*
X340987Y501104D01*
X340532Y500639D01*
X340067Y500184D01*
X339590Y499742D01*
X339103Y499311D01*
X338605Y498892D01*
X338098Y498486D01*
X337580Y498092D01*
X337053Y497711D01*
X336517Y497343D01*
X335971Y496988D01*
X335418Y496647D01*
X334856Y496320D01*
X334286Y496006D01*
X333709Y495707D01*
X333124Y495421D01*
X332533Y495150D01*
X331935Y494894D01*
X331331Y494653D01*
X330722Y494426D01*
X330107Y494215D01*
X329487Y494018D01*
X328862Y493837D01*
X328233Y493671D01*
X327600Y493521D01*
X326964Y493386D01*
X326324Y493267D01*
X325682Y493164D01*
X325038Y493076D01*
X324391Y493005D01*
X323743Y492949D01*
X323094Y492909D01*
X322444Y492885D01*
X321794Y492877D01*
X321144Y492885D01*
X320494Y492909D01*
X319845Y492949D01*
X319197Y493005D01*
X318550Y493076D01*
X317906Y493164D01*
X317264Y493267D01*
X316624Y493386D01*
X315988Y493521D01*
X315355Y493671D01*
X314726Y493837D01*
X314101Y494018D01*
X313481Y494215D01*
X312866Y494426D01*
X312257Y494653D01*
X311653Y494894D01*
X311055Y495150D01*
X310464Y495421D01*
X309879Y495707D01*
X309302Y496006D01*
X308732Y496320D01*
X308170Y496647D01*
X307617Y496988D01*
X307071Y497343D01*
X306535Y497711D01*
X306008Y498092D01*
X305490Y498486D01*
X304983Y498892D01*
X304485Y499311D01*
X303998Y499742D01*
X303521Y500184D01*
X303056Y500639D01*
X302601Y501104D01*
X302159Y501581D01*
X301728Y502068D01*
X301309Y502566D01*
X300903Y503073D01*
X300509Y503591D01*
X300128Y504118D01*
X299760Y504654D01*
X299405Y505200D01*
X299064Y505753D01*
X298737Y506315D01*
X298423Y506885D01*
X298124Y507462D01*
X297838Y508047D01*
X297567Y508638D01*
X297311Y509236D01*
X297070Y509840D01*
X296843Y510449D01*
X296632Y511064D01*
X296435Y511684D01*
X296254Y512309D01*
X296088Y512938D01*
X295938Y513571D01*
X295803Y514207D01*
X295684Y514847D01*
X295581Y515489D01*
X295493Y516133D01*
X295422Y516780D01*
X295366Y517428D01*
X295326Y518077D01*
X295302Y518727D01*
X295294Y519377D01*
X321794Y481277D02*
X321794Y474927D01*
X321794Y481277D02*
X321794Y487627D01*
X321794Y481277D02*
X315444Y481277D01*
X321794Y481277D02*
X328144Y481277D01*
X305284Y519377D02*
X295124Y519377D01*
X305284Y519377D02*
X311634Y519377D01*
X317984Y519377D01*
X337034Y519377D01*
X344654Y519377D01*
X348464Y519377D01*
X344654Y519377D02*
X334494Y542237D01*
X325604Y544777D02*
X337034Y519377D01*
X315444Y535252D02*
X311634Y543507D01*
X306554Y540967D02*
X317984Y519377D01*
X311634Y519377D02*
X302109Y537157D01*
X298299Y532077D02*
X305284Y519377D01*
X321794Y536877D02*
X317984Y543507D01*
X771682Y832407D02*
X771690Y833057D01*
X771714Y833707D01*
X771754Y834356D01*
X771810Y835004D01*
X771881Y835651D01*
X771969Y836295D01*
X772072Y836937D01*
X772191Y837577D01*
X772326Y838213D01*
X772476Y838846D01*
X772642Y839475D01*
X772823Y840100D01*
X773020Y840720D01*
X773231Y841335D01*
X773458Y841944D01*
X773699Y842548D01*
X773955Y843146D01*
X774226Y843737D01*
X774512Y844322D01*
X774811Y844899D01*
X775125Y845469D01*
X775452Y846031D01*
X775793Y846584D01*
X776148Y847130D01*
X776516Y847666D01*
X776897Y848193D01*
X777291Y848711D01*
X777697Y849218D01*
X778116Y849716D01*
X778547Y850203D01*
X778989Y850680D01*
X779444Y851145D01*
X779909Y851600D01*
X780386Y852042D01*
X780873Y852473D01*
X781371Y852892D01*
X781878Y853298D01*
X782396Y853692D01*
X782923Y854073D01*
X783459Y854441D01*
X784005Y854796D01*
X784558Y855137D01*
X785120Y855464D01*
X785690Y855778D01*
X786267Y856077D01*
X786852Y856363D01*
X787443Y856634D01*
X788041Y856890D01*
X788645Y857131D01*
X789254Y857358D01*
X789869Y857569D01*
X790489Y857766D01*
X791114Y857947D01*
X791743Y858113D01*
X792376Y858263D01*
X793012Y858398D01*
X793652Y858517D01*
X794294Y858620D01*
X794938Y858708D01*
X795585Y858779D01*
X796233Y858835D01*
X796882Y858875D01*
X797532Y858899D01*
X798182Y858907D01*
X798832Y858899D01*
X799482Y858875D01*
X800131Y858835D01*
X800779Y858779D01*
X801426Y858708D01*
X802070Y858620D01*
X802712Y858517D01*
X803352Y858398D01*
X803988Y858263D01*
X804621Y858113D01*
X805250Y857947D01*
X805875Y857766D01*
X806495Y857569D01*
X807110Y857358D01*
X807719Y857131D01*
X808323Y856890D01*
X808921Y856634D01*
X809512Y856363D01*
X810097Y856077D01*
X810674Y855778D01*
X811244Y855464D01*
X811806Y855137D01*
X812359Y854796D01*
X812905Y854441D01*
X813441Y854073D01*
X813968Y853692D01*
X814486Y853298D01*
X814993Y852892D01*
X815491Y852473D01*
X815978Y852042D01*
X816455Y851600D01*
X816920Y851145D01*
X817375Y850680D01*
X817817Y850203D01*
X818248Y849716D01*
X818667Y849218D01*
X819073Y848711D01*
X819467Y848193D01*
X819848Y847666D01*
X820216Y847130D01*
X820571Y846584D01*
X820912Y846031D01*
X821239Y845469D01*
X821553Y844899D01*
X821852Y844322D01*
X822138Y843737D01*
X822409Y843146D01*
X822665Y842548D01*
X822906Y841944D01*
X823133Y841335D01*
X823344Y840720D01*
X823541Y840100D01*
X823722Y839475D01*
X823888Y838846D01*
X824038Y838213D01*
X824173Y837577D01*
X824292Y836937D01*
X824395Y836295D01*
X824483Y835651D01*
X824554Y835004D01*
X824610Y834356D01*
X824650Y833707D01*
X824674Y833057D01*
X824682Y832407D01*
X824674Y831757D01*
X824650Y831107D01*
X824610Y830458D01*
X824554Y829810D01*
X824483Y829163D01*
X824395Y828519D01*
X824292Y827877D01*
X824173Y827237D01*
X824038Y826601D01*
X823888Y825968D01*
X823722Y825339D01*
X823541Y824714D01*
X823344Y824094D01*
X823133Y823479D01*
X822906Y822870D01*
X822665Y822266D01*
X822409Y821668D01*
X822138Y821077D01*
X821852Y820492D01*
X821553Y819915D01*
X821239Y819345D01*
X820912Y818783D01*
X820571Y818230D01*
X820216Y817684D01*
X819848Y817148D01*
X819467Y816621D01*
X819073Y816103D01*
X818667Y815596D01*
X818248Y815098D01*
X817817Y814611D01*
X817375Y814134D01*
X816920Y813669D01*
X816455Y813214D01*
X815978Y812772D01*
X815491Y812341D01*
X814993Y811922D01*
X814486Y811516D01*
X813968Y811122D01*
X813441Y810741D01*
X812905Y810373D01*
X812359Y810018D01*
X811806Y809677D01*
X811244Y809350D01*
X810674Y809036D01*
X810097Y808737D01*
X809512Y808451D01*
X808921Y808180D01*
X808323Y807924D01*
X807719Y807683D01*
X807110Y807456D01*
X806495Y807245D01*
X805875Y807048D01*
X805250Y806867D01*
X804621Y806701D01*
X803988Y806551D01*
X803352Y806416D01*
X802712Y806297D01*
X802070Y806194D01*
X801426Y806106D01*
X800779Y806035D01*
X800131Y805979D01*
X799482Y805939D01*
X798832Y805915D01*
X798182Y805907D01*
X797532Y805915D01*
X796882Y805939D01*
X796233Y805979D01*
X795585Y806035D01*
X794938Y806106D01*
X794294Y806194D01*
X793652Y806297D01*
X793012Y806416D01*
X792376Y806551D01*
X791743Y806701D01*
X791114Y806867D01*
X790489Y807048D01*
X789869Y807245D01*
X789254Y807456D01*
X788645Y807683D01*
X788041Y807924D01*
X787443Y808180D01*
X786852Y808451D01*
X786267Y808737D01*
X785690Y809036D01*
X785120Y809350D01*
X784558Y809677D01*
X784005Y810018D01*
X783459Y810373D01*
X782923Y810741D01*
X782396Y811122D01*
X781878Y811516D01*
X781371Y811922D01*
X780873Y812341D01*
X780386Y812772D01*
X779909Y813214D01*
X779444Y813669D01*
X778989Y814134D01*
X778547Y814611D01*
X778116Y815098D01*
X777697Y815596D01*
X777291Y816103D01*
X776897Y816621D01*
X776516Y817148D01*
X776148Y817684D01*
X775793Y818230D01*
X775452Y818783D01*
X775125Y819345D01*
X774811Y819915D01*
X774512Y820492D01*
X774226Y821077D01*
X773955Y821668D01*
X773699Y822266D01*
X773458Y822870D01*
X773231Y823479D01*
X773020Y824094D01*
X772823Y824714D01*
X772642Y825339D01*
X772476Y825968D01*
X772326Y826601D01*
X772191Y827237D01*
X772072Y827877D01*
X771969Y828519D01*
X771881Y829163D01*
X771810Y829810D01*
X771754Y830458D01*
X771714Y831107D01*
X771690Y831757D01*
X771682Y832407D01*
X760082Y832407D02*
X753732Y832407D01*
X760082Y832407D02*
X766432Y832407D01*
X760082Y832407D02*
X760082Y838757D01*
X760082Y832407D02*
X760082Y826057D01*
X798182Y848917D02*
X798182Y859077D01*
X798182Y848917D02*
X798182Y842567D01*
X798182Y836217D01*
X798182Y817167D01*
X798182Y809547D01*
X798182Y805737D01*
X798182Y809547D02*
X821042Y819707D01*
X823582Y828597D02*
X798182Y817167D01*
X814057Y838757D02*
X822312Y842567D01*
X819772Y847647D02*
X798182Y836217D01*
X798182Y842567D02*
X815962Y852092D01*
X810882Y855902D02*
X798182Y848917D01*
X815682Y832407D02*
X822312Y836217D01*
X824571Y777583D02*
X824579Y778233D01*
X824603Y778883D01*
X824643Y779532D01*
X824699Y780180D01*
X824770Y780827D01*
X824858Y781471D01*
X824961Y782113D01*
X825080Y782753D01*
X825215Y783389D01*
X825365Y784022D01*
X825531Y784651D01*
X825712Y785276D01*
X825909Y785896D01*
X826120Y786511D01*
X826347Y787120D01*
X826588Y787724D01*
X826844Y788322D01*
X827115Y788913D01*
X827401Y789498D01*
X827700Y790075D01*
X828014Y790645D01*
X828341Y791207D01*
X828682Y791760D01*
X829037Y792306D01*
X829405Y792842D01*
X829786Y793369D01*
X830180Y793887D01*
X830586Y794394D01*
X831005Y794892D01*
X831436Y795379D01*
X831878Y795856D01*
X832333Y796321D01*
X832798Y796776D01*
X833275Y797218D01*
X833762Y797649D01*
X834260Y798068D01*
X834767Y798474D01*
X835285Y798868D01*
X835812Y799249D01*
X836348Y799617D01*
X836894Y799972D01*
X837447Y800313D01*
X838009Y800640D01*
X838579Y800954D01*
X839156Y801253D01*
X839741Y801539D01*
X840332Y801810D01*
X840930Y802066D01*
X841534Y802307D01*
X842143Y802534D01*
X842758Y802745D01*
X843378Y802942D01*
X844003Y803123D01*
X844632Y803289D01*
X845265Y803439D01*
X845901Y803574D01*
X846541Y803693D01*
X847183Y803796D01*
X847827Y803884D01*
X848474Y803955D01*
X849122Y804011D01*
X849771Y804051D01*
X850421Y804075D01*
X851071Y804083D01*
X851721Y804075D01*
X852371Y804051D01*
X853020Y804011D01*
X853668Y803955D01*
X854315Y803884D01*
X854959Y803796D01*
X855601Y803693D01*
X856241Y803574D01*
X856877Y803439D01*
X857510Y803289D01*
X858139Y803123D01*
X858764Y802942D01*
X859384Y802745D01*
X859999Y802534D01*
X860608Y802307D01*
X861212Y802066D01*
X861810Y801810D01*
X862401Y801539D01*
X862986Y801253D01*
X863563Y800954D01*
X864133Y800640D01*
X864695Y800313D01*
X865248Y799972D01*
X865794Y799617D01*
X866330Y799249D01*
X866857Y798868D01*
X867375Y798474D01*
X867882Y798068D01*
X868380Y797649D01*
X868867Y797218D01*
X869344Y796776D01*
X869809Y796321D01*
X870264Y795856D01*
X870706Y795379D01*
X871137Y794892D01*
X871556Y794394D01*
X871962Y793887D01*
X872356Y793369D01*
X872737Y792842D01*
X873105Y792306D01*
X873460Y791760D01*
X873801Y791207D01*
X874128Y790645D01*
X874442Y790075D01*
X874741Y789498D01*
X875027Y788913D01*
X875298Y788322D01*
X875554Y787724D01*
X875795Y787120D01*
X876022Y786511D01*
X876233Y785896D01*
X876430Y785276D01*
X876611Y784651D01*
X876777Y784022D01*
X876927Y783389D01*
X877062Y782753D01*
X877181Y782113D01*
X877284Y781471D01*
X877372Y780827D01*
X877443Y780180D01*
X877499Y779532D01*
X877539Y778883D01*
X877563Y778233D01*
X877571Y777583D01*
X877563Y776933D01*
X877539Y776283D01*
X877499Y775634D01*
X877443Y774986D01*
X877372Y774339D01*
X877284Y773695D01*
X877181Y773053D01*
X877062Y772413D01*
X876927Y771777D01*
X876777Y771144D01*
X876611Y770515D01*
X876430Y769890D01*
X876233Y769270D01*
X876022Y768655D01*
X875795Y768046D01*
X875554Y767442D01*
X875298Y766844D01*
X875027Y766253D01*
X874741Y765668D01*
X874442Y765091D01*
X874128Y764521D01*
X873801Y763959D01*
X873460Y763406D01*
X873105Y762860D01*
X872737Y762324D01*
X872356Y761797D01*
X871962Y761279D01*
X871556Y760772D01*
X871137Y760274D01*
X870706Y759787D01*
X870264Y759310D01*
X869809Y758845D01*
X869344Y758390D01*
X868867Y757948D01*
X868380Y757517D01*
X867882Y757098D01*
X867375Y756692D01*
X866857Y756298D01*
X866330Y755917D01*
X865794Y755549D01*
X865248Y755194D01*
X864695Y754853D01*
X864133Y754526D01*
X863563Y754212D01*
X862986Y753913D01*
X862401Y753627D01*
X861810Y753356D01*
X861212Y753100D01*
X860608Y752859D01*
X859999Y752632D01*
X859384Y752421D01*
X858764Y752224D01*
X858139Y752043D01*
X857510Y751877D01*
X856877Y751727D01*
X856241Y751592D01*
X855601Y751473D01*
X854959Y751370D01*
X854315Y751282D01*
X853668Y751211D01*
X853020Y751155D01*
X852371Y751115D01*
X851721Y751091D01*
X851071Y751083D01*
X850421Y751091D01*
X849771Y751115D01*
X849122Y751155D01*
X848474Y751211D01*
X847827Y751282D01*
X847183Y751370D01*
X846541Y751473D01*
X845901Y751592D01*
X845265Y751727D01*
X844632Y751877D01*
X844003Y752043D01*
X843378Y752224D01*
X842758Y752421D01*
X842143Y752632D01*
X841534Y752859D01*
X840930Y753100D01*
X840332Y753356D01*
X839741Y753627D01*
X839156Y753913D01*
X838579Y754212D01*
X838009Y754526D01*
X837447Y754853D01*
X836894Y755194D01*
X836348Y755549D01*
X835812Y755917D01*
X835285Y756298D01*
X834767Y756692D01*
X834260Y757098D01*
X833762Y757517D01*
X833275Y757948D01*
X832798Y758390D01*
X832333Y758845D01*
X831878Y759310D01*
X831436Y759787D01*
X831005Y760274D01*
X830586Y760772D01*
X830180Y761279D01*
X829786Y761797D01*
X829405Y762324D01*
X829037Y762860D01*
X828682Y763406D01*
X828341Y763959D01*
X828014Y764521D01*
X827700Y765091D01*
X827401Y765668D01*
X827115Y766253D01*
X826844Y766844D01*
X826588Y767442D01*
X826347Y768046D01*
X826120Y768655D01*
X825909Y769270D01*
X825712Y769890D01*
X825531Y770515D01*
X825365Y771144D01*
X825215Y771777D01*
X825080Y772413D01*
X824961Y773053D01*
X824858Y773695D01*
X824770Y774339D01*
X824699Y774986D01*
X824643Y775634D01*
X824603Y776283D01*
X824579Y776933D01*
X824571Y777583D01*
X889171Y777583D02*
X895521Y777583D01*
X889171Y777583D02*
X882821Y777583D01*
X889171Y777583D02*
X889171Y771233D01*
X889171Y777583D02*
X889171Y783933D01*
X851071Y761073D02*
X851071Y750913D01*
X851071Y761073D02*
X851071Y767423D01*
X851071Y773773D01*
X851071Y792823D01*
X851071Y800443D01*
X851071Y804253D01*
X851071Y800443D02*
X828211Y790283D01*
X825671Y781393D02*
X851071Y792823D01*
X835196Y771233D02*
X826941Y767423D01*
X829481Y762343D02*
X851071Y773773D01*
X851071Y767423D02*
X833291Y757898D01*
X838371Y754088D02*
X851071Y761073D01*
X833571Y777583D02*
X826941Y773773D01*
X239589Y598484D02*
X239597Y599134D01*
X239621Y599784D01*
X239661Y600433D01*
X239717Y601081D01*
X239788Y601728D01*
X239876Y602372D01*
X239979Y603014D01*
X240098Y603654D01*
X240233Y604290D01*
X240383Y604923D01*
X240549Y605552D01*
X240730Y606177D01*
X240927Y606797D01*
X241138Y607412D01*
X241365Y608021D01*
X241606Y608625D01*
X241862Y609223D01*
X242133Y609814D01*
X242419Y610399D01*
X242718Y610976D01*
X243032Y611546D01*
X243359Y612108D01*
X243700Y612661D01*
X244055Y613207D01*
X244423Y613743D01*
X244804Y614270D01*
X245198Y614788D01*
X245604Y615295D01*
X246023Y615793D01*
X246454Y616280D01*
X246896Y616757D01*
X247351Y617222D01*
X247816Y617677D01*
X248293Y618119D01*
X248780Y618550D01*
X249278Y618969D01*
X249785Y619375D01*
X250303Y619769D01*
X250830Y620150D01*
X251366Y620518D01*
X251912Y620873D01*
X252465Y621214D01*
X253027Y621541D01*
X253597Y621855D01*
X254174Y622154D01*
X254759Y622440D01*
X255350Y622711D01*
X255948Y622967D01*
X256552Y623208D01*
X257161Y623435D01*
X257776Y623646D01*
X258396Y623843D01*
X259021Y624024D01*
X259650Y624190D01*
X260283Y624340D01*
X260919Y624475D01*
X261559Y624594D01*
X262201Y624697D01*
X262845Y624785D01*
X263492Y624856D01*
X264140Y624912D01*
X264789Y624952D01*
X265439Y624976D01*
X266089Y624984D01*
X266739Y624976D01*
X267389Y624952D01*
X268038Y624912D01*
X268686Y624856D01*
X269333Y624785D01*
X269977Y624697D01*
X270619Y624594D01*
X271259Y624475D01*
X271895Y624340D01*
X272528Y624190D01*
X273157Y624024D01*
X273782Y623843D01*
X274402Y623646D01*
X275017Y623435D01*
X275626Y623208D01*
X276230Y622967D01*
X276828Y622711D01*
X277419Y622440D01*
X278004Y622154D01*
X278581Y621855D01*
X279151Y621541D01*
X279713Y621214D01*
X280266Y620873D01*
X280812Y620518D01*
X281348Y620150D01*
X281875Y619769D01*
X282393Y619375D01*
X282900Y618969D01*
X283398Y618550D01*
X283885Y618119D01*
X284362Y617677D01*
X284827Y617222D01*
X285282Y616757D01*
X285724Y616280D01*
X286155Y615793D01*
X286574Y615295D01*
X286980Y614788D01*
X287374Y614270D01*
X287755Y613743D01*
X288123Y613207D01*
X288478Y612661D01*
X288819Y612108D01*
X289146Y611546D01*
X289460Y610976D01*
X289759Y610399D01*
X290045Y609814D01*
X290316Y609223D01*
X290572Y608625D01*
X290813Y608021D01*
X291040Y607412D01*
X291251Y606797D01*
X291448Y606177D01*
X291629Y605552D01*
X291795Y604923D01*
X291945Y604290D01*
X292080Y603654D01*
X292199Y603014D01*
X292302Y602372D01*
X292390Y601728D01*
X292461Y601081D01*
X292517Y600433D01*
X292557Y599784D01*
X292581Y599134D01*
X292589Y598484D01*
X292581Y597834D01*
X292557Y597184D01*
X292517Y596535D01*
X292461Y595887D01*
X292390Y595240D01*
X292302Y594596D01*
X292199Y593954D01*
X292080Y593314D01*
X291945Y592678D01*
X291795Y592045D01*
X291629Y591416D01*
X291448Y590791D01*
X291251Y590171D01*
X291040Y589556D01*
X290813Y588947D01*
X290572Y588343D01*
X290316Y587745D01*
X290045Y587154D01*
X289759Y586569D01*
X289460Y585992D01*
X289146Y585422D01*
X288819Y584860D01*
X288478Y584307D01*
X288123Y583761D01*
X287755Y583225D01*
X287374Y582698D01*
X286980Y582180D01*
X286574Y581673D01*
X286155Y581175D01*
X285724Y580688D01*
X285282Y580211D01*
X284827Y579746D01*
X284362Y579291D01*
X283885Y578849D01*
X283398Y578418D01*
X282900Y577999D01*
X282393Y577593D01*
X281875Y577199D01*
X281348Y576818D01*
X280812Y576450D01*
X280266Y576095D01*
X279713Y575754D01*
X279151Y575427D01*
X278581Y575113D01*
X278004Y574814D01*
X277419Y574528D01*
X276828Y574257D01*
X276230Y574001D01*
X275626Y573760D01*
X275017Y573533D01*
X274402Y573322D01*
X273782Y573125D01*
X273157Y572944D01*
X272528Y572778D01*
X271895Y572628D01*
X271259Y572493D01*
X270619Y572374D01*
X269977Y572271D01*
X269333Y572183D01*
X268686Y572112D01*
X268038Y572056D01*
X267389Y572016D01*
X266739Y571992D01*
X266089Y571984D01*
X265439Y571992D01*
X264789Y572016D01*
X264140Y572056D01*
X263492Y572112D01*
X262845Y572183D01*
X262201Y572271D01*
X261559Y572374D01*
X260919Y572493D01*
X260283Y572628D01*
X259650Y572778D01*
X259021Y572944D01*
X258396Y573125D01*
X257776Y573322D01*
X257161Y573533D01*
X256552Y573760D01*
X255948Y574001D01*
X255350Y574257D01*
X254759Y574528D01*
X254174Y574814D01*
X253597Y575113D01*
X253027Y575427D01*
X252465Y575754D01*
X251912Y576095D01*
X251366Y576450D01*
X250830Y576818D01*
X250303Y577199D01*
X249785Y577593D01*
X249278Y577999D01*
X248780Y578418D01*
X248293Y578849D01*
X247816Y579291D01*
X247351Y579746D01*
X246896Y580211D01*
X246454Y580688D01*
X246023Y581175D01*
X245604Y581673D01*
X245198Y582180D01*
X244804Y582698D01*
X244423Y583225D01*
X244055Y583761D01*
X243700Y584307D01*
X243359Y584860D01*
X243032Y585422D01*
X242718Y585992D01*
X242419Y586569D01*
X242133Y587154D01*
X241862Y587745D01*
X241606Y588343D01*
X241365Y588947D01*
X241138Y589556D01*
X240927Y590171D01*
X240730Y590791D01*
X240549Y591416D01*
X240383Y592045D01*
X240233Y592678D01*
X240098Y593314D01*
X239979Y593954D01*
X239876Y594596D01*
X239788Y595240D01*
X239717Y595887D01*
X239661Y596535D01*
X239621Y597184D01*
X239597Y597834D01*
X239589Y598484D01*
X304189Y598484D02*
X310539Y598484D01*
X304189Y598484D02*
X297839Y598484D01*
X304189Y598484D02*
X304189Y592134D01*
X304189Y598484D02*
X304189Y604834D01*
X266089Y581974D02*
X266089Y571814D01*
X266089Y581974D02*
X266089Y588324D01*
X266089Y594674D01*
X266089Y613724D01*
X266089Y621344D01*
X266089Y625154D01*
X266089Y621344D02*
X243229Y611184D01*
X240689Y602294D02*
X266089Y613724D01*
X250214Y592134D02*
X241959Y588324D01*
X244499Y583244D02*
X266089Y594674D01*
X266089Y588324D02*
X248309Y578799D01*
X253389Y574989D02*
X266089Y581974D01*
X248589Y598484D02*
X241959Y594674D01*
X176925Y560566D02*
X176933Y561216D01*
X176957Y561866D01*
X176997Y562515D01*
X177053Y563163D01*
X177124Y563810D01*
X177212Y564454D01*
X177315Y565096D01*
X177434Y565736D01*
X177569Y566372D01*
X177719Y567005D01*
X177885Y567634D01*
X178066Y568259D01*
X178263Y568879D01*
X178474Y569494D01*
X178701Y570103D01*
X178942Y570707D01*
X179198Y571305D01*
X179469Y571896D01*
X179755Y572481D01*
X180054Y573058D01*
X180368Y573628D01*
X180695Y574190D01*
X181036Y574743D01*
X181391Y575289D01*
X181759Y575825D01*
X182140Y576352D01*
X182534Y576870D01*
X182940Y577377D01*
X183359Y577875D01*
X183790Y578362D01*
X184232Y578839D01*
X184687Y579304D01*
X185152Y579759D01*
X185629Y580201D01*
X186116Y580632D01*
X186614Y581051D01*
X187121Y581457D01*
X187639Y581851D01*
X188166Y582232D01*
X188702Y582600D01*
X189248Y582955D01*
X189801Y583296D01*
X190363Y583623D01*
X190933Y583937D01*
X191510Y584236D01*
X192095Y584522D01*
X192686Y584793D01*
X193284Y585049D01*
X193888Y585290D01*
X194497Y585517D01*
X195112Y585728D01*
X195732Y585925D01*
X196357Y586106D01*
X196986Y586272D01*
X197619Y586422D01*
X198255Y586557D01*
X198895Y586676D01*
X199537Y586779D01*
X200181Y586867D01*
X200828Y586938D01*
X201476Y586994D01*
X202125Y587034D01*
X202775Y587058D01*
X203425Y587066D01*
X204075Y587058D01*
X204725Y587034D01*
X205374Y586994D01*
X206022Y586938D01*
X206669Y586867D01*
X207313Y586779D01*
X207955Y586676D01*
X208595Y586557D01*
X209231Y586422D01*
X209864Y586272D01*
X210493Y586106D01*
X211118Y585925D01*
X211738Y585728D01*
X212353Y585517D01*
X212962Y585290D01*
X213566Y585049D01*
X214164Y584793D01*
X214755Y584522D01*
X215340Y584236D01*
X215917Y583937D01*
X216487Y583623D01*
X217049Y583296D01*
X217602Y582955D01*
X218148Y582600D01*
X218684Y582232D01*
X219211Y581851D01*
X219729Y581457D01*
X220236Y581051D01*
X220734Y580632D01*
X221221Y580201D01*
X221698Y579759D01*
X222163Y579304D01*
X222618Y578839D01*
X223060Y578362D01*
X223491Y577875D01*
X223910Y577377D01*
X224316Y576870D01*
X224710Y576352D01*
X225091Y575825D01*
X225459Y575289D01*
X225814Y574743D01*
X226155Y574190D01*
X226482Y573628D01*
X226796Y573058D01*
X227095Y572481D01*
X227381Y571896D01*
X227652Y571305D01*
X227908Y570707D01*
X228149Y570103D01*
X228376Y569494D01*
X228587Y568879D01*
X228784Y568259D01*
X228965Y567634D01*
X229131Y567005D01*
X229281Y566372D01*
X229416Y565736D01*
X229535Y565096D01*
X229638Y564454D01*
X229726Y563810D01*
X229797Y563163D01*
X229853Y562515D01*
X229893Y561866D01*
X229917Y561216D01*
X229925Y560566D01*
X229917Y559916D01*
X229893Y559266D01*
X229853Y558617D01*
X229797Y557969D01*
X229726Y557322D01*
X229638Y556678D01*
X229535Y556036D01*
X229416Y555396D01*
X229281Y554760D01*
X229131Y554127D01*
X228965Y553498D01*
X228784Y552873D01*
X228587Y552253D01*
X228376Y551638D01*
X228149Y551029D01*
X227908Y550425D01*
X227652Y549827D01*
X227381Y549236D01*
X227095Y548651D01*
X226796Y548074D01*
X226482Y547504D01*
X226155Y546942D01*
X225814Y546389D01*
X225459Y545843D01*
X225091Y545307D01*
X224710Y544780D01*
X224316Y544262D01*
X223910Y543755D01*
X223491Y543257D01*
X223060Y542770D01*
X222618Y542293D01*
X222163Y541828D01*
X221698Y541373D01*
X221221Y540931D01*
X220734Y540500D01*
X220236Y540081D01*
X219729Y539675D01*
X219211Y539281D01*
X218684Y538900D01*
X218148Y538532D01*
X217602Y538177D01*
X217049Y537836D01*
X216487Y537509D01*
X215917Y537195D01*
X215340Y536896D01*
X214755Y536610D01*
X214164Y536339D01*
X213566Y536083D01*
X212962Y535842D01*
X212353Y535615D01*
X211738Y535404D01*
X211118Y535207D01*
X210493Y535026D01*
X209864Y534860D01*
X209231Y534710D01*
X208595Y534575D01*
X207955Y534456D01*
X207313Y534353D01*
X206669Y534265D01*
X206022Y534194D01*
X205374Y534138D01*
X204725Y534098D01*
X204075Y534074D01*
X203425Y534066D01*
X202775Y534074D01*
X202125Y534098D01*
X201476Y534138D01*
X200828Y534194D01*
X200181Y534265D01*
X199537Y534353D01*
X198895Y534456D01*
X198255Y534575D01*
X197619Y534710D01*
X196986Y534860D01*
X196357Y535026D01*
X195732Y535207D01*
X195112Y535404D01*
X194497Y535615D01*
X193888Y535842D01*
X193284Y536083D01*
X192686Y536339D01*
X192095Y536610D01*
X191510Y536896D01*
X190933Y537195D01*
X190363Y537509D01*
X189801Y537836D01*
X189248Y538177D01*
X188702Y538532D01*
X188166Y538900D01*
X187639Y539281D01*
X187121Y539675D01*
X186614Y540081D01*
X186116Y540500D01*
X185629Y540931D01*
X185152Y541373D01*
X184687Y541828D01*
X184232Y542293D01*
X183790Y542770D01*
X183359Y543257D01*
X182940Y543755D01*
X182534Y544262D01*
X182140Y544780D01*
X181759Y545307D01*
X181391Y545843D01*
X181036Y546389D01*
X180695Y546942D01*
X180368Y547504D01*
X180054Y548074D01*
X179755Y548651D01*
X179469Y549236D01*
X179198Y549827D01*
X178942Y550425D01*
X178701Y551029D01*
X178474Y551638D01*
X178263Y552253D01*
X178066Y552873D01*
X177885Y553498D01*
X177719Y554127D01*
X177569Y554760D01*
X177434Y555396D01*
X177315Y556036D01*
X177212Y556678D01*
X177124Y557322D01*
X177053Y557969D01*
X176997Y558617D01*
X176957Y559266D01*
X176933Y559916D01*
X176925Y560566D01*
X203425Y598666D02*
X203425Y605016D01*
X203425Y598666D02*
X203425Y592316D01*
X203425Y598666D02*
X209775Y598666D01*
X203425Y598666D02*
X197075Y598666D01*
X219935Y560566D02*
X230095Y560566D01*
X219935Y560566D02*
X213585Y560566D01*
X207235Y560566D01*
X188185Y560566D01*
X180565Y560566D01*
X176755Y560566D01*
X180565Y560566D02*
X190725Y537706D01*
X199615Y535166D02*
X188185Y560566D01*
X209775Y544691D02*
X213585Y536436D01*
X218665Y538976D02*
X207235Y560566D01*
X213585Y560566D02*
X223110Y542786D01*
X226920Y547866D02*
X219935Y560566D01*
X203425Y543066D02*
X207235Y536436D01*
X342402Y378804D02*
X342410Y379454D01*
X342434Y380104D01*
X342474Y380753D01*
X342530Y381401D01*
X342601Y382048D01*
X342689Y382692D01*
X342792Y383334D01*
X342911Y383974D01*
X343046Y384610D01*
X343196Y385243D01*
X343362Y385872D01*
X343543Y386497D01*
X343740Y387117D01*
X343951Y387732D01*
X344178Y388341D01*
X344419Y388945D01*
X344675Y389543D01*
X344946Y390134D01*
X345232Y390719D01*
X345531Y391296D01*
X345845Y391866D01*
X346172Y392428D01*
X346513Y392981D01*
X346868Y393527D01*
X347236Y394063D01*
X347617Y394590D01*
X348011Y395108D01*
X348417Y395615D01*
X348836Y396113D01*
X349267Y396600D01*
X349709Y397077D01*
X350164Y397542D01*
X350629Y397997D01*
X351106Y398439D01*
X351593Y398870D01*
X352091Y399289D01*
X352598Y399695D01*
X353116Y400089D01*
X353643Y400470D01*
X354179Y400838D01*
X354725Y401193D01*
X355278Y401534D01*
X355840Y401861D01*
X356410Y402175D01*
X356987Y402474D01*
X357572Y402760D01*
X358163Y403031D01*
X358761Y403287D01*
X359365Y403528D01*
X359974Y403755D01*
X360589Y403966D01*
X361209Y404163D01*
X361834Y404344D01*
X362463Y404510D01*
X363096Y404660D01*
X363732Y404795D01*
X364372Y404914D01*
X365014Y405017D01*
X365658Y405105D01*
X366305Y405176D01*
X366953Y405232D01*
X367602Y405272D01*
X368252Y405296D01*
X368902Y405304D01*
X369552Y405296D01*
X370202Y405272D01*
X370851Y405232D01*
X371499Y405176D01*
X372146Y405105D01*
X372790Y405017D01*
X373432Y404914D01*
X374072Y404795D01*
X374708Y404660D01*
X375341Y404510D01*
X375970Y404344D01*
X376595Y404163D01*
X377215Y403966D01*
X377830Y403755D01*
X378439Y403528D01*
X379043Y403287D01*
X379641Y403031D01*
X380232Y402760D01*
X380817Y402474D01*
X381394Y402175D01*
X381964Y401861D01*
X382526Y401534D01*
X383079Y401193D01*
X383625Y400838D01*
X384161Y400470D01*
X384688Y400089D01*
X385206Y399695D01*
X385713Y399289D01*
X386211Y398870D01*
X386698Y398439D01*
X387175Y397997D01*
X387640Y397542D01*
X388095Y397077D01*
X388537Y396600D01*
X388968Y396113D01*
X389387Y395615D01*
X389793Y395108D01*
X390187Y394590D01*
X390568Y394063D01*
X390936Y393527D01*
X391291Y392981D01*
X391632Y392428D01*
X391959Y391866D01*
X392273Y391296D01*
X392572Y390719D01*
X392858Y390134D01*
X393129Y389543D01*
X393385Y388945D01*
X393626Y388341D01*
X393853Y387732D01*
X394064Y387117D01*
X394261Y386497D01*
X394442Y385872D01*
X394608Y385243D01*
X394758Y384610D01*
X394893Y383974D01*
X395012Y383334D01*
X395115Y382692D01*
X395203Y382048D01*
X395274Y381401D01*
X395330Y380753D01*
X395370Y380104D01*
X395394Y379454D01*
X395402Y378804D01*
X395394Y378154D01*
X395370Y377504D01*
X395330Y376855D01*
X395274Y376207D01*
X395203Y375560D01*
X395115Y374916D01*
X395012Y374274D01*
X394893Y373634D01*
X394758Y372998D01*
X394608Y372365D01*
X394442Y371736D01*
X394261Y371111D01*
X394064Y370491D01*
X393853Y369876D01*
X393626Y369267D01*
X393385Y368663D01*
X393129Y368065D01*
X392858Y367474D01*
X392572Y366889D01*
X392273Y366312D01*
X391959Y365742D01*
X391632Y365180D01*
X391291Y364627D01*
X390936Y364081D01*
X390568Y363545D01*
X390187Y363018D01*
X389793Y362500D01*
X389387Y361993D01*
X388968Y361495D01*
X388537Y361008D01*
X388095Y360531D01*
X387640Y360066D01*
X387175Y359611D01*
X386698Y359169D01*
X386211Y358738D01*
X385713Y358319D01*
X385206Y357913D01*
X384688Y357519D01*
X384161Y357138D01*
X383625Y356770D01*
X383079Y356415D01*
X382526Y356074D01*
X381964Y355747D01*
X381394Y355433D01*
X380817Y355134D01*
X380232Y354848D01*
X379641Y354577D01*
X379043Y354321D01*
X378439Y354080D01*
X377830Y353853D01*
X377215Y353642D01*
X376595Y353445D01*
X375970Y353264D01*
X375341Y353098D01*
X374708Y352948D01*
X374072Y352813D01*
X373432Y352694D01*
X372790Y352591D01*
X372146Y352503D01*
X371499Y352432D01*
X370851Y352376D01*
X370202Y352336D01*
X369552Y352312D01*
X368902Y352304D01*
X368252Y352312D01*
X367602Y352336D01*
X366953Y352376D01*
X366305Y352432D01*
X365658Y352503D01*
X365014Y352591D01*
X364372Y352694D01*
X363732Y352813D01*
X363096Y352948D01*
X362463Y353098D01*
X361834Y353264D01*
X361209Y353445D01*
X360589Y353642D01*
X359974Y353853D01*
X359365Y354080D01*
X358761Y354321D01*
X358163Y354577D01*
X357572Y354848D01*
X356987Y355134D01*
X356410Y355433D01*
X355840Y355747D01*
X355278Y356074D01*
X354725Y356415D01*
X354179Y356770D01*
X353643Y357138D01*
X353116Y357519D01*
X352598Y357913D01*
X352091Y358319D01*
X351593Y358738D01*
X351106Y359169D01*
X350629Y359611D01*
X350164Y360066D01*
X349709Y360531D01*
X349267Y361008D01*
X348836Y361495D01*
X348417Y361993D01*
X348011Y362500D01*
X347617Y363018D01*
X347236Y363545D01*
X346868Y364081D01*
X346513Y364627D01*
X346172Y365180D01*
X345845Y365742D01*
X345531Y366312D01*
X345232Y366889D01*
X344946Y367474D01*
X344675Y368065D01*
X344419Y368663D01*
X344178Y369267D01*
X343951Y369876D01*
X343740Y370491D01*
X343543Y371111D01*
X343362Y371736D01*
X343196Y372365D01*
X343046Y372998D01*
X342911Y373634D01*
X342792Y374274D01*
X342689Y374916D01*
X342601Y375560D01*
X342530Y376207D01*
X342474Y376855D01*
X342434Y377504D01*
X342410Y378154D01*
X342402Y378804D01*
X407002Y378804D02*
X413352Y378804D01*
X407002Y378804D02*
X400652Y378804D01*
X407002Y378804D02*
X407002Y372454D01*
X407002Y378804D02*
X407002Y385154D01*
X368902Y362294D02*
X368902Y352134D01*
X368902Y362294D02*
X368902Y368644D01*
X368902Y374994D01*
X368902Y394044D01*
X368902Y401664D01*
X368902Y405474D01*
X368902Y401664D02*
X346042Y391504D01*
X343502Y382614D02*
X368902Y394044D01*
X353027Y372454D02*
X344772Y368644D01*
X347312Y363564D02*
X368902Y374994D01*
X368902Y368644D02*
X351122Y359119D01*
X356202Y355309D02*
X368902Y362294D01*
X351402Y378804D02*
X344772Y374994D01*
X239537Y965820D02*
X239545Y966470D01*
X239569Y967120D01*
X239609Y967769D01*
X239665Y968417D01*
X239736Y969064D01*
X239824Y969708D01*
X239927Y970350D01*
X240046Y970990D01*
X240181Y971626D01*
X240331Y972259D01*
X240497Y972888D01*
X240678Y973513D01*
X240875Y974133D01*
X241086Y974748D01*
X241313Y975357D01*
X241554Y975961D01*
X241810Y976559D01*
X242081Y977150D01*
X242367Y977735D01*
X242666Y978312D01*
X242980Y978882D01*
X243307Y979444D01*
X243648Y979997D01*
X244003Y980543D01*
X244371Y981079D01*
X244752Y981606D01*
X245146Y982124D01*
X245552Y982631D01*
X245971Y983129D01*
X246402Y983616D01*
X246844Y984093D01*
X247299Y984558D01*
X247764Y985013D01*
X248241Y985455D01*
X248728Y985886D01*
X249226Y986305D01*
X249733Y986711D01*
X250251Y987105D01*
X250778Y987486D01*
X251314Y987854D01*
X251860Y988209D01*
X252413Y988550D01*
X252975Y988877D01*
X253545Y989191D01*
X254122Y989490D01*
X254707Y989776D01*
X255298Y990047D01*
X255896Y990303D01*
X256500Y990544D01*
X257109Y990771D01*
X257724Y990982D01*
X258344Y991179D01*
X258969Y991360D01*
X259598Y991526D01*
X260231Y991676D01*
X260867Y991811D01*
X261507Y991930D01*
X262149Y992033D01*
X262793Y992121D01*
X263440Y992192D01*
X264088Y992248D01*
X264737Y992288D01*
X265387Y992312D01*
X266037Y992320D01*
X266687Y992312D01*
X267337Y992288D01*
X267986Y992248D01*
X268634Y992192D01*
X269281Y992121D01*
X269925Y992033D01*
X270567Y991930D01*
X271207Y991811D01*
X271843Y991676D01*
X272476Y991526D01*
X273105Y991360D01*
X273730Y991179D01*
X274350Y990982D01*
X274965Y990771D01*
X275574Y990544D01*
X276178Y990303D01*
X276776Y990047D01*
X277367Y989776D01*
X277952Y989490D01*
X278529Y989191D01*
X279099Y988877D01*
X279661Y988550D01*
X280214Y988209D01*
X280760Y987854D01*
X281296Y987486D01*
X281823Y987105D01*
X282341Y986711D01*
X282848Y986305D01*
X283346Y985886D01*
X283833Y985455D01*
X284310Y985013D01*
X284775Y984558D01*
X285230Y984093D01*
X285672Y983616D01*
X286103Y983129D01*
X286522Y982631D01*
X286928Y982124D01*
X287322Y981606D01*
X287703Y981079D01*
X288071Y980543D01*
X288426Y979997D01*
X288767Y979444D01*
X289094Y978882D01*
X289408Y978312D01*
X289707Y977735D01*
X289993Y977150D01*
X290264Y976559D01*
X290520Y975961D01*
X290761Y975357D01*
X290988Y974748D01*
X291199Y974133D01*
X291396Y973513D01*
X291577Y972888D01*
X291743Y972259D01*
X291893Y971626D01*
X292028Y970990D01*
X292147Y970350D01*
X292250Y969708D01*
X292338Y969064D01*
X292409Y968417D01*
X292465Y967769D01*
X292505Y967120D01*
X292529Y966470D01*
X292537Y965820D01*
X292529Y965170D01*
X292505Y964520D01*
X292465Y963871D01*
X292409Y963223D01*
X292338Y962576D01*
X292250Y961932D01*
X292147Y961290D01*
X292028Y960650D01*
X291893Y960014D01*
X291743Y959381D01*
X291577Y958752D01*
X291396Y958127D01*
X291199Y957507D01*
X290988Y956892D01*
X290761Y956283D01*
X290520Y955679D01*
X290264Y955081D01*
X289993Y954490D01*
X289707Y953905D01*
X289408Y953328D01*
X289094Y952758D01*
X288767Y952196D01*
X288426Y951643D01*
X288071Y951097D01*
X287703Y950561D01*
X287322Y950034D01*
X286928Y949516D01*
X286522Y949009D01*
X286103Y948511D01*
X285672Y948024D01*
X285230Y947547D01*
X284775Y947082D01*
X284310Y946627D01*
X283833Y946185D01*
X283346Y945754D01*
X282848Y945335D01*
X282341Y944929D01*
X281823Y944535D01*
X281296Y944154D01*
X280760Y943786D01*
X280214Y943431D01*
X279661Y943090D01*
X279099Y942763D01*
X278529Y942449D01*
X277952Y942150D01*
X277367Y941864D01*
X276776Y941593D01*
X276178Y941337D01*
X275574Y941096D01*
X274965Y940869D01*
X274350Y940658D01*
X273730Y940461D01*
X273105Y940280D01*
X272476Y940114D01*
X271843Y939964D01*
X271207Y939829D01*
X270567Y939710D01*
X269925Y939607D01*
X269281Y939519D01*
X268634Y939448D01*
X267986Y939392D01*
X267337Y939352D01*
X266687Y939328D01*
X266037Y939320D01*
X265387Y939328D01*
X264737Y939352D01*
X264088Y939392D01*
X263440Y939448D01*
X262793Y939519D01*
X262149Y939607D01*
X261507Y939710D01*
X260867Y939829D01*
X260231Y939964D01*
X259598Y940114D01*
X258969Y940280D01*
X258344Y940461D01*
X257724Y940658D01*
X257109Y940869D01*
X256500Y941096D01*
X255896Y941337D01*
X255298Y941593D01*
X254707Y941864D01*
X254122Y942150D01*
X253545Y942449D01*
X252975Y942763D01*
X252413Y943090D01*
X251860Y943431D01*
X251314Y943786D01*
X250778Y944154D01*
X250251Y944535D01*
X249733Y944929D01*
X249226Y945335D01*
X248728Y945754D01*
X248241Y946185D01*
X247764Y946627D01*
X247299Y947082D01*
X246844Y947547D01*
X246402Y948024D01*
X245971Y948511D01*
X245552Y949009D01*
X245146Y949516D01*
X244752Y950034D01*
X244371Y950561D01*
X244003Y951097D01*
X243648Y951643D01*
X243307Y952196D01*
X242980Y952758D01*
X242666Y953328D01*
X242367Y953905D01*
X242081Y954490D01*
X241810Y955081D01*
X241554Y955679D01*
X241313Y956283D01*
X241086Y956892D01*
X240875Y957507D01*
X240678Y958127D01*
X240497Y958752D01*
X240331Y959381D01*
X240181Y960014D01*
X240046Y960650D01*
X239927Y961290D01*
X239824Y961932D01*
X239736Y962576D01*
X239665Y963223D01*
X239609Y963871D01*
X239569Y964520D01*
X239545Y965170D01*
X239537Y965820D01*
X304137Y965820D02*
X310487Y965820D01*
X304137Y965820D02*
X297787Y965820D01*
X304137Y965820D02*
X304137Y959470D01*
X304137Y965820D02*
X304137Y972170D01*
X266037Y949310D02*
X266037Y939150D01*
X266037Y949310D02*
X266037Y955660D01*
X266037Y962010D01*
X266037Y981060D01*
X266037Y988680D01*
X266037Y992490D01*
X266037Y988680D02*
X243177Y978520D01*
X240637Y969630D02*
X266037Y981060D01*
X250162Y959470D02*
X241907Y955660D01*
X244447Y950580D02*
X266037Y962010D01*
X266037Y955660D02*
X248257Y946135D01*
X253337Y942325D02*
X266037Y949310D01*
X248537Y965820D02*
X241907Y962010D01*
X386609Y144963D02*
X386617Y145613D01*
X386641Y146263D01*
X386681Y146912D01*
X386737Y147560D01*
X386808Y148207D01*
X386896Y148851D01*
X386999Y149493D01*
X387118Y150133D01*
X387253Y150769D01*
X387403Y151402D01*
X387569Y152031D01*
X387750Y152656D01*
X387947Y153276D01*
X388158Y153891D01*
X388385Y154500D01*
X388626Y155104D01*
X388882Y155702D01*
X389153Y156293D01*
X389439Y156878D01*
X389738Y157455D01*
X390052Y158025D01*
X390379Y158587D01*
X390720Y159140D01*
X391075Y159686D01*
X391443Y160222D01*
X391824Y160749D01*
X392218Y161267D01*
X392624Y161774D01*
X393043Y162272D01*
X393474Y162759D01*
X393916Y163236D01*
X394371Y163701D01*
X394836Y164156D01*
X395313Y164598D01*
X395800Y165029D01*
X396298Y165448D01*
X396805Y165854D01*
X397323Y166248D01*
X397850Y166629D01*
X398386Y166997D01*
X398932Y167352D01*
X399485Y167693D01*
X400047Y168020D01*
X400617Y168334D01*
X401194Y168633D01*
X401779Y168919D01*
X402370Y169190D01*
X402968Y169446D01*
X403572Y169687D01*
X404181Y169914D01*
X404796Y170125D01*
X405416Y170322D01*
X406041Y170503D01*
X406670Y170669D01*
X407303Y170819D01*
X407939Y170954D01*
X408579Y171073D01*
X409221Y171176D01*
X409865Y171264D01*
X410512Y171335D01*
X411160Y171391D01*
X411809Y171431D01*
X412459Y171455D01*
X413109Y171463D01*
X413759Y171455D01*
X414409Y171431D01*
X415058Y171391D01*
X415706Y171335D01*
X416353Y171264D01*
X416997Y171176D01*
X417639Y171073D01*
X418279Y170954D01*
X418915Y170819D01*
X419548Y170669D01*
X420177Y170503D01*
X420802Y170322D01*
X421422Y170125D01*
X422037Y169914D01*
X422646Y169687D01*
X423250Y169446D01*
X423848Y169190D01*
X424439Y168919D01*
X425024Y168633D01*
X425601Y168334D01*
X426171Y168020D01*
X426733Y167693D01*
X427286Y167352D01*
X427832Y166997D01*
X428368Y166629D01*
X428895Y166248D01*
X429413Y165854D01*
X429920Y165448D01*
X430418Y165029D01*
X430905Y164598D01*
X431382Y164156D01*
X431847Y163701D01*
X432302Y163236D01*
X432744Y162759D01*
X433175Y162272D01*
X433594Y161774D01*
X434000Y161267D01*
X434394Y160749D01*
X434775Y160222D01*
X435143Y159686D01*
X435498Y159140D01*
X435839Y158587D01*
X436166Y158025D01*
X436480Y157455D01*
X436779Y156878D01*
X437065Y156293D01*
X437336Y155702D01*
X437592Y155104D01*
X437833Y154500D01*
X438060Y153891D01*
X438271Y153276D01*
X438468Y152656D01*
X438649Y152031D01*
X438815Y151402D01*
X438965Y150769D01*
X439100Y150133D01*
X439219Y149493D01*
X439322Y148851D01*
X439410Y148207D01*
X439481Y147560D01*
X439537Y146912D01*
X439577Y146263D01*
X439601Y145613D01*
X439609Y144963D01*
X439601Y144313D01*
X439577Y143663D01*
X439537Y143014D01*
X439481Y142366D01*
X439410Y141719D01*
X439322Y141075D01*
X439219Y140433D01*
X439100Y139793D01*
X438965Y139157D01*
X438815Y138524D01*
X438649Y137895D01*
X438468Y137270D01*
X438271Y136650D01*
X438060Y136035D01*
X437833Y135426D01*
X437592Y134822D01*
X437336Y134224D01*
X437065Y133633D01*
X436779Y133048D01*
X436480Y132471D01*
X436166Y131901D01*
X435839Y131339D01*
X435498Y130786D01*
X435143Y130240D01*
X434775Y129704D01*
X434394Y129177D01*
X434000Y128659D01*
X433594Y128152D01*
X433175Y127654D01*
X432744Y127167D01*
X432302Y126690D01*
X431847Y126225D01*
X431382Y125770D01*
X430905Y125328D01*
X430418Y124897D01*
X429920Y124478D01*
X429413Y124072D01*
X428895Y123678D01*
X428368Y123297D01*
X427832Y122929D01*
X427286Y122574D01*
X426733Y122233D01*
X426171Y121906D01*
X425601Y121592D01*
X425024Y121293D01*
X424439Y121007D01*
X423848Y120736D01*
X423250Y120480D01*
X422646Y120239D01*
X422037Y120012D01*
X421422Y119801D01*
X420802Y119604D01*
X420177Y119423D01*
X419548Y119257D01*
X418915Y119107D01*
X418279Y118972D01*
X417639Y118853D01*
X416997Y118750D01*
X416353Y118662D01*
X415706Y118591D01*
X415058Y118535D01*
X414409Y118495D01*
X413759Y118471D01*
X413109Y118463D01*
X412459Y118471D01*
X411809Y118495D01*
X411160Y118535D01*
X410512Y118591D01*
X409865Y118662D01*
X409221Y118750D01*
X408579Y118853D01*
X407939Y118972D01*
X407303Y119107D01*
X406670Y119257D01*
X406041Y119423D01*
X405416Y119604D01*
X404796Y119801D01*
X404181Y120012D01*
X403572Y120239D01*
X402968Y120480D01*
X402370Y120736D01*
X401779Y121007D01*
X401194Y121293D01*
X400617Y121592D01*
X400047Y121906D01*
X399485Y122233D01*
X398932Y122574D01*
X398386Y122929D01*
X397850Y123297D01*
X397323Y123678D01*
X396805Y124072D01*
X396298Y124478D01*
X395800Y124897D01*
X395313Y125328D01*
X394836Y125770D01*
X394371Y126225D01*
X393916Y126690D01*
X393474Y127167D01*
X393043Y127654D01*
X392624Y128152D01*
X392218Y128659D01*
X391824Y129177D01*
X391443Y129704D01*
X391075Y130240D01*
X390720Y130786D01*
X390379Y131339D01*
X390052Y131901D01*
X389738Y132471D01*
X389439Y133048D01*
X389153Y133633D01*
X388882Y134224D01*
X388626Y134822D01*
X388385Y135426D01*
X388158Y136035D01*
X387947Y136650D01*
X387750Y137270D01*
X387569Y137895D01*
X387403Y138524D01*
X387253Y139157D01*
X387118Y139793D01*
X386999Y140433D01*
X386896Y141075D01*
X386808Y141719D01*
X386737Y142366D01*
X386681Y143014D01*
X386641Y143663D01*
X386617Y144313D01*
X386609Y144963D01*
X375009Y144963D02*
X368659Y144963D01*
X375009Y144963D02*
X381359Y144963D01*
X375009Y144963D02*
X375009Y151313D01*
X375009Y144963D02*
X375009Y138613D01*
X413109Y161473D02*
X413109Y171633D01*
X413109Y161473D02*
X413109Y155123D01*
X413109Y148773D01*
X413109Y129723D01*
X413109Y122103D01*
X413109Y118293D01*
X413109Y122103D02*
X435969Y132263D01*
X438509Y141153D02*
X413109Y129723D01*
X428984Y151313D02*
X437239Y155123D01*
X434699Y160203D02*
X413109Y148773D01*
X413109Y155123D02*
X430889Y164648D01*
X425809Y168458D02*
X413109Y161473D01*
X430609Y144963D02*
X437239Y148773D01*
X166787Y965665D02*
X166795Y966315D01*
X166819Y966965D01*
X166859Y967614D01*
X166915Y968262D01*
X166986Y968909D01*
X167074Y969553D01*
X167177Y970195D01*
X167296Y970835D01*
X167431Y971471D01*
X167581Y972104D01*
X167747Y972733D01*
X167928Y973358D01*
X168125Y973978D01*
X168336Y974593D01*
X168563Y975202D01*
X168804Y975806D01*
X169060Y976404D01*
X169331Y976995D01*
X169617Y977580D01*
X169916Y978157D01*
X170230Y978727D01*
X170557Y979289D01*
X170898Y979842D01*
X171253Y980388D01*
X171621Y980924D01*
X172002Y981451D01*
X172396Y981969D01*
X172802Y982476D01*
X173221Y982974D01*
X173652Y983461D01*
X174094Y983938D01*
X174549Y984403D01*
X175014Y984858D01*
X175491Y985300D01*
X175978Y985731D01*
X176476Y986150D01*
X176983Y986556D01*
X177501Y986950D01*
X178028Y987331D01*
X178564Y987699D01*
X179110Y988054D01*
X179663Y988395D01*
X180225Y988722D01*
X180795Y989036D01*
X181372Y989335D01*
X181957Y989621D01*
X182548Y989892D01*
X183146Y990148D01*
X183750Y990389D01*
X184359Y990616D01*
X184974Y990827D01*
X185594Y991024D01*
X186219Y991205D01*
X186848Y991371D01*
X187481Y991521D01*
X188117Y991656D01*
X188757Y991775D01*
X189399Y991878D01*
X190043Y991966D01*
X190690Y992037D01*
X191338Y992093D01*
X191987Y992133D01*
X192637Y992157D01*
X193287Y992165D01*
X193937Y992157D01*
X194587Y992133D01*
X195236Y992093D01*
X195884Y992037D01*
X196531Y991966D01*
X197175Y991878D01*
X197817Y991775D01*
X198457Y991656D01*
X199093Y991521D01*
X199726Y991371D01*
X200355Y991205D01*
X200980Y991024D01*
X201600Y990827D01*
X202215Y990616D01*
X202824Y990389D01*
X203428Y990148D01*
X204026Y989892D01*
X204617Y989621D01*
X205202Y989335D01*
X205779Y989036D01*
X206349Y988722D01*
X206911Y988395D01*
X207464Y988054D01*
X208010Y987699D01*
X208546Y987331D01*
X209073Y986950D01*
X209591Y986556D01*
X210098Y986150D01*
X210596Y985731D01*
X211083Y985300D01*
X211560Y984858D01*
X212025Y984403D01*
X212480Y983938D01*
X212922Y983461D01*
X213353Y982974D01*
X213772Y982476D01*
X214178Y981969D01*
X214572Y981451D01*
X214953Y980924D01*
X215321Y980388D01*
X215676Y979842D01*
X216017Y979289D01*
X216344Y978727D01*
X216658Y978157D01*
X216957Y977580D01*
X217243Y976995D01*
X217514Y976404D01*
X217770Y975806D01*
X218011Y975202D01*
X218238Y974593D01*
X218449Y973978D01*
X218646Y973358D01*
X218827Y972733D01*
X218993Y972104D01*
X219143Y971471D01*
X219278Y970835D01*
X219397Y970195D01*
X219500Y969553D01*
X219588Y968909D01*
X219659Y968262D01*
X219715Y967614D01*
X219755Y966965D01*
X219779Y966315D01*
X219787Y965665D01*
X219779Y965015D01*
X219755Y964365D01*
X219715Y963716D01*
X219659Y963068D01*
X219588Y962421D01*
X219500Y961777D01*
X219397Y961135D01*
X219278Y960495D01*
X219143Y959859D01*
X218993Y959226D01*
X218827Y958597D01*
X218646Y957972D01*
X218449Y957352D01*
X218238Y956737D01*
X218011Y956128D01*
X217770Y955524D01*
X217514Y954926D01*
X217243Y954335D01*
X216957Y953750D01*
X216658Y953173D01*
X216344Y952603D01*
X216017Y952041D01*
X215676Y951488D01*
X215321Y950942D01*
X214953Y950406D01*
X214572Y949879D01*
X214178Y949361D01*
X213772Y948854D01*
X213353Y948356D01*
X212922Y947869D01*
X212480Y947392D01*
X212025Y946927D01*
X211560Y946472D01*
X211083Y946030D01*
X210596Y945599D01*
X210098Y945180D01*
X209591Y944774D01*
X209073Y944380D01*
X208546Y943999D01*
X208010Y943631D01*
X207464Y943276D01*
X206911Y942935D01*
X206349Y942608D01*
X205779Y942294D01*
X205202Y941995D01*
X204617Y941709D01*
X204026Y941438D01*
X203428Y941182D01*
X202824Y940941D01*
X202215Y940714D01*
X201600Y940503D01*
X200980Y940306D01*
X200355Y940125D01*
X199726Y939959D01*
X199093Y939809D01*
X198457Y939674D01*
X197817Y939555D01*
X197175Y939452D01*
X196531Y939364D01*
X195884Y939293D01*
X195236Y939237D01*
X194587Y939197D01*
X193937Y939173D01*
X193287Y939165D01*
X192637Y939173D01*
X191987Y939197D01*
X191338Y939237D01*
X190690Y939293D01*
X190043Y939364D01*
X189399Y939452D01*
X188757Y939555D01*
X188117Y939674D01*
X187481Y939809D01*
X186848Y939959D01*
X186219Y940125D01*
X185594Y940306D01*
X184974Y940503D01*
X184359Y940714D01*
X183750Y940941D01*
X183146Y941182D01*
X182548Y941438D01*
X181957Y941709D01*
X181372Y941995D01*
X180795Y942294D01*
X180225Y942608D01*
X179663Y942935D01*
X179110Y943276D01*
X178564Y943631D01*
X178028Y943999D01*
X177501Y944380D01*
X176983Y944774D01*
X176476Y945180D01*
X175978Y945599D01*
X175491Y946030D01*
X175014Y946472D01*
X174549Y946927D01*
X174094Y947392D01*
X173652Y947869D01*
X173221Y948356D01*
X172802Y948854D01*
X172396Y949361D01*
X172002Y949879D01*
X171621Y950406D01*
X171253Y950942D01*
X170898Y951488D01*
X170557Y952041D01*
X170230Y952603D01*
X169916Y953173D01*
X169617Y953750D01*
X169331Y954335D01*
X169060Y954926D01*
X168804Y955524D01*
X168563Y956128D01*
X168336Y956737D01*
X168125Y957352D01*
X167928Y957972D01*
X167747Y958597D01*
X167581Y959226D01*
X167431Y959859D01*
X167296Y960495D01*
X167177Y961135D01*
X167074Y961777D01*
X166986Y962421D01*
X166915Y963068D01*
X166859Y963716D01*
X166819Y964365D01*
X166795Y965015D01*
X166787Y965665D01*
X231387Y965665D02*
X237737Y965665D01*
X231387Y965665D02*
X225037Y965665D01*
X231387Y965665D02*
X231387Y959315D01*
X231387Y965665D02*
X231387Y972015D01*
X193287Y949155D02*
X193287Y938995D01*
X193287Y949155D02*
X193287Y955505D01*
X193287Y961855D01*
X193287Y980905D01*
X193287Y988525D01*
X193287Y992335D01*
X193287Y988525D02*
X170427Y978365D01*
X167887Y969475D02*
X193287Y980905D01*
X177412Y959315D02*
X169157Y955505D01*
X171697Y950425D02*
X193287Y961855D01*
X193287Y955505D02*
X175507Y945980D01*
X180587Y942170D02*
X193287Y949155D01*
X175787Y965665D02*
X169157Y961855D01*
D11*
X147214Y420592D02*
X143319Y408908D01*
X139424Y420592D01*
X135134Y417346D02*
X135134Y412154D01*
X135135Y417346D02*
X135133Y417459D01*
X135127Y417572D01*
X135117Y417685D01*
X135103Y417798D01*
X135086Y417910D01*
X135064Y418021D01*
X135039Y418131D01*
X135009Y418241D01*
X134976Y418349D01*
X134939Y418456D01*
X134899Y418562D01*
X134854Y418666D01*
X134806Y418769D01*
X134755Y418870D01*
X134700Y418969D01*
X134642Y419066D01*
X134580Y419161D01*
X134515Y419254D01*
X134447Y419344D01*
X134376Y419432D01*
X134301Y419518D01*
X134224Y419601D01*
X134144Y419681D01*
X134061Y419758D01*
X133975Y419833D01*
X133887Y419904D01*
X133797Y419972D01*
X133704Y420037D01*
X133609Y420099D01*
X133512Y420157D01*
X133413Y420212D01*
X133312Y420263D01*
X133209Y420311D01*
X133105Y420356D01*
X132999Y420396D01*
X132892Y420433D01*
X132784Y420466D01*
X132674Y420496D01*
X132564Y420521D01*
X132453Y420543D01*
X132341Y420560D01*
X132228Y420574D01*
X132115Y420584D01*
X132002Y420590D01*
X131889Y420592D01*
X131776Y420590D01*
X131663Y420584D01*
X131550Y420574D01*
X131437Y420560D01*
X131325Y420543D01*
X131214Y420521D01*
X131104Y420496D01*
X130994Y420466D01*
X130886Y420433D01*
X130779Y420396D01*
X130673Y420356D01*
X130569Y420311D01*
X130466Y420263D01*
X130365Y420212D01*
X130266Y420157D01*
X130169Y420099D01*
X130074Y420037D01*
X129981Y419972D01*
X129891Y419904D01*
X129803Y419833D01*
X129717Y419758D01*
X129634Y419681D01*
X129554Y419601D01*
X129477Y419518D01*
X129402Y419432D01*
X129331Y419344D01*
X129263Y419254D01*
X129198Y419161D01*
X129136Y419066D01*
X129078Y418969D01*
X129023Y418870D01*
X128972Y418769D01*
X128924Y418666D01*
X128879Y418562D01*
X128839Y418456D01*
X128802Y418349D01*
X128769Y418241D01*
X128739Y418131D01*
X128714Y418021D01*
X128692Y417910D01*
X128675Y417798D01*
X128661Y417685D01*
X128651Y417572D01*
X128645Y417459D01*
X128643Y417346D01*
X128643Y412154D01*
X128645Y412041D01*
X128651Y411928D01*
X128661Y411815D01*
X128675Y411702D01*
X128692Y411590D01*
X128714Y411479D01*
X128739Y411369D01*
X128769Y411259D01*
X128802Y411151D01*
X128839Y411044D01*
X128879Y410938D01*
X128924Y410834D01*
X128972Y410731D01*
X129023Y410630D01*
X129078Y410531D01*
X129136Y410434D01*
X129198Y410339D01*
X129263Y410246D01*
X129331Y410156D01*
X129402Y410068D01*
X129477Y409982D01*
X129554Y409899D01*
X129634Y409819D01*
X129717Y409742D01*
X129803Y409667D01*
X129891Y409596D01*
X129981Y409528D01*
X130074Y409463D01*
X130169Y409401D01*
X130266Y409343D01*
X130365Y409288D01*
X130466Y409237D01*
X130569Y409189D01*
X130673Y409144D01*
X130779Y409104D01*
X130886Y409067D01*
X130994Y409034D01*
X131104Y409004D01*
X131214Y408979D01*
X131325Y408957D01*
X131437Y408940D01*
X131550Y408926D01*
X131663Y408916D01*
X131776Y408910D01*
X131889Y408908D01*
X132002Y408910D01*
X132115Y408916D01*
X132228Y408926D01*
X132341Y408940D01*
X132453Y408957D01*
X132564Y408979D01*
X132674Y409004D01*
X132784Y409034D01*
X132892Y409067D01*
X132999Y409104D01*
X133105Y409144D01*
X133209Y409189D01*
X133312Y409237D01*
X133413Y409288D01*
X133512Y409343D01*
X133609Y409401D01*
X133704Y409463D01*
X133797Y409528D01*
X133887Y409596D01*
X133975Y409667D01*
X134061Y409742D01*
X134144Y409819D01*
X134224Y409899D01*
X134301Y409982D01*
X134376Y410068D01*
X134447Y410156D01*
X134515Y410246D01*
X134580Y410339D01*
X134642Y410434D01*
X134700Y410531D01*
X134755Y410630D01*
X134806Y410731D01*
X134854Y410834D01*
X134899Y410938D01*
X134939Y411044D01*
X134976Y411151D01*
X135009Y411259D01*
X135039Y411369D01*
X135064Y411479D01*
X135086Y411590D01*
X135103Y411702D01*
X135117Y411815D01*
X135127Y411928D01*
X135133Y412041D01*
X135135Y412154D01*
X123301Y408908D02*
X123301Y420592D01*
X123301Y408908D02*
X118108Y408908D01*
D12*
X344990Y970755D02*
X344990Y975835D01*
X319590Y975835D02*
X319590Y970755D01*
X319590Y975835D02*
X320860Y975835D01*
X320860Y970755D02*
X319590Y970755D01*
X343720Y970755D02*
X344990Y970755D01*
X344990Y975835D02*
X343720Y975835D01*
D10*
X344355Y991075D02*
X336735Y991075D01*
X331401Y991075D02*
X323781Y991075D01*
D13*
X838602Y574996D02*
X848602Y559996D01*
X848602Y459996D01*
X838602Y444996D01*
X809802Y449996D02*
X809802Y569996D01*
X682002Y569996D01*
X809802Y569996D02*
X809802Y574996D01*
X838602Y574996D01*
X838602Y444996D02*
X809802Y444996D01*
X809802Y449996D01*
X682002Y449996D01*
D10*
X680002Y509996D02*
X680021Y511518D01*
X680077Y513038D01*
X680170Y514557D01*
X680301Y516073D01*
X680468Y517585D01*
X680673Y519093D01*
X680915Y520596D01*
X681193Y522092D01*
X681508Y523580D01*
X681860Y525061D01*
X682248Y526532D01*
X682672Y527994D01*
X683131Y529444D01*
X683626Y530883D01*
X684156Y532309D01*
X684721Y533722D01*
X685321Y535121D01*
X685955Y536504D01*
X686622Y537872D01*
X687323Y539223D01*
X688057Y540556D01*
X688823Y541870D01*
X689621Y543166D01*
X690451Y544441D01*
X691312Y545696D01*
X692203Y546929D01*
X693125Y548140D01*
X694075Y549328D01*
X695055Y550493D01*
X696063Y551633D01*
X697099Y552748D01*
X698161Y553837D01*
X699250Y554899D01*
X700365Y555935D01*
X701505Y556943D01*
X702670Y557923D01*
X703858Y558873D01*
X705069Y559795D01*
X706302Y560686D01*
X707557Y561547D01*
X708832Y562377D01*
X710128Y563175D01*
X711442Y563941D01*
X712775Y564675D01*
X714126Y565376D01*
X715494Y566043D01*
X716877Y566677D01*
X718276Y567277D01*
X719689Y567842D01*
X721115Y568372D01*
X722554Y568867D01*
X724004Y569326D01*
X725466Y569750D01*
X726937Y570138D01*
X728418Y570490D01*
X729906Y570805D01*
X731402Y571083D01*
X732905Y571325D01*
X734413Y571530D01*
X735925Y571697D01*
X737441Y571828D01*
X738960Y571921D01*
X740480Y571977D01*
X742002Y571996D01*
X743524Y571977D01*
X745044Y571921D01*
X746563Y571828D01*
X748079Y571697D01*
X749591Y571530D01*
X751099Y571325D01*
X752602Y571083D01*
X754098Y570805D01*
X755586Y570490D01*
X757067Y570138D01*
X758538Y569750D01*
X760000Y569326D01*
X761450Y568867D01*
X762889Y568372D01*
X764315Y567842D01*
X765728Y567277D01*
X767127Y566677D01*
X768510Y566043D01*
X769878Y565376D01*
X771229Y564675D01*
X772562Y563941D01*
X773876Y563175D01*
X775172Y562377D01*
X776447Y561547D01*
X777702Y560686D01*
X778935Y559795D01*
X780146Y558873D01*
X781334Y557923D01*
X782499Y556943D01*
X783639Y555935D01*
X784754Y554899D01*
X785843Y553837D01*
X786905Y552748D01*
X787941Y551633D01*
X788949Y550493D01*
X789929Y549328D01*
X790879Y548140D01*
X791801Y546929D01*
X792692Y545696D01*
X793553Y544441D01*
X794383Y543166D01*
X795181Y541870D01*
X795947Y540556D01*
X796681Y539223D01*
X797382Y537872D01*
X798049Y536504D01*
X798683Y535121D01*
X799283Y533722D01*
X799848Y532309D01*
X800378Y530883D01*
X800873Y529444D01*
X801332Y527994D01*
X801756Y526532D01*
X802144Y525061D01*
X802496Y523580D01*
X802811Y522092D01*
X803089Y520596D01*
X803331Y519093D01*
X803536Y517585D01*
X803703Y516073D01*
X803834Y514557D01*
X803927Y513038D01*
X803983Y511518D01*
X804002Y509996D01*
X803983Y508474D01*
X803927Y506954D01*
X803834Y505435D01*
X803703Y503919D01*
X803536Y502407D01*
X803331Y500899D01*
X803089Y499396D01*
X802811Y497900D01*
X802496Y496412D01*
X802144Y494931D01*
X801756Y493460D01*
X801332Y491998D01*
X800873Y490548D01*
X800378Y489109D01*
X799848Y487683D01*
X799283Y486270D01*
X798683Y484871D01*
X798049Y483488D01*
X797382Y482120D01*
X796681Y480769D01*
X795947Y479436D01*
X795181Y478122D01*
X794383Y476826D01*
X793553Y475551D01*
X792692Y474296D01*
X791801Y473063D01*
X790879Y471852D01*
X789929Y470664D01*
X788949Y469499D01*
X787941Y468359D01*
X786905Y467244D01*
X785843Y466155D01*
X784754Y465093D01*
X783639Y464057D01*
X782499Y463049D01*
X781334Y462069D01*
X780146Y461119D01*
X778935Y460197D01*
X777702Y459306D01*
X776447Y458445D01*
X775172Y457615D01*
X773876Y456817D01*
X772562Y456051D01*
X771229Y455317D01*
X769878Y454616D01*
X768510Y453949D01*
X767127Y453315D01*
X765728Y452715D01*
X764315Y452150D01*
X762889Y451620D01*
X761450Y451125D01*
X760000Y450666D01*
X758538Y450242D01*
X757067Y449854D01*
X755586Y449502D01*
X754098Y449187D01*
X752602Y448909D01*
X751099Y448667D01*
X749591Y448462D01*
X748079Y448295D01*
X746563Y448164D01*
X745044Y448071D01*
X743524Y448015D01*
X742002Y447996D01*
X740480Y448015D01*
X738960Y448071D01*
X737441Y448164D01*
X735925Y448295D01*
X734413Y448462D01*
X732905Y448667D01*
X731402Y448909D01*
X729906Y449187D01*
X728418Y449502D01*
X726937Y449854D01*
X725466Y450242D01*
X724004Y450666D01*
X722554Y451125D01*
X721115Y451620D01*
X719689Y452150D01*
X718276Y452715D01*
X716877Y453315D01*
X715494Y453949D01*
X714126Y454616D01*
X712775Y455317D01*
X711442Y456051D01*
X710128Y456817D01*
X708832Y457615D01*
X707557Y458445D01*
X706302Y459306D01*
X705069Y460197D01*
X703858Y461119D01*
X702670Y462069D01*
X701505Y463049D01*
X700365Y464057D01*
X699250Y465093D01*
X698161Y466155D01*
X697099Y467244D01*
X696063Y468359D01*
X695055Y469499D01*
X694075Y470664D01*
X693125Y471852D01*
X692203Y473063D01*
X691312Y474296D01*
X690451Y475551D01*
X689621Y476826D01*
X688823Y478122D01*
X688057Y479436D01*
X687323Y480769D01*
X686622Y482120D01*
X685955Y483488D01*
X685321Y484871D01*
X684721Y486270D01*
X684156Y487683D01*
X683626Y489109D01*
X683131Y490548D01*
X682672Y491998D01*
X682248Y493460D01*
X681860Y494931D01*
X681508Y496412D01*
X681193Y497900D01*
X680915Y499396D01*
X680673Y500899D01*
X680468Y502407D01*
X680301Y503919D01*
X680170Y505435D01*
X680077Y506954D01*
X680021Y508474D01*
X680002Y509996D01*
X719502Y509996D02*
X719509Y510548D01*
X719529Y511100D01*
X719563Y511651D01*
X719610Y512201D01*
X719671Y512750D01*
X719746Y513297D01*
X719833Y513843D01*
X719934Y514386D01*
X720049Y514926D01*
X720176Y515463D01*
X720317Y515997D01*
X720471Y516527D01*
X720638Y517054D01*
X720817Y517576D01*
X721010Y518094D01*
X721215Y518606D01*
X721432Y519114D01*
X721662Y519616D01*
X721904Y520112D01*
X722159Y520602D01*
X722425Y521086D01*
X722703Y521563D01*
X722993Y522033D01*
X723294Y522496D01*
X723606Y522952D01*
X723930Y523399D01*
X724264Y523839D01*
X724609Y524270D01*
X724965Y524692D01*
X725331Y525106D01*
X725706Y525511D01*
X726092Y525906D01*
X726487Y526292D01*
X726892Y526667D01*
X727306Y527033D01*
X727728Y527389D01*
X728159Y527734D01*
X728599Y528068D01*
X729046Y528392D01*
X729502Y528704D01*
X729965Y529005D01*
X730435Y529295D01*
X730912Y529573D01*
X731396Y529839D01*
X731886Y530094D01*
X732382Y530336D01*
X732884Y530566D01*
X733392Y530783D01*
X733904Y530988D01*
X734422Y531181D01*
X734944Y531360D01*
X735471Y531527D01*
X736001Y531681D01*
X736535Y531822D01*
X737072Y531949D01*
X737612Y532064D01*
X738155Y532165D01*
X738701Y532252D01*
X739248Y532327D01*
X739797Y532388D01*
X740347Y532435D01*
X740898Y532469D01*
X741450Y532489D01*
X742002Y532496D01*
X742554Y532489D01*
X743106Y532469D01*
X743657Y532435D01*
X744207Y532388D01*
X744756Y532327D01*
X745303Y532252D01*
X745849Y532165D01*
X746392Y532064D01*
X746932Y531949D01*
X747469Y531822D01*
X748003Y531681D01*
X748533Y531527D01*
X749060Y531360D01*
X749582Y531181D01*
X750100Y530988D01*
X750612Y530783D01*
X751120Y530566D01*
X751622Y530336D01*
X752118Y530094D01*
X752608Y529839D01*
X753092Y529573D01*
X753569Y529295D01*
X754039Y529005D01*
X754502Y528704D01*
X754958Y528392D01*
X755405Y528068D01*
X755845Y527734D01*
X756276Y527389D01*
X756698Y527033D01*
X757112Y526667D01*
X757517Y526292D01*
X757912Y525906D01*
X758298Y525511D01*
X758673Y525106D01*
X759039Y524692D01*
X759395Y524270D01*
X759740Y523839D01*
X760074Y523399D01*
X760398Y522952D01*
X760710Y522496D01*
X761011Y522033D01*
X761301Y521563D01*
X761579Y521086D01*
X761845Y520602D01*
X762100Y520112D01*
X762342Y519616D01*
X762572Y519114D01*
X762789Y518606D01*
X762994Y518094D01*
X763187Y517576D01*
X763366Y517054D01*
X763533Y516527D01*
X763687Y515997D01*
X763828Y515463D01*
X763955Y514926D01*
X764070Y514386D01*
X764171Y513843D01*
X764258Y513297D01*
X764333Y512750D01*
X764394Y512201D01*
X764441Y511651D01*
X764475Y511100D01*
X764495Y510548D01*
X764502Y509996D01*
X764495Y509444D01*
X764475Y508892D01*
X764441Y508341D01*
X764394Y507791D01*
X764333Y507242D01*
X764258Y506695D01*
X764171Y506149D01*
X764070Y505606D01*
X763955Y505066D01*
X763828Y504529D01*
X763687Y503995D01*
X763533Y503465D01*
X763366Y502938D01*
X763187Y502416D01*
X762994Y501898D01*
X762789Y501386D01*
X762572Y500878D01*
X762342Y500376D01*
X762100Y499880D01*
X761845Y499390D01*
X761579Y498906D01*
X761301Y498429D01*
X761011Y497959D01*
X760710Y497496D01*
X760398Y497040D01*
X760074Y496593D01*
X759740Y496153D01*
X759395Y495722D01*
X759039Y495300D01*
X758673Y494886D01*
X758298Y494481D01*
X757912Y494086D01*
X757517Y493700D01*
X757112Y493325D01*
X756698Y492959D01*
X756276Y492603D01*
X755845Y492258D01*
X755405Y491924D01*
X754958Y491600D01*
X754502Y491288D01*
X754039Y490987D01*
X753569Y490697D01*
X753092Y490419D01*
X752608Y490153D01*
X752118Y489898D01*
X751622Y489656D01*
X751120Y489426D01*
X750612Y489209D01*
X750100Y489004D01*
X749582Y488811D01*
X749060Y488632D01*
X748533Y488465D01*
X748003Y488311D01*
X747469Y488170D01*
X746932Y488043D01*
X746392Y487928D01*
X745849Y487827D01*
X745303Y487740D01*
X744756Y487665D01*
X744207Y487604D01*
X743657Y487557D01*
X743106Y487523D01*
X742554Y487503D01*
X742002Y487496D01*
X741450Y487503D01*
X740898Y487523D01*
X740347Y487557D01*
X739797Y487604D01*
X739248Y487665D01*
X738701Y487740D01*
X738155Y487827D01*
X737612Y487928D01*
X737072Y488043D01*
X736535Y488170D01*
X736001Y488311D01*
X735471Y488465D01*
X734944Y488632D01*
X734422Y488811D01*
X733904Y489004D01*
X733392Y489209D01*
X732884Y489426D01*
X732382Y489656D01*
X731886Y489898D01*
X731396Y490153D01*
X730912Y490419D01*
X730435Y490697D01*
X729965Y490987D01*
X729502Y491288D01*
X729046Y491600D01*
X728599Y491924D01*
X728159Y492258D01*
X727728Y492603D01*
X727306Y492959D01*
X726892Y493325D01*
X726487Y493700D01*
X726092Y494086D01*
X725706Y494481D01*
X725331Y494886D01*
X724965Y495300D01*
X724609Y495722D01*
X724264Y496153D01*
X723930Y496593D01*
X723606Y497040D01*
X723294Y497496D01*
X722993Y497959D01*
X722703Y498429D01*
X722425Y498906D01*
X722159Y499390D01*
X721904Y499880D01*
X721662Y500376D01*
X721432Y500878D01*
X721215Y501386D01*
X721010Y501898D01*
X720817Y502416D01*
X720638Y502938D01*
X720471Y503465D01*
X720317Y503995D01*
X720176Y504529D01*
X720049Y505066D01*
X719934Y505606D01*
X719833Y506149D01*
X719746Y506695D01*
X719671Y507242D01*
X719610Y507791D01*
X719563Y508341D01*
X719529Y508892D01*
X719509Y509444D01*
X719502Y509996D01*
X743602Y529996D02*
X743602Y489996D01*
D14*
X682002Y449996D02*
X682002Y569996D01*
D11*
X767308Y479508D02*
X778992Y479508D01*
X778992Y484701D01*
X773799Y484701D02*
X773799Y479508D01*
X778992Y489970D02*
X767308Y489970D01*
X767308Y488672D02*
X767308Y491268D01*
X778992Y491268D02*
X778992Y488672D01*
X778992Y496272D02*
X767308Y496272D01*
X767308Y501465D01*
X767308Y508258D02*
X778992Y508258D01*
X778992Y505012D02*
X778992Y511504D01*
X767308Y516084D02*
X767308Y521277D01*
X767308Y516084D02*
X778992Y516084D01*
X778992Y521277D01*
X773799Y519979D02*
X773799Y516084D01*
X778992Y526041D02*
X767308Y526041D01*
X778992Y526041D02*
X778992Y529287D01*
X778990Y529400D01*
X778984Y529513D01*
X778974Y529626D01*
X778960Y529739D01*
X778943Y529851D01*
X778921Y529962D01*
X778896Y530072D01*
X778866Y530182D01*
X778833Y530290D01*
X778796Y530397D01*
X778756Y530503D01*
X778711Y530607D01*
X778663Y530710D01*
X778612Y530811D01*
X778557Y530910D01*
X778499Y531007D01*
X778437Y531102D01*
X778372Y531195D01*
X778304Y531285D01*
X778233Y531373D01*
X778158Y531459D01*
X778081Y531542D01*
X778001Y531622D01*
X777918Y531699D01*
X777832Y531774D01*
X777744Y531845D01*
X777654Y531913D01*
X777561Y531978D01*
X777466Y532040D01*
X777369Y532098D01*
X777270Y532153D01*
X777169Y532204D01*
X777066Y532252D01*
X776962Y532297D01*
X776856Y532337D01*
X776749Y532374D01*
X776641Y532407D01*
X776531Y532437D01*
X776421Y532462D01*
X776310Y532484D01*
X776198Y532501D01*
X776085Y532515D01*
X775972Y532525D01*
X775859Y532531D01*
X775746Y532533D01*
X775633Y532531D01*
X775520Y532525D01*
X775407Y532515D01*
X775294Y532501D01*
X775182Y532484D01*
X775071Y532462D01*
X774961Y532437D01*
X774851Y532407D01*
X774743Y532374D01*
X774636Y532337D01*
X774530Y532297D01*
X774426Y532252D01*
X774323Y532204D01*
X774222Y532153D01*
X774123Y532098D01*
X774026Y532040D01*
X773931Y531978D01*
X773838Y531913D01*
X773748Y531845D01*
X773660Y531774D01*
X773574Y531699D01*
X773491Y531622D01*
X773411Y531542D01*
X773334Y531459D01*
X773259Y531373D01*
X773188Y531285D01*
X773120Y531195D01*
X773055Y531102D01*
X772993Y531007D01*
X772935Y530910D01*
X772880Y530811D01*
X772829Y530710D01*
X772781Y530607D01*
X772736Y530503D01*
X772696Y530397D01*
X772659Y530290D01*
X772626Y530182D01*
X772596Y530072D01*
X772571Y529962D01*
X772549Y529851D01*
X772532Y529739D01*
X772518Y529626D01*
X772508Y529513D01*
X772502Y529400D01*
X772500Y529287D01*
X772501Y529287D02*
X772501Y526041D01*
X772501Y529936D02*
X767308Y532532D01*
D13*
X375200Y559300D02*
X375200Y460700D01*
D10*
X379000Y510000D02*
X442500Y510000D01*
X379000Y510000D02*
X379000Y560800D01*
X442500Y510000D01*
X379000Y459200D01*
X379000Y510000D01*
D11*
X353092Y485108D02*
X341408Y485108D01*
X347899Y485108D02*
X347899Y491599D01*
X353092Y491599D02*
X341408Y491599D01*
X341408Y497469D02*
X353092Y497469D01*
X353092Y500715D01*
X353090Y500828D01*
X353084Y500941D01*
X353074Y501054D01*
X353060Y501167D01*
X353043Y501279D01*
X353021Y501390D01*
X352996Y501500D01*
X352966Y501610D01*
X352933Y501718D01*
X352896Y501825D01*
X352856Y501931D01*
X352811Y502035D01*
X352763Y502138D01*
X352712Y502239D01*
X352657Y502338D01*
X352599Y502435D01*
X352537Y502530D01*
X352472Y502623D01*
X352404Y502713D01*
X352333Y502801D01*
X352258Y502887D01*
X352181Y502970D01*
X352101Y503050D01*
X352018Y503127D01*
X351932Y503202D01*
X351844Y503273D01*
X351754Y503341D01*
X351661Y503406D01*
X351566Y503468D01*
X351469Y503526D01*
X351370Y503581D01*
X351269Y503632D01*
X351166Y503680D01*
X351062Y503725D01*
X350956Y503765D01*
X350849Y503802D01*
X350741Y503835D01*
X350631Y503865D01*
X350521Y503890D01*
X350410Y503912D01*
X350298Y503929D01*
X350185Y503943D01*
X350072Y503953D01*
X349959Y503959D01*
X349846Y503961D01*
X349733Y503959D01*
X349620Y503953D01*
X349507Y503943D01*
X349394Y503929D01*
X349282Y503912D01*
X349171Y503890D01*
X349061Y503865D01*
X348951Y503835D01*
X348843Y503802D01*
X348736Y503765D01*
X348630Y503725D01*
X348526Y503680D01*
X348423Y503632D01*
X348322Y503581D01*
X348223Y503526D01*
X348126Y503468D01*
X348031Y503406D01*
X347938Y503341D01*
X347848Y503273D01*
X347760Y503202D01*
X347674Y503127D01*
X347591Y503050D01*
X347511Y502970D01*
X347434Y502887D01*
X347359Y502801D01*
X347288Y502713D01*
X347220Y502623D01*
X347155Y502530D01*
X347093Y502435D01*
X347035Y502338D01*
X346980Y502239D01*
X346929Y502138D01*
X346881Y502035D01*
X346836Y501931D01*
X346796Y501825D01*
X346759Y501718D01*
X346726Y501610D01*
X346696Y501500D01*
X346671Y501390D01*
X346649Y501279D01*
X346632Y501167D01*
X346618Y501054D01*
X346608Y500941D01*
X346602Y500828D01*
X346600Y500715D01*
X346601Y500715D02*
X346601Y497469D01*
D13*
X393200Y817300D02*
X491800Y817300D01*
D10*
X442500Y813500D02*
X442500Y750000D01*
X442500Y813500D02*
X493300Y813500D01*
X442500Y750000D01*
X391700Y813500D01*
X442500Y813500D01*
D11*
X236375Y522395D02*
X224691Y522395D01*
X236375Y522395D02*
X236375Y525641D01*
X236373Y525754D01*
X236367Y525867D01*
X236357Y525980D01*
X236343Y526093D01*
X236326Y526205D01*
X236304Y526316D01*
X236279Y526426D01*
X236249Y526536D01*
X236216Y526644D01*
X236179Y526751D01*
X236139Y526857D01*
X236094Y526961D01*
X236046Y527064D01*
X235995Y527165D01*
X235940Y527264D01*
X235882Y527361D01*
X235820Y527456D01*
X235755Y527549D01*
X235687Y527639D01*
X235616Y527727D01*
X235541Y527813D01*
X235464Y527896D01*
X235384Y527976D01*
X235301Y528053D01*
X235215Y528128D01*
X235127Y528199D01*
X235037Y528267D01*
X234944Y528332D01*
X234849Y528394D01*
X234752Y528452D01*
X234653Y528507D01*
X234552Y528558D01*
X234449Y528606D01*
X234345Y528651D01*
X234239Y528691D01*
X234132Y528728D01*
X234024Y528761D01*
X233914Y528791D01*
X233804Y528816D01*
X233693Y528838D01*
X233581Y528855D01*
X233468Y528869D01*
X233355Y528879D01*
X233242Y528885D01*
X233129Y528887D01*
X233016Y528885D01*
X232903Y528879D01*
X232790Y528869D01*
X232677Y528855D01*
X232565Y528838D01*
X232454Y528816D01*
X232344Y528791D01*
X232234Y528761D01*
X232126Y528728D01*
X232019Y528691D01*
X231913Y528651D01*
X231809Y528606D01*
X231706Y528558D01*
X231605Y528507D01*
X231506Y528452D01*
X231409Y528394D01*
X231314Y528332D01*
X231221Y528267D01*
X231131Y528199D01*
X231043Y528128D01*
X230957Y528053D01*
X230874Y527976D01*
X230794Y527896D01*
X230717Y527813D01*
X230642Y527727D01*
X230571Y527639D01*
X230503Y527549D01*
X230438Y527456D01*
X230376Y527361D01*
X230318Y527264D01*
X230263Y527165D01*
X230212Y527064D01*
X230164Y526961D01*
X230119Y526857D01*
X230079Y526751D01*
X230042Y526644D01*
X230009Y526536D01*
X229979Y526426D01*
X229954Y526316D01*
X229932Y526205D01*
X229915Y526093D01*
X229901Y525980D01*
X229891Y525867D01*
X229885Y525754D01*
X229883Y525641D01*
X229884Y525641D02*
X229884Y522395D01*
X229884Y526290D02*
X224691Y528886D01*
X233778Y533751D02*
X236375Y536997D01*
X224691Y536997D01*
X224691Y533751D02*
X224691Y540243D01*
X230533Y545182D02*
X230763Y545185D01*
X230993Y545193D01*
X231222Y545207D01*
X231451Y545226D01*
X231680Y545251D01*
X231907Y545281D01*
X232135Y545316D01*
X232361Y545357D01*
X232586Y545403D01*
X232810Y545455D01*
X233032Y545512D01*
X233254Y545574D01*
X233473Y545642D01*
X233691Y545715D01*
X233908Y545793D01*
X234122Y545876D01*
X234334Y545964D01*
X234544Y546057D01*
X234752Y546156D01*
X234752Y546155D02*
X234842Y546188D01*
X234931Y546224D01*
X235019Y546264D01*
X235104Y546308D01*
X235188Y546355D01*
X235270Y546405D01*
X235350Y546459D01*
X235427Y546515D01*
X235503Y546575D01*
X235576Y546638D01*
X235646Y546703D01*
X235714Y546772D01*
X235778Y546843D01*
X235840Y546916D01*
X235899Y546992D01*
X235955Y547070D01*
X236008Y547151D01*
X236057Y547233D01*
X236103Y547317D01*
X236146Y547404D01*
X236185Y547491D01*
X236221Y547581D01*
X236253Y547671D01*
X236281Y547763D01*
X236306Y547856D01*
X236327Y547950D01*
X236344Y548044D01*
X236358Y548139D01*
X236367Y548235D01*
X236373Y548331D01*
X236375Y548427D01*
X236373Y548523D01*
X236367Y548619D01*
X236358Y548715D01*
X236344Y548810D01*
X236327Y548904D01*
X236306Y548998D01*
X236281Y549091D01*
X236253Y549183D01*
X236221Y549273D01*
X236185Y549363D01*
X236146Y549450D01*
X236103Y549537D01*
X236057Y549621D01*
X236008Y549703D01*
X235955Y549784D01*
X235899Y549862D01*
X235840Y549938D01*
X235778Y550011D01*
X235714Y550082D01*
X235646Y550151D01*
X235576Y550216D01*
X235503Y550279D01*
X235427Y550339D01*
X235350Y550395D01*
X235270Y550449D01*
X235188Y550499D01*
X235104Y550546D01*
X235019Y550590D01*
X234931Y550630D01*
X234842Y550666D01*
X234752Y550699D01*
X234545Y550798D01*
X234335Y550891D01*
X234122Y550979D01*
X233908Y551062D01*
X233692Y551140D01*
X233474Y551213D01*
X233254Y551281D01*
X233033Y551343D01*
X232810Y551400D01*
X232586Y551452D01*
X232361Y551498D01*
X232135Y551539D01*
X231908Y551574D01*
X231680Y551604D01*
X231451Y551629D01*
X231222Y551648D01*
X230993Y551662D01*
X230763Y551670D01*
X230533Y551673D01*
X230533Y545181D02*
X230303Y545184D01*
X230073Y545192D01*
X229844Y545206D01*
X229615Y545225D01*
X229386Y545250D01*
X229158Y545280D01*
X228931Y545315D01*
X228705Y545356D01*
X228480Y545402D01*
X228256Y545454D01*
X228033Y545511D01*
X227812Y545573D01*
X227592Y545641D01*
X227374Y545714D01*
X227158Y545792D01*
X226944Y545875D01*
X226732Y545963D01*
X226521Y546056D01*
X226314Y546155D01*
X226313Y546155D02*
X226223Y546188D01*
X226134Y546224D01*
X226046Y546265D01*
X225961Y546308D01*
X225877Y546355D01*
X225795Y546405D01*
X225715Y546459D01*
X225638Y546515D01*
X225562Y546575D01*
X225489Y546638D01*
X225419Y546703D01*
X225351Y546772D01*
X225287Y546843D01*
X225225Y546916D01*
X225166Y546992D01*
X225110Y547070D01*
X225057Y547151D01*
X225008Y547233D01*
X224962Y547317D01*
X224919Y547404D01*
X224880Y547491D01*
X224844Y547581D01*
X224812Y547671D01*
X224784Y547763D01*
X224759Y547856D01*
X224738Y547950D01*
X224721Y548044D01*
X224707Y548139D01*
X224698Y548235D01*
X224692Y548331D01*
X224690Y548427D01*
X226314Y550699D02*
X226521Y550798D01*
X226732Y550891D01*
X226944Y550979D01*
X227158Y551062D01*
X227374Y551140D01*
X227592Y551213D01*
X227812Y551281D01*
X228033Y551343D01*
X228256Y551400D01*
X228480Y551452D01*
X228705Y551498D01*
X228931Y551539D01*
X229158Y551574D01*
X229386Y551604D01*
X229615Y551629D01*
X229844Y551648D01*
X230073Y551662D01*
X230303Y551670D01*
X230533Y551673D01*
X226313Y550699D02*
X226223Y550666D01*
X226134Y550630D01*
X226046Y550590D01*
X225961Y550546D01*
X225877Y550499D01*
X225795Y550449D01*
X225715Y550395D01*
X225638Y550339D01*
X225562Y550279D01*
X225489Y550216D01*
X225419Y550151D01*
X225351Y550082D01*
X225287Y550011D01*
X225225Y549938D01*
X225166Y549862D01*
X225110Y549784D01*
X225057Y549703D01*
X225008Y549621D01*
X224962Y549537D01*
X224919Y549450D01*
X224880Y549363D01*
X224844Y549273D01*
X224812Y549183D01*
X224784Y549091D01*
X224759Y548998D01*
X224738Y548904D01*
X224721Y548810D01*
X224707Y548715D01*
X224698Y548619D01*
X224692Y548523D01*
X224690Y548427D01*
X227287Y545831D02*
X233778Y551023D01*
M02*
