G04 EAGLE Gerber X2 export*
%TF.Part,Single*%
%TF.FileFunction,Paste,Top*%
%TF.FilePolarity,Positive*%
%TF.GenerationSoftware,Autodesk,EAGLE,9.2.2*%
%TF.CreationDate,2019-04-19T13:44:37Z*%
G75*
%MOMM*%
%FSLAX34Y34*%
%LPD*%
%INSolderpaste Top*%
%AMOC8*
5,1,8,0,0,1.08239X$1,22.5*%
G01*
%ADD10R,1.600000X1.800000*%
%ADD11R,1.800000X1.600000*%
%ADD12R,0.600000X2.200000*%
%ADD13R,0.800000X3.100000*%
%ADD14R,1.270000X2.540000*%
%ADD15R,1.600000X1.803000*%
%ADD16R,2.184400X1.320800*%
%ADD17R,1.803000X1.600000*%
%ADD18R,1.320800X2.184400*%
%ADD19R,2.000000X1.600000*%
%ADD20R,1.600000X2.000000*%
%ADD21R,1.000000X1.600000*%
%ADD22R,5.400000X6.200000*%
%ADD23R,1.549400X0.533400*%
%ADD24R,2.400000X2.400000*%
%ADD25R,1.270000X1.270000*%
%ADD26R,5.080000X2.540000*%


D10*
X679574Y576956D03*
X707574Y576956D03*
D11*
X591425Y435479D03*
X591425Y407479D03*
D10*
X184396Y915428D03*
X212396Y915428D03*
X399453Y90453D03*
X427453Y90453D03*
X280920Y874103D03*
X252920Y874103D03*
D12*
X521232Y471705D03*
X521232Y523705D03*
X508532Y471705D03*
X533932Y471705D03*
X546632Y471705D03*
X508532Y523705D03*
X533932Y523705D03*
X546632Y523705D03*
X572032Y471705D03*
X572032Y523705D03*
X559332Y471705D03*
X584732Y471705D03*
X559332Y523705D03*
X584732Y523705D03*
X718251Y677263D03*
X718251Y729263D03*
X705551Y677263D03*
X730951Y677263D03*
X743651Y677263D03*
X705551Y729263D03*
X730951Y729263D03*
X743651Y729263D03*
X769051Y677263D03*
X769051Y729263D03*
X756351Y677263D03*
X781751Y677263D03*
X756351Y729263D03*
X781751Y729263D03*
D13*
X408205Y267599D03*
X376205Y267599D03*
X354205Y267599D03*
X332205Y267599D03*
X408205Y214599D03*
X376205Y214599D03*
X354205Y214599D03*
X332205Y214599D03*
D14*
X526483Y283179D03*
X551883Y283179D03*
X551883Y353179D03*
X526483Y353179D03*
D15*
X706993Y624985D03*
X678553Y624985D03*
D16*
X750408Y792147D03*
X706408Y804877D03*
X750408Y817607D03*
X363686Y656399D03*
X319686Y669129D03*
X363686Y681859D03*
D17*
X536457Y620752D03*
X536457Y592312D03*
D15*
X535225Y560010D03*
X506785Y560010D03*
D16*
X364540Y609573D03*
X320540Y622303D03*
X364540Y635033D03*
D15*
X604107Y686424D03*
X632547Y686424D03*
X809189Y765476D03*
X780749Y765476D03*
X730724Y845148D03*
X702284Y845148D03*
D18*
X810893Y684048D03*
X823623Y728048D03*
X836353Y684048D03*
D17*
X864531Y710902D03*
X864531Y682462D03*
X288000Y394220D03*
X288000Y365780D03*
D16*
X77998Y576990D03*
X33998Y589720D03*
X77998Y602450D03*
D19*
X553327Y237285D03*
X553327Y209285D03*
D15*
X678935Y601007D03*
X707375Y601007D03*
X807929Y790055D03*
X779489Y790055D03*
X707297Y647430D03*
X678857Y647430D03*
D20*
X537699Y173758D03*
X509699Y173758D03*
D15*
X759743Y624832D03*
X731303Y624832D03*
X811403Y519796D03*
X782963Y519796D03*
X809293Y562512D03*
X780853Y562512D03*
D20*
X509699Y137862D03*
X537699Y137862D03*
D19*
X590727Y237434D03*
X590727Y209434D03*
D15*
X453780Y390000D03*
X482220Y390000D03*
X731427Y647449D03*
X759867Y647449D03*
X565602Y559432D03*
X594042Y559432D03*
D17*
X562917Y406603D03*
X562917Y435043D03*
D15*
X513214Y673783D03*
X484774Y673783D03*
X542394Y691388D03*
X570834Y691388D03*
D21*
X321513Y49774D03*
X367113Y49774D03*
D22*
X344313Y122774D03*
D23*
X607481Y136458D03*
X607481Y123758D03*
X607481Y111058D03*
X607481Y98358D03*
X681649Y98358D03*
X681649Y111058D03*
X681649Y123758D03*
X681649Y136458D03*
D24*
X460171Y257116D03*
X460171Y213116D03*
D25*
X335188Y164867D03*
X360588Y164867D03*
D26*
X855323Y900000D03*
X30529Y900000D03*
D10*
X350791Y873022D03*
X322791Y873022D03*
D20*
X537699Y101966D03*
X509699Y101966D03*
D17*
X506739Y591943D03*
X506739Y620383D03*
D15*
X215728Y656933D03*
X187288Y656933D03*
X187898Y617508D03*
X216338Y617508D03*
D16*
X364357Y561834D03*
X320357Y574564D03*
X364357Y587294D03*
D17*
X482818Y466620D03*
X482818Y495060D03*
X606637Y468766D03*
X606637Y497206D03*
D12*
X148250Y615223D03*
X148250Y563223D03*
X160950Y615223D03*
X135550Y615223D03*
X122850Y615223D03*
X160950Y563223D03*
X135550Y563223D03*
X122850Y563223D03*
D10*
X659112Y60270D03*
X631112Y60270D03*
D17*
X409972Y507407D03*
X409972Y535847D03*
M02*
