G04 EAGLE Gerber X2 export*
%TF.Part,Single*%
%TF.FileFunction,Soldermask,Bot,1*%
%TF.FilePolarity,Positive*%
%TF.GenerationSoftware,Autodesk,EAGLE,9.2.2*%
%TF.CreationDate,2019-04-19T13:44:37Z*%
G75*
%MOMM*%
%FSLAX34Y34*%
%LPD*%
%INSoldermask Bottom*%
%AMOC8*
5,1,8,0,0,1.08239X$1,22.5*%
G01*
%ADD10C,1.244600*%
%ADD11R,1.451600X1.451600*%
%ADD12C,1.451600*%
%ADD13C,1.509600*%
%ADD14R,1.509600X1.509600*%
%ADD15C,2.051600*%
%ADD16P,2.446851X8X112.500000*%
%ADD17R,1.981200X1.981200*%
%ADD18P,3.357141X8X292.500000*%
%ADD19C,1.101600*%
%ADD20P,2.446851X8X22.500000*%
%ADD21P,2.446851X8X202.500000*%
%ADD22C,1.609600*%
%ADD23P,4.233877X8X292.500000*%
%ADD24C,1.981200*%
%ADD25C,1.351600*%
%ADD26C,2.901600*%
%ADD27P,1.539592X8X112.500000*%
%ADD28C,1.601600*%
%ADD29P,3.357141X8X202.500000*%
%ADD30C,2.057400*%
%ADD31P,3.357141X8X112.500000*%
%ADD32C,1.524000*%
%ADD33P,1.539592X8X22.500000*%
%ADD34R,1.904600X1.701600*%


D10*
X513722Y384460D03*
X513722Y434460D03*
D11*
X812551Y635345D03*
D12*
X832551Y635345D03*
D11*
X273939Y658477D03*
D12*
X253939Y658477D03*
D10*
X782905Y592749D03*
X832905Y592749D03*
X527562Y648635D03*
X477562Y648635D03*
D11*
X321794Y509377D03*
D12*
X321794Y529377D03*
D11*
X788182Y832407D03*
D12*
X808182Y832407D03*
D11*
X861071Y777583D03*
D12*
X841071Y777583D03*
D10*
X604711Y641405D03*
X654711Y641405D03*
D11*
X276089Y598484D03*
D12*
X256089Y598484D03*
D10*
X657859Y530638D03*
X657859Y480638D03*
D11*
X203425Y570566D03*
D12*
X203425Y550566D03*
D11*
X378902Y378804D03*
D12*
X358902Y378804D03*
D11*
X276037Y965820D03*
D12*
X256037Y965820D03*
D11*
X403109Y144963D03*
D12*
X423109Y144963D03*
D11*
X203287Y965665D03*
D12*
X183287Y965665D03*
D13*
X357957Y20706D03*
D14*
X332557Y20706D03*
D13*
X256960Y923048D03*
D14*
X282360Y923048D03*
D15*
X106250Y218850D02*
X86750Y218850D01*
X86750Y381150D02*
X106250Y381150D01*
X213750Y218850D02*
X233250Y218850D01*
X233250Y381150D02*
X213750Y381150D01*
D16*
X515874Y32854D03*
X561679Y32854D03*
D15*
X778750Y381150D02*
X798250Y381150D01*
X798250Y218850D02*
X778750Y218850D01*
X671250Y381150D02*
X651750Y381150D01*
X651750Y218850D02*
X671250Y218850D01*
D17*
X168000Y440000D03*
X143000Y440000D03*
X118000Y440000D03*
D18*
X187000Y510000D03*
X99000Y510000D03*
D19*
X143000Y510000D03*
D20*
X332290Y918003D03*
D21*
X332290Y973295D03*
D22*
X844462Y539996D02*
X859542Y539996D01*
X859542Y559996D02*
X844462Y559996D01*
X844462Y459996D02*
X859542Y459996D01*
X859542Y519996D02*
X844462Y519996D01*
X844462Y499996D02*
X859542Y499996D01*
X859542Y479996D02*
X844462Y479996D01*
D23*
X742002Y569996D03*
X742002Y449996D03*
D19*
X742002Y509996D03*
D24*
X759298Y161666D02*
X778094Y161666D01*
X778094Y136266D02*
X759298Y136266D01*
X759298Y110866D02*
X778094Y110866D01*
X778094Y85466D02*
X759298Y85466D01*
X759298Y60066D02*
X778094Y60066D01*
X778094Y34666D02*
X759298Y34666D01*
D15*
X146800Y115500D02*
X146800Y135000D01*
X178800Y135000D02*
X178800Y115500D01*
X210800Y115500D02*
X210800Y135000D01*
X210800Y165000D02*
X210800Y184500D01*
X178800Y184500D02*
X178800Y165000D01*
X146800Y165000D02*
X146800Y184500D01*
D25*
X121800Y120000D03*
X235800Y180000D03*
D26*
X108000Y960000D03*
X778000Y960000D03*
D10*
X702253Y766759D03*
X752253Y766759D03*
D27*
X516971Y237414D03*
X497921Y224714D03*
X516971Y212014D03*
D26*
X47000Y74500D03*
X838000Y74500D03*
D28*
X364520Y958431D03*
X364520Y932359D03*
X606469Y32854D03*
X471084Y32854D03*
D13*
X409773Y641036D03*
D14*
X409773Y615636D03*
D13*
X447437Y612644D03*
D14*
X447437Y638044D03*
D13*
X651406Y568795D03*
D14*
X626006Y568795D03*
D13*
X623884Y605694D03*
D14*
X649284Y605694D03*
D10*
X406382Y672032D03*
X456382Y672032D03*
D17*
X372500Y535000D03*
X372500Y510000D03*
X372500Y485000D03*
D29*
X442500Y554000D03*
X442500Y466000D03*
D19*
X442500Y510000D03*
D20*
X477780Y300331D03*
X435292Y300368D03*
D28*
X477780Y343701D03*
X434855Y343370D03*
D30*
X647613Y800970D02*
X667171Y800970D01*
X667171Y775570D02*
X647613Y775570D01*
X647613Y750170D02*
X667171Y750170D01*
X177171Y800970D02*
X157613Y800970D01*
X157613Y775570D02*
X177171Y775570D01*
X177171Y750170D02*
X157613Y750170D01*
X416592Y860109D02*
X416592Y879667D01*
X441992Y879667D02*
X441992Y860109D01*
X467392Y860109D02*
X467392Y879667D01*
D17*
X467500Y820000D03*
X442500Y820000D03*
X417500Y820000D03*
D31*
X486500Y750000D03*
X398500Y750000D03*
D19*
X442500Y750000D03*
D32*
X563798Y613850D02*
X578022Y613850D01*
X578022Y639250D02*
X563798Y639250D01*
X563798Y664650D02*
X578022Y664650D01*
D33*
X680197Y876111D03*
X756397Y876111D03*
D34*
X249583Y525261D03*
X249583Y553701D03*
M02*
