M48
;GenerationSoftware,Autodesk,EAGLE,9.2.2*%
;CreationDate,2019-01-08T22:44:59Z*%
FMAT,2
ICI,OFF
METRIC,TZ,000.000
T14C0.300
T13C0.635
T12C0.800
T11C0.813
T10C0.900
T9C1.000
T8C1.016
T7C1.118
T6C1.200
T5C1.250
T4C1.300
T3C2.000
T2C2.800
T1C3.000
%
G90
M71
T1
X14280Y21110
X14280Y38890
X80730Y21110
X80730Y38890
T2
X87468Y7450
X8148Y6988
X81000Y96000
X14000Y96000
T3
X30920Y42140
X30920Y50940
X78080Y50000
X66080Y50000
X76480Y82000
X67680Y82000
T4
X20630Y38115
X20630Y21885
X87080Y38115
X12880Y16500
X74380Y38115
X74380Y21885
X7930Y38115
X7930Y21885
X12880Y13500
X16080Y13500
X19280Y13500
X19280Y16500
X18478Y9394
X22174Y9394
X54360Y11704
X54360Y14014
X16080Y16500
X87080Y21885
T5
X10380Y12000
X21780Y18000
T6
X69080Y61000
X67080Y61000
X77080Y61000
X71080Y61000
X73080Y61000
X75080Y61000
T7
X60960Y12065
X58420Y12065
X71120Y12065
X68580Y12065
X66040Y12065
X63500Y12065
T8
X22225Y6985
X18415Y6985
X54456Y9228
X54356Y16510
T9
X37920Y44040
X37920Y46540
X37920Y49040
X30920Y61000
X14920Y61000
X74580Y89000
X72080Y89000
X69580Y89000
X72080Y50000
X14920Y74500
X30920Y46540
X72080Y82000
X14920Y88000
X30920Y88000
X30920Y74500
T10
X40608Y92902
X76327Y65405
X76327Y67945
X72336Y67551
X72336Y65011
X40767Y85979
X40767Y83439
X37465Y83820
X37465Y86360
X37279Y93210
X33020Y11430
X33020Y13970
X36195Y5080
X38735Y5080
X37279Y95750
X40608Y95442
T11
X30920Y85000
X60547Y72442
X33420Y64000
X30920Y64000
X28420Y64000
X33420Y71500
X30920Y71500
X28420Y71500
X28420Y77500
X30920Y77500
X33420Y77500
X28420Y58000
X30920Y58000
X33420Y58000
X48260Y24130
X48770Y30000
X46230Y30000
X12420Y58000
X14920Y58000
X33420Y85000
X17420Y58000
X28420Y85000
X28420Y91000
X30920Y91000
X33420Y91000
X12420Y91000
X14920Y91000
X17420Y91000
X17420Y85000
X14920Y85000
X12420Y85000
X17420Y64000
X12420Y71500
X14920Y71500
X49530Y22225
X17420Y71500
X56515Y89227
X55245Y91132
X64924Y94304
X66829Y95574
X64924Y96844
X60547Y77522
X60547Y74982
X17420Y77500
X58536Y69658
X60441Y68388
X58536Y67118
X50800Y24130
X12420Y64000
X14920Y64000
X14920Y77500
X12420Y77500
X57785Y91132
T12
X27658Y37584
X26035Y13700
X26035Y11700
X44450Y18780
X44450Y16780
X32385Y6715
X27658Y39584
X58844Y62365
X60844Y62365
X22829Y64688
X22829Y66688
X52070Y67580
X44815Y66348
X42815Y66348
X41467Y45700
X41467Y47700
X13700Y53802
X11700Y53802
X52070Y69580
X51570Y80915
X53570Y80915
X56245Y51435
X54245Y51435
X59030Y38459
X61030Y38459
X70274Y95574
X7985Y53340
X5985Y53340
X72274Y95574
X58436Y95574
X60436Y95574
X32385Y4715
T13
X68492Y77943
X49570Y85187
X54570Y85187
X60960Y88938
X60960Y83938
X5715Y79516
X5715Y74516
X68485Y70259
X50720Y75565
X45720Y75565
X47545Y62230
X42545Y62230
X64305Y77980
X64305Y72980
X45085Y86955
X45085Y81955
X68485Y65259
X64117Y54366
X59117Y54366
X5580Y46353
X5580Y41353
X24482Y51691
X24482Y46691
X51435Y54650
X51435Y59650
X31951Y37721
X36951Y37721
X68492Y72943
T14
X16662Y46330
X56054Y63602
X40038Y19250
X28448Y86970
X44704Y55880
X13762Y47818
X22482Y91630
X9084Y52052
X46736Y59131
M30