G04 EAGLE Gerber X2 export*
%TF.Part,Single*%
%TF.FileFunction,Legend,Bot,1*%
%TF.FilePolarity,Positive*%
%TF.GenerationSoftware,Autodesk,EAGLE,9.2.2*%
%TF.CreationDate,2019-01-08T22:45:00Z*%
G75*
%MOMM*%
%FSLAX34Y34*%
%LPD*%
%INSilkscreen Bottom*%
%AMOC8*
5,1,8,0,0,1.08239X$1,22.5*%
G01*
%ADD10C,0.152400*%
%ADD11C,0.127000*%
%ADD12C,0.254000*%
%ADD13C,0.101600*%
%ADD14C,0.203200*%
%ADD15C,0.200000*%


D10*
X248384Y73293D02*
X251093Y73293D01*
X251093Y64262D01*
X245674Y64262D01*
X245556Y64264D01*
X245438Y64270D01*
X245320Y64279D01*
X245203Y64293D01*
X245086Y64310D01*
X244969Y64331D01*
X244854Y64356D01*
X244739Y64385D01*
X244625Y64418D01*
X244513Y64454D01*
X244402Y64494D01*
X244292Y64537D01*
X244183Y64584D01*
X244076Y64634D01*
X243971Y64689D01*
X243868Y64746D01*
X243767Y64807D01*
X243667Y64871D01*
X243570Y64938D01*
X243475Y65008D01*
X243383Y65082D01*
X243292Y65158D01*
X243205Y65238D01*
X243120Y65320D01*
X243038Y65405D01*
X242958Y65492D01*
X242882Y65583D01*
X242808Y65675D01*
X242738Y65770D01*
X242671Y65867D01*
X242607Y65967D01*
X242546Y66068D01*
X242489Y66171D01*
X242434Y66276D01*
X242384Y66383D01*
X242337Y66492D01*
X242294Y66602D01*
X242254Y66713D01*
X242218Y66825D01*
X242185Y66939D01*
X242156Y67054D01*
X242131Y67169D01*
X242110Y67286D01*
X242093Y67403D01*
X242079Y67520D01*
X242070Y67638D01*
X242064Y67756D01*
X242062Y67874D01*
X242062Y76906D01*
X242064Y77024D01*
X242070Y77142D01*
X242079Y77260D01*
X242093Y77377D01*
X242110Y77494D01*
X242131Y77611D01*
X242156Y77726D01*
X242185Y77841D01*
X242218Y77955D01*
X242254Y78067D01*
X242294Y78178D01*
X242337Y78288D01*
X242384Y78397D01*
X242434Y78504D01*
X242488Y78609D01*
X242546Y78712D01*
X242607Y78813D01*
X242671Y78913D01*
X242738Y79010D01*
X242808Y79105D01*
X242882Y79197D01*
X242958Y79288D01*
X243038Y79375D01*
X243120Y79460D01*
X243205Y79542D01*
X243292Y79622D01*
X243383Y79698D01*
X243475Y79772D01*
X243570Y79842D01*
X243667Y79909D01*
X243767Y79973D01*
X243868Y80034D01*
X243971Y80091D01*
X244076Y80145D01*
X244183Y80196D01*
X244292Y80243D01*
X244402Y80286D01*
X244513Y80326D01*
X244625Y80362D01*
X244739Y80395D01*
X244854Y80424D01*
X244969Y80449D01*
X245086Y80470D01*
X245203Y80487D01*
X245320Y80501D01*
X245438Y80510D01*
X245556Y80516D01*
X245674Y80518D01*
X251093Y80518D01*
X258075Y71487D02*
X258075Y67874D01*
X258076Y71487D02*
X258078Y71606D01*
X258084Y71726D01*
X258094Y71845D01*
X258108Y71963D01*
X258125Y72082D01*
X258147Y72199D01*
X258172Y72316D01*
X258202Y72431D01*
X258235Y72546D01*
X258272Y72660D01*
X258312Y72772D01*
X258357Y72883D01*
X258405Y72992D01*
X258456Y73100D01*
X258511Y73206D01*
X258570Y73310D01*
X258632Y73412D01*
X258697Y73512D01*
X258766Y73610D01*
X258838Y73706D01*
X258913Y73799D01*
X258990Y73889D01*
X259071Y73977D01*
X259155Y74062D01*
X259242Y74144D01*
X259331Y74224D01*
X259423Y74300D01*
X259517Y74374D01*
X259614Y74444D01*
X259712Y74511D01*
X259813Y74575D01*
X259917Y74635D01*
X260022Y74692D01*
X260129Y74745D01*
X260237Y74795D01*
X260347Y74841D01*
X260459Y74883D01*
X260572Y74922D01*
X260686Y74957D01*
X260801Y74988D01*
X260918Y75016D01*
X261035Y75039D01*
X261152Y75059D01*
X261271Y75075D01*
X261390Y75087D01*
X261509Y75095D01*
X261628Y75099D01*
X261748Y75099D01*
X261867Y75095D01*
X261986Y75087D01*
X262105Y75075D01*
X262224Y75059D01*
X262341Y75039D01*
X262458Y75016D01*
X262575Y74988D01*
X262690Y74957D01*
X262804Y74922D01*
X262917Y74883D01*
X263029Y74841D01*
X263139Y74795D01*
X263247Y74745D01*
X263354Y74692D01*
X263459Y74635D01*
X263563Y74575D01*
X263664Y74511D01*
X263762Y74444D01*
X263859Y74374D01*
X263953Y74300D01*
X264045Y74224D01*
X264134Y74144D01*
X264221Y74062D01*
X264305Y73977D01*
X264386Y73889D01*
X264463Y73799D01*
X264538Y73706D01*
X264610Y73610D01*
X264679Y73512D01*
X264744Y73412D01*
X264806Y73310D01*
X264865Y73206D01*
X264920Y73100D01*
X264971Y72992D01*
X265019Y72883D01*
X265064Y72772D01*
X265104Y72660D01*
X265141Y72546D01*
X265174Y72431D01*
X265204Y72316D01*
X265229Y72199D01*
X265251Y72082D01*
X265268Y71963D01*
X265282Y71845D01*
X265292Y71726D01*
X265298Y71606D01*
X265300Y71487D01*
X265300Y67874D01*
X265298Y67755D01*
X265292Y67635D01*
X265282Y67516D01*
X265268Y67398D01*
X265251Y67279D01*
X265229Y67162D01*
X265204Y67045D01*
X265174Y66930D01*
X265141Y66815D01*
X265104Y66701D01*
X265064Y66589D01*
X265019Y66478D01*
X264971Y66369D01*
X264920Y66261D01*
X264865Y66155D01*
X264806Y66051D01*
X264744Y65949D01*
X264679Y65849D01*
X264610Y65751D01*
X264538Y65655D01*
X264463Y65562D01*
X264386Y65472D01*
X264305Y65384D01*
X264221Y65299D01*
X264134Y65217D01*
X264045Y65137D01*
X263953Y65061D01*
X263859Y64987D01*
X263762Y64917D01*
X263664Y64850D01*
X263563Y64786D01*
X263459Y64726D01*
X263354Y64669D01*
X263247Y64616D01*
X263139Y64566D01*
X263029Y64520D01*
X262917Y64478D01*
X262804Y64439D01*
X262690Y64404D01*
X262575Y64373D01*
X262458Y64345D01*
X262341Y64322D01*
X262224Y64302D01*
X262105Y64286D01*
X261986Y64274D01*
X261867Y64266D01*
X261748Y64262D01*
X261628Y64262D01*
X261509Y64266D01*
X261390Y64274D01*
X261271Y64286D01*
X261152Y64302D01*
X261035Y64322D01*
X260918Y64345D01*
X260801Y64373D01*
X260686Y64404D01*
X260572Y64439D01*
X260459Y64478D01*
X260347Y64520D01*
X260237Y64566D01*
X260129Y64616D01*
X260022Y64669D01*
X259917Y64726D01*
X259813Y64786D01*
X259712Y64850D01*
X259614Y64917D01*
X259517Y64987D01*
X259423Y65061D01*
X259331Y65137D01*
X259242Y65217D01*
X259155Y65299D01*
X259071Y65384D01*
X258990Y65472D01*
X258913Y65562D01*
X258838Y65655D01*
X258766Y65751D01*
X258697Y65849D01*
X258632Y65949D01*
X258570Y66051D01*
X258511Y66155D01*
X258456Y66261D01*
X258405Y66369D01*
X258357Y66478D01*
X258312Y66589D01*
X258272Y66701D01*
X258235Y66815D01*
X258202Y66930D01*
X258172Y67045D01*
X258147Y67162D01*
X258125Y67279D01*
X258108Y67398D01*
X258094Y67516D01*
X258084Y67635D01*
X258078Y67755D01*
X258076Y67874D01*
X271859Y66971D02*
X271859Y80518D01*
X271860Y66971D02*
X271862Y66870D01*
X271868Y66769D01*
X271877Y66668D01*
X271890Y66567D01*
X271907Y66467D01*
X271928Y66368D01*
X271952Y66270D01*
X271980Y66173D01*
X272012Y66076D01*
X272047Y65981D01*
X272086Y65888D01*
X272128Y65796D01*
X272174Y65705D01*
X272223Y65617D01*
X272275Y65530D01*
X272331Y65445D01*
X272389Y65362D01*
X272451Y65282D01*
X272516Y65204D01*
X272583Y65128D01*
X272653Y65055D01*
X272726Y64985D01*
X272802Y64918D01*
X272880Y64853D01*
X272960Y64791D01*
X273043Y64733D01*
X273128Y64677D01*
X273215Y64625D01*
X273303Y64576D01*
X273394Y64530D01*
X273486Y64488D01*
X273579Y64449D01*
X273674Y64414D01*
X273771Y64382D01*
X273868Y64354D01*
X273966Y64330D01*
X274065Y64309D01*
X274165Y64292D01*
X274266Y64279D01*
X274367Y64270D01*
X274468Y64264D01*
X274569Y64262D01*
X287111Y64262D02*
X287111Y80518D01*
X287111Y64262D02*
X282595Y64262D01*
X282494Y64264D01*
X282393Y64270D01*
X282292Y64279D01*
X282191Y64292D01*
X282091Y64309D01*
X281992Y64330D01*
X281894Y64354D01*
X281797Y64382D01*
X281700Y64414D01*
X281605Y64449D01*
X281512Y64488D01*
X281420Y64530D01*
X281329Y64576D01*
X281241Y64625D01*
X281154Y64677D01*
X281069Y64733D01*
X280986Y64791D01*
X280906Y64853D01*
X280828Y64918D01*
X280752Y64985D01*
X280679Y65055D01*
X280609Y65128D01*
X280542Y65204D01*
X280477Y65282D01*
X280415Y65362D01*
X280357Y65445D01*
X280301Y65530D01*
X280249Y65617D01*
X280200Y65705D01*
X280154Y65796D01*
X280112Y65888D01*
X280073Y65981D01*
X280038Y66076D01*
X280006Y66173D01*
X279978Y66270D01*
X279954Y66368D01*
X279933Y66467D01*
X279916Y66567D01*
X279903Y66668D01*
X279894Y66769D01*
X279888Y66870D01*
X279886Y66971D01*
X279886Y72390D01*
X279888Y72491D01*
X279894Y72592D01*
X279903Y72693D01*
X279916Y72794D01*
X279933Y72894D01*
X279954Y72993D01*
X279978Y73091D01*
X280006Y73188D01*
X280038Y73285D01*
X280073Y73380D01*
X280112Y73473D01*
X280154Y73565D01*
X280200Y73656D01*
X280249Y73745D01*
X280301Y73831D01*
X280357Y73916D01*
X280415Y73999D01*
X280477Y74079D01*
X280542Y74157D01*
X280609Y74233D01*
X280679Y74306D01*
X280752Y74376D01*
X280828Y74443D01*
X280906Y74508D01*
X280986Y74570D01*
X281069Y74628D01*
X281154Y74684D01*
X281241Y74736D01*
X281329Y74785D01*
X281420Y74831D01*
X281512Y74873D01*
X281605Y74912D01*
X281700Y74947D01*
X281797Y74979D01*
X281894Y75007D01*
X281992Y75031D01*
X282091Y75052D01*
X282191Y75069D01*
X282292Y75082D01*
X282393Y75091D01*
X282494Y75097D01*
X282595Y75099D01*
X287111Y75099D01*
X292730Y75099D02*
X298149Y75099D01*
X294536Y80518D02*
X294536Y66971D01*
X294538Y66870D01*
X294544Y66769D01*
X294553Y66668D01*
X294566Y66567D01*
X294583Y66467D01*
X294604Y66368D01*
X294628Y66270D01*
X294656Y66173D01*
X294688Y66076D01*
X294723Y65981D01*
X294762Y65888D01*
X294804Y65796D01*
X294850Y65705D01*
X294899Y65617D01*
X294951Y65530D01*
X295007Y65445D01*
X295065Y65362D01*
X295127Y65282D01*
X295192Y65204D01*
X295259Y65128D01*
X295329Y65055D01*
X295402Y64985D01*
X295478Y64918D01*
X295556Y64853D01*
X295636Y64791D01*
X295719Y64733D01*
X295804Y64677D01*
X295891Y64625D01*
X295979Y64576D01*
X296070Y64530D01*
X296162Y64488D01*
X296255Y64449D01*
X296350Y64414D01*
X296447Y64382D01*
X296544Y64354D01*
X296642Y64330D01*
X296741Y64309D01*
X296841Y64292D01*
X296942Y64279D01*
X297043Y64270D01*
X297144Y64264D01*
X297245Y64262D01*
X298149Y64262D01*
X303927Y67874D02*
X303927Y71487D01*
X303929Y71606D01*
X303935Y71726D01*
X303945Y71845D01*
X303959Y71963D01*
X303976Y72082D01*
X303998Y72199D01*
X304023Y72316D01*
X304053Y72431D01*
X304086Y72546D01*
X304123Y72660D01*
X304163Y72772D01*
X304208Y72883D01*
X304256Y72992D01*
X304307Y73100D01*
X304362Y73206D01*
X304421Y73310D01*
X304483Y73412D01*
X304548Y73512D01*
X304617Y73610D01*
X304689Y73706D01*
X304764Y73799D01*
X304841Y73889D01*
X304922Y73977D01*
X305006Y74062D01*
X305093Y74144D01*
X305182Y74224D01*
X305274Y74300D01*
X305368Y74374D01*
X305465Y74444D01*
X305563Y74511D01*
X305664Y74575D01*
X305768Y74635D01*
X305873Y74692D01*
X305980Y74745D01*
X306088Y74795D01*
X306198Y74841D01*
X306310Y74883D01*
X306423Y74922D01*
X306537Y74957D01*
X306652Y74988D01*
X306769Y75016D01*
X306886Y75039D01*
X307003Y75059D01*
X307122Y75075D01*
X307241Y75087D01*
X307360Y75095D01*
X307479Y75099D01*
X307599Y75099D01*
X307718Y75095D01*
X307837Y75087D01*
X307956Y75075D01*
X308075Y75059D01*
X308192Y75039D01*
X308309Y75016D01*
X308426Y74988D01*
X308541Y74957D01*
X308655Y74922D01*
X308768Y74883D01*
X308880Y74841D01*
X308990Y74795D01*
X309098Y74745D01*
X309205Y74692D01*
X309310Y74635D01*
X309414Y74575D01*
X309515Y74511D01*
X309613Y74444D01*
X309710Y74374D01*
X309804Y74300D01*
X309896Y74224D01*
X309985Y74144D01*
X310072Y74062D01*
X310156Y73977D01*
X310237Y73889D01*
X310314Y73799D01*
X310389Y73706D01*
X310461Y73610D01*
X310530Y73512D01*
X310595Y73412D01*
X310657Y73310D01*
X310716Y73206D01*
X310771Y73100D01*
X310822Y72992D01*
X310870Y72883D01*
X310915Y72772D01*
X310955Y72660D01*
X310992Y72546D01*
X311025Y72431D01*
X311055Y72316D01*
X311080Y72199D01*
X311102Y72082D01*
X311119Y71963D01*
X311133Y71845D01*
X311143Y71726D01*
X311149Y71606D01*
X311151Y71487D01*
X311152Y71487D02*
X311152Y67874D01*
X311151Y67874D02*
X311149Y67755D01*
X311143Y67635D01*
X311133Y67516D01*
X311119Y67398D01*
X311102Y67279D01*
X311080Y67162D01*
X311055Y67045D01*
X311025Y66930D01*
X310992Y66815D01*
X310955Y66701D01*
X310915Y66589D01*
X310870Y66478D01*
X310822Y66369D01*
X310771Y66261D01*
X310716Y66155D01*
X310657Y66051D01*
X310595Y65949D01*
X310530Y65849D01*
X310461Y65751D01*
X310389Y65655D01*
X310314Y65562D01*
X310237Y65472D01*
X310156Y65384D01*
X310072Y65299D01*
X309985Y65217D01*
X309896Y65137D01*
X309804Y65061D01*
X309710Y64987D01*
X309613Y64917D01*
X309515Y64850D01*
X309414Y64786D01*
X309310Y64726D01*
X309205Y64669D01*
X309098Y64616D01*
X308990Y64566D01*
X308880Y64520D01*
X308768Y64478D01*
X308655Y64439D01*
X308541Y64404D01*
X308426Y64373D01*
X308309Y64345D01*
X308192Y64322D01*
X308075Y64302D01*
X307956Y64286D01*
X307837Y64274D01*
X307718Y64266D01*
X307599Y64262D01*
X307479Y64262D01*
X307360Y64266D01*
X307241Y64274D01*
X307122Y64286D01*
X307003Y64302D01*
X306886Y64322D01*
X306769Y64345D01*
X306652Y64373D01*
X306537Y64404D01*
X306423Y64439D01*
X306310Y64478D01*
X306198Y64520D01*
X306088Y64566D01*
X305980Y64616D01*
X305873Y64669D01*
X305768Y64726D01*
X305664Y64786D01*
X305563Y64850D01*
X305465Y64917D01*
X305368Y64987D01*
X305274Y65061D01*
X305182Y65137D01*
X305093Y65217D01*
X305006Y65299D01*
X304922Y65384D01*
X304841Y65472D01*
X304764Y65562D01*
X304689Y65655D01*
X304617Y65751D01*
X304548Y65849D01*
X304483Y65949D01*
X304421Y66051D01*
X304362Y66155D01*
X304307Y66261D01*
X304256Y66369D01*
X304208Y66478D01*
X304163Y66589D01*
X304123Y66701D01*
X304086Y66815D01*
X304053Y66930D01*
X304023Y67045D01*
X303998Y67162D01*
X303976Y67279D01*
X303959Y67398D01*
X303945Y67516D01*
X303935Y67635D01*
X303929Y67755D01*
X303927Y67874D01*
X317474Y67874D02*
X317474Y71487D01*
X317476Y71606D01*
X317482Y71726D01*
X317492Y71845D01*
X317506Y71963D01*
X317523Y72082D01*
X317545Y72199D01*
X317570Y72316D01*
X317600Y72431D01*
X317633Y72546D01*
X317670Y72660D01*
X317710Y72772D01*
X317755Y72883D01*
X317803Y72992D01*
X317854Y73100D01*
X317909Y73206D01*
X317968Y73310D01*
X318030Y73412D01*
X318095Y73512D01*
X318164Y73610D01*
X318236Y73706D01*
X318311Y73799D01*
X318388Y73889D01*
X318469Y73977D01*
X318553Y74062D01*
X318640Y74144D01*
X318729Y74224D01*
X318821Y74300D01*
X318915Y74374D01*
X319012Y74444D01*
X319110Y74511D01*
X319211Y74575D01*
X319315Y74635D01*
X319420Y74692D01*
X319527Y74745D01*
X319635Y74795D01*
X319745Y74841D01*
X319857Y74883D01*
X319970Y74922D01*
X320084Y74957D01*
X320199Y74988D01*
X320316Y75016D01*
X320433Y75039D01*
X320550Y75059D01*
X320669Y75075D01*
X320788Y75087D01*
X320907Y75095D01*
X321026Y75099D01*
X321146Y75099D01*
X321265Y75095D01*
X321384Y75087D01*
X321503Y75075D01*
X321622Y75059D01*
X321739Y75039D01*
X321856Y75016D01*
X321973Y74988D01*
X322088Y74957D01*
X322202Y74922D01*
X322315Y74883D01*
X322427Y74841D01*
X322537Y74795D01*
X322645Y74745D01*
X322752Y74692D01*
X322857Y74635D01*
X322961Y74575D01*
X323062Y74511D01*
X323160Y74444D01*
X323257Y74374D01*
X323351Y74300D01*
X323443Y74224D01*
X323532Y74144D01*
X323619Y74062D01*
X323703Y73977D01*
X323784Y73889D01*
X323861Y73799D01*
X323936Y73706D01*
X324008Y73610D01*
X324077Y73512D01*
X324142Y73412D01*
X324204Y73310D01*
X324263Y73206D01*
X324318Y73100D01*
X324369Y72992D01*
X324417Y72883D01*
X324462Y72772D01*
X324502Y72660D01*
X324539Y72546D01*
X324572Y72431D01*
X324602Y72316D01*
X324627Y72199D01*
X324649Y72082D01*
X324666Y71963D01*
X324680Y71845D01*
X324690Y71726D01*
X324696Y71606D01*
X324698Y71487D01*
X324699Y71487D02*
X324699Y67874D01*
X324698Y67874D02*
X324696Y67755D01*
X324690Y67635D01*
X324680Y67516D01*
X324666Y67398D01*
X324649Y67279D01*
X324627Y67162D01*
X324602Y67045D01*
X324572Y66930D01*
X324539Y66815D01*
X324502Y66701D01*
X324462Y66589D01*
X324417Y66478D01*
X324369Y66369D01*
X324318Y66261D01*
X324263Y66155D01*
X324204Y66051D01*
X324142Y65949D01*
X324077Y65849D01*
X324008Y65751D01*
X323936Y65655D01*
X323861Y65562D01*
X323784Y65472D01*
X323703Y65384D01*
X323619Y65299D01*
X323532Y65217D01*
X323443Y65137D01*
X323351Y65061D01*
X323257Y64987D01*
X323160Y64917D01*
X323062Y64850D01*
X322961Y64786D01*
X322857Y64726D01*
X322752Y64669D01*
X322645Y64616D01*
X322537Y64566D01*
X322427Y64520D01*
X322315Y64478D01*
X322202Y64439D01*
X322088Y64404D01*
X321973Y64373D01*
X321856Y64345D01*
X321739Y64322D01*
X321622Y64302D01*
X321503Y64286D01*
X321384Y64274D01*
X321265Y64266D01*
X321146Y64262D01*
X321026Y64262D01*
X320907Y64266D01*
X320788Y64274D01*
X320669Y64286D01*
X320550Y64302D01*
X320433Y64322D01*
X320316Y64345D01*
X320199Y64373D01*
X320084Y64404D01*
X319970Y64439D01*
X319857Y64478D01*
X319745Y64520D01*
X319635Y64566D01*
X319527Y64616D01*
X319420Y64669D01*
X319315Y64726D01*
X319211Y64786D01*
X319110Y64850D01*
X319012Y64917D01*
X318915Y64987D01*
X318821Y65061D01*
X318729Y65137D01*
X318640Y65217D01*
X318553Y65299D01*
X318469Y65384D01*
X318388Y65472D01*
X318311Y65562D01*
X318236Y65655D01*
X318164Y65751D01*
X318095Y65849D01*
X318030Y65949D01*
X317968Y66051D01*
X317909Y66155D01*
X317854Y66261D01*
X317803Y66369D01*
X317755Y66478D01*
X317710Y66589D01*
X317670Y66701D01*
X317633Y66815D01*
X317600Y66930D01*
X317570Y67045D01*
X317545Y67162D01*
X317523Y67279D01*
X317506Y67398D01*
X317492Y67516D01*
X317482Y67635D01*
X317476Y67755D01*
X317474Y67874D01*
X329724Y75099D02*
X335142Y75099D01*
X331530Y80518D02*
X331530Y66971D01*
X331532Y66870D01*
X331538Y66769D01*
X331547Y66668D01*
X331560Y66567D01*
X331577Y66467D01*
X331598Y66368D01*
X331622Y66270D01*
X331650Y66173D01*
X331682Y66076D01*
X331717Y65981D01*
X331756Y65888D01*
X331798Y65796D01*
X331844Y65705D01*
X331893Y65617D01*
X331945Y65530D01*
X332001Y65445D01*
X332059Y65362D01*
X332121Y65282D01*
X332186Y65204D01*
X332253Y65128D01*
X332323Y65055D01*
X332396Y64985D01*
X332472Y64918D01*
X332550Y64853D01*
X332630Y64791D01*
X332713Y64733D01*
X332798Y64677D01*
X332885Y64625D01*
X332973Y64576D01*
X333064Y64530D01*
X333156Y64488D01*
X333249Y64449D01*
X333344Y64414D01*
X333441Y64382D01*
X333538Y64354D01*
X333636Y64330D01*
X333735Y64309D01*
X333835Y64292D01*
X333936Y64279D01*
X334037Y64270D01*
X334138Y64264D01*
X334239Y64262D01*
X335142Y64262D01*
X341442Y64262D02*
X341442Y80518D01*
X341442Y75099D02*
X345957Y75099D01*
X346061Y75097D01*
X346164Y75091D01*
X346268Y75081D01*
X346371Y75067D01*
X346473Y75049D01*
X346574Y75028D01*
X346675Y75002D01*
X346774Y74973D01*
X346873Y74940D01*
X346970Y74903D01*
X347065Y74862D01*
X347159Y74818D01*
X347251Y74770D01*
X347341Y74719D01*
X347430Y74664D01*
X347516Y74606D01*
X347599Y74544D01*
X347681Y74480D01*
X347759Y74412D01*
X347835Y74342D01*
X347909Y74269D01*
X347979Y74192D01*
X348047Y74114D01*
X348111Y74032D01*
X348173Y73949D01*
X348231Y73863D01*
X348286Y73774D01*
X348337Y73684D01*
X348385Y73592D01*
X348429Y73498D01*
X348470Y73403D01*
X348507Y73306D01*
X348540Y73207D01*
X348569Y73108D01*
X348595Y73007D01*
X348616Y72906D01*
X348634Y72804D01*
X348648Y72701D01*
X348658Y72597D01*
X348664Y72494D01*
X348666Y72390D01*
X348667Y72390D02*
X348667Y64262D01*
X349200Y705000D02*
X347300Y705000D01*
X349200Y785000D02*
X269200Y785000D01*
X269200Y705000D01*
X344200Y760000D02*
X349200Y760000D01*
X344200Y760000D02*
X344200Y730000D01*
X349200Y730000D01*
X347300Y707060D02*
X347300Y705000D01*
X271100Y705000D02*
X271100Y707060D01*
X271100Y705000D02*
X269200Y705000D01*
X271100Y707060D02*
X347300Y707060D01*
X347300Y705000D02*
X271100Y705000D01*
X342220Y778180D02*
X349200Y785000D01*
X326980Y778180D02*
X316820Y778180D01*
X349200Y785000D02*
X349200Y760000D01*
X349200Y730000D01*
X349200Y705000D01*
X301580Y778180D02*
X291420Y778180D01*
X276180Y778180D02*
X269200Y785000D01*
X332568Y726618D02*
X336378Y723570D01*
X332568Y726618D02*
X332568Y712902D01*
X336378Y712902D02*
X328758Y712902D01*
X309327Y726618D02*
X309212Y726616D01*
X309098Y726610D01*
X308984Y726601D01*
X308870Y726587D01*
X308757Y726570D01*
X308644Y726549D01*
X308532Y726525D01*
X308421Y726496D01*
X308311Y726464D01*
X308202Y726428D01*
X308095Y726389D01*
X307988Y726346D01*
X307884Y726299D01*
X307780Y726249D01*
X307679Y726196D01*
X307580Y726139D01*
X307482Y726079D01*
X307386Y726016D01*
X307293Y725950D01*
X307202Y725880D01*
X307113Y725808D01*
X307027Y725732D01*
X306943Y725654D01*
X306862Y725573D01*
X306784Y725489D01*
X306708Y725403D01*
X306636Y725314D01*
X306566Y725223D01*
X306500Y725130D01*
X306437Y725034D01*
X306377Y724936D01*
X306320Y724837D01*
X306267Y724736D01*
X306217Y724632D01*
X306170Y724528D01*
X306127Y724421D01*
X306088Y724314D01*
X306052Y724205D01*
X306020Y724095D01*
X305991Y723984D01*
X305967Y723872D01*
X305946Y723759D01*
X305929Y723646D01*
X305915Y723532D01*
X305906Y723418D01*
X305900Y723304D01*
X305898Y723189D01*
X309327Y726618D02*
X309459Y726616D01*
X309591Y726610D01*
X309722Y726600D01*
X309853Y726586D01*
X309984Y726569D01*
X310114Y726547D01*
X310244Y726522D01*
X310372Y726492D01*
X310500Y726459D01*
X310626Y726422D01*
X310752Y726381D01*
X310876Y726337D01*
X310999Y726288D01*
X311120Y726237D01*
X311240Y726181D01*
X311358Y726122D01*
X311474Y726060D01*
X311588Y725994D01*
X311700Y725924D01*
X311810Y725851D01*
X311918Y725775D01*
X312023Y725696D01*
X312126Y725614D01*
X312227Y725529D01*
X312325Y725440D01*
X312420Y725349D01*
X312513Y725255D01*
X312602Y725158D01*
X312689Y725059D01*
X312773Y724957D01*
X312853Y724853D01*
X312931Y724746D01*
X313005Y724637D01*
X313076Y724526D01*
X313144Y724412D01*
X313208Y724297D01*
X313268Y724180D01*
X313326Y724061D01*
X313379Y723941D01*
X313429Y723819D01*
X313475Y723695D01*
X313518Y723570D01*
X307041Y720522D02*
X306956Y720606D01*
X306874Y720692D01*
X306794Y720781D01*
X306718Y720873D01*
X306644Y720966D01*
X306574Y721063D01*
X306506Y721161D01*
X306442Y721262D01*
X306382Y721365D01*
X306324Y721469D01*
X306270Y721575D01*
X306220Y721684D01*
X306173Y721793D01*
X306129Y721904D01*
X306090Y722017D01*
X306053Y722130D01*
X306021Y722245D01*
X305992Y722361D01*
X305967Y722478D01*
X305946Y722595D01*
X305929Y722713D01*
X305915Y722832D01*
X305906Y722951D01*
X305900Y723070D01*
X305898Y723189D01*
X307041Y720522D02*
X313518Y712902D01*
X305898Y712902D01*
X288118Y712902D02*
X284308Y712902D01*
X284186Y712904D01*
X284064Y712910D01*
X283942Y712920D01*
X283821Y712933D01*
X283700Y712951D01*
X283580Y712972D01*
X283460Y712998D01*
X283342Y713027D01*
X283224Y713059D01*
X283107Y713096D01*
X282992Y713136D01*
X282878Y713180D01*
X282766Y713228D01*
X282655Y713279D01*
X282546Y713334D01*
X282438Y713392D01*
X282333Y713454D01*
X282230Y713519D01*
X282128Y713587D01*
X282029Y713659D01*
X281933Y713733D01*
X281838Y713811D01*
X281747Y713892D01*
X281657Y713975D01*
X281571Y714061D01*
X281488Y714151D01*
X281407Y714242D01*
X281329Y714337D01*
X281255Y714433D01*
X281183Y714532D01*
X281115Y714634D01*
X281050Y714737D01*
X280988Y714842D01*
X280930Y714950D01*
X280875Y715059D01*
X280824Y715170D01*
X280776Y715282D01*
X280732Y715396D01*
X280692Y715511D01*
X280655Y715628D01*
X280623Y715746D01*
X280594Y715864D01*
X280568Y715984D01*
X280547Y716104D01*
X280529Y716225D01*
X280516Y716346D01*
X280506Y716468D01*
X280500Y716590D01*
X280498Y716712D01*
X280500Y716834D01*
X280506Y716956D01*
X280516Y717078D01*
X280529Y717199D01*
X280547Y717320D01*
X280568Y717440D01*
X280594Y717560D01*
X280623Y717678D01*
X280655Y717796D01*
X280692Y717913D01*
X280732Y718028D01*
X280776Y718142D01*
X280824Y718254D01*
X280875Y718365D01*
X280930Y718474D01*
X280988Y718582D01*
X281050Y718687D01*
X281115Y718790D01*
X281183Y718892D01*
X281255Y718991D01*
X281329Y719087D01*
X281407Y719182D01*
X281488Y719273D01*
X281571Y719363D01*
X281657Y719449D01*
X281747Y719532D01*
X281838Y719613D01*
X281933Y719691D01*
X282029Y719765D01*
X282128Y719837D01*
X282230Y719905D01*
X282333Y719970D01*
X282438Y720032D01*
X282546Y720090D01*
X282655Y720145D01*
X282766Y720196D01*
X282878Y720244D01*
X282992Y720288D01*
X283107Y720328D01*
X283224Y720365D01*
X283342Y720397D01*
X283460Y720426D01*
X283580Y720452D01*
X283700Y720473D01*
X283821Y720491D01*
X283942Y720504D01*
X284064Y720514D01*
X284186Y720520D01*
X284308Y720522D01*
X283546Y726618D02*
X288118Y726618D01*
X283546Y726618D02*
X283437Y726616D01*
X283329Y726610D01*
X283220Y726601D01*
X283112Y726587D01*
X283005Y726570D01*
X282898Y726548D01*
X282792Y726523D01*
X282687Y726495D01*
X282583Y726462D01*
X282481Y726426D01*
X282380Y726386D01*
X282280Y726343D01*
X282182Y726296D01*
X282085Y726245D01*
X281991Y726191D01*
X281898Y726134D01*
X281808Y726074D01*
X281719Y726010D01*
X281633Y725943D01*
X281550Y725874D01*
X281469Y725801D01*
X281391Y725725D01*
X281315Y725647D01*
X281242Y725566D01*
X281173Y725483D01*
X281106Y725397D01*
X281042Y725308D01*
X280982Y725218D01*
X280925Y725125D01*
X280871Y725031D01*
X280820Y724934D01*
X280773Y724836D01*
X280730Y724736D01*
X280690Y724635D01*
X280654Y724533D01*
X280621Y724429D01*
X280593Y724324D01*
X280568Y724218D01*
X280546Y724111D01*
X280529Y724004D01*
X280515Y723896D01*
X280506Y723787D01*
X280500Y723679D01*
X280498Y723570D01*
X280500Y723461D01*
X280506Y723353D01*
X280515Y723244D01*
X280529Y723136D01*
X280546Y723029D01*
X280568Y722922D01*
X280593Y722816D01*
X280621Y722711D01*
X280654Y722607D01*
X280690Y722505D01*
X280730Y722404D01*
X280773Y722304D01*
X280820Y722206D01*
X280871Y722109D01*
X280925Y722015D01*
X280982Y721922D01*
X281042Y721832D01*
X281106Y721743D01*
X281173Y721657D01*
X281242Y721574D01*
X281315Y721493D01*
X281391Y721415D01*
X281469Y721339D01*
X281550Y721266D01*
X281633Y721197D01*
X281719Y721130D01*
X281808Y721066D01*
X281898Y721006D01*
X281991Y720949D01*
X282085Y720895D01*
X282182Y720844D01*
X282280Y720797D01*
X282380Y720754D01*
X282481Y720714D01*
X282583Y720678D01*
X282687Y720645D01*
X282792Y720617D01*
X282898Y720592D01*
X283005Y720570D01*
X283112Y720553D01*
X283220Y720539D01*
X283329Y720530D01*
X283437Y720524D01*
X283546Y720522D01*
X286594Y720522D01*
D11*
X354285Y787705D02*
X354285Y799135D01*
X354285Y794055D02*
X347935Y794055D01*
X347935Y799135D02*
X347935Y787705D01*
X342068Y787705D02*
X336988Y787705D01*
X342068Y787705D02*
X342068Y799135D01*
X336988Y799135D01*
X338258Y794055D02*
X342068Y794055D01*
X331679Y799135D02*
X331679Y787705D01*
X332949Y787705D02*
X330409Y787705D01*
X330409Y799135D02*
X332949Y799135D01*
X320884Y794055D02*
X318979Y794055D01*
X318979Y787705D01*
X322789Y787705D01*
X322889Y787707D01*
X322988Y787713D01*
X323088Y787723D01*
X323186Y787736D01*
X323285Y787754D01*
X323382Y787775D01*
X323478Y787800D01*
X323574Y787829D01*
X323668Y787862D01*
X323761Y787898D01*
X323852Y787938D01*
X323942Y787982D01*
X324030Y788029D01*
X324116Y788079D01*
X324200Y788133D01*
X324282Y788190D01*
X324361Y788250D01*
X324439Y788314D01*
X324513Y788380D01*
X324585Y788449D01*
X324654Y788521D01*
X324720Y788595D01*
X324784Y788673D01*
X324844Y788752D01*
X324901Y788834D01*
X324955Y788918D01*
X325005Y789004D01*
X325052Y789092D01*
X325096Y789182D01*
X325136Y789273D01*
X325172Y789366D01*
X325205Y789460D01*
X325234Y789556D01*
X325259Y789652D01*
X325280Y789749D01*
X325298Y789848D01*
X325311Y789946D01*
X325321Y790046D01*
X325327Y790145D01*
X325329Y790245D01*
X325329Y796595D01*
X325327Y796695D01*
X325321Y796794D01*
X325311Y796894D01*
X325298Y796992D01*
X325280Y797091D01*
X325259Y797188D01*
X325234Y797284D01*
X325205Y797380D01*
X325172Y797474D01*
X325136Y797567D01*
X325096Y797658D01*
X325052Y797748D01*
X325005Y797836D01*
X324955Y797922D01*
X324901Y798006D01*
X324844Y798088D01*
X324784Y798167D01*
X324720Y798245D01*
X324654Y798319D01*
X324585Y798391D01*
X324513Y798460D01*
X324439Y798526D01*
X324361Y798590D01*
X324282Y798650D01*
X324200Y798707D01*
X324116Y798761D01*
X324030Y798811D01*
X323942Y798858D01*
X323852Y798902D01*
X323761Y798942D01*
X323668Y798978D01*
X323574Y799011D01*
X323478Y799040D01*
X323382Y799065D01*
X323285Y799086D01*
X323186Y799104D01*
X323088Y799117D01*
X322988Y799127D01*
X322889Y799133D01*
X322789Y799135D01*
X318979Y799135D01*
X313137Y799135D02*
X313137Y787705D01*
X313137Y794055D02*
X306787Y794055D01*
X306787Y799135D02*
X306787Y787705D01*
X298913Y787705D02*
X298913Y799135D01*
X302088Y799135D02*
X295738Y799135D01*
D10*
X475000Y315240D02*
X474628Y315235D01*
X474257Y315222D01*
X473886Y315199D01*
X473516Y315168D01*
X473147Y315127D01*
X472779Y315077D01*
X472412Y315019D01*
X472047Y314951D01*
X471683Y314875D01*
X471322Y314790D01*
X470963Y314695D01*
X470606Y314593D01*
X470251Y314481D01*
X469900Y314361D01*
X469551Y314233D01*
X469206Y314096D01*
X468864Y313950D01*
X468526Y313797D01*
X468192Y313635D01*
X467862Y313465D01*
X467536Y313287D01*
X467214Y313101D01*
X466897Y312907D01*
X466585Y312706D01*
X466278Y312497D01*
X465976Y312281D01*
X465679Y312057D01*
X465388Y311827D01*
X465103Y311589D01*
X464823Y311344D01*
X464550Y311093D01*
X464283Y310835D01*
X464022Y310571D01*
X463767Y310300D01*
X463520Y310023D01*
X463279Y309740D01*
X463045Y309452D01*
X462818Y309158D01*
X462599Y308858D01*
X475000Y315240D02*
X475372Y315235D01*
X475743Y315222D01*
X476115Y315199D01*
X476485Y315167D01*
X476855Y315127D01*
X477223Y315077D01*
X477591Y315018D01*
X477956Y314951D01*
X478320Y314874D01*
X478682Y314788D01*
X479042Y314694D01*
X479399Y314591D01*
X479754Y314480D01*
X480106Y314359D01*
X480455Y314230D01*
X480800Y314093D01*
X481142Y313947D01*
X481481Y313793D01*
X481816Y313631D01*
X482146Y313461D01*
X482472Y313282D01*
X482794Y313096D01*
X483112Y312902D01*
X483424Y312700D01*
X483731Y312491D01*
X484033Y312274D01*
X484330Y312050D01*
X484622Y311819D01*
X484907Y311581D01*
X485187Y311335D01*
X485460Y311083D01*
X485728Y310825D01*
X485988Y310560D01*
X486243Y310289D01*
X486491Y310011D01*
X486731Y309728D01*
X486965Y309439D01*
X487192Y309144D01*
X475000Y284760D02*
X474635Y284764D01*
X474270Y284777D01*
X473906Y284799D01*
X473543Y284830D01*
X473180Y284869D01*
X472818Y284917D01*
X472458Y284974D01*
X472099Y285039D01*
X471741Y285112D01*
X471386Y285195D01*
X471033Y285285D01*
X470681Y285385D01*
X470333Y285492D01*
X469987Y285608D01*
X469644Y285732D01*
X469304Y285865D01*
X468967Y286005D01*
X468634Y286153D01*
X468304Y286310D01*
X467978Y286474D01*
X467656Y286646D01*
X467339Y286826D01*
X467026Y287013D01*
X466717Y287207D01*
X466413Y287409D01*
X466114Y287619D01*
X465820Y287835D01*
X465532Y288058D01*
X465249Y288288D01*
X464971Y288525D01*
X464699Y288768D01*
X464433Y289018D01*
X464173Y289274D01*
X463920Y289537D01*
X463672Y289805D01*
X463432Y290079D01*
X463197Y290359D01*
X462970Y290644D01*
X475000Y284760D02*
X475365Y284764D01*
X475730Y284777D01*
X476094Y284799D01*
X476457Y284830D01*
X476820Y284869D01*
X477182Y284917D01*
X477542Y284974D01*
X477901Y285039D01*
X478259Y285112D01*
X478614Y285195D01*
X478967Y285285D01*
X479319Y285385D01*
X479667Y285492D01*
X480013Y285608D01*
X480356Y285732D01*
X480696Y285865D01*
X481033Y286005D01*
X481366Y286153D01*
X481696Y286310D01*
X482022Y286474D01*
X482344Y286646D01*
X482661Y286826D01*
X482974Y287013D01*
X483283Y287207D01*
X483587Y287409D01*
X483886Y287619D01*
X484180Y287835D01*
X484468Y288058D01*
X484751Y288288D01*
X485029Y288525D01*
X485301Y288768D01*
X485567Y289018D01*
X485827Y289274D01*
X486080Y289537D01*
X486328Y289805D01*
X486568Y290079D01*
X486803Y290359D01*
X487030Y290644D01*
D12*
X475000Y320320D02*
X474506Y320314D01*
X474012Y320296D01*
X473518Y320266D01*
X473025Y320224D01*
X472534Y320170D01*
X472044Y320104D01*
X471556Y320026D01*
X471069Y319936D01*
X470585Y319835D01*
X470104Y319721D01*
X469626Y319596D01*
X469150Y319460D01*
X468679Y319312D01*
X468211Y319152D01*
X467747Y318981D01*
X467287Y318799D01*
X466832Y318606D01*
X466381Y318402D01*
X465936Y318187D01*
X465496Y317961D01*
X465062Y317724D01*
X464634Y317477D01*
X464212Y317220D01*
X463796Y316952D01*
X463387Y316674D01*
X462985Y316387D01*
X462589Y316090D01*
X462202Y315783D01*
X461821Y315467D01*
X461449Y315142D01*
X461084Y314807D01*
X460728Y314464D01*
X460381Y314113D01*
X460041Y313753D01*
X459711Y313385D01*
X459390Y313009D01*
X475000Y320320D02*
X475488Y320314D01*
X475975Y320297D01*
X476462Y320267D01*
X476949Y320226D01*
X477434Y320174D01*
X477918Y320109D01*
X478400Y320033D01*
X478880Y319946D01*
X479358Y319847D01*
X479833Y319737D01*
X480306Y319615D01*
X480775Y319482D01*
X481242Y319337D01*
X481704Y319182D01*
X482163Y319015D01*
X482618Y318838D01*
X483068Y318649D01*
X483513Y318450D01*
X483954Y318240D01*
X484390Y318020D01*
X484820Y317789D01*
X485244Y317548D01*
X485662Y317297D01*
X486075Y317036D01*
X486481Y316765D01*
X486880Y316485D01*
X487273Y316195D01*
X487658Y315895D01*
X488036Y315586D01*
X488407Y315269D01*
X488769Y314942D01*
X489124Y314607D01*
X489471Y314264D01*
X489809Y313912D01*
X490139Y313553D01*
X490460Y313185D01*
X490773Y312810D01*
X491076Y312427D01*
X491370Y312038D01*
X491654Y311641D01*
X491929Y311238D01*
X492194Y310828D01*
X492449Y310412D01*
X492694Y309990D01*
X492929Y309562D01*
X475000Y279680D02*
X474510Y279686D01*
X474020Y279704D01*
X473531Y279733D01*
X473042Y279775D01*
X472555Y279828D01*
X472069Y279892D01*
X471585Y279969D01*
X471103Y280057D01*
X470623Y280157D01*
X470145Y280268D01*
X469671Y280391D01*
X469199Y280526D01*
X468731Y280671D01*
X468267Y280828D01*
X467806Y280996D01*
X467350Y281175D01*
X466898Y281365D01*
X466451Y281566D01*
X466009Y281778D01*
X465572Y282000D01*
X465140Y282232D01*
X464714Y282475D01*
X464295Y282729D01*
X463881Y282992D01*
X463474Y283265D01*
X463074Y283548D01*
X462680Y283841D01*
X462294Y284142D01*
X461915Y284454D01*
X461544Y284774D01*
X461181Y285103D01*
X460825Y285440D01*
X460478Y285787D01*
X460140Y286141D01*
X459810Y286504D01*
X459488Y286874D01*
X475000Y279680D02*
X475497Y279686D01*
X475994Y279704D01*
X476490Y279735D01*
X476985Y279777D01*
X477479Y279832D01*
X477972Y279898D01*
X478462Y279977D01*
X478951Y280068D01*
X479437Y280170D01*
X479921Y280285D01*
X480401Y280411D01*
X480879Y280549D01*
X481353Y280698D01*
X481823Y280859D01*
X482289Y281032D01*
X482751Y281216D01*
X483208Y281411D01*
X483660Y281617D01*
X484107Y281834D01*
X484548Y282063D01*
X484984Y282301D01*
X485414Y282551D01*
X485837Y282811D01*
X486255Y283081D01*
X486665Y283361D01*
X487068Y283651D01*
X487465Y283951D01*
X487853Y284261D01*
X488234Y284580D01*
X488607Y284908D01*
X488972Y285245D01*
X489329Y285591D01*
X489677Y285946D01*
X490016Y286309D01*
X490347Y286680D01*
X490668Y287060D01*
X490980Y287447D01*
X491282Y287841D01*
X491574Y288243D01*
X491857Y288652D01*
X492129Y289067D01*
X492392Y289490D01*
X492643Y289918D01*
D11*
X455315Y304445D02*
X455315Y315875D01*
X455315Y304445D02*
X450235Y304445D01*
X445409Y304445D02*
X440329Y304445D01*
X445409Y304445D02*
X445409Y315875D01*
X440329Y315875D01*
X441599Y310795D02*
X445409Y310795D01*
X435528Y315875D02*
X435528Y304445D01*
X435528Y315875D02*
X432353Y315875D01*
X432242Y315873D01*
X432132Y315867D01*
X432021Y315858D01*
X431911Y315844D01*
X431802Y315827D01*
X431693Y315806D01*
X431585Y315781D01*
X431478Y315752D01*
X431372Y315720D01*
X431267Y315684D01*
X431164Y315644D01*
X431062Y315601D01*
X430961Y315554D01*
X430862Y315503D01*
X430766Y315450D01*
X430671Y315393D01*
X430578Y315332D01*
X430487Y315269D01*
X430398Y315202D01*
X430312Y315132D01*
X430229Y315059D01*
X430147Y314984D01*
X430069Y314906D01*
X429994Y314824D01*
X429921Y314741D01*
X429851Y314655D01*
X429784Y314566D01*
X429721Y314475D01*
X429660Y314382D01*
X429603Y314288D01*
X429550Y314191D01*
X429499Y314092D01*
X429452Y313991D01*
X429409Y313889D01*
X429369Y313786D01*
X429333Y313681D01*
X429301Y313575D01*
X429272Y313468D01*
X429247Y313360D01*
X429226Y313251D01*
X429209Y313142D01*
X429195Y313032D01*
X429186Y312921D01*
X429180Y312811D01*
X429178Y312700D01*
X429178Y307620D01*
X429180Y307509D01*
X429186Y307399D01*
X429195Y307288D01*
X429209Y307178D01*
X429226Y307069D01*
X429247Y306960D01*
X429272Y306852D01*
X429301Y306745D01*
X429333Y306639D01*
X429369Y306534D01*
X429409Y306431D01*
X429452Y306329D01*
X429499Y306228D01*
X429550Y306129D01*
X429603Y306033D01*
X429660Y305938D01*
X429721Y305845D01*
X429784Y305754D01*
X429851Y305665D01*
X429921Y305579D01*
X429994Y305496D01*
X430069Y305414D01*
X430147Y305336D01*
X430229Y305261D01*
X430312Y305188D01*
X430398Y305118D01*
X430487Y305051D01*
X430578Y304988D01*
X430671Y304927D01*
X430766Y304870D01*
X430862Y304817D01*
X430961Y304766D01*
X431062Y304719D01*
X431164Y304676D01*
X431267Y304636D01*
X431372Y304600D01*
X431478Y304568D01*
X431585Y304539D01*
X431693Y304514D01*
X431802Y304493D01*
X431911Y304476D01*
X432021Y304462D01*
X432132Y304453D01*
X432242Y304447D01*
X432353Y304445D01*
X435528Y304445D01*
X420225Y315876D02*
X420121Y315874D01*
X420016Y315868D01*
X419912Y315859D01*
X419809Y315846D01*
X419706Y315828D01*
X419604Y315808D01*
X419502Y315783D01*
X419402Y315755D01*
X419302Y315723D01*
X419204Y315687D01*
X419107Y315648D01*
X419012Y315606D01*
X418918Y315560D01*
X418826Y315510D01*
X418736Y315458D01*
X418648Y315402D01*
X418562Y315342D01*
X418478Y315280D01*
X418397Y315215D01*
X418318Y315147D01*
X418241Y315075D01*
X418168Y315002D01*
X418096Y314925D01*
X418028Y314846D01*
X417963Y314765D01*
X417901Y314681D01*
X417841Y314595D01*
X417785Y314507D01*
X417733Y314417D01*
X417683Y314325D01*
X417637Y314231D01*
X417595Y314136D01*
X417556Y314039D01*
X417520Y313941D01*
X417488Y313841D01*
X417460Y313741D01*
X417435Y313639D01*
X417415Y313537D01*
X417397Y313434D01*
X417384Y313331D01*
X417375Y313227D01*
X417369Y313122D01*
X417367Y313018D01*
X420225Y315875D02*
X420343Y315873D01*
X420462Y315867D01*
X420580Y315858D01*
X420697Y315845D01*
X420814Y315827D01*
X420931Y315807D01*
X421047Y315782D01*
X421162Y315754D01*
X421275Y315721D01*
X421388Y315686D01*
X421500Y315646D01*
X421610Y315604D01*
X421719Y315557D01*
X421827Y315507D01*
X421932Y315454D01*
X422036Y315397D01*
X422138Y315337D01*
X422238Y315274D01*
X422336Y315207D01*
X422432Y315138D01*
X422525Y315065D01*
X422616Y314989D01*
X422705Y314911D01*
X422791Y314829D01*
X422874Y314745D01*
X422955Y314659D01*
X423032Y314569D01*
X423107Y314478D01*
X423179Y314384D01*
X423248Y314287D01*
X423313Y314189D01*
X423376Y314088D01*
X423435Y313985D01*
X423491Y313881D01*
X423543Y313775D01*
X423592Y313667D01*
X423637Y313558D01*
X423679Y313447D01*
X423717Y313335D01*
X418320Y310796D02*
X418244Y310871D01*
X418169Y310950D01*
X418098Y311031D01*
X418029Y311115D01*
X417964Y311201D01*
X417902Y311289D01*
X417842Y311379D01*
X417786Y311471D01*
X417733Y311566D01*
X417684Y311662D01*
X417638Y311760D01*
X417595Y311859D01*
X417556Y311960D01*
X417521Y312062D01*
X417489Y312165D01*
X417461Y312269D01*
X417436Y312374D01*
X417415Y312481D01*
X417398Y312587D01*
X417385Y312694D01*
X417376Y312802D01*
X417370Y312910D01*
X417368Y313018D01*
X418320Y310795D02*
X423717Y304445D01*
X417367Y304445D01*
D10*
X349200Y840000D02*
X347300Y840000D01*
X349200Y920000D02*
X269200Y920000D01*
X269200Y840000D01*
X344200Y895000D02*
X349200Y895000D01*
X344200Y895000D02*
X344200Y865000D01*
X349200Y865000D01*
X347300Y842060D02*
X347300Y840000D01*
X271100Y840000D02*
X271100Y842060D01*
X271100Y840000D02*
X269200Y840000D01*
X271100Y842060D02*
X347300Y842060D01*
X347300Y840000D02*
X271100Y840000D01*
X342220Y913180D02*
X349200Y920000D01*
X326980Y913180D02*
X316820Y913180D01*
X349200Y920000D02*
X349200Y895000D01*
X349200Y865000D01*
X349200Y840000D01*
X301580Y913180D02*
X291420Y913180D01*
X276180Y913180D02*
X269200Y920000D01*
X332568Y861618D02*
X336378Y858570D01*
X332568Y861618D02*
X332568Y847902D01*
X336378Y847902D02*
X328758Y847902D01*
X309327Y861618D02*
X309212Y861616D01*
X309098Y861610D01*
X308984Y861601D01*
X308870Y861587D01*
X308757Y861570D01*
X308644Y861549D01*
X308532Y861525D01*
X308421Y861496D01*
X308311Y861464D01*
X308202Y861428D01*
X308095Y861389D01*
X307988Y861346D01*
X307884Y861299D01*
X307780Y861249D01*
X307679Y861196D01*
X307580Y861139D01*
X307482Y861079D01*
X307386Y861016D01*
X307293Y860950D01*
X307202Y860880D01*
X307113Y860808D01*
X307027Y860732D01*
X306943Y860654D01*
X306862Y860573D01*
X306784Y860489D01*
X306708Y860403D01*
X306636Y860314D01*
X306566Y860223D01*
X306500Y860130D01*
X306437Y860034D01*
X306377Y859936D01*
X306320Y859837D01*
X306267Y859736D01*
X306217Y859632D01*
X306170Y859528D01*
X306127Y859421D01*
X306088Y859314D01*
X306052Y859205D01*
X306020Y859095D01*
X305991Y858984D01*
X305967Y858872D01*
X305946Y858759D01*
X305929Y858646D01*
X305915Y858532D01*
X305906Y858418D01*
X305900Y858304D01*
X305898Y858189D01*
X309327Y861618D02*
X309459Y861616D01*
X309591Y861610D01*
X309722Y861600D01*
X309853Y861586D01*
X309984Y861569D01*
X310114Y861547D01*
X310244Y861522D01*
X310372Y861492D01*
X310500Y861459D01*
X310626Y861422D01*
X310752Y861381D01*
X310876Y861337D01*
X310999Y861288D01*
X311120Y861237D01*
X311240Y861181D01*
X311358Y861122D01*
X311474Y861060D01*
X311588Y860994D01*
X311700Y860924D01*
X311810Y860851D01*
X311918Y860775D01*
X312023Y860696D01*
X312126Y860614D01*
X312227Y860529D01*
X312325Y860440D01*
X312420Y860349D01*
X312513Y860255D01*
X312602Y860158D01*
X312689Y860059D01*
X312773Y859957D01*
X312853Y859853D01*
X312931Y859746D01*
X313005Y859637D01*
X313076Y859526D01*
X313144Y859412D01*
X313208Y859297D01*
X313268Y859180D01*
X313326Y859061D01*
X313379Y858941D01*
X313429Y858819D01*
X313475Y858695D01*
X313518Y858570D01*
X307041Y855522D02*
X306956Y855606D01*
X306874Y855692D01*
X306794Y855781D01*
X306718Y855873D01*
X306644Y855966D01*
X306574Y856063D01*
X306506Y856161D01*
X306442Y856262D01*
X306382Y856365D01*
X306324Y856469D01*
X306270Y856575D01*
X306220Y856684D01*
X306173Y856793D01*
X306129Y856904D01*
X306090Y857017D01*
X306053Y857130D01*
X306021Y857245D01*
X305992Y857361D01*
X305967Y857478D01*
X305946Y857595D01*
X305929Y857713D01*
X305915Y857832D01*
X305906Y857951D01*
X305900Y858070D01*
X305898Y858189D01*
X307041Y855522D02*
X313518Y847902D01*
X305898Y847902D01*
X288118Y847902D02*
X284308Y847902D01*
X284186Y847904D01*
X284064Y847910D01*
X283942Y847920D01*
X283821Y847933D01*
X283700Y847951D01*
X283580Y847972D01*
X283460Y847998D01*
X283342Y848027D01*
X283224Y848059D01*
X283107Y848096D01*
X282992Y848136D01*
X282878Y848180D01*
X282766Y848228D01*
X282655Y848279D01*
X282546Y848334D01*
X282438Y848392D01*
X282333Y848454D01*
X282230Y848519D01*
X282128Y848587D01*
X282029Y848659D01*
X281933Y848733D01*
X281838Y848811D01*
X281747Y848892D01*
X281657Y848975D01*
X281571Y849061D01*
X281488Y849151D01*
X281407Y849242D01*
X281329Y849337D01*
X281255Y849433D01*
X281183Y849532D01*
X281115Y849634D01*
X281050Y849737D01*
X280988Y849842D01*
X280930Y849950D01*
X280875Y850059D01*
X280824Y850170D01*
X280776Y850282D01*
X280732Y850396D01*
X280692Y850511D01*
X280655Y850628D01*
X280623Y850746D01*
X280594Y850864D01*
X280568Y850984D01*
X280547Y851104D01*
X280529Y851225D01*
X280516Y851346D01*
X280506Y851468D01*
X280500Y851590D01*
X280498Y851712D01*
X280500Y851834D01*
X280506Y851956D01*
X280516Y852078D01*
X280529Y852199D01*
X280547Y852320D01*
X280568Y852440D01*
X280594Y852560D01*
X280623Y852678D01*
X280655Y852796D01*
X280692Y852913D01*
X280732Y853028D01*
X280776Y853142D01*
X280824Y853254D01*
X280875Y853365D01*
X280930Y853474D01*
X280988Y853582D01*
X281050Y853687D01*
X281115Y853790D01*
X281183Y853892D01*
X281255Y853991D01*
X281329Y854087D01*
X281407Y854182D01*
X281488Y854273D01*
X281571Y854363D01*
X281657Y854449D01*
X281747Y854532D01*
X281838Y854613D01*
X281933Y854691D01*
X282029Y854765D01*
X282128Y854837D01*
X282230Y854905D01*
X282333Y854970D01*
X282438Y855032D01*
X282546Y855090D01*
X282655Y855145D01*
X282766Y855196D01*
X282878Y855244D01*
X282992Y855288D01*
X283107Y855328D01*
X283224Y855365D01*
X283342Y855397D01*
X283460Y855426D01*
X283580Y855452D01*
X283700Y855473D01*
X283821Y855491D01*
X283942Y855504D01*
X284064Y855514D01*
X284186Y855520D01*
X284308Y855522D01*
X283546Y861618D02*
X288118Y861618D01*
X283546Y861618D02*
X283437Y861616D01*
X283329Y861610D01*
X283220Y861601D01*
X283112Y861587D01*
X283005Y861570D01*
X282898Y861548D01*
X282792Y861523D01*
X282687Y861495D01*
X282583Y861462D01*
X282481Y861426D01*
X282380Y861386D01*
X282280Y861343D01*
X282182Y861296D01*
X282085Y861245D01*
X281991Y861191D01*
X281898Y861134D01*
X281808Y861074D01*
X281719Y861010D01*
X281633Y860943D01*
X281550Y860874D01*
X281469Y860801D01*
X281391Y860725D01*
X281315Y860647D01*
X281242Y860566D01*
X281173Y860483D01*
X281106Y860397D01*
X281042Y860308D01*
X280982Y860218D01*
X280925Y860125D01*
X280871Y860031D01*
X280820Y859934D01*
X280773Y859836D01*
X280730Y859736D01*
X280690Y859635D01*
X280654Y859533D01*
X280621Y859429D01*
X280593Y859324D01*
X280568Y859218D01*
X280546Y859111D01*
X280529Y859004D01*
X280515Y858896D01*
X280506Y858787D01*
X280500Y858679D01*
X280498Y858570D01*
X280500Y858461D01*
X280506Y858353D01*
X280515Y858244D01*
X280529Y858136D01*
X280546Y858029D01*
X280568Y857922D01*
X280593Y857816D01*
X280621Y857711D01*
X280654Y857607D01*
X280690Y857505D01*
X280730Y857404D01*
X280773Y857304D01*
X280820Y857206D01*
X280871Y857109D01*
X280925Y857015D01*
X280982Y856922D01*
X281042Y856832D01*
X281106Y856743D01*
X281173Y856657D01*
X281242Y856574D01*
X281315Y856493D01*
X281391Y856415D01*
X281469Y856339D01*
X281550Y856266D01*
X281633Y856197D01*
X281719Y856130D01*
X281808Y856066D01*
X281898Y856006D01*
X281991Y855949D01*
X282085Y855895D01*
X282182Y855844D01*
X282280Y855797D01*
X282380Y855754D01*
X282481Y855714D01*
X282583Y855678D01*
X282687Y855645D01*
X282792Y855617D01*
X282898Y855592D01*
X283005Y855570D01*
X283112Y855553D01*
X283220Y855539D01*
X283329Y855530D01*
X283437Y855524D01*
X283546Y855522D01*
X286594Y855522D01*
D11*
X354285Y922705D02*
X354285Y934135D01*
X351110Y934135D01*
X350999Y934133D01*
X350889Y934127D01*
X350778Y934118D01*
X350668Y934104D01*
X350559Y934087D01*
X350450Y934066D01*
X350342Y934041D01*
X350235Y934012D01*
X350129Y933980D01*
X350024Y933944D01*
X349921Y933904D01*
X349819Y933861D01*
X349718Y933814D01*
X349619Y933763D01*
X349523Y933710D01*
X349428Y933653D01*
X349335Y933592D01*
X349244Y933529D01*
X349155Y933462D01*
X349069Y933392D01*
X348986Y933319D01*
X348904Y933244D01*
X348826Y933166D01*
X348751Y933084D01*
X348678Y933001D01*
X348608Y932915D01*
X348541Y932826D01*
X348478Y932735D01*
X348417Y932642D01*
X348360Y932548D01*
X348307Y932451D01*
X348256Y932352D01*
X348209Y932251D01*
X348166Y932149D01*
X348126Y932046D01*
X348090Y931941D01*
X348058Y931835D01*
X348029Y931728D01*
X348004Y931620D01*
X347983Y931511D01*
X347966Y931402D01*
X347952Y931292D01*
X347943Y931181D01*
X347937Y931071D01*
X347935Y930960D01*
X347935Y925880D01*
X347937Y925769D01*
X347943Y925659D01*
X347952Y925548D01*
X347966Y925438D01*
X347983Y925329D01*
X348004Y925220D01*
X348029Y925112D01*
X348058Y925005D01*
X348090Y924899D01*
X348126Y924794D01*
X348166Y924691D01*
X348209Y924589D01*
X348256Y924488D01*
X348307Y924389D01*
X348360Y924293D01*
X348417Y924198D01*
X348478Y924105D01*
X348541Y924014D01*
X348608Y923925D01*
X348678Y923839D01*
X348751Y923756D01*
X348826Y923674D01*
X348904Y923596D01*
X348986Y923521D01*
X349069Y923448D01*
X349155Y923378D01*
X349244Y923311D01*
X349335Y923248D01*
X349428Y923187D01*
X349523Y923130D01*
X349619Y923077D01*
X349718Y923026D01*
X349819Y922979D01*
X349921Y922936D01*
X350024Y922896D01*
X350129Y922860D01*
X350235Y922828D01*
X350342Y922799D01*
X350450Y922774D01*
X350559Y922753D01*
X350668Y922736D01*
X350778Y922722D01*
X350889Y922713D01*
X350999Y922707D01*
X351110Y922705D01*
X354285Y922705D01*
X341585Y922705D02*
X341585Y934135D01*
X342855Y922705D02*
X340315Y922705D01*
X340315Y934135D02*
X342855Y934135D01*
X335616Y930960D02*
X335616Y925880D01*
X335616Y930960D02*
X335614Y931071D01*
X335608Y931181D01*
X335599Y931292D01*
X335585Y931402D01*
X335568Y931511D01*
X335547Y931620D01*
X335522Y931728D01*
X335493Y931835D01*
X335461Y931941D01*
X335425Y932046D01*
X335385Y932149D01*
X335342Y932251D01*
X335295Y932352D01*
X335244Y932451D01*
X335191Y932548D01*
X335134Y932642D01*
X335073Y932735D01*
X335010Y932826D01*
X334943Y932915D01*
X334873Y933001D01*
X334800Y933084D01*
X334725Y933166D01*
X334647Y933244D01*
X334565Y933319D01*
X334482Y933392D01*
X334396Y933462D01*
X334307Y933529D01*
X334216Y933592D01*
X334123Y933653D01*
X334029Y933710D01*
X333932Y933763D01*
X333833Y933814D01*
X333732Y933861D01*
X333630Y933904D01*
X333527Y933944D01*
X333422Y933980D01*
X333316Y934012D01*
X333209Y934041D01*
X333101Y934066D01*
X332992Y934087D01*
X332883Y934104D01*
X332773Y934118D01*
X332662Y934127D01*
X332552Y934133D01*
X332441Y934135D01*
X332330Y934133D01*
X332220Y934127D01*
X332109Y934118D01*
X331999Y934104D01*
X331890Y934087D01*
X331781Y934066D01*
X331673Y934041D01*
X331566Y934012D01*
X331460Y933980D01*
X331355Y933944D01*
X331252Y933904D01*
X331150Y933861D01*
X331049Y933814D01*
X330950Y933763D01*
X330854Y933710D01*
X330759Y933653D01*
X330666Y933592D01*
X330575Y933529D01*
X330486Y933462D01*
X330400Y933392D01*
X330317Y933319D01*
X330235Y933244D01*
X330157Y933166D01*
X330082Y933084D01*
X330009Y933001D01*
X329939Y932915D01*
X329872Y932826D01*
X329809Y932735D01*
X329748Y932642D01*
X329691Y932548D01*
X329638Y932451D01*
X329587Y932352D01*
X329540Y932251D01*
X329497Y932149D01*
X329457Y932046D01*
X329421Y931941D01*
X329389Y931835D01*
X329360Y931728D01*
X329335Y931620D01*
X329314Y931511D01*
X329297Y931402D01*
X329283Y931292D01*
X329274Y931181D01*
X329268Y931071D01*
X329266Y930960D01*
X329266Y925880D01*
X329268Y925769D01*
X329274Y925659D01*
X329283Y925548D01*
X329297Y925438D01*
X329314Y925329D01*
X329335Y925220D01*
X329360Y925112D01*
X329389Y925005D01*
X329421Y924899D01*
X329457Y924794D01*
X329497Y924691D01*
X329540Y924589D01*
X329587Y924488D01*
X329638Y924389D01*
X329691Y924293D01*
X329748Y924198D01*
X329809Y924105D01*
X329872Y924014D01*
X329939Y923925D01*
X330009Y923839D01*
X330082Y923756D01*
X330157Y923674D01*
X330235Y923596D01*
X330317Y923521D01*
X330400Y923448D01*
X330486Y923378D01*
X330575Y923311D01*
X330666Y923248D01*
X330759Y923187D01*
X330854Y923130D01*
X330950Y923077D01*
X331049Y923026D01*
X331150Y922979D01*
X331252Y922936D01*
X331355Y922896D01*
X331460Y922860D01*
X331566Y922828D01*
X331673Y922799D01*
X331781Y922774D01*
X331890Y922753D01*
X331999Y922736D01*
X332109Y922722D01*
X332220Y922713D01*
X332330Y922707D01*
X332441Y922705D01*
X332552Y922707D01*
X332662Y922713D01*
X332773Y922722D01*
X332883Y922736D01*
X332992Y922753D01*
X333101Y922774D01*
X333209Y922799D01*
X333316Y922828D01*
X333422Y922860D01*
X333527Y922896D01*
X333630Y922936D01*
X333732Y922979D01*
X333833Y923026D01*
X333932Y923077D01*
X334028Y923130D01*
X334123Y923187D01*
X334216Y923248D01*
X334307Y923311D01*
X334396Y923378D01*
X334482Y923448D01*
X334565Y923521D01*
X334647Y923596D01*
X334725Y923674D01*
X334800Y923756D01*
X334873Y923839D01*
X334943Y923925D01*
X335010Y924014D01*
X335073Y924105D01*
X335134Y924198D01*
X335191Y924293D01*
X335244Y924389D01*
X335295Y924488D01*
X335342Y924589D01*
X335385Y924691D01*
X335425Y924794D01*
X335461Y924899D01*
X335493Y925005D01*
X335522Y925112D01*
X335547Y925220D01*
X335568Y925329D01*
X335585Y925438D01*
X335599Y925548D01*
X335608Y925659D01*
X335614Y925769D01*
X335616Y925880D01*
X323805Y922705D02*
X323805Y934135D01*
X320630Y934135D01*
X320519Y934133D01*
X320409Y934127D01*
X320298Y934118D01*
X320188Y934104D01*
X320079Y934087D01*
X319970Y934066D01*
X319862Y934041D01*
X319755Y934012D01*
X319649Y933980D01*
X319544Y933944D01*
X319441Y933904D01*
X319339Y933861D01*
X319238Y933814D01*
X319139Y933763D01*
X319043Y933710D01*
X318948Y933653D01*
X318855Y933592D01*
X318764Y933529D01*
X318675Y933462D01*
X318589Y933392D01*
X318506Y933319D01*
X318424Y933244D01*
X318346Y933166D01*
X318271Y933084D01*
X318198Y933001D01*
X318128Y932915D01*
X318061Y932826D01*
X317998Y932735D01*
X317937Y932642D01*
X317880Y932548D01*
X317827Y932451D01*
X317776Y932352D01*
X317729Y932251D01*
X317686Y932149D01*
X317646Y932046D01*
X317610Y931941D01*
X317578Y931835D01*
X317549Y931728D01*
X317524Y931620D01*
X317503Y931511D01*
X317486Y931402D01*
X317472Y931292D01*
X317463Y931181D01*
X317457Y931071D01*
X317455Y930960D01*
X317455Y925880D01*
X317457Y925769D01*
X317463Y925659D01*
X317472Y925548D01*
X317486Y925438D01*
X317503Y925329D01*
X317524Y925220D01*
X317549Y925112D01*
X317578Y925005D01*
X317610Y924899D01*
X317646Y924794D01*
X317686Y924691D01*
X317729Y924589D01*
X317776Y924488D01*
X317827Y924389D01*
X317880Y924293D01*
X317937Y924198D01*
X317998Y924105D01*
X318061Y924014D01*
X318128Y923925D01*
X318198Y923839D01*
X318271Y923756D01*
X318346Y923674D01*
X318424Y923596D01*
X318506Y923521D01*
X318589Y923448D01*
X318675Y923378D01*
X318764Y923311D01*
X318855Y923248D01*
X318948Y923187D01*
X319043Y923130D01*
X319139Y923077D01*
X319238Y923026D01*
X319339Y922979D01*
X319441Y922936D01*
X319544Y922896D01*
X319649Y922860D01*
X319755Y922828D01*
X319862Y922799D01*
X319970Y922774D01*
X320079Y922753D01*
X320188Y922736D01*
X320298Y922722D01*
X320409Y922713D01*
X320519Y922707D01*
X320630Y922705D01*
X323805Y922705D01*
X311588Y922705D02*
X306508Y922705D01*
X311588Y922705D02*
X311588Y934135D01*
X306508Y934135D01*
X307778Y929055D02*
X311588Y929055D01*
X298659Y922705D02*
X298559Y922707D01*
X298460Y922713D01*
X298360Y922723D01*
X298262Y922736D01*
X298163Y922754D01*
X298066Y922775D01*
X297970Y922800D01*
X297874Y922829D01*
X297780Y922862D01*
X297687Y922898D01*
X297596Y922938D01*
X297506Y922982D01*
X297418Y923029D01*
X297332Y923079D01*
X297248Y923133D01*
X297166Y923190D01*
X297087Y923250D01*
X297009Y923314D01*
X296935Y923380D01*
X296863Y923449D01*
X296794Y923521D01*
X296728Y923595D01*
X296664Y923673D01*
X296604Y923752D01*
X296547Y923834D01*
X296493Y923918D01*
X296443Y924004D01*
X296396Y924092D01*
X296352Y924182D01*
X296312Y924273D01*
X296276Y924366D01*
X296243Y924460D01*
X296214Y924556D01*
X296189Y924652D01*
X296168Y924749D01*
X296150Y924848D01*
X296137Y924946D01*
X296127Y925046D01*
X296121Y925145D01*
X296119Y925245D01*
X298659Y922705D02*
X298800Y922707D01*
X298941Y922712D01*
X299082Y922722D01*
X299223Y922735D01*
X299363Y922751D01*
X299503Y922772D01*
X299642Y922796D01*
X299781Y922824D01*
X299918Y922855D01*
X300055Y922890D01*
X300191Y922928D01*
X300326Y922970D01*
X300459Y923016D01*
X300592Y923065D01*
X300723Y923118D01*
X300852Y923174D01*
X300981Y923233D01*
X301107Y923296D01*
X301232Y923362D01*
X301355Y923431D01*
X301476Y923504D01*
X301595Y923580D01*
X301713Y923659D01*
X301828Y923740D01*
X301940Y923825D01*
X302051Y923913D01*
X302159Y924004D01*
X302265Y924097D01*
X302368Y924194D01*
X302469Y924293D01*
X302152Y931595D02*
X302150Y931695D01*
X302144Y931794D01*
X302134Y931894D01*
X302121Y931992D01*
X302103Y932091D01*
X302082Y932188D01*
X302057Y932284D01*
X302028Y932380D01*
X301995Y932474D01*
X301959Y932567D01*
X301919Y932658D01*
X301875Y932748D01*
X301828Y932836D01*
X301778Y932922D01*
X301724Y933006D01*
X301667Y933088D01*
X301607Y933167D01*
X301543Y933245D01*
X301477Y933319D01*
X301408Y933391D01*
X301336Y933460D01*
X301262Y933526D01*
X301184Y933590D01*
X301105Y933650D01*
X301023Y933707D01*
X300939Y933761D01*
X300853Y933811D01*
X300765Y933858D01*
X300675Y933902D01*
X300584Y933942D01*
X300491Y933978D01*
X300397Y934011D01*
X300301Y934040D01*
X300205Y934065D01*
X300108Y934086D01*
X300009Y934104D01*
X299911Y934117D01*
X299811Y934127D01*
X299712Y934133D01*
X299612Y934135D01*
X299612Y934136D02*
X299479Y934134D01*
X299346Y934129D01*
X299213Y934119D01*
X299080Y934106D01*
X298948Y934089D01*
X298816Y934069D01*
X298685Y934045D01*
X298555Y934017D01*
X298425Y933986D01*
X298297Y933951D01*
X298169Y933912D01*
X298043Y933870D01*
X297918Y933824D01*
X297794Y933775D01*
X297671Y933723D01*
X297550Y933667D01*
X297431Y933607D01*
X297313Y933545D01*
X297198Y933479D01*
X297084Y933410D01*
X296972Y933337D01*
X296862Y933262D01*
X296754Y933183D01*
X300882Y929372D02*
X300966Y929424D01*
X301049Y929479D01*
X301129Y929538D01*
X301207Y929599D01*
X301282Y929663D01*
X301355Y929731D01*
X301426Y929801D01*
X301493Y929873D01*
X301558Y929948D01*
X301620Y930026D01*
X301679Y930106D01*
X301735Y930188D01*
X301787Y930272D01*
X301836Y930358D01*
X301882Y930446D01*
X301925Y930536D01*
X301964Y930627D01*
X301999Y930720D01*
X302031Y930814D01*
X302059Y930909D01*
X302084Y931005D01*
X302104Y931102D01*
X302122Y931200D01*
X302135Y931298D01*
X302144Y931397D01*
X302150Y931496D01*
X302152Y931595D01*
X297389Y927468D02*
X297305Y927416D01*
X297222Y927361D01*
X297142Y927302D01*
X297064Y927241D01*
X296989Y927177D01*
X296916Y927109D01*
X296845Y927039D01*
X296778Y926967D01*
X296713Y926892D01*
X296651Y926814D01*
X296592Y926734D01*
X296536Y926652D01*
X296484Y926568D01*
X296435Y926482D01*
X296389Y926394D01*
X296346Y926304D01*
X296307Y926213D01*
X296272Y926120D01*
X296240Y926026D01*
X296212Y925931D01*
X296187Y925835D01*
X296167Y925738D01*
X296149Y925640D01*
X296136Y925542D01*
X296127Y925443D01*
X296121Y925344D01*
X296119Y925245D01*
X297389Y927468D02*
X300882Y929373D01*
D10*
X111100Y920000D02*
X109200Y920000D01*
X109200Y840000D02*
X189200Y840000D01*
X189200Y920000D01*
X114200Y865000D02*
X109200Y865000D01*
X114200Y865000D02*
X114200Y895000D01*
X109200Y895000D01*
X111100Y917940D02*
X111100Y920000D01*
X187300Y920000D02*
X187300Y917940D01*
X187300Y920000D02*
X189200Y920000D01*
X187300Y917940D02*
X111100Y917940D01*
X111100Y920000D02*
X187300Y920000D01*
X116180Y846820D02*
X109200Y840000D01*
X131420Y846820D02*
X141580Y846820D01*
X109200Y840000D02*
X109200Y865000D01*
X109200Y895000D01*
X109200Y920000D01*
X156820Y846820D02*
X166980Y846820D01*
X182220Y846820D02*
X189200Y840000D01*
X129642Y909050D02*
X125832Y912098D01*
X125832Y898382D01*
X129642Y898382D02*
X122022Y898382D01*
X144882Y908669D02*
X144884Y908784D01*
X144890Y908898D01*
X144899Y909012D01*
X144913Y909126D01*
X144930Y909239D01*
X144951Y909352D01*
X144975Y909464D01*
X145004Y909575D01*
X145036Y909685D01*
X145072Y909794D01*
X145111Y909901D01*
X145154Y910008D01*
X145201Y910112D01*
X145251Y910216D01*
X145304Y910317D01*
X145361Y910416D01*
X145421Y910514D01*
X145484Y910610D01*
X145550Y910703D01*
X145620Y910794D01*
X145692Y910883D01*
X145768Y910969D01*
X145846Y911053D01*
X145927Y911134D01*
X146011Y911212D01*
X146097Y911288D01*
X146186Y911360D01*
X146277Y911430D01*
X146370Y911496D01*
X146466Y911559D01*
X146564Y911619D01*
X146663Y911676D01*
X146764Y911729D01*
X146868Y911779D01*
X146972Y911826D01*
X147079Y911869D01*
X147186Y911908D01*
X147295Y911944D01*
X147405Y911976D01*
X147516Y912005D01*
X147628Y912029D01*
X147741Y912050D01*
X147854Y912067D01*
X147968Y912081D01*
X148082Y912090D01*
X148196Y912096D01*
X148311Y912098D01*
X148443Y912096D01*
X148575Y912090D01*
X148706Y912080D01*
X148837Y912066D01*
X148968Y912049D01*
X149098Y912027D01*
X149228Y912002D01*
X149356Y911972D01*
X149484Y911939D01*
X149610Y911902D01*
X149736Y911861D01*
X149860Y911817D01*
X149983Y911768D01*
X150104Y911717D01*
X150224Y911661D01*
X150342Y911602D01*
X150458Y911540D01*
X150572Y911474D01*
X150684Y911404D01*
X150794Y911331D01*
X150902Y911255D01*
X151007Y911176D01*
X151110Y911094D01*
X151211Y911009D01*
X151309Y910920D01*
X151404Y910829D01*
X151497Y910735D01*
X151586Y910638D01*
X151673Y910539D01*
X151757Y910437D01*
X151837Y910333D01*
X151915Y910226D01*
X151989Y910117D01*
X152060Y910006D01*
X152128Y909892D01*
X152192Y909777D01*
X152252Y909660D01*
X152310Y909541D01*
X152363Y909421D01*
X152413Y909299D01*
X152459Y909175D01*
X152502Y909050D01*
X146025Y906002D02*
X145940Y906086D01*
X145858Y906172D01*
X145778Y906261D01*
X145702Y906353D01*
X145628Y906446D01*
X145558Y906543D01*
X145490Y906641D01*
X145426Y906742D01*
X145366Y906845D01*
X145308Y906949D01*
X145254Y907055D01*
X145204Y907164D01*
X145157Y907273D01*
X145113Y907384D01*
X145074Y907497D01*
X145037Y907610D01*
X145005Y907725D01*
X144976Y907841D01*
X144951Y907958D01*
X144930Y908075D01*
X144913Y908193D01*
X144899Y908312D01*
X144890Y908431D01*
X144884Y908550D01*
X144882Y908669D01*
X146025Y906002D02*
X152502Y898382D01*
X144882Y898382D01*
X174092Y898382D02*
X177902Y898382D01*
X174092Y898382D02*
X173970Y898384D01*
X173848Y898390D01*
X173726Y898400D01*
X173605Y898413D01*
X173484Y898431D01*
X173364Y898452D01*
X173244Y898478D01*
X173126Y898507D01*
X173008Y898539D01*
X172891Y898576D01*
X172776Y898616D01*
X172662Y898660D01*
X172550Y898708D01*
X172439Y898759D01*
X172330Y898814D01*
X172222Y898872D01*
X172117Y898934D01*
X172014Y898999D01*
X171912Y899067D01*
X171813Y899139D01*
X171717Y899213D01*
X171622Y899291D01*
X171531Y899372D01*
X171441Y899455D01*
X171355Y899541D01*
X171272Y899631D01*
X171191Y899722D01*
X171113Y899817D01*
X171039Y899913D01*
X170967Y900012D01*
X170899Y900114D01*
X170834Y900217D01*
X170772Y900322D01*
X170714Y900430D01*
X170659Y900539D01*
X170608Y900650D01*
X170560Y900762D01*
X170516Y900876D01*
X170476Y900991D01*
X170439Y901108D01*
X170407Y901226D01*
X170378Y901344D01*
X170352Y901464D01*
X170331Y901584D01*
X170313Y901705D01*
X170300Y901826D01*
X170290Y901948D01*
X170284Y902070D01*
X170282Y902192D01*
X170284Y902314D01*
X170290Y902436D01*
X170300Y902558D01*
X170313Y902679D01*
X170331Y902800D01*
X170352Y902920D01*
X170378Y903040D01*
X170407Y903158D01*
X170439Y903276D01*
X170476Y903393D01*
X170516Y903508D01*
X170560Y903622D01*
X170608Y903734D01*
X170659Y903845D01*
X170714Y903954D01*
X170772Y904062D01*
X170834Y904167D01*
X170899Y904270D01*
X170967Y904372D01*
X171039Y904471D01*
X171113Y904567D01*
X171191Y904662D01*
X171272Y904753D01*
X171355Y904843D01*
X171441Y904929D01*
X171531Y905012D01*
X171622Y905093D01*
X171717Y905171D01*
X171813Y905245D01*
X171912Y905317D01*
X172014Y905385D01*
X172117Y905450D01*
X172222Y905512D01*
X172330Y905570D01*
X172439Y905625D01*
X172550Y905676D01*
X172662Y905724D01*
X172776Y905768D01*
X172891Y905808D01*
X173008Y905845D01*
X173126Y905877D01*
X173244Y905906D01*
X173364Y905932D01*
X173484Y905953D01*
X173605Y905971D01*
X173726Y905984D01*
X173848Y905994D01*
X173970Y906000D01*
X174092Y906002D01*
X173330Y912098D02*
X177902Y912098D01*
X173330Y912098D02*
X173221Y912096D01*
X173113Y912090D01*
X173004Y912081D01*
X172896Y912067D01*
X172789Y912050D01*
X172682Y912028D01*
X172576Y912003D01*
X172471Y911975D01*
X172367Y911942D01*
X172265Y911906D01*
X172164Y911866D01*
X172064Y911823D01*
X171966Y911776D01*
X171869Y911725D01*
X171775Y911671D01*
X171682Y911614D01*
X171592Y911554D01*
X171503Y911490D01*
X171417Y911423D01*
X171334Y911354D01*
X171253Y911281D01*
X171175Y911205D01*
X171099Y911127D01*
X171026Y911046D01*
X170957Y910963D01*
X170890Y910877D01*
X170826Y910788D01*
X170766Y910698D01*
X170709Y910605D01*
X170655Y910511D01*
X170604Y910414D01*
X170557Y910316D01*
X170514Y910216D01*
X170474Y910115D01*
X170438Y910013D01*
X170405Y909909D01*
X170377Y909804D01*
X170352Y909698D01*
X170330Y909591D01*
X170313Y909484D01*
X170299Y909376D01*
X170290Y909267D01*
X170284Y909159D01*
X170282Y909050D01*
X170284Y908941D01*
X170290Y908833D01*
X170299Y908724D01*
X170313Y908616D01*
X170330Y908509D01*
X170352Y908402D01*
X170377Y908296D01*
X170405Y908191D01*
X170438Y908087D01*
X170474Y907985D01*
X170514Y907884D01*
X170557Y907784D01*
X170604Y907686D01*
X170655Y907589D01*
X170709Y907495D01*
X170766Y907402D01*
X170826Y907312D01*
X170890Y907223D01*
X170957Y907137D01*
X171026Y907054D01*
X171099Y906973D01*
X171175Y906895D01*
X171253Y906819D01*
X171334Y906746D01*
X171417Y906677D01*
X171503Y906610D01*
X171592Y906546D01*
X171682Y906486D01*
X171775Y906429D01*
X171869Y906375D01*
X171966Y906324D01*
X172064Y906277D01*
X172164Y906234D01*
X172265Y906194D01*
X172367Y906158D01*
X172471Y906125D01*
X172576Y906097D01*
X172682Y906072D01*
X172789Y906050D01*
X172896Y906033D01*
X173004Y906019D01*
X173113Y906010D01*
X173221Y906004D01*
X173330Y906002D01*
X176378Y906002D01*
D11*
X183515Y834120D02*
X183515Y829040D01*
X183515Y834120D02*
X183513Y834231D01*
X183507Y834341D01*
X183498Y834452D01*
X183484Y834562D01*
X183467Y834671D01*
X183446Y834780D01*
X183421Y834888D01*
X183392Y834995D01*
X183360Y835101D01*
X183324Y835206D01*
X183284Y835309D01*
X183241Y835411D01*
X183194Y835512D01*
X183143Y835611D01*
X183090Y835708D01*
X183033Y835802D01*
X182972Y835895D01*
X182909Y835986D01*
X182842Y836075D01*
X182772Y836161D01*
X182699Y836244D01*
X182624Y836326D01*
X182546Y836404D01*
X182464Y836479D01*
X182381Y836552D01*
X182295Y836622D01*
X182206Y836689D01*
X182115Y836752D01*
X182022Y836813D01*
X181928Y836870D01*
X181831Y836923D01*
X181732Y836974D01*
X181631Y837021D01*
X181529Y837064D01*
X181426Y837104D01*
X181321Y837140D01*
X181215Y837172D01*
X181108Y837201D01*
X181000Y837226D01*
X180891Y837247D01*
X180782Y837264D01*
X180672Y837278D01*
X180561Y837287D01*
X180451Y837293D01*
X180340Y837295D01*
X180229Y837293D01*
X180119Y837287D01*
X180008Y837278D01*
X179898Y837264D01*
X179789Y837247D01*
X179680Y837226D01*
X179572Y837201D01*
X179465Y837172D01*
X179359Y837140D01*
X179254Y837104D01*
X179151Y837064D01*
X179049Y837021D01*
X178948Y836974D01*
X178849Y836923D01*
X178753Y836870D01*
X178658Y836813D01*
X178565Y836752D01*
X178474Y836689D01*
X178385Y836622D01*
X178299Y836552D01*
X178216Y836479D01*
X178134Y836404D01*
X178056Y836326D01*
X177981Y836244D01*
X177908Y836161D01*
X177838Y836075D01*
X177771Y835986D01*
X177708Y835895D01*
X177647Y835802D01*
X177590Y835708D01*
X177537Y835611D01*
X177486Y835512D01*
X177439Y835411D01*
X177396Y835309D01*
X177356Y835206D01*
X177320Y835101D01*
X177288Y834995D01*
X177259Y834888D01*
X177234Y834780D01*
X177213Y834671D01*
X177196Y834562D01*
X177182Y834452D01*
X177173Y834341D01*
X177167Y834231D01*
X177165Y834120D01*
X177165Y829040D01*
X177167Y828929D01*
X177173Y828819D01*
X177182Y828708D01*
X177196Y828598D01*
X177213Y828489D01*
X177234Y828380D01*
X177259Y828272D01*
X177288Y828165D01*
X177320Y828059D01*
X177356Y827954D01*
X177396Y827851D01*
X177439Y827749D01*
X177486Y827648D01*
X177537Y827549D01*
X177590Y827453D01*
X177647Y827358D01*
X177708Y827265D01*
X177771Y827174D01*
X177838Y827085D01*
X177908Y826999D01*
X177981Y826916D01*
X178056Y826834D01*
X178134Y826756D01*
X178216Y826681D01*
X178299Y826608D01*
X178385Y826538D01*
X178474Y826471D01*
X178565Y826408D01*
X178658Y826347D01*
X178753Y826290D01*
X178849Y826237D01*
X178948Y826186D01*
X179049Y826139D01*
X179151Y826096D01*
X179254Y826056D01*
X179359Y826020D01*
X179465Y825988D01*
X179572Y825959D01*
X179680Y825934D01*
X179789Y825913D01*
X179898Y825896D01*
X180008Y825882D01*
X180119Y825873D01*
X180229Y825867D01*
X180340Y825865D01*
X180451Y825867D01*
X180561Y825873D01*
X180672Y825882D01*
X180782Y825896D01*
X180891Y825913D01*
X181000Y825934D01*
X181108Y825959D01*
X181215Y825988D01*
X181321Y826020D01*
X181426Y826056D01*
X181529Y826096D01*
X181631Y826139D01*
X181732Y826186D01*
X181831Y826237D01*
X181927Y826290D01*
X182022Y826347D01*
X182115Y826408D01*
X182206Y826471D01*
X182295Y826538D01*
X182381Y826608D01*
X182464Y826681D01*
X182546Y826756D01*
X182624Y826834D01*
X182699Y826916D01*
X182772Y826999D01*
X182842Y827085D01*
X182909Y827174D01*
X182972Y827265D01*
X183033Y827358D01*
X183090Y827453D01*
X183143Y827549D01*
X183194Y827648D01*
X183241Y827749D01*
X183284Y827851D01*
X183324Y827954D01*
X183360Y828059D01*
X183392Y828165D01*
X183421Y828272D01*
X183446Y828380D01*
X183467Y828489D01*
X183484Y828598D01*
X183498Y828708D01*
X183507Y828819D01*
X183513Y828929D01*
X183515Y829040D01*
X171704Y825865D02*
X171704Y837295D01*
X168529Y837295D01*
X168418Y837293D01*
X168308Y837287D01*
X168197Y837278D01*
X168087Y837264D01*
X167978Y837247D01*
X167869Y837226D01*
X167761Y837201D01*
X167654Y837172D01*
X167548Y837140D01*
X167443Y837104D01*
X167340Y837064D01*
X167238Y837021D01*
X167137Y836974D01*
X167038Y836923D01*
X166942Y836870D01*
X166847Y836813D01*
X166754Y836752D01*
X166663Y836689D01*
X166574Y836622D01*
X166488Y836552D01*
X166405Y836479D01*
X166323Y836404D01*
X166245Y836326D01*
X166170Y836244D01*
X166097Y836161D01*
X166027Y836075D01*
X165960Y835986D01*
X165897Y835895D01*
X165836Y835802D01*
X165779Y835708D01*
X165726Y835611D01*
X165675Y835512D01*
X165628Y835411D01*
X165585Y835309D01*
X165545Y835206D01*
X165509Y835101D01*
X165477Y834995D01*
X165448Y834888D01*
X165423Y834780D01*
X165402Y834671D01*
X165385Y834562D01*
X165371Y834452D01*
X165362Y834341D01*
X165356Y834231D01*
X165354Y834120D01*
X165354Y829040D01*
X165356Y828929D01*
X165362Y828819D01*
X165371Y828708D01*
X165385Y828598D01*
X165402Y828489D01*
X165423Y828380D01*
X165448Y828272D01*
X165477Y828165D01*
X165509Y828059D01*
X165545Y827954D01*
X165585Y827851D01*
X165628Y827749D01*
X165675Y827648D01*
X165726Y827549D01*
X165779Y827453D01*
X165836Y827358D01*
X165897Y827265D01*
X165960Y827174D01*
X166027Y827085D01*
X166097Y826999D01*
X166170Y826916D01*
X166245Y826834D01*
X166323Y826756D01*
X166405Y826681D01*
X166488Y826608D01*
X166574Y826538D01*
X166663Y826471D01*
X166754Y826408D01*
X166847Y826347D01*
X166942Y826290D01*
X167038Y826237D01*
X167137Y826186D01*
X167238Y826139D01*
X167340Y826096D01*
X167443Y826056D01*
X167548Y826020D01*
X167654Y825988D01*
X167761Y825959D01*
X167869Y825934D01*
X167978Y825913D01*
X168087Y825896D01*
X168197Y825882D01*
X168308Y825873D01*
X168418Y825867D01*
X168529Y825865D01*
X171704Y825865D01*
X160401Y824595D02*
X155321Y824595D01*
X150343Y825865D02*
X150343Y837295D01*
X150343Y825865D02*
X145263Y825865D01*
X140437Y825865D02*
X135357Y825865D01*
X140437Y825865D02*
X140437Y837295D01*
X135357Y837295D01*
X136627Y832215D02*
X140437Y832215D01*
X131572Y837295D02*
X127762Y825865D01*
X123952Y837295D01*
X119101Y825865D02*
X114021Y825865D01*
X119101Y825865D02*
X119101Y837295D01*
X114021Y837295D01*
X115291Y832215D02*
X119101Y832215D01*
X109195Y837295D02*
X109195Y825865D01*
X104115Y825865D01*
D10*
X579982Y741953D02*
X580180Y741338D01*
X580393Y740727D01*
X580621Y740122D01*
X580863Y739523D01*
X581120Y738930D01*
X581391Y738343D01*
X581676Y737763D01*
X581975Y737190D01*
X582288Y736624D01*
X582615Y736066D01*
X582954Y735517D01*
X583308Y734975D01*
X583674Y734442D01*
X584053Y733919D01*
X584444Y733404D01*
X584848Y732900D01*
X585264Y732405D01*
X585692Y731921D01*
X586132Y731447D01*
X586583Y730983D01*
X587045Y730531D01*
X587517Y730090D01*
X588001Y729661D01*
X588494Y729244D01*
X588998Y728838D01*
X589511Y728445D01*
X590034Y728065D01*
X590565Y727697D01*
X591106Y727343D01*
X591655Y727001D01*
X592212Y726673D01*
X592777Y726359D01*
X593349Y726058D01*
X593928Y725771D01*
X594514Y725499D01*
X595107Y725241D01*
X595705Y724997D01*
X596310Y724767D01*
X596920Y724553D01*
X597534Y724353D01*
X598154Y724168D01*
X598778Y723999D01*
X599405Y723844D01*
X600036Y723705D01*
X600671Y723581D01*
X601308Y723472D01*
X601948Y723379D01*
X602590Y723302D01*
X603233Y723240D01*
X603878Y723193D01*
X604523Y723163D01*
X605170Y723148D01*
X605816Y723148D01*
X606462Y723165D01*
X607108Y723197D01*
X607753Y723244D01*
X608396Y723307D01*
X609037Y723386D01*
X609677Y723480D01*
X610314Y723590D01*
X610948Y723715D01*
X611579Y723856D01*
X612206Y724012D01*
X612830Y724182D01*
X613449Y724368D01*
X614063Y724569D01*
X614673Y724785D01*
X615277Y725016D01*
X615875Y725261D01*
X616467Y725520D01*
X617052Y725794D01*
X617631Y726082D01*
X618203Y726383D01*
X618767Y726699D01*
X619323Y727028D01*
X619872Y727371D01*
X620411Y727726D01*
X620942Y728095D01*
X621464Y728476D01*
X621977Y728870D01*
X621977Y770766D02*
X621465Y771160D01*
X620943Y771542D01*
X620412Y771910D01*
X619872Y772266D01*
X619324Y772609D01*
X618768Y772938D01*
X618203Y773253D01*
X617632Y773555D01*
X617053Y773843D01*
X616467Y774117D01*
X615875Y774376D01*
X615277Y774621D01*
X614673Y774852D01*
X614064Y775067D01*
X613449Y775268D01*
X612830Y775454D01*
X612207Y775625D01*
X611580Y775781D01*
X610949Y775922D01*
X610314Y776047D01*
X609677Y776157D01*
X609038Y776251D01*
X608396Y776330D01*
X607753Y776393D01*
X607108Y776440D01*
X606463Y776472D01*
X605816Y776489D01*
X605170Y776489D01*
X604524Y776474D01*
X603878Y776444D01*
X603233Y776397D01*
X602590Y776335D01*
X601948Y776258D01*
X601309Y776165D01*
X600671Y776056D01*
X600037Y775932D01*
X599406Y775793D01*
X598778Y775639D01*
X598154Y775469D01*
X597535Y775284D01*
X596920Y775084D01*
X596310Y774870D01*
X595706Y774640D01*
X595107Y774397D01*
X594515Y774138D01*
X593928Y773866D01*
X593349Y773579D01*
X592777Y773278D01*
X592212Y772964D01*
X591655Y772636D01*
X591106Y772294D01*
X590566Y771940D01*
X590034Y771572D01*
X589511Y771192D01*
X588998Y770799D01*
X588495Y770393D01*
X588001Y769976D01*
X587518Y769547D01*
X587045Y769106D01*
X586583Y768654D01*
X586132Y768191D01*
X585692Y767717D01*
X585265Y767232D01*
X584848Y766737D01*
X584445Y766233D01*
X584053Y765718D01*
X583674Y765195D01*
X583308Y764662D01*
X582955Y764121D01*
X582615Y763571D01*
X582288Y763013D01*
X581975Y762447D01*
X581676Y761874D01*
X581391Y761294D01*
X581120Y760707D01*
X580863Y760114D01*
X580621Y759515D01*
X580393Y758910D01*
X580181Y758299D01*
X579982Y757684D01*
X621977Y770766D02*
X621977Y728866D01*
X608007Y727276D02*
X608007Y772356D01*
X579982Y757679D02*
X579801Y757067D01*
X579635Y756450D01*
X579484Y755830D01*
X579347Y755206D01*
X579226Y754579D01*
X579119Y753950D01*
X579028Y753318D01*
X578952Y752684D01*
X578891Y752048D01*
X578845Y751411D01*
X578814Y750774D01*
X578799Y750135D01*
X578799Y749497D01*
X578814Y748858D01*
X578845Y748221D01*
X578891Y747584D01*
X578952Y746948D01*
X579028Y746314D01*
X579119Y745682D01*
X579226Y745053D01*
X579347Y744426D01*
X579484Y743802D01*
X579635Y743182D01*
X579801Y742565D01*
X579982Y741953D01*
D13*
X742446Y909408D02*
X742446Y921092D01*
X739201Y921092D02*
X745692Y921092D01*
X734643Y921092D02*
X734643Y909408D01*
X734643Y915899D02*
X728152Y915899D01*
X728152Y921092D02*
X728152Y909408D01*
X722428Y909408D02*
X717236Y909408D01*
X722428Y909408D02*
X722428Y921092D01*
X717236Y921092D01*
X718534Y915899D02*
X722428Y915899D01*
X713420Y908110D02*
X708227Y908110D01*
X698857Y915899D02*
X696910Y915899D01*
X696910Y909408D01*
X700805Y909408D01*
X700904Y909410D01*
X701004Y909416D01*
X701103Y909425D01*
X701201Y909438D01*
X701299Y909455D01*
X701397Y909476D01*
X701493Y909501D01*
X701588Y909529D01*
X701682Y909561D01*
X701775Y909596D01*
X701867Y909635D01*
X701957Y909678D01*
X702045Y909723D01*
X702132Y909773D01*
X702216Y909825D01*
X702299Y909881D01*
X702379Y909939D01*
X702457Y910001D01*
X702532Y910066D01*
X702605Y910134D01*
X702675Y910204D01*
X702743Y910277D01*
X702808Y910352D01*
X702870Y910430D01*
X702928Y910510D01*
X702984Y910593D01*
X703036Y910677D01*
X703086Y910764D01*
X703131Y910852D01*
X703174Y910942D01*
X703213Y911034D01*
X703248Y911127D01*
X703280Y911221D01*
X703308Y911316D01*
X703333Y911412D01*
X703354Y911510D01*
X703371Y911608D01*
X703384Y911706D01*
X703393Y911805D01*
X703399Y911905D01*
X703401Y912004D01*
X703401Y918496D01*
X703399Y918595D01*
X703393Y918695D01*
X703384Y918794D01*
X703371Y918892D01*
X703354Y918990D01*
X703333Y919088D01*
X703308Y919184D01*
X703280Y919279D01*
X703248Y919373D01*
X703213Y919466D01*
X703174Y919558D01*
X703131Y919648D01*
X703086Y919736D01*
X703036Y919823D01*
X702984Y919907D01*
X702928Y919990D01*
X702870Y920070D01*
X702808Y920148D01*
X702743Y920223D01*
X702675Y920296D01*
X702605Y920366D01*
X702532Y920434D01*
X702457Y920499D01*
X702379Y920561D01*
X702299Y920619D01*
X702216Y920675D01*
X702132Y920727D01*
X702045Y920777D01*
X701957Y920822D01*
X701867Y920865D01*
X701775Y920904D01*
X701682Y920939D01*
X701588Y920971D01*
X701493Y920999D01*
X701397Y921024D01*
X701299Y921045D01*
X701201Y921062D01*
X701103Y921075D01*
X701004Y921084D01*
X700904Y921090D01*
X700805Y921092D01*
X696910Y921092D01*
X688345Y921092D02*
X692239Y909408D01*
X684450Y909408D02*
X688345Y921092D01*
X685424Y912329D02*
X691266Y912329D01*
X679201Y909408D02*
X679201Y921092D01*
X680499Y909408D02*
X677902Y909408D01*
X677902Y921092D02*
X680499Y921092D01*
X672921Y921092D02*
X672921Y909408D01*
X666430Y909408D02*
X672921Y921092D01*
X666430Y921092D02*
X666430Y909408D01*
X410292Y440508D02*
X398608Y444403D01*
X410292Y448297D01*
X407046Y452587D02*
X401854Y452587D01*
X407046Y452587D02*
X407159Y452589D01*
X407272Y452595D01*
X407385Y452605D01*
X407498Y452619D01*
X407610Y452636D01*
X407721Y452658D01*
X407831Y452683D01*
X407941Y452713D01*
X408049Y452746D01*
X408156Y452783D01*
X408262Y452823D01*
X408366Y452868D01*
X408469Y452916D01*
X408570Y452967D01*
X408669Y453022D01*
X408766Y453080D01*
X408861Y453142D01*
X408954Y453207D01*
X409044Y453275D01*
X409132Y453346D01*
X409218Y453421D01*
X409301Y453498D01*
X409381Y453578D01*
X409458Y453661D01*
X409533Y453747D01*
X409604Y453835D01*
X409672Y453925D01*
X409737Y454018D01*
X409799Y454113D01*
X409857Y454210D01*
X409912Y454309D01*
X409963Y454410D01*
X410011Y454513D01*
X410056Y454617D01*
X410096Y454723D01*
X410133Y454830D01*
X410166Y454938D01*
X410196Y455048D01*
X410221Y455158D01*
X410243Y455269D01*
X410260Y455381D01*
X410274Y455494D01*
X410284Y455607D01*
X410290Y455720D01*
X410292Y455833D01*
X410290Y455946D01*
X410284Y456059D01*
X410274Y456172D01*
X410260Y456285D01*
X410243Y456397D01*
X410221Y456508D01*
X410196Y456618D01*
X410166Y456728D01*
X410133Y456836D01*
X410096Y456943D01*
X410056Y457049D01*
X410011Y457153D01*
X409963Y457256D01*
X409912Y457357D01*
X409857Y457456D01*
X409799Y457553D01*
X409737Y457648D01*
X409672Y457741D01*
X409604Y457831D01*
X409533Y457919D01*
X409458Y458005D01*
X409381Y458088D01*
X409301Y458168D01*
X409218Y458245D01*
X409132Y458320D01*
X409044Y458391D01*
X408954Y458459D01*
X408861Y458524D01*
X408766Y458586D01*
X408669Y458644D01*
X408570Y458699D01*
X408469Y458750D01*
X408366Y458798D01*
X408262Y458843D01*
X408156Y458883D01*
X408049Y458920D01*
X407941Y458953D01*
X407831Y458983D01*
X407721Y459008D01*
X407610Y459030D01*
X407498Y459047D01*
X407385Y459061D01*
X407272Y459071D01*
X407159Y459077D01*
X407046Y459079D01*
X407046Y459078D02*
X401854Y459078D01*
X401854Y459079D02*
X401741Y459077D01*
X401628Y459071D01*
X401515Y459061D01*
X401402Y459047D01*
X401290Y459030D01*
X401179Y459008D01*
X401069Y458983D01*
X400959Y458953D01*
X400851Y458920D01*
X400744Y458883D01*
X400638Y458843D01*
X400534Y458798D01*
X400431Y458750D01*
X400330Y458699D01*
X400231Y458644D01*
X400134Y458586D01*
X400039Y458524D01*
X399946Y458459D01*
X399856Y458391D01*
X399768Y458320D01*
X399682Y458245D01*
X399599Y458168D01*
X399519Y458088D01*
X399442Y458005D01*
X399367Y457919D01*
X399296Y457831D01*
X399228Y457741D01*
X399163Y457648D01*
X399101Y457553D01*
X399043Y457456D01*
X398988Y457357D01*
X398937Y457256D01*
X398889Y457153D01*
X398844Y457049D01*
X398804Y456943D01*
X398767Y456836D01*
X398734Y456728D01*
X398704Y456618D01*
X398679Y456508D01*
X398657Y456397D01*
X398640Y456285D01*
X398626Y456172D01*
X398616Y456059D01*
X398610Y455946D01*
X398608Y455833D01*
X398610Y455720D01*
X398616Y455607D01*
X398626Y455494D01*
X398640Y455381D01*
X398657Y455269D01*
X398679Y455158D01*
X398704Y455048D01*
X398734Y454938D01*
X398767Y454830D01*
X398804Y454723D01*
X398844Y454617D01*
X398889Y454513D01*
X398937Y454410D01*
X398988Y454309D01*
X399043Y454210D01*
X399101Y454113D01*
X399163Y454018D01*
X399228Y453925D01*
X399296Y453835D01*
X399367Y453747D01*
X399442Y453661D01*
X399519Y453578D01*
X399599Y453498D01*
X399682Y453421D01*
X399768Y453346D01*
X399856Y453275D01*
X399946Y453207D01*
X400039Y453142D01*
X400134Y453080D01*
X400231Y453022D01*
X400330Y452967D01*
X400431Y452916D01*
X400534Y452868D01*
X400638Y452823D01*
X400744Y452783D01*
X400851Y452746D01*
X400959Y452713D01*
X401069Y452683D01*
X401179Y452658D01*
X401290Y452636D01*
X401402Y452619D01*
X401515Y452605D01*
X401628Y452595D01*
X401741Y452589D01*
X401854Y452587D01*
X398608Y464421D02*
X410292Y464421D01*
X398608Y464421D02*
X398608Y469614D01*
D10*
X111100Y785000D02*
X109200Y785000D01*
X109200Y705000D02*
X189200Y705000D01*
X189200Y785000D01*
X114200Y730000D02*
X109200Y730000D01*
X114200Y730000D02*
X114200Y760000D01*
X109200Y760000D01*
X111100Y782940D02*
X111100Y785000D01*
X187300Y785000D02*
X187300Y782940D01*
X187300Y785000D02*
X189200Y785000D01*
X187300Y782940D02*
X111100Y782940D01*
X111100Y785000D02*
X187300Y785000D01*
X116180Y711820D02*
X109200Y705000D01*
X131420Y711820D02*
X141580Y711820D01*
X109200Y705000D02*
X109200Y730000D01*
X109200Y760000D01*
X109200Y785000D01*
X156820Y711820D02*
X166980Y711820D01*
X182220Y711820D02*
X189200Y705000D01*
X129642Y774050D02*
X125832Y777098D01*
X125832Y763382D01*
X129642Y763382D02*
X122022Y763382D01*
X144882Y773669D02*
X144884Y773784D01*
X144890Y773898D01*
X144899Y774012D01*
X144913Y774126D01*
X144930Y774239D01*
X144951Y774352D01*
X144975Y774464D01*
X145004Y774575D01*
X145036Y774685D01*
X145072Y774794D01*
X145111Y774901D01*
X145154Y775008D01*
X145201Y775112D01*
X145251Y775216D01*
X145304Y775317D01*
X145361Y775416D01*
X145421Y775514D01*
X145484Y775610D01*
X145550Y775703D01*
X145620Y775794D01*
X145692Y775883D01*
X145768Y775969D01*
X145846Y776053D01*
X145927Y776134D01*
X146011Y776212D01*
X146097Y776288D01*
X146186Y776360D01*
X146277Y776430D01*
X146370Y776496D01*
X146466Y776559D01*
X146564Y776619D01*
X146663Y776676D01*
X146764Y776729D01*
X146868Y776779D01*
X146972Y776826D01*
X147079Y776869D01*
X147186Y776908D01*
X147295Y776944D01*
X147405Y776976D01*
X147516Y777005D01*
X147628Y777029D01*
X147741Y777050D01*
X147854Y777067D01*
X147968Y777081D01*
X148082Y777090D01*
X148196Y777096D01*
X148311Y777098D01*
X148443Y777096D01*
X148575Y777090D01*
X148706Y777080D01*
X148837Y777066D01*
X148968Y777049D01*
X149098Y777027D01*
X149228Y777002D01*
X149356Y776972D01*
X149484Y776939D01*
X149610Y776902D01*
X149736Y776861D01*
X149860Y776817D01*
X149983Y776768D01*
X150104Y776717D01*
X150224Y776661D01*
X150342Y776602D01*
X150458Y776540D01*
X150572Y776474D01*
X150684Y776404D01*
X150794Y776331D01*
X150902Y776255D01*
X151007Y776176D01*
X151110Y776094D01*
X151211Y776009D01*
X151309Y775920D01*
X151404Y775829D01*
X151497Y775735D01*
X151586Y775638D01*
X151673Y775539D01*
X151757Y775437D01*
X151837Y775333D01*
X151915Y775226D01*
X151989Y775117D01*
X152060Y775006D01*
X152128Y774892D01*
X152192Y774777D01*
X152252Y774660D01*
X152310Y774541D01*
X152363Y774421D01*
X152413Y774299D01*
X152459Y774175D01*
X152502Y774050D01*
X146025Y771002D02*
X145940Y771086D01*
X145858Y771172D01*
X145778Y771261D01*
X145702Y771353D01*
X145628Y771446D01*
X145558Y771543D01*
X145490Y771641D01*
X145426Y771742D01*
X145366Y771845D01*
X145308Y771949D01*
X145254Y772055D01*
X145204Y772164D01*
X145157Y772273D01*
X145113Y772384D01*
X145074Y772497D01*
X145037Y772610D01*
X145005Y772725D01*
X144976Y772841D01*
X144951Y772958D01*
X144930Y773075D01*
X144913Y773193D01*
X144899Y773312D01*
X144890Y773431D01*
X144884Y773550D01*
X144882Y773669D01*
X146025Y771002D02*
X152502Y763382D01*
X144882Y763382D01*
X174092Y763382D02*
X177902Y763382D01*
X174092Y763382D02*
X173970Y763384D01*
X173848Y763390D01*
X173726Y763400D01*
X173605Y763413D01*
X173484Y763431D01*
X173364Y763452D01*
X173244Y763478D01*
X173126Y763507D01*
X173008Y763539D01*
X172891Y763576D01*
X172776Y763616D01*
X172662Y763660D01*
X172550Y763708D01*
X172439Y763759D01*
X172330Y763814D01*
X172222Y763872D01*
X172117Y763934D01*
X172014Y763999D01*
X171912Y764067D01*
X171813Y764139D01*
X171717Y764213D01*
X171622Y764291D01*
X171531Y764372D01*
X171441Y764455D01*
X171355Y764541D01*
X171272Y764631D01*
X171191Y764722D01*
X171113Y764817D01*
X171039Y764913D01*
X170967Y765012D01*
X170899Y765114D01*
X170834Y765217D01*
X170772Y765322D01*
X170714Y765430D01*
X170659Y765539D01*
X170608Y765650D01*
X170560Y765762D01*
X170516Y765876D01*
X170476Y765991D01*
X170439Y766108D01*
X170407Y766226D01*
X170378Y766344D01*
X170352Y766464D01*
X170331Y766584D01*
X170313Y766705D01*
X170300Y766826D01*
X170290Y766948D01*
X170284Y767070D01*
X170282Y767192D01*
X170284Y767314D01*
X170290Y767436D01*
X170300Y767558D01*
X170313Y767679D01*
X170331Y767800D01*
X170352Y767920D01*
X170378Y768040D01*
X170407Y768158D01*
X170439Y768276D01*
X170476Y768393D01*
X170516Y768508D01*
X170560Y768622D01*
X170608Y768734D01*
X170659Y768845D01*
X170714Y768954D01*
X170772Y769062D01*
X170834Y769167D01*
X170899Y769270D01*
X170967Y769372D01*
X171039Y769471D01*
X171113Y769567D01*
X171191Y769662D01*
X171272Y769753D01*
X171355Y769843D01*
X171441Y769929D01*
X171531Y770012D01*
X171622Y770093D01*
X171717Y770171D01*
X171813Y770245D01*
X171912Y770317D01*
X172014Y770385D01*
X172117Y770450D01*
X172222Y770512D01*
X172330Y770570D01*
X172439Y770625D01*
X172550Y770676D01*
X172662Y770724D01*
X172776Y770768D01*
X172891Y770808D01*
X173008Y770845D01*
X173126Y770877D01*
X173244Y770906D01*
X173364Y770932D01*
X173484Y770953D01*
X173605Y770971D01*
X173726Y770984D01*
X173848Y770994D01*
X173970Y771000D01*
X174092Y771002D01*
X173330Y777098D02*
X177902Y777098D01*
X173330Y777098D02*
X173221Y777096D01*
X173113Y777090D01*
X173004Y777081D01*
X172896Y777067D01*
X172789Y777050D01*
X172682Y777028D01*
X172576Y777003D01*
X172471Y776975D01*
X172367Y776942D01*
X172265Y776906D01*
X172164Y776866D01*
X172064Y776823D01*
X171966Y776776D01*
X171869Y776725D01*
X171775Y776671D01*
X171682Y776614D01*
X171592Y776554D01*
X171503Y776490D01*
X171417Y776423D01*
X171334Y776354D01*
X171253Y776281D01*
X171175Y776205D01*
X171099Y776127D01*
X171026Y776046D01*
X170957Y775963D01*
X170890Y775877D01*
X170826Y775788D01*
X170766Y775698D01*
X170709Y775605D01*
X170655Y775511D01*
X170604Y775414D01*
X170557Y775316D01*
X170514Y775216D01*
X170474Y775115D01*
X170438Y775013D01*
X170405Y774909D01*
X170377Y774804D01*
X170352Y774698D01*
X170330Y774591D01*
X170313Y774484D01*
X170299Y774376D01*
X170290Y774267D01*
X170284Y774159D01*
X170282Y774050D01*
X170284Y773941D01*
X170290Y773833D01*
X170299Y773724D01*
X170313Y773616D01*
X170330Y773509D01*
X170352Y773402D01*
X170377Y773296D01*
X170405Y773191D01*
X170438Y773087D01*
X170474Y772985D01*
X170514Y772884D01*
X170557Y772784D01*
X170604Y772686D01*
X170655Y772589D01*
X170709Y772495D01*
X170766Y772402D01*
X170826Y772312D01*
X170890Y772223D01*
X170957Y772137D01*
X171026Y772054D01*
X171099Y771973D01*
X171175Y771895D01*
X171253Y771819D01*
X171334Y771746D01*
X171417Y771677D01*
X171503Y771610D01*
X171592Y771546D01*
X171682Y771486D01*
X171775Y771429D01*
X171869Y771375D01*
X171966Y771324D01*
X172064Y771277D01*
X172164Y771234D01*
X172265Y771194D01*
X172367Y771158D01*
X172471Y771125D01*
X172576Y771097D01*
X172682Y771072D01*
X172789Y771050D01*
X172896Y771033D01*
X173004Y771019D01*
X173113Y771010D01*
X173221Y771004D01*
X173330Y771002D01*
X176378Y771002D01*
D11*
X154661Y702295D02*
X152121Y690865D01*
X149581Y698485D01*
X147041Y690865D01*
X144501Y702295D01*
X138913Y702295D02*
X138913Y690865D01*
X140183Y690865D02*
X137643Y690865D01*
X137643Y702295D02*
X140183Y702295D01*
X132563Y702295D02*
X132563Y690865D01*
X132563Y702295D02*
X129388Y702295D01*
X129277Y702293D01*
X129167Y702287D01*
X129056Y702278D01*
X128946Y702264D01*
X128837Y702247D01*
X128728Y702226D01*
X128620Y702201D01*
X128513Y702172D01*
X128407Y702140D01*
X128302Y702104D01*
X128199Y702064D01*
X128097Y702021D01*
X127996Y701974D01*
X127897Y701923D01*
X127801Y701870D01*
X127706Y701813D01*
X127613Y701752D01*
X127522Y701689D01*
X127433Y701622D01*
X127347Y701552D01*
X127264Y701479D01*
X127182Y701404D01*
X127104Y701326D01*
X127029Y701244D01*
X126956Y701161D01*
X126886Y701075D01*
X126819Y700986D01*
X126756Y700895D01*
X126695Y700802D01*
X126638Y700708D01*
X126585Y700611D01*
X126534Y700512D01*
X126487Y700411D01*
X126444Y700309D01*
X126404Y700206D01*
X126368Y700101D01*
X126336Y699995D01*
X126307Y699888D01*
X126282Y699780D01*
X126261Y699671D01*
X126244Y699562D01*
X126230Y699452D01*
X126221Y699341D01*
X126215Y699231D01*
X126213Y699120D01*
X126213Y694040D01*
X126215Y693929D01*
X126221Y693819D01*
X126230Y693708D01*
X126244Y693598D01*
X126261Y693489D01*
X126282Y693380D01*
X126307Y693272D01*
X126336Y693165D01*
X126368Y693059D01*
X126404Y692954D01*
X126444Y692851D01*
X126487Y692749D01*
X126534Y692648D01*
X126585Y692549D01*
X126638Y692453D01*
X126695Y692358D01*
X126756Y692265D01*
X126819Y692174D01*
X126886Y692085D01*
X126956Y691999D01*
X127029Y691916D01*
X127104Y691834D01*
X127182Y691756D01*
X127264Y691681D01*
X127347Y691608D01*
X127433Y691538D01*
X127522Y691471D01*
X127613Y691408D01*
X127706Y691347D01*
X127801Y691290D01*
X127897Y691237D01*
X127996Y691186D01*
X128097Y691139D01*
X128199Y691096D01*
X128302Y691056D01*
X128407Y691020D01*
X128513Y690988D01*
X128620Y690959D01*
X128728Y690934D01*
X128837Y690913D01*
X128946Y690896D01*
X129056Y690882D01*
X129167Y690873D01*
X129277Y690867D01*
X129388Y690865D01*
X132563Y690865D01*
X118339Y690865D02*
X118339Y702295D01*
X121514Y702295D02*
X115164Y702295D01*
X110465Y702295D02*
X110465Y690865D01*
X110465Y697215D02*
X104115Y697215D01*
X104115Y702295D02*
X104115Y690865D01*
D10*
X234950Y72390D02*
X234950Y67310D01*
X209550Y67310D02*
X209550Y72390D01*
X210820Y72390D01*
X210820Y67310D02*
X209550Y67310D01*
X233680Y67310D02*
X234950Y67310D01*
X234950Y72390D02*
X233680Y72390D01*
D11*
X234315Y87630D02*
X226695Y87630D01*
X221361Y87630D02*
X213741Y87630D01*
D14*
X655800Y596600D02*
X670800Y606600D01*
X770800Y606600D01*
X785800Y596600D01*
X660800Y567800D02*
X655800Y567800D01*
X660800Y567800D02*
X785800Y567800D01*
X655800Y567800D02*
X655800Y596600D01*
X785800Y596600D02*
X785800Y567800D01*
X660800Y560000D02*
X660800Y440000D01*
X660800Y560000D02*
X660800Y567800D01*
X655800Y567800D01*
X655800Y596600D01*
X785800Y596600D02*
X785800Y567800D01*
X780800Y567800D01*
X780800Y550000D01*
X780800Y440000D01*
D11*
X658800Y500000D02*
X658819Y501522D01*
X658875Y503042D01*
X658968Y504561D01*
X659099Y506077D01*
X659266Y507589D01*
X659471Y509097D01*
X659713Y510600D01*
X659991Y512096D01*
X660306Y513584D01*
X660658Y515065D01*
X661046Y516536D01*
X661470Y517998D01*
X661929Y519448D01*
X662424Y520887D01*
X662954Y522313D01*
X663519Y523726D01*
X664119Y525125D01*
X664753Y526508D01*
X665420Y527876D01*
X666121Y529227D01*
X666855Y530560D01*
X667621Y531874D01*
X668419Y533170D01*
X669249Y534445D01*
X670110Y535700D01*
X671001Y536933D01*
X671923Y538144D01*
X672873Y539332D01*
X673853Y540497D01*
X674861Y541637D01*
X675897Y542752D01*
X676959Y543841D01*
X678048Y544903D01*
X679163Y545939D01*
X680303Y546947D01*
X681468Y547927D01*
X682656Y548877D01*
X683867Y549799D01*
X685100Y550690D01*
X686355Y551551D01*
X687630Y552381D01*
X688926Y553179D01*
X690240Y553945D01*
X691573Y554679D01*
X692924Y555380D01*
X694292Y556047D01*
X695675Y556681D01*
X697074Y557281D01*
X698487Y557846D01*
X699913Y558376D01*
X701352Y558871D01*
X702802Y559330D01*
X704264Y559754D01*
X705735Y560142D01*
X707216Y560494D01*
X708704Y560809D01*
X710200Y561087D01*
X711703Y561329D01*
X713211Y561534D01*
X714723Y561701D01*
X716239Y561832D01*
X717758Y561925D01*
X719278Y561981D01*
X720800Y562000D01*
X722322Y561981D01*
X723842Y561925D01*
X725361Y561832D01*
X726877Y561701D01*
X728389Y561534D01*
X729897Y561329D01*
X731400Y561087D01*
X732896Y560809D01*
X734384Y560494D01*
X735865Y560142D01*
X737336Y559754D01*
X738798Y559330D01*
X740248Y558871D01*
X741687Y558376D01*
X743113Y557846D01*
X744526Y557281D01*
X745925Y556681D01*
X747308Y556047D01*
X748676Y555380D01*
X750027Y554679D01*
X751360Y553945D01*
X752674Y553179D01*
X753970Y552381D01*
X755245Y551551D01*
X756500Y550690D01*
X757733Y549799D01*
X758944Y548877D01*
X760132Y547927D01*
X761297Y546947D01*
X762437Y545939D01*
X763552Y544903D01*
X764641Y543841D01*
X765703Y542752D01*
X766739Y541637D01*
X767747Y540497D01*
X768727Y539332D01*
X769677Y538144D01*
X770599Y536933D01*
X771490Y535700D01*
X772351Y534445D01*
X773181Y533170D01*
X773979Y531874D01*
X774745Y530560D01*
X775479Y529227D01*
X776180Y527876D01*
X776847Y526508D01*
X777481Y525125D01*
X778081Y523726D01*
X778646Y522313D01*
X779176Y520887D01*
X779671Y519448D01*
X780130Y517998D01*
X780554Y516536D01*
X780942Y515065D01*
X781294Y513584D01*
X781609Y512096D01*
X781887Y510600D01*
X782129Y509097D01*
X782334Y507589D01*
X782501Y506077D01*
X782632Y504561D01*
X782725Y503042D01*
X782781Y501522D01*
X782800Y500000D01*
X782781Y498478D01*
X782725Y496958D01*
X782632Y495439D01*
X782501Y493923D01*
X782334Y492411D01*
X782129Y490903D01*
X781887Y489400D01*
X781609Y487904D01*
X781294Y486416D01*
X780942Y484935D01*
X780554Y483464D01*
X780130Y482002D01*
X779671Y480552D01*
X779176Y479113D01*
X778646Y477687D01*
X778081Y476274D01*
X777481Y474875D01*
X776847Y473492D01*
X776180Y472124D01*
X775479Y470773D01*
X774745Y469440D01*
X773979Y468126D01*
X773181Y466830D01*
X772351Y465555D01*
X771490Y464300D01*
X770599Y463067D01*
X769677Y461856D01*
X768727Y460668D01*
X767747Y459503D01*
X766739Y458363D01*
X765703Y457248D01*
X764641Y456159D01*
X763552Y455097D01*
X762437Y454061D01*
X761297Y453053D01*
X760132Y452073D01*
X758944Y451123D01*
X757733Y450201D01*
X756500Y449310D01*
X755245Y448449D01*
X753970Y447619D01*
X752674Y446821D01*
X751360Y446055D01*
X750027Y445321D01*
X748676Y444620D01*
X747308Y443953D01*
X745925Y443319D01*
X744526Y442719D01*
X743113Y442154D01*
X741687Y441624D01*
X740248Y441129D01*
X738798Y440670D01*
X737336Y440246D01*
X735865Y439858D01*
X734384Y439506D01*
X732896Y439191D01*
X731400Y438913D01*
X729897Y438671D01*
X728389Y438466D01*
X726877Y438299D01*
X725361Y438168D01*
X723842Y438075D01*
X722322Y438019D01*
X720800Y438000D01*
X719278Y438019D01*
X717758Y438075D01*
X716239Y438168D01*
X714723Y438299D01*
X713211Y438466D01*
X711703Y438671D01*
X710200Y438913D01*
X708704Y439191D01*
X707216Y439506D01*
X705735Y439858D01*
X704264Y440246D01*
X702802Y440670D01*
X701352Y441129D01*
X699913Y441624D01*
X698487Y442154D01*
X697074Y442719D01*
X695675Y443319D01*
X694292Y443953D01*
X692924Y444620D01*
X691573Y445321D01*
X690240Y446055D01*
X688926Y446821D01*
X687630Y447619D01*
X686355Y448449D01*
X685100Y449310D01*
X683867Y450201D01*
X682656Y451123D01*
X681468Y452073D01*
X680303Y453053D01*
X679163Y454061D01*
X678048Y455097D01*
X676959Y456159D01*
X675897Y457248D01*
X674861Y458363D01*
X673853Y459503D01*
X672873Y460668D01*
X671923Y461856D01*
X671001Y463067D01*
X670110Y464300D01*
X669249Y465555D01*
X668419Y466830D01*
X667621Y468126D01*
X666855Y469440D01*
X666121Y470773D01*
X665420Y472124D01*
X664753Y473492D01*
X664119Y474875D01*
X663519Y476274D01*
X662954Y477687D01*
X662424Y479113D01*
X661929Y480552D01*
X661470Y482002D01*
X661046Y483464D01*
X660658Y484935D01*
X660306Y486416D01*
X659991Y487904D01*
X659713Y489400D01*
X659471Y490903D01*
X659266Y492411D01*
X659099Y493923D01*
X658968Y495439D01*
X658875Y496958D01*
X658819Y498478D01*
X658800Y500000D01*
X698300Y500000D02*
X698307Y500552D01*
X698327Y501104D01*
X698361Y501655D01*
X698408Y502205D01*
X698469Y502754D01*
X698544Y503301D01*
X698631Y503847D01*
X698732Y504390D01*
X698847Y504930D01*
X698974Y505467D01*
X699115Y506001D01*
X699269Y506531D01*
X699436Y507058D01*
X699615Y507580D01*
X699808Y508098D01*
X700013Y508610D01*
X700230Y509118D01*
X700460Y509620D01*
X700702Y510116D01*
X700957Y510606D01*
X701223Y511090D01*
X701501Y511567D01*
X701791Y512037D01*
X702092Y512500D01*
X702404Y512956D01*
X702728Y513403D01*
X703062Y513843D01*
X703407Y514274D01*
X703763Y514696D01*
X704129Y515110D01*
X704504Y515515D01*
X704890Y515910D01*
X705285Y516296D01*
X705690Y516671D01*
X706104Y517037D01*
X706526Y517393D01*
X706957Y517738D01*
X707397Y518072D01*
X707844Y518396D01*
X708300Y518708D01*
X708763Y519009D01*
X709233Y519299D01*
X709710Y519577D01*
X710194Y519843D01*
X710684Y520098D01*
X711180Y520340D01*
X711682Y520570D01*
X712190Y520787D01*
X712702Y520992D01*
X713220Y521185D01*
X713742Y521364D01*
X714269Y521531D01*
X714799Y521685D01*
X715333Y521826D01*
X715870Y521953D01*
X716410Y522068D01*
X716953Y522169D01*
X717499Y522256D01*
X718046Y522331D01*
X718595Y522392D01*
X719145Y522439D01*
X719696Y522473D01*
X720248Y522493D01*
X720800Y522500D01*
X721352Y522493D01*
X721904Y522473D01*
X722455Y522439D01*
X723005Y522392D01*
X723554Y522331D01*
X724101Y522256D01*
X724647Y522169D01*
X725190Y522068D01*
X725730Y521953D01*
X726267Y521826D01*
X726801Y521685D01*
X727331Y521531D01*
X727858Y521364D01*
X728380Y521185D01*
X728898Y520992D01*
X729410Y520787D01*
X729918Y520570D01*
X730420Y520340D01*
X730916Y520098D01*
X731406Y519843D01*
X731890Y519577D01*
X732367Y519299D01*
X732837Y519009D01*
X733300Y518708D01*
X733756Y518396D01*
X734203Y518072D01*
X734643Y517738D01*
X735074Y517393D01*
X735496Y517037D01*
X735910Y516671D01*
X736315Y516296D01*
X736710Y515910D01*
X737096Y515515D01*
X737471Y515110D01*
X737837Y514696D01*
X738193Y514274D01*
X738538Y513843D01*
X738872Y513403D01*
X739196Y512956D01*
X739508Y512500D01*
X739809Y512037D01*
X740099Y511567D01*
X740377Y511090D01*
X740643Y510606D01*
X740898Y510116D01*
X741140Y509620D01*
X741370Y509118D01*
X741587Y508610D01*
X741792Y508098D01*
X741985Y507580D01*
X742164Y507058D01*
X742331Y506531D01*
X742485Y506001D01*
X742626Y505467D01*
X742753Y504930D01*
X742868Y504390D01*
X742969Y503847D01*
X743056Y503301D01*
X743131Y502754D01*
X743192Y502205D01*
X743239Y501655D01*
X743273Y501104D01*
X743293Y500552D01*
X743300Y500000D01*
X743293Y499448D01*
X743273Y498896D01*
X743239Y498345D01*
X743192Y497795D01*
X743131Y497246D01*
X743056Y496699D01*
X742969Y496153D01*
X742868Y495610D01*
X742753Y495070D01*
X742626Y494533D01*
X742485Y493999D01*
X742331Y493469D01*
X742164Y492942D01*
X741985Y492420D01*
X741792Y491902D01*
X741587Y491390D01*
X741370Y490882D01*
X741140Y490380D01*
X740898Y489884D01*
X740643Y489394D01*
X740377Y488910D01*
X740099Y488433D01*
X739809Y487963D01*
X739508Y487500D01*
X739196Y487044D01*
X738872Y486597D01*
X738538Y486157D01*
X738193Y485726D01*
X737837Y485304D01*
X737471Y484890D01*
X737096Y484485D01*
X736710Y484090D01*
X736315Y483704D01*
X735910Y483329D01*
X735496Y482963D01*
X735074Y482607D01*
X734643Y482262D01*
X734203Y481928D01*
X733756Y481604D01*
X733300Y481292D01*
X732837Y480991D01*
X732367Y480701D01*
X731890Y480423D01*
X731406Y480157D01*
X730916Y479902D01*
X730420Y479660D01*
X729918Y479430D01*
X729410Y479213D01*
X728898Y479008D01*
X728380Y478815D01*
X727858Y478636D01*
X727331Y478469D01*
X726801Y478315D01*
X726267Y478174D01*
X725730Y478047D01*
X725190Y477932D01*
X724647Y477831D01*
X724101Y477744D01*
X723554Y477669D01*
X723005Y477608D01*
X722455Y477561D01*
X721904Y477527D01*
X721352Y477507D01*
X720800Y477500D01*
X720248Y477507D01*
X719696Y477527D01*
X719145Y477561D01*
X718595Y477608D01*
X718046Y477669D01*
X717499Y477744D01*
X716953Y477831D01*
X716410Y477932D01*
X715870Y478047D01*
X715333Y478174D01*
X714799Y478315D01*
X714269Y478469D01*
X713742Y478636D01*
X713220Y478815D01*
X712702Y479008D01*
X712190Y479213D01*
X711682Y479430D01*
X711180Y479660D01*
X710684Y479902D01*
X710194Y480157D01*
X709710Y480423D01*
X709233Y480701D01*
X708763Y480991D01*
X708300Y481292D01*
X707844Y481604D01*
X707397Y481928D01*
X706957Y482262D01*
X706526Y482607D01*
X706104Y482963D01*
X705690Y483329D01*
X705285Y483704D01*
X704890Y484090D01*
X704504Y484485D01*
X704129Y484890D01*
X703763Y485304D01*
X703407Y485726D01*
X703062Y486157D01*
X702728Y486597D01*
X702404Y487044D01*
X702092Y487500D01*
X701791Y487963D01*
X701501Y488433D01*
X701223Y488910D01*
X700957Y489394D01*
X700702Y489884D01*
X700460Y490380D01*
X700230Y490882D01*
X700013Y491390D01*
X699808Y491902D01*
X699615Y492420D01*
X699436Y492942D01*
X699269Y493469D01*
X699115Y493999D01*
X698974Y494533D01*
X698847Y495070D01*
X698732Y495610D01*
X698631Y496153D01*
X698544Y496699D01*
X698469Y497246D01*
X698408Y497795D01*
X698361Y498345D01*
X698327Y498896D01*
X698307Y499448D01*
X698300Y500000D01*
X700800Y501600D02*
X740800Y501600D01*
D15*
X780800Y440000D02*
X660800Y440000D01*
D13*
X751292Y535308D02*
X751292Y546992D01*
X746099Y546992D01*
X746099Y541799D02*
X751292Y541799D01*
X740830Y546992D02*
X740830Y535308D01*
X742128Y535308D02*
X739532Y535308D01*
X739532Y546992D02*
X742128Y546992D01*
X734528Y546992D02*
X734528Y535308D01*
X729335Y535308D01*
X722542Y535308D02*
X722542Y546992D01*
X719297Y546992D02*
X725788Y546992D01*
X714716Y535308D02*
X709523Y535308D01*
X714716Y535308D02*
X714716Y546992D01*
X709523Y546992D01*
X710821Y541799D02*
X714716Y541799D01*
X704759Y546992D02*
X704759Y535308D01*
X704759Y546992D02*
X701513Y546992D01*
X701400Y546990D01*
X701287Y546984D01*
X701174Y546974D01*
X701061Y546960D01*
X700949Y546943D01*
X700838Y546921D01*
X700728Y546896D01*
X700618Y546866D01*
X700510Y546833D01*
X700403Y546796D01*
X700297Y546756D01*
X700193Y546711D01*
X700090Y546663D01*
X699989Y546612D01*
X699890Y546557D01*
X699793Y546499D01*
X699698Y546437D01*
X699605Y546372D01*
X699515Y546304D01*
X699427Y546233D01*
X699341Y546158D01*
X699258Y546081D01*
X699178Y546001D01*
X699101Y545918D01*
X699026Y545832D01*
X698955Y545744D01*
X698887Y545654D01*
X698822Y545561D01*
X698760Y545466D01*
X698702Y545369D01*
X698647Y545270D01*
X698596Y545169D01*
X698548Y545066D01*
X698503Y544962D01*
X698463Y544856D01*
X698426Y544749D01*
X698393Y544641D01*
X698363Y544531D01*
X698338Y544421D01*
X698316Y544310D01*
X698299Y544198D01*
X698285Y544085D01*
X698275Y543972D01*
X698269Y543859D01*
X698267Y543746D01*
X698269Y543633D01*
X698275Y543520D01*
X698285Y543407D01*
X698299Y543294D01*
X698316Y543182D01*
X698338Y543071D01*
X698363Y542961D01*
X698393Y542851D01*
X698426Y542743D01*
X698463Y542636D01*
X698503Y542530D01*
X698548Y542426D01*
X698596Y542323D01*
X698647Y542222D01*
X698702Y542123D01*
X698760Y542026D01*
X698822Y541931D01*
X698887Y541838D01*
X698955Y541748D01*
X699026Y541660D01*
X699101Y541574D01*
X699178Y541491D01*
X699258Y541411D01*
X699341Y541334D01*
X699427Y541259D01*
X699515Y541188D01*
X699605Y541120D01*
X699698Y541055D01*
X699793Y540993D01*
X699890Y540935D01*
X699989Y540880D01*
X700090Y540829D01*
X700193Y540781D01*
X700297Y540736D01*
X700403Y540696D01*
X700510Y540659D01*
X700618Y540626D01*
X700728Y540596D01*
X700838Y540571D01*
X700949Y540549D01*
X701061Y540532D01*
X701174Y540518D01*
X701287Y540508D01*
X701400Y540502D01*
X701513Y540500D01*
X701513Y540501D02*
X704759Y540501D01*
X700864Y540501D02*
X698268Y535308D01*
X307712Y945508D02*
X296028Y945508D01*
X307712Y945508D02*
X307712Y948754D01*
X307710Y948867D01*
X307704Y948980D01*
X307694Y949093D01*
X307680Y949206D01*
X307663Y949318D01*
X307641Y949429D01*
X307616Y949539D01*
X307586Y949649D01*
X307553Y949757D01*
X307516Y949864D01*
X307476Y949970D01*
X307431Y950074D01*
X307383Y950177D01*
X307332Y950278D01*
X307277Y950377D01*
X307219Y950474D01*
X307157Y950569D01*
X307092Y950662D01*
X307024Y950752D01*
X306953Y950840D01*
X306878Y950926D01*
X306801Y951009D01*
X306721Y951089D01*
X306638Y951166D01*
X306552Y951241D01*
X306464Y951312D01*
X306374Y951380D01*
X306281Y951445D01*
X306186Y951507D01*
X306089Y951565D01*
X305990Y951620D01*
X305889Y951671D01*
X305786Y951719D01*
X305682Y951764D01*
X305576Y951804D01*
X305469Y951841D01*
X305361Y951874D01*
X305251Y951904D01*
X305141Y951929D01*
X305030Y951951D01*
X304918Y951968D01*
X304805Y951982D01*
X304692Y951992D01*
X304579Y951998D01*
X304466Y952000D01*
X304353Y951998D01*
X304240Y951992D01*
X304127Y951982D01*
X304014Y951968D01*
X303902Y951951D01*
X303791Y951929D01*
X303681Y951904D01*
X303571Y951874D01*
X303463Y951841D01*
X303356Y951804D01*
X303250Y951764D01*
X303146Y951719D01*
X303043Y951671D01*
X302942Y951620D01*
X302843Y951565D01*
X302746Y951507D01*
X302651Y951445D01*
X302558Y951380D01*
X302468Y951312D01*
X302380Y951241D01*
X302294Y951166D01*
X302211Y951089D01*
X302131Y951009D01*
X302054Y950926D01*
X301979Y950840D01*
X301908Y950752D01*
X301840Y950662D01*
X301775Y950569D01*
X301713Y950474D01*
X301655Y950377D01*
X301600Y950278D01*
X301549Y950177D01*
X301501Y950074D01*
X301456Y949970D01*
X301416Y949864D01*
X301379Y949757D01*
X301346Y949649D01*
X301316Y949539D01*
X301291Y949429D01*
X301269Y949318D01*
X301252Y949206D01*
X301238Y949093D01*
X301228Y948980D01*
X301222Y948867D01*
X301220Y948754D01*
X301221Y948754D02*
X301221Y945508D01*
X296028Y955739D02*
X307712Y959633D01*
X296028Y963528D01*
X298949Y962554D02*
X298949Y956712D01*
X296028Y968199D02*
X307712Y968199D01*
X307712Y971444D01*
X307710Y971557D01*
X307704Y971670D01*
X307694Y971783D01*
X307680Y971896D01*
X307663Y972008D01*
X307641Y972119D01*
X307616Y972229D01*
X307586Y972339D01*
X307553Y972447D01*
X307516Y972554D01*
X307476Y972660D01*
X307431Y972764D01*
X307383Y972867D01*
X307332Y972968D01*
X307277Y973067D01*
X307219Y973164D01*
X307157Y973259D01*
X307092Y973352D01*
X307024Y973442D01*
X306953Y973530D01*
X306878Y973616D01*
X306801Y973699D01*
X306721Y973779D01*
X306638Y973856D01*
X306552Y973931D01*
X306464Y974002D01*
X306374Y974070D01*
X306281Y974135D01*
X306186Y974197D01*
X306089Y974255D01*
X305990Y974310D01*
X305889Y974361D01*
X305786Y974409D01*
X305682Y974454D01*
X305576Y974494D01*
X305469Y974531D01*
X305361Y974564D01*
X305251Y974594D01*
X305141Y974619D01*
X305030Y974641D01*
X304918Y974658D01*
X304805Y974672D01*
X304692Y974682D01*
X304579Y974688D01*
X304466Y974690D01*
X299274Y974690D01*
X299161Y974688D01*
X299048Y974682D01*
X298935Y974672D01*
X298822Y974658D01*
X298710Y974641D01*
X298599Y974619D01*
X298489Y974594D01*
X298379Y974564D01*
X298271Y974531D01*
X298164Y974494D01*
X298058Y974454D01*
X297954Y974409D01*
X297851Y974361D01*
X297750Y974310D01*
X297651Y974255D01*
X297554Y974197D01*
X297459Y974135D01*
X297366Y974070D01*
X297276Y974002D01*
X297188Y973931D01*
X297102Y973856D01*
X297019Y973779D01*
X296939Y973699D01*
X296862Y973616D01*
X296787Y973530D01*
X296716Y973442D01*
X296648Y973352D01*
X296583Y973259D01*
X296521Y973164D01*
X296463Y973067D01*
X296408Y972968D01*
X296357Y972867D01*
X296309Y972764D01*
X296264Y972660D01*
X296224Y972554D01*
X296187Y972447D01*
X296154Y972339D01*
X296124Y972229D01*
X296099Y972119D01*
X296077Y972008D01*
X296060Y971896D01*
X296046Y971783D01*
X296036Y971670D01*
X296030Y971557D01*
X296028Y971444D01*
X296028Y968199D01*
X305116Y980010D02*
X307712Y983255D01*
X296028Y983255D01*
X296028Y980010D02*
X296028Y986501D01*
X489508Y7258D02*
X501192Y7258D01*
X501192Y10504D01*
X501190Y10617D01*
X501184Y10730D01*
X501174Y10843D01*
X501160Y10956D01*
X501143Y11068D01*
X501121Y11179D01*
X501096Y11289D01*
X501066Y11399D01*
X501033Y11507D01*
X500996Y11614D01*
X500956Y11720D01*
X500911Y11824D01*
X500863Y11927D01*
X500812Y12028D01*
X500757Y12127D01*
X500699Y12224D01*
X500637Y12319D01*
X500572Y12412D01*
X500504Y12502D01*
X500433Y12590D01*
X500358Y12676D01*
X500281Y12759D01*
X500201Y12839D01*
X500118Y12916D01*
X500032Y12991D01*
X499944Y13062D01*
X499854Y13130D01*
X499761Y13195D01*
X499666Y13257D01*
X499569Y13315D01*
X499470Y13370D01*
X499369Y13421D01*
X499266Y13469D01*
X499162Y13514D01*
X499056Y13554D01*
X498949Y13591D01*
X498841Y13624D01*
X498731Y13654D01*
X498621Y13679D01*
X498510Y13701D01*
X498398Y13718D01*
X498285Y13732D01*
X498172Y13742D01*
X498059Y13748D01*
X497946Y13750D01*
X497833Y13748D01*
X497720Y13742D01*
X497607Y13732D01*
X497494Y13718D01*
X497382Y13701D01*
X497271Y13679D01*
X497161Y13654D01*
X497051Y13624D01*
X496943Y13591D01*
X496836Y13554D01*
X496730Y13514D01*
X496626Y13469D01*
X496523Y13421D01*
X496422Y13370D01*
X496323Y13315D01*
X496226Y13257D01*
X496131Y13195D01*
X496038Y13130D01*
X495948Y13062D01*
X495860Y12991D01*
X495774Y12916D01*
X495691Y12839D01*
X495611Y12759D01*
X495534Y12676D01*
X495459Y12590D01*
X495388Y12502D01*
X495320Y12412D01*
X495255Y12319D01*
X495193Y12224D01*
X495135Y12127D01*
X495080Y12028D01*
X495029Y11927D01*
X494981Y11824D01*
X494936Y11720D01*
X494896Y11614D01*
X494859Y11507D01*
X494826Y11399D01*
X494796Y11289D01*
X494771Y11179D01*
X494749Y11068D01*
X494732Y10956D01*
X494718Y10843D01*
X494708Y10730D01*
X494702Y10617D01*
X494700Y10504D01*
X494701Y10504D02*
X494701Y7258D01*
X489508Y17489D02*
X501192Y21383D01*
X489508Y25278D01*
X492429Y24304D02*
X492429Y18462D01*
X489508Y29949D02*
X501192Y29949D01*
X501192Y33194D01*
X501190Y33307D01*
X501184Y33420D01*
X501174Y33533D01*
X501160Y33646D01*
X501143Y33758D01*
X501121Y33869D01*
X501096Y33979D01*
X501066Y34089D01*
X501033Y34197D01*
X500996Y34304D01*
X500956Y34410D01*
X500911Y34514D01*
X500863Y34617D01*
X500812Y34718D01*
X500757Y34817D01*
X500699Y34914D01*
X500637Y35009D01*
X500572Y35102D01*
X500504Y35192D01*
X500433Y35280D01*
X500358Y35366D01*
X500281Y35449D01*
X500201Y35529D01*
X500118Y35606D01*
X500032Y35681D01*
X499944Y35752D01*
X499854Y35820D01*
X499761Y35885D01*
X499666Y35947D01*
X499569Y36005D01*
X499470Y36060D01*
X499369Y36111D01*
X499266Y36159D01*
X499162Y36204D01*
X499056Y36244D01*
X498949Y36281D01*
X498841Y36314D01*
X498731Y36344D01*
X498621Y36369D01*
X498510Y36391D01*
X498398Y36408D01*
X498285Y36422D01*
X498172Y36432D01*
X498059Y36438D01*
X497946Y36440D01*
X492754Y36440D01*
X492641Y36438D01*
X492528Y36432D01*
X492415Y36422D01*
X492302Y36408D01*
X492190Y36391D01*
X492079Y36369D01*
X491969Y36344D01*
X491859Y36314D01*
X491751Y36281D01*
X491644Y36244D01*
X491538Y36204D01*
X491434Y36159D01*
X491331Y36111D01*
X491230Y36060D01*
X491131Y36005D01*
X491034Y35947D01*
X490939Y35885D01*
X490846Y35820D01*
X490756Y35752D01*
X490668Y35681D01*
X490582Y35606D01*
X490499Y35529D01*
X490419Y35449D01*
X490342Y35366D01*
X490267Y35280D01*
X490196Y35192D01*
X490128Y35102D01*
X490063Y35009D01*
X490001Y34914D01*
X489943Y34817D01*
X489888Y34718D01*
X489837Y34617D01*
X489789Y34514D01*
X489744Y34410D01*
X489704Y34304D01*
X489667Y34197D01*
X489634Y34089D01*
X489604Y33979D01*
X489579Y33869D01*
X489557Y33758D01*
X489540Y33646D01*
X489526Y33533D01*
X489516Y33420D01*
X489510Y33307D01*
X489508Y33194D01*
X489508Y29949D01*
X501192Y45330D02*
X501190Y45437D01*
X501184Y45543D01*
X501174Y45649D01*
X501161Y45755D01*
X501143Y45861D01*
X501122Y45965D01*
X501097Y46069D01*
X501068Y46172D01*
X501036Y46273D01*
X500999Y46373D01*
X500959Y46472D01*
X500916Y46570D01*
X500869Y46666D01*
X500818Y46760D01*
X500764Y46852D01*
X500707Y46942D01*
X500647Y47030D01*
X500583Y47115D01*
X500516Y47198D01*
X500446Y47279D01*
X500374Y47357D01*
X500298Y47433D01*
X500220Y47505D01*
X500139Y47575D01*
X500056Y47642D01*
X499971Y47706D01*
X499883Y47766D01*
X499793Y47823D01*
X499701Y47877D01*
X499607Y47928D01*
X499511Y47975D01*
X499413Y48018D01*
X499314Y48058D01*
X499214Y48095D01*
X499113Y48127D01*
X499010Y48156D01*
X498906Y48181D01*
X498802Y48202D01*
X498696Y48220D01*
X498590Y48233D01*
X498484Y48243D01*
X498378Y48249D01*
X498271Y48251D01*
X501192Y45330D02*
X501190Y45209D01*
X501184Y45088D01*
X501174Y44968D01*
X501161Y44847D01*
X501143Y44728D01*
X501122Y44608D01*
X501097Y44490D01*
X501068Y44373D01*
X501035Y44256D01*
X500999Y44141D01*
X500958Y44027D01*
X500915Y43914D01*
X500867Y43802D01*
X500816Y43693D01*
X500761Y43585D01*
X500703Y43478D01*
X500642Y43374D01*
X500577Y43272D01*
X500509Y43172D01*
X500438Y43074D01*
X500364Y42978D01*
X500287Y42885D01*
X500206Y42795D01*
X500123Y42707D01*
X500037Y42622D01*
X499948Y42539D01*
X499857Y42460D01*
X499763Y42383D01*
X499667Y42310D01*
X499569Y42240D01*
X499468Y42173D01*
X499365Y42109D01*
X499260Y42049D01*
X499153Y41992D01*
X499045Y41938D01*
X498935Y41888D01*
X498823Y41842D01*
X498710Y41799D01*
X498595Y41760D01*
X495999Y47277D02*
X496076Y47356D01*
X496157Y47432D01*
X496240Y47505D01*
X496325Y47575D01*
X496413Y47642D01*
X496503Y47706D01*
X496595Y47766D01*
X496690Y47823D01*
X496786Y47877D01*
X496884Y47928D01*
X496984Y47975D01*
X497086Y48019D01*
X497189Y48059D01*
X497293Y48095D01*
X497399Y48127D01*
X497505Y48156D01*
X497613Y48181D01*
X497721Y48203D01*
X497831Y48220D01*
X497940Y48234D01*
X498050Y48243D01*
X498161Y48249D01*
X498271Y48251D01*
X495999Y47277D02*
X489508Y41760D01*
X489508Y48251D01*
D10*
X111100Y650000D02*
X109200Y650000D01*
X109200Y570000D02*
X189200Y570000D01*
X189200Y650000D01*
X114200Y595000D02*
X109200Y595000D01*
X114200Y595000D02*
X114200Y625000D01*
X109200Y625000D01*
X111100Y647940D02*
X111100Y650000D01*
X187300Y650000D02*
X187300Y647940D01*
X187300Y650000D02*
X189200Y650000D01*
X187300Y647940D02*
X111100Y647940D01*
X111100Y650000D02*
X187300Y650000D01*
X116180Y576820D02*
X109200Y570000D01*
X131420Y576820D02*
X141580Y576820D01*
X109200Y570000D02*
X109200Y595000D01*
X109200Y625000D01*
X109200Y650000D01*
X156820Y576820D02*
X166980Y576820D01*
X182220Y576820D02*
X189200Y570000D01*
X129642Y639050D02*
X125832Y642098D01*
X125832Y628382D01*
X129642Y628382D02*
X122022Y628382D01*
X144882Y638669D02*
X144884Y638784D01*
X144890Y638898D01*
X144899Y639012D01*
X144913Y639126D01*
X144930Y639239D01*
X144951Y639352D01*
X144975Y639464D01*
X145004Y639575D01*
X145036Y639685D01*
X145072Y639794D01*
X145111Y639901D01*
X145154Y640008D01*
X145201Y640112D01*
X145251Y640216D01*
X145304Y640317D01*
X145361Y640416D01*
X145421Y640514D01*
X145484Y640610D01*
X145550Y640703D01*
X145620Y640794D01*
X145692Y640883D01*
X145768Y640969D01*
X145846Y641053D01*
X145927Y641134D01*
X146011Y641212D01*
X146097Y641288D01*
X146186Y641360D01*
X146277Y641430D01*
X146370Y641496D01*
X146466Y641559D01*
X146564Y641619D01*
X146663Y641676D01*
X146764Y641729D01*
X146868Y641779D01*
X146972Y641826D01*
X147079Y641869D01*
X147186Y641908D01*
X147295Y641944D01*
X147405Y641976D01*
X147516Y642005D01*
X147628Y642029D01*
X147741Y642050D01*
X147854Y642067D01*
X147968Y642081D01*
X148082Y642090D01*
X148196Y642096D01*
X148311Y642098D01*
X148443Y642096D01*
X148575Y642090D01*
X148706Y642080D01*
X148837Y642066D01*
X148968Y642049D01*
X149098Y642027D01*
X149228Y642002D01*
X149356Y641972D01*
X149484Y641939D01*
X149610Y641902D01*
X149736Y641861D01*
X149860Y641817D01*
X149983Y641768D01*
X150104Y641717D01*
X150224Y641661D01*
X150342Y641602D01*
X150458Y641540D01*
X150572Y641474D01*
X150684Y641404D01*
X150794Y641331D01*
X150902Y641255D01*
X151007Y641176D01*
X151110Y641094D01*
X151211Y641009D01*
X151309Y640920D01*
X151404Y640829D01*
X151497Y640735D01*
X151586Y640638D01*
X151673Y640539D01*
X151757Y640437D01*
X151837Y640333D01*
X151915Y640226D01*
X151989Y640117D01*
X152060Y640006D01*
X152128Y639892D01*
X152192Y639777D01*
X152252Y639660D01*
X152310Y639541D01*
X152363Y639421D01*
X152413Y639299D01*
X152459Y639175D01*
X152502Y639050D01*
X146025Y636002D02*
X145940Y636086D01*
X145858Y636172D01*
X145778Y636261D01*
X145702Y636353D01*
X145628Y636446D01*
X145558Y636543D01*
X145490Y636641D01*
X145426Y636742D01*
X145366Y636845D01*
X145308Y636949D01*
X145254Y637055D01*
X145204Y637164D01*
X145157Y637273D01*
X145113Y637384D01*
X145074Y637497D01*
X145037Y637610D01*
X145005Y637725D01*
X144976Y637841D01*
X144951Y637958D01*
X144930Y638075D01*
X144913Y638193D01*
X144899Y638312D01*
X144890Y638431D01*
X144884Y638550D01*
X144882Y638669D01*
X146025Y636002D02*
X152502Y628382D01*
X144882Y628382D01*
X174092Y628382D02*
X177902Y628382D01*
X174092Y628382D02*
X173970Y628384D01*
X173848Y628390D01*
X173726Y628400D01*
X173605Y628413D01*
X173484Y628431D01*
X173364Y628452D01*
X173244Y628478D01*
X173126Y628507D01*
X173008Y628539D01*
X172891Y628576D01*
X172776Y628616D01*
X172662Y628660D01*
X172550Y628708D01*
X172439Y628759D01*
X172330Y628814D01*
X172222Y628872D01*
X172117Y628934D01*
X172014Y628999D01*
X171912Y629067D01*
X171813Y629139D01*
X171717Y629213D01*
X171622Y629291D01*
X171531Y629372D01*
X171441Y629455D01*
X171355Y629541D01*
X171272Y629631D01*
X171191Y629722D01*
X171113Y629817D01*
X171039Y629913D01*
X170967Y630012D01*
X170899Y630114D01*
X170834Y630217D01*
X170772Y630322D01*
X170714Y630430D01*
X170659Y630539D01*
X170608Y630650D01*
X170560Y630762D01*
X170516Y630876D01*
X170476Y630991D01*
X170439Y631108D01*
X170407Y631226D01*
X170378Y631344D01*
X170352Y631464D01*
X170331Y631584D01*
X170313Y631705D01*
X170300Y631826D01*
X170290Y631948D01*
X170284Y632070D01*
X170282Y632192D01*
X170284Y632314D01*
X170290Y632436D01*
X170300Y632558D01*
X170313Y632679D01*
X170331Y632800D01*
X170352Y632920D01*
X170378Y633040D01*
X170407Y633158D01*
X170439Y633276D01*
X170476Y633393D01*
X170516Y633508D01*
X170560Y633622D01*
X170608Y633734D01*
X170659Y633845D01*
X170714Y633954D01*
X170772Y634062D01*
X170834Y634167D01*
X170899Y634270D01*
X170967Y634372D01*
X171039Y634471D01*
X171113Y634567D01*
X171191Y634662D01*
X171272Y634753D01*
X171355Y634843D01*
X171441Y634929D01*
X171531Y635012D01*
X171622Y635093D01*
X171717Y635171D01*
X171813Y635245D01*
X171912Y635317D01*
X172014Y635385D01*
X172117Y635450D01*
X172222Y635512D01*
X172330Y635570D01*
X172439Y635625D01*
X172550Y635676D01*
X172662Y635724D01*
X172776Y635768D01*
X172891Y635808D01*
X173008Y635845D01*
X173126Y635877D01*
X173244Y635906D01*
X173364Y635932D01*
X173484Y635953D01*
X173605Y635971D01*
X173726Y635984D01*
X173848Y635994D01*
X173970Y636000D01*
X174092Y636002D01*
X173330Y642098D02*
X177902Y642098D01*
X173330Y642098D02*
X173221Y642096D01*
X173113Y642090D01*
X173004Y642081D01*
X172896Y642067D01*
X172789Y642050D01*
X172682Y642028D01*
X172576Y642003D01*
X172471Y641975D01*
X172367Y641942D01*
X172265Y641906D01*
X172164Y641866D01*
X172064Y641823D01*
X171966Y641776D01*
X171869Y641725D01*
X171775Y641671D01*
X171682Y641614D01*
X171592Y641554D01*
X171503Y641490D01*
X171417Y641423D01*
X171334Y641354D01*
X171253Y641281D01*
X171175Y641205D01*
X171099Y641127D01*
X171026Y641046D01*
X170957Y640963D01*
X170890Y640877D01*
X170826Y640788D01*
X170766Y640698D01*
X170709Y640605D01*
X170655Y640511D01*
X170604Y640414D01*
X170557Y640316D01*
X170514Y640216D01*
X170474Y640115D01*
X170438Y640013D01*
X170405Y639909D01*
X170377Y639804D01*
X170352Y639698D01*
X170330Y639591D01*
X170313Y639484D01*
X170299Y639376D01*
X170290Y639267D01*
X170284Y639159D01*
X170282Y639050D01*
X170284Y638941D01*
X170290Y638833D01*
X170299Y638724D01*
X170313Y638616D01*
X170330Y638509D01*
X170352Y638402D01*
X170377Y638296D01*
X170405Y638191D01*
X170438Y638087D01*
X170474Y637985D01*
X170514Y637884D01*
X170557Y637784D01*
X170604Y637686D01*
X170655Y637589D01*
X170709Y637495D01*
X170766Y637402D01*
X170826Y637312D01*
X170890Y637223D01*
X170957Y637137D01*
X171026Y637054D01*
X171099Y636973D01*
X171175Y636895D01*
X171253Y636819D01*
X171334Y636746D01*
X171417Y636677D01*
X171503Y636610D01*
X171592Y636546D01*
X171682Y636486D01*
X171775Y636429D01*
X171869Y636375D01*
X171966Y636324D01*
X172064Y636277D01*
X172164Y636234D01*
X172265Y636194D01*
X172367Y636158D01*
X172471Y636125D01*
X172576Y636097D01*
X172682Y636072D01*
X172789Y636050D01*
X172896Y636033D01*
X173004Y636019D01*
X173113Y636010D01*
X173221Y636004D01*
X173330Y636002D01*
X176378Y636002D01*
D11*
X194285Y564120D02*
X194285Y559040D01*
X194285Y564120D02*
X194283Y564231D01*
X194277Y564341D01*
X194268Y564452D01*
X194254Y564562D01*
X194237Y564671D01*
X194216Y564780D01*
X194191Y564888D01*
X194162Y564995D01*
X194130Y565101D01*
X194094Y565206D01*
X194054Y565309D01*
X194011Y565411D01*
X193964Y565512D01*
X193913Y565611D01*
X193860Y565708D01*
X193803Y565802D01*
X193742Y565895D01*
X193679Y565986D01*
X193612Y566075D01*
X193542Y566161D01*
X193469Y566244D01*
X193394Y566326D01*
X193316Y566404D01*
X193234Y566479D01*
X193151Y566552D01*
X193065Y566622D01*
X192976Y566689D01*
X192885Y566752D01*
X192792Y566813D01*
X192698Y566870D01*
X192601Y566923D01*
X192502Y566974D01*
X192401Y567021D01*
X192299Y567064D01*
X192196Y567104D01*
X192091Y567140D01*
X191985Y567172D01*
X191878Y567201D01*
X191770Y567226D01*
X191661Y567247D01*
X191552Y567264D01*
X191442Y567278D01*
X191331Y567287D01*
X191221Y567293D01*
X191110Y567295D01*
X190999Y567293D01*
X190889Y567287D01*
X190778Y567278D01*
X190668Y567264D01*
X190559Y567247D01*
X190450Y567226D01*
X190342Y567201D01*
X190235Y567172D01*
X190129Y567140D01*
X190024Y567104D01*
X189921Y567064D01*
X189819Y567021D01*
X189718Y566974D01*
X189619Y566923D01*
X189523Y566870D01*
X189428Y566813D01*
X189335Y566752D01*
X189244Y566689D01*
X189155Y566622D01*
X189069Y566552D01*
X188986Y566479D01*
X188904Y566404D01*
X188826Y566326D01*
X188751Y566244D01*
X188678Y566161D01*
X188608Y566075D01*
X188541Y565986D01*
X188478Y565895D01*
X188417Y565802D01*
X188360Y565708D01*
X188307Y565611D01*
X188256Y565512D01*
X188209Y565411D01*
X188166Y565309D01*
X188126Y565206D01*
X188090Y565101D01*
X188058Y564995D01*
X188029Y564888D01*
X188004Y564780D01*
X187983Y564671D01*
X187966Y564562D01*
X187952Y564452D01*
X187943Y564341D01*
X187937Y564231D01*
X187935Y564120D01*
X187935Y559040D01*
X187937Y558929D01*
X187943Y558819D01*
X187952Y558708D01*
X187966Y558598D01*
X187983Y558489D01*
X188004Y558380D01*
X188029Y558272D01*
X188058Y558165D01*
X188090Y558059D01*
X188126Y557954D01*
X188166Y557851D01*
X188209Y557749D01*
X188256Y557648D01*
X188307Y557549D01*
X188360Y557453D01*
X188417Y557358D01*
X188478Y557265D01*
X188541Y557174D01*
X188608Y557085D01*
X188678Y556999D01*
X188751Y556916D01*
X188826Y556834D01*
X188904Y556756D01*
X188986Y556681D01*
X189069Y556608D01*
X189155Y556538D01*
X189244Y556471D01*
X189335Y556408D01*
X189428Y556347D01*
X189523Y556290D01*
X189619Y556237D01*
X189718Y556186D01*
X189819Y556139D01*
X189921Y556096D01*
X190024Y556056D01*
X190129Y556020D01*
X190235Y555988D01*
X190342Y555959D01*
X190450Y555934D01*
X190559Y555913D01*
X190668Y555896D01*
X190778Y555882D01*
X190889Y555873D01*
X190999Y555867D01*
X191110Y555865D01*
X191221Y555867D01*
X191331Y555873D01*
X191442Y555882D01*
X191552Y555896D01*
X191661Y555913D01*
X191770Y555934D01*
X191878Y555959D01*
X191985Y555988D01*
X192091Y556020D01*
X192196Y556056D01*
X192299Y556096D01*
X192401Y556139D01*
X192502Y556186D01*
X192601Y556237D01*
X192697Y556290D01*
X192792Y556347D01*
X192885Y556408D01*
X192976Y556471D01*
X193065Y556538D01*
X193151Y556608D01*
X193234Y556681D01*
X193316Y556756D01*
X193394Y556834D01*
X193469Y556916D01*
X193542Y556999D01*
X193612Y557085D01*
X193679Y557174D01*
X193742Y557265D01*
X193803Y557358D01*
X193860Y557453D01*
X193913Y557549D01*
X193964Y557648D01*
X194011Y557749D01*
X194054Y557851D01*
X194094Y557954D01*
X194130Y558059D01*
X194162Y558165D01*
X194191Y558272D01*
X194216Y558380D01*
X194237Y558489D01*
X194254Y558598D01*
X194268Y558708D01*
X194277Y558819D01*
X194283Y558929D01*
X194285Y559040D01*
X182474Y555865D02*
X182474Y567295D01*
X179299Y567295D01*
X179188Y567293D01*
X179078Y567287D01*
X178967Y567278D01*
X178857Y567264D01*
X178748Y567247D01*
X178639Y567226D01*
X178531Y567201D01*
X178424Y567172D01*
X178318Y567140D01*
X178213Y567104D01*
X178110Y567064D01*
X178008Y567021D01*
X177907Y566974D01*
X177808Y566923D01*
X177712Y566870D01*
X177617Y566813D01*
X177524Y566752D01*
X177433Y566689D01*
X177344Y566622D01*
X177258Y566552D01*
X177175Y566479D01*
X177093Y566404D01*
X177015Y566326D01*
X176940Y566244D01*
X176867Y566161D01*
X176797Y566075D01*
X176730Y565986D01*
X176667Y565895D01*
X176606Y565802D01*
X176549Y565708D01*
X176496Y565611D01*
X176445Y565512D01*
X176398Y565411D01*
X176355Y565309D01*
X176315Y565206D01*
X176279Y565101D01*
X176247Y564995D01*
X176218Y564888D01*
X176193Y564780D01*
X176172Y564671D01*
X176155Y564562D01*
X176141Y564452D01*
X176132Y564341D01*
X176126Y564231D01*
X176124Y564120D01*
X176124Y559040D01*
X176126Y558929D01*
X176132Y558819D01*
X176141Y558708D01*
X176155Y558598D01*
X176172Y558489D01*
X176193Y558380D01*
X176218Y558272D01*
X176247Y558165D01*
X176279Y558059D01*
X176315Y557954D01*
X176355Y557851D01*
X176398Y557749D01*
X176445Y557648D01*
X176496Y557549D01*
X176549Y557453D01*
X176606Y557358D01*
X176667Y557265D01*
X176730Y557174D01*
X176797Y557085D01*
X176867Y556999D01*
X176940Y556916D01*
X177015Y556834D01*
X177093Y556756D01*
X177175Y556681D01*
X177258Y556608D01*
X177344Y556538D01*
X177433Y556471D01*
X177524Y556408D01*
X177617Y556347D01*
X177712Y556290D01*
X177808Y556237D01*
X177907Y556186D01*
X178008Y556139D01*
X178110Y556096D01*
X178213Y556056D01*
X178318Y556020D01*
X178424Y555988D01*
X178531Y555959D01*
X178639Y555934D01*
X178748Y555913D01*
X178857Y555896D01*
X178967Y555882D01*
X179078Y555873D01*
X179188Y555867D01*
X179299Y555865D01*
X182474Y555865D01*
X171171Y554595D02*
X166091Y554595D01*
X161113Y555865D02*
X161113Y567295D01*
X161113Y555865D02*
X156033Y555865D01*
X151207Y555865D02*
X146127Y555865D01*
X151207Y555865D02*
X151207Y567295D01*
X146127Y567295D01*
X147397Y562215D02*
X151207Y562215D01*
X142342Y567295D02*
X138532Y555865D01*
X134722Y567295D01*
X129871Y555865D02*
X124791Y555865D01*
X129871Y555865D02*
X129871Y567295D01*
X124791Y567295D01*
X126061Y562215D02*
X129871Y562215D01*
X119965Y567295D02*
X119965Y555865D01*
X114885Y555865D01*
X110465Y564755D02*
X107290Y567295D01*
X107290Y555865D01*
X110465Y555865D02*
X104115Y555865D01*
D10*
X347300Y570000D02*
X349200Y570000D01*
X349200Y650000D02*
X269200Y650000D01*
X269200Y570000D01*
X344200Y625000D02*
X349200Y625000D01*
X344200Y625000D02*
X344200Y595000D01*
X349200Y595000D01*
X347300Y572060D02*
X347300Y570000D01*
X271100Y570000D02*
X271100Y572060D01*
X271100Y570000D02*
X269200Y570000D01*
X271100Y572060D02*
X347300Y572060D01*
X347300Y570000D02*
X271100Y570000D01*
X342220Y643180D02*
X349200Y650000D01*
X326980Y643180D02*
X316820Y643180D01*
X349200Y650000D02*
X349200Y625000D01*
X349200Y595000D01*
X349200Y570000D01*
X301580Y643180D02*
X291420Y643180D01*
X276180Y643180D02*
X269200Y650000D01*
X332568Y591618D02*
X336378Y588570D01*
X332568Y591618D02*
X332568Y577902D01*
X336378Y577902D02*
X328758Y577902D01*
X309327Y591618D02*
X309212Y591616D01*
X309098Y591610D01*
X308984Y591601D01*
X308870Y591587D01*
X308757Y591570D01*
X308644Y591549D01*
X308532Y591525D01*
X308421Y591496D01*
X308311Y591464D01*
X308202Y591428D01*
X308095Y591389D01*
X307988Y591346D01*
X307884Y591299D01*
X307780Y591249D01*
X307679Y591196D01*
X307580Y591139D01*
X307482Y591079D01*
X307386Y591016D01*
X307293Y590950D01*
X307202Y590880D01*
X307113Y590808D01*
X307027Y590732D01*
X306943Y590654D01*
X306862Y590573D01*
X306784Y590489D01*
X306708Y590403D01*
X306636Y590314D01*
X306566Y590223D01*
X306500Y590130D01*
X306437Y590034D01*
X306377Y589936D01*
X306320Y589837D01*
X306267Y589736D01*
X306217Y589632D01*
X306170Y589528D01*
X306127Y589421D01*
X306088Y589314D01*
X306052Y589205D01*
X306020Y589095D01*
X305991Y588984D01*
X305967Y588872D01*
X305946Y588759D01*
X305929Y588646D01*
X305915Y588532D01*
X305906Y588418D01*
X305900Y588304D01*
X305898Y588189D01*
X309327Y591618D02*
X309459Y591616D01*
X309591Y591610D01*
X309722Y591600D01*
X309853Y591586D01*
X309984Y591569D01*
X310114Y591547D01*
X310244Y591522D01*
X310372Y591492D01*
X310500Y591459D01*
X310626Y591422D01*
X310752Y591381D01*
X310876Y591337D01*
X310999Y591288D01*
X311120Y591237D01*
X311240Y591181D01*
X311358Y591122D01*
X311474Y591060D01*
X311588Y590994D01*
X311700Y590924D01*
X311810Y590851D01*
X311918Y590775D01*
X312023Y590696D01*
X312126Y590614D01*
X312227Y590529D01*
X312325Y590440D01*
X312420Y590349D01*
X312513Y590255D01*
X312602Y590158D01*
X312689Y590059D01*
X312773Y589957D01*
X312853Y589853D01*
X312931Y589746D01*
X313005Y589637D01*
X313076Y589526D01*
X313144Y589412D01*
X313208Y589297D01*
X313268Y589180D01*
X313326Y589061D01*
X313379Y588941D01*
X313429Y588819D01*
X313475Y588695D01*
X313518Y588570D01*
X307041Y585522D02*
X306956Y585606D01*
X306874Y585692D01*
X306794Y585781D01*
X306718Y585873D01*
X306644Y585966D01*
X306574Y586063D01*
X306506Y586161D01*
X306442Y586262D01*
X306382Y586365D01*
X306324Y586469D01*
X306270Y586575D01*
X306220Y586684D01*
X306173Y586793D01*
X306129Y586904D01*
X306090Y587017D01*
X306053Y587130D01*
X306021Y587245D01*
X305992Y587361D01*
X305967Y587478D01*
X305946Y587595D01*
X305929Y587713D01*
X305915Y587832D01*
X305906Y587951D01*
X305900Y588070D01*
X305898Y588189D01*
X307041Y585522D02*
X313518Y577902D01*
X305898Y577902D01*
X288118Y577902D02*
X284308Y577902D01*
X284186Y577904D01*
X284064Y577910D01*
X283942Y577920D01*
X283821Y577933D01*
X283700Y577951D01*
X283580Y577972D01*
X283460Y577998D01*
X283342Y578027D01*
X283224Y578059D01*
X283107Y578096D01*
X282992Y578136D01*
X282878Y578180D01*
X282766Y578228D01*
X282655Y578279D01*
X282546Y578334D01*
X282438Y578392D01*
X282333Y578454D01*
X282230Y578519D01*
X282128Y578587D01*
X282029Y578659D01*
X281933Y578733D01*
X281838Y578811D01*
X281747Y578892D01*
X281657Y578975D01*
X281571Y579061D01*
X281488Y579151D01*
X281407Y579242D01*
X281329Y579337D01*
X281255Y579433D01*
X281183Y579532D01*
X281115Y579634D01*
X281050Y579737D01*
X280988Y579842D01*
X280930Y579950D01*
X280875Y580059D01*
X280824Y580170D01*
X280776Y580282D01*
X280732Y580396D01*
X280692Y580511D01*
X280655Y580628D01*
X280623Y580746D01*
X280594Y580864D01*
X280568Y580984D01*
X280547Y581104D01*
X280529Y581225D01*
X280516Y581346D01*
X280506Y581468D01*
X280500Y581590D01*
X280498Y581712D01*
X280500Y581834D01*
X280506Y581956D01*
X280516Y582078D01*
X280529Y582199D01*
X280547Y582320D01*
X280568Y582440D01*
X280594Y582560D01*
X280623Y582678D01*
X280655Y582796D01*
X280692Y582913D01*
X280732Y583028D01*
X280776Y583142D01*
X280824Y583254D01*
X280875Y583365D01*
X280930Y583474D01*
X280988Y583582D01*
X281050Y583687D01*
X281115Y583790D01*
X281183Y583892D01*
X281255Y583991D01*
X281329Y584087D01*
X281407Y584182D01*
X281488Y584273D01*
X281571Y584363D01*
X281657Y584449D01*
X281747Y584532D01*
X281838Y584613D01*
X281933Y584691D01*
X282029Y584765D01*
X282128Y584837D01*
X282230Y584905D01*
X282333Y584970D01*
X282438Y585032D01*
X282546Y585090D01*
X282655Y585145D01*
X282766Y585196D01*
X282878Y585244D01*
X282992Y585288D01*
X283107Y585328D01*
X283224Y585365D01*
X283342Y585397D01*
X283460Y585426D01*
X283580Y585452D01*
X283700Y585473D01*
X283821Y585491D01*
X283942Y585504D01*
X284064Y585514D01*
X284186Y585520D01*
X284308Y585522D01*
X283546Y591618D02*
X288118Y591618D01*
X283546Y591618D02*
X283437Y591616D01*
X283329Y591610D01*
X283220Y591601D01*
X283112Y591587D01*
X283005Y591570D01*
X282898Y591548D01*
X282792Y591523D01*
X282687Y591495D01*
X282583Y591462D01*
X282481Y591426D01*
X282380Y591386D01*
X282280Y591343D01*
X282182Y591296D01*
X282085Y591245D01*
X281991Y591191D01*
X281898Y591134D01*
X281808Y591074D01*
X281719Y591010D01*
X281633Y590943D01*
X281550Y590874D01*
X281469Y590801D01*
X281391Y590725D01*
X281315Y590647D01*
X281242Y590566D01*
X281173Y590483D01*
X281106Y590397D01*
X281042Y590308D01*
X280982Y590218D01*
X280925Y590125D01*
X280871Y590031D01*
X280820Y589934D01*
X280773Y589836D01*
X280730Y589736D01*
X280690Y589635D01*
X280654Y589533D01*
X280621Y589429D01*
X280593Y589324D01*
X280568Y589218D01*
X280546Y589111D01*
X280529Y589004D01*
X280515Y588896D01*
X280506Y588787D01*
X280500Y588679D01*
X280498Y588570D01*
X280500Y588461D01*
X280506Y588353D01*
X280515Y588244D01*
X280529Y588136D01*
X280546Y588029D01*
X280568Y587922D01*
X280593Y587816D01*
X280621Y587711D01*
X280654Y587607D01*
X280690Y587505D01*
X280730Y587404D01*
X280773Y587304D01*
X280820Y587206D01*
X280871Y587109D01*
X280925Y587015D01*
X280982Y586922D01*
X281042Y586832D01*
X281106Y586743D01*
X281173Y586657D01*
X281242Y586574D01*
X281315Y586493D01*
X281391Y586415D01*
X281469Y586339D01*
X281550Y586266D01*
X281633Y586197D01*
X281719Y586130D01*
X281808Y586066D01*
X281898Y586006D01*
X281991Y585949D01*
X282085Y585895D01*
X282182Y585844D01*
X282280Y585797D01*
X282380Y585754D01*
X282481Y585714D01*
X282583Y585678D01*
X282687Y585645D01*
X282792Y585617D01*
X282898Y585592D01*
X283005Y585570D01*
X283112Y585553D01*
X283220Y585539D01*
X283329Y585530D01*
X283437Y585524D01*
X283546Y585522D01*
X286594Y585522D01*
D11*
X354285Y655880D02*
X354285Y660960D01*
X354283Y661071D01*
X354277Y661181D01*
X354268Y661292D01*
X354254Y661402D01*
X354237Y661511D01*
X354216Y661620D01*
X354191Y661728D01*
X354162Y661835D01*
X354130Y661941D01*
X354094Y662046D01*
X354054Y662149D01*
X354011Y662251D01*
X353964Y662352D01*
X353913Y662451D01*
X353860Y662548D01*
X353803Y662642D01*
X353742Y662735D01*
X353679Y662826D01*
X353612Y662915D01*
X353542Y663001D01*
X353469Y663084D01*
X353394Y663166D01*
X353316Y663244D01*
X353234Y663319D01*
X353151Y663392D01*
X353065Y663462D01*
X352976Y663529D01*
X352885Y663592D01*
X352792Y663653D01*
X352698Y663710D01*
X352601Y663763D01*
X352502Y663814D01*
X352401Y663861D01*
X352299Y663904D01*
X352196Y663944D01*
X352091Y663980D01*
X351985Y664012D01*
X351878Y664041D01*
X351770Y664066D01*
X351661Y664087D01*
X351552Y664104D01*
X351442Y664118D01*
X351331Y664127D01*
X351221Y664133D01*
X351110Y664135D01*
X350999Y664133D01*
X350889Y664127D01*
X350778Y664118D01*
X350668Y664104D01*
X350559Y664087D01*
X350450Y664066D01*
X350342Y664041D01*
X350235Y664012D01*
X350129Y663980D01*
X350024Y663944D01*
X349921Y663904D01*
X349819Y663861D01*
X349718Y663814D01*
X349619Y663763D01*
X349523Y663710D01*
X349428Y663653D01*
X349335Y663592D01*
X349244Y663529D01*
X349155Y663462D01*
X349069Y663392D01*
X348986Y663319D01*
X348904Y663244D01*
X348826Y663166D01*
X348751Y663084D01*
X348678Y663001D01*
X348608Y662915D01*
X348541Y662826D01*
X348478Y662735D01*
X348417Y662642D01*
X348360Y662548D01*
X348307Y662451D01*
X348256Y662352D01*
X348209Y662251D01*
X348166Y662149D01*
X348126Y662046D01*
X348090Y661941D01*
X348058Y661835D01*
X348029Y661728D01*
X348004Y661620D01*
X347983Y661511D01*
X347966Y661402D01*
X347952Y661292D01*
X347943Y661181D01*
X347937Y661071D01*
X347935Y660960D01*
X347935Y655880D01*
X347937Y655769D01*
X347943Y655659D01*
X347952Y655548D01*
X347966Y655438D01*
X347983Y655329D01*
X348004Y655220D01*
X348029Y655112D01*
X348058Y655005D01*
X348090Y654899D01*
X348126Y654794D01*
X348166Y654691D01*
X348209Y654589D01*
X348256Y654488D01*
X348307Y654389D01*
X348360Y654293D01*
X348417Y654198D01*
X348478Y654105D01*
X348541Y654014D01*
X348608Y653925D01*
X348678Y653839D01*
X348751Y653756D01*
X348826Y653674D01*
X348904Y653596D01*
X348986Y653521D01*
X349069Y653448D01*
X349155Y653378D01*
X349244Y653311D01*
X349335Y653248D01*
X349428Y653187D01*
X349523Y653130D01*
X349619Y653077D01*
X349718Y653026D01*
X349819Y652979D01*
X349921Y652936D01*
X350024Y652896D01*
X350129Y652860D01*
X350235Y652828D01*
X350342Y652799D01*
X350450Y652774D01*
X350559Y652753D01*
X350668Y652736D01*
X350778Y652722D01*
X350889Y652713D01*
X350999Y652707D01*
X351110Y652705D01*
X351221Y652707D01*
X351331Y652713D01*
X351442Y652722D01*
X351552Y652736D01*
X351661Y652753D01*
X351770Y652774D01*
X351878Y652799D01*
X351985Y652828D01*
X352091Y652860D01*
X352196Y652896D01*
X352299Y652936D01*
X352401Y652979D01*
X352502Y653026D01*
X352601Y653077D01*
X352697Y653130D01*
X352792Y653187D01*
X352885Y653248D01*
X352976Y653311D01*
X353065Y653378D01*
X353151Y653448D01*
X353234Y653521D01*
X353316Y653596D01*
X353394Y653674D01*
X353469Y653756D01*
X353542Y653839D01*
X353612Y653925D01*
X353679Y654014D01*
X353742Y654105D01*
X353803Y654198D01*
X353860Y654293D01*
X353913Y654389D01*
X353964Y654488D01*
X354011Y654589D01*
X354054Y654691D01*
X354094Y654794D01*
X354130Y654899D01*
X354162Y655005D01*
X354191Y655112D01*
X354216Y655220D01*
X354237Y655329D01*
X354254Y655438D01*
X354268Y655548D01*
X354277Y655659D01*
X354283Y655769D01*
X354285Y655880D01*
X342474Y652705D02*
X342474Y664135D01*
X339299Y664135D01*
X339188Y664133D01*
X339078Y664127D01*
X338967Y664118D01*
X338857Y664104D01*
X338748Y664087D01*
X338639Y664066D01*
X338531Y664041D01*
X338424Y664012D01*
X338318Y663980D01*
X338213Y663944D01*
X338110Y663904D01*
X338008Y663861D01*
X337907Y663814D01*
X337808Y663763D01*
X337712Y663710D01*
X337617Y663653D01*
X337524Y663592D01*
X337433Y663529D01*
X337344Y663462D01*
X337258Y663392D01*
X337175Y663319D01*
X337093Y663244D01*
X337015Y663166D01*
X336940Y663084D01*
X336867Y663001D01*
X336797Y662915D01*
X336730Y662826D01*
X336667Y662735D01*
X336606Y662642D01*
X336549Y662548D01*
X336496Y662451D01*
X336445Y662352D01*
X336398Y662251D01*
X336355Y662149D01*
X336315Y662046D01*
X336279Y661941D01*
X336247Y661835D01*
X336218Y661728D01*
X336193Y661620D01*
X336172Y661511D01*
X336155Y661402D01*
X336141Y661292D01*
X336132Y661181D01*
X336126Y661071D01*
X336124Y660960D01*
X336124Y655880D01*
X336126Y655769D01*
X336132Y655659D01*
X336141Y655548D01*
X336155Y655438D01*
X336172Y655329D01*
X336193Y655220D01*
X336218Y655112D01*
X336247Y655005D01*
X336279Y654899D01*
X336315Y654794D01*
X336355Y654691D01*
X336398Y654589D01*
X336445Y654488D01*
X336496Y654389D01*
X336549Y654293D01*
X336606Y654198D01*
X336667Y654105D01*
X336730Y654014D01*
X336797Y653925D01*
X336867Y653839D01*
X336940Y653756D01*
X337015Y653674D01*
X337093Y653596D01*
X337175Y653521D01*
X337258Y653448D01*
X337344Y653378D01*
X337433Y653311D01*
X337524Y653248D01*
X337617Y653187D01*
X337712Y653130D01*
X337808Y653077D01*
X337907Y653026D01*
X338008Y652979D01*
X338110Y652936D01*
X338213Y652896D01*
X338318Y652860D01*
X338424Y652828D01*
X338531Y652799D01*
X338639Y652774D01*
X338748Y652753D01*
X338857Y652736D01*
X338967Y652722D01*
X339078Y652713D01*
X339188Y652707D01*
X339299Y652705D01*
X342474Y652705D01*
X331171Y651435D02*
X326091Y651435D01*
X321113Y652705D02*
X321113Y664135D01*
X321113Y652705D02*
X316033Y652705D01*
X311207Y652705D02*
X306127Y652705D01*
X311207Y652705D02*
X311207Y664135D01*
X306127Y664135D01*
X307397Y659055D02*
X311207Y659055D01*
X302342Y664135D02*
X298532Y652705D01*
X294722Y664135D01*
X289871Y652705D02*
X284791Y652705D01*
X289871Y652705D02*
X289871Y664135D01*
X284791Y664135D01*
X286061Y659055D02*
X289871Y659055D01*
X279965Y664135D02*
X279965Y652705D01*
X274885Y652705D01*
X264115Y661278D02*
X264117Y661382D01*
X264123Y661487D01*
X264132Y661591D01*
X264145Y661694D01*
X264163Y661797D01*
X264183Y661899D01*
X264208Y662001D01*
X264236Y662101D01*
X264268Y662201D01*
X264304Y662299D01*
X264343Y662396D01*
X264385Y662491D01*
X264431Y662585D01*
X264481Y662677D01*
X264533Y662767D01*
X264589Y662855D01*
X264649Y662941D01*
X264711Y663025D01*
X264776Y663106D01*
X264844Y663185D01*
X264916Y663262D01*
X264989Y663335D01*
X265066Y663407D01*
X265145Y663475D01*
X265226Y663540D01*
X265310Y663602D01*
X265396Y663662D01*
X265484Y663718D01*
X265574Y663770D01*
X265666Y663820D01*
X265760Y663866D01*
X265855Y663908D01*
X265952Y663947D01*
X266050Y663983D01*
X266150Y664015D01*
X266250Y664043D01*
X266352Y664068D01*
X266454Y664088D01*
X266557Y664106D01*
X266660Y664119D01*
X266764Y664128D01*
X266869Y664134D01*
X266973Y664136D01*
X266973Y664135D02*
X267091Y664133D01*
X267210Y664127D01*
X267328Y664118D01*
X267445Y664105D01*
X267562Y664087D01*
X267679Y664067D01*
X267795Y664042D01*
X267910Y664014D01*
X268023Y663981D01*
X268136Y663946D01*
X268248Y663906D01*
X268358Y663864D01*
X268467Y663817D01*
X268575Y663767D01*
X268680Y663714D01*
X268784Y663657D01*
X268886Y663597D01*
X268986Y663534D01*
X269084Y663467D01*
X269180Y663398D01*
X269273Y663325D01*
X269364Y663249D01*
X269453Y663171D01*
X269539Y663089D01*
X269622Y663005D01*
X269703Y662919D01*
X269780Y662829D01*
X269855Y662738D01*
X269927Y662644D01*
X269996Y662547D01*
X270061Y662449D01*
X270124Y662348D01*
X270183Y662245D01*
X270239Y662141D01*
X270291Y662035D01*
X270340Y661927D01*
X270385Y661818D01*
X270427Y661707D01*
X270465Y661595D01*
X265067Y659056D02*
X264991Y659131D01*
X264916Y659210D01*
X264845Y659291D01*
X264776Y659375D01*
X264711Y659461D01*
X264649Y659549D01*
X264589Y659639D01*
X264533Y659731D01*
X264480Y659826D01*
X264431Y659922D01*
X264385Y660020D01*
X264342Y660119D01*
X264303Y660220D01*
X264268Y660322D01*
X264236Y660425D01*
X264208Y660529D01*
X264183Y660634D01*
X264162Y660741D01*
X264145Y660847D01*
X264132Y660954D01*
X264123Y661062D01*
X264117Y661170D01*
X264115Y661278D01*
X265068Y659055D02*
X270465Y652705D01*
X264115Y652705D01*
M02*
