G04 EAGLE Gerber X2 export*
%TF.Part,Single*%
%TF.FileFunction,Copper,L1,Top,Mixed*%
%TF.FilePolarity,Positive*%
%TF.GenerationSoftware,Autodesk,EAGLE,9.2.0*%
%TF.CreationDate,2018-10-30T13:39:06Z*%
G75*
%MOMM*%
%FSLAX34Y34*%
%LPD*%
%INTop Copper*%
%IPPOS*%
%AMOC8*
5,1,8,0,0,1.08239X$1,22.5*%
G01*
%ADD10C,1.143000*%
%ADD11R,1.350000X1.350000*%
%ADD12C,1.350000*%
%ADD13R,1.600000X1.800000*%
%ADD14R,1.800000X1.600000*%
%ADD15C,1.408000*%
%ADD16R,1.408000X1.408000*%
%ADD17C,1.320800*%
%ADD18R,0.600000X2.200000*%
%ADD19R,2.200000X0.600000*%
%ADD20C,1.950000*%
%ADD21R,0.800000X3.100000*%
%ADD22P,1.429621X8X202.500000*%
%ADD23P,2.336880X8X112.500000*%
%ADD24R,1.270000X2.540000*%
%ADD25C,1.879600*%
%ADD26P,1.429621X8X292.500000*%
%ADD27P,1.429621X8X112.500000*%
%ADD28R,1.600000X1.803000*%
%ADD29R,1.066800X2.184400*%
%ADD30R,1.803000X1.600000*%
%ADD31R,2.184400X1.066800*%
%ADD32R,2.000000X1.600000*%
%ADD33R,1.600000X2.000000*%
%ADD34R,1.879600X1.879600*%
%ADD35P,3.247170X8X112.500000*%
%ADD36R,1.000000X1.600000*%
%ADD37R,5.400000X6.200000*%
%ADD38R,1.549400X0.533400*%
%ADD39P,3.247170X8X22.500000*%
%ADD40P,2.336880X8X22.500000*%
%ADD41P,2.336880X8X202.500000*%
%ADD42R,2.400000X2.400000*%
%ADD43R,1.270000X1.270000*%
%ADD44C,0.812800*%
%ADD45C,1.800000*%
%ADD46P,4.123906X8X22.500000*%
%ADD47C,1.879600*%
%ADD48C,0.203200*%
%ADD49C,0.604800*%


D10*
X318710Y377210D03*
X268710Y377210D03*
D11*
X484900Y809150D03*
D12*
X464900Y809150D03*
D11*
X469900Y695800D03*
D12*
X469900Y675800D03*
D10*
X540150Y565150D03*
X590150Y565150D03*
D11*
X177490Y666880D03*
D12*
X177490Y646880D03*
D11*
X557640Y623650D03*
D12*
X537640Y623650D03*
D11*
X397350Y663480D03*
D12*
X377350Y663480D03*
D13*
X484090Y460470D03*
X456090Y460470D03*
D10*
X463550Y596500D03*
X463550Y546500D03*
X194020Y466910D03*
X194020Y516910D03*
D11*
X86200Y538020D03*
D12*
X66200Y538020D03*
D11*
X511650Y514350D03*
D12*
X491650Y514350D03*
D11*
X515510Y386000D03*
D12*
X535510Y386000D03*
D10*
X5000Y413530D03*
X5000Y463530D03*
D11*
X29050Y533400D03*
D12*
X9050Y533400D03*
D10*
X540150Y533400D03*
X590150Y533400D03*
D11*
X363870Y477000D03*
D12*
X363870Y457000D03*
D11*
X225780Y395840D03*
D12*
X225780Y375840D03*
D13*
X514590Y341550D03*
X542590Y341550D03*
D10*
X634050Y652588D03*
X634050Y702588D03*
D11*
X273050Y47150D03*
D12*
X273050Y67150D03*
D13*
X236250Y82550D03*
X208250Y82550D03*
X379700Y127000D03*
X407700Y127000D03*
D11*
X393700Y167800D03*
D12*
X393700Y187800D03*
D11*
X209550Y117000D03*
D12*
X209550Y137000D03*
D14*
X254000Y113000D03*
X254000Y141000D03*
D10*
X6350Y745160D03*
X6350Y795160D03*
D11*
X651940Y955743D03*
D12*
X671940Y955743D03*
D11*
X533560Y955743D03*
D12*
X553560Y955743D03*
D10*
X558800Y839380D03*
X558800Y889380D03*
X494900Y851870D03*
X444900Y851870D03*
D15*
X336550Y50800D03*
D16*
X311150Y50800D03*
D15*
X279400Y139700D03*
D16*
X279400Y114300D03*
D17*
X283800Y708396D02*
X283800Y721604D01*
X258400Y721604D02*
X258400Y708396D01*
X233000Y708396D02*
X233000Y721604D01*
X233000Y768396D02*
X233000Y781604D01*
X258400Y781604D02*
X258400Y768396D01*
X283800Y768396D02*
X283800Y781604D01*
D18*
X65420Y443900D03*
X65420Y495900D03*
X52720Y443900D03*
X78120Y443900D03*
X90820Y443900D03*
X52720Y495900D03*
X78120Y495900D03*
X90820Y495900D03*
X116220Y443900D03*
X116220Y495900D03*
X103520Y443900D03*
X128920Y443900D03*
X103520Y495900D03*
X128920Y495900D03*
D19*
X432400Y533400D03*
X380400Y533400D03*
X432400Y520700D03*
X432400Y546100D03*
X432400Y558800D03*
X380400Y520700D03*
X380400Y546100D03*
X380400Y558800D03*
X432400Y584200D03*
X380400Y584200D03*
X432400Y571500D03*
X432400Y596900D03*
X380400Y571500D03*
X380400Y596900D03*
D18*
X527050Y483200D03*
X527050Y431200D03*
X539750Y483200D03*
X514350Y483200D03*
X501650Y483200D03*
X539750Y431200D03*
X514350Y431200D03*
X501650Y431200D03*
D20*
X38250Y218850D02*
X18750Y218850D01*
X18750Y381150D02*
X38250Y381150D01*
X145750Y218850D02*
X165250Y218850D01*
X165250Y381150D02*
X145750Y381150D01*
D21*
X342800Y293200D03*
X310800Y293200D03*
X288800Y293200D03*
X266800Y293200D03*
X342800Y240200D03*
X310800Y240200D03*
X288800Y240200D03*
X266800Y240200D03*
D22*
X436900Y300000D03*
X411500Y300000D03*
D23*
X492760Y165100D03*
X493760Y92280D03*
D17*
X283800Y843396D02*
X283800Y856604D01*
X258400Y856604D02*
X258400Y843396D01*
X233000Y843396D02*
X233000Y856604D01*
X233000Y903396D02*
X233000Y916604D01*
X258400Y916604D02*
X258400Y903396D01*
X283800Y903396D02*
X283800Y916604D01*
X73000Y916604D02*
X73000Y903396D01*
X98400Y903396D02*
X98400Y916604D01*
X123800Y916604D02*
X123800Y903396D01*
X123800Y856604D02*
X123800Y843396D01*
X98400Y843396D02*
X98400Y856604D01*
X73000Y856604D02*
X73000Y843396D01*
D24*
X546100Y244400D03*
X571500Y244400D03*
X571500Y314400D03*
X546100Y314400D03*
D20*
X810250Y381150D02*
X829750Y381150D01*
X829750Y218850D02*
X810250Y218850D01*
X702750Y381150D02*
X683250Y381150D01*
X683250Y218850D02*
X702750Y218850D01*
D25*
X527050Y911320D03*
X514350Y892270D03*
X501650Y911320D03*
D26*
X598440Y943045D03*
X617490Y955745D03*
X598440Y968445D03*
D27*
X521970Y760080D03*
X502920Y747380D03*
X521970Y734680D03*
D25*
X534560Y696580D03*
X553610Y683880D03*
X534560Y671180D03*
D28*
X403340Y460470D03*
X431780Y460470D03*
X471420Y876490D03*
X442980Y876490D03*
X589030Y882650D03*
X617470Y882650D03*
X350230Y886260D03*
X321790Y886260D03*
X433320Y781050D03*
X404880Y781050D03*
D29*
X322550Y657450D03*
X336550Y701450D03*
X350550Y657450D03*
D28*
X617470Y857250D03*
X589030Y857250D03*
D30*
X519350Y820290D03*
X519350Y791850D03*
X431800Y671580D03*
X431800Y700020D03*
D28*
X458720Y730250D03*
X430280Y730250D03*
D30*
X590550Y696370D03*
X590550Y667930D03*
X741470Y679260D03*
X741470Y650820D03*
D31*
X501140Y619270D03*
X457140Y633270D03*
X501140Y647270D03*
X363630Y728950D03*
X319630Y742950D03*
X363630Y756950D03*
D29*
X350550Y625250D03*
X336550Y581250D03*
X322550Y625250D03*
D30*
X170910Y444770D03*
X170910Y416330D03*
D28*
X112590Y417370D03*
X141030Y417370D03*
D29*
X1240Y579440D03*
X15240Y623440D03*
X29240Y579440D03*
X1240Y669819D03*
X15240Y713819D03*
X29240Y669819D03*
D30*
X30590Y411230D03*
X30590Y439670D03*
X590550Y436630D03*
X590550Y465070D03*
D28*
X373130Y704850D03*
X401570Y704850D03*
D29*
X163800Y707900D03*
X177800Y751900D03*
X191800Y707900D03*
X163800Y798420D03*
X177800Y842420D03*
X191800Y798420D03*
D30*
X219130Y518640D03*
X219130Y547080D03*
D28*
X240560Y346930D03*
X269000Y346930D03*
D31*
X347120Y525750D03*
X303120Y539750D03*
X347120Y553750D03*
D32*
X469900Y278100D03*
X469900Y306100D03*
D28*
X403510Y435390D03*
X431950Y435390D03*
D30*
X565150Y436630D03*
X565150Y465070D03*
D28*
X431060Y491410D03*
X459500Y491410D03*
D33*
X464850Y190500D03*
X436850Y190500D03*
D30*
X514350Y592070D03*
X514350Y563630D03*
D28*
X649220Y541290D03*
X620780Y541290D03*
X649220Y566880D03*
X620780Y566880D03*
D33*
X436850Y158750D03*
X464850Y158750D03*
D32*
X603250Y248950D03*
X603250Y220950D03*
D28*
X322170Y347730D03*
X293730Y347730D03*
D30*
X488950Y563630D03*
X488950Y592070D03*
X30590Y492010D03*
X30590Y463570D03*
X218820Y464670D03*
X218820Y493110D03*
X169790Y490250D03*
X169790Y518690D03*
X148040Y490010D03*
X148040Y518450D03*
X158750Y877320D03*
X158750Y905760D03*
D34*
X645000Y890000D03*
X670000Y890000D03*
X695000Y890000D03*
D35*
X626000Y820000D03*
X714000Y820000D03*
D15*
X323850Y863600D03*
D16*
X323850Y838200D03*
D15*
X356870Y834390D03*
D16*
X356870Y859790D03*
D15*
X672562Y650113D03*
D16*
X672562Y675513D03*
D15*
X712470Y679450D03*
D16*
X712470Y654050D03*
D36*
X307400Y79000D03*
X353000Y79000D03*
D37*
X330200Y152000D03*
D38*
X528066Y196850D03*
X528066Y184150D03*
X528066Y171450D03*
X528066Y158750D03*
X602234Y158750D03*
X602234Y171450D03*
X602234Y184150D03*
X602234Y196850D03*
D34*
X328400Y490400D03*
X328400Y465400D03*
X328400Y440400D03*
D39*
X258400Y509400D03*
X258400Y421400D03*
D31*
X320900Y807750D03*
X364900Y793750D03*
X320900Y779750D03*
D17*
X73000Y781604D02*
X73000Y768396D01*
X98400Y768396D02*
X98400Y781604D01*
X123800Y781604D02*
X123800Y768396D01*
X123800Y721604D02*
X123800Y708396D01*
X98400Y708396D02*
X98400Y721604D01*
X73000Y721604D02*
X73000Y708396D01*
D40*
X133350Y69850D03*
D41*
X171450Y69850D03*
D42*
X381000Y288700D03*
X381000Y244700D03*
D43*
X311150Y196850D03*
X336550Y196850D03*
D44*
X311150Y196850D01*
D45*
X640000Y601000D02*
X640000Y619000D01*
X620000Y619000D02*
X620000Y601000D01*
X720000Y601000D02*
X720000Y619000D01*
X660000Y619000D02*
X660000Y601000D01*
X680000Y601000D02*
X680000Y619000D01*
X700000Y619000D02*
X700000Y601000D01*
D46*
X610000Y500000D03*
X730000Y500000D03*
D47*
X660400Y130048D02*
X660400Y111252D01*
X635000Y111252D02*
X635000Y130048D01*
X609600Y130048D02*
X609600Y111252D01*
X584200Y111252D02*
X584200Y130048D01*
X558800Y130048D02*
X558800Y111252D01*
X533400Y111252D02*
X533400Y130048D01*
D20*
X78000Y135000D02*
X78000Y115500D01*
X110000Y115500D02*
X110000Y135000D01*
X142000Y135000D02*
X142000Y115500D01*
X142000Y165000D02*
X142000Y184500D01*
X110000Y184500D02*
X110000Y165000D01*
X78000Y165000D02*
X78000Y184500D01*
D10*
X456400Y755650D03*
X406400Y755650D03*
X424650Y622300D03*
X374650Y622300D03*
X583140Y759160D03*
X633140Y759160D03*
X400050Y869550D03*
X400050Y819550D03*
D15*
X355280Y929020D03*
D16*
X355280Y954420D03*
D15*
X321990Y957500D03*
D16*
X321990Y932100D03*
D22*
X431800Y241300D03*
X444500Y222250D03*
X457200Y241300D03*
D28*
X191520Y878840D03*
X219960Y878840D03*
X673340Y857780D03*
X644900Y857780D03*
D17*
X73000Y586604D02*
X73000Y573396D01*
X98400Y573396D02*
X98400Y586604D01*
X123800Y586604D02*
X123800Y573396D01*
X123800Y633396D02*
X123800Y646604D01*
X98400Y646604D02*
X98400Y633396D01*
X73000Y633396D02*
X73000Y646604D01*
X283800Y646604D02*
X283800Y633396D01*
X258400Y633396D02*
X258400Y646604D01*
X233000Y646604D02*
X233000Y633396D01*
X233000Y586604D02*
X233000Y573396D01*
X258400Y573396D02*
X258400Y586604D01*
X283800Y586604D02*
X283800Y573396D01*
D10*
X673612Y711120D03*
X673612Y761120D03*
D13*
X136920Y36960D03*
X164920Y36960D03*
D48*
X566928Y465328D02*
X589280Y465328D01*
X566928Y465328D02*
X565150Y465070D01*
X589280Y465328D02*
X590550Y465070D01*
X514096Y483616D02*
X514096Y512064D01*
X512064Y514096D01*
X514096Y483616D02*
X514350Y483200D01*
X512064Y514096D02*
X511650Y514350D01*
X526288Y465328D02*
X564896Y465328D01*
X526288Y465328D02*
X516128Y475488D01*
X516128Y481584D01*
X564896Y465328D02*
X565150Y465070D01*
X516128Y481584D02*
X514350Y483200D01*
X103632Y495808D02*
X103520Y495900D01*
X218820Y464670D02*
X221488Y460616D01*
X103520Y495900D02*
X103632Y497840D01*
X110680Y507952D02*
X112168Y509440D01*
X110680Y503060D02*
X103520Y495900D01*
X110680Y503060D02*
X110680Y507952D01*
X132972Y509440D02*
X140447Y501965D01*
X132972Y509440D02*
X112168Y509440D01*
X140447Y501965D02*
X178682Y501965D01*
X218820Y427100D02*
X268710Y377210D01*
X218820Y427100D02*
X218820Y464670D01*
X215977Y464670D01*
X178682Y501965D01*
X288800Y310867D02*
X288800Y293200D01*
X288800Y310867D02*
X322170Y344237D01*
X322170Y347730D01*
X318710Y351190D01*
X318710Y377210D01*
X79248Y489712D02*
X79248Y495808D01*
X78120Y495900D01*
X79248Y489712D01*
X78120Y495900D02*
X85280Y503060D01*
X105756Y517996D02*
X106210Y518450D01*
X148040Y518450D01*
X85280Y513773D02*
X85280Y503060D01*
X85280Y513773D02*
X89503Y517996D01*
X105756Y517996D01*
X65024Y495808D02*
X52832Y495808D01*
X52720Y495900D01*
X65024Y495808D02*
X65420Y495900D01*
X10160Y672592D02*
X24384Y686816D01*
X10160Y672592D02*
X10160Y640080D01*
X-8128Y621792D01*
X-8128Y566928D01*
X14224Y544576D01*
X50800Y497840D02*
X51782Y496848D01*
X52720Y495900D01*
X24384Y686816D02*
X24384Y727126D01*
X6350Y745160D01*
X14224Y544576D02*
X14224Y541364D01*
X19760Y525598D02*
X21248Y524110D01*
X24520Y524110D01*
X51782Y496848D01*
X19760Y535828D02*
X14224Y541364D01*
X19760Y535828D02*
X19760Y525598D01*
X310896Y741680D02*
X319024Y741680D01*
X310896Y741680D02*
X284480Y715264D01*
X319024Y741680D02*
X319630Y742950D01*
X284480Y715264D02*
X283800Y715000D01*
X177490Y646880D02*
X219130Y605240D01*
X219130Y547080D01*
X164592Y680720D02*
X164592Y707136D01*
X164592Y680720D02*
X176784Y668528D01*
X164592Y707136D02*
X163800Y707900D01*
X176784Y668528D02*
X177490Y666880D01*
X164592Y786384D02*
X164592Y796544D01*
X164592Y786384D02*
X186944Y764032D01*
X186944Y731520D01*
X164592Y709168D01*
X164592Y796544D02*
X163800Y798420D01*
X164592Y709168D02*
X163800Y707900D01*
X176784Y753872D02*
X119888Y753872D01*
X99568Y774192D01*
X176784Y753872D02*
X177800Y751900D01*
X99568Y774192D02*
X98400Y775000D01*
X138176Y841248D02*
X176784Y841248D01*
X138176Y841248D02*
X73152Y776224D01*
X176784Y841248D02*
X177800Y842420D01*
X73152Y776224D02*
X73000Y775000D01*
X471424Y591312D02*
X487680Y591312D01*
X471424Y591312D02*
X467360Y587248D01*
X447040Y587248D01*
X442976Y591312D01*
X420624Y591312D01*
X418592Y589280D01*
X418592Y579120D01*
X424688Y573024D01*
X487680Y591312D02*
X488950Y592070D01*
X418592Y589280D02*
X416560Y591312D01*
D49*
X416560Y591312D03*
D48*
X430876Y573024D02*
X432400Y571500D01*
X430876Y573024D02*
X424688Y573024D01*
X440620Y469310D02*
X431780Y460470D01*
X432816Y520192D02*
X432400Y520700D01*
X459500Y491410D02*
X459135Y491045D01*
X440620Y472530D01*
X440620Y469310D01*
X459135Y493965D02*
X432400Y520700D01*
X459135Y493965D02*
X459135Y491045D01*
X430784Y532384D02*
X424688Y532384D01*
X430784Y532384D02*
X432400Y533400D01*
X510032Y562864D02*
X514096Y562864D01*
X514350Y563630D01*
X432400Y533400D02*
X425040Y533400D01*
X502748Y551516D02*
X510766Y559534D01*
X514096Y562864D01*
X475553Y533400D02*
X432400Y533400D01*
X475553Y533400D02*
X493669Y551516D01*
X502748Y551516D02*
X510766Y559534D01*
X502748Y551516D02*
X493669Y551516D01*
X431060Y491410D02*
X414260Y508210D01*
X414260Y522620D02*
X425040Y533400D01*
X414260Y522620D02*
X414260Y508210D01*
X488950Y563630D02*
X491260Y563630D01*
X493743Y563630D01*
X445008Y448448D02*
X431950Y435390D01*
X456090Y459530D02*
X456090Y460470D01*
X456090Y459530D02*
X445008Y448448D01*
X460131Y538245D02*
X466969Y538245D01*
X471805Y543081D01*
X452276Y546100D02*
X432400Y546100D01*
X471805Y544175D02*
X471805Y543081D01*
X460131Y538245D02*
X452276Y546100D01*
X471805Y544175D02*
X491260Y563630D01*
X425240Y538940D02*
X420348Y538940D01*
X431950Y439693D02*
X431950Y435390D01*
X431950Y439693D02*
X421240Y450403D01*
X421240Y468303D01*
X408200Y481343D01*
X408200Y526792D02*
X420348Y538940D01*
X408200Y526792D02*
X408200Y481343D01*
X425240Y538940D02*
X432400Y546100D01*
X510032Y593344D02*
X514096Y593344D01*
X510032Y593344D02*
X499872Y603504D01*
X471424Y603504D01*
X465328Y597408D01*
X514096Y593344D02*
X514350Y592070D01*
X465328Y597408D02*
X463550Y596500D01*
X619760Y564896D02*
X620780Y566880D01*
X516128Y591312D02*
X514350Y592070D01*
X596348Y591312D02*
X620780Y566880D01*
X596348Y591312D02*
X516128Y591312D01*
X463550Y596500D02*
X463150Y596900D01*
X432400Y596900D01*
X619760Y540512D02*
X620780Y541290D01*
X445008Y583184D02*
X432816Y583184D01*
X445008Y583184D02*
X446336Y581856D01*
X432816Y583184D02*
X432400Y584200D01*
X598405Y563665D02*
X620780Y541290D01*
X598405Y563665D02*
X598405Y568569D01*
X478883Y581530D02*
X478557Y581856D01*
X446336Y581856D01*
X585444Y581530D02*
X598405Y568569D01*
X585444Y581530D02*
X478883Y581530D01*
X463550Y564642D02*
X463550Y546500D01*
X463550Y564642D02*
X446336Y581856D01*
X345440Y573024D02*
X345440Y554736D01*
X345440Y573024D02*
X337312Y581152D01*
X345440Y554736D02*
X347120Y553750D01*
X337312Y581152D02*
X336550Y581250D01*
X30480Y656336D02*
X30480Y668528D01*
X30480Y656336D02*
X30480Y581152D01*
X29240Y579440D01*
X30480Y668528D02*
X29240Y669819D01*
X303120Y539750D02*
X318106Y554736D01*
X345440Y554736D01*
X392452Y551640D02*
X394284Y549808D01*
X394284Y542392D01*
X392452Y540560D01*
X387560Y540560D01*
X380400Y533400D01*
X349230Y551640D02*
X347120Y553750D01*
X349230Y551640D02*
X392452Y551640D01*
X249256Y629608D02*
X249256Y644697D01*
X237617Y656336D01*
X249256Y629608D02*
X276104Y602760D01*
X237617Y656336D02*
X30480Y656336D01*
X276104Y602760D02*
X315040Y602760D01*
X336550Y581250D01*
X372680Y521176D02*
X374872Y521176D01*
X372680Y521176D02*
X348198Y521176D01*
X375348Y520700D02*
X380400Y520700D01*
X375348Y520700D02*
X374872Y521176D01*
X348198Y521176D02*
X347120Y525750D01*
X372680Y485810D02*
X363870Y477000D01*
X372680Y485810D02*
X372680Y521176D01*
X292608Y274320D02*
X268224Y249936D01*
X292608Y274320D02*
X294640Y274320D01*
X302768Y282448D01*
X302768Y319088D01*
X268224Y249936D02*
X268224Y241624D01*
X266800Y240200D01*
X314960Y451960D02*
X328400Y465400D01*
X314960Y451960D02*
X314960Y430784D01*
X346500Y399244D01*
X319675Y319088D02*
X302768Y319088D01*
X319675Y319088D02*
X346500Y345913D01*
X346500Y399244D01*
X650240Y542544D02*
X650240Y546608D01*
X660400Y556768D01*
X660400Y609600D01*
X650240Y542544D02*
X649220Y541290D01*
X660400Y609600D02*
X660000Y610000D01*
X660400Y611632D02*
X678688Y611632D01*
X680000Y610000D01*
X660400Y611632D02*
X660000Y610000D01*
X648208Y601472D02*
X648208Y566928D01*
X648208Y601472D02*
X640080Y609600D01*
X648208Y566928D02*
X649220Y566880D01*
X640080Y609600D02*
X640000Y610000D01*
X638048Y611632D02*
X621792Y611632D01*
X620000Y610000D01*
X638048Y611632D02*
X640000Y610000D01*
X400304Y666496D02*
X400304Y703072D01*
X400304Y666496D02*
X398272Y664464D01*
X400304Y703072D02*
X401570Y704850D01*
X398272Y664464D02*
X397350Y663480D01*
X405800Y622300D02*
X424650Y622300D01*
X405800Y622300D02*
X380400Y596900D01*
X398272Y662558D02*
X397350Y663480D01*
X398272Y648678D02*
X424650Y622300D01*
X398272Y648678D02*
X398272Y662558D01*
X158496Y875792D02*
X123952Y875792D01*
X99568Y851408D01*
X158496Y875792D02*
X158750Y877320D01*
X99568Y851408D02*
X98400Y850000D01*
X40640Y796544D02*
X8128Y796544D01*
X40640Y796544D02*
X71120Y827024D01*
X71120Y849376D01*
X8128Y796544D02*
X6350Y795160D01*
X71120Y849376D02*
X73000Y850000D01*
X73152Y851408D02*
X97536Y851408D01*
X98400Y850000D01*
X73152Y851408D02*
X73000Y850000D01*
X158750Y905760D02*
X160528Y904240D01*
X695000Y890000D02*
X694944Y887984D01*
X172588Y916300D02*
X160528Y904240D01*
X172588Y916300D02*
X174020Y916300D01*
D49*
X174020Y916300D03*
D48*
X670560Y890016D02*
X670560Y955040D01*
X671940Y955743D01*
X670560Y890016D02*
X670000Y890000D01*
X617728Y883920D02*
X617728Y955040D01*
X617728Y883920D02*
X617470Y882650D01*
X617728Y955040D02*
X617490Y955745D01*
X617728Y955040D02*
X650240Y955040D01*
X651940Y955743D01*
X617728Y955040D02*
X617490Y955745D01*
X597408Y967232D02*
X544576Y967232D01*
X534416Y957072D01*
X597408Y967232D02*
X598440Y968445D01*
X534416Y957072D02*
X533560Y955743D01*
X528320Y950976D02*
X528320Y912368D01*
X528320Y950976D02*
X532384Y955040D01*
X528320Y912368D02*
X527050Y911320D01*
X532384Y955040D02*
X533560Y955743D01*
X483616Y863600D02*
X493776Y853440D01*
X483616Y863600D02*
X471424Y875792D01*
X471420Y876490D01*
X493776Y853440D02*
X494900Y851870D01*
X518160Y890016D02*
X558800Y890016D01*
X518160Y890016D02*
X516128Y892048D01*
X558800Y890016D02*
X558800Y889380D01*
X516128Y892048D02*
X514350Y892270D01*
X514096Y894080D02*
X483616Y863600D01*
X514350Y892270D02*
X514096Y894080D01*
X589280Y881888D02*
X589280Y857504D01*
X589030Y857250D01*
X589280Y881888D02*
X589030Y882650D01*
X573024Y841248D02*
X558800Y841248D01*
X573024Y841248D02*
X587248Y855472D01*
X558800Y841248D02*
X558800Y839380D01*
X587248Y855472D02*
X589030Y857250D01*
X597408Y892048D02*
X597408Y942848D01*
X597408Y892048D02*
X589280Y883920D01*
X597408Y942848D02*
X598440Y943045D01*
X589280Y883920D02*
X589030Y882650D01*
X459232Y782320D02*
X434848Y782320D01*
X459232Y782320D02*
X485648Y808736D01*
X434848Y782320D02*
X433320Y781050D01*
X484900Y809150D02*
X485648Y808736D01*
X404368Y808736D02*
X404368Y814832D01*
X404368Y808736D02*
X404368Y782320D01*
X404368Y814832D02*
X400304Y818896D01*
X404368Y782320D02*
X404880Y781050D01*
X400304Y818896D02*
X400050Y819550D01*
X404368Y808736D02*
X321056Y808736D01*
X320900Y807750D01*
X522224Y733552D02*
X522224Y709168D01*
X534416Y696976D01*
X522224Y733552D02*
X521970Y734680D01*
X534416Y696976D02*
X534560Y696580D01*
X510032Y696976D02*
X471424Y696976D01*
X510032Y696976D02*
X522224Y709168D01*
X471424Y696976D02*
X469900Y695800D01*
X432816Y701040D02*
X432816Y705104D01*
X457200Y729488D01*
X432816Y701040D02*
X431800Y700020D01*
X457200Y729488D02*
X458720Y730250D01*
X457200Y755904D02*
X497840Y755904D01*
X501904Y759968D01*
X512064Y759968D02*
X520192Y759968D01*
X512064Y759968D02*
X501904Y759968D01*
X457200Y755904D02*
X456400Y755650D01*
X520192Y759968D02*
X521970Y760080D01*
X522224Y759968D02*
X581152Y759968D01*
X583140Y759160D01*
X522224Y759968D02*
X521970Y760080D01*
X501904Y731520D02*
X459232Y731520D01*
X501904Y731520D02*
X512064Y741680D01*
X512064Y759968D01*
X459232Y731520D02*
X458720Y730250D01*
X428752Y731520D02*
X406400Y753872D01*
X428752Y731520D02*
X430280Y730250D01*
X406400Y753872D02*
X406400Y755650D01*
X369824Y792480D02*
X365760Y792480D01*
X369824Y792480D02*
X406400Y755904D01*
X365760Y792480D02*
X364900Y793750D01*
X406400Y755904D02*
X406400Y755650D01*
X445008Y745744D02*
X501904Y745744D01*
X445008Y745744D02*
X430784Y731520D01*
X501904Y745744D02*
X502920Y747380D01*
X430784Y731520D02*
X430280Y730250D01*
X542970Y608980D02*
X557640Y623650D01*
X542970Y608980D02*
X532990Y608980D01*
X522700Y619270D01*
X501140Y619270D01*
X379984Y585216D02*
X373888Y585216D01*
X365760Y593344D01*
X365760Y611632D02*
X365760Y613664D01*
X365760Y611632D02*
X365760Y593344D01*
X365760Y613664D02*
X373888Y621792D01*
X379984Y585216D02*
X380400Y584200D01*
X373888Y621792D02*
X374650Y622300D01*
X371856Y705104D02*
X371856Y719328D01*
X363728Y727456D01*
X371856Y705104D02*
X373130Y704850D01*
X363728Y727456D02*
X363630Y728950D01*
X327152Y658368D02*
X323088Y658368D01*
X327152Y658368D02*
X371856Y703072D01*
X323088Y658368D02*
X322550Y657450D01*
X371856Y703072D02*
X373130Y704850D01*
X365760Y611632D02*
X343408Y611632D01*
X331216Y623824D01*
X331216Y654304D01*
X327152Y658368D01*
X322550Y657450D01*
X402336Y461264D02*
X402682Y460991D01*
X403340Y460470D01*
X227584Y709168D02*
X193040Y709168D01*
X227584Y709168D02*
X231648Y713232D01*
X193040Y709168D02*
X191800Y707900D01*
X231648Y713232D02*
X233000Y715000D01*
X193040Y709168D02*
X193040Y796544D01*
X191800Y798420D01*
X193040Y709168D02*
X191800Y707900D01*
X403510Y458920D02*
X403510Y435390D01*
X403510Y458920D02*
X403510Y460162D01*
X402682Y460991D01*
X267544Y650392D02*
X262188Y655748D01*
X267544Y650392D02*
X267544Y632156D01*
X243952Y655748D02*
X191800Y707900D01*
X243952Y655748D02*
X262188Y655748D01*
X267544Y632156D02*
X292876Y606824D01*
X355218Y565500D02*
X398612Y565500D01*
X355218Y565500D02*
X349504Y571214D01*
X349504Y588144D01*
X398612Y565500D02*
X403510Y560602D01*
X330824Y606824D02*
X292876Y606824D01*
X330824Y606824D02*
X349504Y588144D01*
X403510Y560602D02*
X403510Y458920D01*
X335280Y701040D02*
X290576Y701040D01*
X288544Y699008D01*
X274320Y699008D01*
X260096Y713232D01*
X335280Y701040D02*
X336550Y701450D01*
X260096Y713232D02*
X258400Y715000D01*
X373888Y851408D02*
X442976Y851408D01*
X373888Y851408D02*
X357632Y835152D01*
X442976Y851408D02*
X444900Y851870D01*
X357632Y835152D02*
X356870Y834390D01*
X353568Y837184D02*
X325120Y837184D01*
X353568Y837184D02*
X355600Y835152D01*
X325120Y837184D02*
X323850Y838200D01*
X355600Y835152D02*
X356870Y834390D01*
X192240Y518690D02*
X194020Y516910D01*
X192240Y518690D02*
X169790Y518690D01*
X170910Y444770D02*
X172720Y442976D01*
X170910Y444770D01*
X172720Y442976D02*
X194020Y464276D01*
X194020Y466910D01*
X170688Y414528D02*
X166624Y414528D01*
X170688Y414528D02*
X170910Y416330D01*
X113792Y416560D02*
X112590Y417370D01*
X113792Y418592D02*
X115824Y420624D01*
X115824Y442976D02*
X116220Y443900D01*
X113792Y418592D02*
X112590Y417370D01*
X160528Y414528D02*
X166624Y414528D01*
X160528Y414528D02*
X150368Y404368D01*
X125984Y404368D01*
X113792Y416560D01*
X166624Y414528D02*
X170910Y416330D01*
X113792Y416560D02*
X112590Y417370D01*
X115824Y420624D02*
X115824Y442976D01*
X116220Y443900D01*
X115824Y420624D02*
X112590Y417370D01*
X2032Y581152D02*
X2032Y609600D01*
X14224Y621792D01*
X2032Y581152D02*
X1240Y579440D01*
X14224Y621792D02*
X15240Y623440D01*
X48768Y538480D02*
X65024Y538480D01*
X48768Y538480D02*
X8128Y579120D01*
X2032Y579120D01*
X65024Y538480D02*
X66200Y538020D01*
X2032Y579120D02*
X1240Y579440D01*
X6096Y412496D02*
X30480Y412496D01*
X30590Y411230D01*
X6096Y412496D02*
X5000Y413530D01*
X32512Y463296D02*
X52832Y463296D01*
X65024Y451104D01*
X65024Y445008D01*
X32512Y463296D02*
X30590Y463570D01*
X65024Y445008D02*
X65420Y443900D01*
X40640Y412496D02*
X32512Y412496D01*
X40640Y412496D02*
X65024Y436880D01*
X65024Y442976D01*
X32512Y412496D02*
X30590Y411230D01*
X65024Y442976D02*
X65420Y443900D01*
X2032Y670560D02*
X2032Y701040D01*
X14224Y713232D01*
X2032Y670560D02*
X1240Y669819D01*
X14224Y713232D02*
X15240Y713819D01*
X8128Y544576D02*
X8128Y534416D01*
X8128Y544576D02*
X-12192Y564896D01*
X-12192Y656336D01*
X0Y668528D01*
X8128Y534416D02*
X9050Y533400D01*
X0Y668528D02*
X1240Y669819D01*
X603504Y158496D02*
X603504Y128016D01*
X609600Y121920D01*
X603504Y158496D02*
X602234Y158750D01*
X609600Y121920D02*
X609600Y120650D01*
X603504Y172720D02*
X609600Y178816D01*
X611632Y178816D01*
X613664Y180848D01*
X613664Y209296D01*
X603504Y219456D01*
X603504Y172720D02*
X602234Y171450D01*
X603504Y219456D02*
X603250Y220950D01*
X603504Y170688D02*
X609600Y164592D01*
X611632Y164592D01*
X633984Y142240D01*
X633984Y121920D01*
X603504Y170688D02*
X602234Y171450D01*
X633984Y121920D02*
X635000Y120650D01*
X595376Y176784D02*
X601472Y182880D01*
X595376Y176784D02*
X593344Y176784D01*
X585216Y168656D01*
X585216Y121920D01*
X601472Y182880D02*
X602234Y184150D01*
X585216Y121920D02*
X584200Y120650D01*
X532384Y195072D02*
X528320Y195072D01*
X532384Y195072D02*
X538480Y188976D01*
X538480Y125984D01*
X534416Y121920D01*
X528320Y195072D02*
X528066Y196850D01*
X534416Y121920D02*
X533400Y120650D01*
X469392Y278384D02*
X459232Y278384D01*
X438912Y298704D01*
X469392Y278384D02*
X469900Y278100D01*
X438912Y298704D02*
X436900Y300000D01*
X379984Y243840D02*
X345440Y243840D01*
X343408Y241808D01*
X379984Y243840D02*
X381000Y244700D01*
X343408Y241808D02*
X342800Y240200D01*
X457200Y241808D02*
X457200Y254000D01*
X422656Y288544D02*
X412496Y298704D01*
X422656Y288544D02*
X457200Y254000D01*
X457200Y241808D02*
X457200Y241300D01*
X412496Y298704D02*
X411500Y300000D01*
X422656Y286512D02*
X382016Y245872D01*
X422656Y286512D02*
X422656Y288544D01*
X382016Y245872D02*
X381000Y244700D01*
X436880Y188976D02*
X436880Y160528D01*
X436850Y158750D01*
X436880Y188976D02*
X436850Y190500D01*
X442976Y197104D02*
X442976Y221488D01*
X442976Y197104D02*
X436880Y191008D01*
X442976Y221488D02*
X444500Y222250D01*
X436880Y191008D02*
X436850Y190500D01*
X487680Y182880D02*
X526288Y182880D01*
X487680Y182880D02*
X465328Y160528D01*
X526288Y182880D02*
X528066Y184150D01*
X465328Y160528D02*
X464850Y158750D01*
X589280Y209296D02*
X601472Y197104D01*
X589280Y209296D02*
X589280Y229616D01*
X591312Y231648D01*
X615696Y231648D01*
X660400Y186944D01*
X602234Y196850D02*
X601472Y197104D01*
X469392Y306832D02*
X445008Y306832D01*
X440944Y310896D01*
X402336Y310896D01*
X382016Y290576D01*
X469392Y306832D02*
X469900Y306100D01*
X382016Y290576D02*
X381000Y288700D01*
X377952Y292608D02*
X343408Y292608D01*
X377952Y292608D02*
X379984Y290576D01*
X343408Y292608D02*
X342800Y293200D01*
X379984Y290576D02*
X381000Y288700D01*
X351536Y77216D02*
X351536Y65024D01*
X337312Y50800D01*
X351536Y77216D02*
X353000Y79000D01*
X337312Y50800D02*
X336550Y50800D01*
X379984Y128016D02*
X379984Y154432D01*
X392176Y166624D01*
X379984Y128016D02*
X379700Y127000D01*
X392176Y166624D02*
X393700Y167800D01*
X353568Y101600D02*
X353568Y79248D01*
X353568Y101600D02*
X377952Y125984D01*
X353568Y79248D02*
X353000Y79000D01*
X377952Y125984D02*
X379700Y127000D01*
X341376Y262128D02*
X341376Y292608D01*
X341376Y262128D02*
X335280Y256032D01*
X335280Y223520D01*
X392176Y166624D01*
X341376Y292608D02*
X342800Y293200D01*
X393700Y167800D02*
X392176Y166624D01*
X615696Y231648D02*
X615696Y239776D01*
X617728Y241808D01*
X617728Y258064D01*
X607332Y268460D01*
X507764Y268460D01*
X471424Y304800D01*
X469900Y306100D01*
X660400Y186944D02*
X660400Y120650D01*
X526288Y170688D02*
X497840Y170688D01*
X493776Y166624D01*
X526288Y170688D02*
X528066Y171450D01*
X493776Y166624D02*
X492760Y165100D01*
X589280Y249936D02*
X601472Y249936D01*
X589280Y249936D02*
X579120Y260096D01*
X560832Y260096D01*
X546608Y245872D01*
X601472Y249936D02*
X603250Y248950D01*
X546608Y245872D02*
X546100Y244400D01*
X93472Y136144D02*
X79248Y136144D01*
X93472Y136144D02*
X109728Y152400D01*
X128016Y152400D01*
X140208Y164592D01*
X79248Y136144D02*
X78000Y135000D01*
X140208Y164592D02*
X142000Y165000D01*
X229616Y292608D02*
X266192Y292608D01*
X229616Y292608D02*
X156464Y219456D01*
X266192Y292608D02*
X266800Y293200D01*
X156464Y219456D02*
X155500Y218850D01*
X142240Y205232D02*
X142240Y166624D01*
X142240Y205232D02*
X154432Y217424D01*
X142240Y166624D02*
X142000Y165000D01*
X154432Y217424D02*
X155500Y218850D01*
X308864Y235712D02*
X308864Y239776D01*
X308864Y235712D02*
X221488Y148336D01*
X123952Y148336D01*
X111760Y136144D01*
X308864Y239776D02*
X310800Y240200D01*
X111760Y136144D02*
X110000Y135000D01*
X240560Y346930D02*
X225780Y361710D01*
X225780Y375840D01*
X308864Y282448D02*
X286512Y260096D01*
X284480Y260096D01*
X274320Y249936D01*
X274320Y223520D01*
X272288Y221488D01*
X262128Y221488D01*
X260096Y223520D01*
X260096Y262128D01*
X274320Y276352D01*
X274320Y308864D01*
X270256Y312928D01*
X221488Y312928D01*
X111760Y203200D01*
X111760Y166760D02*
X110000Y165000D01*
X111760Y166760D02*
X111760Y203200D01*
X308864Y282448D02*
X308864Y291264D01*
X310800Y293200D01*
X497840Y820928D02*
X518160Y820928D01*
X497840Y820928D02*
X495808Y822960D01*
X475488Y822960D01*
X463296Y810768D01*
X518160Y820928D02*
X519350Y820290D01*
X464900Y809150D02*
X463296Y810768D01*
X351536Y865632D02*
X351536Y885952D01*
X351536Y865632D02*
X355600Y861568D01*
X351536Y885952D02*
X350230Y886260D01*
X355600Y861568D02*
X356870Y859790D01*
X445008Y877824D02*
X451104Y877824D01*
X467360Y894080D01*
X483616Y894080D01*
X499872Y910336D01*
X445008Y877824D02*
X442980Y876490D01*
X499872Y910336D02*
X501650Y911320D01*
X426720Y859536D02*
X357632Y859536D01*
X438912Y871728D02*
X442976Y875792D01*
X438912Y871728D02*
X426720Y859536D01*
X357632Y859536D02*
X356870Y859790D01*
X442976Y875792D02*
X442980Y876490D01*
X475488Y835152D02*
X475488Y822960D01*
X475488Y835152D02*
X438912Y871728D01*
X442980Y876490D01*
X573024Y314960D02*
X627888Y314960D01*
X692912Y379984D01*
X573024Y314960D02*
X571500Y314400D01*
X692912Y379984D02*
X693000Y381150D01*
X290576Y247904D02*
X290576Y241808D01*
X290576Y247904D02*
X321420Y278748D01*
X321420Y311944D01*
X334168Y324692D01*
X510952Y324692D01*
X536940Y298704D01*
X556768Y298704D01*
X570992Y312928D01*
X290576Y241808D02*
X288800Y240200D01*
X570992Y312928D02*
X571500Y314400D01*
X308864Y77216D02*
X308864Y52832D01*
X310896Y50800D01*
X308864Y77216D02*
X307400Y79000D01*
X310896Y50800D02*
X311150Y50800D01*
X304800Y48768D02*
X274320Y48768D01*
X304800Y48768D02*
X308864Y52832D01*
X274320Y48768D02*
X273050Y47150D01*
X308864Y52832D02*
X311150Y50800D01*
X278384Y113792D02*
X254000Y113792D01*
X254000Y113000D01*
X278384Y113792D02*
X279400Y114300D01*
X209296Y81280D02*
X166624Y38608D01*
X164920Y36960D01*
X209296Y81280D02*
X208250Y82550D01*
X89408Y213360D02*
X65024Y188976D01*
X65024Y87376D01*
X128016Y24384D01*
X209296Y83312D02*
X209296Y113792D01*
X209296Y115824D01*
X209550Y117000D01*
X209296Y83312D02*
X208250Y82550D01*
X209296Y113792D02*
X254000Y113792D01*
X254000Y113000D01*
X209550Y117000D02*
X209296Y113792D01*
X306832Y87376D02*
X306832Y79248D01*
X306832Y87376D02*
X280416Y113792D01*
X306832Y79248D02*
X307400Y79000D01*
X280416Y113792D02*
X279400Y114300D01*
X585216Y434848D02*
X589280Y434848D01*
X585216Y434848D02*
X566928Y416560D01*
X536448Y416560D01*
X528320Y424688D01*
X528320Y430784D01*
X589280Y434848D02*
X590550Y436630D01*
X528320Y430784D02*
X527050Y431200D01*
X733552Y579120D02*
X733552Y610352D01*
X627888Y473456D02*
X615696Y461264D01*
X627888Y473456D02*
X733552Y579120D01*
X321056Y50800D02*
X312928Y50800D01*
X321056Y50800D02*
X331216Y40640D01*
X658388Y40640D01*
X715264Y97516D01*
X715264Y386080D01*
X627888Y473456D01*
X312928Y50800D02*
X311150Y50800D01*
X755930Y632730D02*
X755930Y634480D01*
X755930Y632730D02*
X733552Y610352D01*
X539165Y772035D02*
X519350Y791850D01*
X539165Y772035D02*
X641685Y772035D01*
X741470Y650820D02*
X742345Y649945D01*
X755930Y636360D01*
X755930Y634480D01*
X591062Y436630D02*
X590550Y436630D01*
X591062Y436630D02*
X615696Y461264D01*
X432400Y558800D02*
X425240Y565960D01*
X420348Y565960D01*
X528655Y607568D02*
X531307Y604916D01*
X415199Y605520D02*
X410996Y601317D01*
X415199Y605520D02*
X443956Y605520D01*
X446004Y607568D01*
X528655Y607568D01*
X420348Y565960D02*
X410996Y575312D01*
X410996Y601317D01*
X722940Y630540D02*
X742345Y649945D01*
X722940Y630540D02*
X615220Y630540D01*
X589596Y604916D02*
X531307Y604916D01*
X589596Y604916D02*
X615220Y630540D01*
X89408Y442488D02*
X89408Y213360D01*
X89408Y442488D02*
X90820Y443900D01*
X164920Y36960D02*
X152344Y24384D01*
X128016Y24384D01*
X721062Y692658D02*
X641685Y772035D01*
X755930Y692658D02*
X755930Y634480D01*
X755930Y692658D02*
X721062Y692658D01*
X225552Y877824D02*
X221488Y877824D01*
X233680Y869696D02*
X247904Y855472D01*
X233680Y869696D02*
X225552Y877824D01*
X247904Y855472D02*
X247904Y839216D01*
X306832Y780288D01*
X319024Y780288D01*
X221488Y877824D02*
X219960Y878840D01*
X319024Y780288D02*
X320900Y779750D01*
X542590Y341550D02*
X545258Y314709D01*
X546100Y314400D01*
X542544Y434848D02*
X564896Y434848D01*
X542544Y434848D02*
X540512Y432816D01*
X564896Y434848D02*
X565150Y436630D01*
X540512Y432816D02*
X539750Y431200D01*
X617728Y857504D02*
X644144Y857504D01*
X617728Y857504D02*
X617470Y857250D01*
X644144Y857504D02*
X644900Y857780D01*
X260096Y81280D02*
X237744Y81280D01*
X260096Y81280D02*
X272288Y69088D01*
X237744Y81280D02*
X236250Y82550D01*
X272288Y69088D02*
X273050Y67150D01*
X278384Y140208D02*
X254000Y140208D01*
X254000Y141000D01*
X278384Y140208D02*
X279400Y139700D01*
X432816Y672592D02*
X467360Y672592D01*
X469392Y674624D01*
X432816Y672592D02*
X431800Y671580D01*
X469392Y674624D02*
X469900Y675800D01*
X90820Y495900D02*
X86820Y491900D01*
X86820Y478184D01*
X382016Y558800D02*
X396240Y558800D01*
X382016Y558800D02*
X380400Y558800D01*
X499872Y505968D02*
X499872Y483616D01*
X499872Y505968D02*
X491744Y514096D01*
X499872Y483616D02*
X501650Y483200D01*
X491744Y514096D02*
X491650Y514350D01*
X328400Y490400D02*
X327152Y489712D01*
X615696Y857504D02*
X615696Y863600D01*
X605536Y873760D01*
X605536Y936752D01*
X609600Y940816D01*
X609600Y944880D01*
X599440Y955040D01*
X554736Y955040D01*
X615696Y857504D02*
X617470Y857250D01*
X554736Y955040D02*
X553560Y955743D01*
X501904Y475488D02*
X542544Y434848D01*
X501904Y475488D02*
X501904Y481584D01*
X542544Y434848D02*
X539750Y431200D01*
X501904Y481584D02*
X501650Y483200D01*
X329184Y150368D02*
X290576Y150368D01*
X280416Y140208D01*
X329184Y150368D02*
X330200Y152000D01*
X280416Y140208D02*
X279400Y139700D01*
D49*
X86820Y478184D03*
X396240Y558800D03*
X233680Y869696D03*
D48*
X311150Y171050D02*
X330200Y152000D01*
X292930Y346930D02*
X293730Y347730D01*
X292930Y346930D02*
X269500Y346930D01*
X269000Y346930D01*
X269500Y346930D02*
X257945Y335375D01*
X201275Y335375D02*
X155500Y381150D01*
X201275Y335375D02*
X257945Y335375D01*
X311150Y196850D02*
X311150Y171050D01*
X535510Y348630D02*
X542590Y341550D01*
X535510Y348630D02*
X535510Y386000D01*
X526288Y158496D02*
X526288Y140208D01*
X505968Y119888D01*
X505968Y105664D01*
X493776Y93472D01*
X526288Y158496D02*
X528066Y158750D01*
X493776Y93472D02*
X493760Y92280D01*
X406400Y128016D02*
X406400Y174752D01*
X394208Y186944D01*
X406400Y128016D02*
X407700Y127000D01*
X394208Y186944D02*
X393700Y187800D01*
X463296Y191008D02*
X463296Y217424D01*
X440944Y239776D01*
X432816Y239776D01*
X463296Y191008D02*
X464850Y190500D01*
X432816Y239776D02*
X431800Y241300D01*
X544576Y217424D02*
X570992Y243840D01*
X544576Y217424D02*
X463296Y217424D01*
X570992Y243840D02*
X571500Y244400D01*
D49*
X349580Y192500D03*
D48*
X345230Y196850D02*
X336550Y196850D01*
X345230Y196850D02*
X349580Y192500D01*
X528320Y483616D02*
X528320Y522224D01*
X538480Y532384D01*
X528320Y483616D02*
X527050Y483200D01*
X538480Y532384D02*
X540150Y533400D01*
X540512Y534416D02*
X540512Y564896D01*
X540150Y565150D01*
X540512Y534416D02*
X540150Y533400D01*
X516128Y430784D02*
X516128Y426580D01*
X516128Y386080D01*
X515510Y386000D01*
X516128Y430784D02*
X514350Y431200D01*
X522224Y522224D02*
X528320Y522224D01*
X522224Y522224D02*
X520192Y524256D01*
X487680Y524256D01*
X475488Y512064D01*
X103520Y443900D02*
X101600Y442976D01*
X79248Y445008D02*
X79248Y451104D01*
X79248Y445008D02*
X78120Y443900D01*
X101600Y445008D02*
X103520Y443900D01*
X379984Y544576D02*
X380400Y546100D01*
X325120Y528220D02*
X325120Y526680D01*
X325120Y517440D01*
X325120Y516128D01*
X380400Y546100D02*
X381920Y546100D01*
X500046Y646176D02*
X501140Y647270D01*
X475488Y469072D02*
X484090Y460470D01*
X499820Y444740D01*
X505702Y444740D01*
X507190Y443252D01*
X354580Y486668D02*
X325120Y516128D01*
X354580Y486668D02*
X354580Y469198D01*
X356068Y467710D01*
X373538Y467710D01*
X392970Y448278D01*
X514622Y426580D02*
X516128Y426580D01*
X392970Y425323D02*
X392970Y448278D01*
X505702Y417660D02*
X514622Y426580D01*
X400633Y417660D02*
X392970Y425323D01*
X400633Y417660D02*
X505702Y417660D01*
X369756Y546100D02*
X357280Y533624D01*
X330524Y533624D02*
X325120Y528220D01*
X330524Y533624D02*
X357280Y533624D01*
X501140Y644620D02*
X501140Y647270D01*
X501140Y644620D02*
X509740Y636020D01*
D49*
X509740Y636020D03*
D48*
X507190Y443252D02*
X507190Y438360D01*
X514350Y431200D01*
X87376Y459232D02*
X79248Y451104D01*
X87376Y459232D02*
X93472Y459232D01*
X101600Y451104D01*
X101600Y445008D01*
X79248Y451104D02*
X78120Y443900D01*
X101600Y445008D02*
X103520Y443900D01*
X101600Y442976D01*
X222166Y489764D02*
X271912Y489764D01*
X222166Y489764D02*
X218820Y493110D01*
X102050Y427437D02*
X102050Y407303D01*
X103520Y428907D02*
X103520Y443900D01*
X103520Y428907D02*
X102050Y427437D01*
X102050Y407303D02*
X115113Y394240D01*
X265291Y368955D02*
X272129Y368955D01*
X217978Y386550D02*
X210288Y394240D01*
X217978Y386550D02*
X247696Y386550D01*
X265291Y368955D01*
X210288Y394240D02*
X115113Y394240D01*
X272129Y368955D02*
X294278Y391104D01*
X324260Y516580D02*
X325120Y517440D01*
X293784Y511636D02*
X271912Y489764D01*
X293784Y511636D02*
X298728Y516580D01*
X301840Y516580D01*
X324260Y516580D01*
X369756Y546100D02*
X380400Y546100D01*
X515510Y386000D02*
X515510Y385462D01*
X501336Y371288D01*
X501336Y354804D01*
X514590Y341550D01*
X475488Y469072D02*
X475488Y512064D01*
X294278Y511142D02*
X293784Y511636D01*
X294278Y511142D02*
X294278Y391104D01*
X219130Y493420D02*
X219130Y518640D01*
X219130Y493420D02*
X218820Y493110D01*
X32512Y491744D02*
X30590Y492010D01*
X115824Y497840D02*
X116220Y495900D01*
X130048Y497840D02*
X148336Y497840D01*
X148040Y490010D01*
X130048Y497840D02*
X128920Y495900D01*
X169790Y490250D02*
X172720Y495808D01*
X128016Y495808D02*
X117856Y495808D01*
X116220Y495900D01*
X128016Y495808D02*
X128920Y495900D01*
X169790Y490250D02*
X172720Y495808D01*
X115220Y482308D02*
X103666Y470754D01*
X115220Y482308D02*
X115220Y494900D01*
X116220Y495900D01*
X32200Y491787D02*
X31977Y492010D01*
X30590Y492010D01*
X148040Y490010D02*
X169550Y490010D01*
X169790Y490250D01*
X159355Y453822D02*
X159355Y435718D01*
X160843Y434230D01*
X169790Y464257D02*
X169790Y490250D01*
X169790Y464257D02*
X159355Y453822D01*
X160843Y434230D02*
X187390Y434230D01*
X225780Y395840D01*
X103666Y470754D02*
X51846Y470754D01*
X30590Y492010D01*
X328400Y440400D02*
X347270Y440400D01*
X363870Y457000D01*
X398272Y869696D02*
X373888Y894080D01*
X371856Y894080D01*
X365760Y900176D01*
X365760Y942848D01*
X355600Y953008D01*
X398272Y869696D02*
X400050Y869550D01*
X355600Y953008D02*
X355280Y954420D01*
X351536Y957072D02*
X323088Y957072D01*
X351536Y957072D02*
X353568Y955040D01*
X323088Y957072D02*
X321990Y957500D01*
X353568Y955040D02*
X355280Y954420D01*
X591312Y564896D02*
X591312Y534416D01*
X590150Y533400D01*
X591312Y564896D02*
X590150Y565150D01*
X591312Y566928D01*
X699008Y611632D02*
X700000Y610000D01*
X701040Y611632D02*
X719328Y611632D01*
X720000Y610000D01*
X701040Y611632D02*
X700000Y610000D01*
X720000Y610000D02*
X659760Y549760D01*
X659760Y531223D01*
X658272Y529735D01*
X608063Y533400D02*
X590150Y533400D01*
X608063Y533400D02*
X611728Y529735D01*
X658272Y529735D01*
X668528Y652272D02*
X636016Y652272D01*
X668528Y652272D02*
X670560Y650240D01*
X636016Y652272D02*
X634050Y652588D01*
X670560Y650240D02*
X672562Y650113D01*
X674624Y652272D02*
X711200Y652272D01*
X674624Y652272D02*
X672592Y650240D01*
X711200Y652272D02*
X712470Y654050D01*
X672592Y650240D02*
X672562Y650113D01*
X591312Y654304D02*
X591312Y666496D01*
X590889Y667292D01*
X590550Y667930D01*
X591312Y654304D02*
X633984Y654304D01*
X634050Y652588D01*
X587001Y671180D02*
X534560Y671180D01*
X587001Y671180D02*
X590889Y667292D01*
X537640Y668100D02*
X537640Y623650D01*
X537640Y668100D02*
X534560Y671180D01*
X712470Y654050D02*
X737680Y679260D01*
X741470Y679260D01*
X191008Y877824D02*
X180848Y877824D01*
X154432Y851408D01*
X123952Y851408D01*
X191008Y877824D02*
X191520Y878840D01*
X123952Y851408D02*
X123800Y850000D01*
X140208Y418592D02*
X141030Y417370D01*
X130048Y442976D02*
X128920Y443900D01*
X128016Y445008D01*
X140208Y432816D02*
X140208Y418592D01*
X140208Y432816D02*
X130048Y442976D01*
X140208Y418592D02*
X141030Y417370D01*
X130048Y442976D02*
X128920Y443900D01*
X128016Y445008D02*
X128016Y451104D01*
X115824Y463296D01*
X128016Y445008D02*
X128920Y443900D01*
D49*
X115824Y463296D03*
D48*
X97536Y599440D02*
X97536Y638048D01*
X97536Y599440D02*
X87376Y589280D01*
X87376Y538480D01*
X97536Y638048D02*
X98400Y640000D01*
X87376Y538480D02*
X86200Y538020D01*
X48768Y440944D02*
X32512Y440944D01*
X48768Y440944D02*
X50800Y442976D01*
X32512Y440944D02*
X30590Y439670D01*
X50800Y442976D02*
X52720Y443900D01*
X30480Y438912D02*
X6096Y463296D01*
X5000Y463530D01*
X30590Y439670D02*
X30480Y438912D01*
X282145Y580000D02*
X283800Y580000D01*
X104073Y522060D02*
X41580Y522060D01*
X40040Y520520D01*
D49*
X40040Y520520D03*
D48*
X232525Y530380D02*
X282145Y580000D01*
X112393Y530380D02*
X104073Y522060D01*
X112393Y530380D02*
X232525Y530380D01*
X351536Y625856D02*
X351536Y638048D01*
X375920Y662432D01*
X351536Y625856D02*
X350550Y625250D01*
X375920Y662432D02*
X377350Y663480D01*
X644144Y887984D02*
X672592Y859536D01*
X673340Y857780D01*
X644144Y887984D02*
X645000Y890000D01*
X109190Y536540D02*
X99890Y527240D01*
X35210Y527240D01*
X29050Y533400D01*
X229197Y536540D02*
X230685Y538028D01*
X230685Y552285D01*
X258400Y580000D01*
X229197Y536540D02*
X109190Y536540D01*
X351536Y658368D02*
X351536Y662432D01*
X384048Y694944D01*
X384048Y717296D02*
X384048Y735584D01*
X384048Y717296D02*
X384048Y694944D01*
X384048Y735584D02*
X363728Y755904D01*
X351536Y658368D02*
X350550Y657450D01*
X363728Y755904D02*
X363630Y756950D01*
X447040Y631952D02*
X455168Y631952D01*
X445008Y629920D02*
X425736Y610648D01*
X445008Y629920D02*
X447040Y631952D01*
X425736Y610648D02*
X403192Y610648D01*
X398828Y606284D01*
X398828Y583740D01*
X388112Y573024D01*
X455168Y631952D02*
X457140Y633270D01*
X410464Y717296D02*
X384048Y717296D01*
X410464Y717296D02*
X414528Y713232D01*
X414528Y660400D01*
X445008Y629920D01*
X388112Y573024D02*
X381924Y573024D01*
X380400Y571500D01*
X323088Y863600D02*
X323088Y885952D01*
X321790Y886260D01*
X323088Y863600D02*
X323850Y863600D01*
X564896Y694944D02*
X589280Y694944D01*
X564896Y694944D02*
X554736Y684784D01*
X589280Y694944D02*
X590550Y696370D01*
X554736Y684784D02*
X553610Y683880D01*
X636016Y703072D02*
X666496Y703072D01*
X672592Y709168D01*
X636016Y703072D02*
X634050Y702588D01*
X672592Y709168D02*
X673612Y711120D01*
X633984Y703072D02*
X633984Y757936D01*
X633140Y759160D01*
X633984Y703072D02*
X634050Y702588D01*
X670560Y699008D02*
X670560Y680720D01*
X670560Y676656D01*
X670560Y699008D02*
X666496Y703072D01*
X670560Y676656D02*
X672562Y675513D01*
X670560Y680720D02*
X711200Y680720D01*
X712470Y679450D01*
X672562Y675513D02*
X670560Y680720D01*
X629920Y696976D02*
X591312Y696976D01*
X629920Y696976D02*
X633984Y701040D01*
X591312Y696976D02*
X590550Y696370D01*
X633984Y701040D02*
X634050Y702588D01*
X647596Y783560D02*
X612852Y783560D01*
X587676Y808736D01*
X503936Y808736D01*
X493776Y818896D01*
X477520Y818896D01*
X475488Y816864D01*
X475488Y804672D01*
X469392Y798576D01*
X432816Y798576D01*
X402336Y829056D01*
X365760Y829056D01*
X359664Y822960D01*
X321056Y822960D01*
X294640Y849376D01*
X294640Y859536D01*
X260096Y894080D01*
X247904Y894080D01*
X233680Y908304D01*
X647596Y783560D02*
X673612Y761120D01*
X233680Y908304D02*
X233000Y910000D01*
X136144Y67056D02*
X136144Y38608D01*
X136144Y67056D02*
X134112Y69088D01*
X136144Y38608D02*
X136920Y36960D01*
X134112Y69088D02*
X133350Y69850D01*
M02*
