M48
;GenerationSoftware,Autodesk,EAGLE,9.2.0*%
;CreationDate,2018-10-30T13:39:05Z*%
FMAT,2
ICI,OFF
METRIC,TZ,000.000
T13C0.300
T12C0.635
T11C0.800
T10C0.813
T9C0.900
T8C1.000
T7C1.016
T6C1.118
T5C1.200
T4C1.250
T3C1.300
T2C2.000
T1C2.800
%
G90
M71
T1
X82388Y7450
X3068Y6988
X75920Y96000
X8920Y96000
T2
X71400Y82000
X62600Y82000
X73000Y50000
X61000Y50000
X25840Y50940
X25840Y42140
T3
X7800Y13500
X13398Y9394
X17094Y9394
X49280Y11704
X14200Y13500
X2850Y21885
X2850Y38115
X15550Y21885
X14200Y16500
X11000Y16500
X15550Y38115
X7800Y16500
X82000Y38115
X82000Y21885
X69300Y38115
X69300Y21885
X11000Y13500
X49280Y14014
T4
X5300Y12000
X16700Y18000
T5
X62000Y61000
X72000Y61000
X66000Y61000
X64000Y61000
X68000Y61000
X70000Y61000
T6
X63500Y12065
X53340Y12065
X55880Y12065
X58420Y12065
X66040Y12065
X60960Y12065
T7
X17145Y6985
X13335Y6985
X49376Y9228
X49276Y16510
T8
X69500Y89000
X67000Y89000
X64500Y89000
X32840Y44040
X32840Y46540
X32840Y49040
T9
X71247Y67945
X71247Y65405
X67256Y67551
X35528Y92902
X67256Y65011
X35687Y85979
X27940Y11430
X27940Y13970
X31115Y5080
X35528Y95442
X32199Y95750
X33655Y5080
X35687Y83439
X32385Y83820
X32199Y93210
X32385Y86360
T10
X9840Y91000
X52197Y76008
X28380Y58000
X25840Y58000
X23300Y58000
X23300Y64000
X25840Y64000
X28380Y71500
X28380Y64000
X23300Y71500
X23300Y77500
X25840Y77500
X28380Y77500
X7300Y64000
X9840Y64000
X12380Y64000
X12380Y58000
X43690Y30000
X41150Y30000
X7300Y71500
X9840Y71500
X28380Y85000
X25840Y85000
X23300Y85000
X23300Y91000
X25840Y91000
X28380Y91000
X7300Y91000
X12380Y71500
X12380Y91000
X12380Y85000
X9840Y85000
X7300Y85000
X12380Y77500
X9840Y77500
X7300Y77500
X9840Y58000
X52705Y91132
X51435Y89227
X50165Y91132
X59844Y94304
X61749Y95574
X59844Y96844
X25840Y71500
X50292Y74738
X52197Y73468
X53456Y69658
X55361Y68388
X53456Y67118
X7300Y58000
X45720Y24130
X44450Y22225
X43180Y24130
T11
X8620Y53802
X6620Y53802
X51165Y51435
X37735Y66348
X39735Y66348
X53764Y62365
X55764Y62365
X17749Y64688
X17749Y66688
X49165Y51435
X51551Y38600
X46990Y67580
X46990Y69580
X46490Y80915
X53551Y38600
X2905Y53340
X905Y53340
X36387Y47700
X36387Y45700
X22578Y39584
X48490Y80915
X22578Y37584
X27305Y4715
X27305Y6715
X39370Y16780
X55356Y95574
X39370Y18780
X20955Y11700
X20955Y13700
X65194Y95574
X67194Y95574
X53356Y95574
T12
X67361Y76112
X44490Y85187
X49490Y85187
X55880Y88938
X55880Y83938
X635Y79516
X635Y74516
X63405Y70259
X63405Y65259
X59015Y53340
X45640Y75565
X40640Y75565
X42465Y62230
X37465Y62230
X58314Y75916
X63314Y75916
X40005Y86955
X40005Y81955
X54015Y53340
X500Y46353
X500Y41353
X19402Y51691
X19402Y46691
X46355Y54650
X46355Y59650
X59015Y56515
X54015Y56515
X26871Y37721
X31871Y37721
X67361Y71112
T13
X11582Y46330
X50974Y63602
X34958Y19250
X23368Y86970
X39624Y55880
X8682Y47818
X17402Y91630
X4004Y52052
X41656Y59131
M30