G04 EAGLE Gerber X2 export*
%TF.Part,Single*%
%TF.FileFunction,Soldermask,Bot,1*%
%TF.FilePolarity,Positive*%
%TF.GenerationSoftware,Autodesk,EAGLE,9.2.0*%
%TF.CreationDate,2018-10-30T13:39:06Z*%
G75*
%MOMM*%
%FSLAX34Y34*%
%LPD*%
%INSoldermask Bottom*%
%IPPOS*%
%AMOC8*
5,1,8,0,0,1.08239X$1,22.5*%
G01*
%ADD10C,1.244600*%
%ADD11R,1.451600X1.451600*%
%ADD12C,1.451600*%
%ADD13C,1.509600*%
%ADD14R,1.509600X1.509600*%
%ADD15C,1.422400*%
%ADD16C,2.051600*%
%ADD17P,1.539592X8X202.500000*%
%ADD18P,2.446851X8X112.500000*%
%ADD19C,1.981200*%
%ADD20P,1.539592X8X292.500000*%
%ADD21P,1.539592X8X112.500000*%
%ADD22R,1.981200X1.981200*%
%ADD23P,3.357141X8X112.500000*%
%ADD24P,3.357141X8X22.500000*%
%ADD25P,2.446851X8X22.500000*%
%ADD26P,2.446851X8X202.500000*%
%ADD27C,1.901600*%
%ADD28P,4.233877X8X22.500000*%
%ADD29C,1.981200*%
%ADD30C,1.351600*%
%ADD31C,2.901600*%
%ADD32R,2.641600X5.181600*%
%ADD33C,1.401600*%


D10*
X318710Y377210D03*
X268710Y377210D03*
D11*
X484900Y809150D03*
D12*
X464900Y809150D03*
D11*
X469900Y695800D03*
D12*
X469900Y675800D03*
D10*
X540150Y565150D03*
X590150Y565150D03*
D11*
X177490Y666880D03*
D12*
X177490Y646880D03*
D11*
X557640Y623650D03*
D12*
X537640Y623650D03*
D11*
X397350Y663480D03*
D12*
X377350Y663480D03*
D10*
X463550Y596500D03*
X463550Y546500D03*
X194020Y466910D03*
X194020Y516910D03*
D11*
X86200Y538020D03*
D12*
X66200Y538020D03*
D11*
X511650Y514350D03*
D12*
X491650Y514350D03*
D11*
X515510Y386000D03*
D12*
X535510Y386000D03*
D10*
X5000Y413530D03*
X5000Y463530D03*
D11*
X29050Y533400D03*
D12*
X9050Y533400D03*
D10*
X540150Y533400D03*
X590150Y533400D03*
D11*
X363870Y477000D03*
D12*
X363870Y457000D03*
D11*
X225780Y395840D03*
D12*
X225780Y375840D03*
D10*
X634050Y652588D03*
X634050Y702588D03*
D11*
X273050Y47150D03*
D12*
X273050Y67150D03*
D11*
X393700Y167800D03*
D12*
X393700Y187800D03*
D11*
X209550Y117000D03*
D12*
X209550Y137000D03*
D10*
X6350Y745160D03*
X6350Y795160D03*
D11*
X651940Y955743D03*
D12*
X671940Y955743D03*
D11*
X533560Y955743D03*
D12*
X553560Y955743D03*
D10*
X558800Y839380D03*
X558800Y889380D03*
X494900Y851870D03*
X444900Y851870D03*
D13*
X336550Y50800D03*
D14*
X311150Y50800D03*
D13*
X279400Y139700D03*
D14*
X279400Y114300D03*
D15*
X283800Y708396D02*
X283800Y721604D01*
X258400Y721604D02*
X258400Y708396D01*
X233000Y708396D02*
X233000Y721604D01*
X233000Y768396D02*
X233000Y781604D01*
X258400Y781604D02*
X258400Y768396D01*
X283800Y768396D02*
X283800Y781604D01*
D16*
X38250Y218850D02*
X18750Y218850D01*
X18750Y381150D02*
X38250Y381150D01*
X145750Y218850D02*
X165250Y218850D01*
X165250Y381150D02*
X145750Y381150D01*
D17*
X436900Y300000D03*
X411500Y300000D03*
D18*
X492760Y165100D03*
X493760Y92280D03*
D15*
X283800Y843396D02*
X283800Y856604D01*
X258400Y856604D02*
X258400Y843396D01*
X233000Y843396D02*
X233000Y856604D01*
X233000Y903396D02*
X233000Y916604D01*
X258400Y916604D02*
X258400Y903396D01*
X283800Y903396D02*
X283800Y916604D01*
X73000Y916604D02*
X73000Y903396D01*
X98400Y903396D02*
X98400Y916604D01*
X123800Y916604D02*
X123800Y903396D01*
X123800Y856604D02*
X123800Y843396D01*
X98400Y843396D02*
X98400Y856604D01*
X73000Y856604D02*
X73000Y843396D01*
D16*
X810250Y381150D02*
X829750Y381150D01*
X829750Y218850D02*
X810250Y218850D01*
X702750Y381150D02*
X683250Y381150D01*
X683250Y218850D02*
X702750Y218850D01*
D19*
X527050Y911320D03*
X514350Y892270D03*
X501650Y911320D03*
D20*
X598440Y943045D03*
X617490Y955745D03*
X598440Y968445D03*
D21*
X521970Y760080D03*
X502920Y747380D03*
X521970Y734680D03*
D19*
X534560Y696580D03*
X553610Y683880D03*
X534560Y671180D03*
D22*
X645000Y890000D03*
X670000Y890000D03*
X695000Y890000D03*
D23*
X626000Y820000D03*
X714000Y820000D03*
D13*
X323850Y863600D03*
D14*
X323850Y838200D03*
D13*
X356870Y834390D03*
D14*
X356870Y859790D03*
D13*
X672562Y650113D03*
D14*
X672562Y675513D03*
D13*
X712470Y679450D03*
D14*
X712470Y654050D03*
D22*
X328400Y490400D03*
X328400Y465400D03*
X328400Y440400D03*
D24*
X258400Y509400D03*
X258400Y421400D03*
D15*
X73000Y768396D02*
X73000Y781604D01*
X98400Y781604D02*
X98400Y768396D01*
X123800Y768396D02*
X123800Y781604D01*
X123800Y721604D02*
X123800Y708396D01*
X98400Y708396D02*
X98400Y721604D01*
X73000Y721604D02*
X73000Y708396D01*
D25*
X133350Y69850D03*
D26*
X171450Y69850D03*
D27*
X640000Y601000D02*
X640000Y619000D01*
X620000Y619000D02*
X620000Y601000D01*
X720000Y601000D02*
X720000Y619000D01*
X660000Y619000D02*
X660000Y601000D01*
X680000Y601000D02*
X680000Y619000D01*
X700000Y619000D02*
X700000Y601000D01*
D28*
X610000Y500000D03*
X730000Y500000D03*
D29*
X660400Y130048D02*
X660400Y111252D01*
X635000Y111252D02*
X635000Y130048D01*
X609600Y130048D02*
X609600Y111252D01*
X584200Y111252D02*
X584200Y130048D01*
X558800Y130048D02*
X558800Y111252D01*
X533400Y111252D02*
X533400Y130048D01*
D16*
X78000Y135000D02*
X78000Y115500D01*
X110000Y115500D02*
X110000Y135000D01*
X142000Y135000D02*
X142000Y115500D01*
X142000Y165000D02*
X142000Y184500D01*
X110000Y184500D02*
X110000Y165000D01*
X78000Y165000D02*
X78000Y184500D01*
D30*
X53000Y120000D03*
X167000Y180000D03*
D31*
X89200Y960000D03*
X759200Y960000D03*
D10*
X456400Y755650D03*
X406400Y755650D03*
X424650Y622300D03*
X374650Y622300D03*
D32*
X229720Y970000D03*
X423200Y31750D03*
D10*
X583140Y759160D03*
X633140Y759160D03*
X400050Y869550D03*
X400050Y819550D03*
D13*
X355280Y929020D03*
D14*
X355280Y954420D03*
D13*
X321990Y957500D03*
D14*
X321990Y932100D03*
D17*
X431800Y241300D03*
X444500Y222250D03*
X457200Y241300D03*
D15*
X73000Y573396D02*
X73000Y586604D01*
X98400Y586604D02*
X98400Y573396D01*
X123800Y573396D02*
X123800Y586604D01*
X123800Y633396D02*
X123800Y646604D01*
X98400Y646604D02*
X98400Y633396D01*
X73000Y633396D02*
X73000Y646604D01*
X283800Y646604D02*
X283800Y633396D01*
X258400Y633396D02*
X258400Y646604D01*
X233000Y646604D02*
X233000Y633396D01*
X233000Y586604D02*
X233000Y573396D01*
X258400Y573396D02*
X258400Y586604D01*
X283800Y586604D02*
X283800Y573396D01*
D10*
X673612Y711120D03*
X673612Y761120D03*
D31*
X30680Y69880D03*
X823880Y74500D03*
D33*
X133980Y93940D03*
X170940Y93940D03*
X492800Y117040D03*
X492800Y140140D03*
M02*
