G04 EAGLE Gerber X2 export*
%TF.Part,Single*%
%TF.FileFunction,Paste,Top*%
%TF.FilePolarity,Negative*%
%TF.GenerationSoftware,Autodesk,EAGLE,9.2.0*%
%TF.CreationDate,2018-10-30T13:39:06Z*%
G75*
%MOMM*%
%FSLAX34Y34*%
%LPD*%
%INSolderpaste Top*%
%IPNEG*%
%AMOC8*
5,1,8,0,0,1.08239X$1,22.5*%
G01*
%ADD10R,1.600000X1.800000*%
%ADD11R,1.800000X1.600000*%
%ADD12R,0.600000X2.200000*%
%ADD13R,2.200000X0.600000*%
%ADD14R,0.800000X3.100000*%
%ADD15R,1.270000X2.540000*%
%ADD16R,1.600000X1.803000*%
%ADD17R,1.066800X2.184400*%
%ADD18R,1.803000X1.600000*%
%ADD19R,2.184400X1.066800*%
%ADD20R,2.000000X1.600000*%
%ADD21R,1.600000X2.000000*%
%ADD22R,1.000000X1.600000*%
%ADD23R,5.400000X6.200000*%
%ADD24R,1.549400X0.533400*%
%ADD25R,2.400000X2.400000*%
%ADD26R,1.270000X1.270000*%


D10*
X484090Y460470D03*
X456090Y460470D03*
X514590Y341550D03*
X542590Y341550D03*
X236250Y82550D03*
X208250Y82550D03*
X379700Y127000D03*
X407700Y127000D03*
D11*
X254000Y113000D03*
X254000Y141000D03*
D12*
X65420Y443900D03*
X65420Y495900D03*
X52720Y443900D03*
X78120Y443900D03*
X90820Y443900D03*
X52720Y495900D03*
X78120Y495900D03*
X90820Y495900D03*
X116220Y443900D03*
X116220Y495900D03*
X103520Y443900D03*
X128920Y443900D03*
X103520Y495900D03*
X128920Y495900D03*
D13*
X432400Y533400D03*
X380400Y533400D03*
X432400Y520700D03*
X432400Y546100D03*
X432400Y558800D03*
X380400Y520700D03*
X380400Y546100D03*
X380400Y558800D03*
X432400Y584200D03*
X380400Y584200D03*
X432400Y571500D03*
X432400Y596900D03*
X380400Y571500D03*
X380400Y596900D03*
D12*
X527050Y483200D03*
X527050Y431200D03*
X539750Y483200D03*
X514350Y483200D03*
X501650Y483200D03*
X539750Y431200D03*
X514350Y431200D03*
X501650Y431200D03*
D14*
X342800Y293200D03*
X310800Y293200D03*
X288800Y293200D03*
X266800Y293200D03*
X342800Y240200D03*
X310800Y240200D03*
X288800Y240200D03*
X266800Y240200D03*
D15*
X546100Y244400D03*
X571500Y244400D03*
X571500Y314400D03*
X546100Y314400D03*
D16*
X403340Y460470D03*
X431780Y460470D03*
X471420Y876490D03*
X442980Y876490D03*
X589030Y882650D03*
X617470Y882650D03*
X350230Y886260D03*
X321790Y886260D03*
X433320Y781050D03*
X404880Y781050D03*
D17*
X322550Y657450D03*
X336550Y701450D03*
X350550Y657450D03*
D16*
X617470Y857250D03*
X589030Y857250D03*
D18*
X519350Y820290D03*
X519350Y791850D03*
X431800Y671580D03*
X431800Y700020D03*
D16*
X458720Y730250D03*
X430280Y730250D03*
D18*
X590550Y696370D03*
X590550Y667930D03*
X741470Y679260D03*
X741470Y650820D03*
D19*
X501140Y619270D03*
X457140Y633270D03*
X501140Y647270D03*
X363630Y728950D03*
X319630Y742950D03*
X363630Y756950D03*
D17*
X350550Y625250D03*
X336550Y581250D03*
X322550Y625250D03*
D18*
X170910Y444770D03*
X170910Y416330D03*
D16*
X112590Y417370D03*
X141030Y417370D03*
D17*
X1240Y579440D03*
X15240Y623440D03*
X29240Y579440D03*
X1240Y669819D03*
X15240Y713819D03*
X29240Y669819D03*
D18*
X30590Y411230D03*
X30590Y439670D03*
X590550Y436630D03*
X590550Y465070D03*
D16*
X373130Y704850D03*
X401570Y704850D03*
D17*
X163800Y707900D03*
X177800Y751900D03*
X191800Y707900D03*
X163800Y798420D03*
X177800Y842420D03*
X191800Y798420D03*
D18*
X219130Y518640D03*
X219130Y547080D03*
D16*
X240560Y346930D03*
X269000Y346930D03*
D19*
X347120Y525750D03*
X303120Y539750D03*
X347120Y553750D03*
D20*
X469900Y278100D03*
X469900Y306100D03*
D16*
X403510Y435390D03*
X431950Y435390D03*
D18*
X565150Y436630D03*
X565150Y465070D03*
D16*
X431060Y491410D03*
X459500Y491410D03*
D21*
X464850Y190500D03*
X436850Y190500D03*
D18*
X514350Y592070D03*
X514350Y563630D03*
D16*
X649220Y541290D03*
X620780Y541290D03*
X649220Y566880D03*
X620780Y566880D03*
D21*
X436850Y158750D03*
X464850Y158750D03*
D20*
X603250Y248950D03*
X603250Y220950D03*
D16*
X322170Y347730D03*
X293730Y347730D03*
D18*
X488950Y563630D03*
X488950Y592070D03*
X30590Y492010D03*
X30590Y463570D03*
X218820Y464670D03*
X218820Y493110D03*
X169790Y490250D03*
X169790Y518690D03*
X148040Y490010D03*
X148040Y518450D03*
X158750Y877320D03*
X158750Y905760D03*
D22*
X307400Y79000D03*
X353000Y79000D03*
D23*
X330200Y152000D03*
D24*
X528066Y196850D03*
X528066Y184150D03*
X528066Y171450D03*
X528066Y158750D03*
X602234Y158750D03*
X602234Y171450D03*
X602234Y184150D03*
X602234Y196850D03*
D19*
X320900Y807750D03*
X364900Y793750D03*
X320900Y779750D03*
D25*
X381000Y288700D03*
X381000Y244700D03*
D26*
X311150Y196850D03*
X336550Y196850D03*
D16*
X191520Y878840D03*
X219960Y878840D03*
X673340Y857780D03*
X644900Y857780D03*
D10*
X136920Y36960D03*
X164920Y36960D03*
M02*
