G04 EAGLE Gerber X2 export*
%TF.Part,Single*%
%TF.FileFunction,Soldermask,Top,1*%
%TF.FilePolarity,Positive*%
%TF.GenerationSoftware,Autodesk,EAGLE,9.2.0*%
%TF.CreationDate,2018-10-30T13:39:06Z*%
G75*
%MOMM*%
%FSLAX34Y34*%
%LPD*%
%INSoldermask Top*%
%IPPOS*%
%AMOC8*
5,1,8,0,0,1.08239X$1,22.5*%
G01*
%ADD10C,1.244600*%
%ADD11R,1.451600X1.451600*%
%ADD12C,1.451600*%
%ADD13R,1.701600X1.901600*%
%ADD14R,1.901600X1.701600*%
%ADD15C,1.509600*%
%ADD16R,1.509600X1.509600*%
%ADD17C,1.422400*%
%ADD18R,0.701600X2.301600*%
%ADD19R,2.301600X0.701600*%
%ADD20C,2.051600*%
%ADD21R,0.901600X3.201600*%
%ADD22P,1.539592X8X202.500000*%
%ADD23P,2.446851X8X112.500000*%
%ADD24R,1.371600X2.641600*%
%ADD25C,1.981200*%
%ADD26P,1.539592X8X292.500000*%
%ADD27P,1.539592X8X112.500000*%
%ADD28R,1.701600X1.904600*%
%ADD29R,1.168400X2.286000*%
%ADD30R,1.904600X1.701600*%
%ADD31R,2.286000X1.168400*%
%ADD32R,2.101600X1.701600*%
%ADD33R,1.701600X2.101600*%
%ADD34R,1.981200X1.981200*%
%ADD35P,3.357141X8X112.500000*%
%ADD36R,1.101600X1.701600*%
%ADD37R,5.501600X6.301600*%
%ADD38R,1.651000X0.635000*%
%ADD39P,3.357141X8X22.500000*%
%ADD40P,2.446851X8X22.500000*%
%ADD41P,2.446851X8X202.500000*%
%ADD42R,2.501600X2.501600*%
%ADD43R,1.371600X1.371600*%
%ADD44C,1.901600*%
%ADD45P,4.233877X8X22.500000*%
%ADD46C,1.981200*%
%ADD47C,1.351600*%
%ADD48C,2.901600*%
%ADD49C,1.401600*%


D10*
X318710Y377210D03*
X268710Y377210D03*
D11*
X484900Y809150D03*
D12*
X464900Y809150D03*
D11*
X469900Y695800D03*
D12*
X469900Y675800D03*
D10*
X540150Y565150D03*
X590150Y565150D03*
D11*
X177490Y666880D03*
D12*
X177490Y646880D03*
D11*
X557640Y623650D03*
D12*
X537640Y623650D03*
D11*
X397350Y663480D03*
D12*
X377350Y663480D03*
D13*
X484090Y460470D03*
X456090Y460470D03*
D10*
X463550Y596500D03*
X463550Y546500D03*
X194020Y466910D03*
X194020Y516910D03*
D11*
X86200Y538020D03*
D12*
X66200Y538020D03*
D11*
X511650Y514350D03*
D12*
X491650Y514350D03*
D11*
X515510Y386000D03*
D12*
X535510Y386000D03*
D10*
X5000Y413530D03*
X5000Y463530D03*
D11*
X29050Y533400D03*
D12*
X9050Y533400D03*
D10*
X540150Y533400D03*
X590150Y533400D03*
D11*
X363870Y477000D03*
D12*
X363870Y457000D03*
D11*
X225780Y395840D03*
D12*
X225780Y375840D03*
D13*
X514590Y341550D03*
X542590Y341550D03*
D10*
X634050Y652588D03*
X634050Y702588D03*
D11*
X273050Y47150D03*
D12*
X273050Y67150D03*
D13*
X236250Y82550D03*
X208250Y82550D03*
X379700Y127000D03*
X407700Y127000D03*
D11*
X393700Y167800D03*
D12*
X393700Y187800D03*
D11*
X209550Y117000D03*
D12*
X209550Y137000D03*
D14*
X254000Y113000D03*
X254000Y141000D03*
D10*
X6350Y745160D03*
X6350Y795160D03*
D11*
X651940Y955743D03*
D12*
X671940Y955743D03*
D11*
X533560Y955743D03*
D12*
X553560Y955743D03*
D10*
X558800Y839380D03*
X558800Y889380D03*
X494900Y851870D03*
X444900Y851870D03*
D15*
X336550Y50800D03*
D16*
X311150Y50800D03*
D15*
X279400Y139700D03*
D16*
X279400Y114300D03*
D17*
X283800Y708396D02*
X283800Y721604D01*
X258400Y721604D02*
X258400Y708396D01*
X233000Y708396D02*
X233000Y721604D01*
X233000Y768396D02*
X233000Y781604D01*
X258400Y781604D02*
X258400Y768396D01*
X283800Y768396D02*
X283800Y781604D01*
D18*
X65420Y443900D03*
X65420Y495900D03*
X52720Y443900D03*
X78120Y443900D03*
X90820Y443900D03*
X52720Y495900D03*
X78120Y495900D03*
X90820Y495900D03*
X116220Y443900D03*
X116220Y495900D03*
X103520Y443900D03*
X128920Y443900D03*
X103520Y495900D03*
X128920Y495900D03*
D19*
X432400Y533400D03*
X380400Y533400D03*
X432400Y520700D03*
X432400Y546100D03*
X432400Y558800D03*
X380400Y520700D03*
X380400Y546100D03*
X380400Y558800D03*
X432400Y584200D03*
X380400Y584200D03*
X432400Y571500D03*
X432400Y596900D03*
X380400Y571500D03*
X380400Y596900D03*
D18*
X527050Y483200D03*
X527050Y431200D03*
X539750Y483200D03*
X514350Y483200D03*
X501650Y483200D03*
X539750Y431200D03*
X514350Y431200D03*
X501650Y431200D03*
D20*
X38250Y218850D02*
X18750Y218850D01*
X18750Y381150D02*
X38250Y381150D01*
X145750Y218850D02*
X165250Y218850D01*
X165250Y381150D02*
X145750Y381150D01*
D21*
X342800Y293200D03*
X310800Y293200D03*
X288800Y293200D03*
X266800Y293200D03*
X342800Y240200D03*
X310800Y240200D03*
X288800Y240200D03*
X266800Y240200D03*
D22*
X436900Y300000D03*
X411500Y300000D03*
D23*
X492760Y165100D03*
X493760Y92280D03*
D17*
X283800Y843396D02*
X283800Y856604D01*
X258400Y856604D02*
X258400Y843396D01*
X233000Y843396D02*
X233000Y856604D01*
X233000Y903396D02*
X233000Y916604D01*
X258400Y916604D02*
X258400Y903396D01*
X283800Y903396D02*
X283800Y916604D01*
X73000Y916604D02*
X73000Y903396D01*
X98400Y903396D02*
X98400Y916604D01*
X123800Y916604D02*
X123800Y903396D01*
X123800Y856604D02*
X123800Y843396D01*
X98400Y843396D02*
X98400Y856604D01*
X73000Y856604D02*
X73000Y843396D01*
D24*
X546100Y244400D03*
X571500Y244400D03*
X571500Y314400D03*
X546100Y314400D03*
D20*
X810250Y381150D02*
X829750Y381150D01*
X829750Y218850D02*
X810250Y218850D01*
X702750Y381150D02*
X683250Y381150D01*
X683250Y218850D02*
X702750Y218850D01*
D25*
X527050Y911320D03*
X514350Y892270D03*
X501650Y911320D03*
D26*
X598440Y943045D03*
X617490Y955745D03*
X598440Y968445D03*
D27*
X521970Y760080D03*
X502920Y747380D03*
X521970Y734680D03*
D25*
X534560Y696580D03*
X553610Y683880D03*
X534560Y671180D03*
D28*
X403340Y460470D03*
X431780Y460470D03*
X471420Y876490D03*
X442980Y876490D03*
X589030Y882650D03*
X617470Y882650D03*
X350230Y886260D03*
X321790Y886260D03*
X433320Y781050D03*
X404880Y781050D03*
D29*
X322550Y657450D03*
X336550Y701450D03*
X350550Y657450D03*
D28*
X617470Y857250D03*
X589030Y857250D03*
D30*
X519350Y820290D03*
X519350Y791850D03*
X431800Y671580D03*
X431800Y700020D03*
D28*
X458720Y730250D03*
X430280Y730250D03*
D30*
X590550Y696370D03*
X590550Y667930D03*
X741470Y679260D03*
X741470Y650820D03*
D31*
X501140Y619270D03*
X457140Y633270D03*
X501140Y647270D03*
X363630Y728950D03*
X319630Y742950D03*
X363630Y756950D03*
D29*
X350550Y625250D03*
X336550Y581250D03*
X322550Y625250D03*
D30*
X170910Y444770D03*
X170910Y416330D03*
D28*
X112590Y417370D03*
X141030Y417370D03*
D29*
X1240Y579440D03*
X15240Y623440D03*
X29240Y579440D03*
X1240Y669819D03*
X15240Y713819D03*
X29240Y669819D03*
D30*
X30590Y411230D03*
X30590Y439670D03*
X590550Y436630D03*
X590550Y465070D03*
D28*
X373130Y704850D03*
X401570Y704850D03*
D29*
X163800Y707900D03*
X177800Y751900D03*
X191800Y707900D03*
X163800Y798420D03*
X177800Y842420D03*
X191800Y798420D03*
D30*
X219130Y518640D03*
X219130Y547080D03*
D28*
X240560Y346930D03*
X269000Y346930D03*
D31*
X347120Y525750D03*
X303120Y539750D03*
X347120Y553750D03*
D32*
X469900Y278100D03*
X469900Y306100D03*
D28*
X403510Y435390D03*
X431950Y435390D03*
D30*
X565150Y436630D03*
X565150Y465070D03*
D28*
X431060Y491410D03*
X459500Y491410D03*
D33*
X464850Y190500D03*
X436850Y190500D03*
D30*
X514350Y592070D03*
X514350Y563630D03*
D28*
X649220Y541290D03*
X620780Y541290D03*
X649220Y566880D03*
X620780Y566880D03*
D33*
X436850Y158750D03*
X464850Y158750D03*
D32*
X603250Y248950D03*
X603250Y220950D03*
D28*
X322170Y347730D03*
X293730Y347730D03*
D30*
X488950Y563630D03*
X488950Y592070D03*
X30590Y492010D03*
X30590Y463570D03*
X218820Y464670D03*
X218820Y493110D03*
X169790Y490250D03*
X169790Y518690D03*
X148040Y490010D03*
X148040Y518450D03*
X158750Y877320D03*
X158750Y905760D03*
D34*
X645000Y890000D03*
X670000Y890000D03*
X695000Y890000D03*
D35*
X626000Y820000D03*
X714000Y820000D03*
D15*
X323850Y863600D03*
D16*
X323850Y838200D03*
D15*
X356870Y834390D03*
D16*
X356870Y859790D03*
D15*
X672562Y650113D03*
D16*
X672562Y675513D03*
D15*
X712470Y679450D03*
D16*
X712470Y654050D03*
D36*
X307400Y79000D03*
X353000Y79000D03*
D37*
X330200Y152000D03*
D38*
X528066Y196850D03*
X528066Y184150D03*
X528066Y171450D03*
X528066Y158750D03*
X602234Y158750D03*
X602234Y171450D03*
X602234Y184150D03*
X602234Y196850D03*
D34*
X328400Y490400D03*
X328400Y465400D03*
X328400Y440400D03*
D39*
X258400Y509400D03*
X258400Y421400D03*
D31*
X320900Y807750D03*
X364900Y793750D03*
X320900Y779750D03*
D17*
X73000Y781604D02*
X73000Y768396D01*
X98400Y768396D02*
X98400Y781604D01*
X123800Y781604D02*
X123800Y768396D01*
X123800Y721604D02*
X123800Y708396D01*
X98400Y708396D02*
X98400Y721604D01*
X73000Y721604D02*
X73000Y708396D01*
D40*
X133350Y69850D03*
D41*
X171450Y69850D03*
D42*
X381000Y288700D03*
X381000Y244700D03*
D43*
X311150Y196850D03*
X336550Y196850D03*
D44*
X640000Y601000D02*
X640000Y619000D01*
X620000Y619000D02*
X620000Y601000D01*
X720000Y601000D02*
X720000Y619000D01*
X660000Y619000D02*
X660000Y601000D01*
X680000Y601000D02*
X680000Y619000D01*
X700000Y619000D02*
X700000Y601000D01*
D45*
X610000Y500000D03*
X730000Y500000D03*
D46*
X660400Y130048D02*
X660400Y111252D01*
X635000Y111252D02*
X635000Y130048D01*
X609600Y130048D02*
X609600Y111252D01*
X584200Y111252D02*
X584200Y130048D01*
X558800Y130048D02*
X558800Y111252D01*
X533400Y111252D02*
X533400Y130048D01*
D20*
X78000Y135000D02*
X78000Y115500D01*
X110000Y115500D02*
X110000Y135000D01*
X142000Y135000D02*
X142000Y115500D01*
X142000Y165000D02*
X142000Y184500D01*
X110000Y184500D02*
X110000Y165000D01*
X78000Y165000D02*
X78000Y184500D01*
D47*
X53000Y120000D03*
X167000Y180000D03*
D48*
X89200Y960000D03*
X759200Y960000D03*
D10*
X456400Y755650D03*
X406400Y755650D03*
X424650Y622300D03*
X374650Y622300D03*
X583140Y759160D03*
X633140Y759160D03*
X400050Y869550D03*
X400050Y819550D03*
D15*
X355280Y929020D03*
D16*
X355280Y954420D03*
D15*
X321990Y957500D03*
D16*
X321990Y932100D03*
D22*
X431800Y241300D03*
X444500Y222250D03*
X457200Y241300D03*
D28*
X191520Y878840D03*
X219960Y878840D03*
X673340Y857780D03*
X644900Y857780D03*
D17*
X73000Y586604D02*
X73000Y573396D01*
X98400Y573396D02*
X98400Y586604D01*
X123800Y586604D02*
X123800Y573396D01*
X123800Y633396D02*
X123800Y646604D01*
X98400Y646604D02*
X98400Y633396D01*
X73000Y633396D02*
X73000Y646604D01*
X283800Y646604D02*
X283800Y633396D01*
X258400Y633396D02*
X258400Y646604D01*
X233000Y646604D02*
X233000Y633396D01*
X233000Y586604D02*
X233000Y573396D01*
X258400Y573396D02*
X258400Y586604D01*
X283800Y586604D02*
X283800Y573396D01*
D10*
X673612Y711120D03*
X673612Y761120D03*
D48*
X30680Y69880D03*
X823880Y74500D03*
D49*
X133980Y93940D03*
X170940Y93940D03*
X492800Y117040D03*
X492800Y140140D03*
D13*
X136920Y36960D03*
X164920Y36960D03*
M02*
