G04 EAGLE Gerber RS-274X export*
G75*
%MOMM*%
%FSLAX34Y34*%
%LPD*%
%INSolder Mask top*%
%IPPOS*%
%AMOC8*
5,1,8,0,0,1.08239X$1,22.5*%
G01*
%ADD10C,0.000000*%
%ADD11C,1.244600*%
%ADD12R,1.451600X1.451600*%
%ADD13C,1.451600*%
%ADD14R,1.901600X1.701600*%
%ADD15R,1.701600X1.901600*%
%ADD16C,1.509600*%
%ADD17R,1.509600X1.509600*%
%ADD18C,1.422400*%
%ADD19C,1.101600*%
%ADD20R,0.701600X2.301600*%
%ADD21R,2.301600X0.701600*%
%ADD22C,2.051600*%
%ADD23C,3.101600*%
%ADD24R,0.901600X3.201600*%
%ADD25P,1.539592X8X202.500000*%
%ADD26P,2.446851X8X112.500000*%
%ADD27R,1.371600X2.641600*%
%ADD28C,1.981200*%
%ADD29P,1.539592X8X292.500000*%
%ADD30P,1.539592X8X112.500000*%
%ADD31R,1.701600X1.904600*%
%ADD32R,1.422400X2.286000*%
%ADD33R,1.904600X1.701600*%
%ADD34R,2.286000X1.422400*%
%ADD35R,2.101600X1.701600*%
%ADD36R,1.701600X2.101600*%
%ADD37R,1.981200X1.981200*%
%ADD38P,3.357141X8X112.500000*%
%ADD39R,1.101600X1.701600*%
%ADD40R,5.501600X6.301600*%
%ADD41R,1.651000X0.635000*%
%ADD42P,3.357141X8X22.500000*%
%ADD43P,2.446851X8X22.500000*%
%ADD44P,2.446851X8X202.500000*%
%ADD45R,2.501600X2.501600*%
%ADD46R,1.371600X1.371600*%
%ADD47C,1.901600*%
%ADD48P,4.233877X8X22.500000*%
%ADD49C,1.981200*%
%ADD50C,1.351600*%
%ADD51C,2.901600*%
%ADD52C,1.401600*%


D10*
X917000Y820000D02*
X843000Y820000D01*
X843000Y990000D01*
X750000Y1000000D01*
X525000Y1000000D01*
X525000Y900000D01*
X480000Y900000D01*
X480000Y895000D01*
X470000Y895000D01*
X470000Y900000D01*
X425000Y900000D01*
X425000Y1000000D01*
X200000Y1000000D01*
X107000Y990000D01*
X107000Y820000D01*
X33000Y820000D01*
X50000Y30000D02*
X300000Y0D01*
X470000Y0D01*
X470000Y5000D01*
X480000Y5000D01*
X480000Y0D01*
X650000Y0D01*
X900000Y30000D01*
X900000Y38900D01*
X917000Y50800D01*
X917000Y820000D01*
X33000Y820000D02*
X33100Y50800D01*
X50000Y38900D01*
X50000Y30000D01*
D11*
X369510Y377210D03*
X319510Y377210D03*
D12*
X525700Y799150D03*
D13*
X525700Y819150D03*
D12*
X520700Y695800D03*
D13*
X520700Y675800D03*
D12*
X227212Y668498D03*
D13*
X227212Y648498D03*
D12*
X622749Y624127D03*
D13*
X602749Y624127D03*
D12*
X448150Y663480D03*
D13*
X428150Y663480D03*
D14*
X521847Y451022D03*
X521847Y423022D03*
D11*
X514350Y596500D03*
X514350Y546500D03*
X247334Y497833D03*
X247334Y547833D03*
D12*
X227423Y590350D03*
D13*
X227423Y610350D03*
D12*
X562450Y514350D03*
D13*
X542450Y514350D03*
D12*
X564801Y384258D03*
D13*
X584801Y384258D03*
D11*
X50691Y471019D03*
X50691Y521019D03*
D12*
X237276Y722116D03*
D13*
X217276Y722116D03*
D11*
X591173Y543656D03*
X641173Y543656D03*
D12*
X414670Y477000D03*
D13*
X414670Y457000D03*
D12*
X276580Y395840D03*
D13*
X276580Y375840D03*
D15*
X541988Y339637D03*
X569988Y339637D03*
D11*
X684850Y652588D03*
X684850Y702588D03*
D12*
X323850Y47150D03*
D13*
X323850Y67150D03*
D15*
X287050Y82550D03*
X259050Y82550D03*
X430500Y127000D03*
X458500Y127000D03*
D12*
X444500Y167800D03*
D13*
X444500Y187800D03*
D12*
X260350Y117000D03*
D13*
X260350Y137000D03*
D14*
X304800Y113000D03*
X304800Y141000D03*
D11*
X57150Y745160D03*
X57150Y795160D03*
D12*
X702740Y955743D03*
D13*
X722740Y955743D03*
D12*
X584360Y955743D03*
D13*
X604360Y955743D03*
D11*
X609600Y839380D03*
X609600Y889380D03*
X545700Y851870D03*
X495700Y851870D03*
D16*
X387350Y50800D03*
D17*
X361950Y50800D03*
D16*
X330200Y139700D03*
D17*
X330200Y114300D03*
D18*
X334200Y708396D02*
X334200Y721604D01*
X309200Y721604D02*
X309200Y708396D01*
X284200Y708396D02*
X284200Y721604D01*
X284200Y768396D02*
X284200Y781604D01*
X309200Y781604D02*
X309200Y768396D01*
X334200Y768396D02*
X334200Y781604D01*
D10*
X304200Y745000D02*
X304202Y745141D01*
X304208Y745282D01*
X304218Y745422D01*
X304232Y745562D01*
X304250Y745702D01*
X304271Y745841D01*
X304297Y745980D01*
X304326Y746118D01*
X304360Y746254D01*
X304397Y746390D01*
X304438Y746525D01*
X304483Y746659D01*
X304532Y746791D01*
X304584Y746922D01*
X304640Y747051D01*
X304700Y747178D01*
X304763Y747304D01*
X304829Y747428D01*
X304900Y747551D01*
X304973Y747671D01*
X305050Y747789D01*
X305130Y747905D01*
X305214Y748018D01*
X305300Y748129D01*
X305390Y748238D01*
X305483Y748344D01*
X305578Y748447D01*
X305677Y748548D01*
X305778Y748646D01*
X305882Y748741D01*
X305989Y748833D01*
X306098Y748922D01*
X306210Y749007D01*
X306324Y749090D01*
X306440Y749170D01*
X306559Y749246D01*
X306680Y749318D01*
X306802Y749388D01*
X306927Y749453D01*
X307053Y749516D01*
X307181Y749574D01*
X307311Y749629D01*
X307442Y749681D01*
X307575Y749728D01*
X307709Y749772D01*
X307844Y749813D01*
X307980Y749849D01*
X308117Y749881D01*
X308255Y749910D01*
X308393Y749935D01*
X308533Y749955D01*
X308673Y749972D01*
X308813Y749985D01*
X308954Y749994D01*
X309094Y749999D01*
X309235Y750000D01*
X309376Y749997D01*
X309517Y749990D01*
X309657Y749979D01*
X309797Y749964D01*
X309937Y749945D01*
X310076Y749923D01*
X310214Y749896D01*
X310352Y749866D01*
X310488Y749831D01*
X310624Y749793D01*
X310758Y749751D01*
X310892Y749705D01*
X311024Y749656D01*
X311154Y749602D01*
X311283Y749545D01*
X311410Y749485D01*
X311536Y749421D01*
X311659Y749353D01*
X311781Y749282D01*
X311901Y749208D01*
X312018Y749130D01*
X312133Y749049D01*
X312246Y748965D01*
X312357Y748878D01*
X312465Y748787D01*
X312570Y748694D01*
X312673Y748597D01*
X312773Y748498D01*
X312870Y748396D01*
X312964Y748291D01*
X313055Y748184D01*
X313143Y748074D01*
X313228Y747962D01*
X313310Y747847D01*
X313389Y747730D01*
X313464Y747611D01*
X313536Y747490D01*
X313604Y747367D01*
X313669Y747242D01*
X313731Y747115D01*
X313788Y746986D01*
X313843Y746856D01*
X313893Y746725D01*
X313940Y746592D01*
X313983Y746458D01*
X314022Y746322D01*
X314057Y746186D01*
X314089Y746049D01*
X314116Y745911D01*
X314140Y745772D01*
X314160Y745632D01*
X314176Y745492D01*
X314188Y745352D01*
X314196Y745211D01*
X314200Y745070D01*
X314200Y744930D01*
X314196Y744789D01*
X314188Y744648D01*
X314176Y744508D01*
X314160Y744368D01*
X314140Y744228D01*
X314116Y744089D01*
X314089Y743951D01*
X314057Y743814D01*
X314022Y743678D01*
X313983Y743542D01*
X313940Y743408D01*
X313893Y743275D01*
X313843Y743144D01*
X313788Y743014D01*
X313731Y742885D01*
X313669Y742758D01*
X313604Y742633D01*
X313536Y742510D01*
X313464Y742389D01*
X313389Y742270D01*
X313310Y742153D01*
X313228Y742038D01*
X313143Y741926D01*
X313055Y741816D01*
X312964Y741709D01*
X312870Y741604D01*
X312773Y741502D01*
X312673Y741403D01*
X312570Y741306D01*
X312465Y741213D01*
X312357Y741122D01*
X312246Y741035D01*
X312133Y740951D01*
X312018Y740870D01*
X311901Y740792D01*
X311781Y740718D01*
X311659Y740647D01*
X311536Y740579D01*
X311410Y740515D01*
X311283Y740455D01*
X311154Y740398D01*
X311024Y740344D01*
X310892Y740295D01*
X310758Y740249D01*
X310624Y740207D01*
X310488Y740169D01*
X310352Y740134D01*
X310214Y740104D01*
X310076Y740077D01*
X309937Y740055D01*
X309797Y740036D01*
X309657Y740021D01*
X309517Y740010D01*
X309376Y740003D01*
X309235Y740000D01*
X309094Y740001D01*
X308954Y740006D01*
X308813Y740015D01*
X308673Y740028D01*
X308533Y740045D01*
X308393Y740065D01*
X308255Y740090D01*
X308117Y740119D01*
X307980Y740151D01*
X307844Y740187D01*
X307709Y740228D01*
X307575Y740272D01*
X307442Y740319D01*
X307311Y740371D01*
X307181Y740426D01*
X307053Y740484D01*
X306927Y740547D01*
X306802Y740612D01*
X306680Y740682D01*
X306559Y740754D01*
X306440Y740830D01*
X306324Y740910D01*
X306210Y740993D01*
X306098Y741078D01*
X305989Y741167D01*
X305882Y741259D01*
X305778Y741354D01*
X305677Y741452D01*
X305578Y741553D01*
X305483Y741656D01*
X305390Y741762D01*
X305300Y741871D01*
X305214Y741982D01*
X305130Y742095D01*
X305050Y742211D01*
X304973Y742329D01*
X304900Y742449D01*
X304829Y742572D01*
X304763Y742696D01*
X304700Y742822D01*
X304640Y742949D01*
X304584Y743078D01*
X304532Y743209D01*
X304483Y743341D01*
X304438Y743475D01*
X304397Y743610D01*
X304360Y743746D01*
X304326Y743882D01*
X304297Y744020D01*
X304271Y744159D01*
X304250Y744298D01*
X304232Y744438D01*
X304218Y744578D01*
X304208Y744718D01*
X304202Y744859D01*
X304200Y745000D01*
D19*
X309200Y745000D03*
D20*
X111561Y472640D03*
X111561Y524640D03*
X98861Y472640D03*
X124261Y472640D03*
X136961Y472640D03*
X98861Y524640D03*
X124261Y524640D03*
X136961Y524640D03*
X162361Y472640D03*
X162361Y524640D03*
X149661Y472640D03*
X175061Y472640D03*
X149661Y524640D03*
X175061Y524640D03*
D21*
X483200Y533400D03*
X431200Y533400D03*
X483200Y520700D03*
X483200Y546100D03*
X483200Y558800D03*
X431200Y520700D03*
X431200Y546100D03*
X431200Y558800D03*
X483200Y584200D03*
X431200Y584200D03*
X483200Y571500D03*
X483200Y596900D03*
X431200Y571500D03*
X431200Y596900D03*
D20*
X577850Y483200D03*
X577850Y431200D03*
X590550Y483200D03*
X565150Y483200D03*
X552450Y483200D03*
X590550Y431200D03*
X565150Y431200D03*
X552450Y431200D03*
D22*
X89050Y218850D02*
X69550Y218850D01*
X69550Y381150D02*
X89050Y381150D01*
X196550Y218850D02*
X216050Y218850D01*
X216050Y381150D02*
X196550Y381150D01*
D10*
X127800Y211100D02*
X127805Y211468D01*
X127818Y211836D01*
X127841Y212203D01*
X127872Y212570D01*
X127913Y212936D01*
X127962Y213301D01*
X128021Y213664D01*
X128088Y214026D01*
X128164Y214387D01*
X128250Y214745D01*
X128343Y215101D01*
X128446Y215454D01*
X128557Y215805D01*
X128677Y216153D01*
X128805Y216498D01*
X128942Y216840D01*
X129087Y217179D01*
X129240Y217513D01*
X129402Y217844D01*
X129571Y218171D01*
X129749Y218493D01*
X129934Y218812D01*
X130127Y219125D01*
X130328Y219434D01*
X130536Y219737D01*
X130752Y220035D01*
X130975Y220328D01*
X131205Y220616D01*
X131442Y220898D01*
X131686Y221173D01*
X131936Y221443D01*
X132193Y221707D01*
X132457Y221964D01*
X132727Y222214D01*
X133002Y222458D01*
X133284Y222695D01*
X133572Y222925D01*
X133865Y223148D01*
X134163Y223364D01*
X134466Y223572D01*
X134775Y223773D01*
X135088Y223966D01*
X135407Y224151D01*
X135729Y224329D01*
X136056Y224498D01*
X136387Y224660D01*
X136721Y224813D01*
X137060Y224958D01*
X137402Y225095D01*
X137747Y225223D01*
X138095Y225343D01*
X138446Y225454D01*
X138799Y225557D01*
X139155Y225650D01*
X139513Y225736D01*
X139874Y225812D01*
X140236Y225879D01*
X140599Y225938D01*
X140964Y225987D01*
X141330Y226028D01*
X141697Y226059D01*
X142064Y226082D01*
X142432Y226095D01*
X142800Y226100D01*
X143168Y226095D01*
X143536Y226082D01*
X143903Y226059D01*
X144270Y226028D01*
X144636Y225987D01*
X145001Y225938D01*
X145364Y225879D01*
X145726Y225812D01*
X146087Y225736D01*
X146445Y225650D01*
X146801Y225557D01*
X147154Y225454D01*
X147505Y225343D01*
X147853Y225223D01*
X148198Y225095D01*
X148540Y224958D01*
X148879Y224813D01*
X149213Y224660D01*
X149544Y224498D01*
X149871Y224329D01*
X150193Y224151D01*
X150512Y223966D01*
X150825Y223773D01*
X151134Y223572D01*
X151437Y223364D01*
X151735Y223148D01*
X152028Y222925D01*
X152316Y222695D01*
X152598Y222458D01*
X152873Y222214D01*
X153143Y221964D01*
X153407Y221707D01*
X153664Y221443D01*
X153914Y221173D01*
X154158Y220898D01*
X154395Y220616D01*
X154625Y220328D01*
X154848Y220035D01*
X155064Y219737D01*
X155272Y219434D01*
X155473Y219125D01*
X155666Y218812D01*
X155851Y218493D01*
X156029Y218171D01*
X156198Y217844D01*
X156360Y217513D01*
X156513Y217179D01*
X156658Y216840D01*
X156795Y216498D01*
X156923Y216153D01*
X157043Y215805D01*
X157154Y215454D01*
X157257Y215101D01*
X157350Y214745D01*
X157436Y214387D01*
X157512Y214026D01*
X157579Y213664D01*
X157638Y213301D01*
X157687Y212936D01*
X157728Y212570D01*
X157759Y212203D01*
X157782Y211836D01*
X157795Y211468D01*
X157800Y211100D01*
X157795Y210732D01*
X157782Y210364D01*
X157759Y209997D01*
X157728Y209630D01*
X157687Y209264D01*
X157638Y208899D01*
X157579Y208536D01*
X157512Y208174D01*
X157436Y207813D01*
X157350Y207455D01*
X157257Y207099D01*
X157154Y206746D01*
X157043Y206395D01*
X156923Y206047D01*
X156795Y205702D01*
X156658Y205360D01*
X156513Y205021D01*
X156360Y204687D01*
X156198Y204356D01*
X156029Y204029D01*
X155851Y203707D01*
X155666Y203388D01*
X155473Y203075D01*
X155272Y202766D01*
X155064Y202463D01*
X154848Y202165D01*
X154625Y201872D01*
X154395Y201584D01*
X154158Y201302D01*
X153914Y201027D01*
X153664Y200757D01*
X153407Y200493D01*
X153143Y200236D01*
X152873Y199986D01*
X152598Y199742D01*
X152316Y199505D01*
X152028Y199275D01*
X151735Y199052D01*
X151437Y198836D01*
X151134Y198628D01*
X150825Y198427D01*
X150512Y198234D01*
X150193Y198049D01*
X149871Y197871D01*
X149544Y197702D01*
X149213Y197540D01*
X148879Y197387D01*
X148540Y197242D01*
X148198Y197105D01*
X147853Y196977D01*
X147505Y196857D01*
X147154Y196746D01*
X146801Y196643D01*
X146445Y196550D01*
X146087Y196464D01*
X145726Y196388D01*
X145364Y196321D01*
X145001Y196262D01*
X144636Y196213D01*
X144270Y196172D01*
X143903Y196141D01*
X143536Y196118D01*
X143168Y196105D01*
X142800Y196100D01*
X142432Y196105D01*
X142064Y196118D01*
X141697Y196141D01*
X141330Y196172D01*
X140964Y196213D01*
X140599Y196262D01*
X140236Y196321D01*
X139874Y196388D01*
X139513Y196464D01*
X139155Y196550D01*
X138799Y196643D01*
X138446Y196746D01*
X138095Y196857D01*
X137747Y196977D01*
X137402Y197105D01*
X137060Y197242D01*
X136721Y197387D01*
X136387Y197540D01*
X136056Y197702D01*
X135729Y197871D01*
X135407Y198049D01*
X135088Y198234D01*
X134775Y198427D01*
X134466Y198628D01*
X134163Y198836D01*
X133865Y199052D01*
X133572Y199275D01*
X133284Y199505D01*
X133002Y199742D01*
X132727Y199986D01*
X132457Y200236D01*
X132193Y200493D01*
X131936Y200757D01*
X131686Y201027D01*
X131442Y201302D01*
X131205Y201584D01*
X130975Y201872D01*
X130752Y202165D01*
X130536Y202463D01*
X130328Y202766D01*
X130127Y203075D01*
X129934Y203388D01*
X129749Y203707D01*
X129571Y204029D01*
X129402Y204356D01*
X129240Y204687D01*
X129087Y205021D01*
X128942Y205360D01*
X128805Y205702D01*
X128677Y206047D01*
X128557Y206395D01*
X128446Y206746D01*
X128343Y207099D01*
X128250Y207455D01*
X128164Y207813D01*
X128088Y208174D01*
X128021Y208536D01*
X127962Y208899D01*
X127913Y209264D01*
X127872Y209630D01*
X127841Y209997D01*
X127818Y210364D01*
X127805Y210732D01*
X127800Y211100D01*
D23*
X142800Y211100D03*
D10*
X127800Y388900D02*
X127805Y389268D01*
X127818Y389636D01*
X127841Y390003D01*
X127872Y390370D01*
X127913Y390736D01*
X127962Y391101D01*
X128021Y391464D01*
X128088Y391826D01*
X128164Y392187D01*
X128250Y392545D01*
X128343Y392901D01*
X128446Y393254D01*
X128557Y393605D01*
X128677Y393953D01*
X128805Y394298D01*
X128942Y394640D01*
X129087Y394979D01*
X129240Y395313D01*
X129402Y395644D01*
X129571Y395971D01*
X129749Y396293D01*
X129934Y396612D01*
X130127Y396925D01*
X130328Y397234D01*
X130536Y397537D01*
X130752Y397835D01*
X130975Y398128D01*
X131205Y398416D01*
X131442Y398698D01*
X131686Y398973D01*
X131936Y399243D01*
X132193Y399507D01*
X132457Y399764D01*
X132727Y400014D01*
X133002Y400258D01*
X133284Y400495D01*
X133572Y400725D01*
X133865Y400948D01*
X134163Y401164D01*
X134466Y401372D01*
X134775Y401573D01*
X135088Y401766D01*
X135407Y401951D01*
X135729Y402129D01*
X136056Y402298D01*
X136387Y402460D01*
X136721Y402613D01*
X137060Y402758D01*
X137402Y402895D01*
X137747Y403023D01*
X138095Y403143D01*
X138446Y403254D01*
X138799Y403357D01*
X139155Y403450D01*
X139513Y403536D01*
X139874Y403612D01*
X140236Y403679D01*
X140599Y403738D01*
X140964Y403787D01*
X141330Y403828D01*
X141697Y403859D01*
X142064Y403882D01*
X142432Y403895D01*
X142800Y403900D01*
X143168Y403895D01*
X143536Y403882D01*
X143903Y403859D01*
X144270Y403828D01*
X144636Y403787D01*
X145001Y403738D01*
X145364Y403679D01*
X145726Y403612D01*
X146087Y403536D01*
X146445Y403450D01*
X146801Y403357D01*
X147154Y403254D01*
X147505Y403143D01*
X147853Y403023D01*
X148198Y402895D01*
X148540Y402758D01*
X148879Y402613D01*
X149213Y402460D01*
X149544Y402298D01*
X149871Y402129D01*
X150193Y401951D01*
X150512Y401766D01*
X150825Y401573D01*
X151134Y401372D01*
X151437Y401164D01*
X151735Y400948D01*
X152028Y400725D01*
X152316Y400495D01*
X152598Y400258D01*
X152873Y400014D01*
X153143Y399764D01*
X153407Y399507D01*
X153664Y399243D01*
X153914Y398973D01*
X154158Y398698D01*
X154395Y398416D01*
X154625Y398128D01*
X154848Y397835D01*
X155064Y397537D01*
X155272Y397234D01*
X155473Y396925D01*
X155666Y396612D01*
X155851Y396293D01*
X156029Y395971D01*
X156198Y395644D01*
X156360Y395313D01*
X156513Y394979D01*
X156658Y394640D01*
X156795Y394298D01*
X156923Y393953D01*
X157043Y393605D01*
X157154Y393254D01*
X157257Y392901D01*
X157350Y392545D01*
X157436Y392187D01*
X157512Y391826D01*
X157579Y391464D01*
X157638Y391101D01*
X157687Y390736D01*
X157728Y390370D01*
X157759Y390003D01*
X157782Y389636D01*
X157795Y389268D01*
X157800Y388900D01*
X157795Y388532D01*
X157782Y388164D01*
X157759Y387797D01*
X157728Y387430D01*
X157687Y387064D01*
X157638Y386699D01*
X157579Y386336D01*
X157512Y385974D01*
X157436Y385613D01*
X157350Y385255D01*
X157257Y384899D01*
X157154Y384546D01*
X157043Y384195D01*
X156923Y383847D01*
X156795Y383502D01*
X156658Y383160D01*
X156513Y382821D01*
X156360Y382487D01*
X156198Y382156D01*
X156029Y381829D01*
X155851Y381507D01*
X155666Y381188D01*
X155473Y380875D01*
X155272Y380566D01*
X155064Y380263D01*
X154848Y379965D01*
X154625Y379672D01*
X154395Y379384D01*
X154158Y379102D01*
X153914Y378827D01*
X153664Y378557D01*
X153407Y378293D01*
X153143Y378036D01*
X152873Y377786D01*
X152598Y377542D01*
X152316Y377305D01*
X152028Y377075D01*
X151735Y376852D01*
X151437Y376636D01*
X151134Y376428D01*
X150825Y376227D01*
X150512Y376034D01*
X150193Y375849D01*
X149871Y375671D01*
X149544Y375502D01*
X149213Y375340D01*
X148879Y375187D01*
X148540Y375042D01*
X148198Y374905D01*
X147853Y374777D01*
X147505Y374657D01*
X147154Y374546D01*
X146801Y374443D01*
X146445Y374350D01*
X146087Y374264D01*
X145726Y374188D01*
X145364Y374121D01*
X145001Y374062D01*
X144636Y374013D01*
X144270Y373972D01*
X143903Y373941D01*
X143536Y373918D01*
X143168Y373905D01*
X142800Y373900D01*
X142432Y373905D01*
X142064Y373918D01*
X141697Y373941D01*
X141330Y373972D01*
X140964Y374013D01*
X140599Y374062D01*
X140236Y374121D01*
X139874Y374188D01*
X139513Y374264D01*
X139155Y374350D01*
X138799Y374443D01*
X138446Y374546D01*
X138095Y374657D01*
X137747Y374777D01*
X137402Y374905D01*
X137060Y375042D01*
X136721Y375187D01*
X136387Y375340D01*
X136056Y375502D01*
X135729Y375671D01*
X135407Y375849D01*
X135088Y376034D01*
X134775Y376227D01*
X134466Y376428D01*
X134163Y376636D01*
X133865Y376852D01*
X133572Y377075D01*
X133284Y377305D01*
X133002Y377542D01*
X132727Y377786D01*
X132457Y378036D01*
X132193Y378293D01*
X131936Y378557D01*
X131686Y378827D01*
X131442Y379102D01*
X131205Y379384D01*
X130975Y379672D01*
X130752Y379965D01*
X130536Y380263D01*
X130328Y380566D01*
X130127Y380875D01*
X129934Y381188D01*
X129749Y381507D01*
X129571Y381829D01*
X129402Y382156D01*
X129240Y382487D01*
X129087Y382821D01*
X128942Y383160D01*
X128805Y383502D01*
X128677Y383847D01*
X128557Y384195D01*
X128446Y384546D01*
X128343Y384899D01*
X128250Y385255D01*
X128164Y385613D01*
X128088Y385974D01*
X128021Y386336D01*
X127962Y386699D01*
X127913Y387064D01*
X127872Y387430D01*
X127841Y387797D01*
X127818Y388164D01*
X127805Y388532D01*
X127800Y388900D01*
D23*
X142800Y388900D03*
D24*
X393600Y293200D03*
X361600Y293200D03*
X339600Y293200D03*
X317600Y293200D03*
X393600Y240200D03*
X361600Y240200D03*
X339600Y240200D03*
X317600Y240200D03*
D25*
X487700Y300000D03*
X462300Y300000D03*
D26*
X543560Y165100D03*
X544560Y92280D03*
D18*
X334200Y843396D02*
X334200Y856604D01*
X309200Y856604D02*
X309200Y843396D01*
X284200Y843396D02*
X284200Y856604D01*
X284200Y903396D02*
X284200Y916604D01*
X309200Y916604D02*
X309200Y903396D01*
X334200Y903396D02*
X334200Y916604D01*
D10*
X304200Y880000D02*
X304202Y880141D01*
X304208Y880282D01*
X304218Y880422D01*
X304232Y880562D01*
X304250Y880702D01*
X304271Y880841D01*
X304297Y880980D01*
X304326Y881118D01*
X304360Y881254D01*
X304397Y881390D01*
X304438Y881525D01*
X304483Y881659D01*
X304532Y881791D01*
X304584Y881922D01*
X304640Y882051D01*
X304700Y882178D01*
X304763Y882304D01*
X304829Y882428D01*
X304900Y882551D01*
X304973Y882671D01*
X305050Y882789D01*
X305130Y882905D01*
X305214Y883018D01*
X305300Y883129D01*
X305390Y883238D01*
X305483Y883344D01*
X305578Y883447D01*
X305677Y883548D01*
X305778Y883646D01*
X305882Y883741D01*
X305989Y883833D01*
X306098Y883922D01*
X306210Y884007D01*
X306324Y884090D01*
X306440Y884170D01*
X306559Y884246D01*
X306680Y884318D01*
X306802Y884388D01*
X306927Y884453D01*
X307053Y884516D01*
X307181Y884574D01*
X307311Y884629D01*
X307442Y884681D01*
X307575Y884728D01*
X307709Y884772D01*
X307844Y884813D01*
X307980Y884849D01*
X308117Y884881D01*
X308255Y884910D01*
X308393Y884935D01*
X308533Y884955D01*
X308673Y884972D01*
X308813Y884985D01*
X308954Y884994D01*
X309094Y884999D01*
X309235Y885000D01*
X309376Y884997D01*
X309517Y884990D01*
X309657Y884979D01*
X309797Y884964D01*
X309937Y884945D01*
X310076Y884923D01*
X310214Y884896D01*
X310352Y884866D01*
X310488Y884831D01*
X310624Y884793D01*
X310758Y884751D01*
X310892Y884705D01*
X311024Y884656D01*
X311154Y884602D01*
X311283Y884545D01*
X311410Y884485D01*
X311536Y884421D01*
X311659Y884353D01*
X311781Y884282D01*
X311901Y884208D01*
X312018Y884130D01*
X312133Y884049D01*
X312246Y883965D01*
X312357Y883878D01*
X312465Y883787D01*
X312570Y883694D01*
X312673Y883597D01*
X312773Y883498D01*
X312870Y883396D01*
X312964Y883291D01*
X313055Y883184D01*
X313143Y883074D01*
X313228Y882962D01*
X313310Y882847D01*
X313389Y882730D01*
X313464Y882611D01*
X313536Y882490D01*
X313604Y882367D01*
X313669Y882242D01*
X313731Y882115D01*
X313788Y881986D01*
X313843Y881856D01*
X313893Y881725D01*
X313940Y881592D01*
X313983Y881458D01*
X314022Y881322D01*
X314057Y881186D01*
X314089Y881049D01*
X314116Y880911D01*
X314140Y880772D01*
X314160Y880632D01*
X314176Y880492D01*
X314188Y880352D01*
X314196Y880211D01*
X314200Y880070D01*
X314200Y879930D01*
X314196Y879789D01*
X314188Y879648D01*
X314176Y879508D01*
X314160Y879368D01*
X314140Y879228D01*
X314116Y879089D01*
X314089Y878951D01*
X314057Y878814D01*
X314022Y878678D01*
X313983Y878542D01*
X313940Y878408D01*
X313893Y878275D01*
X313843Y878144D01*
X313788Y878014D01*
X313731Y877885D01*
X313669Y877758D01*
X313604Y877633D01*
X313536Y877510D01*
X313464Y877389D01*
X313389Y877270D01*
X313310Y877153D01*
X313228Y877038D01*
X313143Y876926D01*
X313055Y876816D01*
X312964Y876709D01*
X312870Y876604D01*
X312773Y876502D01*
X312673Y876403D01*
X312570Y876306D01*
X312465Y876213D01*
X312357Y876122D01*
X312246Y876035D01*
X312133Y875951D01*
X312018Y875870D01*
X311901Y875792D01*
X311781Y875718D01*
X311659Y875647D01*
X311536Y875579D01*
X311410Y875515D01*
X311283Y875455D01*
X311154Y875398D01*
X311024Y875344D01*
X310892Y875295D01*
X310758Y875249D01*
X310624Y875207D01*
X310488Y875169D01*
X310352Y875134D01*
X310214Y875104D01*
X310076Y875077D01*
X309937Y875055D01*
X309797Y875036D01*
X309657Y875021D01*
X309517Y875010D01*
X309376Y875003D01*
X309235Y875000D01*
X309094Y875001D01*
X308954Y875006D01*
X308813Y875015D01*
X308673Y875028D01*
X308533Y875045D01*
X308393Y875065D01*
X308255Y875090D01*
X308117Y875119D01*
X307980Y875151D01*
X307844Y875187D01*
X307709Y875228D01*
X307575Y875272D01*
X307442Y875319D01*
X307311Y875371D01*
X307181Y875426D01*
X307053Y875484D01*
X306927Y875547D01*
X306802Y875612D01*
X306680Y875682D01*
X306559Y875754D01*
X306440Y875830D01*
X306324Y875910D01*
X306210Y875993D01*
X306098Y876078D01*
X305989Y876167D01*
X305882Y876259D01*
X305778Y876354D01*
X305677Y876452D01*
X305578Y876553D01*
X305483Y876656D01*
X305390Y876762D01*
X305300Y876871D01*
X305214Y876982D01*
X305130Y877095D01*
X305050Y877211D01*
X304973Y877329D01*
X304900Y877449D01*
X304829Y877572D01*
X304763Y877696D01*
X304700Y877822D01*
X304640Y877949D01*
X304584Y878078D01*
X304532Y878209D01*
X304483Y878341D01*
X304438Y878475D01*
X304397Y878610D01*
X304360Y878746D01*
X304326Y878882D01*
X304297Y879020D01*
X304271Y879159D01*
X304250Y879298D01*
X304232Y879438D01*
X304218Y879578D01*
X304208Y879718D01*
X304202Y879859D01*
X304200Y880000D01*
D19*
X309200Y880000D03*
D18*
X124200Y903396D02*
X124200Y916604D01*
X149200Y916604D02*
X149200Y903396D01*
X174200Y903396D02*
X174200Y916604D01*
X174200Y856604D02*
X174200Y843396D01*
X149200Y843396D02*
X149200Y856604D01*
X124200Y856604D02*
X124200Y843396D01*
D10*
X144200Y880000D02*
X144202Y880141D01*
X144208Y880282D01*
X144218Y880422D01*
X144232Y880562D01*
X144250Y880702D01*
X144271Y880841D01*
X144297Y880980D01*
X144326Y881118D01*
X144360Y881254D01*
X144397Y881390D01*
X144438Y881525D01*
X144483Y881659D01*
X144532Y881791D01*
X144584Y881922D01*
X144640Y882051D01*
X144700Y882178D01*
X144763Y882304D01*
X144829Y882428D01*
X144900Y882551D01*
X144973Y882671D01*
X145050Y882789D01*
X145130Y882905D01*
X145214Y883018D01*
X145300Y883129D01*
X145390Y883238D01*
X145483Y883344D01*
X145578Y883447D01*
X145677Y883548D01*
X145778Y883646D01*
X145882Y883741D01*
X145989Y883833D01*
X146098Y883922D01*
X146210Y884007D01*
X146324Y884090D01*
X146440Y884170D01*
X146559Y884246D01*
X146680Y884318D01*
X146802Y884388D01*
X146927Y884453D01*
X147053Y884516D01*
X147181Y884574D01*
X147311Y884629D01*
X147442Y884681D01*
X147575Y884728D01*
X147709Y884772D01*
X147844Y884813D01*
X147980Y884849D01*
X148117Y884881D01*
X148255Y884910D01*
X148393Y884935D01*
X148533Y884955D01*
X148673Y884972D01*
X148813Y884985D01*
X148954Y884994D01*
X149094Y884999D01*
X149235Y885000D01*
X149376Y884997D01*
X149517Y884990D01*
X149657Y884979D01*
X149797Y884964D01*
X149937Y884945D01*
X150076Y884923D01*
X150214Y884896D01*
X150352Y884866D01*
X150488Y884831D01*
X150624Y884793D01*
X150758Y884751D01*
X150892Y884705D01*
X151024Y884656D01*
X151154Y884602D01*
X151283Y884545D01*
X151410Y884485D01*
X151536Y884421D01*
X151659Y884353D01*
X151781Y884282D01*
X151901Y884208D01*
X152018Y884130D01*
X152133Y884049D01*
X152246Y883965D01*
X152357Y883878D01*
X152465Y883787D01*
X152570Y883694D01*
X152673Y883597D01*
X152773Y883498D01*
X152870Y883396D01*
X152964Y883291D01*
X153055Y883184D01*
X153143Y883074D01*
X153228Y882962D01*
X153310Y882847D01*
X153389Y882730D01*
X153464Y882611D01*
X153536Y882490D01*
X153604Y882367D01*
X153669Y882242D01*
X153731Y882115D01*
X153788Y881986D01*
X153843Y881856D01*
X153893Y881725D01*
X153940Y881592D01*
X153983Y881458D01*
X154022Y881322D01*
X154057Y881186D01*
X154089Y881049D01*
X154116Y880911D01*
X154140Y880772D01*
X154160Y880632D01*
X154176Y880492D01*
X154188Y880352D01*
X154196Y880211D01*
X154200Y880070D01*
X154200Y879930D01*
X154196Y879789D01*
X154188Y879648D01*
X154176Y879508D01*
X154160Y879368D01*
X154140Y879228D01*
X154116Y879089D01*
X154089Y878951D01*
X154057Y878814D01*
X154022Y878678D01*
X153983Y878542D01*
X153940Y878408D01*
X153893Y878275D01*
X153843Y878144D01*
X153788Y878014D01*
X153731Y877885D01*
X153669Y877758D01*
X153604Y877633D01*
X153536Y877510D01*
X153464Y877389D01*
X153389Y877270D01*
X153310Y877153D01*
X153228Y877038D01*
X153143Y876926D01*
X153055Y876816D01*
X152964Y876709D01*
X152870Y876604D01*
X152773Y876502D01*
X152673Y876403D01*
X152570Y876306D01*
X152465Y876213D01*
X152357Y876122D01*
X152246Y876035D01*
X152133Y875951D01*
X152018Y875870D01*
X151901Y875792D01*
X151781Y875718D01*
X151659Y875647D01*
X151536Y875579D01*
X151410Y875515D01*
X151283Y875455D01*
X151154Y875398D01*
X151024Y875344D01*
X150892Y875295D01*
X150758Y875249D01*
X150624Y875207D01*
X150488Y875169D01*
X150352Y875134D01*
X150214Y875104D01*
X150076Y875077D01*
X149937Y875055D01*
X149797Y875036D01*
X149657Y875021D01*
X149517Y875010D01*
X149376Y875003D01*
X149235Y875000D01*
X149094Y875001D01*
X148954Y875006D01*
X148813Y875015D01*
X148673Y875028D01*
X148533Y875045D01*
X148393Y875065D01*
X148255Y875090D01*
X148117Y875119D01*
X147980Y875151D01*
X147844Y875187D01*
X147709Y875228D01*
X147575Y875272D01*
X147442Y875319D01*
X147311Y875371D01*
X147181Y875426D01*
X147053Y875484D01*
X146927Y875547D01*
X146802Y875612D01*
X146680Y875682D01*
X146559Y875754D01*
X146440Y875830D01*
X146324Y875910D01*
X146210Y875993D01*
X146098Y876078D01*
X145989Y876167D01*
X145882Y876259D01*
X145778Y876354D01*
X145677Y876452D01*
X145578Y876553D01*
X145483Y876656D01*
X145390Y876762D01*
X145300Y876871D01*
X145214Y876982D01*
X145130Y877095D01*
X145050Y877211D01*
X144973Y877329D01*
X144900Y877449D01*
X144829Y877572D01*
X144763Y877696D01*
X144700Y877822D01*
X144640Y877949D01*
X144584Y878078D01*
X144532Y878209D01*
X144483Y878341D01*
X144438Y878475D01*
X144397Y878610D01*
X144360Y878746D01*
X144326Y878882D01*
X144297Y879020D01*
X144271Y879159D01*
X144250Y879298D01*
X144232Y879438D01*
X144218Y879578D01*
X144208Y879718D01*
X144202Y879859D01*
X144200Y880000D01*
D19*
X149200Y880000D03*
D27*
X598200Y261764D03*
X623600Y261764D03*
X623600Y331764D03*
X598200Y331764D03*
D22*
X861050Y381150D02*
X880550Y381150D01*
X880550Y218850D02*
X861050Y218850D01*
X753550Y381150D02*
X734050Y381150D01*
X734050Y218850D02*
X753550Y218850D01*
D10*
X792300Y388900D02*
X792305Y389268D01*
X792318Y389636D01*
X792341Y390003D01*
X792372Y390370D01*
X792413Y390736D01*
X792462Y391101D01*
X792521Y391464D01*
X792588Y391826D01*
X792664Y392187D01*
X792750Y392545D01*
X792843Y392901D01*
X792946Y393254D01*
X793057Y393605D01*
X793177Y393953D01*
X793305Y394298D01*
X793442Y394640D01*
X793587Y394979D01*
X793740Y395313D01*
X793902Y395644D01*
X794071Y395971D01*
X794249Y396293D01*
X794434Y396612D01*
X794627Y396925D01*
X794828Y397234D01*
X795036Y397537D01*
X795252Y397835D01*
X795475Y398128D01*
X795705Y398416D01*
X795942Y398698D01*
X796186Y398973D01*
X796436Y399243D01*
X796693Y399507D01*
X796957Y399764D01*
X797227Y400014D01*
X797502Y400258D01*
X797784Y400495D01*
X798072Y400725D01*
X798365Y400948D01*
X798663Y401164D01*
X798966Y401372D01*
X799275Y401573D01*
X799588Y401766D01*
X799907Y401951D01*
X800229Y402129D01*
X800556Y402298D01*
X800887Y402460D01*
X801221Y402613D01*
X801560Y402758D01*
X801902Y402895D01*
X802247Y403023D01*
X802595Y403143D01*
X802946Y403254D01*
X803299Y403357D01*
X803655Y403450D01*
X804013Y403536D01*
X804374Y403612D01*
X804736Y403679D01*
X805099Y403738D01*
X805464Y403787D01*
X805830Y403828D01*
X806197Y403859D01*
X806564Y403882D01*
X806932Y403895D01*
X807300Y403900D01*
X807668Y403895D01*
X808036Y403882D01*
X808403Y403859D01*
X808770Y403828D01*
X809136Y403787D01*
X809501Y403738D01*
X809864Y403679D01*
X810226Y403612D01*
X810587Y403536D01*
X810945Y403450D01*
X811301Y403357D01*
X811654Y403254D01*
X812005Y403143D01*
X812353Y403023D01*
X812698Y402895D01*
X813040Y402758D01*
X813379Y402613D01*
X813713Y402460D01*
X814044Y402298D01*
X814371Y402129D01*
X814693Y401951D01*
X815012Y401766D01*
X815325Y401573D01*
X815634Y401372D01*
X815937Y401164D01*
X816235Y400948D01*
X816528Y400725D01*
X816816Y400495D01*
X817098Y400258D01*
X817373Y400014D01*
X817643Y399764D01*
X817907Y399507D01*
X818164Y399243D01*
X818414Y398973D01*
X818658Y398698D01*
X818895Y398416D01*
X819125Y398128D01*
X819348Y397835D01*
X819564Y397537D01*
X819772Y397234D01*
X819973Y396925D01*
X820166Y396612D01*
X820351Y396293D01*
X820529Y395971D01*
X820698Y395644D01*
X820860Y395313D01*
X821013Y394979D01*
X821158Y394640D01*
X821295Y394298D01*
X821423Y393953D01*
X821543Y393605D01*
X821654Y393254D01*
X821757Y392901D01*
X821850Y392545D01*
X821936Y392187D01*
X822012Y391826D01*
X822079Y391464D01*
X822138Y391101D01*
X822187Y390736D01*
X822228Y390370D01*
X822259Y390003D01*
X822282Y389636D01*
X822295Y389268D01*
X822300Y388900D01*
X822295Y388532D01*
X822282Y388164D01*
X822259Y387797D01*
X822228Y387430D01*
X822187Y387064D01*
X822138Y386699D01*
X822079Y386336D01*
X822012Y385974D01*
X821936Y385613D01*
X821850Y385255D01*
X821757Y384899D01*
X821654Y384546D01*
X821543Y384195D01*
X821423Y383847D01*
X821295Y383502D01*
X821158Y383160D01*
X821013Y382821D01*
X820860Y382487D01*
X820698Y382156D01*
X820529Y381829D01*
X820351Y381507D01*
X820166Y381188D01*
X819973Y380875D01*
X819772Y380566D01*
X819564Y380263D01*
X819348Y379965D01*
X819125Y379672D01*
X818895Y379384D01*
X818658Y379102D01*
X818414Y378827D01*
X818164Y378557D01*
X817907Y378293D01*
X817643Y378036D01*
X817373Y377786D01*
X817098Y377542D01*
X816816Y377305D01*
X816528Y377075D01*
X816235Y376852D01*
X815937Y376636D01*
X815634Y376428D01*
X815325Y376227D01*
X815012Y376034D01*
X814693Y375849D01*
X814371Y375671D01*
X814044Y375502D01*
X813713Y375340D01*
X813379Y375187D01*
X813040Y375042D01*
X812698Y374905D01*
X812353Y374777D01*
X812005Y374657D01*
X811654Y374546D01*
X811301Y374443D01*
X810945Y374350D01*
X810587Y374264D01*
X810226Y374188D01*
X809864Y374121D01*
X809501Y374062D01*
X809136Y374013D01*
X808770Y373972D01*
X808403Y373941D01*
X808036Y373918D01*
X807668Y373905D01*
X807300Y373900D01*
X806932Y373905D01*
X806564Y373918D01*
X806197Y373941D01*
X805830Y373972D01*
X805464Y374013D01*
X805099Y374062D01*
X804736Y374121D01*
X804374Y374188D01*
X804013Y374264D01*
X803655Y374350D01*
X803299Y374443D01*
X802946Y374546D01*
X802595Y374657D01*
X802247Y374777D01*
X801902Y374905D01*
X801560Y375042D01*
X801221Y375187D01*
X800887Y375340D01*
X800556Y375502D01*
X800229Y375671D01*
X799907Y375849D01*
X799588Y376034D01*
X799275Y376227D01*
X798966Y376428D01*
X798663Y376636D01*
X798365Y376852D01*
X798072Y377075D01*
X797784Y377305D01*
X797502Y377542D01*
X797227Y377786D01*
X796957Y378036D01*
X796693Y378293D01*
X796436Y378557D01*
X796186Y378827D01*
X795942Y379102D01*
X795705Y379384D01*
X795475Y379672D01*
X795252Y379965D01*
X795036Y380263D01*
X794828Y380566D01*
X794627Y380875D01*
X794434Y381188D01*
X794249Y381507D01*
X794071Y381829D01*
X793902Y382156D01*
X793740Y382487D01*
X793587Y382821D01*
X793442Y383160D01*
X793305Y383502D01*
X793177Y383847D01*
X793057Y384195D01*
X792946Y384546D01*
X792843Y384899D01*
X792750Y385255D01*
X792664Y385613D01*
X792588Y385974D01*
X792521Y386336D01*
X792462Y386699D01*
X792413Y387064D01*
X792372Y387430D01*
X792341Y387797D01*
X792318Y388164D01*
X792305Y388532D01*
X792300Y388900D01*
D23*
X807300Y388900D03*
D10*
X792300Y211100D02*
X792305Y211468D01*
X792318Y211836D01*
X792341Y212203D01*
X792372Y212570D01*
X792413Y212936D01*
X792462Y213301D01*
X792521Y213664D01*
X792588Y214026D01*
X792664Y214387D01*
X792750Y214745D01*
X792843Y215101D01*
X792946Y215454D01*
X793057Y215805D01*
X793177Y216153D01*
X793305Y216498D01*
X793442Y216840D01*
X793587Y217179D01*
X793740Y217513D01*
X793902Y217844D01*
X794071Y218171D01*
X794249Y218493D01*
X794434Y218812D01*
X794627Y219125D01*
X794828Y219434D01*
X795036Y219737D01*
X795252Y220035D01*
X795475Y220328D01*
X795705Y220616D01*
X795942Y220898D01*
X796186Y221173D01*
X796436Y221443D01*
X796693Y221707D01*
X796957Y221964D01*
X797227Y222214D01*
X797502Y222458D01*
X797784Y222695D01*
X798072Y222925D01*
X798365Y223148D01*
X798663Y223364D01*
X798966Y223572D01*
X799275Y223773D01*
X799588Y223966D01*
X799907Y224151D01*
X800229Y224329D01*
X800556Y224498D01*
X800887Y224660D01*
X801221Y224813D01*
X801560Y224958D01*
X801902Y225095D01*
X802247Y225223D01*
X802595Y225343D01*
X802946Y225454D01*
X803299Y225557D01*
X803655Y225650D01*
X804013Y225736D01*
X804374Y225812D01*
X804736Y225879D01*
X805099Y225938D01*
X805464Y225987D01*
X805830Y226028D01*
X806197Y226059D01*
X806564Y226082D01*
X806932Y226095D01*
X807300Y226100D01*
X807668Y226095D01*
X808036Y226082D01*
X808403Y226059D01*
X808770Y226028D01*
X809136Y225987D01*
X809501Y225938D01*
X809864Y225879D01*
X810226Y225812D01*
X810587Y225736D01*
X810945Y225650D01*
X811301Y225557D01*
X811654Y225454D01*
X812005Y225343D01*
X812353Y225223D01*
X812698Y225095D01*
X813040Y224958D01*
X813379Y224813D01*
X813713Y224660D01*
X814044Y224498D01*
X814371Y224329D01*
X814693Y224151D01*
X815012Y223966D01*
X815325Y223773D01*
X815634Y223572D01*
X815937Y223364D01*
X816235Y223148D01*
X816528Y222925D01*
X816816Y222695D01*
X817098Y222458D01*
X817373Y222214D01*
X817643Y221964D01*
X817907Y221707D01*
X818164Y221443D01*
X818414Y221173D01*
X818658Y220898D01*
X818895Y220616D01*
X819125Y220328D01*
X819348Y220035D01*
X819564Y219737D01*
X819772Y219434D01*
X819973Y219125D01*
X820166Y218812D01*
X820351Y218493D01*
X820529Y218171D01*
X820698Y217844D01*
X820860Y217513D01*
X821013Y217179D01*
X821158Y216840D01*
X821295Y216498D01*
X821423Y216153D01*
X821543Y215805D01*
X821654Y215454D01*
X821757Y215101D01*
X821850Y214745D01*
X821936Y214387D01*
X822012Y214026D01*
X822079Y213664D01*
X822138Y213301D01*
X822187Y212936D01*
X822228Y212570D01*
X822259Y212203D01*
X822282Y211836D01*
X822295Y211468D01*
X822300Y211100D01*
X822295Y210732D01*
X822282Y210364D01*
X822259Y209997D01*
X822228Y209630D01*
X822187Y209264D01*
X822138Y208899D01*
X822079Y208536D01*
X822012Y208174D01*
X821936Y207813D01*
X821850Y207455D01*
X821757Y207099D01*
X821654Y206746D01*
X821543Y206395D01*
X821423Y206047D01*
X821295Y205702D01*
X821158Y205360D01*
X821013Y205021D01*
X820860Y204687D01*
X820698Y204356D01*
X820529Y204029D01*
X820351Y203707D01*
X820166Y203388D01*
X819973Y203075D01*
X819772Y202766D01*
X819564Y202463D01*
X819348Y202165D01*
X819125Y201872D01*
X818895Y201584D01*
X818658Y201302D01*
X818414Y201027D01*
X818164Y200757D01*
X817907Y200493D01*
X817643Y200236D01*
X817373Y199986D01*
X817098Y199742D01*
X816816Y199505D01*
X816528Y199275D01*
X816235Y199052D01*
X815937Y198836D01*
X815634Y198628D01*
X815325Y198427D01*
X815012Y198234D01*
X814693Y198049D01*
X814371Y197871D01*
X814044Y197702D01*
X813713Y197540D01*
X813379Y197387D01*
X813040Y197242D01*
X812698Y197105D01*
X812353Y196977D01*
X812005Y196857D01*
X811654Y196746D01*
X811301Y196643D01*
X810945Y196550D01*
X810587Y196464D01*
X810226Y196388D01*
X809864Y196321D01*
X809501Y196262D01*
X809136Y196213D01*
X808770Y196172D01*
X808403Y196141D01*
X808036Y196118D01*
X807668Y196105D01*
X807300Y196100D01*
X806932Y196105D01*
X806564Y196118D01*
X806197Y196141D01*
X805830Y196172D01*
X805464Y196213D01*
X805099Y196262D01*
X804736Y196321D01*
X804374Y196388D01*
X804013Y196464D01*
X803655Y196550D01*
X803299Y196643D01*
X802946Y196746D01*
X802595Y196857D01*
X802247Y196977D01*
X801902Y197105D01*
X801560Y197242D01*
X801221Y197387D01*
X800887Y197540D01*
X800556Y197702D01*
X800229Y197871D01*
X799907Y198049D01*
X799588Y198234D01*
X799275Y198427D01*
X798966Y198628D01*
X798663Y198836D01*
X798365Y199052D01*
X798072Y199275D01*
X797784Y199505D01*
X797502Y199742D01*
X797227Y199986D01*
X796957Y200236D01*
X796693Y200493D01*
X796436Y200757D01*
X796186Y201027D01*
X795942Y201302D01*
X795705Y201584D01*
X795475Y201872D01*
X795252Y202165D01*
X795036Y202463D01*
X794828Y202766D01*
X794627Y203075D01*
X794434Y203388D01*
X794249Y203707D01*
X794071Y204029D01*
X793902Y204356D01*
X793740Y204687D01*
X793587Y205021D01*
X793442Y205360D01*
X793305Y205702D01*
X793177Y206047D01*
X793057Y206395D01*
X792946Y206746D01*
X792843Y207099D01*
X792750Y207455D01*
X792664Y207813D01*
X792588Y208174D01*
X792521Y208536D01*
X792462Y208899D01*
X792413Y209264D01*
X792372Y209630D01*
X792341Y209997D01*
X792318Y210364D01*
X792305Y210732D01*
X792300Y211100D01*
D23*
X807300Y211100D03*
D28*
X577850Y911320D03*
X565150Y892270D03*
X552450Y911320D03*
D29*
X649240Y943045D03*
X668290Y955745D03*
X649240Y968445D03*
D30*
X605467Y775216D03*
X605467Y749816D03*
X605467Y724416D03*
D28*
X585360Y696580D03*
X604410Y683880D03*
X585360Y671180D03*
D31*
X454140Y460470D03*
X482580Y460470D03*
X522220Y876490D03*
X493780Y876490D03*
X639830Y882650D03*
X668270Y882650D03*
X401030Y886260D03*
X372590Y886260D03*
X484120Y781050D03*
X455680Y781050D03*
D32*
X374620Y657450D03*
X387350Y701450D03*
X400080Y657450D03*
D31*
X668270Y857250D03*
X639830Y857250D03*
D33*
X570150Y820290D03*
X570150Y791850D03*
X482600Y671580D03*
X482600Y700020D03*
D31*
X509520Y730250D03*
X481080Y730250D03*
D33*
X641350Y696370D03*
X641350Y667930D03*
X792270Y679260D03*
X792270Y650820D03*
D34*
X551940Y620540D03*
X507940Y633270D03*
X551940Y646000D03*
X414430Y730220D03*
X370430Y742950D03*
X414430Y755680D03*
D32*
X400080Y625250D03*
X387350Y581250D03*
X374620Y625250D03*
D33*
X251918Y472845D03*
X251918Y444405D03*
D31*
X226593Y412530D03*
X198153Y412530D03*
D32*
X78770Y623440D03*
X66040Y579440D03*
X53310Y623440D03*
X53310Y669819D03*
X66040Y713819D03*
X78770Y669819D03*
D33*
X76731Y439970D03*
X76731Y468410D03*
X641350Y436630D03*
X641350Y465070D03*
D31*
X423930Y704850D03*
X452370Y704850D03*
D34*
X251289Y762631D03*
X207289Y775361D03*
X251289Y788091D03*
X207892Y836078D03*
X251892Y823348D03*
X207892Y810618D03*
D33*
X276499Y522836D03*
X276499Y551276D03*
D31*
X291360Y346930D03*
X319800Y346930D03*
D34*
X397920Y527020D03*
X353920Y539750D03*
X397920Y552480D03*
D35*
X520700Y278100D03*
X520700Y306100D03*
D31*
X454310Y422674D03*
X482750Y422674D03*
D33*
X615950Y436630D03*
X615950Y465070D03*
X512097Y512377D03*
X512097Y483937D03*
D36*
X515650Y190500D03*
X487650Y190500D03*
D33*
X565150Y592070D03*
X565150Y563630D03*
D31*
X700020Y541290D03*
X671580Y541290D03*
X700020Y566880D03*
X671580Y566880D03*
D36*
X487650Y158750D03*
X515650Y158750D03*
X599191Y218128D03*
X627191Y218128D03*
D31*
X372970Y347730D03*
X344530Y347730D03*
D33*
X539750Y563630D03*
X539750Y592070D03*
X76731Y520750D03*
X76731Y492310D03*
X276638Y471499D03*
X276638Y499939D03*
X222169Y517431D03*
X222169Y545871D03*
X197300Y518438D03*
X197300Y546878D03*
D31*
X216713Y909899D03*
X245153Y909899D03*
D37*
X695800Y890000D03*
X720800Y890000D03*
X745800Y890000D03*
D38*
X676800Y820000D03*
X764800Y820000D03*
D10*
X715800Y820000D02*
X715802Y820141D01*
X715808Y820282D01*
X715818Y820422D01*
X715832Y820562D01*
X715850Y820702D01*
X715871Y820841D01*
X715897Y820980D01*
X715926Y821118D01*
X715960Y821254D01*
X715997Y821390D01*
X716038Y821525D01*
X716083Y821659D01*
X716132Y821791D01*
X716184Y821922D01*
X716240Y822051D01*
X716300Y822178D01*
X716363Y822304D01*
X716429Y822428D01*
X716500Y822551D01*
X716573Y822671D01*
X716650Y822789D01*
X716730Y822905D01*
X716814Y823018D01*
X716900Y823129D01*
X716990Y823238D01*
X717083Y823344D01*
X717178Y823447D01*
X717277Y823548D01*
X717378Y823646D01*
X717482Y823741D01*
X717589Y823833D01*
X717698Y823922D01*
X717810Y824007D01*
X717924Y824090D01*
X718040Y824170D01*
X718159Y824246D01*
X718280Y824318D01*
X718402Y824388D01*
X718527Y824453D01*
X718653Y824516D01*
X718781Y824574D01*
X718911Y824629D01*
X719042Y824681D01*
X719175Y824728D01*
X719309Y824772D01*
X719444Y824813D01*
X719580Y824849D01*
X719717Y824881D01*
X719855Y824910D01*
X719993Y824935D01*
X720133Y824955D01*
X720273Y824972D01*
X720413Y824985D01*
X720554Y824994D01*
X720694Y824999D01*
X720835Y825000D01*
X720976Y824997D01*
X721117Y824990D01*
X721257Y824979D01*
X721397Y824964D01*
X721537Y824945D01*
X721676Y824923D01*
X721814Y824896D01*
X721952Y824866D01*
X722088Y824831D01*
X722224Y824793D01*
X722358Y824751D01*
X722492Y824705D01*
X722624Y824656D01*
X722754Y824602D01*
X722883Y824545D01*
X723010Y824485D01*
X723136Y824421D01*
X723259Y824353D01*
X723381Y824282D01*
X723501Y824208D01*
X723618Y824130D01*
X723733Y824049D01*
X723846Y823965D01*
X723957Y823878D01*
X724065Y823787D01*
X724170Y823694D01*
X724273Y823597D01*
X724373Y823498D01*
X724470Y823396D01*
X724564Y823291D01*
X724655Y823184D01*
X724743Y823074D01*
X724828Y822962D01*
X724910Y822847D01*
X724989Y822730D01*
X725064Y822611D01*
X725136Y822490D01*
X725204Y822367D01*
X725269Y822242D01*
X725331Y822115D01*
X725388Y821986D01*
X725443Y821856D01*
X725493Y821725D01*
X725540Y821592D01*
X725583Y821458D01*
X725622Y821322D01*
X725657Y821186D01*
X725689Y821049D01*
X725716Y820911D01*
X725740Y820772D01*
X725760Y820632D01*
X725776Y820492D01*
X725788Y820352D01*
X725796Y820211D01*
X725800Y820070D01*
X725800Y819930D01*
X725796Y819789D01*
X725788Y819648D01*
X725776Y819508D01*
X725760Y819368D01*
X725740Y819228D01*
X725716Y819089D01*
X725689Y818951D01*
X725657Y818814D01*
X725622Y818678D01*
X725583Y818542D01*
X725540Y818408D01*
X725493Y818275D01*
X725443Y818144D01*
X725388Y818014D01*
X725331Y817885D01*
X725269Y817758D01*
X725204Y817633D01*
X725136Y817510D01*
X725064Y817389D01*
X724989Y817270D01*
X724910Y817153D01*
X724828Y817038D01*
X724743Y816926D01*
X724655Y816816D01*
X724564Y816709D01*
X724470Y816604D01*
X724373Y816502D01*
X724273Y816403D01*
X724170Y816306D01*
X724065Y816213D01*
X723957Y816122D01*
X723846Y816035D01*
X723733Y815951D01*
X723618Y815870D01*
X723501Y815792D01*
X723381Y815718D01*
X723259Y815647D01*
X723136Y815579D01*
X723010Y815515D01*
X722883Y815455D01*
X722754Y815398D01*
X722624Y815344D01*
X722492Y815295D01*
X722358Y815249D01*
X722224Y815207D01*
X722088Y815169D01*
X721952Y815134D01*
X721814Y815104D01*
X721676Y815077D01*
X721537Y815055D01*
X721397Y815036D01*
X721257Y815021D01*
X721117Y815010D01*
X720976Y815003D01*
X720835Y815000D01*
X720694Y815001D01*
X720554Y815006D01*
X720413Y815015D01*
X720273Y815028D01*
X720133Y815045D01*
X719993Y815065D01*
X719855Y815090D01*
X719717Y815119D01*
X719580Y815151D01*
X719444Y815187D01*
X719309Y815228D01*
X719175Y815272D01*
X719042Y815319D01*
X718911Y815371D01*
X718781Y815426D01*
X718653Y815484D01*
X718527Y815547D01*
X718402Y815612D01*
X718280Y815682D01*
X718159Y815754D01*
X718040Y815830D01*
X717924Y815910D01*
X717810Y815993D01*
X717698Y816078D01*
X717589Y816167D01*
X717482Y816259D01*
X717378Y816354D01*
X717277Y816452D01*
X717178Y816553D01*
X717083Y816656D01*
X716990Y816762D01*
X716900Y816871D01*
X716814Y816982D01*
X716730Y817095D01*
X716650Y817211D01*
X716573Y817329D01*
X716500Y817449D01*
X716429Y817572D01*
X716363Y817696D01*
X716300Y817822D01*
X716240Y817949D01*
X716184Y818078D01*
X716132Y818209D01*
X716083Y818341D01*
X716038Y818475D01*
X715997Y818610D01*
X715960Y818746D01*
X715926Y818882D01*
X715897Y819020D01*
X715871Y819159D01*
X715850Y819298D01*
X715832Y819438D01*
X715818Y819578D01*
X715808Y819718D01*
X715802Y819859D01*
X715800Y820000D01*
D19*
X720800Y820000D03*
D16*
X374650Y863600D03*
D17*
X374650Y838200D03*
D16*
X407339Y835715D03*
D17*
X407339Y861115D03*
D16*
X723362Y650113D03*
D17*
X723362Y675513D03*
D16*
X763270Y679450D03*
D17*
X763270Y654050D03*
D39*
X358200Y79000D03*
X403800Y79000D03*
D40*
X381000Y152000D03*
D41*
X578866Y194727D03*
X578866Y182027D03*
X578866Y169327D03*
X578866Y156627D03*
X653034Y156627D03*
X653034Y169327D03*
X653034Y182027D03*
X653034Y194727D03*
D37*
X379200Y490400D03*
X379200Y465400D03*
X379200Y440400D03*
D42*
X309200Y509400D03*
X309200Y421400D03*
D10*
X304200Y465400D02*
X304202Y465541D01*
X304208Y465682D01*
X304218Y465822D01*
X304232Y465962D01*
X304250Y466102D01*
X304271Y466241D01*
X304297Y466380D01*
X304326Y466518D01*
X304360Y466654D01*
X304397Y466790D01*
X304438Y466925D01*
X304483Y467059D01*
X304532Y467191D01*
X304584Y467322D01*
X304640Y467451D01*
X304700Y467578D01*
X304763Y467704D01*
X304829Y467828D01*
X304900Y467951D01*
X304973Y468071D01*
X305050Y468189D01*
X305130Y468305D01*
X305214Y468418D01*
X305300Y468529D01*
X305390Y468638D01*
X305483Y468744D01*
X305578Y468847D01*
X305677Y468948D01*
X305778Y469046D01*
X305882Y469141D01*
X305989Y469233D01*
X306098Y469322D01*
X306210Y469407D01*
X306324Y469490D01*
X306440Y469570D01*
X306559Y469646D01*
X306680Y469718D01*
X306802Y469788D01*
X306927Y469853D01*
X307053Y469916D01*
X307181Y469974D01*
X307311Y470029D01*
X307442Y470081D01*
X307575Y470128D01*
X307709Y470172D01*
X307844Y470213D01*
X307980Y470249D01*
X308117Y470281D01*
X308255Y470310D01*
X308393Y470335D01*
X308533Y470355D01*
X308673Y470372D01*
X308813Y470385D01*
X308954Y470394D01*
X309094Y470399D01*
X309235Y470400D01*
X309376Y470397D01*
X309517Y470390D01*
X309657Y470379D01*
X309797Y470364D01*
X309937Y470345D01*
X310076Y470323D01*
X310214Y470296D01*
X310352Y470266D01*
X310488Y470231D01*
X310624Y470193D01*
X310758Y470151D01*
X310892Y470105D01*
X311024Y470056D01*
X311154Y470002D01*
X311283Y469945D01*
X311410Y469885D01*
X311536Y469821D01*
X311659Y469753D01*
X311781Y469682D01*
X311901Y469608D01*
X312018Y469530D01*
X312133Y469449D01*
X312246Y469365D01*
X312357Y469278D01*
X312465Y469187D01*
X312570Y469094D01*
X312673Y468997D01*
X312773Y468898D01*
X312870Y468796D01*
X312964Y468691D01*
X313055Y468584D01*
X313143Y468474D01*
X313228Y468362D01*
X313310Y468247D01*
X313389Y468130D01*
X313464Y468011D01*
X313536Y467890D01*
X313604Y467767D01*
X313669Y467642D01*
X313731Y467515D01*
X313788Y467386D01*
X313843Y467256D01*
X313893Y467125D01*
X313940Y466992D01*
X313983Y466858D01*
X314022Y466722D01*
X314057Y466586D01*
X314089Y466449D01*
X314116Y466311D01*
X314140Y466172D01*
X314160Y466032D01*
X314176Y465892D01*
X314188Y465752D01*
X314196Y465611D01*
X314200Y465470D01*
X314200Y465330D01*
X314196Y465189D01*
X314188Y465048D01*
X314176Y464908D01*
X314160Y464768D01*
X314140Y464628D01*
X314116Y464489D01*
X314089Y464351D01*
X314057Y464214D01*
X314022Y464078D01*
X313983Y463942D01*
X313940Y463808D01*
X313893Y463675D01*
X313843Y463544D01*
X313788Y463414D01*
X313731Y463285D01*
X313669Y463158D01*
X313604Y463033D01*
X313536Y462910D01*
X313464Y462789D01*
X313389Y462670D01*
X313310Y462553D01*
X313228Y462438D01*
X313143Y462326D01*
X313055Y462216D01*
X312964Y462109D01*
X312870Y462004D01*
X312773Y461902D01*
X312673Y461803D01*
X312570Y461706D01*
X312465Y461613D01*
X312357Y461522D01*
X312246Y461435D01*
X312133Y461351D01*
X312018Y461270D01*
X311901Y461192D01*
X311781Y461118D01*
X311659Y461047D01*
X311536Y460979D01*
X311410Y460915D01*
X311283Y460855D01*
X311154Y460798D01*
X311024Y460744D01*
X310892Y460695D01*
X310758Y460649D01*
X310624Y460607D01*
X310488Y460569D01*
X310352Y460534D01*
X310214Y460504D01*
X310076Y460477D01*
X309937Y460455D01*
X309797Y460436D01*
X309657Y460421D01*
X309517Y460410D01*
X309376Y460403D01*
X309235Y460400D01*
X309094Y460401D01*
X308954Y460406D01*
X308813Y460415D01*
X308673Y460428D01*
X308533Y460445D01*
X308393Y460465D01*
X308255Y460490D01*
X308117Y460519D01*
X307980Y460551D01*
X307844Y460587D01*
X307709Y460628D01*
X307575Y460672D01*
X307442Y460719D01*
X307311Y460771D01*
X307181Y460826D01*
X307053Y460884D01*
X306927Y460947D01*
X306802Y461012D01*
X306680Y461082D01*
X306559Y461154D01*
X306440Y461230D01*
X306324Y461310D01*
X306210Y461393D01*
X306098Y461478D01*
X305989Y461567D01*
X305882Y461659D01*
X305778Y461754D01*
X305677Y461852D01*
X305578Y461953D01*
X305483Y462056D01*
X305390Y462162D01*
X305300Y462271D01*
X305214Y462382D01*
X305130Y462495D01*
X305050Y462611D01*
X304973Y462729D01*
X304900Y462849D01*
X304829Y462972D01*
X304763Y463096D01*
X304700Y463222D01*
X304640Y463349D01*
X304584Y463478D01*
X304532Y463609D01*
X304483Y463741D01*
X304438Y463875D01*
X304397Y464010D01*
X304360Y464146D01*
X304326Y464282D01*
X304297Y464420D01*
X304271Y464559D01*
X304250Y464698D01*
X304232Y464838D01*
X304218Y464978D01*
X304208Y465118D01*
X304202Y465259D01*
X304200Y465400D01*
D19*
X309200Y465400D03*
D34*
X371700Y806480D03*
X415700Y793750D03*
X371700Y781020D03*
D18*
X124200Y781604D02*
X124200Y768396D01*
X149200Y768396D02*
X149200Y781604D01*
X174200Y781604D02*
X174200Y768396D01*
X174200Y721604D02*
X174200Y708396D01*
X149200Y708396D02*
X149200Y721604D01*
X124200Y721604D02*
X124200Y708396D01*
D10*
X144200Y745000D02*
X144202Y745141D01*
X144208Y745282D01*
X144218Y745422D01*
X144232Y745562D01*
X144250Y745702D01*
X144271Y745841D01*
X144297Y745980D01*
X144326Y746118D01*
X144360Y746254D01*
X144397Y746390D01*
X144438Y746525D01*
X144483Y746659D01*
X144532Y746791D01*
X144584Y746922D01*
X144640Y747051D01*
X144700Y747178D01*
X144763Y747304D01*
X144829Y747428D01*
X144900Y747551D01*
X144973Y747671D01*
X145050Y747789D01*
X145130Y747905D01*
X145214Y748018D01*
X145300Y748129D01*
X145390Y748238D01*
X145483Y748344D01*
X145578Y748447D01*
X145677Y748548D01*
X145778Y748646D01*
X145882Y748741D01*
X145989Y748833D01*
X146098Y748922D01*
X146210Y749007D01*
X146324Y749090D01*
X146440Y749170D01*
X146559Y749246D01*
X146680Y749318D01*
X146802Y749388D01*
X146927Y749453D01*
X147053Y749516D01*
X147181Y749574D01*
X147311Y749629D01*
X147442Y749681D01*
X147575Y749728D01*
X147709Y749772D01*
X147844Y749813D01*
X147980Y749849D01*
X148117Y749881D01*
X148255Y749910D01*
X148393Y749935D01*
X148533Y749955D01*
X148673Y749972D01*
X148813Y749985D01*
X148954Y749994D01*
X149094Y749999D01*
X149235Y750000D01*
X149376Y749997D01*
X149517Y749990D01*
X149657Y749979D01*
X149797Y749964D01*
X149937Y749945D01*
X150076Y749923D01*
X150214Y749896D01*
X150352Y749866D01*
X150488Y749831D01*
X150624Y749793D01*
X150758Y749751D01*
X150892Y749705D01*
X151024Y749656D01*
X151154Y749602D01*
X151283Y749545D01*
X151410Y749485D01*
X151536Y749421D01*
X151659Y749353D01*
X151781Y749282D01*
X151901Y749208D01*
X152018Y749130D01*
X152133Y749049D01*
X152246Y748965D01*
X152357Y748878D01*
X152465Y748787D01*
X152570Y748694D01*
X152673Y748597D01*
X152773Y748498D01*
X152870Y748396D01*
X152964Y748291D01*
X153055Y748184D01*
X153143Y748074D01*
X153228Y747962D01*
X153310Y747847D01*
X153389Y747730D01*
X153464Y747611D01*
X153536Y747490D01*
X153604Y747367D01*
X153669Y747242D01*
X153731Y747115D01*
X153788Y746986D01*
X153843Y746856D01*
X153893Y746725D01*
X153940Y746592D01*
X153983Y746458D01*
X154022Y746322D01*
X154057Y746186D01*
X154089Y746049D01*
X154116Y745911D01*
X154140Y745772D01*
X154160Y745632D01*
X154176Y745492D01*
X154188Y745352D01*
X154196Y745211D01*
X154200Y745070D01*
X154200Y744930D01*
X154196Y744789D01*
X154188Y744648D01*
X154176Y744508D01*
X154160Y744368D01*
X154140Y744228D01*
X154116Y744089D01*
X154089Y743951D01*
X154057Y743814D01*
X154022Y743678D01*
X153983Y743542D01*
X153940Y743408D01*
X153893Y743275D01*
X153843Y743144D01*
X153788Y743014D01*
X153731Y742885D01*
X153669Y742758D01*
X153604Y742633D01*
X153536Y742510D01*
X153464Y742389D01*
X153389Y742270D01*
X153310Y742153D01*
X153228Y742038D01*
X153143Y741926D01*
X153055Y741816D01*
X152964Y741709D01*
X152870Y741604D01*
X152773Y741502D01*
X152673Y741403D01*
X152570Y741306D01*
X152465Y741213D01*
X152357Y741122D01*
X152246Y741035D01*
X152133Y740951D01*
X152018Y740870D01*
X151901Y740792D01*
X151781Y740718D01*
X151659Y740647D01*
X151536Y740579D01*
X151410Y740515D01*
X151283Y740455D01*
X151154Y740398D01*
X151024Y740344D01*
X150892Y740295D01*
X150758Y740249D01*
X150624Y740207D01*
X150488Y740169D01*
X150352Y740134D01*
X150214Y740104D01*
X150076Y740077D01*
X149937Y740055D01*
X149797Y740036D01*
X149657Y740021D01*
X149517Y740010D01*
X149376Y740003D01*
X149235Y740000D01*
X149094Y740001D01*
X148954Y740006D01*
X148813Y740015D01*
X148673Y740028D01*
X148533Y740045D01*
X148393Y740065D01*
X148255Y740090D01*
X148117Y740119D01*
X147980Y740151D01*
X147844Y740187D01*
X147709Y740228D01*
X147575Y740272D01*
X147442Y740319D01*
X147311Y740371D01*
X147181Y740426D01*
X147053Y740484D01*
X146927Y740547D01*
X146802Y740612D01*
X146680Y740682D01*
X146559Y740754D01*
X146440Y740830D01*
X146324Y740910D01*
X146210Y740993D01*
X146098Y741078D01*
X145989Y741167D01*
X145882Y741259D01*
X145778Y741354D01*
X145677Y741452D01*
X145578Y741553D01*
X145483Y741656D01*
X145390Y741762D01*
X145300Y741871D01*
X145214Y741982D01*
X145130Y742095D01*
X145050Y742211D01*
X144973Y742329D01*
X144900Y742449D01*
X144829Y742572D01*
X144763Y742696D01*
X144700Y742822D01*
X144640Y742949D01*
X144584Y743078D01*
X144532Y743209D01*
X144483Y743341D01*
X144438Y743475D01*
X144397Y743610D01*
X144360Y743746D01*
X144326Y743882D01*
X144297Y744020D01*
X144271Y744159D01*
X144250Y744298D01*
X144232Y744438D01*
X144218Y744578D01*
X144208Y744718D01*
X144202Y744859D01*
X144200Y745000D01*
D19*
X149200Y745000D03*
D43*
X184150Y69850D03*
D44*
X222250Y69850D03*
D45*
X431800Y288700D03*
X431800Y244700D03*
D46*
X361950Y196850D03*
X387350Y196850D03*
D47*
X690800Y601000D02*
X690800Y619000D01*
X670800Y619000D02*
X670800Y601000D01*
X770800Y601000D02*
X770800Y619000D01*
X710800Y619000D02*
X710800Y601000D01*
X730800Y601000D02*
X730800Y619000D01*
X750800Y619000D02*
X750800Y601000D01*
D48*
X660800Y500000D03*
X780800Y500000D03*
D10*
X715800Y500000D02*
X715802Y500141D01*
X715808Y500282D01*
X715818Y500422D01*
X715832Y500562D01*
X715850Y500702D01*
X715871Y500841D01*
X715897Y500980D01*
X715926Y501118D01*
X715960Y501254D01*
X715997Y501390D01*
X716038Y501525D01*
X716083Y501659D01*
X716132Y501791D01*
X716184Y501922D01*
X716240Y502051D01*
X716300Y502178D01*
X716363Y502304D01*
X716429Y502428D01*
X716500Y502551D01*
X716573Y502671D01*
X716650Y502789D01*
X716730Y502905D01*
X716814Y503018D01*
X716900Y503129D01*
X716990Y503238D01*
X717083Y503344D01*
X717178Y503447D01*
X717277Y503548D01*
X717378Y503646D01*
X717482Y503741D01*
X717589Y503833D01*
X717698Y503922D01*
X717810Y504007D01*
X717924Y504090D01*
X718040Y504170D01*
X718159Y504246D01*
X718280Y504318D01*
X718402Y504388D01*
X718527Y504453D01*
X718653Y504516D01*
X718781Y504574D01*
X718911Y504629D01*
X719042Y504681D01*
X719175Y504728D01*
X719309Y504772D01*
X719444Y504813D01*
X719580Y504849D01*
X719717Y504881D01*
X719855Y504910D01*
X719993Y504935D01*
X720133Y504955D01*
X720273Y504972D01*
X720413Y504985D01*
X720554Y504994D01*
X720694Y504999D01*
X720835Y505000D01*
X720976Y504997D01*
X721117Y504990D01*
X721257Y504979D01*
X721397Y504964D01*
X721537Y504945D01*
X721676Y504923D01*
X721814Y504896D01*
X721952Y504866D01*
X722088Y504831D01*
X722224Y504793D01*
X722358Y504751D01*
X722492Y504705D01*
X722624Y504656D01*
X722754Y504602D01*
X722883Y504545D01*
X723010Y504485D01*
X723136Y504421D01*
X723259Y504353D01*
X723381Y504282D01*
X723501Y504208D01*
X723618Y504130D01*
X723733Y504049D01*
X723846Y503965D01*
X723957Y503878D01*
X724065Y503787D01*
X724170Y503694D01*
X724273Y503597D01*
X724373Y503498D01*
X724470Y503396D01*
X724564Y503291D01*
X724655Y503184D01*
X724743Y503074D01*
X724828Y502962D01*
X724910Y502847D01*
X724989Y502730D01*
X725064Y502611D01*
X725136Y502490D01*
X725204Y502367D01*
X725269Y502242D01*
X725331Y502115D01*
X725388Y501986D01*
X725443Y501856D01*
X725493Y501725D01*
X725540Y501592D01*
X725583Y501458D01*
X725622Y501322D01*
X725657Y501186D01*
X725689Y501049D01*
X725716Y500911D01*
X725740Y500772D01*
X725760Y500632D01*
X725776Y500492D01*
X725788Y500352D01*
X725796Y500211D01*
X725800Y500070D01*
X725800Y499930D01*
X725796Y499789D01*
X725788Y499648D01*
X725776Y499508D01*
X725760Y499368D01*
X725740Y499228D01*
X725716Y499089D01*
X725689Y498951D01*
X725657Y498814D01*
X725622Y498678D01*
X725583Y498542D01*
X725540Y498408D01*
X725493Y498275D01*
X725443Y498144D01*
X725388Y498014D01*
X725331Y497885D01*
X725269Y497758D01*
X725204Y497633D01*
X725136Y497510D01*
X725064Y497389D01*
X724989Y497270D01*
X724910Y497153D01*
X724828Y497038D01*
X724743Y496926D01*
X724655Y496816D01*
X724564Y496709D01*
X724470Y496604D01*
X724373Y496502D01*
X724273Y496403D01*
X724170Y496306D01*
X724065Y496213D01*
X723957Y496122D01*
X723846Y496035D01*
X723733Y495951D01*
X723618Y495870D01*
X723501Y495792D01*
X723381Y495718D01*
X723259Y495647D01*
X723136Y495579D01*
X723010Y495515D01*
X722883Y495455D01*
X722754Y495398D01*
X722624Y495344D01*
X722492Y495295D01*
X722358Y495249D01*
X722224Y495207D01*
X722088Y495169D01*
X721952Y495134D01*
X721814Y495104D01*
X721676Y495077D01*
X721537Y495055D01*
X721397Y495036D01*
X721257Y495021D01*
X721117Y495010D01*
X720976Y495003D01*
X720835Y495000D01*
X720694Y495001D01*
X720554Y495006D01*
X720413Y495015D01*
X720273Y495028D01*
X720133Y495045D01*
X719993Y495065D01*
X719855Y495090D01*
X719717Y495119D01*
X719580Y495151D01*
X719444Y495187D01*
X719309Y495228D01*
X719175Y495272D01*
X719042Y495319D01*
X718911Y495371D01*
X718781Y495426D01*
X718653Y495484D01*
X718527Y495547D01*
X718402Y495612D01*
X718280Y495682D01*
X718159Y495754D01*
X718040Y495830D01*
X717924Y495910D01*
X717810Y495993D01*
X717698Y496078D01*
X717589Y496167D01*
X717482Y496259D01*
X717378Y496354D01*
X717277Y496452D01*
X717178Y496553D01*
X717083Y496656D01*
X716990Y496762D01*
X716900Y496871D01*
X716814Y496982D01*
X716730Y497095D01*
X716650Y497211D01*
X716573Y497329D01*
X716500Y497449D01*
X716429Y497572D01*
X716363Y497696D01*
X716300Y497822D01*
X716240Y497949D01*
X716184Y498078D01*
X716132Y498209D01*
X716083Y498341D01*
X716038Y498475D01*
X715997Y498610D01*
X715960Y498746D01*
X715926Y498882D01*
X715897Y499020D01*
X715871Y499159D01*
X715850Y499298D01*
X715832Y499438D01*
X715818Y499578D01*
X715808Y499718D01*
X715802Y499859D01*
X715800Y500000D01*
D19*
X720800Y500000D03*
D49*
X711200Y130048D02*
X711200Y111252D01*
X685800Y111252D02*
X685800Y130048D01*
X660400Y130048D02*
X660400Y111252D01*
X635000Y111252D02*
X635000Y130048D01*
X609600Y130048D02*
X609600Y111252D01*
X584200Y111252D02*
X584200Y130048D01*
D22*
X128800Y135000D02*
X128800Y115500D01*
X160800Y115500D02*
X160800Y135000D01*
X192800Y135000D02*
X192800Y115500D01*
X192800Y165000D02*
X192800Y184500D01*
X160800Y184500D02*
X160800Y165000D01*
X128800Y165000D02*
X128800Y184500D01*
D10*
X97550Y120000D02*
X97552Y120158D01*
X97558Y120315D01*
X97568Y120473D01*
X97582Y120630D01*
X97600Y120786D01*
X97621Y120943D01*
X97647Y121098D01*
X97677Y121253D01*
X97710Y121407D01*
X97748Y121560D01*
X97789Y121713D01*
X97834Y121864D01*
X97883Y122014D01*
X97936Y122162D01*
X97992Y122310D01*
X98053Y122455D01*
X98116Y122600D01*
X98184Y122742D01*
X98255Y122883D01*
X98329Y123022D01*
X98407Y123159D01*
X98489Y123294D01*
X98573Y123427D01*
X98662Y123558D01*
X98753Y123686D01*
X98848Y123813D01*
X98945Y123936D01*
X99046Y124058D01*
X99150Y124176D01*
X99257Y124292D01*
X99367Y124405D01*
X99479Y124516D01*
X99595Y124623D01*
X99713Y124728D01*
X99833Y124830D01*
X99956Y124928D01*
X100082Y125024D01*
X100210Y125116D01*
X100340Y125205D01*
X100472Y125291D01*
X100607Y125373D01*
X100744Y125452D01*
X100882Y125527D01*
X101022Y125599D01*
X101165Y125667D01*
X101308Y125732D01*
X101454Y125793D01*
X101601Y125850D01*
X101749Y125904D01*
X101899Y125954D01*
X102049Y126000D01*
X102201Y126042D01*
X102354Y126081D01*
X102508Y126115D01*
X102663Y126146D01*
X102818Y126172D01*
X102974Y126195D01*
X103131Y126214D01*
X103288Y126229D01*
X103445Y126240D01*
X103603Y126247D01*
X103761Y126250D01*
X103918Y126249D01*
X104076Y126244D01*
X104233Y126235D01*
X104391Y126222D01*
X104547Y126205D01*
X104704Y126184D01*
X104859Y126160D01*
X105014Y126131D01*
X105169Y126098D01*
X105322Y126062D01*
X105475Y126021D01*
X105626Y125977D01*
X105776Y125929D01*
X105925Y125878D01*
X106073Y125822D01*
X106219Y125763D01*
X106364Y125700D01*
X106507Y125633D01*
X106648Y125563D01*
X106787Y125490D01*
X106925Y125413D01*
X107061Y125332D01*
X107194Y125248D01*
X107325Y125161D01*
X107454Y125070D01*
X107581Y124976D01*
X107706Y124879D01*
X107827Y124779D01*
X107947Y124676D01*
X108063Y124570D01*
X108177Y124461D01*
X108289Y124349D01*
X108397Y124235D01*
X108502Y124117D01*
X108605Y123997D01*
X108704Y123875D01*
X108800Y123750D01*
X108893Y123622D01*
X108983Y123493D01*
X109069Y123361D01*
X109153Y123227D01*
X109232Y123091D01*
X109309Y122953D01*
X109381Y122813D01*
X109450Y122671D01*
X109516Y122528D01*
X109578Y122383D01*
X109636Y122236D01*
X109691Y122088D01*
X109742Y121939D01*
X109789Y121788D01*
X109832Y121637D01*
X109871Y121484D01*
X109907Y121330D01*
X109938Y121176D01*
X109966Y121021D01*
X109990Y120865D01*
X110010Y120708D01*
X110026Y120551D01*
X110038Y120394D01*
X110046Y120237D01*
X110050Y120079D01*
X110050Y119921D01*
X110046Y119763D01*
X110038Y119606D01*
X110026Y119449D01*
X110010Y119292D01*
X109990Y119135D01*
X109966Y118979D01*
X109938Y118824D01*
X109907Y118670D01*
X109871Y118516D01*
X109832Y118363D01*
X109789Y118212D01*
X109742Y118061D01*
X109691Y117912D01*
X109636Y117764D01*
X109578Y117617D01*
X109516Y117472D01*
X109450Y117329D01*
X109381Y117187D01*
X109309Y117047D01*
X109232Y116909D01*
X109153Y116773D01*
X109069Y116639D01*
X108983Y116507D01*
X108893Y116378D01*
X108800Y116250D01*
X108704Y116125D01*
X108605Y116003D01*
X108502Y115883D01*
X108397Y115765D01*
X108289Y115651D01*
X108177Y115539D01*
X108063Y115430D01*
X107947Y115324D01*
X107827Y115221D01*
X107706Y115121D01*
X107581Y115024D01*
X107454Y114930D01*
X107325Y114839D01*
X107194Y114752D01*
X107061Y114668D01*
X106925Y114587D01*
X106787Y114510D01*
X106648Y114437D01*
X106507Y114367D01*
X106364Y114300D01*
X106219Y114237D01*
X106073Y114178D01*
X105925Y114122D01*
X105776Y114071D01*
X105626Y114023D01*
X105475Y113979D01*
X105322Y113938D01*
X105169Y113902D01*
X105014Y113869D01*
X104859Y113840D01*
X104704Y113816D01*
X104547Y113795D01*
X104391Y113778D01*
X104233Y113765D01*
X104076Y113756D01*
X103918Y113751D01*
X103761Y113750D01*
X103603Y113753D01*
X103445Y113760D01*
X103288Y113771D01*
X103131Y113786D01*
X102974Y113805D01*
X102818Y113828D01*
X102663Y113854D01*
X102508Y113885D01*
X102354Y113919D01*
X102201Y113958D01*
X102049Y114000D01*
X101899Y114046D01*
X101749Y114096D01*
X101601Y114150D01*
X101454Y114207D01*
X101308Y114268D01*
X101165Y114333D01*
X101022Y114401D01*
X100882Y114473D01*
X100744Y114548D01*
X100607Y114627D01*
X100472Y114709D01*
X100340Y114795D01*
X100210Y114884D01*
X100082Y114976D01*
X99956Y115072D01*
X99833Y115170D01*
X99713Y115272D01*
X99595Y115377D01*
X99479Y115484D01*
X99367Y115595D01*
X99257Y115708D01*
X99150Y115824D01*
X99046Y115942D01*
X98945Y116064D01*
X98848Y116187D01*
X98753Y116314D01*
X98662Y116442D01*
X98573Y116573D01*
X98489Y116706D01*
X98407Y116841D01*
X98329Y116978D01*
X98255Y117117D01*
X98184Y117258D01*
X98116Y117400D01*
X98053Y117545D01*
X97992Y117690D01*
X97936Y117838D01*
X97883Y117986D01*
X97834Y118136D01*
X97789Y118287D01*
X97748Y118440D01*
X97710Y118593D01*
X97677Y118747D01*
X97647Y118902D01*
X97621Y119057D01*
X97600Y119214D01*
X97582Y119370D01*
X97568Y119527D01*
X97558Y119685D01*
X97552Y119842D01*
X97550Y120000D01*
D50*
X103800Y120000D03*
D10*
X211550Y180000D02*
X211552Y180158D01*
X211558Y180315D01*
X211568Y180473D01*
X211582Y180630D01*
X211600Y180786D01*
X211621Y180943D01*
X211647Y181098D01*
X211677Y181253D01*
X211710Y181407D01*
X211748Y181560D01*
X211789Y181713D01*
X211834Y181864D01*
X211883Y182014D01*
X211936Y182162D01*
X211992Y182310D01*
X212053Y182455D01*
X212116Y182600D01*
X212184Y182742D01*
X212255Y182883D01*
X212329Y183022D01*
X212407Y183159D01*
X212489Y183294D01*
X212573Y183427D01*
X212662Y183558D01*
X212753Y183686D01*
X212848Y183813D01*
X212945Y183936D01*
X213046Y184058D01*
X213150Y184176D01*
X213257Y184292D01*
X213367Y184405D01*
X213479Y184516D01*
X213595Y184623D01*
X213713Y184728D01*
X213833Y184830D01*
X213956Y184928D01*
X214082Y185024D01*
X214210Y185116D01*
X214340Y185205D01*
X214472Y185291D01*
X214607Y185373D01*
X214744Y185452D01*
X214882Y185527D01*
X215022Y185599D01*
X215165Y185667D01*
X215308Y185732D01*
X215454Y185793D01*
X215601Y185850D01*
X215749Y185904D01*
X215899Y185954D01*
X216049Y186000D01*
X216201Y186042D01*
X216354Y186081D01*
X216508Y186115D01*
X216663Y186146D01*
X216818Y186172D01*
X216974Y186195D01*
X217131Y186214D01*
X217288Y186229D01*
X217445Y186240D01*
X217603Y186247D01*
X217761Y186250D01*
X217918Y186249D01*
X218076Y186244D01*
X218233Y186235D01*
X218391Y186222D01*
X218547Y186205D01*
X218704Y186184D01*
X218859Y186160D01*
X219014Y186131D01*
X219169Y186098D01*
X219322Y186062D01*
X219475Y186021D01*
X219626Y185977D01*
X219776Y185929D01*
X219925Y185878D01*
X220073Y185822D01*
X220219Y185763D01*
X220364Y185700D01*
X220507Y185633D01*
X220648Y185563D01*
X220787Y185490D01*
X220925Y185413D01*
X221061Y185332D01*
X221194Y185248D01*
X221325Y185161D01*
X221454Y185070D01*
X221581Y184976D01*
X221706Y184879D01*
X221827Y184779D01*
X221947Y184676D01*
X222063Y184570D01*
X222177Y184461D01*
X222289Y184349D01*
X222397Y184235D01*
X222502Y184117D01*
X222605Y183997D01*
X222704Y183875D01*
X222800Y183750D01*
X222893Y183622D01*
X222983Y183493D01*
X223069Y183361D01*
X223153Y183227D01*
X223232Y183091D01*
X223309Y182953D01*
X223381Y182813D01*
X223450Y182671D01*
X223516Y182528D01*
X223578Y182383D01*
X223636Y182236D01*
X223691Y182088D01*
X223742Y181939D01*
X223789Y181788D01*
X223832Y181637D01*
X223871Y181484D01*
X223907Y181330D01*
X223938Y181176D01*
X223966Y181021D01*
X223990Y180865D01*
X224010Y180708D01*
X224026Y180551D01*
X224038Y180394D01*
X224046Y180237D01*
X224050Y180079D01*
X224050Y179921D01*
X224046Y179763D01*
X224038Y179606D01*
X224026Y179449D01*
X224010Y179292D01*
X223990Y179135D01*
X223966Y178979D01*
X223938Y178824D01*
X223907Y178670D01*
X223871Y178516D01*
X223832Y178363D01*
X223789Y178212D01*
X223742Y178061D01*
X223691Y177912D01*
X223636Y177764D01*
X223578Y177617D01*
X223516Y177472D01*
X223450Y177329D01*
X223381Y177187D01*
X223309Y177047D01*
X223232Y176909D01*
X223153Y176773D01*
X223069Y176639D01*
X222983Y176507D01*
X222893Y176378D01*
X222800Y176250D01*
X222704Y176125D01*
X222605Y176003D01*
X222502Y175883D01*
X222397Y175765D01*
X222289Y175651D01*
X222177Y175539D01*
X222063Y175430D01*
X221947Y175324D01*
X221827Y175221D01*
X221706Y175121D01*
X221581Y175024D01*
X221454Y174930D01*
X221325Y174839D01*
X221194Y174752D01*
X221061Y174668D01*
X220925Y174587D01*
X220787Y174510D01*
X220648Y174437D01*
X220507Y174367D01*
X220364Y174300D01*
X220219Y174237D01*
X220073Y174178D01*
X219925Y174122D01*
X219776Y174071D01*
X219626Y174023D01*
X219475Y173979D01*
X219322Y173938D01*
X219169Y173902D01*
X219014Y173869D01*
X218859Y173840D01*
X218704Y173816D01*
X218547Y173795D01*
X218391Y173778D01*
X218233Y173765D01*
X218076Y173756D01*
X217918Y173751D01*
X217761Y173750D01*
X217603Y173753D01*
X217445Y173760D01*
X217288Y173771D01*
X217131Y173786D01*
X216974Y173805D01*
X216818Y173828D01*
X216663Y173854D01*
X216508Y173885D01*
X216354Y173919D01*
X216201Y173958D01*
X216049Y174000D01*
X215899Y174046D01*
X215749Y174096D01*
X215601Y174150D01*
X215454Y174207D01*
X215308Y174268D01*
X215165Y174333D01*
X215022Y174401D01*
X214882Y174473D01*
X214744Y174548D01*
X214607Y174627D01*
X214472Y174709D01*
X214340Y174795D01*
X214210Y174884D01*
X214082Y174976D01*
X213956Y175072D01*
X213833Y175170D01*
X213713Y175272D01*
X213595Y175377D01*
X213479Y175484D01*
X213367Y175595D01*
X213257Y175708D01*
X213150Y175824D01*
X213046Y175942D01*
X212945Y176064D01*
X212848Y176187D01*
X212753Y176314D01*
X212662Y176442D01*
X212573Y176573D01*
X212489Y176706D01*
X212407Y176841D01*
X212329Y176978D01*
X212255Y177117D01*
X212184Y177258D01*
X212116Y177400D01*
X212053Y177545D01*
X211992Y177690D01*
X211936Y177838D01*
X211883Y177986D01*
X211834Y178136D01*
X211789Y178287D01*
X211748Y178440D01*
X211710Y178593D01*
X211677Y178747D01*
X211647Y178902D01*
X211621Y179057D01*
X211600Y179214D01*
X211582Y179370D01*
X211568Y179527D01*
X211558Y179685D01*
X211552Y179842D01*
X211550Y180000D01*
D50*
X217800Y180000D03*
D10*
X126000Y960000D02*
X126004Y960344D01*
X126017Y960687D01*
X126038Y961030D01*
X126067Y961372D01*
X126105Y961714D01*
X126152Y962054D01*
X126206Y962393D01*
X126269Y962731D01*
X126340Y963067D01*
X126420Y963402D01*
X126507Y963734D01*
X126603Y964064D01*
X126707Y964392D01*
X126818Y964716D01*
X126938Y965039D01*
X127066Y965358D01*
X127201Y965673D01*
X127344Y965986D01*
X127495Y966295D01*
X127653Y966600D01*
X127819Y966901D01*
X127992Y967197D01*
X128172Y967490D01*
X128359Y967778D01*
X128554Y968061D01*
X128755Y968340D01*
X128963Y968613D01*
X129178Y968882D01*
X129399Y969144D01*
X129627Y969402D01*
X129861Y969654D01*
X130101Y969899D01*
X130346Y970139D01*
X130598Y970373D01*
X130856Y970601D01*
X131118Y970822D01*
X131387Y971037D01*
X131660Y971245D01*
X131939Y971446D01*
X132222Y971641D01*
X132510Y971828D01*
X132803Y972008D01*
X133099Y972181D01*
X133400Y972347D01*
X133705Y972505D01*
X134014Y972656D01*
X134327Y972799D01*
X134642Y972934D01*
X134961Y973062D01*
X135284Y973182D01*
X135608Y973293D01*
X135936Y973397D01*
X136266Y973493D01*
X136598Y973580D01*
X136933Y973660D01*
X137269Y973731D01*
X137607Y973794D01*
X137946Y973848D01*
X138286Y973895D01*
X138628Y973933D01*
X138970Y973962D01*
X139313Y973983D01*
X139656Y973996D01*
X140000Y974000D01*
X140344Y973996D01*
X140687Y973983D01*
X141030Y973962D01*
X141372Y973933D01*
X141714Y973895D01*
X142054Y973848D01*
X142393Y973794D01*
X142731Y973731D01*
X143067Y973660D01*
X143402Y973580D01*
X143734Y973493D01*
X144064Y973397D01*
X144392Y973293D01*
X144716Y973182D01*
X145039Y973062D01*
X145358Y972934D01*
X145673Y972799D01*
X145986Y972656D01*
X146295Y972505D01*
X146600Y972347D01*
X146901Y972181D01*
X147197Y972008D01*
X147490Y971828D01*
X147778Y971641D01*
X148061Y971446D01*
X148340Y971245D01*
X148613Y971037D01*
X148882Y970822D01*
X149144Y970601D01*
X149402Y970373D01*
X149654Y970139D01*
X149899Y969899D01*
X150139Y969654D01*
X150373Y969402D01*
X150601Y969144D01*
X150822Y968882D01*
X151037Y968613D01*
X151245Y968340D01*
X151446Y968061D01*
X151641Y967778D01*
X151828Y967490D01*
X152008Y967197D01*
X152181Y966901D01*
X152347Y966600D01*
X152505Y966295D01*
X152656Y965986D01*
X152799Y965673D01*
X152934Y965358D01*
X153062Y965039D01*
X153182Y964716D01*
X153293Y964392D01*
X153397Y964064D01*
X153493Y963734D01*
X153580Y963402D01*
X153660Y963067D01*
X153731Y962731D01*
X153794Y962393D01*
X153848Y962054D01*
X153895Y961714D01*
X153933Y961372D01*
X153962Y961030D01*
X153983Y960687D01*
X153996Y960344D01*
X154000Y960000D01*
X153996Y959656D01*
X153983Y959313D01*
X153962Y958970D01*
X153933Y958628D01*
X153895Y958286D01*
X153848Y957946D01*
X153794Y957607D01*
X153731Y957269D01*
X153660Y956933D01*
X153580Y956598D01*
X153493Y956266D01*
X153397Y955936D01*
X153293Y955608D01*
X153182Y955284D01*
X153062Y954961D01*
X152934Y954642D01*
X152799Y954327D01*
X152656Y954014D01*
X152505Y953705D01*
X152347Y953400D01*
X152181Y953099D01*
X152008Y952803D01*
X151828Y952510D01*
X151641Y952222D01*
X151446Y951939D01*
X151245Y951660D01*
X151037Y951387D01*
X150822Y951118D01*
X150601Y950856D01*
X150373Y950598D01*
X150139Y950346D01*
X149899Y950101D01*
X149654Y949861D01*
X149402Y949627D01*
X149144Y949399D01*
X148882Y949178D01*
X148613Y948963D01*
X148340Y948755D01*
X148061Y948554D01*
X147778Y948359D01*
X147490Y948172D01*
X147197Y947992D01*
X146901Y947819D01*
X146600Y947653D01*
X146295Y947495D01*
X145986Y947344D01*
X145673Y947201D01*
X145358Y947066D01*
X145039Y946938D01*
X144716Y946818D01*
X144392Y946707D01*
X144064Y946603D01*
X143734Y946507D01*
X143402Y946420D01*
X143067Y946340D01*
X142731Y946269D01*
X142393Y946206D01*
X142054Y946152D01*
X141714Y946105D01*
X141372Y946067D01*
X141030Y946038D01*
X140687Y946017D01*
X140344Y946004D01*
X140000Y946000D01*
X139656Y946004D01*
X139313Y946017D01*
X138970Y946038D01*
X138628Y946067D01*
X138286Y946105D01*
X137946Y946152D01*
X137607Y946206D01*
X137269Y946269D01*
X136933Y946340D01*
X136598Y946420D01*
X136266Y946507D01*
X135936Y946603D01*
X135608Y946707D01*
X135284Y946818D01*
X134961Y946938D01*
X134642Y947066D01*
X134327Y947201D01*
X134014Y947344D01*
X133705Y947495D01*
X133400Y947653D01*
X133099Y947819D01*
X132803Y947992D01*
X132510Y948172D01*
X132222Y948359D01*
X131939Y948554D01*
X131660Y948755D01*
X131387Y948963D01*
X131118Y949178D01*
X130856Y949399D01*
X130598Y949627D01*
X130346Y949861D01*
X130101Y950101D01*
X129861Y950346D01*
X129627Y950598D01*
X129399Y950856D01*
X129178Y951118D01*
X128963Y951387D01*
X128755Y951660D01*
X128554Y951939D01*
X128359Y952222D01*
X128172Y952510D01*
X127992Y952803D01*
X127819Y953099D01*
X127653Y953400D01*
X127495Y953705D01*
X127344Y954014D01*
X127201Y954327D01*
X127066Y954642D01*
X126938Y954961D01*
X126818Y955284D01*
X126707Y955608D01*
X126603Y955936D01*
X126507Y956266D01*
X126420Y956598D01*
X126340Y956933D01*
X126269Y957269D01*
X126206Y957607D01*
X126152Y957946D01*
X126105Y958286D01*
X126067Y958628D01*
X126038Y958970D01*
X126017Y959313D01*
X126004Y959656D01*
X126000Y960000D01*
D51*
X140000Y960000D03*
D10*
X796000Y960000D02*
X796004Y960344D01*
X796017Y960687D01*
X796038Y961030D01*
X796067Y961372D01*
X796105Y961714D01*
X796152Y962054D01*
X796206Y962393D01*
X796269Y962731D01*
X796340Y963067D01*
X796420Y963402D01*
X796507Y963734D01*
X796603Y964064D01*
X796707Y964392D01*
X796818Y964716D01*
X796938Y965039D01*
X797066Y965358D01*
X797201Y965673D01*
X797344Y965986D01*
X797495Y966295D01*
X797653Y966600D01*
X797819Y966901D01*
X797992Y967197D01*
X798172Y967490D01*
X798359Y967778D01*
X798554Y968061D01*
X798755Y968340D01*
X798963Y968613D01*
X799178Y968882D01*
X799399Y969144D01*
X799627Y969402D01*
X799861Y969654D01*
X800101Y969899D01*
X800346Y970139D01*
X800598Y970373D01*
X800856Y970601D01*
X801118Y970822D01*
X801387Y971037D01*
X801660Y971245D01*
X801939Y971446D01*
X802222Y971641D01*
X802510Y971828D01*
X802803Y972008D01*
X803099Y972181D01*
X803400Y972347D01*
X803705Y972505D01*
X804014Y972656D01*
X804327Y972799D01*
X804642Y972934D01*
X804961Y973062D01*
X805284Y973182D01*
X805608Y973293D01*
X805936Y973397D01*
X806266Y973493D01*
X806598Y973580D01*
X806933Y973660D01*
X807269Y973731D01*
X807607Y973794D01*
X807946Y973848D01*
X808286Y973895D01*
X808628Y973933D01*
X808970Y973962D01*
X809313Y973983D01*
X809656Y973996D01*
X810000Y974000D01*
X810344Y973996D01*
X810687Y973983D01*
X811030Y973962D01*
X811372Y973933D01*
X811714Y973895D01*
X812054Y973848D01*
X812393Y973794D01*
X812731Y973731D01*
X813067Y973660D01*
X813402Y973580D01*
X813734Y973493D01*
X814064Y973397D01*
X814392Y973293D01*
X814716Y973182D01*
X815039Y973062D01*
X815358Y972934D01*
X815673Y972799D01*
X815986Y972656D01*
X816295Y972505D01*
X816600Y972347D01*
X816901Y972181D01*
X817197Y972008D01*
X817490Y971828D01*
X817778Y971641D01*
X818061Y971446D01*
X818340Y971245D01*
X818613Y971037D01*
X818882Y970822D01*
X819144Y970601D01*
X819402Y970373D01*
X819654Y970139D01*
X819899Y969899D01*
X820139Y969654D01*
X820373Y969402D01*
X820601Y969144D01*
X820822Y968882D01*
X821037Y968613D01*
X821245Y968340D01*
X821446Y968061D01*
X821641Y967778D01*
X821828Y967490D01*
X822008Y967197D01*
X822181Y966901D01*
X822347Y966600D01*
X822505Y966295D01*
X822656Y965986D01*
X822799Y965673D01*
X822934Y965358D01*
X823062Y965039D01*
X823182Y964716D01*
X823293Y964392D01*
X823397Y964064D01*
X823493Y963734D01*
X823580Y963402D01*
X823660Y963067D01*
X823731Y962731D01*
X823794Y962393D01*
X823848Y962054D01*
X823895Y961714D01*
X823933Y961372D01*
X823962Y961030D01*
X823983Y960687D01*
X823996Y960344D01*
X824000Y960000D01*
X823996Y959656D01*
X823983Y959313D01*
X823962Y958970D01*
X823933Y958628D01*
X823895Y958286D01*
X823848Y957946D01*
X823794Y957607D01*
X823731Y957269D01*
X823660Y956933D01*
X823580Y956598D01*
X823493Y956266D01*
X823397Y955936D01*
X823293Y955608D01*
X823182Y955284D01*
X823062Y954961D01*
X822934Y954642D01*
X822799Y954327D01*
X822656Y954014D01*
X822505Y953705D01*
X822347Y953400D01*
X822181Y953099D01*
X822008Y952803D01*
X821828Y952510D01*
X821641Y952222D01*
X821446Y951939D01*
X821245Y951660D01*
X821037Y951387D01*
X820822Y951118D01*
X820601Y950856D01*
X820373Y950598D01*
X820139Y950346D01*
X819899Y950101D01*
X819654Y949861D01*
X819402Y949627D01*
X819144Y949399D01*
X818882Y949178D01*
X818613Y948963D01*
X818340Y948755D01*
X818061Y948554D01*
X817778Y948359D01*
X817490Y948172D01*
X817197Y947992D01*
X816901Y947819D01*
X816600Y947653D01*
X816295Y947495D01*
X815986Y947344D01*
X815673Y947201D01*
X815358Y947066D01*
X815039Y946938D01*
X814716Y946818D01*
X814392Y946707D01*
X814064Y946603D01*
X813734Y946507D01*
X813402Y946420D01*
X813067Y946340D01*
X812731Y946269D01*
X812393Y946206D01*
X812054Y946152D01*
X811714Y946105D01*
X811372Y946067D01*
X811030Y946038D01*
X810687Y946017D01*
X810344Y946004D01*
X810000Y946000D01*
X809656Y946004D01*
X809313Y946017D01*
X808970Y946038D01*
X808628Y946067D01*
X808286Y946105D01*
X807946Y946152D01*
X807607Y946206D01*
X807269Y946269D01*
X806933Y946340D01*
X806598Y946420D01*
X806266Y946507D01*
X805936Y946603D01*
X805608Y946707D01*
X805284Y946818D01*
X804961Y946938D01*
X804642Y947066D01*
X804327Y947201D01*
X804014Y947344D01*
X803705Y947495D01*
X803400Y947653D01*
X803099Y947819D01*
X802803Y947992D01*
X802510Y948172D01*
X802222Y948359D01*
X801939Y948554D01*
X801660Y948755D01*
X801387Y948963D01*
X801118Y949178D01*
X800856Y949399D01*
X800598Y949627D01*
X800346Y949861D01*
X800101Y950101D01*
X799861Y950346D01*
X799627Y950598D01*
X799399Y950856D01*
X799178Y951118D01*
X798963Y951387D01*
X798755Y951660D01*
X798554Y951939D01*
X798359Y952222D01*
X798172Y952510D01*
X797992Y952803D01*
X797819Y953099D01*
X797653Y953400D01*
X797495Y953705D01*
X797344Y954014D01*
X797201Y954327D01*
X797066Y954642D01*
X796938Y954961D01*
X796818Y955284D01*
X796707Y955608D01*
X796603Y955936D01*
X796507Y956266D01*
X796420Y956598D01*
X796340Y956933D01*
X796269Y957269D01*
X796206Y957607D01*
X796152Y957946D01*
X796105Y958286D01*
X796067Y958628D01*
X796038Y958970D01*
X796017Y959313D01*
X796004Y959656D01*
X796000Y960000D01*
D51*
X810000Y960000D03*
D11*
X507200Y755650D03*
X457200Y755650D03*
X475450Y622300D03*
X425450Y622300D03*
X643046Y779801D03*
X643046Y729801D03*
X450850Y869550D03*
X450850Y819550D03*
D16*
X402249Y941311D03*
D17*
X402249Y966711D03*
D16*
X372429Y970281D03*
D17*
X372429Y944881D03*
D25*
X482600Y241300D03*
X495300Y222250D03*
X508000Y241300D03*
D31*
X217305Y872145D03*
X245745Y872145D03*
X724140Y857780D03*
X695700Y857780D03*
D18*
X124200Y646604D02*
X124200Y633396D01*
X149200Y633396D02*
X149200Y646604D01*
X174200Y646604D02*
X174200Y633396D01*
X174200Y586604D02*
X174200Y573396D01*
X149200Y573396D02*
X149200Y586604D01*
X124200Y586604D02*
X124200Y573396D01*
D10*
X144200Y610000D02*
X144202Y610141D01*
X144208Y610282D01*
X144218Y610422D01*
X144232Y610562D01*
X144250Y610702D01*
X144271Y610841D01*
X144297Y610980D01*
X144326Y611118D01*
X144360Y611254D01*
X144397Y611390D01*
X144438Y611525D01*
X144483Y611659D01*
X144532Y611791D01*
X144584Y611922D01*
X144640Y612051D01*
X144700Y612178D01*
X144763Y612304D01*
X144829Y612428D01*
X144900Y612551D01*
X144973Y612671D01*
X145050Y612789D01*
X145130Y612905D01*
X145214Y613018D01*
X145300Y613129D01*
X145390Y613238D01*
X145483Y613344D01*
X145578Y613447D01*
X145677Y613548D01*
X145778Y613646D01*
X145882Y613741D01*
X145989Y613833D01*
X146098Y613922D01*
X146210Y614007D01*
X146324Y614090D01*
X146440Y614170D01*
X146559Y614246D01*
X146680Y614318D01*
X146802Y614388D01*
X146927Y614453D01*
X147053Y614516D01*
X147181Y614574D01*
X147311Y614629D01*
X147442Y614681D01*
X147575Y614728D01*
X147709Y614772D01*
X147844Y614813D01*
X147980Y614849D01*
X148117Y614881D01*
X148255Y614910D01*
X148393Y614935D01*
X148533Y614955D01*
X148673Y614972D01*
X148813Y614985D01*
X148954Y614994D01*
X149094Y614999D01*
X149235Y615000D01*
X149376Y614997D01*
X149517Y614990D01*
X149657Y614979D01*
X149797Y614964D01*
X149937Y614945D01*
X150076Y614923D01*
X150214Y614896D01*
X150352Y614866D01*
X150488Y614831D01*
X150624Y614793D01*
X150758Y614751D01*
X150892Y614705D01*
X151024Y614656D01*
X151154Y614602D01*
X151283Y614545D01*
X151410Y614485D01*
X151536Y614421D01*
X151659Y614353D01*
X151781Y614282D01*
X151901Y614208D01*
X152018Y614130D01*
X152133Y614049D01*
X152246Y613965D01*
X152357Y613878D01*
X152465Y613787D01*
X152570Y613694D01*
X152673Y613597D01*
X152773Y613498D01*
X152870Y613396D01*
X152964Y613291D01*
X153055Y613184D01*
X153143Y613074D01*
X153228Y612962D01*
X153310Y612847D01*
X153389Y612730D01*
X153464Y612611D01*
X153536Y612490D01*
X153604Y612367D01*
X153669Y612242D01*
X153731Y612115D01*
X153788Y611986D01*
X153843Y611856D01*
X153893Y611725D01*
X153940Y611592D01*
X153983Y611458D01*
X154022Y611322D01*
X154057Y611186D01*
X154089Y611049D01*
X154116Y610911D01*
X154140Y610772D01*
X154160Y610632D01*
X154176Y610492D01*
X154188Y610352D01*
X154196Y610211D01*
X154200Y610070D01*
X154200Y609930D01*
X154196Y609789D01*
X154188Y609648D01*
X154176Y609508D01*
X154160Y609368D01*
X154140Y609228D01*
X154116Y609089D01*
X154089Y608951D01*
X154057Y608814D01*
X154022Y608678D01*
X153983Y608542D01*
X153940Y608408D01*
X153893Y608275D01*
X153843Y608144D01*
X153788Y608014D01*
X153731Y607885D01*
X153669Y607758D01*
X153604Y607633D01*
X153536Y607510D01*
X153464Y607389D01*
X153389Y607270D01*
X153310Y607153D01*
X153228Y607038D01*
X153143Y606926D01*
X153055Y606816D01*
X152964Y606709D01*
X152870Y606604D01*
X152773Y606502D01*
X152673Y606403D01*
X152570Y606306D01*
X152465Y606213D01*
X152357Y606122D01*
X152246Y606035D01*
X152133Y605951D01*
X152018Y605870D01*
X151901Y605792D01*
X151781Y605718D01*
X151659Y605647D01*
X151536Y605579D01*
X151410Y605515D01*
X151283Y605455D01*
X151154Y605398D01*
X151024Y605344D01*
X150892Y605295D01*
X150758Y605249D01*
X150624Y605207D01*
X150488Y605169D01*
X150352Y605134D01*
X150214Y605104D01*
X150076Y605077D01*
X149937Y605055D01*
X149797Y605036D01*
X149657Y605021D01*
X149517Y605010D01*
X149376Y605003D01*
X149235Y605000D01*
X149094Y605001D01*
X148954Y605006D01*
X148813Y605015D01*
X148673Y605028D01*
X148533Y605045D01*
X148393Y605065D01*
X148255Y605090D01*
X148117Y605119D01*
X147980Y605151D01*
X147844Y605187D01*
X147709Y605228D01*
X147575Y605272D01*
X147442Y605319D01*
X147311Y605371D01*
X147181Y605426D01*
X147053Y605484D01*
X146927Y605547D01*
X146802Y605612D01*
X146680Y605682D01*
X146559Y605754D01*
X146440Y605830D01*
X146324Y605910D01*
X146210Y605993D01*
X146098Y606078D01*
X145989Y606167D01*
X145882Y606259D01*
X145778Y606354D01*
X145677Y606452D01*
X145578Y606553D01*
X145483Y606656D01*
X145390Y606762D01*
X145300Y606871D01*
X145214Y606982D01*
X145130Y607095D01*
X145050Y607211D01*
X144973Y607329D01*
X144900Y607449D01*
X144829Y607572D01*
X144763Y607696D01*
X144700Y607822D01*
X144640Y607949D01*
X144584Y608078D01*
X144532Y608209D01*
X144483Y608341D01*
X144438Y608475D01*
X144397Y608610D01*
X144360Y608746D01*
X144326Y608882D01*
X144297Y609020D01*
X144271Y609159D01*
X144250Y609298D01*
X144232Y609438D01*
X144218Y609578D01*
X144208Y609718D01*
X144202Y609859D01*
X144200Y610000D01*
D19*
X149200Y610000D03*
D18*
X334200Y586604D02*
X334200Y573396D01*
X309200Y573396D02*
X309200Y586604D01*
X284200Y586604D02*
X284200Y573396D01*
X284200Y633396D02*
X284200Y646604D01*
X309200Y646604D02*
X309200Y633396D01*
X334200Y633396D02*
X334200Y646604D01*
D10*
X304200Y610000D02*
X304202Y610141D01*
X304208Y610282D01*
X304218Y610422D01*
X304232Y610562D01*
X304250Y610702D01*
X304271Y610841D01*
X304297Y610980D01*
X304326Y611118D01*
X304360Y611254D01*
X304397Y611390D01*
X304438Y611525D01*
X304483Y611659D01*
X304532Y611791D01*
X304584Y611922D01*
X304640Y612051D01*
X304700Y612178D01*
X304763Y612304D01*
X304829Y612428D01*
X304900Y612551D01*
X304973Y612671D01*
X305050Y612789D01*
X305130Y612905D01*
X305214Y613018D01*
X305300Y613129D01*
X305390Y613238D01*
X305483Y613344D01*
X305578Y613447D01*
X305677Y613548D01*
X305778Y613646D01*
X305882Y613741D01*
X305989Y613833D01*
X306098Y613922D01*
X306210Y614007D01*
X306324Y614090D01*
X306440Y614170D01*
X306559Y614246D01*
X306680Y614318D01*
X306802Y614388D01*
X306927Y614453D01*
X307053Y614516D01*
X307181Y614574D01*
X307311Y614629D01*
X307442Y614681D01*
X307575Y614728D01*
X307709Y614772D01*
X307844Y614813D01*
X307980Y614849D01*
X308117Y614881D01*
X308255Y614910D01*
X308393Y614935D01*
X308533Y614955D01*
X308673Y614972D01*
X308813Y614985D01*
X308954Y614994D01*
X309094Y614999D01*
X309235Y615000D01*
X309376Y614997D01*
X309517Y614990D01*
X309657Y614979D01*
X309797Y614964D01*
X309937Y614945D01*
X310076Y614923D01*
X310214Y614896D01*
X310352Y614866D01*
X310488Y614831D01*
X310624Y614793D01*
X310758Y614751D01*
X310892Y614705D01*
X311024Y614656D01*
X311154Y614602D01*
X311283Y614545D01*
X311410Y614485D01*
X311536Y614421D01*
X311659Y614353D01*
X311781Y614282D01*
X311901Y614208D01*
X312018Y614130D01*
X312133Y614049D01*
X312246Y613965D01*
X312357Y613878D01*
X312465Y613787D01*
X312570Y613694D01*
X312673Y613597D01*
X312773Y613498D01*
X312870Y613396D01*
X312964Y613291D01*
X313055Y613184D01*
X313143Y613074D01*
X313228Y612962D01*
X313310Y612847D01*
X313389Y612730D01*
X313464Y612611D01*
X313536Y612490D01*
X313604Y612367D01*
X313669Y612242D01*
X313731Y612115D01*
X313788Y611986D01*
X313843Y611856D01*
X313893Y611725D01*
X313940Y611592D01*
X313983Y611458D01*
X314022Y611322D01*
X314057Y611186D01*
X314089Y611049D01*
X314116Y610911D01*
X314140Y610772D01*
X314160Y610632D01*
X314176Y610492D01*
X314188Y610352D01*
X314196Y610211D01*
X314200Y610070D01*
X314200Y609930D01*
X314196Y609789D01*
X314188Y609648D01*
X314176Y609508D01*
X314160Y609368D01*
X314140Y609228D01*
X314116Y609089D01*
X314089Y608951D01*
X314057Y608814D01*
X314022Y608678D01*
X313983Y608542D01*
X313940Y608408D01*
X313893Y608275D01*
X313843Y608144D01*
X313788Y608014D01*
X313731Y607885D01*
X313669Y607758D01*
X313604Y607633D01*
X313536Y607510D01*
X313464Y607389D01*
X313389Y607270D01*
X313310Y607153D01*
X313228Y607038D01*
X313143Y606926D01*
X313055Y606816D01*
X312964Y606709D01*
X312870Y606604D01*
X312773Y606502D01*
X312673Y606403D01*
X312570Y606306D01*
X312465Y606213D01*
X312357Y606122D01*
X312246Y606035D01*
X312133Y605951D01*
X312018Y605870D01*
X311901Y605792D01*
X311781Y605718D01*
X311659Y605647D01*
X311536Y605579D01*
X311410Y605515D01*
X311283Y605455D01*
X311154Y605398D01*
X311024Y605344D01*
X310892Y605295D01*
X310758Y605249D01*
X310624Y605207D01*
X310488Y605169D01*
X310352Y605134D01*
X310214Y605104D01*
X310076Y605077D01*
X309937Y605055D01*
X309797Y605036D01*
X309657Y605021D01*
X309517Y605010D01*
X309376Y605003D01*
X309235Y605000D01*
X309094Y605001D01*
X308954Y605006D01*
X308813Y605015D01*
X308673Y605028D01*
X308533Y605045D01*
X308393Y605065D01*
X308255Y605090D01*
X308117Y605119D01*
X307980Y605151D01*
X307844Y605187D01*
X307709Y605228D01*
X307575Y605272D01*
X307442Y605319D01*
X307311Y605371D01*
X307181Y605426D01*
X307053Y605484D01*
X306927Y605547D01*
X306802Y605612D01*
X306680Y605682D01*
X306559Y605754D01*
X306440Y605830D01*
X306324Y605910D01*
X306210Y605993D01*
X306098Y606078D01*
X305989Y606167D01*
X305882Y606259D01*
X305778Y606354D01*
X305677Y606452D01*
X305578Y606553D01*
X305483Y606656D01*
X305390Y606762D01*
X305300Y606871D01*
X305214Y606982D01*
X305130Y607095D01*
X305050Y607211D01*
X304973Y607329D01*
X304900Y607449D01*
X304829Y607572D01*
X304763Y607696D01*
X304700Y607822D01*
X304640Y607949D01*
X304584Y608078D01*
X304532Y608209D01*
X304483Y608341D01*
X304438Y608475D01*
X304397Y608610D01*
X304360Y608746D01*
X304326Y608882D01*
X304297Y609020D01*
X304271Y609159D01*
X304250Y609298D01*
X304232Y609438D01*
X304218Y609578D01*
X304208Y609718D01*
X304202Y609859D01*
X304200Y610000D01*
D19*
X309200Y610000D03*
D11*
X684919Y729425D03*
X684919Y779425D03*
D10*
X67480Y69880D02*
X67484Y70224D01*
X67497Y70567D01*
X67518Y70910D01*
X67547Y71252D01*
X67585Y71594D01*
X67632Y71934D01*
X67686Y72273D01*
X67749Y72611D01*
X67820Y72947D01*
X67900Y73282D01*
X67987Y73614D01*
X68083Y73944D01*
X68187Y74272D01*
X68298Y74596D01*
X68418Y74919D01*
X68546Y75238D01*
X68681Y75553D01*
X68824Y75866D01*
X68975Y76175D01*
X69133Y76480D01*
X69299Y76781D01*
X69472Y77077D01*
X69652Y77370D01*
X69839Y77658D01*
X70034Y77941D01*
X70235Y78220D01*
X70443Y78493D01*
X70658Y78762D01*
X70879Y79024D01*
X71107Y79282D01*
X71341Y79534D01*
X71581Y79779D01*
X71826Y80019D01*
X72078Y80253D01*
X72336Y80481D01*
X72598Y80702D01*
X72867Y80917D01*
X73140Y81125D01*
X73419Y81326D01*
X73702Y81521D01*
X73990Y81708D01*
X74283Y81888D01*
X74579Y82061D01*
X74880Y82227D01*
X75185Y82385D01*
X75494Y82536D01*
X75807Y82679D01*
X76122Y82814D01*
X76441Y82942D01*
X76764Y83062D01*
X77088Y83173D01*
X77416Y83277D01*
X77746Y83373D01*
X78078Y83460D01*
X78413Y83540D01*
X78749Y83611D01*
X79087Y83674D01*
X79426Y83728D01*
X79766Y83775D01*
X80108Y83813D01*
X80450Y83842D01*
X80793Y83863D01*
X81136Y83876D01*
X81480Y83880D01*
X81824Y83876D01*
X82167Y83863D01*
X82510Y83842D01*
X82852Y83813D01*
X83194Y83775D01*
X83534Y83728D01*
X83873Y83674D01*
X84211Y83611D01*
X84547Y83540D01*
X84882Y83460D01*
X85214Y83373D01*
X85544Y83277D01*
X85872Y83173D01*
X86196Y83062D01*
X86519Y82942D01*
X86838Y82814D01*
X87153Y82679D01*
X87466Y82536D01*
X87775Y82385D01*
X88080Y82227D01*
X88381Y82061D01*
X88677Y81888D01*
X88970Y81708D01*
X89258Y81521D01*
X89541Y81326D01*
X89820Y81125D01*
X90093Y80917D01*
X90362Y80702D01*
X90624Y80481D01*
X90882Y80253D01*
X91134Y80019D01*
X91379Y79779D01*
X91619Y79534D01*
X91853Y79282D01*
X92081Y79024D01*
X92302Y78762D01*
X92517Y78493D01*
X92725Y78220D01*
X92926Y77941D01*
X93121Y77658D01*
X93308Y77370D01*
X93488Y77077D01*
X93661Y76781D01*
X93827Y76480D01*
X93985Y76175D01*
X94136Y75866D01*
X94279Y75553D01*
X94414Y75238D01*
X94542Y74919D01*
X94662Y74596D01*
X94773Y74272D01*
X94877Y73944D01*
X94973Y73614D01*
X95060Y73282D01*
X95140Y72947D01*
X95211Y72611D01*
X95274Y72273D01*
X95328Y71934D01*
X95375Y71594D01*
X95413Y71252D01*
X95442Y70910D01*
X95463Y70567D01*
X95476Y70224D01*
X95480Y69880D01*
X95476Y69536D01*
X95463Y69193D01*
X95442Y68850D01*
X95413Y68508D01*
X95375Y68166D01*
X95328Y67826D01*
X95274Y67487D01*
X95211Y67149D01*
X95140Y66813D01*
X95060Y66478D01*
X94973Y66146D01*
X94877Y65816D01*
X94773Y65488D01*
X94662Y65164D01*
X94542Y64841D01*
X94414Y64522D01*
X94279Y64207D01*
X94136Y63894D01*
X93985Y63585D01*
X93827Y63280D01*
X93661Y62979D01*
X93488Y62683D01*
X93308Y62390D01*
X93121Y62102D01*
X92926Y61819D01*
X92725Y61540D01*
X92517Y61267D01*
X92302Y60998D01*
X92081Y60736D01*
X91853Y60478D01*
X91619Y60226D01*
X91379Y59981D01*
X91134Y59741D01*
X90882Y59507D01*
X90624Y59279D01*
X90362Y59058D01*
X90093Y58843D01*
X89820Y58635D01*
X89541Y58434D01*
X89258Y58239D01*
X88970Y58052D01*
X88677Y57872D01*
X88381Y57699D01*
X88080Y57533D01*
X87775Y57375D01*
X87466Y57224D01*
X87153Y57081D01*
X86838Y56946D01*
X86519Y56818D01*
X86196Y56698D01*
X85872Y56587D01*
X85544Y56483D01*
X85214Y56387D01*
X84882Y56300D01*
X84547Y56220D01*
X84211Y56149D01*
X83873Y56086D01*
X83534Y56032D01*
X83194Y55985D01*
X82852Y55947D01*
X82510Y55918D01*
X82167Y55897D01*
X81824Y55884D01*
X81480Y55880D01*
X81136Y55884D01*
X80793Y55897D01*
X80450Y55918D01*
X80108Y55947D01*
X79766Y55985D01*
X79426Y56032D01*
X79087Y56086D01*
X78749Y56149D01*
X78413Y56220D01*
X78078Y56300D01*
X77746Y56387D01*
X77416Y56483D01*
X77088Y56587D01*
X76764Y56698D01*
X76441Y56818D01*
X76122Y56946D01*
X75807Y57081D01*
X75494Y57224D01*
X75185Y57375D01*
X74880Y57533D01*
X74579Y57699D01*
X74283Y57872D01*
X73990Y58052D01*
X73702Y58239D01*
X73419Y58434D01*
X73140Y58635D01*
X72867Y58843D01*
X72598Y59058D01*
X72336Y59279D01*
X72078Y59507D01*
X71826Y59741D01*
X71581Y59981D01*
X71341Y60226D01*
X71107Y60478D01*
X70879Y60736D01*
X70658Y60998D01*
X70443Y61267D01*
X70235Y61540D01*
X70034Y61819D01*
X69839Y62102D01*
X69652Y62390D01*
X69472Y62683D01*
X69299Y62979D01*
X69133Y63280D01*
X68975Y63585D01*
X68824Y63894D01*
X68681Y64207D01*
X68546Y64522D01*
X68418Y64841D01*
X68298Y65164D01*
X68187Y65488D01*
X68083Y65816D01*
X67987Y66146D01*
X67900Y66478D01*
X67820Y66813D01*
X67749Y67149D01*
X67686Y67487D01*
X67632Y67826D01*
X67585Y68166D01*
X67547Y68508D01*
X67518Y68850D01*
X67497Y69193D01*
X67484Y69536D01*
X67480Y69880D01*
D51*
X81480Y69880D03*
D10*
X860680Y74500D02*
X860684Y74844D01*
X860697Y75187D01*
X860718Y75530D01*
X860747Y75872D01*
X860785Y76214D01*
X860832Y76554D01*
X860886Y76893D01*
X860949Y77231D01*
X861020Y77567D01*
X861100Y77902D01*
X861187Y78234D01*
X861283Y78564D01*
X861387Y78892D01*
X861498Y79216D01*
X861618Y79539D01*
X861746Y79858D01*
X861881Y80173D01*
X862024Y80486D01*
X862175Y80795D01*
X862333Y81100D01*
X862499Y81401D01*
X862672Y81697D01*
X862852Y81990D01*
X863039Y82278D01*
X863234Y82561D01*
X863435Y82840D01*
X863643Y83113D01*
X863858Y83382D01*
X864079Y83644D01*
X864307Y83902D01*
X864541Y84154D01*
X864781Y84399D01*
X865026Y84639D01*
X865278Y84873D01*
X865536Y85101D01*
X865798Y85322D01*
X866067Y85537D01*
X866340Y85745D01*
X866619Y85946D01*
X866902Y86141D01*
X867190Y86328D01*
X867483Y86508D01*
X867779Y86681D01*
X868080Y86847D01*
X868385Y87005D01*
X868694Y87156D01*
X869007Y87299D01*
X869322Y87434D01*
X869641Y87562D01*
X869964Y87682D01*
X870288Y87793D01*
X870616Y87897D01*
X870946Y87993D01*
X871278Y88080D01*
X871613Y88160D01*
X871949Y88231D01*
X872287Y88294D01*
X872626Y88348D01*
X872966Y88395D01*
X873308Y88433D01*
X873650Y88462D01*
X873993Y88483D01*
X874336Y88496D01*
X874680Y88500D01*
X875024Y88496D01*
X875367Y88483D01*
X875710Y88462D01*
X876052Y88433D01*
X876394Y88395D01*
X876734Y88348D01*
X877073Y88294D01*
X877411Y88231D01*
X877747Y88160D01*
X878082Y88080D01*
X878414Y87993D01*
X878744Y87897D01*
X879072Y87793D01*
X879396Y87682D01*
X879719Y87562D01*
X880038Y87434D01*
X880353Y87299D01*
X880666Y87156D01*
X880975Y87005D01*
X881280Y86847D01*
X881581Y86681D01*
X881877Y86508D01*
X882170Y86328D01*
X882458Y86141D01*
X882741Y85946D01*
X883020Y85745D01*
X883293Y85537D01*
X883562Y85322D01*
X883824Y85101D01*
X884082Y84873D01*
X884334Y84639D01*
X884579Y84399D01*
X884819Y84154D01*
X885053Y83902D01*
X885281Y83644D01*
X885502Y83382D01*
X885717Y83113D01*
X885925Y82840D01*
X886126Y82561D01*
X886321Y82278D01*
X886508Y81990D01*
X886688Y81697D01*
X886861Y81401D01*
X887027Y81100D01*
X887185Y80795D01*
X887336Y80486D01*
X887479Y80173D01*
X887614Y79858D01*
X887742Y79539D01*
X887862Y79216D01*
X887973Y78892D01*
X888077Y78564D01*
X888173Y78234D01*
X888260Y77902D01*
X888340Y77567D01*
X888411Y77231D01*
X888474Y76893D01*
X888528Y76554D01*
X888575Y76214D01*
X888613Y75872D01*
X888642Y75530D01*
X888663Y75187D01*
X888676Y74844D01*
X888680Y74500D01*
X888676Y74156D01*
X888663Y73813D01*
X888642Y73470D01*
X888613Y73128D01*
X888575Y72786D01*
X888528Y72446D01*
X888474Y72107D01*
X888411Y71769D01*
X888340Y71433D01*
X888260Y71098D01*
X888173Y70766D01*
X888077Y70436D01*
X887973Y70108D01*
X887862Y69784D01*
X887742Y69461D01*
X887614Y69142D01*
X887479Y68827D01*
X887336Y68514D01*
X887185Y68205D01*
X887027Y67900D01*
X886861Y67599D01*
X886688Y67303D01*
X886508Y67010D01*
X886321Y66722D01*
X886126Y66439D01*
X885925Y66160D01*
X885717Y65887D01*
X885502Y65618D01*
X885281Y65356D01*
X885053Y65098D01*
X884819Y64846D01*
X884579Y64601D01*
X884334Y64361D01*
X884082Y64127D01*
X883824Y63899D01*
X883562Y63678D01*
X883293Y63463D01*
X883020Y63255D01*
X882741Y63054D01*
X882458Y62859D01*
X882170Y62672D01*
X881877Y62492D01*
X881581Y62319D01*
X881280Y62153D01*
X880975Y61995D01*
X880666Y61844D01*
X880353Y61701D01*
X880038Y61566D01*
X879719Y61438D01*
X879396Y61318D01*
X879072Y61207D01*
X878744Y61103D01*
X878414Y61007D01*
X878082Y60920D01*
X877747Y60840D01*
X877411Y60769D01*
X877073Y60706D01*
X876734Y60652D01*
X876394Y60605D01*
X876052Y60567D01*
X875710Y60538D01*
X875367Y60517D01*
X875024Y60504D01*
X874680Y60500D01*
X874336Y60504D01*
X873993Y60517D01*
X873650Y60538D01*
X873308Y60567D01*
X872966Y60605D01*
X872626Y60652D01*
X872287Y60706D01*
X871949Y60769D01*
X871613Y60840D01*
X871278Y60920D01*
X870946Y61007D01*
X870616Y61103D01*
X870288Y61207D01*
X869964Y61318D01*
X869641Y61438D01*
X869322Y61566D01*
X869007Y61701D01*
X868694Y61844D01*
X868385Y61995D01*
X868080Y62153D01*
X867779Y62319D01*
X867483Y62492D01*
X867190Y62672D01*
X866902Y62859D01*
X866619Y63054D01*
X866340Y63255D01*
X866067Y63463D01*
X865798Y63678D01*
X865536Y63899D01*
X865278Y64127D01*
X865026Y64361D01*
X864781Y64601D01*
X864541Y64846D01*
X864307Y65098D01*
X864079Y65356D01*
X863858Y65618D01*
X863643Y65887D01*
X863435Y66160D01*
X863234Y66439D01*
X863039Y66722D01*
X862852Y67010D01*
X862672Y67303D01*
X862499Y67599D01*
X862333Y67900D01*
X862175Y68205D01*
X862024Y68514D01*
X861881Y68827D01*
X861746Y69142D01*
X861618Y69461D01*
X861498Y69784D01*
X861387Y70108D01*
X861283Y70436D01*
X861187Y70766D01*
X861100Y71098D01*
X861020Y71433D01*
X860949Y71769D01*
X860886Y72107D01*
X860832Y72446D01*
X860785Y72786D01*
X860747Y73128D01*
X860718Y73470D01*
X860697Y73813D01*
X860684Y74156D01*
X860680Y74500D01*
D51*
X874680Y74500D03*
D10*
X178280Y93940D02*
X178282Y94101D01*
X178288Y94261D01*
X178298Y94422D01*
X178312Y94582D01*
X178330Y94742D01*
X178351Y94901D01*
X178377Y95060D01*
X178407Y95218D01*
X178440Y95375D01*
X178478Y95532D01*
X178519Y95687D01*
X178564Y95841D01*
X178613Y95994D01*
X178666Y96146D01*
X178722Y96297D01*
X178783Y96446D01*
X178846Y96594D01*
X178914Y96740D01*
X178985Y96884D01*
X179059Y97026D01*
X179137Y97167D01*
X179219Y97305D01*
X179304Y97442D01*
X179392Y97576D01*
X179484Y97708D01*
X179579Y97838D01*
X179677Y97966D01*
X179778Y98091D01*
X179882Y98213D01*
X179989Y98333D01*
X180099Y98450D01*
X180212Y98565D01*
X180328Y98676D01*
X180447Y98785D01*
X180568Y98890D01*
X180692Y98993D01*
X180818Y99093D01*
X180946Y99189D01*
X181077Y99282D01*
X181211Y99372D01*
X181346Y99459D01*
X181484Y99542D01*
X181623Y99622D01*
X181765Y99698D01*
X181908Y99771D01*
X182053Y99840D01*
X182200Y99906D01*
X182348Y99968D01*
X182498Y100026D01*
X182649Y100081D01*
X182802Y100132D01*
X182956Y100179D01*
X183111Y100222D01*
X183267Y100261D01*
X183423Y100297D01*
X183581Y100328D01*
X183739Y100356D01*
X183898Y100380D01*
X184058Y100400D01*
X184218Y100416D01*
X184378Y100428D01*
X184539Y100436D01*
X184700Y100440D01*
X184860Y100440D01*
X185021Y100436D01*
X185182Y100428D01*
X185342Y100416D01*
X185502Y100400D01*
X185662Y100380D01*
X185821Y100356D01*
X185979Y100328D01*
X186137Y100297D01*
X186293Y100261D01*
X186449Y100222D01*
X186604Y100179D01*
X186758Y100132D01*
X186911Y100081D01*
X187062Y100026D01*
X187212Y99968D01*
X187360Y99906D01*
X187507Y99840D01*
X187652Y99771D01*
X187795Y99698D01*
X187937Y99622D01*
X188076Y99542D01*
X188214Y99459D01*
X188349Y99372D01*
X188483Y99282D01*
X188614Y99189D01*
X188742Y99093D01*
X188868Y98993D01*
X188992Y98890D01*
X189113Y98785D01*
X189232Y98676D01*
X189348Y98565D01*
X189461Y98450D01*
X189571Y98333D01*
X189678Y98213D01*
X189782Y98091D01*
X189883Y97966D01*
X189981Y97838D01*
X190076Y97708D01*
X190168Y97576D01*
X190256Y97442D01*
X190341Y97305D01*
X190423Y97167D01*
X190501Y97026D01*
X190575Y96884D01*
X190646Y96740D01*
X190714Y96594D01*
X190777Y96446D01*
X190838Y96297D01*
X190894Y96146D01*
X190947Y95994D01*
X190996Y95841D01*
X191041Y95687D01*
X191082Y95532D01*
X191120Y95375D01*
X191153Y95218D01*
X191183Y95060D01*
X191209Y94901D01*
X191230Y94742D01*
X191248Y94582D01*
X191262Y94422D01*
X191272Y94261D01*
X191278Y94101D01*
X191280Y93940D01*
X191278Y93779D01*
X191272Y93619D01*
X191262Y93458D01*
X191248Y93298D01*
X191230Y93138D01*
X191209Y92979D01*
X191183Y92820D01*
X191153Y92662D01*
X191120Y92505D01*
X191082Y92348D01*
X191041Y92193D01*
X190996Y92039D01*
X190947Y91886D01*
X190894Y91734D01*
X190838Y91583D01*
X190777Y91434D01*
X190714Y91286D01*
X190646Y91140D01*
X190575Y90996D01*
X190501Y90854D01*
X190423Y90713D01*
X190341Y90575D01*
X190256Y90438D01*
X190168Y90304D01*
X190076Y90172D01*
X189981Y90042D01*
X189883Y89914D01*
X189782Y89789D01*
X189678Y89667D01*
X189571Y89547D01*
X189461Y89430D01*
X189348Y89315D01*
X189232Y89204D01*
X189113Y89095D01*
X188992Y88990D01*
X188868Y88887D01*
X188742Y88787D01*
X188614Y88691D01*
X188483Y88598D01*
X188349Y88508D01*
X188214Y88421D01*
X188076Y88338D01*
X187937Y88258D01*
X187795Y88182D01*
X187652Y88109D01*
X187507Y88040D01*
X187360Y87974D01*
X187212Y87912D01*
X187062Y87854D01*
X186911Y87799D01*
X186758Y87748D01*
X186604Y87701D01*
X186449Y87658D01*
X186293Y87619D01*
X186137Y87583D01*
X185979Y87552D01*
X185821Y87524D01*
X185662Y87500D01*
X185502Y87480D01*
X185342Y87464D01*
X185182Y87452D01*
X185021Y87444D01*
X184860Y87440D01*
X184700Y87440D01*
X184539Y87444D01*
X184378Y87452D01*
X184218Y87464D01*
X184058Y87480D01*
X183898Y87500D01*
X183739Y87524D01*
X183581Y87552D01*
X183423Y87583D01*
X183267Y87619D01*
X183111Y87658D01*
X182956Y87701D01*
X182802Y87748D01*
X182649Y87799D01*
X182498Y87854D01*
X182348Y87912D01*
X182200Y87974D01*
X182053Y88040D01*
X181908Y88109D01*
X181765Y88182D01*
X181623Y88258D01*
X181484Y88338D01*
X181346Y88421D01*
X181211Y88508D01*
X181077Y88598D01*
X180946Y88691D01*
X180818Y88787D01*
X180692Y88887D01*
X180568Y88990D01*
X180447Y89095D01*
X180328Y89204D01*
X180212Y89315D01*
X180099Y89430D01*
X179989Y89547D01*
X179882Y89667D01*
X179778Y89789D01*
X179677Y89914D01*
X179579Y90042D01*
X179484Y90172D01*
X179392Y90304D01*
X179304Y90438D01*
X179219Y90575D01*
X179137Y90713D01*
X179059Y90854D01*
X178985Y90996D01*
X178914Y91140D01*
X178846Y91286D01*
X178783Y91434D01*
X178722Y91583D01*
X178666Y91734D01*
X178613Y91886D01*
X178564Y92039D01*
X178519Y92193D01*
X178478Y92348D01*
X178440Y92505D01*
X178407Y92662D01*
X178377Y92820D01*
X178351Y92979D01*
X178330Y93138D01*
X178312Y93298D01*
X178298Y93458D01*
X178288Y93619D01*
X178282Y93779D01*
X178280Y93940D01*
D52*
X184780Y93940D03*
D10*
X215240Y93940D02*
X215242Y94101D01*
X215248Y94261D01*
X215258Y94422D01*
X215272Y94582D01*
X215290Y94742D01*
X215311Y94901D01*
X215337Y95060D01*
X215367Y95218D01*
X215400Y95375D01*
X215438Y95532D01*
X215479Y95687D01*
X215524Y95841D01*
X215573Y95994D01*
X215626Y96146D01*
X215682Y96297D01*
X215743Y96446D01*
X215806Y96594D01*
X215874Y96740D01*
X215945Y96884D01*
X216019Y97026D01*
X216097Y97167D01*
X216179Y97305D01*
X216264Y97442D01*
X216352Y97576D01*
X216444Y97708D01*
X216539Y97838D01*
X216637Y97966D01*
X216738Y98091D01*
X216842Y98213D01*
X216949Y98333D01*
X217059Y98450D01*
X217172Y98565D01*
X217288Y98676D01*
X217407Y98785D01*
X217528Y98890D01*
X217652Y98993D01*
X217778Y99093D01*
X217906Y99189D01*
X218037Y99282D01*
X218171Y99372D01*
X218306Y99459D01*
X218444Y99542D01*
X218583Y99622D01*
X218725Y99698D01*
X218868Y99771D01*
X219013Y99840D01*
X219160Y99906D01*
X219308Y99968D01*
X219458Y100026D01*
X219609Y100081D01*
X219762Y100132D01*
X219916Y100179D01*
X220071Y100222D01*
X220227Y100261D01*
X220383Y100297D01*
X220541Y100328D01*
X220699Y100356D01*
X220858Y100380D01*
X221018Y100400D01*
X221178Y100416D01*
X221338Y100428D01*
X221499Y100436D01*
X221660Y100440D01*
X221820Y100440D01*
X221981Y100436D01*
X222142Y100428D01*
X222302Y100416D01*
X222462Y100400D01*
X222622Y100380D01*
X222781Y100356D01*
X222939Y100328D01*
X223097Y100297D01*
X223253Y100261D01*
X223409Y100222D01*
X223564Y100179D01*
X223718Y100132D01*
X223871Y100081D01*
X224022Y100026D01*
X224172Y99968D01*
X224320Y99906D01*
X224467Y99840D01*
X224612Y99771D01*
X224755Y99698D01*
X224897Y99622D01*
X225036Y99542D01*
X225174Y99459D01*
X225309Y99372D01*
X225443Y99282D01*
X225574Y99189D01*
X225702Y99093D01*
X225828Y98993D01*
X225952Y98890D01*
X226073Y98785D01*
X226192Y98676D01*
X226308Y98565D01*
X226421Y98450D01*
X226531Y98333D01*
X226638Y98213D01*
X226742Y98091D01*
X226843Y97966D01*
X226941Y97838D01*
X227036Y97708D01*
X227128Y97576D01*
X227216Y97442D01*
X227301Y97305D01*
X227383Y97167D01*
X227461Y97026D01*
X227535Y96884D01*
X227606Y96740D01*
X227674Y96594D01*
X227737Y96446D01*
X227798Y96297D01*
X227854Y96146D01*
X227907Y95994D01*
X227956Y95841D01*
X228001Y95687D01*
X228042Y95532D01*
X228080Y95375D01*
X228113Y95218D01*
X228143Y95060D01*
X228169Y94901D01*
X228190Y94742D01*
X228208Y94582D01*
X228222Y94422D01*
X228232Y94261D01*
X228238Y94101D01*
X228240Y93940D01*
X228238Y93779D01*
X228232Y93619D01*
X228222Y93458D01*
X228208Y93298D01*
X228190Y93138D01*
X228169Y92979D01*
X228143Y92820D01*
X228113Y92662D01*
X228080Y92505D01*
X228042Y92348D01*
X228001Y92193D01*
X227956Y92039D01*
X227907Y91886D01*
X227854Y91734D01*
X227798Y91583D01*
X227737Y91434D01*
X227674Y91286D01*
X227606Y91140D01*
X227535Y90996D01*
X227461Y90854D01*
X227383Y90713D01*
X227301Y90575D01*
X227216Y90438D01*
X227128Y90304D01*
X227036Y90172D01*
X226941Y90042D01*
X226843Y89914D01*
X226742Y89789D01*
X226638Y89667D01*
X226531Y89547D01*
X226421Y89430D01*
X226308Y89315D01*
X226192Y89204D01*
X226073Y89095D01*
X225952Y88990D01*
X225828Y88887D01*
X225702Y88787D01*
X225574Y88691D01*
X225443Y88598D01*
X225309Y88508D01*
X225174Y88421D01*
X225036Y88338D01*
X224897Y88258D01*
X224755Y88182D01*
X224612Y88109D01*
X224467Y88040D01*
X224320Y87974D01*
X224172Y87912D01*
X224022Y87854D01*
X223871Y87799D01*
X223718Y87748D01*
X223564Y87701D01*
X223409Y87658D01*
X223253Y87619D01*
X223097Y87583D01*
X222939Y87552D01*
X222781Y87524D01*
X222622Y87500D01*
X222462Y87480D01*
X222302Y87464D01*
X222142Y87452D01*
X221981Y87444D01*
X221820Y87440D01*
X221660Y87440D01*
X221499Y87444D01*
X221338Y87452D01*
X221178Y87464D01*
X221018Y87480D01*
X220858Y87500D01*
X220699Y87524D01*
X220541Y87552D01*
X220383Y87583D01*
X220227Y87619D01*
X220071Y87658D01*
X219916Y87701D01*
X219762Y87748D01*
X219609Y87799D01*
X219458Y87854D01*
X219308Y87912D01*
X219160Y87974D01*
X219013Y88040D01*
X218868Y88109D01*
X218725Y88182D01*
X218583Y88258D01*
X218444Y88338D01*
X218306Y88421D01*
X218171Y88508D01*
X218037Y88598D01*
X217906Y88691D01*
X217778Y88787D01*
X217652Y88887D01*
X217528Y88990D01*
X217407Y89095D01*
X217288Y89204D01*
X217172Y89315D01*
X217059Y89430D01*
X216949Y89547D01*
X216842Y89667D01*
X216738Y89789D01*
X216637Y89914D01*
X216539Y90042D01*
X216444Y90172D01*
X216352Y90304D01*
X216264Y90438D01*
X216179Y90575D01*
X216097Y90713D01*
X216019Y90854D01*
X215945Y90996D01*
X215874Y91140D01*
X215806Y91286D01*
X215743Y91434D01*
X215682Y91583D01*
X215626Y91734D01*
X215573Y91886D01*
X215524Y92039D01*
X215479Y92193D01*
X215438Y92348D01*
X215400Y92505D01*
X215367Y92662D01*
X215337Y92820D01*
X215311Y92979D01*
X215290Y93138D01*
X215272Y93298D01*
X215258Y93458D01*
X215248Y93619D01*
X215242Y93779D01*
X215240Y93940D01*
D52*
X221740Y93940D03*
D10*
X537100Y117040D02*
X537102Y117201D01*
X537108Y117361D01*
X537118Y117522D01*
X537132Y117682D01*
X537150Y117842D01*
X537171Y118001D01*
X537197Y118160D01*
X537227Y118318D01*
X537260Y118475D01*
X537298Y118632D01*
X537339Y118787D01*
X537384Y118941D01*
X537433Y119094D01*
X537486Y119246D01*
X537542Y119397D01*
X537603Y119546D01*
X537666Y119694D01*
X537734Y119840D01*
X537805Y119984D01*
X537879Y120126D01*
X537957Y120267D01*
X538039Y120405D01*
X538124Y120542D01*
X538212Y120676D01*
X538304Y120808D01*
X538399Y120938D01*
X538497Y121066D01*
X538598Y121191D01*
X538702Y121313D01*
X538809Y121433D01*
X538919Y121550D01*
X539032Y121665D01*
X539148Y121776D01*
X539267Y121885D01*
X539388Y121990D01*
X539512Y122093D01*
X539638Y122193D01*
X539766Y122289D01*
X539897Y122382D01*
X540031Y122472D01*
X540166Y122559D01*
X540304Y122642D01*
X540443Y122722D01*
X540585Y122798D01*
X540728Y122871D01*
X540873Y122940D01*
X541020Y123006D01*
X541168Y123068D01*
X541318Y123126D01*
X541469Y123181D01*
X541622Y123232D01*
X541776Y123279D01*
X541931Y123322D01*
X542087Y123361D01*
X542243Y123397D01*
X542401Y123428D01*
X542559Y123456D01*
X542718Y123480D01*
X542878Y123500D01*
X543038Y123516D01*
X543198Y123528D01*
X543359Y123536D01*
X543520Y123540D01*
X543680Y123540D01*
X543841Y123536D01*
X544002Y123528D01*
X544162Y123516D01*
X544322Y123500D01*
X544482Y123480D01*
X544641Y123456D01*
X544799Y123428D01*
X544957Y123397D01*
X545113Y123361D01*
X545269Y123322D01*
X545424Y123279D01*
X545578Y123232D01*
X545731Y123181D01*
X545882Y123126D01*
X546032Y123068D01*
X546180Y123006D01*
X546327Y122940D01*
X546472Y122871D01*
X546615Y122798D01*
X546757Y122722D01*
X546896Y122642D01*
X547034Y122559D01*
X547169Y122472D01*
X547303Y122382D01*
X547434Y122289D01*
X547562Y122193D01*
X547688Y122093D01*
X547812Y121990D01*
X547933Y121885D01*
X548052Y121776D01*
X548168Y121665D01*
X548281Y121550D01*
X548391Y121433D01*
X548498Y121313D01*
X548602Y121191D01*
X548703Y121066D01*
X548801Y120938D01*
X548896Y120808D01*
X548988Y120676D01*
X549076Y120542D01*
X549161Y120405D01*
X549243Y120267D01*
X549321Y120126D01*
X549395Y119984D01*
X549466Y119840D01*
X549534Y119694D01*
X549597Y119546D01*
X549658Y119397D01*
X549714Y119246D01*
X549767Y119094D01*
X549816Y118941D01*
X549861Y118787D01*
X549902Y118632D01*
X549940Y118475D01*
X549973Y118318D01*
X550003Y118160D01*
X550029Y118001D01*
X550050Y117842D01*
X550068Y117682D01*
X550082Y117522D01*
X550092Y117361D01*
X550098Y117201D01*
X550100Y117040D01*
X550098Y116879D01*
X550092Y116719D01*
X550082Y116558D01*
X550068Y116398D01*
X550050Y116238D01*
X550029Y116079D01*
X550003Y115920D01*
X549973Y115762D01*
X549940Y115605D01*
X549902Y115448D01*
X549861Y115293D01*
X549816Y115139D01*
X549767Y114986D01*
X549714Y114834D01*
X549658Y114683D01*
X549597Y114534D01*
X549534Y114386D01*
X549466Y114240D01*
X549395Y114096D01*
X549321Y113954D01*
X549243Y113813D01*
X549161Y113675D01*
X549076Y113538D01*
X548988Y113404D01*
X548896Y113272D01*
X548801Y113142D01*
X548703Y113014D01*
X548602Y112889D01*
X548498Y112767D01*
X548391Y112647D01*
X548281Y112530D01*
X548168Y112415D01*
X548052Y112304D01*
X547933Y112195D01*
X547812Y112090D01*
X547688Y111987D01*
X547562Y111887D01*
X547434Y111791D01*
X547303Y111698D01*
X547169Y111608D01*
X547034Y111521D01*
X546896Y111438D01*
X546757Y111358D01*
X546615Y111282D01*
X546472Y111209D01*
X546327Y111140D01*
X546180Y111074D01*
X546032Y111012D01*
X545882Y110954D01*
X545731Y110899D01*
X545578Y110848D01*
X545424Y110801D01*
X545269Y110758D01*
X545113Y110719D01*
X544957Y110683D01*
X544799Y110652D01*
X544641Y110624D01*
X544482Y110600D01*
X544322Y110580D01*
X544162Y110564D01*
X544002Y110552D01*
X543841Y110544D01*
X543680Y110540D01*
X543520Y110540D01*
X543359Y110544D01*
X543198Y110552D01*
X543038Y110564D01*
X542878Y110580D01*
X542718Y110600D01*
X542559Y110624D01*
X542401Y110652D01*
X542243Y110683D01*
X542087Y110719D01*
X541931Y110758D01*
X541776Y110801D01*
X541622Y110848D01*
X541469Y110899D01*
X541318Y110954D01*
X541168Y111012D01*
X541020Y111074D01*
X540873Y111140D01*
X540728Y111209D01*
X540585Y111282D01*
X540443Y111358D01*
X540304Y111438D01*
X540166Y111521D01*
X540031Y111608D01*
X539897Y111698D01*
X539766Y111791D01*
X539638Y111887D01*
X539512Y111987D01*
X539388Y112090D01*
X539267Y112195D01*
X539148Y112304D01*
X539032Y112415D01*
X538919Y112530D01*
X538809Y112647D01*
X538702Y112767D01*
X538598Y112889D01*
X538497Y113014D01*
X538399Y113142D01*
X538304Y113272D01*
X538212Y113404D01*
X538124Y113538D01*
X538039Y113675D01*
X537957Y113813D01*
X537879Y113954D01*
X537805Y114096D01*
X537734Y114240D01*
X537666Y114386D01*
X537603Y114534D01*
X537542Y114683D01*
X537486Y114834D01*
X537433Y114986D01*
X537384Y115139D01*
X537339Y115293D01*
X537298Y115448D01*
X537260Y115605D01*
X537227Y115762D01*
X537197Y115920D01*
X537171Y116079D01*
X537150Y116238D01*
X537132Y116398D01*
X537118Y116558D01*
X537108Y116719D01*
X537102Y116879D01*
X537100Y117040D01*
D52*
X543600Y117040D03*
D10*
X537100Y140140D02*
X537102Y140301D01*
X537108Y140461D01*
X537118Y140622D01*
X537132Y140782D01*
X537150Y140942D01*
X537171Y141101D01*
X537197Y141260D01*
X537227Y141418D01*
X537260Y141575D01*
X537298Y141732D01*
X537339Y141887D01*
X537384Y142041D01*
X537433Y142194D01*
X537486Y142346D01*
X537542Y142497D01*
X537603Y142646D01*
X537666Y142794D01*
X537734Y142940D01*
X537805Y143084D01*
X537879Y143226D01*
X537957Y143367D01*
X538039Y143505D01*
X538124Y143642D01*
X538212Y143776D01*
X538304Y143908D01*
X538399Y144038D01*
X538497Y144166D01*
X538598Y144291D01*
X538702Y144413D01*
X538809Y144533D01*
X538919Y144650D01*
X539032Y144765D01*
X539148Y144876D01*
X539267Y144985D01*
X539388Y145090D01*
X539512Y145193D01*
X539638Y145293D01*
X539766Y145389D01*
X539897Y145482D01*
X540031Y145572D01*
X540166Y145659D01*
X540304Y145742D01*
X540443Y145822D01*
X540585Y145898D01*
X540728Y145971D01*
X540873Y146040D01*
X541020Y146106D01*
X541168Y146168D01*
X541318Y146226D01*
X541469Y146281D01*
X541622Y146332D01*
X541776Y146379D01*
X541931Y146422D01*
X542087Y146461D01*
X542243Y146497D01*
X542401Y146528D01*
X542559Y146556D01*
X542718Y146580D01*
X542878Y146600D01*
X543038Y146616D01*
X543198Y146628D01*
X543359Y146636D01*
X543520Y146640D01*
X543680Y146640D01*
X543841Y146636D01*
X544002Y146628D01*
X544162Y146616D01*
X544322Y146600D01*
X544482Y146580D01*
X544641Y146556D01*
X544799Y146528D01*
X544957Y146497D01*
X545113Y146461D01*
X545269Y146422D01*
X545424Y146379D01*
X545578Y146332D01*
X545731Y146281D01*
X545882Y146226D01*
X546032Y146168D01*
X546180Y146106D01*
X546327Y146040D01*
X546472Y145971D01*
X546615Y145898D01*
X546757Y145822D01*
X546896Y145742D01*
X547034Y145659D01*
X547169Y145572D01*
X547303Y145482D01*
X547434Y145389D01*
X547562Y145293D01*
X547688Y145193D01*
X547812Y145090D01*
X547933Y144985D01*
X548052Y144876D01*
X548168Y144765D01*
X548281Y144650D01*
X548391Y144533D01*
X548498Y144413D01*
X548602Y144291D01*
X548703Y144166D01*
X548801Y144038D01*
X548896Y143908D01*
X548988Y143776D01*
X549076Y143642D01*
X549161Y143505D01*
X549243Y143367D01*
X549321Y143226D01*
X549395Y143084D01*
X549466Y142940D01*
X549534Y142794D01*
X549597Y142646D01*
X549658Y142497D01*
X549714Y142346D01*
X549767Y142194D01*
X549816Y142041D01*
X549861Y141887D01*
X549902Y141732D01*
X549940Y141575D01*
X549973Y141418D01*
X550003Y141260D01*
X550029Y141101D01*
X550050Y140942D01*
X550068Y140782D01*
X550082Y140622D01*
X550092Y140461D01*
X550098Y140301D01*
X550100Y140140D01*
X550098Y139979D01*
X550092Y139819D01*
X550082Y139658D01*
X550068Y139498D01*
X550050Y139338D01*
X550029Y139179D01*
X550003Y139020D01*
X549973Y138862D01*
X549940Y138705D01*
X549902Y138548D01*
X549861Y138393D01*
X549816Y138239D01*
X549767Y138086D01*
X549714Y137934D01*
X549658Y137783D01*
X549597Y137634D01*
X549534Y137486D01*
X549466Y137340D01*
X549395Y137196D01*
X549321Y137054D01*
X549243Y136913D01*
X549161Y136775D01*
X549076Y136638D01*
X548988Y136504D01*
X548896Y136372D01*
X548801Y136242D01*
X548703Y136114D01*
X548602Y135989D01*
X548498Y135867D01*
X548391Y135747D01*
X548281Y135630D01*
X548168Y135515D01*
X548052Y135404D01*
X547933Y135295D01*
X547812Y135190D01*
X547688Y135087D01*
X547562Y134987D01*
X547434Y134891D01*
X547303Y134798D01*
X547169Y134708D01*
X547034Y134621D01*
X546896Y134538D01*
X546757Y134458D01*
X546615Y134382D01*
X546472Y134309D01*
X546327Y134240D01*
X546180Y134174D01*
X546032Y134112D01*
X545882Y134054D01*
X545731Y133999D01*
X545578Y133948D01*
X545424Y133901D01*
X545269Y133858D01*
X545113Y133819D01*
X544957Y133783D01*
X544799Y133752D01*
X544641Y133724D01*
X544482Y133700D01*
X544322Y133680D01*
X544162Y133664D01*
X544002Y133652D01*
X543841Y133644D01*
X543680Y133640D01*
X543520Y133640D01*
X543359Y133644D01*
X543198Y133652D01*
X543038Y133664D01*
X542878Y133680D01*
X542718Y133700D01*
X542559Y133724D01*
X542401Y133752D01*
X542243Y133783D01*
X542087Y133819D01*
X541931Y133858D01*
X541776Y133901D01*
X541622Y133948D01*
X541469Y133999D01*
X541318Y134054D01*
X541168Y134112D01*
X541020Y134174D01*
X540873Y134240D01*
X540728Y134309D01*
X540585Y134382D01*
X540443Y134458D01*
X540304Y134538D01*
X540166Y134621D01*
X540031Y134708D01*
X539897Y134798D01*
X539766Y134891D01*
X539638Y134987D01*
X539512Y135087D01*
X539388Y135190D01*
X539267Y135295D01*
X539148Y135404D01*
X539032Y135515D01*
X538919Y135630D01*
X538809Y135747D01*
X538702Y135867D01*
X538598Y135989D01*
X538497Y136114D01*
X538399Y136242D01*
X538304Y136372D01*
X538212Y136504D01*
X538124Y136638D01*
X538039Y136775D01*
X537957Y136913D01*
X537879Y137054D01*
X537805Y137196D01*
X537734Y137340D01*
X537666Y137486D01*
X537603Y137634D01*
X537542Y137783D01*
X537486Y137934D01*
X537433Y138086D01*
X537384Y138239D01*
X537339Y138393D01*
X537298Y138548D01*
X537260Y138705D01*
X537227Y138862D01*
X537197Y139020D01*
X537171Y139179D01*
X537150Y139338D01*
X537132Y139498D01*
X537118Y139658D01*
X537108Y139819D01*
X537102Y139979D01*
X537100Y140140D01*
D52*
X543600Y140140D03*
D15*
X187720Y36960D03*
X215720Y36960D03*
D36*
X515904Y126365D03*
X487904Y126365D03*
D31*
X221878Y491587D03*
X193438Y491587D03*
D16*
X224152Y467974D03*
D17*
X224152Y442574D03*
D16*
X196571Y438828D03*
D17*
X196571Y464228D03*
D16*
X51756Y412250D03*
D17*
X51756Y437650D03*
D16*
X77080Y416419D03*
D17*
X102480Y416419D03*
D31*
X372474Y915011D03*
X400914Y915011D03*
D49*
X270000Y239398D02*
X270000Y220602D01*
X690000Y220602D02*
X690000Y239398D01*
X660000Y239398D02*
X660000Y220602D01*
M02*
