G04 EAGLE Gerber X2 export*
%TF.Part,Single*%
%TF.FileFunction,Soldermask,Bot,1*%
%TF.FilePolarity,Positive*%
%TF.GenerationSoftware,Autodesk,EAGLE,9.2.2*%
%TF.CreationDate,2019-01-08T14:26:45Z*%
G75*
%MOMM*%
%FSLAX34Y34*%
%LPD*%
%INSoldermask Bottom*%
%AMOC8*
5,1,8,0,0,1.08239X$1,22.5*%
G01*
%ADD10C,1.244600*%
%ADD11R,1.451600X1.451600*%
%ADD12C,1.451600*%
%ADD13C,1.509600*%
%ADD14R,1.509600X1.509600*%
%ADD15C,1.422400*%
%ADD16C,1.101600*%
%ADD17C,2.051600*%
%ADD18C,3.101600*%
%ADD19P,1.539592X8X202.500000*%
%ADD20P,2.446851X8X112.500000*%
%ADD21C,1.981200*%
%ADD22P,1.539592X8X292.500000*%
%ADD23P,1.539592X8X112.500000*%
%ADD24R,1.981200X1.981200*%
%ADD25P,3.357141X8X112.500000*%
%ADD26P,3.357141X8X22.500000*%
%ADD27P,2.446851X8X22.500000*%
%ADD28P,2.446851X8X202.500000*%
%ADD29C,1.901600*%
%ADD30P,4.233877X8X22.500000*%
%ADD31C,1.981200*%
%ADD32C,1.351600*%
%ADD33C,2.901600*%
%ADD34R,2.641600X5.181600*%
%ADD35C,1.401600*%


D10*
X369510Y377210D03*
X319510Y377210D03*
D11*
X535700Y809150D03*
D12*
X515700Y809150D03*
D11*
X520700Y695800D03*
D12*
X520700Y675800D03*
D11*
X228290Y666880D03*
D12*
X228290Y646880D03*
D11*
X608440Y623650D03*
D12*
X588440Y623650D03*
D11*
X448150Y663480D03*
D12*
X428150Y663480D03*
D10*
X514350Y596500D03*
X514350Y546500D03*
X244820Y466910D03*
X244820Y516910D03*
D11*
X137000Y538020D03*
D12*
X117000Y538020D03*
D11*
X562450Y514350D03*
D12*
X542450Y514350D03*
D11*
X590298Y384589D03*
D12*
X610298Y384589D03*
D10*
X55800Y413530D03*
X55800Y463530D03*
D11*
X79850Y533400D03*
D12*
X59850Y533400D03*
D10*
X590950Y543677D03*
X640950Y543677D03*
D11*
X414670Y477000D03*
D12*
X414670Y457000D03*
D11*
X276580Y395840D03*
D12*
X276580Y375840D03*
D10*
X684387Y644723D03*
X684387Y694723D03*
D11*
X323850Y47150D03*
D12*
X323850Y67150D03*
D11*
X444500Y167800D03*
D12*
X444500Y187800D03*
D11*
X260350Y117000D03*
D12*
X260350Y137000D03*
D10*
X57150Y745160D03*
X57150Y795160D03*
D11*
X702740Y955743D03*
D12*
X722740Y955743D03*
D11*
X584360Y955743D03*
D12*
X604360Y955743D03*
D10*
X609600Y839380D03*
X609600Y889380D03*
X545700Y851870D03*
X495700Y851870D03*
D13*
X387350Y50800D03*
D14*
X361950Y50800D03*
D13*
X330200Y139700D03*
D14*
X330200Y114300D03*
D15*
X334200Y708396D02*
X334200Y721604D01*
X309200Y721604D02*
X309200Y708396D01*
X284200Y708396D02*
X284200Y721604D01*
X284200Y768396D02*
X284200Y781604D01*
X309200Y781604D02*
X309200Y768396D01*
X334200Y768396D02*
X334200Y781604D01*
D16*
X309200Y745000D03*
D17*
X89050Y218850D02*
X69550Y218850D01*
X69550Y381150D02*
X89050Y381150D01*
X196550Y218850D02*
X216050Y218850D01*
X216050Y381150D02*
X196550Y381150D01*
D18*
X142800Y211100D03*
X142800Y388900D03*
D19*
X487700Y300000D03*
X462300Y300000D03*
D20*
X543560Y165100D03*
X544560Y92280D03*
D15*
X334200Y843396D02*
X334200Y856604D01*
X309200Y856604D02*
X309200Y843396D01*
X284200Y843396D02*
X284200Y856604D01*
X284200Y903396D02*
X284200Y916604D01*
X309200Y916604D02*
X309200Y903396D01*
X334200Y903396D02*
X334200Y916604D01*
D16*
X309200Y880000D03*
D15*
X124200Y903396D02*
X124200Y916604D01*
X149200Y916604D02*
X149200Y903396D01*
X174200Y903396D02*
X174200Y916604D01*
X174200Y856604D02*
X174200Y843396D01*
X149200Y843396D02*
X149200Y856604D01*
X124200Y856604D02*
X124200Y843396D01*
D16*
X149200Y880000D03*
D17*
X861050Y381150D02*
X880550Y381150D01*
X880550Y218850D02*
X861050Y218850D01*
X753550Y381150D02*
X734050Y381150D01*
X734050Y218850D02*
X753550Y218850D01*
D18*
X807300Y388900D03*
X807300Y211100D03*
D21*
X577850Y911320D03*
X565150Y892270D03*
X552450Y911320D03*
D22*
X649240Y943045D03*
X668290Y955745D03*
X649240Y968445D03*
D23*
X601988Y771880D03*
X582938Y759180D03*
X601988Y746480D03*
D21*
X585360Y696580D03*
X604410Y683880D03*
X585360Y671180D03*
D24*
X695800Y890000D03*
X720800Y890000D03*
X745800Y890000D03*
D25*
X676800Y820000D03*
X764800Y820000D03*
D16*
X720800Y820000D03*
D13*
X374650Y863600D03*
D14*
X374650Y838200D03*
D13*
X407670Y834390D03*
D14*
X407670Y859790D03*
D13*
X723362Y650113D03*
D14*
X723362Y675513D03*
D13*
X763270Y679450D03*
D14*
X763270Y654050D03*
D24*
X379200Y490400D03*
X379200Y465400D03*
X379200Y440400D03*
D26*
X309200Y509400D03*
X309200Y421400D03*
D16*
X309200Y465400D03*
D15*
X124200Y768396D02*
X124200Y781604D01*
X149200Y781604D02*
X149200Y768396D01*
X174200Y768396D02*
X174200Y781604D01*
X174200Y721604D02*
X174200Y708396D01*
X149200Y708396D02*
X149200Y721604D01*
X124200Y721604D02*
X124200Y708396D01*
D16*
X149200Y745000D03*
D27*
X184150Y69850D03*
D28*
X222250Y69850D03*
D29*
X690800Y601000D02*
X690800Y619000D01*
X670800Y619000D02*
X670800Y601000D01*
X770800Y601000D02*
X770800Y619000D01*
X710800Y619000D02*
X710800Y601000D01*
X730800Y601000D02*
X730800Y619000D01*
X750800Y619000D02*
X750800Y601000D01*
D30*
X660800Y500000D03*
X780800Y500000D03*
D16*
X720800Y500000D03*
D31*
X711200Y130048D02*
X711200Y111252D01*
X685800Y111252D02*
X685800Y130048D01*
X660400Y130048D02*
X660400Y111252D01*
X635000Y111252D02*
X635000Y130048D01*
X609600Y130048D02*
X609600Y111252D01*
X584200Y111252D02*
X584200Y130048D01*
D17*
X128800Y135000D02*
X128800Y115500D01*
X160800Y115500D02*
X160800Y135000D01*
X192800Y135000D02*
X192800Y115500D01*
X192800Y165000D02*
X192800Y184500D01*
X160800Y184500D02*
X160800Y165000D01*
X128800Y165000D02*
X128800Y184500D01*
D32*
X103800Y120000D03*
X217800Y180000D03*
D33*
X140000Y960000D03*
X810000Y960000D03*
D10*
X507200Y755650D03*
X457200Y755650D03*
X475450Y622300D03*
X425450Y622300D03*
D34*
X280520Y970000D03*
X474000Y31750D03*
D10*
X734561Y764996D03*
X734561Y714996D03*
X450850Y869550D03*
X450850Y819550D03*
D13*
X406080Y929020D03*
D14*
X406080Y954420D03*
D13*
X372790Y957500D03*
D14*
X372790Y932100D03*
D19*
X482600Y241300D03*
X495300Y222250D03*
X508000Y241300D03*
D15*
X124200Y633396D02*
X124200Y646604D01*
X149200Y646604D02*
X149200Y633396D01*
X174200Y633396D02*
X174200Y646604D01*
X174200Y586604D02*
X174200Y573396D01*
X149200Y573396D02*
X149200Y586604D01*
X124200Y586604D02*
X124200Y573396D01*
D16*
X149200Y610000D03*
D15*
X334200Y586604D02*
X334200Y573396D01*
X309200Y573396D02*
X309200Y586604D01*
X284200Y586604D02*
X284200Y573396D01*
X284200Y633396D02*
X284200Y646604D01*
X309200Y646604D02*
X309200Y633396D01*
X334200Y633396D02*
X334200Y646604D01*
D16*
X309200Y610000D03*
D10*
X768815Y714359D03*
X768815Y764359D03*
D33*
X81480Y69880D03*
X874680Y74500D03*
D35*
X184780Y93940D03*
X221740Y93940D03*
X543600Y117040D03*
X543600Y140140D03*
D13*
X551641Y370377D03*
D14*
X551641Y395777D03*
D13*
X523154Y399745D03*
D14*
X523154Y374345D03*
D10*
X492745Y358107D03*
X442745Y358107D03*
X493000Y392104D03*
X443000Y392104D03*
D13*
X697941Y781299D03*
X697941Y756299D03*
X697941Y731299D03*
X664941Y781299D03*
X664941Y756299D03*
X664941Y731299D03*
M02*
