G04 EAGLE Gerber X2 export*
%TF.Part,Single*%
%TF.FileFunction,Copper,L2,Bot,Mixed*%
%TF.FilePolarity,Positive*%
%TF.GenerationSoftware,Autodesk,EAGLE,9.2.2*%
%TF.CreationDate,2019-01-20T16:39:22Z*%
G75*
%MOMM*%
%FSLAX34Y34*%
%LPD*%
%INBottom Copper*%
%AMOC8*
5,1,8,0,0,1.08239X$1,22.5*%
G01*
%ADD10R,1.350000X1.350000*%
%ADD11C,1.350000*%
%ADD12C,1.651000*%
%ADD13C,1.143000*%
%ADD14C,1.408000*%
%ADD15R,1.408000X1.408000*%
%ADD16C,1.879600*%
%ADD17R,1.879600X1.879600*%
%ADD18P,3.247170X8X22.500000*%
%ADD19R,1.320800X1.320800*%
%ADD20C,1.320800*%
%ADD21P,3.247170X8X112.500000*%
%ADD22P,3.247170X8X202.500000*%
%ADD23P,3.247170X8X292.500000*%
%ADD24C,1.950000*%
%ADD25P,2.336880X8X22.500000*%
%ADD26C,2.200000*%
%ADD27C,1.700000*%
%ADD28C,1.879600*%
%ADD29R,2.540000X5.080000*%
%ADD30P,1.429621X8X22.500000*%
%ADD31P,2.336880X8X202.500000*%
%ADD32C,0.203200*%
%ADD33C,0.604800*%
%ADD34C,0.254000*%

G36*
X119437Y106362D02*
X119437Y106362D01*
X119509Y106364D01*
X119558Y106382D01*
X119609Y106390D01*
X119673Y106424D01*
X119740Y106449D01*
X119781Y106481D01*
X119827Y106506D01*
X119876Y106558D01*
X119932Y106602D01*
X119960Y106646D01*
X119996Y106684D01*
X120026Y106749D01*
X120065Y106809D01*
X120078Y106860D01*
X120100Y106907D01*
X120108Y106978D01*
X120125Y107048D01*
X120121Y107100D01*
X120127Y107151D01*
X120112Y107222D01*
X120106Y107293D01*
X120086Y107341D01*
X120075Y107392D01*
X120038Y107453D01*
X120010Y107519D01*
X119965Y107575D01*
X119948Y107603D01*
X119931Y107618D01*
X119905Y107650D01*
X118442Y109113D01*
X116725Y113257D01*
X116725Y137243D01*
X118442Y141387D01*
X121613Y144558D01*
X125757Y146275D01*
X130243Y146275D01*
X134387Y144558D01*
X137558Y141387D01*
X139275Y137243D01*
X139275Y113257D01*
X137558Y109113D01*
X136095Y107650D01*
X136053Y107592D01*
X136004Y107540D01*
X135982Y107493D01*
X135952Y107451D01*
X135931Y107382D01*
X135900Y107317D01*
X135895Y107265D01*
X135879Y107215D01*
X135881Y107144D01*
X135873Y107073D01*
X135884Y107022D01*
X135886Y106970D01*
X135910Y106902D01*
X135925Y106832D01*
X135952Y106787D01*
X135970Y106739D01*
X136015Y106683D01*
X136052Y106621D01*
X136091Y106587D01*
X136124Y106547D01*
X136184Y106508D01*
X136239Y106461D01*
X136287Y106442D01*
X136331Y106414D01*
X136400Y106396D01*
X136467Y106369D01*
X136538Y106361D01*
X136569Y106353D01*
X136592Y106355D01*
X136633Y106351D01*
X151367Y106351D01*
X151437Y106362D01*
X151509Y106364D01*
X151558Y106382D01*
X151609Y106390D01*
X151673Y106424D01*
X151740Y106449D01*
X151781Y106481D01*
X151827Y106506D01*
X151876Y106558D01*
X151932Y106602D01*
X151960Y106646D01*
X151996Y106684D01*
X152026Y106749D01*
X152065Y106809D01*
X152078Y106860D01*
X152100Y106907D01*
X152108Y106978D01*
X152125Y107048D01*
X152121Y107100D01*
X152127Y107151D01*
X152112Y107222D01*
X152106Y107293D01*
X152086Y107341D01*
X152075Y107392D01*
X152038Y107453D01*
X152010Y107519D01*
X151965Y107575D01*
X151948Y107603D01*
X151931Y107618D01*
X151905Y107650D01*
X150442Y109113D01*
X148725Y113257D01*
X148725Y137243D01*
X150442Y141387D01*
X153613Y144558D01*
X157757Y146275D01*
X162243Y146275D01*
X166387Y144558D01*
X169558Y141387D01*
X171275Y137243D01*
X171275Y113257D01*
X169558Y109113D01*
X168095Y107650D01*
X168053Y107592D01*
X168004Y107540D01*
X167982Y107493D01*
X167952Y107451D01*
X167931Y107382D01*
X167900Y107317D01*
X167895Y107265D01*
X167879Y107215D01*
X167881Y107144D01*
X167873Y107073D01*
X167884Y107022D01*
X167886Y106970D01*
X167910Y106902D01*
X167925Y106832D01*
X167952Y106787D01*
X167970Y106739D01*
X168015Y106683D01*
X168052Y106621D01*
X168091Y106587D01*
X168124Y106547D01*
X168184Y106508D01*
X168239Y106461D01*
X168287Y106442D01*
X168331Y106414D01*
X168400Y106396D01*
X168467Y106369D01*
X168538Y106361D01*
X168569Y106353D01*
X168592Y106355D01*
X168633Y106351D01*
X183367Y106351D01*
X183437Y106362D01*
X183509Y106364D01*
X183558Y106382D01*
X183609Y106390D01*
X183673Y106424D01*
X183740Y106449D01*
X183781Y106481D01*
X183827Y106506D01*
X183876Y106558D01*
X183932Y106602D01*
X183960Y106646D01*
X183996Y106684D01*
X184026Y106749D01*
X184065Y106809D01*
X184078Y106860D01*
X184100Y106907D01*
X184108Y106978D01*
X184125Y107048D01*
X184121Y107100D01*
X184127Y107151D01*
X184112Y107222D01*
X184106Y107293D01*
X184086Y107341D01*
X184075Y107392D01*
X184038Y107453D01*
X184010Y107519D01*
X183965Y107575D01*
X183948Y107603D01*
X183931Y107618D01*
X183905Y107650D01*
X182442Y109113D01*
X180725Y113257D01*
X180725Y137243D01*
X182442Y141387D01*
X185613Y144558D01*
X189757Y146275D01*
X194243Y146275D01*
X198387Y144558D01*
X201558Y141387D01*
X202746Y138519D01*
X202808Y138419D01*
X202868Y138319D01*
X202873Y138315D01*
X202876Y138310D01*
X202965Y138235D01*
X203055Y138159D01*
X203061Y138157D01*
X203065Y138153D01*
X203173Y138111D01*
X203283Y138067D01*
X203290Y138066D01*
X203295Y138065D01*
X203313Y138064D01*
X203450Y138049D01*
X209622Y138049D01*
X209712Y138063D01*
X209803Y138071D01*
X209833Y138083D01*
X209865Y138088D01*
X209945Y138131D01*
X210029Y138167D01*
X210061Y138193D01*
X210082Y138204D01*
X210104Y138227D01*
X210160Y138272D01*
X244378Y172490D01*
X244431Y172564D01*
X244491Y172633D01*
X244503Y172663D01*
X244522Y172690D01*
X244549Y172777D01*
X244583Y172861D01*
X244587Y172902D01*
X244594Y172925D01*
X244593Y172957D01*
X244601Y173028D01*
X244601Y429413D01*
X246610Y431422D01*
X258744Y443556D01*
X258813Y443651D01*
X258882Y443745D01*
X258884Y443750D01*
X258888Y443756D01*
X258922Y443867D01*
X258958Y443978D01*
X258958Y443985D01*
X258960Y443991D01*
X258957Y444107D01*
X258956Y444224D01*
X258954Y444232D01*
X258954Y444237D01*
X258947Y444254D01*
X258909Y444385D01*
X258425Y445554D01*
X258425Y448846D01*
X259685Y451887D01*
X262013Y454215D01*
X265054Y455475D01*
X268346Y455475D01*
X271387Y454215D01*
X273715Y451887D01*
X274975Y448846D01*
X274975Y445554D01*
X273715Y442513D01*
X271387Y440185D01*
X268346Y438925D01*
X265054Y438925D01*
X263885Y439409D01*
X263772Y439436D01*
X263658Y439465D01*
X263652Y439464D01*
X263646Y439465D01*
X263529Y439454D01*
X263413Y439445D01*
X263407Y439443D01*
X263401Y439442D01*
X263294Y439395D01*
X263187Y439349D01*
X263181Y439344D01*
X263176Y439342D01*
X263163Y439330D01*
X263056Y439244D01*
X250922Y427110D01*
X250869Y427036D01*
X250809Y426967D01*
X250797Y426937D01*
X250778Y426910D01*
X250751Y426823D01*
X250717Y426739D01*
X250713Y426698D01*
X250706Y426675D01*
X250707Y426643D01*
X250699Y426572D01*
X250699Y170187D01*
X212463Y131951D01*
X204036Y131951D01*
X204016Y131948D01*
X203997Y131950D01*
X203895Y131928D01*
X203793Y131912D01*
X203776Y131902D01*
X203756Y131898D01*
X203667Y131845D01*
X203576Y131796D01*
X203562Y131782D01*
X203545Y131772D01*
X203478Y131693D01*
X203406Y131618D01*
X203398Y131600D01*
X203385Y131585D01*
X203346Y131489D01*
X203303Y131395D01*
X203301Y131375D01*
X203293Y131357D01*
X203275Y131190D01*
X203275Y113257D01*
X201558Y109113D01*
X200095Y107650D01*
X200053Y107592D01*
X200004Y107540D01*
X199982Y107493D01*
X199952Y107451D01*
X199931Y107382D01*
X199900Y107317D01*
X199895Y107265D01*
X199879Y107215D01*
X199881Y107144D01*
X199873Y107073D01*
X199884Y107022D01*
X199886Y106970D01*
X199910Y106902D01*
X199925Y106832D01*
X199952Y106787D01*
X199970Y106739D01*
X200015Y106683D01*
X200052Y106621D01*
X200091Y106587D01*
X200124Y106547D01*
X200184Y106508D01*
X200239Y106461D01*
X200287Y106442D01*
X200331Y106414D01*
X200400Y106396D01*
X200467Y106369D01*
X200538Y106361D01*
X200569Y106353D01*
X200592Y106355D01*
X200633Y106351D01*
X459106Y106351D01*
X459222Y106370D01*
X459341Y106388D01*
X459345Y106390D01*
X459349Y106390D01*
X459453Y106446D01*
X459560Y106501D01*
X459563Y106504D01*
X459566Y106506D01*
X459647Y106591D01*
X459731Y106677D01*
X459733Y106681D01*
X459736Y106684D01*
X459785Y106791D01*
X459837Y106899D01*
X459837Y106903D01*
X459839Y106907D01*
X459852Y107025D01*
X459867Y107143D01*
X459866Y107148D01*
X459866Y107151D01*
X459863Y107165D01*
X459841Y107309D01*
X459759Y107615D01*
X459759Y131827D01*
X474238Y131827D01*
X474258Y131830D01*
X474277Y131828D01*
X474379Y131850D01*
X474481Y131867D01*
X474498Y131876D01*
X474518Y131880D01*
X474607Y131933D01*
X474698Y131982D01*
X474712Y131996D01*
X474729Y132006D01*
X474796Y132085D01*
X474867Y132160D01*
X474876Y132178D01*
X474889Y132193D01*
X474928Y132289D01*
X474971Y132383D01*
X474973Y132403D01*
X474981Y132421D01*
X474999Y132588D01*
X474999Y133351D01*
X475001Y133351D01*
X475001Y132588D01*
X475004Y132568D01*
X475002Y132549D01*
X475024Y132447D01*
X475041Y132345D01*
X475050Y132328D01*
X475054Y132308D01*
X475107Y132219D01*
X475156Y132128D01*
X475170Y132114D01*
X475180Y132097D01*
X475259Y132030D01*
X475334Y131959D01*
X475352Y131950D01*
X475367Y131937D01*
X475463Y131898D01*
X475557Y131855D01*
X475577Y131853D01*
X475595Y131845D01*
X475762Y131827D01*
X490241Y131827D01*
X490241Y107615D01*
X490159Y107309D01*
X490147Y107191D01*
X490134Y107073D01*
X490135Y107068D01*
X490134Y107064D01*
X490161Y106949D01*
X490186Y106832D01*
X490188Y106829D01*
X490189Y106825D01*
X490251Y106724D01*
X490312Y106621D01*
X490315Y106618D01*
X490317Y106615D01*
X490408Y106539D01*
X490499Y106461D01*
X490503Y106460D01*
X490506Y106457D01*
X490616Y106414D01*
X490727Y106369D01*
X490732Y106369D01*
X490735Y106367D01*
X490749Y106367D01*
X490894Y106351D01*
X912238Y106351D01*
X912258Y106354D01*
X912277Y106352D01*
X912379Y106374D01*
X912481Y106390D01*
X912498Y106400D01*
X912518Y106404D01*
X912607Y106457D01*
X912698Y106506D01*
X912712Y106520D01*
X912729Y106530D01*
X912796Y106609D01*
X912868Y106684D01*
X912876Y106702D01*
X912889Y106717D01*
X912928Y106813D01*
X912971Y106907D01*
X912973Y106927D01*
X912981Y106945D01*
X912999Y107112D01*
X912999Y402844D01*
X912996Y402864D01*
X912998Y402883D01*
X912976Y402985D01*
X912960Y403087D01*
X912950Y403104D01*
X912946Y403124D01*
X912893Y403213D01*
X912844Y403304D01*
X912830Y403318D01*
X912820Y403335D01*
X912741Y403402D01*
X912666Y403474D01*
X912648Y403482D01*
X912633Y403495D01*
X912537Y403534D01*
X912443Y403577D01*
X912423Y403579D01*
X912405Y403587D01*
X912238Y403605D01*
X848106Y403605D01*
X848086Y403602D01*
X848067Y403604D01*
X847965Y403582D01*
X847863Y403566D01*
X847846Y403556D01*
X847826Y403552D01*
X847737Y403499D01*
X847646Y403450D01*
X847632Y403436D01*
X847615Y403426D01*
X847548Y403347D01*
X847476Y403272D01*
X847468Y403254D01*
X847455Y403239D01*
X847416Y403143D01*
X847373Y403049D01*
X847371Y403029D01*
X847363Y403011D01*
X847345Y402844D01*
X847345Y383490D01*
X847355Y383427D01*
X847355Y383363D01*
X847375Y383307D01*
X847384Y383247D01*
X847414Y383191D01*
X847435Y383131D01*
X847472Y383083D01*
X847500Y383030D01*
X847546Y382986D01*
X847585Y382935D01*
X847634Y382902D01*
X847678Y382861D01*
X847736Y382834D01*
X847789Y382798D01*
X847847Y382782D01*
X847901Y382757D01*
X847965Y382750D01*
X848026Y382733D01*
X848086Y382737D01*
X848145Y382730D01*
X848208Y382744D01*
X848272Y382747D01*
X848327Y382769D01*
X848386Y382782D01*
X848441Y382815D01*
X848500Y382839D01*
X848545Y382878D01*
X848597Y382908D01*
X848638Y382957D01*
X848687Y382998D01*
X848718Y383050D01*
X848757Y383095D01*
X848781Y383155D01*
X848814Y383209D01*
X848836Y383293D01*
X848849Y383323D01*
X848851Y383348D01*
X848858Y383371D01*
X848962Y384028D01*
X849560Y385868D01*
X850438Y387592D01*
X851575Y389157D01*
X852943Y390525D01*
X854508Y391662D01*
X856232Y392540D01*
X858072Y393138D01*
X859983Y393441D01*
X869177Y393441D01*
X869177Y381912D01*
X869179Y381897D01*
X869178Y381884D01*
X869179Y381880D01*
X869178Y381873D01*
X869200Y381771D01*
X869217Y381669D01*
X869226Y381652D01*
X869230Y381632D01*
X869283Y381543D01*
X869332Y381452D01*
X869346Y381438D01*
X869356Y381421D01*
X869435Y381354D01*
X869510Y381283D01*
X869528Y381274D01*
X869543Y381261D01*
X869639Y381223D01*
X869733Y381179D01*
X869753Y381177D01*
X869771Y381169D01*
X869938Y381151D01*
X870701Y381151D01*
X870701Y381149D01*
X869938Y381149D01*
X869918Y381146D01*
X869899Y381148D01*
X869797Y381126D01*
X869695Y381109D01*
X869678Y381100D01*
X869658Y381096D01*
X869569Y381043D01*
X869478Y380994D01*
X869464Y380980D01*
X869447Y380970D01*
X869380Y380891D01*
X869309Y380816D01*
X869300Y380798D01*
X869287Y380783D01*
X869248Y380687D01*
X869205Y380593D01*
X869203Y380573D01*
X869195Y380555D01*
X869177Y380388D01*
X869177Y368859D01*
X859983Y368859D01*
X858072Y369162D01*
X856232Y369760D01*
X854508Y370638D01*
X852943Y371775D01*
X851575Y373143D01*
X850438Y374708D01*
X849560Y376432D01*
X848962Y378272D01*
X848858Y378929D01*
X848838Y378990D01*
X848827Y379053D01*
X848799Y379106D01*
X848781Y379162D01*
X848742Y379214D01*
X848712Y379270D01*
X848669Y379311D01*
X848633Y379359D01*
X848580Y379395D01*
X848534Y379439D01*
X848480Y379465D01*
X848430Y379499D01*
X848369Y379516D01*
X848311Y379543D01*
X848251Y379550D01*
X848194Y379566D01*
X848130Y379563D01*
X848067Y379570D01*
X848008Y379557D01*
X847948Y379555D01*
X847889Y379531D01*
X847826Y379518D01*
X847775Y379487D01*
X847719Y379465D01*
X847670Y379424D01*
X847615Y379392D01*
X847576Y379346D01*
X847530Y379308D01*
X847497Y379253D01*
X847455Y379205D01*
X847433Y379149D01*
X847401Y379098D01*
X847387Y379036D01*
X847363Y378977D01*
X847354Y378891D01*
X847346Y378858D01*
X847347Y378834D01*
X847345Y378810D01*
X847345Y359156D01*
X847348Y359136D01*
X847346Y359117D01*
X847368Y359015D01*
X847384Y358913D01*
X847394Y358896D01*
X847398Y358876D01*
X847451Y358787D01*
X847500Y358696D01*
X847514Y358682D01*
X847524Y358665D01*
X847603Y358598D01*
X847678Y358526D01*
X847696Y358518D01*
X847711Y358505D01*
X847807Y358466D01*
X847901Y358423D01*
X847921Y358421D01*
X847939Y358413D01*
X848106Y358395D01*
X890158Y358395D01*
X891795Y356758D01*
X891795Y278242D01*
X890158Y276605D01*
X697342Y276605D01*
X695705Y278242D01*
X695705Y369458D01*
X697342Y371095D01*
X726223Y371095D01*
X726293Y371106D01*
X726365Y371108D01*
X726414Y371126D01*
X726465Y371134D01*
X726529Y371168D01*
X726596Y371193D01*
X726637Y371225D01*
X726683Y371250D01*
X726732Y371302D01*
X726788Y371346D01*
X726816Y371390D01*
X726852Y371428D01*
X726882Y371493D01*
X726921Y371553D01*
X726934Y371604D01*
X726956Y371651D01*
X726964Y371722D01*
X726981Y371792D01*
X726977Y371844D01*
X726983Y371895D01*
X726968Y371966D01*
X726962Y372037D01*
X726942Y372085D01*
X726931Y372136D01*
X726894Y372197D01*
X726866Y372263D01*
X726821Y372319D01*
X726804Y372347D01*
X726787Y372362D01*
X726761Y372394D01*
X724392Y374763D01*
X722675Y378907D01*
X722675Y383393D01*
X724392Y387537D01*
X726461Y389606D01*
X726503Y389664D01*
X726552Y389716D01*
X726574Y389763D01*
X726604Y389805D01*
X726625Y389874D01*
X726656Y389939D01*
X726661Y389991D01*
X726677Y390041D01*
X726675Y390112D01*
X726683Y390183D01*
X726672Y390234D01*
X726670Y390286D01*
X726646Y390354D01*
X726631Y390424D01*
X726604Y390469D01*
X726586Y390517D01*
X726541Y390573D01*
X726504Y390635D01*
X726465Y390669D01*
X726432Y390709D01*
X726372Y390748D01*
X726317Y390795D01*
X726269Y390814D01*
X726225Y390842D01*
X726156Y390860D01*
X726089Y390887D01*
X726018Y390895D01*
X725987Y390903D01*
X725964Y390901D01*
X725923Y390905D01*
X687273Y390905D01*
X687183Y390891D01*
X687092Y390883D01*
X687062Y390871D01*
X687030Y390866D01*
X686950Y390823D01*
X686866Y390787D01*
X686834Y390761D01*
X686813Y390750D01*
X686791Y390727D01*
X686735Y390682D01*
X644368Y348315D01*
X644315Y348241D01*
X644255Y348172D01*
X644243Y348142D01*
X644224Y348116D01*
X644197Y348029D01*
X644163Y347944D01*
X644159Y347903D01*
X644152Y347881D01*
X644153Y347848D01*
X644145Y347777D01*
X644145Y303642D01*
X629808Y289305D01*
X519542Y289305D01*
X507065Y301782D01*
X506991Y301835D01*
X506922Y301895D01*
X506892Y301907D01*
X506866Y301926D01*
X506779Y301953D01*
X506694Y301987D01*
X506653Y301991D01*
X506631Y301998D01*
X506598Y301997D01*
X506527Y302005D01*
X411592Y302005D01*
X403605Y309992D01*
X403605Y623458D01*
X405242Y625095D01*
X529844Y625095D01*
X529864Y625098D01*
X529883Y625096D01*
X529985Y625118D01*
X530087Y625134D01*
X530104Y625144D01*
X530124Y625148D01*
X530213Y625201D01*
X530304Y625250D01*
X530318Y625264D01*
X530335Y625274D01*
X530402Y625353D01*
X530474Y625428D01*
X530482Y625446D01*
X530495Y625461D01*
X530534Y625557D01*
X530577Y625651D01*
X530579Y625671D01*
X530587Y625689D01*
X530605Y625856D01*
X530605Y667908D01*
X532242Y669545D01*
X599694Y669545D01*
X599714Y669548D01*
X599733Y669546D01*
X599835Y669568D01*
X599937Y669584D01*
X599954Y669594D01*
X599974Y669598D01*
X600063Y669651D01*
X600154Y669700D01*
X600168Y669714D01*
X600185Y669724D01*
X600252Y669803D01*
X600324Y669878D01*
X600332Y669896D01*
X600345Y669911D01*
X600384Y670007D01*
X600427Y670101D01*
X600429Y670121D01*
X600437Y670139D01*
X600455Y670306D01*
X600455Y741477D01*
X600441Y741567D01*
X600433Y741658D01*
X600421Y741688D01*
X600416Y741720D01*
X600373Y741800D01*
X600337Y741884D01*
X600311Y741916D01*
X600300Y741937D01*
X600277Y741959D01*
X600232Y742015D01*
X595965Y746282D01*
X595891Y746335D01*
X595822Y746395D01*
X595792Y746407D01*
X595766Y746426D01*
X595679Y746453D01*
X595594Y746487D01*
X595553Y746491D01*
X595531Y746498D01*
X595498Y746497D01*
X595427Y746505D01*
X548786Y746505D01*
X548766Y746502D01*
X548747Y746504D01*
X548645Y746482D01*
X548543Y746466D01*
X548526Y746456D01*
X548506Y746452D01*
X548417Y746399D01*
X548326Y746350D01*
X548312Y746336D01*
X548295Y746326D01*
X548228Y746247D01*
X548156Y746172D01*
X548148Y746154D01*
X548135Y746139D01*
X548096Y746043D01*
X548053Y745949D01*
X548051Y745929D01*
X548043Y745911D01*
X548025Y745744D01*
X548025Y732868D01*
X547132Y731975D01*
X532368Y731975D01*
X531475Y732868D01*
X531475Y746957D01*
X531461Y747047D01*
X531453Y747138D01*
X531441Y747168D01*
X531436Y747200D01*
X531393Y747280D01*
X531357Y747364D01*
X531331Y747396D01*
X531320Y747417D01*
X531297Y747439D01*
X531252Y747495D01*
X530605Y748142D01*
X530605Y771144D01*
X530602Y771164D01*
X530604Y771183D01*
X530582Y771285D01*
X530566Y771387D01*
X530556Y771404D01*
X530552Y771424D01*
X530499Y771513D01*
X530450Y771604D01*
X530436Y771618D01*
X530426Y771635D01*
X530347Y771702D01*
X530272Y771774D01*
X530254Y771782D01*
X530239Y771795D01*
X530143Y771834D01*
X530049Y771877D01*
X530029Y771879D01*
X530011Y771887D01*
X529844Y771905D01*
X430642Y771905D01*
X429005Y773542D01*
X429005Y820308D01*
X430642Y821945D01*
X633815Y821945D01*
X633852Y821951D01*
X633889Y821948D01*
X633973Y821971D01*
X634057Y821984D01*
X634091Y822002D01*
X634127Y822012D01*
X634271Y822097D01*
X642495Y828265D01*
X642497Y828267D01*
X642499Y828268D01*
X642582Y828355D01*
X642666Y828442D01*
X642667Y828444D01*
X642668Y828446D01*
X642719Y828556D01*
X642771Y828665D01*
X642771Y828667D01*
X642772Y828669D01*
X642785Y828785D01*
X642799Y828909D01*
X642799Y828911D01*
X642799Y828913D01*
X642774Y829030D01*
X642748Y829150D01*
X642747Y829152D01*
X642747Y829154D01*
X642685Y829258D01*
X642623Y829362D01*
X642622Y829363D01*
X642620Y829365D01*
X642528Y829444D01*
X642437Y829523D01*
X642435Y829523D01*
X642434Y829525D01*
X642320Y829571D01*
X642210Y829616D01*
X642207Y829616D01*
X642205Y829617D01*
X642039Y829635D01*
X639646Y829635D01*
X636498Y830939D01*
X634089Y833348D01*
X632785Y836496D01*
X632785Y839904D01*
X634089Y843052D01*
X636498Y845461D01*
X639646Y846765D01*
X643054Y846765D01*
X646202Y845461D01*
X648611Y843052D01*
X649915Y839904D01*
X649915Y836496D01*
X649376Y835196D01*
X649366Y835153D01*
X649347Y835114D01*
X649338Y835034D01*
X649320Y834956D01*
X649324Y834913D01*
X649319Y834869D01*
X649335Y834791D01*
X649343Y834711D01*
X649361Y834671D01*
X649370Y834629D01*
X649410Y834560D01*
X649443Y834487D01*
X649473Y834455D01*
X649495Y834417D01*
X649555Y834365D01*
X649609Y834306D01*
X649648Y834284D01*
X649681Y834256D01*
X649755Y834226D01*
X649825Y834187D01*
X649868Y834179D01*
X649908Y834163D01*
X649988Y834158D01*
X650067Y834143D01*
X650110Y834150D01*
X650154Y834147D01*
X650231Y834167D01*
X650310Y834179D01*
X650349Y834199D01*
X650392Y834210D01*
X650517Y834284D01*
X650530Y834291D01*
X650532Y834293D01*
X650536Y834295D01*
X657301Y839369D01*
X657316Y839385D01*
X657335Y839396D01*
X657401Y839473D01*
X657471Y839546D01*
X657480Y839566D01*
X657495Y839583D01*
X657533Y839677D01*
X657576Y839769D01*
X657579Y839791D01*
X657587Y839811D01*
X657605Y839978D01*
X657605Y902858D01*
X659242Y904495D01*
X838238Y904495D01*
X838258Y904498D01*
X838277Y904496D01*
X838379Y904518D01*
X838481Y904534D01*
X838498Y904544D01*
X838518Y904548D01*
X838607Y904601D01*
X838698Y904650D01*
X838712Y904664D01*
X838729Y904674D01*
X838796Y904753D01*
X838868Y904828D01*
X838876Y904846D01*
X838889Y904861D01*
X838928Y904957D01*
X838971Y905051D01*
X838973Y905071D01*
X838981Y905089D01*
X838999Y905256D01*
X838999Y937503D01*
X838988Y937574D01*
X838986Y937646D01*
X838968Y937695D01*
X838960Y937746D01*
X838926Y937809D01*
X838901Y937877D01*
X838869Y937917D01*
X838844Y937964D01*
X838792Y938013D01*
X838748Y938069D01*
X838704Y938097D01*
X838666Y938133D01*
X838601Y938163D01*
X838541Y938202D01*
X838490Y938215D01*
X838443Y938237D01*
X838372Y938244D01*
X838302Y938262D01*
X838250Y938258D01*
X838199Y938264D01*
X838128Y938248D01*
X838057Y938243D01*
X838009Y938222D01*
X837958Y938211D01*
X837897Y938175D01*
X837831Y938146D01*
X837775Y938102D01*
X837747Y938085D01*
X837732Y938067D01*
X837700Y938042D01*
X830897Y931238D01*
X820986Y926189D01*
X810000Y924449D01*
X799014Y926189D01*
X789103Y931238D01*
X781238Y939103D01*
X776189Y949014D01*
X774449Y960000D01*
X776189Y970986D01*
X781238Y980897D01*
X789103Y988762D01*
X791702Y990085D01*
X791724Y990101D01*
X791749Y990112D01*
X791822Y990174D01*
X791900Y990231D01*
X791916Y990253D01*
X791936Y990271D01*
X791986Y990353D01*
X792041Y990432D01*
X792049Y990458D01*
X792063Y990481D01*
X792084Y990576D01*
X792111Y990668D01*
X792110Y990695D01*
X792116Y990722D01*
X792106Y990818D01*
X792102Y990914D01*
X792093Y990939D01*
X792090Y990966D01*
X792050Y991054D01*
X792016Y991144D01*
X791998Y991165D01*
X791987Y991190D01*
X791921Y991260D01*
X791860Y991334D01*
X791837Y991349D01*
X791818Y991369D01*
X791733Y991414D01*
X791652Y991465D01*
X791625Y991472D01*
X791601Y991484D01*
X791437Y991521D01*
X749826Y995995D01*
X749798Y995993D01*
X749745Y995999D01*
X529762Y995999D01*
X529742Y995996D01*
X529723Y995998D01*
X529621Y995976D01*
X529519Y995960D01*
X529502Y995950D01*
X529482Y995946D01*
X529393Y995893D01*
X529302Y995844D01*
X529288Y995830D01*
X529271Y995820D01*
X529204Y995741D01*
X529132Y995666D01*
X529124Y995648D01*
X529111Y995633D01*
X529072Y995537D01*
X529029Y995443D01*
X529027Y995423D01*
X529019Y995405D01*
X529001Y995238D01*
X529001Y898343D01*
X526657Y895999D01*
X423343Y895999D01*
X420999Y898343D01*
X420999Y995238D01*
X420996Y995258D01*
X420998Y995277D01*
X420976Y995379D01*
X420960Y995481D01*
X420950Y995498D01*
X420946Y995518D01*
X420893Y995607D01*
X420844Y995698D01*
X420830Y995712D01*
X420820Y995729D01*
X420741Y995796D01*
X420666Y995868D01*
X420648Y995876D01*
X420633Y995889D01*
X420537Y995928D01*
X420443Y995971D01*
X420423Y995973D01*
X420405Y995981D01*
X420238Y995999D01*
X403352Y995999D01*
X403332Y995996D01*
X403313Y995998D01*
X403211Y995976D01*
X403109Y995960D01*
X403092Y995950D01*
X403072Y995946D01*
X402983Y995893D01*
X402892Y995844D01*
X402878Y995830D01*
X402861Y995820D01*
X402794Y995741D01*
X402722Y995666D01*
X402714Y995648D01*
X402701Y995633D01*
X402662Y995537D01*
X402619Y995443D01*
X402617Y995423D01*
X402609Y995405D01*
X402591Y995238D01*
X402591Y971523D01*
X388112Y971523D01*
X388092Y971520D01*
X388073Y971522D01*
X387971Y971500D01*
X387869Y971483D01*
X387852Y971474D01*
X387832Y971470D01*
X387743Y971417D01*
X387652Y971368D01*
X387638Y971354D01*
X387621Y971344D01*
X387554Y971265D01*
X387483Y971190D01*
X387474Y971172D01*
X387461Y971157D01*
X387422Y971061D01*
X387379Y970967D01*
X387377Y970947D01*
X387369Y970929D01*
X387351Y970762D01*
X387351Y969999D01*
X387349Y969999D01*
X387349Y970762D01*
X387346Y970782D01*
X387348Y970801D01*
X387326Y970903D01*
X387309Y971005D01*
X387300Y971022D01*
X387296Y971042D01*
X387243Y971131D01*
X387194Y971222D01*
X387180Y971236D01*
X387170Y971253D01*
X387091Y971320D01*
X387016Y971391D01*
X386998Y971400D01*
X386983Y971413D01*
X386887Y971452D01*
X386793Y971495D01*
X386773Y971497D01*
X386755Y971505D01*
X386588Y971523D01*
X372109Y971523D01*
X372109Y995238D01*
X372106Y995258D01*
X372108Y995277D01*
X372086Y995379D01*
X372070Y995481D01*
X372060Y995498D01*
X372056Y995518D01*
X372003Y995607D01*
X371954Y995698D01*
X371940Y995712D01*
X371930Y995729D01*
X371851Y995796D01*
X371776Y995868D01*
X371758Y995876D01*
X371743Y995889D01*
X371647Y995928D01*
X371553Y995971D01*
X371533Y995973D01*
X371515Y995981D01*
X371348Y995999D01*
X200255Y995999D01*
X200228Y995995D01*
X200174Y995995D01*
X158563Y991521D01*
X158536Y991513D01*
X158509Y991513D01*
X158418Y991481D01*
X158325Y991455D01*
X158303Y991440D01*
X158277Y991431D01*
X158202Y991371D01*
X158122Y991317D01*
X158105Y991296D01*
X158084Y991279D01*
X158031Y991199D01*
X157972Y991122D01*
X157964Y991096D01*
X157949Y991074D01*
X157924Y990980D01*
X157893Y990889D01*
X157893Y990862D01*
X157886Y990836D01*
X157893Y990740D01*
X157892Y990643D01*
X157901Y990617D01*
X157903Y990590D01*
X157939Y990501D01*
X157970Y990410D01*
X157986Y990388D01*
X157997Y990363D01*
X158060Y990290D01*
X158118Y990213D01*
X158140Y990198D01*
X158158Y990178D01*
X158298Y990085D01*
X160897Y988762D01*
X168762Y980897D01*
X173811Y970986D01*
X175551Y960000D01*
X173811Y949014D01*
X168762Y939103D01*
X160897Y931238D01*
X150986Y926189D01*
X140000Y924449D01*
X129014Y926189D01*
X119103Y931238D01*
X112300Y938042D01*
X112242Y938084D01*
X112190Y938133D01*
X112143Y938155D01*
X112101Y938185D01*
X112032Y938206D01*
X111967Y938237D01*
X111915Y938242D01*
X111865Y938258D01*
X111794Y938256D01*
X111723Y938264D01*
X111672Y938253D01*
X111620Y938251D01*
X111552Y938227D01*
X111482Y938211D01*
X111437Y938185D01*
X111389Y938167D01*
X111333Y938122D01*
X111271Y938085D01*
X111237Y938046D01*
X111197Y938013D01*
X111158Y937953D01*
X111111Y937898D01*
X111092Y937850D01*
X111064Y937806D01*
X111046Y937737D01*
X111019Y937670D01*
X111011Y937599D01*
X111003Y937568D01*
X111005Y937544D01*
X111001Y937503D01*
X111001Y818343D01*
X108657Y815999D01*
X37762Y815999D01*
X37742Y815996D01*
X37723Y815998D01*
X37621Y815976D01*
X37519Y815960D01*
X37502Y815950D01*
X37482Y815946D01*
X37393Y815893D01*
X37302Y815844D01*
X37288Y815830D01*
X37271Y815820D01*
X37204Y815741D01*
X37132Y815666D01*
X37124Y815648D01*
X37111Y815633D01*
X37072Y815537D01*
X37029Y815443D01*
X37027Y815423D01*
X37019Y815405D01*
X37001Y815238D01*
X37001Y107112D01*
X37004Y107092D01*
X37002Y107073D01*
X37024Y106971D01*
X37040Y106869D01*
X37050Y106852D01*
X37054Y106832D01*
X37107Y106743D01*
X37156Y106652D01*
X37170Y106638D01*
X37180Y106621D01*
X37259Y106554D01*
X37334Y106482D01*
X37352Y106474D01*
X37367Y106461D01*
X37463Y106422D01*
X37557Y106379D01*
X37577Y106377D01*
X37595Y106369D01*
X37762Y106351D01*
X119367Y106351D01*
X119437Y106362D01*
G37*
G36*
X889020Y278642D02*
X889020Y278642D01*
X889039Y278640D01*
X889141Y278662D01*
X889243Y278679D01*
X889260Y278688D01*
X889280Y278692D01*
X889369Y278745D01*
X889460Y278794D01*
X889474Y278808D01*
X889491Y278818D01*
X889558Y278897D01*
X889630Y278972D01*
X889638Y278990D01*
X889651Y279005D01*
X889690Y279101D01*
X889733Y279195D01*
X889735Y279215D01*
X889743Y279233D01*
X889761Y279400D01*
X889761Y355600D01*
X889758Y355620D01*
X889760Y355639D01*
X889738Y355741D01*
X889722Y355843D01*
X889712Y355860D01*
X889708Y355880D01*
X889655Y355969D01*
X889606Y356060D01*
X889592Y356074D01*
X889582Y356091D01*
X889503Y356158D01*
X889428Y356230D01*
X889410Y356238D01*
X889395Y356251D01*
X889299Y356290D01*
X889205Y356333D01*
X889185Y356335D01*
X889167Y356343D01*
X889000Y356361D01*
X845311Y356361D01*
X845311Y405639D01*
X912238Y405639D01*
X912258Y405642D01*
X912277Y405640D01*
X912379Y405662D01*
X912481Y405679D01*
X912498Y405688D01*
X912518Y405692D01*
X912607Y405745D01*
X912698Y405794D01*
X912712Y405808D01*
X912729Y405818D01*
X912796Y405897D01*
X912868Y405972D01*
X912876Y405990D01*
X912889Y406005D01*
X912928Y406101D01*
X912971Y406195D01*
X912973Y406215D01*
X912981Y406233D01*
X912999Y406400D01*
X912999Y815238D01*
X912996Y815258D01*
X912998Y815277D01*
X912976Y815379D01*
X912960Y815481D01*
X912950Y815498D01*
X912946Y815518D01*
X912893Y815607D01*
X912844Y815698D01*
X912830Y815712D01*
X912820Y815729D01*
X912741Y815796D01*
X912666Y815868D01*
X912648Y815876D01*
X912633Y815889D01*
X912537Y815928D01*
X912443Y815971D01*
X912423Y815973D01*
X912405Y815981D01*
X912238Y815999D01*
X841343Y815999D01*
X838999Y818343D01*
X838999Y901700D01*
X838996Y901720D01*
X838998Y901739D01*
X838976Y901841D01*
X838960Y901943D01*
X838950Y901960D01*
X838946Y901980D01*
X838893Y902069D01*
X838844Y902160D01*
X838830Y902174D01*
X838820Y902191D01*
X838741Y902258D01*
X838666Y902330D01*
X838648Y902338D01*
X838633Y902351D01*
X838537Y902390D01*
X838443Y902433D01*
X838423Y902435D01*
X838405Y902443D01*
X838238Y902461D01*
X660400Y902461D01*
X660380Y902458D01*
X660361Y902460D01*
X660259Y902438D01*
X660157Y902422D01*
X660140Y902412D01*
X660120Y902408D01*
X660031Y902355D01*
X659940Y902306D01*
X659926Y902292D01*
X659909Y902282D01*
X659842Y902203D01*
X659771Y902128D01*
X659762Y902110D01*
X659749Y902095D01*
X659710Y901999D01*
X659667Y901905D01*
X659665Y901885D01*
X659657Y901867D01*
X659639Y901700D01*
X659639Y838581D01*
X634746Y819911D01*
X431800Y819911D01*
X431780Y819908D01*
X431761Y819910D01*
X431659Y819888D01*
X431557Y819872D01*
X431540Y819862D01*
X431520Y819858D01*
X431431Y819805D01*
X431340Y819756D01*
X431326Y819742D01*
X431309Y819732D01*
X431242Y819653D01*
X431171Y819578D01*
X431162Y819560D01*
X431149Y819545D01*
X431110Y819449D01*
X431067Y819355D01*
X431065Y819335D01*
X431057Y819317D01*
X431039Y819150D01*
X431039Y774700D01*
X431042Y774680D01*
X431040Y774661D01*
X431062Y774559D01*
X431079Y774457D01*
X431088Y774440D01*
X431092Y774420D01*
X431145Y774331D01*
X431194Y774240D01*
X431208Y774226D01*
X431218Y774209D01*
X431297Y774142D01*
X431372Y774071D01*
X431390Y774062D01*
X431405Y774049D01*
X431501Y774010D01*
X431595Y773967D01*
X431615Y773965D01*
X431633Y773957D01*
X431800Y773939D01*
X532639Y773939D01*
X532639Y749300D01*
X532642Y749280D01*
X532640Y749261D01*
X532662Y749159D01*
X532679Y749057D01*
X532688Y749040D01*
X532692Y749020D01*
X532745Y748931D01*
X532794Y748840D01*
X532808Y748826D01*
X532818Y748809D01*
X532897Y748742D01*
X532972Y748671D01*
X532990Y748662D01*
X533005Y748649D01*
X533101Y748610D01*
X533195Y748567D01*
X533215Y748565D01*
X533233Y748557D01*
X533400Y748539D01*
X596585Y748539D01*
X602489Y742635D01*
X602489Y667511D01*
X533400Y667511D01*
X533380Y667508D01*
X533361Y667510D01*
X533259Y667488D01*
X533157Y667472D01*
X533140Y667462D01*
X533120Y667458D01*
X533031Y667405D01*
X532940Y667356D01*
X532926Y667342D01*
X532909Y667332D01*
X532842Y667253D01*
X532771Y667178D01*
X532762Y667160D01*
X532749Y667145D01*
X532710Y667049D01*
X532667Y666955D01*
X532665Y666935D01*
X532657Y666917D01*
X532639Y666750D01*
X532639Y623061D01*
X406400Y623061D01*
X406380Y623058D01*
X406361Y623060D01*
X406259Y623038D01*
X406157Y623022D01*
X406140Y623012D01*
X406120Y623008D01*
X406031Y622955D01*
X405940Y622906D01*
X405926Y622892D01*
X405909Y622882D01*
X405842Y622803D01*
X405771Y622728D01*
X405762Y622710D01*
X405749Y622695D01*
X405710Y622599D01*
X405667Y622505D01*
X405665Y622485D01*
X405657Y622467D01*
X405639Y622300D01*
X405639Y311150D01*
X405654Y311060D01*
X405661Y310969D01*
X405673Y310939D01*
X405679Y310907D01*
X405721Y310827D01*
X405757Y310743D01*
X405783Y310711D01*
X405794Y310690D01*
X405817Y310668D01*
X405862Y310612D01*
X412212Y304262D01*
X412286Y304209D01*
X412355Y304149D01*
X412385Y304137D01*
X412411Y304118D01*
X412498Y304091D01*
X412583Y304057D01*
X412624Y304053D01*
X412647Y304046D01*
X412679Y304047D01*
X412750Y304039D01*
X507685Y304039D01*
X520162Y291562D01*
X520236Y291509D01*
X520305Y291449D01*
X520335Y291437D01*
X520361Y291418D01*
X520448Y291391D01*
X520533Y291357D01*
X520574Y291353D01*
X520597Y291346D01*
X520629Y291347D01*
X520700Y291339D01*
X628650Y291339D01*
X628740Y291354D01*
X628831Y291361D01*
X628861Y291373D01*
X628893Y291379D01*
X628973Y291421D01*
X629057Y291457D01*
X629089Y291483D01*
X629110Y291494D01*
X629132Y291517D01*
X629188Y291562D01*
X641888Y304262D01*
X641941Y304336D01*
X642001Y304405D01*
X642013Y304435D01*
X642032Y304461D01*
X642059Y304548D01*
X642093Y304633D01*
X642097Y304674D01*
X642104Y304697D01*
X642103Y304729D01*
X642111Y304800D01*
X642111Y348935D01*
X686115Y392939D01*
X761239Y392939D01*
X761239Y389621D01*
X761254Y389531D01*
X761261Y389440D01*
X761273Y389411D01*
X761279Y389379D01*
X761321Y389298D01*
X761357Y389214D01*
X761383Y389182D01*
X761394Y389161D01*
X761417Y389139D01*
X761462Y389083D01*
X763008Y387537D01*
X764725Y383393D01*
X764725Y378907D01*
X763008Y374763D01*
X761462Y373217D01*
X761409Y373143D01*
X761349Y373073D01*
X761337Y373043D01*
X761318Y373017D01*
X761291Y372930D01*
X761257Y372845D01*
X761253Y372804D01*
X761246Y372782D01*
X761247Y372750D01*
X761239Y372679D01*
X761239Y369061D01*
X698500Y369061D01*
X698480Y369058D01*
X698461Y369060D01*
X698359Y369038D01*
X698257Y369022D01*
X698240Y369012D01*
X698220Y369008D01*
X698131Y368955D01*
X698040Y368906D01*
X698026Y368892D01*
X698009Y368882D01*
X697942Y368803D01*
X697871Y368728D01*
X697862Y368710D01*
X697849Y368695D01*
X697810Y368599D01*
X697767Y368505D01*
X697765Y368485D01*
X697757Y368467D01*
X697739Y368300D01*
X697739Y279400D01*
X697742Y279380D01*
X697740Y279361D01*
X697762Y279259D01*
X697779Y279157D01*
X697788Y279140D01*
X697792Y279120D01*
X697845Y279031D01*
X697894Y278940D01*
X697908Y278926D01*
X697918Y278909D01*
X697997Y278842D01*
X698072Y278771D01*
X698090Y278762D01*
X698105Y278749D01*
X698201Y278710D01*
X698295Y278667D01*
X698315Y278665D01*
X698333Y278657D01*
X698500Y278639D01*
X889000Y278639D01*
X889020Y278642D01*
G37*
G36*
X487016Y4005D02*
X487016Y4005D01*
X487046Y4002D01*
X487157Y4025D01*
X487269Y4041D01*
X487296Y4053D01*
X487324Y4058D01*
X487425Y4111D01*
X487528Y4157D01*
X487551Y4176D01*
X487577Y4189D01*
X487659Y4267D01*
X487745Y4340D01*
X487762Y4365D01*
X487783Y4385D01*
X487840Y4483D01*
X487903Y4577D01*
X487912Y4605D01*
X487927Y4630D01*
X487954Y4740D01*
X487989Y4848D01*
X487989Y4878D01*
X487997Y4906D01*
X487993Y5019D01*
X487996Y5132D01*
X487989Y5161D01*
X487988Y5190D01*
X487953Y5298D01*
X487924Y5407D01*
X487909Y5433D01*
X487900Y5461D01*
X487855Y5525D01*
X487779Y5652D01*
X487733Y5695D01*
X487705Y5734D01*
X487195Y6244D01*
X487195Y10012D01*
X489860Y12677D01*
X493628Y12677D01*
X494831Y11474D01*
X494901Y11422D01*
X494964Y11362D01*
X495014Y11336D01*
X495058Y11303D01*
X495140Y11272D01*
X495218Y11232D01*
X495265Y11224D01*
X495324Y11202D01*
X495471Y11190D01*
X495549Y11177D01*
X502253Y11177D01*
X502339Y11189D01*
X502427Y11192D01*
X502479Y11209D01*
X502534Y11217D01*
X502614Y11252D01*
X502697Y11279D01*
X502736Y11307D01*
X502794Y11333D01*
X502907Y11429D01*
X502971Y11474D01*
X504705Y13209D01*
X603086Y13209D01*
X603171Y13221D01*
X603257Y13223D01*
X603311Y13241D01*
X603367Y13249D01*
X603446Y13284D01*
X603528Y13310D01*
X603575Y13342D01*
X603627Y13365D01*
X603692Y13420D01*
X603764Y13468D01*
X603800Y13512D01*
X603844Y13548D01*
X603891Y13620D01*
X603947Y13686D01*
X603970Y13738D01*
X604001Y13785D01*
X604027Y13867D01*
X604062Y13946D01*
X604070Y14002D01*
X604087Y14056D01*
X604089Y14142D01*
X604101Y14227D01*
X604093Y14283D01*
X604094Y14340D01*
X604073Y14423D01*
X604060Y14508D01*
X604037Y14560D01*
X604023Y14615D01*
X603979Y14689D01*
X603943Y14768D01*
X603906Y14811D01*
X603877Y14860D01*
X603815Y14919D01*
X603759Y14984D01*
X603717Y15010D01*
X603670Y15054D01*
X603541Y15120D01*
X603474Y15162D01*
X601113Y16140D01*
X598040Y19213D01*
X596377Y23227D01*
X596377Y27573D01*
X598040Y31587D01*
X601113Y34660D01*
X605127Y36323D01*
X609473Y36323D01*
X613487Y34660D01*
X616560Y31587D01*
X618223Y27573D01*
X618223Y23227D01*
X616560Y19213D01*
X616353Y19006D01*
X616335Y18982D01*
X616313Y18963D01*
X616250Y18869D01*
X616182Y18779D01*
X616172Y18751D01*
X616155Y18727D01*
X616121Y18619D01*
X616081Y18513D01*
X616078Y18484D01*
X616070Y18456D01*
X616067Y18343D01*
X616057Y18230D01*
X616063Y18201D01*
X616062Y18172D01*
X616091Y18062D01*
X616113Y17951D01*
X616127Y17925D01*
X616134Y17897D01*
X616192Y17799D01*
X616244Y17699D01*
X616264Y17677D01*
X616279Y17652D01*
X616362Y17575D01*
X616440Y17493D01*
X616465Y17478D01*
X616487Y17458D01*
X616587Y17406D01*
X616685Y17349D01*
X616714Y17342D01*
X616740Y17328D01*
X616817Y17315D01*
X616961Y17279D01*
X617023Y17281D01*
X617071Y17273D01*
X621023Y17273D01*
X624789Y13506D01*
X624859Y13454D01*
X624923Y13394D01*
X624973Y13368D01*
X625017Y13335D01*
X625098Y13304D01*
X625176Y13264D01*
X625224Y13256D01*
X625282Y13234D01*
X625430Y13222D01*
X625507Y13209D01*
X626101Y13209D01*
X626146Y13215D01*
X626193Y13213D01*
X626286Y13235D01*
X626382Y13249D01*
X626424Y13267D01*
X626469Y13278D01*
X626553Y13325D01*
X626641Y13365D01*
X626677Y13395D01*
X626717Y13417D01*
X626785Y13486D01*
X626858Y13548D01*
X626884Y13587D01*
X626917Y13620D01*
X626963Y13705D01*
X627016Y13785D01*
X627030Y13829D01*
X627052Y13870D01*
X627073Y13964D01*
X627102Y14056D01*
X627103Y14102D01*
X627113Y14148D01*
X627107Y14244D01*
X627109Y14340D01*
X627097Y14385D01*
X627094Y14431D01*
X627062Y14522D01*
X627037Y14615D01*
X627014Y14655D01*
X626998Y14699D01*
X626941Y14777D01*
X626892Y14860D01*
X626858Y14891D01*
X626831Y14929D01*
X626771Y14974D01*
X626685Y15054D01*
X626611Y15092D01*
X626561Y15129D01*
X626443Y15189D01*
X624922Y16294D01*
X623594Y17622D01*
X622489Y19143D01*
X621636Y20817D01*
X621055Y22604D01*
X620934Y23369D01*
X631684Y23369D01*
X631742Y23377D01*
X631800Y23375D01*
X631882Y23397D01*
X631965Y23409D01*
X632019Y23433D01*
X632075Y23447D01*
X632148Y23490D01*
X632225Y23525D01*
X632269Y23563D01*
X632320Y23593D01*
X632377Y23654D01*
X632442Y23709D01*
X632474Y23757D01*
X632514Y23800D01*
X632553Y23875D01*
X632599Y23945D01*
X632617Y24001D01*
X632644Y24053D01*
X632655Y24121D01*
X632685Y24216D01*
X632688Y24316D01*
X632699Y24384D01*
X632699Y25401D01*
X632701Y25401D01*
X632701Y24384D01*
X632709Y24326D01*
X632708Y24268D01*
X632729Y24186D01*
X632741Y24103D01*
X632765Y24049D01*
X632779Y23993D01*
X632822Y23920D01*
X632857Y23843D01*
X632895Y23798D01*
X632925Y23748D01*
X632986Y23690D01*
X633041Y23626D01*
X633089Y23594D01*
X633132Y23554D01*
X633207Y23515D01*
X633277Y23469D01*
X633333Y23451D01*
X633385Y23424D01*
X633453Y23413D01*
X633548Y23383D01*
X633648Y23380D01*
X633716Y23369D01*
X644466Y23369D01*
X644345Y22604D01*
X643764Y20817D01*
X642911Y19143D01*
X642011Y17905D01*
X641955Y17798D01*
X641894Y17694D01*
X641888Y17673D01*
X641878Y17654D01*
X641853Y17535D01*
X641823Y17418D01*
X641824Y17396D01*
X641820Y17375D01*
X641829Y17255D01*
X641833Y17134D01*
X641839Y17113D01*
X641841Y17092D01*
X641883Y16978D01*
X641920Y16863D01*
X641931Y16848D01*
X641940Y16825D01*
X642108Y16597D01*
X642112Y16593D01*
X642115Y16590D01*
X644487Y14218D01*
X644533Y14183D01*
X644574Y14141D01*
X644647Y14098D01*
X644714Y14047D01*
X644769Y14026D01*
X644819Y13997D01*
X644901Y13976D01*
X644980Y13946D01*
X645038Y13941D01*
X645095Y13927D01*
X645179Y13929D01*
X645263Y13922D01*
X645320Y13934D01*
X645379Y13936D01*
X645459Y13962D01*
X645542Y13978D01*
X645594Y14005D01*
X645649Y14023D01*
X645705Y14063D01*
X645794Y14109D01*
X645866Y14178D01*
X645923Y14218D01*
X665182Y33477D01*
X665182Y33478D01*
X667265Y35561D01*
X739997Y35561D01*
X740083Y35573D01*
X740171Y35576D01*
X740223Y35593D01*
X740278Y35601D01*
X740358Y35636D01*
X740441Y35663D01*
X740480Y35691D01*
X740538Y35717D01*
X740651Y35813D01*
X740715Y35858D01*
X742803Y37946D01*
X742820Y37970D01*
X742843Y37989D01*
X742905Y38083D01*
X742973Y38173D01*
X742984Y38201D01*
X743000Y38225D01*
X743034Y38333D01*
X743075Y38439D01*
X743077Y38468D01*
X743086Y38496D01*
X743089Y38610D01*
X743098Y38722D01*
X743093Y38751D01*
X743093Y38780D01*
X743065Y38890D01*
X743042Y39001D01*
X743029Y39027D01*
X743021Y39055D01*
X742964Y39153D01*
X742911Y39253D01*
X742891Y39275D01*
X742876Y39300D01*
X742794Y39377D01*
X742716Y39459D01*
X742690Y39474D01*
X742669Y39494D01*
X742568Y39546D01*
X742470Y39603D01*
X742442Y39610D01*
X742416Y39624D01*
X742338Y39637D01*
X742195Y39673D01*
X742132Y39671D01*
X742085Y39679D01*
X740827Y39679D01*
X736813Y41342D01*
X733740Y44415D01*
X732077Y48429D01*
X732077Y71571D01*
X733740Y75585D01*
X736813Y78658D01*
X740827Y80321D01*
X745173Y80321D01*
X749187Y78658D01*
X752260Y75585D01*
X753923Y71571D01*
X753923Y48429D01*
X752260Y44415D01*
X751235Y43390D01*
X751217Y43366D01*
X751195Y43347D01*
X751132Y43253D01*
X751064Y43163D01*
X751054Y43135D01*
X751037Y43111D01*
X751003Y43003D01*
X750963Y42897D01*
X750960Y42868D01*
X750952Y42840D01*
X750949Y42726D01*
X750939Y42614D01*
X750945Y42585D01*
X750944Y42556D01*
X750973Y42446D01*
X750995Y42335D01*
X751009Y42309D01*
X751016Y42281D01*
X751074Y42183D01*
X751126Y42083D01*
X751146Y42061D01*
X751161Y42036D01*
X751244Y41959D01*
X751322Y41877D01*
X751347Y41862D01*
X751369Y41842D01*
X751470Y41790D01*
X751567Y41733D01*
X751596Y41726D01*
X751622Y41712D01*
X751699Y41699D01*
X751843Y41663D01*
X751905Y41665D01*
X751953Y41657D01*
X754221Y41657D01*
X754307Y41669D01*
X754395Y41672D01*
X754447Y41689D01*
X754502Y41697D01*
X754582Y41732D01*
X754665Y41759D01*
X754704Y41787D01*
X754762Y41813D01*
X754875Y41909D01*
X754939Y41954D01*
X756622Y43637D01*
X756674Y43707D01*
X756734Y43771D01*
X756760Y43821D01*
X756793Y43865D01*
X756824Y43946D01*
X756864Y44024D01*
X756872Y44072D01*
X756894Y44130D01*
X756906Y44278D01*
X756919Y44355D01*
X756919Y45967D01*
X757555Y46603D01*
X757556Y46604D01*
X757558Y46605D01*
X757646Y46723D01*
X757726Y46830D01*
X757727Y46832D01*
X757728Y46833D01*
X757778Y46966D01*
X757828Y47096D01*
X757828Y47097D01*
X757828Y47099D01*
X757839Y47238D01*
X757851Y47379D01*
X757851Y47381D01*
X757851Y47382D01*
X757848Y47397D01*
X757795Y47658D01*
X757781Y47685D01*
X757775Y47709D01*
X757477Y48429D01*
X757477Y71571D01*
X759140Y75585D01*
X762213Y78658D01*
X766227Y80321D01*
X770573Y80321D01*
X774587Y78658D01*
X777660Y75585D01*
X779323Y71571D01*
X779323Y48429D01*
X777660Y44415D01*
X774587Y41342D01*
X770573Y39679D01*
X766227Y39679D01*
X763361Y40867D01*
X763359Y40867D01*
X763358Y40868D01*
X763223Y40902D01*
X763085Y40938D01*
X763084Y40938D01*
X763082Y40938D01*
X762942Y40934D01*
X762801Y40929D01*
X762800Y40929D01*
X762798Y40929D01*
X762665Y40886D01*
X762530Y40843D01*
X762529Y40842D01*
X762528Y40841D01*
X762516Y40833D01*
X762294Y40685D01*
X762274Y40661D01*
X762254Y40647D01*
X760934Y39326D01*
X760933Y39326D01*
X757992Y36384D01*
X757923Y36293D01*
X757849Y36205D01*
X757838Y36179D01*
X757821Y36157D01*
X757780Y36050D01*
X757734Y35945D01*
X757730Y35918D01*
X757720Y35892D01*
X757710Y35777D01*
X757695Y35663D01*
X757699Y35636D01*
X757696Y35608D01*
X757719Y35496D01*
X757735Y35382D01*
X757747Y35357D01*
X757752Y35330D01*
X757805Y35228D01*
X757852Y35123D01*
X757870Y35102D01*
X757883Y35077D01*
X757962Y34994D01*
X758037Y34907D01*
X758058Y34893D01*
X758079Y34871D01*
X758308Y34737D01*
X758321Y34729D01*
X758487Y34660D01*
X761560Y31587D01*
X763223Y27573D01*
X763223Y23227D01*
X761560Y19213D01*
X759321Y16974D01*
X759303Y16950D01*
X759281Y16931D01*
X759218Y16837D01*
X759150Y16747D01*
X759140Y16719D01*
X759123Y16695D01*
X759089Y16587D01*
X759049Y16481D01*
X759046Y16452D01*
X759038Y16424D01*
X759035Y16310D01*
X759025Y16198D01*
X759031Y16169D01*
X759030Y16140D01*
X759059Y16030D01*
X759081Y15919D01*
X759095Y15893D01*
X759102Y15865D01*
X759160Y15767D01*
X759212Y15667D01*
X759232Y15645D01*
X759247Y15620D01*
X759330Y15543D01*
X759408Y15461D01*
X759433Y15446D01*
X759455Y15426D01*
X759555Y15374D01*
X759653Y15317D01*
X759682Y15310D01*
X759708Y15296D01*
X759785Y15283D01*
X759929Y15247D01*
X759991Y15249D01*
X760039Y15241D01*
X768524Y15241D01*
X768553Y15245D01*
X768583Y15242D01*
X768694Y15265D01*
X768806Y15281D01*
X768833Y15293D01*
X768861Y15298D01*
X768962Y15351D01*
X769065Y15397D01*
X769088Y15416D01*
X769114Y15429D01*
X769196Y15507D01*
X769282Y15580D01*
X769299Y15605D01*
X769320Y15625D01*
X769377Y15723D01*
X769440Y15817D01*
X769449Y15845D01*
X769464Y15870D01*
X769491Y15980D01*
X769526Y16088D01*
X769526Y16118D01*
X769534Y16146D01*
X769530Y16259D01*
X769533Y16372D01*
X769526Y16401D01*
X769525Y16430D01*
X769490Y16538D01*
X769461Y16647D01*
X769446Y16673D01*
X769437Y16701D01*
X769391Y16765D01*
X769316Y16892D01*
X769270Y16935D01*
X769242Y16974D01*
X768594Y17622D01*
X767489Y19143D01*
X766636Y20817D01*
X766055Y22604D01*
X765934Y23369D01*
X776684Y23369D01*
X776742Y23377D01*
X776800Y23375D01*
X776882Y23397D01*
X776965Y23409D01*
X777019Y23433D01*
X777075Y23447D01*
X777148Y23490D01*
X777225Y23525D01*
X777269Y23563D01*
X777320Y23593D01*
X777377Y23654D01*
X777442Y23709D01*
X777474Y23757D01*
X777514Y23800D01*
X777553Y23875D01*
X777599Y23945D01*
X777617Y24001D01*
X777644Y24053D01*
X777655Y24121D01*
X777685Y24216D01*
X777688Y24316D01*
X777699Y24384D01*
X777699Y25401D01*
X778716Y25401D01*
X778774Y25409D01*
X778832Y25408D01*
X778914Y25429D01*
X778997Y25441D01*
X779051Y25465D01*
X779107Y25479D01*
X779180Y25522D01*
X779257Y25557D01*
X779302Y25595D01*
X779352Y25625D01*
X779410Y25686D01*
X779474Y25741D01*
X779506Y25789D01*
X779546Y25832D01*
X779585Y25907D01*
X779631Y25977D01*
X779649Y26033D01*
X779676Y26085D01*
X779687Y26153D01*
X779717Y26248D01*
X779720Y26348D01*
X779731Y26416D01*
X779731Y37166D01*
X780496Y37045D01*
X782283Y36464D01*
X783957Y35611D01*
X785478Y34506D01*
X786806Y33178D01*
X787911Y31657D01*
X788764Y29983D01*
X788770Y29963D01*
X788825Y29851D01*
X788877Y29736D01*
X788888Y29723D01*
X788895Y29708D01*
X788980Y29614D01*
X789061Y29519D01*
X789074Y29510D01*
X789086Y29497D01*
X789192Y29431D01*
X789297Y29361D01*
X789313Y29356D01*
X789327Y29347D01*
X789448Y29314D01*
X789568Y29276D01*
X789585Y29275D01*
X789601Y29271D01*
X789727Y29271D01*
X789852Y29268D01*
X789869Y29272D01*
X789885Y29273D01*
X790006Y29308D01*
X790127Y29340D01*
X790142Y29349D01*
X790158Y29353D01*
X790264Y29421D01*
X790372Y29485D01*
X790383Y29498D01*
X790397Y29507D01*
X790480Y29601D01*
X790566Y29693D01*
X790574Y29708D01*
X790585Y29720D01*
X790639Y29834D01*
X790696Y29946D01*
X790698Y29961D01*
X790706Y29977D01*
X790751Y30258D01*
X790750Y30268D01*
X790751Y30277D01*
X790751Y39364D01*
X790751Y39365D01*
X790751Y39367D01*
X790732Y39502D01*
X790711Y39645D01*
X790711Y39647D01*
X790711Y39648D01*
X790654Y39774D01*
X790595Y39905D01*
X790594Y39906D01*
X790593Y39907D01*
X790502Y40014D01*
X790412Y40122D01*
X790410Y40123D01*
X790409Y40124D01*
X790396Y40132D01*
X790175Y40279D01*
X790146Y40289D01*
X790125Y40302D01*
X787613Y41342D01*
X784540Y44415D01*
X782877Y48429D01*
X782877Y71571D01*
X784540Y75585D01*
X787613Y78658D01*
X791627Y80321D01*
X795973Y80321D01*
X799987Y78658D01*
X803060Y75585D01*
X804723Y71571D01*
X804723Y48429D01*
X803060Y44415D01*
X799987Y41342D01*
X797475Y40302D01*
X797474Y40301D01*
X797473Y40301D01*
X797354Y40230D01*
X797231Y40157D01*
X797230Y40156D01*
X797228Y40155D01*
X797131Y40051D01*
X797035Y39951D01*
X797035Y39949D01*
X797034Y39948D01*
X796969Y39822D01*
X796905Y39698D01*
X796905Y39696D01*
X796904Y39695D01*
X796902Y39680D01*
X796850Y39419D01*
X796853Y39388D01*
X796849Y39364D01*
X796849Y16313D01*
X789679Y9143D01*
X717037Y9143D01*
X716950Y9131D01*
X716863Y9128D01*
X716810Y9111D01*
X716755Y9103D01*
X716675Y9068D01*
X716592Y9041D01*
X716553Y9013D01*
X716496Y8987D01*
X716383Y8891D01*
X716319Y8846D01*
X715116Y7643D01*
X711348Y7643D01*
X708683Y10308D01*
X708683Y14076D01*
X711348Y16741D01*
X715116Y16741D01*
X716319Y15538D01*
X716389Y15486D01*
X716452Y15426D01*
X716502Y15400D01*
X716546Y15367D01*
X716628Y15336D01*
X716706Y15296D01*
X716753Y15288D01*
X716812Y15266D01*
X716959Y15254D01*
X717037Y15241D01*
X744561Y15241D01*
X744590Y15245D01*
X744619Y15242D01*
X744731Y15265D01*
X744843Y15281D01*
X744869Y15293D01*
X744898Y15298D01*
X744999Y15351D01*
X745102Y15397D01*
X745124Y15416D01*
X745151Y15429D01*
X745233Y15507D01*
X745319Y15580D01*
X745335Y15605D01*
X745357Y15625D01*
X745414Y15723D01*
X745477Y15817D01*
X745486Y15845D01*
X745500Y15870D01*
X745528Y15980D01*
X745562Y16088D01*
X745563Y16118D01*
X745570Y16146D01*
X745567Y16259D01*
X745570Y16372D01*
X745562Y16401D01*
X745561Y16430D01*
X745526Y16538D01*
X745498Y16647D01*
X745483Y16673D01*
X745474Y16701D01*
X745428Y16764D01*
X745353Y16892D01*
X745307Y16935D01*
X745279Y16974D01*
X743040Y19213D01*
X741377Y23227D01*
X741377Y27573D01*
X741579Y28059D01*
X741608Y28171D01*
X741642Y28280D01*
X741643Y28308D01*
X741650Y28335D01*
X741647Y28449D01*
X741650Y28564D01*
X741642Y28591D01*
X741642Y28619D01*
X741607Y28728D01*
X741578Y28839D01*
X741564Y28863D01*
X741555Y28890D01*
X741491Y28985D01*
X741432Y29084D01*
X741412Y29103D01*
X741397Y29126D01*
X741309Y29200D01*
X741225Y29278D01*
X741200Y29291D01*
X741179Y29309D01*
X741074Y29355D01*
X740972Y29408D01*
X740947Y29412D01*
X740919Y29424D01*
X740656Y29461D01*
X740641Y29463D01*
X670211Y29463D01*
X670125Y29451D01*
X670037Y29448D01*
X669985Y29431D01*
X669930Y29423D01*
X669850Y29388D01*
X669767Y29361D01*
X669728Y29333D01*
X669670Y29307D01*
X669557Y29211D01*
X669493Y29166D01*
X646061Y5734D01*
X646044Y5710D01*
X646021Y5691D01*
X645959Y5597D01*
X645891Y5507D01*
X645880Y5479D01*
X645864Y5455D01*
X645830Y5347D01*
X645789Y5241D01*
X645787Y5212D01*
X645778Y5184D01*
X645775Y5070D01*
X645766Y4958D01*
X645771Y4929D01*
X645771Y4900D01*
X645799Y4790D01*
X645822Y4679D01*
X645835Y4653D01*
X645843Y4625D01*
X645900Y4527D01*
X645953Y4427D01*
X645973Y4405D01*
X645988Y4380D01*
X646070Y4303D01*
X646148Y4221D01*
X646174Y4206D01*
X646195Y4186D01*
X646296Y4134D01*
X646394Y4077D01*
X646422Y4070D01*
X646448Y4056D01*
X646526Y4043D01*
X646669Y4007D01*
X646732Y4009D01*
X646779Y4001D01*
X821475Y4001D01*
X821604Y4019D01*
X821734Y4034D01*
X821744Y4039D01*
X821756Y4041D01*
X822015Y4157D01*
X822028Y4167D01*
X822040Y4173D01*
X872245Y37821D01*
X872340Y37906D01*
X872438Y37989D01*
X872446Y38001D01*
X872457Y38010D01*
X872524Y38119D01*
X872595Y38225D01*
X872600Y38239D01*
X872607Y38251D01*
X872642Y38374D01*
X872681Y38496D01*
X872681Y38511D01*
X872685Y38525D01*
X872685Y38652D01*
X872688Y38780D01*
X872684Y38795D01*
X872684Y38809D01*
X872649Y38932D01*
X872616Y39055D01*
X872609Y39068D01*
X872605Y39082D01*
X872536Y39190D01*
X872471Y39300D01*
X872460Y39310D01*
X872453Y39322D01*
X872357Y39407D01*
X872264Y39494D01*
X872251Y39501D01*
X872240Y39511D01*
X872124Y39566D01*
X872011Y39624D01*
X871998Y39626D01*
X871983Y39633D01*
X871703Y39679D01*
X871690Y39678D01*
X871680Y39679D01*
X867827Y39679D01*
X863813Y41342D01*
X860740Y44415D01*
X859077Y48429D01*
X859077Y71571D01*
X860740Y75585D01*
X863813Y78658D01*
X867827Y80321D01*
X872173Y80321D01*
X876187Y78658D01*
X879260Y75585D01*
X880923Y71571D01*
X880923Y48429D01*
X879459Y44895D01*
X879427Y44770D01*
X879391Y44646D01*
X879391Y44632D01*
X879388Y44620D01*
X879391Y44490D01*
X879392Y44361D01*
X879396Y44349D01*
X879396Y44335D01*
X879435Y44212D01*
X879471Y44088D01*
X879479Y44077D01*
X879483Y44065D01*
X879554Y43957D01*
X879624Y43848D01*
X879634Y43839D01*
X879641Y43828D01*
X879739Y43746D01*
X879836Y43660D01*
X879848Y43654D01*
X879858Y43646D01*
X879976Y43593D01*
X880093Y43538D01*
X880106Y43535D01*
X880118Y43530D01*
X880246Y43512D01*
X880374Y43491D01*
X880387Y43493D01*
X880400Y43491D01*
X880528Y43510D01*
X880656Y43525D01*
X880667Y43530D01*
X880681Y43532D01*
X880940Y43649D01*
X880951Y43658D01*
X880962Y43663D01*
X902265Y57941D01*
X902298Y57970D01*
X902336Y57993D01*
X902403Y58065D01*
X902477Y58131D01*
X902500Y58168D01*
X902530Y58200D01*
X902575Y58288D01*
X902628Y58372D01*
X902640Y58414D01*
X902660Y58453D01*
X902672Y58528D01*
X902706Y58645D01*
X902705Y58725D01*
X902715Y58784D01*
X902715Y85334D01*
X902707Y85392D01*
X902709Y85450D01*
X902687Y85532D01*
X902675Y85616D01*
X902651Y85669D01*
X902637Y85725D01*
X902594Y85798D01*
X902559Y85875D01*
X902521Y85920D01*
X902491Y85970D01*
X902430Y86028D01*
X902375Y86092D01*
X902327Y86124D01*
X902284Y86164D01*
X902209Y86203D01*
X902139Y86250D01*
X902083Y86267D01*
X902031Y86294D01*
X901963Y86305D01*
X901868Y86335D01*
X901768Y86338D01*
X901700Y86349D01*
X735052Y86349D01*
X734994Y86341D01*
X734936Y86343D01*
X734854Y86321D01*
X734770Y86309D01*
X734717Y86286D01*
X734661Y86271D01*
X734588Y86228D01*
X734511Y86193D01*
X734466Y86155D01*
X734416Y86126D01*
X734358Y86064D01*
X734294Y86010D01*
X734262Y85961D01*
X734222Y85918D01*
X734183Y85843D01*
X734136Y85773D01*
X734119Y85717D01*
X734092Y85665D01*
X734081Y85597D01*
X734051Y85502D01*
X734048Y85402D01*
X734037Y85334D01*
X734037Y81428D01*
X731372Y78763D01*
X727604Y78763D01*
X726401Y79966D01*
X726331Y80018D01*
X726268Y80078D01*
X726218Y80104D01*
X726174Y80137D01*
X726092Y80168D01*
X726014Y80208D01*
X725967Y80216D01*
X725908Y80238D01*
X725761Y80250D01*
X725683Y80263D01*
X724633Y80263D01*
X724604Y80259D01*
X724575Y80262D01*
X724464Y80239D01*
X724351Y80223D01*
X724325Y80211D01*
X724296Y80206D01*
X724195Y80153D01*
X724092Y80107D01*
X724070Y80088D01*
X724043Y80075D01*
X723961Y79997D01*
X723875Y79924D01*
X723859Y79899D01*
X723837Y79879D01*
X723780Y79781D01*
X723717Y79687D01*
X723708Y79659D01*
X723694Y79634D01*
X723666Y79524D01*
X723632Y79416D01*
X723631Y79386D01*
X723624Y79358D01*
X723627Y79245D01*
X723624Y79132D01*
X723632Y79103D01*
X723633Y79074D01*
X723667Y78966D01*
X723696Y78857D01*
X723711Y78831D01*
X723720Y78803D01*
X723766Y78740D01*
X723841Y78612D01*
X723887Y78569D01*
X723915Y78530D01*
X726860Y75585D01*
X728523Y71571D01*
X728523Y48429D01*
X726860Y44415D01*
X723787Y41342D01*
X719773Y39679D01*
X715427Y39679D01*
X711413Y41342D01*
X708340Y44415D01*
X706677Y48429D01*
X706677Y71571D01*
X708340Y75585D01*
X711285Y78530D01*
X711303Y78554D01*
X711325Y78573D01*
X711388Y78667D01*
X711456Y78757D01*
X711466Y78785D01*
X711483Y78809D01*
X711517Y78917D01*
X711557Y79023D01*
X711560Y79052D01*
X711568Y79080D01*
X711571Y79194D01*
X711581Y79306D01*
X711575Y79335D01*
X711576Y79364D01*
X711547Y79474D01*
X711525Y79585D01*
X711511Y79611D01*
X711504Y79639D01*
X711446Y79737D01*
X711394Y79837D01*
X711374Y79859D01*
X711359Y79884D01*
X711276Y79961D01*
X711198Y80043D01*
X711173Y80058D01*
X711151Y80078D01*
X711051Y80130D01*
X710953Y80187D01*
X710924Y80194D01*
X710898Y80208D01*
X710821Y80221D01*
X710677Y80257D01*
X710615Y80255D01*
X710567Y80263D01*
X708819Y80263D01*
X708733Y80251D01*
X708645Y80248D01*
X708593Y80231D01*
X708538Y80223D01*
X708458Y80188D01*
X708375Y80161D01*
X708336Y80133D01*
X708278Y80107D01*
X708165Y80011D01*
X708101Y79966D01*
X704335Y76199D01*
X634753Y76199D01*
X630987Y79966D01*
X630917Y80018D01*
X630853Y80078D01*
X630803Y80104D01*
X630759Y80137D01*
X630678Y80168D01*
X630600Y80208D01*
X630552Y80216D01*
X630494Y80238D01*
X630346Y80250D01*
X630269Y80263D01*
X628470Y80263D01*
X628441Y80259D01*
X628411Y80262D01*
X628300Y80239D01*
X628188Y80223D01*
X628161Y80211D01*
X628133Y80206D01*
X628032Y80153D01*
X627929Y80107D01*
X627906Y80088D01*
X627880Y80075D01*
X627798Y79997D01*
X627712Y79924D01*
X627695Y79899D01*
X627674Y79879D01*
X627617Y79781D01*
X627554Y79687D01*
X627545Y79659D01*
X627530Y79634D01*
X627503Y79524D01*
X627468Y79416D01*
X627468Y79386D01*
X627460Y79358D01*
X627464Y79245D01*
X627461Y79132D01*
X627468Y79103D01*
X627469Y79074D01*
X627504Y78966D01*
X627533Y78857D01*
X627548Y78831D01*
X627557Y78803D01*
X627603Y78739D01*
X627678Y78612D01*
X627724Y78569D01*
X627752Y78530D01*
X629106Y77176D01*
X630211Y75655D01*
X631064Y73981D01*
X631645Y72194D01*
X631939Y70338D01*
X631939Y62031D01*
X621016Y62031D01*
X620958Y62023D01*
X620900Y62025D01*
X620818Y62003D01*
X620735Y61991D01*
X620681Y61967D01*
X620625Y61953D01*
X620552Y61910D01*
X620475Y61875D01*
X620431Y61837D01*
X620380Y61807D01*
X620323Y61746D01*
X620258Y61691D01*
X620226Y61643D01*
X620186Y61600D01*
X620147Y61525D01*
X620101Y61455D01*
X620083Y61399D01*
X620056Y61347D01*
X620045Y61279D01*
X620015Y61184D01*
X620012Y61084D01*
X620001Y61016D01*
X620001Y59999D01*
X619999Y59999D01*
X619999Y61016D01*
X619991Y61074D01*
X619992Y61132D01*
X619971Y61214D01*
X619959Y61297D01*
X619935Y61351D01*
X619921Y61407D01*
X619878Y61480D01*
X619843Y61557D01*
X619805Y61602D01*
X619775Y61652D01*
X619714Y61710D01*
X619659Y61774D01*
X619611Y61806D01*
X619568Y61846D01*
X619493Y61885D01*
X619423Y61931D01*
X619367Y61949D01*
X619315Y61976D01*
X619247Y61987D01*
X619152Y62017D01*
X619052Y62020D01*
X618984Y62031D01*
X608061Y62031D01*
X608061Y70338D01*
X608355Y72194D01*
X608705Y73269D01*
X608713Y73314D01*
X608729Y73357D01*
X608737Y73453D01*
X608754Y73549D01*
X608749Y73595D01*
X608753Y73641D01*
X608734Y73735D01*
X608723Y73831D01*
X608706Y73874D01*
X608697Y73919D01*
X608652Y74005D01*
X608616Y74094D01*
X608587Y74131D01*
X608566Y74172D01*
X608499Y74242D01*
X608439Y74317D01*
X608402Y74344D01*
X608370Y74378D01*
X608287Y74426D01*
X608208Y74483D01*
X608164Y74498D01*
X608125Y74521D01*
X608031Y74545D01*
X607940Y74577D01*
X607894Y74580D01*
X607849Y74592D01*
X607753Y74589D01*
X607656Y74594D01*
X607611Y74584D01*
X607565Y74583D01*
X607473Y74553D01*
X607379Y74532D01*
X607338Y74509D01*
X607294Y74495D01*
X607233Y74451D01*
X607130Y74395D01*
X607071Y74336D01*
X607021Y74300D01*
X605388Y72667D01*
X601620Y72667D01*
X598955Y75332D01*
X598955Y79100D01*
X601620Y81765D01*
X603321Y81765D01*
X603407Y81777D01*
X603495Y81780D01*
X603547Y81797D01*
X603602Y81805D01*
X603682Y81840D01*
X603765Y81867D01*
X603804Y81895D01*
X603862Y81921D01*
X603975Y82017D01*
X604039Y82062D01*
X606254Y84277D01*
X606593Y84616D01*
X606610Y84640D01*
X606633Y84659D01*
X606695Y84753D01*
X606763Y84843D01*
X606774Y84871D01*
X606790Y84895D01*
X606824Y85003D01*
X606865Y85109D01*
X606867Y85138D01*
X606876Y85166D01*
X606879Y85279D01*
X606888Y85392D01*
X606883Y85421D01*
X606883Y85450D01*
X606855Y85560D01*
X606832Y85671D01*
X606819Y85697D01*
X606811Y85725D01*
X606754Y85823D01*
X606701Y85923D01*
X606681Y85945D01*
X606666Y85970D01*
X606584Y86047D01*
X606506Y86129D01*
X606480Y86144D01*
X606459Y86164D01*
X606358Y86216D01*
X606260Y86273D01*
X606232Y86280D01*
X606206Y86294D01*
X606129Y86307D01*
X605985Y86343D01*
X605922Y86341D01*
X605875Y86349D01*
X50800Y86349D01*
X50742Y86341D01*
X50684Y86343D01*
X50602Y86321D01*
X50519Y86309D01*
X50465Y86286D01*
X50409Y86271D01*
X50336Y86228D01*
X50259Y86193D01*
X50214Y86155D01*
X50164Y86126D01*
X50106Y86064D01*
X50042Y86010D01*
X50010Y85961D01*
X49970Y85918D01*
X49931Y85843D01*
X49885Y85773D01*
X49867Y85717D01*
X49840Y85665D01*
X49829Y85597D01*
X49799Y85502D01*
X49796Y85402D01*
X49785Y85334D01*
X49785Y57529D01*
X49791Y57487D01*
X49788Y57445D01*
X49810Y57347D01*
X49825Y57247D01*
X49842Y57209D01*
X49851Y57168D01*
X49900Y57080D01*
X49941Y56988D01*
X49968Y56956D01*
X49988Y56919D01*
X50044Y56866D01*
X50125Y56771D01*
X50190Y56728D01*
X50232Y56687D01*
X127967Y4175D01*
X128086Y4117D01*
X128204Y4056D01*
X128213Y4055D01*
X128223Y4050D01*
X128503Y4001D01*
X128521Y4003D01*
X128535Y4001D01*
X486987Y4001D01*
X487016Y4005D01*
G37*
%LPC*%
G36*
X609014Y176189D02*
X609014Y176189D01*
X599103Y181238D01*
X591238Y189103D01*
X586189Y199014D01*
X584449Y210000D01*
X586189Y220986D01*
X591238Y230897D01*
X599103Y238762D01*
X609014Y243811D01*
X620000Y245551D01*
X630986Y243811D01*
X640897Y238762D01*
X648762Y230897D01*
X653811Y220986D01*
X655551Y210000D01*
X653811Y199014D01*
X648762Y189103D01*
X640896Y181238D01*
X630986Y176189D01*
X620000Y174449D01*
X609014Y176189D01*
G37*
%LPD*%
%LPC*%
G36*
X319014Y176189D02*
X319014Y176189D01*
X309103Y181238D01*
X301238Y189103D01*
X296189Y199014D01*
X294449Y210000D01*
X296189Y220986D01*
X301238Y230897D01*
X309103Y238762D01*
X319014Y243811D01*
X330000Y245551D01*
X340986Y243811D01*
X350897Y238762D01*
X358762Y230897D01*
X363811Y220986D01*
X365551Y210000D01*
X363811Y199014D01*
X358762Y189103D01*
X350897Y181238D01*
X340986Y176189D01*
X330000Y174449D01*
X319014Y176189D01*
G37*
%LPD*%
%LPC*%
G36*
X727604Y659915D02*
X727604Y659915D01*
X724939Y662580D01*
X724939Y666348D01*
X726216Y667625D01*
X726269Y667699D01*
X726329Y667769D01*
X726341Y667799D01*
X726360Y667825D01*
X726387Y667912D01*
X726421Y667997D01*
X726425Y668038D01*
X726432Y668060D01*
X726431Y668092D01*
X726439Y668163D01*
X726439Y742642D01*
X726428Y742713D01*
X726426Y742784D01*
X726408Y742833D01*
X726400Y742885D01*
X726366Y742948D01*
X726341Y743015D01*
X726309Y743056D01*
X726284Y743102D01*
X726232Y743151D01*
X726188Y743207D01*
X726144Y743236D01*
X726106Y743271D01*
X726041Y743302D01*
X725981Y743340D01*
X725930Y743353D01*
X725883Y743375D01*
X725812Y743383D01*
X725742Y743400D01*
X725690Y743396D01*
X725639Y743402D01*
X725568Y743387D01*
X725497Y743381D01*
X725449Y743361D01*
X725398Y743350D01*
X725337Y743313D01*
X725271Y743285D01*
X725215Y743240D01*
X725187Y743224D01*
X725172Y743206D01*
X725140Y743180D01*
X724432Y742472D01*
X686532Y704572D01*
X686479Y704498D01*
X686419Y704429D01*
X686407Y704399D01*
X686388Y704372D01*
X686361Y704285D01*
X686327Y704201D01*
X686323Y704160D01*
X686316Y704137D01*
X686317Y704105D01*
X686309Y704034D01*
X686309Y669941D01*
X686323Y669851D01*
X686331Y669760D01*
X686343Y669731D01*
X686348Y669699D01*
X686391Y669618D01*
X686427Y669534D01*
X686453Y669502D01*
X686464Y669481D01*
X686487Y669459D01*
X686504Y669438D01*
X686508Y669430D01*
X686513Y669426D01*
X686532Y669403D01*
X687809Y668126D01*
X687809Y664358D01*
X685144Y661693D01*
X681376Y661693D01*
X678711Y664358D01*
X678711Y668126D01*
X679988Y669403D01*
X680033Y669466D01*
X680059Y669493D01*
X680064Y669504D01*
X680101Y669547D01*
X680113Y669577D01*
X680132Y669603D01*
X680159Y669690D01*
X680193Y669775D01*
X680197Y669816D01*
X680204Y669838D01*
X680203Y669870D01*
X680211Y669941D01*
X680211Y706875D01*
X720120Y746784D01*
X720173Y746858D01*
X720233Y746927D01*
X720245Y746957D01*
X720264Y746984D01*
X720291Y747071D01*
X720325Y747155D01*
X720329Y747196D01*
X720336Y747219D01*
X720335Y747251D01*
X720343Y747322D01*
X720343Y812031D01*
X728854Y820542D01*
X728907Y820616D01*
X728967Y820685D01*
X728979Y820715D01*
X728998Y820742D01*
X729025Y820829D01*
X729059Y820913D01*
X729063Y820954D01*
X729070Y820977D01*
X729069Y821009D01*
X729077Y821080D01*
X729077Y830030D01*
X729970Y830923D01*
X750030Y830923D01*
X750923Y830030D01*
X750923Y809970D01*
X750030Y809077D01*
X729970Y809077D01*
X729077Y809970D01*
X729077Y810304D01*
X729066Y810375D01*
X729064Y810446D01*
X729046Y810495D01*
X729038Y810547D01*
X729004Y810610D01*
X728979Y810677D01*
X728947Y810718D01*
X728922Y810764D01*
X728870Y810813D01*
X728826Y810869D01*
X728782Y810898D01*
X728744Y810933D01*
X728679Y810964D01*
X728619Y811002D01*
X728568Y811015D01*
X728521Y811037D01*
X728450Y811045D01*
X728380Y811062D01*
X728328Y811058D01*
X728277Y811064D01*
X728206Y811049D01*
X728135Y811043D01*
X728087Y811023D01*
X728036Y811012D01*
X727975Y810975D01*
X727909Y810947D01*
X727853Y810902D01*
X727825Y810886D01*
X727810Y810868D01*
X727778Y810842D01*
X726664Y809728D01*
X726616Y809661D01*
X726613Y809658D01*
X726611Y809655D01*
X726611Y809654D01*
X726551Y809585D01*
X726539Y809555D01*
X726520Y809528D01*
X726493Y809441D01*
X726459Y809357D01*
X726455Y809316D01*
X726448Y809293D01*
X726449Y809261D01*
X726441Y809190D01*
X726441Y779326D01*
X726452Y779255D01*
X726454Y779184D01*
X726472Y779135D01*
X726480Y779083D01*
X726514Y779020D01*
X726539Y778953D01*
X726571Y778912D01*
X726596Y778866D01*
X726647Y778817D01*
X726692Y778761D01*
X726736Y778732D01*
X726774Y778697D01*
X726839Y778666D01*
X726899Y778628D01*
X726950Y778615D01*
X726997Y778593D01*
X727068Y778585D01*
X727138Y778568D01*
X727190Y778572D01*
X727241Y778566D01*
X727312Y778581D01*
X727383Y778587D01*
X727431Y778607D01*
X727482Y778618D01*
X727543Y778655D01*
X727609Y778683D01*
X727665Y778728D01*
X727693Y778744D01*
X727708Y778762D01*
X727740Y778788D01*
X731730Y782778D01*
X731772Y782836D01*
X731821Y782888D01*
X731843Y782935D01*
X731874Y782977D01*
X731895Y783046D01*
X731925Y783111D01*
X731931Y783163D01*
X731946Y783213D01*
X731944Y783284D01*
X731952Y783355D01*
X731941Y783406D01*
X731940Y783458D01*
X731915Y783526D01*
X731900Y783596D01*
X731873Y783640D01*
X731855Y783689D01*
X731810Y783745D01*
X731774Y783807D01*
X731734Y783841D01*
X731702Y783881D01*
X731641Y783920D01*
X731587Y783967D01*
X731538Y783986D01*
X731495Y784014D01*
X731425Y784032D01*
X731359Y784059D01*
X731287Y784067D01*
X731256Y784075D01*
X731233Y784073D01*
X731192Y784077D01*
X729970Y784077D01*
X729077Y784970D01*
X729077Y805030D01*
X729970Y805923D01*
X750030Y805923D01*
X750923Y805030D01*
X750923Y784970D01*
X750030Y784077D01*
X741968Y784077D01*
X741878Y784063D01*
X741787Y784055D01*
X741757Y784043D01*
X741725Y784038D01*
X741645Y783995D01*
X741561Y783959D01*
X741529Y783933D01*
X741508Y783922D01*
X741486Y783899D01*
X741430Y783854D01*
X732760Y775184D01*
X732707Y775110D01*
X732647Y775041D01*
X732635Y775011D01*
X732616Y774984D01*
X732589Y774897D01*
X732555Y774813D01*
X732551Y774772D01*
X732544Y774749D01*
X732545Y774717D01*
X732537Y774646D01*
X732537Y668163D01*
X732551Y668073D01*
X732559Y667982D01*
X732571Y667953D01*
X732576Y667921D01*
X732619Y667840D01*
X732655Y667756D01*
X732681Y667724D01*
X732692Y667703D01*
X732715Y667681D01*
X732760Y667625D01*
X734037Y666348D01*
X734037Y662580D01*
X731372Y659915D01*
X727604Y659915D01*
G37*
%LPD*%
%LPC*%
G36*
X157757Y153725D02*
X157757Y153725D01*
X153613Y155442D01*
X150442Y158613D01*
X148725Y162757D01*
X148725Y186743D01*
X150442Y190887D01*
X152395Y192840D01*
X152452Y192919D01*
X152514Y192994D01*
X152524Y193019D01*
X152539Y193040D01*
X152568Y193133D01*
X152602Y193224D01*
X152604Y193250D01*
X152611Y193275D01*
X152609Y193372D01*
X152613Y193470D01*
X152606Y193495D01*
X152605Y193521D01*
X152571Y193613D01*
X152544Y193706D01*
X152529Y193727D01*
X152520Y193752D01*
X152459Y193828D01*
X152404Y193908D01*
X152383Y193924D01*
X152367Y193944D01*
X152285Y193997D01*
X152207Y194055D01*
X152182Y194063D01*
X152160Y194077D01*
X152065Y194101D01*
X151973Y194131D01*
X151947Y194131D01*
X151921Y194137D01*
X151824Y194130D01*
X151727Y194129D01*
X151695Y194119D01*
X151676Y194118D01*
X151646Y194105D01*
X151566Y194082D01*
X146779Y192099D01*
X139164Y192099D01*
X139090Y192087D01*
X139014Y192084D01*
X138969Y192067D01*
X138922Y192060D01*
X138855Y192024D01*
X138784Y191997D01*
X138747Y191967D01*
X138704Y191944D01*
X138652Y191890D01*
X138594Y191842D01*
X138568Y191801D01*
X138535Y191766D01*
X138503Y191697D01*
X138463Y191633D01*
X138452Y191587D01*
X138431Y191543D01*
X138423Y191468D01*
X138405Y191394D01*
X138410Y191346D01*
X138404Y191299D01*
X138420Y191225D01*
X138427Y191149D01*
X138450Y191089D01*
X138456Y191058D01*
X138470Y191036D01*
X138486Y190992D01*
X139390Y189218D01*
X139988Y187378D01*
X140291Y185467D01*
X140291Y166523D01*
X129523Y166523D01*
X129523Y197390D01*
X129508Y197481D01*
X129501Y197571D01*
X129489Y197601D01*
X129483Y197633D01*
X129441Y197714D01*
X129405Y197798D01*
X129379Y197830D01*
X129368Y197851D01*
X129345Y197873D01*
X129300Y197929D01*
X126892Y200337D01*
X123999Y207321D01*
X123999Y214879D01*
X126892Y221863D01*
X132237Y227208D01*
X139221Y230101D01*
X146779Y230101D01*
X153763Y227208D01*
X159108Y221863D01*
X162001Y214879D01*
X162001Y207321D01*
X159108Y200337D01*
X154981Y196210D01*
X154924Y196131D01*
X154862Y196056D01*
X154853Y196031D01*
X154837Y196010D01*
X154809Y195917D01*
X154774Y195826D01*
X154773Y195800D01*
X154765Y195775D01*
X154768Y195678D01*
X154764Y195581D01*
X154771Y195555D01*
X154771Y195529D01*
X154805Y195438D01*
X154832Y195344D01*
X154847Y195323D01*
X154856Y195298D01*
X154917Y195222D01*
X154972Y195142D01*
X154993Y195127D01*
X155010Y195106D01*
X155092Y195054D01*
X155170Y194995D01*
X155195Y194987D01*
X155217Y194973D01*
X155311Y194949D01*
X155404Y194919D01*
X155430Y194920D01*
X155455Y194913D01*
X155552Y194921D01*
X155650Y194922D01*
X155681Y194931D01*
X155700Y194932D01*
X155731Y194945D01*
X155811Y194968D01*
X157757Y195775D01*
X162243Y195775D01*
X166387Y194058D01*
X169558Y190887D01*
X171275Y186743D01*
X171275Y162757D01*
X169558Y158613D01*
X166387Y155442D01*
X162243Y153725D01*
X157757Y153725D01*
G37*
%LPD*%
%LPC*%
G36*
X119033Y696467D02*
X119033Y696467D01*
X116045Y697705D01*
X113759Y699991D01*
X112521Y702979D01*
X112521Y719421D01*
X113759Y722409D01*
X116045Y724695D01*
X119033Y725933D01*
X122267Y725933D01*
X125255Y724695D01*
X125609Y724341D01*
X125625Y724329D01*
X125637Y724314D01*
X125725Y724258D01*
X125809Y724197D01*
X125828Y724192D01*
X125844Y724181D01*
X125945Y724155D01*
X126044Y724125D01*
X126064Y724126D01*
X126083Y724121D01*
X126186Y724129D01*
X126290Y724131D01*
X126308Y724138D01*
X126328Y724140D01*
X126423Y724180D01*
X126521Y724216D01*
X126536Y724228D01*
X126554Y724236D01*
X126685Y724341D01*
X164368Y762024D01*
X164412Y762085D01*
X164446Y762120D01*
X164452Y762133D01*
X164481Y762167D01*
X164493Y762197D01*
X164512Y762224D01*
X164539Y762311D01*
X164573Y762395D01*
X164577Y762436D01*
X164584Y762459D01*
X164583Y762491D01*
X164591Y762562D01*
X164591Y854449D01*
X227591Y917449D01*
X244674Y917449D01*
X244694Y917452D01*
X244713Y917450D01*
X244815Y917472D01*
X244917Y917488D01*
X244934Y917498D01*
X244954Y917502D01*
X245043Y917555D01*
X245134Y917604D01*
X245148Y917618D01*
X245165Y917628D01*
X245232Y917707D01*
X245304Y917782D01*
X245312Y917800D01*
X245325Y917815D01*
X245364Y917911D01*
X245407Y918005D01*
X245409Y918025D01*
X245417Y918043D01*
X245435Y918210D01*
X245435Y922072D01*
X246328Y922965D01*
X261672Y922965D01*
X262565Y922072D01*
X262565Y906728D01*
X261672Y905835D01*
X246328Y905835D01*
X245435Y906728D01*
X245435Y910590D01*
X245432Y910610D01*
X245434Y910629D01*
X245412Y910731D01*
X245396Y910833D01*
X245386Y910850D01*
X245382Y910870D01*
X245329Y910959D01*
X245280Y911050D01*
X245266Y911064D01*
X245256Y911081D01*
X245177Y911148D01*
X245102Y911220D01*
X245084Y911228D01*
X245069Y911241D01*
X244973Y911280D01*
X244879Y911323D01*
X244859Y911325D01*
X244841Y911333D01*
X244674Y911351D01*
X230432Y911351D01*
X230342Y911337D01*
X230251Y911329D01*
X230221Y911317D01*
X230189Y911312D01*
X230109Y911269D01*
X230025Y911233D01*
X229993Y911207D01*
X229972Y911196D01*
X229950Y911173D01*
X229894Y911128D01*
X170912Y852146D01*
X170869Y852086D01*
X170827Y852043D01*
X170820Y852027D01*
X170799Y852003D01*
X170787Y851973D01*
X170768Y851946D01*
X170741Y851859D01*
X170737Y851849D01*
X170724Y851819D01*
X170723Y851813D01*
X170707Y851775D01*
X170703Y851734D01*
X170696Y851711D01*
X170697Y851679D01*
X170689Y851608D01*
X170689Y759721D01*
X168680Y757712D01*
X129002Y718034D01*
X128949Y717960D01*
X128889Y717891D01*
X128877Y717861D01*
X128858Y717834D01*
X128831Y717747D01*
X128797Y717663D01*
X128793Y717622D01*
X128786Y717599D01*
X128787Y717567D01*
X128779Y717496D01*
X128779Y702979D01*
X127541Y699991D01*
X125255Y697705D01*
X122267Y696467D01*
X119033Y696467D01*
G37*
%LPD*%
%LPC*%
G36*
X296566Y700301D02*
X296566Y700301D01*
X293901Y702966D01*
X293901Y704413D01*
X293887Y704503D01*
X293879Y704594D01*
X293867Y704623D01*
X293862Y704655D01*
X293819Y704736D01*
X293783Y704820D01*
X293757Y704852D01*
X293746Y704873D01*
X293723Y704895D01*
X293678Y704951D01*
X282478Y716151D01*
X282420Y716193D01*
X282368Y716242D01*
X282321Y716264D01*
X282279Y716295D01*
X282210Y716316D01*
X282145Y716346D01*
X282093Y716352D01*
X282043Y716367D01*
X281972Y716365D01*
X281901Y716373D01*
X281850Y716362D01*
X281798Y716361D01*
X281730Y716336D01*
X281660Y716321D01*
X281615Y716294D01*
X281567Y716276D01*
X281511Y716231D01*
X281449Y716194D01*
X281415Y716155D01*
X281375Y716122D01*
X281336Y716062D01*
X281289Y716008D01*
X281270Y715959D01*
X281242Y715915D01*
X281224Y715846D01*
X281197Y715779D01*
X281189Y715708D01*
X281181Y715677D01*
X281183Y715654D01*
X281179Y715613D01*
X281179Y703964D01*
X280286Y703071D01*
X265814Y703071D01*
X264921Y703964D01*
X264921Y718436D01*
X265814Y719329D01*
X277463Y719329D01*
X277533Y719340D01*
X277605Y719342D01*
X277654Y719360D01*
X277705Y719368D01*
X277769Y719402D01*
X277836Y719427D01*
X277877Y719459D01*
X277923Y719484D01*
X277972Y719536D01*
X278028Y719580D01*
X278056Y719624D01*
X278092Y719662D01*
X278122Y719727D01*
X278161Y719787D01*
X278174Y719838D01*
X278196Y719885D01*
X278204Y719956D01*
X278221Y720026D01*
X278217Y720078D01*
X278223Y720129D01*
X278208Y720200D01*
X278202Y720271D01*
X278182Y720319D01*
X278171Y720370D01*
X278134Y720431D01*
X278106Y720497D01*
X278061Y720553D01*
X278044Y720581D01*
X278027Y720596D01*
X278001Y720628D01*
X276547Y722082D01*
X276547Y748467D01*
X276533Y748557D01*
X276525Y748648D01*
X276513Y748677D01*
X276508Y748709D01*
X276465Y748790D01*
X276429Y748874D01*
X276403Y748906D01*
X276392Y748927D01*
X276369Y748949D01*
X276324Y749005D01*
X222222Y803107D01*
X222164Y803149D01*
X222112Y803198D01*
X222065Y803220D01*
X222023Y803251D01*
X221954Y803272D01*
X221889Y803302D01*
X221837Y803308D01*
X221787Y803323D01*
X221716Y803321D01*
X221645Y803329D01*
X221594Y803318D01*
X221542Y803317D01*
X221474Y803292D01*
X221404Y803277D01*
X221359Y803250D01*
X221311Y803232D01*
X221255Y803187D01*
X221193Y803150D01*
X221159Y803111D01*
X221119Y803078D01*
X221080Y803018D01*
X221033Y802964D01*
X221014Y802915D01*
X220986Y802871D01*
X220968Y802802D01*
X220941Y802735D01*
X220933Y802664D01*
X220925Y802633D01*
X220927Y802610D01*
X220923Y802569D01*
X220923Y784970D01*
X220030Y784077D01*
X199970Y784077D01*
X199077Y784970D01*
X199077Y805030D01*
X199970Y805923D01*
X217569Y805923D01*
X217639Y805934D01*
X217711Y805936D01*
X217760Y805954D01*
X217811Y805962D01*
X217875Y805996D01*
X217942Y806021D01*
X217983Y806053D01*
X218029Y806078D01*
X218078Y806129D01*
X218134Y806174D01*
X218162Y806218D01*
X218198Y806256D01*
X218228Y806321D01*
X218267Y806381D01*
X218280Y806432D01*
X218302Y806479D01*
X218310Y806550D01*
X218327Y806620D01*
X218323Y806672D01*
X218329Y806723D01*
X218314Y806794D01*
X218308Y806865D01*
X218288Y806913D01*
X218277Y806964D01*
X218240Y807025D01*
X218212Y807091D01*
X218167Y807147D01*
X218150Y807175D01*
X218137Y807187D01*
X218134Y807192D01*
X218127Y807198D01*
X218107Y807222D01*
X216475Y808854D01*
X216401Y808907D01*
X216332Y808967D01*
X216301Y808979D01*
X216275Y808998D01*
X216188Y809025D01*
X216103Y809059D01*
X216062Y809063D01*
X216040Y809070D01*
X216008Y809069D01*
X215937Y809077D01*
X199970Y809077D01*
X199077Y809970D01*
X199077Y830030D01*
X199970Y830923D01*
X220030Y830923D01*
X220923Y830030D01*
X220923Y814063D01*
X220937Y813973D01*
X220945Y813882D01*
X220957Y813853D01*
X220962Y813821D01*
X221005Y813740D01*
X221041Y813656D01*
X221067Y813624D01*
X221078Y813603D01*
X221101Y813581D01*
X221146Y813525D01*
X280995Y753676D01*
X283153Y751518D01*
X283153Y725133D01*
X283167Y725043D01*
X283175Y724952D01*
X283187Y724923D01*
X283192Y724891D01*
X283235Y724810D01*
X283271Y724726D01*
X283297Y724694D01*
X283308Y724673D01*
X283331Y724651D01*
X283376Y724595D01*
X298349Y709622D01*
X298423Y709569D01*
X298492Y709509D01*
X298523Y709497D01*
X298549Y709478D01*
X298636Y709451D01*
X298721Y709417D01*
X298762Y709413D01*
X298784Y709406D01*
X298816Y709407D01*
X298887Y709399D01*
X300334Y709399D01*
X302999Y706734D01*
X302999Y702966D01*
X300334Y700301D01*
X296566Y700301D01*
G37*
%LPD*%
%LPC*%
G36*
X164091Y689101D02*
X164091Y689101D01*
X153609Y699583D01*
X153593Y699595D01*
X153581Y699610D01*
X153494Y699666D01*
X153410Y699727D01*
X153391Y699732D01*
X153374Y699743D01*
X153273Y699769D01*
X153175Y699799D01*
X153155Y699798D01*
X153135Y699803D01*
X153032Y699795D01*
X152929Y699793D01*
X152910Y699786D01*
X152890Y699784D01*
X152795Y699744D01*
X152698Y699708D01*
X152682Y699696D01*
X152664Y699688D01*
X152533Y699583D01*
X150655Y697705D01*
X147667Y696467D01*
X144433Y696467D01*
X141445Y697705D01*
X139159Y699991D01*
X137921Y702979D01*
X137921Y719421D01*
X139159Y722409D01*
X141445Y724695D01*
X144433Y725933D01*
X147667Y725933D01*
X150655Y724695D01*
X152941Y722409D01*
X154179Y719421D01*
X154179Y707952D01*
X154193Y707862D01*
X154201Y707771D01*
X154213Y707741D01*
X154218Y707709D01*
X154261Y707629D01*
X154297Y707545D01*
X154323Y707513D01*
X154334Y707492D01*
X154357Y707470D01*
X154402Y707414D01*
X166394Y695422D01*
X166468Y695369D01*
X166537Y695309D01*
X166567Y695297D01*
X166594Y695278D01*
X166681Y695251D01*
X166765Y695217D01*
X166806Y695213D01*
X166829Y695206D01*
X166861Y695207D01*
X166932Y695199D01*
X169069Y695199D01*
X169165Y695214D01*
X169262Y695224D01*
X169286Y695234D01*
X169311Y695238D01*
X169397Y695284D01*
X169486Y695324D01*
X169506Y695341D01*
X169529Y695354D01*
X169596Y695424D01*
X169667Y695490D01*
X169680Y695513D01*
X169698Y695532D01*
X169739Y695620D01*
X169786Y695706D01*
X169791Y695731D01*
X169802Y695755D01*
X169812Y695852D01*
X169830Y695948D01*
X169826Y695974D01*
X169829Y695999D01*
X169808Y696095D01*
X169794Y696191D01*
X169782Y696214D01*
X169777Y696240D01*
X169727Y696323D01*
X169682Y696410D01*
X169664Y696429D01*
X169650Y696451D01*
X169576Y696514D01*
X169507Y696582D01*
X169478Y696598D01*
X169463Y696611D01*
X169433Y696623D01*
X169360Y696663D01*
X166845Y697705D01*
X164559Y699991D01*
X163321Y702979D01*
X163321Y719421D01*
X164559Y722409D01*
X166845Y724695D01*
X169833Y725933D01*
X173067Y725933D01*
X176055Y724695D01*
X178341Y722409D01*
X179579Y719421D01*
X179579Y702979D01*
X178341Y699991D01*
X176055Y697705D01*
X173540Y696663D01*
X173457Y696612D01*
X173371Y696566D01*
X173353Y696548D01*
X173331Y696534D01*
X173269Y696458D01*
X173202Y696388D01*
X173191Y696364D01*
X173174Y696344D01*
X173139Y696253D01*
X173098Y696165D01*
X173095Y696139D01*
X173086Y696115D01*
X173082Y696017D01*
X173071Y695921D01*
X173077Y695895D01*
X173076Y695869D01*
X173103Y695775D01*
X173123Y695680D01*
X173137Y695658D01*
X173144Y695633D01*
X173200Y695553D01*
X173250Y695469D01*
X173269Y695452D01*
X173284Y695431D01*
X173363Y695372D01*
X173437Y695309D01*
X173461Y695299D01*
X173482Y695284D01*
X173574Y695254D01*
X173665Y695217D01*
X173697Y695214D01*
X173716Y695208D01*
X173749Y695208D01*
X173831Y695199D01*
X194469Y695199D01*
X194565Y695214D01*
X194662Y695224D01*
X194686Y695234D01*
X194711Y695238D01*
X194797Y695284D01*
X194886Y695324D01*
X194906Y695341D01*
X194929Y695354D01*
X194996Y695424D01*
X195067Y695490D01*
X195080Y695513D01*
X195098Y695532D01*
X195139Y695620D01*
X195186Y695706D01*
X195191Y695731D01*
X195202Y695755D01*
X195212Y695852D01*
X195230Y695948D01*
X195226Y695974D01*
X195229Y695999D01*
X195208Y696095D01*
X195194Y696191D01*
X195182Y696214D01*
X195177Y696240D01*
X195127Y696323D01*
X195082Y696410D01*
X195064Y696429D01*
X195050Y696451D01*
X194976Y696514D01*
X194907Y696582D01*
X194878Y696598D01*
X194863Y696611D01*
X194833Y696623D01*
X194760Y696663D01*
X192245Y697705D01*
X189959Y699991D01*
X188721Y702979D01*
X188721Y719421D01*
X189959Y722409D01*
X192245Y724695D01*
X195233Y725933D01*
X198467Y725933D01*
X201455Y724695D01*
X203741Y722409D01*
X204979Y719421D01*
X204979Y702979D01*
X203741Y699991D01*
X201455Y697705D01*
X198940Y696663D01*
X198857Y696612D01*
X198771Y696566D01*
X198753Y696548D01*
X198731Y696534D01*
X198669Y696458D01*
X198602Y696388D01*
X198591Y696364D01*
X198574Y696344D01*
X198539Y696253D01*
X198498Y696165D01*
X198495Y696139D01*
X198486Y696115D01*
X198482Y696017D01*
X198471Y695921D01*
X198477Y695895D01*
X198476Y695869D01*
X198503Y695775D01*
X198523Y695680D01*
X198537Y695658D01*
X198544Y695633D01*
X198600Y695553D01*
X198650Y695469D01*
X198669Y695452D01*
X198684Y695431D01*
X198763Y695372D01*
X198837Y695309D01*
X198861Y695299D01*
X198882Y695284D01*
X198974Y695254D01*
X199065Y695217D01*
X199097Y695214D01*
X199116Y695208D01*
X199149Y695208D01*
X199231Y695199D01*
X201622Y695199D01*
X201712Y695213D01*
X201803Y695221D01*
X201833Y695233D01*
X201865Y695238D01*
X201945Y695281D01*
X202029Y695317D01*
X202061Y695343D01*
X202082Y695354D01*
X202104Y695377D01*
X202160Y695422D01*
X213898Y707160D01*
X213951Y707234D01*
X214011Y707303D01*
X214023Y707333D01*
X214042Y707360D01*
X214069Y707447D01*
X214103Y707531D01*
X214107Y707572D01*
X214114Y707595D01*
X214113Y707627D01*
X214121Y707698D01*
X214121Y719421D01*
X215359Y722409D01*
X217645Y724695D01*
X220633Y725933D01*
X223867Y725933D01*
X226855Y724695D01*
X229141Y722409D01*
X230379Y719421D01*
X230379Y702979D01*
X229141Y699991D01*
X226855Y697705D01*
X223867Y696467D01*
X220633Y696467D01*
X217645Y697705D01*
X215894Y699456D01*
X215878Y699468D01*
X215866Y699483D01*
X215778Y699539D01*
X215694Y699600D01*
X215675Y699605D01*
X215659Y699616D01*
X215558Y699642D01*
X215459Y699672D01*
X215439Y699671D01*
X215420Y699676D01*
X215317Y699668D01*
X215213Y699666D01*
X215195Y699659D01*
X215175Y699657D01*
X215080Y699617D01*
X214982Y699581D01*
X214967Y699569D01*
X214949Y699561D01*
X214818Y699456D01*
X206472Y691110D01*
X204463Y689101D01*
X164091Y689101D01*
G37*
%LPD*%
%LPC*%
G36*
X662266Y593875D02*
X662266Y593875D01*
X659601Y596540D01*
X659601Y600308D01*
X662266Y602973D01*
X662940Y602973D01*
X662960Y602976D01*
X662979Y602974D01*
X663081Y602996D01*
X663183Y603012D01*
X663200Y603022D01*
X663220Y603026D01*
X663309Y603079D01*
X663400Y603128D01*
X663414Y603142D01*
X663431Y603152D01*
X663498Y603231D01*
X663570Y603306D01*
X663578Y603324D01*
X663591Y603339D01*
X663630Y603435D01*
X663673Y603529D01*
X663675Y603549D01*
X663683Y603567D01*
X663701Y603734D01*
X663701Y671522D01*
X663687Y671612D01*
X663679Y671703D01*
X663667Y671733D01*
X663662Y671765D01*
X663619Y671845D01*
X663583Y671929D01*
X663557Y671961D01*
X663546Y671982D01*
X663523Y672004D01*
X663478Y672060D01*
X651001Y684537D01*
X651001Y703272D01*
X650987Y703362D01*
X650979Y703453D01*
X650967Y703483D01*
X650962Y703515D01*
X650919Y703595D01*
X650883Y703679D01*
X650857Y703711D01*
X650846Y703732D01*
X650823Y703754D01*
X650778Y703810D01*
X602210Y752378D01*
X602136Y752431D01*
X602067Y752491D01*
X602037Y752503D01*
X602010Y752522D01*
X601923Y752549D01*
X601839Y752583D01*
X601798Y752587D01*
X601775Y752594D01*
X601743Y752593D01*
X601672Y752601D01*
X563887Y752601D01*
X540210Y776278D01*
X540136Y776331D01*
X540067Y776391D01*
X540037Y776403D01*
X540010Y776422D01*
X539923Y776449D01*
X539839Y776483D01*
X539798Y776487D01*
X539775Y776494D01*
X539743Y776493D01*
X539672Y776501D01*
X537866Y776501D01*
X535201Y779166D01*
X535201Y782934D01*
X537866Y785599D01*
X541634Y785599D01*
X544299Y782934D01*
X544299Y781128D01*
X544313Y781038D01*
X544321Y780947D01*
X544333Y780917D01*
X544338Y780885D01*
X544381Y780805D01*
X544417Y780721D01*
X544443Y780689D01*
X544454Y780668D01*
X544477Y780646D01*
X544522Y780590D01*
X566190Y758922D01*
X566264Y758869D01*
X566333Y758809D01*
X566363Y758797D01*
X566390Y758778D01*
X566477Y758751D01*
X566561Y758717D01*
X566602Y758713D01*
X566625Y758706D01*
X566657Y758707D01*
X566728Y758699D01*
X604513Y758699D01*
X657099Y706113D01*
X657099Y687378D01*
X657113Y687288D01*
X657121Y687197D01*
X657133Y687167D01*
X657138Y687135D01*
X657181Y687055D01*
X657217Y686971D01*
X657243Y686939D01*
X657254Y686918D01*
X657277Y686896D01*
X657322Y686840D01*
X669799Y674363D01*
X669799Y599761D01*
X668922Y598884D01*
X668877Y598822D01*
X668848Y598792D01*
X668843Y598780D01*
X668809Y598741D01*
X668797Y598711D01*
X668778Y598684D01*
X668751Y598597D01*
X668717Y598513D01*
X668713Y598472D01*
X668706Y598449D01*
X668707Y598417D01*
X668699Y598346D01*
X668699Y596540D01*
X666034Y593875D01*
X662266Y593875D01*
G37*
%LPD*%
%LPC*%
G36*
X664866Y693951D02*
X664866Y693951D01*
X662201Y696616D01*
X662201Y700384D01*
X663478Y701661D01*
X663531Y701735D01*
X663591Y701805D01*
X663603Y701835D01*
X663622Y701861D01*
X663649Y701948D01*
X663683Y702033D01*
X663687Y702074D01*
X663694Y702096D01*
X663693Y702128D01*
X663701Y702199D01*
X663701Y735022D01*
X663687Y735112D01*
X663679Y735203D01*
X663667Y735233D01*
X663662Y735265D01*
X663619Y735345D01*
X663583Y735429D01*
X663557Y735461D01*
X663546Y735482D01*
X663523Y735504D01*
X663478Y735560D01*
X640310Y758728D01*
X640236Y758781D01*
X640167Y758841D01*
X640137Y758853D01*
X640110Y758872D01*
X640023Y758899D01*
X639939Y758933D01*
X639898Y758937D01*
X639875Y758944D01*
X639843Y758943D01*
X639772Y758951D01*
X614687Y758951D01*
X612678Y760960D01*
X604530Y769108D01*
X604514Y769120D01*
X604501Y769136D01*
X604414Y769192D01*
X604330Y769252D01*
X604311Y769258D01*
X604295Y769269D01*
X604194Y769294D01*
X604095Y769324D01*
X604075Y769324D01*
X604056Y769329D01*
X603953Y769321D01*
X603849Y769318D01*
X603831Y769311D01*
X603811Y769310D01*
X603716Y769269D01*
X603618Y769233D01*
X603603Y769221D01*
X603584Y769213D01*
X603453Y769108D01*
X603087Y768742D01*
X599073Y767079D01*
X594727Y767079D01*
X590713Y768742D01*
X587640Y771815D01*
X585977Y775829D01*
X585977Y798971D01*
X587640Y802985D01*
X590713Y806058D01*
X594727Y807721D01*
X599073Y807721D01*
X603087Y806058D01*
X606160Y802985D01*
X607823Y798971D01*
X607823Y775829D01*
X607610Y775316D01*
X607583Y775202D01*
X607555Y775089D01*
X607555Y775083D01*
X607554Y775077D01*
X607565Y774960D01*
X607574Y774844D01*
X607576Y774838D01*
X607577Y774832D01*
X607625Y774724D01*
X607670Y774617D01*
X607675Y774612D01*
X607677Y774607D01*
X607690Y774593D01*
X607775Y774486D01*
X616990Y765272D01*
X617064Y765219D01*
X617133Y765159D01*
X617163Y765147D01*
X617190Y765128D01*
X617277Y765101D01*
X617361Y765067D01*
X617402Y765063D01*
X617425Y765056D01*
X617457Y765057D01*
X617528Y765049D01*
X642613Y765049D01*
X644622Y763040D01*
X667790Y739872D01*
X669799Y737863D01*
X669799Y702199D01*
X669813Y702109D01*
X669821Y702018D01*
X669833Y701989D01*
X669838Y701957D01*
X669881Y701876D01*
X669917Y701792D01*
X669943Y701760D01*
X669954Y701739D01*
X669977Y701717D01*
X670022Y701661D01*
X671299Y700384D01*
X671299Y696616D01*
X668634Y693951D01*
X664866Y693951D01*
G37*
%LPD*%
%LPC*%
G36*
X658311Y548299D02*
X658311Y548299D01*
X654452Y549898D01*
X651498Y552852D01*
X649899Y556711D01*
X649899Y560889D01*
X651498Y564748D01*
X654452Y567702D01*
X658311Y569301D01*
X662489Y569301D01*
X666348Y567702D01*
X666744Y567307D01*
X666802Y567265D01*
X666854Y567215D01*
X666901Y567193D01*
X666943Y567163D01*
X667012Y567142D01*
X667077Y567112D01*
X667129Y567106D01*
X667179Y567091D01*
X667250Y567093D01*
X667321Y567085D01*
X667372Y567096D01*
X667424Y567097D01*
X667492Y567122D01*
X667562Y567137D01*
X667607Y567164D01*
X667655Y567181D01*
X667711Y567226D01*
X667773Y567263D01*
X667807Y567303D01*
X667847Y567335D01*
X667886Y567395D01*
X667933Y567450D01*
X667952Y567498D01*
X667980Y567542D01*
X667998Y567611D01*
X668025Y567678D01*
X668033Y567749D01*
X668041Y567781D01*
X668039Y567804D01*
X668043Y567845D01*
X668043Y570844D01*
X670708Y573509D01*
X672514Y573509D01*
X672604Y573523D01*
X672695Y573531D01*
X672725Y573543D01*
X672757Y573548D01*
X672837Y573591D01*
X672921Y573627D01*
X672953Y573653D01*
X672974Y573664D01*
X672996Y573687D01*
X673052Y573732D01*
X676841Y577521D01*
X676853Y577537D01*
X676869Y577550D01*
X676925Y577637D01*
X676985Y577721D01*
X676991Y577740D01*
X677002Y577757D01*
X677027Y577857D01*
X677057Y577956D01*
X677057Y577976D01*
X677062Y577995D01*
X677054Y578098D01*
X677051Y578202D01*
X677044Y578221D01*
X677043Y578240D01*
X677002Y578335D01*
X676967Y578433D01*
X676954Y578448D01*
X676946Y578467D01*
X676841Y578598D01*
X674139Y581300D01*
X674139Y585068D01*
X675416Y586345D01*
X675469Y586419D01*
X675529Y586489D01*
X675541Y586519D01*
X675560Y586545D01*
X675587Y586632D01*
X675621Y586717D01*
X675625Y586758D01*
X675632Y586780D01*
X675631Y586812D01*
X675639Y586883D01*
X675639Y600703D01*
X686108Y611172D01*
X686161Y611246D01*
X686221Y611315D01*
X686233Y611345D01*
X686252Y611372D01*
X686279Y611459D01*
X686313Y611543D01*
X686317Y611584D01*
X686324Y611607D01*
X686323Y611639D01*
X686331Y611710D01*
X686331Y615548D01*
X688996Y618213D01*
X692764Y618213D01*
X693160Y617817D01*
X693218Y617775D01*
X693270Y617726D01*
X693317Y617704D01*
X693359Y617674D01*
X693428Y617653D01*
X693493Y617622D01*
X693545Y617617D01*
X693595Y617601D01*
X693666Y617603D01*
X693737Y617595D01*
X693788Y617606D01*
X693840Y617608D01*
X693908Y617632D01*
X693978Y617647D01*
X694023Y617674D01*
X694071Y617692D01*
X694127Y617737D01*
X694189Y617774D01*
X694223Y617813D01*
X694263Y617846D01*
X694302Y617906D01*
X694349Y617961D01*
X694368Y618009D01*
X694396Y618053D01*
X694414Y618122D01*
X694441Y618189D01*
X694449Y618260D01*
X694457Y618291D01*
X694455Y618314D01*
X694459Y618355D01*
X694459Y619612D01*
X697124Y622277D01*
X700892Y622277D01*
X703557Y619612D01*
X703557Y615774D01*
X703571Y615684D01*
X703579Y615593D01*
X703591Y615563D01*
X703596Y615531D01*
X703639Y615451D01*
X703675Y615367D01*
X703701Y615335D01*
X703712Y615314D01*
X703735Y615292D01*
X703780Y615236D01*
X704089Y614927D01*
X704089Y596145D01*
X702080Y594136D01*
X677364Y569420D01*
X677311Y569346D01*
X677251Y569277D01*
X677239Y569247D01*
X677220Y569220D01*
X677193Y569133D01*
X677159Y569049D01*
X677155Y569008D01*
X677148Y568985D01*
X677149Y568953D01*
X677141Y568882D01*
X677141Y567076D01*
X674476Y564411D01*
X670581Y564411D01*
X670536Y564404D01*
X670490Y564406D01*
X670415Y564384D01*
X670338Y564372D01*
X670298Y564350D01*
X670254Y564337D01*
X670190Y564293D01*
X670121Y564256D01*
X670089Y564223D01*
X670051Y564197D01*
X670005Y564135D01*
X669951Y564078D01*
X669932Y564036D01*
X669905Y564000D01*
X669881Y563926D01*
X669848Y563855D01*
X669843Y563809D01*
X669829Y563766D01*
X669829Y563688D01*
X669821Y563611D01*
X669830Y563566D01*
X669831Y563520D01*
X669869Y563388D01*
X669873Y563370D01*
X669876Y563366D01*
X669878Y563359D01*
X670901Y560889D01*
X670901Y556711D01*
X669302Y552852D01*
X666348Y549898D01*
X662489Y548299D01*
X658311Y548299D01*
G37*
%LPD*%
%LPC*%
G36*
X139221Y369899D02*
X139221Y369899D01*
X132237Y372792D01*
X126892Y378137D01*
X123999Y385121D01*
X123999Y392679D01*
X126892Y399663D01*
X132237Y405008D01*
X139221Y407901D01*
X146779Y407901D01*
X153763Y405008D01*
X159108Y399663D01*
X162001Y392679D01*
X162001Y385121D01*
X159108Y378137D01*
X153763Y372792D01*
X146779Y369899D01*
X139221Y369899D01*
G37*
%LPD*%
%LPC*%
G36*
X803421Y369899D02*
X803421Y369899D01*
X796437Y372792D01*
X791092Y378137D01*
X788199Y385121D01*
X788199Y392679D01*
X791092Y399663D01*
X796437Y405008D01*
X803421Y407901D01*
X810979Y407901D01*
X817963Y405008D01*
X823308Y399663D01*
X826201Y392679D01*
X826201Y385121D01*
X823308Y378137D01*
X817963Y372792D01*
X810979Y369899D01*
X803421Y369899D01*
G37*
%LPD*%
%LPC*%
G36*
X803421Y192099D02*
X803421Y192099D01*
X796437Y194992D01*
X791092Y200337D01*
X788199Y207321D01*
X788199Y214879D01*
X791092Y221863D01*
X796437Y227208D01*
X803421Y230101D01*
X810979Y230101D01*
X817963Y227208D01*
X823308Y221863D01*
X826201Y214879D01*
X826201Y207321D01*
X823308Y200337D01*
X817963Y194992D01*
X810979Y192099D01*
X803421Y192099D01*
G37*
%LPD*%
%LPC*%
G36*
X849524Y568475D02*
X849524Y568475D01*
X847257Y570742D01*
X847176Y570801D01*
X847120Y570848D01*
X847108Y570853D01*
X847084Y570872D01*
X847067Y570879D01*
X847057Y570886D01*
X847028Y570895D01*
X846929Y570936D01*
X841660Y572451D01*
X841638Y572454D01*
X841617Y572462D01*
X841450Y572481D01*
X750209Y572481D01*
X738713Y583976D01*
X738639Y584029D01*
X738570Y584089D01*
X738540Y584101D01*
X738514Y584120D01*
X738427Y584147D01*
X738342Y584181D01*
X738301Y584185D01*
X738278Y584192D01*
X738246Y584191D01*
X738175Y584199D01*
X723027Y584199D01*
X722937Y584185D01*
X722846Y584177D01*
X722817Y584165D01*
X722785Y584160D01*
X722704Y584117D01*
X722620Y584081D01*
X722588Y584055D01*
X722567Y584044D01*
X722545Y584021D01*
X722489Y583976D01*
X721212Y582699D01*
X717444Y582699D01*
X714779Y585364D01*
X714779Y589132D01*
X717444Y591797D01*
X721212Y591797D01*
X722489Y590520D01*
X722563Y590467D01*
X722633Y590407D01*
X722663Y590395D01*
X722689Y590376D01*
X722776Y590349D01*
X722861Y590315D01*
X722902Y590311D01*
X722924Y590304D01*
X722956Y590305D01*
X723027Y590297D01*
X741016Y590297D01*
X752511Y578801D01*
X752585Y578748D01*
X752655Y578689D01*
X752685Y578677D01*
X752711Y578658D01*
X752798Y578631D01*
X752883Y578597D01*
X752924Y578592D01*
X752946Y578585D01*
X752978Y578586D01*
X753050Y578578D01*
X841003Y578578D01*
X841110Y578596D01*
X841217Y578609D01*
X841234Y578616D01*
X841246Y578618D01*
X841272Y578632D01*
X841372Y578674D01*
X841616Y578809D01*
X842314Y578608D01*
X842336Y578605D01*
X842357Y578597D01*
X842524Y578578D01*
X843250Y578578D01*
X843447Y578381D01*
X843535Y578318D01*
X843620Y578251D01*
X843637Y578244D01*
X843647Y578237D01*
X843675Y578229D01*
X843775Y578188D01*
X848286Y576890D01*
X848360Y576881D01*
X848432Y576863D01*
X848481Y576867D01*
X848530Y576861D01*
X848603Y576877D01*
X848677Y576882D01*
X848723Y576902D01*
X848771Y576912D01*
X848835Y576949D01*
X848904Y576979D01*
X848956Y577020D01*
X848983Y577036D01*
X848999Y577055D01*
X849035Y577083D01*
X849524Y577573D01*
X853292Y577573D01*
X855957Y574908D01*
X855957Y571140D01*
X853292Y568475D01*
X849524Y568475D01*
G37*
%LPD*%
%LPC*%
G36*
X133155Y847475D02*
X133155Y847475D01*
X123475Y857155D01*
X123475Y870845D01*
X133155Y880525D01*
X146845Y880525D01*
X156525Y870845D01*
X156525Y857155D01*
X146845Y847475D01*
X133155Y847475D01*
G37*
%LPD*%
%LPC*%
G36*
X803155Y759475D02*
X803155Y759475D01*
X793475Y769155D01*
X793475Y782845D01*
X803155Y792525D01*
X816845Y792525D01*
X826525Y782845D01*
X826525Y769155D01*
X816845Y759475D01*
X803155Y759475D01*
G37*
%LPD*%
%LPC*%
G36*
X133155Y759475D02*
X133155Y759475D01*
X123475Y769155D01*
X123475Y782845D01*
X133155Y792525D01*
X146845Y792525D01*
X156525Y782845D01*
X156525Y769155D01*
X146845Y759475D01*
X133155Y759475D01*
G37*
%LPD*%
%LPC*%
G36*
X803155Y847475D02*
X803155Y847475D01*
X793475Y857155D01*
X793475Y870845D01*
X803155Y880525D01*
X816845Y880525D01*
X826525Y870845D01*
X826525Y857155D01*
X816845Y847475D01*
X803155Y847475D01*
G37*
%LPD*%
%LPC*%
G36*
X424155Y493475D02*
X424155Y493475D01*
X414475Y503155D01*
X414475Y516845D01*
X424155Y526525D01*
X437845Y526525D01*
X447525Y516845D01*
X447525Y503155D01*
X437845Y493475D01*
X424155Y493475D01*
G37*
%LPD*%
%LPC*%
G36*
X424155Y853475D02*
X424155Y853475D01*
X414475Y863155D01*
X414475Y876845D01*
X424155Y886525D01*
X437845Y886525D01*
X447525Y876845D01*
X447525Y863155D01*
X437845Y853475D01*
X424155Y853475D01*
G37*
%LPD*%
%LPC*%
G36*
X512155Y853475D02*
X512155Y853475D01*
X502475Y863155D01*
X502475Y876845D01*
X512155Y886525D01*
X525845Y886525D01*
X535525Y876845D01*
X535525Y863155D01*
X525845Y853475D01*
X512155Y853475D01*
G37*
%LPD*%
%LPC*%
G36*
X512155Y493475D02*
X512155Y493475D01*
X502475Y503155D01*
X502475Y516845D01*
X512155Y526525D01*
X525845Y526525D01*
X535525Y516845D01*
X535525Y503155D01*
X525845Y493475D01*
X512155Y493475D01*
G37*
%LPD*%
%LPC*%
G36*
X189757Y153725D02*
X189757Y153725D01*
X185613Y155442D01*
X182442Y158613D01*
X180725Y162757D01*
X180725Y186743D01*
X182442Y190887D01*
X185613Y194058D01*
X189757Y195775D01*
X194243Y195775D01*
X198387Y194058D01*
X201558Y190887D01*
X203275Y186743D01*
X203275Y162757D01*
X201558Y158613D01*
X198387Y155442D01*
X194243Y153725D01*
X189757Y153725D01*
G37*
%LPD*%
%LPC*%
G36*
X194507Y207575D02*
X194507Y207575D01*
X190363Y209292D01*
X187192Y212463D01*
X185475Y216607D01*
X185475Y221093D01*
X187192Y225237D01*
X190363Y228408D01*
X194507Y230125D01*
X218493Y230125D01*
X222637Y228408D01*
X225808Y225237D01*
X227525Y221093D01*
X227525Y216607D01*
X225808Y212463D01*
X222637Y209292D01*
X218493Y207575D01*
X194507Y207575D01*
G37*
%LPD*%
%LPC*%
G36*
X322818Y801825D02*
X322818Y801825D01*
X321925Y802718D01*
X321925Y817482D01*
X322818Y818375D01*
X337582Y818375D01*
X338475Y817482D01*
X338475Y816048D01*
X338486Y815977D01*
X338488Y815906D01*
X338506Y815857D01*
X338514Y815805D01*
X338548Y815742D01*
X338573Y815675D01*
X338605Y815634D01*
X338630Y815588D01*
X338682Y815539D01*
X338726Y815483D01*
X338770Y815454D01*
X338808Y815419D01*
X338873Y815388D01*
X338933Y815350D01*
X338984Y815337D01*
X339031Y815315D01*
X339102Y815307D01*
X339172Y815290D01*
X339224Y815294D01*
X339275Y815288D01*
X339346Y815303D01*
X339417Y815309D01*
X339465Y815329D01*
X339516Y815340D01*
X339577Y815377D01*
X339643Y815405D01*
X339699Y815450D01*
X339727Y815466D01*
X339742Y815484D01*
X339774Y815510D01*
X346209Y821945D01*
X385311Y821945D01*
X387320Y819936D01*
X389451Y817805D01*
X389545Y817737D01*
X389639Y817667D01*
X389645Y817665D01*
X389650Y817661D01*
X389761Y817627D01*
X389873Y817591D01*
X389879Y817591D01*
X389885Y817589D01*
X390002Y817592D01*
X390119Y817593D01*
X390126Y817595D01*
X390131Y817595D01*
X390149Y817602D01*
X390280Y817640D01*
X392054Y818375D01*
X395346Y818375D01*
X398387Y817115D01*
X400715Y814787D01*
X401975Y811746D01*
X401975Y808454D01*
X400715Y805413D01*
X398387Y803085D01*
X395346Y801825D01*
X392054Y801825D01*
X389013Y803085D01*
X386685Y805413D01*
X385425Y808454D01*
X385425Y811746D01*
X385659Y812309D01*
X385685Y812423D01*
X385714Y812536D01*
X385713Y812543D01*
X385715Y812549D01*
X385704Y812665D01*
X385695Y812782D01*
X385692Y812787D01*
X385692Y812794D01*
X385644Y812901D01*
X385598Y813008D01*
X385594Y813014D01*
X385592Y813018D01*
X385579Y813032D01*
X385494Y813139D01*
X383008Y815624D01*
X382934Y815677D01*
X382865Y815737D01*
X382835Y815749D01*
X382808Y815768D01*
X382721Y815795D01*
X382637Y815829D01*
X382596Y815833D01*
X382573Y815840D01*
X382541Y815839D01*
X382470Y815847D01*
X349050Y815847D01*
X348960Y815833D01*
X348869Y815825D01*
X348839Y815813D01*
X348807Y815808D01*
X348727Y815765D01*
X348643Y815729D01*
X348611Y815703D01*
X348590Y815692D01*
X348580Y815682D01*
X348579Y815681D01*
X348565Y815667D01*
X348512Y815624D01*
X340584Y807696D01*
X338698Y805810D01*
X338645Y805736D01*
X338585Y805667D01*
X338573Y805637D01*
X338554Y805610D01*
X338527Y805523D01*
X338493Y805439D01*
X338489Y805398D01*
X338482Y805375D01*
X338483Y805343D01*
X338475Y805272D01*
X338475Y802718D01*
X337582Y801825D01*
X322818Y801825D01*
G37*
%LPD*%
%LPC*%
G36*
X117827Y39679D02*
X117827Y39679D01*
X113813Y41342D01*
X110740Y44415D01*
X109077Y48429D01*
X109077Y71571D01*
X110740Y75585D01*
X113813Y78658D01*
X117827Y80321D01*
X122173Y80321D01*
X126187Y78658D01*
X129260Y75585D01*
X130923Y71571D01*
X130923Y48429D01*
X129260Y44415D01*
X126187Y41342D01*
X122173Y39679D01*
X117827Y39679D01*
G37*
%LPD*%
%LPC*%
G36*
X842427Y39679D02*
X842427Y39679D01*
X838413Y41342D01*
X835340Y44415D01*
X833677Y48429D01*
X833677Y71571D01*
X835340Y75585D01*
X838413Y78658D01*
X842427Y80321D01*
X846773Y80321D01*
X850787Y78658D01*
X853860Y75585D01*
X855523Y71571D01*
X855523Y48429D01*
X853860Y44415D01*
X850787Y41342D01*
X846773Y39679D01*
X842427Y39679D01*
G37*
%LPD*%
%LPC*%
G36*
X143227Y39679D02*
X143227Y39679D01*
X139213Y41342D01*
X136140Y44415D01*
X134477Y48429D01*
X134477Y71571D01*
X136140Y75585D01*
X139213Y78658D01*
X143227Y80321D01*
X147573Y80321D01*
X151587Y78658D01*
X154660Y75585D01*
X156323Y71571D01*
X156323Y48429D01*
X154660Y44415D01*
X151587Y41342D01*
X147573Y39679D01*
X143227Y39679D01*
G37*
%LPD*%
%LPC*%
G36*
X168627Y39679D02*
X168627Y39679D01*
X164613Y41342D01*
X161540Y44415D01*
X159877Y48429D01*
X159877Y71571D01*
X161540Y75585D01*
X164613Y78658D01*
X168627Y80321D01*
X172973Y80321D01*
X176987Y78658D01*
X180060Y75585D01*
X181723Y71571D01*
X181723Y48429D01*
X180060Y44415D01*
X176987Y41342D01*
X172973Y39679D01*
X168627Y39679D01*
G37*
%LPD*%
%LPC*%
G36*
X194027Y39679D02*
X194027Y39679D01*
X190013Y41342D01*
X186940Y44415D01*
X185277Y48429D01*
X185277Y71571D01*
X186940Y75585D01*
X190013Y78658D01*
X194027Y80321D01*
X198373Y80321D01*
X202387Y78658D01*
X205460Y75585D01*
X207123Y71571D01*
X207123Y48429D01*
X205460Y44415D01*
X202387Y41342D01*
X198373Y39679D01*
X194027Y39679D01*
G37*
%LPD*%
%LPC*%
G36*
X817027Y39679D02*
X817027Y39679D01*
X813013Y41342D01*
X809940Y44415D01*
X808277Y48429D01*
X808277Y71571D01*
X809940Y75585D01*
X813013Y78658D01*
X817027Y80321D01*
X821373Y80321D01*
X825387Y78658D01*
X828460Y75585D01*
X830123Y71571D01*
X830123Y48429D01*
X828460Y44415D01*
X825387Y41342D01*
X821373Y39679D01*
X817027Y39679D01*
G37*
%LPD*%
%LPC*%
G36*
X867827Y309679D02*
X867827Y309679D01*
X863813Y311342D01*
X860740Y314415D01*
X859077Y318429D01*
X859077Y341571D01*
X860740Y345585D01*
X863813Y348658D01*
X867827Y350321D01*
X872173Y350321D01*
X876187Y348658D01*
X879260Y345585D01*
X880923Y341571D01*
X880923Y318429D01*
X879260Y314415D01*
X876187Y311342D01*
X872173Y309679D01*
X867827Y309679D01*
G37*
%LPD*%
%LPC*%
G36*
X842427Y309679D02*
X842427Y309679D01*
X838413Y311342D01*
X835340Y314415D01*
X833677Y318429D01*
X833677Y341571D01*
X835340Y345585D01*
X838413Y348658D01*
X842427Y350321D01*
X846773Y350321D01*
X850787Y348658D01*
X853860Y345585D01*
X855523Y341571D01*
X855523Y318429D01*
X853860Y314415D01*
X850787Y311342D01*
X846773Y309679D01*
X842427Y309679D01*
G37*
%LPD*%
%LPC*%
G36*
X817027Y309679D02*
X817027Y309679D01*
X813013Y311342D01*
X809940Y314415D01*
X808277Y318429D01*
X808277Y341571D01*
X809940Y345585D01*
X813013Y348658D01*
X817027Y350321D01*
X821373Y350321D01*
X825387Y348658D01*
X828460Y345585D01*
X830123Y341571D01*
X830123Y318429D01*
X828460Y314415D01*
X825387Y311342D01*
X821373Y309679D01*
X817027Y309679D01*
G37*
%LPD*%
%LPC*%
G36*
X569327Y767079D02*
X569327Y767079D01*
X565313Y768742D01*
X562240Y771815D01*
X560577Y775829D01*
X560577Y798971D01*
X562240Y802985D01*
X565313Y806058D01*
X569327Y807721D01*
X573673Y807721D01*
X577687Y806058D01*
X580760Y802985D01*
X582423Y798971D01*
X582423Y775829D01*
X580760Y771815D01*
X577687Y768742D01*
X573673Y767079D01*
X569327Y767079D01*
G37*
%LPD*%
%LPC*%
G36*
X143227Y309679D02*
X143227Y309679D01*
X139213Y311342D01*
X136140Y314415D01*
X134477Y318429D01*
X134477Y341571D01*
X136140Y345585D01*
X139213Y348658D01*
X143227Y350321D01*
X147573Y350321D01*
X151587Y348658D01*
X154660Y345585D01*
X156323Y341571D01*
X156323Y318429D01*
X154660Y314415D01*
X151587Y311342D01*
X147573Y309679D01*
X143227Y309679D01*
G37*
%LPD*%
%LPC*%
G36*
X620127Y767079D02*
X620127Y767079D01*
X616113Y768742D01*
X613040Y771815D01*
X611377Y775829D01*
X611377Y798971D01*
X613040Y802985D01*
X616113Y806058D01*
X620127Y807721D01*
X624473Y807721D01*
X628487Y806058D01*
X631560Y802985D01*
X633223Y798971D01*
X633223Y775829D01*
X631560Y771815D01*
X628487Y768742D01*
X624473Y767079D01*
X620127Y767079D01*
G37*
%LPD*%
%LPC*%
G36*
X645527Y767079D02*
X645527Y767079D01*
X641513Y768742D01*
X638440Y771815D01*
X636777Y775829D01*
X636777Y798971D01*
X638440Y802985D01*
X641513Y806058D01*
X645527Y807721D01*
X649873Y807721D01*
X653887Y806058D01*
X656960Y802985D01*
X658623Y798971D01*
X658623Y775829D01*
X656960Y771815D01*
X653887Y768742D01*
X649873Y767079D01*
X645527Y767079D01*
G37*
%LPD*%
%LPC*%
G36*
X696327Y767079D02*
X696327Y767079D01*
X692313Y768742D01*
X689240Y771815D01*
X687577Y775829D01*
X687577Y798971D01*
X689240Y802985D01*
X692313Y806058D01*
X696327Y807721D01*
X700673Y807721D01*
X704687Y806058D01*
X707760Y802985D01*
X709423Y798971D01*
X709423Y775829D01*
X707760Y771815D01*
X704687Y768742D01*
X700673Y767079D01*
X696327Y767079D01*
G37*
%LPD*%
%LPC*%
G36*
X168627Y309679D02*
X168627Y309679D01*
X164613Y311342D01*
X161540Y314415D01*
X159877Y318429D01*
X159877Y341571D01*
X161540Y345585D01*
X164613Y348658D01*
X168627Y350321D01*
X172973Y350321D01*
X176987Y348658D01*
X180060Y345585D01*
X181723Y341571D01*
X181723Y318429D01*
X180060Y314415D01*
X176987Y311342D01*
X172973Y309679D01*
X168627Y309679D01*
G37*
%LPD*%
%LPC*%
G36*
X194027Y309679D02*
X194027Y309679D01*
X190013Y311342D01*
X186940Y314415D01*
X185277Y318429D01*
X185277Y341571D01*
X186940Y345585D01*
X190013Y348658D01*
X194027Y350321D01*
X198373Y350321D01*
X202387Y348658D01*
X205460Y345585D01*
X207123Y341571D01*
X207123Y318429D01*
X205460Y314415D01*
X202387Y311342D01*
X198373Y309679D01*
X194027Y309679D01*
G37*
%LPD*%
%LPC*%
G36*
X715427Y309679D02*
X715427Y309679D01*
X711413Y311342D01*
X708340Y314415D01*
X706677Y318429D01*
X706677Y341571D01*
X708340Y345585D01*
X711413Y348658D01*
X715427Y350321D01*
X719773Y350321D01*
X723787Y348658D01*
X726860Y345585D01*
X728523Y341571D01*
X728523Y318429D01*
X726860Y314415D01*
X723787Y311342D01*
X719773Y309679D01*
X715427Y309679D01*
G37*
%LPD*%
%LPC*%
G36*
X117827Y309679D02*
X117827Y309679D01*
X113813Y311342D01*
X110740Y314415D01*
X109077Y318429D01*
X109077Y341571D01*
X110740Y345585D01*
X113813Y348658D01*
X117827Y350321D01*
X122173Y350321D01*
X126187Y348658D01*
X129260Y345585D01*
X130923Y341571D01*
X130923Y318429D01*
X129260Y314415D01*
X126187Y311342D01*
X122173Y309679D01*
X117827Y309679D01*
G37*
%LPD*%
%LPC*%
G36*
X740827Y309679D02*
X740827Y309679D01*
X736813Y311342D01*
X733740Y314415D01*
X732077Y318429D01*
X732077Y341571D01*
X733740Y345585D01*
X736813Y348658D01*
X740827Y350321D01*
X745173Y350321D01*
X749187Y348658D01*
X752260Y345585D01*
X753923Y341571D01*
X753923Y318429D01*
X752260Y314415D01*
X749187Y311342D01*
X745173Y309679D01*
X740827Y309679D01*
G37*
%LPD*%
%LPC*%
G36*
X766227Y309679D02*
X766227Y309679D01*
X762213Y311342D01*
X759140Y314415D01*
X757477Y318429D01*
X757477Y341571D01*
X759140Y345585D01*
X762213Y348658D01*
X766227Y350321D01*
X770573Y350321D01*
X774587Y348658D01*
X777660Y345585D01*
X779323Y341571D01*
X779323Y318429D01*
X777660Y314415D01*
X774587Y311342D01*
X770573Y309679D01*
X766227Y309679D01*
G37*
%LPD*%
%LPC*%
G36*
X791627Y309679D02*
X791627Y309679D01*
X787613Y311342D01*
X784540Y314415D01*
X782877Y318429D01*
X782877Y341571D01*
X784540Y345585D01*
X787613Y348658D01*
X791627Y350321D01*
X795973Y350321D01*
X799987Y348658D01*
X803060Y345585D01*
X804723Y341571D01*
X804723Y318429D01*
X803060Y314415D01*
X799987Y311342D01*
X795973Y309679D01*
X791627Y309679D01*
G37*
%LPD*%
%LPC*%
G36*
X813080Y591939D02*
X813080Y591939D01*
X805863Y599155D01*
X805863Y609361D01*
X813080Y616578D01*
X823286Y616578D01*
X830502Y609361D01*
X830502Y599155D01*
X823286Y591939D01*
X813080Y591939D01*
G37*
%LPD*%
%LPC*%
G36*
X610847Y908430D02*
X610847Y908430D01*
X603630Y915647D01*
X603630Y925853D01*
X610847Y933070D01*
X621053Y933070D01*
X628270Y925853D01*
X628270Y915647D01*
X621053Y908430D01*
X610847Y908430D01*
G37*
%LPD*%
%LPC*%
G36*
X764409Y591939D02*
X764409Y591939D01*
X757193Y599155D01*
X757193Y609361D01*
X764409Y616578D01*
X774615Y616578D01*
X781832Y609361D01*
X781832Y599155D01*
X774615Y591939D01*
X764409Y591939D01*
G37*
%LPD*%
%LPC*%
G36*
X693397Y521080D02*
X693397Y521080D01*
X686180Y528297D01*
X686180Y538503D01*
X693397Y545720D01*
X703603Y545720D01*
X710820Y538503D01*
X710820Y528297D01*
X703603Y521080D01*
X693397Y521080D01*
G37*
%LPD*%
%LPC*%
G36*
X507509Y37875D02*
X507509Y37875D01*
X502905Y39782D01*
X499382Y43305D01*
X497475Y47909D01*
X497475Y52891D01*
X499382Y57495D01*
X502905Y61018D01*
X507509Y62925D01*
X512491Y62925D01*
X517095Y61018D01*
X520618Y57495D01*
X522525Y52891D01*
X522525Y47909D01*
X520618Y43305D01*
X517095Y39782D01*
X512491Y37875D01*
X507509Y37875D01*
G37*
%LPD*%
%LPC*%
G36*
X437509Y37875D02*
X437509Y37875D01*
X432905Y39782D01*
X429382Y43305D01*
X427475Y47909D01*
X427475Y52891D01*
X429382Y57495D01*
X432905Y61018D01*
X437509Y62925D01*
X442491Y62925D01*
X447095Y61018D01*
X450618Y57495D01*
X452525Y52891D01*
X452525Y47909D01*
X450618Y43305D01*
X447095Y39782D01*
X442491Y37875D01*
X437509Y37875D01*
G37*
%LPD*%
%LPC*%
G36*
X439970Y569077D02*
X439970Y569077D01*
X439077Y569970D01*
X439077Y590030D01*
X439970Y590923D01*
X460030Y590923D01*
X460923Y590030D01*
X460923Y569970D01*
X460030Y569077D01*
X439970Y569077D01*
G37*
%LPD*%
%LPC*%
G36*
X464970Y569077D02*
X464970Y569077D01*
X464077Y569970D01*
X464077Y590030D01*
X464970Y590923D01*
X485030Y590923D01*
X485923Y590030D01*
X485923Y569970D01*
X485030Y569077D01*
X464970Y569077D01*
G37*
%LPD*%
%LPC*%
G36*
X489970Y789077D02*
X489970Y789077D01*
X489077Y789970D01*
X489077Y810030D01*
X489970Y810923D01*
X510030Y810923D01*
X510923Y810030D01*
X510923Y789970D01*
X510030Y789077D01*
X489970Y789077D01*
G37*
%LPD*%
%LPC*%
G36*
X464970Y789077D02*
X464970Y789077D01*
X464077Y789970D01*
X464077Y810030D01*
X464970Y810923D01*
X485030Y810923D01*
X485923Y810030D01*
X485923Y789970D01*
X485030Y789077D01*
X464970Y789077D01*
G37*
%LPD*%
%LPC*%
G36*
X246033Y696467D02*
X246033Y696467D01*
X243045Y697705D01*
X240759Y699991D01*
X239521Y702979D01*
X239521Y719421D01*
X240759Y722409D01*
X243045Y724695D01*
X246033Y725933D01*
X249267Y725933D01*
X252255Y724695D01*
X254541Y722409D01*
X255779Y719421D01*
X255779Y702979D01*
X254541Y699991D01*
X252255Y697705D01*
X249267Y696467D01*
X246033Y696467D01*
G37*
%LPD*%
%LPC*%
G36*
X93633Y696467D02*
X93633Y696467D01*
X90645Y697705D01*
X88359Y699991D01*
X87121Y702979D01*
X87121Y719421D01*
X88359Y722409D01*
X90645Y724695D01*
X93633Y725933D01*
X96867Y725933D01*
X99855Y724695D01*
X102141Y722409D01*
X103379Y719421D01*
X103379Y702979D01*
X102141Y699991D01*
X99855Y697705D01*
X96867Y696467D01*
X93633Y696467D01*
G37*
%LPD*%
%LPC*%
G36*
X485527Y52577D02*
X485527Y52577D01*
X481513Y54240D01*
X478440Y57313D01*
X476777Y61327D01*
X476777Y65673D01*
X478440Y69687D01*
X481513Y72760D01*
X485527Y74423D01*
X489873Y74423D01*
X493887Y72760D01*
X496960Y69687D01*
X498623Y65673D01*
X498623Y61327D01*
X496960Y57313D01*
X493887Y54240D01*
X489873Y52577D01*
X485527Y52577D01*
G37*
%LPD*%
%LPC*%
G36*
X460127Y52577D02*
X460127Y52577D01*
X456113Y54240D01*
X453040Y57313D01*
X451377Y61327D01*
X451377Y65673D01*
X453040Y69687D01*
X456113Y72760D01*
X460127Y74423D01*
X464473Y74423D01*
X468487Y72760D01*
X471560Y69687D01*
X473223Y65673D01*
X473223Y61327D01*
X471560Y57313D01*
X468487Y54240D01*
X464473Y52577D01*
X460127Y52577D01*
G37*
%LPD*%
%LPC*%
G36*
X315327Y14477D02*
X315327Y14477D01*
X311313Y16140D01*
X308240Y19213D01*
X306577Y23227D01*
X306577Y27573D01*
X308240Y31587D01*
X311313Y34660D01*
X315327Y36323D01*
X319673Y36323D01*
X323687Y34660D01*
X326760Y31587D01*
X328423Y27573D01*
X328423Y23227D01*
X326760Y19213D01*
X323687Y16140D01*
X319673Y14477D01*
X315327Y14477D01*
G37*
%LPD*%
%LPC*%
G36*
X175627Y14477D02*
X175627Y14477D01*
X171613Y16140D01*
X168540Y19213D01*
X166877Y23227D01*
X166877Y27573D01*
X168540Y31587D01*
X171613Y34660D01*
X175627Y36323D01*
X179973Y36323D01*
X183987Y34660D01*
X187060Y31587D01*
X188723Y27573D01*
X188723Y23227D01*
X187060Y19213D01*
X183987Y16140D01*
X179973Y14477D01*
X175627Y14477D01*
G37*
%LPD*%
%LPC*%
G36*
X476523Y134873D02*
X476523Y134873D01*
X476523Y161291D01*
X488034Y161291D01*
X488681Y161118D01*
X489260Y160783D01*
X489733Y160310D01*
X490068Y159731D01*
X490241Y159084D01*
X490241Y134873D01*
X476523Y134873D01*
G37*
%LPD*%
%LPC*%
G36*
X388873Y942059D02*
X388873Y942059D01*
X388873Y968477D01*
X402591Y968477D01*
X402591Y944266D01*
X402418Y943619D01*
X402083Y943040D01*
X401610Y942567D01*
X401031Y942232D01*
X400384Y942059D01*
X388873Y942059D01*
G37*
%LPD*%
%LPC*%
G36*
X459759Y134873D02*
X459759Y134873D01*
X459759Y159084D01*
X459932Y159731D01*
X460267Y160310D01*
X460740Y160783D01*
X461319Y161118D01*
X461966Y161291D01*
X473477Y161291D01*
X473477Y134873D01*
X459759Y134873D01*
G37*
%LPD*%
%LPC*%
G36*
X374316Y942059D02*
X374316Y942059D01*
X373669Y942232D01*
X373090Y942567D01*
X372617Y943040D01*
X372282Y943619D01*
X372109Y944266D01*
X372109Y968477D01*
X385827Y968477D01*
X385827Y942059D01*
X374316Y942059D01*
G37*
%LPD*%
%LPC*%
G36*
X639261Y910249D02*
X639261Y910249D01*
X635402Y911848D01*
X632448Y914802D01*
X630849Y918661D01*
X630849Y922839D01*
X632448Y926698D01*
X635402Y929652D01*
X639261Y931251D01*
X643439Y931251D01*
X647298Y929652D01*
X650252Y926698D01*
X651851Y922839D01*
X651851Y918661D01*
X650252Y914802D01*
X647298Y911848D01*
X643439Y910249D01*
X639261Y910249D01*
G37*
%LPD*%
%LPC*%
G36*
X696411Y548299D02*
X696411Y548299D01*
X692552Y549898D01*
X689598Y552852D01*
X687999Y556711D01*
X687999Y560889D01*
X689598Y564748D01*
X692552Y567702D01*
X696411Y569301D01*
X700589Y569301D01*
X704448Y567702D01*
X707402Y564748D01*
X709001Y560889D01*
X709001Y556711D01*
X707402Y552852D01*
X704448Y549898D01*
X700589Y548299D01*
X696411Y548299D01*
G37*
%LPD*%
%LPC*%
G36*
X639261Y878499D02*
X639261Y878499D01*
X635402Y880098D01*
X632448Y883052D01*
X630849Y886911D01*
X630849Y891089D01*
X632448Y894948D01*
X635402Y897902D01*
X639261Y899501D01*
X643439Y899501D01*
X647298Y897902D01*
X650252Y894948D01*
X651851Y891089D01*
X651851Y886911D01*
X650252Y883052D01*
X647298Y880098D01*
X643439Y878499D01*
X639261Y878499D01*
G37*
%LPD*%
%LPC*%
G36*
X767424Y492435D02*
X767424Y492435D01*
X763564Y494034D01*
X760610Y496988D01*
X759012Y500847D01*
X759012Y505025D01*
X760610Y508884D01*
X763564Y511838D01*
X767424Y513437D01*
X771601Y513437D01*
X775461Y511838D01*
X778414Y508884D01*
X780013Y505025D01*
X780013Y500847D01*
X778414Y496988D01*
X775461Y494034D01*
X771601Y492435D01*
X767424Y492435D01*
G37*
%LPD*%
%LPC*%
G36*
X816094Y492435D02*
X816094Y492435D01*
X812234Y494034D01*
X809281Y496988D01*
X807682Y500847D01*
X807682Y505025D01*
X809281Y508884D01*
X812234Y511838D01*
X816094Y513437D01*
X820271Y513437D01*
X824131Y511838D01*
X827085Y508884D01*
X828683Y505025D01*
X828683Y500847D01*
X827085Y496988D01*
X824131Y494034D01*
X820271Y492435D01*
X816094Y492435D01*
G37*
%LPD*%
%LPC*%
G36*
X214961Y169749D02*
X214961Y169749D01*
X211193Y171310D01*
X208310Y174193D01*
X206749Y177961D01*
X206749Y182039D01*
X208310Y185807D01*
X211193Y188690D01*
X214961Y190251D01*
X219039Y190251D01*
X222807Y188690D01*
X225690Y185807D01*
X227251Y182039D01*
X227251Y177961D01*
X225690Y174193D01*
X222807Y171310D01*
X219039Y169749D01*
X214961Y169749D01*
G37*
%LPD*%
%LPC*%
G36*
X100961Y109749D02*
X100961Y109749D01*
X97193Y111310D01*
X94310Y114193D01*
X92749Y117961D01*
X92749Y122039D01*
X94310Y125807D01*
X97193Y128690D01*
X100961Y130251D01*
X105039Y130251D01*
X108807Y128690D01*
X111690Y125807D01*
X113251Y122039D01*
X113251Y117961D01*
X111690Y114193D01*
X108807Y111310D01*
X105039Y109749D01*
X100961Y109749D01*
G37*
%LPD*%
%LPC*%
G36*
X731668Y523771D02*
X731668Y523771D01*
X729003Y526436D01*
X729003Y530204D01*
X730280Y531481D01*
X730333Y531555D01*
X730393Y531625D01*
X730405Y531655D01*
X730424Y531681D01*
X730451Y531768D01*
X730485Y531853D01*
X730489Y531894D01*
X730496Y531916D01*
X730495Y531948D01*
X730503Y532019D01*
X730503Y563229D01*
X730489Y563319D01*
X730481Y563410D01*
X730469Y563439D01*
X730464Y563471D01*
X730421Y563552D01*
X730385Y563636D01*
X730359Y563668D01*
X730348Y563689D01*
X730325Y563711D01*
X730280Y563767D01*
X729003Y565044D01*
X729003Y568812D01*
X731668Y571477D01*
X735436Y571477D01*
X738101Y568812D01*
X738101Y565044D01*
X736824Y563767D01*
X736771Y563693D01*
X736711Y563623D01*
X736699Y563593D01*
X736680Y563567D01*
X736653Y563480D01*
X736619Y563395D01*
X736615Y563354D01*
X736608Y563332D01*
X736609Y563300D01*
X736601Y563229D01*
X736601Y532019D01*
X736615Y531929D01*
X736623Y531838D01*
X736635Y531809D01*
X736640Y531777D01*
X736683Y531696D01*
X736719Y531612D01*
X736745Y531580D01*
X736756Y531559D01*
X736779Y531537D01*
X736824Y531481D01*
X738101Y530204D01*
X738101Y526436D01*
X735436Y523771D01*
X731668Y523771D01*
G37*
%LPD*%
%LPC*%
G36*
X448006Y15375D02*
X448006Y15375D01*
X444321Y16901D01*
X441501Y19721D01*
X439975Y23406D01*
X439975Y27394D01*
X441501Y31079D01*
X444321Y33899D01*
X448006Y35425D01*
X451994Y35425D01*
X455679Y33899D01*
X458499Y31079D01*
X460025Y27394D01*
X460025Y23406D01*
X458499Y19721D01*
X455679Y16901D01*
X451994Y15375D01*
X448006Y15375D01*
G37*
%LPD*%
%LPC*%
G36*
X626705Y650620D02*
X626705Y650620D01*
X623110Y652109D01*
X620359Y654860D01*
X618870Y658455D01*
X618870Y662345D01*
X620359Y665940D01*
X623110Y668691D01*
X626705Y670180D01*
X630595Y670180D01*
X634190Y668691D01*
X636941Y665940D01*
X638430Y662345D01*
X638430Y658455D01*
X636941Y654860D01*
X634190Y652109D01*
X630595Y650620D01*
X626705Y650620D01*
G37*
%LPD*%
%LPC*%
G36*
X772755Y676020D02*
X772755Y676020D01*
X769160Y677509D01*
X766409Y680260D01*
X764920Y683855D01*
X764920Y687745D01*
X766409Y691340D01*
X769160Y694091D01*
X772755Y695580D01*
X776645Y695580D01*
X780240Y694091D01*
X782991Y691340D01*
X784480Y687745D01*
X784480Y683855D01*
X782991Y680260D01*
X780240Y677509D01*
X776645Y676020D01*
X772755Y676020D01*
G37*
%LPD*%
%LPC*%
G36*
X791805Y637920D02*
X791805Y637920D01*
X788210Y639409D01*
X785459Y642160D01*
X783970Y645755D01*
X783970Y649645D01*
X785459Y653240D01*
X788210Y655991D01*
X791805Y657480D01*
X795695Y657480D01*
X799290Y655991D01*
X802041Y653240D01*
X803530Y649645D01*
X803530Y645755D01*
X802041Y642160D01*
X799290Y639409D01*
X795695Y637920D01*
X791805Y637920D01*
G37*
%LPD*%
%LPC*%
G36*
X861655Y676020D02*
X861655Y676020D01*
X858060Y677509D01*
X855309Y680260D01*
X853820Y683855D01*
X853820Y687745D01*
X855309Y691340D01*
X858060Y694091D01*
X861655Y695580D01*
X865545Y695580D01*
X869140Y694091D01*
X871891Y691340D01*
X873380Y687745D01*
X873380Y683855D01*
X871891Y680260D01*
X869140Y677509D01*
X865545Y676020D01*
X861655Y676020D01*
G37*
%LPD*%
%LPC*%
G36*
X842605Y637920D02*
X842605Y637920D01*
X839010Y639409D01*
X836259Y642160D01*
X834770Y645755D01*
X834770Y649645D01*
X836259Y653240D01*
X839010Y655991D01*
X842605Y657480D01*
X846495Y657480D01*
X850090Y655991D01*
X852841Y653240D01*
X854330Y649645D01*
X854330Y645755D01*
X852841Y642160D01*
X850090Y639409D01*
X846495Y637920D01*
X842605Y637920D01*
G37*
%LPD*%
%LPC*%
G36*
X115709Y166523D02*
X115709Y166523D01*
X115709Y185467D01*
X116012Y187378D01*
X116610Y189218D01*
X117488Y190942D01*
X118625Y192507D01*
X119993Y193875D01*
X121558Y195012D01*
X123282Y195890D01*
X125122Y196488D01*
X126477Y196703D01*
X126477Y166523D01*
X115709Y166523D01*
G37*
%LPD*%
%LPC*%
G36*
X627328Y969335D02*
X627328Y969335D01*
X626435Y970228D01*
X626435Y985572D01*
X627328Y986465D01*
X642672Y986465D01*
X643565Y985572D01*
X643565Y970228D01*
X642672Y969335D01*
X627328Y969335D01*
G37*
%LPD*%
%LPC*%
G36*
X633678Y855035D02*
X633678Y855035D01*
X632785Y855928D01*
X632785Y871272D01*
X633678Y872165D01*
X649022Y872165D01*
X649915Y871272D01*
X649915Y855928D01*
X649022Y855035D01*
X633678Y855035D01*
G37*
%LPD*%
%LPC*%
G36*
X386318Y781825D02*
X386318Y781825D01*
X385425Y782718D01*
X385425Y797482D01*
X386318Y798375D01*
X401082Y798375D01*
X401975Y797482D01*
X401975Y782718D01*
X401082Y781825D01*
X386318Y781825D01*
G37*
%LPD*%
%LPC*%
G36*
X681118Y880725D02*
X681118Y880725D01*
X680225Y881618D01*
X680225Y896382D01*
X681118Y897275D01*
X695882Y897275D01*
X696775Y896382D01*
X696775Y881618D01*
X695882Y880725D01*
X681118Y880725D01*
G37*
%LPD*%
%LPC*%
G36*
X81518Y629425D02*
X81518Y629425D01*
X80625Y630318D01*
X80625Y645082D01*
X81518Y645975D01*
X96282Y645975D01*
X97175Y645082D01*
X97175Y630318D01*
X96282Y629425D01*
X81518Y629425D01*
G37*
%LPD*%
%LPC*%
G36*
X259318Y458925D02*
X259318Y458925D01*
X258425Y459818D01*
X258425Y474582D01*
X259318Y475475D01*
X274082Y475475D01*
X274975Y474582D01*
X274975Y459818D01*
X274082Y458925D01*
X259318Y458925D01*
G37*
%LPD*%
%LPC*%
G36*
X319168Y925175D02*
X319168Y925175D01*
X318275Y926068D01*
X318275Y940832D01*
X319168Y941725D01*
X333932Y941725D01*
X334825Y940832D01*
X334825Y926068D01*
X333932Y925175D01*
X319168Y925175D01*
G37*
%LPD*%
%LPC*%
G36*
X541418Y956925D02*
X541418Y956925D01*
X540525Y957818D01*
X540525Y972582D01*
X541418Y973475D01*
X556182Y973475D01*
X557075Y972582D01*
X557075Y957818D01*
X556182Y956925D01*
X541418Y956925D01*
G37*
%LPD*%
%LPC*%
G36*
X350918Y855325D02*
X350918Y855325D01*
X350025Y856218D01*
X350025Y870982D01*
X350918Y871875D01*
X365682Y871875D01*
X366575Y870982D01*
X366575Y856218D01*
X365682Y855325D01*
X350918Y855325D01*
G37*
%LPD*%
%LPC*%
G36*
X473210Y500999D02*
X473210Y500999D01*
X469901Y502370D01*
X467370Y504901D01*
X465999Y508210D01*
X465999Y511790D01*
X467370Y515099D01*
X469901Y517630D01*
X473210Y519001D01*
X476790Y519001D01*
X480099Y517630D01*
X482630Y515099D01*
X484001Y511790D01*
X484001Y508210D01*
X482630Y504901D01*
X480099Y502370D01*
X476790Y500999D01*
X473210Y500999D01*
G37*
%LPD*%
%LPC*%
G36*
X473210Y860999D02*
X473210Y860999D01*
X469901Y862370D01*
X467370Y864901D01*
X465999Y868210D01*
X465999Y871790D01*
X467370Y875099D01*
X469901Y877630D01*
X473210Y879001D01*
X476790Y879001D01*
X480099Y877630D01*
X482630Y875099D01*
X484001Y871790D01*
X484001Y868210D01*
X482630Y864901D01*
X480099Y862370D01*
X476790Y860999D01*
X473210Y860999D01*
G37*
%LPD*%
%LPC*%
G36*
X808210Y810999D02*
X808210Y810999D01*
X804901Y812370D01*
X802370Y814901D01*
X800999Y818210D01*
X800999Y821790D01*
X802370Y825099D01*
X804901Y827630D01*
X808210Y829001D01*
X811790Y829001D01*
X815099Y827630D01*
X817630Y825099D01*
X819001Y821790D01*
X819001Y818210D01*
X817630Y814901D01*
X815099Y812370D01*
X811790Y810999D01*
X808210Y810999D01*
G37*
%LPD*%
%LPC*%
G36*
X138210Y810999D02*
X138210Y810999D01*
X134901Y812370D01*
X132370Y814901D01*
X130999Y818210D01*
X130999Y821790D01*
X132370Y825099D01*
X134901Y827630D01*
X138210Y829001D01*
X141790Y829001D01*
X145099Y827630D01*
X147630Y825099D01*
X149001Y821790D01*
X149001Y818210D01*
X147630Y814901D01*
X145099Y812370D01*
X141790Y810999D01*
X138210Y810999D01*
G37*
%LPD*%
G36*
X683851Y584818D02*
X683851Y584818D01*
X683955Y584821D01*
X683974Y584828D01*
X683994Y584829D01*
X684088Y584870D01*
X684186Y584905D01*
X684202Y584918D01*
X684220Y584926D01*
X684351Y585031D01*
X697768Y598448D01*
X697821Y598522D01*
X697881Y598591D01*
X697893Y598621D01*
X697912Y598648D01*
X697939Y598735D01*
X697973Y598819D01*
X697977Y598860D01*
X697984Y598883D01*
X697983Y598915D01*
X697991Y598986D01*
X697991Y612086D01*
X697989Y612098D01*
X697990Y612106D01*
X697981Y612147D01*
X697977Y612176D01*
X697969Y612267D01*
X697957Y612297D01*
X697952Y612329D01*
X697909Y612409D01*
X697873Y612493D01*
X697847Y612525D01*
X697836Y612546D01*
X697813Y612568D01*
X697768Y612624D01*
X697436Y612956D01*
X697362Y613009D01*
X697293Y613069D01*
X697263Y613081D01*
X697236Y613100D01*
X697189Y613115D01*
X696728Y613575D01*
X696670Y613617D01*
X696618Y613666D01*
X696571Y613688D01*
X696529Y613718D01*
X696460Y613739D01*
X696395Y613770D01*
X696343Y613775D01*
X696293Y613791D01*
X696222Y613789D01*
X696151Y613797D01*
X696100Y613786D01*
X696048Y613784D01*
X695980Y613760D01*
X695910Y613745D01*
X695865Y613718D01*
X695817Y613700D01*
X695761Y613655D01*
X695699Y613618D01*
X695665Y613579D01*
X695625Y613546D01*
X695586Y613486D01*
X695539Y613431D01*
X695520Y613383D01*
X695492Y613339D01*
X695474Y613270D01*
X695447Y613203D01*
X695439Y613132D01*
X695431Y613101D01*
X695433Y613078D01*
X695429Y613037D01*
X695429Y611780D01*
X692699Y609050D01*
X692667Y609033D01*
X692583Y608997D01*
X692551Y608971D01*
X692530Y608960D01*
X692508Y608937D01*
X692452Y608892D01*
X681960Y598400D01*
X681907Y598326D01*
X681847Y598257D01*
X681835Y598227D01*
X681816Y598200D01*
X681789Y598113D01*
X681755Y598029D01*
X681751Y597988D01*
X681744Y597965D01*
X681745Y597933D01*
X681737Y597862D01*
X681737Y586883D01*
X681751Y586793D01*
X681759Y586702D01*
X681771Y586673D01*
X681776Y586641D01*
X681819Y586560D01*
X681855Y586476D01*
X681881Y586444D01*
X681892Y586423D01*
X681915Y586401D01*
X681960Y586345D01*
X683274Y585031D01*
X683291Y585019D01*
X683303Y585003D01*
X683390Y584947D01*
X683474Y584887D01*
X683493Y584881D01*
X683510Y584870D01*
X683610Y584845D01*
X683709Y584815D01*
X683729Y584815D01*
X683748Y584810D01*
X683851Y584818D01*
G37*
%LPC*%
G36*
X705252Y666011D02*
X705252Y666011D01*
X702587Y668676D01*
X702587Y672444D01*
X703864Y673721D01*
X703917Y673795D01*
X703977Y673865D01*
X703989Y673895D01*
X704008Y673921D01*
X704035Y674008D01*
X704069Y674093D01*
X704073Y674134D01*
X704080Y674156D01*
X704079Y674188D01*
X704087Y674259D01*
X704087Y693277D01*
X704073Y693367D01*
X704065Y693458D01*
X704053Y693487D01*
X704048Y693519D01*
X704005Y693600D01*
X703969Y693684D01*
X703943Y693716D01*
X703932Y693737D01*
X703909Y693759D01*
X703864Y693815D01*
X702587Y695092D01*
X702587Y698860D01*
X705252Y701525D01*
X709020Y701525D01*
X711685Y698860D01*
X711685Y695092D01*
X710408Y693815D01*
X710355Y693741D01*
X710295Y693671D01*
X710283Y693641D01*
X710264Y693615D01*
X710237Y693528D01*
X710203Y693443D01*
X710199Y693402D01*
X710192Y693380D01*
X710193Y693348D01*
X710185Y693277D01*
X710185Y674259D01*
X710199Y674169D01*
X710207Y674078D01*
X710219Y674049D01*
X710224Y674017D01*
X710267Y673936D01*
X710303Y673852D01*
X710329Y673820D01*
X710340Y673799D01*
X710363Y673777D01*
X710408Y673721D01*
X711685Y672444D01*
X711685Y668676D01*
X709020Y666011D01*
X705252Y666011D01*
G37*
%LPD*%
%LPC*%
G36*
X555433Y404621D02*
X555433Y404621D01*
X550671Y409383D01*
X550671Y416117D01*
X555433Y420879D01*
X562167Y420879D01*
X566929Y416117D01*
X566929Y409383D01*
X562167Y404621D01*
X555433Y404621D01*
G37*
%LPD*%
%LPC*%
G36*
X542733Y385571D02*
X542733Y385571D01*
X537971Y390333D01*
X537971Y397067D01*
X542733Y401829D01*
X549467Y401829D01*
X554229Y397067D01*
X554229Y390333D01*
X549467Y385571D01*
X542733Y385571D01*
G37*
%LPD*%
%LPC*%
G36*
X87254Y649425D02*
X87254Y649425D01*
X84213Y650685D01*
X81885Y653013D01*
X80625Y656054D01*
X80625Y659346D01*
X81885Y662387D01*
X84213Y664715D01*
X87254Y665975D01*
X90546Y665975D01*
X93587Y664715D01*
X95915Y662387D01*
X97175Y659346D01*
X97175Y656054D01*
X95915Y653013D01*
X93587Y650685D01*
X90546Y649425D01*
X87254Y649425D01*
G37*
%LPD*%
%LPC*%
G36*
X208023Y382673D02*
X208023Y382673D01*
X208023Y393441D01*
X217217Y393441D01*
X219128Y393138D01*
X220968Y392540D01*
X222692Y391662D01*
X224257Y390525D01*
X225625Y389157D01*
X226762Y387592D01*
X227640Y385868D01*
X228238Y384028D01*
X228453Y382673D01*
X208023Y382673D01*
G37*
%LPD*%
%LPC*%
G36*
X745223Y220373D02*
X745223Y220373D01*
X745223Y231141D01*
X754417Y231141D01*
X756328Y230838D01*
X758168Y230240D01*
X759892Y229362D01*
X761457Y228225D01*
X762825Y226857D01*
X763962Y225292D01*
X764840Y223568D01*
X765438Y221728D01*
X765653Y220373D01*
X745223Y220373D01*
G37*
%LPD*%
%LPC*%
G36*
X81023Y382673D02*
X81023Y382673D01*
X81023Y393441D01*
X90217Y393441D01*
X92128Y393138D01*
X93968Y392540D01*
X95692Y391662D01*
X97257Y390525D01*
X98625Y389157D01*
X99762Y387592D01*
X100640Y385868D01*
X101238Y384028D01*
X101453Y382673D01*
X81023Y382673D01*
G37*
%LPD*%
%LPC*%
G36*
X872223Y220373D02*
X872223Y220373D01*
X872223Y231141D01*
X881417Y231141D01*
X883328Y230838D01*
X885168Y230240D01*
X886892Y229362D01*
X888457Y228225D01*
X889825Y226857D01*
X890962Y225292D01*
X891840Y223568D01*
X892438Y221728D01*
X892653Y220373D01*
X872223Y220373D01*
G37*
%LPD*%
%LPC*%
G36*
X81023Y220373D02*
X81023Y220373D01*
X81023Y231141D01*
X90217Y231141D01*
X92128Y230838D01*
X93968Y230240D01*
X95692Y229362D01*
X97257Y228225D01*
X98625Y226857D01*
X99762Y225292D01*
X100640Y223568D01*
X101238Y221728D01*
X101453Y220373D01*
X81023Y220373D01*
G37*
%LPD*%
%LPC*%
G36*
X872223Y382673D02*
X872223Y382673D01*
X872223Y393441D01*
X881417Y393441D01*
X883328Y393138D01*
X885168Y392540D01*
X886892Y391662D01*
X888457Y390525D01*
X889825Y389157D01*
X890962Y387592D01*
X891840Y385868D01*
X892438Y384028D01*
X892653Y382673D01*
X872223Y382673D01*
G37*
%LPD*%
%LPC*%
G36*
X721747Y220373D02*
X721747Y220373D01*
X721962Y221728D01*
X722560Y223568D01*
X723438Y225292D01*
X724575Y226857D01*
X725943Y228225D01*
X727508Y229362D01*
X729232Y230240D01*
X731072Y230838D01*
X732983Y231141D01*
X742177Y231141D01*
X742177Y220373D01*
X721747Y220373D01*
G37*
%LPD*%
%LPC*%
G36*
X848747Y220373D02*
X848747Y220373D01*
X848962Y221728D01*
X849560Y223568D01*
X850438Y225292D01*
X851575Y226857D01*
X852943Y228225D01*
X854508Y229362D01*
X856232Y230240D01*
X858072Y230838D01*
X859983Y231141D01*
X869177Y231141D01*
X869177Y220373D01*
X848747Y220373D01*
G37*
%LPD*%
%LPC*%
G36*
X184547Y382673D02*
X184547Y382673D01*
X184762Y384028D01*
X185360Y385868D01*
X186238Y387592D01*
X187375Y389157D01*
X188743Y390525D01*
X190308Y391662D01*
X192032Y392540D01*
X193872Y393138D01*
X195783Y393441D01*
X204977Y393441D01*
X204977Y382673D01*
X184547Y382673D01*
G37*
%LPD*%
%LPC*%
G36*
X57547Y382673D02*
X57547Y382673D01*
X57762Y384028D01*
X58360Y385868D01*
X59238Y387592D01*
X60375Y389157D01*
X61743Y390525D01*
X63308Y391662D01*
X65032Y392540D01*
X66872Y393138D01*
X68783Y393441D01*
X77977Y393441D01*
X77977Y382673D01*
X57547Y382673D01*
G37*
%LPD*%
%LPC*%
G36*
X57547Y220373D02*
X57547Y220373D01*
X57762Y221728D01*
X58360Y223568D01*
X59238Y225292D01*
X60375Y226857D01*
X61743Y228225D01*
X63308Y229362D01*
X65032Y230240D01*
X66872Y230838D01*
X68783Y231141D01*
X77977Y231141D01*
X77977Y220373D01*
X57547Y220373D01*
G37*
%LPD*%
%LPC*%
G36*
X81023Y368859D02*
X81023Y368859D01*
X81023Y379627D01*
X101453Y379627D01*
X101238Y378272D01*
X100640Y376432D01*
X99762Y374708D01*
X98625Y373143D01*
X97257Y371775D01*
X95692Y370638D01*
X93968Y369760D01*
X92128Y369162D01*
X90217Y368859D01*
X81023Y368859D01*
G37*
%LPD*%
%LPC*%
G36*
X81023Y206559D02*
X81023Y206559D01*
X81023Y217327D01*
X101453Y217327D01*
X101238Y215972D01*
X100640Y214132D01*
X99762Y212408D01*
X98625Y210843D01*
X97257Y209475D01*
X95692Y208338D01*
X93968Y207460D01*
X92128Y206862D01*
X90217Y206559D01*
X81023Y206559D01*
G37*
%LPD*%
%LPC*%
G36*
X745223Y206559D02*
X745223Y206559D01*
X745223Y217327D01*
X765653Y217327D01*
X765438Y215972D01*
X764840Y214132D01*
X763962Y212408D01*
X762825Y210843D01*
X761457Y209475D01*
X759892Y208338D01*
X758168Y207460D01*
X756328Y206862D01*
X754417Y206559D01*
X745223Y206559D01*
G37*
%LPD*%
%LPC*%
G36*
X208023Y368859D02*
X208023Y368859D01*
X208023Y379627D01*
X228453Y379627D01*
X228238Y378272D01*
X227640Y376432D01*
X226762Y374708D01*
X225625Y373143D01*
X224257Y371775D01*
X222692Y370638D01*
X220968Y369760D01*
X219128Y369162D01*
X217217Y368859D01*
X208023Y368859D01*
G37*
%LPD*%
%LPC*%
G36*
X872223Y368859D02*
X872223Y368859D01*
X872223Y379627D01*
X892653Y379627D01*
X892438Y378272D01*
X891840Y376432D01*
X890962Y374708D01*
X889825Y373143D01*
X888457Y371775D01*
X886892Y370638D01*
X885168Y369760D01*
X883328Y369162D01*
X881417Y368859D01*
X872223Y368859D01*
G37*
%LPD*%
%LPC*%
G36*
X872223Y206559D02*
X872223Y206559D01*
X872223Y217327D01*
X892653Y217327D01*
X892438Y215972D01*
X891840Y214132D01*
X890962Y212408D01*
X889825Y210843D01*
X888457Y209475D01*
X886892Y208338D01*
X885168Y207460D01*
X883328Y206862D01*
X881417Y206559D01*
X872223Y206559D01*
G37*
%LPD*%
%LPC*%
G36*
X195783Y368859D02*
X195783Y368859D01*
X193872Y369162D01*
X192032Y369760D01*
X190308Y370638D01*
X188743Y371775D01*
X187375Y373143D01*
X186238Y374708D01*
X185360Y376432D01*
X184762Y378272D01*
X184547Y379627D01*
X204977Y379627D01*
X204977Y368859D01*
X195783Y368859D01*
G37*
%LPD*%
%LPC*%
G36*
X68783Y206559D02*
X68783Y206559D01*
X66872Y206862D01*
X65032Y207460D01*
X63308Y208338D01*
X61743Y209475D01*
X60375Y210843D01*
X59238Y212408D01*
X58360Y214132D01*
X57762Y215972D01*
X57547Y217327D01*
X77977Y217327D01*
X77977Y206559D01*
X68783Y206559D01*
G37*
%LPD*%
%LPC*%
G36*
X859983Y206559D02*
X859983Y206559D01*
X858072Y206862D01*
X856232Y207460D01*
X854508Y208338D01*
X852943Y209475D01*
X851575Y210843D01*
X850438Y212408D01*
X849560Y214132D01*
X848962Y215972D01*
X848747Y217327D01*
X869177Y217327D01*
X869177Y206559D01*
X859983Y206559D01*
G37*
%LPD*%
%LPC*%
G36*
X732983Y206559D02*
X732983Y206559D01*
X731072Y206862D01*
X729232Y207460D01*
X727508Y208338D01*
X725943Y209475D01*
X724575Y210843D01*
X723438Y212408D01*
X722560Y214132D01*
X721962Y215972D01*
X721747Y217327D01*
X742177Y217327D01*
X742177Y206559D01*
X732983Y206559D01*
G37*
%LPD*%
%LPC*%
G36*
X68783Y368859D02*
X68783Y368859D01*
X66872Y369162D01*
X65032Y369760D01*
X63308Y370638D01*
X61743Y371775D01*
X60375Y373143D01*
X59238Y374708D01*
X58360Y376432D01*
X57762Y378272D01*
X57547Y379627D01*
X77977Y379627D01*
X77977Y368859D01*
X68783Y368859D01*
G37*
%LPD*%
%LPC*%
G36*
X674623Y788923D02*
X674623Y788923D01*
X674623Y808644D01*
X675896Y808443D01*
X677683Y807862D01*
X679357Y807009D01*
X680878Y805904D01*
X682206Y804576D01*
X683311Y803055D01*
X684164Y801381D01*
X684745Y799594D01*
X685039Y797738D01*
X685039Y788923D01*
X674623Y788923D01*
G37*
%LPD*%
%LPC*%
G36*
X621523Y331523D02*
X621523Y331523D01*
X621523Y351244D01*
X622796Y351043D01*
X624583Y350462D01*
X626257Y349609D01*
X627778Y348504D01*
X629106Y347176D01*
X630211Y345655D01*
X631064Y343981D01*
X631645Y342194D01*
X631939Y340338D01*
X631939Y331523D01*
X621523Y331523D01*
G37*
%LPD*%
%LPC*%
G36*
X674623Y785877D02*
X674623Y785877D01*
X685039Y785877D01*
X685039Y777062D01*
X684745Y775206D01*
X684164Y773419D01*
X683311Y771745D01*
X682206Y770224D01*
X680878Y768896D01*
X679357Y767791D01*
X677683Y766938D01*
X675896Y766357D01*
X674623Y766156D01*
X674623Y785877D01*
G37*
%LPD*%
%LPC*%
G36*
X621523Y328477D02*
X621523Y328477D01*
X631939Y328477D01*
X631939Y319662D01*
X631645Y317806D01*
X631064Y316019D01*
X630211Y314345D01*
X629106Y312824D01*
X627778Y311496D01*
X626257Y310391D01*
X624583Y309538D01*
X622796Y308957D01*
X621523Y308756D01*
X621523Y328477D01*
G37*
%LPD*%
%LPC*%
G36*
X608061Y331523D02*
X608061Y331523D01*
X608061Y340338D01*
X608355Y342194D01*
X608936Y343981D01*
X609789Y345655D01*
X610894Y347176D01*
X612222Y348504D01*
X613743Y349609D01*
X615417Y350462D01*
X617204Y351043D01*
X618477Y351244D01*
X618477Y331523D01*
X608061Y331523D01*
G37*
%LPD*%
%LPC*%
G36*
X661161Y788923D02*
X661161Y788923D01*
X661161Y797738D01*
X661455Y799594D01*
X662036Y801381D01*
X662889Y803055D01*
X663994Y804576D01*
X665322Y805904D01*
X666843Y807009D01*
X668517Y807862D01*
X670304Y808443D01*
X671577Y808644D01*
X671577Y788923D01*
X661161Y788923D01*
G37*
%LPD*%
%LPC*%
G36*
X617204Y308957D02*
X617204Y308957D01*
X615417Y309538D01*
X613743Y310391D01*
X612222Y311496D01*
X610894Y312824D01*
X609789Y314345D01*
X608936Y316019D01*
X608355Y317806D01*
X608061Y319662D01*
X608061Y328477D01*
X618477Y328477D01*
X618477Y308756D01*
X617204Y308957D01*
G37*
%LPD*%
%LPC*%
G36*
X670304Y766357D02*
X670304Y766357D01*
X668517Y766938D01*
X666843Y767791D01*
X665322Y768896D01*
X663994Y770224D01*
X662889Y771745D01*
X662036Y773419D01*
X661455Y775206D01*
X661161Y777062D01*
X661161Y785877D01*
X671577Y785877D01*
X671577Y766156D01*
X670304Y766357D01*
G37*
%LPD*%
%LPC*%
G36*
X328360Y513460D02*
X328360Y513460D01*
X325699Y514562D01*
X323662Y516599D01*
X322560Y519260D01*
X322560Y522140D01*
X323662Y524801D01*
X325699Y526838D01*
X328360Y527940D01*
X331240Y527940D01*
X333901Y526838D01*
X335938Y524801D01*
X337040Y522140D01*
X337040Y519260D01*
X335938Y516599D01*
X333901Y514562D01*
X331240Y513460D01*
X328360Y513460D01*
G37*
%LPD*%
%LPC*%
G36*
X278360Y513460D02*
X278360Y513460D01*
X275699Y514562D01*
X273662Y516599D01*
X272560Y519260D01*
X272560Y522140D01*
X273662Y524801D01*
X275699Y526838D01*
X278360Y527940D01*
X281240Y527940D01*
X283901Y526838D01*
X285938Y524801D01*
X287040Y522140D01*
X287040Y519260D01*
X285938Y516599D01*
X283901Y514562D01*
X281240Y513460D01*
X278360Y513460D01*
G37*
%LPD*%
%LPC*%
G36*
X328360Y551560D02*
X328360Y551560D01*
X325699Y552662D01*
X323662Y554699D01*
X322560Y557360D01*
X322560Y560240D01*
X323662Y562901D01*
X325699Y564938D01*
X328360Y566040D01*
X331240Y566040D01*
X333901Y564938D01*
X335938Y562901D01*
X337040Y560240D01*
X337040Y557360D01*
X335938Y554699D01*
X333901Y552662D01*
X331240Y551560D01*
X328360Y551560D01*
G37*
%LPD*%
%LPC*%
G36*
X278360Y551560D02*
X278360Y551560D01*
X275699Y552662D01*
X273662Y554699D01*
X272560Y557360D01*
X272560Y560240D01*
X273662Y562901D01*
X275699Y564938D01*
X278360Y566040D01*
X281240Y566040D01*
X283901Y564938D01*
X285938Y562901D01*
X287040Y560240D01*
X287040Y557360D01*
X285938Y554699D01*
X283901Y552662D01*
X281240Y551560D01*
X278360Y551560D01*
G37*
%LPD*%
%LPC*%
G36*
X622031Y57969D02*
X622031Y57969D01*
X631939Y57969D01*
X631939Y49662D01*
X631645Y47806D01*
X631064Y46019D01*
X630211Y44345D01*
X629106Y42824D01*
X627778Y41496D01*
X626257Y40391D01*
X624583Y39538D01*
X622796Y38957D01*
X622031Y38836D01*
X622031Y57969D01*
G37*
%LPD*%
%LPC*%
G36*
X617204Y38957D02*
X617204Y38957D01*
X615417Y39538D01*
X613743Y40391D01*
X612222Y41496D01*
X610894Y42824D01*
X609789Y44345D01*
X608936Y46019D01*
X608355Y47806D01*
X608061Y49662D01*
X608061Y57969D01*
X617969Y57969D01*
X617969Y38836D01*
X617204Y38957D01*
G37*
%LPD*%
%LPC*%
G36*
X617473Y890523D02*
X617473Y890523D01*
X617473Y902336D01*
X621474Y902336D01*
X629286Y894524D01*
X629286Y890523D01*
X617473Y890523D01*
G37*
%LPD*%
%LPC*%
G36*
X661923Y534923D02*
X661923Y534923D01*
X661923Y546736D01*
X665924Y546736D01*
X673736Y538924D01*
X673736Y534923D01*
X661923Y534923D01*
G37*
%LPD*%
%LPC*%
G36*
X602614Y890523D02*
X602614Y890523D01*
X602614Y894524D01*
X610426Y902336D01*
X614427Y902336D01*
X614427Y890523D01*
X602614Y890523D01*
G37*
%LPD*%
%LPC*%
G36*
X647064Y534923D02*
X647064Y534923D01*
X647064Y538924D01*
X654876Y546736D01*
X658877Y546736D01*
X658877Y534923D01*
X647064Y534923D01*
G37*
%LPD*%
%LPC*%
G36*
X617473Y875664D02*
X617473Y875664D01*
X617473Y887477D01*
X629286Y887477D01*
X629286Y883476D01*
X621474Y875664D01*
X617473Y875664D01*
G37*
%LPD*%
%LPC*%
G36*
X661923Y520064D02*
X661923Y520064D01*
X661923Y531877D01*
X673736Y531877D01*
X673736Y527876D01*
X665924Y520064D01*
X661923Y520064D01*
G37*
%LPD*%
%LPC*%
G36*
X610426Y875664D02*
X610426Y875664D01*
X602614Y883476D01*
X602614Y887477D01*
X614427Y887477D01*
X614427Y875664D01*
X610426Y875664D01*
G37*
%LPD*%
%LPC*%
G36*
X654876Y520064D02*
X654876Y520064D01*
X647064Y527876D01*
X647064Y531877D01*
X658877Y531877D01*
X658877Y520064D01*
X654876Y520064D01*
G37*
%LPD*%
%LPC*%
G36*
X451523Y801523D02*
X451523Y801523D01*
X451523Y811939D01*
X459732Y811939D01*
X460379Y811766D01*
X460958Y811431D01*
X461431Y810958D01*
X461766Y810379D01*
X461939Y809732D01*
X461939Y801523D01*
X451523Y801523D01*
G37*
%LPD*%
%LPC*%
G36*
X501523Y581523D02*
X501523Y581523D01*
X501523Y591939D01*
X509732Y591939D01*
X510379Y591766D01*
X510958Y591431D01*
X511431Y590958D01*
X511766Y590379D01*
X511939Y589732D01*
X511939Y581523D01*
X501523Y581523D01*
G37*
%LPD*%
%LPC*%
G36*
X211523Y846523D02*
X211523Y846523D01*
X211523Y856939D01*
X219732Y856939D01*
X220379Y856766D01*
X220958Y856431D01*
X221431Y855958D01*
X221766Y855379D01*
X221939Y854732D01*
X221939Y846523D01*
X211523Y846523D01*
G37*
%LPD*%
%LPC*%
G36*
X741523Y846523D02*
X741523Y846523D01*
X741523Y856939D01*
X749732Y856939D01*
X750379Y856766D01*
X750958Y856431D01*
X751431Y855958D01*
X751766Y855379D01*
X751939Y854732D01*
X751939Y846523D01*
X741523Y846523D01*
G37*
%LPD*%
%LPC*%
G36*
X198061Y846523D02*
X198061Y846523D01*
X198061Y854732D01*
X198234Y855379D01*
X198569Y855958D01*
X199042Y856431D01*
X199621Y856766D01*
X200268Y856939D01*
X208477Y856939D01*
X208477Y846523D01*
X198061Y846523D01*
G37*
%LPD*%
%LPC*%
G36*
X211523Y833061D02*
X211523Y833061D01*
X211523Y843477D01*
X221939Y843477D01*
X221939Y835268D01*
X221766Y834621D01*
X221431Y834042D01*
X220958Y833569D01*
X220379Y833234D01*
X219732Y833061D01*
X211523Y833061D01*
G37*
%LPD*%
%LPC*%
G36*
X438061Y801523D02*
X438061Y801523D01*
X438061Y809732D01*
X438234Y810379D01*
X438569Y810958D01*
X439042Y811431D01*
X439621Y811766D01*
X440268Y811939D01*
X448477Y811939D01*
X448477Y801523D01*
X438061Y801523D01*
G37*
%LPD*%
%LPC*%
G36*
X741523Y833061D02*
X741523Y833061D01*
X741523Y843477D01*
X751939Y843477D01*
X751939Y835268D01*
X751766Y834621D01*
X751431Y834042D01*
X750958Y833569D01*
X750379Y833234D01*
X749732Y833061D01*
X741523Y833061D01*
G37*
%LPD*%
%LPC*%
G36*
X488061Y581523D02*
X488061Y581523D01*
X488061Y589732D01*
X488234Y590379D01*
X488569Y590958D01*
X489042Y591431D01*
X489621Y591766D01*
X490268Y591939D01*
X498477Y591939D01*
X498477Y581523D01*
X488061Y581523D01*
G37*
%LPD*%
%LPC*%
G36*
X728061Y846523D02*
X728061Y846523D01*
X728061Y854732D01*
X728234Y855379D01*
X728569Y855958D01*
X729042Y856431D01*
X729621Y856766D01*
X730268Y856939D01*
X738477Y856939D01*
X738477Y846523D01*
X728061Y846523D01*
G37*
%LPD*%
%LPC*%
G36*
X501523Y568061D02*
X501523Y568061D01*
X501523Y578477D01*
X511939Y578477D01*
X511939Y570268D01*
X511766Y569621D01*
X511431Y569042D01*
X510958Y568569D01*
X510379Y568234D01*
X509732Y568061D01*
X501523Y568061D01*
G37*
%LPD*%
%LPC*%
G36*
X451523Y788061D02*
X451523Y788061D01*
X451523Y798477D01*
X461939Y798477D01*
X461939Y790268D01*
X461766Y789621D01*
X461431Y789042D01*
X460958Y788569D01*
X460379Y788234D01*
X459732Y788061D01*
X451523Y788061D01*
G37*
%LPD*%
%LPC*%
G36*
X440268Y788061D02*
X440268Y788061D01*
X439621Y788234D01*
X439042Y788569D01*
X438569Y789042D01*
X438234Y789621D01*
X438061Y790268D01*
X438061Y798477D01*
X448477Y798477D01*
X448477Y788061D01*
X440268Y788061D01*
G37*
%LPD*%
%LPC*%
G36*
X490268Y568061D02*
X490268Y568061D01*
X489621Y568234D01*
X489042Y568569D01*
X488569Y569042D01*
X488234Y569621D01*
X488061Y570268D01*
X488061Y578477D01*
X498477Y578477D01*
X498477Y568061D01*
X490268Y568061D01*
G37*
%LPD*%
%LPC*%
G36*
X200268Y833061D02*
X200268Y833061D01*
X199621Y833234D01*
X199042Y833569D01*
X198569Y834042D01*
X198234Y834621D01*
X198061Y835268D01*
X198061Y843477D01*
X208477Y843477D01*
X208477Y833061D01*
X200268Y833061D01*
G37*
%LPD*%
%LPC*%
G36*
X730268Y833061D02*
X730268Y833061D01*
X729621Y833234D01*
X729042Y833569D01*
X728569Y834042D01*
X728234Y834621D01*
X728061Y835268D01*
X728061Y843477D01*
X738477Y843477D01*
X738477Y833061D01*
X730268Y833061D01*
G37*
%LPD*%
%LPC*%
G36*
X129523Y163477D02*
X129523Y163477D01*
X140203Y163477D01*
X139988Y162122D01*
X139390Y160282D01*
X138512Y158558D01*
X137375Y156993D01*
X136007Y155625D01*
X134442Y154488D01*
X132718Y153610D01*
X130878Y153012D01*
X129523Y152797D01*
X129523Y163477D01*
G37*
%LPD*%
%LPC*%
G36*
X125122Y153012D02*
X125122Y153012D01*
X123282Y153610D01*
X121558Y154488D01*
X119993Y155625D01*
X118625Y156993D01*
X117488Y158558D01*
X116610Y160282D01*
X116012Y162122D01*
X115797Y163477D01*
X126477Y163477D01*
X126477Y152797D01*
X125122Y153012D01*
G37*
%LPD*%
%LPC*%
G36*
X205231Y27431D02*
X205231Y27431D01*
X205231Y37166D01*
X205996Y37045D01*
X207783Y36464D01*
X209457Y35611D01*
X210978Y34506D01*
X212306Y33178D01*
X213411Y31657D01*
X214264Y29983D01*
X214845Y28196D01*
X214966Y27431D01*
X205231Y27431D01*
G37*
%LPD*%
%LPC*%
G36*
X634731Y27431D02*
X634731Y27431D01*
X634731Y37166D01*
X635496Y37045D01*
X637283Y36464D01*
X638957Y35611D01*
X640478Y34506D01*
X641806Y33178D01*
X642911Y31657D01*
X643764Y29983D01*
X644345Y28196D01*
X644466Y27431D01*
X634731Y27431D01*
G37*
%LPD*%
%LPC*%
G36*
X344931Y27431D02*
X344931Y27431D01*
X344931Y37166D01*
X345696Y37045D01*
X347483Y36464D01*
X349157Y35611D01*
X350678Y34506D01*
X352006Y33178D01*
X353111Y31657D01*
X353964Y29983D01*
X354545Y28196D01*
X354666Y27431D01*
X344931Y27431D01*
G37*
%LPD*%
%LPC*%
G36*
X765934Y27431D02*
X765934Y27431D01*
X766055Y28196D01*
X766636Y29983D01*
X767489Y31657D01*
X768594Y33178D01*
X769922Y34506D01*
X771443Y35611D01*
X773117Y36464D01*
X774904Y37045D01*
X775669Y37166D01*
X775669Y27431D01*
X765934Y27431D01*
G37*
%LPD*%
%LPC*%
G36*
X191434Y27431D02*
X191434Y27431D01*
X191555Y28196D01*
X192136Y29983D01*
X192989Y31657D01*
X194094Y33178D01*
X195422Y34506D01*
X196943Y35611D01*
X198617Y36464D01*
X200404Y37045D01*
X201169Y37166D01*
X201169Y27431D01*
X191434Y27431D01*
G37*
%LPD*%
%LPC*%
G36*
X331134Y27431D02*
X331134Y27431D01*
X331255Y28196D01*
X331836Y29983D01*
X332689Y31657D01*
X333794Y33178D01*
X335122Y34506D01*
X336643Y35611D01*
X338317Y36464D01*
X340104Y37045D01*
X340869Y37166D01*
X340869Y27431D01*
X331134Y27431D01*
G37*
%LPD*%
%LPC*%
G36*
X620934Y27431D02*
X620934Y27431D01*
X621055Y28196D01*
X621636Y29983D01*
X622489Y31657D01*
X623594Y33178D01*
X624922Y34506D01*
X626443Y35611D01*
X628117Y36464D01*
X629904Y37045D01*
X630669Y37166D01*
X630669Y27431D01*
X620934Y27431D01*
G37*
%LPD*%
%LPC*%
G36*
X205231Y23369D02*
X205231Y23369D01*
X214966Y23369D01*
X214845Y22604D01*
X214264Y20817D01*
X213411Y19143D01*
X212306Y17622D01*
X210978Y16294D01*
X209457Y15189D01*
X207783Y14336D01*
X205996Y13755D01*
X205231Y13634D01*
X205231Y23369D01*
G37*
%LPD*%
%LPC*%
G36*
X344931Y23369D02*
X344931Y23369D01*
X354666Y23369D01*
X354545Y22604D01*
X353964Y20817D01*
X353111Y19143D01*
X352006Y17622D01*
X350678Y16294D01*
X349157Y15189D01*
X347483Y14336D01*
X345696Y13755D01*
X344931Y13634D01*
X344931Y23369D01*
G37*
%LPD*%
%LPC*%
G36*
X340104Y13755D02*
X340104Y13755D01*
X338317Y14336D01*
X336643Y15189D01*
X335122Y16294D01*
X333794Y17622D01*
X332689Y19143D01*
X331836Y20817D01*
X331255Y22604D01*
X331134Y23369D01*
X340869Y23369D01*
X340869Y13634D01*
X340104Y13755D01*
G37*
%LPD*%
%LPC*%
G36*
X200404Y13755D02*
X200404Y13755D01*
X198617Y14336D01*
X196943Y15189D01*
X195422Y16294D01*
X194094Y17622D01*
X192989Y19143D01*
X192136Y20817D01*
X191555Y22604D01*
X191434Y23369D01*
X201169Y23369D01*
X201169Y13634D01*
X200404Y13755D01*
G37*
%LPD*%
%LPC*%
G36*
X776223Y712723D02*
X776223Y712723D01*
X776223Y721889D01*
X777228Y721730D01*
X778844Y721205D01*
X780358Y720433D01*
X781733Y719434D01*
X782934Y718233D01*
X783933Y716858D01*
X784705Y715344D01*
X785230Y713728D01*
X785389Y712723D01*
X776223Y712723D01*
G37*
%LPD*%
%LPC*%
G36*
X630173Y636523D02*
X630173Y636523D01*
X630173Y645689D01*
X631178Y645530D01*
X632794Y645005D01*
X634308Y644233D01*
X635683Y643234D01*
X636884Y642033D01*
X637883Y640658D01*
X638655Y639144D01*
X639180Y637528D01*
X639339Y636523D01*
X630173Y636523D01*
G37*
%LPD*%
%LPC*%
G36*
X865123Y712723D02*
X865123Y712723D01*
X865123Y721889D01*
X866128Y721730D01*
X867744Y721205D01*
X869258Y720433D01*
X870633Y719434D01*
X871834Y718233D01*
X872833Y716858D01*
X873605Y715344D01*
X874130Y713728D01*
X874289Y712723D01*
X865123Y712723D01*
G37*
%LPD*%
%LPC*%
G36*
X764011Y712723D02*
X764011Y712723D01*
X764170Y713728D01*
X764695Y715344D01*
X765467Y716858D01*
X766466Y718233D01*
X767667Y719434D01*
X769042Y720433D01*
X770556Y721205D01*
X772172Y721730D01*
X773177Y721889D01*
X773177Y712723D01*
X764011Y712723D01*
G37*
%LPD*%
%LPC*%
G36*
X617961Y636523D02*
X617961Y636523D01*
X618120Y637528D01*
X618645Y639144D01*
X619417Y640658D01*
X620416Y642033D01*
X621617Y643234D01*
X622992Y644233D01*
X624506Y645005D01*
X626122Y645530D01*
X627127Y645689D01*
X627127Y636523D01*
X617961Y636523D01*
G37*
%LPD*%
%LPC*%
G36*
X776223Y709677D02*
X776223Y709677D01*
X785389Y709677D01*
X785230Y708672D01*
X784705Y707056D01*
X783933Y705542D01*
X782934Y704167D01*
X781733Y702966D01*
X780358Y701967D01*
X778844Y701195D01*
X777228Y700670D01*
X776223Y700511D01*
X776223Y709677D01*
G37*
%LPD*%
%LPC*%
G36*
X630173Y633477D02*
X630173Y633477D01*
X639339Y633477D01*
X639180Y632472D01*
X638655Y630856D01*
X637883Y629342D01*
X636884Y627967D01*
X635683Y626766D01*
X634308Y625767D01*
X632794Y624995D01*
X631178Y624470D01*
X630173Y624311D01*
X630173Y633477D01*
G37*
%LPD*%
%LPC*%
G36*
X852911Y712723D02*
X852911Y712723D01*
X853070Y713728D01*
X853595Y715344D01*
X854367Y716858D01*
X855366Y718233D01*
X856567Y719434D01*
X857942Y720433D01*
X859456Y721205D01*
X861072Y721730D01*
X862077Y721889D01*
X862077Y712723D01*
X852911Y712723D01*
G37*
%LPD*%
%LPC*%
G36*
X865123Y709677D02*
X865123Y709677D01*
X874289Y709677D01*
X874130Y708672D01*
X873605Y707056D01*
X872833Y705542D01*
X871834Y704167D01*
X870633Y702966D01*
X869258Y701967D01*
X867744Y701195D01*
X866128Y700670D01*
X865123Y700511D01*
X865123Y709677D01*
G37*
%LPD*%
%LPC*%
G36*
X772172Y700670D02*
X772172Y700670D01*
X770556Y701195D01*
X769042Y701967D01*
X767667Y702966D01*
X766466Y704167D01*
X765467Y705542D01*
X764695Y707056D01*
X764170Y708672D01*
X764011Y709677D01*
X773177Y709677D01*
X773177Y700511D01*
X772172Y700670D01*
G37*
%LPD*%
%LPC*%
G36*
X626122Y624470D02*
X626122Y624470D01*
X624506Y624995D01*
X622992Y625767D01*
X621617Y626766D01*
X620416Y627967D01*
X619417Y629342D01*
X618645Y630856D01*
X618120Y632472D01*
X617961Y633477D01*
X627127Y633477D01*
X627127Y624311D01*
X626122Y624470D01*
G37*
%LPD*%
%LPC*%
G36*
X861072Y700670D02*
X861072Y700670D01*
X859456Y701195D01*
X857942Y701967D01*
X856567Y702966D01*
X855366Y704167D01*
X854367Y705542D01*
X853595Y707056D01*
X853070Y708672D01*
X852911Y709677D01*
X862077Y709677D01*
X862077Y700511D01*
X861072Y700670D01*
G37*
%LPD*%
%LPC*%
G36*
X501999Y23401D02*
X501999Y23401D01*
X510862Y23401D01*
X510769Y22815D01*
X510232Y21162D01*
X509443Y19613D01*
X508421Y18207D01*
X507193Y16979D01*
X505787Y15957D01*
X504167Y15132D01*
X504134Y15109D01*
X504077Y15083D01*
X504064Y15073D01*
X504053Y15067D01*
X503950Y15064D01*
X503871Y15038D01*
X503811Y15029D01*
X502585Y14631D01*
X501999Y14538D01*
X501999Y23401D01*
G37*
%LPD*%
%LPC*%
G36*
X501999Y27399D02*
X501999Y27399D01*
X501999Y36262D01*
X502585Y36169D01*
X504238Y35632D01*
X505787Y34843D01*
X507193Y33821D01*
X508421Y32593D01*
X509443Y31187D01*
X510232Y29638D01*
X510769Y27985D01*
X510862Y27399D01*
X501999Y27399D01*
G37*
%LPD*%
%LPC*%
G36*
X489138Y27399D02*
X489138Y27399D01*
X489231Y27985D01*
X489768Y29638D01*
X490557Y31187D01*
X491579Y32593D01*
X492807Y33821D01*
X494213Y34843D01*
X495762Y35632D01*
X497415Y36169D01*
X498001Y36262D01*
X498001Y27399D01*
X489138Y27399D01*
G37*
%LPD*%
%LPC*%
G36*
X497415Y14631D02*
X497415Y14631D01*
X495762Y15168D01*
X494213Y15957D01*
X492807Y16979D01*
X491579Y18207D01*
X490557Y19613D01*
X489768Y21162D01*
X489231Y22815D01*
X489138Y23401D01*
X498001Y23401D01*
X498001Y14538D01*
X497415Y14631D01*
G37*
%LPD*%
%LPC*%
G36*
X636523Y954023D02*
X636523Y954023D01*
X636523Y961959D01*
X637243Y961845D01*
X638678Y961379D01*
X640021Y960694D01*
X641242Y959808D01*
X642308Y958742D01*
X643194Y957521D01*
X643879Y956178D01*
X644345Y954743D01*
X644459Y954023D01*
X636523Y954023D01*
G37*
%LPD*%
%LPC*%
G36*
X280923Y915923D02*
X280923Y915923D01*
X280923Y923859D01*
X281643Y923745D01*
X283078Y923279D01*
X284421Y922594D01*
X285642Y921708D01*
X286708Y920642D01*
X287594Y919421D01*
X288279Y918078D01*
X288745Y916643D01*
X288859Y915923D01*
X280923Y915923D01*
G37*
%LPD*%
%LPC*%
G36*
X625541Y954023D02*
X625541Y954023D01*
X625655Y954743D01*
X626121Y956178D01*
X626806Y957521D01*
X627692Y958742D01*
X628758Y959808D01*
X629979Y960694D01*
X631322Y961379D01*
X632757Y961845D01*
X633477Y961959D01*
X633477Y954023D01*
X625541Y954023D01*
G37*
%LPD*%
%LPC*%
G36*
X636523Y950977D02*
X636523Y950977D01*
X644459Y950977D01*
X644345Y950257D01*
X643879Y948822D01*
X643194Y947479D01*
X642308Y946258D01*
X641242Y945192D01*
X640021Y944306D01*
X638678Y943621D01*
X637243Y943155D01*
X636523Y943041D01*
X636523Y950977D01*
G37*
%LPD*%
%LPC*%
G36*
X280923Y912877D02*
X280923Y912877D01*
X288859Y912877D01*
X288745Y912157D01*
X288279Y910722D01*
X287594Y909379D01*
X286708Y908158D01*
X285642Y907092D01*
X284421Y906206D01*
X283078Y905521D01*
X281643Y905055D01*
X280923Y904941D01*
X280923Y912877D01*
G37*
%LPD*%
%LPC*%
G36*
X269941Y915923D02*
X269941Y915923D01*
X270055Y916643D01*
X270521Y918078D01*
X271206Y919421D01*
X272092Y920642D01*
X273158Y921708D01*
X274379Y922594D01*
X275722Y923279D01*
X277157Y923745D01*
X277877Y923859D01*
X277877Y915923D01*
X269941Y915923D01*
G37*
%LPD*%
%LPC*%
G36*
X632757Y943155D02*
X632757Y943155D01*
X631322Y943621D01*
X629979Y944306D01*
X628758Y945192D01*
X627692Y946258D01*
X626806Y947479D01*
X626121Y948822D01*
X625655Y950257D01*
X625541Y950977D01*
X633477Y950977D01*
X633477Y943041D01*
X632757Y943155D01*
G37*
%LPD*%
%LPC*%
G36*
X277157Y905055D02*
X277157Y905055D01*
X275722Y905521D01*
X274379Y906206D01*
X273158Y907092D01*
X272092Y908158D01*
X271206Y909379D01*
X270521Y910722D01*
X270055Y912157D01*
X269941Y912877D01*
X277877Y912877D01*
X277877Y904941D01*
X277157Y905055D01*
G37*
%LPD*%
%LPC*%
G36*
X573023Y395223D02*
X573023Y395223D01*
X573023Y402845D01*
X575288Y402845D01*
X580645Y397488D01*
X580645Y395223D01*
X573023Y395223D01*
G37*
%LPD*%
%LPC*%
G36*
X562355Y395223D02*
X562355Y395223D01*
X562355Y397488D01*
X567712Y402845D01*
X569977Y402845D01*
X569977Y395223D01*
X562355Y395223D01*
G37*
%LPD*%
%LPC*%
G36*
X573023Y384555D02*
X573023Y384555D01*
X573023Y392177D01*
X580645Y392177D01*
X580645Y389912D01*
X575288Y384555D01*
X573023Y384555D01*
G37*
%LPD*%
%LPC*%
G36*
X567712Y384555D02*
X567712Y384555D01*
X562355Y389912D01*
X562355Y392177D01*
X569977Y392177D01*
X569977Y384555D01*
X567712Y384555D01*
G37*
%LPD*%
%LPC*%
G36*
X331723Y791623D02*
X331723Y791623D01*
X331723Y799270D01*
X332910Y799034D01*
X334601Y798333D01*
X336123Y797317D01*
X337417Y796023D01*
X338433Y794501D01*
X339134Y792810D01*
X339370Y791623D01*
X331723Y791623D01*
G37*
%LPD*%
%LPC*%
G36*
X541273Y721773D02*
X541273Y721773D01*
X541273Y729420D01*
X542460Y729184D01*
X544151Y728483D01*
X545673Y727467D01*
X546967Y726173D01*
X547983Y724651D01*
X548684Y722960D01*
X548920Y721773D01*
X541273Y721773D01*
G37*
%LPD*%
%LPC*%
G36*
X570323Y966723D02*
X570323Y966723D01*
X570323Y974370D01*
X571510Y974134D01*
X573201Y973433D01*
X574723Y972417D01*
X576017Y971123D01*
X577033Y969601D01*
X577734Y967910D01*
X577970Y966723D01*
X570323Y966723D01*
G37*
%LPD*%
%LPC*%
G36*
X379823Y865123D02*
X379823Y865123D01*
X379823Y872770D01*
X381010Y872534D01*
X382701Y871833D01*
X384223Y870817D01*
X385517Y869523D01*
X386533Y868001D01*
X387234Y866310D01*
X387470Y865123D01*
X379823Y865123D01*
G37*
%LPD*%
%LPC*%
G36*
X348073Y934973D02*
X348073Y934973D01*
X348073Y942620D01*
X349260Y942384D01*
X350951Y941683D01*
X352473Y940667D01*
X353767Y939373D01*
X354783Y937851D01*
X355484Y936160D01*
X355720Y934973D01*
X348073Y934973D01*
G37*
%LPD*%
%LPC*%
G36*
X710023Y890523D02*
X710023Y890523D01*
X710023Y898170D01*
X711210Y897934D01*
X712901Y897233D01*
X714423Y896217D01*
X715717Y894923D01*
X716733Y893401D01*
X717434Y891710D01*
X717670Y890523D01*
X710023Y890523D01*
G37*
%LPD*%
%LPC*%
G36*
X699330Y890523D02*
X699330Y890523D01*
X699566Y891710D01*
X700267Y893401D01*
X701283Y894923D01*
X702577Y896217D01*
X704099Y897233D01*
X705790Y897934D01*
X706977Y898170D01*
X706977Y890523D01*
X699330Y890523D01*
G37*
%LPD*%
%LPC*%
G36*
X570323Y963677D02*
X570323Y963677D01*
X577970Y963677D01*
X577734Y962490D01*
X577033Y960799D01*
X576017Y959277D01*
X574723Y957983D01*
X573201Y956967D01*
X571510Y956266D01*
X570323Y956030D01*
X570323Y963677D01*
G37*
%LPD*%
%LPC*%
G36*
X321030Y791623D02*
X321030Y791623D01*
X321266Y792810D01*
X321967Y794501D01*
X322983Y796023D01*
X324277Y797317D01*
X325799Y798333D01*
X327490Y799034D01*
X328677Y799270D01*
X328677Y791623D01*
X321030Y791623D01*
G37*
%LPD*%
%LPC*%
G36*
X530580Y721773D02*
X530580Y721773D01*
X530816Y722960D01*
X531517Y724651D01*
X532533Y726173D01*
X533827Y727467D01*
X535349Y728483D01*
X537040Y729184D01*
X538227Y729420D01*
X538227Y721773D01*
X530580Y721773D01*
G37*
%LPD*%
%LPC*%
G36*
X379823Y862077D02*
X379823Y862077D01*
X387470Y862077D01*
X387234Y860890D01*
X386533Y859199D01*
X385517Y857677D01*
X384223Y856383D01*
X382701Y855367D01*
X381010Y854666D01*
X379823Y854430D01*
X379823Y862077D01*
G37*
%LPD*%
%LPC*%
G36*
X348073Y931927D02*
X348073Y931927D01*
X355720Y931927D01*
X355484Y930740D01*
X354783Y929049D01*
X353767Y927527D01*
X352473Y926233D01*
X350951Y925217D01*
X349260Y924516D01*
X348073Y924280D01*
X348073Y931927D01*
G37*
%LPD*%
%LPC*%
G36*
X337380Y934973D02*
X337380Y934973D01*
X337616Y936160D01*
X338317Y937851D01*
X339333Y939373D01*
X340627Y940667D01*
X342149Y941683D01*
X343840Y942384D01*
X345027Y942620D01*
X345027Y934973D01*
X337380Y934973D01*
G37*
%LPD*%
%LPC*%
G36*
X541273Y718727D02*
X541273Y718727D01*
X548920Y718727D01*
X548684Y717540D01*
X547983Y715849D01*
X546967Y714327D01*
X545673Y713033D01*
X544151Y712017D01*
X542460Y711316D01*
X541273Y711080D01*
X541273Y718727D01*
G37*
%LPD*%
%LPC*%
G36*
X331723Y788577D02*
X331723Y788577D01*
X339370Y788577D01*
X339134Y787390D01*
X338433Y785699D01*
X337417Y784177D01*
X336123Y782883D01*
X334601Y781867D01*
X332910Y781166D01*
X331723Y780930D01*
X331723Y788577D01*
G37*
%LPD*%
%LPC*%
G36*
X559630Y966723D02*
X559630Y966723D01*
X559866Y967910D01*
X560567Y969601D01*
X561583Y971123D01*
X562877Y972417D01*
X564399Y973433D01*
X566090Y974134D01*
X567277Y974370D01*
X567277Y966723D01*
X559630Y966723D01*
G37*
%LPD*%
%LPC*%
G36*
X369130Y865123D02*
X369130Y865123D01*
X369366Y866310D01*
X370067Y868001D01*
X371083Y869523D01*
X372377Y870817D01*
X373899Y871833D01*
X375590Y872534D01*
X376777Y872770D01*
X376777Y865123D01*
X369130Y865123D01*
G37*
%LPD*%
%LPC*%
G36*
X710023Y887477D02*
X710023Y887477D01*
X717670Y887477D01*
X717434Y886290D01*
X716733Y884599D01*
X715717Y883077D01*
X714423Y881783D01*
X712901Y880767D01*
X711210Y880066D01*
X710023Y879830D01*
X710023Y887477D01*
G37*
%LPD*%
%LPC*%
G36*
X375590Y854666D02*
X375590Y854666D01*
X373899Y855367D01*
X372377Y856383D01*
X371083Y857677D01*
X370067Y859199D01*
X369366Y860890D01*
X369130Y862077D01*
X376777Y862077D01*
X376777Y854430D01*
X375590Y854666D01*
G37*
%LPD*%
%LPC*%
G36*
X537040Y711316D02*
X537040Y711316D01*
X535349Y712017D01*
X533827Y713033D01*
X532533Y714327D01*
X531517Y715849D01*
X530816Y717540D01*
X530580Y718727D01*
X538227Y718727D01*
X538227Y711080D01*
X537040Y711316D01*
G37*
%LPD*%
%LPC*%
G36*
X705790Y880066D02*
X705790Y880066D01*
X704099Y880767D01*
X702577Y881783D01*
X701283Y883077D01*
X700267Y884599D01*
X699566Y886290D01*
X699330Y887477D01*
X706977Y887477D01*
X706977Y879830D01*
X705790Y880066D01*
G37*
%LPD*%
%LPC*%
G36*
X566090Y956266D02*
X566090Y956266D01*
X564399Y956967D01*
X562877Y957983D01*
X561583Y959277D01*
X560567Y960799D01*
X559866Y962490D01*
X559630Y963677D01*
X567277Y963677D01*
X567277Y956030D01*
X566090Y956266D01*
G37*
%LPD*%
%LPC*%
G36*
X343840Y924516D02*
X343840Y924516D01*
X342149Y925217D01*
X340627Y926233D01*
X339333Y927527D01*
X338317Y929049D01*
X337616Y930740D01*
X337380Y931927D01*
X345027Y931927D01*
X345027Y924280D01*
X343840Y924516D01*
G37*
%LPD*%
%LPC*%
G36*
X327490Y781166D02*
X327490Y781166D01*
X325799Y781867D01*
X324277Y782883D01*
X322983Y784177D01*
X321967Y785699D01*
X321266Y787390D01*
X321030Y788577D01*
X328677Y788577D01*
X328677Y780930D01*
X327490Y781166D01*
G37*
%LPD*%
%LPC*%
G36*
X209999Y844999D02*
X209999Y844999D01*
X209999Y845001D01*
X210001Y845001D01*
X210001Y844999D01*
X209999Y844999D01*
G37*
%LPD*%
%LPC*%
G36*
X739999Y844999D02*
X739999Y844999D01*
X739999Y845001D01*
X740001Y845001D01*
X740001Y844999D01*
X739999Y844999D01*
G37*
%LPD*%
%LPC*%
G36*
X774699Y711199D02*
X774699Y711199D01*
X774699Y711201D01*
X774701Y711201D01*
X774701Y711199D01*
X774699Y711199D01*
G37*
%LPD*%
%LPC*%
G36*
X863599Y711199D02*
X863599Y711199D01*
X863599Y711201D01*
X863601Y711201D01*
X863601Y711199D01*
X863599Y711199D01*
G37*
%LPD*%
%LPC*%
G36*
X568799Y965199D02*
X568799Y965199D01*
X568799Y965201D01*
X568801Y965201D01*
X568801Y965199D01*
X568799Y965199D01*
G37*
%LPD*%
%LPC*%
G36*
X127999Y164999D02*
X127999Y164999D01*
X127999Y165001D01*
X128001Y165001D01*
X128001Y164999D01*
X127999Y164999D01*
G37*
%LPD*%
%LPC*%
G36*
X539749Y720249D02*
X539749Y720249D01*
X539749Y720251D01*
X539751Y720251D01*
X539751Y720249D01*
X539749Y720249D01*
G37*
%LPD*%
%LPC*%
G36*
X79499Y381149D02*
X79499Y381149D01*
X79499Y381151D01*
X79501Y381151D01*
X79501Y381149D01*
X79499Y381149D01*
G37*
%LPD*%
%LPC*%
G36*
X708499Y888999D02*
X708499Y888999D01*
X708499Y889001D01*
X708501Y889001D01*
X708501Y888999D01*
X708499Y888999D01*
G37*
%LPD*%
%LPC*%
G36*
X628649Y634999D02*
X628649Y634999D01*
X628649Y635001D01*
X628651Y635001D01*
X628651Y634999D01*
X628649Y634999D01*
G37*
%LPD*%
%LPC*%
G36*
X79499Y218849D02*
X79499Y218849D01*
X79499Y218851D01*
X79501Y218851D01*
X79501Y218849D01*
X79499Y218849D01*
G37*
%LPD*%
%LPC*%
G36*
X743699Y218849D02*
X743699Y218849D01*
X743699Y218851D01*
X743701Y218851D01*
X743701Y218849D01*
X743699Y218849D01*
G37*
%LPD*%
%LPC*%
G36*
X673099Y787399D02*
X673099Y787399D01*
X673099Y787401D01*
X673101Y787401D01*
X673101Y787399D01*
X673099Y787399D01*
G37*
%LPD*%
%LPC*%
G36*
X870699Y218849D02*
X870699Y218849D01*
X870699Y218851D01*
X870701Y218851D01*
X870701Y218849D01*
X870699Y218849D01*
G37*
%LPD*%
%LPC*%
G36*
X449999Y799999D02*
X449999Y799999D01*
X449999Y800001D01*
X450001Y800001D01*
X450001Y799999D01*
X449999Y799999D01*
G37*
%LPD*%
%LPC*%
G36*
X615949Y888999D02*
X615949Y888999D01*
X615949Y889001D01*
X615951Y889001D01*
X615951Y888999D01*
X615949Y888999D01*
G37*
%LPD*%
%LPC*%
G36*
X499999Y579999D02*
X499999Y579999D01*
X499999Y580001D01*
X500001Y580001D01*
X500001Y579999D01*
X499999Y579999D01*
G37*
%LPD*%
%LPC*%
G36*
X634999Y952499D02*
X634999Y952499D01*
X634999Y952501D01*
X635001Y952501D01*
X635001Y952499D01*
X634999Y952499D01*
G37*
%LPD*%
%LPC*%
G36*
X660399Y533399D02*
X660399Y533399D01*
X660399Y533401D01*
X660401Y533401D01*
X660401Y533399D01*
X660399Y533399D01*
G37*
%LPD*%
%LPC*%
G36*
X378299Y863599D02*
X378299Y863599D01*
X378299Y863601D01*
X378301Y863601D01*
X378301Y863599D01*
X378299Y863599D01*
G37*
%LPD*%
%LPC*%
G36*
X342899Y25399D02*
X342899Y25399D01*
X342899Y25401D01*
X342901Y25401D01*
X342901Y25399D01*
X342899Y25399D01*
G37*
%LPD*%
%LPC*%
G36*
X203199Y25399D02*
X203199Y25399D01*
X203199Y25401D01*
X203201Y25401D01*
X203201Y25399D01*
X203199Y25399D01*
G37*
%LPD*%
%LPC*%
G36*
X619999Y329999D02*
X619999Y329999D01*
X619999Y330001D01*
X620001Y330001D01*
X620001Y329999D01*
X619999Y329999D01*
G37*
%LPD*%
%LPC*%
G36*
X346549Y933449D02*
X346549Y933449D01*
X346549Y933451D01*
X346551Y933451D01*
X346551Y933449D01*
X346549Y933449D01*
G37*
%LPD*%
%LPC*%
G36*
X279399Y914399D02*
X279399Y914399D01*
X279399Y914401D01*
X279401Y914401D01*
X279401Y914399D01*
X279399Y914399D01*
G37*
%LPD*%
%LPC*%
G36*
X571499Y393699D02*
X571499Y393699D01*
X571499Y393701D01*
X571501Y393701D01*
X571501Y393699D01*
X571499Y393699D01*
G37*
%LPD*%
%LPC*%
G36*
X206499Y381149D02*
X206499Y381149D01*
X206499Y381151D01*
X206501Y381151D01*
X206501Y381149D01*
X206499Y381149D01*
G37*
%LPD*%
%LPC*%
G36*
X330199Y790099D02*
X330199Y790099D01*
X330199Y790101D01*
X330201Y790101D01*
X330201Y790099D01*
X330199Y790099D01*
G37*
%LPD*%
D10*
X88900Y637700D03*
D11*
X88900Y657700D03*
D10*
X393700Y790100D03*
D11*
X393700Y810100D03*
D10*
X330200Y810100D03*
D11*
X330200Y790100D03*
D12*
X628650Y635000D03*
X628650Y660400D03*
D10*
X358300Y863600D03*
D11*
X378300Y863600D03*
D13*
X329800Y520700D03*
X279800Y520700D03*
D10*
X326550Y933450D03*
D11*
X346550Y933450D03*
D14*
X279400Y914400D03*
D15*
X254000Y914400D03*
D16*
X571500Y796798D02*
X571500Y778002D01*
X596900Y778002D02*
X596900Y796798D01*
X622300Y796798D02*
X622300Y778002D01*
X647700Y778002D02*
X647700Y796798D01*
X673100Y796798D02*
X673100Y778002D01*
X698500Y778002D02*
X698500Y796798D01*
D17*
X210000Y845000D03*
X210000Y820000D03*
X210000Y795000D03*
D18*
X140000Y864000D03*
X140000Y776000D03*
D19*
X273050Y711200D03*
D20*
X247650Y717804D02*
X247650Y704596D01*
X222250Y704596D02*
X222250Y717804D01*
X196850Y717804D02*
X196850Y704596D01*
X171450Y704596D02*
X171450Y717804D01*
X146050Y717804D02*
X146050Y704596D01*
X120650Y704596D02*
X120650Y717804D01*
X95250Y717804D02*
X95250Y704596D01*
D12*
X793750Y647700D03*
X844550Y647700D03*
D17*
X450000Y580000D03*
X475000Y580000D03*
X500000Y580000D03*
D21*
X431000Y510000D03*
X519000Y510000D03*
D17*
X740000Y795000D03*
X740000Y820000D03*
X740000Y845000D03*
D22*
X810000Y776000D03*
X810000Y864000D03*
D17*
X500000Y800000D03*
X475000Y800000D03*
X450000Y800000D03*
D23*
X519000Y870000D03*
X431000Y870000D03*
D24*
X89250Y218850D02*
X69750Y218850D01*
X69750Y381150D02*
X89250Y381150D01*
X196750Y218850D02*
X216250Y218850D01*
X216250Y381150D02*
X196750Y381150D01*
X860950Y381150D02*
X880450Y381150D01*
X880450Y218850D02*
X860950Y218850D01*
X753450Y381150D02*
X733950Y381150D01*
X733950Y218850D02*
X753450Y218850D01*
D10*
X688500Y889000D03*
D11*
X708500Y889000D03*
D10*
X548800Y965200D03*
D11*
X568800Y965200D03*
D14*
X641350Y838200D03*
D15*
X641350Y863600D03*
D14*
X635000Y952500D03*
D15*
X635000Y977900D03*
D10*
X266700Y467200D03*
D11*
X266700Y447200D03*
D13*
X329800Y558800D03*
X279800Y558800D03*
D25*
X660400Y533400D03*
X698500Y533400D03*
D16*
X870000Y339398D02*
X870000Y320602D01*
X844600Y320602D02*
X844600Y339398D01*
X819200Y339398D02*
X819200Y320602D01*
X793800Y320602D02*
X793800Y339398D01*
X768400Y339398D02*
X768400Y320602D01*
X743000Y320602D02*
X743000Y339398D01*
X717600Y339398D02*
X717600Y320602D01*
D25*
X615950Y920750D03*
X615950Y889000D03*
D24*
X128000Y135000D02*
X128000Y115500D01*
X160000Y115500D02*
X160000Y135000D01*
X192000Y135000D02*
X192000Y115500D01*
X192000Y165000D02*
X192000Y184500D01*
X160000Y184500D02*
X160000Y165000D01*
X128000Y165000D02*
X128000Y184500D01*
D26*
X440000Y50400D03*
X510000Y50400D03*
D27*
X450000Y25400D03*
X500000Y25400D03*
D28*
X177800Y25400D03*
X203200Y25400D03*
X317500Y25400D03*
X342900Y25400D03*
X607300Y25400D03*
X632700Y25400D03*
X752300Y25400D03*
X777700Y25400D03*
D16*
X870000Y50602D02*
X870000Y69398D01*
X844600Y69398D02*
X844600Y50602D01*
X819200Y50602D02*
X819200Y69398D01*
X793800Y69398D02*
X793800Y50602D01*
X768400Y50602D02*
X768400Y69398D01*
X743000Y69398D02*
X743000Y50602D01*
X717600Y50602D02*
X717600Y69398D01*
X120000Y320602D02*
X120000Y339398D01*
X145400Y339398D02*
X145400Y320602D01*
X170800Y320602D02*
X170800Y339398D01*
X196200Y339398D02*
X196200Y320602D01*
X120000Y69398D02*
X120000Y50602D01*
X145400Y50602D02*
X145400Y69398D01*
X170800Y69398D02*
X170800Y50602D01*
X196200Y50602D02*
X196200Y69398D01*
D28*
X462300Y63500D03*
X487700Y63500D03*
D16*
X620000Y69398D02*
X620000Y50602D01*
X620000Y320602D02*
X620000Y339398D01*
D29*
X387350Y970000D03*
X475000Y133350D03*
D30*
X571500Y393700D03*
X558800Y412750D03*
X546100Y393700D03*
D12*
X774700Y711200D03*
X774700Y685800D03*
X863600Y711200D03*
X863600Y685800D03*
D10*
X539750Y740250D03*
D11*
X539750Y720250D03*
D31*
X818183Y604258D03*
D25*
X769512Y604258D03*
D32*
X121920Y711200D02*
X121920Y715264D01*
X167640Y760984D01*
X167640Y853186D01*
X228854Y914400D01*
X254000Y914400D01*
X121920Y711200D02*
X120650Y711200D01*
X597408Y780542D02*
X615950Y762000D01*
X641350Y762000D02*
X666750Y736600D01*
X666750Y698500D01*
X597408Y780542D02*
X597408Y786384D01*
X596900Y787400D01*
D33*
X666750Y698500D03*
D32*
X641350Y762000D02*
X615950Y762000D01*
X707136Y696976D02*
X707136Y670560D01*
D33*
X707136Y670560D03*
X707136Y696976D03*
D32*
X719328Y587248D02*
X739753Y587248D01*
X850698Y573024D02*
X851408Y573024D01*
X850698Y573024D02*
X841987Y575530D01*
D33*
X719328Y587248D03*
X851408Y573024D03*
D32*
X841987Y575530D02*
X751472Y575530D01*
X739753Y587248D01*
X683260Y666242D02*
X683260Y705612D01*
X723392Y745744D01*
X723392Y810768D01*
X731520Y818896D01*
X739648Y818896D01*
X740000Y820000D01*
D33*
X683260Y666242D03*
X539750Y781050D03*
D32*
X565150Y755650D01*
X603250Y755650D01*
X654050Y704850D01*
X654050Y685800D02*
X666750Y673100D01*
X666750Y601024D01*
X664150Y598424D01*
D33*
X664150Y598424D03*
D32*
X654050Y685800D02*
X654050Y704850D01*
X729488Y664464D02*
X729488Y776224D01*
X739648Y786384D01*
X739648Y794512D01*
X740000Y795000D01*
D33*
X729488Y664464D03*
X699008Y617728D03*
D32*
X701040Y597408D02*
X672592Y568960D01*
X701040Y597408D02*
X701040Y613664D01*
X699008Y615696D01*
X699008Y617728D01*
D33*
X672592Y568960D03*
X690880Y613664D03*
D32*
X678688Y599440D02*
X678688Y583184D01*
X678688Y599440D02*
X690880Y611632D01*
X690880Y613664D01*
D33*
X678688Y583184D03*
X298450Y704850D03*
D34*
X279850Y750150D02*
X210000Y820000D01*
X279850Y723450D02*
X298450Y704850D01*
X279850Y723450D02*
X279850Y750150D01*
D32*
X266700Y447200D02*
X247650Y428150D01*
X247650Y171450D01*
X211200Y135000D01*
X192000Y135000D01*
D33*
X566166Y739394D03*
X753872Y633984D03*
D32*
X392176Y810768D02*
X384048Y818896D01*
X347472Y818896D01*
X337312Y808736D01*
X331216Y808736D01*
X392176Y810768D02*
X393700Y810100D01*
X331216Y808736D02*
X330200Y810100D01*
X222250Y711200D02*
X203200Y692150D01*
X165354Y692150D01*
X146304Y711200D01*
X146050Y711200D01*
X733552Y566928D02*
X733552Y528320D01*
D33*
X733552Y566928D03*
X733552Y528320D03*
D32*
X609600Y83312D02*
X603504Y77216D01*
X609600Y83312D02*
X631952Y83312D01*
X636016Y79248D01*
X703072Y79248D01*
X707136Y83312D01*
X729488Y83312D01*
D33*
X603504Y77216D03*
X729488Y83312D03*
D32*
X503936Y8128D02*
X491744Y8128D01*
X503936Y8128D02*
X505968Y10160D01*
X601472Y10160D01*
X603504Y8128D01*
X609600Y8128D01*
X615696Y14224D01*
X619760Y14224D01*
X623824Y10160D01*
X638048Y10160D01*
X640080Y12192D01*
D33*
X491744Y8128D03*
X640080Y12192D03*
X713232Y12192D03*
D32*
X793800Y17576D02*
X793800Y60000D01*
X793800Y17576D02*
X788416Y12192D01*
X713232Y12192D01*
X619760Y8128D02*
X617728Y8128D01*
X619760Y8128D02*
X621792Y6096D01*
X642112Y6096D01*
X668528Y32512D01*
X741680Y32512D01*
X747776Y38608D01*
X755904Y38608D01*
X759968Y42672D01*
X759968Y44704D01*
X768096Y52832D01*
X768096Y58928D01*
X768400Y60000D01*
D33*
X617728Y8128D03*
M02*
