G04 EAGLE Gerber X2 export*
%TF.Part,Single*%
%TF.FileFunction,Profile,NP*%
%TF.FilePolarity,Positive*%
%TF.GenerationSoftware,Autodesk,EAGLE,9.2.2*%
%TF.CreationDate,2019-01-20T16:39:22Z*%
G75*
%MOMM*%
%FSLAX34Y34*%
%LPD*%
%IN*%
%AMOC8*
5,1,8,0,0,1.08239X$1,22.5*%
G01*
%ADD10C,0.254000*%


D10*
X33000Y63500D02*
X127000Y0D01*
X823000Y0D01*
X917000Y63000D01*
X917000Y820000D01*
X843000Y820000D01*
X843000Y990000D01*
X750000Y1000000D01*
X525000Y1000000D01*
X525000Y900000D01*
X425000Y900000D01*
X425000Y1000000D01*
X200000Y1000000D01*
X107000Y990000D01*
X107000Y820000D01*
X33000Y820000D01*
X33000Y63500D01*
X145000Y820281D02*
X144937Y820839D01*
X144812Y821386D01*
X144627Y821916D01*
X144383Y822422D01*
X144084Y822898D01*
X143734Y823337D01*
X143337Y823734D01*
X142898Y824084D01*
X142422Y824383D01*
X141916Y824627D01*
X141386Y824812D01*
X140839Y824937D01*
X140281Y825000D01*
X139719Y825000D01*
X139161Y824937D01*
X138614Y824812D01*
X138084Y824627D01*
X137578Y824383D01*
X137102Y824084D01*
X136663Y823734D01*
X136266Y823337D01*
X135916Y822898D01*
X135617Y822422D01*
X135373Y821916D01*
X135188Y821386D01*
X135063Y820839D01*
X135000Y820281D01*
X135000Y819719D01*
X135063Y819161D01*
X135188Y818614D01*
X135373Y818084D01*
X135617Y817578D01*
X135916Y817102D01*
X136266Y816663D01*
X136663Y816266D01*
X137102Y815916D01*
X137578Y815617D01*
X138084Y815373D01*
X138614Y815188D01*
X139161Y815063D01*
X139719Y815000D01*
X140281Y815000D01*
X140839Y815063D01*
X141386Y815188D01*
X141916Y815373D01*
X142422Y815617D01*
X142898Y815916D01*
X143337Y816266D01*
X143734Y816663D01*
X144084Y817102D01*
X144383Y817578D01*
X144627Y818084D01*
X144812Y818614D01*
X144937Y819161D01*
X145000Y819719D01*
X145000Y820281D01*
X474719Y515000D02*
X474161Y514937D01*
X473614Y514812D01*
X473084Y514627D01*
X472578Y514383D01*
X472102Y514084D01*
X471663Y513734D01*
X471266Y513337D01*
X470916Y512898D01*
X470617Y512422D01*
X470373Y511916D01*
X470188Y511386D01*
X470063Y510839D01*
X470000Y510281D01*
X470000Y509719D01*
X470063Y509161D01*
X470188Y508614D01*
X470373Y508084D01*
X470617Y507578D01*
X470916Y507102D01*
X471266Y506663D01*
X471663Y506266D01*
X472102Y505916D01*
X472578Y505617D01*
X473084Y505373D01*
X473614Y505188D01*
X474161Y505063D01*
X474719Y505000D01*
X475281Y505000D01*
X475839Y505063D01*
X476386Y505188D01*
X476916Y505373D01*
X477422Y505617D01*
X477898Y505916D01*
X478337Y506266D01*
X478734Y506663D01*
X479084Y507102D01*
X479383Y507578D01*
X479627Y508084D01*
X479812Y508614D01*
X479937Y509161D01*
X480000Y509719D01*
X480000Y510281D01*
X479937Y510839D01*
X479812Y511386D01*
X479627Y511916D01*
X479383Y512422D01*
X479084Y512898D01*
X478734Y513337D01*
X478337Y513734D01*
X477898Y514084D01*
X477422Y514383D01*
X476916Y514627D01*
X476386Y514812D01*
X475839Y514937D01*
X475281Y515000D01*
X474719Y515000D01*
X805000Y819719D02*
X805063Y819161D01*
X805188Y818614D01*
X805373Y818084D01*
X805617Y817578D01*
X805916Y817102D01*
X806266Y816663D01*
X806663Y816266D01*
X807102Y815916D01*
X807578Y815617D01*
X808084Y815373D01*
X808614Y815188D01*
X809161Y815063D01*
X809719Y815000D01*
X810281Y815000D01*
X810839Y815063D01*
X811386Y815188D01*
X811916Y815373D01*
X812422Y815617D01*
X812898Y815916D01*
X813337Y816266D01*
X813734Y816663D01*
X814084Y817102D01*
X814383Y817578D01*
X814627Y818084D01*
X814812Y818614D01*
X814937Y819161D01*
X815000Y819719D01*
X815000Y820281D01*
X814937Y820839D01*
X814812Y821386D01*
X814627Y821916D01*
X814383Y822422D01*
X814084Y822898D01*
X813734Y823337D01*
X813337Y823734D01*
X812898Y824084D01*
X812422Y824383D01*
X811916Y824627D01*
X811386Y824812D01*
X810839Y824937D01*
X810281Y825000D01*
X809719Y825000D01*
X809161Y824937D01*
X808614Y824812D01*
X808084Y824627D01*
X807578Y824383D01*
X807102Y824084D01*
X806663Y823734D01*
X806266Y823337D01*
X805916Y822898D01*
X805617Y822422D01*
X805373Y821916D01*
X805188Y821386D01*
X805063Y820839D01*
X805000Y820281D01*
X805000Y819719D01*
X475281Y865000D02*
X475839Y865063D01*
X476386Y865188D01*
X476916Y865373D01*
X477422Y865617D01*
X477898Y865916D01*
X478337Y866266D01*
X478734Y866663D01*
X479084Y867102D01*
X479383Y867578D01*
X479627Y868084D01*
X479812Y868614D01*
X479937Y869161D01*
X480000Y869719D01*
X480000Y870281D01*
X479937Y870839D01*
X479812Y871386D01*
X479627Y871916D01*
X479383Y872422D01*
X479084Y872898D01*
X478734Y873337D01*
X478337Y873734D01*
X477898Y874084D01*
X477422Y874383D01*
X476916Y874627D01*
X476386Y874812D01*
X475839Y874937D01*
X475281Y875000D01*
X474719Y875000D01*
X474161Y874937D01*
X473614Y874812D01*
X473084Y874627D01*
X472578Y874383D01*
X472102Y874084D01*
X471663Y873734D01*
X471266Y873337D01*
X470916Y872898D01*
X470617Y872422D01*
X470373Y871916D01*
X470188Y871386D01*
X470063Y870839D01*
X470000Y870281D01*
X470000Y869719D01*
X470063Y869161D01*
X470188Y868614D01*
X470373Y868084D01*
X470617Y867578D01*
X470916Y867102D01*
X471266Y866663D01*
X471663Y866266D01*
X472102Y865916D01*
X472578Y865617D01*
X473084Y865373D01*
X473614Y865188D01*
X474161Y865063D01*
X474719Y865000D01*
X475281Y865000D01*
X128000Y211636D02*
X128076Y212704D01*
X128229Y213765D01*
X128457Y214812D01*
X128759Y215840D01*
X129133Y216844D01*
X129578Y217819D01*
X130092Y218759D01*
X130671Y219660D01*
X131313Y220518D01*
X132015Y221328D01*
X132772Y222085D01*
X133582Y222787D01*
X134440Y223429D01*
X135341Y224008D01*
X136281Y224522D01*
X137256Y224967D01*
X138260Y225341D01*
X139288Y225643D01*
X140335Y225871D01*
X141396Y226024D01*
X142464Y226100D01*
X143536Y226100D01*
X144604Y226024D01*
X145665Y225871D01*
X146712Y225643D01*
X147740Y225341D01*
X148744Y224967D01*
X149719Y224522D01*
X150659Y224008D01*
X151560Y223429D01*
X152418Y222787D01*
X153228Y222085D01*
X153985Y221328D01*
X154687Y220518D01*
X155329Y219660D01*
X155908Y218759D01*
X156422Y217819D01*
X156867Y216844D01*
X157241Y215840D01*
X157543Y214812D01*
X157771Y213765D01*
X157924Y212704D01*
X158000Y211636D01*
X158000Y210564D01*
X157924Y209496D01*
X157771Y208435D01*
X157543Y207388D01*
X157241Y206360D01*
X156867Y205356D01*
X156422Y204381D01*
X155908Y203441D01*
X155329Y202540D01*
X154687Y201682D01*
X153985Y200872D01*
X153228Y200115D01*
X152418Y199413D01*
X151560Y198771D01*
X150659Y198192D01*
X149719Y197678D01*
X148744Y197233D01*
X147740Y196859D01*
X146712Y196557D01*
X145665Y196329D01*
X144604Y196176D01*
X143536Y196100D01*
X142464Y196100D01*
X141396Y196176D01*
X140335Y196329D01*
X139288Y196557D01*
X138260Y196859D01*
X137256Y197233D01*
X136281Y197678D01*
X135341Y198192D01*
X134440Y198771D01*
X133582Y199413D01*
X132772Y200115D01*
X132015Y200872D01*
X131313Y201682D01*
X130671Y202540D01*
X130092Y203441D01*
X129578Y204381D01*
X129133Y205356D01*
X128759Y206360D01*
X128457Y207388D01*
X128229Y208435D01*
X128076Y209496D01*
X128000Y210564D01*
X128000Y211636D01*
X128000Y389436D02*
X128076Y390504D01*
X128229Y391565D01*
X128457Y392612D01*
X128759Y393640D01*
X129133Y394644D01*
X129578Y395619D01*
X130092Y396559D01*
X130671Y397460D01*
X131313Y398318D01*
X132015Y399128D01*
X132772Y399885D01*
X133582Y400587D01*
X134440Y401229D01*
X135341Y401808D01*
X136281Y402322D01*
X137256Y402767D01*
X138260Y403141D01*
X139288Y403443D01*
X140335Y403671D01*
X141396Y403824D01*
X142464Y403900D01*
X143536Y403900D01*
X144604Y403824D01*
X145665Y403671D01*
X146712Y403443D01*
X147740Y403141D01*
X148744Y402767D01*
X149719Y402322D01*
X150659Y401808D01*
X151560Y401229D01*
X152418Y400587D01*
X153228Y399885D01*
X153985Y399128D01*
X154687Y398318D01*
X155329Y397460D01*
X155908Y396559D01*
X156422Y395619D01*
X156867Y394644D01*
X157241Y393640D01*
X157543Y392612D01*
X157771Y391565D01*
X157924Y390504D01*
X158000Y389436D01*
X158000Y388364D01*
X157924Y387296D01*
X157771Y386235D01*
X157543Y385188D01*
X157241Y384160D01*
X156867Y383156D01*
X156422Y382181D01*
X155908Y381241D01*
X155329Y380340D01*
X154687Y379482D01*
X153985Y378672D01*
X153228Y377915D01*
X152418Y377213D01*
X151560Y376571D01*
X150659Y375992D01*
X149719Y375478D01*
X148744Y375033D01*
X147740Y374659D01*
X146712Y374357D01*
X145665Y374129D01*
X144604Y373976D01*
X143536Y373900D01*
X142464Y373900D01*
X141396Y373976D01*
X140335Y374129D01*
X139288Y374357D01*
X138260Y374659D01*
X137256Y375033D01*
X136281Y375478D01*
X135341Y375992D01*
X134440Y376571D01*
X133582Y377213D01*
X132772Y377915D01*
X132015Y378672D01*
X131313Y379482D01*
X130671Y380340D01*
X130092Y381241D01*
X129578Y382181D01*
X129133Y383156D01*
X128759Y384160D01*
X128457Y385188D01*
X128229Y386235D01*
X128076Y387296D01*
X128000Y388364D01*
X128000Y389436D01*
X822200Y388364D02*
X822124Y387296D01*
X821971Y386235D01*
X821743Y385188D01*
X821441Y384160D01*
X821067Y383156D01*
X820622Y382181D01*
X820108Y381241D01*
X819529Y380340D01*
X818887Y379482D01*
X818185Y378672D01*
X817428Y377915D01*
X816618Y377213D01*
X815760Y376571D01*
X814859Y375992D01*
X813919Y375478D01*
X812944Y375033D01*
X811940Y374659D01*
X810912Y374357D01*
X809865Y374129D01*
X808804Y373976D01*
X807736Y373900D01*
X806664Y373900D01*
X805596Y373976D01*
X804535Y374129D01*
X803488Y374357D01*
X802460Y374659D01*
X801456Y375033D01*
X800481Y375478D01*
X799541Y375992D01*
X798640Y376571D01*
X797782Y377213D01*
X796972Y377915D01*
X796215Y378672D01*
X795513Y379482D01*
X794871Y380340D01*
X794292Y381241D01*
X793778Y382181D01*
X793333Y383156D01*
X792959Y384160D01*
X792657Y385188D01*
X792429Y386235D01*
X792276Y387296D01*
X792200Y388364D01*
X792200Y389436D01*
X792276Y390504D01*
X792429Y391565D01*
X792657Y392612D01*
X792959Y393640D01*
X793333Y394644D01*
X793778Y395619D01*
X794292Y396559D01*
X794871Y397460D01*
X795513Y398318D01*
X796215Y399128D01*
X796972Y399885D01*
X797782Y400587D01*
X798640Y401229D01*
X799541Y401808D01*
X800481Y402322D01*
X801456Y402767D01*
X802460Y403141D01*
X803488Y403443D01*
X804535Y403671D01*
X805596Y403824D01*
X806664Y403900D01*
X807736Y403900D01*
X808804Y403824D01*
X809865Y403671D01*
X810912Y403443D01*
X811940Y403141D01*
X812944Y402767D01*
X813919Y402322D01*
X814859Y401808D01*
X815760Y401229D01*
X816618Y400587D01*
X817428Y399885D01*
X818185Y399128D01*
X818887Y398318D01*
X819529Y397460D01*
X820108Y396559D01*
X820622Y395619D01*
X821067Y394644D01*
X821441Y393640D01*
X821743Y392612D01*
X821971Y391565D01*
X822124Y390504D01*
X822200Y389436D01*
X822200Y388364D01*
X822200Y210564D02*
X822124Y209496D01*
X821971Y208435D01*
X821743Y207388D01*
X821441Y206360D01*
X821067Y205356D01*
X820622Y204381D01*
X820108Y203441D01*
X819529Y202540D01*
X818887Y201682D01*
X818185Y200872D01*
X817428Y200115D01*
X816618Y199413D01*
X815760Y198771D01*
X814859Y198192D01*
X813919Y197678D01*
X812944Y197233D01*
X811940Y196859D01*
X810912Y196557D01*
X809865Y196329D01*
X808804Y196176D01*
X807736Y196100D01*
X806664Y196100D01*
X805596Y196176D01*
X804535Y196329D01*
X803488Y196557D01*
X802460Y196859D01*
X801456Y197233D01*
X800481Y197678D01*
X799541Y198192D01*
X798640Y198771D01*
X797782Y199413D01*
X796972Y200115D01*
X796215Y200872D01*
X795513Y201682D01*
X794871Y202540D01*
X794292Y203441D01*
X793778Y204381D01*
X793333Y205356D01*
X792959Y206360D01*
X792657Y207388D01*
X792429Y208435D01*
X792276Y209496D01*
X792200Y210564D01*
X792200Y211636D01*
X792276Y212704D01*
X792429Y213765D01*
X792657Y214812D01*
X792959Y215840D01*
X793333Y216844D01*
X793778Y217819D01*
X794292Y218759D01*
X794871Y219660D01*
X795513Y220518D01*
X796215Y221328D01*
X796972Y222085D01*
X797782Y222787D01*
X798640Y223429D01*
X799541Y224008D01*
X800481Y224522D01*
X801456Y224967D01*
X802460Y225341D01*
X803488Y225643D01*
X804535Y225871D01*
X805596Y226024D01*
X806664Y226100D01*
X807736Y226100D01*
X808804Y226024D01*
X809865Y225871D01*
X810912Y225643D01*
X811940Y225341D01*
X812944Y224967D01*
X813919Y224522D01*
X814859Y224008D01*
X815760Y223429D01*
X816618Y222787D01*
X817428Y222085D01*
X818185Y221328D01*
X818887Y220518D01*
X819529Y219660D01*
X820108Y218759D01*
X820622Y217819D01*
X821067Y216844D01*
X821441Y215840D01*
X821743Y214812D01*
X821971Y213765D01*
X822124Y212704D01*
X822200Y211636D01*
X822200Y210564D01*
X109250Y119649D02*
X109171Y118951D01*
X109015Y118267D01*
X108783Y117604D01*
X108479Y116972D01*
X108105Y116378D01*
X107668Y115829D01*
X107171Y115332D01*
X106622Y114895D01*
X106028Y114521D01*
X105396Y114217D01*
X104733Y113985D01*
X104049Y113829D01*
X103351Y113750D01*
X102649Y113750D01*
X101951Y113829D01*
X101267Y113985D01*
X100604Y114217D01*
X99972Y114521D01*
X99378Y114895D01*
X98829Y115332D01*
X98332Y115829D01*
X97895Y116378D01*
X97521Y116972D01*
X97217Y117604D01*
X96985Y118267D01*
X96829Y118951D01*
X96750Y119649D01*
X96750Y120351D01*
X96829Y121049D01*
X96985Y121733D01*
X97217Y122396D01*
X97521Y123028D01*
X97895Y123622D01*
X98332Y124171D01*
X98829Y124668D01*
X99378Y125105D01*
X99972Y125479D01*
X100604Y125783D01*
X101267Y126015D01*
X101951Y126171D01*
X102649Y126250D01*
X103351Y126250D01*
X104049Y126171D01*
X104733Y126015D01*
X105396Y125783D01*
X106028Y125479D01*
X106622Y125105D01*
X107171Y124668D01*
X107668Y124171D01*
X108105Y123622D01*
X108479Y123028D01*
X108783Y122396D01*
X109015Y121733D01*
X109171Y121049D01*
X109250Y120351D01*
X109250Y119649D01*
X223250Y179649D02*
X223171Y178951D01*
X223015Y178267D01*
X222783Y177604D01*
X222479Y176972D01*
X222105Y176378D01*
X221668Y175829D01*
X221171Y175332D01*
X220622Y174895D01*
X220028Y174521D01*
X219396Y174217D01*
X218733Y173985D01*
X218049Y173829D01*
X217351Y173750D01*
X216649Y173750D01*
X215951Y173829D01*
X215267Y173985D01*
X214604Y174217D01*
X213972Y174521D01*
X213378Y174895D01*
X212829Y175332D01*
X212332Y175829D01*
X211895Y176378D01*
X211521Y176972D01*
X211217Y177604D01*
X210985Y178267D01*
X210829Y178951D01*
X210750Y179649D01*
X210750Y180351D01*
X210829Y181049D01*
X210985Y181733D01*
X211217Y182396D01*
X211521Y183028D01*
X211895Y183622D01*
X212332Y184171D01*
X212829Y184668D01*
X213378Y185105D01*
X213972Y185479D01*
X214604Y185783D01*
X215267Y186015D01*
X215951Y186171D01*
X216649Y186250D01*
X217351Y186250D01*
X218049Y186171D01*
X218733Y186015D01*
X219396Y185783D01*
X220028Y185479D01*
X220622Y185105D01*
X221171Y184668D01*
X221668Y184171D01*
X222105Y183622D01*
X222479Y183028D01*
X222783Y182396D01*
X223015Y181733D01*
X223171Y181049D01*
X223250Y180351D01*
X223250Y179649D01*
X154000Y959500D02*
X153929Y958503D01*
X153786Y957513D01*
X153574Y956536D01*
X153292Y955576D01*
X152943Y954639D01*
X152527Y953729D01*
X152048Y952852D01*
X151507Y952010D01*
X150908Y951210D01*
X150253Y950454D01*
X149546Y949747D01*
X148790Y949092D01*
X147990Y948493D01*
X147148Y947952D01*
X146271Y947473D01*
X145361Y947057D01*
X144424Y946708D01*
X143465Y946426D01*
X142487Y946214D01*
X141498Y946071D01*
X140500Y946000D01*
X139500Y946000D01*
X138503Y946071D01*
X137513Y946214D01*
X136536Y946426D01*
X135576Y946708D01*
X134639Y947057D01*
X133729Y947473D01*
X132852Y947952D01*
X132010Y948493D01*
X131210Y949092D01*
X130454Y949747D01*
X129747Y950454D01*
X129092Y951210D01*
X128493Y952010D01*
X127952Y952852D01*
X127473Y953729D01*
X127057Y954639D01*
X126708Y955576D01*
X126426Y956536D01*
X126214Y957513D01*
X126071Y958503D01*
X126000Y959500D01*
X126000Y960500D01*
X126071Y961498D01*
X126214Y962487D01*
X126426Y963465D01*
X126708Y964424D01*
X127057Y965361D01*
X127473Y966271D01*
X127952Y967148D01*
X128493Y967990D01*
X129092Y968790D01*
X129747Y969546D01*
X130454Y970253D01*
X131210Y970908D01*
X132010Y971507D01*
X132852Y972048D01*
X133729Y972527D01*
X134639Y972943D01*
X135576Y973292D01*
X136536Y973574D01*
X137513Y973786D01*
X138503Y973929D01*
X139500Y974000D01*
X140500Y974000D01*
X141498Y973929D01*
X142487Y973786D01*
X143465Y973574D01*
X144424Y973292D01*
X145361Y972943D01*
X146271Y972527D01*
X147148Y972048D01*
X147990Y971507D01*
X148790Y970908D01*
X149546Y970253D01*
X150253Y969546D01*
X150908Y968790D01*
X151507Y967990D01*
X152048Y967148D01*
X152527Y966271D01*
X152943Y965361D01*
X153292Y964424D01*
X153574Y963465D01*
X153786Y962487D01*
X153929Y961498D01*
X154000Y960500D01*
X154000Y959500D01*
X824000Y959500D02*
X823929Y958503D01*
X823786Y957513D01*
X823574Y956536D01*
X823292Y955576D01*
X822943Y954639D01*
X822527Y953729D01*
X822048Y952852D01*
X821507Y952010D01*
X820908Y951210D01*
X820253Y950454D01*
X819546Y949747D01*
X818790Y949092D01*
X817990Y948493D01*
X817148Y947952D01*
X816271Y947473D01*
X815361Y947057D01*
X814424Y946708D01*
X813465Y946426D01*
X812487Y946214D01*
X811498Y946071D01*
X810500Y946000D01*
X809500Y946000D01*
X808503Y946071D01*
X807513Y946214D01*
X806536Y946426D01*
X805576Y946708D01*
X804639Y947057D01*
X803729Y947473D01*
X802852Y947952D01*
X802010Y948493D01*
X801210Y949092D01*
X800454Y949747D01*
X799747Y950454D01*
X799092Y951210D01*
X798493Y952010D01*
X797952Y952852D01*
X797473Y953729D01*
X797057Y954639D01*
X796708Y955576D01*
X796426Y956536D01*
X796214Y957513D01*
X796071Y958503D01*
X796000Y959500D01*
X796000Y960500D01*
X796071Y961498D01*
X796214Y962487D01*
X796426Y963465D01*
X796708Y964424D01*
X797057Y965361D01*
X797473Y966271D01*
X797952Y967148D01*
X798493Y967990D01*
X799092Y968790D01*
X799747Y969546D01*
X800454Y970253D01*
X801210Y970908D01*
X802010Y971507D01*
X802852Y972048D01*
X803729Y972527D01*
X804639Y972943D01*
X805576Y973292D01*
X806536Y973574D01*
X807513Y973786D01*
X808503Y973929D01*
X809500Y974000D01*
X810500Y974000D01*
X811498Y973929D01*
X812487Y973786D01*
X813465Y973574D01*
X814424Y973292D01*
X815361Y972943D01*
X816271Y972527D01*
X817148Y972048D01*
X817990Y971507D01*
X818790Y970908D01*
X819546Y970253D01*
X820253Y969546D01*
X820908Y968790D01*
X821507Y967990D01*
X822048Y967148D01*
X822527Y966271D01*
X822943Y965361D01*
X823292Y964424D01*
X823574Y963465D01*
X823786Y962487D01*
X823929Y961498D01*
X824000Y960500D01*
X824000Y959500D01*
X344000Y209500D02*
X343929Y208503D01*
X343786Y207513D01*
X343574Y206536D01*
X343292Y205576D01*
X342943Y204639D01*
X342527Y203729D01*
X342048Y202852D01*
X341507Y202010D01*
X340908Y201210D01*
X340253Y200454D01*
X339546Y199747D01*
X338790Y199092D01*
X337990Y198493D01*
X337148Y197952D01*
X336271Y197473D01*
X335361Y197057D01*
X334424Y196708D01*
X333465Y196426D01*
X332487Y196214D01*
X331498Y196071D01*
X330500Y196000D01*
X329500Y196000D01*
X328503Y196071D01*
X327513Y196214D01*
X326536Y196426D01*
X325576Y196708D01*
X324639Y197057D01*
X323729Y197473D01*
X322852Y197952D01*
X322010Y198493D01*
X321210Y199092D01*
X320454Y199747D01*
X319747Y200454D01*
X319092Y201210D01*
X318493Y202010D01*
X317952Y202852D01*
X317473Y203729D01*
X317057Y204639D01*
X316708Y205576D01*
X316426Y206536D01*
X316214Y207513D01*
X316071Y208503D01*
X316000Y209500D01*
X316000Y210500D01*
X316071Y211498D01*
X316214Y212487D01*
X316426Y213465D01*
X316708Y214424D01*
X317057Y215361D01*
X317473Y216271D01*
X317952Y217148D01*
X318493Y217990D01*
X319092Y218790D01*
X319747Y219546D01*
X320454Y220253D01*
X321210Y220908D01*
X322010Y221507D01*
X322852Y222048D01*
X323729Y222527D01*
X324639Y222943D01*
X325576Y223292D01*
X326536Y223574D01*
X327513Y223786D01*
X328503Y223929D01*
X329500Y224000D01*
X330500Y224000D01*
X331498Y223929D01*
X332487Y223786D01*
X333465Y223574D01*
X334424Y223292D01*
X335361Y222943D01*
X336271Y222527D01*
X337148Y222048D01*
X337990Y221507D01*
X338790Y220908D01*
X339546Y220253D01*
X340253Y219546D01*
X340908Y218790D01*
X341507Y217990D01*
X342048Y217148D01*
X342527Y216271D01*
X342943Y215361D01*
X343292Y214424D01*
X343574Y213465D01*
X343786Y212487D01*
X343929Y211498D01*
X344000Y210500D01*
X344000Y209500D01*
X634000Y209500D02*
X633929Y208503D01*
X633786Y207513D01*
X633574Y206536D01*
X633292Y205576D01*
X632943Y204639D01*
X632527Y203729D01*
X632048Y202852D01*
X631507Y202010D01*
X630908Y201210D01*
X630253Y200454D01*
X629546Y199747D01*
X628790Y199092D01*
X627990Y198493D01*
X627148Y197952D01*
X626271Y197473D01*
X625361Y197057D01*
X624424Y196708D01*
X623465Y196426D01*
X622487Y196214D01*
X621498Y196071D01*
X620500Y196000D01*
X619500Y196000D01*
X618503Y196071D01*
X617513Y196214D01*
X616536Y196426D01*
X615576Y196708D01*
X614639Y197057D01*
X613729Y197473D01*
X612852Y197952D01*
X612010Y198493D01*
X611210Y199092D01*
X610454Y199747D01*
X609747Y200454D01*
X609092Y201210D01*
X608493Y202010D01*
X607952Y202852D01*
X607473Y203729D01*
X607057Y204639D01*
X606708Y205576D01*
X606426Y206536D01*
X606214Y207513D01*
X606071Y208503D01*
X606000Y209500D01*
X606000Y210500D01*
X606071Y211498D01*
X606214Y212487D01*
X606426Y213465D01*
X606708Y214424D01*
X607057Y215361D01*
X607473Y216271D01*
X607952Y217148D01*
X608493Y217990D01*
X609092Y218790D01*
X609747Y219546D01*
X610454Y220253D01*
X611210Y220908D01*
X612010Y221507D01*
X612852Y222048D01*
X613729Y222527D01*
X614639Y222943D01*
X615576Y223292D01*
X616536Y223574D01*
X617513Y223786D01*
X618503Y223929D01*
X619500Y224000D01*
X620500Y224000D01*
X621498Y223929D01*
X622487Y223786D01*
X623465Y223574D01*
X624424Y223292D01*
X625361Y222943D01*
X626271Y222527D01*
X627148Y222048D01*
X627990Y221507D01*
X628790Y220908D01*
X629546Y220253D01*
X630253Y219546D01*
X630908Y218790D01*
X631507Y217990D01*
X632048Y217148D01*
X632527Y216271D01*
X632943Y215361D01*
X633292Y214424D01*
X633574Y213465D01*
X633786Y212487D01*
X633929Y211498D01*
X634000Y210500D01*
X634000Y209500D01*
X647850Y888681D02*
X647787Y888045D01*
X647663Y887419D01*
X647477Y886808D01*
X647233Y886218D01*
X646932Y885654D01*
X646577Y885123D01*
X646172Y884630D01*
X645720Y884178D01*
X645227Y883773D01*
X644696Y883418D01*
X644132Y883117D01*
X643542Y882873D01*
X642931Y882687D01*
X642305Y882563D01*
X641669Y882500D01*
X641031Y882500D01*
X640395Y882563D01*
X639769Y882687D01*
X639158Y882873D01*
X638568Y883117D01*
X638004Y883418D01*
X637473Y883773D01*
X636980Y884178D01*
X636528Y884630D01*
X636123Y885123D01*
X635768Y885654D01*
X635467Y886218D01*
X635223Y886808D01*
X635037Y887419D01*
X634913Y888045D01*
X634850Y888681D01*
X634850Y889319D01*
X634913Y889955D01*
X635037Y890581D01*
X635223Y891192D01*
X635467Y891782D01*
X635768Y892346D01*
X636123Y892877D01*
X636528Y893370D01*
X636980Y893822D01*
X637473Y894227D01*
X638004Y894582D01*
X638568Y894883D01*
X639158Y895127D01*
X639769Y895313D01*
X640395Y895437D01*
X641031Y895500D01*
X641669Y895500D01*
X642305Y895437D01*
X642931Y895313D01*
X643542Y895127D01*
X644132Y894883D01*
X644696Y894582D01*
X645227Y894227D01*
X645720Y893822D01*
X646172Y893370D01*
X646577Y892877D01*
X646932Y892346D01*
X647233Y891782D01*
X647477Y891192D01*
X647663Y890581D01*
X647787Y889955D01*
X647850Y889319D01*
X647850Y888681D01*
X647850Y920431D02*
X647787Y919795D01*
X647663Y919169D01*
X647477Y918558D01*
X647233Y917968D01*
X646932Y917404D01*
X646577Y916873D01*
X646172Y916380D01*
X645720Y915928D01*
X645227Y915523D01*
X644696Y915168D01*
X644132Y914867D01*
X643542Y914623D01*
X642931Y914437D01*
X642305Y914313D01*
X641669Y914250D01*
X641031Y914250D01*
X640395Y914313D01*
X639769Y914437D01*
X639158Y914623D01*
X638568Y914867D01*
X638004Y915168D01*
X637473Y915523D01*
X636980Y915928D01*
X636528Y916380D01*
X636123Y916873D01*
X635768Y917404D01*
X635467Y917968D01*
X635223Y918558D01*
X635037Y919169D01*
X634913Y919795D01*
X634850Y920431D01*
X634850Y921069D01*
X634913Y921705D01*
X635037Y922331D01*
X635223Y922942D01*
X635467Y923532D01*
X635768Y924096D01*
X636123Y924627D01*
X636528Y925120D01*
X636980Y925572D01*
X637473Y925977D01*
X638004Y926332D01*
X638568Y926633D01*
X639158Y926877D01*
X639769Y927063D01*
X640395Y927187D01*
X641031Y927250D01*
X641669Y927250D01*
X642305Y927187D01*
X642931Y927063D01*
X643542Y926877D01*
X644132Y926633D01*
X644696Y926332D01*
X645227Y925977D01*
X645720Y925572D01*
X646172Y925120D01*
X646577Y924627D01*
X646932Y924096D01*
X647233Y923532D01*
X647477Y922942D01*
X647663Y922331D01*
X647787Y921705D01*
X647850Y921069D01*
X647850Y920431D01*
X666900Y558481D02*
X666837Y557845D01*
X666713Y557219D01*
X666527Y556608D01*
X666283Y556018D01*
X665982Y555454D01*
X665627Y554923D01*
X665222Y554430D01*
X664770Y553978D01*
X664277Y553573D01*
X663746Y553218D01*
X663182Y552917D01*
X662592Y552673D01*
X661981Y552487D01*
X661355Y552363D01*
X660719Y552300D01*
X660081Y552300D01*
X659445Y552363D01*
X658819Y552487D01*
X658208Y552673D01*
X657618Y552917D01*
X657054Y553218D01*
X656523Y553573D01*
X656030Y553978D01*
X655578Y554430D01*
X655173Y554923D01*
X654818Y555454D01*
X654517Y556018D01*
X654273Y556608D01*
X654087Y557219D01*
X653963Y557845D01*
X653900Y558481D01*
X653900Y559119D01*
X653963Y559755D01*
X654087Y560381D01*
X654273Y560992D01*
X654517Y561582D01*
X654818Y562146D01*
X655173Y562677D01*
X655578Y563170D01*
X656030Y563622D01*
X656523Y564027D01*
X657054Y564382D01*
X657618Y564683D01*
X658208Y564927D01*
X658819Y565113D01*
X659445Y565237D01*
X660081Y565300D01*
X660719Y565300D01*
X661355Y565237D01*
X661981Y565113D01*
X662592Y564927D01*
X663182Y564683D01*
X663746Y564382D01*
X664277Y564027D01*
X664770Y563622D01*
X665222Y563170D01*
X665627Y562677D01*
X665982Y562146D01*
X666283Y561582D01*
X666527Y560992D01*
X666713Y560381D01*
X666837Y559755D01*
X666900Y559119D01*
X666900Y558481D01*
X705000Y558481D02*
X704937Y557845D01*
X704813Y557219D01*
X704627Y556608D01*
X704383Y556018D01*
X704082Y555454D01*
X703727Y554923D01*
X703322Y554430D01*
X702870Y553978D01*
X702377Y553573D01*
X701846Y553218D01*
X701282Y552917D01*
X700692Y552673D01*
X700081Y552487D01*
X699455Y552363D01*
X698819Y552300D01*
X698181Y552300D01*
X697545Y552363D01*
X696919Y552487D01*
X696308Y552673D01*
X695718Y552917D01*
X695154Y553218D01*
X694623Y553573D01*
X694130Y553978D01*
X693678Y554430D01*
X693273Y554923D01*
X692918Y555454D01*
X692617Y556018D01*
X692373Y556608D01*
X692187Y557219D01*
X692063Y557845D01*
X692000Y558481D01*
X692000Y559119D01*
X692063Y559755D01*
X692187Y560381D01*
X692373Y560992D01*
X692617Y561582D01*
X692918Y562146D01*
X693273Y562677D01*
X693678Y563170D01*
X694130Y563622D01*
X694623Y564027D01*
X695154Y564382D01*
X695718Y564683D01*
X696308Y564927D01*
X696919Y565113D01*
X697545Y565237D01*
X698181Y565300D01*
X698819Y565300D01*
X699455Y565237D01*
X700081Y565113D01*
X700692Y564927D01*
X701282Y564683D01*
X701846Y564382D01*
X702377Y564027D01*
X702870Y563622D01*
X703322Y563170D01*
X703727Y562677D01*
X704082Y562146D01*
X704383Y561582D01*
X704627Y560992D01*
X704813Y560381D01*
X704937Y559755D01*
X705000Y559119D01*
X705000Y558481D01*
X824683Y502617D02*
X824620Y501981D01*
X824495Y501355D01*
X824310Y500743D01*
X824066Y500153D01*
X823765Y499590D01*
X823410Y499059D01*
X823005Y498565D01*
X822553Y498114D01*
X822059Y497709D01*
X821528Y497354D01*
X820965Y497053D01*
X820375Y496808D01*
X819764Y496623D01*
X819138Y496498D01*
X818502Y496436D01*
X817863Y496436D01*
X817228Y496498D01*
X816601Y496623D01*
X815990Y496808D01*
X815400Y497053D01*
X814837Y497354D01*
X814306Y497709D01*
X813812Y498114D01*
X813361Y498565D01*
X812955Y499059D01*
X812601Y499590D01*
X812300Y500153D01*
X812055Y500743D01*
X811870Y501355D01*
X811745Y501981D01*
X811683Y502617D01*
X811683Y503255D01*
X811745Y503891D01*
X811870Y504517D01*
X812055Y505128D01*
X812300Y505718D01*
X812601Y506282D01*
X812955Y506813D01*
X813361Y507306D01*
X813812Y507758D01*
X814306Y508163D01*
X814837Y508518D01*
X815400Y508819D01*
X815990Y509063D01*
X816601Y509249D01*
X817228Y509373D01*
X817863Y509436D01*
X818502Y509436D01*
X819138Y509373D01*
X819764Y509249D01*
X820375Y509063D01*
X820965Y508819D01*
X821528Y508518D01*
X822059Y508163D01*
X822553Y507758D01*
X823005Y507306D01*
X823410Y506813D01*
X823765Y506282D01*
X824066Y505718D01*
X824310Y505128D01*
X824495Y504517D01*
X824620Y503891D01*
X824683Y503255D01*
X824683Y502617D01*
X776012Y502617D02*
X775950Y501981D01*
X775825Y501355D01*
X775640Y500743D01*
X775395Y500153D01*
X775094Y499590D01*
X774740Y499059D01*
X774334Y498565D01*
X773883Y498114D01*
X773389Y497709D01*
X772858Y497354D01*
X772295Y497053D01*
X771705Y496808D01*
X771094Y496623D01*
X770467Y496498D01*
X769832Y496436D01*
X769193Y496436D01*
X768557Y496498D01*
X767931Y496623D01*
X767320Y496808D01*
X766730Y497053D01*
X766167Y497354D01*
X765636Y497709D01*
X765142Y498114D01*
X764690Y498565D01*
X764285Y499059D01*
X763930Y499590D01*
X763629Y500153D01*
X763385Y500743D01*
X763200Y501355D01*
X763075Y501981D01*
X763012Y502617D01*
X763012Y503255D01*
X763075Y503891D01*
X763200Y504517D01*
X763385Y505128D01*
X763629Y505718D01*
X763930Y506282D01*
X764285Y506813D01*
X764690Y507306D01*
X765142Y507758D01*
X765636Y508163D01*
X766167Y508518D01*
X766730Y508819D01*
X767320Y509063D01*
X767931Y509249D01*
X768557Y509373D01*
X769193Y509436D01*
X769832Y509436D01*
X770467Y509373D01*
X771094Y509249D01*
X771705Y509063D01*
X772295Y508819D01*
X772858Y508518D01*
X773389Y508163D01*
X773883Y507758D01*
X774334Y507306D01*
X774740Y506813D01*
X775094Y506282D01*
X775395Y505718D01*
X775640Y505128D01*
X775825Y504517D01*
X775950Y503891D01*
X776012Y503255D01*
X776012Y502617D01*
M02*
