G04 EAGLE Gerber X2 export*
%TF.Part,Single*%
%TF.FileFunction,Copper,L1,Top,Mixed*%
%TF.FilePolarity,Positive*%
%TF.GenerationSoftware,Autodesk,EAGLE,9.2.2*%
%TF.CreationDate,2019-06-08T20:53:53Z*%
G75*
%MOMM*%
%FSLAX34Y34*%
%LPD*%
%INTop Copper*%
%AMOC8*
5,1,8,0,0,1.08239X$1,22.5*%
G01*
%ADD10C,1.408000*%
%ADD11R,1.408000X1.408000*%
%ADD12R,1.320800X2.184400*%
%ADD13C,1.955800*%
%ADD14R,1.600000X1.803000*%
%ADD15P,1.429621X8X112.500000*%
%ADD16P,1.429621X8X22.500000*%
%ADD17R,1.270000X1.270000*%
%ADD18R,1.803000X1.600000*%
%ADD19R,1.270000X2.032000*%
%ADD20R,2.032000X1.270000*%
%ADD21C,0.152400*%
%ADD22C,0.756400*%
%ADD23C,0.203200*%


D10*
X298615Y717146D03*
D11*
X298615Y742546D03*
D10*
X339472Y744487D03*
D11*
X339472Y719087D03*
D12*
X601787Y880830D03*
X589057Y836830D03*
X576327Y880830D03*
D13*
X579642Y804522D02*
X599200Y804522D01*
X599200Y779122D02*
X579642Y779122D01*
X579642Y753722D02*
X599200Y753722D01*
X109200Y804522D02*
X89642Y804522D01*
X89642Y779122D02*
X109200Y779122D01*
X109200Y753722D02*
X89642Y753722D01*
X348621Y863661D02*
X348621Y883219D01*
X374021Y883219D02*
X374021Y863661D01*
X399421Y863661D02*
X399421Y883219D01*
D14*
X565495Y713601D03*
X593935Y713601D03*
D15*
X533395Y767642D03*
X514345Y754942D03*
X533395Y742242D03*
D16*
X258461Y720337D03*
X245761Y739387D03*
X233061Y720337D03*
D15*
X204440Y878962D03*
X185390Y866262D03*
X204440Y853562D03*
D14*
X542379Y805644D03*
X513939Y805644D03*
X483797Y712811D03*
X455357Y712811D03*
D17*
X510728Y712430D03*
X536128Y712430D03*
D18*
X486570Y768225D03*
X486570Y739785D03*
D14*
X450903Y854026D03*
X479343Y854026D03*
D17*
X480577Y805295D03*
X455177Y805295D03*
D14*
X321582Y869328D03*
X293142Y869328D03*
D15*
X423322Y765234D03*
X404272Y752534D03*
X423322Y739834D03*
D18*
X376223Y712118D03*
X376223Y740558D03*
D14*
X405090Y712041D03*
X433530Y712041D03*
D18*
X458012Y768085D03*
X458012Y739645D03*
D14*
X427537Y797357D03*
X399097Y797357D03*
D17*
X288636Y770849D03*
X314036Y770849D03*
D18*
X350887Y830336D03*
X350887Y801896D03*
D14*
X286091Y796837D03*
X314531Y796837D03*
X257725Y766564D03*
X229285Y766564D03*
D10*
X246973Y790621D03*
D11*
X246973Y816021D03*
D10*
X208486Y819620D03*
D11*
X208486Y794220D03*
D14*
X150776Y818570D03*
X179216Y818570D03*
D17*
X177047Y794321D03*
X177047Y768921D03*
D14*
X180310Y744151D03*
X151870Y744151D03*
X178589Y715925D03*
X150149Y715925D03*
D18*
X62755Y849417D03*
X62755Y877857D03*
X263686Y850585D03*
X263686Y879025D03*
X235410Y852666D03*
X235410Y881106D03*
X158383Y851625D03*
X158383Y880065D03*
X128169Y881928D03*
X128169Y853488D03*
D17*
X495477Y882452D03*
X520877Y882452D03*
D19*
X508738Y837939D03*
X541758Y837939D03*
X375799Y827955D03*
X408819Y827955D03*
X342060Y770974D03*
X375080Y770974D03*
X318301Y827805D03*
X285281Y827805D03*
X56760Y810298D03*
X23740Y810298D03*
D20*
X29014Y846780D03*
X29014Y879800D03*
X93747Y846786D03*
X93747Y879806D03*
D10*
X298615Y488546D03*
D11*
X298615Y513946D03*
D10*
X339472Y515887D03*
D11*
X339472Y490487D03*
D12*
X601787Y652230D03*
X589057Y608230D03*
X576327Y652230D03*
D13*
X579642Y575922D02*
X599200Y575922D01*
X599200Y550522D02*
X579642Y550522D01*
X579642Y525122D02*
X599200Y525122D01*
X109200Y575922D02*
X89642Y575922D01*
X89642Y550522D02*
X109200Y550522D01*
X109200Y525122D02*
X89642Y525122D01*
X348621Y635061D02*
X348621Y654619D01*
X374021Y654619D02*
X374021Y635061D01*
X399421Y635061D02*
X399421Y654619D01*
D14*
X565495Y485001D03*
X593935Y485001D03*
D15*
X533395Y539042D03*
X514345Y526342D03*
X533395Y513642D03*
D16*
X258461Y491737D03*
X245761Y510787D03*
X233061Y491737D03*
D15*
X204440Y650362D03*
X185390Y637662D03*
X204440Y624962D03*
D14*
X542379Y577044D03*
X513939Y577044D03*
X483797Y484211D03*
X455357Y484211D03*
D17*
X510728Y483830D03*
X536128Y483830D03*
D18*
X486570Y539625D03*
X486570Y511185D03*
D14*
X450903Y625426D03*
X479343Y625426D03*
D17*
X480577Y576695D03*
X455177Y576695D03*
D14*
X321582Y640728D03*
X293142Y640728D03*
D15*
X423322Y536634D03*
X404272Y523934D03*
X423322Y511234D03*
D18*
X376223Y483518D03*
X376223Y511958D03*
D14*
X405090Y483441D03*
X433530Y483441D03*
D18*
X458012Y539485D03*
X458012Y511045D03*
D14*
X427537Y568757D03*
X399097Y568757D03*
D17*
X288636Y542249D03*
X314036Y542249D03*
D18*
X350887Y601736D03*
X350887Y573296D03*
D14*
X286091Y568237D03*
X314531Y568237D03*
X257725Y537964D03*
X229285Y537964D03*
D10*
X246973Y562021D03*
D11*
X246973Y587421D03*
D10*
X208486Y591020D03*
D11*
X208486Y565620D03*
D14*
X150776Y589970D03*
X179216Y589970D03*
D17*
X177047Y565721D03*
X177047Y540321D03*
D14*
X180310Y515551D03*
X151870Y515551D03*
X178589Y487325D03*
X150149Y487325D03*
D18*
X62755Y620817D03*
X62755Y649257D03*
X263686Y621985D03*
X263686Y650425D03*
X235410Y624066D03*
X235410Y652506D03*
X158383Y623025D03*
X158383Y651465D03*
X128169Y653328D03*
X128169Y624888D03*
D17*
X495477Y653852D03*
X520877Y653852D03*
D19*
X508738Y609339D03*
X541758Y609339D03*
X375799Y599355D03*
X408819Y599355D03*
X342060Y542374D03*
X375080Y542374D03*
X318301Y599205D03*
X285281Y599205D03*
X56760Y581698D03*
X23740Y581698D03*
D20*
X29014Y618180D03*
X29014Y651200D03*
X93747Y618186D03*
X93747Y651206D03*
D10*
X298615Y259946D03*
D11*
X298615Y285346D03*
D10*
X339472Y287287D03*
D11*
X339472Y261887D03*
D12*
X601787Y423630D03*
X589057Y379630D03*
X576327Y423630D03*
D13*
X579642Y347322D02*
X599200Y347322D01*
X599200Y321922D02*
X579642Y321922D01*
X579642Y296522D02*
X599200Y296522D01*
X109200Y347322D02*
X89642Y347322D01*
X89642Y321922D02*
X109200Y321922D01*
X109200Y296522D02*
X89642Y296522D01*
X348621Y406461D02*
X348621Y426019D01*
X374021Y426019D02*
X374021Y406461D01*
X399421Y406461D02*
X399421Y426019D01*
D14*
X565495Y256401D03*
X593935Y256401D03*
D15*
X533395Y310442D03*
X514345Y297742D03*
X533395Y285042D03*
D16*
X258461Y263137D03*
X245761Y282187D03*
X233061Y263137D03*
D15*
X204440Y421762D03*
X185390Y409062D03*
X204440Y396362D03*
D14*
X542379Y348444D03*
X513939Y348444D03*
X483797Y255611D03*
X455357Y255611D03*
D17*
X510728Y255230D03*
X536128Y255230D03*
D18*
X486570Y311025D03*
X486570Y282585D03*
D14*
X450903Y396826D03*
X479343Y396826D03*
D17*
X480577Y348095D03*
X455177Y348095D03*
D14*
X321582Y412128D03*
X293142Y412128D03*
D15*
X423322Y308034D03*
X404272Y295334D03*
X423322Y282634D03*
D18*
X376223Y254918D03*
X376223Y283358D03*
D14*
X405090Y254841D03*
X433530Y254841D03*
D18*
X458012Y310885D03*
X458012Y282445D03*
D14*
X427537Y340157D03*
X399097Y340157D03*
D17*
X288636Y313649D03*
X314036Y313649D03*
D18*
X350887Y373136D03*
X350887Y344696D03*
D14*
X286091Y339637D03*
X314531Y339637D03*
X257725Y309364D03*
X229285Y309364D03*
D10*
X246973Y333421D03*
D11*
X246973Y358821D03*
D10*
X208486Y362420D03*
D11*
X208486Y337020D03*
D14*
X150776Y361370D03*
X179216Y361370D03*
D17*
X177047Y337121D03*
X177047Y311721D03*
D14*
X180310Y286951D03*
X151870Y286951D03*
X178589Y258725D03*
X150149Y258725D03*
D18*
X62755Y392217D03*
X62755Y420657D03*
X263686Y393385D03*
X263686Y421825D03*
X235410Y395466D03*
X235410Y423906D03*
X158383Y394425D03*
X158383Y422865D03*
X128169Y424728D03*
X128169Y396288D03*
D17*
X495477Y425252D03*
X520877Y425252D03*
D19*
X508738Y380739D03*
X541758Y380739D03*
X375799Y370755D03*
X408819Y370755D03*
X342060Y313774D03*
X375080Y313774D03*
X318301Y370605D03*
X285281Y370605D03*
X56760Y353098D03*
X23740Y353098D03*
D20*
X29014Y389580D03*
X29014Y422600D03*
X93747Y389586D03*
X93747Y422606D03*
D10*
X298615Y31346D03*
D11*
X298615Y56746D03*
D10*
X339472Y58687D03*
D11*
X339472Y33287D03*
D12*
X601787Y195030D03*
X589057Y151030D03*
X576327Y195030D03*
D13*
X579642Y118722D02*
X599200Y118722D01*
X599200Y93322D02*
X579642Y93322D01*
X579642Y67922D02*
X599200Y67922D01*
X109200Y118722D02*
X89642Y118722D01*
X89642Y93322D02*
X109200Y93322D01*
X109200Y67922D02*
X89642Y67922D01*
X348621Y177861D02*
X348621Y197419D01*
X374021Y197419D02*
X374021Y177861D01*
X399421Y177861D02*
X399421Y197419D01*
D14*
X565495Y27801D03*
X593935Y27801D03*
D15*
X533395Y81842D03*
X514345Y69142D03*
X533395Y56442D03*
D16*
X258461Y34537D03*
X245761Y53587D03*
X233061Y34537D03*
D15*
X204440Y193162D03*
X185390Y180462D03*
X204440Y167762D03*
D14*
X542379Y119844D03*
X513939Y119844D03*
X483797Y27011D03*
X455357Y27011D03*
D17*
X510728Y26630D03*
X536128Y26630D03*
D18*
X486570Y82425D03*
X486570Y53985D03*
D14*
X450903Y168226D03*
X479343Y168226D03*
D17*
X480577Y119495D03*
X455177Y119495D03*
D14*
X321582Y183528D03*
X293142Y183528D03*
D15*
X423322Y79434D03*
X404272Y66734D03*
X423322Y54034D03*
D18*
X376223Y26318D03*
X376223Y54758D03*
D14*
X405090Y26241D03*
X433530Y26241D03*
D18*
X458012Y82285D03*
X458012Y53845D03*
D14*
X427537Y111557D03*
X399097Y111557D03*
D17*
X288636Y85049D03*
X314036Y85049D03*
D18*
X350887Y144536D03*
X350887Y116096D03*
D14*
X286091Y111037D03*
X314531Y111037D03*
X257725Y80764D03*
X229285Y80764D03*
D10*
X246973Y104821D03*
D11*
X246973Y130221D03*
D10*
X208486Y133820D03*
D11*
X208486Y108420D03*
D14*
X150776Y132770D03*
X179216Y132770D03*
D17*
X177047Y108521D03*
X177047Y83121D03*
D14*
X180310Y58351D03*
X151870Y58351D03*
X178589Y30125D03*
X150149Y30125D03*
D18*
X62755Y163617D03*
X62755Y192057D03*
X263686Y164785D03*
X263686Y193225D03*
X235410Y166866D03*
X235410Y195306D03*
X158383Y165825D03*
X158383Y194265D03*
X128169Y196128D03*
X128169Y167688D03*
D17*
X495477Y196652D03*
X520877Y196652D03*
D19*
X508738Y152139D03*
X541758Y152139D03*
X375799Y142155D03*
X408819Y142155D03*
X342060Y85174D03*
X375080Y85174D03*
X318301Y142005D03*
X285281Y142005D03*
X56760Y124498D03*
X23740Y124498D03*
D20*
X29014Y160980D03*
X29014Y194000D03*
X93747Y160986D03*
X93747Y194006D03*
D21*
X150876Y852424D02*
X156972Y852424D01*
X150876Y852424D02*
X138684Y864616D01*
X118872Y864616D01*
X106680Y852424D01*
X106680Y838708D01*
X76200Y808228D01*
X76200Y774700D01*
X96012Y754888D01*
X99060Y754888D01*
X156972Y852424D02*
X158383Y851625D01*
X99060Y754888D02*
X99421Y753722D01*
X150876Y818896D02*
X158496Y818896D01*
X178308Y838708D01*
X272796Y838708D01*
X275844Y841756D01*
X275844Y860044D01*
X274320Y861568D01*
X243840Y861568D01*
X236220Y853948D01*
X150876Y818896D02*
X150776Y818570D01*
X235410Y852666D02*
X236220Y853948D01*
X335280Y831088D02*
X350520Y831088D01*
X335280Y831088D02*
X324612Y841756D01*
X275844Y841756D01*
X350520Y831088D02*
X350887Y830336D01*
X451104Y826516D02*
X451104Y853948D01*
X451104Y826516D02*
X464820Y812800D01*
X464820Y797560D01*
X463296Y796036D01*
X448056Y796036D01*
X438912Y805180D01*
X438912Y823468D01*
X417576Y844804D01*
X400812Y844804D01*
X385572Y829564D01*
X385572Y817372D01*
X382524Y814324D01*
X367284Y814324D01*
X352044Y829564D01*
X450903Y854026D02*
X451104Y853948D01*
X352044Y829564D02*
X350887Y830336D01*
X100584Y753364D02*
X100584Y744220D01*
X140208Y704596D01*
X160020Y704596D01*
X163068Y707644D01*
X163068Y814324D01*
X158496Y818896D01*
X100584Y753364D02*
X99421Y753722D01*
X150776Y818570D02*
X158496Y818896D01*
X576072Y879856D02*
X576226Y880445D01*
X576327Y880830D01*
D22*
X428494Y870406D03*
D23*
X565594Y869813D02*
X576226Y880445D01*
X565594Y869813D02*
X429087Y869813D01*
X428494Y870406D01*
D21*
X589788Y835660D02*
X589788Y805180D01*
X589788Y835660D02*
X589057Y836830D01*
X589788Y805180D02*
X589421Y804522D01*
X592836Y750316D02*
X592836Y713740D01*
X592836Y750316D02*
X589788Y753364D01*
X592836Y713740D02*
X593935Y713601D01*
X589788Y753364D02*
X589421Y753722D01*
X589788Y754888D02*
X589788Y777748D01*
X589421Y779122D01*
X589788Y754888D02*
X589421Y753722D01*
X454152Y806704D02*
X454152Y818896D01*
X400812Y872236D01*
X454152Y806704D02*
X455177Y805295D01*
X400812Y872236D02*
X399421Y873440D01*
X374904Y415036D02*
X374904Y370840D01*
X375799Y370755D01*
X374904Y415036D02*
X374021Y416240D01*
X345948Y870712D02*
X323088Y870712D01*
X345948Y870712D02*
X347472Y872236D01*
X323088Y870712D02*
X321582Y869328D01*
X347472Y872236D02*
X348621Y873440D01*
X536448Y712216D02*
X565404Y712216D01*
X536448Y712216D02*
X536128Y712430D01*
X565404Y712216D02*
X565495Y713601D01*
X480060Y806704D02*
X480060Y853948D01*
X480060Y806704D02*
X480577Y805295D01*
X480060Y853948D02*
X479343Y854026D01*
X542544Y837184D02*
X542544Y806704D01*
X542379Y805644D01*
X542544Y837184D02*
X541758Y837939D01*
X533400Y797560D02*
X533400Y792988D01*
X533400Y768604D01*
X533400Y797560D02*
X541020Y805180D01*
X533400Y768604D02*
X533395Y767642D01*
X541020Y805180D02*
X542379Y805644D01*
X493776Y805180D02*
X481584Y805180D01*
X493776Y805180D02*
X505968Y792988D01*
X533400Y792988D01*
X481584Y805180D02*
X480577Y805295D01*
X513588Y806704D02*
X513588Y832612D01*
X509016Y837184D01*
X513588Y806704D02*
X513939Y805644D01*
X509016Y837184D02*
X508738Y837939D01*
X510540Y712216D02*
X484632Y712216D01*
X510540Y712216D02*
X510728Y712430D01*
X484632Y712216D02*
X483797Y712811D01*
X512064Y713740D02*
X518160Y713740D01*
X542544Y738124D01*
X542544Y745744D01*
X533400Y754888D01*
X515112Y754888D01*
X512064Y713740D02*
X510728Y712430D01*
X514345Y754942D02*
X515112Y754888D01*
X516636Y832612D02*
X513588Y832612D01*
X516636Y832612D02*
X534924Y850900D01*
X548640Y850900D01*
X553212Y846328D01*
X553212Y774700D01*
X533400Y754888D01*
X513588Y832612D02*
X508738Y837939D01*
X454152Y712216D02*
X434340Y712216D01*
X433530Y712041D01*
X454152Y712216D02*
X455357Y712811D01*
X457200Y715264D02*
X457200Y725932D01*
X457200Y738124D01*
X457200Y715264D02*
X455676Y713740D01*
X457200Y738124D02*
X458012Y739645D01*
X455676Y713740D02*
X455357Y712811D01*
X458724Y739648D02*
X486156Y739648D01*
X486570Y739785D01*
X458724Y739648D02*
X458012Y739645D01*
X284988Y878332D02*
X265176Y878332D01*
X284988Y878332D02*
X292608Y870712D01*
X265176Y878332D02*
X263686Y879025D01*
X292608Y870712D02*
X293142Y869328D01*
X150876Y742696D02*
X150876Y716788D01*
X150149Y715925D01*
X150876Y742696D02*
X151870Y744151D01*
X128016Y832612D02*
X128016Y840232D01*
X128016Y852424D01*
X128016Y832612D02*
X100584Y805180D01*
X128016Y852424D02*
X128169Y853488D01*
X150876Y754888D02*
X150876Y744220D01*
X150876Y754888D02*
X100584Y805180D01*
X150876Y744220D02*
X151870Y744151D01*
X100584Y805180D02*
X99421Y804522D01*
X252984Y878332D02*
X263652Y878332D01*
X252984Y878332D02*
X237744Y863092D01*
X195072Y863092D01*
X172212Y840232D01*
X128016Y840232D01*
X263652Y878332D02*
X263686Y879025D01*
X457200Y725932D02*
X467868Y725932D01*
D22*
X467868Y725932D03*
D21*
X487680Y767080D02*
X512064Y742696D01*
X531876Y742696D01*
X487680Y767080D02*
X486570Y768225D01*
X531876Y742696D02*
X533395Y742242D01*
X457200Y767080D02*
X449580Y767080D01*
X423672Y741172D01*
X457200Y767080D02*
X458012Y768085D01*
X423672Y741172D02*
X423322Y739834D01*
X338328Y718312D02*
X298704Y718312D01*
X298615Y717146D01*
X338328Y718312D02*
X339472Y719087D01*
X426720Y768604D02*
X426720Y796036D01*
X426720Y768604D02*
X423672Y765556D01*
X426720Y796036D02*
X427537Y797357D01*
X423672Y765556D02*
X423322Y765234D01*
X350520Y802132D02*
X342900Y802132D01*
X318516Y826516D01*
X350520Y802132D02*
X350887Y801896D01*
X318516Y826516D02*
X318301Y827805D01*
X376428Y771652D02*
X394716Y771652D01*
X409956Y786892D01*
X409956Y808228D01*
X408432Y809752D01*
X399288Y809752D02*
X359664Y809752D01*
X399288Y809752D02*
X408432Y809752D01*
X359664Y809752D02*
X352044Y802132D01*
X375080Y770974D02*
X376428Y771652D01*
X352044Y802132D02*
X350887Y801896D01*
X426720Y797560D02*
X426720Y831088D01*
X416052Y841756D01*
X402336Y841756D01*
X399288Y838708D01*
X399288Y809752D01*
X426720Y797560D02*
X427537Y797357D01*
X348996Y718312D02*
X339852Y718312D01*
X348996Y718312D02*
X367284Y700024D01*
X414528Y700024D01*
X416052Y701548D01*
X416052Y733552D01*
X413004Y736600D01*
X413004Y747268D01*
X422148Y756412D01*
X422148Y764032D01*
X339472Y719087D02*
X339852Y718312D01*
X422148Y764032D02*
X423322Y765234D01*
X403860Y712216D02*
X376428Y712216D01*
X376223Y712118D01*
X405090Y712041D02*
X405384Y712216D01*
X403860Y712216D02*
X403860Y751840D01*
X404272Y752534D01*
X403860Y712216D02*
X405090Y712041D01*
X341376Y771652D02*
X315468Y771652D01*
X314036Y770849D01*
X341376Y771652D02*
X342060Y770974D01*
X367284Y796036D02*
X397764Y796036D01*
X367284Y796036D02*
X342900Y771652D01*
X397764Y796036D02*
X399097Y797357D01*
X342900Y771652D02*
X342060Y770974D01*
X374904Y721360D02*
X374904Y712216D01*
X374904Y721360D02*
X348996Y747268D01*
X348996Y764032D01*
X342900Y770128D01*
X374904Y712216D02*
X376223Y712118D01*
X342900Y770128D02*
X342060Y770974D01*
X289560Y770128D02*
X289560Y750316D01*
X297180Y742696D01*
X289560Y770128D02*
X288636Y770849D01*
X297180Y742696D02*
X298615Y742546D01*
X300228Y744220D02*
X338328Y744220D01*
X300228Y744220D02*
X298704Y742696D01*
X338328Y744220D02*
X339472Y744487D01*
X298704Y742696D02*
X298615Y742546D01*
X207264Y818896D02*
X179832Y818896D01*
X179216Y818570D01*
X207264Y818896D02*
X208486Y819620D01*
X210312Y817372D02*
X246888Y817372D01*
X210312Y817372D02*
X208788Y818896D01*
X246888Y817372D02*
X246973Y816021D01*
X208788Y818896D02*
X208486Y819620D01*
X24384Y811276D02*
X24384Y841756D01*
X28956Y846328D01*
X24384Y811276D02*
X23740Y810298D01*
X28956Y846328D02*
X29014Y846780D01*
X257556Y765556D02*
X257556Y721360D01*
X257556Y765556D02*
X257725Y766564D01*
X257556Y721360D02*
X258461Y720337D01*
X24384Y796036D02*
X24384Y809752D01*
X24384Y796036D02*
X121920Y698500D01*
X236220Y698500D01*
X257556Y719836D01*
X24384Y809752D02*
X23740Y810298D01*
X257556Y719836D02*
X258461Y720337D01*
X248412Y815848D02*
X277368Y815848D01*
X284988Y808228D01*
X295656Y808228D01*
X297180Y806704D01*
X297180Y786892D01*
X291084Y780796D01*
X272796Y780796D01*
X259080Y767080D01*
X248412Y815848D02*
X246973Y816021D01*
X259080Y767080D02*
X257725Y766564D01*
X207264Y794512D02*
X178308Y794512D01*
X177047Y794321D01*
X207264Y794512D02*
X208486Y794220D01*
X210312Y791464D02*
X246888Y791464D01*
X210312Y791464D02*
X208788Y792988D01*
X246888Y791464D02*
X246973Y790621D01*
X208788Y792988D02*
X208486Y794220D01*
X230124Y765556D02*
X230124Y754888D01*
X245364Y739648D01*
X230124Y765556D02*
X229285Y766564D01*
X245364Y739648D02*
X245761Y739387D01*
X266700Y796036D02*
X284988Y796036D01*
X266700Y796036D02*
X237744Y767080D01*
X230124Y767080D01*
X284988Y796036D02*
X286091Y796837D01*
X230124Y767080D02*
X229285Y766564D01*
X178308Y767080D02*
X178308Y745744D01*
X178308Y767080D02*
X178308Y768604D01*
X178308Y745744D02*
X179832Y744220D01*
X178308Y768604D02*
X177047Y768921D01*
X179832Y744220D02*
X180310Y744151D01*
X57912Y767080D02*
X57912Y809752D01*
X57912Y767080D02*
X123444Y701548D01*
X161544Y701548D01*
X167640Y707644D01*
X167640Y730504D01*
X179832Y742696D01*
X57912Y809752D02*
X56760Y810298D01*
X180310Y744151D02*
X179832Y742696D01*
X178308Y767080D02*
X228600Y767080D01*
X229285Y766564D01*
X178308Y767080D02*
X177047Y768921D01*
X179832Y716788D02*
X228600Y716788D01*
X231648Y719836D01*
X179832Y716788D02*
X178589Y715925D01*
X231648Y719836D02*
X233061Y720337D01*
X156972Y881380D02*
X129540Y881380D01*
X128169Y881928D01*
X156972Y881380D02*
X158383Y880065D01*
X126492Y879856D02*
X94488Y879856D01*
X126492Y879856D02*
X128016Y881380D01*
X94488Y879856D02*
X93747Y879806D01*
X128016Y881380D02*
X128169Y881928D01*
X170688Y867664D02*
X184404Y867664D01*
X170688Y867664D02*
X158496Y879856D01*
X184404Y867664D02*
X185390Y866262D01*
X158496Y879856D02*
X158383Y880065D01*
X252984Y849376D02*
X263652Y849376D01*
X252984Y849376D02*
X245364Y841756D01*
X216408Y841756D01*
X205740Y852424D01*
X263686Y850585D02*
X263652Y849376D01*
X205740Y852424D02*
X204440Y853562D01*
X417576Y882904D02*
X495300Y882904D01*
X417576Y882904D02*
X403860Y896620D01*
X251460Y896620D01*
X236220Y881380D01*
X495300Y882904D02*
X495477Y882452D01*
X236220Y881380D02*
X235410Y881106D01*
X234696Y879856D02*
X205740Y879856D01*
X204440Y878962D01*
X234696Y879856D02*
X235410Y881106D01*
X521208Y882904D02*
X556260Y882904D01*
X568452Y895096D01*
X586740Y895096D01*
X600456Y881380D01*
X521208Y882904D02*
X520877Y882452D01*
X600456Y881380D02*
X601787Y880830D01*
X376428Y748792D02*
X376428Y741172D01*
X376428Y748792D02*
X413004Y785368D01*
X413004Y823468D01*
X409956Y826516D01*
X376428Y741172D02*
X376223Y740558D01*
X409956Y826516D02*
X408819Y827955D01*
X313944Y797560D02*
X284988Y826516D01*
X313944Y797560D02*
X314531Y796837D01*
X284988Y826516D02*
X285281Y827805D01*
X62484Y878332D02*
X30480Y878332D01*
X62484Y878332D02*
X62755Y877857D01*
X30480Y878332D02*
X29014Y879800D01*
X64008Y849376D02*
X91440Y849376D01*
X92964Y847852D01*
X64008Y849376D02*
X62755Y849417D01*
X92964Y847852D02*
X93747Y846786D01*
X150876Y623824D02*
X156972Y623824D01*
X150876Y623824D02*
X138684Y636016D01*
X118872Y636016D01*
X106680Y623824D01*
X106680Y610108D01*
X76200Y579628D01*
X76200Y546100D01*
X96012Y526288D01*
X99060Y526288D01*
X156972Y623824D02*
X158383Y623025D01*
X99060Y526288D02*
X99421Y525122D01*
X150876Y590296D02*
X158496Y590296D01*
X178308Y610108D01*
X272796Y610108D01*
X275844Y613156D01*
X275844Y631444D01*
X274320Y632968D01*
X243840Y632968D01*
X236220Y625348D01*
X150876Y590296D02*
X150776Y589970D01*
X235410Y624066D02*
X236220Y625348D01*
X335280Y602488D02*
X350520Y602488D01*
X335280Y602488D02*
X324612Y613156D01*
X275844Y613156D01*
X350520Y602488D02*
X350887Y601736D01*
X451104Y597916D02*
X451104Y625348D01*
X451104Y597916D02*
X464820Y584200D01*
X464820Y568960D01*
X463296Y567436D01*
X448056Y567436D01*
X438912Y576580D01*
X438912Y594868D01*
X417576Y616204D01*
X400812Y616204D01*
X385572Y600964D01*
X385572Y588772D01*
X382524Y585724D01*
X367284Y585724D01*
X352044Y600964D01*
X450903Y625426D02*
X451104Y625348D01*
X352044Y600964D02*
X350887Y601736D01*
X100584Y524764D02*
X100584Y515620D01*
X140208Y475996D01*
X160020Y475996D01*
X163068Y479044D01*
X163068Y585724D01*
X158496Y590296D01*
X100584Y524764D02*
X99421Y525122D01*
X150776Y589970D02*
X158496Y590296D01*
X576072Y651256D02*
X576226Y651845D01*
X576327Y652230D01*
D22*
X428494Y641806D03*
D23*
X565594Y641213D02*
X576226Y651845D01*
X565594Y641213D02*
X429087Y641213D01*
X428494Y641806D01*
D21*
X589788Y607060D02*
X589788Y576580D01*
X589788Y607060D02*
X589057Y608230D01*
X589788Y576580D02*
X589421Y575922D01*
X592836Y521716D02*
X592836Y485140D01*
X592836Y521716D02*
X589788Y524764D01*
X592836Y485140D02*
X593935Y485001D01*
X589788Y524764D02*
X589421Y525122D01*
X589788Y526288D02*
X589788Y549148D01*
X589421Y550522D01*
X589788Y526288D02*
X589421Y525122D01*
X454152Y578104D02*
X454152Y590296D01*
X400812Y643636D01*
X454152Y578104D02*
X455177Y576695D01*
X400812Y643636D02*
X399421Y644840D01*
X374904Y643636D02*
X374904Y599440D01*
X375799Y599355D01*
X374904Y643636D02*
X374021Y644840D01*
X345948Y642112D02*
X323088Y642112D01*
X345948Y642112D02*
X347472Y643636D01*
X323088Y642112D02*
X321582Y640728D01*
X347472Y643636D02*
X348621Y644840D01*
X536448Y483616D02*
X565404Y483616D01*
X536448Y483616D02*
X536128Y483830D01*
X565404Y483616D02*
X565495Y485001D01*
X480060Y578104D02*
X480060Y625348D01*
X480060Y578104D02*
X480577Y576695D01*
X480060Y625348D02*
X479343Y625426D01*
X542544Y608584D02*
X542544Y578104D01*
X542379Y577044D01*
X542544Y608584D02*
X541758Y609339D01*
X533400Y568960D02*
X533400Y564388D01*
X533400Y540004D01*
X533400Y568960D02*
X541020Y576580D01*
X533400Y540004D02*
X533395Y539042D01*
X541020Y576580D02*
X542379Y577044D01*
X493776Y576580D02*
X481584Y576580D01*
X493776Y576580D02*
X505968Y564388D01*
X533400Y564388D01*
X481584Y576580D02*
X480577Y576695D01*
X513588Y578104D02*
X513588Y604012D01*
X509016Y608584D01*
X513588Y578104D02*
X513939Y577044D01*
X509016Y608584D02*
X508738Y609339D01*
X510540Y483616D02*
X484632Y483616D01*
X510540Y483616D02*
X510728Y483830D01*
X484632Y483616D02*
X483797Y484211D01*
X512064Y485140D02*
X518160Y485140D01*
X542544Y509524D01*
X542544Y517144D01*
X533400Y526288D01*
X515112Y526288D01*
X512064Y485140D02*
X510728Y483830D01*
X514345Y526342D02*
X515112Y526288D01*
X516636Y604012D02*
X513588Y604012D01*
X516636Y604012D02*
X534924Y622300D01*
X548640Y622300D01*
X553212Y617728D01*
X553212Y546100D01*
X533400Y526288D01*
X513588Y604012D02*
X508738Y609339D01*
X454152Y483616D02*
X434340Y483616D01*
X433530Y483441D01*
X454152Y483616D02*
X455357Y484211D01*
X457200Y486664D02*
X457200Y497332D01*
X457200Y509524D01*
X457200Y486664D02*
X455676Y485140D01*
X457200Y509524D02*
X458012Y511045D01*
X455676Y485140D02*
X455357Y484211D01*
X458724Y511048D02*
X486156Y511048D01*
X486570Y511185D01*
X458724Y511048D02*
X458012Y511045D01*
X284988Y649732D02*
X265176Y649732D01*
X284988Y649732D02*
X292608Y642112D01*
X265176Y649732D02*
X263686Y650425D01*
X292608Y642112D02*
X293142Y640728D01*
X150876Y514096D02*
X150876Y488188D01*
X150149Y487325D01*
X150876Y514096D02*
X151870Y515551D01*
X128016Y604012D02*
X128016Y611632D01*
X128016Y623824D01*
X128016Y604012D02*
X100584Y576580D01*
X128016Y623824D02*
X128169Y624888D01*
X150876Y526288D02*
X150876Y515620D01*
X150876Y526288D02*
X100584Y576580D01*
X150876Y515620D02*
X151870Y515551D01*
X100584Y576580D02*
X99421Y575922D01*
X252984Y649732D02*
X263652Y649732D01*
X252984Y649732D02*
X237744Y634492D01*
X195072Y634492D01*
X172212Y611632D01*
X128016Y611632D01*
X263652Y649732D02*
X263686Y650425D01*
X457200Y497332D02*
X467868Y497332D01*
D22*
X467868Y497332D03*
D21*
X487680Y538480D02*
X512064Y514096D01*
X531876Y514096D01*
X487680Y538480D02*
X486570Y539625D01*
X531876Y514096D02*
X533395Y513642D01*
X457200Y538480D02*
X449580Y538480D01*
X423672Y512572D01*
X457200Y538480D02*
X458012Y539485D01*
X423672Y512572D02*
X423322Y511234D01*
X338328Y489712D02*
X298704Y489712D01*
X298615Y488546D01*
X338328Y489712D02*
X339472Y490487D01*
X426720Y540004D02*
X426720Y567436D01*
X426720Y540004D02*
X423672Y536956D01*
X426720Y567436D02*
X427537Y568757D01*
X423672Y536956D02*
X423322Y536634D01*
X350520Y573532D02*
X342900Y573532D01*
X318516Y597916D01*
X350520Y573532D02*
X350887Y573296D01*
X318516Y597916D02*
X318301Y599205D01*
X376428Y543052D02*
X394716Y543052D01*
X409956Y558292D01*
X409956Y579628D01*
X408432Y581152D01*
X399288Y581152D02*
X359664Y581152D01*
X399288Y581152D02*
X408432Y581152D01*
X359664Y581152D02*
X352044Y573532D01*
X375080Y542374D02*
X376428Y543052D01*
X352044Y573532D02*
X350887Y573296D01*
X426720Y568960D02*
X426720Y602488D01*
X416052Y613156D01*
X402336Y613156D01*
X399288Y610108D01*
X399288Y581152D01*
X426720Y568960D02*
X427537Y568757D01*
X348996Y489712D02*
X339852Y489712D01*
X348996Y489712D02*
X367284Y471424D01*
X414528Y471424D01*
X416052Y472948D01*
X416052Y504952D01*
X413004Y508000D01*
X413004Y518668D01*
X422148Y527812D01*
X422148Y535432D01*
X339472Y490487D02*
X339852Y489712D01*
X422148Y535432D02*
X423322Y536634D01*
X403860Y483616D02*
X376428Y483616D01*
X376223Y483518D01*
X405090Y483441D02*
X405384Y483616D01*
X403860Y483616D02*
X403860Y523240D01*
X404272Y523934D01*
X403860Y483616D02*
X405090Y483441D01*
X341376Y543052D02*
X315468Y543052D01*
X314036Y542249D01*
X341376Y543052D02*
X342060Y542374D01*
X367284Y567436D02*
X397764Y567436D01*
X367284Y567436D02*
X342900Y543052D01*
X397764Y567436D02*
X399097Y568757D01*
X342900Y543052D02*
X342060Y542374D01*
X374904Y492760D02*
X374904Y483616D01*
X374904Y492760D02*
X348996Y518668D01*
X348996Y535432D01*
X342900Y541528D01*
X374904Y483616D02*
X376223Y483518D01*
X342900Y541528D02*
X342060Y542374D01*
X289560Y541528D02*
X289560Y521716D01*
X297180Y514096D01*
X289560Y541528D02*
X288636Y542249D01*
X297180Y514096D02*
X298615Y513946D01*
X300228Y515620D02*
X338328Y515620D01*
X300228Y515620D02*
X298704Y514096D01*
X338328Y515620D02*
X339472Y515887D01*
X298704Y514096D02*
X298615Y513946D01*
X207264Y590296D02*
X179832Y590296D01*
X179216Y589970D01*
X207264Y590296D02*
X208486Y591020D01*
X210312Y588772D02*
X246888Y588772D01*
X210312Y588772D02*
X208788Y590296D01*
X246888Y588772D02*
X246973Y587421D01*
X208788Y590296D02*
X208486Y591020D01*
X24384Y582676D02*
X24384Y613156D01*
X28956Y617728D01*
X24384Y582676D02*
X23740Y581698D01*
X28956Y617728D02*
X29014Y618180D01*
X257556Y536956D02*
X257556Y492760D01*
X257556Y536956D02*
X257725Y537964D01*
X257556Y492760D02*
X258461Y491737D01*
X24384Y567436D02*
X24384Y581152D01*
X24384Y567436D02*
X121920Y469900D01*
X236220Y469900D01*
X257556Y491236D01*
X24384Y581152D02*
X23740Y581698D01*
X257556Y491236D02*
X258461Y491737D01*
X248412Y587248D02*
X277368Y587248D01*
X284988Y579628D01*
X295656Y579628D01*
X297180Y578104D01*
X297180Y558292D01*
X291084Y552196D01*
X272796Y552196D01*
X259080Y538480D01*
X248412Y587248D02*
X246973Y587421D01*
X259080Y538480D02*
X257725Y537964D01*
X207264Y565912D02*
X178308Y565912D01*
X177047Y565721D01*
X207264Y565912D02*
X208486Y565620D01*
X210312Y562864D02*
X246888Y562864D01*
X210312Y562864D02*
X208788Y564388D01*
X246888Y562864D02*
X246973Y562021D01*
X208788Y564388D02*
X208486Y565620D01*
X230124Y536956D02*
X230124Y526288D01*
X245364Y511048D01*
X230124Y536956D02*
X229285Y537964D01*
X245364Y511048D02*
X245761Y510787D01*
X266700Y567436D02*
X284988Y567436D01*
X266700Y567436D02*
X237744Y538480D01*
X230124Y538480D01*
X284988Y567436D02*
X286091Y568237D01*
X230124Y538480D02*
X229285Y537964D01*
X178308Y538480D02*
X178308Y517144D01*
X178308Y538480D02*
X178308Y540004D01*
X178308Y517144D02*
X179832Y515620D01*
X178308Y540004D02*
X177047Y540321D01*
X179832Y515620D02*
X180310Y515551D01*
X57912Y538480D02*
X57912Y581152D01*
X57912Y538480D02*
X123444Y472948D01*
X161544Y472948D01*
X167640Y479044D01*
X167640Y501904D01*
X179832Y514096D01*
X57912Y581152D02*
X56760Y581698D01*
X180310Y515551D02*
X179832Y514096D01*
X178308Y538480D02*
X228600Y538480D01*
X229285Y537964D01*
X178308Y538480D02*
X177047Y540321D01*
X179832Y488188D02*
X228600Y488188D01*
X231648Y491236D01*
X179832Y488188D02*
X178589Y487325D01*
X231648Y491236D02*
X233061Y491737D01*
X156972Y652780D02*
X129540Y652780D01*
X128169Y653328D01*
X156972Y652780D02*
X158383Y651465D01*
X126492Y651256D02*
X94488Y651256D01*
X126492Y651256D02*
X128016Y652780D01*
X94488Y651256D02*
X93747Y651206D01*
X128016Y652780D02*
X128169Y653328D01*
X170688Y639064D02*
X184404Y639064D01*
X170688Y639064D02*
X158496Y651256D01*
X184404Y639064D02*
X185390Y637662D01*
X158496Y651256D02*
X158383Y651465D01*
X252984Y620776D02*
X263652Y620776D01*
X252984Y620776D02*
X245364Y613156D01*
X216408Y613156D01*
X205740Y623824D01*
X263686Y621985D02*
X263652Y620776D01*
X205740Y623824D02*
X204440Y624962D01*
X417576Y654304D02*
X495300Y654304D01*
X417576Y654304D02*
X403860Y668020D01*
X251460Y668020D01*
X236220Y652780D01*
X495300Y654304D02*
X495477Y653852D01*
X236220Y652780D02*
X235410Y652506D01*
X234696Y651256D02*
X205740Y651256D01*
X204440Y650362D01*
X234696Y651256D02*
X235410Y652506D01*
X521208Y654304D02*
X556260Y654304D01*
X568452Y666496D01*
X586740Y666496D01*
X600456Y652780D01*
X521208Y654304D02*
X520877Y653852D01*
X600456Y652780D02*
X601787Y652230D01*
X376428Y520192D02*
X376428Y512572D01*
X376428Y520192D02*
X413004Y556768D01*
X413004Y594868D01*
X409956Y597916D01*
X376428Y512572D02*
X376223Y511958D01*
X409956Y597916D02*
X408819Y599355D01*
X313944Y568960D02*
X284988Y597916D01*
X313944Y568960D02*
X314531Y568237D01*
X284988Y597916D02*
X285281Y599205D01*
X62484Y649732D02*
X30480Y649732D01*
X62484Y649732D02*
X62755Y649257D01*
X30480Y649732D02*
X29014Y651200D01*
X64008Y620776D02*
X91440Y620776D01*
X92964Y619252D01*
X64008Y620776D02*
X62755Y620817D01*
X92964Y619252D02*
X93747Y618186D01*
X150876Y395224D02*
X156972Y395224D01*
X150876Y395224D02*
X138684Y407416D01*
X118872Y407416D01*
X106680Y395224D01*
X106680Y381508D01*
X76200Y351028D01*
X76200Y317500D01*
X96012Y297688D01*
X99060Y297688D01*
X156972Y395224D02*
X158383Y394425D01*
X99060Y297688D02*
X99421Y296522D01*
X150876Y361696D02*
X158496Y361696D01*
X178308Y381508D01*
X272796Y381508D01*
X275844Y384556D01*
X275844Y402844D01*
X274320Y404368D01*
X243840Y404368D01*
X236220Y396748D01*
X150876Y361696D02*
X150776Y361370D01*
X235410Y395466D02*
X236220Y396748D01*
X335280Y373888D02*
X350520Y373888D01*
X335280Y373888D02*
X324612Y384556D01*
X275844Y384556D01*
X350520Y373888D02*
X350887Y373136D01*
X451104Y369316D02*
X451104Y396748D01*
X451104Y369316D02*
X464820Y355600D01*
X464820Y340360D01*
X463296Y338836D01*
X448056Y338836D01*
X438912Y347980D01*
X438912Y366268D01*
X417576Y387604D01*
X400812Y387604D01*
X385572Y372364D01*
X385572Y360172D01*
X382524Y357124D01*
X367284Y357124D01*
X352044Y372364D01*
X450903Y396826D02*
X451104Y396748D01*
X352044Y372364D02*
X350887Y373136D01*
X100584Y296164D02*
X100584Y287020D01*
X140208Y247396D01*
X160020Y247396D01*
X163068Y250444D01*
X163068Y357124D01*
X158496Y361696D01*
X100584Y296164D02*
X99421Y296522D01*
X150776Y361370D02*
X158496Y361696D01*
X576072Y422656D02*
X576226Y423245D01*
X576327Y423630D01*
D22*
X428494Y413206D03*
D23*
X565594Y412613D02*
X576226Y423245D01*
X565594Y412613D02*
X429087Y412613D01*
X428494Y413206D01*
D21*
X589788Y378460D02*
X589788Y347980D01*
X589788Y378460D02*
X589057Y379630D01*
X589788Y347980D02*
X589421Y347322D01*
X592836Y293116D02*
X592836Y256540D01*
X592836Y293116D02*
X589788Y296164D01*
X592836Y256540D02*
X593935Y256401D01*
X589788Y296164D02*
X589421Y296522D01*
X589788Y297688D02*
X589788Y320548D01*
X589421Y321922D01*
X589788Y297688D02*
X589421Y296522D01*
X454152Y349504D02*
X454152Y361696D01*
X400812Y415036D01*
X454152Y349504D02*
X455177Y348095D01*
X400812Y415036D02*
X399421Y416240D01*
X345948Y413512D02*
X323088Y413512D01*
X345948Y413512D02*
X347472Y415036D01*
X323088Y413512D02*
X321582Y412128D01*
X347472Y415036D02*
X348621Y416240D01*
X536448Y255016D02*
X565404Y255016D01*
X536448Y255016D02*
X536128Y255230D01*
X565404Y255016D02*
X565495Y256401D01*
X480060Y349504D02*
X480060Y396748D01*
X480060Y349504D02*
X480577Y348095D01*
X480060Y396748D02*
X479343Y396826D01*
X542544Y379984D02*
X542544Y349504D01*
X542379Y348444D01*
X542544Y379984D02*
X541758Y380739D01*
X533400Y340360D02*
X533400Y335788D01*
X533400Y311404D01*
X533400Y340360D02*
X541020Y347980D01*
X533400Y311404D02*
X533395Y310442D01*
X541020Y347980D02*
X542379Y348444D01*
X493776Y347980D02*
X481584Y347980D01*
X493776Y347980D02*
X505968Y335788D01*
X533400Y335788D01*
X481584Y347980D02*
X480577Y348095D01*
X513588Y349504D02*
X513588Y375412D01*
X509016Y379984D01*
X513588Y349504D02*
X513939Y348444D01*
X509016Y379984D02*
X508738Y380739D01*
X510540Y255016D02*
X484632Y255016D01*
X510540Y255016D02*
X510728Y255230D01*
X484632Y255016D02*
X483797Y255611D01*
X512064Y256540D02*
X518160Y256540D01*
X542544Y280924D01*
X542544Y288544D01*
X533400Y297688D01*
X515112Y297688D01*
X512064Y256540D02*
X510728Y255230D01*
X514345Y297742D02*
X515112Y297688D01*
X516636Y375412D02*
X513588Y375412D01*
X516636Y375412D02*
X534924Y393700D01*
X548640Y393700D01*
X553212Y389128D01*
X553212Y317500D01*
X533400Y297688D01*
X513588Y375412D02*
X508738Y380739D01*
X454152Y255016D02*
X434340Y255016D01*
X433530Y254841D01*
X454152Y255016D02*
X455357Y255611D01*
X457200Y258064D02*
X457200Y268732D01*
X457200Y280924D01*
X457200Y258064D02*
X455676Y256540D01*
X457200Y280924D02*
X458012Y282445D01*
X455676Y256540D02*
X455357Y255611D01*
X458724Y282448D02*
X486156Y282448D01*
X486570Y282585D01*
X458724Y282448D02*
X458012Y282445D01*
X284988Y421132D02*
X265176Y421132D01*
X284988Y421132D02*
X292608Y413512D01*
X265176Y421132D02*
X263686Y421825D01*
X292608Y413512D02*
X293142Y412128D01*
X150876Y285496D02*
X150876Y259588D01*
X150149Y258725D01*
X150876Y285496D02*
X151870Y286951D01*
X128016Y375412D02*
X128016Y383032D01*
X128016Y395224D01*
X128016Y375412D02*
X100584Y347980D01*
X128016Y395224D02*
X128169Y396288D01*
X150876Y297688D02*
X150876Y287020D01*
X150876Y297688D02*
X100584Y347980D01*
X150876Y287020D02*
X151870Y286951D01*
X100584Y347980D02*
X99421Y347322D01*
X252984Y421132D02*
X263652Y421132D01*
X252984Y421132D02*
X237744Y405892D01*
X195072Y405892D01*
X172212Y383032D01*
X128016Y383032D01*
X263652Y421132D02*
X263686Y421825D01*
X457200Y268732D02*
X467868Y268732D01*
D22*
X467868Y268732D03*
D21*
X487680Y309880D02*
X512064Y285496D01*
X531876Y285496D01*
X487680Y309880D02*
X486570Y311025D01*
X531876Y285496D02*
X533395Y285042D01*
X457200Y309880D02*
X449580Y309880D01*
X423672Y283972D01*
X457200Y309880D02*
X458012Y310885D01*
X423672Y283972D02*
X423322Y282634D01*
X338328Y261112D02*
X298704Y261112D01*
X298615Y259946D01*
X338328Y261112D02*
X339472Y261887D01*
X426720Y311404D02*
X426720Y338836D01*
X426720Y311404D02*
X423672Y308356D01*
X426720Y338836D02*
X427537Y340157D01*
X423672Y308356D02*
X423322Y308034D01*
X350520Y344932D02*
X342900Y344932D01*
X318516Y369316D01*
X350520Y344932D02*
X350887Y344696D01*
X318516Y369316D02*
X318301Y370605D01*
X376428Y314452D02*
X394716Y314452D01*
X409956Y329692D01*
X409956Y351028D01*
X408432Y352552D01*
X399288Y352552D02*
X359664Y352552D01*
X399288Y352552D02*
X408432Y352552D01*
X359664Y352552D02*
X352044Y344932D01*
X375080Y313774D02*
X376428Y314452D01*
X352044Y344932D02*
X350887Y344696D01*
X426720Y340360D02*
X426720Y373888D01*
X416052Y384556D01*
X402336Y384556D01*
X399288Y381508D01*
X399288Y352552D01*
X426720Y340360D02*
X427537Y340157D01*
X348996Y261112D02*
X339852Y261112D01*
X348996Y261112D02*
X367284Y242824D01*
X414528Y242824D01*
X416052Y244348D01*
X416052Y276352D01*
X413004Y279400D01*
X413004Y290068D01*
X422148Y299212D01*
X422148Y306832D01*
X339472Y261887D02*
X339852Y261112D01*
X422148Y306832D02*
X423322Y308034D01*
X403860Y255016D02*
X376428Y255016D01*
X376223Y254918D01*
X405090Y254841D02*
X405384Y255016D01*
X403860Y255016D02*
X403860Y294640D01*
X404272Y295334D01*
X403860Y255016D02*
X405090Y254841D01*
X341376Y314452D02*
X315468Y314452D01*
X314036Y313649D01*
X341376Y314452D02*
X342060Y313774D01*
X367284Y338836D02*
X397764Y338836D01*
X367284Y338836D02*
X342900Y314452D01*
X397764Y338836D02*
X399097Y340157D01*
X342900Y314452D02*
X342060Y313774D01*
X374904Y264160D02*
X374904Y255016D01*
X374904Y264160D02*
X348996Y290068D01*
X348996Y306832D01*
X342900Y312928D01*
X374904Y255016D02*
X376223Y254918D01*
X342900Y312928D02*
X342060Y313774D01*
X289560Y312928D02*
X289560Y293116D01*
X297180Y285496D01*
X289560Y312928D02*
X288636Y313649D01*
X297180Y285496D02*
X298615Y285346D01*
X300228Y287020D02*
X338328Y287020D01*
X300228Y287020D02*
X298704Y285496D01*
X338328Y287020D02*
X339472Y287287D01*
X298704Y285496D02*
X298615Y285346D01*
X207264Y361696D02*
X179832Y361696D01*
X179216Y361370D01*
X207264Y361696D02*
X208486Y362420D01*
X210312Y360172D02*
X246888Y360172D01*
X210312Y360172D02*
X208788Y361696D01*
X246888Y360172D02*
X246973Y358821D01*
X208788Y361696D02*
X208486Y362420D01*
X24384Y354076D02*
X24384Y384556D01*
X28956Y389128D01*
X24384Y354076D02*
X23740Y353098D01*
X28956Y389128D02*
X29014Y389580D01*
X257556Y308356D02*
X257556Y264160D01*
X257556Y308356D02*
X257725Y309364D01*
X257556Y264160D02*
X258461Y263137D01*
X24384Y338836D02*
X24384Y352552D01*
X24384Y338836D02*
X121920Y241300D01*
X236220Y241300D01*
X257556Y262636D01*
X24384Y352552D02*
X23740Y353098D01*
X257556Y262636D02*
X258461Y263137D01*
X248412Y358648D02*
X277368Y358648D01*
X284988Y351028D01*
X295656Y351028D01*
X297180Y349504D01*
X297180Y329692D01*
X291084Y323596D01*
X272796Y323596D01*
X259080Y309880D01*
X248412Y358648D02*
X246973Y358821D01*
X259080Y309880D02*
X257725Y309364D01*
X207264Y337312D02*
X178308Y337312D01*
X177047Y337121D01*
X207264Y337312D02*
X208486Y337020D01*
X210312Y334264D02*
X246888Y334264D01*
X210312Y334264D02*
X208788Y335788D01*
X246888Y334264D02*
X246973Y333421D01*
X208788Y335788D02*
X208486Y337020D01*
X230124Y308356D02*
X230124Y297688D01*
X245364Y282448D01*
X230124Y308356D02*
X229285Y309364D01*
X245364Y282448D02*
X245761Y282187D01*
X266700Y338836D02*
X284988Y338836D01*
X266700Y338836D02*
X237744Y309880D01*
X230124Y309880D01*
X284988Y338836D02*
X286091Y339637D01*
X230124Y309880D02*
X229285Y309364D01*
X178308Y309880D02*
X178308Y288544D01*
X178308Y309880D02*
X178308Y311404D01*
X178308Y288544D02*
X179832Y287020D01*
X178308Y311404D02*
X177047Y311721D01*
X179832Y287020D02*
X180310Y286951D01*
X57912Y309880D02*
X57912Y352552D01*
X57912Y309880D02*
X123444Y244348D01*
X161544Y244348D01*
X167640Y250444D01*
X167640Y273304D01*
X179832Y285496D01*
X57912Y352552D02*
X56760Y353098D01*
X180310Y286951D02*
X179832Y285496D01*
X178308Y309880D02*
X228600Y309880D01*
X229285Y309364D01*
X178308Y309880D02*
X177047Y311721D01*
X179832Y259588D02*
X228600Y259588D01*
X231648Y262636D01*
X179832Y259588D02*
X178589Y258725D01*
X231648Y262636D02*
X233061Y263137D01*
X156972Y424180D02*
X129540Y424180D01*
X128169Y424728D01*
X156972Y424180D02*
X158383Y422865D01*
X126492Y422656D02*
X94488Y422656D01*
X126492Y422656D02*
X128016Y424180D01*
X94488Y422656D02*
X93747Y422606D01*
X128016Y424180D02*
X128169Y424728D01*
X170688Y410464D02*
X184404Y410464D01*
X170688Y410464D02*
X158496Y422656D01*
X184404Y410464D02*
X185390Y409062D01*
X158496Y422656D02*
X158383Y422865D01*
X252984Y392176D02*
X263652Y392176D01*
X252984Y392176D02*
X245364Y384556D01*
X216408Y384556D01*
X205740Y395224D01*
X263686Y393385D02*
X263652Y392176D01*
X205740Y395224D02*
X204440Y396362D01*
X417576Y425704D02*
X495300Y425704D01*
X417576Y425704D02*
X403860Y439420D01*
X251460Y439420D01*
X236220Y424180D01*
X495300Y425704D02*
X495477Y425252D01*
X236220Y424180D02*
X235410Y423906D01*
X234696Y422656D02*
X205740Y422656D01*
X204440Y421762D01*
X234696Y422656D02*
X235410Y423906D01*
X521208Y425704D02*
X556260Y425704D01*
X568452Y437896D01*
X586740Y437896D01*
X600456Y424180D01*
X521208Y425704D02*
X520877Y425252D01*
X600456Y424180D02*
X601787Y423630D01*
X376428Y291592D02*
X376428Y283972D01*
X376428Y291592D02*
X413004Y328168D01*
X413004Y366268D01*
X409956Y369316D01*
X376428Y283972D02*
X376223Y283358D01*
X409956Y369316D02*
X408819Y370755D01*
X313944Y340360D02*
X284988Y369316D01*
X313944Y340360D02*
X314531Y339637D01*
X284988Y369316D02*
X285281Y370605D01*
X62484Y421132D02*
X30480Y421132D01*
X62484Y421132D02*
X62755Y420657D01*
X30480Y421132D02*
X29014Y422600D01*
X64008Y392176D02*
X91440Y392176D01*
X92964Y390652D01*
X64008Y392176D02*
X62755Y392217D01*
X92964Y390652D02*
X93747Y389586D01*
X374904Y828040D02*
X374904Y872236D01*
X374904Y828040D02*
X375799Y827955D01*
X156972Y166624D02*
X150876Y166624D01*
X138684Y178816D01*
X118872Y178816D01*
X106680Y166624D01*
X106680Y152908D01*
X76200Y122428D01*
X76200Y88900D01*
X96012Y69088D01*
X99060Y69088D01*
X156972Y166624D02*
X158383Y165825D01*
X99060Y69088D02*
X99421Y67922D01*
X150876Y133096D02*
X158496Y133096D01*
X178308Y152908D01*
X272796Y152908D01*
X275844Y155956D01*
X275844Y174244D01*
X274320Y175768D01*
X243840Y175768D01*
X236220Y168148D01*
X150876Y133096D02*
X150776Y132770D01*
X235410Y166866D02*
X236220Y168148D01*
X335280Y145288D02*
X350520Y145288D01*
X335280Y145288D02*
X324612Y155956D01*
X275844Y155956D01*
X350520Y145288D02*
X350887Y144536D01*
X451104Y140716D02*
X451104Y168148D01*
X451104Y140716D02*
X464820Y127000D01*
X464820Y111760D01*
X463296Y110236D01*
X448056Y110236D01*
X438912Y119380D01*
X438912Y137668D01*
X417576Y159004D01*
X400812Y159004D01*
X385572Y143764D01*
X385572Y131572D01*
X382524Y128524D01*
X367284Y128524D01*
X352044Y143764D01*
X450903Y168226D02*
X451104Y168148D01*
X352044Y143764D02*
X350887Y144536D01*
X100584Y67564D02*
X100584Y58420D01*
X140208Y18796D01*
X160020Y18796D01*
X163068Y21844D01*
X163068Y128524D01*
X158496Y133096D01*
X100584Y67564D02*
X99421Y67922D01*
X150776Y132770D02*
X158496Y133096D01*
X576072Y194056D02*
X576226Y194645D01*
X576327Y195030D01*
D22*
X428494Y184606D03*
D23*
X565594Y184013D02*
X576226Y194645D01*
X565594Y184013D02*
X429087Y184013D01*
X428494Y184606D01*
D21*
X589788Y149860D02*
X589788Y119380D01*
X589788Y149860D02*
X589057Y151030D01*
X589788Y119380D02*
X589421Y118722D01*
X592836Y64516D02*
X592836Y27940D01*
X592836Y64516D02*
X589788Y67564D01*
X592836Y27940D02*
X593935Y27801D01*
X589788Y67564D02*
X589421Y67922D01*
X589788Y69088D02*
X589788Y91948D01*
X589421Y93322D01*
X589788Y69088D02*
X589421Y67922D01*
X454152Y120904D02*
X454152Y133096D01*
X400812Y186436D01*
X454152Y120904D02*
X455177Y119495D01*
X400812Y186436D02*
X399421Y187640D01*
X374904Y186436D02*
X374904Y142240D01*
X375799Y142155D01*
X374904Y186436D02*
X374021Y187640D01*
X345948Y184912D02*
X323088Y184912D01*
X345948Y184912D02*
X347472Y186436D01*
X323088Y184912D02*
X321582Y183528D01*
X347472Y186436D02*
X348621Y187640D01*
X536448Y26416D02*
X565404Y26416D01*
X536448Y26416D02*
X536128Y26630D01*
X565404Y26416D02*
X565495Y27801D01*
X480060Y120904D02*
X480060Y168148D01*
X480060Y120904D02*
X480577Y119495D01*
X480060Y168148D02*
X479343Y168226D01*
X542544Y151384D02*
X542544Y120904D01*
X542379Y119844D01*
X542544Y151384D02*
X541758Y152139D01*
X533400Y111760D02*
X533400Y107188D01*
X533400Y82804D01*
X533400Y111760D02*
X541020Y119380D01*
X533400Y82804D02*
X533395Y81842D01*
X541020Y119380D02*
X542379Y119844D01*
X493776Y119380D02*
X481584Y119380D01*
X493776Y119380D02*
X505968Y107188D01*
X533400Y107188D01*
X481584Y119380D02*
X480577Y119495D01*
X513588Y120904D02*
X513588Y146812D01*
X509016Y151384D01*
X513588Y120904D02*
X513939Y119844D01*
X509016Y151384D02*
X508738Y152139D01*
X510540Y26416D02*
X484632Y26416D01*
X510540Y26416D02*
X510728Y26630D01*
X484632Y26416D02*
X483797Y27011D01*
X512064Y27940D02*
X518160Y27940D01*
X542544Y52324D01*
X542544Y59944D01*
X533400Y69088D01*
X515112Y69088D01*
X512064Y27940D02*
X510728Y26630D01*
X514345Y69142D02*
X515112Y69088D01*
X516636Y146812D02*
X513588Y146812D01*
X516636Y146812D02*
X534924Y165100D01*
X548640Y165100D01*
X553212Y160528D01*
X553212Y88900D01*
X533400Y69088D01*
X513588Y146812D02*
X508738Y152139D01*
X454152Y26416D02*
X434340Y26416D01*
X433530Y26241D01*
X454152Y26416D02*
X455357Y27011D01*
X457200Y29464D02*
X457200Y40132D01*
X457200Y52324D01*
X457200Y29464D02*
X455676Y27940D01*
X457200Y52324D02*
X458012Y53845D01*
X455676Y27940D02*
X455357Y27011D01*
X458724Y53848D02*
X486156Y53848D01*
X486570Y53985D01*
X458724Y53848D02*
X458012Y53845D01*
X284988Y192532D02*
X265176Y192532D01*
X284988Y192532D02*
X292608Y184912D01*
X265176Y192532D02*
X263686Y193225D01*
X292608Y184912D02*
X293142Y183528D01*
X150876Y56896D02*
X150876Y30988D01*
X150149Y30125D01*
X150876Y56896D02*
X151870Y58351D01*
X128016Y146812D02*
X128016Y154432D01*
X128016Y166624D01*
X128016Y146812D02*
X100584Y119380D01*
X128016Y166624D02*
X128169Y167688D01*
X150876Y69088D02*
X150876Y58420D01*
X150876Y69088D02*
X100584Y119380D01*
X150876Y58420D02*
X151870Y58351D01*
X100584Y119380D02*
X99421Y118722D01*
X252984Y192532D02*
X263652Y192532D01*
X252984Y192532D02*
X237744Y177292D01*
X195072Y177292D01*
X172212Y154432D01*
X128016Y154432D01*
X263652Y192532D02*
X263686Y193225D01*
X457200Y40132D02*
X467868Y40132D01*
D22*
X467868Y40132D03*
D21*
X487680Y81280D02*
X512064Y56896D01*
X531876Y56896D01*
X487680Y81280D02*
X486570Y82425D01*
X531876Y56896D02*
X533395Y56442D01*
X457200Y81280D02*
X449580Y81280D01*
X423672Y55372D01*
X457200Y81280D02*
X458012Y82285D01*
X423672Y55372D02*
X423322Y54034D01*
X338328Y32512D02*
X298704Y32512D01*
X298615Y31346D01*
X338328Y32512D02*
X339472Y33287D01*
X426720Y82804D02*
X426720Y110236D01*
X426720Y82804D02*
X423672Y79756D01*
X426720Y110236D02*
X427537Y111557D01*
X423672Y79756D02*
X423322Y79434D01*
X350520Y116332D02*
X342900Y116332D01*
X318516Y140716D01*
X350520Y116332D02*
X350887Y116096D01*
X318516Y140716D02*
X318301Y142005D01*
X376428Y85852D02*
X394716Y85852D01*
X409956Y101092D01*
X409956Y122428D01*
X408432Y123952D01*
X399288Y123952D02*
X359664Y123952D01*
X399288Y123952D02*
X408432Y123952D01*
X359664Y123952D02*
X352044Y116332D01*
X375080Y85174D02*
X376428Y85852D01*
X352044Y116332D02*
X350887Y116096D01*
X426720Y111760D02*
X426720Y145288D01*
X416052Y155956D01*
X402336Y155956D01*
X399288Y152908D01*
X399288Y123952D01*
X426720Y111760D02*
X427537Y111557D01*
X348996Y32512D02*
X339852Y32512D01*
X348996Y32512D02*
X367284Y14224D01*
X414528Y14224D01*
X416052Y15748D01*
X416052Y47752D01*
X413004Y50800D01*
X413004Y61468D01*
X422148Y70612D01*
X422148Y78232D01*
X339472Y33287D02*
X339852Y32512D01*
X422148Y78232D02*
X423322Y79434D01*
X403860Y26416D02*
X376428Y26416D01*
X376223Y26318D01*
X405090Y26241D02*
X405384Y26416D01*
X403860Y26416D02*
X403860Y66040D01*
X404272Y66734D01*
X403860Y26416D02*
X405090Y26241D01*
X341376Y85852D02*
X315468Y85852D01*
X314036Y85049D01*
X341376Y85852D02*
X342060Y85174D01*
X367284Y110236D02*
X397764Y110236D01*
X367284Y110236D02*
X342900Y85852D01*
X397764Y110236D02*
X399097Y111557D01*
X342900Y85852D02*
X342060Y85174D01*
X374904Y35560D02*
X374904Y26416D01*
X374904Y35560D02*
X348996Y61468D01*
X348996Y78232D01*
X342900Y84328D01*
X374904Y26416D02*
X376223Y26318D01*
X342900Y84328D02*
X342060Y85174D01*
X289560Y84328D02*
X289560Y64516D01*
X297180Y56896D01*
X289560Y84328D02*
X288636Y85049D01*
X297180Y56896D02*
X298615Y56746D01*
X300228Y58420D02*
X338328Y58420D01*
X300228Y58420D02*
X298704Y56896D01*
X338328Y58420D02*
X339472Y58687D01*
X298704Y56896D02*
X298615Y56746D01*
X207264Y133096D02*
X179832Y133096D01*
X179216Y132770D01*
X207264Y133096D02*
X208486Y133820D01*
X210312Y131572D02*
X246888Y131572D01*
X210312Y131572D02*
X208788Y133096D01*
X246888Y131572D02*
X246973Y130221D01*
X208788Y133096D02*
X208486Y133820D01*
X24384Y125476D02*
X24384Y155956D01*
X28956Y160528D01*
X24384Y125476D02*
X23740Y124498D01*
X28956Y160528D02*
X29014Y160980D01*
X257556Y79756D02*
X257556Y35560D01*
X257556Y79756D02*
X257725Y80764D01*
X257556Y35560D02*
X258461Y34537D01*
X24384Y110236D02*
X24384Y123952D01*
X24384Y110236D02*
X121920Y12700D01*
X236220Y12700D01*
X257556Y34036D01*
X24384Y123952D02*
X23740Y124498D01*
X257556Y34036D02*
X258461Y34537D01*
X248412Y130048D02*
X277368Y130048D01*
X284988Y122428D01*
X295656Y122428D01*
X297180Y120904D01*
X297180Y101092D01*
X291084Y94996D01*
X272796Y94996D01*
X259080Y81280D01*
X248412Y130048D02*
X246973Y130221D01*
X259080Y81280D02*
X257725Y80764D01*
X207264Y108712D02*
X178308Y108712D01*
X177047Y108521D01*
X207264Y108712D02*
X208486Y108420D01*
X210312Y105664D02*
X246888Y105664D01*
X210312Y105664D02*
X208788Y107188D01*
X246888Y105664D02*
X246973Y104821D01*
X208788Y107188D02*
X208486Y108420D01*
X230124Y79756D02*
X230124Y69088D01*
X245364Y53848D01*
X230124Y79756D02*
X229285Y80764D01*
X245364Y53848D02*
X245761Y53587D01*
X266700Y110236D02*
X284988Y110236D01*
X266700Y110236D02*
X237744Y81280D01*
X230124Y81280D01*
X284988Y110236D02*
X286091Y111037D01*
X230124Y81280D02*
X229285Y80764D01*
X178308Y81280D02*
X178308Y59944D01*
X178308Y81280D02*
X178308Y82804D01*
X178308Y59944D02*
X179832Y58420D01*
X178308Y82804D02*
X177047Y83121D01*
X179832Y58420D02*
X180310Y58351D01*
X57912Y81280D02*
X57912Y123952D01*
X57912Y81280D02*
X123444Y15748D01*
X161544Y15748D01*
X167640Y21844D01*
X167640Y44704D01*
X179832Y56896D01*
X57912Y123952D02*
X56760Y124498D01*
X180310Y58351D02*
X179832Y56896D01*
X178308Y81280D02*
X228600Y81280D01*
X229285Y80764D01*
X178308Y81280D02*
X177047Y83121D01*
X179832Y30988D02*
X228600Y30988D01*
X231648Y34036D01*
X179832Y30988D02*
X178589Y30125D01*
X231648Y34036D02*
X233061Y34537D01*
X156972Y195580D02*
X129540Y195580D01*
X128169Y196128D01*
X156972Y195580D02*
X158383Y194265D01*
X126492Y194056D02*
X94488Y194056D01*
X126492Y194056D02*
X128016Y195580D01*
X94488Y194056D02*
X93747Y194006D01*
X128016Y195580D02*
X128169Y196128D01*
X170688Y181864D02*
X184404Y181864D01*
X170688Y181864D02*
X158496Y194056D01*
X184404Y181864D02*
X185390Y180462D01*
X158496Y194056D02*
X158383Y194265D01*
X252984Y163576D02*
X263652Y163576D01*
X252984Y163576D02*
X245364Y155956D01*
X216408Y155956D01*
X205740Y166624D01*
X263686Y164785D02*
X263652Y163576D01*
X205740Y166624D02*
X204440Y167762D01*
X417576Y197104D02*
X495300Y197104D01*
X417576Y197104D02*
X403860Y210820D01*
X251460Y210820D01*
X236220Y195580D01*
X495300Y197104D02*
X495477Y196652D01*
X236220Y195580D02*
X235410Y195306D01*
X234696Y194056D02*
X205740Y194056D01*
X204440Y193162D01*
X234696Y194056D02*
X235410Y195306D01*
X521208Y197104D02*
X556260Y197104D01*
X568452Y209296D01*
X586740Y209296D01*
X600456Y195580D01*
X521208Y197104D02*
X520877Y196652D01*
X600456Y195580D02*
X601787Y195030D01*
X376428Y62992D02*
X376428Y55372D01*
X376428Y62992D02*
X413004Y99568D01*
X413004Y137668D01*
X409956Y140716D01*
X376428Y55372D02*
X376223Y54758D01*
X409956Y140716D02*
X408819Y142155D01*
X313944Y111760D02*
X284988Y140716D01*
X313944Y111760D02*
X314531Y111037D01*
X284988Y140716D02*
X285281Y142005D01*
X62484Y192532D02*
X30480Y192532D01*
X62484Y192532D02*
X62755Y192057D01*
X30480Y192532D02*
X29014Y194000D01*
X64008Y163576D02*
X91440Y163576D01*
X92964Y162052D01*
X64008Y163576D02*
X62755Y163617D01*
X92964Y162052D02*
X93747Y160986D01*
M02*
