M48
;GenerationSoftware,Autodesk,EAGLE,9.2.2*%
;CreationDate,2019-06-08T20:53:53Z*%
FMAT,2
ICI,OFF
METRIC,TZ,000.000
T4C0.350
T3C0.813
T2C0.900
T1C1.118
%
G90
M71
T1
X39942Y18764
X37402Y18764
X34862Y18764
X9942Y6792
X9942Y9332
X9942Y11872
X58942Y6792
X58942Y9332
X58942Y11872
X39942Y41624
X37402Y41624
X34862Y41624
X58942Y80452
X58942Y77912
X58942Y75372
X9942Y80452
X9942Y77912
X9942Y75372
X34862Y87344
X37402Y87344
X39942Y87344
X9942Y29652
X9942Y32192
X9942Y34732
X58942Y29652
X58942Y32192
X58942Y34732
X39942Y64484
X37402Y64484
X34862Y64484
X9942Y52512
X9942Y55052
X9942Y57592
X58942Y52512
X58942Y55052
X58942Y57592
T2
X20849Y79422
X29861Y48855
X29861Y51395
X33947Y51589
X33947Y49049
X20849Y81962
X24697Y81602
X24697Y79062
X20849Y13382
X24697Y13022
X24697Y10482
X24697Y56202
X29861Y71715
X33947Y3329
X33947Y5869
X29861Y5675
X29861Y3135
X20849Y33702
X20849Y36242
X24697Y35882
X24697Y33342
X29861Y74255
X33947Y74449
X33947Y71909
X33947Y26189
X33947Y28729
X20849Y10842
X24697Y58742
X20849Y59102
X20849Y56562
X29861Y25995
X29861Y28535
T3
X42332Y51123
X40427Y52393
X23306Y72034
X24576Y73939
X25846Y72034
X53340Y74224
X51435Y75494
X53340Y76764
X42332Y53663
X20444Y62496
X18539Y63766
X53340Y31044
X51435Y29774
X53340Y28504
X25846Y26314
X24576Y28219
X23306Y26314
X20444Y42176
X18539Y40906
X20444Y39636
X42332Y30803
X40427Y29533
X42332Y28263
X20444Y65036
X23306Y49174
X24576Y51079
X25846Y49174
X53340Y51364
X51435Y52634
X53340Y53904
X20444Y87896
X18539Y86626
X42332Y73983
X40427Y75253
X42332Y76523
X42332Y5403
X40427Y6673
X42332Y7943
X20444Y16776
X20444Y85356
X53340Y8184
X51435Y6914
X53340Y5644
X25846Y3454
X24576Y5359
X23306Y3454
X20444Y19316
X18539Y18046
T4
X46787Y72593
X42849Y64181
X46787Y49733
X42849Y41321
X46787Y26873
X42849Y18461
X46787Y4013
X42849Y87041
M30