G04 EAGLE Gerber X2 export*
%TF.Part,Single*%
%TF.FileFunction,Legend,Bot,1*%
%TF.FilePolarity,Positive*%
%TF.GenerationSoftware,Autodesk,EAGLE,9.2.2*%
%TF.CreationDate,2019-06-08T20:53:53Z*%
G75*
%MOMM*%
%FSLAX34Y34*%
%LPD*%
%INSilkscreen Bottom*%
%AMOC8*
5,1,8,0,0,1.08239X$1,22.5*%
G01*
%ADD10C,0.152400*%
%ADD11C,0.101600*%


D10*
X0Y228600D02*
X635000Y228600D01*
X635000Y457200D01*
X0Y457200D01*
X-12700Y469900D01*
X-12700Y685800D01*
X647700Y685800D01*
D11*
X377845Y846205D02*
X377845Y854644D01*
X377845Y846205D02*
X377843Y846092D01*
X377837Y845979D01*
X377827Y845866D01*
X377813Y845753D01*
X377796Y845641D01*
X377774Y845530D01*
X377749Y845420D01*
X377719Y845310D01*
X377686Y845202D01*
X377649Y845095D01*
X377609Y844989D01*
X377564Y844885D01*
X377516Y844782D01*
X377465Y844681D01*
X377410Y844582D01*
X377352Y844485D01*
X377290Y844390D01*
X377225Y844297D01*
X377157Y844207D01*
X377086Y844119D01*
X377011Y844033D01*
X376934Y843950D01*
X376854Y843870D01*
X376771Y843793D01*
X376685Y843718D01*
X376597Y843647D01*
X376507Y843579D01*
X376414Y843514D01*
X376319Y843452D01*
X376222Y843394D01*
X376123Y843339D01*
X376022Y843288D01*
X375919Y843240D01*
X375815Y843195D01*
X375709Y843155D01*
X375602Y843118D01*
X375494Y843085D01*
X375384Y843055D01*
X375274Y843030D01*
X375163Y843008D01*
X375051Y842991D01*
X374938Y842977D01*
X374825Y842967D01*
X374712Y842961D01*
X374599Y842959D01*
X374486Y842961D01*
X374373Y842967D01*
X374260Y842977D01*
X374147Y842991D01*
X374035Y843008D01*
X373924Y843030D01*
X373814Y843055D01*
X373704Y843085D01*
X373596Y843118D01*
X373489Y843155D01*
X373383Y843195D01*
X373279Y843240D01*
X373176Y843288D01*
X373075Y843339D01*
X372976Y843394D01*
X372879Y843452D01*
X372784Y843514D01*
X372691Y843579D01*
X372601Y843647D01*
X372513Y843718D01*
X372427Y843793D01*
X372344Y843870D01*
X372264Y843950D01*
X372187Y844033D01*
X372112Y844119D01*
X372041Y844207D01*
X371973Y844297D01*
X371908Y844390D01*
X371846Y844485D01*
X371788Y844582D01*
X371733Y844681D01*
X371682Y844782D01*
X371634Y844885D01*
X371589Y844989D01*
X371549Y845095D01*
X371512Y845202D01*
X371479Y845310D01*
X371449Y845420D01*
X371424Y845530D01*
X371402Y845641D01*
X371385Y845753D01*
X371371Y845866D01*
X371361Y845979D01*
X371355Y846092D01*
X371353Y846205D01*
X371354Y846205D02*
X371354Y854644D01*
X363550Y854644D02*
X363550Y842960D01*
X363550Y848802D02*
X365173Y849775D01*
X365246Y849822D01*
X365317Y849871D01*
X365387Y849924D01*
X365453Y849980D01*
X365517Y850039D01*
X365579Y850100D01*
X365637Y850164D01*
X365693Y850231D01*
X365745Y850300D01*
X365795Y850372D01*
X365841Y850446D01*
X365884Y850521D01*
X365923Y850599D01*
X365959Y850678D01*
X365991Y850759D01*
X366020Y850841D01*
X366045Y850924D01*
X366066Y851008D01*
X366083Y851093D01*
X366097Y851179D01*
X366106Y851265D01*
X366112Y851352D01*
X366114Y851439D01*
X366112Y851526D01*
X366106Y851613D01*
X366096Y851699D01*
X366083Y851785D01*
X366065Y851870D01*
X366044Y851954D01*
X366019Y852037D01*
X365990Y852120D01*
X365958Y852200D01*
X365922Y852279D01*
X365883Y852357D01*
X365840Y852432D01*
X365793Y852506D01*
X365744Y852577D01*
X365691Y852647D01*
X365636Y852713D01*
X365577Y852777D01*
X365516Y852839D01*
X365451Y852898D01*
X365385Y852953D01*
X365316Y853006D01*
X365244Y853056D01*
X365171Y853102D01*
X365095Y853145D01*
X365018Y853184D01*
X364939Y853220D01*
X364858Y853253D01*
X364776Y853281D01*
X364693Y853307D01*
X364609Y853328D01*
X364523Y853345D01*
X364524Y853345D02*
X364384Y853369D01*
X364242Y853389D01*
X364101Y853405D01*
X363959Y853416D01*
X363816Y853424D01*
X363674Y853428D01*
X363531Y853429D01*
X363388Y853425D01*
X363246Y853417D01*
X363104Y853405D01*
X362962Y853389D01*
X362821Y853370D01*
X362680Y853346D01*
X362540Y853319D01*
X362401Y853287D01*
X362263Y853252D01*
X362125Y853213D01*
X361989Y853170D01*
X361855Y853124D01*
X361721Y853073D01*
X361589Y853020D01*
X361459Y852962D01*
X361330Y852901D01*
X361203Y852836D01*
X361077Y852768D01*
X360954Y852696D01*
X363550Y848802D02*
X361927Y847828D01*
X361854Y847781D01*
X361783Y847732D01*
X361713Y847679D01*
X361647Y847623D01*
X361583Y847564D01*
X361521Y847503D01*
X361463Y847439D01*
X361407Y847372D01*
X361355Y847303D01*
X361305Y847231D01*
X361259Y847157D01*
X361216Y847082D01*
X361177Y847004D01*
X361141Y846925D01*
X361109Y846844D01*
X361080Y846762D01*
X361055Y846679D01*
X361034Y846595D01*
X361017Y846510D01*
X361003Y846424D01*
X360994Y846338D01*
X360988Y846251D01*
X360986Y846164D01*
X360988Y846077D01*
X360994Y845990D01*
X361004Y845904D01*
X361017Y845818D01*
X361035Y845733D01*
X361056Y845649D01*
X361081Y845566D01*
X361110Y845483D01*
X361142Y845403D01*
X361178Y845324D01*
X361217Y845246D01*
X361260Y845171D01*
X361307Y845097D01*
X361356Y845026D01*
X361409Y844956D01*
X361464Y844890D01*
X361523Y844826D01*
X361584Y844764D01*
X361649Y844705D01*
X361715Y844650D01*
X361784Y844597D01*
X361856Y844547D01*
X361929Y844501D01*
X362005Y844458D01*
X362082Y844419D01*
X362161Y844383D01*
X362242Y844350D01*
X362324Y844322D01*
X362407Y844296D01*
X362491Y844275D01*
X362576Y844258D01*
X362577Y844258D02*
X362717Y844234D01*
X362859Y844214D01*
X363000Y844198D01*
X363142Y844187D01*
X363285Y844179D01*
X363427Y844175D01*
X363570Y844174D01*
X363713Y844178D01*
X363855Y844186D01*
X363997Y844198D01*
X364139Y844214D01*
X364280Y844233D01*
X364421Y844257D01*
X364561Y844284D01*
X364700Y844316D01*
X364838Y844351D01*
X364976Y844390D01*
X365112Y844433D01*
X365246Y844479D01*
X365380Y844530D01*
X365512Y844583D01*
X365643Y844641D01*
X365771Y844702D01*
X365898Y844767D01*
X366024Y844835D01*
X366147Y844907D01*
X356128Y853345D02*
X356128Y854644D01*
X349637Y854644D01*
X352882Y842960D01*
X389275Y626044D02*
X389275Y617605D01*
X389273Y617492D01*
X389267Y617379D01*
X389257Y617266D01*
X389243Y617153D01*
X389226Y617041D01*
X389204Y616930D01*
X389179Y616820D01*
X389149Y616710D01*
X389116Y616602D01*
X389079Y616495D01*
X389039Y616389D01*
X388994Y616285D01*
X388946Y616182D01*
X388895Y616081D01*
X388840Y615982D01*
X388782Y615885D01*
X388720Y615790D01*
X388655Y615697D01*
X388587Y615607D01*
X388516Y615519D01*
X388441Y615433D01*
X388364Y615350D01*
X388284Y615270D01*
X388201Y615193D01*
X388115Y615118D01*
X388027Y615047D01*
X387937Y614979D01*
X387844Y614914D01*
X387749Y614852D01*
X387652Y614794D01*
X387553Y614739D01*
X387452Y614688D01*
X387349Y614640D01*
X387245Y614595D01*
X387139Y614555D01*
X387032Y614518D01*
X386924Y614485D01*
X386814Y614455D01*
X386704Y614430D01*
X386593Y614408D01*
X386481Y614391D01*
X386368Y614377D01*
X386255Y614367D01*
X386142Y614361D01*
X386029Y614359D01*
X385916Y614361D01*
X385803Y614367D01*
X385690Y614377D01*
X385577Y614391D01*
X385465Y614408D01*
X385354Y614430D01*
X385244Y614455D01*
X385134Y614485D01*
X385026Y614518D01*
X384919Y614555D01*
X384813Y614595D01*
X384709Y614640D01*
X384606Y614688D01*
X384505Y614739D01*
X384406Y614794D01*
X384309Y614852D01*
X384214Y614914D01*
X384121Y614979D01*
X384031Y615047D01*
X383943Y615118D01*
X383857Y615193D01*
X383774Y615270D01*
X383694Y615350D01*
X383617Y615433D01*
X383542Y615519D01*
X383471Y615607D01*
X383403Y615697D01*
X383338Y615790D01*
X383276Y615885D01*
X383218Y615982D01*
X383163Y616081D01*
X383112Y616182D01*
X383064Y616285D01*
X383019Y616389D01*
X382979Y616495D01*
X382942Y616602D01*
X382909Y616710D01*
X382879Y616820D01*
X382854Y616930D01*
X382832Y617041D01*
X382815Y617153D01*
X382801Y617266D01*
X382791Y617379D01*
X382785Y617492D01*
X382783Y617605D01*
X382784Y617605D02*
X382784Y626044D01*
X374980Y626044D02*
X374980Y614360D01*
X374980Y620202D02*
X376603Y621175D01*
X376676Y621222D01*
X376747Y621271D01*
X376817Y621324D01*
X376883Y621380D01*
X376947Y621439D01*
X377009Y621500D01*
X377067Y621564D01*
X377123Y621631D01*
X377175Y621700D01*
X377225Y621772D01*
X377271Y621846D01*
X377314Y621921D01*
X377353Y621999D01*
X377389Y622078D01*
X377421Y622159D01*
X377450Y622241D01*
X377475Y622324D01*
X377496Y622408D01*
X377513Y622493D01*
X377527Y622579D01*
X377536Y622665D01*
X377542Y622752D01*
X377544Y622839D01*
X377542Y622926D01*
X377536Y623013D01*
X377526Y623099D01*
X377513Y623185D01*
X377495Y623270D01*
X377474Y623354D01*
X377449Y623437D01*
X377420Y623520D01*
X377388Y623600D01*
X377352Y623679D01*
X377313Y623757D01*
X377270Y623832D01*
X377223Y623906D01*
X377174Y623977D01*
X377121Y624047D01*
X377066Y624113D01*
X377007Y624177D01*
X376946Y624239D01*
X376881Y624298D01*
X376815Y624353D01*
X376746Y624406D01*
X376674Y624456D01*
X376601Y624502D01*
X376525Y624545D01*
X376448Y624584D01*
X376369Y624620D01*
X376288Y624653D01*
X376206Y624681D01*
X376123Y624707D01*
X376039Y624728D01*
X375953Y624745D01*
X375954Y624745D02*
X375814Y624769D01*
X375672Y624789D01*
X375531Y624805D01*
X375389Y624816D01*
X375246Y624824D01*
X375104Y624828D01*
X374961Y624829D01*
X374818Y624825D01*
X374676Y624817D01*
X374534Y624805D01*
X374392Y624789D01*
X374251Y624770D01*
X374110Y624746D01*
X373970Y624719D01*
X373831Y624687D01*
X373693Y624652D01*
X373555Y624613D01*
X373419Y624570D01*
X373285Y624524D01*
X373151Y624473D01*
X373019Y624420D01*
X372889Y624362D01*
X372760Y624301D01*
X372633Y624236D01*
X372507Y624168D01*
X372384Y624096D01*
X374980Y620202D02*
X373357Y619228D01*
X373284Y619181D01*
X373213Y619132D01*
X373143Y619079D01*
X373077Y619023D01*
X373013Y618964D01*
X372951Y618903D01*
X372893Y618839D01*
X372837Y618772D01*
X372785Y618703D01*
X372735Y618631D01*
X372689Y618557D01*
X372646Y618482D01*
X372607Y618404D01*
X372571Y618325D01*
X372539Y618244D01*
X372510Y618162D01*
X372485Y618079D01*
X372464Y617995D01*
X372447Y617910D01*
X372433Y617824D01*
X372424Y617738D01*
X372418Y617651D01*
X372416Y617564D01*
X372418Y617477D01*
X372424Y617390D01*
X372434Y617304D01*
X372447Y617218D01*
X372465Y617133D01*
X372486Y617049D01*
X372511Y616966D01*
X372540Y616883D01*
X372572Y616803D01*
X372608Y616724D01*
X372647Y616646D01*
X372690Y616571D01*
X372737Y616497D01*
X372786Y616426D01*
X372839Y616356D01*
X372894Y616290D01*
X372953Y616226D01*
X373014Y616164D01*
X373079Y616105D01*
X373145Y616050D01*
X373214Y615997D01*
X373286Y615947D01*
X373359Y615901D01*
X373435Y615858D01*
X373512Y615819D01*
X373591Y615783D01*
X373672Y615750D01*
X373754Y615722D01*
X373837Y615696D01*
X373921Y615675D01*
X374006Y615658D01*
X374007Y615658D02*
X374147Y615634D01*
X374289Y615614D01*
X374430Y615598D01*
X374572Y615587D01*
X374715Y615579D01*
X374857Y615575D01*
X375000Y615574D01*
X375143Y615578D01*
X375285Y615586D01*
X375427Y615598D01*
X375569Y615614D01*
X375710Y615633D01*
X375851Y615657D01*
X375991Y615684D01*
X376130Y615716D01*
X376268Y615751D01*
X376406Y615790D01*
X376542Y615833D01*
X376676Y615879D01*
X376810Y615930D01*
X376942Y615983D01*
X377073Y616041D01*
X377201Y616102D01*
X377328Y616167D01*
X377454Y616235D01*
X377577Y616307D01*
X367558Y623447D02*
X364312Y626044D01*
X364312Y614360D01*
X361067Y614360D02*
X367558Y614360D01*
X356128Y620851D02*
X352233Y620851D01*
X352233Y620850D02*
X352134Y620848D01*
X352034Y620842D01*
X351935Y620833D01*
X351837Y620820D01*
X351739Y620803D01*
X351641Y620782D01*
X351545Y620757D01*
X351450Y620729D01*
X351356Y620697D01*
X351263Y620662D01*
X351171Y620623D01*
X351081Y620580D01*
X350993Y620535D01*
X350906Y620485D01*
X350822Y620433D01*
X350739Y620377D01*
X350659Y620319D01*
X350581Y620257D01*
X350506Y620192D01*
X350433Y620124D01*
X350363Y620054D01*
X350295Y619981D01*
X350230Y619906D01*
X350168Y619828D01*
X350110Y619748D01*
X350054Y619665D01*
X350002Y619581D01*
X349952Y619494D01*
X349907Y619406D01*
X349864Y619316D01*
X349825Y619224D01*
X349790Y619131D01*
X349758Y619037D01*
X349730Y618942D01*
X349705Y618846D01*
X349684Y618748D01*
X349667Y618650D01*
X349654Y618552D01*
X349645Y618453D01*
X349639Y618353D01*
X349637Y618254D01*
X349637Y617605D01*
X349636Y617605D02*
X349638Y617492D01*
X349644Y617379D01*
X349654Y617266D01*
X349668Y617153D01*
X349685Y617041D01*
X349707Y616930D01*
X349732Y616820D01*
X349762Y616710D01*
X349795Y616602D01*
X349832Y616495D01*
X349872Y616389D01*
X349917Y616285D01*
X349965Y616182D01*
X350016Y616081D01*
X350071Y615982D01*
X350129Y615885D01*
X350191Y615790D01*
X350256Y615697D01*
X350324Y615607D01*
X350395Y615519D01*
X350470Y615433D01*
X350547Y615350D01*
X350627Y615270D01*
X350710Y615193D01*
X350796Y615118D01*
X350884Y615047D01*
X350974Y614979D01*
X351067Y614914D01*
X351162Y614852D01*
X351259Y614794D01*
X351358Y614739D01*
X351459Y614688D01*
X351562Y614640D01*
X351666Y614595D01*
X351772Y614555D01*
X351879Y614518D01*
X351987Y614485D01*
X352097Y614455D01*
X352207Y614430D01*
X352318Y614408D01*
X352430Y614391D01*
X352543Y614377D01*
X352656Y614367D01*
X352769Y614361D01*
X352882Y614359D01*
X352995Y614361D01*
X353108Y614367D01*
X353221Y614377D01*
X353334Y614391D01*
X353446Y614408D01*
X353557Y614430D01*
X353667Y614455D01*
X353777Y614485D01*
X353885Y614518D01*
X353992Y614555D01*
X354098Y614595D01*
X354202Y614640D01*
X354305Y614688D01*
X354406Y614739D01*
X354505Y614794D01*
X354602Y614852D01*
X354697Y614914D01*
X354790Y614979D01*
X354880Y615047D01*
X354968Y615118D01*
X355054Y615193D01*
X355137Y615270D01*
X355217Y615350D01*
X355294Y615433D01*
X355369Y615519D01*
X355440Y615607D01*
X355508Y615697D01*
X355573Y615790D01*
X355635Y615885D01*
X355693Y615982D01*
X355748Y616081D01*
X355799Y616182D01*
X355847Y616285D01*
X355892Y616389D01*
X355932Y616495D01*
X355969Y616602D01*
X356002Y616710D01*
X356032Y616820D01*
X356057Y616930D01*
X356079Y617041D01*
X356096Y617153D01*
X356110Y617266D01*
X356120Y617379D01*
X356126Y617492D01*
X356128Y617605D01*
X356128Y620851D01*
X356126Y620994D01*
X356120Y621137D01*
X356110Y621280D01*
X356096Y621422D01*
X356079Y621564D01*
X356057Y621706D01*
X356032Y621847D01*
X356002Y621987D01*
X355969Y622126D01*
X355932Y622264D01*
X355891Y622401D01*
X355847Y622537D01*
X355798Y622672D01*
X355746Y622805D01*
X355691Y622937D01*
X355631Y623067D01*
X355568Y623196D01*
X355502Y623323D01*
X355432Y623448D01*
X355359Y623570D01*
X355282Y623691D01*
X355202Y623810D01*
X355119Y623926D01*
X355033Y624041D01*
X354944Y624152D01*
X354851Y624262D01*
X354756Y624368D01*
X354657Y624472D01*
X354556Y624573D01*
X354452Y624672D01*
X354346Y624767D01*
X354236Y624860D01*
X354125Y624949D01*
X354010Y625035D01*
X353894Y625118D01*
X353775Y625198D01*
X353654Y625275D01*
X353532Y625348D01*
X353407Y625418D01*
X353280Y625484D01*
X353151Y625547D01*
X353021Y625607D01*
X352889Y625662D01*
X352756Y625714D01*
X352621Y625763D01*
X352485Y625807D01*
X352348Y625848D01*
X352210Y625885D01*
X352071Y625918D01*
X351931Y625948D01*
X351790Y625973D01*
X351648Y625995D01*
X351506Y626012D01*
X351364Y626026D01*
X351221Y626036D01*
X351078Y626042D01*
X350935Y626044D01*
X389275Y397444D02*
X389275Y389005D01*
X389273Y388892D01*
X389267Y388779D01*
X389257Y388666D01*
X389243Y388553D01*
X389226Y388441D01*
X389204Y388330D01*
X389179Y388220D01*
X389149Y388110D01*
X389116Y388002D01*
X389079Y387895D01*
X389039Y387789D01*
X388994Y387685D01*
X388946Y387582D01*
X388895Y387481D01*
X388840Y387382D01*
X388782Y387285D01*
X388720Y387190D01*
X388655Y387097D01*
X388587Y387007D01*
X388516Y386919D01*
X388441Y386833D01*
X388364Y386750D01*
X388284Y386670D01*
X388201Y386593D01*
X388115Y386518D01*
X388027Y386447D01*
X387937Y386379D01*
X387844Y386314D01*
X387749Y386252D01*
X387652Y386194D01*
X387553Y386139D01*
X387452Y386088D01*
X387349Y386040D01*
X387245Y385995D01*
X387139Y385955D01*
X387032Y385918D01*
X386924Y385885D01*
X386814Y385855D01*
X386704Y385830D01*
X386593Y385808D01*
X386481Y385791D01*
X386368Y385777D01*
X386255Y385767D01*
X386142Y385761D01*
X386029Y385759D01*
X385916Y385761D01*
X385803Y385767D01*
X385690Y385777D01*
X385577Y385791D01*
X385465Y385808D01*
X385354Y385830D01*
X385244Y385855D01*
X385134Y385885D01*
X385026Y385918D01*
X384919Y385955D01*
X384813Y385995D01*
X384709Y386040D01*
X384606Y386088D01*
X384505Y386139D01*
X384406Y386194D01*
X384309Y386252D01*
X384214Y386314D01*
X384121Y386379D01*
X384031Y386447D01*
X383943Y386518D01*
X383857Y386593D01*
X383774Y386670D01*
X383694Y386750D01*
X383617Y386833D01*
X383542Y386919D01*
X383471Y387007D01*
X383403Y387097D01*
X383338Y387190D01*
X383276Y387285D01*
X383218Y387382D01*
X383163Y387481D01*
X383112Y387582D01*
X383064Y387685D01*
X383019Y387789D01*
X382979Y387895D01*
X382942Y388002D01*
X382909Y388110D01*
X382879Y388220D01*
X382854Y388330D01*
X382832Y388441D01*
X382815Y388553D01*
X382801Y388666D01*
X382791Y388779D01*
X382785Y388892D01*
X382783Y389005D01*
X382784Y389005D02*
X382784Y397444D01*
X374980Y397444D02*
X374980Y385760D01*
X374980Y391602D02*
X376603Y392575D01*
X376676Y392622D01*
X376747Y392671D01*
X376817Y392724D01*
X376883Y392780D01*
X376947Y392839D01*
X377009Y392900D01*
X377067Y392964D01*
X377123Y393031D01*
X377175Y393100D01*
X377225Y393172D01*
X377271Y393246D01*
X377314Y393321D01*
X377353Y393399D01*
X377389Y393478D01*
X377421Y393559D01*
X377450Y393641D01*
X377475Y393724D01*
X377496Y393808D01*
X377513Y393893D01*
X377527Y393979D01*
X377536Y394065D01*
X377542Y394152D01*
X377544Y394239D01*
X377542Y394326D01*
X377536Y394413D01*
X377526Y394499D01*
X377513Y394585D01*
X377495Y394670D01*
X377474Y394754D01*
X377449Y394837D01*
X377420Y394920D01*
X377388Y395000D01*
X377352Y395079D01*
X377313Y395157D01*
X377270Y395232D01*
X377223Y395306D01*
X377174Y395377D01*
X377121Y395447D01*
X377066Y395513D01*
X377007Y395577D01*
X376946Y395639D01*
X376881Y395698D01*
X376815Y395753D01*
X376746Y395806D01*
X376674Y395856D01*
X376601Y395902D01*
X376525Y395945D01*
X376448Y395984D01*
X376369Y396020D01*
X376288Y396053D01*
X376206Y396081D01*
X376123Y396107D01*
X376039Y396128D01*
X375953Y396145D01*
X375954Y396145D02*
X375814Y396169D01*
X375672Y396189D01*
X375531Y396205D01*
X375389Y396216D01*
X375246Y396224D01*
X375104Y396228D01*
X374961Y396229D01*
X374818Y396225D01*
X374676Y396217D01*
X374534Y396205D01*
X374392Y396189D01*
X374251Y396170D01*
X374110Y396146D01*
X373970Y396119D01*
X373831Y396087D01*
X373693Y396052D01*
X373555Y396013D01*
X373419Y395970D01*
X373285Y395924D01*
X373151Y395873D01*
X373019Y395820D01*
X372889Y395762D01*
X372760Y395701D01*
X372633Y395636D01*
X372507Y395568D01*
X372384Y395496D01*
X374980Y391602D02*
X373357Y390628D01*
X373284Y390581D01*
X373213Y390532D01*
X373143Y390479D01*
X373077Y390423D01*
X373013Y390364D01*
X372951Y390303D01*
X372893Y390239D01*
X372837Y390172D01*
X372785Y390103D01*
X372735Y390031D01*
X372689Y389957D01*
X372646Y389882D01*
X372607Y389804D01*
X372571Y389725D01*
X372539Y389644D01*
X372510Y389562D01*
X372485Y389479D01*
X372464Y389395D01*
X372447Y389310D01*
X372433Y389224D01*
X372424Y389138D01*
X372418Y389051D01*
X372416Y388964D01*
X372418Y388877D01*
X372424Y388790D01*
X372434Y388704D01*
X372447Y388618D01*
X372465Y388533D01*
X372486Y388449D01*
X372511Y388366D01*
X372540Y388283D01*
X372572Y388203D01*
X372608Y388124D01*
X372647Y388046D01*
X372690Y387971D01*
X372737Y387897D01*
X372786Y387826D01*
X372839Y387756D01*
X372894Y387690D01*
X372953Y387626D01*
X373014Y387564D01*
X373079Y387505D01*
X373145Y387450D01*
X373214Y387397D01*
X373286Y387347D01*
X373359Y387301D01*
X373435Y387258D01*
X373512Y387219D01*
X373591Y387183D01*
X373672Y387150D01*
X373754Y387122D01*
X373837Y387096D01*
X373921Y387075D01*
X374006Y387058D01*
X374007Y387058D02*
X374147Y387034D01*
X374289Y387014D01*
X374430Y386998D01*
X374572Y386987D01*
X374715Y386979D01*
X374857Y386975D01*
X375000Y386974D01*
X375143Y386978D01*
X375285Y386986D01*
X375427Y386998D01*
X375569Y387014D01*
X375710Y387033D01*
X375851Y387057D01*
X375991Y387084D01*
X376130Y387116D01*
X376268Y387151D01*
X376406Y387190D01*
X376542Y387233D01*
X376676Y387279D01*
X376810Y387330D01*
X376942Y387383D01*
X377073Y387441D01*
X377201Y387502D01*
X377328Y387567D01*
X377454Y387635D01*
X377577Y387707D01*
X367558Y385760D02*
X364312Y385760D01*
X364312Y385759D02*
X364199Y385761D01*
X364086Y385767D01*
X363973Y385777D01*
X363860Y385791D01*
X363748Y385808D01*
X363637Y385830D01*
X363527Y385855D01*
X363417Y385885D01*
X363309Y385918D01*
X363202Y385955D01*
X363096Y385995D01*
X362992Y386040D01*
X362889Y386088D01*
X362788Y386139D01*
X362689Y386194D01*
X362592Y386252D01*
X362497Y386314D01*
X362404Y386379D01*
X362314Y386447D01*
X362226Y386518D01*
X362140Y386593D01*
X362057Y386670D01*
X361977Y386750D01*
X361900Y386833D01*
X361825Y386919D01*
X361754Y387007D01*
X361686Y387097D01*
X361621Y387190D01*
X361559Y387285D01*
X361501Y387382D01*
X361446Y387481D01*
X361395Y387582D01*
X361347Y387685D01*
X361302Y387789D01*
X361262Y387895D01*
X361225Y388002D01*
X361192Y388110D01*
X361162Y388220D01*
X361137Y388330D01*
X361115Y388441D01*
X361098Y388553D01*
X361084Y388666D01*
X361074Y388779D01*
X361068Y388892D01*
X361066Y389005D01*
X361068Y389118D01*
X361074Y389231D01*
X361084Y389344D01*
X361098Y389457D01*
X361115Y389569D01*
X361137Y389680D01*
X361162Y389790D01*
X361192Y389900D01*
X361225Y390008D01*
X361262Y390115D01*
X361302Y390221D01*
X361347Y390325D01*
X361395Y390428D01*
X361446Y390529D01*
X361501Y390628D01*
X361559Y390725D01*
X361621Y390820D01*
X361686Y390913D01*
X361754Y391003D01*
X361825Y391091D01*
X361900Y391177D01*
X361977Y391260D01*
X362057Y391340D01*
X362140Y391417D01*
X362226Y391492D01*
X362314Y391563D01*
X362404Y391631D01*
X362497Y391696D01*
X362592Y391758D01*
X362689Y391816D01*
X362788Y391871D01*
X362889Y391922D01*
X362992Y391970D01*
X363096Y392015D01*
X363202Y392055D01*
X363309Y392092D01*
X363417Y392125D01*
X363527Y392155D01*
X363637Y392180D01*
X363748Y392202D01*
X363860Y392219D01*
X363973Y392233D01*
X364086Y392243D01*
X364199Y392249D01*
X364312Y392251D01*
X363663Y397444D02*
X367558Y397444D01*
X363663Y397443D02*
X363562Y397441D01*
X363462Y397435D01*
X363362Y397425D01*
X363262Y397412D01*
X363163Y397394D01*
X363064Y397373D01*
X362967Y397348D01*
X362870Y397319D01*
X362775Y397286D01*
X362681Y397250D01*
X362589Y397210D01*
X362498Y397167D01*
X362409Y397120D01*
X362322Y397070D01*
X362236Y397016D01*
X362153Y396959D01*
X362073Y396899D01*
X361994Y396836D01*
X361918Y396769D01*
X361845Y396700D01*
X361775Y396628D01*
X361707Y396554D01*
X361642Y396477D01*
X361581Y396397D01*
X361522Y396315D01*
X361467Y396231D01*
X361415Y396145D01*
X361366Y396057D01*
X361321Y395967D01*
X361279Y395875D01*
X361241Y395782D01*
X361207Y395687D01*
X361176Y395592D01*
X361149Y395495D01*
X361126Y395397D01*
X361106Y395298D01*
X361091Y395198D01*
X361079Y395098D01*
X361071Y394998D01*
X361067Y394897D01*
X361067Y394797D01*
X361071Y394696D01*
X361079Y394596D01*
X361091Y394496D01*
X361106Y394396D01*
X361126Y394297D01*
X361149Y394199D01*
X361176Y394102D01*
X361207Y394007D01*
X361241Y393912D01*
X361279Y393819D01*
X361321Y393727D01*
X361366Y393637D01*
X361415Y393549D01*
X361467Y393463D01*
X361522Y393379D01*
X361581Y393297D01*
X361642Y393217D01*
X361707Y393140D01*
X361775Y393066D01*
X361845Y392994D01*
X361918Y392925D01*
X361994Y392858D01*
X362073Y392795D01*
X362153Y392735D01*
X362236Y392678D01*
X362322Y392624D01*
X362409Y392574D01*
X362498Y392527D01*
X362589Y392484D01*
X362681Y392444D01*
X362775Y392408D01*
X362870Y392375D01*
X362967Y392346D01*
X363064Y392321D01*
X363163Y392300D01*
X363262Y392282D01*
X363362Y392269D01*
X363462Y392259D01*
X363562Y392253D01*
X363663Y392251D01*
X366260Y392251D01*
X356128Y385760D02*
X352882Y385760D01*
X352882Y385759D02*
X352769Y385761D01*
X352656Y385767D01*
X352543Y385777D01*
X352430Y385791D01*
X352318Y385808D01*
X352207Y385830D01*
X352097Y385855D01*
X351987Y385885D01*
X351879Y385918D01*
X351772Y385955D01*
X351666Y385995D01*
X351562Y386040D01*
X351459Y386088D01*
X351358Y386139D01*
X351259Y386194D01*
X351162Y386252D01*
X351067Y386314D01*
X350974Y386379D01*
X350884Y386447D01*
X350796Y386518D01*
X350710Y386593D01*
X350627Y386670D01*
X350547Y386750D01*
X350470Y386833D01*
X350395Y386919D01*
X350324Y387007D01*
X350256Y387097D01*
X350191Y387190D01*
X350129Y387285D01*
X350071Y387382D01*
X350016Y387481D01*
X349965Y387582D01*
X349917Y387685D01*
X349872Y387789D01*
X349832Y387895D01*
X349795Y388002D01*
X349762Y388110D01*
X349732Y388220D01*
X349707Y388330D01*
X349685Y388441D01*
X349668Y388553D01*
X349654Y388666D01*
X349644Y388779D01*
X349638Y388892D01*
X349636Y389005D01*
X349638Y389118D01*
X349644Y389231D01*
X349654Y389344D01*
X349668Y389457D01*
X349685Y389569D01*
X349707Y389680D01*
X349732Y389790D01*
X349762Y389900D01*
X349795Y390008D01*
X349832Y390115D01*
X349872Y390221D01*
X349917Y390325D01*
X349965Y390428D01*
X350016Y390529D01*
X350071Y390628D01*
X350129Y390725D01*
X350191Y390820D01*
X350256Y390913D01*
X350324Y391003D01*
X350395Y391091D01*
X350470Y391177D01*
X350547Y391260D01*
X350627Y391340D01*
X350710Y391417D01*
X350796Y391492D01*
X350884Y391563D01*
X350974Y391631D01*
X351067Y391696D01*
X351162Y391758D01*
X351259Y391816D01*
X351358Y391871D01*
X351459Y391922D01*
X351562Y391970D01*
X351666Y392015D01*
X351772Y392055D01*
X351879Y392092D01*
X351987Y392125D01*
X352097Y392155D01*
X352207Y392180D01*
X352318Y392202D01*
X352430Y392219D01*
X352543Y392233D01*
X352656Y392243D01*
X352769Y392249D01*
X352882Y392251D01*
X352233Y397444D02*
X356128Y397444D01*
X352233Y397443D02*
X352132Y397441D01*
X352032Y397435D01*
X351932Y397425D01*
X351832Y397412D01*
X351733Y397394D01*
X351634Y397373D01*
X351537Y397348D01*
X351440Y397319D01*
X351345Y397286D01*
X351251Y397250D01*
X351159Y397210D01*
X351068Y397167D01*
X350979Y397120D01*
X350892Y397070D01*
X350806Y397016D01*
X350723Y396959D01*
X350643Y396899D01*
X350564Y396836D01*
X350488Y396769D01*
X350415Y396700D01*
X350345Y396628D01*
X350277Y396554D01*
X350212Y396477D01*
X350151Y396397D01*
X350092Y396315D01*
X350037Y396231D01*
X349985Y396145D01*
X349936Y396057D01*
X349891Y395967D01*
X349849Y395875D01*
X349811Y395782D01*
X349777Y395687D01*
X349746Y395592D01*
X349719Y395495D01*
X349696Y395397D01*
X349676Y395298D01*
X349661Y395198D01*
X349649Y395098D01*
X349641Y394998D01*
X349637Y394897D01*
X349637Y394797D01*
X349641Y394696D01*
X349649Y394596D01*
X349661Y394496D01*
X349676Y394396D01*
X349696Y394297D01*
X349719Y394199D01*
X349746Y394102D01*
X349777Y394007D01*
X349811Y393912D01*
X349849Y393819D01*
X349891Y393727D01*
X349936Y393637D01*
X349985Y393549D01*
X350037Y393463D01*
X350092Y393379D01*
X350151Y393297D01*
X350212Y393217D01*
X350277Y393140D01*
X350345Y393066D01*
X350415Y392994D01*
X350488Y392925D01*
X350564Y392858D01*
X350643Y392795D01*
X350723Y392735D01*
X350806Y392678D01*
X350892Y392624D01*
X350979Y392574D01*
X351068Y392527D01*
X351159Y392484D01*
X351251Y392444D01*
X351345Y392408D01*
X351440Y392375D01*
X351537Y392346D01*
X351634Y392321D01*
X351733Y392300D01*
X351832Y392282D01*
X351932Y392269D01*
X352032Y392259D01*
X352132Y392253D01*
X352233Y392251D01*
X354830Y392251D01*
X389275Y168844D02*
X389275Y160405D01*
X389273Y160292D01*
X389267Y160179D01*
X389257Y160066D01*
X389243Y159953D01*
X389226Y159841D01*
X389204Y159730D01*
X389179Y159620D01*
X389149Y159510D01*
X389116Y159402D01*
X389079Y159295D01*
X389039Y159189D01*
X388994Y159085D01*
X388946Y158982D01*
X388895Y158881D01*
X388840Y158782D01*
X388782Y158685D01*
X388720Y158590D01*
X388655Y158497D01*
X388587Y158407D01*
X388516Y158319D01*
X388441Y158233D01*
X388364Y158150D01*
X388284Y158070D01*
X388201Y157993D01*
X388115Y157918D01*
X388027Y157847D01*
X387937Y157779D01*
X387844Y157714D01*
X387749Y157652D01*
X387652Y157594D01*
X387553Y157539D01*
X387452Y157488D01*
X387349Y157440D01*
X387245Y157395D01*
X387139Y157355D01*
X387032Y157318D01*
X386924Y157285D01*
X386814Y157255D01*
X386704Y157230D01*
X386593Y157208D01*
X386481Y157191D01*
X386368Y157177D01*
X386255Y157167D01*
X386142Y157161D01*
X386029Y157159D01*
X385916Y157161D01*
X385803Y157167D01*
X385690Y157177D01*
X385577Y157191D01*
X385465Y157208D01*
X385354Y157230D01*
X385244Y157255D01*
X385134Y157285D01*
X385026Y157318D01*
X384919Y157355D01*
X384813Y157395D01*
X384709Y157440D01*
X384606Y157488D01*
X384505Y157539D01*
X384406Y157594D01*
X384309Y157652D01*
X384214Y157714D01*
X384121Y157779D01*
X384031Y157847D01*
X383943Y157918D01*
X383857Y157993D01*
X383774Y158070D01*
X383694Y158150D01*
X383617Y158233D01*
X383542Y158319D01*
X383471Y158407D01*
X383403Y158497D01*
X383338Y158590D01*
X383276Y158685D01*
X383218Y158782D01*
X383163Y158881D01*
X383112Y158982D01*
X383064Y159085D01*
X383019Y159189D01*
X382979Y159295D01*
X382942Y159402D01*
X382909Y159510D01*
X382879Y159620D01*
X382854Y159730D01*
X382832Y159841D01*
X382815Y159953D01*
X382801Y160066D01*
X382791Y160179D01*
X382785Y160292D01*
X382783Y160405D01*
X382784Y160405D02*
X382784Y168844D01*
X374980Y168844D02*
X374980Y157160D01*
X374980Y163002D02*
X376603Y163975D01*
X376676Y164022D01*
X376747Y164071D01*
X376817Y164124D01*
X376883Y164180D01*
X376947Y164239D01*
X377009Y164300D01*
X377067Y164364D01*
X377123Y164431D01*
X377175Y164500D01*
X377225Y164572D01*
X377271Y164646D01*
X377314Y164721D01*
X377353Y164799D01*
X377389Y164878D01*
X377421Y164959D01*
X377450Y165041D01*
X377475Y165124D01*
X377496Y165208D01*
X377513Y165293D01*
X377527Y165379D01*
X377536Y165465D01*
X377542Y165552D01*
X377544Y165639D01*
X377542Y165726D01*
X377536Y165813D01*
X377526Y165899D01*
X377513Y165985D01*
X377495Y166070D01*
X377474Y166154D01*
X377449Y166237D01*
X377420Y166320D01*
X377388Y166400D01*
X377352Y166479D01*
X377313Y166557D01*
X377270Y166632D01*
X377223Y166706D01*
X377174Y166777D01*
X377121Y166847D01*
X377066Y166913D01*
X377007Y166977D01*
X376946Y167039D01*
X376881Y167098D01*
X376815Y167153D01*
X376746Y167206D01*
X376674Y167256D01*
X376601Y167302D01*
X376525Y167345D01*
X376448Y167384D01*
X376369Y167420D01*
X376288Y167453D01*
X376206Y167481D01*
X376123Y167507D01*
X376039Y167528D01*
X375953Y167545D01*
X375954Y167545D02*
X375814Y167569D01*
X375672Y167589D01*
X375531Y167605D01*
X375389Y167616D01*
X375246Y167624D01*
X375104Y167628D01*
X374961Y167629D01*
X374818Y167625D01*
X374676Y167617D01*
X374534Y167605D01*
X374392Y167589D01*
X374251Y167570D01*
X374110Y167546D01*
X373970Y167519D01*
X373831Y167487D01*
X373693Y167452D01*
X373555Y167413D01*
X373419Y167370D01*
X373285Y167324D01*
X373151Y167273D01*
X373019Y167220D01*
X372889Y167162D01*
X372760Y167101D01*
X372633Y167036D01*
X372507Y166968D01*
X372384Y166896D01*
X374980Y163002D02*
X373357Y162028D01*
X373284Y161981D01*
X373213Y161932D01*
X373143Y161879D01*
X373077Y161823D01*
X373013Y161764D01*
X372951Y161703D01*
X372893Y161639D01*
X372837Y161572D01*
X372785Y161503D01*
X372735Y161431D01*
X372689Y161357D01*
X372646Y161282D01*
X372607Y161204D01*
X372571Y161125D01*
X372539Y161044D01*
X372510Y160962D01*
X372485Y160879D01*
X372464Y160795D01*
X372447Y160710D01*
X372433Y160624D01*
X372424Y160538D01*
X372418Y160451D01*
X372416Y160364D01*
X372418Y160277D01*
X372424Y160190D01*
X372434Y160104D01*
X372447Y160018D01*
X372465Y159933D01*
X372486Y159849D01*
X372511Y159766D01*
X372540Y159683D01*
X372572Y159603D01*
X372608Y159524D01*
X372647Y159446D01*
X372690Y159371D01*
X372737Y159297D01*
X372786Y159226D01*
X372839Y159156D01*
X372894Y159090D01*
X372953Y159026D01*
X373014Y158964D01*
X373079Y158905D01*
X373145Y158850D01*
X373214Y158797D01*
X373286Y158747D01*
X373359Y158701D01*
X373435Y158658D01*
X373512Y158619D01*
X373591Y158583D01*
X373672Y158550D01*
X373754Y158522D01*
X373837Y158496D01*
X373921Y158475D01*
X374006Y158458D01*
X374007Y158458D02*
X374147Y158434D01*
X374289Y158414D01*
X374430Y158398D01*
X374572Y158387D01*
X374715Y158379D01*
X374857Y158375D01*
X375000Y158374D01*
X375143Y158378D01*
X375285Y158386D01*
X375427Y158398D01*
X375569Y158414D01*
X375710Y158433D01*
X375851Y158457D01*
X375991Y158484D01*
X376130Y158516D01*
X376268Y158551D01*
X376406Y158590D01*
X376542Y158633D01*
X376676Y158679D01*
X376810Y158730D01*
X376942Y158783D01*
X377073Y158841D01*
X377201Y158902D01*
X377328Y158967D01*
X377454Y159035D01*
X377577Y159107D01*
X363988Y168844D02*
X363881Y168842D01*
X363775Y168836D01*
X363669Y168826D01*
X363563Y168813D01*
X363457Y168795D01*
X363353Y168774D01*
X363249Y168749D01*
X363146Y168720D01*
X363045Y168688D01*
X362945Y168651D01*
X362846Y168611D01*
X362748Y168568D01*
X362652Y168521D01*
X362558Y168470D01*
X362466Y168416D01*
X362376Y168359D01*
X362288Y168299D01*
X362203Y168235D01*
X362120Y168168D01*
X362039Y168098D01*
X361961Y168026D01*
X361885Y167950D01*
X361813Y167872D01*
X361743Y167791D01*
X361676Y167708D01*
X361612Y167623D01*
X361552Y167535D01*
X361495Y167445D01*
X361441Y167353D01*
X361390Y167259D01*
X361343Y167163D01*
X361300Y167065D01*
X361260Y166966D01*
X361223Y166866D01*
X361191Y166765D01*
X361162Y166662D01*
X361137Y166558D01*
X361116Y166454D01*
X361098Y166348D01*
X361085Y166242D01*
X361075Y166136D01*
X361069Y166030D01*
X361067Y165923D01*
X363988Y168844D02*
X364109Y168842D01*
X364230Y168836D01*
X364350Y168826D01*
X364471Y168813D01*
X364590Y168795D01*
X364710Y168774D01*
X364828Y168749D01*
X364945Y168720D01*
X365062Y168687D01*
X365177Y168651D01*
X365291Y168610D01*
X365404Y168567D01*
X365516Y168519D01*
X365625Y168468D01*
X365733Y168413D01*
X365840Y168355D01*
X365944Y168294D01*
X366046Y168229D01*
X366146Y168161D01*
X366244Y168090D01*
X366340Y168016D01*
X366433Y167939D01*
X366523Y167858D01*
X366611Y167775D01*
X366696Y167689D01*
X366779Y167600D01*
X366858Y167509D01*
X366935Y167415D01*
X367008Y167319D01*
X367078Y167221D01*
X367145Y167120D01*
X367209Y167017D01*
X367270Y166912D01*
X367327Y166805D01*
X367380Y166697D01*
X367430Y166587D01*
X367476Y166475D01*
X367519Y166362D01*
X367558Y166247D01*
X362041Y163651D02*
X361962Y163729D01*
X361886Y163809D01*
X361813Y163892D01*
X361743Y163978D01*
X361676Y164065D01*
X361612Y164156D01*
X361552Y164248D01*
X361494Y164342D01*
X361440Y164439D01*
X361390Y164537D01*
X361343Y164637D01*
X361299Y164738D01*
X361259Y164841D01*
X361223Y164946D01*
X361191Y165051D01*
X361162Y165158D01*
X361137Y165265D01*
X361115Y165374D01*
X361098Y165483D01*
X361084Y165592D01*
X361075Y165702D01*
X361069Y165813D01*
X361067Y165923D01*
X362040Y163651D02*
X367558Y157160D01*
X361067Y157160D01*
X356128Y163651D02*
X352233Y163651D01*
X352233Y163650D02*
X352134Y163648D01*
X352034Y163642D01*
X351935Y163633D01*
X351837Y163620D01*
X351739Y163603D01*
X351641Y163582D01*
X351545Y163557D01*
X351450Y163529D01*
X351356Y163497D01*
X351263Y163462D01*
X351171Y163423D01*
X351081Y163380D01*
X350993Y163335D01*
X350906Y163285D01*
X350822Y163233D01*
X350739Y163177D01*
X350659Y163119D01*
X350581Y163057D01*
X350506Y162992D01*
X350433Y162924D01*
X350363Y162854D01*
X350295Y162781D01*
X350230Y162706D01*
X350168Y162628D01*
X350110Y162548D01*
X350054Y162465D01*
X350002Y162381D01*
X349952Y162294D01*
X349907Y162206D01*
X349864Y162116D01*
X349825Y162024D01*
X349790Y161931D01*
X349758Y161837D01*
X349730Y161742D01*
X349705Y161646D01*
X349684Y161548D01*
X349667Y161450D01*
X349654Y161352D01*
X349645Y161253D01*
X349639Y161153D01*
X349637Y161054D01*
X349637Y160405D01*
X349636Y160405D02*
X349638Y160292D01*
X349644Y160179D01*
X349654Y160066D01*
X349668Y159953D01*
X349685Y159841D01*
X349707Y159730D01*
X349732Y159620D01*
X349762Y159510D01*
X349795Y159402D01*
X349832Y159295D01*
X349872Y159189D01*
X349917Y159085D01*
X349965Y158982D01*
X350016Y158881D01*
X350071Y158782D01*
X350129Y158685D01*
X350191Y158590D01*
X350256Y158497D01*
X350324Y158407D01*
X350395Y158319D01*
X350470Y158233D01*
X350547Y158150D01*
X350627Y158070D01*
X350710Y157993D01*
X350796Y157918D01*
X350884Y157847D01*
X350974Y157779D01*
X351067Y157714D01*
X351162Y157652D01*
X351259Y157594D01*
X351358Y157539D01*
X351459Y157488D01*
X351562Y157440D01*
X351666Y157395D01*
X351772Y157355D01*
X351879Y157318D01*
X351987Y157285D01*
X352097Y157255D01*
X352207Y157230D01*
X352318Y157208D01*
X352430Y157191D01*
X352543Y157177D01*
X352656Y157167D01*
X352769Y157161D01*
X352882Y157159D01*
X352995Y157161D01*
X353108Y157167D01*
X353221Y157177D01*
X353334Y157191D01*
X353446Y157208D01*
X353557Y157230D01*
X353667Y157255D01*
X353777Y157285D01*
X353885Y157318D01*
X353992Y157355D01*
X354098Y157395D01*
X354202Y157440D01*
X354305Y157488D01*
X354406Y157539D01*
X354505Y157594D01*
X354602Y157652D01*
X354697Y157714D01*
X354790Y157779D01*
X354880Y157847D01*
X354968Y157918D01*
X355054Y157993D01*
X355137Y158070D01*
X355217Y158150D01*
X355294Y158233D01*
X355369Y158319D01*
X355440Y158407D01*
X355508Y158497D01*
X355573Y158590D01*
X355635Y158685D01*
X355693Y158782D01*
X355748Y158881D01*
X355799Y158982D01*
X355847Y159085D01*
X355892Y159189D01*
X355932Y159295D01*
X355969Y159402D01*
X356002Y159510D01*
X356032Y159620D01*
X356057Y159730D01*
X356079Y159841D01*
X356096Y159953D01*
X356110Y160066D01*
X356120Y160179D01*
X356126Y160292D01*
X356128Y160405D01*
X356128Y163651D01*
X356126Y163794D01*
X356120Y163937D01*
X356110Y164080D01*
X356096Y164222D01*
X356079Y164364D01*
X356057Y164506D01*
X356032Y164647D01*
X356002Y164787D01*
X355969Y164926D01*
X355932Y165064D01*
X355891Y165201D01*
X355847Y165337D01*
X355798Y165472D01*
X355746Y165605D01*
X355691Y165737D01*
X355631Y165867D01*
X355568Y165996D01*
X355502Y166123D01*
X355432Y166248D01*
X355359Y166370D01*
X355282Y166491D01*
X355202Y166610D01*
X355119Y166726D01*
X355033Y166841D01*
X354944Y166952D01*
X354851Y167062D01*
X354756Y167168D01*
X354657Y167272D01*
X354556Y167373D01*
X354452Y167472D01*
X354346Y167567D01*
X354236Y167660D01*
X354125Y167749D01*
X354010Y167835D01*
X353894Y167918D01*
X353775Y167998D01*
X353654Y168075D01*
X353532Y168148D01*
X353407Y168218D01*
X353280Y168284D01*
X353151Y168347D01*
X353021Y168407D01*
X352889Y168462D01*
X352756Y168514D01*
X352621Y168563D01*
X352485Y168607D01*
X352348Y168648D01*
X352210Y168685D01*
X352071Y168718D01*
X351931Y168748D01*
X351790Y168773D01*
X351648Y168795D01*
X351506Y168812D01*
X351364Y168826D01*
X351221Y168836D01*
X351078Y168842D01*
X350935Y168844D01*
M02*
