G04 EAGLE Gerber X2 export*
%TF.Part,Single*%
%TF.FileFunction,Soldermask,Bot,1*%
%TF.FilePolarity,Positive*%
%TF.GenerationSoftware,Autodesk,EAGLE,9.2.2*%
%TF.CreationDate,2019-06-08T20:53:53Z*%
G75*
%MOMM*%
%FSLAX34Y34*%
%LPD*%
%INSoldermask Bottom*%
%AMOC8*
5,1,8,0,0,1.08239X$1,22.5*%
G01*
%ADD10C,1.611200*%
%ADD11R,1.611200X1.611200*%
%ADD12C,2.159000*%
%ADD13P,1.649562X8X112.500000*%
%ADD14P,1.649562X8X22.500000*%
%ADD15C,0.959600*%


D10*
X298615Y717146D03*
D11*
X298615Y742546D03*
D10*
X339472Y744487D03*
D11*
X339472Y719087D03*
D12*
X579642Y804522D02*
X599200Y804522D01*
X599200Y779122D02*
X579642Y779122D01*
X579642Y753722D02*
X599200Y753722D01*
X109200Y804522D02*
X89642Y804522D01*
X89642Y779122D02*
X109200Y779122D01*
X109200Y753722D02*
X89642Y753722D01*
X348621Y863661D02*
X348621Y883219D01*
X374021Y883219D02*
X374021Y863661D01*
X399421Y863661D02*
X399421Y883219D01*
D13*
X533395Y767642D03*
X514345Y754942D03*
X533395Y742242D03*
D14*
X258461Y720337D03*
X245761Y739387D03*
X233061Y720337D03*
D13*
X204440Y878962D03*
X185390Y866262D03*
X204440Y853562D03*
X423322Y765234D03*
X404272Y752534D03*
X423322Y739834D03*
D10*
X246973Y790621D03*
D11*
X246973Y816021D03*
D10*
X208486Y819620D03*
D11*
X208486Y794220D03*
D10*
X298615Y488546D03*
D11*
X298615Y513946D03*
D10*
X339472Y515887D03*
D11*
X339472Y490487D03*
D12*
X579642Y575922D02*
X599200Y575922D01*
X599200Y550522D02*
X579642Y550522D01*
X579642Y525122D02*
X599200Y525122D01*
X109200Y575922D02*
X89642Y575922D01*
X89642Y550522D02*
X109200Y550522D01*
X109200Y525122D02*
X89642Y525122D01*
X348621Y635061D02*
X348621Y654619D01*
X374021Y654619D02*
X374021Y635061D01*
X399421Y635061D02*
X399421Y654619D01*
D13*
X533395Y539042D03*
X514345Y526342D03*
X533395Y513642D03*
D14*
X258461Y491737D03*
X245761Y510787D03*
X233061Y491737D03*
D13*
X204440Y650362D03*
X185390Y637662D03*
X204440Y624962D03*
X423322Y536634D03*
X404272Y523934D03*
X423322Y511234D03*
D10*
X246973Y562021D03*
D11*
X246973Y587421D03*
D10*
X208486Y591020D03*
D11*
X208486Y565620D03*
D10*
X298615Y259946D03*
D11*
X298615Y285346D03*
D10*
X339472Y287287D03*
D11*
X339472Y261887D03*
D12*
X579642Y347322D02*
X599200Y347322D01*
X599200Y321922D02*
X579642Y321922D01*
X579642Y296522D02*
X599200Y296522D01*
X109200Y347322D02*
X89642Y347322D01*
X89642Y321922D02*
X109200Y321922D01*
X109200Y296522D02*
X89642Y296522D01*
X348621Y406461D02*
X348621Y426019D01*
X374021Y426019D02*
X374021Y406461D01*
X399421Y406461D02*
X399421Y426019D01*
D13*
X533395Y310442D03*
X514345Y297742D03*
X533395Y285042D03*
D14*
X258461Y263137D03*
X245761Y282187D03*
X233061Y263137D03*
D13*
X204440Y421762D03*
X185390Y409062D03*
X204440Y396362D03*
X423322Y308034D03*
X404272Y295334D03*
X423322Y282634D03*
D10*
X246973Y333421D03*
D11*
X246973Y358821D03*
D10*
X208486Y362420D03*
D11*
X208486Y337020D03*
D10*
X298615Y31346D03*
D11*
X298615Y56746D03*
D10*
X339472Y58687D03*
D11*
X339472Y33287D03*
D12*
X579642Y118722D02*
X599200Y118722D01*
X599200Y93322D02*
X579642Y93322D01*
X579642Y67922D02*
X599200Y67922D01*
X109200Y118722D02*
X89642Y118722D01*
X89642Y93322D02*
X109200Y93322D01*
X109200Y67922D02*
X89642Y67922D01*
X348621Y177861D02*
X348621Y197419D01*
X374021Y197419D02*
X374021Y177861D01*
X399421Y177861D02*
X399421Y197419D01*
D13*
X533395Y81842D03*
X514345Y69142D03*
X533395Y56442D03*
D14*
X258461Y34537D03*
X245761Y53587D03*
X233061Y34537D03*
D13*
X204440Y193162D03*
X185390Y180462D03*
X204440Y167762D03*
X423322Y79434D03*
X404272Y66734D03*
X423322Y54034D03*
D10*
X246973Y104821D03*
D11*
X246973Y130221D03*
D10*
X208486Y133820D03*
D11*
X208486Y108420D03*
D15*
X428494Y870406D03*
X467868Y725932D03*
X428494Y641806D03*
X467868Y497332D03*
X428494Y413206D03*
X467868Y268732D03*
X428494Y184606D03*
X467868Y40132D03*
M02*
