%MOIN*%
%OFA0B0*%
%FSLAX34Y34*%
%IPPOS*%
%LPD*%
%AMOC8*
5,1,8,0,0,$1,22.5*%
%AMOC80*
5,1,8,0,0,$1,22.5*%
%AMOC81*
5,1,8,0,0,$1,-67.5*%
%AMOC800*
5,1,8,0,0,$1,-67.5*%
%AMOC8000*
5,1,8,0,0,$1,22.5*%
%ADD10R,0.070866141732283464X0.062992125984251982*%
%ADD11R,0.026000000000000002X0.08*%
%ADD12R,0.023622047244094488X0.086614173228346469*%
%ADD13R,0.062992125984251982X0.07874015748031496*%
%ADD14R,0.07874015748031496X0.062992125984251982*%
%ADD15R,0.086614173228346469X0.023622047244094488*%
%ADD26R,0.070866141732283464X0.062992125984251982*%
%ADD27R,0.062992125984251982X0.070866141732283464*%
%ADD28R,0.094488188976377951X0.094488188976377951*%
%ADD29R,0.12204724409448819X0.031496062992125991*%
%ADD30R,0.07874015748031496X0.062992125984251982*%
%ADD31R,0.062992125984251982X0.07874015748031496*%
%ADD32R,0.060000000000000005X0.013000000000000001*%
%ADD33R,0.05X0.05*%
%ADD34R,0.048000000000000008X0.088*%
%ADD35R,0.14173228346456693X0.086614173228346469*%
%ADD36R,0.086614173228346469X0.023622047244094488*%
%ADD47R,0.043307086614173235X0.03937007874015748*%
%ADD48R,0.062992125984251982X0.070866141732283464*%
%ADD49R,0.070866141732283464X0.062992125984251982*%
%ADD50R,0.087000000000000008X0.024000000000000004*%
%ADD51R,0.07874015748031496X0.062992125984251982*%
%ADD52R,0.062992125984251982X0.07874015748031496*%
%ADD53R,0.086000000000000007X0.052000000000000005*%
%ADD54R,0.022X0.078000000000000014*%
%ADD55R,0.022X0.05*%
%ADD56R,0.05X0.022*%
%ADD57R,0.031496062992125991X0.12204724409448819*%
%ADD58R,0.03937007874015748X0.062992125984251982*%
%ADD59R,0.21259842519685043X0.24409448818897639*%
%ADD60R,0.094488188976377951X0.094488188976377951*%
%ADD61R,0.05X0.05*%
%ADD62R,0.1X0.2*%
%ADD63R,0.023622047244094488X0.067716535433070865*%
%ADD74R,0.070866141732283464X0.062992125984251982*%
%ADD75R,0.062992125984251982X0.070866141732283464*%
%ADD76R,0.086614173228346469X0.023622047244094488*%
%ADD77R,0.12204724409448819X0.031496062992125991*%
%ADD78R,0.070984251968503942X0.062992125984251982*%
%ADD79R,0.052000000000000005X0.086000000000000007*%
%ADD80R,0.062992125984251982X0.070984251968503942*%
%ADD81R,0.086000000000000007X0.052000000000000005*%
%ADD82R,0.062992125984251982X0.07874015748031496*%
%ADD83R,0.07874015748031496X0.062992125984251982*%
%ADD84R,0.062992125984251982X0.03937007874015748*%
%ADD85R,0.24409448818897639X0.21259842519685043*%
%ADD86R,0.021X0.061000000000000006*%
%ADD87R,0.094488188976377951X0.094488188976377951*%
%ADD88R,0.05X0.05*%
%ADD89R,0.1X0.2*%
%ADD100R,0.052000000000000005X0.086000000000000007*%
%ADD101R,0.062992125984251982X0.070984251968503942*%
%ADD102R,0.05X0.05*%
%ADD103R,0.070984251968503942X0.062992125984251982*%
%ADD104R,0.05X0.08*%
%ADD105R,0.08X0.05*%
%LPD*%
G75*
G01*
D10*
X0079133Y0001574D02*
X0084882Y0023941D03*
X0084882Y0025043D03*
D11*
X0101003Y0021829D03*
X0101003Y0019409D03*
X0100503Y0021829D03*
X0100003Y0021829D03*
X0100503Y0019409D03*
X0100003Y0019409D03*
X0099503Y0021829D03*
X0099503Y0019409D03*
X0099003Y0021829D03*
X0099003Y0019409D03*
X0098503Y0021829D03*
X0098003Y0021829D03*
X0098503Y0019409D03*
X0098003Y0019409D03*
X0097503Y0021829D03*
X0097503Y0019409D03*
X0102605Y0026231D03*
X0102605Y0023812D03*
X0102105Y0026231D03*
X0101605Y0026231D03*
X0102105Y0023812D03*
X0101605Y0023812D03*
X0101105Y0026231D03*
X0101105Y0023812D03*
X0100605Y0026231D03*
X0100605Y0023812D03*
X0100105Y0026231D03*
X0099605Y0026231D03*
X0100105Y0023812D03*
X0099605Y0023812D03*
X0099105Y0026231D03*
X0099105Y0023812D03*
D12*
X0088808Y0024768D03*
X0088808Y0022721D03*
X0089308Y0024768D03*
X0088308Y0024768D03*
X0087808Y0024768D03*
X0089308Y0022721D03*
X0088308Y0022721D03*
X0087808Y0022721D03*
X0086808Y0024768D03*
X0086808Y0022721D03*
X0087308Y0024768D03*
X0086308Y0024768D03*
X0087308Y0022721D03*
X0086308Y0022721D03*
D13*
X0098760Y0014447D03*
X0099862Y0014447D03*
D14*
X0085053Y0027347D03*
X0085053Y0026246D03*
X0086448Y0027347D03*
X0086448Y0026246D03*
X0087844Y0027347D03*
X0087844Y0026246D03*
X0102286Y0019802D03*
X0102286Y0020903D03*
X0083699Y0025081D03*
X0083699Y0023978D03*
X0097851Y0025635D03*
X0097851Y0024533D03*
X0093087Y0021316D03*
X0093087Y0022418D03*
X0091679Y0024626D03*
X0091679Y0023523D03*
X0094315Y0021335D03*
X0094315Y0022437D03*
X0090393Y0024602D03*
X0090393Y0023500D03*
D13*
X0083754Y0022724D03*
X0084857Y0022724D03*
D14*
X0091740Y0022464D03*
X0091740Y0021362D03*
X0092251Y0018586D03*
X0092251Y0017484D03*
X0093848Y0018586D03*
X0093848Y0017484D03*
X0095443Y0018586D03*
X0095443Y0017484D03*
D13*
X0085872Y0021239D03*
X0086975Y0021239D03*
X0089077Y0026242D03*
X0090180Y0026242D03*
D15*
X0096365Y0008192D03*
X0098412Y0008192D03*
X0096365Y0008692D03*
X0096365Y0007692D03*
X0096365Y0007191D03*
X0098412Y0008692D03*
X0098412Y0007692D03*
X0098412Y0007191D03*
X0096365Y0006192D03*
X0098412Y0006192D03*
X0096365Y0006692D03*
X0096365Y0005692D03*
X0098412Y0006692D03*
X0098412Y0005692D03*
D14*
X0096434Y0010956D03*
X0096434Y0009854D03*
D13*
X0097650Y0017689D03*
X0096548Y0017689D03*
X0093416Y0005477D03*
X0094519Y0005477D03*
X0096655Y0003275D03*
X0097757Y0003275D03*
D14*
X0098631Y0011042D03*
X0098631Y0009940D03*
D13*
X0100958Y0008001D03*
X0102060Y0008001D03*
D14*
X0100677Y0004616D03*
X0100677Y0003514D03*
X0099682Y0008816D03*
X0099682Y0007713D03*
X0094393Y0007695D03*
X0094393Y0006592D03*
D13*
X0094225Y0008814D03*
X0095329Y0008814D03*
D14*
X0099358Y0003492D03*
X0099358Y0004596D03*
D13*
X0103324Y0005629D03*
X0104427Y0005629D03*
X0096649Y0004532D03*
X0097752Y0004532D03*
X0095260Y0004174D03*
X0094158Y0004174D03*
X0091900Y0008653D03*
X0093002Y0008653D03*
X0104421Y0007135D03*
X0103318Y0007135D03*
D14*
X0083658Y0027347D03*
X0083658Y0026246D03*
X0090418Y0021387D03*
X0090418Y0022490D03*
X0083146Y0021435D03*
X0083146Y0020332D03*
X0084567Y0020338D03*
X0084567Y0021440D03*
G75*
G01*
D26*
X0075984Y0032677D02*
X0092228Y0067009D03*
X0092228Y0065907D03*
X0093729Y0066952D03*
X0093729Y0065850D03*
D27*
X0101035Y0068013D03*
X0102137Y0068013D03*
X0101157Y0069045D03*
X0102260Y0069045D03*
D26*
X0109906Y0036463D03*
X0109906Y0037566D03*
D28*
X0087876Y0041412D03*
X0089608Y0041412D03*
D29*
X0087241Y0039640D03*
X0087241Y0038380D03*
X0087241Y0037514D03*
X0087241Y0036648D03*
X0089328Y0039640D03*
X0089328Y0038380D03*
X0089328Y0037514D03*
X0089328Y0036648D03*
D30*
X0093320Y0046299D03*
X0093320Y0047402D03*
X0098541Y0045801D03*
X0098541Y0044698D03*
D31*
X0097365Y0048240D03*
X0096262Y0048240D03*
X0096229Y0051373D03*
X0095126Y0051373D03*
X0092049Y0051190D03*
X0090946Y0051190D03*
D30*
X0091254Y0041271D03*
X0091254Y0042373D03*
D31*
X0095968Y0042269D03*
X0094865Y0042269D03*
X0094865Y0043907D03*
X0095968Y0043907D03*
D30*
X0099628Y0042458D03*
X0099628Y0043560D03*
X0089338Y0049568D03*
X0089338Y0050670D03*
X0079248Y0052786D03*
X0079248Y0053888D03*
D31*
X0109948Y0039935D03*
X0108846Y0039935D03*
X0109941Y0038704D03*
X0108839Y0038704D03*
X0106445Y0040001D03*
X0107547Y0040001D03*
D26*
X0090497Y0068134D03*
X0090497Y0067032D03*
D32*
X0107811Y0038393D03*
X0107811Y0038583D03*
X0107811Y0038783D03*
X0107811Y0038983D03*
X0107811Y0039173D03*
X0106211Y0039173D03*
X0106211Y0038983D03*
X0106211Y0038783D03*
X0106211Y0038583D03*
X0106211Y0038393D03*
D33*
X0097152Y0067602D03*
X0098153Y0067602D03*
D34*
X0096756Y0068634D03*
X0097666Y0068634D03*
X0098576Y0068634D03*
D35*
X0097666Y0071074D03*
D31*
X0090451Y0048168D03*
X0089347Y0048168D03*
X0089794Y0045008D03*
X0088692Y0045008D03*
X0083596Y0039949D03*
X0082493Y0039949D03*
D30*
X0078428Y0039998D03*
X0078428Y0038896D03*
D26*
X0079479Y0034832D03*
X0079479Y0035935D03*
D27*
X0080850Y0036050D03*
X0081952Y0036050D03*
D36*
X0080586Y0038172D03*
X0082632Y0038172D03*
X0080586Y0038672D03*
X0080586Y0037672D03*
X0080586Y0037172D03*
X0082632Y0038672D03*
X0082632Y0037672D03*
X0082632Y0037172D03*
D30*
X0084406Y0036070D03*
X0084406Y0034968D03*
D31*
X0087543Y0034131D03*
X0088645Y0034131D03*
X0099634Y0036026D03*
X0098532Y0036026D03*
D30*
X0083094Y0034976D03*
X0083094Y0036078D03*
X0077128Y0039964D03*
X0077128Y0038861D03*
D36*
X0099548Y0034296D03*
X0101596Y0034296D03*
X0099548Y0034796D03*
X0099548Y0033796D03*
X0099548Y0033296D03*
X0101596Y0034796D03*
X0101596Y0033796D03*
X0101596Y0033296D03*
D30*
X0095972Y0034725D03*
X0095972Y0033622D03*
X0097767Y0033595D03*
X0097767Y0034696D03*
X0103157Y0034560D03*
X0103157Y0033457D03*
X0104814Y0033423D03*
X0104814Y0034526D03*
D31*
X0098558Y0040687D03*
X0099660Y0040687D03*
D30*
X0094270Y0039089D03*
X0094270Y0037987D03*
G04 next file*
%LPD*%
G75*
G01*
D47*
X0001574Y0035826D02*
X0029409Y0003875D03*
X0028740Y0003875D03*
X0029409Y0005875D03*
X0028740Y0005875D03*
D48*
X0027125Y0031625D03*
X0026023Y0031625D03*
D49*
X0036324Y0026074D03*
X0036324Y0027176D03*
X0031324Y0024927D03*
X0031324Y0023824D03*
D50*
X0031544Y0027374D03*
X0031544Y0026875D03*
X0031544Y0026375D03*
X0031544Y0025875D03*
X0033604Y0025875D03*
X0033604Y0026375D03*
X0033604Y0026875D03*
X0033604Y0027374D03*
D51*
X0035074Y0027176D03*
X0035074Y0026074D03*
X0030074Y0024927D03*
X0030074Y0023824D03*
X0028574Y0023426D03*
X0028574Y0022324D03*
D52*
X0031125Y0022375D03*
X0030023Y0022375D03*
D53*
X0030190Y0019874D03*
X0028458Y0020375D03*
X0030190Y0020877D03*
D51*
X0034074Y0009074D03*
X0034074Y0010177D03*
D52*
X0036125Y0024625D03*
X0035023Y0024625D03*
X0026023Y0030125D03*
X0027125Y0030125D03*
D51*
X0024824Y0026177D03*
X0024824Y0025074D03*
D52*
X0017383Y0022325D03*
X0016281Y0022325D03*
X0023523Y0031625D03*
X0024625Y0031625D03*
X0027125Y0024375D03*
X0026023Y0024375D03*
X0027125Y0026125D03*
X0026023Y0026125D03*
D53*
X0025708Y0028626D03*
X0027440Y0028125D03*
X0025708Y0027624D03*
D54*
X0022324Y0027655D03*
X0022824Y0027655D03*
X0023323Y0027655D03*
X0023824Y0027655D03*
X0023824Y0029594D03*
X0023323Y0029594D03*
X0022824Y0029594D03*
X0022324Y0029594D03*
D55*
X0025722Y0007935D03*
X0026037Y0007935D03*
X0026351Y0007935D03*
X0026667Y0007935D03*
X0026982Y0007935D03*
X0027296Y0007935D03*
X0027612Y0007935D03*
X0027927Y0007935D03*
D56*
X0028514Y0008523D03*
X0028514Y0008838D03*
X0028514Y0009153D03*
X0028514Y0009468D03*
X0028514Y0009783D03*
X0028514Y0010098D03*
X0028514Y0010412D03*
X0028514Y0010728D03*
D55*
X0027927Y0011315D03*
X0027612Y0011315D03*
X0027296Y0011315D03*
X0026982Y0011315D03*
X0026667Y0011315D03*
X0026351Y0011315D03*
X0026037Y0011315D03*
X0025722Y0011315D03*
D56*
X0025134Y0010728D03*
X0025134Y0010412D03*
X0025134Y0010098D03*
X0025134Y0009783D03*
X0025134Y0009468D03*
X0025134Y0009153D03*
X0025134Y0008838D03*
X0025134Y0008523D03*
D52*
X0022523Y0005625D03*
X0023625Y0005625D03*
X0022523Y0004375D03*
X0023625Y0004375D03*
X0022523Y0003125D03*
X0023625Y0003125D03*
X0022523Y0006875D03*
X0023625Y0006875D03*
X0016304Y0023842D03*
X0017407Y0023842D03*
D51*
X0017547Y0018602D03*
X0017547Y0019704D03*
D57*
X0014070Y0019477D03*
X0012810Y0019477D03*
X0011943Y0019477D03*
X0011077Y0019477D03*
X0014070Y0017391D03*
X0012810Y0017391D03*
X0011943Y0017391D03*
X0011077Y0017391D03*
D51*
X0021075Y0010385D03*
X0021075Y0011487D03*
X0023347Y0013703D03*
X0023347Y0012600D03*
D52*
X0020143Y0008945D03*
X0021246Y0008945D03*
D49*
X0035074Y0010177D03*
X0035074Y0009074D03*
D48*
X0040125Y0013375D03*
X0039023Y0013375D03*
D58*
X0039972Y0011015D03*
X0038177Y0011015D03*
D59*
X0039074Y0008141D03*
D51*
X0009702Y0013172D03*
X0009702Y0012069D03*
D49*
X0036574Y0015177D03*
X0036574Y0014074D03*
X0035574Y0015177D03*
X0035574Y0014074D03*
X0034574Y0015177D03*
X0034574Y0014074D03*
D48*
X0035625Y0012875D03*
X0034523Y0012875D03*
D60*
X0015573Y0019992D03*
X0015573Y0018259D03*
D61*
X0037573Y0007125D03*
X0036574Y0007125D03*
D51*
X0017880Y0005909D03*
X0017880Y0007010D03*
D49*
X0037824Y0014074D03*
X0037824Y0015177D03*
D62*
X0035039Y0002238D03*
X0035039Y0034647D03*
D47*
X0026739Y0013375D03*
X0027409Y0013375D03*
D63*
X0029074Y0012125D03*
X0029573Y0012125D03*
X0030074Y0012125D03*
X0030574Y0012125D03*
X0030574Y0014125D03*
X0030074Y0014125D03*
X0029573Y0014125D03*
X0029074Y0014125D03*
D51*
X0025415Y0003799D03*
X0025415Y0002697D03*
D52*
X0017977Y0008930D03*
X0019079Y0008930D03*
D51*
X0016859Y0012962D03*
X0016859Y0014065D03*
D52*
X0019594Y0024391D03*
X0020697Y0024391D03*
G04 next file*
G75*
G01*
D74*
X0001968Y0073227D02*
X0024683Y0046473D03*
X0024683Y0045371D03*
D75*
X0019113Y0049943D03*
X0018010Y0049943D03*
D74*
X0038008Y0065968D03*
X0038008Y0064866D03*
X0005528Y0057501D03*
X0005528Y0056399D03*
X0036381Y0062168D03*
X0036381Y0063270D03*
D76*
X0020539Y0052707D03*
X0022586Y0052707D03*
X0020539Y0053207D03*
X0020539Y0052207D03*
X0020539Y0051707D03*
X0022586Y0053207D03*
X0022586Y0052207D03*
X0022586Y0051707D03*
X0020539Y0050707D03*
X0022586Y0050707D03*
X0020539Y0051207D03*
X0020539Y0050207D03*
X0022586Y0051207D03*
X0022586Y0050207D03*
X0028632Y0044950D03*
X0030679Y0044950D03*
X0028632Y0045450D03*
X0028632Y0044450D03*
X0028632Y0043949D03*
X0030679Y0045450D03*
X0030679Y0044450D03*
X0030679Y0043949D03*
X0028632Y0042950D03*
X0030679Y0042950D03*
X0028632Y0043450D03*
X0028632Y0042450D03*
X0030679Y0043450D03*
X0030679Y0042450D03*
D77*
X0012503Y0057157D03*
X0012503Y0058417D03*
X0012503Y0059283D03*
X0012503Y0060149D03*
X0010417Y0057157D03*
X0010417Y0058417D03*
X0010417Y0059283D03*
X0010417Y0060149D03*
D78*
X0026574Y0045393D03*
X0026574Y0046513D03*
D79*
X0033155Y0043684D03*
X0033656Y0045416D03*
X0034157Y0043684D03*
X0027810Y0058910D03*
X0028311Y0060641D03*
X0028813Y0058910D03*
D80*
X0026406Y0052107D03*
X0025287Y0052107D03*
D78*
X0024016Y0052156D03*
X0024016Y0053276D03*
D79*
X0025966Y0058876D03*
X0026468Y0060608D03*
X0026969Y0058876D03*
D78*
X0028992Y0049444D03*
X0028992Y0048324D03*
X0032105Y0041369D03*
X0032105Y0042490D03*
X0035242Y0044459D03*
X0035242Y0045579D03*
D81*
X0028899Y0041303D03*
X0030631Y0040801D03*
X0028899Y0040301D03*
D80*
X0029956Y0039191D03*
X0028837Y0039191D03*
X0017488Y0061889D03*
X0016369Y0061889D03*
D79*
X0024684Y0070157D03*
X0025185Y0071889D03*
X0025687Y0070157D03*
D82*
X0005798Y0054593D03*
X0004696Y0054593D03*
D78*
X0025630Y0046498D03*
X0025630Y0045378D03*
X0033073Y0041420D03*
X0033073Y0042539D03*
X0027455Y0045382D03*
X0027455Y0046501D03*
D83*
X0008809Y0052058D03*
X0008809Y0053160D03*
D78*
X0026568Y0043317D03*
X0026568Y0044436D03*
X0022432Y0041283D03*
X0022432Y0042403D03*
X0024114Y0041365D03*
X0024114Y0042486D03*
D83*
X0007396Y0053160D03*
X0007396Y0052058D03*
D82*
X0008560Y0045640D03*
X0007458Y0045640D03*
D78*
X0017322Y0055362D03*
X0017322Y0054242D03*
X0027458Y0044432D03*
X0027458Y0043312D03*
X0023993Y0050960D03*
X0023993Y0049840D03*
D80*
X0017976Y0051066D03*
X0019096Y0051066D03*
D78*
X0029161Y0052996D03*
X0029161Y0054116D03*
X0029188Y0051874D03*
X0029188Y0050754D03*
D84*
X0003928Y0060570D03*
X0003928Y0058775D03*
D85*
X0006800Y0059672D03*
D86*
X0006159Y0048918D03*
X0005659Y0048918D03*
X0005159Y0048918D03*
X0004659Y0048918D03*
X0004659Y0045998D03*
X0005159Y0045998D03*
X0005659Y0045998D03*
X0006159Y0045998D03*
D87*
X0012091Y0055111D03*
X0010358Y0055111D03*
D88*
X0008459Y0060031D03*
X0008459Y0059031D03*
D89*
X0037401Y0039554D03*
X0037401Y0072026D03*
D74*
X0036339Y0059417D03*
X0036339Y0060519D03*
D83*
X0005981Y0052058D03*
X0005981Y0053160D03*
D80*
X0025273Y0053277D03*
X0026392Y0053277D03*
D78*
X0027831Y0064734D03*
X0027831Y0065854D03*
X0026278Y0065830D03*
X0026278Y0064711D03*
D79*
X0024087Y0058883D03*
X0024589Y0060615D03*
X0025090Y0058883D03*
D80*
X0020339Y0054218D03*
X0021459Y0054218D03*
X0020423Y0049345D03*
X0021543Y0049345D03*
D76*
X0026189Y0067391D03*
X0024142Y0067391D03*
X0026189Y0066891D03*
X0026189Y0067891D03*
X0026189Y0068391D03*
X0024142Y0066891D03*
X0024142Y0067891D03*
X0024142Y0068391D03*
D74*
X0003158Y0046885D03*
X0003158Y0047987D03*
D80*
X0021945Y0057087D03*
X0023064Y0057087D03*
D78*
X0018520Y0063986D03*
X0018520Y0065106D03*
D83*
X0008267Y0050551D03*
X0008267Y0049448D03*
D82*
X0013937Y0049606D03*
X0012834Y0049606D03*
D78*
X0036417Y0045573D03*
X0036417Y0044452D03*
D80*
X0020874Y0063026D03*
X0021993Y0063026D03*
G04 next file*
G04 EAGLE Gerber RS-274X export*
G75*
G01*
D100*
X0045275Y0061022D02*
X0068967Y0068701D03*
X0068465Y0066969D03*
X0067965Y0068701D03*
D101*
X0067539Y0062118D03*
X0068658Y0062118D03*
X0066629Y0065741D03*
X0065509Y0065741D03*
X0064321Y0062086D03*
X0063203Y0062086D03*
D102*
X0065382Y0062072D03*
X0066382Y0062072D03*
D103*
X0064431Y0064268D03*
X0064431Y0063148D03*
D101*
X0063027Y0067646D03*
X0064147Y0067646D03*
D102*
X0064195Y0065728D03*
X0063195Y0065728D03*
D101*
X0057936Y0068249D03*
X0056816Y0068249D03*
D103*
X0060087Y0062059D03*
X0060087Y0063179D03*
D101*
X0061223Y0062055D03*
X0062342Y0062055D03*
D103*
X0063307Y0064262D03*
X0063307Y0063143D03*
D101*
X0062107Y0065415D03*
X0060988Y0065415D03*
D102*
X0056639Y0064372D03*
X0057638Y0064372D03*
D103*
X0059090Y0066714D03*
X0059090Y0065594D03*
D101*
X0056539Y0065395D03*
X0057657Y0065395D03*
X0055422Y0064203D03*
X0054302Y0064203D03*
X0051211Y0066249D03*
X0052331Y0066249D03*
D102*
X0052245Y0065296D03*
X0052245Y0064296D03*
D101*
X0052374Y0063320D03*
X0051254Y0063320D03*
X0052306Y0062209D03*
X0051186Y0062209D03*
D103*
X0047746Y0067465D03*
X0047746Y0068584D03*
X0055655Y0067511D03*
X0055655Y0068630D03*
X0054543Y0067593D03*
X0054543Y0068712D03*
X0051510Y0067552D03*
X0051510Y0068670D03*
X0050321Y0068745D03*
X0050321Y0067625D03*
D102*
X0064782Y0068765D03*
X0065782Y0068765D03*
D104*
X0065304Y0067012D03*
X0066604Y0067012D03*
X0060070Y0066620D03*
X0061369Y0066620D03*
X0058742Y0064376D03*
X0060042Y0064376D03*
X0057807Y0066614D03*
X0056506Y0066614D03*
X0047510Y0065925D03*
X0046210Y0065925D03*
D105*
X0046417Y0067361D03*
X0046417Y0068661D03*
X0048966Y0067361D03*
X0048966Y0068661D03*
M02*