G04 EAGLE Gerber X2 export*
%TF.Part,Single*%
%TF.FileFunction,Copper,L2,Bot,Mixed*%
%TF.FilePolarity,Positive*%
%TF.GenerationSoftware,Autodesk,EAGLE,9.2.2*%
%TF.CreationDate,2019-01-20T22:14:05Z*%
G75*
%MOMM*%
%FSLAX34Y34*%
%LPD*%
%INBottom Copper*%
%AMOC8*
5,1,8,0,0,1.08239X$1,22.5*%
G01*
%ADD10C,1.950000*%
%ADD11C,1.879600*%

G36*
X912258Y144004D02*
X912258Y144004D01*
X912277Y144002D01*
X912379Y144024D01*
X912481Y144040D01*
X912498Y144050D01*
X912518Y144054D01*
X912607Y144107D01*
X912698Y144156D01*
X912712Y144170D01*
X912729Y144180D01*
X912796Y144259D01*
X912868Y144334D01*
X912876Y144352D01*
X912889Y144367D01*
X912928Y144463D01*
X912971Y144557D01*
X912973Y144577D01*
X912981Y144595D01*
X912999Y144762D01*
X912999Y355386D01*
X912996Y355405D01*
X912998Y355425D01*
X912976Y355526D01*
X912960Y355628D01*
X912950Y355646D01*
X912946Y355665D01*
X912893Y355754D01*
X912844Y355846D01*
X912830Y355859D01*
X912820Y355877D01*
X912741Y355944D01*
X912666Y356015D01*
X912648Y356023D01*
X912633Y356036D01*
X912537Y356075D01*
X912443Y356119D01*
X912423Y356121D01*
X912405Y356128D01*
X912238Y356147D01*
X37837Y356147D01*
X37817Y356144D01*
X37797Y356146D01*
X37696Y356124D01*
X37594Y356107D01*
X37577Y356098D01*
X37557Y356094D01*
X37468Y356040D01*
X37377Y355992D01*
X37363Y355978D01*
X37346Y355967D01*
X37279Y355889D01*
X37207Y355814D01*
X37199Y355796D01*
X37186Y355780D01*
X37147Y355685D01*
X37104Y355591D01*
X37102Y355571D01*
X37094Y355552D01*
X37076Y355386D01*
X37100Y144762D01*
X37103Y144742D01*
X37101Y144723D01*
X37123Y144621D01*
X37140Y144519D01*
X37149Y144502D01*
X37153Y144482D01*
X37207Y144393D01*
X37255Y144302D01*
X37269Y144288D01*
X37280Y144271D01*
X37358Y144204D01*
X37433Y144132D01*
X37451Y144124D01*
X37467Y144111D01*
X37563Y144072D01*
X37656Y144029D01*
X37676Y144027D01*
X37695Y144019D01*
X37861Y144001D01*
X912238Y144001D01*
X912258Y144004D01*
G37*
G36*
X912258Y371685D02*
X912258Y371685D01*
X912277Y371682D01*
X912379Y371704D01*
X912481Y371721D01*
X912498Y371730D01*
X912518Y371735D01*
X912607Y371788D01*
X912698Y371836D01*
X912712Y371851D01*
X912729Y371861D01*
X912796Y371940D01*
X912868Y372015D01*
X912876Y372033D01*
X912889Y372048D01*
X912928Y372144D01*
X912971Y372238D01*
X912973Y372257D01*
X912981Y372276D01*
X912999Y372443D01*
X912999Y572443D01*
X912996Y572462D01*
X912998Y572482D01*
X912976Y572583D01*
X912960Y572685D01*
X912950Y572703D01*
X912946Y572722D01*
X912893Y572811D01*
X912844Y572903D01*
X912830Y572916D01*
X912820Y572934D01*
X912741Y573001D01*
X912666Y573072D01*
X912648Y573081D01*
X912633Y573093D01*
X912537Y573132D01*
X912443Y573176D01*
X912423Y573178D01*
X912405Y573185D01*
X912238Y573204D01*
X37812Y573204D01*
X37792Y573201D01*
X37772Y573203D01*
X37671Y573181D01*
X37569Y573164D01*
X37551Y573155D01*
X37532Y573151D01*
X37443Y573097D01*
X37352Y573049D01*
X37338Y573035D01*
X37321Y573024D01*
X37253Y572946D01*
X37182Y572871D01*
X37174Y572853D01*
X37161Y572837D01*
X37122Y572742D01*
X37079Y572648D01*
X37076Y572628D01*
X37069Y572609D01*
X37050Y572443D01*
X37074Y372443D01*
X37077Y372423D01*
X37075Y372403D01*
X37097Y372302D01*
X37113Y372200D01*
X37123Y372182D01*
X37127Y372163D01*
X37180Y372074D01*
X37229Y371982D01*
X37243Y371969D01*
X37253Y371952D01*
X37332Y371884D01*
X37407Y371813D01*
X37425Y371805D01*
X37440Y371792D01*
X37536Y371753D01*
X37630Y371709D01*
X37650Y371707D01*
X37668Y371700D01*
X37835Y371681D01*
X912238Y371681D01*
X912258Y371685D01*
G37*
G36*
X912258Y584761D02*
X912258Y584761D01*
X912277Y584759D01*
X912379Y584781D01*
X912481Y584798D01*
X912498Y584807D01*
X912518Y584811D01*
X912607Y584864D01*
X912698Y584913D01*
X912712Y584927D01*
X912729Y584937D01*
X912796Y585016D01*
X912868Y585091D01*
X912876Y585109D01*
X912889Y585124D01*
X912928Y585221D01*
X912971Y585314D01*
X912973Y585334D01*
X912981Y585353D01*
X912999Y585519D01*
X912999Y784604D01*
X912996Y784624D01*
X912998Y784644D01*
X912976Y784745D01*
X912960Y784847D01*
X912950Y784865D01*
X912946Y784884D01*
X912893Y784973D01*
X912844Y785064D01*
X912830Y785078D01*
X912820Y785095D01*
X912741Y785163D01*
X912666Y785234D01*
X912648Y785242D01*
X912633Y785255D01*
X912537Y785294D01*
X912443Y785337D01*
X912423Y785340D01*
X912405Y785347D01*
X912238Y785366D01*
X37787Y785366D01*
X37767Y785362D01*
X37747Y785364D01*
X37646Y785342D01*
X37544Y785326D01*
X37527Y785316D01*
X37507Y785312D01*
X37418Y785259D01*
X37327Y785211D01*
X37313Y785196D01*
X37296Y785186D01*
X37229Y785107D01*
X37158Y785032D01*
X37149Y785014D01*
X37136Y784999D01*
X37098Y784903D01*
X37054Y784809D01*
X37052Y784789D01*
X37044Y784771D01*
X37026Y784604D01*
X37049Y587882D01*
X37063Y587792D01*
X37070Y587701D01*
X37083Y587671D01*
X37088Y587639D01*
X37131Y587559D01*
X37167Y587475D01*
X37193Y587443D01*
X37203Y587422D01*
X37227Y587400D01*
X37272Y587344D01*
X37439Y587176D01*
X37439Y585519D01*
X37442Y585500D01*
X37440Y585480D01*
X37462Y585379D01*
X37479Y585276D01*
X37488Y585259D01*
X37492Y585239D01*
X37546Y585150D01*
X37594Y585059D01*
X37608Y585045D01*
X37619Y585028D01*
X37697Y584961D01*
X37772Y584890D01*
X37790Y584881D01*
X37806Y584868D01*
X37902Y584830D01*
X37995Y584786D01*
X38015Y584784D01*
X38034Y584776D01*
X38200Y584758D01*
X912238Y584758D01*
X912258Y584761D01*
G37*
G36*
X912258Y799155D02*
X912258Y799155D01*
X912277Y799153D01*
X912379Y799175D01*
X912481Y799191D01*
X912498Y799201D01*
X912518Y799205D01*
X912607Y799258D01*
X912698Y799307D01*
X912712Y799321D01*
X912729Y799331D01*
X912796Y799410D01*
X912868Y799485D01*
X912876Y799503D01*
X912889Y799518D01*
X912928Y799614D01*
X912971Y799708D01*
X912973Y799728D01*
X912981Y799746D01*
X912999Y799913D01*
X912999Y995238D01*
X912996Y995258D01*
X912998Y995277D01*
X912976Y995379D01*
X912960Y995481D01*
X912950Y995498D01*
X912946Y995518D01*
X912893Y995607D01*
X912844Y995698D01*
X912830Y995712D01*
X912820Y995729D01*
X912741Y995796D01*
X912666Y995868D01*
X912648Y995876D01*
X912633Y995889D01*
X912537Y995928D01*
X912443Y995971D01*
X912423Y995973D01*
X912405Y995981D01*
X912238Y995999D01*
X37763Y995999D01*
X37743Y995996D01*
X37723Y995998D01*
X37622Y995976D01*
X37520Y995960D01*
X37502Y995950D01*
X37483Y995946D01*
X37394Y995893D01*
X37302Y995844D01*
X37289Y995830D01*
X37272Y995820D01*
X37204Y995741D01*
X37133Y995666D01*
X37125Y995648D01*
X37112Y995633D01*
X37073Y995537D01*
X37029Y995443D01*
X37027Y995423D01*
X37020Y995405D01*
X37001Y995238D01*
X37024Y802648D01*
X37038Y802558D01*
X37046Y802468D01*
X37058Y802438D01*
X37063Y802406D01*
X37106Y802325D01*
X37142Y802241D01*
X37168Y802209D01*
X37179Y802188D01*
X37202Y802166D01*
X37247Y802110D01*
X37787Y801570D01*
X37787Y799913D01*
X37790Y799893D01*
X37788Y799874D01*
X37810Y799772D01*
X37827Y799670D01*
X37836Y799653D01*
X37840Y799633D01*
X37893Y799544D01*
X37942Y799453D01*
X37956Y799439D01*
X37966Y799422D01*
X38045Y799355D01*
X38120Y799283D01*
X38138Y799275D01*
X38153Y799262D01*
X38249Y799223D01*
X38343Y799180D01*
X38363Y799178D01*
X38381Y799170D01*
X38548Y799152D01*
X912238Y799152D01*
X912258Y799155D01*
G37*
%LPC*%
G36*
X194646Y755394D02*
X194646Y755394D01*
X190502Y757111D01*
X187330Y760283D01*
X185614Y764427D01*
X185614Y768912D01*
X187330Y773056D01*
X190502Y776227D01*
X194646Y777944D01*
X218631Y777944D01*
X222775Y776227D01*
X225947Y773056D01*
X227663Y768912D01*
X227663Y764427D01*
X225947Y760283D01*
X222775Y757111D01*
X218631Y755394D01*
X194646Y755394D01*
G37*
%LPD*%
%LPC*%
G36*
X731190Y380018D02*
X731190Y380018D01*
X727046Y381734D01*
X723874Y384906D01*
X722158Y389050D01*
X722158Y393535D01*
X723874Y397679D01*
X727046Y400851D01*
X731190Y402567D01*
X755175Y402567D01*
X759319Y400851D01*
X762491Y397679D01*
X764207Y393535D01*
X764207Y389050D01*
X762491Y384906D01*
X759319Y381734D01*
X755175Y380018D01*
X731190Y380018D01*
G37*
%LPD*%
%LPC*%
G36*
X732493Y807488D02*
X732493Y807488D01*
X728349Y809205D01*
X725178Y812376D01*
X723461Y816520D01*
X723461Y821006D01*
X725178Y825150D01*
X728349Y828321D01*
X732493Y830038D01*
X756479Y830038D01*
X760623Y828321D01*
X763794Y825150D01*
X765511Y821006D01*
X765511Y816520D01*
X763794Y812376D01*
X760623Y809205D01*
X756479Y807488D01*
X732493Y807488D01*
G37*
%LPD*%
%LPC*%
G36*
X194993Y969788D02*
X194993Y969788D01*
X190849Y971505D01*
X187678Y974676D01*
X185961Y978820D01*
X185961Y983306D01*
X187678Y987450D01*
X190849Y990621D01*
X194993Y992338D01*
X218979Y992338D01*
X223123Y990621D01*
X226294Y987450D01*
X228011Y983306D01*
X228011Y978820D01*
X226294Y974676D01*
X223123Y971505D01*
X218979Y969788D01*
X194993Y969788D01*
G37*
%LPD*%
%LPC*%
G36*
X731807Y167575D02*
X731807Y167575D01*
X727663Y169292D01*
X724492Y172463D01*
X722775Y176607D01*
X722775Y181093D01*
X724492Y185237D01*
X727663Y188408D01*
X731807Y190125D01*
X755793Y190125D01*
X759937Y188408D01*
X763108Y185237D01*
X764825Y181093D01*
X764825Y176607D01*
X763108Y172463D01*
X759937Y169292D01*
X755793Y167575D01*
X731807Y167575D01*
G37*
%LPD*%
%LPC*%
G36*
X732146Y593094D02*
X732146Y593094D01*
X728002Y594811D01*
X724830Y597983D01*
X723114Y602127D01*
X723114Y606612D01*
X724830Y610756D01*
X728002Y613927D01*
X732146Y615644D01*
X756131Y615644D01*
X760275Y613927D01*
X763447Y610756D01*
X765163Y606612D01*
X765163Y602127D01*
X763447Y597983D01*
X760275Y594811D01*
X756131Y593094D01*
X732146Y593094D01*
G37*
%LPD*%
%LPC*%
G36*
X193690Y542318D02*
X193690Y542318D01*
X189546Y544034D01*
X186374Y547206D01*
X184658Y551350D01*
X184658Y555835D01*
X186374Y559979D01*
X189546Y563151D01*
X193690Y564867D01*
X217675Y564867D01*
X221819Y563151D01*
X224991Y559979D01*
X226707Y555835D01*
X226707Y551350D01*
X224991Y547206D01*
X221819Y544034D01*
X217675Y542318D01*
X193690Y542318D01*
G37*
%LPD*%
%LPC*%
G36*
X194307Y329875D02*
X194307Y329875D01*
X190163Y331592D01*
X186992Y334763D01*
X185275Y338907D01*
X185275Y343393D01*
X186992Y347537D01*
X190163Y350708D01*
X194307Y352425D01*
X218293Y352425D01*
X222437Y350708D01*
X225608Y347537D01*
X227325Y343393D01*
X227325Y338907D01*
X225608Y334763D01*
X222437Y331592D01*
X218293Y329875D01*
X194307Y329875D01*
G37*
%LPD*%
%LPC*%
G36*
X267827Y169679D02*
X267827Y169679D01*
X263813Y171342D01*
X260740Y174415D01*
X259077Y178429D01*
X259077Y201571D01*
X260740Y205585D01*
X263813Y208658D01*
X267827Y210321D01*
X272173Y210321D01*
X276187Y208658D01*
X279260Y205585D01*
X280923Y201571D01*
X280923Y178429D01*
X279260Y174415D01*
X276187Y171342D01*
X272173Y169679D01*
X267827Y169679D01*
G37*
%LPD*%
%LPC*%
G36*
X687827Y169679D02*
X687827Y169679D01*
X683813Y171342D01*
X680740Y174415D01*
X679077Y178429D01*
X679077Y201571D01*
X680740Y205585D01*
X683813Y208658D01*
X687827Y210321D01*
X692173Y210321D01*
X696187Y208658D01*
X699260Y205585D01*
X700923Y201571D01*
X700923Y178429D01*
X699260Y174415D01*
X696187Y171342D01*
X692173Y169679D01*
X687827Y169679D01*
G37*
%LPD*%
%LPC*%
G36*
X687210Y382122D02*
X687210Y382122D01*
X683195Y383785D01*
X680123Y386857D01*
X678460Y390872D01*
X678460Y414013D01*
X680123Y418028D01*
X683195Y421100D01*
X687210Y422763D01*
X691555Y422763D01*
X695570Y421100D01*
X698642Y418028D01*
X700305Y414013D01*
X700305Y390872D01*
X698642Y386857D01*
X695570Y383785D01*
X691555Y382122D01*
X687210Y382122D01*
G37*
%LPD*%
%LPC*%
G36*
X267210Y382122D02*
X267210Y382122D01*
X263195Y383785D01*
X260123Y386857D01*
X258460Y390872D01*
X258460Y414013D01*
X260123Y418028D01*
X263195Y421100D01*
X267210Y422763D01*
X271555Y422763D01*
X275570Y421100D01*
X278642Y418028D01*
X280305Y414013D01*
X280305Y390872D01*
X278642Y386857D01*
X275570Y383785D01*
X271555Y382122D01*
X267210Y382122D01*
G37*
%LPD*%
%LPC*%
G36*
X268166Y595198D02*
X268166Y595198D01*
X264151Y596861D01*
X261079Y599934D01*
X259416Y603949D01*
X259416Y627090D01*
X261079Y631104D01*
X264151Y634177D01*
X268166Y635840D01*
X272511Y635840D01*
X276526Y634177D01*
X279598Y631104D01*
X281261Y627090D01*
X281261Y603949D01*
X279598Y599934D01*
X276526Y596861D01*
X272511Y595198D01*
X268166Y595198D01*
G37*
%LPD*%
%LPC*%
G36*
X268513Y809592D02*
X268513Y809592D01*
X264499Y811255D01*
X261426Y814328D01*
X259763Y818342D01*
X259763Y841484D01*
X261426Y845498D01*
X264499Y848571D01*
X268513Y850234D01*
X272859Y850234D01*
X276873Y848571D01*
X279946Y845498D01*
X281609Y841484D01*
X281609Y818342D01*
X279946Y814328D01*
X276873Y811255D01*
X272859Y809592D01*
X268513Y809592D01*
G37*
%LPD*%
%LPC*%
G36*
X688166Y595198D02*
X688166Y595198D01*
X684151Y596861D01*
X681079Y599934D01*
X679416Y603949D01*
X679416Y627090D01*
X681079Y631104D01*
X684151Y634177D01*
X688166Y635840D01*
X692511Y635840D01*
X696526Y634177D01*
X699598Y631104D01*
X701261Y627090D01*
X701261Y603949D01*
X699598Y599934D01*
X696526Y596861D01*
X692511Y595198D01*
X688166Y595198D01*
G37*
%LPD*%
%LPC*%
G36*
X688513Y809592D02*
X688513Y809592D01*
X684499Y811255D01*
X681426Y814328D01*
X679763Y818342D01*
X679763Y841484D01*
X681426Y845498D01*
X684499Y848571D01*
X688513Y850234D01*
X692859Y850234D01*
X696873Y848571D01*
X699946Y845498D01*
X701609Y841484D01*
X701609Y818342D01*
X699946Y814328D01*
X696873Y811255D01*
X692859Y809592D01*
X688513Y809592D01*
G37*
%LPD*%
%LPC*%
G36*
X80823Y342673D02*
X80823Y342673D01*
X80823Y353441D01*
X90017Y353441D01*
X91928Y353138D01*
X93768Y352540D01*
X95492Y351662D01*
X97057Y350525D01*
X98425Y349157D01*
X99562Y347592D01*
X100440Y345868D01*
X101038Y344028D01*
X101253Y342673D01*
X80823Y342673D01*
G37*
%LPD*%
%LPC*%
G36*
X871706Y392816D02*
X871706Y392816D01*
X871706Y403583D01*
X880900Y403583D01*
X882811Y403281D01*
X884651Y402683D01*
X886374Y401805D01*
X887939Y400667D01*
X889307Y399300D01*
X890445Y397734D01*
X891323Y396011D01*
X891921Y394171D01*
X892135Y392816D01*
X871706Y392816D01*
G37*
%LPD*%
%LPC*%
G36*
X207206Y392816D02*
X207206Y392816D01*
X207206Y403583D01*
X216400Y403583D01*
X218311Y403281D01*
X220151Y402683D01*
X221874Y401805D01*
X223439Y400667D01*
X224807Y399300D01*
X225945Y397734D01*
X226823Y396011D01*
X227421Y394171D01*
X227635Y392816D01*
X207206Y392816D01*
G37*
%LPD*%
%LPC*%
G36*
X80206Y392816D02*
X80206Y392816D01*
X80206Y403583D01*
X89400Y403583D01*
X91311Y403281D01*
X93151Y402683D01*
X94874Y401805D01*
X96439Y400667D01*
X97807Y399300D01*
X98945Y397734D01*
X99823Y396011D01*
X100421Y394171D01*
X100635Y392816D01*
X80206Y392816D01*
G37*
%LPD*%
%LPC*%
G36*
X81509Y820286D02*
X81509Y820286D01*
X81509Y831054D01*
X90703Y831054D01*
X92614Y830751D01*
X94454Y830153D01*
X96178Y829275D01*
X97743Y828138D01*
X99111Y826770D01*
X100248Y825205D01*
X101126Y823481D01*
X101724Y821641D01*
X101939Y820286D01*
X81509Y820286D01*
G37*
%LPD*%
%LPC*%
G36*
X208509Y820286D02*
X208509Y820286D01*
X208509Y831054D01*
X217703Y831054D01*
X219614Y830751D01*
X221454Y830153D01*
X223178Y829275D01*
X224743Y828138D01*
X226111Y826770D01*
X227248Y825205D01*
X228126Y823481D01*
X228724Y821641D01*
X228939Y820286D01*
X208509Y820286D01*
G37*
%LPD*%
%LPC*%
G36*
X873009Y820286D02*
X873009Y820286D01*
X873009Y831054D01*
X882203Y831054D01*
X884114Y830751D01*
X885954Y830153D01*
X887678Y829275D01*
X889243Y828138D01*
X890611Y826770D01*
X891748Y825205D01*
X892626Y823481D01*
X893224Y821641D01*
X893439Y820286D01*
X873009Y820286D01*
G37*
%LPD*%
%LPC*%
G36*
X745323Y342673D02*
X745323Y342673D01*
X745323Y353441D01*
X754517Y353441D01*
X756428Y353138D01*
X758268Y352540D01*
X759992Y351662D01*
X761557Y350525D01*
X762925Y349157D01*
X764062Y347592D01*
X764940Y345868D01*
X765538Y344028D01*
X765753Y342673D01*
X745323Y342673D01*
G37*
%LPD*%
%LPC*%
G36*
X872323Y342673D02*
X872323Y342673D01*
X872323Y353441D01*
X881517Y353441D01*
X883428Y353138D01*
X885268Y352540D01*
X886992Y351662D01*
X888557Y350525D01*
X889925Y349157D01*
X891062Y347592D01*
X891940Y345868D01*
X892538Y344028D01*
X892753Y342673D01*
X872323Y342673D01*
G37*
%LPD*%
%LPC*%
G36*
X80823Y180373D02*
X80823Y180373D01*
X80823Y191141D01*
X90017Y191141D01*
X91928Y190838D01*
X93768Y190240D01*
X95492Y189362D01*
X97057Y188225D01*
X98425Y186857D01*
X99562Y185292D01*
X100440Y183568D01*
X101038Y181728D01*
X101253Y180373D01*
X80823Y180373D01*
G37*
%LPD*%
%LPC*%
G36*
X207823Y180373D02*
X207823Y180373D01*
X207823Y191141D01*
X217017Y191141D01*
X218928Y190838D01*
X220768Y190240D01*
X222492Y189362D01*
X224057Y188225D01*
X225425Y186857D01*
X226562Y185292D01*
X227440Y183568D01*
X228038Y181728D01*
X228253Y180373D01*
X207823Y180373D01*
G37*
%LPD*%
%LPC*%
G36*
X744706Y555116D02*
X744706Y555116D01*
X744706Y565883D01*
X753900Y565883D01*
X755811Y565581D01*
X757651Y564983D01*
X759374Y564105D01*
X760939Y562967D01*
X762307Y561600D01*
X763445Y560034D01*
X764323Y558311D01*
X764921Y556471D01*
X765135Y555116D01*
X744706Y555116D01*
G37*
%LPD*%
%LPC*%
G36*
X80206Y555116D02*
X80206Y555116D01*
X80206Y565883D01*
X89400Y565883D01*
X91311Y565581D01*
X93151Y564983D01*
X94874Y564105D01*
X96439Y562967D01*
X97807Y561600D01*
X98945Y560034D01*
X99823Y558311D01*
X100421Y556471D01*
X100635Y555116D01*
X80206Y555116D01*
G37*
%LPD*%
%LPC*%
G36*
X871706Y555116D02*
X871706Y555116D01*
X871706Y565883D01*
X880900Y565883D01*
X882811Y565581D01*
X884651Y564983D01*
X886374Y564105D01*
X887939Y562967D01*
X889307Y561600D01*
X890445Y560034D01*
X891323Y558311D01*
X891921Y556471D01*
X892135Y555116D01*
X871706Y555116D01*
G37*
%LPD*%
%LPC*%
G36*
X872323Y180373D02*
X872323Y180373D01*
X872323Y191141D01*
X881517Y191141D01*
X883428Y190838D01*
X885268Y190240D01*
X886992Y189362D01*
X888557Y188225D01*
X889925Y186857D01*
X891062Y185292D01*
X891940Y183568D01*
X892538Y181728D01*
X892753Y180373D01*
X872323Y180373D01*
G37*
%LPD*%
%LPC*%
G36*
X872662Y605892D02*
X872662Y605892D01*
X872662Y616660D01*
X881856Y616660D01*
X883766Y616357D01*
X885607Y615759D01*
X887330Y614881D01*
X888895Y613744D01*
X890263Y612376D01*
X891400Y610811D01*
X892279Y609087D01*
X892877Y607247D01*
X893091Y605892D01*
X872662Y605892D01*
G37*
%LPD*%
%LPC*%
G36*
X208162Y605892D02*
X208162Y605892D01*
X208162Y616660D01*
X217356Y616660D01*
X219266Y616357D01*
X221107Y615759D01*
X222830Y614881D01*
X224395Y613744D01*
X225763Y612376D01*
X226900Y610811D01*
X227779Y609087D01*
X228377Y607247D01*
X228591Y605892D01*
X208162Y605892D01*
G37*
%LPD*%
%LPC*%
G36*
X81162Y605892D02*
X81162Y605892D01*
X81162Y616660D01*
X90356Y616660D01*
X92266Y616357D01*
X94107Y615759D01*
X95830Y614881D01*
X97395Y613744D01*
X98763Y612376D01*
X99900Y610811D01*
X100779Y609087D01*
X101377Y607247D01*
X101591Y605892D01*
X81162Y605892D01*
G37*
%LPD*%
%LPC*%
G36*
X873009Y982586D02*
X873009Y982586D01*
X873009Y993354D01*
X882203Y993354D01*
X884114Y993051D01*
X885954Y992453D01*
X887678Y991575D01*
X889243Y990438D01*
X890611Y989070D01*
X891748Y987505D01*
X892626Y985781D01*
X893224Y983941D01*
X893439Y982586D01*
X873009Y982586D01*
G37*
%LPD*%
%LPC*%
G36*
X746009Y982586D02*
X746009Y982586D01*
X746009Y993354D01*
X755203Y993354D01*
X757114Y993051D01*
X758954Y992453D01*
X760678Y991575D01*
X762243Y990438D01*
X763611Y989070D01*
X764748Y987505D01*
X765626Y985781D01*
X766224Y983941D01*
X766439Y982586D01*
X746009Y982586D01*
G37*
%LPD*%
%LPC*%
G36*
X81509Y982586D02*
X81509Y982586D01*
X81509Y993354D01*
X90703Y993354D01*
X92614Y993051D01*
X94454Y992453D01*
X96178Y991575D01*
X97743Y990438D01*
X99111Y989070D01*
X100248Y987505D01*
X101126Y985781D01*
X101724Y983941D01*
X101939Y982586D01*
X81509Y982586D01*
G37*
%LPD*%
%LPC*%
G36*
X872662Y768192D02*
X872662Y768192D01*
X872662Y778960D01*
X881856Y778960D01*
X883766Y778657D01*
X885607Y778059D01*
X887330Y777181D01*
X888895Y776044D01*
X890263Y774676D01*
X891400Y773111D01*
X892279Y771387D01*
X892877Y769547D01*
X893091Y768192D01*
X872662Y768192D01*
G37*
%LPD*%
%LPC*%
G36*
X745662Y768192D02*
X745662Y768192D01*
X745662Y778960D01*
X754856Y778960D01*
X756766Y778657D01*
X758607Y778059D01*
X760330Y777181D01*
X761895Y776044D01*
X763263Y774676D01*
X764400Y773111D01*
X765279Y771387D01*
X765877Y769547D01*
X766091Y768192D01*
X745662Y768192D01*
G37*
%LPD*%
%LPC*%
G36*
X81162Y768192D02*
X81162Y768192D01*
X81162Y778960D01*
X90356Y778960D01*
X92266Y778657D01*
X94107Y778059D01*
X95830Y777181D01*
X97395Y776044D01*
X98763Y774676D01*
X99900Y773111D01*
X100779Y771387D01*
X101377Y769547D01*
X101591Y768192D01*
X81162Y768192D01*
G37*
%LPD*%
%LPC*%
G36*
X57686Y768192D02*
X57686Y768192D01*
X57900Y769547D01*
X58498Y771387D01*
X59376Y773111D01*
X60514Y774676D01*
X61882Y776044D01*
X63447Y777181D01*
X65170Y778059D01*
X67010Y778657D01*
X68921Y778960D01*
X78115Y778960D01*
X78115Y768192D01*
X57686Y768192D01*
G37*
%LPD*%
%LPC*%
G36*
X722186Y768192D02*
X722186Y768192D01*
X722400Y769547D01*
X722998Y771387D01*
X723876Y773111D01*
X725014Y774676D01*
X726382Y776044D01*
X727947Y777181D01*
X729670Y778059D01*
X731510Y778657D01*
X733421Y778960D01*
X742615Y778960D01*
X742615Y768192D01*
X722186Y768192D01*
G37*
%LPD*%
%LPC*%
G36*
X849186Y768192D02*
X849186Y768192D01*
X849400Y769547D01*
X849998Y771387D01*
X850876Y773111D01*
X852014Y774676D01*
X853382Y776044D01*
X854947Y777181D01*
X856670Y778059D01*
X858510Y778657D01*
X860421Y778960D01*
X869615Y778960D01*
X869615Y768192D01*
X849186Y768192D01*
G37*
%LPD*%
%LPC*%
G36*
X722533Y982586D02*
X722533Y982586D01*
X722748Y983941D01*
X723346Y985781D01*
X724224Y987505D01*
X725361Y989070D01*
X726729Y990438D01*
X728294Y991575D01*
X730018Y992453D01*
X731858Y993051D01*
X733769Y993354D01*
X742963Y993354D01*
X742963Y982586D01*
X722533Y982586D01*
G37*
%LPD*%
%LPC*%
G36*
X57347Y180373D02*
X57347Y180373D01*
X57562Y181728D01*
X58160Y183568D01*
X59038Y185292D01*
X60175Y186857D01*
X61543Y188225D01*
X63108Y189362D01*
X64832Y190240D01*
X66672Y190838D01*
X68583Y191141D01*
X77777Y191141D01*
X77777Y180373D01*
X57347Y180373D01*
G37*
%LPD*%
%LPC*%
G36*
X184347Y180373D02*
X184347Y180373D01*
X184562Y181728D01*
X185160Y183568D01*
X186038Y185292D01*
X187175Y186857D01*
X188543Y188225D01*
X190108Y189362D01*
X191832Y190240D01*
X193672Y190838D01*
X195583Y191141D01*
X204777Y191141D01*
X204777Y180373D01*
X184347Y180373D01*
G37*
%LPD*%
%LPC*%
G36*
X848847Y180373D02*
X848847Y180373D01*
X849062Y181728D01*
X849660Y183568D01*
X850538Y185292D01*
X851675Y186857D01*
X853043Y188225D01*
X854608Y189362D01*
X856332Y190240D01*
X858172Y190838D01*
X860083Y191141D01*
X869277Y191141D01*
X869277Y180373D01*
X848847Y180373D01*
G37*
%LPD*%
%LPC*%
G36*
X57347Y342673D02*
X57347Y342673D01*
X57562Y344028D01*
X58160Y345868D01*
X59038Y347592D01*
X60175Y349157D01*
X61543Y350525D01*
X63108Y351662D01*
X64832Y352540D01*
X66672Y353138D01*
X68583Y353441D01*
X77777Y353441D01*
X77777Y342673D01*
X57347Y342673D01*
G37*
%LPD*%
%LPC*%
G36*
X721847Y342673D02*
X721847Y342673D01*
X722062Y344028D01*
X722660Y345868D01*
X723538Y347592D01*
X724675Y349157D01*
X726043Y350525D01*
X727608Y351662D01*
X729332Y352540D01*
X731172Y353138D01*
X733083Y353441D01*
X742277Y353441D01*
X742277Y342673D01*
X721847Y342673D01*
G37*
%LPD*%
%LPC*%
G36*
X848847Y342673D02*
X848847Y342673D01*
X849062Y344028D01*
X849660Y345868D01*
X850538Y347592D01*
X851675Y349157D01*
X853043Y350525D01*
X854608Y351662D01*
X856332Y352540D01*
X858172Y353138D01*
X860083Y353441D01*
X869277Y353441D01*
X869277Y342673D01*
X848847Y342673D01*
G37*
%LPD*%
%LPC*%
G36*
X849533Y982586D02*
X849533Y982586D01*
X849748Y983941D01*
X850346Y985781D01*
X851224Y987505D01*
X852361Y989070D01*
X853729Y990438D01*
X855294Y991575D01*
X857018Y992453D01*
X858858Y993051D01*
X860769Y993354D01*
X869963Y993354D01*
X869963Y982586D01*
X849533Y982586D01*
G37*
%LPD*%
%LPC*%
G36*
X849533Y820286D02*
X849533Y820286D01*
X849748Y821641D01*
X850346Y823481D01*
X851224Y825205D01*
X852361Y826770D01*
X853729Y828138D01*
X855294Y829275D01*
X857018Y830153D01*
X858858Y830751D01*
X860769Y831054D01*
X869963Y831054D01*
X869963Y820286D01*
X849533Y820286D01*
G37*
%LPD*%
%LPC*%
G36*
X185033Y820286D02*
X185033Y820286D01*
X185248Y821641D01*
X185846Y823481D01*
X186724Y825205D01*
X187861Y826770D01*
X189229Y828138D01*
X190794Y829275D01*
X192518Y830153D01*
X194358Y830751D01*
X196269Y831054D01*
X205463Y831054D01*
X205463Y820286D01*
X185033Y820286D01*
G37*
%LPD*%
%LPC*%
G36*
X56730Y392816D02*
X56730Y392816D01*
X56944Y394171D01*
X57542Y396011D01*
X58421Y397734D01*
X59558Y399300D01*
X60926Y400667D01*
X62491Y401805D01*
X64215Y402683D01*
X66055Y403281D01*
X67965Y403583D01*
X77159Y403583D01*
X77159Y392816D01*
X56730Y392816D01*
G37*
%LPD*%
%LPC*%
G36*
X848230Y392816D02*
X848230Y392816D01*
X848444Y394171D01*
X849042Y396011D01*
X849921Y397734D01*
X851058Y399300D01*
X852426Y400667D01*
X853991Y401805D01*
X855715Y402683D01*
X857555Y403281D01*
X859465Y403583D01*
X868659Y403583D01*
X868659Y392816D01*
X848230Y392816D01*
G37*
%LPD*%
%LPC*%
G36*
X58033Y820286D02*
X58033Y820286D01*
X58248Y821641D01*
X58846Y823481D01*
X59724Y825205D01*
X60861Y826770D01*
X62229Y828138D01*
X63794Y829275D01*
X65518Y830153D01*
X67358Y830751D01*
X69269Y831054D01*
X78463Y831054D01*
X78463Y820286D01*
X58033Y820286D01*
G37*
%LPD*%
%LPC*%
G36*
X183730Y392816D02*
X183730Y392816D01*
X183944Y394171D01*
X184542Y396011D01*
X185421Y397734D01*
X186558Y399300D01*
X187926Y400667D01*
X189491Y401805D01*
X191215Y402683D01*
X193055Y403281D01*
X194965Y403583D01*
X204159Y403583D01*
X204159Y392816D01*
X183730Y392816D01*
G37*
%LPD*%
%LPC*%
G36*
X849186Y605892D02*
X849186Y605892D01*
X849400Y607247D01*
X849998Y609087D01*
X850876Y610811D01*
X852014Y612376D01*
X853382Y613744D01*
X854947Y614881D01*
X856670Y615759D01*
X858510Y616357D01*
X860421Y616660D01*
X869615Y616660D01*
X869615Y605892D01*
X849186Y605892D01*
G37*
%LPD*%
%LPC*%
G36*
X184686Y605892D02*
X184686Y605892D01*
X184900Y607247D01*
X185498Y609087D01*
X186376Y610811D01*
X187514Y612376D01*
X188882Y613744D01*
X190447Y614881D01*
X192170Y615759D01*
X194010Y616357D01*
X195921Y616660D01*
X205115Y616660D01*
X205115Y605892D01*
X184686Y605892D01*
G37*
%LPD*%
%LPC*%
G36*
X57686Y605892D02*
X57686Y605892D01*
X57900Y607247D01*
X58498Y609087D01*
X59376Y610811D01*
X60514Y612376D01*
X61882Y613744D01*
X63447Y614881D01*
X65170Y615759D01*
X67010Y616357D01*
X68921Y616660D01*
X78115Y616660D01*
X78115Y605892D01*
X57686Y605892D01*
G37*
%LPD*%
%LPC*%
G36*
X56730Y555116D02*
X56730Y555116D01*
X56944Y556471D01*
X57542Y558311D01*
X58421Y560034D01*
X59558Y561600D01*
X60926Y562967D01*
X62491Y564105D01*
X64215Y564983D01*
X66055Y565581D01*
X67965Y565883D01*
X77159Y565883D01*
X77159Y555116D01*
X56730Y555116D01*
G37*
%LPD*%
%LPC*%
G36*
X721230Y555116D02*
X721230Y555116D01*
X721444Y556471D01*
X722042Y558311D01*
X722921Y560034D01*
X724058Y561600D01*
X725426Y562967D01*
X726991Y564105D01*
X728715Y564983D01*
X730555Y565581D01*
X732465Y565883D01*
X741659Y565883D01*
X741659Y555116D01*
X721230Y555116D01*
G37*
%LPD*%
%LPC*%
G36*
X848230Y555116D02*
X848230Y555116D01*
X848444Y556471D01*
X849042Y558311D01*
X849921Y560034D01*
X851058Y561600D01*
X852426Y562967D01*
X853991Y564105D01*
X855715Y564983D01*
X857555Y565581D01*
X859465Y565883D01*
X868659Y565883D01*
X868659Y555116D01*
X848230Y555116D01*
G37*
%LPD*%
%LPC*%
G36*
X58033Y982586D02*
X58033Y982586D01*
X58248Y983941D01*
X58846Y985781D01*
X59724Y987505D01*
X60861Y989070D01*
X62229Y990438D01*
X63794Y991575D01*
X65518Y992453D01*
X67358Y993051D01*
X69269Y993354D01*
X78463Y993354D01*
X78463Y982586D01*
X58033Y982586D01*
G37*
%LPD*%
%LPC*%
G36*
X207823Y166559D02*
X207823Y166559D01*
X207823Y177327D01*
X228253Y177327D01*
X228038Y175972D01*
X227440Y174132D01*
X226562Y172408D01*
X225425Y170843D01*
X224057Y169475D01*
X222492Y168338D01*
X220768Y167460D01*
X218928Y166862D01*
X217017Y166559D01*
X207823Y166559D01*
G37*
%LPD*%
%LPC*%
G36*
X872323Y166559D02*
X872323Y166559D01*
X872323Y177327D01*
X892753Y177327D01*
X892538Y175972D01*
X891940Y174132D01*
X891062Y172408D01*
X889925Y170843D01*
X888557Y169475D01*
X886992Y168338D01*
X885268Y167460D01*
X883428Y166862D01*
X881517Y166559D01*
X872323Y166559D01*
G37*
%LPD*%
%LPC*%
G36*
X80823Y166559D02*
X80823Y166559D01*
X80823Y177327D01*
X101253Y177327D01*
X101038Y175972D01*
X100440Y174132D01*
X99562Y172408D01*
X98425Y170843D01*
X97057Y169475D01*
X95492Y168338D01*
X93768Y167460D01*
X91928Y166862D01*
X90017Y166559D01*
X80823Y166559D01*
G37*
%LPD*%
%LPC*%
G36*
X746009Y968772D02*
X746009Y968772D01*
X746009Y979540D01*
X766439Y979540D01*
X766224Y978185D01*
X765626Y976345D01*
X764748Y974621D01*
X763611Y973056D01*
X762243Y971688D01*
X760678Y970551D01*
X758954Y969673D01*
X757114Y969075D01*
X755203Y968772D01*
X746009Y968772D01*
G37*
%LPD*%
%LPC*%
G36*
X81509Y968772D02*
X81509Y968772D01*
X81509Y979540D01*
X101939Y979540D01*
X101724Y978185D01*
X101126Y976345D01*
X100248Y974621D01*
X99111Y973056D01*
X97743Y971688D01*
X96178Y970551D01*
X94454Y969673D01*
X92614Y969075D01*
X90703Y968772D01*
X81509Y968772D01*
G37*
%LPD*%
%LPC*%
G36*
X745323Y328859D02*
X745323Y328859D01*
X745323Y339627D01*
X765753Y339627D01*
X765538Y338272D01*
X764940Y336432D01*
X764062Y334708D01*
X762925Y333143D01*
X761557Y331775D01*
X759992Y330638D01*
X758268Y329760D01*
X756428Y329162D01*
X754517Y328859D01*
X745323Y328859D01*
G37*
%LPD*%
%LPC*%
G36*
X81162Y592078D02*
X81162Y592078D01*
X81162Y602846D01*
X101591Y602846D01*
X101377Y601491D01*
X100779Y599651D01*
X99900Y597927D01*
X98763Y596362D01*
X97395Y594994D01*
X95830Y593857D01*
X94107Y592979D01*
X92266Y592381D01*
X90356Y592078D01*
X81162Y592078D01*
G37*
%LPD*%
%LPC*%
G36*
X872323Y328859D02*
X872323Y328859D01*
X872323Y339627D01*
X892753Y339627D01*
X892538Y338272D01*
X891940Y336432D01*
X891062Y334708D01*
X889925Y333143D01*
X888557Y331775D01*
X886992Y330638D01*
X885268Y329760D01*
X883428Y329162D01*
X881517Y328859D01*
X872323Y328859D01*
G37*
%LPD*%
%LPC*%
G36*
X872662Y592078D02*
X872662Y592078D01*
X872662Y602846D01*
X893091Y602846D01*
X892877Y601491D01*
X892279Y599651D01*
X891400Y597927D01*
X890263Y596362D01*
X888895Y594994D01*
X887330Y593857D01*
X885607Y592979D01*
X883766Y592381D01*
X881856Y592078D01*
X872662Y592078D01*
G37*
%LPD*%
%LPC*%
G36*
X80823Y328859D02*
X80823Y328859D01*
X80823Y339627D01*
X101253Y339627D01*
X101038Y338272D01*
X100440Y336432D01*
X99562Y334708D01*
X98425Y333143D01*
X97057Y331775D01*
X95492Y330638D01*
X93768Y329760D01*
X91928Y329162D01*
X90017Y328859D01*
X80823Y328859D01*
G37*
%LPD*%
%LPC*%
G36*
X208162Y592078D02*
X208162Y592078D01*
X208162Y602846D01*
X228591Y602846D01*
X228377Y601491D01*
X227779Y599651D01*
X226900Y597927D01*
X225763Y596362D01*
X224395Y594994D01*
X222830Y593857D01*
X221107Y592979D01*
X219266Y592381D01*
X217356Y592078D01*
X208162Y592078D01*
G37*
%LPD*%
%LPC*%
G36*
X873009Y968772D02*
X873009Y968772D01*
X873009Y979540D01*
X893439Y979540D01*
X893224Y978185D01*
X892626Y976345D01*
X891748Y974621D01*
X890611Y973056D01*
X889243Y971688D01*
X887678Y970551D01*
X885954Y969673D01*
X884114Y969075D01*
X882203Y968772D01*
X873009Y968772D01*
G37*
%LPD*%
%LPC*%
G36*
X81162Y754378D02*
X81162Y754378D01*
X81162Y765146D01*
X101591Y765146D01*
X101377Y763791D01*
X100779Y761951D01*
X99900Y760227D01*
X98763Y758662D01*
X97395Y757294D01*
X95830Y756157D01*
X94107Y755279D01*
X92266Y754681D01*
X90356Y754378D01*
X81162Y754378D01*
G37*
%LPD*%
%LPC*%
G36*
X872662Y754378D02*
X872662Y754378D01*
X872662Y765146D01*
X893091Y765146D01*
X892877Y763791D01*
X892279Y761951D01*
X891400Y760227D01*
X890263Y758662D01*
X888895Y757294D01*
X887330Y756157D01*
X885607Y755279D01*
X883766Y754681D01*
X881856Y754378D01*
X872662Y754378D01*
G37*
%LPD*%
%LPC*%
G36*
X208509Y806472D02*
X208509Y806472D01*
X208509Y817240D01*
X228939Y817240D01*
X228724Y815885D01*
X228126Y814045D01*
X227248Y812321D01*
X226111Y810756D01*
X224743Y809388D01*
X223178Y808251D01*
X221454Y807373D01*
X219614Y806775D01*
X217703Y806472D01*
X208509Y806472D01*
G37*
%LPD*%
%LPC*%
G36*
X873009Y806472D02*
X873009Y806472D01*
X873009Y817240D01*
X893439Y817240D01*
X893224Y815885D01*
X892626Y814045D01*
X891748Y812321D01*
X890611Y810756D01*
X889243Y809388D01*
X887678Y808251D01*
X885954Y807373D01*
X884114Y806775D01*
X882203Y806472D01*
X873009Y806472D01*
G37*
%LPD*%
%LPC*%
G36*
X81509Y806472D02*
X81509Y806472D01*
X81509Y817240D01*
X101939Y817240D01*
X101724Y815885D01*
X101126Y814045D01*
X100248Y812321D01*
X99111Y810756D01*
X97743Y809388D01*
X96178Y808251D01*
X94454Y807373D01*
X92614Y806775D01*
X90703Y806472D01*
X81509Y806472D01*
G37*
%LPD*%
%LPC*%
G36*
X207206Y379002D02*
X207206Y379002D01*
X207206Y389769D01*
X227635Y389769D01*
X227421Y388415D01*
X226823Y386575D01*
X225945Y384851D01*
X224807Y383286D01*
X223439Y381918D01*
X221874Y380781D01*
X220151Y379902D01*
X218311Y379305D01*
X216400Y379002D01*
X207206Y379002D01*
G37*
%LPD*%
%LPC*%
G36*
X871706Y379002D02*
X871706Y379002D01*
X871706Y389769D01*
X892135Y389769D01*
X891921Y388415D01*
X891323Y386575D01*
X890445Y384851D01*
X889307Y383286D01*
X887939Y381918D01*
X886374Y380781D01*
X884651Y379902D01*
X882811Y379305D01*
X880900Y379002D01*
X871706Y379002D01*
G37*
%LPD*%
%LPC*%
G36*
X80206Y379002D02*
X80206Y379002D01*
X80206Y389769D01*
X100635Y389769D01*
X100421Y388415D01*
X99823Y386575D01*
X98945Y384851D01*
X97807Y383286D01*
X96439Y381918D01*
X94874Y380781D01*
X93151Y379902D01*
X91311Y379305D01*
X89400Y379002D01*
X80206Y379002D01*
G37*
%LPD*%
%LPC*%
G36*
X745662Y754378D02*
X745662Y754378D01*
X745662Y765146D01*
X766091Y765146D01*
X765877Y763791D01*
X765279Y761951D01*
X764400Y760227D01*
X763263Y758662D01*
X761895Y757294D01*
X760330Y756157D01*
X758607Y755279D01*
X756766Y754681D01*
X754856Y754378D01*
X745662Y754378D01*
G37*
%LPD*%
%LPC*%
G36*
X744706Y541302D02*
X744706Y541302D01*
X744706Y552069D01*
X765135Y552069D01*
X764921Y550715D01*
X764323Y548875D01*
X763445Y547151D01*
X762307Y545586D01*
X760939Y544218D01*
X759374Y543081D01*
X757651Y542202D01*
X755811Y541605D01*
X753900Y541302D01*
X744706Y541302D01*
G37*
%LPD*%
%LPC*%
G36*
X871706Y541302D02*
X871706Y541302D01*
X871706Y552069D01*
X892135Y552069D01*
X891921Y550715D01*
X891323Y548875D01*
X890445Y547151D01*
X889307Y545586D01*
X887939Y544218D01*
X886374Y543081D01*
X884651Y542202D01*
X882811Y541605D01*
X880900Y541302D01*
X871706Y541302D01*
G37*
%LPD*%
%LPC*%
G36*
X80206Y541302D02*
X80206Y541302D01*
X80206Y552069D01*
X100635Y552069D01*
X100421Y550715D01*
X99823Y548875D01*
X98945Y547151D01*
X97807Y545586D01*
X96439Y544218D01*
X94874Y543081D01*
X93151Y542202D01*
X91311Y541605D01*
X89400Y541302D01*
X80206Y541302D01*
G37*
%LPD*%
%LPC*%
G36*
X195583Y166559D02*
X195583Y166559D01*
X193672Y166862D01*
X191832Y167460D01*
X190108Y168338D01*
X188543Y169475D01*
X187175Y170843D01*
X186038Y172408D01*
X185160Y174132D01*
X184562Y175972D01*
X184347Y177327D01*
X204777Y177327D01*
X204777Y166559D01*
X195583Y166559D01*
G37*
%LPD*%
%LPC*%
G36*
X859465Y541302D02*
X859465Y541302D01*
X857555Y541605D01*
X855715Y542202D01*
X853991Y543081D01*
X852426Y544218D01*
X851058Y545586D01*
X849921Y547151D01*
X849042Y548875D01*
X848444Y550715D01*
X848230Y552069D01*
X868659Y552069D01*
X868659Y541302D01*
X859465Y541302D01*
G37*
%LPD*%
%LPC*%
G36*
X194965Y379002D02*
X194965Y379002D01*
X193055Y379305D01*
X191215Y379902D01*
X189491Y380781D01*
X187926Y381918D01*
X186558Y383286D01*
X185421Y384851D01*
X184542Y386575D01*
X183944Y388415D01*
X183730Y389769D01*
X204159Y389769D01*
X204159Y379002D01*
X194965Y379002D01*
G37*
%LPD*%
%LPC*%
G36*
X732465Y541302D02*
X732465Y541302D01*
X730555Y541605D01*
X728715Y542202D01*
X726991Y543081D01*
X725426Y544218D01*
X724058Y545586D01*
X722921Y547151D01*
X722042Y548875D01*
X721444Y550715D01*
X721230Y552069D01*
X741659Y552069D01*
X741659Y541302D01*
X732465Y541302D01*
G37*
%LPD*%
%LPC*%
G36*
X67965Y541302D02*
X67965Y541302D01*
X66055Y541605D01*
X64215Y542202D01*
X62491Y543081D01*
X60926Y544218D01*
X59558Y545586D01*
X58421Y547151D01*
X57542Y548875D01*
X56944Y550715D01*
X56730Y552069D01*
X77159Y552069D01*
X77159Y541302D01*
X67965Y541302D01*
G37*
%LPD*%
%LPC*%
G36*
X860083Y166559D02*
X860083Y166559D01*
X858172Y166862D01*
X856332Y167460D01*
X854608Y168338D01*
X853043Y169475D01*
X851675Y170843D01*
X850538Y172408D01*
X849660Y174132D01*
X849062Y175972D01*
X848847Y177327D01*
X869277Y177327D01*
X869277Y166559D01*
X860083Y166559D01*
G37*
%LPD*%
%LPC*%
G36*
X68583Y166559D02*
X68583Y166559D01*
X66672Y166862D01*
X64832Y167460D01*
X63108Y168338D01*
X61543Y169475D01*
X60175Y170843D01*
X59038Y172408D01*
X58160Y174132D01*
X57562Y175972D01*
X57347Y177327D01*
X77777Y177327D01*
X77777Y166559D01*
X68583Y166559D01*
G37*
%LPD*%
%LPC*%
G36*
X733769Y968772D02*
X733769Y968772D01*
X731858Y969075D01*
X730018Y969673D01*
X728294Y970551D01*
X726729Y971688D01*
X725361Y973056D01*
X724224Y974621D01*
X723346Y976345D01*
X722748Y978185D01*
X722533Y979540D01*
X742963Y979540D01*
X742963Y968772D01*
X733769Y968772D01*
G37*
%LPD*%
%LPC*%
G36*
X68583Y328859D02*
X68583Y328859D01*
X66672Y329162D01*
X64832Y329760D01*
X63108Y330638D01*
X61543Y331775D01*
X60175Y333143D01*
X59038Y334708D01*
X58160Y336432D01*
X57562Y338272D01*
X57347Y339627D01*
X77777Y339627D01*
X77777Y328859D01*
X68583Y328859D01*
G37*
%LPD*%
%LPC*%
G36*
X69269Y806472D02*
X69269Y806472D01*
X67358Y806775D01*
X65518Y807373D01*
X63794Y808251D01*
X62229Y809388D01*
X60861Y810756D01*
X59724Y812321D01*
X58846Y814045D01*
X58248Y815885D01*
X58033Y817240D01*
X78463Y817240D01*
X78463Y806472D01*
X69269Y806472D01*
G37*
%LPD*%
%LPC*%
G36*
X196269Y806472D02*
X196269Y806472D01*
X194358Y806775D01*
X192518Y807373D01*
X190794Y808251D01*
X189229Y809388D01*
X187861Y810756D01*
X186724Y812321D01*
X185846Y814045D01*
X185248Y815885D01*
X185033Y817240D01*
X205463Y817240D01*
X205463Y806472D01*
X196269Y806472D01*
G37*
%LPD*%
%LPC*%
G36*
X860083Y328859D02*
X860083Y328859D01*
X858172Y329162D01*
X856332Y329760D01*
X854608Y330638D01*
X853043Y331775D01*
X851675Y333143D01*
X850538Y334708D01*
X849660Y336432D01*
X849062Y338272D01*
X848847Y339627D01*
X869277Y339627D01*
X869277Y328859D01*
X860083Y328859D01*
G37*
%LPD*%
%LPC*%
G36*
X68921Y592078D02*
X68921Y592078D01*
X67010Y592381D01*
X65170Y592979D01*
X63447Y593857D01*
X61882Y594994D01*
X60514Y596362D01*
X59376Y597927D01*
X58498Y599651D01*
X57900Y601491D01*
X57686Y602846D01*
X78115Y602846D01*
X78115Y592078D01*
X68921Y592078D01*
G37*
%LPD*%
%LPC*%
G36*
X860421Y592078D02*
X860421Y592078D01*
X858510Y592381D01*
X856670Y592979D01*
X854947Y593857D01*
X853382Y594994D01*
X852014Y596362D01*
X850876Y597927D01*
X849998Y599651D01*
X849400Y601491D01*
X849186Y602846D01*
X869615Y602846D01*
X869615Y592078D01*
X860421Y592078D01*
G37*
%LPD*%
%LPC*%
G36*
X860421Y754378D02*
X860421Y754378D01*
X858510Y754681D01*
X856670Y755279D01*
X854947Y756157D01*
X853382Y757294D01*
X852014Y758662D01*
X850876Y760227D01*
X849998Y761951D01*
X849400Y763791D01*
X849186Y765146D01*
X869615Y765146D01*
X869615Y754378D01*
X860421Y754378D01*
G37*
%LPD*%
%LPC*%
G36*
X733083Y328859D02*
X733083Y328859D01*
X731172Y329162D01*
X729332Y329760D01*
X727608Y330638D01*
X726043Y331775D01*
X724675Y333143D01*
X723538Y334708D01*
X722660Y336432D01*
X722062Y338272D01*
X721847Y339627D01*
X742277Y339627D01*
X742277Y328859D01*
X733083Y328859D01*
G37*
%LPD*%
%LPC*%
G36*
X195921Y592078D02*
X195921Y592078D01*
X194010Y592381D01*
X192170Y592979D01*
X190447Y593857D01*
X188882Y594994D01*
X187514Y596362D01*
X186376Y597927D01*
X185498Y599651D01*
X184900Y601491D01*
X184686Y602846D01*
X205115Y602846D01*
X205115Y592078D01*
X195921Y592078D01*
G37*
%LPD*%
%LPC*%
G36*
X860769Y968772D02*
X860769Y968772D01*
X858858Y969075D01*
X857018Y969673D01*
X855294Y970551D01*
X853729Y971688D01*
X852361Y973056D01*
X851224Y974621D01*
X850346Y976345D01*
X849748Y978185D01*
X849533Y979540D01*
X869963Y979540D01*
X869963Y968772D01*
X860769Y968772D01*
G37*
%LPD*%
%LPC*%
G36*
X69269Y968772D02*
X69269Y968772D01*
X67358Y969075D01*
X65518Y969673D01*
X63794Y970551D01*
X62229Y971688D01*
X60861Y973056D01*
X59724Y974621D01*
X58846Y976345D01*
X58248Y978185D01*
X58033Y979540D01*
X78463Y979540D01*
X78463Y968772D01*
X69269Y968772D01*
G37*
%LPD*%
%LPC*%
G36*
X68921Y754378D02*
X68921Y754378D01*
X67010Y754681D01*
X65170Y755279D01*
X63447Y756157D01*
X61882Y757294D01*
X60514Y758662D01*
X59376Y760227D01*
X58498Y761951D01*
X57900Y763791D01*
X57686Y765146D01*
X78115Y765146D01*
X78115Y754378D01*
X68921Y754378D01*
G37*
%LPD*%
%LPC*%
G36*
X733421Y754378D02*
X733421Y754378D01*
X731510Y754681D01*
X729670Y755279D01*
X727947Y756157D01*
X726382Y757294D01*
X725014Y758662D01*
X723876Y760227D01*
X722998Y761951D01*
X722400Y763791D01*
X722186Y765146D01*
X742615Y765146D01*
X742615Y754378D01*
X733421Y754378D01*
G37*
%LPD*%
%LPC*%
G36*
X860769Y806472D02*
X860769Y806472D01*
X858858Y806775D01*
X857018Y807373D01*
X855294Y808251D01*
X853729Y809388D01*
X852361Y810756D01*
X851224Y812321D01*
X850346Y814045D01*
X849748Y815885D01*
X849533Y817240D01*
X869963Y817240D01*
X869963Y806472D01*
X860769Y806472D01*
G37*
%LPD*%
%LPC*%
G36*
X859465Y379002D02*
X859465Y379002D01*
X857555Y379305D01*
X855715Y379902D01*
X853991Y380781D01*
X852426Y381918D01*
X851058Y383286D01*
X849921Y384851D01*
X849042Y386575D01*
X848444Y388415D01*
X848230Y389769D01*
X868659Y389769D01*
X868659Y379002D01*
X859465Y379002D01*
G37*
%LPD*%
%LPC*%
G36*
X67965Y379002D02*
X67965Y379002D01*
X66055Y379305D01*
X64215Y379902D01*
X62491Y380781D01*
X60926Y381918D01*
X59558Y383286D01*
X58421Y384851D01*
X57542Y386575D01*
X56944Y388415D01*
X56730Y389769D01*
X77159Y389769D01*
X77159Y379002D01*
X67965Y379002D01*
G37*
%LPD*%
%LPC*%
G36*
X661523Y191523D02*
X661523Y191523D01*
X661523Y211244D01*
X662796Y211043D01*
X664583Y210462D01*
X666257Y209609D01*
X667778Y208504D01*
X669106Y207176D01*
X670211Y205655D01*
X671064Y203981D01*
X671645Y202194D01*
X671939Y200338D01*
X671939Y191523D01*
X661523Y191523D01*
G37*
%LPD*%
%LPC*%
G36*
X661862Y617042D02*
X661862Y617042D01*
X661862Y636764D01*
X663134Y636562D01*
X664921Y635981D01*
X666596Y635128D01*
X668116Y634023D01*
X669445Y632695D01*
X670549Y631174D01*
X671403Y629500D01*
X671983Y627713D01*
X672277Y625857D01*
X672277Y617042D01*
X661862Y617042D01*
G37*
%LPD*%
%LPC*%
G36*
X662209Y831436D02*
X662209Y831436D01*
X662209Y851157D01*
X663482Y850956D01*
X665269Y850375D01*
X666943Y849522D01*
X668464Y848417D01*
X669792Y847089D01*
X670897Y845568D01*
X671750Y843894D01*
X672331Y842107D01*
X672625Y840251D01*
X672625Y831436D01*
X662209Y831436D01*
G37*
%LPD*%
%LPC*%
G36*
X660906Y403966D02*
X660906Y403966D01*
X660906Y423687D01*
X662178Y423485D01*
X663966Y422905D01*
X665640Y422052D01*
X667160Y420947D01*
X668489Y419618D01*
X669594Y418098D01*
X670447Y416424D01*
X671027Y414636D01*
X671321Y412780D01*
X671321Y403966D01*
X660906Y403966D01*
G37*
%LPD*%
%LPC*%
G36*
X661523Y188477D02*
X661523Y188477D01*
X671939Y188477D01*
X671939Y179662D01*
X671645Y177806D01*
X671064Y176019D01*
X670211Y174345D01*
X669106Y172824D01*
X667778Y171496D01*
X666257Y170391D01*
X664583Y169538D01*
X662796Y168957D01*
X661523Y168756D01*
X661523Y188477D01*
G37*
%LPD*%
%LPC*%
G36*
X662209Y828390D02*
X662209Y828390D01*
X672625Y828390D01*
X672625Y819575D01*
X672331Y817719D01*
X671750Y815932D01*
X670897Y814258D01*
X669792Y812737D01*
X668464Y811409D01*
X666943Y810304D01*
X665269Y809451D01*
X663482Y808870D01*
X662209Y808669D01*
X662209Y828390D01*
G37*
%LPD*%
%LPC*%
G36*
X661862Y613996D02*
X661862Y613996D01*
X672277Y613996D01*
X672277Y605182D01*
X671983Y603326D01*
X671403Y601538D01*
X670549Y599864D01*
X669445Y598344D01*
X668116Y597015D01*
X666596Y595910D01*
X664921Y595057D01*
X663134Y594476D01*
X661862Y594275D01*
X661862Y613996D01*
G37*
%LPD*%
%LPC*%
G36*
X660906Y400919D02*
X660906Y400919D01*
X671321Y400919D01*
X671321Y392105D01*
X671027Y390249D01*
X670447Y388462D01*
X669594Y386787D01*
X668489Y385267D01*
X667160Y383938D01*
X665640Y382834D01*
X663966Y381981D01*
X662178Y381400D01*
X660906Y381198D01*
X660906Y400919D01*
G37*
%LPD*%
%LPC*%
G36*
X648747Y831436D02*
X648747Y831436D01*
X648747Y840251D01*
X649041Y842107D01*
X649622Y843894D01*
X650475Y845568D01*
X651580Y847089D01*
X652908Y848417D01*
X654429Y849522D01*
X656103Y850375D01*
X657890Y850956D01*
X659163Y851157D01*
X659163Y831436D01*
X648747Y831436D01*
G37*
%LPD*%
%LPC*%
G36*
X648400Y617042D02*
X648400Y617042D01*
X648400Y625857D01*
X648694Y627713D01*
X649274Y629500D01*
X650127Y631174D01*
X651232Y632695D01*
X652561Y634023D01*
X654081Y635128D01*
X655756Y635981D01*
X657543Y636562D01*
X658815Y636764D01*
X658815Y617042D01*
X648400Y617042D01*
G37*
%LPD*%
%LPC*%
G36*
X647444Y403966D02*
X647444Y403966D01*
X647444Y412780D01*
X647738Y414636D01*
X648319Y416424D01*
X649172Y418098D01*
X650276Y419618D01*
X651605Y420947D01*
X653125Y422052D01*
X654800Y422905D01*
X656587Y423485D01*
X657859Y423687D01*
X657859Y403966D01*
X647444Y403966D01*
G37*
%LPD*%
%LPC*%
G36*
X648061Y191523D02*
X648061Y191523D01*
X648061Y200338D01*
X648355Y202194D01*
X648936Y203981D01*
X649789Y205655D01*
X650894Y207176D01*
X652222Y208504D01*
X653743Y209609D01*
X655417Y210462D01*
X657204Y211043D01*
X658477Y211244D01*
X658477Y191523D01*
X648061Y191523D01*
G37*
%LPD*%
%LPC*%
G36*
X657890Y808870D02*
X657890Y808870D01*
X656103Y809451D01*
X654429Y810304D01*
X652908Y811409D01*
X651580Y812737D01*
X650475Y814258D01*
X649622Y815932D01*
X649041Y817719D01*
X648747Y819575D01*
X648747Y828390D01*
X659163Y828390D01*
X659163Y808669D01*
X657890Y808870D01*
G37*
%LPD*%
%LPC*%
G36*
X657543Y594476D02*
X657543Y594476D01*
X655756Y595057D01*
X654081Y595910D01*
X652561Y597015D01*
X651232Y598344D01*
X650127Y599864D01*
X649274Y601538D01*
X648694Y603326D01*
X648400Y605182D01*
X648400Y613996D01*
X658815Y613996D01*
X658815Y594275D01*
X657543Y594476D01*
G37*
%LPD*%
%LPC*%
G36*
X657204Y168957D02*
X657204Y168957D01*
X655417Y169538D01*
X653743Y170391D01*
X652222Y171496D01*
X650894Y172824D01*
X649789Y174345D01*
X648936Y176019D01*
X648355Y177806D01*
X648061Y179662D01*
X648061Y188477D01*
X658477Y188477D01*
X658477Y168756D01*
X657204Y168957D01*
G37*
%LPD*%
%LPC*%
G36*
X656587Y381400D02*
X656587Y381400D01*
X654800Y381981D01*
X653125Y382834D01*
X651605Y383938D01*
X650276Y385267D01*
X649172Y386787D01*
X648319Y388462D01*
X647738Y390249D01*
X647444Y392105D01*
X647444Y400919D01*
X657859Y400919D01*
X657859Y381198D01*
X656587Y381400D01*
G37*
%LPD*%
%LPC*%
G36*
X870182Y553592D02*
X870182Y553592D01*
X870182Y553594D01*
X870183Y553594D01*
X870183Y553592D01*
X870182Y553592D01*
G37*
%LPD*%
%LPC*%
G36*
X659382Y402442D02*
X659382Y402442D01*
X659382Y402444D01*
X659383Y402444D01*
X659383Y402442D01*
X659382Y402442D01*
G37*
%LPD*%
%LPC*%
G36*
X870182Y391292D02*
X870182Y391292D01*
X870182Y391294D01*
X870183Y391294D01*
X870183Y391292D01*
X870182Y391292D01*
G37*
%LPD*%
%LPC*%
G36*
X871138Y604368D02*
X871138Y604368D01*
X871138Y604370D01*
X871139Y604370D01*
X871139Y604368D01*
X871138Y604368D01*
G37*
%LPD*%
%LPC*%
G36*
X660685Y829912D02*
X660685Y829912D01*
X660685Y829914D01*
X660687Y829914D01*
X660687Y829912D01*
X660685Y829912D01*
G37*
%LPD*%
%LPC*%
G36*
X205682Y391292D02*
X205682Y391292D01*
X205682Y391294D01*
X205683Y391294D01*
X205683Y391292D01*
X205682Y391292D01*
G37*
%LPD*%
%LPC*%
G36*
X870799Y341149D02*
X870799Y341149D01*
X870799Y341151D01*
X870801Y341151D01*
X870801Y341149D01*
X870799Y341149D01*
G37*
%LPD*%
%LPC*%
G36*
X206638Y604368D02*
X206638Y604368D01*
X206638Y604370D01*
X206639Y604370D01*
X206639Y604368D01*
X206638Y604368D01*
G37*
%LPD*%
%LPC*%
G36*
X78682Y391292D02*
X78682Y391292D01*
X78682Y391294D01*
X78683Y391294D01*
X78683Y391292D01*
X78682Y391292D01*
G37*
%LPD*%
%LPC*%
G36*
X744138Y766668D02*
X744138Y766668D01*
X744138Y766670D01*
X744139Y766670D01*
X744139Y766668D01*
X744138Y766668D01*
G37*
%LPD*%
%LPC*%
G36*
X871138Y766668D02*
X871138Y766668D01*
X871138Y766670D01*
X871139Y766670D01*
X871139Y766668D01*
X871138Y766668D01*
G37*
%LPD*%
%LPC*%
G36*
X79638Y766668D02*
X79638Y766668D01*
X79638Y766670D01*
X79639Y766670D01*
X79639Y766668D01*
X79638Y766668D01*
G37*
%LPD*%
%LPC*%
G36*
X79638Y604368D02*
X79638Y604368D01*
X79638Y604370D01*
X79639Y604370D01*
X79639Y604368D01*
X79638Y604368D01*
G37*
%LPD*%
%LPC*%
G36*
X79985Y981062D02*
X79985Y981062D01*
X79985Y981064D01*
X79987Y981064D01*
X79987Y981062D01*
X79985Y981062D01*
G37*
%LPD*%
%LPC*%
G36*
X744485Y981062D02*
X744485Y981062D01*
X744485Y981064D01*
X744487Y981064D01*
X744487Y981062D01*
X744485Y981062D01*
G37*
%LPD*%
%LPC*%
G36*
X871485Y981062D02*
X871485Y981062D01*
X871485Y981064D01*
X871487Y981064D01*
X871487Y981062D01*
X871485Y981062D01*
G37*
%LPD*%
%LPC*%
G36*
X659999Y189999D02*
X659999Y189999D01*
X659999Y190001D01*
X660001Y190001D01*
X660001Y189999D01*
X659999Y189999D01*
G37*
%LPD*%
%LPC*%
G36*
X79985Y818762D02*
X79985Y818762D01*
X79985Y818764D01*
X79987Y818764D01*
X79987Y818762D01*
X79985Y818762D01*
G37*
%LPD*%
%LPC*%
G36*
X79299Y341149D02*
X79299Y341149D01*
X79299Y341151D01*
X79301Y341151D01*
X79301Y341149D01*
X79299Y341149D01*
G37*
%LPD*%
%LPC*%
G36*
X206299Y178849D02*
X206299Y178849D01*
X206299Y178851D01*
X206301Y178851D01*
X206301Y178849D01*
X206299Y178849D01*
G37*
%LPD*%
%LPC*%
G36*
X79299Y178849D02*
X79299Y178849D01*
X79299Y178851D01*
X79301Y178851D01*
X79301Y178849D01*
X79299Y178849D01*
G37*
%LPD*%
%LPC*%
G36*
X870799Y178849D02*
X870799Y178849D01*
X870799Y178851D01*
X870801Y178851D01*
X870801Y178849D01*
X870799Y178849D01*
G37*
%LPD*%
%LPC*%
G36*
X743799Y341149D02*
X743799Y341149D01*
X743799Y341151D01*
X743801Y341151D01*
X743801Y341149D01*
X743799Y341149D01*
G37*
%LPD*%
%LPC*%
G36*
X206985Y818762D02*
X206985Y818762D01*
X206985Y818764D01*
X206987Y818764D01*
X206987Y818762D01*
X206985Y818762D01*
G37*
%LPD*%
%LPC*%
G36*
X78682Y553592D02*
X78682Y553592D01*
X78682Y553594D01*
X78683Y553594D01*
X78683Y553592D01*
X78682Y553592D01*
G37*
%LPD*%
%LPC*%
G36*
X871485Y818762D02*
X871485Y818762D01*
X871485Y818764D01*
X871487Y818764D01*
X871487Y818762D01*
X871485Y818762D01*
G37*
%LPD*%
%LPC*%
G36*
X743182Y553592D02*
X743182Y553592D01*
X743182Y553594D01*
X743183Y553594D01*
X743183Y553592D01*
X743182Y553592D01*
G37*
%LPD*%
%LPC*%
G36*
X660338Y615518D02*
X660338Y615518D01*
X660338Y615520D01*
X660339Y615520D01*
X660339Y615518D01*
X660338Y615518D01*
G37*
%LPD*%
D10*
X89050Y341150D02*
X69550Y341150D01*
X69550Y178850D02*
X89050Y178850D01*
X196550Y341150D02*
X216050Y341150D01*
X216050Y178850D02*
X196550Y178850D01*
X861050Y178850D02*
X880550Y178850D01*
X880550Y341150D02*
X861050Y341150D01*
X753550Y178850D02*
X734050Y178850D01*
X734050Y341150D02*
X753550Y341150D01*
D11*
X270000Y199398D02*
X270000Y180602D01*
X690000Y180602D02*
X690000Y199398D01*
X660000Y199398D02*
X660000Y180602D01*
D10*
X89736Y981063D02*
X70236Y981063D01*
X70236Y818763D02*
X89736Y818763D01*
X197236Y981063D02*
X216736Y981063D01*
X216736Y818763D02*
X197236Y818763D01*
X861736Y818763D02*
X881236Y818763D01*
X881236Y981063D02*
X861736Y981063D01*
X754236Y818763D02*
X734736Y818763D01*
X734736Y981063D02*
X754236Y981063D01*
D11*
X270686Y839311D02*
X270686Y820515D01*
X690686Y820515D02*
X690686Y839311D01*
X660686Y839311D02*
X660686Y820515D01*
D10*
X89388Y766669D02*
X69888Y766669D01*
X69888Y604369D02*
X89388Y604369D01*
X196888Y766669D02*
X216388Y766669D01*
X216388Y604369D02*
X196888Y604369D01*
X861388Y604369D02*
X880888Y604369D01*
X880888Y766669D02*
X861388Y766669D01*
X753888Y604369D02*
X734388Y604369D01*
X734388Y766669D02*
X753888Y766669D01*
D11*
X270338Y624917D02*
X270338Y606121D01*
X690338Y606121D02*
X690338Y624917D01*
X660338Y624917D02*
X660338Y606121D01*
D10*
X88433Y553593D02*
X68933Y553593D01*
X68933Y391293D02*
X88433Y391293D01*
X195933Y553593D02*
X215433Y553593D01*
X215433Y391293D02*
X195933Y391293D01*
X860433Y391293D02*
X879933Y391293D01*
X879933Y553593D02*
X860433Y553593D01*
X752933Y391293D02*
X733433Y391293D01*
X733433Y553593D02*
X752933Y553593D01*
D11*
X269383Y411841D02*
X269383Y393045D01*
X689383Y393045D02*
X689383Y411841D01*
X659383Y411841D02*
X659383Y393045D01*
M02*
