M48
;GenerationSoftware,Autodesk,EAGLE,9.2.2*%
;CreationDate,2019-01-20T22:14:04Z*%
FMAT,2
ICI,OFF
METRIC,TZ,000.000
T2C1.118
T1C1.300
%
G90
M71
T1
X7930Y34115
X7930Y17885
X20630Y34115
X20630Y17885
X87080Y17885
X87080Y34115
X74380Y17885
X74380Y34115
X74318Y55359
X74318Y39129
X87018Y55359
X7999Y98106
X7999Y81876
X20699Y98106
X20699Y81876
X87149Y81876
X87149Y98106
X74449Y81876
X74449Y98106
X87018Y39129
X20568Y39129
X20568Y55359
X7964Y76667
X7964Y60437
X20664Y76667
X20664Y60437
X87114Y60437
X87114Y76667
X74414Y60437
X74414Y76667
X7868Y39129
X7868Y55359
T2
X66034Y61552
X69034Y61552
X27034Y61552
X66069Y82991
X69069Y82991
X27069Y82991
X66000Y19000
X69000Y19000
X27000Y19000
X26938Y40244
X68938Y40244
X65938Y40244
M30