G04 EAGLE Gerber X2 export*
%TF.Part,Single*%
%TF.FileFunction,Legend,Top,1*%
%TF.FilePolarity,Positive*%
%TF.GenerationSoftware,Autodesk,EAGLE,9.2.2*%
%TF.CreationDate,2019-01-20T22:14:07Z*%
G75*
%MOMM*%
%FSLAX34Y34*%
%LPD*%
%INSilkscreen Top*%
%AMOC8*
5,1,8,0,0,1.08239X$1,22.5*%
G01*
%ADD10C,0.406400*%
%ADD11C,0.203200*%
%ADD12C,0.127000*%


D10*
X14090Y792635D02*
X947129Y792635D01*
X975305Y578028D02*
X6262Y578028D01*
X10959Y363421D02*
X953387Y363421D01*
D11*
X257300Y196350D02*
X257300Y183650D01*
X282700Y183650D02*
X282700Y196350D01*
D12*
X259544Y212027D02*
X259544Y215781D01*
X259543Y212027D02*
X259541Y211962D01*
X259535Y211898D01*
X259525Y211834D01*
X259512Y211770D01*
X259494Y211708D01*
X259473Y211647D01*
X259449Y211587D01*
X259420Y211529D01*
X259388Y211472D01*
X259353Y211418D01*
X259315Y211366D01*
X259273Y211316D01*
X259229Y211269D01*
X259182Y211225D01*
X259132Y211183D01*
X259080Y211145D01*
X259026Y211110D01*
X258969Y211078D01*
X258911Y211049D01*
X258851Y211025D01*
X258790Y211004D01*
X258728Y210986D01*
X258664Y210973D01*
X258600Y210963D01*
X258536Y210957D01*
X258471Y210955D01*
X257935Y210955D01*
X263966Y215781D02*
X264034Y215779D01*
X264101Y215773D01*
X264168Y215764D01*
X264235Y215751D01*
X264300Y215734D01*
X264365Y215713D01*
X264428Y215689D01*
X264490Y215661D01*
X264550Y215630D01*
X264608Y215596D01*
X264664Y215558D01*
X264719Y215518D01*
X264770Y215474D01*
X264819Y215427D01*
X264866Y215378D01*
X264910Y215327D01*
X264950Y215272D01*
X264988Y215216D01*
X265022Y215158D01*
X265053Y215098D01*
X265081Y215036D01*
X265105Y214973D01*
X265126Y214908D01*
X265143Y214843D01*
X265156Y214776D01*
X265165Y214709D01*
X265171Y214642D01*
X265173Y214574D01*
X263966Y215781D02*
X263888Y215779D01*
X263810Y215773D01*
X263733Y215763D01*
X263656Y215750D01*
X263580Y215732D01*
X263505Y215711D01*
X263431Y215686D01*
X263359Y215657D01*
X263288Y215625D01*
X263219Y215589D01*
X263151Y215550D01*
X263086Y215507D01*
X263023Y215461D01*
X262962Y215412D01*
X262904Y215360D01*
X262849Y215305D01*
X262796Y215248D01*
X262747Y215188D01*
X262700Y215125D01*
X262657Y215061D01*
X262617Y214994D01*
X262580Y214925D01*
X262547Y214854D01*
X262517Y214782D01*
X262491Y214709D01*
X264771Y213636D02*
X264820Y213685D01*
X264867Y213737D01*
X264910Y213792D01*
X264951Y213849D01*
X264989Y213908D01*
X265023Y213969D01*
X265054Y214032D01*
X265082Y214096D01*
X265106Y214162D01*
X265126Y214228D01*
X265143Y214296D01*
X265156Y214365D01*
X265165Y214434D01*
X265171Y214504D01*
X265173Y214574D01*
X264771Y213636D02*
X262492Y210955D01*
X265173Y210955D01*
D11*
X677300Y196350D02*
X677300Y183650D01*
X702700Y183650D02*
X702700Y196350D01*
D12*
X679544Y212027D02*
X679544Y215781D01*
X679543Y212027D02*
X679541Y211962D01*
X679535Y211898D01*
X679525Y211834D01*
X679512Y211770D01*
X679494Y211708D01*
X679473Y211647D01*
X679449Y211587D01*
X679420Y211529D01*
X679388Y211472D01*
X679353Y211418D01*
X679315Y211366D01*
X679273Y211316D01*
X679229Y211269D01*
X679182Y211225D01*
X679132Y211183D01*
X679080Y211145D01*
X679026Y211110D01*
X678969Y211078D01*
X678911Y211049D01*
X678851Y211025D01*
X678790Y211004D01*
X678728Y210986D01*
X678664Y210973D01*
X678600Y210963D01*
X678536Y210957D01*
X678471Y210955D01*
X677935Y210955D01*
X682492Y210955D02*
X683832Y210955D01*
X683903Y210957D01*
X683975Y210963D01*
X684045Y210972D01*
X684115Y210985D01*
X684185Y211002D01*
X684253Y211023D01*
X684320Y211047D01*
X684386Y211075D01*
X684450Y211106D01*
X684513Y211141D01*
X684573Y211179D01*
X684632Y211220D01*
X684688Y211264D01*
X684742Y211311D01*
X684793Y211360D01*
X684841Y211413D01*
X684887Y211468D01*
X684929Y211525D01*
X684969Y211585D01*
X685005Y211646D01*
X685038Y211710D01*
X685067Y211775D01*
X685093Y211841D01*
X685116Y211909D01*
X685135Y211978D01*
X685150Y212048D01*
X685161Y212118D01*
X685169Y212189D01*
X685173Y212260D01*
X685173Y212332D01*
X685169Y212403D01*
X685161Y212474D01*
X685150Y212544D01*
X685135Y212614D01*
X685116Y212683D01*
X685093Y212751D01*
X685067Y212817D01*
X685038Y212882D01*
X685005Y212946D01*
X684969Y213007D01*
X684929Y213067D01*
X684887Y213124D01*
X684841Y213179D01*
X684793Y213232D01*
X684742Y213281D01*
X684688Y213328D01*
X684632Y213372D01*
X684573Y213413D01*
X684513Y213451D01*
X684450Y213486D01*
X684386Y213517D01*
X684320Y213545D01*
X684253Y213569D01*
X684185Y213590D01*
X684115Y213607D01*
X684045Y213620D01*
X683975Y213629D01*
X683903Y213635D01*
X683832Y213637D01*
X684100Y215781D02*
X682492Y215781D01*
X684100Y215781D02*
X684165Y215779D01*
X684229Y215773D01*
X684293Y215763D01*
X684357Y215750D01*
X684419Y215732D01*
X684480Y215711D01*
X684540Y215687D01*
X684598Y215658D01*
X684655Y215626D01*
X684709Y215591D01*
X684761Y215553D01*
X684811Y215511D01*
X684858Y215467D01*
X684902Y215420D01*
X684944Y215370D01*
X684982Y215318D01*
X685017Y215264D01*
X685049Y215207D01*
X685078Y215149D01*
X685102Y215089D01*
X685123Y215028D01*
X685141Y214966D01*
X685154Y214902D01*
X685164Y214838D01*
X685170Y214774D01*
X685172Y214709D01*
X685170Y214644D01*
X685164Y214580D01*
X685154Y214516D01*
X685141Y214452D01*
X685123Y214390D01*
X685102Y214329D01*
X685078Y214269D01*
X685049Y214211D01*
X685017Y214154D01*
X684982Y214100D01*
X684944Y214048D01*
X684902Y213998D01*
X684858Y213951D01*
X684811Y213907D01*
X684761Y213865D01*
X684709Y213827D01*
X684655Y213792D01*
X684598Y213760D01*
X684540Y213731D01*
X684480Y213707D01*
X684419Y213686D01*
X684357Y213668D01*
X684293Y213655D01*
X684229Y213645D01*
X684165Y213639D01*
X684100Y213637D01*
X684100Y213636D02*
X683028Y213636D01*
D11*
X647300Y196350D02*
X647300Y183650D01*
X672700Y183650D02*
X672700Y196350D01*
D12*
X649544Y212027D02*
X649544Y215781D01*
X649543Y212027D02*
X649541Y211962D01*
X649535Y211898D01*
X649525Y211834D01*
X649512Y211770D01*
X649494Y211708D01*
X649473Y211647D01*
X649449Y211587D01*
X649420Y211529D01*
X649388Y211472D01*
X649353Y211418D01*
X649315Y211366D01*
X649273Y211316D01*
X649229Y211269D01*
X649182Y211225D01*
X649132Y211183D01*
X649080Y211145D01*
X649026Y211110D01*
X648969Y211078D01*
X648911Y211049D01*
X648851Y211025D01*
X648790Y211004D01*
X648728Y210986D01*
X648664Y210973D01*
X648600Y210963D01*
X648536Y210957D01*
X648471Y210955D01*
X647935Y210955D01*
X652492Y212027D02*
X653564Y215781D01*
X652492Y212027D02*
X655173Y212027D01*
X654368Y210955D02*
X654368Y213100D01*
D11*
X257986Y823563D02*
X257986Y836263D01*
X283386Y836263D02*
X283386Y823563D01*
D12*
X260230Y851940D02*
X260230Y855694D01*
X260229Y851940D02*
X260227Y851875D01*
X260221Y851811D01*
X260211Y851747D01*
X260198Y851683D01*
X260180Y851621D01*
X260159Y851560D01*
X260135Y851500D01*
X260106Y851442D01*
X260074Y851385D01*
X260039Y851331D01*
X260001Y851279D01*
X259959Y851229D01*
X259915Y851182D01*
X259868Y851138D01*
X259818Y851096D01*
X259766Y851058D01*
X259712Y851023D01*
X259655Y850991D01*
X259597Y850962D01*
X259537Y850938D01*
X259476Y850917D01*
X259414Y850899D01*
X259350Y850886D01*
X259286Y850876D01*
X259222Y850870D01*
X259157Y850868D01*
X258621Y850868D01*
X263178Y855158D02*
X263178Y855694D01*
X265859Y855694D01*
X264518Y850868D01*
D11*
X677986Y836263D02*
X677986Y823563D01*
X703386Y823563D02*
X703386Y836263D01*
D12*
X680230Y851940D02*
X680230Y855694D01*
X680229Y851940D02*
X680227Y851875D01*
X680221Y851811D01*
X680211Y851747D01*
X680198Y851683D01*
X680180Y851621D01*
X680159Y851560D01*
X680135Y851500D01*
X680106Y851442D01*
X680074Y851385D01*
X680039Y851331D01*
X680001Y851279D01*
X679959Y851229D01*
X679915Y851182D01*
X679868Y851138D01*
X679818Y851096D01*
X679766Y851058D01*
X679712Y851023D01*
X679655Y850991D01*
X679597Y850962D01*
X679537Y850938D01*
X679476Y850917D01*
X679414Y850899D01*
X679350Y850886D01*
X679286Y850876D01*
X679222Y850870D01*
X679157Y850868D01*
X678621Y850868D01*
X683177Y852209D02*
X683179Y852280D01*
X683185Y852352D01*
X683194Y852422D01*
X683207Y852492D01*
X683224Y852562D01*
X683245Y852630D01*
X683269Y852697D01*
X683297Y852763D01*
X683328Y852827D01*
X683363Y852890D01*
X683401Y852950D01*
X683442Y853009D01*
X683486Y853065D01*
X683533Y853119D01*
X683582Y853170D01*
X683635Y853218D01*
X683690Y853264D01*
X683747Y853306D01*
X683807Y853346D01*
X683868Y853382D01*
X683932Y853415D01*
X683997Y853444D01*
X684063Y853470D01*
X684131Y853493D01*
X684200Y853512D01*
X684270Y853527D01*
X684340Y853538D01*
X684411Y853546D01*
X684482Y853550D01*
X684554Y853550D01*
X684625Y853546D01*
X684696Y853538D01*
X684766Y853527D01*
X684836Y853512D01*
X684905Y853493D01*
X684973Y853470D01*
X685039Y853444D01*
X685104Y853415D01*
X685168Y853382D01*
X685229Y853346D01*
X685289Y853306D01*
X685346Y853264D01*
X685401Y853218D01*
X685454Y853170D01*
X685503Y853119D01*
X685550Y853065D01*
X685594Y853009D01*
X685635Y852950D01*
X685673Y852890D01*
X685708Y852827D01*
X685739Y852763D01*
X685767Y852697D01*
X685791Y852630D01*
X685812Y852562D01*
X685829Y852492D01*
X685842Y852422D01*
X685851Y852352D01*
X685857Y852280D01*
X685859Y852209D01*
X685857Y852138D01*
X685851Y852066D01*
X685842Y851996D01*
X685829Y851926D01*
X685812Y851856D01*
X685791Y851788D01*
X685767Y851721D01*
X685739Y851655D01*
X685708Y851591D01*
X685673Y851528D01*
X685635Y851468D01*
X685594Y851409D01*
X685550Y851353D01*
X685503Y851299D01*
X685454Y851248D01*
X685401Y851200D01*
X685346Y851154D01*
X685289Y851112D01*
X685229Y851072D01*
X685168Y851036D01*
X685104Y851003D01*
X685039Y850974D01*
X684973Y850948D01*
X684905Y850925D01*
X684836Y850906D01*
X684766Y850891D01*
X684696Y850880D01*
X684625Y850872D01*
X684554Y850868D01*
X684482Y850868D01*
X684411Y850872D01*
X684340Y850880D01*
X684270Y850891D01*
X684200Y850906D01*
X684131Y850925D01*
X684063Y850948D01*
X683997Y850974D01*
X683932Y851003D01*
X683868Y851036D01*
X683807Y851072D01*
X683747Y851112D01*
X683690Y851154D01*
X683635Y851200D01*
X683582Y851248D01*
X683533Y851299D01*
X683486Y851353D01*
X683442Y851409D01*
X683401Y851468D01*
X683363Y851528D01*
X683328Y851591D01*
X683297Y851655D01*
X683269Y851721D01*
X683245Y851788D01*
X683224Y851856D01*
X683207Y851926D01*
X683194Y851996D01*
X683185Y852066D01*
X683179Y852138D01*
X683177Y852209D01*
X683446Y854622D02*
X683448Y854687D01*
X683454Y854751D01*
X683464Y854815D01*
X683477Y854879D01*
X683495Y854941D01*
X683516Y855002D01*
X683540Y855062D01*
X683569Y855120D01*
X683601Y855177D01*
X683636Y855231D01*
X683674Y855283D01*
X683716Y855333D01*
X683760Y855380D01*
X683807Y855424D01*
X683857Y855466D01*
X683909Y855504D01*
X683963Y855539D01*
X684020Y855571D01*
X684078Y855600D01*
X684138Y855624D01*
X684199Y855645D01*
X684261Y855663D01*
X684325Y855676D01*
X684389Y855686D01*
X684453Y855692D01*
X684518Y855694D01*
X684583Y855692D01*
X684647Y855686D01*
X684711Y855676D01*
X684775Y855663D01*
X684837Y855645D01*
X684898Y855624D01*
X684958Y855600D01*
X685016Y855571D01*
X685073Y855539D01*
X685127Y855504D01*
X685179Y855466D01*
X685229Y855424D01*
X685276Y855380D01*
X685320Y855333D01*
X685362Y855283D01*
X685400Y855231D01*
X685435Y855177D01*
X685467Y855120D01*
X685496Y855062D01*
X685520Y855002D01*
X685541Y854941D01*
X685559Y854879D01*
X685572Y854815D01*
X685582Y854751D01*
X685588Y854687D01*
X685590Y854622D01*
X685588Y854557D01*
X685582Y854493D01*
X685572Y854429D01*
X685559Y854365D01*
X685541Y854303D01*
X685520Y854242D01*
X685496Y854182D01*
X685467Y854124D01*
X685435Y854067D01*
X685400Y854013D01*
X685362Y853961D01*
X685320Y853911D01*
X685276Y853864D01*
X685229Y853820D01*
X685179Y853778D01*
X685127Y853740D01*
X685073Y853705D01*
X685016Y853673D01*
X684958Y853644D01*
X684898Y853620D01*
X684837Y853599D01*
X684775Y853581D01*
X684711Y853568D01*
X684647Y853558D01*
X684583Y853552D01*
X684518Y853550D01*
X684453Y853552D01*
X684389Y853558D01*
X684325Y853568D01*
X684261Y853581D01*
X684199Y853599D01*
X684138Y853620D01*
X684078Y853644D01*
X684020Y853673D01*
X683963Y853705D01*
X683909Y853740D01*
X683857Y853778D01*
X683807Y853820D01*
X683760Y853864D01*
X683716Y853911D01*
X683674Y853961D01*
X683636Y854013D01*
X683601Y854067D01*
X683569Y854124D01*
X683540Y854182D01*
X683516Y854242D01*
X683495Y854303D01*
X683477Y854365D01*
X683464Y854429D01*
X683454Y854493D01*
X683448Y854557D01*
X683446Y854622D01*
D11*
X647986Y836263D02*
X647986Y823563D01*
X673386Y823563D02*
X673386Y836263D01*
D12*
X650230Y851940D02*
X650230Y855694D01*
X650229Y851940D02*
X650227Y851875D01*
X650221Y851811D01*
X650211Y851747D01*
X650198Y851683D01*
X650180Y851621D01*
X650159Y851560D01*
X650135Y851500D01*
X650106Y851442D01*
X650074Y851385D01*
X650039Y851331D01*
X650001Y851279D01*
X649959Y851229D01*
X649915Y851182D01*
X649868Y851138D01*
X649818Y851096D01*
X649766Y851058D01*
X649712Y851023D01*
X649655Y850991D01*
X649597Y850962D01*
X649537Y850938D01*
X649476Y850917D01*
X649414Y850899D01*
X649350Y850886D01*
X649286Y850876D01*
X649222Y850870D01*
X649157Y850868D01*
X648621Y850868D01*
X654250Y853013D02*
X655859Y853013D01*
X654250Y853013D02*
X654185Y853015D01*
X654121Y853021D01*
X654057Y853031D01*
X653993Y853044D01*
X653931Y853062D01*
X653870Y853083D01*
X653810Y853107D01*
X653752Y853136D01*
X653695Y853168D01*
X653641Y853203D01*
X653589Y853241D01*
X653539Y853283D01*
X653492Y853327D01*
X653448Y853374D01*
X653406Y853424D01*
X653368Y853476D01*
X653333Y853530D01*
X653301Y853587D01*
X653272Y853645D01*
X653248Y853705D01*
X653227Y853766D01*
X653209Y853828D01*
X653196Y853892D01*
X653186Y853956D01*
X653180Y854020D01*
X653178Y854085D01*
X653178Y854353D01*
X653177Y854353D02*
X653179Y854424D01*
X653185Y854496D01*
X653194Y854566D01*
X653207Y854636D01*
X653224Y854706D01*
X653245Y854774D01*
X653269Y854841D01*
X653297Y854907D01*
X653328Y854971D01*
X653363Y855034D01*
X653401Y855094D01*
X653442Y855153D01*
X653486Y855209D01*
X653533Y855263D01*
X653582Y855314D01*
X653635Y855362D01*
X653690Y855408D01*
X653747Y855450D01*
X653807Y855490D01*
X653868Y855526D01*
X653932Y855559D01*
X653997Y855588D01*
X654063Y855614D01*
X654131Y855637D01*
X654200Y855656D01*
X654270Y855671D01*
X654340Y855682D01*
X654411Y855690D01*
X654482Y855694D01*
X654554Y855694D01*
X654625Y855690D01*
X654696Y855682D01*
X654766Y855671D01*
X654836Y855656D01*
X654905Y855637D01*
X654973Y855614D01*
X655039Y855588D01*
X655104Y855559D01*
X655168Y855526D01*
X655229Y855490D01*
X655289Y855450D01*
X655346Y855408D01*
X655401Y855362D01*
X655454Y855314D01*
X655503Y855263D01*
X655550Y855209D01*
X655594Y855153D01*
X655635Y855094D01*
X655673Y855034D01*
X655708Y854971D01*
X655739Y854907D01*
X655767Y854841D01*
X655791Y854774D01*
X655812Y854706D01*
X655829Y854636D01*
X655842Y854566D01*
X655851Y854496D01*
X655857Y854424D01*
X655859Y854353D01*
X655859Y853013D01*
X655857Y852922D01*
X655851Y852831D01*
X655842Y852741D01*
X655828Y852650D01*
X655811Y852561D01*
X655790Y852473D01*
X655765Y852385D01*
X655736Y852298D01*
X655704Y852213D01*
X655669Y852129D01*
X655629Y852047D01*
X655587Y851967D01*
X655541Y851888D01*
X655491Y851812D01*
X655439Y851738D01*
X655383Y851665D01*
X655324Y851596D01*
X655263Y851529D01*
X655198Y851464D01*
X655131Y851403D01*
X655062Y851344D01*
X654989Y851288D01*
X654915Y851236D01*
X654839Y851186D01*
X654760Y851140D01*
X654680Y851098D01*
X654598Y851058D01*
X654514Y851023D01*
X654429Y850991D01*
X654342Y850962D01*
X654254Y850937D01*
X654166Y850916D01*
X654077Y850899D01*
X653986Y850885D01*
X653896Y850876D01*
X653805Y850870D01*
X653714Y850868D01*
D11*
X257638Y621869D02*
X257638Y609169D01*
X283038Y609169D02*
X283038Y621869D01*
D12*
X259882Y637547D02*
X259882Y641300D01*
X259882Y637547D02*
X259880Y637482D01*
X259874Y637418D01*
X259864Y637354D01*
X259851Y637290D01*
X259833Y637228D01*
X259812Y637167D01*
X259788Y637107D01*
X259759Y637049D01*
X259727Y636992D01*
X259692Y636938D01*
X259654Y636886D01*
X259612Y636836D01*
X259568Y636789D01*
X259521Y636745D01*
X259471Y636703D01*
X259419Y636665D01*
X259365Y636630D01*
X259308Y636598D01*
X259250Y636569D01*
X259190Y636545D01*
X259129Y636524D01*
X259067Y636506D01*
X259003Y636493D01*
X258939Y636483D01*
X258875Y636477D01*
X258810Y636475D01*
X258810Y636474D02*
X258273Y636474D01*
X262830Y640228D02*
X264171Y641300D01*
X264171Y636474D01*
X265511Y636474D02*
X262830Y636474D01*
X268316Y636474D02*
X269657Y636474D01*
X269728Y636476D01*
X269800Y636482D01*
X269870Y636491D01*
X269940Y636504D01*
X270010Y636521D01*
X270078Y636542D01*
X270145Y636566D01*
X270211Y636594D01*
X270275Y636625D01*
X270338Y636660D01*
X270398Y636698D01*
X270457Y636739D01*
X270513Y636783D01*
X270567Y636830D01*
X270618Y636879D01*
X270666Y636932D01*
X270712Y636987D01*
X270754Y637044D01*
X270794Y637104D01*
X270830Y637165D01*
X270863Y637229D01*
X270892Y637294D01*
X270918Y637360D01*
X270941Y637428D01*
X270960Y637497D01*
X270975Y637567D01*
X270986Y637637D01*
X270994Y637708D01*
X270998Y637779D01*
X270998Y637851D01*
X270994Y637922D01*
X270986Y637993D01*
X270975Y638063D01*
X270960Y638133D01*
X270941Y638202D01*
X270918Y638270D01*
X270892Y638336D01*
X270863Y638401D01*
X270830Y638465D01*
X270794Y638526D01*
X270754Y638586D01*
X270712Y638643D01*
X270666Y638698D01*
X270618Y638751D01*
X270567Y638800D01*
X270513Y638847D01*
X270457Y638891D01*
X270398Y638932D01*
X270338Y638970D01*
X270275Y639005D01*
X270211Y639036D01*
X270145Y639064D01*
X270078Y639088D01*
X270010Y639109D01*
X269940Y639126D01*
X269870Y639139D01*
X269800Y639148D01*
X269728Y639154D01*
X269657Y639156D01*
X269925Y641300D02*
X268316Y641300D01*
X269925Y641300D02*
X269990Y641298D01*
X270054Y641292D01*
X270118Y641282D01*
X270182Y641269D01*
X270244Y641251D01*
X270305Y641230D01*
X270365Y641206D01*
X270423Y641177D01*
X270480Y641145D01*
X270534Y641110D01*
X270586Y641072D01*
X270636Y641030D01*
X270683Y640986D01*
X270727Y640939D01*
X270769Y640889D01*
X270807Y640837D01*
X270842Y640783D01*
X270874Y640726D01*
X270903Y640668D01*
X270927Y640608D01*
X270948Y640547D01*
X270966Y640485D01*
X270979Y640421D01*
X270989Y640357D01*
X270995Y640293D01*
X270997Y640228D01*
X270995Y640163D01*
X270989Y640099D01*
X270979Y640035D01*
X270966Y639971D01*
X270948Y639909D01*
X270927Y639848D01*
X270903Y639788D01*
X270874Y639730D01*
X270842Y639673D01*
X270807Y639619D01*
X270769Y639567D01*
X270727Y639517D01*
X270683Y639470D01*
X270636Y639426D01*
X270586Y639384D01*
X270534Y639346D01*
X270480Y639311D01*
X270423Y639279D01*
X270365Y639250D01*
X270305Y639226D01*
X270244Y639205D01*
X270182Y639187D01*
X270118Y639174D01*
X270054Y639164D01*
X269990Y639158D01*
X269925Y639156D01*
X269925Y639155D02*
X268853Y639155D01*
D11*
X677638Y621869D02*
X677638Y609169D01*
X703038Y609169D02*
X703038Y621869D01*
D12*
X679882Y637547D02*
X679882Y641300D01*
X679882Y637547D02*
X679880Y637482D01*
X679874Y637418D01*
X679864Y637354D01*
X679851Y637290D01*
X679833Y637228D01*
X679812Y637167D01*
X679788Y637107D01*
X679759Y637049D01*
X679727Y636992D01*
X679692Y636938D01*
X679654Y636886D01*
X679612Y636836D01*
X679568Y636789D01*
X679521Y636745D01*
X679471Y636703D01*
X679419Y636665D01*
X679365Y636630D01*
X679308Y636598D01*
X679250Y636569D01*
X679190Y636545D01*
X679129Y636524D01*
X679067Y636506D01*
X679003Y636493D01*
X678939Y636483D01*
X678875Y636477D01*
X678810Y636475D01*
X678810Y636474D02*
X678273Y636474D01*
X682830Y640228D02*
X684171Y641300D01*
X684171Y636474D01*
X685511Y636474D02*
X682830Y636474D01*
X688316Y637547D02*
X689389Y641300D01*
X688316Y637547D02*
X690998Y637547D01*
X690193Y638619D02*
X690193Y636474D01*
D11*
X647638Y621869D02*
X647638Y609169D01*
X673038Y609169D02*
X673038Y621869D01*
D12*
X649882Y637547D02*
X649882Y641300D01*
X649882Y637547D02*
X649880Y637482D01*
X649874Y637418D01*
X649864Y637354D01*
X649851Y637290D01*
X649833Y637228D01*
X649812Y637167D01*
X649788Y637107D01*
X649759Y637049D01*
X649727Y636992D01*
X649692Y636938D01*
X649654Y636886D01*
X649612Y636836D01*
X649568Y636789D01*
X649521Y636745D01*
X649471Y636703D01*
X649419Y636665D01*
X649365Y636630D01*
X649308Y636598D01*
X649250Y636569D01*
X649190Y636545D01*
X649129Y636524D01*
X649067Y636506D01*
X649003Y636493D01*
X648939Y636483D01*
X648875Y636477D01*
X648810Y636475D01*
X648810Y636474D02*
X648273Y636474D01*
X652830Y640228D02*
X654171Y641300D01*
X654171Y636474D01*
X655511Y636474D02*
X652830Y636474D01*
X658316Y636474D02*
X659925Y636474D01*
X659925Y636475D02*
X659990Y636477D01*
X660054Y636483D01*
X660118Y636493D01*
X660182Y636506D01*
X660244Y636524D01*
X660305Y636545D01*
X660365Y636569D01*
X660423Y636598D01*
X660480Y636630D01*
X660534Y636665D01*
X660586Y636703D01*
X660636Y636745D01*
X660683Y636789D01*
X660727Y636836D01*
X660769Y636886D01*
X660807Y636938D01*
X660842Y636992D01*
X660874Y637049D01*
X660903Y637107D01*
X660927Y637167D01*
X660948Y637228D01*
X660966Y637290D01*
X660979Y637354D01*
X660989Y637418D01*
X660995Y637482D01*
X660997Y637547D01*
X660998Y637547D02*
X660998Y638083D01*
X660997Y638083D02*
X660995Y638148D01*
X660989Y638212D01*
X660979Y638276D01*
X660966Y638340D01*
X660948Y638402D01*
X660927Y638463D01*
X660903Y638523D01*
X660874Y638581D01*
X660842Y638638D01*
X660807Y638692D01*
X660769Y638744D01*
X660727Y638794D01*
X660683Y638841D01*
X660636Y638885D01*
X660586Y638927D01*
X660534Y638965D01*
X660480Y639000D01*
X660423Y639032D01*
X660365Y639061D01*
X660305Y639085D01*
X660244Y639106D01*
X660182Y639124D01*
X660118Y639137D01*
X660054Y639147D01*
X659990Y639153D01*
X659925Y639155D01*
X658316Y639155D01*
X658316Y641300D01*
X660998Y641300D01*
D11*
X256683Y408793D02*
X256683Y396093D01*
X282083Y396093D02*
X282083Y408793D01*
D12*
X258926Y424470D02*
X258926Y428224D01*
X258926Y424470D02*
X258924Y424405D01*
X258918Y424341D01*
X258908Y424277D01*
X258895Y424213D01*
X258877Y424151D01*
X258856Y424090D01*
X258832Y424030D01*
X258803Y423972D01*
X258771Y423915D01*
X258736Y423861D01*
X258698Y423809D01*
X258656Y423759D01*
X258612Y423712D01*
X258565Y423668D01*
X258515Y423626D01*
X258463Y423588D01*
X258409Y423553D01*
X258352Y423521D01*
X258294Y423492D01*
X258234Y423468D01*
X258173Y423447D01*
X258111Y423429D01*
X258047Y423416D01*
X257983Y423406D01*
X257919Y423400D01*
X257854Y423398D01*
X257318Y423398D01*
X261874Y427151D02*
X263215Y428224D01*
X263215Y423398D01*
X264555Y423398D02*
X261874Y423398D01*
X267361Y425811D02*
X267363Y425931D01*
X267368Y426051D01*
X267377Y426171D01*
X267390Y426291D01*
X267406Y426410D01*
X267426Y426529D01*
X267450Y426647D01*
X267477Y426764D01*
X267507Y426880D01*
X267541Y426995D01*
X267579Y427110D01*
X267620Y427223D01*
X267664Y427334D01*
X267712Y427445D01*
X267763Y427554D01*
X267784Y427611D01*
X267810Y427667D01*
X267838Y427722D01*
X267870Y427774D01*
X267906Y427825D01*
X267944Y427873D01*
X267985Y427919D01*
X268029Y427962D01*
X268075Y428002D01*
X268124Y428039D01*
X268176Y428073D01*
X268229Y428104D01*
X268284Y428132D01*
X268340Y428156D01*
X268398Y428177D01*
X268457Y428194D01*
X268517Y428207D01*
X268578Y428216D01*
X268640Y428222D01*
X268701Y428224D01*
X268762Y428222D01*
X268824Y428216D01*
X268885Y428207D01*
X268945Y428194D01*
X269004Y428177D01*
X269062Y428156D01*
X269118Y428132D01*
X269173Y428104D01*
X269226Y428073D01*
X269278Y428039D01*
X269327Y428002D01*
X269373Y427962D01*
X269417Y427919D01*
X269458Y427873D01*
X269496Y427825D01*
X269532Y427774D01*
X269564Y427722D01*
X269592Y427667D01*
X269618Y427611D01*
X269639Y427554D01*
X269640Y427554D02*
X269691Y427445D01*
X269739Y427334D01*
X269783Y427223D01*
X269824Y427110D01*
X269862Y426995D01*
X269896Y426880D01*
X269926Y426764D01*
X269953Y426647D01*
X269977Y426529D01*
X269997Y426410D01*
X270013Y426291D01*
X270026Y426171D01*
X270035Y426051D01*
X270040Y425931D01*
X270042Y425811D01*
X267361Y425811D02*
X267363Y425691D01*
X267368Y425571D01*
X267377Y425451D01*
X267390Y425331D01*
X267406Y425212D01*
X267426Y425093D01*
X267450Y424975D01*
X267477Y424858D01*
X267507Y424742D01*
X267541Y424627D01*
X267579Y424512D01*
X267620Y424399D01*
X267664Y424288D01*
X267712Y424177D01*
X267763Y424068D01*
X267784Y424011D01*
X267810Y423955D01*
X267838Y423900D01*
X267870Y423848D01*
X267906Y423797D01*
X267944Y423749D01*
X267985Y423703D01*
X268029Y423660D01*
X268075Y423620D01*
X268124Y423583D01*
X268176Y423549D01*
X268229Y423518D01*
X268284Y423490D01*
X268340Y423466D01*
X268398Y423445D01*
X268457Y423428D01*
X268517Y423415D01*
X268578Y423406D01*
X268640Y423400D01*
X268701Y423398D01*
X269639Y424068D02*
X269690Y424177D01*
X269738Y424288D01*
X269782Y424399D01*
X269823Y424512D01*
X269861Y424627D01*
X269895Y424742D01*
X269925Y424858D01*
X269952Y424975D01*
X269976Y425093D01*
X269996Y425212D01*
X270012Y425331D01*
X270025Y425451D01*
X270034Y425571D01*
X270039Y425691D01*
X270041Y425811D01*
X269639Y424068D02*
X269618Y424011D01*
X269592Y423955D01*
X269564Y423900D01*
X269532Y423848D01*
X269496Y423797D01*
X269458Y423749D01*
X269417Y423703D01*
X269373Y423660D01*
X269326Y423620D01*
X269278Y423583D01*
X269226Y423549D01*
X269173Y423518D01*
X269118Y423490D01*
X269062Y423466D01*
X269004Y423445D01*
X268945Y423428D01*
X268885Y423415D01*
X268824Y423406D01*
X268762Y423400D01*
X268701Y423398D01*
X267629Y424470D02*
X269774Y427151D01*
D11*
X676683Y408793D02*
X676683Y396093D01*
X702083Y396093D02*
X702083Y408793D01*
D12*
X678926Y424470D02*
X678926Y428224D01*
X678926Y424470D02*
X678924Y424405D01*
X678918Y424341D01*
X678908Y424277D01*
X678895Y424213D01*
X678877Y424151D01*
X678856Y424090D01*
X678832Y424030D01*
X678803Y423972D01*
X678771Y423915D01*
X678736Y423861D01*
X678698Y423809D01*
X678656Y423759D01*
X678612Y423712D01*
X678565Y423668D01*
X678515Y423626D01*
X678463Y423588D01*
X678409Y423553D01*
X678352Y423521D01*
X678294Y423492D01*
X678234Y423468D01*
X678173Y423447D01*
X678111Y423429D01*
X678047Y423416D01*
X677983Y423406D01*
X677919Y423400D01*
X677854Y423398D01*
X677318Y423398D01*
X681874Y427151D02*
X683215Y428224D01*
X683215Y423398D01*
X684555Y423398D02*
X681874Y423398D01*
X687361Y427151D02*
X688701Y428224D01*
X688701Y423398D01*
X687361Y423398D02*
X690042Y423398D01*
D11*
X646683Y408793D02*
X646683Y396093D01*
X672083Y396093D02*
X672083Y408793D01*
D12*
X648926Y424470D02*
X648926Y428224D01*
X648926Y424470D02*
X648924Y424405D01*
X648918Y424341D01*
X648908Y424277D01*
X648895Y424213D01*
X648877Y424151D01*
X648856Y424090D01*
X648832Y424030D01*
X648803Y423972D01*
X648771Y423915D01*
X648736Y423861D01*
X648698Y423809D01*
X648656Y423759D01*
X648612Y423712D01*
X648565Y423668D01*
X648515Y423626D01*
X648463Y423588D01*
X648409Y423553D01*
X648352Y423521D01*
X648294Y423492D01*
X648234Y423468D01*
X648173Y423447D01*
X648111Y423429D01*
X648047Y423416D01*
X647983Y423406D01*
X647919Y423400D01*
X647854Y423398D01*
X647318Y423398D01*
X651874Y427151D02*
X653215Y428224D01*
X653215Y423398D01*
X654555Y423398D02*
X651874Y423398D01*
X658835Y428224D02*
X658903Y428222D01*
X658970Y428216D01*
X659037Y428207D01*
X659104Y428194D01*
X659169Y428177D01*
X659234Y428156D01*
X659297Y428132D01*
X659359Y428104D01*
X659419Y428073D01*
X659477Y428039D01*
X659533Y428001D01*
X659588Y427961D01*
X659639Y427917D01*
X659688Y427870D01*
X659735Y427821D01*
X659779Y427770D01*
X659819Y427715D01*
X659857Y427659D01*
X659891Y427601D01*
X659922Y427541D01*
X659950Y427479D01*
X659974Y427416D01*
X659995Y427351D01*
X660012Y427286D01*
X660025Y427219D01*
X660034Y427152D01*
X660040Y427085D01*
X660042Y427017D01*
X658835Y428224D02*
X658757Y428222D01*
X658679Y428216D01*
X658602Y428206D01*
X658525Y428193D01*
X658449Y428175D01*
X658374Y428154D01*
X658300Y428129D01*
X658228Y428100D01*
X658157Y428068D01*
X658088Y428032D01*
X658020Y427993D01*
X657955Y427950D01*
X657892Y427904D01*
X657831Y427855D01*
X657773Y427803D01*
X657718Y427748D01*
X657665Y427691D01*
X657616Y427631D01*
X657569Y427568D01*
X657526Y427504D01*
X657486Y427437D01*
X657449Y427368D01*
X657416Y427297D01*
X657386Y427225D01*
X657360Y427152D01*
X659640Y426079D02*
X659689Y426128D01*
X659736Y426180D01*
X659779Y426235D01*
X659820Y426292D01*
X659858Y426351D01*
X659892Y426412D01*
X659923Y426475D01*
X659951Y426539D01*
X659975Y426605D01*
X659995Y426671D01*
X660012Y426739D01*
X660025Y426808D01*
X660034Y426877D01*
X660040Y426947D01*
X660042Y427017D01*
X659639Y426079D02*
X657361Y423398D01*
X660042Y423398D01*
M02*
