G04 EAGLE Gerber X2 export*
%TF.Part,Single*%
%TF.FileFunction,Legend,Bot,1*%
%TF.FilePolarity,Positive*%
%TF.GenerationSoftware,Autodesk,EAGLE,9.2.2*%
%TF.CreationDate,2019-01-20T22:14:07Z*%
G75*
%MOMM*%
%FSLAX34Y34*%
%LPD*%
%INSilkscreen Bottom*%
%AMOC8*
5,1,8,0,0,1.08239X$1,22.5*%
G01*
%ADD10C,0.254000*%
%ADD11C,0.127000*%
%ADD12C,0.152400*%


D10*
X35800Y351000D02*
X245300Y351000D01*
X245300Y302500D01*
X245300Y217500D01*
X245300Y169000D01*
X35800Y169000D01*
X35800Y203000D01*
X35800Y317000D01*
X35800Y351000D01*
X35800Y317000D02*
X-52700Y317000D01*
X-52700Y203000D01*
X35800Y203000D01*
X245300Y217500D02*
X275300Y217500D01*
X275300Y302500D01*
X245300Y302500D01*
D11*
X-6500Y315000D02*
X-6500Y205000D01*
D12*
X208784Y317912D02*
X208784Y329088D01*
X211888Y329088D02*
X205679Y329088D01*
X81163Y317912D02*
X81065Y317914D01*
X80968Y317920D01*
X80871Y317929D01*
X80774Y317943D01*
X80678Y317960D01*
X80583Y317981D01*
X80489Y318005D01*
X80395Y318034D01*
X80303Y318066D01*
X80212Y318101D01*
X80123Y318140D01*
X80035Y318183D01*
X79949Y318229D01*
X79865Y318278D01*
X79783Y318331D01*
X79703Y318386D01*
X79625Y318445D01*
X79550Y318507D01*
X79477Y318572D01*
X79407Y318640D01*
X79339Y318710D01*
X79274Y318783D01*
X79212Y318858D01*
X79153Y318936D01*
X79098Y319016D01*
X79045Y319098D01*
X78996Y319182D01*
X78950Y319268D01*
X78907Y319356D01*
X78868Y319445D01*
X78833Y319536D01*
X78801Y319628D01*
X78772Y319722D01*
X78748Y319816D01*
X78727Y319911D01*
X78710Y320007D01*
X78696Y320104D01*
X78687Y320201D01*
X78681Y320298D01*
X78679Y320396D01*
X81163Y317912D02*
X81306Y317914D01*
X81449Y317920D01*
X81591Y317929D01*
X81733Y317943D01*
X81875Y317961D01*
X82016Y317982D01*
X82157Y318007D01*
X82297Y318036D01*
X82436Y318069D01*
X82574Y318105D01*
X82711Y318146D01*
X82847Y318190D01*
X82981Y318237D01*
X83115Y318289D01*
X83246Y318343D01*
X83377Y318402D01*
X83505Y318464D01*
X83632Y318529D01*
X83757Y318598D01*
X83881Y318671D01*
X84002Y318746D01*
X84121Y318825D01*
X84238Y318907D01*
X84352Y318993D01*
X84464Y319081D01*
X84574Y319172D01*
X84681Y319267D01*
X84786Y319364D01*
X84888Y319464D01*
X84578Y326604D02*
X84576Y326702D01*
X84570Y326799D01*
X84561Y326896D01*
X84547Y326993D01*
X84530Y327089D01*
X84509Y327184D01*
X84485Y327278D01*
X84456Y327372D01*
X84424Y327464D01*
X84389Y327555D01*
X84350Y327644D01*
X84307Y327732D01*
X84261Y327818D01*
X84212Y327902D01*
X84159Y327984D01*
X84104Y328064D01*
X84045Y328142D01*
X83983Y328217D01*
X83918Y328290D01*
X83850Y328360D01*
X83780Y328428D01*
X83707Y328493D01*
X83632Y328555D01*
X83554Y328614D01*
X83474Y328669D01*
X83392Y328722D01*
X83308Y328771D01*
X83222Y328817D01*
X83134Y328860D01*
X83045Y328899D01*
X82954Y328934D01*
X82862Y328966D01*
X82768Y328995D01*
X82674Y329019D01*
X82579Y329040D01*
X82483Y329057D01*
X82386Y329071D01*
X82289Y329080D01*
X82192Y329086D01*
X82094Y329088D01*
X81964Y329086D01*
X81834Y329081D01*
X81704Y329072D01*
X81574Y329059D01*
X81445Y329043D01*
X81316Y329023D01*
X81188Y328999D01*
X81060Y328972D01*
X80934Y328941D01*
X80808Y328907D01*
X80683Y328869D01*
X80560Y328828D01*
X80437Y328783D01*
X80316Y328735D01*
X80196Y328684D01*
X80078Y328629D01*
X79962Y328571D01*
X79847Y328510D01*
X79733Y328445D01*
X79622Y328378D01*
X79513Y328307D01*
X79405Y328233D01*
X79300Y328157D01*
X83335Y324431D02*
X83418Y324482D01*
X83499Y324536D01*
X83577Y324593D01*
X83653Y324653D01*
X83727Y324716D01*
X83798Y324782D01*
X83867Y324850D01*
X83933Y324921D01*
X83997Y324994D01*
X84057Y325070D01*
X84114Y325148D01*
X84169Y325229D01*
X84220Y325311D01*
X84268Y325395D01*
X84313Y325481D01*
X84355Y325569D01*
X84393Y325658D01*
X84427Y325748D01*
X84459Y325840D01*
X84486Y325933D01*
X84510Y326027D01*
X84531Y326122D01*
X84547Y326218D01*
X84560Y326314D01*
X84570Y326410D01*
X84575Y326507D01*
X84577Y326604D01*
X79922Y322569D02*
X79839Y322518D01*
X79758Y322464D01*
X79680Y322407D01*
X79604Y322347D01*
X79530Y322284D01*
X79459Y322218D01*
X79390Y322150D01*
X79324Y322079D01*
X79260Y322006D01*
X79200Y321930D01*
X79143Y321852D01*
X79088Y321771D01*
X79037Y321689D01*
X78989Y321605D01*
X78944Y321519D01*
X78902Y321431D01*
X78864Y321342D01*
X78830Y321252D01*
X78798Y321160D01*
X78771Y321067D01*
X78747Y320973D01*
X78726Y320878D01*
X78710Y320782D01*
X78697Y320686D01*
X78687Y320590D01*
X78682Y320493D01*
X78680Y320396D01*
X79921Y322569D02*
X83336Y324431D01*
X215134Y202088D02*
X215134Y190912D01*
X218238Y202088D02*
X212029Y202088D01*
X207189Y202088D02*
X207189Y190912D01*
X200980Y190912D02*
X207189Y202088D01*
X200980Y202088D02*
X200980Y190912D01*
X87513Y190912D02*
X87415Y190914D01*
X87318Y190920D01*
X87221Y190929D01*
X87124Y190943D01*
X87028Y190960D01*
X86933Y190981D01*
X86839Y191005D01*
X86745Y191034D01*
X86653Y191066D01*
X86562Y191101D01*
X86473Y191140D01*
X86385Y191183D01*
X86299Y191229D01*
X86215Y191278D01*
X86133Y191331D01*
X86053Y191386D01*
X85975Y191445D01*
X85900Y191507D01*
X85827Y191572D01*
X85757Y191640D01*
X85689Y191710D01*
X85624Y191783D01*
X85562Y191858D01*
X85503Y191936D01*
X85448Y192016D01*
X85395Y192098D01*
X85346Y192182D01*
X85300Y192268D01*
X85257Y192356D01*
X85218Y192445D01*
X85183Y192536D01*
X85151Y192628D01*
X85122Y192722D01*
X85098Y192816D01*
X85077Y192911D01*
X85060Y193007D01*
X85046Y193104D01*
X85037Y193201D01*
X85031Y193298D01*
X85029Y193396D01*
X87513Y190912D02*
X87656Y190914D01*
X87799Y190920D01*
X87941Y190929D01*
X88083Y190943D01*
X88225Y190961D01*
X88366Y190982D01*
X88507Y191007D01*
X88647Y191036D01*
X88786Y191069D01*
X88924Y191105D01*
X89061Y191146D01*
X89197Y191190D01*
X89331Y191237D01*
X89465Y191289D01*
X89596Y191343D01*
X89727Y191402D01*
X89855Y191464D01*
X89982Y191529D01*
X90107Y191598D01*
X90231Y191671D01*
X90352Y191746D01*
X90471Y191825D01*
X90588Y191907D01*
X90702Y191993D01*
X90814Y192081D01*
X90924Y192172D01*
X91031Y192267D01*
X91136Y192364D01*
X91238Y192464D01*
X90928Y199604D02*
X90926Y199702D01*
X90920Y199799D01*
X90911Y199896D01*
X90897Y199993D01*
X90880Y200089D01*
X90859Y200184D01*
X90835Y200278D01*
X90806Y200372D01*
X90774Y200464D01*
X90739Y200555D01*
X90700Y200644D01*
X90657Y200732D01*
X90611Y200818D01*
X90562Y200902D01*
X90509Y200984D01*
X90454Y201064D01*
X90395Y201142D01*
X90333Y201217D01*
X90268Y201290D01*
X90200Y201360D01*
X90130Y201428D01*
X90057Y201493D01*
X89982Y201555D01*
X89904Y201614D01*
X89824Y201669D01*
X89742Y201722D01*
X89658Y201771D01*
X89572Y201817D01*
X89484Y201860D01*
X89395Y201899D01*
X89304Y201934D01*
X89212Y201966D01*
X89118Y201995D01*
X89024Y202019D01*
X88929Y202040D01*
X88833Y202057D01*
X88736Y202071D01*
X88639Y202080D01*
X88542Y202086D01*
X88444Y202088D01*
X88314Y202086D01*
X88184Y202081D01*
X88054Y202072D01*
X87924Y202059D01*
X87795Y202043D01*
X87666Y202023D01*
X87538Y201999D01*
X87410Y201972D01*
X87284Y201941D01*
X87158Y201907D01*
X87033Y201869D01*
X86910Y201828D01*
X86787Y201783D01*
X86666Y201735D01*
X86546Y201684D01*
X86428Y201629D01*
X86312Y201571D01*
X86197Y201510D01*
X86083Y201445D01*
X85972Y201378D01*
X85863Y201307D01*
X85755Y201233D01*
X85650Y201157D01*
X89685Y197431D02*
X89768Y197482D01*
X89849Y197536D01*
X89927Y197593D01*
X90003Y197653D01*
X90077Y197716D01*
X90148Y197782D01*
X90217Y197850D01*
X90283Y197921D01*
X90347Y197994D01*
X90407Y198070D01*
X90464Y198148D01*
X90519Y198229D01*
X90570Y198311D01*
X90618Y198395D01*
X90663Y198481D01*
X90705Y198569D01*
X90743Y198658D01*
X90777Y198748D01*
X90809Y198840D01*
X90836Y198933D01*
X90860Y199027D01*
X90881Y199122D01*
X90897Y199218D01*
X90910Y199314D01*
X90920Y199410D01*
X90925Y199507D01*
X90927Y199604D01*
X86272Y195569D02*
X86189Y195518D01*
X86108Y195464D01*
X86030Y195407D01*
X85954Y195347D01*
X85880Y195284D01*
X85809Y195218D01*
X85740Y195150D01*
X85674Y195079D01*
X85610Y195006D01*
X85550Y194930D01*
X85493Y194852D01*
X85438Y194771D01*
X85387Y194689D01*
X85339Y194605D01*
X85294Y194519D01*
X85252Y194431D01*
X85214Y194342D01*
X85180Y194252D01*
X85148Y194160D01*
X85121Y194067D01*
X85097Y193973D01*
X85076Y193878D01*
X85060Y193782D01*
X85047Y193686D01*
X85037Y193590D01*
X85032Y193493D01*
X85030Y193396D01*
X86271Y195569D02*
X89686Y197431D01*
X79808Y202088D02*
X79808Y190912D01*
X73599Y190912D02*
X79808Y202088D01*
X73599Y202088D02*
X73599Y190912D01*
D10*
X704800Y169000D02*
X914300Y169000D01*
X704800Y169000D02*
X704800Y217500D01*
X704800Y302500D01*
X704800Y351000D01*
X914300Y351000D01*
X914300Y317000D01*
X914300Y203000D01*
X914300Y169000D01*
X914300Y203000D02*
X1002800Y203000D01*
X1002800Y317000D01*
X914300Y317000D01*
X704800Y302500D02*
X674800Y302500D01*
X674800Y217500D01*
X704800Y217500D01*
D11*
X956600Y205000D02*
X956600Y315000D01*
D12*
X741316Y202088D02*
X741316Y190912D01*
X744421Y202088D02*
X738212Y202088D01*
X865212Y193396D02*
X865214Y193298D01*
X865220Y193201D01*
X865229Y193104D01*
X865243Y193007D01*
X865260Y192911D01*
X865281Y192816D01*
X865305Y192722D01*
X865334Y192628D01*
X865366Y192536D01*
X865401Y192445D01*
X865440Y192356D01*
X865483Y192268D01*
X865529Y192182D01*
X865578Y192098D01*
X865631Y192016D01*
X865686Y191936D01*
X865745Y191858D01*
X865807Y191783D01*
X865872Y191710D01*
X865940Y191640D01*
X866010Y191572D01*
X866083Y191507D01*
X866158Y191445D01*
X866236Y191386D01*
X866316Y191331D01*
X866398Y191278D01*
X866482Y191229D01*
X866568Y191183D01*
X866656Y191140D01*
X866745Y191101D01*
X866836Y191066D01*
X866928Y191034D01*
X867022Y191005D01*
X867116Y190981D01*
X867211Y190960D01*
X867307Y190943D01*
X867404Y190929D01*
X867501Y190920D01*
X867598Y190914D01*
X867696Y190912D01*
X867839Y190914D01*
X867982Y190920D01*
X868124Y190929D01*
X868266Y190943D01*
X868408Y190961D01*
X868549Y190982D01*
X868690Y191007D01*
X868830Y191036D01*
X868969Y191069D01*
X869107Y191105D01*
X869244Y191146D01*
X869380Y191190D01*
X869514Y191237D01*
X869648Y191289D01*
X869779Y191343D01*
X869910Y191402D01*
X870038Y191464D01*
X870165Y191529D01*
X870290Y191598D01*
X870414Y191671D01*
X870535Y191746D01*
X870654Y191825D01*
X870771Y191907D01*
X870885Y191993D01*
X870997Y192081D01*
X871107Y192172D01*
X871214Y192267D01*
X871319Y192364D01*
X871421Y192464D01*
X871111Y199604D02*
X871109Y199702D01*
X871103Y199799D01*
X871094Y199896D01*
X871080Y199993D01*
X871063Y200089D01*
X871042Y200184D01*
X871018Y200278D01*
X870989Y200372D01*
X870957Y200464D01*
X870922Y200555D01*
X870883Y200644D01*
X870840Y200732D01*
X870794Y200818D01*
X870745Y200902D01*
X870692Y200984D01*
X870637Y201064D01*
X870578Y201142D01*
X870516Y201217D01*
X870451Y201290D01*
X870383Y201360D01*
X870313Y201428D01*
X870240Y201493D01*
X870165Y201555D01*
X870087Y201614D01*
X870007Y201669D01*
X869925Y201722D01*
X869841Y201771D01*
X869755Y201817D01*
X869667Y201860D01*
X869578Y201899D01*
X869487Y201934D01*
X869395Y201966D01*
X869301Y201995D01*
X869207Y202019D01*
X869112Y202040D01*
X869016Y202057D01*
X868919Y202071D01*
X868822Y202080D01*
X868725Y202086D01*
X868627Y202088D01*
X868497Y202086D01*
X868367Y202081D01*
X868237Y202072D01*
X868107Y202059D01*
X867978Y202043D01*
X867849Y202023D01*
X867721Y201999D01*
X867593Y201972D01*
X867467Y201941D01*
X867341Y201907D01*
X867216Y201869D01*
X867093Y201828D01*
X866970Y201783D01*
X866849Y201735D01*
X866729Y201684D01*
X866611Y201629D01*
X866495Y201571D01*
X866380Y201510D01*
X866266Y201445D01*
X866155Y201378D01*
X866046Y201307D01*
X865938Y201233D01*
X865833Y201157D01*
X869868Y197431D02*
X869951Y197482D01*
X870032Y197536D01*
X870110Y197593D01*
X870186Y197653D01*
X870260Y197716D01*
X870331Y197782D01*
X870400Y197850D01*
X870466Y197921D01*
X870530Y197994D01*
X870590Y198070D01*
X870647Y198148D01*
X870702Y198229D01*
X870753Y198311D01*
X870801Y198395D01*
X870846Y198481D01*
X870888Y198569D01*
X870926Y198658D01*
X870960Y198748D01*
X870992Y198840D01*
X871019Y198933D01*
X871043Y199027D01*
X871064Y199122D01*
X871080Y199218D01*
X871093Y199314D01*
X871103Y199410D01*
X871108Y199507D01*
X871110Y199604D01*
X866454Y195569D02*
X866371Y195518D01*
X866290Y195464D01*
X866212Y195407D01*
X866136Y195347D01*
X866062Y195284D01*
X865991Y195218D01*
X865922Y195150D01*
X865856Y195079D01*
X865792Y195006D01*
X865732Y194930D01*
X865675Y194852D01*
X865620Y194771D01*
X865569Y194689D01*
X865521Y194605D01*
X865476Y194519D01*
X865434Y194431D01*
X865396Y194342D01*
X865362Y194252D01*
X865330Y194160D01*
X865303Y194067D01*
X865279Y193973D01*
X865258Y193878D01*
X865242Y193782D01*
X865229Y193686D01*
X865219Y193590D01*
X865214Y193493D01*
X865212Y193396D01*
X866454Y195569D02*
X869869Y197431D01*
X746015Y317912D02*
X746015Y329088D01*
X742911Y329088D02*
X749120Y329088D01*
X738071Y329088D02*
X738071Y317912D01*
X731862Y317912D02*
X738071Y329088D01*
X731862Y329088D02*
X731862Y317912D01*
X870292Y320396D02*
X870294Y320298D01*
X870300Y320201D01*
X870309Y320104D01*
X870323Y320007D01*
X870340Y319911D01*
X870361Y319816D01*
X870385Y319722D01*
X870414Y319628D01*
X870446Y319536D01*
X870481Y319445D01*
X870520Y319356D01*
X870563Y319268D01*
X870609Y319182D01*
X870658Y319098D01*
X870711Y319016D01*
X870766Y318936D01*
X870825Y318858D01*
X870887Y318783D01*
X870952Y318710D01*
X871020Y318640D01*
X871090Y318572D01*
X871163Y318507D01*
X871238Y318445D01*
X871316Y318386D01*
X871396Y318331D01*
X871478Y318278D01*
X871562Y318229D01*
X871648Y318183D01*
X871736Y318140D01*
X871825Y318101D01*
X871916Y318066D01*
X872008Y318034D01*
X872102Y318005D01*
X872196Y317981D01*
X872291Y317960D01*
X872387Y317943D01*
X872484Y317929D01*
X872581Y317920D01*
X872678Y317914D01*
X872776Y317912D01*
X872919Y317914D01*
X873062Y317920D01*
X873204Y317929D01*
X873346Y317943D01*
X873488Y317961D01*
X873629Y317982D01*
X873770Y318007D01*
X873910Y318036D01*
X874049Y318069D01*
X874187Y318105D01*
X874324Y318146D01*
X874460Y318190D01*
X874594Y318237D01*
X874728Y318289D01*
X874859Y318343D01*
X874990Y318402D01*
X875118Y318464D01*
X875245Y318529D01*
X875370Y318598D01*
X875494Y318671D01*
X875615Y318746D01*
X875734Y318825D01*
X875851Y318907D01*
X875965Y318993D01*
X876077Y319081D01*
X876187Y319172D01*
X876294Y319267D01*
X876399Y319364D01*
X876501Y319464D01*
X876191Y326604D02*
X876189Y326702D01*
X876183Y326799D01*
X876174Y326896D01*
X876160Y326993D01*
X876143Y327089D01*
X876122Y327184D01*
X876098Y327278D01*
X876069Y327372D01*
X876037Y327464D01*
X876002Y327555D01*
X875963Y327644D01*
X875920Y327732D01*
X875874Y327818D01*
X875825Y327902D01*
X875772Y327984D01*
X875717Y328064D01*
X875658Y328142D01*
X875596Y328217D01*
X875531Y328290D01*
X875463Y328360D01*
X875393Y328428D01*
X875320Y328493D01*
X875245Y328555D01*
X875167Y328614D01*
X875087Y328669D01*
X875005Y328722D01*
X874921Y328771D01*
X874835Y328817D01*
X874747Y328860D01*
X874658Y328899D01*
X874567Y328934D01*
X874475Y328966D01*
X874381Y328995D01*
X874287Y329019D01*
X874192Y329040D01*
X874096Y329057D01*
X873999Y329071D01*
X873902Y329080D01*
X873805Y329086D01*
X873707Y329088D01*
X873577Y329086D01*
X873447Y329081D01*
X873317Y329072D01*
X873187Y329059D01*
X873058Y329043D01*
X872929Y329023D01*
X872801Y328999D01*
X872673Y328972D01*
X872547Y328941D01*
X872421Y328907D01*
X872296Y328869D01*
X872173Y328828D01*
X872050Y328783D01*
X871929Y328735D01*
X871809Y328684D01*
X871691Y328629D01*
X871575Y328571D01*
X871460Y328510D01*
X871346Y328445D01*
X871235Y328378D01*
X871126Y328307D01*
X871018Y328233D01*
X870913Y328157D01*
X874948Y324431D02*
X875031Y324482D01*
X875112Y324536D01*
X875190Y324593D01*
X875266Y324653D01*
X875340Y324716D01*
X875411Y324782D01*
X875480Y324850D01*
X875546Y324921D01*
X875610Y324994D01*
X875670Y325070D01*
X875727Y325148D01*
X875782Y325229D01*
X875833Y325311D01*
X875881Y325395D01*
X875926Y325481D01*
X875968Y325569D01*
X876006Y325658D01*
X876040Y325748D01*
X876072Y325840D01*
X876099Y325933D01*
X876123Y326027D01*
X876144Y326122D01*
X876160Y326218D01*
X876173Y326314D01*
X876183Y326410D01*
X876188Y326507D01*
X876190Y326604D01*
X871534Y322569D02*
X871451Y322518D01*
X871370Y322464D01*
X871292Y322407D01*
X871216Y322347D01*
X871142Y322284D01*
X871071Y322218D01*
X871002Y322150D01*
X870936Y322079D01*
X870872Y322006D01*
X870812Y321930D01*
X870755Y321852D01*
X870700Y321771D01*
X870649Y321689D01*
X870601Y321605D01*
X870556Y321519D01*
X870514Y321431D01*
X870476Y321342D01*
X870442Y321252D01*
X870410Y321160D01*
X870383Y321067D01*
X870359Y320973D01*
X870338Y320878D01*
X870322Y320782D01*
X870309Y320686D01*
X870299Y320590D01*
X870294Y320493D01*
X870292Y320396D01*
X871534Y322569D02*
X874949Y324431D01*
X865071Y329088D02*
X865071Y317912D01*
X858862Y317912D02*
X865071Y329088D01*
X858862Y329088D02*
X858862Y317912D01*
D10*
X245986Y990913D02*
X36486Y990913D01*
X245986Y990913D02*
X245986Y942413D01*
X245986Y857413D01*
X245986Y808913D01*
X36486Y808913D01*
X36486Y842913D01*
X36486Y956913D01*
X36486Y990913D01*
X36486Y956913D02*
X-52014Y956913D01*
X-52014Y842913D01*
X36486Y842913D01*
X245986Y857413D02*
X275986Y857413D01*
X275986Y942413D01*
X245986Y942413D01*
D11*
X-5814Y954913D02*
X-5814Y844913D01*
D12*
X209470Y957825D02*
X209470Y969001D01*
X212574Y969001D02*
X206365Y969001D01*
X81849Y957825D02*
X81751Y957827D01*
X81654Y957833D01*
X81557Y957842D01*
X81460Y957856D01*
X81364Y957873D01*
X81269Y957894D01*
X81175Y957918D01*
X81081Y957947D01*
X80989Y957979D01*
X80898Y958014D01*
X80809Y958053D01*
X80721Y958096D01*
X80635Y958142D01*
X80551Y958191D01*
X80469Y958244D01*
X80389Y958299D01*
X80311Y958358D01*
X80236Y958420D01*
X80163Y958485D01*
X80093Y958553D01*
X80025Y958623D01*
X79960Y958696D01*
X79898Y958771D01*
X79839Y958849D01*
X79784Y958929D01*
X79731Y959011D01*
X79682Y959095D01*
X79636Y959181D01*
X79593Y959269D01*
X79554Y959358D01*
X79519Y959449D01*
X79487Y959541D01*
X79458Y959635D01*
X79434Y959729D01*
X79413Y959824D01*
X79396Y959920D01*
X79382Y960017D01*
X79373Y960114D01*
X79367Y960211D01*
X79365Y960309D01*
X81849Y957825D02*
X81992Y957827D01*
X82135Y957833D01*
X82277Y957842D01*
X82419Y957856D01*
X82561Y957874D01*
X82702Y957895D01*
X82843Y957920D01*
X82983Y957949D01*
X83122Y957982D01*
X83260Y958018D01*
X83397Y958059D01*
X83533Y958103D01*
X83667Y958150D01*
X83801Y958202D01*
X83932Y958256D01*
X84063Y958315D01*
X84191Y958377D01*
X84318Y958442D01*
X84443Y958511D01*
X84567Y958584D01*
X84688Y958659D01*
X84807Y958738D01*
X84924Y958820D01*
X85038Y958906D01*
X85150Y958994D01*
X85260Y959085D01*
X85367Y959180D01*
X85472Y959277D01*
X85574Y959377D01*
X85264Y966517D02*
X85262Y966615D01*
X85256Y966712D01*
X85247Y966809D01*
X85233Y966906D01*
X85216Y967002D01*
X85195Y967097D01*
X85171Y967191D01*
X85142Y967285D01*
X85110Y967377D01*
X85075Y967468D01*
X85036Y967557D01*
X84993Y967645D01*
X84947Y967731D01*
X84898Y967815D01*
X84845Y967897D01*
X84790Y967977D01*
X84731Y968055D01*
X84669Y968130D01*
X84604Y968203D01*
X84536Y968273D01*
X84466Y968341D01*
X84393Y968406D01*
X84318Y968468D01*
X84240Y968527D01*
X84160Y968582D01*
X84078Y968635D01*
X83994Y968684D01*
X83908Y968730D01*
X83820Y968773D01*
X83731Y968812D01*
X83640Y968847D01*
X83548Y968879D01*
X83454Y968908D01*
X83360Y968932D01*
X83265Y968953D01*
X83169Y968970D01*
X83072Y968984D01*
X82975Y968993D01*
X82878Y968999D01*
X82780Y969001D01*
X82650Y968999D01*
X82520Y968994D01*
X82390Y968985D01*
X82260Y968972D01*
X82131Y968956D01*
X82002Y968936D01*
X81874Y968912D01*
X81746Y968885D01*
X81620Y968854D01*
X81494Y968820D01*
X81369Y968782D01*
X81246Y968741D01*
X81123Y968696D01*
X81002Y968648D01*
X80882Y968597D01*
X80764Y968542D01*
X80648Y968484D01*
X80533Y968423D01*
X80419Y968358D01*
X80308Y968291D01*
X80199Y968220D01*
X80091Y968146D01*
X79986Y968070D01*
X84021Y964344D02*
X84104Y964395D01*
X84185Y964449D01*
X84263Y964506D01*
X84339Y964566D01*
X84413Y964629D01*
X84484Y964695D01*
X84553Y964763D01*
X84619Y964834D01*
X84683Y964907D01*
X84743Y964983D01*
X84800Y965061D01*
X84855Y965142D01*
X84906Y965224D01*
X84954Y965308D01*
X84999Y965394D01*
X85041Y965482D01*
X85079Y965571D01*
X85113Y965661D01*
X85145Y965753D01*
X85172Y965846D01*
X85196Y965940D01*
X85217Y966035D01*
X85233Y966131D01*
X85246Y966227D01*
X85256Y966323D01*
X85261Y966420D01*
X85263Y966517D01*
X80608Y962482D02*
X80525Y962431D01*
X80444Y962377D01*
X80366Y962320D01*
X80290Y962260D01*
X80216Y962197D01*
X80145Y962131D01*
X80076Y962063D01*
X80010Y961992D01*
X79946Y961919D01*
X79886Y961843D01*
X79829Y961765D01*
X79774Y961684D01*
X79723Y961602D01*
X79675Y961518D01*
X79630Y961432D01*
X79588Y961344D01*
X79550Y961255D01*
X79516Y961165D01*
X79484Y961073D01*
X79457Y960980D01*
X79433Y960886D01*
X79412Y960791D01*
X79396Y960695D01*
X79383Y960599D01*
X79373Y960503D01*
X79368Y960406D01*
X79366Y960309D01*
X80607Y962482D02*
X84022Y964344D01*
X215820Y842001D02*
X215820Y830825D01*
X218924Y842001D02*
X212715Y842001D01*
X207875Y842001D02*
X207875Y830825D01*
X201666Y830825D02*
X207875Y842001D01*
X201666Y842001D02*
X201666Y830825D01*
X88199Y830825D02*
X88101Y830827D01*
X88004Y830833D01*
X87907Y830842D01*
X87810Y830856D01*
X87714Y830873D01*
X87619Y830894D01*
X87525Y830918D01*
X87431Y830947D01*
X87339Y830979D01*
X87248Y831014D01*
X87159Y831053D01*
X87071Y831096D01*
X86985Y831142D01*
X86901Y831191D01*
X86819Y831244D01*
X86739Y831299D01*
X86661Y831358D01*
X86586Y831420D01*
X86513Y831485D01*
X86443Y831553D01*
X86375Y831623D01*
X86310Y831696D01*
X86248Y831771D01*
X86189Y831849D01*
X86134Y831929D01*
X86081Y832011D01*
X86032Y832095D01*
X85986Y832181D01*
X85943Y832269D01*
X85904Y832358D01*
X85869Y832449D01*
X85837Y832541D01*
X85808Y832635D01*
X85784Y832729D01*
X85763Y832824D01*
X85746Y832920D01*
X85732Y833017D01*
X85723Y833114D01*
X85717Y833211D01*
X85715Y833309D01*
X88199Y830825D02*
X88342Y830827D01*
X88485Y830833D01*
X88627Y830842D01*
X88769Y830856D01*
X88911Y830874D01*
X89052Y830895D01*
X89193Y830920D01*
X89333Y830949D01*
X89472Y830982D01*
X89610Y831018D01*
X89747Y831059D01*
X89883Y831103D01*
X90017Y831150D01*
X90151Y831202D01*
X90282Y831256D01*
X90413Y831315D01*
X90541Y831377D01*
X90668Y831442D01*
X90793Y831511D01*
X90917Y831584D01*
X91038Y831659D01*
X91157Y831738D01*
X91274Y831820D01*
X91388Y831906D01*
X91500Y831994D01*
X91610Y832085D01*
X91717Y832180D01*
X91822Y832277D01*
X91924Y832377D01*
X91614Y839517D02*
X91612Y839615D01*
X91606Y839712D01*
X91597Y839809D01*
X91583Y839906D01*
X91566Y840002D01*
X91545Y840097D01*
X91521Y840191D01*
X91492Y840285D01*
X91460Y840377D01*
X91425Y840468D01*
X91386Y840557D01*
X91343Y840645D01*
X91297Y840731D01*
X91248Y840815D01*
X91195Y840897D01*
X91140Y840977D01*
X91081Y841055D01*
X91019Y841130D01*
X90954Y841203D01*
X90886Y841273D01*
X90816Y841341D01*
X90743Y841406D01*
X90668Y841468D01*
X90590Y841527D01*
X90510Y841582D01*
X90428Y841635D01*
X90344Y841684D01*
X90258Y841730D01*
X90170Y841773D01*
X90081Y841812D01*
X89990Y841847D01*
X89898Y841879D01*
X89804Y841908D01*
X89710Y841932D01*
X89615Y841953D01*
X89519Y841970D01*
X89422Y841984D01*
X89325Y841993D01*
X89228Y841999D01*
X89130Y842001D01*
X89000Y841999D01*
X88870Y841994D01*
X88740Y841985D01*
X88610Y841972D01*
X88481Y841956D01*
X88352Y841936D01*
X88224Y841912D01*
X88096Y841885D01*
X87970Y841854D01*
X87844Y841820D01*
X87719Y841782D01*
X87596Y841741D01*
X87473Y841696D01*
X87352Y841648D01*
X87232Y841597D01*
X87114Y841542D01*
X86998Y841484D01*
X86883Y841423D01*
X86769Y841358D01*
X86658Y841291D01*
X86549Y841220D01*
X86441Y841146D01*
X86336Y841070D01*
X90371Y837344D02*
X90454Y837395D01*
X90535Y837449D01*
X90613Y837506D01*
X90689Y837566D01*
X90763Y837629D01*
X90834Y837695D01*
X90903Y837763D01*
X90969Y837834D01*
X91033Y837907D01*
X91093Y837983D01*
X91150Y838061D01*
X91205Y838142D01*
X91256Y838224D01*
X91304Y838308D01*
X91349Y838394D01*
X91391Y838482D01*
X91429Y838571D01*
X91463Y838661D01*
X91495Y838753D01*
X91522Y838846D01*
X91546Y838940D01*
X91567Y839035D01*
X91583Y839131D01*
X91596Y839227D01*
X91606Y839323D01*
X91611Y839420D01*
X91613Y839517D01*
X86958Y835482D02*
X86875Y835431D01*
X86794Y835377D01*
X86716Y835320D01*
X86640Y835260D01*
X86566Y835197D01*
X86495Y835131D01*
X86426Y835063D01*
X86360Y834992D01*
X86296Y834919D01*
X86236Y834843D01*
X86179Y834765D01*
X86124Y834684D01*
X86073Y834602D01*
X86025Y834518D01*
X85980Y834432D01*
X85938Y834344D01*
X85900Y834255D01*
X85866Y834165D01*
X85834Y834073D01*
X85807Y833980D01*
X85783Y833886D01*
X85762Y833791D01*
X85746Y833695D01*
X85733Y833599D01*
X85723Y833503D01*
X85718Y833406D01*
X85716Y833309D01*
X86957Y835482D02*
X90372Y837344D01*
X80494Y842001D02*
X80494Y830825D01*
X74285Y830825D02*
X80494Y842001D01*
X74285Y842001D02*
X74285Y830825D01*
D10*
X705486Y808913D02*
X914986Y808913D01*
X705486Y808913D02*
X705486Y857413D01*
X705486Y942413D01*
X705486Y990913D01*
X914986Y990913D01*
X914986Y956913D01*
X914986Y842913D01*
X914986Y808913D01*
X914986Y842913D02*
X1003486Y842913D01*
X1003486Y956913D01*
X914986Y956913D01*
X705486Y942413D02*
X675486Y942413D01*
X675486Y857413D01*
X705486Y857413D01*
D11*
X957286Y844913D02*
X957286Y954913D01*
D12*
X742003Y842001D02*
X742003Y830825D01*
X745107Y842001D02*
X738898Y842001D01*
X865898Y833309D02*
X865900Y833211D01*
X865906Y833114D01*
X865915Y833017D01*
X865929Y832920D01*
X865946Y832824D01*
X865967Y832729D01*
X865991Y832635D01*
X866020Y832541D01*
X866052Y832449D01*
X866087Y832358D01*
X866126Y832269D01*
X866169Y832181D01*
X866215Y832095D01*
X866264Y832011D01*
X866317Y831929D01*
X866372Y831849D01*
X866431Y831771D01*
X866493Y831696D01*
X866558Y831623D01*
X866626Y831553D01*
X866696Y831485D01*
X866769Y831420D01*
X866844Y831358D01*
X866922Y831299D01*
X867002Y831244D01*
X867084Y831191D01*
X867168Y831142D01*
X867254Y831096D01*
X867342Y831053D01*
X867431Y831014D01*
X867522Y830979D01*
X867614Y830947D01*
X867708Y830918D01*
X867802Y830894D01*
X867897Y830873D01*
X867993Y830856D01*
X868090Y830842D01*
X868187Y830833D01*
X868284Y830827D01*
X868382Y830825D01*
X868525Y830827D01*
X868668Y830833D01*
X868810Y830842D01*
X868952Y830856D01*
X869094Y830874D01*
X869235Y830895D01*
X869376Y830920D01*
X869516Y830949D01*
X869655Y830982D01*
X869793Y831018D01*
X869930Y831059D01*
X870066Y831103D01*
X870200Y831150D01*
X870334Y831202D01*
X870465Y831256D01*
X870596Y831315D01*
X870724Y831377D01*
X870851Y831442D01*
X870976Y831511D01*
X871100Y831584D01*
X871221Y831659D01*
X871340Y831738D01*
X871457Y831820D01*
X871571Y831906D01*
X871683Y831994D01*
X871793Y832085D01*
X871900Y832180D01*
X872005Y832277D01*
X872107Y832377D01*
X871797Y839517D02*
X871795Y839615D01*
X871789Y839712D01*
X871780Y839809D01*
X871766Y839906D01*
X871749Y840002D01*
X871728Y840097D01*
X871704Y840191D01*
X871675Y840285D01*
X871643Y840377D01*
X871608Y840468D01*
X871569Y840557D01*
X871526Y840645D01*
X871480Y840731D01*
X871431Y840815D01*
X871378Y840897D01*
X871323Y840977D01*
X871264Y841055D01*
X871202Y841130D01*
X871137Y841203D01*
X871069Y841273D01*
X870999Y841341D01*
X870926Y841406D01*
X870851Y841468D01*
X870773Y841527D01*
X870693Y841582D01*
X870611Y841635D01*
X870527Y841684D01*
X870441Y841730D01*
X870353Y841773D01*
X870264Y841812D01*
X870173Y841847D01*
X870081Y841879D01*
X869987Y841908D01*
X869893Y841932D01*
X869798Y841953D01*
X869702Y841970D01*
X869605Y841984D01*
X869508Y841993D01*
X869411Y841999D01*
X869313Y842001D01*
X869183Y841999D01*
X869053Y841994D01*
X868923Y841985D01*
X868793Y841972D01*
X868664Y841956D01*
X868535Y841936D01*
X868407Y841912D01*
X868279Y841885D01*
X868153Y841854D01*
X868027Y841820D01*
X867902Y841782D01*
X867779Y841741D01*
X867656Y841696D01*
X867535Y841648D01*
X867415Y841597D01*
X867297Y841542D01*
X867181Y841484D01*
X867066Y841423D01*
X866952Y841358D01*
X866841Y841291D01*
X866732Y841220D01*
X866624Y841146D01*
X866519Y841070D01*
X870554Y837344D02*
X870637Y837395D01*
X870718Y837449D01*
X870796Y837506D01*
X870872Y837566D01*
X870946Y837629D01*
X871017Y837695D01*
X871086Y837763D01*
X871152Y837834D01*
X871216Y837907D01*
X871276Y837983D01*
X871333Y838061D01*
X871388Y838142D01*
X871439Y838224D01*
X871487Y838308D01*
X871532Y838394D01*
X871574Y838482D01*
X871612Y838571D01*
X871646Y838661D01*
X871678Y838753D01*
X871705Y838846D01*
X871729Y838940D01*
X871750Y839035D01*
X871766Y839131D01*
X871779Y839227D01*
X871789Y839323D01*
X871794Y839420D01*
X871796Y839517D01*
X867140Y835482D02*
X867057Y835431D01*
X866976Y835377D01*
X866898Y835320D01*
X866822Y835260D01*
X866748Y835197D01*
X866677Y835131D01*
X866608Y835063D01*
X866542Y834992D01*
X866478Y834919D01*
X866418Y834843D01*
X866361Y834765D01*
X866306Y834684D01*
X866255Y834602D01*
X866207Y834518D01*
X866162Y834432D01*
X866120Y834344D01*
X866082Y834255D01*
X866048Y834165D01*
X866016Y834073D01*
X865989Y833980D01*
X865965Y833886D01*
X865944Y833791D01*
X865928Y833695D01*
X865915Y833599D01*
X865905Y833503D01*
X865900Y833406D01*
X865898Y833309D01*
X867140Y835482D02*
X870555Y837344D01*
X746702Y957825D02*
X746702Y969001D01*
X749806Y969001D02*
X743597Y969001D01*
X738757Y969001D02*
X738757Y957825D01*
X732548Y957825D02*
X738757Y969001D01*
X732548Y969001D02*
X732548Y957825D01*
X870978Y960309D02*
X870980Y960211D01*
X870986Y960114D01*
X870995Y960017D01*
X871009Y959920D01*
X871026Y959824D01*
X871047Y959729D01*
X871071Y959635D01*
X871100Y959541D01*
X871132Y959449D01*
X871167Y959358D01*
X871206Y959269D01*
X871249Y959181D01*
X871295Y959095D01*
X871344Y959011D01*
X871397Y958929D01*
X871452Y958849D01*
X871511Y958771D01*
X871573Y958696D01*
X871638Y958623D01*
X871706Y958553D01*
X871776Y958485D01*
X871849Y958420D01*
X871924Y958358D01*
X872002Y958299D01*
X872082Y958244D01*
X872164Y958191D01*
X872248Y958142D01*
X872334Y958096D01*
X872422Y958053D01*
X872511Y958014D01*
X872602Y957979D01*
X872694Y957947D01*
X872788Y957918D01*
X872882Y957894D01*
X872977Y957873D01*
X873073Y957856D01*
X873170Y957842D01*
X873267Y957833D01*
X873364Y957827D01*
X873462Y957825D01*
X873605Y957827D01*
X873748Y957833D01*
X873890Y957842D01*
X874032Y957856D01*
X874174Y957874D01*
X874315Y957895D01*
X874456Y957920D01*
X874596Y957949D01*
X874735Y957982D01*
X874873Y958018D01*
X875010Y958059D01*
X875146Y958103D01*
X875280Y958150D01*
X875414Y958202D01*
X875545Y958256D01*
X875676Y958315D01*
X875804Y958377D01*
X875931Y958442D01*
X876056Y958511D01*
X876180Y958584D01*
X876301Y958659D01*
X876420Y958738D01*
X876537Y958820D01*
X876651Y958906D01*
X876763Y958994D01*
X876873Y959085D01*
X876980Y959180D01*
X877085Y959277D01*
X877187Y959377D01*
X876877Y966517D02*
X876875Y966615D01*
X876869Y966712D01*
X876860Y966809D01*
X876846Y966906D01*
X876829Y967002D01*
X876808Y967097D01*
X876784Y967191D01*
X876755Y967285D01*
X876723Y967377D01*
X876688Y967468D01*
X876649Y967557D01*
X876606Y967645D01*
X876560Y967731D01*
X876511Y967815D01*
X876458Y967897D01*
X876403Y967977D01*
X876344Y968055D01*
X876282Y968130D01*
X876217Y968203D01*
X876149Y968273D01*
X876079Y968341D01*
X876006Y968406D01*
X875931Y968468D01*
X875853Y968527D01*
X875773Y968582D01*
X875691Y968635D01*
X875607Y968684D01*
X875521Y968730D01*
X875433Y968773D01*
X875344Y968812D01*
X875253Y968847D01*
X875161Y968879D01*
X875067Y968908D01*
X874973Y968932D01*
X874878Y968953D01*
X874782Y968970D01*
X874685Y968984D01*
X874588Y968993D01*
X874491Y968999D01*
X874393Y969001D01*
X874263Y968999D01*
X874133Y968994D01*
X874003Y968985D01*
X873873Y968972D01*
X873744Y968956D01*
X873615Y968936D01*
X873487Y968912D01*
X873359Y968885D01*
X873233Y968854D01*
X873107Y968820D01*
X872982Y968782D01*
X872859Y968741D01*
X872736Y968696D01*
X872615Y968648D01*
X872495Y968597D01*
X872377Y968542D01*
X872261Y968484D01*
X872146Y968423D01*
X872032Y968358D01*
X871921Y968291D01*
X871812Y968220D01*
X871704Y968146D01*
X871599Y968070D01*
X875634Y964344D02*
X875717Y964395D01*
X875798Y964449D01*
X875876Y964506D01*
X875952Y964566D01*
X876026Y964629D01*
X876097Y964695D01*
X876166Y964763D01*
X876232Y964834D01*
X876296Y964907D01*
X876356Y964983D01*
X876413Y965061D01*
X876468Y965142D01*
X876519Y965224D01*
X876567Y965308D01*
X876612Y965394D01*
X876654Y965482D01*
X876692Y965571D01*
X876726Y965661D01*
X876758Y965753D01*
X876785Y965846D01*
X876809Y965940D01*
X876830Y966035D01*
X876846Y966131D01*
X876859Y966227D01*
X876869Y966323D01*
X876874Y966420D01*
X876876Y966517D01*
X872220Y962482D02*
X872137Y962431D01*
X872056Y962377D01*
X871978Y962320D01*
X871902Y962260D01*
X871828Y962197D01*
X871757Y962131D01*
X871688Y962063D01*
X871622Y961992D01*
X871558Y961919D01*
X871498Y961843D01*
X871441Y961765D01*
X871386Y961684D01*
X871335Y961602D01*
X871287Y961518D01*
X871242Y961432D01*
X871200Y961344D01*
X871162Y961255D01*
X871128Y961165D01*
X871096Y961073D01*
X871069Y960980D01*
X871045Y960886D01*
X871024Y960791D01*
X871008Y960695D01*
X870995Y960599D01*
X870985Y960503D01*
X870980Y960406D01*
X870978Y960309D01*
X872220Y962482D02*
X875635Y964344D01*
X865757Y969001D02*
X865757Y957825D01*
X859548Y957825D02*
X865757Y969001D01*
X859548Y969001D02*
X859548Y957825D01*
D10*
X245638Y776519D02*
X36138Y776519D01*
X245638Y776519D02*
X245638Y728019D01*
X245638Y643019D01*
X245638Y594519D01*
X36138Y594519D01*
X36138Y628519D01*
X36138Y742519D01*
X36138Y776519D01*
X36138Y742519D02*
X-52362Y742519D01*
X-52362Y628519D01*
X36138Y628519D01*
X245638Y643019D02*
X275638Y643019D01*
X275638Y728019D01*
X245638Y728019D01*
D11*
X-6162Y740519D02*
X-6162Y630519D01*
D12*
X209122Y743431D02*
X209122Y754607D01*
X212226Y754607D02*
X206018Y754607D01*
X81501Y743431D02*
X81403Y743433D01*
X81306Y743439D01*
X81209Y743448D01*
X81112Y743462D01*
X81016Y743479D01*
X80921Y743500D01*
X80827Y743524D01*
X80733Y743553D01*
X80641Y743585D01*
X80550Y743620D01*
X80461Y743659D01*
X80373Y743702D01*
X80287Y743748D01*
X80203Y743797D01*
X80121Y743850D01*
X80041Y743905D01*
X79963Y743964D01*
X79888Y744026D01*
X79815Y744091D01*
X79745Y744159D01*
X79677Y744229D01*
X79612Y744302D01*
X79550Y744377D01*
X79491Y744455D01*
X79436Y744535D01*
X79383Y744617D01*
X79334Y744701D01*
X79288Y744787D01*
X79245Y744875D01*
X79206Y744964D01*
X79171Y745055D01*
X79139Y745147D01*
X79110Y745241D01*
X79086Y745335D01*
X79065Y745430D01*
X79048Y745526D01*
X79034Y745623D01*
X79025Y745720D01*
X79019Y745817D01*
X79017Y745915D01*
X81501Y743432D02*
X81644Y743434D01*
X81787Y743440D01*
X81929Y743449D01*
X82071Y743463D01*
X82213Y743481D01*
X82354Y743502D01*
X82495Y743527D01*
X82635Y743556D01*
X82774Y743589D01*
X82912Y743625D01*
X83049Y743666D01*
X83185Y743710D01*
X83319Y743757D01*
X83453Y743809D01*
X83584Y743863D01*
X83715Y743922D01*
X83843Y743984D01*
X83970Y744049D01*
X84095Y744118D01*
X84219Y744191D01*
X84340Y744266D01*
X84459Y744345D01*
X84576Y744427D01*
X84690Y744513D01*
X84802Y744601D01*
X84912Y744692D01*
X85019Y744787D01*
X85124Y744884D01*
X85226Y744984D01*
X84916Y752124D02*
X84914Y752222D01*
X84908Y752319D01*
X84899Y752416D01*
X84885Y752513D01*
X84868Y752609D01*
X84847Y752704D01*
X84823Y752798D01*
X84794Y752892D01*
X84762Y752984D01*
X84727Y753075D01*
X84688Y753164D01*
X84645Y753252D01*
X84599Y753338D01*
X84550Y753422D01*
X84497Y753504D01*
X84442Y753584D01*
X84383Y753662D01*
X84321Y753737D01*
X84256Y753810D01*
X84188Y753880D01*
X84118Y753948D01*
X84045Y754013D01*
X83970Y754075D01*
X83892Y754134D01*
X83812Y754189D01*
X83730Y754242D01*
X83646Y754291D01*
X83560Y754337D01*
X83472Y754380D01*
X83383Y754419D01*
X83292Y754454D01*
X83200Y754486D01*
X83106Y754515D01*
X83012Y754539D01*
X82917Y754560D01*
X82821Y754577D01*
X82724Y754591D01*
X82627Y754600D01*
X82530Y754606D01*
X82432Y754608D01*
X82302Y754606D01*
X82172Y754601D01*
X82042Y754592D01*
X81912Y754579D01*
X81783Y754563D01*
X81654Y754543D01*
X81526Y754519D01*
X81398Y754492D01*
X81272Y754461D01*
X81146Y754427D01*
X81021Y754389D01*
X80898Y754348D01*
X80775Y754303D01*
X80654Y754255D01*
X80534Y754204D01*
X80416Y754149D01*
X80300Y754091D01*
X80185Y754030D01*
X80071Y753965D01*
X79960Y753898D01*
X79851Y753827D01*
X79743Y753753D01*
X79638Y753677D01*
X83674Y749951D02*
X83757Y750002D01*
X83838Y750056D01*
X83916Y750113D01*
X83992Y750173D01*
X84066Y750236D01*
X84137Y750302D01*
X84206Y750370D01*
X84272Y750441D01*
X84336Y750514D01*
X84396Y750590D01*
X84453Y750668D01*
X84508Y750749D01*
X84559Y750831D01*
X84607Y750915D01*
X84652Y751001D01*
X84694Y751089D01*
X84732Y751178D01*
X84766Y751268D01*
X84798Y751360D01*
X84825Y751453D01*
X84849Y751547D01*
X84870Y751642D01*
X84886Y751738D01*
X84899Y751834D01*
X84909Y751930D01*
X84914Y752027D01*
X84916Y752124D01*
X80260Y748088D02*
X80177Y748037D01*
X80096Y747983D01*
X80018Y747926D01*
X79942Y747866D01*
X79868Y747803D01*
X79797Y747737D01*
X79728Y747669D01*
X79662Y747598D01*
X79598Y747525D01*
X79538Y747449D01*
X79481Y747371D01*
X79426Y747290D01*
X79375Y747208D01*
X79327Y747124D01*
X79282Y747038D01*
X79240Y746950D01*
X79202Y746861D01*
X79168Y746771D01*
X79136Y746679D01*
X79109Y746586D01*
X79085Y746492D01*
X79064Y746397D01*
X79048Y746301D01*
X79035Y746205D01*
X79025Y746109D01*
X79020Y746012D01*
X79018Y745915D01*
X80259Y748088D02*
X83674Y749951D01*
X215472Y627607D02*
X215472Y616431D01*
X218576Y627607D02*
X212368Y627607D01*
X207527Y627607D02*
X207527Y616431D01*
X201319Y616431D02*
X207527Y627607D01*
X201319Y627607D02*
X201319Y616431D01*
X87851Y616431D02*
X87753Y616433D01*
X87656Y616439D01*
X87559Y616448D01*
X87462Y616462D01*
X87366Y616479D01*
X87271Y616500D01*
X87177Y616524D01*
X87083Y616553D01*
X86991Y616585D01*
X86900Y616620D01*
X86811Y616659D01*
X86723Y616702D01*
X86637Y616748D01*
X86553Y616797D01*
X86471Y616850D01*
X86391Y616905D01*
X86313Y616964D01*
X86238Y617026D01*
X86165Y617091D01*
X86095Y617159D01*
X86027Y617229D01*
X85962Y617302D01*
X85900Y617377D01*
X85841Y617455D01*
X85786Y617535D01*
X85733Y617617D01*
X85684Y617701D01*
X85638Y617787D01*
X85595Y617875D01*
X85556Y617964D01*
X85521Y618055D01*
X85489Y618147D01*
X85460Y618241D01*
X85436Y618335D01*
X85415Y618430D01*
X85398Y618526D01*
X85384Y618623D01*
X85375Y618720D01*
X85369Y618817D01*
X85367Y618915D01*
X87851Y616432D02*
X87994Y616434D01*
X88137Y616440D01*
X88279Y616449D01*
X88421Y616463D01*
X88563Y616481D01*
X88704Y616502D01*
X88845Y616527D01*
X88985Y616556D01*
X89124Y616589D01*
X89262Y616625D01*
X89399Y616666D01*
X89535Y616710D01*
X89669Y616757D01*
X89803Y616809D01*
X89934Y616863D01*
X90065Y616922D01*
X90193Y616984D01*
X90320Y617049D01*
X90445Y617118D01*
X90569Y617191D01*
X90690Y617266D01*
X90809Y617345D01*
X90926Y617427D01*
X91040Y617513D01*
X91152Y617601D01*
X91262Y617692D01*
X91369Y617787D01*
X91474Y617884D01*
X91576Y617984D01*
X91266Y625124D02*
X91264Y625222D01*
X91258Y625319D01*
X91249Y625416D01*
X91235Y625513D01*
X91218Y625609D01*
X91197Y625704D01*
X91173Y625798D01*
X91144Y625892D01*
X91112Y625984D01*
X91077Y626075D01*
X91038Y626164D01*
X90995Y626252D01*
X90949Y626338D01*
X90900Y626422D01*
X90847Y626504D01*
X90792Y626584D01*
X90733Y626662D01*
X90671Y626737D01*
X90606Y626810D01*
X90538Y626880D01*
X90468Y626948D01*
X90395Y627013D01*
X90320Y627075D01*
X90242Y627134D01*
X90162Y627189D01*
X90080Y627242D01*
X89996Y627291D01*
X89910Y627337D01*
X89822Y627380D01*
X89733Y627419D01*
X89642Y627454D01*
X89550Y627486D01*
X89456Y627515D01*
X89362Y627539D01*
X89267Y627560D01*
X89171Y627577D01*
X89074Y627591D01*
X88977Y627600D01*
X88880Y627606D01*
X88782Y627608D01*
X88652Y627606D01*
X88522Y627601D01*
X88392Y627592D01*
X88262Y627579D01*
X88133Y627563D01*
X88004Y627543D01*
X87876Y627519D01*
X87748Y627492D01*
X87622Y627461D01*
X87496Y627427D01*
X87371Y627389D01*
X87248Y627348D01*
X87125Y627303D01*
X87004Y627255D01*
X86884Y627204D01*
X86766Y627149D01*
X86650Y627091D01*
X86535Y627030D01*
X86421Y626965D01*
X86310Y626898D01*
X86201Y626827D01*
X86093Y626753D01*
X85988Y626677D01*
X90024Y622951D02*
X90107Y623002D01*
X90188Y623056D01*
X90266Y623113D01*
X90342Y623173D01*
X90416Y623236D01*
X90487Y623302D01*
X90556Y623370D01*
X90622Y623441D01*
X90686Y623514D01*
X90746Y623590D01*
X90803Y623668D01*
X90858Y623749D01*
X90909Y623831D01*
X90957Y623915D01*
X91002Y624001D01*
X91044Y624089D01*
X91082Y624178D01*
X91116Y624268D01*
X91148Y624360D01*
X91175Y624453D01*
X91199Y624547D01*
X91220Y624642D01*
X91236Y624738D01*
X91249Y624834D01*
X91259Y624930D01*
X91264Y625027D01*
X91266Y625124D01*
X86610Y621088D02*
X86527Y621037D01*
X86446Y620983D01*
X86368Y620926D01*
X86292Y620866D01*
X86218Y620803D01*
X86147Y620737D01*
X86078Y620669D01*
X86012Y620598D01*
X85948Y620525D01*
X85888Y620449D01*
X85831Y620371D01*
X85776Y620290D01*
X85725Y620208D01*
X85677Y620124D01*
X85632Y620038D01*
X85590Y619950D01*
X85552Y619861D01*
X85518Y619771D01*
X85486Y619679D01*
X85459Y619586D01*
X85435Y619492D01*
X85414Y619397D01*
X85398Y619301D01*
X85385Y619205D01*
X85375Y619109D01*
X85370Y619012D01*
X85368Y618915D01*
X86609Y621088D02*
X90024Y622951D01*
X80146Y627607D02*
X80146Y616431D01*
X73938Y616431D02*
X80146Y627607D01*
X73938Y627607D02*
X73938Y616431D01*
D10*
X705138Y594519D02*
X914638Y594519D01*
X705138Y594519D02*
X705138Y643019D01*
X705138Y728019D01*
X705138Y776519D01*
X914638Y776519D01*
X914638Y742519D01*
X914638Y628519D01*
X914638Y594519D01*
X914638Y628519D02*
X1003138Y628519D01*
X1003138Y742519D01*
X914638Y742519D01*
X705138Y728019D02*
X675138Y728019D01*
X675138Y643019D01*
X705138Y643019D01*
D11*
X956938Y630519D02*
X956938Y740519D01*
D12*
X741655Y627607D02*
X741655Y616431D01*
X744759Y627607D02*
X738550Y627607D01*
X865550Y618915D02*
X865552Y618817D01*
X865558Y618720D01*
X865567Y618623D01*
X865581Y618526D01*
X865598Y618430D01*
X865619Y618335D01*
X865643Y618241D01*
X865672Y618147D01*
X865704Y618055D01*
X865739Y617964D01*
X865778Y617875D01*
X865821Y617787D01*
X865867Y617701D01*
X865916Y617617D01*
X865969Y617535D01*
X866024Y617455D01*
X866083Y617377D01*
X866145Y617302D01*
X866210Y617229D01*
X866278Y617159D01*
X866348Y617091D01*
X866421Y617026D01*
X866496Y616964D01*
X866574Y616905D01*
X866654Y616850D01*
X866736Y616797D01*
X866820Y616748D01*
X866906Y616702D01*
X866994Y616659D01*
X867083Y616620D01*
X867174Y616585D01*
X867266Y616553D01*
X867360Y616524D01*
X867454Y616500D01*
X867549Y616479D01*
X867645Y616462D01*
X867742Y616448D01*
X867839Y616439D01*
X867936Y616433D01*
X868034Y616431D01*
X868034Y616432D02*
X868177Y616434D01*
X868320Y616440D01*
X868462Y616449D01*
X868604Y616463D01*
X868746Y616481D01*
X868887Y616502D01*
X869028Y616527D01*
X869168Y616556D01*
X869307Y616589D01*
X869445Y616625D01*
X869582Y616666D01*
X869718Y616710D01*
X869852Y616757D01*
X869986Y616809D01*
X870117Y616863D01*
X870248Y616922D01*
X870376Y616984D01*
X870503Y617049D01*
X870628Y617118D01*
X870752Y617191D01*
X870873Y617266D01*
X870992Y617345D01*
X871109Y617427D01*
X871223Y617513D01*
X871335Y617601D01*
X871445Y617692D01*
X871552Y617787D01*
X871657Y617884D01*
X871759Y617984D01*
X871449Y625124D02*
X871447Y625222D01*
X871441Y625319D01*
X871432Y625416D01*
X871418Y625513D01*
X871401Y625609D01*
X871380Y625704D01*
X871356Y625798D01*
X871327Y625892D01*
X871295Y625984D01*
X871260Y626075D01*
X871221Y626164D01*
X871178Y626252D01*
X871132Y626338D01*
X871083Y626422D01*
X871030Y626504D01*
X870975Y626584D01*
X870916Y626662D01*
X870854Y626737D01*
X870789Y626810D01*
X870721Y626880D01*
X870651Y626948D01*
X870578Y627013D01*
X870503Y627075D01*
X870425Y627134D01*
X870345Y627189D01*
X870263Y627242D01*
X870179Y627291D01*
X870093Y627337D01*
X870005Y627380D01*
X869916Y627419D01*
X869825Y627454D01*
X869733Y627486D01*
X869639Y627515D01*
X869545Y627539D01*
X869450Y627560D01*
X869354Y627577D01*
X869257Y627591D01*
X869160Y627600D01*
X869063Y627606D01*
X868965Y627608D01*
X868835Y627606D01*
X868705Y627601D01*
X868575Y627592D01*
X868445Y627579D01*
X868316Y627563D01*
X868187Y627543D01*
X868059Y627519D01*
X867931Y627492D01*
X867805Y627461D01*
X867679Y627427D01*
X867554Y627389D01*
X867431Y627348D01*
X867308Y627303D01*
X867187Y627255D01*
X867067Y627204D01*
X866949Y627149D01*
X866833Y627091D01*
X866718Y627030D01*
X866604Y626965D01*
X866493Y626898D01*
X866384Y626827D01*
X866276Y626753D01*
X866171Y626677D01*
X870207Y622951D02*
X870290Y623002D01*
X870371Y623056D01*
X870449Y623113D01*
X870525Y623173D01*
X870599Y623236D01*
X870670Y623302D01*
X870739Y623370D01*
X870805Y623441D01*
X870869Y623514D01*
X870929Y623590D01*
X870986Y623668D01*
X871041Y623749D01*
X871092Y623831D01*
X871140Y623915D01*
X871185Y624001D01*
X871227Y624089D01*
X871265Y624178D01*
X871299Y624268D01*
X871331Y624360D01*
X871358Y624453D01*
X871382Y624547D01*
X871403Y624642D01*
X871419Y624738D01*
X871432Y624834D01*
X871442Y624930D01*
X871447Y625027D01*
X871449Y625124D01*
X866793Y621088D02*
X866710Y621037D01*
X866629Y620983D01*
X866551Y620926D01*
X866475Y620866D01*
X866401Y620803D01*
X866330Y620737D01*
X866261Y620669D01*
X866195Y620598D01*
X866131Y620525D01*
X866071Y620449D01*
X866014Y620371D01*
X865959Y620290D01*
X865908Y620208D01*
X865860Y620124D01*
X865815Y620038D01*
X865773Y619950D01*
X865735Y619861D01*
X865701Y619771D01*
X865669Y619679D01*
X865642Y619586D01*
X865618Y619492D01*
X865597Y619397D01*
X865581Y619301D01*
X865568Y619205D01*
X865558Y619109D01*
X865553Y619012D01*
X865551Y618915D01*
X866792Y621088D02*
X870207Y622951D01*
X746354Y743431D02*
X746354Y754607D01*
X749458Y754607D02*
X743249Y754607D01*
X738409Y754607D02*
X738409Y743431D01*
X732200Y743431D02*
X738409Y754607D01*
X732200Y754607D02*
X732200Y743431D01*
X870630Y745915D02*
X870632Y745817D01*
X870638Y745720D01*
X870647Y745623D01*
X870661Y745526D01*
X870678Y745430D01*
X870699Y745335D01*
X870723Y745241D01*
X870752Y745147D01*
X870784Y745055D01*
X870819Y744964D01*
X870858Y744875D01*
X870901Y744787D01*
X870947Y744701D01*
X870996Y744617D01*
X871049Y744535D01*
X871104Y744455D01*
X871163Y744377D01*
X871225Y744302D01*
X871290Y744229D01*
X871358Y744159D01*
X871428Y744091D01*
X871501Y744026D01*
X871576Y743964D01*
X871654Y743905D01*
X871734Y743850D01*
X871816Y743797D01*
X871900Y743748D01*
X871986Y743702D01*
X872074Y743659D01*
X872163Y743620D01*
X872254Y743585D01*
X872346Y743553D01*
X872440Y743524D01*
X872534Y743500D01*
X872629Y743479D01*
X872725Y743462D01*
X872822Y743448D01*
X872919Y743439D01*
X873016Y743433D01*
X873114Y743431D01*
X873114Y743432D02*
X873257Y743434D01*
X873400Y743440D01*
X873542Y743449D01*
X873684Y743463D01*
X873826Y743481D01*
X873967Y743502D01*
X874108Y743527D01*
X874248Y743556D01*
X874387Y743589D01*
X874525Y743625D01*
X874662Y743666D01*
X874798Y743710D01*
X874932Y743757D01*
X875066Y743809D01*
X875197Y743863D01*
X875328Y743922D01*
X875456Y743984D01*
X875583Y744049D01*
X875708Y744118D01*
X875832Y744191D01*
X875953Y744266D01*
X876072Y744345D01*
X876189Y744427D01*
X876303Y744513D01*
X876415Y744601D01*
X876525Y744692D01*
X876632Y744787D01*
X876737Y744884D01*
X876839Y744984D01*
X876529Y752124D02*
X876527Y752222D01*
X876521Y752319D01*
X876512Y752416D01*
X876498Y752513D01*
X876481Y752609D01*
X876460Y752704D01*
X876436Y752798D01*
X876407Y752892D01*
X876375Y752984D01*
X876340Y753075D01*
X876301Y753164D01*
X876258Y753252D01*
X876212Y753338D01*
X876163Y753422D01*
X876110Y753504D01*
X876055Y753584D01*
X875996Y753662D01*
X875934Y753737D01*
X875869Y753810D01*
X875801Y753880D01*
X875731Y753948D01*
X875658Y754013D01*
X875583Y754075D01*
X875505Y754134D01*
X875425Y754189D01*
X875343Y754242D01*
X875259Y754291D01*
X875173Y754337D01*
X875085Y754380D01*
X874996Y754419D01*
X874905Y754454D01*
X874813Y754486D01*
X874719Y754515D01*
X874625Y754539D01*
X874530Y754560D01*
X874434Y754577D01*
X874337Y754591D01*
X874240Y754600D01*
X874143Y754606D01*
X874045Y754608D01*
X873915Y754606D01*
X873785Y754601D01*
X873655Y754592D01*
X873525Y754579D01*
X873396Y754563D01*
X873267Y754543D01*
X873139Y754519D01*
X873011Y754492D01*
X872885Y754461D01*
X872759Y754427D01*
X872634Y754389D01*
X872511Y754348D01*
X872388Y754303D01*
X872267Y754255D01*
X872147Y754204D01*
X872029Y754149D01*
X871913Y754091D01*
X871798Y754030D01*
X871684Y753965D01*
X871573Y753898D01*
X871464Y753827D01*
X871356Y753753D01*
X871251Y753677D01*
X875287Y749951D02*
X875370Y750002D01*
X875451Y750056D01*
X875529Y750113D01*
X875605Y750173D01*
X875679Y750236D01*
X875750Y750302D01*
X875819Y750370D01*
X875885Y750441D01*
X875949Y750514D01*
X876009Y750590D01*
X876066Y750668D01*
X876121Y750749D01*
X876172Y750831D01*
X876220Y750915D01*
X876265Y751001D01*
X876307Y751089D01*
X876345Y751178D01*
X876379Y751268D01*
X876411Y751360D01*
X876438Y751453D01*
X876462Y751547D01*
X876483Y751642D01*
X876499Y751738D01*
X876512Y751834D01*
X876522Y751930D01*
X876527Y752027D01*
X876529Y752124D01*
X871873Y748088D02*
X871790Y748037D01*
X871709Y747983D01*
X871631Y747926D01*
X871555Y747866D01*
X871481Y747803D01*
X871410Y747737D01*
X871341Y747669D01*
X871275Y747598D01*
X871211Y747525D01*
X871151Y747449D01*
X871094Y747371D01*
X871039Y747290D01*
X870988Y747208D01*
X870940Y747124D01*
X870895Y747038D01*
X870853Y746950D01*
X870815Y746861D01*
X870781Y746771D01*
X870749Y746679D01*
X870722Y746586D01*
X870698Y746492D01*
X870677Y746397D01*
X870661Y746301D01*
X870648Y746205D01*
X870638Y746109D01*
X870633Y746012D01*
X870631Y745915D01*
X871872Y748088D02*
X875287Y749951D01*
X865409Y754607D02*
X865409Y743431D01*
X859200Y743431D02*
X865409Y754607D01*
X859200Y754607D02*
X859200Y743431D01*
D10*
X244683Y563443D02*
X35183Y563443D01*
X244683Y563443D02*
X244683Y514943D01*
X244683Y429943D01*
X244683Y381443D01*
X35183Y381443D01*
X35183Y415443D01*
X35183Y529443D01*
X35183Y563443D01*
X35183Y529443D02*
X-53317Y529443D01*
X-53317Y415443D01*
X35183Y415443D01*
X244683Y429943D02*
X274683Y429943D01*
X274683Y514943D01*
X244683Y514943D01*
D11*
X-7117Y527443D02*
X-7117Y417443D01*
D12*
X208166Y530355D02*
X208166Y541531D01*
X205062Y541531D02*
X211271Y541531D01*
X80545Y530354D02*
X80447Y530356D01*
X80350Y530362D01*
X80253Y530371D01*
X80156Y530385D01*
X80060Y530402D01*
X79965Y530423D01*
X79871Y530447D01*
X79777Y530476D01*
X79685Y530508D01*
X79594Y530543D01*
X79505Y530582D01*
X79417Y530625D01*
X79331Y530671D01*
X79247Y530720D01*
X79165Y530773D01*
X79085Y530828D01*
X79007Y530887D01*
X78932Y530949D01*
X78859Y531014D01*
X78789Y531082D01*
X78721Y531152D01*
X78656Y531225D01*
X78594Y531300D01*
X78535Y531378D01*
X78480Y531458D01*
X78427Y531540D01*
X78378Y531624D01*
X78332Y531710D01*
X78289Y531798D01*
X78250Y531887D01*
X78215Y531978D01*
X78183Y532070D01*
X78154Y532164D01*
X78130Y532258D01*
X78109Y532353D01*
X78092Y532449D01*
X78078Y532546D01*
X78069Y532643D01*
X78063Y532740D01*
X78061Y532838D01*
X80545Y530355D02*
X80688Y530357D01*
X80831Y530363D01*
X80973Y530372D01*
X81115Y530386D01*
X81257Y530404D01*
X81398Y530425D01*
X81539Y530450D01*
X81679Y530479D01*
X81818Y530512D01*
X81956Y530548D01*
X82093Y530589D01*
X82229Y530633D01*
X82363Y530680D01*
X82497Y530732D01*
X82628Y530786D01*
X82759Y530845D01*
X82887Y530907D01*
X83014Y530972D01*
X83139Y531041D01*
X83263Y531114D01*
X83384Y531189D01*
X83503Y531268D01*
X83620Y531350D01*
X83734Y531436D01*
X83846Y531524D01*
X83956Y531615D01*
X84063Y531710D01*
X84168Y531807D01*
X84270Y531907D01*
X83961Y539047D02*
X83959Y539145D01*
X83953Y539242D01*
X83944Y539339D01*
X83930Y539436D01*
X83913Y539532D01*
X83892Y539627D01*
X83868Y539721D01*
X83839Y539815D01*
X83807Y539907D01*
X83772Y539998D01*
X83733Y540087D01*
X83690Y540175D01*
X83644Y540261D01*
X83595Y540345D01*
X83542Y540427D01*
X83487Y540507D01*
X83428Y540585D01*
X83366Y540660D01*
X83301Y540733D01*
X83233Y540803D01*
X83163Y540871D01*
X83090Y540936D01*
X83015Y540998D01*
X82937Y541057D01*
X82857Y541112D01*
X82775Y541165D01*
X82691Y541214D01*
X82605Y541260D01*
X82517Y541303D01*
X82428Y541342D01*
X82337Y541377D01*
X82245Y541409D01*
X82151Y541438D01*
X82057Y541462D01*
X81962Y541483D01*
X81866Y541500D01*
X81769Y541514D01*
X81672Y541523D01*
X81575Y541529D01*
X81477Y541531D01*
X81347Y541529D01*
X81217Y541524D01*
X81087Y541515D01*
X80957Y541502D01*
X80828Y541486D01*
X80699Y541466D01*
X80571Y541442D01*
X80443Y541415D01*
X80317Y541384D01*
X80191Y541350D01*
X80066Y541312D01*
X79943Y541271D01*
X79820Y541226D01*
X79699Y541178D01*
X79579Y541127D01*
X79461Y541072D01*
X79345Y541014D01*
X79230Y540953D01*
X79116Y540888D01*
X79005Y540821D01*
X78896Y540750D01*
X78788Y540676D01*
X78683Y540600D01*
X82718Y536874D02*
X82801Y536925D01*
X82882Y536979D01*
X82960Y537036D01*
X83036Y537096D01*
X83110Y537159D01*
X83181Y537225D01*
X83250Y537293D01*
X83316Y537364D01*
X83380Y537437D01*
X83440Y537513D01*
X83497Y537591D01*
X83552Y537672D01*
X83603Y537754D01*
X83651Y537838D01*
X83696Y537924D01*
X83738Y538012D01*
X83776Y538101D01*
X83810Y538191D01*
X83842Y538283D01*
X83869Y538376D01*
X83893Y538470D01*
X83914Y538565D01*
X83930Y538661D01*
X83943Y538757D01*
X83953Y538853D01*
X83958Y538950D01*
X83960Y539047D01*
X79304Y535011D02*
X79221Y534960D01*
X79140Y534906D01*
X79062Y534849D01*
X78986Y534789D01*
X78912Y534726D01*
X78841Y534660D01*
X78772Y534592D01*
X78706Y534521D01*
X78642Y534448D01*
X78582Y534372D01*
X78525Y534294D01*
X78470Y534213D01*
X78419Y534131D01*
X78371Y534047D01*
X78326Y533961D01*
X78284Y533873D01*
X78246Y533784D01*
X78212Y533694D01*
X78180Y533602D01*
X78153Y533509D01*
X78129Y533415D01*
X78108Y533320D01*
X78092Y533224D01*
X78079Y533128D01*
X78069Y533032D01*
X78064Y532935D01*
X78062Y532838D01*
X79304Y535011D02*
X82718Y536874D01*
X214516Y414531D02*
X214516Y403355D01*
X217621Y414531D02*
X211412Y414531D01*
X206572Y414531D02*
X206572Y403355D01*
X200363Y403355D02*
X206572Y414531D01*
X200363Y414531D02*
X200363Y403355D01*
X86895Y403354D02*
X86797Y403356D01*
X86700Y403362D01*
X86603Y403371D01*
X86506Y403385D01*
X86410Y403402D01*
X86315Y403423D01*
X86221Y403447D01*
X86127Y403476D01*
X86035Y403508D01*
X85944Y403543D01*
X85855Y403582D01*
X85767Y403625D01*
X85681Y403671D01*
X85597Y403720D01*
X85515Y403773D01*
X85435Y403828D01*
X85357Y403887D01*
X85282Y403949D01*
X85209Y404014D01*
X85139Y404082D01*
X85071Y404152D01*
X85006Y404225D01*
X84944Y404300D01*
X84885Y404378D01*
X84830Y404458D01*
X84777Y404540D01*
X84728Y404624D01*
X84682Y404710D01*
X84639Y404798D01*
X84600Y404887D01*
X84565Y404978D01*
X84533Y405070D01*
X84504Y405164D01*
X84480Y405258D01*
X84459Y405353D01*
X84442Y405449D01*
X84428Y405546D01*
X84419Y405643D01*
X84413Y405740D01*
X84411Y405838D01*
X86895Y403355D02*
X87038Y403357D01*
X87181Y403363D01*
X87323Y403372D01*
X87465Y403386D01*
X87607Y403404D01*
X87748Y403425D01*
X87889Y403450D01*
X88029Y403479D01*
X88168Y403512D01*
X88306Y403548D01*
X88443Y403589D01*
X88579Y403633D01*
X88713Y403680D01*
X88847Y403732D01*
X88978Y403786D01*
X89109Y403845D01*
X89237Y403907D01*
X89364Y403972D01*
X89489Y404041D01*
X89613Y404114D01*
X89734Y404189D01*
X89853Y404268D01*
X89970Y404350D01*
X90084Y404436D01*
X90196Y404524D01*
X90306Y404615D01*
X90413Y404710D01*
X90518Y404807D01*
X90620Y404907D01*
X90311Y412047D02*
X90309Y412145D01*
X90303Y412242D01*
X90294Y412339D01*
X90280Y412436D01*
X90263Y412532D01*
X90242Y412627D01*
X90218Y412721D01*
X90189Y412815D01*
X90157Y412907D01*
X90122Y412998D01*
X90083Y413087D01*
X90040Y413175D01*
X89994Y413261D01*
X89945Y413345D01*
X89892Y413427D01*
X89837Y413507D01*
X89778Y413585D01*
X89716Y413660D01*
X89651Y413733D01*
X89583Y413803D01*
X89513Y413871D01*
X89440Y413936D01*
X89365Y413998D01*
X89287Y414057D01*
X89207Y414112D01*
X89125Y414165D01*
X89041Y414214D01*
X88955Y414260D01*
X88867Y414303D01*
X88778Y414342D01*
X88687Y414377D01*
X88595Y414409D01*
X88501Y414438D01*
X88407Y414462D01*
X88312Y414483D01*
X88216Y414500D01*
X88119Y414514D01*
X88022Y414523D01*
X87925Y414529D01*
X87827Y414531D01*
X87697Y414529D01*
X87567Y414524D01*
X87437Y414515D01*
X87307Y414502D01*
X87178Y414486D01*
X87049Y414466D01*
X86921Y414442D01*
X86793Y414415D01*
X86667Y414384D01*
X86541Y414350D01*
X86416Y414312D01*
X86293Y414271D01*
X86170Y414226D01*
X86049Y414178D01*
X85929Y414127D01*
X85811Y414072D01*
X85695Y414014D01*
X85580Y413953D01*
X85466Y413888D01*
X85355Y413821D01*
X85246Y413750D01*
X85138Y413676D01*
X85033Y413600D01*
X89068Y409874D02*
X89151Y409925D01*
X89232Y409979D01*
X89310Y410036D01*
X89386Y410096D01*
X89460Y410159D01*
X89531Y410225D01*
X89600Y410293D01*
X89666Y410364D01*
X89730Y410437D01*
X89790Y410513D01*
X89847Y410591D01*
X89902Y410672D01*
X89953Y410754D01*
X90001Y410838D01*
X90046Y410924D01*
X90088Y411012D01*
X90126Y411101D01*
X90160Y411191D01*
X90192Y411283D01*
X90219Y411376D01*
X90243Y411470D01*
X90264Y411565D01*
X90280Y411661D01*
X90293Y411757D01*
X90303Y411853D01*
X90308Y411950D01*
X90310Y412047D01*
X85654Y408011D02*
X85571Y407960D01*
X85490Y407906D01*
X85412Y407849D01*
X85336Y407789D01*
X85262Y407726D01*
X85191Y407660D01*
X85122Y407592D01*
X85056Y407521D01*
X84992Y407448D01*
X84932Y407372D01*
X84875Y407294D01*
X84820Y407213D01*
X84769Y407131D01*
X84721Y407047D01*
X84676Y406961D01*
X84634Y406873D01*
X84596Y406784D01*
X84562Y406694D01*
X84530Y406602D01*
X84503Y406509D01*
X84479Y406415D01*
X84458Y406320D01*
X84442Y406224D01*
X84429Y406128D01*
X84419Y406032D01*
X84414Y405935D01*
X84412Y405838D01*
X85654Y408011D02*
X89068Y409874D01*
X79191Y414531D02*
X79191Y403355D01*
X72982Y403355D02*
X79191Y414531D01*
X72982Y414531D02*
X72982Y403355D01*
D10*
X704183Y381443D02*
X913683Y381443D01*
X704183Y381443D02*
X704183Y429943D01*
X704183Y514943D01*
X704183Y563443D01*
X913683Y563443D01*
X913683Y529443D01*
X913683Y415443D01*
X913683Y381443D01*
X913683Y415443D02*
X1002183Y415443D01*
X1002183Y529443D01*
X913683Y529443D01*
X704183Y514943D02*
X674183Y514943D01*
X674183Y429943D01*
X704183Y429943D01*
D11*
X955983Y417443D02*
X955983Y527443D01*
D12*
X740699Y414531D02*
X740699Y403355D01*
X743803Y414531D02*
X737595Y414531D01*
X864594Y405838D02*
X864596Y405740D01*
X864602Y405643D01*
X864611Y405546D01*
X864625Y405449D01*
X864642Y405353D01*
X864663Y405258D01*
X864687Y405164D01*
X864716Y405070D01*
X864748Y404978D01*
X864783Y404887D01*
X864822Y404798D01*
X864865Y404710D01*
X864911Y404624D01*
X864960Y404540D01*
X865013Y404458D01*
X865068Y404378D01*
X865127Y404300D01*
X865189Y404225D01*
X865254Y404152D01*
X865322Y404082D01*
X865392Y404014D01*
X865465Y403949D01*
X865540Y403887D01*
X865618Y403828D01*
X865698Y403773D01*
X865780Y403720D01*
X865864Y403671D01*
X865950Y403625D01*
X866038Y403582D01*
X866127Y403543D01*
X866218Y403508D01*
X866310Y403476D01*
X866404Y403447D01*
X866498Y403423D01*
X866593Y403402D01*
X866689Y403385D01*
X866786Y403371D01*
X866883Y403362D01*
X866980Y403356D01*
X867078Y403354D01*
X867078Y403355D02*
X867221Y403357D01*
X867364Y403363D01*
X867506Y403372D01*
X867648Y403386D01*
X867790Y403404D01*
X867931Y403425D01*
X868072Y403450D01*
X868212Y403479D01*
X868351Y403512D01*
X868489Y403548D01*
X868626Y403589D01*
X868762Y403633D01*
X868896Y403680D01*
X869030Y403732D01*
X869161Y403786D01*
X869292Y403845D01*
X869420Y403907D01*
X869547Y403972D01*
X869672Y404041D01*
X869796Y404114D01*
X869917Y404189D01*
X870036Y404268D01*
X870153Y404350D01*
X870267Y404436D01*
X870379Y404524D01*
X870489Y404615D01*
X870596Y404710D01*
X870701Y404807D01*
X870803Y404907D01*
X870493Y412047D02*
X870491Y412145D01*
X870485Y412242D01*
X870476Y412339D01*
X870462Y412436D01*
X870445Y412532D01*
X870424Y412627D01*
X870400Y412721D01*
X870371Y412815D01*
X870339Y412907D01*
X870304Y412998D01*
X870265Y413087D01*
X870222Y413175D01*
X870176Y413261D01*
X870127Y413345D01*
X870074Y413427D01*
X870019Y413507D01*
X869960Y413585D01*
X869898Y413660D01*
X869833Y413733D01*
X869765Y413803D01*
X869695Y413871D01*
X869622Y413936D01*
X869547Y413998D01*
X869469Y414057D01*
X869389Y414112D01*
X869307Y414165D01*
X869223Y414214D01*
X869137Y414260D01*
X869049Y414303D01*
X868960Y414342D01*
X868869Y414377D01*
X868777Y414409D01*
X868683Y414438D01*
X868589Y414462D01*
X868494Y414483D01*
X868398Y414500D01*
X868301Y414514D01*
X868204Y414523D01*
X868107Y414529D01*
X868009Y414531D01*
X867879Y414529D01*
X867749Y414524D01*
X867619Y414515D01*
X867489Y414502D01*
X867360Y414486D01*
X867231Y414466D01*
X867103Y414442D01*
X866975Y414415D01*
X866849Y414384D01*
X866723Y414350D01*
X866598Y414312D01*
X866475Y414271D01*
X866352Y414226D01*
X866231Y414178D01*
X866111Y414127D01*
X865993Y414072D01*
X865877Y414014D01*
X865762Y413953D01*
X865648Y413888D01*
X865537Y413821D01*
X865428Y413750D01*
X865320Y413676D01*
X865215Y413600D01*
X869251Y409874D02*
X869334Y409925D01*
X869415Y409979D01*
X869493Y410036D01*
X869569Y410096D01*
X869643Y410159D01*
X869714Y410225D01*
X869783Y410293D01*
X869849Y410364D01*
X869913Y410437D01*
X869973Y410513D01*
X870030Y410591D01*
X870085Y410672D01*
X870136Y410754D01*
X870184Y410838D01*
X870229Y410924D01*
X870271Y411012D01*
X870309Y411101D01*
X870343Y411191D01*
X870375Y411283D01*
X870402Y411376D01*
X870426Y411470D01*
X870447Y411565D01*
X870463Y411661D01*
X870476Y411757D01*
X870486Y411853D01*
X870491Y411950D01*
X870493Y412047D01*
X865837Y408011D02*
X865754Y407960D01*
X865673Y407906D01*
X865595Y407849D01*
X865519Y407789D01*
X865445Y407726D01*
X865374Y407660D01*
X865305Y407592D01*
X865239Y407521D01*
X865175Y407448D01*
X865115Y407372D01*
X865058Y407294D01*
X865003Y407213D01*
X864952Y407131D01*
X864904Y407047D01*
X864859Y406961D01*
X864817Y406873D01*
X864779Y406784D01*
X864745Y406694D01*
X864713Y406602D01*
X864686Y406509D01*
X864662Y406415D01*
X864641Y406320D01*
X864625Y406224D01*
X864612Y406128D01*
X864602Y406032D01*
X864597Y405935D01*
X864595Y405838D01*
X865836Y408011D02*
X869251Y409874D01*
X745398Y530355D02*
X745398Y541531D01*
X748502Y541531D02*
X742294Y541531D01*
X737453Y541531D02*
X737453Y530355D01*
X731245Y530355D02*
X737453Y541531D01*
X731245Y541531D02*
X731245Y530355D01*
X869674Y532838D02*
X869676Y532740D01*
X869682Y532643D01*
X869691Y532546D01*
X869705Y532449D01*
X869722Y532353D01*
X869743Y532258D01*
X869767Y532164D01*
X869796Y532070D01*
X869828Y531978D01*
X869863Y531887D01*
X869902Y531798D01*
X869945Y531710D01*
X869991Y531624D01*
X870040Y531540D01*
X870093Y531458D01*
X870148Y531378D01*
X870207Y531300D01*
X870269Y531225D01*
X870334Y531152D01*
X870402Y531082D01*
X870472Y531014D01*
X870545Y530949D01*
X870620Y530887D01*
X870698Y530828D01*
X870778Y530773D01*
X870860Y530720D01*
X870944Y530671D01*
X871030Y530625D01*
X871118Y530582D01*
X871207Y530543D01*
X871298Y530508D01*
X871390Y530476D01*
X871484Y530447D01*
X871578Y530423D01*
X871673Y530402D01*
X871769Y530385D01*
X871866Y530371D01*
X871963Y530362D01*
X872060Y530356D01*
X872158Y530354D01*
X872158Y530355D02*
X872301Y530357D01*
X872444Y530363D01*
X872586Y530372D01*
X872728Y530386D01*
X872870Y530404D01*
X873011Y530425D01*
X873152Y530450D01*
X873292Y530479D01*
X873431Y530512D01*
X873569Y530548D01*
X873706Y530589D01*
X873842Y530633D01*
X873976Y530680D01*
X874110Y530732D01*
X874241Y530786D01*
X874372Y530845D01*
X874500Y530907D01*
X874627Y530972D01*
X874752Y531041D01*
X874876Y531114D01*
X874997Y531189D01*
X875116Y531268D01*
X875233Y531350D01*
X875347Y531436D01*
X875459Y531524D01*
X875569Y531615D01*
X875676Y531710D01*
X875781Y531807D01*
X875883Y531907D01*
X875573Y539047D02*
X875571Y539145D01*
X875565Y539242D01*
X875556Y539339D01*
X875542Y539436D01*
X875525Y539532D01*
X875504Y539627D01*
X875480Y539721D01*
X875451Y539815D01*
X875419Y539907D01*
X875384Y539998D01*
X875345Y540087D01*
X875302Y540175D01*
X875256Y540261D01*
X875207Y540345D01*
X875154Y540427D01*
X875099Y540507D01*
X875040Y540585D01*
X874978Y540660D01*
X874913Y540733D01*
X874845Y540803D01*
X874775Y540871D01*
X874702Y540936D01*
X874627Y540998D01*
X874549Y541057D01*
X874469Y541112D01*
X874387Y541165D01*
X874303Y541214D01*
X874217Y541260D01*
X874129Y541303D01*
X874040Y541342D01*
X873949Y541377D01*
X873857Y541409D01*
X873763Y541438D01*
X873669Y541462D01*
X873574Y541483D01*
X873478Y541500D01*
X873381Y541514D01*
X873284Y541523D01*
X873187Y541529D01*
X873089Y541531D01*
X872959Y541529D01*
X872829Y541524D01*
X872699Y541515D01*
X872569Y541502D01*
X872440Y541486D01*
X872311Y541466D01*
X872183Y541442D01*
X872055Y541415D01*
X871929Y541384D01*
X871803Y541350D01*
X871678Y541312D01*
X871555Y541271D01*
X871432Y541226D01*
X871311Y541178D01*
X871191Y541127D01*
X871073Y541072D01*
X870957Y541014D01*
X870842Y540953D01*
X870728Y540888D01*
X870617Y540821D01*
X870508Y540750D01*
X870400Y540676D01*
X870295Y540600D01*
X874331Y536874D02*
X874414Y536925D01*
X874495Y536979D01*
X874573Y537036D01*
X874649Y537096D01*
X874723Y537159D01*
X874794Y537225D01*
X874863Y537293D01*
X874929Y537364D01*
X874993Y537437D01*
X875053Y537513D01*
X875110Y537591D01*
X875165Y537672D01*
X875216Y537754D01*
X875264Y537838D01*
X875309Y537924D01*
X875351Y538012D01*
X875389Y538101D01*
X875423Y538191D01*
X875455Y538283D01*
X875482Y538376D01*
X875506Y538470D01*
X875527Y538565D01*
X875543Y538661D01*
X875556Y538757D01*
X875566Y538853D01*
X875571Y538950D01*
X875573Y539047D01*
X870917Y535011D02*
X870834Y534960D01*
X870753Y534906D01*
X870675Y534849D01*
X870599Y534789D01*
X870525Y534726D01*
X870454Y534660D01*
X870385Y534592D01*
X870319Y534521D01*
X870255Y534448D01*
X870195Y534372D01*
X870138Y534294D01*
X870083Y534213D01*
X870032Y534131D01*
X869984Y534047D01*
X869939Y533961D01*
X869897Y533873D01*
X869859Y533784D01*
X869825Y533694D01*
X869793Y533602D01*
X869766Y533509D01*
X869742Y533415D01*
X869721Y533320D01*
X869705Y533224D01*
X869692Y533128D01*
X869682Y533032D01*
X869677Y532935D01*
X869675Y532838D01*
X870916Y535011D02*
X874331Y536874D01*
X864453Y541531D02*
X864453Y530355D01*
X858245Y530355D02*
X864453Y541531D01*
X858245Y541531D02*
X858245Y530355D01*
M02*
