G04 EAGLE Gerber X2 export*
%TF.Part,Single*%
%TF.FileFunction,Soldermask,Bot,1*%
%TF.FilePolarity,Positive*%
%TF.GenerationSoftware,Autodesk,EAGLE,9.2.2*%
%TF.CreationDate,2019-01-20T22:14:06Z*%
G75*
%MOMM*%
%FSLAX34Y34*%
%LPD*%
%INSoldermask Bottom*%
%AMOC8*
5,1,8,0,0,1.08239X$1,22.5*%
G01*
%ADD10C,2.051600*%
%ADD11C,1.981200*%


D10*
X89050Y341150D02*
X69550Y341150D01*
X69550Y178850D02*
X89050Y178850D01*
X196550Y341150D02*
X216050Y341150D01*
X216050Y178850D02*
X196550Y178850D01*
X861050Y178850D02*
X880550Y178850D01*
X880550Y341150D02*
X861050Y341150D01*
X753550Y178850D02*
X734050Y178850D01*
X734050Y341150D02*
X753550Y341150D01*
D11*
X270000Y199398D02*
X270000Y180602D01*
X690000Y180602D02*
X690000Y199398D01*
X660000Y199398D02*
X660000Y180602D01*
D10*
X89736Y981063D02*
X70236Y981063D01*
X70236Y818763D02*
X89736Y818763D01*
X197236Y981063D02*
X216736Y981063D01*
X216736Y818763D02*
X197236Y818763D01*
X861736Y818763D02*
X881236Y818763D01*
X881236Y981063D02*
X861736Y981063D01*
X754236Y818763D02*
X734736Y818763D01*
X734736Y981063D02*
X754236Y981063D01*
D11*
X270686Y839311D02*
X270686Y820515D01*
X690686Y820515D02*
X690686Y839311D01*
X660686Y839311D02*
X660686Y820515D01*
D10*
X89388Y766669D02*
X69888Y766669D01*
X69888Y604369D02*
X89388Y604369D01*
X196888Y766669D02*
X216388Y766669D01*
X216388Y604369D02*
X196888Y604369D01*
X861388Y604369D02*
X880888Y604369D01*
X880888Y766669D02*
X861388Y766669D01*
X753888Y604369D02*
X734388Y604369D01*
X734388Y766669D02*
X753888Y766669D01*
D11*
X270338Y624917D02*
X270338Y606121D01*
X690338Y606121D02*
X690338Y624917D01*
X660338Y624917D02*
X660338Y606121D01*
D10*
X88433Y553593D02*
X68933Y553593D01*
X68933Y391293D02*
X88433Y391293D01*
X195933Y553593D02*
X215433Y553593D01*
X215433Y391293D02*
X195933Y391293D01*
X860433Y391293D02*
X879933Y391293D01*
X879933Y553593D02*
X860433Y553593D01*
X752933Y391293D02*
X733433Y391293D01*
X733433Y553593D02*
X752933Y553593D01*
D11*
X269383Y411841D02*
X269383Y393045D01*
X689383Y393045D02*
X689383Y411841D01*
X659383Y411841D02*
X659383Y393045D01*
M02*
