G04 EAGLE Gerber X2 export*
%TF.Part,Single*%
%TF.FileFunction,Copper,L1,Top,Mixed*%
%TF.FilePolarity,Positive*%
%TF.GenerationSoftware,Autodesk,EAGLE,9.2.2*%
%TF.CreationDate,2019-03-12T13:45:35Z*%
G75*
%MOMM*%
%FSLAX34Y34*%
%LPD*%
%INTop Copper*%
%AMOC8*
5,1,8,0,0,1.08239X$1,22.5*%
G01*
%ADD10C,1.143000*%
%ADD11R,1.350000X1.350000*%
%ADD12C,1.350000*%
%ADD13R,1.600000X1.800000*%
%ADD14R,1.800000X1.600000*%
%ADD15C,1.408000*%
%ADD16R,1.408000X1.408000*%
%ADD17R,0.600000X2.200000*%
%ADD18C,1.950000*%
%ADD19R,0.800000X3.100000*%
%ADD20P,2.336880X8X112.500000*%
%ADD21R,1.270000X2.540000*%
%ADD22R,1.600000X1.803000*%
%ADD23R,2.184400X1.320800*%
%ADD24R,1.803000X1.600000*%
%ADD25R,1.320800X2.184400*%
%ADD26R,2.000000X1.600000*%
%ADD27R,1.600000X2.000000*%
%ADD28R,1.000000X1.600000*%
%ADD29R,5.400000X6.200000*%
%ADD30R,1.549400X0.533400*%
%ADD31R,1.879600X1.879600*%
%ADD32P,3.247170X8X292.500000*%
%ADD33P,2.336880X8X22.500000*%
%ADD34P,2.336880X8X202.500000*%
%ADD35R,2.400000X2.400000*%
%ADD36R,1.270000X1.270000*%
%ADD37C,0.812800*%
%ADD38C,1.508000*%
%ADD39P,4.123906X8X292.500000*%
%ADD40C,1.879600*%
%ADD41R,5.080000X2.540000*%
%ADD42P,1.429621X8X112.500000*%
%ADD43P,3.247170X8X202.500000*%
%ADD44C,1.955800*%
%ADD45P,3.247170X8X112.500000*%
%ADD46C,1.422400*%
%ADD47C,0.203200*%
%ADD48C,0.604800*%
%ADD49C,0.654800*%


D10*
X513722Y384460D03*
X513722Y434460D03*
D11*
X812551Y635345D03*
D12*
X832551Y635345D03*
D11*
X273939Y658477D03*
D12*
X253939Y658477D03*
D13*
X679574Y576956D03*
X707574Y576956D03*
D10*
X782905Y592749D03*
X832905Y592749D03*
X527562Y648635D03*
X477562Y648635D03*
D11*
X321794Y509377D03*
D12*
X321794Y529377D03*
D11*
X788182Y832407D03*
D12*
X808182Y832407D03*
D11*
X861071Y777583D03*
D12*
X841071Y777583D03*
D10*
X604711Y641405D03*
X654711Y641405D03*
D11*
X276089Y598484D03*
D12*
X256089Y598484D03*
D10*
X657859Y530638D03*
X657859Y480638D03*
D11*
X203425Y570566D03*
D12*
X203425Y550566D03*
D11*
X378902Y378804D03*
D12*
X358902Y378804D03*
D14*
X591425Y435479D03*
X591425Y407479D03*
D11*
X276037Y965820D03*
D12*
X256037Y965820D03*
D13*
X184396Y915428D03*
X212396Y915428D03*
X399453Y90453D03*
X427453Y90453D03*
D11*
X403109Y144963D03*
D12*
X423109Y144963D03*
D11*
X203287Y965665D03*
D12*
X183287Y965665D03*
D13*
X280920Y874103D03*
X252920Y874103D03*
D15*
X357957Y20706D03*
D16*
X332557Y20706D03*
D15*
X256960Y923048D03*
D16*
X282360Y923048D03*
D17*
X521232Y471705D03*
X521232Y523705D03*
X508532Y471705D03*
X533932Y471705D03*
X546632Y471705D03*
X508532Y523705D03*
X533932Y523705D03*
X546632Y523705D03*
X572032Y471705D03*
X572032Y523705D03*
X559332Y471705D03*
X584732Y471705D03*
X559332Y523705D03*
X584732Y523705D03*
X718251Y677263D03*
X718251Y729263D03*
X705551Y677263D03*
X730951Y677263D03*
X743651Y677263D03*
X705551Y729263D03*
X730951Y729263D03*
X743651Y729263D03*
X769051Y677263D03*
X769051Y729263D03*
X756351Y677263D03*
X781751Y677263D03*
X756351Y729263D03*
X781751Y729263D03*
D18*
X106250Y218850D02*
X86750Y218850D01*
X86750Y381150D02*
X106250Y381150D01*
X213750Y218850D02*
X233250Y218850D01*
X233250Y381150D02*
X213750Y381150D01*
D19*
X408205Y267599D03*
X376205Y267599D03*
X354205Y267599D03*
X332205Y267599D03*
X408205Y214599D03*
X376205Y214599D03*
X354205Y214599D03*
X332205Y214599D03*
D20*
X515874Y32854D03*
X561679Y32854D03*
D21*
X526483Y283179D03*
X551883Y283179D03*
X551883Y353179D03*
X526483Y353179D03*
D18*
X778750Y381150D02*
X798250Y381150D01*
X798250Y218850D02*
X778750Y218850D01*
X671250Y381150D02*
X651750Y381150D01*
X651750Y218850D02*
X671250Y218850D01*
D22*
X706993Y624985D03*
X678553Y624985D03*
D23*
X750408Y792147D03*
X706408Y804877D03*
X750408Y817607D03*
X363686Y656399D03*
X319686Y669129D03*
X363686Y681859D03*
D24*
X536457Y620752D03*
X536457Y592312D03*
D22*
X535225Y560010D03*
X506785Y560010D03*
D23*
X364540Y609573D03*
X320540Y622303D03*
X364540Y635033D03*
D22*
X604107Y686424D03*
X632547Y686424D03*
X809189Y765476D03*
X780749Y765476D03*
X730724Y845148D03*
X702284Y845148D03*
D25*
X810893Y684048D03*
X823623Y728048D03*
X836353Y684048D03*
D24*
X864531Y710902D03*
X864531Y682462D03*
X288000Y394220D03*
X288000Y365780D03*
D23*
X77998Y576990D03*
X33998Y589720D03*
X77998Y602450D03*
D26*
X553327Y237285D03*
X553327Y209285D03*
D22*
X678935Y601007D03*
X707375Y601007D03*
X807929Y790055D03*
X779489Y790055D03*
X707297Y647430D03*
X678857Y647430D03*
D27*
X537699Y173758D03*
X509699Y173758D03*
D22*
X759743Y624832D03*
X731303Y624832D03*
X811403Y519796D03*
X782963Y519796D03*
X809293Y562512D03*
X780853Y562512D03*
D27*
X509699Y137862D03*
X537699Y137862D03*
D26*
X590727Y237434D03*
X590727Y209434D03*
D22*
X453780Y390000D03*
X482220Y390000D03*
X731427Y647449D03*
X759867Y647449D03*
X565602Y559432D03*
X594042Y559432D03*
D24*
X562917Y406603D03*
X562917Y435043D03*
D22*
X513214Y673783D03*
X484774Y673783D03*
X542394Y691388D03*
X570834Y691388D03*
D28*
X321513Y49774D03*
X367113Y49774D03*
D29*
X344313Y122774D03*
D30*
X607481Y136458D03*
X607481Y123758D03*
X607481Y111058D03*
X607481Y98358D03*
X681649Y98358D03*
X681649Y111058D03*
X681649Y123758D03*
X681649Y136458D03*
D31*
X168000Y440000D03*
X143000Y440000D03*
X118000Y440000D03*
D32*
X187000Y510000D03*
X99000Y510000D03*
D33*
X332290Y918003D03*
D34*
X332290Y973295D03*
D35*
X460171Y257116D03*
X460171Y213116D03*
D36*
X335188Y164867D03*
X360588Y164867D03*
D37*
X335188Y164867D01*
D38*
X844462Y539996D02*
X859542Y539996D01*
X859542Y559996D02*
X844462Y559996D01*
X844462Y459996D02*
X859542Y459996D01*
X859542Y519996D02*
X844462Y519996D01*
X844462Y499996D02*
X859542Y499996D01*
X859542Y479996D02*
X844462Y479996D01*
D39*
X742002Y569996D03*
X742002Y449996D03*
D40*
X759298Y161666D02*
X778094Y161666D01*
X778094Y136266D02*
X759298Y136266D01*
X759298Y110866D02*
X778094Y110866D01*
X778094Y85466D02*
X759298Y85466D01*
X759298Y60066D02*
X778094Y60066D01*
X778094Y34666D02*
X759298Y34666D01*
D18*
X146800Y115500D02*
X146800Y135000D01*
X178800Y135000D02*
X178800Y115500D01*
X210800Y115500D02*
X210800Y135000D01*
X210800Y165000D02*
X210800Y184500D01*
X178800Y184500D02*
X178800Y165000D01*
X146800Y165000D02*
X146800Y184500D01*
D10*
X702253Y766759D03*
X752253Y766759D03*
D41*
X855323Y900000D03*
X30529Y900000D03*
D42*
X516971Y237414D03*
X497921Y224714D03*
X516971Y212014D03*
D13*
X350791Y873022D03*
X322791Y873022D03*
D27*
X537699Y101966D03*
X509699Y101966D03*
D24*
X506739Y591943D03*
X506739Y620383D03*
D15*
X409773Y641036D03*
D16*
X409773Y615636D03*
D15*
X447437Y612644D03*
D16*
X447437Y638044D03*
D15*
X651406Y568795D03*
D16*
X626006Y568795D03*
D15*
X623884Y605694D03*
D16*
X649284Y605694D03*
D10*
X406382Y672032D03*
X456382Y672032D03*
D22*
X215728Y656933D03*
X187288Y656933D03*
X187898Y617508D03*
X216338Y617508D03*
D31*
X372500Y535000D03*
X372500Y510000D03*
X372500Y485000D03*
D43*
X442500Y554000D03*
X442500Y466000D03*
D23*
X364357Y561834D03*
X320357Y574564D03*
X364357Y587294D03*
D24*
X482818Y466620D03*
X482818Y495060D03*
X606637Y468766D03*
X606637Y497206D03*
D17*
X148250Y615223D03*
X148250Y563223D03*
X160950Y615223D03*
X135550Y615223D03*
X122850Y615223D03*
X160950Y563223D03*
X135550Y563223D03*
X122850Y563223D03*
D13*
X659112Y60270D03*
X631112Y60270D03*
D33*
X477780Y300331D03*
X435292Y300368D03*
D24*
X409972Y507407D03*
X409972Y535847D03*
D44*
X647613Y800970D02*
X667171Y800970D01*
X667171Y775570D02*
X647613Y775570D01*
X647613Y750170D02*
X667171Y750170D01*
X177171Y800970D02*
X157613Y800970D01*
X157613Y775570D02*
X177171Y775570D01*
X177171Y750170D02*
X157613Y750170D01*
X416592Y860109D02*
X416592Y879667D01*
X441992Y879667D02*
X441992Y860109D01*
X467392Y860109D02*
X467392Y879667D01*
D31*
X467500Y820000D03*
X442500Y820000D03*
X417500Y820000D03*
D45*
X486500Y750000D03*
X398500Y750000D03*
D46*
X563798Y613850D02*
X578022Y613850D01*
X578022Y639250D02*
X563798Y639250D01*
X563798Y664650D02*
X578022Y664650D01*
D47*
X780318Y767416D02*
X780318Y789867D01*
X779489Y790055D01*
X780318Y767416D02*
X780749Y765476D01*
X757867Y742924D02*
X757867Y730678D01*
X757867Y742924D02*
X780318Y765375D01*
X757867Y730678D02*
X756351Y729263D01*
X780318Y765375D02*
X780749Y765476D01*
X786441Y798031D02*
X786441Y830687D01*
X786441Y798031D02*
X780318Y791908D01*
X786441Y830687D02*
X788182Y832407D01*
X780318Y791908D02*
X779489Y790055D01*
X561931Y408200D02*
X539480Y408200D01*
X514988Y432692D01*
X561931Y408200D02*
X562917Y406603D01*
X514988Y432692D02*
X513722Y434460D01*
X533357Y453102D02*
X533357Y471471D01*
X533357Y453102D02*
X514988Y434733D01*
X533357Y471471D02*
X533932Y471705D01*
X514988Y434733D02*
X513722Y434460D01*
X459881Y389831D02*
X455799Y389831D01*
X459881Y389831D02*
X472127Y377585D01*
X506824Y377585D01*
X512947Y383708D01*
X455799Y389831D02*
X453780Y390000D01*
X512947Y383708D02*
X513722Y384460D01*
X355790Y291863D02*
X355790Y269412D01*
X355790Y291863D02*
X453758Y389831D01*
X355790Y269412D02*
X354205Y267599D01*
X453758Y389831D02*
X453780Y390000D01*
X836353Y684048D02*
X837466Y685776D01*
X704801Y783744D02*
X704801Y804154D01*
X704801Y783744D02*
X692555Y771498D01*
X692555Y722514D01*
X702760Y712309D01*
X725211Y712309D01*
X704801Y804154D02*
X706408Y804877D01*
X835425Y683735D02*
X817056Y665366D01*
X835425Y683735D02*
X836353Y684048D01*
D48*
X725211Y712309D03*
X817056Y665366D03*
D47*
X702913Y624985D02*
X678935Y601007D01*
X723368Y608611D02*
X731210Y608611D01*
D49*
X731210Y608611D03*
D47*
X723368Y608611D02*
X706993Y624985D01*
X832551Y635345D02*
X833384Y636792D01*
X832551Y650482D02*
X864531Y682462D01*
X832551Y650482D02*
X832551Y635345D01*
X810933Y636792D02*
X810933Y683735D01*
X810893Y684048D01*
X810933Y636792D02*
X812551Y635345D01*
X757867Y677612D02*
X757867Y685776D01*
X757867Y677612D02*
X756351Y677263D01*
X756533Y650783D02*
X759867Y647449D01*
X804810Y726596D02*
X823179Y726596D01*
X804810Y726596D02*
X770113Y691899D01*
X763990Y691899D01*
X757867Y685776D01*
X823179Y726596D02*
X823623Y728048D01*
X757867Y685776D02*
X756351Y677263D01*
X755826Y675571D02*
X755826Y651751D01*
X759867Y647449D01*
X755826Y675571D02*
X756351Y677263D01*
X704801Y675571D02*
X704801Y667407D01*
X704801Y675571D02*
X705551Y677263D01*
X704801Y667407D02*
X686432Y649038D01*
X704801Y667407D02*
X705551Y677263D01*
X678857Y647430D02*
X678857Y625289D01*
X678553Y624985D01*
X708095Y644956D02*
X707297Y647430D01*
X707170Y647309D01*
X717047Y657202D02*
X717047Y675571D01*
X717047Y657202D02*
X708883Y649038D01*
X717047Y675571D02*
X718251Y677263D01*
X708883Y649038D02*
X707297Y647430D01*
X709138Y646997D02*
X731303Y624832D01*
X709138Y646997D02*
X708883Y646997D01*
X706842Y646997D01*
X707297Y647430D02*
X708883Y646997D01*
X729293Y677612D02*
X729293Y685776D01*
X729293Y677612D02*
X730951Y677263D01*
X731427Y647449D02*
X731516Y645434D01*
X731334Y647476D02*
X731334Y675571D01*
X731334Y647476D02*
X731427Y647449D01*
X731334Y675571D02*
X730951Y677263D01*
X742571Y603790D02*
X739788Y601007D01*
X709441Y601007D01*
X707375Y601007D01*
X742571Y636305D02*
X731427Y647449D01*
X742571Y636305D02*
X742571Y603790D01*
X707574Y599140D02*
X707574Y576956D01*
X707574Y599140D02*
X709441Y601007D01*
X782359Y591890D02*
X782359Y563316D01*
X780853Y562512D01*
X782359Y591890D02*
X782905Y592749D01*
X782359Y593931D01*
X780318Y675571D02*
X781751Y677263D01*
X782359Y602216D02*
X782359Y591890D01*
X782359Y602216D02*
X759743Y624832D01*
X780318Y645406D01*
X780318Y675571D01*
X784400Y542906D02*
X784400Y520455D01*
X784400Y542906D02*
X796646Y555152D01*
X796646Y571480D01*
X817056Y591890D01*
X831343Y591890D01*
X784400Y520455D02*
X782963Y519796D01*
X831343Y591890D02*
X832905Y592749D01*
X770113Y677612D02*
X770113Y685776D01*
X776236Y691899D01*
X786441Y691899D01*
X800728Y677612D01*
X800728Y608218D01*
X817056Y591890D01*
X770113Y677612D02*
X769051Y677263D01*
X127198Y577603D02*
X78214Y577603D01*
X127198Y577603D02*
X135362Y569439D01*
X135362Y563316D01*
X78214Y577603D02*
X77998Y576990D01*
X135362Y563316D02*
X135550Y563223D01*
X197001Y576990D02*
X203425Y570566D01*
X197001Y576990D02*
X165518Y576990D01*
X165220Y577289D01*
X143212Y577289D01*
X135362Y569439D01*
X286396Y214305D02*
X223125Y151034D01*
X141485Y151034D01*
X133321Y159198D01*
X133321Y414080D01*
X143000Y423759D02*
X143000Y440000D01*
X143000Y423759D02*
X133321Y414080D01*
X286396Y214305D02*
X331911Y214305D01*
X332205Y214599D01*
X812974Y520455D02*
X851753Y520455D01*
X812974Y520455D02*
X811403Y519796D01*
X851753Y520455D02*
X852002Y519996D01*
X853794Y518414D02*
X853794Y500045D01*
X852002Y499996D01*
X853794Y518414D02*
X852002Y519996D01*
X851753Y561275D02*
X810933Y561275D01*
X809293Y562512D01*
X851753Y561275D02*
X852002Y559996D01*
X853794Y559234D02*
X853794Y540865D01*
X852002Y539996D01*
X853794Y559234D02*
X852002Y559996D01*
X702760Y830687D02*
X702760Y844974D01*
X702760Y830687D02*
X721129Y812318D01*
X721129Y785785D01*
X702760Y767416D01*
X702760Y844974D02*
X702284Y845148D01*
X702760Y767416D02*
X702253Y766759D01*
X704801Y763334D02*
X704801Y730678D01*
X704801Y763334D02*
X702760Y765375D01*
X704801Y730678D02*
X705551Y729263D01*
X702760Y765375D02*
X702253Y766759D01*
X702760Y830687D02*
X608128Y830687D01*
X508119Y730678D01*
X437430Y730678D01*
X363686Y656934D01*
X363686Y656399D01*
X731334Y812318D02*
X731334Y844974D01*
X731334Y812318D02*
X749703Y793949D01*
X731334Y844974D02*
X730724Y845148D01*
X749703Y793949D02*
X750408Y792147D01*
X719088Y736801D02*
X719088Y730678D01*
X719088Y736801D02*
X747662Y765375D01*
X751744Y765375D01*
X719088Y730678D02*
X718251Y729263D01*
X751744Y765375D02*
X752253Y766759D01*
X751744Y767416D02*
X751744Y791908D01*
X750408Y792147D01*
X751744Y767416D02*
X752253Y766759D01*
X478250Y649038D02*
X477562Y648635D01*
X483602Y678538D02*
X482410Y679730D01*
X482332Y677262D02*
X482332Y673880D01*
X482332Y677262D02*
X483602Y678531D01*
X483602Y678538D01*
X484548Y671664D02*
X484774Y671438D01*
X484548Y671664D02*
X482332Y673880D01*
X484774Y655847D02*
X477562Y648635D01*
X484774Y655847D02*
X484774Y673783D01*
X484548Y671664D02*
X484373Y671489D01*
X484774Y673783D01*
X535398Y640874D02*
X535398Y622505D01*
X535398Y640874D02*
X529275Y646997D01*
X535398Y622505D02*
X536457Y620752D01*
X529275Y646997D02*
X527562Y648635D01*
X535398Y591890D02*
X506824Y591890D01*
X506739Y591943D01*
X535398Y591890D02*
X535398Y561275D01*
X535225Y560010D01*
X535398Y591890D02*
X536457Y592312D01*
X523152Y549029D02*
X523152Y524537D01*
X523152Y549029D02*
X533357Y559234D01*
X523152Y524537D02*
X521232Y523705D01*
X533357Y559234D02*
X535225Y560010D01*
X682350Y97968D02*
X755826Y97968D01*
X768072Y110214D01*
X682350Y97968D02*
X681649Y98358D01*
X768072Y110214D02*
X768696Y110866D01*
X680309Y112255D02*
X676227Y116337D01*
X674186Y116337D01*
X670104Y120419D01*
X670104Y128583D01*
X672145Y130624D01*
X763990Y130624D01*
X768072Y134706D01*
X681649Y111058D02*
X680309Y112255D01*
X768072Y134706D02*
X768696Y136266D01*
X670104Y130624D02*
X592546Y208182D01*
X670104Y130624D02*
X672145Y130624D01*
X592546Y208182D02*
X590727Y209434D01*
X783257Y123330D02*
X790558Y116029D01*
X790558Y105703D01*
X783257Y98402D01*
X781632Y98402D01*
X768696Y85466D01*
X682077Y123330D02*
X681649Y123758D01*
X682077Y123330D02*
X783257Y123330D01*
X629284Y134706D02*
X608874Y134706D01*
X629284Y134706D02*
X729293Y34697D01*
X768072Y34697D01*
X608874Y134706D02*
X607481Y136458D01*
X768072Y34697D02*
X768696Y34666D01*
X551726Y238797D02*
X539480Y238797D01*
X478250Y300027D01*
X551726Y238797D02*
X553327Y237285D01*
X478250Y300027D02*
X477780Y300331D01*
X435389Y214305D02*
X408856Y214305D01*
X435389Y214305D02*
X459881Y214305D01*
X460171Y213116D01*
X408856Y214305D02*
X408205Y214599D01*
X514988Y212264D02*
X514988Y222469D01*
X502742Y234715D01*
X482332Y234715D01*
X461922Y214305D01*
X514988Y212264D02*
X516971Y212014D01*
X461922Y214305D02*
X460171Y213116D01*
X435389Y214305D02*
X435389Y300027D01*
X435292Y300368D01*
X510906Y173485D02*
X510906Y138788D01*
X509699Y137862D01*
X510906Y173485D02*
X509699Y173758D01*
X498660Y185731D02*
X498660Y224510D01*
X498660Y185731D02*
X508865Y175526D01*
X498660Y224510D02*
X497921Y224714D01*
X508865Y175526D02*
X509699Y173758D01*
X551726Y124501D02*
X606833Y124501D01*
X551726Y124501D02*
X539480Y136747D01*
X606833Y124501D02*
X607481Y123758D01*
X539480Y136747D02*
X537699Y137862D01*
X459881Y257166D02*
X459881Y287781D01*
X449676Y297986D01*
X449676Y306150D01*
X441512Y314314D01*
X429266Y314314D01*
X408856Y293904D01*
X408856Y269412D01*
X459881Y257166D02*
X460171Y257116D01*
X408856Y269412D02*
X408205Y267599D01*
X365995Y48984D02*
X365995Y28574D01*
X359872Y22451D01*
X365995Y48984D02*
X367113Y49774D01*
X359872Y22451D02*
X357957Y20706D01*
X400692Y91845D02*
X400692Y142870D01*
X402733Y144911D01*
X400692Y91845D02*
X399453Y90453D01*
X402733Y144911D02*
X403109Y144963D01*
X368036Y59189D02*
X368036Y51025D01*
X368036Y59189D02*
X398651Y89804D01*
X368036Y51025D02*
X367113Y49774D01*
X398651Y89804D02*
X399453Y90453D01*
X406815Y238797D02*
X406815Y267371D01*
X406815Y238797D02*
X400692Y232674D01*
X400692Y148993D01*
X402733Y146952D01*
X406815Y267371D02*
X408205Y267599D01*
X402733Y146952D02*
X403109Y144963D01*
X682350Y136747D02*
X741539Y136747D01*
X768072Y163280D01*
X682350Y136747D02*
X681649Y136458D01*
X768072Y163280D02*
X768696Y161666D01*
X657858Y59189D02*
X651735Y59189D01*
X610915Y18369D01*
X508865Y18369D01*
X500701Y26533D01*
X500701Y77558D02*
X500701Y91845D01*
X500701Y77558D02*
X500701Y26533D01*
X500701Y91845D02*
X508865Y100009D01*
X657858Y59189D02*
X659112Y60270D01*
X509699Y101966D02*
X508865Y100009D01*
X551726Y165321D02*
X551726Y208182D01*
X551726Y165321D02*
X537439Y151034D01*
X527234Y151034D01*
X521111Y144911D01*
X521111Y112255D01*
X510906Y102050D01*
X551726Y208182D02*
X553327Y209285D01*
X510906Y102050D02*
X509699Y101966D01*
X680309Y136747D02*
X680309Y142870D01*
X600710Y222469D01*
X566013Y222469D01*
X553767Y210223D01*
X680309Y136747D02*
X681649Y136458D01*
X553327Y209285D02*
X553767Y210223D01*
X404774Y89804D02*
X400692Y89804D01*
X404774Y89804D02*
X417020Y77558D01*
X500701Y77558D01*
X400692Y89804D02*
X399453Y90453D01*
X547644Y110214D02*
X606833Y110214D01*
X547644Y110214D02*
X539480Y102050D01*
X606833Y110214D02*
X607481Y111058D01*
X539480Y102050D02*
X537699Y101966D01*
X517029Y79599D02*
X517029Y34697D01*
X517029Y79599D02*
X537439Y100009D01*
X517029Y34697D02*
X515874Y32854D01*
X537439Y100009D02*
X537699Y101966D01*
X574177Y238797D02*
X590505Y238797D01*
X574177Y238797D02*
X545603Y267371D01*
X541521Y267371D01*
X527234Y281658D01*
X590505Y238797D02*
X590727Y237434D01*
X527234Y281658D02*
X526483Y283179D01*
X331298Y267371D02*
X272109Y267371D01*
X225166Y220428D01*
X331298Y267371D02*
X332205Y267599D01*
X225166Y220428D02*
X223500Y218850D01*
X210879Y206141D02*
X210879Y165321D01*
X210879Y206141D02*
X223125Y218387D01*
X210879Y165321D02*
X210800Y165000D01*
X223125Y218387D02*
X223500Y218850D01*
X361913Y200018D02*
X376200Y214305D01*
X361913Y200018D02*
X361913Y197977D01*
X339462Y175526D01*
X290478Y175526D01*
X217002Y102050D01*
X204756Y102050D01*
X180264Y126542D01*
X180264Y134706D01*
X376200Y214305D02*
X376205Y214599D01*
X180264Y134706D02*
X178800Y135000D01*
X352530Y378804D02*
X358902Y378804D01*
X352530Y378804D02*
X337114Y394220D01*
X288000Y394220D01*
X376200Y267371D02*
X361913Y253084D01*
X361913Y251043D01*
X359872Y249002D01*
X347626Y249002D01*
X339462Y257166D01*
X339462Y285740D01*
X337421Y287781D01*
X263945Y287781D01*
X180264Y204100D01*
X180264Y165321D01*
X376200Y267371D02*
X376205Y267599D01*
X180264Y165321D02*
X178800Y165000D01*
X553767Y355134D02*
X635407Y355134D01*
X659899Y379626D01*
X553767Y355134D02*
X551883Y353179D01*
X659899Y379626D02*
X661500Y381150D01*
X355790Y222469D02*
X355790Y216346D01*
X355790Y222469D02*
X388414Y255093D01*
X388414Y292179D01*
X426877Y330642D01*
X529275Y330642D01*
X551726Y353093D01*
X355790Y216346D02*
X354205Y214599D01*
X551726Y353093D02*
X551883Y353179D01*
X553767Y422487D02*
X547644Y428610D01*
X627243Y433302D02*
X627243Y471391D01*
X627243Y433302D02*
X616428Y422487D01*
X553767Y422487D01*
X627243Y471391D02*
X662319Y506467D01*
X210879Y938860D02*
X210879Y959270D01*
X210879Y938860D02*
X210879Y916409D01*
X210879Y959270D02*
X204756Y965393D01*
X210879Y916409D02*
X212396Y915428D01*
X204756Y965393D02*
X203287Y965665D01*
X282314Y873548D02*
X321093Y873548D01*
X322791Y873022D01*
X282314Y873548D02*
X280920Y874103D01*
X276191Y930696D02*
X276191Y938860D01*
X276191Y965393D01*
X276191Y930696D02*
X282314Y924573D01*
X276191Y965393D02*
X276037Y965820D01*
X282314Y924573D02*
X282360Y923048D01*
X282314Y922532D02*
X282314Y875589D01*
X280920Y874103D01*
X282314Y922532D02*
X282360Y923048D01*
X276191Y938860D02*
X210879Y938860D01*
X323134Y48984D02*
X323134Y30615D01*
X331298Y22451D01*
X323134Y48984D02*
X321513Y49774D01*
X331298Y22451D02*
X332557Y20706D01*
X149649Y563316D02*
X148250Y563223D01*
X161235Y51025D02*
X321093Y51025D01*
X161235Y51025D02*
X82538Y129721D01*
X82538Y191618D01*
X29230Y244926D01*
X29230Y506168D01*
X29935Y506873D02*
X72091Y549029D01*
X29935Y506873D02*
X29230Y506168D01*
X72091Y549029D02*
X141485Y549029D01*
X147608Y555152D01*
X147608Y561275D01*
X321093Y51025D02*
X321513Y49774D01*
X147608Y561275D02*
X148250Y563223D01*
X280273Y873548D02*
X280920Y874103D01*
X20010Y516797D02*
X29935Y506873D01*
X20010Y602288D02*
X167392Y750170D01*
X20010Y602288D02*
X20010Y516797D01*
X157027Y750170D02*
X167392Y750170D01*
X157027Y750170D02*
X142114Y765702D01*
X142114Y845147D02*
X212396Y915428D01*
X142114Y845147D02*
X142114Y765702D01*
X322791Y873022D02*
X389617Y806195D01*
X547644Y470693D02*
X547644Y428610D01*
X547644Y470693D02*
X546632Y471705D01*
X711223Y506467D02*
X768072Y563316D01*
X711223Y506467D02*
X662319Y506467D01*
X808892Y764306D02*
X808892Y765375D01*
X745621Y685776D02*
X745621Y677612D01*
X808892Y765375D02*
X809189Y765476D01*
X745621Y677612D02*
X743651Y677263D01*
X745621Y685776D02*
X741539Y685776D01*
X745621Y685776D02*
X743651Y677263D01*
X743651Y640998D01*
X747791Y636858D01*
X747791Y612919D01*
X768072Y592638D01*
X768072Y563316D01*
X499830Y806195D02*
X555859Y862224D01*
X797998Y840427D02*
X797998Y824387D01*
X793955Y779243D02*
X808892Y764306D01*
X793955Y820344D02*
X797998Y824387D01*
X793955Y820344D02*
X793955Y779243D01*
X797998Y840427D02*
X776201Y862224D01*
X555859Y862224D01*
X499830Y806195D02*
X389617Y806195D01*
X790968Y747255D02*
X809189Y765476D01*
X790968Y747255D02*
X768707Y747255D01*
X762417Y740965D01*
X762417Y702572D01*
X745621Y685776D01*
X590505Y406159D02*
X584382Y406159D01*
X547644Y369421D01*
X541521Y369421D01*
X527234Y355134D01*
X590505Y406159D02*
X591425Y407479D01*
X527234Y355134D02*
X526483Y353179D01*
X506824Y391872D02*
X482332Y391872D01*
X506824Y391872D02*
X508865Y393913D01*
X517029Y393913D01*
X541521Y369421D01*
X482220Y390000D02*
X482332Y391872D01*
X184346Y916409D02*
X184346Y965393D01*
X184346Y916409D02*
X184396Y915428D01*
X184346Y965393D02*
X183287Y965665D01*
X253740Y920491D02*
X253740Y875589D01*
X253740Y920491D02*
X255781Y922532D01*
X253740Y875589D02*
X252920Y874103D01*
X255781Y922532D02*
X256960Y923048D01*
X237412Y367380D02*
X286396Y367380D01*
X237412Y367380D02*
X225166Y379626D01*
X286396Y367380D02*
X288000Y365780D01*
X225166Y379626D02*
X223500Y381150D01*
X122850Y615223D02*
X123116Y616382D01*
X167392Y800970D02*
X165977Y802113D01*
X547644Y540865D02*
X547644Y524537D01*
X546632Y523705D01*
X170059Y900081D02*
X31271Y900081D01*
X170059Y900081D02*
X184346Y914368D01*
X31271Y900081D02*
X30529Y900000D01*
X184346Y914368D02*
X184396Y915428D01*
X310888Y122460D02*
X343544Y122460D01*
X344313Y122774D01*
X592546Y408200D02*
X719088Y408200D01*
X721129Y410241D01*
X759908Y410241D01*
X788482Y381667D01*
X592546Y408200D02*
X591425Y407479D01*
X788482Y381667D02*
X788500Y381150D01*
D48*
X547644Y540865D03*
X310888Y122460D03*
D47*
X344313Y155742D02*
X335188Y164867D01*
X344313Y155742D02*
X344313Y122774D01*
X122850Y615223D02*
X114576Y623496D01*
X114576Y643942D01*
D49*
X114576Y643942D03*
D47*
X808892Y789867D02*
X827261Y789867D01*
X839507Y777621D01*
X808892Y789867D02*
X807929Y790055D01*
X839507Y777621D02*
X841071Y777583D01*
X743580Y728637D02*
X743580Y712309D01*
X743580Y728637D02*
X743651Y729263D01*
X853794Y877630D02*
X853794Y898040D01*
X853794Y877630D02*
X808892Y832728D01*
X853794Y898040D02*
X855323Y900000D01*
X808892Y832728D02*
X808182Y832407D01*
D48*
X743580Y712309D03*
D47*
X608874Y97968D02*
X608874Y81640D01*
X629284Y61230D01*
X608874Y97968D02*
X607481Y98358D01*
X629284Y61230D02*
X631112Y60270D01*
X427225Y91845D02*
X427225Y140829D01*
X423143Y144911D01*
X427225Y91845D02*
X427453Y90453D01*
X423143Y144911D02*
X423109Y144963D01*
X537439Y175526D02*
X537439Y216346D01*
X517029Y236756D01*
X537439Y175526D02*
X537699Y173758D01*
X517029Y236756D02*
X516971Y237414D01*
X551726Y283699D02*
X521111Y314314D01*
X472127Y314314D01*
X461922Y304109D01*
X461922Y291863D01*
X514988Y238797D01*
X551883Y283179D02*
X551726Y283699D01*
X516971Y237414D02*
X514988Y238797D01*
X608874Y81640D02*
X561931Y34697D01*
X561679Y32854D01*
X379002Y164867D02*
X360588Y164867D01*
X379002Y164867D02*
X380258Y163610D01*
D49*
X380258Y163610D03*
D47*
X137403Y677811D02*
X137403Y679653D01*
X137403Y677811D02*
X137403Y616382D01*
X135550Y615223D01*
X165977Y773539D02*
X167392Y775570D01*
X359872Y636792D02*
X363954Y636792D01*
X359872Y636792D02*
X349667Y646997D01*
X349667Y669448D01*
X361913Y681694D01*
X363954Y636792D02*
X364540Y635033D01*
X361913Y681694D02*
X363686Y681859D01*
X372118Y485758D02*
X327216Y485758D01*
X310888Y502086D01*
X310888Y532701D01*
X349667Y571480D01*
X351708Y571480D01*
X357831Y577603D01*
X378241Y577603D01*
X380282Y579644D01*
X380282Y593931D01*
X376200Y598013D01*
X353749Y598013D01*
X349667Y602095D01*
X349667Y626587D01*
X359872Y636792D01*
X372118Y485758D02*
X372500Y485000D01*
X364540Y635033D02*
X359872Y636792D01*
X339462Y679653D02*
X137403Y679653D01*
X339462Y679653D02*
X349667Y669448D01*
X535398Y522496D02*
X535398Y516373D01*
X542977Y508794D02*
X543562Y508209D01*
X542977Y508794D02*
X535398Y516373D01*
X543562Y508209D02*
X549685Y508209D01*
X554439Y512963D02*
X557849Y516373D01*
X554439Y512963D02*
X549685Y508209D01*
X557849Y516373D02*
X557849Y522496D01*
X535398Y522496D02*
X533932Y523705D01*
X557849Y522496D02*
X559332Y523705D01*
X563972Y434733D02*
X590505Y434733D01*
X591425Y435479D01*
X563972Y434733D02*
X562917Y435043D01*
X559890Y438815D02*
X559890Y471471D01*
X559890Y438815D02*
X561931Y436774D01*
X559890Y471471D02*
X559332Y471705D01*
X561931Y436774D02*
X562917Y435043D01*
X566274Y501129D02*
X554439Y512963D01*
X566274Y501129D02*
X581384Y501129D01*
X602751Y522496D01*
X610915Y522496D01*
X617038Y516373D02*
X623161Y510250D01*
X617038Y516373D02*
X610915Y522496D01*
X623161Y510250D02*
X623161Y457184D01*
X602751Y436774D01*
X592546Y436774D01*
X557849Y516373D02*
X559332Y523705D01*
X592546Y436774D02*
X591425Y435479D01*
X637430Y536765D02*
X663981Y563316D01*
X637430Y536765D02*
X617038Y516373D01*
X663981Y563316D02*
X663981Y575047D01*
X534228Y500045D02*
X498660Y500045D01*
X534228Y500045D02*
X542977Y508794D01*
X535398Y516373D02*
X533932Y523705D01*
D48*
X498660Y500045D03*
D47*
X190516Y755491D02*
X182992Y763015D01*
X180447Y763015D02*
X167392Y775570D01*
X180447Y763015D02*
X182992Y763015D01*
X190516Y755491D02*
X190516Y730924D01*
X137403Y677811D01*
X637430Y536765D02*
X643557Y530638D01*
X770113Y730678D02*
X780318Y730678D01*
X770113Y730678D02*
X769051Y729263D01*
X780318Y730678D02*
X781751Y729263D01*
X782359Y729871D02*
X782359Y743173D01*
X782359Y729871D02*
X781751Y729263D01*
X782359Y743173D02*
X827510Y743173D01*
X837892Y753555D01*
X679574Y576956D02*
X677665Y575047D01*
X663981Y575047D01*
X864531Y710902D02*
X864531Y726915D01*
X837892Y753555D01*
X657859Y530638D02*
X643557Y530638D01*
X837892Y753555D02*
X861071Y776734D01*
X861071Y777583D01*
X502742Y467389D02*
X484373Y467389D01*
X502742Y467389D02*
X506824Y471471D01*
X484373Y467389D02*
X482818Y466620D01*
X506824Y471471D02*
X508532Y471705D01*
X508865Y471471D02*
X521111Y471471D01*
X521232Y471705D01*
X508865Y471471D02*
X508532Y471705D01*
X563972Y561275D02*
X563972Y598013D01*
X549685Y612300D01*
X549685Y632710D01*
X537439Y644956D01*
X537439Y671489D01*
X563972Y561275D02*
X565602Y559432D01*
X515508Y671489D02*
X513214Y673783D01*
X515508Y671489D02*
X537439Y671489D01*
X539480Y673530D01*
X539480Y691549D01*
X540856Y692925D01*
X541521Y691899D02*
X539480Y691899D01*
X541521Y691899D02*
X542394Y691388D01*
X539480Y691549D02*
X539480Y691899D01*
X424626Y424528D02*
X378902Y378804D01*
X440726Y424528D02*
X482818Y466620D01*
X440726Y424528D02*
X424626Y424528D01*
X527866Y535975D02*
X529662Y537771D01*
X527866Y512003D02*
X525502Y509639D01*
X527866Y512003D02*
X527866Y535975D01*
X529662Y537771D02*
X535938Y537771D01*
X557598Y559432D01*
X565602Y559432D01*
X482818Y466620D02*
X470086Y479352D01*
X470086Y504127D01*
X475598Y509639D01*
X525502Y509639D01*
X180925Y528066D02*
X179517Y528066D01*
X180925Y528066D02*
X203425Y550566D01*
X118000Y466549D02*
X118000Y440000D01*
X118000Y466549D02*
X179517Y528066D01*
X852002Y479996D02*
X853794Y481676D01*
X853794Y479635D02*
X853794Y461266D01*
X852002Y459996D01*
X853794Y479635D02*
X852002Y479996D01*
X852756Y480638D02*
X657859Y480638D01*
X852756Y480638D02*
X853794Y481676D01*
X598669Y524537D02*
X586423Y524537D01*
X598669Y524537D02*
X631325Y557193D01*
X639489Y557193D01*
X649694Y567398D01*
X586423Y524537D02*
X584732Y523705D01*
X649694Y567398D02*
X651406Y568795D01*
X649694Y569439D02*
X649694Y604136D01*
X649284Y605694D01*
X649694Y569439D02*
X651406Y568795D01*
X633366Y663325D02*
X633366Y685776D01*
X633366Y663325D02*
X653776Y642915D01*
X633366Y685776D02*
X632547Y686424D01*
X653776Y642915D02*
X654711Y641405D01*
X365995Y614341D02*
X365995Y610259D01*
X365995Y614341D02*
X396610Y644956D01*
X396610Y675571D01*
X429266Y708227D01*
X365995Y610259D02*
X364540Y609573D01*
X649694Y606177D02*
X649694Y636792D01*
X653776Y640874D01*
X649694Y606177D02*
X649284Y605694D01*
X653776Y640874D02*
X654711Y641405D01*
X632547Y686424D02*
X610744Y708227D01*
X429266Y708227D01*
X349667Y873548D02*
X349667Y900081D01*
X333339Y916409D01*
X349667Y873548D02*
X350791Y873022D01*
X333339Y916409D02*
X332290Y918003D01*
X321093Y575562D02*
X349667Y575562D01*
X359872Y585767D01*
X363954Y585767D01*
X321093Y575562D02*
X320357Y574564D01*
X363954Y585767D02*
X364357Y587294D01*
X63927Y589849D02*
X35353Y589849D01*
X63927Y589849D02*
X76173Y602095D01*
X35353Y589849D02*
X33998Y589720D01*
X76173Y602095D02*
X77998Y602450D01*
X188428Y618423D02*
X188428Y630669D01*
X188428Y655161D01*
X187288Y656933D01*
X188428Y618423D02*
X187898Y617508D01*
X149649Y616382D02*
X149649Y622505D01*
X157813Y630669D01*
X188428Y630669D01*
X149649Y616382D02*
X148250Y615223D01*
X116993Y602095D02*
X78214Y602095D01*
X116993Y602095D02*
X119034Y600054D01*
X139444Y600054D01*
X147608Y608218D01*
X147608Y614341D01*
X78214Y602095D02*
X77998Y602450D01*
X147608Y614341D02*
X148250Y615223D01*
X229248Y575562D02*
X319052Y575562D01*
X229248Y575562D02*
X188428Y616382D01*
X319052Y575562D02*
X320357Y574564D01*
X188428Y616382D02*
X187898Y617508D01*
X604792Y642915D02*
X604792Y685776D01*
X604107Y686424D01*
X604792Y642915D02*
X604711Y641405D01*
X594587Y561275D02*
X619079Y561275D01*
X625202Y567398D01*
X594587Y561275D02*
X594042Y559432D01*
X625202Y567398D02*
X626006Y568795D01*
X572136Y538824D02*
X572136Y524537D01*
X572136Y538824D02*
X592546Y559234D01*
X572136Y524537D02*
X572032Y523705D01*
X592546Y559234D02*
X594042Y559432D01*
X625202Y569439D02*
X625202Y604136D01*
X623884Y605694D01*
X625202Y569439D02*
X626006Y568795D01*
X604792Y624546D02*
X604792Y640874D01*
X604792Y624546D02*
X623161Y606177D01*
X604792Y640874D02*
X604711Y641405D01*
X623161Y606177D02*
X623884Y605694D01*
X406815Y644956D02*
X406815Y671489D01*
X406815Y644956D02*
X408856Y642915D01*
X406815Y671489D02*
X406382Y672032D01*
X408856Y642915D02*
X409773Y641036D01*
X412938Y638833D02*
X445594Y638833D01*
X412938Y638833D02*
X410897Y640874D01*
X445594Y638833D02*
X447437Y638044D01*
X410897Y640874D02*
X409773Y641036D01*
X492537Y620464D02*
X504783Y620464D01*
X492537Y620464D02*
X457840Y655161D01*
X457840Y671489D01*
X504783Y620464D02*
X506739Y620383D01*
X457840Y671489D02*
X456382Y672032D01*
X408856Y536783D02*
X374159Y536783D01*
X408856Y536783D02*
X409972Y535847D01*
X374159Y536783D02*
X372500Y535000D01*
X506824Y524537D02*
X506824Y559234D01*
X506785Y560010D01*
X506824Y524537D02*
X508532Y523705D01*
X445594Y614341D02*
X410897Y614341D01*
X445594Y614341D02*
X447437Y612644D01*
X498660Y561275D02*
X504783Y561275D01*
X498660Y561275D02*
X447635Y612300D01*
X504783Y561275D02*
X506785Y560010D01*
X447635Y612300D02*
X447437Y612644D01*
X410897Y614341D02*
X410897Y536783D01*
X409972Y535847D01*
X410897Y614341D02*
X409773Y615636D01*
X408856Y508209D02*
X374159Y508209D01*
X408856Y508209D02*
X409972Y507407D01*
X374159Y508209D02*
X372500Y510000D01*
X372118Y510250D02*
X323134Y510250D01*
X321794Y509377D01*
X372118Y510250D02*
X372500Y510000D01*
X751744Y816400D02*
X766031Y802113D01*
X766031Y767416D01*
X743580Y744965D01*
X739498Y744965D01*
X731334Y736801D01*
X731334Y730678D01*
X751744Y816400D02*
X750408Y817607D01*
X731334Y730678D02*
X730951Y729263D01*
X670104Y789867D02*
X659899Y800072D01*
X670104Y789867D02*
X672145Y789867D01*
X688473Y773539D01*
X688473Y720473D01*
X702760Y706186D01*
X729293Y706186D01*
X731334Y708227D01*
X731334Y728637D01*
X659899Y800072D02*
X657392Y800970D01*
X730951Y729263D02*
X731334Y728637D01*
X592546Y481676D02*
X604792Y469430D01*
X592546Y481676D02*
X592546Y483717D01*
X588464Y487799D01*
X582341Y487799D01*
X572136Y477594D01*
X572136Y473512D01*
X604792Y469430D02*
X606637Y468766D01*
X572032Y471705D02*
X572136Y473512D01*
X555808Y493922D02*
X484373Y493922D01*
X555808Y493922D02*
X572136Y477594D01*
X484373Y493922D02*
X482818Y495060D01*
X572136Y477594D02*
X572032Y471705D01*
X606833Y491881D02*
X606833Y495963D01*
X606833Y491881D02*
X619079Y479635D01*
X619079Y459225D01*
X617038Y457184D01*
X596628Y457184D01*
X586423Y467389D01*
X586423Y471471D01*
X606833Y495963D02*
X606637Y497206D01*
X586423Y471471D02*
X584732Y471705D01*
X606833Y498004D02*
X606833Y516373D01*
X606833Y498004D02*
X606637Y497206D01*
D48*
X606833Y516373D03*
D47*
X570095Y618423D02*
X543562Y644956D01*
X570095Y618423D02*
X570095Y614341D01*
X570910Y613850D01*
X543562Y664116D02*
X570834Y691388D01*
X543562Y664116D02*
X543562Y644956D01*
X319052Y620464D02*
X296601Y620464D01*
X276191Y600054D01*
X319052Y620464D02*
X320540Y622303D01*
X276191Y600054D02*
X276089Y598484D01*
X239453Y616382D02*
X217002Y616382D01*
X239453Y616382D02*
X255781Y600054D01*
X217002Y616382D02*
X216338Y617508D01*
X255781Y600054D02*
X256089Y598484D01*
X353749Y561275D02*
X363954Y561275D01*
X353749Y561275D02*
X323134Y530660D01*
X363954Y561275D02*
X364357Y561834D01*
X323134Y530660D02*
X321794Y529377D01*
X319052Y667407D02*
X282314Y667407D01*
X274150Y659243D01*
X319052Y667407D02*
X319686Y669129D01*
X274150Y659243D02*
X273939Y658477D01*
X253740Y657202D02*
X217002Y657202D01*
X215728Y656933D01*
X253740Y657202D02*
X253939Y658477D01*
X468045Y820482D02*
X468045Y869466D01*
X468045Y820482D02*
X467500Y820000D01*
X468045Y869466D02*
X467392Y869888D01*
X443553Y869466D02*
X443553Y820482D01*
X442500Y820000D01*
X443553Y869466D02*
X441992Y869888D01*
X419061Y869466D02*
X419061Y820482D01*
X417500Y820000D01*
X419061Y869466D02*
X416592Y869888D01*
X572136Y640874D02*
X570910Y639250D01*
X657858Y751088D02*
X657858Y773539D01*
X657858Y751088D02*
X657392Y750170D01*
X657858Y773539D02*
X657392Y775570D01*
M02*
