M48
;GenerationSoftware,Autodesk,EAGLE,9.2.2*%
;CreationDate,2019-03-12T13:45:34Z*%
FMAT,2
ICI,OFF
METRIC,TZ,000.000
T14C0.300
T13C0.350
T12C0.635
T11C0.800
T10C0.813
T9C0.900
T8C0.914
T7C1.000
T6C1.016
T5C1.118
T4C1.250
T3C1.300
T2C2.000
T1C2.800
%
G90
M71
T1
X83800Y7450
X4700Y7450
X77800Y96000
X10800Y96000
T2
X44250Y46600
X9900Y51000
X74200Y57000
X74200Y45000
X48650Y75000
X39850Y75000
X18700Y51000
X44250Y55400
T3
X78850Y38115
X14680Y13500
X17880Y13500
X21080Y13500
X66150Y21885
X66150Y38115
X36452Y95843
X36452Y93236
X60647Y3285
X47108Y3285
X22350Y38115
X47778Y34370
X43485Y34337
X22350Y21885
X21080Y16500
X17880Y16500
X14680Y16500
X9650Y21885
X9650Y38115
X78850Y21885
T4
X12180Y12000
X23580Y18000
T5
X16739Y80097
X65739Y80097
X65739Y77557
X65739Y75017
X16739Y77557
X16739Y75017
X76870Y3467
X76870Y6007
X76870Y8547
X76870Y11087
X76870Y13627
X76870Y16167
X41659Y86989
X44199Y86989
X46739Y86989
T6
X43529Y30037
X47778Y30033
X51587Y3285
X56168Y3285
X33229Y91800
X33229Y97330
T7
X85200Y46000
X85200Y56000
X85200Y54000
X85200Y52000
X85200Y50000
X85200Y48000
X37250Y53500
X37250Y51000
X37250Y48500
X44250Y75000
X44250Y51000
X74200Y51000
X14300Y51000
X46750Y82000
X11800Y44000
X44250Y82000
X41750Y82000
X16800Y44000
X14300Y44000
T8
X57091Y66465
X57091Y63925
X57091Y61385
T9
X33256Y2071
X35796Y2071
X28236Y92305
X25696Y92305
X64928Y60569
X62388Y60569
X62601Y56879
X65141Y56879
X44744Y63804
X44744Y61264
X40977Y61564
X40977Y64104
T10
X51697Y23741
X49792Y22471
X51697Y21201
T11
X18329Y96566
X20329Y96566
X25609Y59848
X27609Y59848
X81255Y63534
X83255Y63534
X84107Y77758
X86107Y77758
X80818Y83241
X78818Y83241
X27394Y65848
X25394Y65848
X20343Y57057
X20343Y55057
X37890Y37880
X35890Y37880
X27604Y96582
X25604Y96582
X40311Y14496
X42311Y14496
X32179Y50938
X32179Y52938
T12
X45638Y67203
X40638Y67203
X47756Y64863
X52756Y64863
X83291Y59275
X78291Y59275
X75225Y76676
X70225Y76676
X60471Y64141
X65471Y64141
X51372Y43446
X51372Y38446
X65786Y53064
X65786Y48064
T13
X38026Y16361
X11458Y64394
X73121Y60861
T14
X60683Y51637
X49866Y50004
X74358Y71231
X31089Y12246
X54764Y54086
X81706Y66537
X72521Y71231
M30