G04 EAGLE Gerber X2 export*
%TF.Part,Single*%
%TF.FileFunction,Profile,NP*%
%TF.FilePolarity,Positive*%
%TF.GenerationSoftware,Autodesk,EAGLE,9.2.2*%
%TF.CreationDate,2019-03-12T13:45:35Z*%
G75*
%MOMM*%
%FSLAX34Y34*%
%LPD*%
%IN*%
%AMOC8*
5,1,8,0,0,1.08239X$1,22.5*%
G01*
%ADD10C,0.254000*%


D10*
X0Y50800D02*
X1100Y50800D01*
X18000Y38900D01*
X18000Y0D01*
X437500Y0D01*
X437500Y5000D01*
X447500Y5000D01*
X447500Y0D01*
X868000Y0D01*
X868000Y38900D01*
X885000Y50800D01*
X885000Y495000D01*
X880000Y495000D01*
X880000Y505000D01*
X884875Y505000D01*
X885000Y505100D01*
X885000Y920000D01*
X810000Y920000D01*
X810000Y1000000D01*
X513000Y1000000D01*
X513000Y980000D01*
X493000Y980000D01*
X493000Y900000D01*
X447500Y900000D01*
X447500Y895000D01*
X437500Y895000D01*
X437500Y900000D01*
X392000Y900000D01*
X392000Y980000D01*
X372000Y980000D01*
X372000Y1000000D01*
X75000Y1000000D01*
X75000Y920000D01*
X0Y920000D01*
X0Y505000D01*
X5000Y505000D01*
X5000Y495000D01*
X0Y495000D01*
X0Y50800D01*
X143281Y505000D02*
X143839Y505063D01*
X144386Y505188D01*
X144916Y505373D01*
X145422Y505617D01*
X145898Y505916D01*
X146337Y506266D01*
X146734Y506663D01*
X147084Y507102D01*
X147383Y507578D01*
X147627Y508084D01*
X147812Y508614D01*
X147937Y509161D01*
X148000Y509719D01*
X148000Y510281D01*
X147937Y510839D01*
X147812Y511386D01*
X147627Y511916D01*
X147383Y512422D01*
X147084Y512898D01*
X146734Y513337D01*
X146337Y513734D01*
X145898Y514084D01*
X145422Y514383D01*
X144916Y514627D01*
X144386Y514812D01*
X143839Y514937D01*
X143281Y515000D01*
X142719Y515000D01*
X142161Y514937D01*
X141614Y514812D01*
X141084Y514627D01*
X140578Y514383D01*
X140102Y514084D01*
X139663Y513734D01*
X139266Y513337D01*
X138916Y512898D01*
X138617Y512422D01*
X138373Y511916D01*
X138188Y511386D01*
X138063Y510839D01*
X138000Y510281D01*
X138000Y509719D01*
X138063Y509161D01*
X138188Y508614D01*
X138373Y508084D01*
X138617Y507578D01*
X138916Y507102D01*
X139266Y506663D01*
X139663Y506266D01*
X140102Y505916D01*
X140578Y505617D01*
X141084Y505373D01*
X141614Y505188D01*
X142161Y505063D01*
X142719Y505000D01*
X143281Y505000D01*
X742283Y504996D02*
X742841Y505059D01*
X743388Y505184D01*
X743918Y505370D01*
X744424Y505613D01*
X744900Y505912D01*
X745339Y506262D01*
X745736Y506660D01*
X746086Y507099D01*
X746385Y507574D01*
X746629Y508080D01*
X746814Y508610D01*
X746939Y509158D01*
X747002Y509716D01*
X747002Y510277D01*
X746939Y510835D01*
X746814Y511383D01*
X746629Y511913D01*
X746385Y512419D01*
X746086Y512894D01*
X745736Y513333D01*
X745339Y513731D01*
X744900Y514081D01*
X744424Y514379D01*
X743918Y514623D01*
X743388Y514809D01*
X742841Y514934D01*
X742283Y514996D01*
X741721Y514996D01*
X741163Y514934D01*
X740615Y514809D01*
X740085Y514623D01*
X739579Y514379D01*
X739104Y514081D01*
X738665Y513731D01*
X738268Y513333D01*
X737918Y512894D01*
X737619Y512419D01*
X737375Y511913D01*
X737190Y511383D01*
X737065Y510835D01*
X737002Y510277D01*
X737002Y509716D01*
X737065Y509158D01*
X737190Y508610D01*
X737375Y508080D01*
X737619Y507574D01*
X737918Y507099D01*
X738268Y506660D01*
X738665Y506262D01*
X739104Y505912D01*
X739579Y505613D01*
X740085Y505370D01*
X740615Y505184D01*
X741163Y505059D01*
X741721Y504996D01*
X742283Y504996D01*
X128050Y119649D02*
X127971Y118951D01*
X127815Y118267D01*
X127583Y117604D01*
X127279Y116972D01*
X126905Y116378D01*
X126468Y115829D01*
X125971Y115332D01*
X125422Y114895D01*
X124828Y114521D01*
X124196Y114217D01*
X123533Y113985D01*
X122849Y113829D01*
X122151Y113750D01*
X121449Y113750D01*
X120751Y113829D01*
X120067Y113985D01*
X119404Y114217D01*
X118772Y114521D01*
X118178Y114895D01*
X117629Y115332D01*
X117132Y115829D01*
X116695Y116378D01*
X116321Y116972D01*
X116017Y117604D01*
X115785Y118267D01*
X115629Y118951D01*
X115550Y119649D01*
X115550Y120351D01*
X115629Y121049D01*
X115785Y121733D01*
X116017Y122396D01*
X116321Y123028D01*
X116695Y123622D01*
X117132Y124171D01*
X117629Y124668D01*
X118178Y125105D01*
X118772Y125479D01*
X119404Y125783D01*
X120067Y126015D01*
X120751Y126171D01*
X121449Y126250D01*
X122151Y126250D01*
X122849Y126171D01*
X123533Y126015D01*
X124196Y125783D01*
X124828Y125479D01*
X125422Y125105D01*
X125971Y124668D01*
X126468Y124171D01*
X126905Y123622D01*
X127279Y123028D01*
X127583Y122396D01*
X127815Y121733D01*
X127971Y121049D01*
X128050Y120351D01*
X128050Y119649D01*
X242050Y179649D02*
X241971Y178951D01*
X241815Y178267D01*
X241583Y177604D01*
X241279Y176972D01*
X240905Y176378D01*
X240468Y175829D01*
X239971Y175332D01*
X239422Y174895D01*
X238828Y174521D01*
X238196Y174217D01*
X237533Y173985D01*
X236849Y173829D01*
X236151Y173750D01*
X235449Y173750D01*
X234751Y173829D01*
X234067Y173985D01*
X233404Y174217D01*
X232772Y174521D01*
X232178Y174895D01*
X231629Y175332D01*
X231132Y175829D01*
X230695Y176378D01*
X230321Y176972D01*
X230017Y177604D01*
X229785Y178267D01*
X229629Y178951D01*
X229550Y179649D01*
X229550Y180351D01*
X229629Y181049D01*
X229785Y181733D01*
X230017Y182396D01*
X230321Y183028D01*
X230695Y183622D01*
X231132Y184171D01*
X231629Y184668D01*
X232178Y185105D01*
X232772Y185479D01*
X233404Y185783D01*
X234067Y186015D01*
X234751Y186171D01*
X235449Y186250D01*
X236151Y186250D01*
X236849Y186171D01*
X237533Y186015D01*
X238196Y185783D01*
X238828Y185479D01*
X239422Y185105D01*
X239971Y184668D01*
X240468Y184171D01*
X240905Y183622D01*
X241279Y183028D01*
X241583Y182396D01*
X241815Y181733D01*
X241971Y181049D01*
X242050Y180351D01*
X242050Y179649D01*
X122000Y959500D02*
X121929Y958503D01*
X121786Y957513D01*
X121574Y956536D01*
X121292Y955576D01*
X120943Y954639D01*
X120527Y953729D01*
X120048Y952852D01*
X119507Y952010D01*
X118908Y951210D01*
X118253Y950454D01*
X117546Y949747D01*
X116790Y949092D01*
X115990Y948493D01*
X115148Y947952D01*
X114271Y947473D01*
X113361Y947057D01*
X112424Y946708D01*
X111465Y946426D01*
X110487Y946214D01*
X109498Y946071D01*
X108500Y946000D01*
X107500Y946000D01*
X106503Y946071D01*
X105513Y946214D01*
X104536Y946426D01*
X103576Y946708D01*
X102639Y947057D01*
X101729Y947473D01*
X100852Y947952D01*
X100010Y948493D01*
X99210Y949092D01*
X98454Y949747D01*
X97747Y950454D01*
X97092Y951210D01*
X96493Y952010D01*
X95952Y952852D01*
X95473Y953729D01*
X95057Y954639D01*
X94708Y955576D01*
X94426Y956536D01*
X94214Y957513D01*
X94071Y958503D01*
X94000Y959500D01*
X94000Y960500D01*
X94071Y961498D01*
X94214Y962487D01*
X94426Y963465D01*
X94708Y964424D01*
X95057Y965361D01*
X95473Y966271D01*
X95952Y967148D01*
X96493Y967990D01*
X97092Y968790D01*
X97747Y969546D01*
X98454Y970253D01*
X99210Y970908D01*
X100010Y971507D01*
X100852Y972048D01*
X101729Y972527D01*
X102639Y972943D01*
X103576Y973292D01*
X104536Y973574D01*
X105513Y973786D01*
X106503Y973929D01*
X107500Y974000D01*
X108500Y974000D01*
X109498Y973929D01*
X110487Y973786D01*
X111465Y973574D01*
X112424Y973292D01*
X113361Y972943D01*
X114271Y972527D01*
X115148Y972048D01*
X115990Y971507D01*
X116790Y970908D01*
X117546Y970253D01*
X118253Y969546D01*
X118908Y968790D01*
X119507Y967990D01*
X120048Y967148D01*
X120527Y966271D01*
X120943Y965361D01*
X121292Y964424D01*
X121574Y963465D01*
X121786Y962487D01*
X121929Y961498D01*
X122000Y960500D01*
X122000Y959500D01*
X792000Y959500D02*
X791929Y958503D01*
X791786Y957513D01*
X791574Y956536D01*
X791292Y955576D01*
X790943Y954639D01*
X790527Y953729D01*
X790048Y952852D01*
X789507Y952010D01*
X788908Y951210D01*
X788253Y950454D01*
X787546Y949747D01*
X786790Y949092D01*
X785990Y948493D01*
X785148Y947952D01*
X784271Y947473D01*
X783361Y947057D01*
X782424Y946708D01*
X781465Y946426D01*
X780487Y946214D01*
X779498Y946071D01*
X778500Y946000D01*
X777500Y946000D01*
X776503Y946071D01*
X775513Y946214D01*
X774536Y946426D01*
X773576Y946708D01*
X772639Y947057D01*
X771729Y947473D01*
X770852Y947952D01*
X770010Y948493D01*
X769210Y949092D01*
X768454Y949747D01*
X767747Y950454D01*
X767092Y951210D01*
X766493Y952010D01*
X765952Y952852D01*
X765473Y953729D01*
X765057Y954639D01*
X764708Y955576D01*
X764426Y956536D01*
X764214Y957513D01*
X764071Y958503D01*
X764000Y959500D01*
X764000Y960500D01*
X764071Y961498D01*
X764214Y962487D01*
X764426Y963465D01*
X764708Y964424D01*
X765057Y965361D01*
X765473Y966271D01*
X765952Y967148D01*
X766493Y967990D01*
X767092Y968790D01*
X767747Y969546D01*
X768454Y970253D01*
X769210Y970908D01*
X770010Y971507D01*
X770852Y972048D01*
X771729Y972527D01*
X772639Y972943D01*
X773576Y973292D01*
X774536Y973574D01*
X775513Y973786D01*
X776503Y973929D01*
X777500Y974000D01*
X778500Y974000D01*
X779498Y973929D01*
X780487Y973786D01*
X781465Y973574D01*
X782424Y973292D01*
X783361Y972943D01*
X784271Y972527D01*
X785148Y972048D01*
X785990Y971507D01*
X786790Y970908D01*
X787546Y970253D01*
X788253Y969546D01*
X788908Y968790D01*
X789507Y967990D01*
X790048Y967148D01*
X790527Y966271D01*
X790943Y965361D01*
X791292Y964424D01*
X791574Y963465D01*
X791786Y962487D01*
X791929Y961498D01*
X792000Y960500D01*
X792000Y959500D01*
X61000Y74000D02*
X60929Y73003D01*
X60786Y72013D01*
X60574Y71036D01*
X60292Y70076D01*
X59943Y69139D01*
X59527Y68229D01*
X59048Y67352D01*
X58507Y66510D01*
X57908Y65710D01*
X57253Y64954D01*
X56546Y64247D01*
X55790Y63592D01*
X54990Y62993D01*
X54148Y62452D01*
X53271Y61973D01*
X52361Y61557D01*
X51424Y61208D01*
X50465Y60926D01*
X49487Y60714D01*
X48498Y60571D01*
X47500Y60500D01*
X46500Y60500D01*
X45503Y60571D01*
X44513Y60714D01*
X43536Y60926D01*
X42576Y61208D01*
X41639Y61557D01*
X40729Y61973D01*
X39852Y62452D01*
X39010Y62993D01*
X38210Y63592D01*
X37454Y64247D01*
X36747Y64954D01*
X36092Y65710D01*
X35493Y66510D01*
X34952Y67352D01*
X34473Y68229D01*
X34057Y69139D01*
X33708Y70076D01*
X33426Y71036D01*
X33214Y72013D01*
X33071Y73003D01*
X33000Y74000D01*
X33000Y75000D01*
X33071Y75998D01*
X33214Y76987D01*
X33426Y77965D01*
X33708Y78924D01*
X34057Y79861D01*
X34473Y80771D01*
X34952Y81648D01*
X35493Y82490D01*
X36092Y83290D01*
X36747Y84046D01*
X37454Y84753D01*
X38210Y85408D01*
X39010Y86007D01*
X39852Y86548D01*
X40729Y87027D01*
X41639Y87443D01*
X42576Y87792D01*
X43536Y88074D01*
X44513Y88286D01*
X45503Y88429D01*
X46500Y88500D01*
X47500Y88500D01*
X48498Y88429D01*
X49487Y88286D01*
X50465Y88074D01*
X51424Y87792D01*
X52361Y87443D01*
X53271Y87027D01*
X54148Y86548D01*
X54990Y86007D01*
X55790Y85408D01*
X56546Y84753D01*
X57253Y84046D01*
X57908Y83290D01*
X58507Y82490D01*
X59048Y81648D01*
X59527Y80771D01*
X59943Y79861D01*
X60292Y78924D01*
X60574Y77965D01*
X60786Y76987D01*
X60929Y75998D01*
X61000Y75000D01*
X61000Y74000D01*
X852000Y74000D02*
X851929Y73003D01*
X851786Y72013D01*
X851574Y71036D01*
X851292Y70076D01*
X850943Y69139D01*
X850527Y68229D01*
X850048Y67352D01*
X849507Y66510D01*
X848908Y65710D01*
X848253Y64954D01*
X847546Y64247D01*
X846790Y63592D01*
X845990Y62993D01*
X845148Y62452D01*
X844271Y61973D01*
X843361Y61557D01*
X842424Y61208D01*
X841465Y60926D01*
X840487Y60714D01*
X839498Y60571D01*
X838500Y60500D01*
X837500Y60500D01*
X836503Y60571D01*
X835513Y60714D01*
X834536Y60926D01*
X833576Y61208D01*
X832639Y61557D01*
X831729Y61973D01*
X830852Y62452D01*
X830010Y62993D01*
X829210Y63592D01*
X828454Y64247D01*
X827747Y64954D01*
X827092Y65710D01*
X826493Y66510D01*
X825952Y67352D01*
X825473Y68229D01*
X825057Y69139D01*
X824708Y70076D01*
X824426Y71036D01*
X824214Y72013D01*
X824071Y73003D01*
X824000Y74000D01*
X824000Y75000D01*
X824071Y75998D01*
X824214Y76987D01*
X824426Y77965D01*
X824708Y78924D01*
X825057Y79861D01*
X825473Y80771D01*
X825952Y81648D01*
X826493Y82490D01*
X827092Y83290D01*
X827747Y84046D01*
X828454Y84753D01*
X829210Y85408D01*
X830010Y86007D01*
X830852Y86548D01*
X831729Y87027D01*
X832639Y87443D01*
X833576Y87792D01*
X834536Y88074D01*
X835513Y88286D01*
X836503Y88429D01*
X837500Y88500D01*
X838500Y88500D01*
X839498Y88429D01*
X840487Y88286D01*
X841465Y88074D01*
X842424Y87792D01*
X843361Y87443D01*
X844271Y87027D01*
X845148Y86548D01*
X845990Y86007D01*
X846790Y85408D01*
X847546Y84753D01*
X848253Y84046D01*
X848908Y83290D01*
X849507Y82490D01*
X850048Y81648D01*
X850527Y80771D01*
X850943Y79861D01*
X851292Y78924D01*
X851574Y77965D01*
X851786Y76987D01*
X851929Y75998D01*
X852000Y75000D01*
X852000Y74000D01*
X371020Y958112D02*
X370957Y957476D01*
X370833Y956850D01*
X370647Y956239D01*
X370403Y955649D01*
X370102Y955086D01*
X369747Y954555D01*
X369342Y954061D01*
X368890Y953609D01*
X368397Y953204D01*
X367866Y952849D01*
X367302Y952548D01*
X366712Y952304D01*
X366101Y952119D01*
X365475Y951994D01*
X364839Y951931D01*
X364201Y951931D01*
X363565Y951994D01*
X362939Y952119D01*
X362327Y952304D01*
X361737Y952548D01*
X361174Y952849D01*
X360643Y953204D01*
X360149Y953609D01*
X359698Y954061D01*
X359293Y954555D01*
X358938Y955086D01*
X358637Y955649D01*
X358392Y956239D01*
X358207Y956850D01*
X358082Y957476D01*
X358020Y958112D01*
X358020Y958751D01*
X358082Y959386D01*
X358207Y960013D01*
X358392Y960624D01*
X358637Y961214D01*
X358938Y961777D01*
X359293Y962308D01*
X359698Y962802D01*
X360149Y963253D01*
X360643Y963658D01*
X361174Y964013D01*
X361737Y964314D01*
X362327Y964559D01*
X362939Y964744D01*
X363565Y964869D01*
X364201Y964931D01*
X364839Y964931D01*
X365475Y964869D01*
X366101Y964744D01*
X366712Y964559D01*
X367302Y964314D01*
X367866Y964013D01*
X368397Y963658D01*
X368890Y963253D01*
X369342Y962802D01*
X369747Y962308D01*
X370102Y961777D01*
X370403Y961214D01*
X370647Y960624D01*
X370833Y960013D01*
X370957Y959386D01*
X371020Y958751D01*
X371020Y958112D01*
X371020Y932040D02*
X370957Y931404D01*
X370833Y930778D01*
X370647Y930167D01*
X370403Y929577D01*
X370102Y929013D01*
X369747Y928482D01*
X369342Y927989D01*
X368890Y927537D01*
X368397Y927132D01*
X367866Y926777D01*
X367302Y926476D01*
X366712Y926232D01*
X366101Y926046D01*
X365475Y925922D01*
X364839Y925859D01*
X364201Y925859D01*
X363565Y925922D01*
X362939Y926046D01*
X362327Y926232D01*
X361737Y926476D01*
X361174Y926777D01*
X360643Y927132D01*
X360149Y927537D01*
X359698Y927989D01*
X359293Y928482D01*
X358938Y929013D01*
X358637Y929577D01*
X358392Y930167D01*
X358207Y930778D01*
X358082Y931404D01*
X358020Y932040D01*
X358020Y932678D01*
X358082Y933314D01*
X358207Y933940D01*
X358392Y934552D01*
X358637Y935142D01*
X358938Y935705D01*
X359293Y936236D01*
X359698Y936730D01*
X360149Y937181D01*
X360643Y937586D01*
X361174Y937941D01*
X361737Y938242D01*
X362327Y938487D01*
X362939Y938672D01*
X363565Y938797D01*
X364201Y938859D01*
X364839Y938859D01*
X365475Y938797D01*
X366101Y938672D01*
X366712Y938487D01*
X367302Y938242D01*
X367866Y937941D01*
X368397Y937586D01*
X368890Y937181D01*
X369342Y936730D01*
X369747Y936236D01*
X370102Y935705D01*
X370403Y935142D01*
X370647Y934552D01*
X370833Y933940D01*
X370957Y933314D01*
X371020Y932678D01*
X371020Y932040D01*
X612969Y32535D02*
X612906Y31900D01*
X612782Y31273D01*
X612596Y30662D01*
X612352Y30072D01*
X612051Y29509D01*
X611696Y28978D01*
X611291Y28484D01*
X610839Y28032D01*
X610346Y27627D01*
X609815Y27272D01*
X609251Y26971D01*
X608661Y26727D01*
X608050Y26542D01*
X607424Y26417D01*
X606788Y26354D01*
X606150Y26354D01*
X605514Y26417D01*
X604888Y26542D01*
X604277Y26727D01*
X603687Y26971D01*
X603123Y27272D01*
X602592Y27627D01*
X602099Y28032D01*
X601647Y28484D01*
X601242Y28978D01*
X600887Y29509D01*
X600586Y30072D01*
X600342Y30662D01*
X600156Y31273D01*
X600032Y31900D01*
X599969Y32535D01*
X599969Y33174D01*
X600032Y33809D01*
X600156Y34436D01*
X600342Y35047D01*
X600586Y35637D01*
X600887Y36200D01*
X601242Y36731D01*
X601647Y37225D01*
X602099Y37676D01*
X602592Y38082D01*
X603123Y38436D01*
X603687Y38737D01*
X604277Y38982D01*
X604888Y39167D01*
X605514Y39292D01*
X606150Y39354D01*
X606788Y39354D01*
X607424Y39292D01*
X608050Y39167D01*
X608661Y38982D01*
X609251Y38737D01*
X609815Y38436D01*
X610346Y38082D01*
X610839Y37676D01*
X611291Y37225D01*
X611696Y36731D01*
X612051Y36200D01*
X612352Y35637D01*
X612596Y35047D01*
X612782Y34436D01*
X612906Y33809D01*
X612969Y33174D01*
X612969Y32535D01*
X477584Y32535D02*
X477521Y31900D01*
X477397Y31273D01*
X477211Y30662D01*
X476967Y30072D01*
X476666Y29509D01*
X476311Y28978D01*
X475906Y28484D01*
X475454Y28032D01*
X474961Y27627D01*
X474430Y27272D01*
X473866Y26971D01*
X473276Y26727D01*
X472665Y26542D01*
X472039Y26417D01*
X471403Y26354D01*
X470765Y26354D01*
X470129Y26417D01*
X469503Y26542D01*
X468892Y26727D01*
X468302Y26971D01*
X467738Y27272D01*
X467207Y27627D01*
X466714Y28032D01*
X466262Y28484D01*
X465857Y28978D01*
X465502Y29509D01*
X465201Y30072D01*
X464957Y30662D01*
X464771Y31273D01*
X464647Y31900D01*
X464584Y32535D01*
X464584Y33174D01*
X464647Y33809D01*
X464771Y34436D01*
X464957Y35047D01*
X465201Y35637D01*
X465502Y36200D01*
X465857Y36731D01*
X466262Y37225D01*
X466714Y37676D01*
X467207Y38082D01*
X467738Y38436D01*
X468302Y38737D01*
X468892Y38982D01*
X469503Y39167D01*
X470129Y39292D01*
X470765Y39354D01*
X471403Y39354D01*
X472039Y39292D01*
X472665Y39167D01*
X473276Y38982D01*
X473866Y38737D01*
X474430Y38436D01*
X474961Y38082D01*
X475454Y37676D01*
X475906Y37225D01*
X476311Y36731D01*
X476666Y36200D01*
X476967Y35637D01*
X477211Y35047D01*
X477397Y34436D01*
X477521Y33809D01*
X477584Y33174D01*
X477584Y32535D01*
X437500Y510281D02*
X437563Y510839D01*
X437688Y511386D01*
X437873Y511916D01*
X438117Y512422D01*
X438416Y512898D01*
X438766Y513337D01*
X439163Y513734D01*
X439602Y514084D01*
X440078Y514383D01*
X440584Y514627D01*
X441114Y514812D01*
X441661Y514937D01*
X442219Y515000D01*
X442781Y515000D01*
X443339Y514937D01*
X443886Y514812D01*
X444416Y514627D01*
X444922Y514383D01*
X445398Y514084D01*
X445837Y513734D01*
X446234Y513337D01*
X446584Y512898D01*
X446883Y512422D01*
X447127Y511916D01*
X447312Y511386D01*
X447437Y510839D01*
X447500Y510281D01*
X447500Y509719D01*
X447437Y509161D01*
X447312Y508614D01*
X447127Y508084D01*
X446883Y507578D01*
X446584Y507102D01*
X446234Y506663D01*
X445837Y506266D01*
X445398Y505916D01*
X444922Y505617D01*
X444416Y505373D01*
X443886Y505188D01*
X443339Y505063D01*
X442781Y505000D01*
X442219Y505000D01*
X441661Y505063D01*
X441114Y505188D01*
X440584Y505373D01*
X440078Y505617D01*
X439602Y505916D01*
X439163Y506266D01*
X438766Y506663D01*
X438416Y507102D01*
X438117Y507578D01*
X437873Y508084D01*
X437688Y508614D01*
X437563Y509161D01*
X437500Y509719D01*
X437500Y510281D01*
X484280Y343382D02*
X484218Y342746D01*
X484093Y342120D01*
X483908Y341509D01*
X483663Y340919D01*
X483362Y340355D01*
X483007Y339824D01*
X482602Y339331D01*
X482151Y338879D01*
X481657Y338474D01*
X481126Y338119D01*
X480563Y337818D01*
X479973Y337574D01*
X479361Y337388D01*
X478735Y337264D01*
X478099Y337201D01*
X477461Y337201D01*
X476825Y337264D01*
X476199Y337388D01*
X475588Y337574D01*
X474998Y337818D01*
X474434Y338119D01*
X473903Y338474D01*
X473410Y338879D01*
X472958Y339331D01*
X472553Y339824D01*
X472198Y340355D01*
X471897Y340919D01*
X471653Y341509D01*
X471467Y342120D01*
X471343Y342746D01*
X471280Y343382D01*
X471280Y344020D01*
X471343Y344656D01*
X471467Y345282D01*
X471653Y345894D01*
X471897Y346484D01*
X472198Y347047D01*
X472553Y347578D01*
X472958Y348072D01*
X473410Y348523D01*
X473903Y348928D01*
X474434Y349283D01*
X474998Y349584D01*
X475588Y349829D01*
X476199Y350014D01*
X476825Y350139D01*
X477461Y350201D01*
X478099Y350201D01*
X478735Y350139D01*
X479361Y350014D01*
X479973Y349829D01*
X480563Y349584D01*
X481126Y349283D01*
X481657Y348928D01*
X482151Y348523D01*
X482602Y348072D01*
X483007Y347578D01*
X483362Y347047D01*
X483663Y346484D01*
X483908Y345894D01*
X484093Y345282D01*
X484218Y344656D01*
X484280Y344020D01*
X484280Y343382D01*
X441355Y343051D02*
X441292Y342415D01*
X441168Y341789D01*
X440982Y341178D01*
X440738Y340588D01*
X440437Y340025D01*
X440082Y339494D01*
X439677Y339000D01*
X439225Y338548D01*
X438732Y338143D01*
X438201Y337788D01*
X437637Y337487D01*
X437047Y337243D01*
X436436Y337057D01*
X435810Y336933D01*
X435174Y336870D01*
X434536Y336870D01*
X433900Y336933D01*
X433274Y337057D01*
X432663Y337243D01*
X432073Y337487D01*
X431509Y337788D01*
X430978Y338143D01*
X430485Y338548D01*
X430033Y339000D01*
X429628Y339494D01*
X429273Y340025D01*
X428972Y340588D01*
X428728Y341178D01*
X428542Y341789D01*
X428418Y342415D01*
X428355Y343051D01*
X428355Y343690D01*
X428418Y344325D01*
X428542Y344952D01*
X428728Y345563D01*
X428972Y346153D01*
X429273Y346716D01*
X429628Y347247D01*
X430033Y347741D01*
X430485Y348192D01*
X430978Y348597D01*
X431509Y348952D01*
X432073Y349253D01*
X432663Y349498D01*
X433274Y349683D01*
X433900Y349808D01*
X434536Y349870D01*
X435174Y349870D01*
X435810Y349808D01*
X436436Y349683D01*
X437047Y349498D01*
X437637Y349253D01*
X438201Y348952D01*
X438732Y348597D01*
X439225Y348192D01*
X439677Y347741D01*
X440082Y347247D01*
X440437Y346716D01*
X440738Y346153D01*
X440982Y345563D01*
X441168Y344952D01*
X441292Y344325D01*
X441355Y343690D01*
X441355Y343051D01*
X447500Y749719D02*
X447437Y749161D01*
X447312Y748614D01*
X447127Y748084D01*
X446883Y747578D01*
X446584Y747102D01*
X446234Y746663D01*
X445837Y746266D01*
X445398Y745916D01*
X444922Y745617D01*
X444416Y745373D01*
X443886Y745188D01*
X443339Y745063D01*
X442781Y745000D01*
X442219Y745000D01*
X441661Y745063D01*
X441114Y745188D01*
X440584Y745373D01*
X440078Y745617D01*
X439602Y745916D01*
X439163Y746266D01*
X438766Y746663D01*
X438416Y747102D01*
X438117Y747578D01*
X437873Y748084D01*
X437688Y748614D01*
X437563Y749161D01*
X437500Y749719D01*
X437500Y750281D01*
X437563Y750839D01*
X437688Y751386D01*
X437873Y751916D01*
X438117Y752422D01*
X438416Y752898D01*
X438766Y753337D01*
X439163Y753734D01*
X439602Y754084D01*
X440078Y754383D01*
X440584Y754627D01*
X441114Y754812D01*
X441661Y754937D01*
X442219Y755000D01*
X442781Y755000D01*
X443339Y754937D01*
X443886Y754812D01*
X444416Y754627D01*
X444922Y754383D01*
X445398Y754084D01*
X445837Y753734D01*
X446234Y753337D01*
X446584Y752898D01*
X446883Y752422D01*
X447127Y751916D01*
X447312Y751386D01*
X447437Y750839D01*
X447500Y750281D01*
X447500Y749719D01*
M02*
