G04 EAGLE Gerber X2 export*
%TF.Part,Single*%
%TF.FileFunction,Copper,L2,Bot,Mixed*%
%TF.FilePolarity,Positive*%
%TF.GenerationSoftware,Autodesk,EAGLE,9.2.2*%
%TF.CreationDate,2019-06-08T20:52:32Z*%
G75*
%MOMM*%
%FSLAX34Y34*%
%LPD*%
%INBottom Copper*%
%AMOC8*
5,1,8,0,0,1.08239X$1,22.5*%
G01*
%ADD10C,1.143000*%
%ADD11R,1.350000X1.350000*%
%ADD12C,1.350000*%
%ADD13C,1.408000*%
%ADD14R,1.408000X1.408000*%
%ADD15C,1.950000*%
%ADD16P,2.336880X8X112.500000*%
%ADD17R,1.879600X1.879600*%
%ADD18P,3.247170X8X292.500000*%
%ADD19P,2.336880X8X22.500000*%
%ADD20P,2.336880X8X202.500000*%
%ADD21C,1.508000*%
%ADD22P,4.123906X8X292.500000*%
%ADD23C,1.879600*%
%ADD24P,1.429621X8X112.500000*%
%ADD25P,3.247170X8X202.500000*%
%ADD26C,1.422400*%
%ADD27C,1.955800*%
%ADD28R,1.955800X1.955800*%
%ADD29P,3.247170X8X112.500000*%
%ADD30P,1.429621X8X22.500000*%
%ADD31C,1.320800*%
%ADD32C,0.604800*%
%ADD33C,0.203200*%
%ADD34C,0.654800*%

G36*
X343620Y4004D02*
X343620Y4004D01*
X343642Y4002D01*
X343741Y4024D01*
X343840Y4040D01*
X343860Y4051D01*
X343882Y4056D01*
X343969Y4108D01*
X344057Y4156D01*
X344073Y4172D01*
X344093Y4184D01*
X344157Y4261D01*
X344227Y4334D01*
X344236Y4355D01*
X344251Y4372D01*
X344288Y4466D01*
X344330Y4557D01*
X344333Y4580D01*
X344341Y4601D01*
X344359Y4768D01*
X343075Y176747D01*
X343064Y176812D01*
X343064Y178221D01*
X343064Y178223D01*
X343064Y178227D01*
X343055Y179389D01*
X343879Y180212D01*
X343880Y180214D01*
X343883Y180216D01*
X344699Y181046D01*
X345865Y181046D01*
X345867Y181046D01*
X345871Y181046D01*
X347231Y181056D01*
X347243Y181052D01*
X347275Y181053D01*
X347342Y181046D01*
X391444Y181046D01*
X391463Y181049D01*
X391483Y181047D01*
X391584Y181069D01*
X391686Y181085D01*
X391704Y181095D01*
X391724Y181099D01*
X391813Y181152D01*
X391904Y181200D01*
X391918Y181215D01*
X391935Y181225D01*
X392002Y181304D01*
X392073Y181379D01*
X392082Y181397D01*
X392095Y181412D01*
X392133Y181508D01*
X392177Y181602D01*
X392179Y181622D01*
X392186Y181640D01*
X392205Y181807D01*
X392205Y288164D01*
X394075Y290034D01*
X394076Y290034D01*
X422848Y318807D01*
X424719Y320677D01*
X506418Y320677D01*
X506446Y320682D01*
X507894Y320677D01*
X507895Y320677D01*
X507896Y320677D01*
X509334Y320677D01*
X509375Y320673D01*
X624837Y320313D01*
X624838Y320313D01*
X624839Y320313D01*
X626002Y320313D01*
X626826Y319483D01*
X626827Y319482D01*
X626828Y319481D01*
X627648Y318661D01*
X627644Y317496D01*
X627644Y317495D01*
X627644Y317494D01*
X627644Y222329D01*
X627659Y222239D01*
X627666Y222148D01*
X627679Y222118D01*
X627684Y222086D01*
X627727Y222005D01*
X627762Y221922D01*
X627788Y221889D01*
X627799Y221869D01*
X627822Y221847D01*
X627867Y221791D01*
X645630Y204027D01*
X645704Y203974D01*
X645774Y203915D01*
X645804Y203903D01*
X645830Y203884D01*
X645917Y203857D01*
X646002Y203823D01*
X646043Y203818D01*
X646065Y203811D01*
X646097Y203812D01*
X646169Y203804D01*
X880238Y203804D01*
X880258Y203808D01*
X880277Y203805D01*
X880379Y203827D01*
X880481Y203844D01*
X880498Y203853D01*
X880518Y203858D01*
X880607Y203911D01*
X880698Y203959D01*
X880712Y203974D01*
X880729Y203984D01*
X880796Y204063D01*
X880868Y204138D01*
X880876Y204156D01*
X880889Y204171D01*
X880928Y204267D01*
X880971Y204361D01*
X880973Y204380D01*
X880981Y204399D01*
X880999Y204566D01*
X880999Y490238D01*
X880996Y490258D01*
X880998Y490277D01*
X880976Y490379D01*
X880960Y490481D01*
X880950Y490498D01*
X880946Y490518D01*
X880893Y490607D01*
X880844Y490698D01*
X880830Y490712D01*
X880820Y490729D01*
X880741Y490796D01*
X880666Y490868D01*
X880648Y490876D01*
X880633Y490889D01*
X880537Y490928D01*
X880443Y490971D01*
X880423Y490973D01*
X880405Y490981D01*
X880238Y490999D01*
X878343Y490999D01*
X875999Y493343D01*
X875999Y506657D01*
X878343Y509001D01*
X880238Y509001D01*
X880258Y509004D01*
X880277Y509002D01*
X880379Y509024D01*
X880481Y509040D01*
X880498Y509050D01*
X880518Y509054D01*
X880607Y509107D01*
X880698Y509156D01*
X880712Y509170D01*
X880729Y509180D01*
X880796Y509259D01*
X880868Y509334D01*
X880876Y509352D01*
X880889Y509367D01*
X880928Y509463D01*
X880971Y509557D01*
X880973Y509577D01*
X880981Y509595D01*
X880999Y509762D01*
X880999Y915238D01*
X880997Y915249D01*
X880998Y915256D01*
X880997Y915264D01*
X880998Y915277D01*
X880976Y915379D01*
X880960Y915481D01*
X880950Y915498D01*
X880946Y915518D01*
X880893Y915607D01*
X880844Y915698D01*
X880830Y915712D01*
X880820Y915729D01*
X880741Y915796D01*
X880666Y915868D01*
X880648Y915876D01*
X880633Y915889D01*
X880537Y915928D01*
X880443Y915971D01*
X880423Y915973D01*
X880405Y915981D01*
X880238Y915999D01*
X808343Y915999D01*
X805999Y918343D01*
X805999Y936503D01*
X805988Y936574D01*
X805986Y936646D01*
X805968Y936695D01*
X805960Y936746D01*
X805926Y936809D01*
X805901Y936877D01*
X805869Y936917D01*
X805844Y936964D01*
X805792Y937013D01*
X805748Y937069D01*
X805704Y937097D01*
X805666Y937133D01*
X805601Y937163D01*
X805541Y937202D01*
X805490Y937215D01*
X805443Y937237D01*
X805372Y937244D01*
X805302Y937262D01*
X805250Y937258D01*
X805199Y937264D01*
X805128Y937248D01*
X805057Y937243D01*
X805009Y937222D01*
X804958Y937211D01*
X804897Y937175D01*
X804831Y937146D01*
X804775Y937102D01*
X804747Y937085D01*
X804732Y937067D01*
X804700Y937042D01*
X798897Y931238D01*
X788986Y926189D01*
X778000Y924449D01*
X767014Y926189D01*
X757103Y931238D01*
X749238Y939103D01*
X744189Y949014D01*
X742449Y960000D01*
X744189Y970986D01*
X749238Y980897D01*
X757103Y988762D01*
X767014Y993811D01*
X771275Y994486D01*
X771336Y994506D01*
X771399Y994517D01*
X771452Y994545D01*
X771509Y994563D01*
X771560Y994602D01*
X771616Y994632D01*
X771658Y994675D01*
X771706Y994711D01*
X771742Y994764D01*
X771786Y994810D01*
X771811Y994864D01*
X771845Y994914D01*
X771862Y994975D01*
X771889Y995033D01*
X771896Y995093D01*
X771912Y995150D01*
X771909Y995214D01*
X771916Y995277D01*
X771904Y995336D01*
X771901Y995396D01*
X771878Y995455D01*
X771864Y995518D01*
X771833Y995569D01*
X771812Y995625D01*
X771771Y995674D01*
X771738Y995729D01*
X771692Y995768D01*
X771654Y995814D01*
X771600Y995847D01*
X771551Y995889D01*
X771495Y995911D01*
X771444Y995943D01*
X771382Y995957D01*
X771323Y995981D01*
X771237Y995990D01*
X771205Y995998D01*
X771180Y995997D01*
X771156Y995999D01*
X517762Y995999D01*
X517742Y995996D01*
X517723Y995998D01*
X517621Y995976D01*
X517519Y995960D01*
X517502Y995950D01*
X517482Y995946D01*
X517393Y995893D01*
X517302Y995844D01*
X517288Y995830D01*
X517271Y995820D01*
X517204Y995741D01*
X517132Y995666D01*
X517124Y995648D01*
X517111Y995633D01*
X517072Y995537D01*
X517029Y995443D01*
X517027Y995423D01*
X517019Y995405D01*
X517001Y995238D01*
X517001Y978343D01*
X514657Y975999D01*
X497762Y975999D01*
X497742Y975996D01*
X497723Y975998D01*
X497621Y975976D01*
X497519Y975960D01*
X497502Y975950D01*
X497482Y975946D01*
X497393Y975893D01*
X497302Y975844D01*
X497288Y975830D01*
X497271Y975820D01*
X497204Y975741D01*
X497132Y975666D01*
X497124Y975648D01*
X497111Y975633D01*
X497072Y975537D01*
X497029Y975443D01*
X497027Y975423D01*
X497019Y975405D01*
X497001Y975238D01*
X497001Y898343D01*
X494657Y895999D01*
X452262Y895999D01*
X452242Y895996D01*
X452223Y895998D01*
X452121Y895976D01*
X452019Y895960D01*
X452002Y895950D01*
X451982Y895946D01*
X451893Y895893D01*
X451802Y895844D01*
X451788Y895830D01*
X451771Y895820D01*
X451704Y895741D01*
X451632Y895666D01*
X451624Y895648D01*
X451611Y895633D01*
X451572Y895537D01*
X451529Y895443D01*
X451527Y895423D01*
X451519Y895405D01*
X451501Y895238D01*
X451501Y893343D01*
X450375Y892217D01*
X450333Y892159D01*
X450284Y892107D01*
X450262Y892060D01*
X450232Y892018D01*
X450211Y891949D01*
X450180Y891884D01*
X450175Y891832D01*
X450159Y891782D01*
X450161Y891711D01*
X450153Y891640D01*
X450164Y891589D01*
X450166Y891537D01*
X450190Y891469D01*
X450205Y891399D01*
X450232Y891354D01*
X450250Y891306D01*
X450295Y891250D01*
X450332Y891188D01*
X450371Y891154D01*
X450404Y891114D01*
X450464Y891075D01*
X450519Y891028D01*
X450567Y891009D01*
X450611Y890981D01*
X450680Y890963D01*
X450747Y890936D01*
X450818Y890928D01*
X450849Y890920D01*
X450872Y890922D01*
X450913Y890918D01*
X453128Y890918D01*
X454330Y889716D01*
X454330Y868460D01*
X453128Y867258D01*
X431872Y867258D01*
X430670Y868460D01*
X430670Y889716D01*
X431872Y890918D01*
X434087Y890918D01*
X434157Y890929D01*
X434229Y890931D01*
X434278Y890949D01*
X434329Y890957D01*
X434393Y890991D01*
X434460Y891016D01*
X434501Y891048D01*
X434547Y891073D01*
X434596Y891125D01*
X434652Y891169D01*
X434680Y891213D01*
X434716Y891251D01*
X434746Y891316D01*
X434785Y891376D01*
X434798Y891427D01*
X434820Y891474D01*
X434828Y891545D01*
X434845Y891615D01*
X434841Y891667D01*
X434847Y891718D01*
X434832Y891789D01*
X434826Y891860D01*
X434806Y891908D01*
X434795Y891959D01*
X434758Y892020D01*
X434730Y892086D01*
X434685Y892142D01*
X434668Y892170D01*
X434651Y892185D01*
X434625Y892217D01*
X433499Y893343D01*
X433499Y895238D01*
X433496Y895258D01*
X433498Y895277D01*
X433476Y895379D01*
X433460Y895481D01*
X433450Y895498D01*
X433446Y895518D01*
X433393Y895607D01*
X433344Y895698D01*
X433330Y895712D01*
X433320Y895729D01*
X433241Y895796D01*
X433166Y895868D01*
X433148Y895876D01*
X433133Y895889D01*
X433037Y895928D01*
X432943Y895971D01*
X432923Y895973D01*
X432905Y895981D01*
X432738Y895999D01*
X390343Y895999D01*
X387999Y898343D01*
X387999Y975238D01*
X387996Y975258D01*
X387998Y975277D01*
X387976Y975379D01*
X387960Y975481D01*
X387950Y975498D01*
X387946Y975518D01*
X387893Y975607D01*
X387844Y975698D01*
X387830Y975712D01*
X387820Y975729D01*
X387741Y975796D01*
X387666Y975868D01*
X387648Y975876D01*
X387633Y975889D01*
X387537Y975928D01*
X387443Y975971D01*
X387423Y975973D01*
X387405Y975981D01*
X387238Y975999D01*
X370343Y975999D01*
X367999Y978343D01*
X367999Y995238D01*
X367996Y995258D01*
X367998Y995277D01*
X367976Y995379D01*
X367960Y995481D01*
X367950Y995498D01*
X367946Y995518D01*
X367893Y995607D01*
X367844Y995698D01*
X367830Y995712D01*
X367820Y995729D01*
X367741Y995796D01*
X367666Y995868D01*
X367648Y995876D01*
X367633Y995889D01*
X367537Y995928D01*
X367443Y995971D01*
X367423Y995973D01*
X367405Y995981D01*
X367238Y995999D01*
X114844Y995999D01*
X114781Y995989D01*
X114717Y995989D01*
X114660Y995969D01*
X114601Y995960D01*
X114545Y995930D01*
X114484Y995909D01*
X114437Y995872D01*
X114384Y995844D01*
X114340Y995798D01*
X114289Y995759D01*
X114256Y995710D01*
X114214Y995666D01*
X114187Y995608D01*
X114152Y995555D01*
X114136Y995497D01*
X114111Y995443D01*
X114104Y995380D01*
X114087Y995318D01*
X114090Y995258D01*
X114084Y995199D01*
X114097Y995136D01*
X114101Y995072D01*
X114123Y995017D01*
X114136Y994958D01*
X114169Y994903D01*
X114192Y994844D01*
X114231Y994799D01*
X114262Y994747D01*
X114310Y994706D01*
X114352Y994657D01*
X114403Y994626D01*
X114449Y994587D01*
X114508Y994563D01*
X114563Y994530D01*
X114646Y994508D01*
X114677Y994495D01*
X114701Y994493D01*
X114725Y994486D01*
X118986Y993811D01*
X128897Y988762D01*
X136762Y980897D01*
X141811Y970986D01*
X143551Y960000D01*
X141811Y949014D01*
X136762Y939103D01*
X128897Y931238D01*
X118986Y926189D01*
X108000Y924449D01*
X97014Y926189D01*
X87103Y931238D01*
X80300Y938042D01*
X80242Y938084D01*
X80190Y938133D01*
X80143Y938155D01*
X80101Y938185D01*
X80032Y938206D01*
X79967Y938237D01*
X79915Y938242D01*
X79865Y938258D01*
X79794Y938256D01*
X79723Y938264D01*
X79672Y938253D01*
X79620Y938251D01*
X79552Y938227D01*
X79482Y938211D01*
X79437Y938185D01*
X79389Y938167D01*
X79333Y938122D01*
X79271Y938085D01*
X79237Y938046D01*
X79197Y938013D01*
X79158Y937953D01*
X79111Y937898D01*
X79092Y937850D01*
X79064Y937806D01*
X79046Y937737D01*
X79019Y937670D01*
X79011Y937599D01*
X79003Y937568D01*
X79005Y937544D01*
X79001Y937503D01*
X79001Y918343D01*
X76657Y915999D01*
X4762Y915999D01*
X4742Y915996D01*
X4723Y915998D01*
X4621Y915976D01*
X4519Y915960D01*
X4502Y915950D01*
X4482Y915946D01*
X4393Y915893D01*
X4302Y915844D01*
X4288Y915830D01*
X4271Y915820D01*
X4204Y915741D01*
X4132Y915666D01*
X4124Y915648D01*
X4111Y915633D01*
X4072Y915537D01*
X4029Y915443D01*
X4027Y915423D01*
X4019Y915405D01*
X4001Y915238D01*
X4001Y509762D01*
X4004Y509742D01*
X4002Y509723D01*
X4024Y509621D01*
X4040Y509519D01*
X4050Y509502D01*
X4054Y509482D01*
X4107Y509393D01*
X4156Y509302D01*
X4170Y509288D01*
X4180Y509271D01*
X4259Y509204D01*
X4334Y509132D01*
X4352Y509124D01*
X4367Y509111D01*
X4463Y509072D01*
X4557Y509029D01*
X4577Y509027D01*
X4595Y509019D01*
X4762Y509001D01*
X6657Y509001D01*
X9001Y506657D01*
X9001Y493343D01*
X6657Y490999D01*
X4762Y490999D01*
X4742Y490996D01*
X4723Y490998D01*
X4621Y490976D01*
X4519Y490960D01*
X4502Y490950D01*
X4482Y490946D01*
X4393Y490893D01*
X4302Y490844D01*
X4288Y490830D01*
X4271Y490820D01*
X4204Y490741D01*
X4132Y490666D01*
X4124Y490648D01*
X4111Y490633D01*
X4072Y490537D01*
X4029Y490443D01*
X4027Y490423D01*
X4019Y490405D01*
X4001Y490238D01*
X4001Y54046D01*
X4006Y54012D01*
X4004Y53979D01*
X4026Y53892D01*
X4040Y53803D01*
X4056Y53773D01*
X4064Y53741D01*
X4113Y53665D01*
X4156Y53585D01*
X4180Y53562D01*
X4198Y53534D01*
X4324Y53423D01*
X19070Y43040D01*
X19094Y43028D01*
X19113Y43011D01*
X19204Y42975D01*
X19291Y42932D01*
X19317Y42929D01*
X19342Y42919D01*
X19508Y42901D01*
X19657Y42901D01*
X20539Y42019D01*
X20565Y42001D01*
X20639Y41935D01*
X21658Y41217D01*
X21684Y41070D01*
X21692Y41046D01*
X21694Y41020D01*
X21732Y40930D01*
X21764Y40838D01*
X21780Y40817D01*
X21791Y40793D01*
X21896Y40662D01*
X22001Y40557D01*
X22001Y39310D01*
X22006Y39279D01*
X22012Y39180D01*
X22225Y37952D01*
X22140Y37830D01*
X22128Y37806D01*
X22111Y37787D01*
X22075Y37696D01*
X22032Y37609D01*
X22029Y37583D01*
X22019Y37558D01*
X22001Y37392D01*
X22001Y4762D01*
X22004Y4742D01*
X22002Y4723D01*
X22024Y4621D01*
X22040Y4519D01*
X22050Y4502D01*
X22054Y4482D01*
X22107Y4393D01*
X22156Y4302D01*
X22170Y4288D01*
X22180Y4271D01*
X22259Y4204D01*
X22334Y4132D01*
X22352Y4124D01*
X22367Y4111D01*
X22463Y4072D01*
X22557Y4029D01*
X22577Y4027D01*
X22595Y4019D01*
X22762Y4001D01*
X343597Y4001D01*
X343620Y4004D01*
G37*
G36*
X432758Y4004D02*
X432758Y4004D01*
X432777Y4002D01*
X432879Y4024D01*
X432981Y4040D01*
X432998Y4050D01*
X433018Y4054D01*
X433107Y4107D01*
X433198Y4156D01*
X433212Y4170D01*
X433229Y4180D01*
X433296Y4259D01*
X433368Y4334D01*
X433376Y4352D01*
X433389Y4367D01*
X433428Y4463D01*
X433471Y4557D01*
X433473Y4577D01*
X433481Y4595D01*
X433499Y4762D01*
X433499Y6657D01*
X435843Y9001D01*
X449157Y9001D01*
X451501Y6657D01*
X451501Y4762D01*
X451504Y4742D01*
X451502Y4723D01*
X451524Y4621D01*
X451540Y4519D01*
X451550Y4502D01*
X451554Y4482D01*
X451607Y4393D01*
X451656Y4302D01*
X451670Y4288D01*
X451680Y4271D01*
X451759Y4204D01*
X451834Y4132D01*
X451852Y4124D01*
X451867Y4111D01*
X451963Y4072D01*
X452057Y4029D01*
X452077Y4027D01*
X452095Y4019D01*
X452262Y4001D01*
X863238Y4001D01*
X863258Y4004D01*
X863277Y4002D01*
X863379Y4024D01*
X863481Y4040D01*
X863498Y4050D01*
X863518Y4054D01*
X863607Y4107D01*
X863698Y4156D01*
X863712Y4170D01*
X863729Y4180D01*
X863796Y4259D01*
X863868Y4334D01*
X863876Y4352D01*
X863889Y4367D01*
X863928Y4463D01*
X863971Y4557D01*
X863973Y4577D01*
X863981Y4595D01*
X863999Y4762D01*
X863999Y37399D01*
X863995Y37424D01*
X863998Y37449D01*
X863975Y37544D01*
X863960Y37642D01*
X863948Y37664D01*
X863942Y37688D01*
X863862Y37835D01*
X863772Y37963D01*
X863988Y39185D01*
X863988Y39216D01*
X863999Y39317D01*
X863999Y40557D01*
X864110Y40667D01*
X864124Y40688D01*
X864144Y40704D01*
X864196Y40788D01*
X864253Y40867D01*
X864261Y40891D01*
X864274Y40913D01*
X864321Y41074D01*
X864348Y41227D01*
X865364Y41938D01*
X865387Y41960D01*
X865466Y42024D01*
X866343Y42901D01*
X866499Y42901D01*
X866524Y42905D01*
X866549Y42902D01*
X866645Y42925D01*
X866742Y42940D01*
X866764Y42952D01*
X866788Y42958D01*
X866935Y43038D01*
X880675Y52656D01*
X880699Y52680D01*
X880729Y52698D01*
X880787Y52765D01*
X880851Y52827D01*
X880866Y52858D01*
X880889Y52884D01*
X880922Y52967D01*
X880963Y53046D01*
X880968Y53081D01*
X880981Y53113D01*
X880999Y53279D01*
X880999Y200992D01*
X880996Y201011D01*
X880998Y201031D01*
X880976Y201132D01*
X880960Y201234D01*
X880950Y201252D01*
X880946Y201271D01*
X880893Y201360D01*
X880844Y201452D01*
X880830Y201465D01*
X880820Y201483D01*
X880741Y201550D01*
X880666Y201621D01*
X880648Y201630D01*
X880633Y201642D01*
X880537Y201681D01*
X880443Y201725D01*
X880423Y201727D01*
X880405Y201734D01*
X880238Y201753D01*
X645004Y201753D01*
X625593Y221164D01*
X625593Y317500D01*
X625590Y317519D01*
X625592Y317537D01*
X625570Y317639D01*
X625553Y317743D01*
X625544Y317759D01*
X625540Y317778D01*
X625487Y317868D01*
X625438Y317960D01*
X625424Y317973D01*
X625415Y317989D01*
X625335Y318057D01*
X625259Y318130D01*
X625242Y318137D01*
X625228Y318150D01*
X625131Y318189D01*
X625036Y318233D01*
X625018Y318235D01*
X625000Y318242D01*
X624834Y318261D01*
X507894Y318626D01*
X507893Y318626D01*
X507892Y318626D01*
X425884Y318626D01*
X425794Y318611D01*
X425703Y318604D01*
X425673Y318591D01*
X425641Y318586D01*
X425560Y318543D01*
X425476Y318508D01*
X425444Y318482D01*
X425424Y318471D01*
X425401Y318448D01*
X425345Y318403D01*
X394479Y287537D01*
X394426Y287463D01*
X394367Y287393D01*
X394355Y287363D01*
X394336Y287337D01*
X394309Y287250D01*
X394275Y287165D01*
X394270Y287124D01*
X394264Y287102D01*
X394264Y287070D01*
X394256Y286999D01*
X394256Y178994D01*
X345877Y178994D01*
X345854Y178990D01*
X345832Y178993D01*
X345733Y178971D01*
X345634Y178954D01*
X345614Y178944D01*
X345592Y178939D01*
X345506Y178886D01*
X345417Y178839D01*
X345401Y178823D01*
X345382Y178811D01*
X345317Y178734D01*
X345247Y178661D01*
X345238Y178640D01*
X345223Y178623D01*
X345186Y178529D01*
X345144Y178438D01*
X345141Y178415D01*
X345133Y178394D01*
X345116Y178227D01*
X346410Y4756D01*
X346413Y4739D01*
X346411Y4723D01*
X346434Y4619D01*
X346452Y4514D01*
X346460Y4499D01*
X346463Y4482D01*
X346518Y4391D01*
X346568Y4297D01*
X346581Y4286D01*
X346590Y4271D01*
X346670Y4202D01*
X346748Y4129D01*
X346763Y4122D01*
X346776Y4111D01*
X346875Y4071D01*
X346972Y4027D01*
X346989Y4026D01*
X347005Y4019D01*
X347171Y4001D01*
X432738Y4001D01*
X432758Y4004D01*
G37*
%LPC*%
G36*
X144453Y103699D02*
X144453Y103699D01*
X140115Y105496D01*
X136796Y108815D01*
X134999Y113153D01*
X134999Y137347D01*
X136796Y141685D01*
X140115Y145004D01*
X144453Y146801D01*
X149147Y146801D01*
X153074Y145174D01*
X153188Y145147D01*
X153302Y145119D01*
X153308Y145119D01*
X153314Y145118D01*
X153431Y145129D01*
X153547Y145138D01*
X153552Y145140D01*
X153559Y145141D01*
X153666Y145189D01*
X153773Y145234D01*
X153779Y145239D01*
X153784Y145241D01*
X153797Y145254D01*
X153904Y145339D01*
X160625Y152060D01*
X175377Y152060D01*
X175473Y152075D01*
X175570Y152085D01*
X175594Y152095D01*
X175619Y152099D01*
X175705Y152145D01*
X175794Y152185D01*
X175814Y152202D01*
X175837Y152215D01*
X175904Y152285D01*
X175976Y152351D01*
X175988Y152374D01*
X176006Y152393D01*
X176047Y152481D01*
X176094Y152567D01*
X176099Y152592D01*
X176110Y152616D01*
X176121Y152713D01*
X176138Y152809D01*
X176134Y152835D01*
X176137Y152860D01*
X176116Y152956D01*
X176102Y153052D01*
X176090Y153075D01*
X176085Y153101D01*
X176035Y153184D01*
X175991Y153271D01*
X175972Y153290D01*
X175959Y153312D01*
X175885Y153375D01*
X175815Y153443D01*
X175786Y153459D01*
X175772Y153472D01*
X175741Y153484D01*
X175668Y153524D01*
X172115Y154996D01*
X168796Y158315D01*
X166999Y162653D01*
X166999Y186847D01*
X168796Y191185D01*
X172115Y194504D01*
X176453Y196301D01*
X181147Y196301D01*
X185485Y194504D01*
X188804Y191185D01*
X190601Y186847D01*
X190601Y162653D01*
X188804Y158315D01*
X185485Y154996D01*
X181932Y153524D01*
X181849Y153473D01*
X181763Y153427D01*
X181745Y153408D01*
X181723Y153395D01*
X181661Y153320D01*
X181594Y153249D01*
X181583Y153225D01*
X181566Y153205D01*
X181531Y153114D01*
X181490Y153026D01*
X181487Y153000D01*
X181478Y152976D01*
X181474Y152878D01*
X181463Y152782D01*
X181469Y152756D01*
X181467Y152730D01*
X181495Y152636D01*
X181515Y152541D01*
X181529Y152519D01*
X181536Y152494D01*
X181592Y152414D01*
X181641Y152330D01*
X181661Y152313D01*
X181676Y152292D01*
X181754Y152233D01*
X181828Y152170D01*
X181853Y152160D01*
X181874Y152145D01*
X181966Y152115D01*
X182057Y152078D01*
X182089Y152075D01*
X182108Y152069D01*
X182141Y152069D01*
X182223Y152060D01*
X188883Y152060D01*
X188973Y152074D01*
X189064Y152082D01*
X189094Y152094D01*
X189126Y152099D01*
X189207Y152142D01*
X189291Y152178D01*
X189323Y152204D01*
X189344Y152215D01*
X189366Y152238D01*
X189422Y152283D01*
X198872Y161733D01*
X198940Y161828D01*
X199010Y161921D01*
X199012Y161927D01*
X199015Y161932D01*
X199050Y162044D01*
X199086Y162155D01*
X199086Y162162D01*
X199088Y162168D01*
X199085Y162284D01*
X199083Y162401D01*
X199081Y162408D01*
X199081Y162413D01*
X199075Y162431D01*
X199037Y162562D01*
X198999Y162653D01*
X198999Y186847D01*
X200796Y191185D01*
X204115Y194504D01*
X208453Y196301D01*
X213147Y196301D01*
X217485Y194504D01*
X220804Y191185D01*
X222601Y186847D01*
X222601Y162653D01*
X220804Y158315D01*
X217485Y154996D01*
X213147Y153199D01*
X208453Y153199D01*
X204115Y154996D01*
X203000Y156111D01*
X202984Y156122D01*
X202972Y156138D01*
X202885Y156194D01*
X202801Y156254D01*
X202782Y156260D01*
X202765Y156271D01*
X202664Y156296D01*
X202566Y156327D01*
X202546Y156326D01*
X202526Y156331D01*
X202423Y156323D01*
X202320Y156320D01*
X202301Y156313D01*
X202281Y156312D01*
X202186Y156272D01*
X202089Y156236D01*
X202073Y156223D01*
X202055Y156216D01*
X201924Y156111D01*
X191739Y145926D01*
X186400Y145926D01*
X186330Y145915D01*
X186258Y145913D01*
X186209Y145895D01*
X186158Y145887D01*
X186094Y145853D01*
X186027Y145828D01*
X185986Y145796D01*
X185940Y145771D01*
X185891Y145719D01*
X185835Y145675D01*
X185807Y145631D01*
X185771Y145593D01*
X185741Y145528D01*
X185702Y145468D01*
X185689Y145417D01*
X185667Y145370D01*
X185659Y145299D01*
X185642Y145229D01*
X185646Y145177D01*
X185640Y145126D01*
X185655Y145055D01*
X185661Y144984D01*
X185681Y144936D01*
X185692Y144885D01*
X185729Y144824D01*
X185757Y144758D01*
X185802Y144702D01*
X185819Y144674D01*
X185836Y144659D01*
X185862Y144627D01*
X188804Y141685D01*
X190601Y137347D01*
X190601Y113153D01*
X188804Y108815D01*
X185485Y105496D01*
X181147Y103699D01*
X176453Y103699D01*
X172115Y105496D01*
X168796Y108815D01*
X166999Y113153D01*
X166999Y137347D01*
X168796Y141685D01*
X171738Y144627D01*
X171780Y144685D01*
X171829Y144737D01*
X171851Y144784D01*
X171882Y144826D01*
X171903Y144895D01*
X171933Y144960D01*
X171939Y145012D01*
X171954Y145062D01*
X171952Y145133D01*
X171960Y145204D01*
X171949Y145255D01*
X171948Y145307D01*
X171923Y145375D01*
X171908Y145445D01*
X171881Y145490D01*
X171863Y145538D01*
X171818Y145594D01*
X171781Y145656D01*
X171742Y145690D01*
X171709Y145730D01*
X171649Y145769D01*
X171595Y145816D01*
X171546Y145835D01*
X171502Y145863D01*
X171433Y145881D01*
X171366Y145908D01*
X171295Y145916D01*
X171264Y145924D01*
X171241Y145922D01*
X171200Y145926D01*
X163481Y145926D01*
X163391Y145912D01*
X163300Y145904D01*
X163270Y145892D01*
X163238Y145887D01*
X163157Y145844D01*
X163073Y145808D01*
X163041Y145782D01*
X163020Y145771D01*
X162998Y145748D01*
X162942Y145703D01*
X157785Y140546D01*
X157717Y140452D01*
X157647Y140357D01*
X157645Y140351D01*
X157641Y140346D01*
X157607Y140235D01*
X157570Y140123D01*
X157571Y140117D01*
X157569Y140111D01*
X157572Y139994D01*
X157573Y139877D01*
X157575Y139870D01*
X157575Y139865D01*
X157581Y139847D01*
X157620Y139716D01*
X158601Y137347D01*
X158601Y113153D01*
X156804Y108815D01*
X153485Y105496D01*
X149147Y103699D01*
X144453Y103699D01*
G37*
%LPD*%
%LPC*%
G36*
X605122Y505768D02*
X605122Y505768D01*
X603165Y506579D01*
X601667Y508077D01*
X600856Y510034D01*
X600856Y511765D01*
X600854Y511781D01*
X600855Y511794D01*
X600841Y511858D01*
X600834Y511946D01*
X600822Y511976D01*
X600817Y512008D01*
X600803Y512033D01*
X600803Y512034D01*
X600799Y512040D01*
X600774Y512089D01*
X600738Y512173D01*
X600712Y512205D01*
X600702Y512225D01*
X600678Y512248D01*
X600633Y512303D01*
X596966Y515971D01*
X594946Y517991D01*
X594946Y625001D01*
X594932Y625091D01*
X594924Y625182D01*
X594912Y625212D01*
X594907Y625244D01*
X594864Y625325D01*
X594828Y625409D01*
X594802Y625441D01*
X594791Y625462D01*
X594768Y625484D01*
X594723Y625540D01*
X592139Y628124D01*
X592059Y628181D01*
X591984Y628243D01*
X591960Y628253D01*
X591939Y628268D01*
X591846Y628297D01*
X591755Y628332D01*
X591729Y628333D01*
X591704Y628340D01*
X591606Y628338D01*
X591509Y628342D01*
X591484Y628335D01*
X591458Y628334D01*
X591366Y628301D01*
X591273Y628273D01*
X591251Y628259D01*
X591227Y628250D01*
X591151Y628189D01*
X591071Y628133D01*
X591055Y628112D01*
X591035Y628096D01*
X590982Y628014D01*
X590924Y627936D01*
X590916Y627911D01*
X590902Y627889D01*
X590878Y627794D01*
X590848Y627702D01*
X590848Y627676D01*
X590842Y627650D01*
X590849Y627553D01*
X590850Y627456D01*
X590859Y627425D01*
X590861Y627405D01*
X590874Y627375D01*
X590897Y627295D01*
X591248Y626448D01*
X591248Y622803D01*
X589853Y619435D01*
X587275Y616858D01*
X583908Y615463D01*
X566038Y615463D01*
X562671Y616858D01*
X560093Y619435D01*
X558698Y622803D01*
X558698Y626448D01*
X560093Y629816D01*
X562231Y631954D01*
X562243Y631970D01*
X562258Y631982D01*
X562314Y632069D01*
X562375Y632153D01*
X562381Y632172D01*
X562391Y632189D01*
X562417Y632290D01*
X562447Y632388D01*
X562447Y632408D01*
X562451Y632428D01*
X562443Y632531D01*
X562441Y632634D01*
X562434Y632653D01*
X562432Y632673D01*
X562392Y632768D01*
X562356Y632865D01*
X562344Y632881D01*
X562336Y632899D01*
X562231Y633030D01*
X554616Y640645D01*
X554616Y655512D01*
X645582Y746478D01*
X645609Y746515D01*
X645643Y746546D01*
X645681Y746615D01*
X645726Y746678D01*
X645739Y746721D01*
X645762Y746762D01*
X645776Y746838D01*
X645798Y746913D01*
X645797Y746958D01*
X645805Y747004D01*
X645794Y747081D01*
X645792Y747159D01*
X645776Y747202D01*
X645770Y747247D01*
X645734Y747316D01*
X645708Y747390D01*
X645679Y747425D01*
X645658Y747466D01*
X645602Y747521D01*
X645554Y747582D01*
X645515Y747606D01*
X645482Y747639D01*
X645363Y747704D01*
X645347Y747715D01*
X645342Y747716D01*
X645336Y747719D01*
X641420Y749341D01*
X638092Y752669D01*
X636291Y757017D01*
X636291Y761723D01*
X638092Y766071D01*
X641420Y769399D01*
X645768Y771200D01*
X670032Y771200D01*
X674380Y769399D01*
X677708Y766071D01*
X679509Y761723D01*
X679509Y757017D01*
X677708Y752669D01*
X674380Y749341D01*
X670032Y747540D01*
X655634Y747540D01*
X655544Y747526D01*
X655453Y747518D01*
X655424Y747506D01*
X655392Y747501D01*
X655311Y747458D01*
X655227Y747422D01*
X655195Y747396D01*
X655174Y747385D01*
X655152Y747362D01*
X655096Y747317D01*
X568266Y660488D01*
X568225Y660429D01*
X568175Y660377D01*
X568153Y660330D01*
X568123Y660288D01*
X568102Y660219D01*
X568071Y660154D01*
X568066Y660103D01*
X568050Y660053D01*
X568052Y659981D01*
X568044Y659910D01*
X568055Y659859D01*
X568057Y659807D01*
X568081Y659740D01*
X568097Y659670D01*
X568123Y659625D01*
X568141Y659576D01*
X568186Y659520D01*
X568223Y659458D01*
X568262Y659425D01*
X568295Y659384D01*
X568355Y659345D01*
X568410Y659299D01*
X568458Y659279D01*
X568502Y659251D01*
X568571Y659233D01*
X568638Y659207D01*
X568709Y659199D01*
X568740Y659191D01*
X568764Y659193D01*
X568805Y659188D01*
X583908Y659188D01*
X587275Y657793D01*
X589853Y655216D01*
X591248Y651848D01*
X591248Y648203D01*
X589853Y644835D01*
X587516Y642498D01*
X587504Y642482D01*
X587488Y642469D01*
X587432Y642382D01*
X587372Y642298D01*
X587366Y642279D01*
X587355Y642262D01*
X587330Y642162D01*
X587300Y642063D01*
X587300Y642043D01*
X587295Y642024D01*
X587303Y641921D01*
X587306Y641817D01*
X587313Y641798D01*
X587315Y641779D01*
X587355Y641684D01*
X587391Y641586D01*
X587403Y641571D01*
X587411Y641552D01*
X587516Y641421D01*
X601080Y627857D01*
X601080Y520846D01*
X601094Y520756D01*
X601102Y520665D01*
X601114Y520636D01*
X601119Y520604D01*
X601162Y520523D01*
X601198Y520439D01*
X601224Y520407D01*
X601235Y520386D01*
X601258Y520364D01*
X601303Y520308D01*
X604970Y516640D01*
X605044Y516587D01*
X605114Y516528D01*
X605144Y516516D01*
X605170Y516497D01*
X605257Y516470D01*
X605342Y516436D01*
X605383Y516431D01*
X605405Y516425D01*
X605437Y516425D01*
X605509Y516418D01*
X607240Y516418D01*
X609197Y515607D01*
X610695Y514109D01*
X611506Y512152D01*
X611506Y510034D01*
X610695Y508077D01*
X609197Y506579D01*
X607240Y505768D01*
X605122Y505768D01*
G37*
%LPD*%
%LPC*%
G36*
X827014Y40689D02*
X827014Y40689D01*
X817103Y45738D01*
X809238Y53603D01*
X804189Y63514D01*
X802449Y74500D01*
X804189Y85486D01*
X809238Y95397D01*
X817103Y103262D01*
X827014Y108311D01*
X838000Y110051D01*
X848986Y108311D01*
X858897Y103262D01*
X866762Y95397D01*
X871811Y85486D01*
X873551Y74500D01*
X871811Y63514D01*
X866762Y53603D01*
X858897Y45738D01*
X848986Y40689D01*
X838000Y38949D01*
X827014Y40689D01*
G37*
%LPD*%
%LPC*%
G36*
X36014Y40689D02*
X36014Y40689D01*
X26103Y45738D01*
X18238Y53603D01*
X13189Y63514D01*
X11449Y74500D01*
X13189Y85486D01*
X18238Y95397D01*
X26103Y103262D01*
X36014Y108311D01*
X47000Y110051D01*
X57986Y108311D01*
X67897Y103262D01*
X75762Y95397D01*
X80811Y85486D01*
X82551Y74500D01*
X80811Y63514D01*
X75762Y53603D01*
X67897Y45738D01*
X57986Y40689D01*
X47000Y38949D01*
X36014Y40689D01*
G37*
%LPD*%
%LPC*%
G36*
X842554Y450406D02*
X842554Y450406D01*
X839029Y451866D01*
X836331Y454564D01*
X834871Y458089D01*
X834871Y461904D01*
X836331Y465429D01*
X839029Y468127D01*
X841844Y469293D01*
X841905Y469331D01*
X841971Y469360D01*
X842009Y469395D01*
X842053Y469423D01*
X842099Y469478D01*
X842152Y469527D01*
X842177Y469572D01*
X842210Y469612D01*
X842236Y469679D01*
X842270Y469742D01*
X842280Y469793D01*
X842298Y469842D01*
X842301Y469913D01*
X842314Y469984D01*
X842307Y470036D01*
X842309Y470088D01*
X842289Y470157D01*
X842278Y470227D01*
X842255Y470274D01*
X842240Y470324D01*
X842199Y470383D01*
X842167Y470447D01*
X842130Y470483D01*
X842100Y470526D01*
X842042Y470569D01*
X841991Y470619D01*
X841928Y470653D01*
X841903Y470673D01*
X841880Y470680D01*
X841844Y470700D01*
X839029Y471866D01*
X836331Y474564D01*
X834871Y478089D01*
X834871Y481904D01*
X836331Y485429D01*
X839029Y488127D01*
X841844Y489293D01*
X841905Y489331D01*
X841971Y489360D01*
X842009Y489395D01*
X842053Y489423D01*
X842099Y489478D01*
X842152Y489526D01*
X842177Y489572D01*
X842210Y489612D01*
X842236Y489679D01*
X842270Y489742D01*
X842280Y489793D01*
X842298Y489842D01*
X842301Y489913D01*
X842314Y489984D01*
X842307Y490036D01*
X842309Y490088D01*
X842289Y490156D01*
X842278Y490227D01*
X842255Y490274D01*
X842240Y490324D01*
X842199Y490383D01*
X842167Y490447D01*
X842130Y490483D01*
X842100Y490526D01*
X842042Y490569D01*
X841991Y490619D01*
X841928Y490653D01*
X841903Y490673D01*
X841880Y490680D01*
X841844Y490700D01*
X839029Y491866D01*
X836331Y494564D01*
X834871Y498089D01*
X834871Y501904D01*
X836331Y505429D01*
X839029Y508127D01*
X841844Y509293D01*
X841905Y509331D01*
X841971Y509360D01*
X842009Y509395D01*
X842053Y509423D01*
X842099Y509478D01*
X842152Y509527D01*
X842177Y509572D01*
X842210Y509612D01*
X842236Y509679D01*
X842270Y509742D01*
X842280Y509793D01*
X842298Y509842D01*
X842301Y509913D01*
X842314Y509984D01*
X842307Y510036D01*
X842309Y510088D01*
X842289Y510157D01*
X842278Y510227D01*
X842255Y510274D01*
X842240Y510324D01*
X842199Y510383D01*
X842167Y510447D01*
X842130Y510483D01*
X842100Y510526D01*
X842042Y510569D01*
X841991Y510619D01*
X841928Y510653D01*
X841903Y510673D01*
X841880Y510680D01*
X841844Y510700D01*
X839029Y511866D01*
X836331Y514564D01*
X834871Y518089D01*
X834871Y521904D01*
X836331Y525429D01*
X839029Y528127D01*
X841844Y529293D01*
X841905Y529331D01*
X841971Y529360D01*
X842009Y529395D01*
X842053Y529423D01*
X842099Y529478D01*
X842152Y529527D01*
X842177Y529572D01*
X842210Y529612D01*
X842236Y529679D01*
X842270Y529742D01*
X842280Y529793D01*
X842298Y529842D01*
X842301Y529913D01*
X842314Y529984D01*
X842307Y530036D01*
X842309Y530088D01*
X842289Y530157D01*
X842278Y530227D01*
X842255Y530274D01*
X842240Y530324D01*
X842199Y530383D01*
X842167Y530447D01*
X842130Y530483D01*
X842100Y530526D01*
X842042Y530569D01*
X841991Y530619D01*
X841928Y530653D01*
X841903Y530673D01*
X841880Y530680D01*
X841844Y530700D01*
X839029Y531866D01*
X836331Y534564D01*
X834871Y538089D01*
X834871Y541904D01*
X836331Y545429D01*
X839029Y548127D01*
X841844Y549293D01*
X841905Y549331D01*
X841971Y549360D01*
X842009Y549395D01*
X842053Y549423D01*
X842099Y549478D01*
X842152Y549526D01*
X842177Y549572D01*
X842210Y549612D01*
X842236Y549679D01*
X842270Y549742D01*
X842280Y549793D01*
X842298Y549842D01*
X842301Y549913D01*
X842314Y549984D01*
X842307Y550036D01*
X842309Y550088D01*
X842289Y550156D01*
X842278Y550227D01*
X842255Y550274D01*
X842240Y550324D01*
X842199Y550383D01*
X842167Y550447D01*
X842130Y550483D01*
X842100Y550526D01*
X842042Y550569D01*
X841991Y550619D01*
X841928Y550653D01*
X841903Y550673D01*
X841880Y550680D01*
X841844Y550700D01*
X839029Y551866D01*
X836331Y554564D01*
X834871Y558089D01*
X834871Y561904D01*
X836331Y565429D01*
X839029Y568127D01*
X842554Y569587D01*
X861450Y569587D01*
X864975Y568127D01*
X867672Y565429D01*
X869133Y561904D01*
X869133Y558089D01*
X867672Y554564D01*
X864975Y551866D01*
X862159Y550700D01*
X862098Y550662D01*
X862033Y550633D01*
X861995Y550598D01*
X861950Y550570D01*
X861905Y550515D01*
X861852Y550466D01*
X861827Y550421D01*
X861794Y550381D01*
X861768Y550314D01*
X861733Y550251D01*
X861724Y550200D01*
X861705Y550151D01*
X861702Y550080D01*
X861690Y550009D01*
X861697Y549957D01*
X861695Y549905D01*
X861715Y549836D01*
X861725Y549766D01*
X861749Y549719D01*
X861763Y549669D01*
X861804Y549610D01*
X861837Y549546D01*
X861874Y549510D01*
X861904Y549467D01*
X861961Y549424D01*
X862012Y549374D01*
X862075Y549339D01*
X862101Y549320D01*
X862123Y549313D01*
X862159Y549293D01*
X864975Y548127D01*
X867672Y545429D01*
X869133Y541904D01*
X869133Y538089D01*
X867672Y534564D01*
X864975Y531866D01*
X862159Y530700D01*
X862098Y530662D01*
X862033Y530633D01*
X861995Y530598D01*
X861950Y530570D01*
X861905Y530515D01*
X861852Y530466D01*
X861827Y530421D01*
X861794Y530381D01*
X861768Y530314D01*
X861733Y530251D01*
X861724Y530200D01*
X861705Y530151D01*
X861702Y530080D01*
X861690Y530009D01*
X861697Y529957D01*
X861695Y529905D01*
X861715Y529836D01*
X861725Y529766D01*
X861749Y529719D01*
X861763Y529669D01*
X861804Y529610D01*
X861837Y529546D01*
X861874Y529510D01*
X861904Y529467D01*
X861961Y529424D01*
X862012Y529374D01*
X862075Y529339D01*
X862101Y529320D01*
X862123Y529313D01*
X862159Y529293D01*
X864975Y528127D01*
X867672Y525429D01*
X869133Y521904D01*
X869133Y518089D01*
X867672Y514564D01*
X864975Y511866D01*
X862159Y510700D01*
X862098Y510662D01*
X862033Y510633D01*
X861995Y510598D01*
X861950Y510570D01*
X861905Y510515D01*
X861852Y510466D01*
X861827Y510421D01*
X861794Y510381D01*
X861768Y510314D01*
X861733Y510251D01*
X861724Y510200D01*
X861705Y510151D01*
X861702Y510080D01*
X861690Y510009D01*
X861697Y509957D01*
X861695Y509905D01*
X861715Y509836D01*
X861725Y509766D01*
X861749Y509719D01*
X861763Y509669D01*
X861804Y509610D01*
X861837Y509546D01*
X861874Y509510D01*
X861904Y509467D01*
X861961Y509424D01*
X862012Y509374D01*
X862075Y509339D01*
X862101Y509320D01*
X862123Y509313D01*
X862159Y509293D01*
X864975Y508127D01*
X867672Y505429D01*
X869133Y501904D01*
X869133Y498089D01*
X867672Y494564D01*
X864975Y491866D01*
X862159Y490700D01*
X862098Y490662D01*
X862033Y490633D01*
X861995Y490598D01*
X861950Y490570D01*
X861905Y490515D01*
X861852Y490466D01*
X861827Y490421D01*
X861793Y490381D01*
X861768Y490314D01*
X861733Y490251D01*
X861724Y490200D01*
X861705Y490151D01*
X861702Y490080D01*
X861690Y490009D01*
X861697Y489957D01*
X861695Y489905D01*
X861715Y489836D01*
X861725Y489766D01*
X861749Y489719D01*
X861763Y489669D01*
X861804Y489610D01*
X861837Y489546D01*
X861874Y489510D01*
X861904Y489467D01*
X861961Y489424D01*
X862012Y489374D01*
X862075Y489339D01*
X862101Y489320D01*
X862123Y489313D01*
X862159Y489293D01*
X864975Y488127D01*
X867672Y485429D01*
X869133Y481904D01*
X869133Y478089D01*
X867672Y474564D01*
X864975Y471866D01*
X862159Y470700D01*
X862098Y470662D01*
X862033Y470633D01*
X861995Y470598D01*
X861950Y470570D01*
X861905Y470515D01*
X861852Y470466D01*
X861827Y470421D01*
X861793Y470381D01*
X861768Y470314D01*
X861733Y470251D01*
X861724Y470200D01*
X861705Y470151D01*
X861702Y470080D01*
X861690Y470009D01*
X861697Y469957D01*
X861695Y469905D01*
X861715Y469836D01*
X861725Y469766D01*
X861749Y469719D01*
X861763Y469669D01*
X861804Y469610D01*
X861837Y469546D01*
X861874Y469510D01*
X861904Y469467D01*
X861961Y469424D01*
X862012Y469374D01*
X862075Y469339D01*
X862101Y469320D01*
X862123Y469313D01*
X862159Y469293D01*
X864975Y468127D01*
X867672Y465429D01*
X869133Y461904D01*
X869133Y458089D01*
X867672Y454564D01*
X864975Y451866D01*
X861450Y450406D01*
X842554Y450406D01*
G37*
%LPD*%
%LPC*%
G36*
X208453Y103699D02*
X208453Y103699D01*
X204115Y105496D01*
X200796Y108815D01*
X198999Y113153D01*
X198999Y137347D01*
X200796Y141685D01*
X204115Y145004D01*
X208453Y146801D01*
X213147Y146801D01*
X216295Y145497D01*
X216409Y145470D01*
X216522Y145442D01*
X216529Y145442D01*
X216535Y145441D01*
X216651Y145452D01*
X216768Y145461D01*
X216773Y145463D01*
X216780Y145464D01*
X216887Y145512D01*
X216994Y145557D01*
X217000Y145562D01*
X217004Y145564D01*
X217018Y145576D01*
X217125Y145662D01*
X240891Y169428D01*
X240935Y169490D01*
X240969Y169525D01*
X240977Y169543D01*
X241010Y169582D01*
X241020Y169607D01*
X241035Y169628D01*
X241064Y169721D01*
X241098Y169812D01*
X241100Y169838D01*
X241107Y169863D01*
X241105Y169961D01*
X241109Y170058D01*
X241102Y170083D01*
X241101Y170109D01*
X241067Y170201D01*
X241040Y170294D01*
X241025Y170315D01*
X241016Y170340D01*
X240956Y170416D01*
X240900Y170496D01*
X240879Y170512D01*
X240863Y170532D01*
X240781Y170585D01*
X240703Y170643D01*
X240678Y170651D01*
X240656Y170665D01*
X240561Y170689D01*
X240469Y170719D01*
X240443Y170719D01*
X240417Y170725D01*
X240320Y170718D01*
X240223Y170717D01*
X240191Y170708D01*
X240172Y170706D01*
X240142Y170693D01*
X240079Y170675D01*
X240078Y170675D01*
X240062Y170670D01*
X237839Y169749D01*
X233761Y169749D01*
X229993Y171310D01*
X227110Y174193D01*
X225549Y177961D01*
X225549Y182039D01*
X227110Y185807D01*
X229993Y188690D01*
X233761Y190251D01*
X237839Y190251D01*
X241607Y188690D01*
X244490Y185807D01*
X246051Y182039D01*
X246051Y177961D01*
X245130Y175738D01*
X245108Y175643D01*
X245079Y175550D01*
X245080Y175524D01*
X245074Y175499D01*
X245083Y175402D01*
X245086Y175304D01*
X245094Y175280D01*
X245097Y175254D01*
X245137Y175165D01*
X245170Y175073D01*
X245186Y175053D01*
X245197Y175029D01*
X245263Y174957D01*
X245324Y174881D01*
X245346Y174867D01*
X245363Y174848D01*
X245449Y174801D01*
X245531Y174748D01*
X245556Y174742D01*
X245579Y174729D01*
X245675Y174712D01*
X245769Y174688D01*
X245795Y174690D01*
X245821Y174686D01*
X245917Y174700D01*
X246014Y174707D01*
X246038Y174718D01*
X246064Y174722D01*
X246151Y174766D01*
X246241Y174804D01*
X246266Y174824D01*
X246284Y174833D01*
X246307Y174857D01*
X246372Y174909D01*
X304541Y233078D01*
X304594Y233152D01*
X304654Y233222D01*
X304666Y233252D01*
X304685Y233278D01*
X304712Y233365D01*
X304746Y233450D01*
X304750Y233491D01*
X304757Y233513D01*
X304756Y233545D01*
X304764Y233617D01*
X304764Y433884D01*
X304761Y433903D01*
X304763Y433923D01*
X304741Y434024D01*
X304725Y434126D01*
X304715Y434144D01*
X304711Y434164D01*
X304658Y434253D01*
X304609Y434344D01*
X304595Y434358D01*
X304585Y434375D01*
X304506Y434442D01*
X304431Y434513D01*
X304413Y434522D01*
X304398Y434535D01*
X304302Y434573D01*
X304208Y434617D01*
X304188Y434619D01*
X304170Y434626D01*
X304003Y434645D01*
X302912Y434645D01*
X299677Y435985D01*
X297201Y438460D01*
X295862Y441695D01*
X295862Y445196D01*
X297201Y448431D01*
X299677Y450907D01*
X302912Y452246D01*
X306413Y452246D01*
X309648Y450907D01*
X312123Y448431D01*
X313463Y445196D01*
X313463Y441695D01*
X312123Y438460D01*
X311121Y437458D01*
X311068Y437384D01*
X311008Y437315D01*
X310996Y437284D01*
X310977Y437258D01*
X310950Y437171D01*
X310916Y437086D01*
X310912Y437045D01*
X310905Y437023D01*
X310906Y436991D01*
X310898Y436920D01*
X310898Y230761D01*
X221462Y141325D01*
X221394Y141231D01*
X221324Y141136D01*
X221322Y141130D01*
X221318Y141125D01*
X221284Y141014D01*
X221248Y140902D01*
X221248Y140896D01*
X221246Y140890D01*
X221249Y140773D01*
X221250Y140656D01*
X221252Y140649D01*
X221252Y140644D01*
X221259Y140627D01*
X221297Y140495D01*
X222601Y137347D01*
X222601Y113153D01*
X220804Y108815D01*
X217485Y105496D01*
X213147Y103699D01*
X208453Y103699D01*
G37*
%LPD*%
%LPC*%
G36*
X656314Y522872D02*
X656314Y522872D01*
X653460Y524054D01*
X651275Y526239D01*
X650093Y529093D01*
X650093Y532182D01*
X651275Y535037D01*
X653460Y537221D01*
X656314Y538403D01*
X659404Y538403D01*
X662258Y537221D01*
X664442Y535037D01*
X664800Y534174D01*
X664861Y534074D01*
X664921Y533975D01*
X664926Y533971D01*
X664929Y533965D01*
X665020Y533890D01*
X665108Y533815D01*
X665114Y533812D01*
X665119Y533808D01*
X665227Y533767D01*
X665336Y533723D01*
X665344Y533722D01*
X665348Y533720D01*
X665367Y533719D01*
X665503Y533704D01*
X752929Y533704D01*
X753019Y533719D01*
X753110Y533726D01*
X753140Y533739D01*
X753172Y533744D01*
X753252Y533787D01*
X753336Y533822D01*
X753368Y533848D01*
X753389Y533859D01*
X753411Y533882D01*
X753467Y533927D01*
X863019Y643479D01*
X863072Y643553D01*
X863131Y643622D01*
X863144Y643652D01*
X863162Y643679D01*
X863189Y643765D01*
X863223Y643850D01*
X863228Y643891D01*
X863235Y643914D01*
X863234Y643946D01*
X863242Y644017D01*
X863242Y768021D01*
X863239Y768041D01*
X863241Y768061D01*
X863219Y768162D01*
X863202Y768264D01*
X863193Y768282D01*
X863189Y768301D01*
X863135Y768390D01*
X863087Y768482D01*
X863073Y768495D01*
X863062Y768512D01*
X862984Y768580D01*
X862909Y768651D01*
X862891Y768659D01*
X862875Y768672D01*
X862779Y768711D01*
X862686Y768755D01*
X862666Y768757D01*
X862647Y768764D01*
X862481Y768783D01*
X853472Y768783D01*
X852270Y769984D01*
X852270Y785183D01*
X853472Y786384D01*
X868670Y786384D01*
X869872Y785183D01*
X869872Y769984D01*
X869598Y769711D01*
X869545Y769637D01*
X869486Y769567D01*
X869474Y769537D01*
X869455Y769511D01*
X869428Y769424D01*
X869394Y769339D01*
X869389Y769298D01*
X869382Y769276D01*
X869383Y769244D01*
X869375Y769172D01*
X869375Y641161D01*
X829573Y601359D01*
X829516Y601280D01*
X829454Y601205D01*
X829445Y601181D01*
X829430Y601159D01*
X829401Y601067D01*
X829366Y600975D01*
X829365Y600949D01*
X829357Y600924D01*
X829360Y600827D01*
X829356Y600730D01*
X829363Y600705D01*
X829364Y600678D01*
X829397Y600587D01*
X829424Y600493D01*
X829439Y600472D01*
X829448Y600447D01*
X829509Y600371D01*
X829565Y600291D01*
X829586Y600276D01*
X829602Y600255D01*
X829684Y600203D01*
X829762Y600145D01*
X829787Y600137D01*
X829809Y600122D01*
X829903Y600099D01*
X829996Y600068D01*
X830022Y600069D01*
X830047Y600062D01*
X830144Y600070D01*
X830242Y600071D01*
X830273Y600080D01*
X830293Y600081D01*
X830323Y600094D01*
X830403Y600118D01*
X831360Y600514D01*
X834450Y600514D01*
X837304Y599332D01*
X839489Y597147D01*
X840671Y594293D01*
X840671Y591204D01*
X839489Y588350D01*
X837304Y586165D01*
X834450Y584983D01*
X831360Y584983D01*
X828506Y586165D01*
X826322Y588350D01*
X825139Y591204D01*
X825139Y594293D01*
X825536Y595251D01*
X825544Y595284D01*
X825545Y595287D01*
X825546Y595292D01*
X825558Y595345D01*
X825587Y595439D01*
X825586Y595465D01*
X825592Y595490D01*
X825583Y595587D01*
X825581Y595685D01*
X825572Y595709D01*
X825569Y595735D01*
X825530Y595824D01*
X825496Y595916D01*
X825480Y595936D01*
X825469Y595960D01*
X825403Y596032D01*
X825342Y596108D01*
X825320Y596122D01*
X825303Y596141D01*
X825218Y596188D01*
X825136Y596241D01*
X825110Y596247D01*
X825087Y596260D01*
X824992Y596277D01*
X824897Y596301D01*
X824871Y596299D01*
X824845Y596303D01*
X824749Y596289D01*
X824652Y596282D01*
X824628Y596271D01*
X824602Y596267D01*
X824515Y596223D01*
X824425Y596185D01*
X824400Y596165D01*
X824383Y596156D01*
X824360Y596132D01*
X824295Y596080D01*
X755785Y527571D01*
X665503Y527571D01*
X665388Y527552D01*
X665272Y527535D01*
X665266Y527532D01*
X665260Y527531D01*
X665157Y527477D01*
X665053Y527423D01*
X665048Y527419D01*
X665043Y527416D01*
X664963Y527332D01*
X664880Y527248D01*
X664877Y527241D01*
X664873Y527238D01*
X664866Y527221D01*
X664800Y527101D01*
X664442Y526239D01*
X662258Y524054D01*
X659404Y522872D01*
X656314Y522872D01*
G37*
%LPD*%
%LPC*%
G36*
X733262Y428896D02*
X733262Y428896D01*
X720901Y441256D01*
X720901Y458737D01*
X733262Y471097D01*
X750742Y471097D01*
X763103Y458737D01*
X763103Y441256D01*
X750742Y428896D01*
X733262Y428896D01*
G37*
%LPD*%
%LPC*%
G36*
X733262Y548896D02*
X733262Y548896D01*
X720901Y561256D01*
X720901Y578737D01*
X733262Y591097D01*
X750742Y591097D01*
X763103Y578737D01*
X763103Y561256D01*
X750742Y548896D01*
X733262Y548896D01*
G37*
%LPD*%
%LPC*%
G36*
X155768Y772940D02*
X155768Y772940D01*
X151420Y774741D01*
X148092Y778069D01*
X146291Y782417D01*
X146291Y787123D01*
X148092Y791471D01*
X151420Y794799D01*
X155841Y796630D01*
X155873Y796650D01*
X155909Y796662D01*
X155977Y796714D01*
X156050Y796760D01*
X156074Y796789D01*
X156104Y796812D01*
X156152Y796883D01*
X156207Y796949D01*
X156220Y796985D01*
X156242Y797016D01*
X156264Y797099D01*
X156295Y797179D01*
X156297Y797217D01*
X156307Y797253D01*
X156302Y797339D01*
X156305Y797424D01*
X156295Y797461D01*
X156293Y797499D01*
X156261Y797578D01*
X156237Y797661D01*
X156215Y797692D01*
X156201Y797727D01*
X156145Y797792D01*
X156097Y797863D01*
X156066Y797885D01*
X156041Y797914D01*
X155968Y797958D01*
X155899Y798009D01*
X155863Y798021D01*
X155830Y798041D01*
X155669Y798085D01*
X155236Y798154D01*
X153392Y798753D01*
X151664Y799633D01*
X150095Y800773D01*
X148724Y802144D01*
X147584Y803713D01*
X146704Y805441D01*
X146105Y807285D01*
X145889Y808647D01*
X167138Y808647D01*
X167158Y808650D01*
X167177Y808648D01*
X167279Y808670D01*
X167381Y808687D01*
X167398Y808696D01*
X167418Y808700D01*
X167507Y808753D01*
X167598Y808802D01*
X167612Y808816D01*
X167629Y808826D01*
X167696Y808905D01*
X167767Y808980D01*
X167776Y808998D01*
X167789Y809013D01*
X167827Y809109D01*
X167871Y809203D01*
X167873Y809223D01*
X167881Y809241D01*
X167899Y809408D01*
X167899Y810171D01*
X167901Y810171D01*
X167901Y809408D01*
X167904Y809388D01*
X167902Y809369D01*
X167924Y809267D01*
X167941Y809165D01*
X167950Y809148D01*
X167954Y809128D01*
X168007Y809039D01*
X168056Y808948D01*
X168070Y808934D01*
X168080Y808917D01*
X168159Y808850D01*
X168234Y808779D01*
X168252Y808770D01*
X168267Y808757D01*
X168363Y808718D01*
X168457Y808675D01*
X168477Y808673D01*
X168495Y808665D01*
X168662Y808647D01*
X189911Y808647D01*
X189695Y807285D01*
X189096Y805441D01*
X188216Y803713D01*
X187076Y802144D01*
X185705Y800773D01*
X184136Y799633D01*
X182408Y798753D01*
X180564Y798154D01*
X180131Y798085D01*
X180095Y798073D01*
X180057Y798070D01*
X179979Y798035D01*
X179898Y798008D01*
X179867Y797985D01*
X179833Y797970D01*
X179770Y797912D01*
X179701Y797860D01*
X179680Y797829D01*
X179652Y797803D01*
X179610Y797728D01*
X179562Y797658D01*
X179551Y797621D01*
X179533Y797588D01*
X179518Y797503D01*
X179494Y797421D01*
X179496Y797383D01*
X179489Y797346D01*
X179502Y797261D01*
X179506Y797175D01*
X179520Y797140D01*
X179525Y797102D01*
X179564Y797026D01*
X179595Y796946D01*
X179619Y796917D01*
X179637Y796883D01*
X179698Y796823D01*
X179753Y796757D01*
X179785Y796737D01*
X179812Y796711D01*
X179959Y796630D01*
X184380Y794799D01*
X187708Y791471D01*
X189509Y787123D01*
X189509Y782417D01*
X187708Y778069D01*
X184380Y774741D01*
X180032Y772940D01*
X155768Y772940D01*
G37*
%LPD*%
%LPC*%
G36*
X730151Y603286D02*
X730151Y603286D01*
X728194Y604097D01*
X726696Y605595D01*
X725885Y607552D01*
X725885Y609670D01*
X726696Y611627D01*
X728194Y613125D01*
X730151Y613936D01*
X731882Y613936D01*
X731972Y613950D01*
X732063Y613957D01*
X732093Y613970D01*
X732125Y613975D01*
X732206Y614018D01*
X732290Y614054D01*
X732322Y614079D01*
X732342Y614090D01*
X732365Y614114D01*
X732421Y614158D01*
X764979Y646717D01*
X764991Y646733D01*
X765007Y646746D01*
X765041Y646800D01*
X765069Y646829D01*
X765086Y646866D01*
X765123Y646917D01*
X765129Y646936D01*
X765140Y646953D01*
X765155Y647014D01*
X765173Y647052D01*
X765177Y647093D01*
X765195Y647152D01*
X765195Y647172D01*
X765200Y647191D01*
X765195Y647253D01*
X765200Y647296D01*
X765190Y647339D01*
X765189Y647398D01*
X765182Y647417D01*
X765180Y647436D01*
X765157Y647490D01*
X765147Y647537D01*
X765123Y647577D01*
X765104Y647629D01*
X765092Y647645D01*
X765084Y647663D01*
X765037Y647722D01*
X765021Y647748D01*
X765005Y647762D01*
X765005Y665821D01*
X764991Y665911D01*
X764983Y666002D01*
X764971Y666032D01*
X764966Y666064D01*
X764923Y666145D01*
X764887Y666229D01*
X764861Y666261D01*
X764850Y666282D01*
X764827Y666304D01*
X764782Y666360D01*
X724131Y707011D01*
X724057Y707064D01*
X723987Y707124D01*
X723957Y707136D01*
X723931Y707155D01*
X723844Y707182D01*
X723759Y707216D01*
X723718Y707220D01*
X723696Y707227D01*
X723664Y707226D01*
X723592Y707234D01*
X723109Y707234D01*
X720136Y710207D01*
X720136Y714411D01*
X723109Y717384D01*
X727313Y717384D01*
X730286Y714411D01*
X730286Y710024D01*
X730270Y709973D01*
X730270Y709952D01*
X730265Y709933D01*
X730273Y709830D01*
X730276Y709727D01*
X730283Y709708D01*
X730285Y709688D01*
X730325Y709593D01*
X730360Y709496D01*
X730373Y709480D01*
X730381Y709461D01*
X730486Y709330D01*
X771139Y668677D01*
X771139Y654714D01*
X771150Y654644D01*
X771152Y654572D01*
X771170Y654523D01*
X771178Y654472D01*
X771212Y654408D01*
X771237Y654341D01*
X771269Y654300D01*
X771294Y654254D01*
X771346Y654205D01*
X771390Y654149D01*
X771434Y654121D01*
X771472Y654085D01*
X771537Y654055D01*
X771597Y654016D01*
X771648Y654003D01*
X771695Y653981D01*
X771766Y653973D01*
X771836Y653956D01*
X771888Y653960D01*
X771939Y653954D01*
X772010Y653969D01*
X772081Y653975D01*
X772129Y653995D01*
X772180Y654006D01*
X772241Y654043D01*
X772307Y654071D01*
X772363Y654116D01*
X772391Y654133D01*
X772406Y654150D01*
X772438Y654176D01*
X786695Y668433D01*
X812631Y668433D01*
X812721Y668447D01*
X812812Y668455D01*
X812841Y668467D01*
X812873Y668472D01*
X812954Y668515D01*
X813038Y668551D01*
X813070Y668577D01*
X813091Y668588D01*
X813113Y668611D01*
X813169Y668656D01*
X814954Y670441D01*
X819158Y670441D01*
X822131Y667468D01*
X822131Y663264D01*
X819158Y660291D01*
X814954Y660291D01*
X813169Y662076D01*
X813095Y662129D01*
X813026Y662189D01*
X812995Y662201D01*
X812969Y662220D01*
X812882Y662247D01*
X812797Y662281D01*
X812756Y662285D01*
X812734Y662292D01*
X812702Y662291D01*
X812631Y662299D01*
X789551Y662299D01*
X789461Y662285D01*
X789370Y662277D01*
X789340Y662265D01*
X789308Y662260D01*
X789227Y662217D01*
X789143Y662181D01*
X789111Y662155D01*
X789091Y662144D01*
X789068Y662121D01*
X789013Y662076D01*
X736758Y609821D01*
X736705Y609748D01*
X736645Y609678D01*
X736633Y609648D01*
X736614Y609622D01*
X736587Y609535D01*
X736553Y609450D01*
X736549Y609409D01*
X736542Y609387D01*
X736543Y609354D01*
X736535Y609283D01*
X736535Y607552D01*
X735724Y605595D01*
X734226Y604097D01*
X732269Y603286D01*
X730151Y603286D01*
G37*
%LPD*%
%LPC*%
G36*
X362253Y473551D02*
X362253Y473551D01*
X361051Y474753D01*
X361051Y495247D01*
X362253Y496449D01*
X382747Y496449D01*
X383949Y495247D01*
X383949Y489586D01*
X383952Y489566D01*
X383950Y489547D01*
X383972Y489445D01*
X383988Y489343D01*
X383998Y489326D01*
X384002Y489306D01*
X384055Y489217D01*
X384104Y489126D01*
X384118Y489112D01*
X384128Y489095D01*
X384207Y489028D01*
X384282Y488956D01*
X384300Y488948D01*
X384315Y488935D01*
X384411Y488896D01*
X384505Y488853D01*
X384525Y488851D01*
X384543Y488843D01*
X384710Y488825D01*
X429065Y488825D01*
X429155Y488839D01*
X429246Y488847D01*
X429276Y488859D01*
X429308Y488864D01*
X429389Y488907D01*
X429473Y488943D01*
X429505Y488969D01*
X429526Y488980D01*
X429548Y489003D01*
X429604Y489048D01*
X435504Y494948D01*
X488254Y494948D01*
X488344Y494962D01*
X488435Y494970D01*
X488465Y494982D01*
X488497Y494987D01*
X488578Y495030D01*
X488662Y495066D01*
X488694Y495092D01*
X488715Y495103D01*
X488737Y495126D01*
X488793Y495171D01*
X492652Y499030D01*
X492824Y499030D01*
X492844Y499033D01*
X492863Y499031D01*
X492965Y499053D01*
X493067Y499069D01*
X493084Y499079D01*
X493104Y499083D01*
X493193Y499136D01*
X493284Y499185D01*
X493298Y499199D01*
X493315Y499209D01*
X493382Y499288D01*
X493454Y499363D01*
X493462Y499381D01*
X493475Y499396D01*
X493514Y499492D01*
X493557Y499586D01*
X493559Y499606D01*
X493567Y499624D01*
X493585Y499791D01*
X493585Y502147D01*
X496558Y505120D01*
X500762Y505120D01*
X503735Y502147D01*
X503735Y497943D01*
X500762Y494970D01*
X498238Y494970D01*
X498148Y494956D01*
X498057Y494948D01*
X498027Y494936D01*
X497995Y494931D01*
X497914Y494888D01*
X497830Y494852D01*
X497798Y494826D01*
X497777Y494815D01*
X497755Y494792D01*
X497699Y494747D01*
X495848Y492896D01*
X495508Y492896D01*
X495418Y492882D01*
X495327Y492874D01*
X495297Y492862D01*
X495265Y492857D01*
X495184Y492814D01*
X495100Y492778D01*
X495068Y492752D01*
X495047Y492741D01*
X495025Y492718D01*
X494969Y492673D01*
X491110Y488814D01*
X438360Y488814D01*
X438270Y488800D01*
X438179Y488792D01*
X438149Y488780D01*
X438117Y488775D01*
X438036Y488732D01*
X437952Y488696D01*
X437920Y488670D01*
X437899Y488659D01*
X437877Y488636D01*
X437821Y488591D01*
X431921Y482691D01*
X384710Y482691D01*
X384690Y482688D01*
X384671Y482690D01*
X384569Y482668D01*
X384467Y482652D01*
X384450Y482642D01*
X384430Y482638D01*
X384341Y482585D01*
X384250Y482536D01*
X384236Y482522D01*
X384219Y482512D01*
X384152Y482433D01*
X384080Y482358D01*
X384072Y482340D01*
X384059Y482325D01*
X384020Y482229D01*
X383977Y482135D01*
X383975Y482115D01*
X383967Y482097D01*
X383949Y481930D01*
X383949Y474753D01*
X382747Y473551D01*
X362253Y473551D01*
G37*
%LPD*%
%LPC*%
G36*
X479437Y792949D02*
X479437Y792949D01*
X469449Y802937D01*
X469449Y817063D01*
X479437Y827051D01*
X493563Y827051D01*
X503551Y817063D01*
X503551Y802937D01*
X493563Y792949D01*
X479437Y792949D01*
G37*
%LPD*%
%LPC*%
G36*
X391437Y792949D02*
X391437Y792949D01*
X381449Y802937D01*
X381449Y817063D01*
X391437Y827051D01*
X405563Y827051D01*
X415551Y817063D01*
X415551Y802937D01*
X405563Y792949D01*
X391437Y792949D01*
G37*
%LPD*%
%LPC*%
G36*
X435437Y536949D02*
X435437Y536949D01*
X425449Y546937D01*
X425449Y561063D01*
X435437Y571051D01*
X449563Y571051D01*
X459551Y561063D01*
X459551Y546937D01*
X449563Y536949D01*
X435437Y536949D01*
G37*
%LPD*%
%LPC*%
G36*
X435437Y448949D02*
X435437Y448949D01*
X425449Y458937D01*
X425449Y473063D01*
X435437Y483051D01*
X449563Y483051D01*
X459551Y473063D01*
X459551Y458937D01*
X449563Y448949D01*
X435437Y448949D01*
G37*
%LPD*%
%LPC*%
G36*
X91937Y492949D02*
X91937Y492949D01*
X81949Y502937D01*
X81949Y517063D01*
X91937Y527051D01*
X106063Y527051D01*
X116051Y517063D01*
X116051Y502937D01*
X106063Y492949D01*
X91937Y492949D01*
G37*
%LPD*%
%LPC*%
G36*
X179937Y492949D02*
X179937Y492949D01*
X169949Y502937D01*
X169949Y517063D01*
X179937Y527051D01*
X194063Y527051D01*
X204051Y517063D01*
X204051Y502937D01*
X194063Y492949D01*
X179937Y492949D01*
G37*
%LPD*%
%LPC*%
G36*
X155768Y747540D02*
X155768Y747540D01*
X151420Y749341D01*
X148092Y752669D01*
X146291Y757017D01*
X146291Y761723D01*
X148092Y766071D01*
X151420Y769399D01*
X155768Y771200D01*
X180032Y771200D01*
X184380Y769399D01*
X187708Y766071D01*
X189509Y761723D01*
X189509Y757017D01*
X187708Y752669D01*
X184380Y749341D01*
X180032Y747540D01*
X155768Y747540D01*
G37*
%LPD*%
%LPC*%
G36*
X645768Y798340D02*
X645768Y798340D01*
X641420Y800141D01*
X638092Y803469D01*
X636291Y807817D01*
X636291Y812523D01*
X638092Y816871D01*
X641420Y820199D01*
X645768Y822000D01*
X670032Y822000D01*
X674380Y820199D01*
X677708Y816871D01*
X679509Y812523D01*
X679509Y807817D01*
X677708Y803469D01*
X674380Y800141D01*
X670032Y798340D01*
X645768Y798340D01*
G37*
%LPD*%
%LPC*%
G36*
X645768Y772940D02*
X645768Y772940D01*
X641420Y774741D01*
X638092Y778069D01*
X636291Y782417D01*
X636291Y787123D01*
X638092Y791471D01*
X641420Y794799D01*
X645768Y796600D01*
X670032Y796600D01*
X674380Y794799D01*
X677708Y791471D01*
X679509Y787123D01*
X679509Y782417D01*
X677708Y778069D01*
X674380Y774741D01*
X670032Y772940D01*
X645768Y772940D01*
G37*
%LPD*%
%LPC*%
G36*
X211403Y207049D02*
X211403Y207049D01*
X207065Y208846D01*
X203746Y212165D01*
X201949Y216503D01*
X201949Y221197D01*
X203746Y225535D01*
X207065Y228854D01*
X211403Y230651D01*
X235597Y230651D01*
X239935Y228854D01*
X243254Y225535D01*
X245051Y221197D01*
X245051Y216503D01*
X243254Y212165D01*
X239935Y208846D01*
X235597Y207049D01*
X211403Y207049D01*
G37*
%LPD*%
%LPC*%
G36*
X649403Y369349D02*
X649403Y369349D01*
X645065Y371146D01*
X641746Y374465D01*
X639949Y378803D01*
X639949Y383497D01*
X641746Y387835D01*
X645065Y391154D01*
X649403Y392951D01*
X673597Y392951D01*
X677935Y391154D01*
X681254Y387835D01*
X683051Y383497D01*
X683051Y378803D01*
X681254Y374465D01*
X677935Y371146D01*
X673597Y369349D01*
X649403Y369349D01*
G37*
%LPD*%
%LPC*%
G36*
X757021Y99417D02*
X757021Y99417D01*
X752813Y101160D01*
X749592Y104381D01*
X747849Y108589D01*
X747849Y113143D01*
X749592Y117351D01*
X752813Y120572D01*
X757021Y122315D01*
X780371Y122315D01*
X784579Y120572D01*
X787800Y117351D01*
X789543Y113143D01*
X789543Y108589D01*
X787800Y104381D01*
X784579Y101160D01*
X780371Y99417D01*
X757021Y99417D01*
G37*
%LPD*%
%LPC*%
G36*
X757021Y23217D02*
X757021Y23217D01*
X752813Y24960D01*
X749592Y28181D01*
X747849Y32389D01*
X747849Y36943D01*
X749592Y41151D01*
X752813Y44372D01*
X757021Y46115D01*
X780371Y46115D01*
X784579Y44372D01*
X787800Y41151D01*
X789543Y36943D01*
X789543Y32389D01*
X787800Y28181D01*
X784579Y24960D01*
X780371Y23217D01*
X757021Y23217D01*
G37*
%LPD*%
%LPC*%
G36*
X757021Y150217D02*
X757021Y150217D01*
X752813Y151960D01*
X749592Y155181D01*
X747849Y159389D01*
X747849Y163943D01*
X749592Y168151D01*
X752813Y171372D01*
X757021Y173115D01*
X780371Y173115D01*
X784579Y171372D01*
X787800Y168151D01*
X789543Y163943D01*
X789543Y159389D01*
X787800Y155181D01*
X784579Y151960D01*
X780371Y150217D01*
X757021Y150217D01*
G37*
%LPD*%
%LPC*%
G36*
X757021Y124817D02*
X757021Y124817D01*
X752813Y126560D01*
X749592Y129781D01*
X747849Y133989D01*
X747849Y138543D01*
X749592Y142751D01*
X752813Y145972D01*
X757021Y147715D01*
X780371Y147715D01*
X784579Y145972D01*
X787800Y142751D01*
X789543Y138543D01*
X789543Y133989D01*
X787800Y129781D01*
X784579Y126560D01*
X780371Y124817D01*
X757021Y124817D01*
G37*
%LPD*%
%LPC*%
G36*
X757021Y74017D02*
X757021Y74017D01*
X752813Y75760D01*
X749592Y78981D01*
X747849Y83189D01*
X747849Y87743D01*
X749592Y91951D01*
X752813Y95172D01*
X757021Y96915D01*
X780371Y96915D01*
X784579Y95172D01*
X787800Y91951D01*
X789543Y87743D01*
X789543Y83189D01*
X787800Y78981D01*
X784579Y75760D01*
X780371Y74017D01*
X757021Y74017D01*
G37*
%LPD*%
%LPC*%
G36*
X457272Y867258D02*
X457272Y867258D01*
X456070Y868460D01*
X456070Y889716D01*
X457272Y890918D01*
X478528Y890918D01*
X479730Y889716D01*
X479730Y868460D01*
X478528Y867258D01*
X457272Y867258D01*
G37*
%LPD*%
%LPC*%
G36*
X406472Y867258D02*
X406472Y867258D01*
X405270Y868460D01*
X405270Y889716D01*
X406472Y890918D01*
X427728Y890918D01*
X428930Y889716D01*
X428930Y868460D01*
X427728Y867258D01*
X406472Y867258D01*
G37*
%LPD*%
%LPC*%
G36*
X472459Y117485D02*
X472459Y117485D01*
X464934Y125010D01*
X464934Y135652D01*
X472459Y143177D01*
X483101Y143177D01*
X490626Y135652D01*
X490626Y125010D01*
X483101Y117485D01*
X472459Y117485D01*
G37*
%LPD*%
%LPC*%
G36*
X326969Y905157D02*
X326969Y905157D01*
X319444Y912682D01*
X319444Y923324D01*
X326969Y930849D01*
X337611Y930849D01*
X345136Y923324D01*
X345136Y912682D01*
X337611Y905157D01*
X326969Y905157D01*
G37*
%LPD*%
%LPC*%
G36*
X429971Y117522D02*
X429971Y117522D01*
X422446Y125047D01*
X422446Y135689D01*
X429971Y143213D01*
X440613Y143213D01*
X448138Y135689D01*
X448138Y125047D01*
X440613Y117522D01*
X429971Y117522D01*
G37*
%LPD*%
%LPC*%
G36*
X510553Y20009D02*
X510553Y20009D01*
X503028Y27534D01*
X503028Y38175D01*
X510553Y45700D01*
X521195Y45700D01*
X528719Y38175D01*
X528719Y27534D01*
X521195Y20009D01*
X510553Y20009D01*
G37*
%LPD*%
%LPC*%
G36*
X566038Y590063D02*
X566038Y590063D01*
X562671Y591458D01*
X560093Y594035D01*
X558698Y597403D01*
X558698Y601048D01*
X560093Y604416D01*
X562671Y606993D01*
X566038Y608388D01*
X583908Y608388D01*
X587275Y606993D01*
X589853Y604416D01*
X591248Y601048D01*
X591248Y597403D01*
X589853Y594035D01*
X587275Y591458D01*
X583908Y590063D01*
X566038Y590063D01*
G37*
%LPD*%
%LPC*%
G36*
X362253Y498551D02*
X362253Y498551D01*
X361051Y499753D01*
X361051Y520247D01*
X362253Y521449D01*
X382747Y521449D01*
X383949Y520247D01*
X383949Y499753D01*
X382747Y498551D01*
X362253Y498551D01*
G37*
%LPD*%
%LPC*%
G36*
X157753Y428551D02*
X157753Y428551D01*
X156551Y429753D01*
X156551Y450247D01*
X157753Y451449D01*
X178247Y451449D01*
X179449Y450247D01*
X179449Y429753D01*
X178247Y428551D01*
X157753Y428551D01*
G37*
%LPD*%
%LPC*%
G36*
X362253Y523551D02*
X362253Y523551D01*
X361051Y524753D01*
X361051Y545247D01*
X362253Y546449D01*
X382747Y546449D01*
X383949Y545247D01*
X383949Y524753D01*
X382747Y523551D01*
X362253Y523551D01*
G37*
%LPD*%
%LPC*%
G36*
X107753Y428551D02*
X107753Y428551D01*
X106551Y429753D01*
X106551Y450247D01*
X107753Y451449D01*
X128247Y451449D01*
X129449Y450247D01*
X129449Y429753D01*
X128247Y428551D01*
X107753Y428551D01*
G37*
%LPD*%
%LPC*%
G36*
X132753Y428551D02*
X132753Y428551D01*
X131551Y429753D01*
X131551Y450247D01*
X132753Y451449D01*
X153247Y451449D01*
X154449Y450247D01*
X154449Y429753D01*
X153247Y428551D01*
X132753Y428551D01*
G37*
%LPD*%
%LPC*%
G36*
X560978Y349445D02*
X560978Y349445D01*
X557797Y350763D01*
X555363Y353197D01*
X554045Y356378D01*
X554045Y373030D01*
X555363Y376211D01*
X557797Y378645D01*
X560978Y379963D01*
X564422Y379963D01*
X567603Y378645D01*
X570037Y376211D01*
X571355Y373030D01*
X571355Y356378D01*
X570037Y353197D01*
X567603Y350763D01*
X564422Y349445D01*
X560978Y349445D01*
G37*
%LPD*%
%LPC*%
G36*
X535578Y260037D02*
X535578Y260037D01*
X532397Y261355D01*
X529963Y263789D01*
X528645Y266970D01*
X528645Y283622D01*
X529963Y286803D01*
X532397Y289237D01*
X535578Y290555D01*
X539022Y290555D01*
X542203Y289237D01*
X544637Y286803D01*
X545955Y283622D01*
X545955Y266970D01*
X544637Y263789D01*
X542203Y261355D01*
X539022Y260037D01*
X535578Y260037D01*
G37*
%LPD*%
%LPC*%
G36*
X435435Y148108D02*
X435435Y148108D01*
X431208Y149858D01*
X427973Y153094D01*
X426222Y157321D01*
X426222Y161896D01*
X427973Y166123D01*
X431208Y169358D01*
X435435Y171109D01*
X440010Y171109D01*
X444237Y169358D01*
X447472Y166123D01*
X449223Y161896D01*
X449223Y157321D01*
X447472Y153094D01*
X444237Y149858D01*
X440010Y148108D01*
X435435Y148108D01*
G37*
%LPD*%
%LPC*%
G36*
X604181Y21354D02*
X604181Y21354D01*
X599954Y23105D01*
X596719Y26340D01*
X594968Y30567D01*
X594968Y35142D01*
X596719Y39369D01*
X599954Y42604D01*
X604181Y44355D01*
X608757Y44355D01*
X612984Y42604D01*
X616219Y39369D01*
X617970Y35142D01*
X617970Y30567D01*
X616219Y26340D01*
X612984Y23105D01*
X608757Y21354D01*
X604181Y21354D01*
G37*
%LPD*%
%LPC*%
G36*
X362232Y946931D02*
X362232Y946931D01*
X358005Y948681D01*
X354770Y951917D01*
X353019Y956144D01*
X353019Y960719D01*
X354770Y964946D01*
X358005Y968181D01*
X362232Y969932D01*
X366808Y969932D01*
X371035Y968181D01*
X374270Y964946D01*
X376021Y960719D01*
X376021Y956144D01*
X374270Y951917D01*
X371035Y948681D01*
X366808Y946931D01*
X362232Y946931D01*
G37*
%LPD*%
%LPC*%
G36*
X362232Y920858D02*
X362232Y920858D01*
X358005Y922609D01*
X354770Y925844D01*
X353019Y930072D01*
X353019Y934647D01*
X354770Y938874D01*
X358005Y942109D01*
X362232Y943860D01*
X366808Y943860D01*
X371035Y942109D01*
X374270Y938874D01*
X376021Y934647D01*
X376021Y930072D01*
X374270Y925844D01*
X371035Y922609D01*
X366808Y920858D01*
X362232Y920858D01*
G37*
%LPD*%
%LPC*%
G36*
X478316Y149450D02*
X478316Y149450D01*
X474089Y151201D01*
X470854Y154437D01*
X469103Y158664D01*
X469103Y163239D01*
X470854Y167466D01*
X474089Y170701D01*
X478316Y172452D01*
X482891Y172452D01*
X487118Y170701D01*
X490353Y167466D01*
X492104Y163239D01*
X492104Y158664D01*
X490353Y154437D01*
X487118Y151201D01*
X482891Y149450D01*
X478316Y149450D01*
G37*
%LPD*%
%LPC*%
G36*
X468796Y21354D02*
X468796Y21354D01*
X464569Y23105D01*
X461334Y26340D01*
X459583Y30567D01*
X459583Y35142D01*
X461334Y39369D01*
X464569Y42604D01*
X468796Y44355D01*
X473372Y44355D01*
X477599Y42604D01*
X480834Y39369D01*
X482585Y35142D01*
X482585Y30567D01*
X480834Y26340D01*
X477599Y23105D01*
X473372Y21354D01*
X468796Y21354D01*
G37*
%LPD*%
%LPC*%
G36*
X119761Y109749D02*
X119761Y109749D01*
X115993Y111310D01*
X113110Y114193D01*
X111549Y117961D01*
X111549Y122039D01*
X113110Y125807D01*
X115993Y128690D01*
X119761Y130251D01*
X123839Y130251D01*
X127607Y128690D01*
X130490Y125807D01*
X132051Y122039D01*
X132051Y117961D01*
X130490Y114193D01*
X127607Y111310D01*
X123839Y109749D01*
X119761Y109749D01*
G37*
%LPD*%
%LPC*%
G36*
X641395Y596603D02*
X641395Y596603D01*
X640194Y597804D01*
X640194Y613583D01*
X641395Y614785D01*
X657174Y614785D01*
X658375Y613583D01*
X658375Y597804D01*
X657174Y596603D01*
X641395Y596603D01*
G37*
%LPD*%
%LPC*%
G36*
X618117Y559704D02*
X618117Y559704D01*
X616916Y560905D01*
X616916Y576684D01*
X618117Y577885D01*
X633896Y577885D01*
X635097Y576684D01*
X635097Y560905D01*
X633896Y559704D01*
X618117Y559704D01*
G37*
%LPD*%
%LPC*%
G36*
X324668Y11615D02*
X324668Y11615D01*
X323467Y12816D01*
X323467Y28595D01*
X324668Y29796D01*
X340447Y29796D01*
X341648Y28595D01*
X341648Y12816D01*
X340447Y11615D01*
X324668Y11615D01*
G37*
%LPD*%
%LPC*%
G36*
X274471Y913958D02*
X274471Y913958D01*
X273270Y915159D01*
X273270Y930938D01*
X274471Y932139D01*
X290250Y932139D01*
X291451Y930938D01*
X291451Y915159D01*
X290250Y913958D01*
X274471Y913958D01*
G37*
%LPD*%
%LPC*%
G36*
X401884Y606545D02*
X401884Y606545D01*
X400682Y607746D01*
X400682Y623525D01*
X401884Y624726D01*
X417662Y624726D01*
X418864Y623525D01*
X418864Y607746D01*
X417662Y606545D01*
X401884Y606545D01*
G37*
%LPD*%
%LPC*%
G36*
X439548Y628953D02*
X439548Y628953D01*
X438347Y630155D01*
X438347Y645934D01*
X439548Y647135D01*
X455327Y647135D01*
X456528Y645934D01*
X456528Y630155D01*
X455327Y628953D01*
X439548Y628953D01*
G37*
%LPD*%
%LPC*%
G36*
X268438Y957019D02*
X268438Y957019D01*
X267237Y958221D01*
X267237Y973420D01*
X268438Y974621D01*
X283637Y974621D01*
X284838Y973420D01*
X284838Y958221D01*
X283637Y957019D01*
X268438Y957019D01*
G37*
%LPD*%
%LPC*%
G36*
X780583Y823606D02*
X780583Y823606D01*
X779381Y824808D01*
X779381Y840007D01*
X780583Y841208D01*
X795781Y841208D01*
X796983Y840007D01*
X796983Y824808D01*
X795781Y823606D01*
X780583Y823606D01*
G37*
%LPD*%
%LPC*%
G36*
X632401Y151199D02*
X632401Y151199D01*
X631199Y152401D01*
X631199Y167599D01*
X632401Y168801D01*
X647599Y168801D01*
X648801Y167599D01*
X648801Y152401D01*
X647599Y151199D01*
X632401Y151199D01*
G37*
%LPD*%
%LPC*%
G36*
X266340Y649676D02*
X266340Y649676D01*
X265138Y650878D01*
X265138Y666077D01*
X266340Y667278D01*
X281539Y667278D01*
X282740Y666077D01*
X282740Y650878D01*
X281539Y649676D01*
X266340Y649676D01*
G37*
%LPD*%
%LPC*%
G36*
X317063Y434645D02*
X317063Y434645D01*
X315862Y435846D01*
X315862Y451045D01*
X317063Y452246D01*
X332262Y452246D01*
X333463Y451045D01*
X333463Y435846D01*
X332262Y434645D01*
X317063Y434645D01*
G37*
%LPD*%
%LPC*%
G36*
X195826Y561765D02*
X195826Y561765D01*
X194625Y562967D01*
X194625Y578166D01*
X195826Y579367D01*
X211025Y579367D01*
X212226Y578166D01*
X212226Y562967D01*
X211025Y561765D01*
X195826Y561765D01*
G37*
%LPD*%
%LPC*%
G36*
X195688Y956864D02*
X195688Y956864D01*
X194486Y958065D01*
X194486Y973264D01*
X195688Y974466D01*
X210887Y974466D01*
X212088Y973264D01*
X212088Y958065D01*
X210887Y956864D01*
X195688Y956864D01*
G37*
%LPD*%
%LPC*%
G36*
X804952Y626544D02*
X804952Y626544D01*
X803751Y627745D01*
X803751Y642944D01*
X804952Y644146D01*
X820151Y644146D01*
X821352Y642944D01*
X821352Y627745D01*
X820151Y626544D01*
X804952Y626544D01*
G37*
%LPD*%
%LPC*%
G36*
X314195Y500576D02*
X314195Y500576D01*
X312994Y501777D01*
X312994Y516976D01*
X314195Y518178D01*
X329394Y518178D01*
X330595Y516976D01*
X330595Y501777D01*
X329394Y500576D01*
X314195Y500576D01*
G37*
%LPD*%
%LPC*%
G36*
X395510Y36162D02*
X395510Y36162D01*
X394309Y37363D01*
X394309Y52562D01*
X395510Y53763D01*
X410709Y53763D01*
X411910Y52562D01*
X411910Y37363D01*
X410709Y36162D01*
X395510Y36162D01*
G37*
%LPD*%
%LPC*%
G36*
X268489Y589683D02*
X268489Y589683D01*
X267288Y590884D01*
X267288Y606083D01*
X268489Y607284D01*
X283688Y607284D01*
X284890Y606083D01*
X284890Y590884D01*
X283688Y589683D01*
X268489Y589683D01*
G37*
%LPD*%
%LPC*%
G36*
X148323Y166523D02*
X148323Y166523D01*
X148323Y196703D01*
X149678Y196488D01*
X151518Y195890D01*
X153242Y195012D01*
X154807Y193875D01*
X156175Y192507D01*
X157312Y190942D01*
X158190Y189218D01*
X158788Y187378D01*
X159091Y185467D01*
X159091Y166523D01*
X148323Y166523D01*
G37*
%LPD*%
%LPC*%
G36*
X134509Y166523D02*
X134509Y166523D01*
X134509Y185467D01*
X134812Y187378D01*
X135410Y189218D01*
X136288Y190942D01*
X137425Y192507D01*
X138793Y193875D01*
X140358Y195012D01*
X142082Y195890D01*
X143922Y196488D01*
X145277Y196703D01*
X145277Y166523D01*
X134509Y166523D01*
G37*
%LPD*%
%LPC*%
G36*
X622076Y596603D02*
X622076Y596603D01*
X618735Y597987D01*
X616178Y600544D01*
X614794Y603886D01*
X614794Y607502D01*
X616178Y610843D01*
X618735Y613401D01*
X622076Y614785D01*
X625693Y614785D01*
X629034Y613401D01*
X631591Y610843D01*
X632975Y607502D01*
X632975Y603886D01*
X631591Y600544D01*
X629034Y597987D01*
X625693Y596603D01*
X622076Y596603D01*
G37*
%LPD*%
%LPC*%
G36*
X356149Y11615D02*
X356149Y11615D01*
X352808Y12999D01*
X350251Y15556D01*
X348867Y18897D01*
X348867Y22514D01*
X350251Y25855D01*
X352808Y28412D01*
X356149Y29796D01*
X359766Y29796D01*
X363107Y28412D01*
X365664Y25855D01*
X367048Y22514D01*
X367048Y18897D01*
X365664Y15556D01*
X363107Y12999D01*
X359766Y11615D01*
X356149Y11615D01*
G37*
%LPD*%
%LPC*%
G36*
X445629Y603553D02*
X445629Y603553D01*
X442288Y604937D01*
X439731Y607495D01*
X438347Y610836D01*
X438347Y614452D01*
X439731Y617794D01*
X442288Y620351D01*
X445629Y621735D01*
X449246Y621735D01*
X452587Y620351D01*
X455144Y617794D01*
X456528Y614452D01*
X456528Y610836D01*
X455144Y607495D01*
X452587Y604937D01*
X449246Y603553D01*
X445629Y603553D01*
G37*
%LPD*%
%LPC*%
G36*
X407965Y631945D02*
X407965Y631945D01*
X404623Y633329D01*
X402066Y635886D01*
X400682Y639227D01*
X400682Y642844D01*
X402066Y646185D01*
X404623Y648742D01*
X407965Y650126D01*
X411581Y650126D01*
X414923Y648742D01*
X417480Y646185D01*
X418864Y642844D01*
X418864Y639227D01*
X417480Y635886D01*
X414923Y633329D01*
X411581Y631945D01*
X407965Y631945D01*
G37*
%LPD*%
%LPC*%
G36*
X649598Y559704D02*
X649598Y559704D01*
X646257Y561088D01*
X643700Y563645D01*
X642316Y566986D01*
X642316Y570603D01*
X643700Y573944D01*
X646257Y576501D01*
X649598Y577885D01*
X653215Y577885D01*
X656556Y576501D01*
X659113Y573944D01*
X660497Y570603D01*
X660497Y566986D01*
X659113Y563645D01*
X656556Y561088D01*
X653215Y559704D01*
X649598Y559704D01*
G37*
%LPD*%
%LPC*%
G36*
X141210Y500999D02*
X141210Y500999D01*
X137901Y502370D01*
X135370Y504901D01*
X133999Y508210D01*
X133999Y511790D01*
X135370Y515099D01*
X137901Y517630D01*
X141210Y519001D01*
X144790Y519001D01*
X148099Y517630D01*
X150630Y515099D01*
X152001Y511790D01*
X152001Y508210D01*
X150630Y504901D01*
X148099Y502370D01*
X144790Y500999D01*
X141210Y500999D01*
G37*
%LPD*%
%LPC*%
G36*
X740211Y500996D02*
X740211Y500996D01*
X736903Y502366D01*
X734371Y504898D01*
X733001Y508206D01*
X733001Y511787D01*
X734371Y515095D01*
X736903Y517627D01*
X740211Y518997D01*
X743792Y518997D01*
X747100Y517627D01*
X749632Y515095D01*
X751003Y511787D01*
X751003Y508206D01*
X749632Y504898D01*
X747100Y502366D01*
X743792Y500996D01*
X740211Y500996D01*
G37*
%LPD*%
%LPC*%
G36*
X440710Y500999D02*
X440710Y500999D01*
X437401Y502370D01*
X434870Y504901D01*
X433499Y508210D01*
X433499Y511790D01*
X434870Y515099D01*
X437401Y517630D01*
X440710Y519001D01*
X444290Y519001D01*
X447599Y517630D01*
X450130Y515099D01*
X451501Y511790D01*
X451501Y508210D01*
X450130Y504901D01*
X447599Y502370D01*
X444290Y500999D01*
X440710Y500999D01*
G37*
%LPD*%
%LPC*%
G36*
X440710Y800999D02*
X440710Y800999D01*
X437401Y802370D01*
X434870Y804901D01*
X433499Y808210D01*
X433499Y811790D01*
X434870Y815099D01*
X437401Y817630D01*
X440710Y819001D01*
X444290Y819001D01*
X447599Y817630D01*
X450130Y815099D01*
X451501Y811790D01*
X451501Y808210D01*
X450130Y804901D01*
X447599Y802370D01*
X444290Y800999D01*
X440710Y800999D01*
G37*
%LPD*%
%LPC*%
G36*
X653167Y633640D02*
X653167Y633640D01*
X650312Y634822D01*
X648128Y637006D01*
X646946Y639861D01*
X646946Y642950D01*
X647279Y643755D01*
X647305Y643868D01*
X647334Y643982D01*
X647334Y643988D01*
X647335Y643994D01*
X647324Y644111D01*
X647315Y644227D01*
X647312Y644233D01*
X647312Y644239D01*
X647264Y644347D01*
X647219Y644453D01*
X647214Y644459D01*
X647212Y644464D01*
X647199Y644478D01*
X647114Y644584D01*
X643909Y647789D01*
X643835Y647842D01*
X643765Y647902D01*
X643735Y647914D01*
X643709Y647933D01*
X643622Y647960D01*
X643537Y647994D01*
X643496Y647998D01*
X643474Y648005D01*
X643442Y648004D01*
X643370Y648012D01*
X641645Y648012D01*
X639848Y649809D01*
X639848Y652349D01*
X641645Y654146D01*
X646226Y654146D01*
X651417Y648955D01*
X651512Y648886D01*
X651606Y648817D01*
X651612Y648815D01*
X651617Y648811D01*
X651728Y648777D01*
X651840Y648741D01*
X651846Y648741D01*
X651852Y648739D01*
X651969Y648742D01*
X652086Y648743D01*
X652093Y648745D01*
X652098Y648745D01*
X652115Y648752D01*
X652247Y648790D01*
X653167Y649171D01*
X656256Y649171D01*
X659110Y647989D01*
X661295Y645804D01*
X662477Y642950D01*
X662477Y639861D01*
X661295Y637006D01*
X659110Y634822D01*
X656256Y633640D01*
X653167Y633640D01*
G37*
%LPD*%
%LPC*%
G36*
X201675Y541765D02*
X201675Y541765D01*
X198440Y543105D01*
X195965Y545581D01*
X194625Y548815D01*
X194625Y552317D01*
X195965Y555551D01*
X198440Y558027D01*
X201675Y559367D01*
X205176Y559367D01*
X208411Y558027D01*
X210886Y555551D01*
X212226Y552317D01*
X212226Y551678D01*
X212241Y551588D01*
X212248Y551497D01*
X212261Y551467D01*
X212266Y551435D01*
X212309Y551355D01*
X212344Y551271D01*
X212370Y551239D01*
X212381Y551218D01*
X212404Y551196D01*
X212449Y551140D01*
X213290Y550299D01*
X213290Y547759D01*
X211482Y545951D01*
X211438Y545943D01*
X211322Y545926D01*
X211316Y545924D01*
X211310Y545923D01*
X211208Y545868D01*
X211103Y545815D01*
X211098Y545810D01*
X211093Y545807D01*
X211012Y545723D01*
X210931Y545639D01*
X210927Y545633D01*
X210923Y545629D01*
X210916Y545612D01*
X210913Y545608D01*
X208411Y543105D01*
X205176Y541765D01*
X201675Y541765D01*
G37*
%LPD*%
%LPC*%
G36*
X576415Y230395D02*
X576415Y230395D01*
X571345Y235465D01*
X571345Y242635D01*
X576415Y247705D01*
X583585Y247705D01*
X588655Y242635D01*
X588655Y235465D01*
X583585Y230395D01*
X576415Y230395D01*
G37*
%LPD*%
%LPC*%
G36*
X589115Y211345D02*
X589115Y211345D01*
X584045Y216415D01*
X584045Y223585D01*
X589115Y228655D01*
X596285Y228655D01*
X601355Y223585D01*
X601355Y216415D01*
X596285Y211345D01*
X589115Y211345D01*
G37*
%LPD*%
%LPC*%
G36*
X563715Y211345D02*
X563715Y211345D01*
X558645Y216415D01*
X558645Y223585D01*
X563715Y228655D01*
X570885Y228655D01*
X575955Y223585D01*
X575955Y216415D01*
X570885Y211345D01*
X563715Y211345D01*
G37*
%LPD*%
%LPC*%
G36*
X513386Y203359D02*
X513386Y203359D01*
X508316Y208429D01*
X508316Y215599D01*
X513386Y220668D01*
X520555Y220668D01*
X525625Y215599D01*
X525625Y208429D01*
X520555Y203359D01*
X513386Y203359D01*
G37*
%LPD*%
%LPC*%
G36*
X494336Y216059D02*
X494336Y216059D01*
X489266Y221129D01*
X489266Y228299D01*
X494336Y233368D01*
X501505Y233368D01*
X506575Y228299D01*
X506575Y221129D01*
X501505Y216059D01*
X494336Y216059D01*
G37*
%LPD*%
%LPC*%
G36*
X254338Y589683D02*
X254338Y589683D01*
X251104Y591023D01*
X248628Y593499D01*
X247288Y596733D01*
X247288Y600234D01*
X248628Y603469D01*
X251104Y605945D01*
X254338Y607284D01*
X257840Y607284D01*
X261074Y605945D01*
X263550Y603469D01*
X264890Y600234D01*
X264890Y596733D01*
X263550Y593499D01*
X261074Y591023D01*
X257840Y589683D01*
X254338Y589683D01*
G37*
%LPD*%
%LPC*%
G36*
X830801Y626544D02*
X830801Y626544D01*
X827566Y627884D01*
X825091Y630360D01*
X823751Y633594D01*
X823751Y637095D01*
X825091Y640330D01*
X827566Y642806D01*
X830801Y644146D01*
X834302Y644146D01*
X837537Y642806D01*
X840012Y640330D01*
X841352Y637095D01*
X841352Y633594D01*
X840012Y630360D01*
X837537Y627884D01*
X834302Y626544D01*
X830801Y626544D01*
G37*
%LPD*%
%LPC*%
G36*
X252189Y649676D02*
X252189Y649676D01*
X248954Y651016D01*
X246478Y653492D01*
X245138Y656727D01*
X245138Y660228D01*
X246478Y663462D01*
X248954Y665938D01*
X252189Y667278D01*
X255690Y667278D01*
X258924Y665938D01*
X261400Y663462D01*
X262740Y660228D01*
X262740Y656727D01*
X261400Y653492D01*
X258924Y651016D01*
X255690Y649676D01*
X252189Y649676D01*
G37*
%LPD*%
%LPC*%
G36*
X320044Y520576D02*
X320044Y520576D01*
X316809Y521916D01*
X314334Y524392D01*
X312994Y527626D01*
X312994Y531127D01*
X314334Y534362D01*
X316809Y536838D01*
X320044Y538178D01*
X323545Y538178D01*
X326780Y536838D01*
X329255Y534362D01*
X330595Y531127D01*
X330595Y527626D01*
X329255Y524392D01*
X326780Y521916D01*
X323545Y520576D01*
X320044Y520576D01*
G37*
%LPD*%
%LPC*%
G36*
X700708Y758993D02*
X700708Y758993D01*
X697854Y760175D01*
X695670Y762360D01*
X694487Y765214D01*
X694487Y768303D01*
X695670Y771158D01*
X697854Y773342D01*
X700708Y774524D01*
X703798Y774524D01*
X706652Y773342D01*
X708837Y771158D01*
X710019Y768303D01*
X710019Y765214D01*
X708837Y762360D01*
X706652Y760175D01*
X703798Y758993D01*
X700708Y758993D01*
G37*
%LPD*%
%LPC*%
G36*
X656314Y472872D02*
X656314Y472872D01*
X653460Y474054D01*
X651275Y476239D01*
X650093Y479093D01*
X650093Y482182D01*
X651275Y485037D01*
X653460Y487221D01*
X656314Y488403D01*
X659404Y488403D01*
X662258Y487221D01*
X664442Y485037D01*
X665625Y482182D01*
X665625Y479093D01*
X664442Y476239D01*
X662258Y474054D01*
X659404Y472872D01*
X656314Y472872D01*
G37*
%LPD*%
%LPC*%
G36*
X781360Y584983D02*
X781360Y584983D01*
X778506Y586165D01*
X776322Y588350D01*
X775139Y591204D01*
X775139Y594293D01*
X776322Y597147D01*
X778506Y599332D01*
X781360Y600514D01*
X784450Y600514D01*
X787304Y599332D01*
X789489Y597147D01*
X790671Y594293D01*
X790671Y591204D01*
X789489Y588350D01*
X787304Y586165D01*
X784450Y584983D01*
X781360Y584983D01*
G37*
%LPD*%
%LPC*%
G36*
X453482Y676792D02*
X453482Y676792D01*
X450628Y677974D01*
X448444Y680159D01*
X447261Y683013D01*
X447261Y686102D01*
X448444Y688956D01*
X450628Y691141D01*
X453482Y692323D01*
X456572Y692323D01*
X459426Y691141D01*
X461610Y688956D01*
X462793Y686102D01*
X462793Y683013D01*
X461610Y680159D01*
X459426Y677974D01*
X456572Y676792D01*
X453482Y676792D01*
G37*
%LPD*%
%LPC*%
G36*
X603167Y633640D02*
X603167Y633640D01*
X600312Y634822D01*
X598128Y637006D01*
X596946Y639861D01*
X596946Y642950D01*
X598128Y645804D01*
X600312Y647989D01*
X603167Y649171D01*
X606256Y649171D01*
X609110Y647989D01*
X611295Y645804D01*
X612477Y642950D01*
X612477Y639861D01*
X611295Y637006D01*
X609110Y634822D01*
X606256Y633640D01*
X603167Y633640D01*
G37*
%LPD*%
%LPC*%
G36*
X403482Y676792D02*
X403482Y676792D01*
X400628Y677974D01*
X398444Y680159D01*
X397261Y683013D01*
X397261Y686102D01*
X398444Y688956D01*
X400628Y691141D01*
X403482Y692323D01*
X406572Y692323D01*
X409426Y691141D01*
X411610Y688956D01*
X412793Y686102D01*
X412793Y683013D01*
X411610Y680159D01*
X409426Y677974D01*
X406572Y676792D01*
X403482Y676792D01*
G37*
%LPD*%
%LPC*%
G36*
X476017Y640869D02*
X476017Y640869D01*
X473163Y642052D01*
X470978Y644236D01*
X469796Y647090D01*
X469796Y650180D01*
X470978Y653034D01*
X473163Y655218D01*
X476017Y656401D01*
X479107Y656401D01*
X481961Y655218D01*
X484145Y653034D01*
X485328Y650180D01*
X485328Y647090D01*
X484145Y644236D01*
X481961Y642052D01*
X479107Y640869D01*
X476017Y640869D01*
G37*
%LPD*%
%LPC*%
G36*
X750708Y758993D02*
X750708Y758993D01*
X747854Y760175D01*
X745670Y762360D01*
X744487Y765214D01*
X744487Y768303D01*
X745670Y771158D01*
X747854Y773342D01*
X750708Y774524D01*
X753798Y774524D01*
X756652Y773342D01*
X758837Y771158D01*
X760019Y768303D01*
X760019Y765214D01*
X758837Y762360D01*
X756652Y760175D01*
X753798Y758993D01*
X750708Y758993D01*
G37*
%LPD*%
%LPC*%
G36*
X512177Y376694D02*
X512177Y376694D01*
X509323Y377876D01*
X507139Y380061D01*
X505956Y382915D01*
X505956Y386004D01*
X507139Y388859D01*
X509323Y391043D01*
X512177Y392226D01*
X515267Y392226D01*
X518121Y391043D01*
X520306Y388859D01*
X521488Y386004D01*
X521488Y382915D01*
X520306Y380061D01*
X518121Y377876D01*
X515267Y376694D01*
X512177Y376694D01*
G37*
%LPD*%
%LPC*%
G36*
X512177Y426694D02*
X512177Y426694D01*
X509323Y427876D01*
X507139Y430061D01*
X505956Y432915D01*
X505956Y436004D01*
X507139Y438859D01*
X509323Y441043D01*
X512177Y442226D01*
X515267Y442226D01*
X518121Y441043D01*
X520306Y438859D01*
X521488Y436004D01*
X521488Y432915D01*
X520306Y430061D01*
X518121Y427876D01*
X515267Y426694D01*
X512177Y426694D01*
G37*
%LPD*%
%LPC*%
G36*
X526017Y640869D02*
X526017Y640869D01*
X523163Y642052D01*
X520978Y644236D01*
X519796Y647090D01*
X519796Y650180D01*
X520978Y653034D01*
X523163Y655218D01*
X526017Y656401D01*
X529107Y656401D01*
X531961Y655218D01*
X534145Y653034D01*
X535328Y650180D01*
X535328Y647090D01*
X534145Y644236D01*
X531961Y642052D01*
X529107Y640869D01*
X526017Y640869D01*
G37*
%LPD*%
%LPC*%
G36*
X169423Y811693D02*
X169423Y811693D01*
X169423Y822490D01*
X178649Y822490D01*
X180564Y822186D01*
X182408Y821587D01*
X184136Y820707D01*
X185705Y819567D01*
X187076Y818196D01*
X188216Y816627D01*
X189096Y814899D01*
X189695Y813055D01*
X189911Y811693D01*
X169423Y811693D01*
G37*
%LPD*%
%LPC*%
G36*
X145889Y811693D02*
X145889Y811693D01*
X146105Y813055D01*
X146704Y814899D01*
X147584Y816627D01*
X148724Y818196D01*
X150095Y819567D01*
X151664Y820707D01*
X153392Y821587D01*
X155236Y822186D01*
X157151Y822490D01*
X166377Y822490D01*
X166377Y811693D01*
X145889Y811693D01*
G37*
%LPD*%
%LPC*%
G36*
X225023Y382673D02*
X225023Y382673D01*
X225023Y393441D01*
X234217Y393441D01*
X236128Y393138D01*
X237968Y392540D01*
X239692Y391662D01*
X241257Y390525D01*
X242625Y389157D01*
X243762Y387592D01*
X244640Y385868D01*
X245238Y384028D01*
X245453Y382673D01*
X225023Y382673D01*
G37*
%LPD*%
%LPC*%
G36*
X98023Y220373D02*
X98023Y220373D01*
X98023Y231141D01*
X107217Y231141D01*
X109128Y230838D01*
X110968Y230240D01*
X112692Y229362D01*
X114257Y228225D01*
X115625Y226857D01*
X116762Y225292D01*
X117640Y223568D01*
X118238Y221728D01*
X118453Y220373D01*
X98023Y220373D01*
G37*
%LPD*%
%LPC*%
G36*
X790023Y382673D02*
X790023Y382673D01*
X790023Y393441D01*
X799217Y393441D01*
X801128Y393138D01*
X802968Y392540D01*
X804692Y391662D01*
X806257Y390525D01*
X807625Y389157D01*
X808762Y387592D01*
X809640Y385868D01*
X810238Y384028D01*
X810453Y382673D01*
X790023Y382673D01*
G37*
%LPD*%
%LPC*%
G36*
X98023Y382673D02*
X98023Y382673D01*
X98023Y393441D01*
X107217Y393441D01*
X109128Y393138D01*
X110968Y392540D01*
X112692Y391662D01*
X114257Y390525D01*
X115625Y389157D01*
X116762Y387592D01*
X117640Y385868D01*
X118238Y384028D01*
X118453Y382673D01*
X98023Y382673D01*
G37*
%LPD*%
%LPC*%
G36*
X790023Y220373D02*
X790023Y220373D01*
X790023Y231141D01*
X799217Y231141D01*
X801128Y230838D01*
X802968Y230240D01*
X804692Y229362D01*
X806257Y228225D01*
X807625Y226857D01*
X808762Y225292D01*
X809640Y223568D01*
X810238Y221728D01*
X810453Y220373D01*
X790023Y220373D01*
G37*
%LPD*%
%LPC*%
G36*
X663023Y220373D02*
X663023Y220373D01*
X663023Y231141D01*
X672217Y231141D01*
X674128Y230838D01*
X675968Y230240D01*
X677692Y229362D01*
X679257Y228225D01*
X680625Y226857D01*
X681762Y225292D01*
X682640Y223568D01*
X683238Y221728D01*
X683453Y220373D01*
X663023Y220373D01*
G37*
%LPD*%
%LPC*%
G36*
X766547Y382673D02*
X766547Y382673D01*
X766762Y384028D01*
X767360Y385868D01*
X768238Y387592D01*
X769375Y389157D01*
X770743Y390525D01*
X772308Y391662D01*
X774032Y392540D01*
X775872Y393138D01*
X777783Y393441D01*
X786977Y393441D01*
X786977Y382673D01*
X766547Y382673D01*
G37*
%LPD*%
%LPC*%
G36*
X201547Y382673D02*
X201547Y382673D01*
X201762Y384028D01*
X202360Y385868D01*
X203238Y387592D01*
X204375Y389157D01*
X205743Y390525D01*
X207308Y391662D01*
X209032Y392540D01*
X210872Y393138D01*
X212783Y393441D01*
X221977Y393441D01*
X221977Y382673D01*
X201547Y382673D01*
G37*
%LPD*%
%LPC*%
G36*
X74547Y382673D02*
X74547Y382673D01*
X74762Y384028D01*
X75360Y385868D01*
X76238Y387592D01*
X77375Y389157D01*
X78743Y390525D01*
X80308Y391662D01*
X82032Y392540D01*
X83872Y393138D01*
X85783Y393441D01*
X94977Y393441D01*
X94977Y382673D01*
X74547Y382673D01*
G37*
%LPD*%
%LPC*%
G36*
X74547Y220373D02*
X74547Y220373D01*
X74762Y221728D01*
X75360Y223568D01*
X76238Y225292D01*
X77375Y226857D01*
X78743Y228225D01*
X80308Y229362D01*
X82032Y230240D01*
X83872Y230838D01*
X85783Y231141D01*
X94977Y231141D01*
X94977Y220373D01*
X74547Y220373D01*
G37*
%LPD*%
%LPC*%
G36*
X639547Y220373D02*
X639547Y220373D01*
X639762Y221728D01*
X640360Y223568D01*
X641238Y225292D01*
X642375Y226857D01*
X643743Y228225D01*
X645308Y229362D01*
X647032Y230240D01*
X648872Y230838D01*
X650783Y231141D01*
X659977Y231141D01*
X659977Y220373D01*
X639547Y220373D01*
G37*
%LPD*%
%LPC*%
G36*
X766547Y220373D02*
X766547Y220373D01*
X766762Y221728D01*
X767360Y223568D01*
X768238Y225292D01*
X769375Y226857D01*
X770743Y228225D01*
X772308Y229362D01*
X774032Y230240D01*
X775872Y230838D01*
X777783Y231141D01*
X786977Y231141D01*
X786977Y220373D01*
X766547Y220373D01*
G37*
%LPD*%
%LPC*%
G36*
X663023Y206559D02*
X663023Y206559D01*
X663023Y217327D01*
X683453Y217327D01*
X683238Y215972D01*
X682640Y214132D01*
X681762Y212408D01*
X680625Y210843D01*
X679257Y209475D01*
X677692Y208338D01*
X675968Y207460D01*
X674128Y206862D01*
X672217Y206559D01*
X663023Y206559D01*
G37*
%LPD*%
%LPC*%
G36*
X790023Y206559D02*
X790023Y206559D01*
X790023Y217327D01*
X810453Y217327D01*
X810238Y215972D01*
X809640Y214132D01*
X808762Y212408D01*
X807625Y210843D01*
X806257Y209475D01*
X804692Y208338D01*
X802968Y207460D01*
X801128Y206862D01*
X799217Y206559D01*
X790023Y206559D01*
G37*
%LPD*%
%LPC*%
G36*
X790023Y368859D02*
X790023Y368859D01*
X790023Y379627D01*
X810453Y379627D01*
X810238Y378272D01*
X809640Y376432D01*
X808762Y374708D01*
X807625Y373143D01*
X806257Y371775D01*
X804692Y370638D01*
X802968Y369760D01*
X801128Y369162D01*
X799217Y368859D01*
X790023Y368859D01*
G37*
%LPD*%
%LPC*%
G36*
X98023Y206559D02*
X98023Y206559D01*
X98023Y217327D01*
X118453Y217327D01*
X118238Y215972D01*
X117640Y214132D01*
X116762Y212408D01*
X115625Y210843D01*
X114257Y209475D01*
X112692Y208338D01*
X110968Y207460D01*
X109128Y206862D01*
X107217Y206559D01*
X98023Y206559D01*
G37*
%LPD*%
%LPC*%
G36*
X98023Y368859D02*
X98023Y368859D01*
X98023Y379627D01*
X118453Y379627D01*
X118238Y378272D01*
X117640Y376432D01*
X116762Y374708D01*
X115625Y373143D01*
X114257Y371775D01*
X112692Y370638D01*
X110968Y369760D01*
X109128Y369162D01*
X107217Y368859D01*
X98023Y368859D01*
G37*
%LPD*%
%LPC*%
G36*
X225023Y368859D02*
X225023Y368859D01*
X225023Y379627D01*
X245453Y379627D01*
X245238Y378272D01*
X244640Y376432D01*
X243762Y374708D01*
X242625Y373143D01*
X241257Y371775D01*
X239692Y370638D01*
X237968Y369760D01*
X236128Y369162D01*
X234217Y368859D01*
X225023Y368859D01*
G37*
%LPD*%
%LPC*%
G36*
X650783Y206559D02*
X650783Y206559D01*
X648872Y206862D01*
X647032Y207460D01*
X645308Y208338D01*
X643743Y209475D01*
X642375Y210843D01*
X641238Y212408D01*
X640360Y214132D01*
X639762Y215972D01*
X639547Y217327D01*
X659977Y217327D01*
X659977Y206559D01*
X650783Y206559D01*
G37*
%LPD*%
%LPC*%
G36*
X777783Y206559D02*
X777783Y206559D01*
X775872Y206862D01*
X774032Y207460D01*
X772308Y208338D01*
X770743Y209475D01*
X769375Y210843D01*
X768238Y212408D01*
X767360Y214132D01*
X766762Y215972D01*
X766547Y217327D01*
X786977Y217327D01*
X786977Y206559D01*
X777783Y206559D01*
G37*
%LPD*%
%LPC*%
G36*
X85783Y368859D02*
X85783Y368859D01*
X83872Y369162D01*
X82032Y369760D01*
X80308Y370638D01*
X78743Y371775D01*
X77375Y373143D01*
X76238Y374708D01*
X75360Y376432D01*
X74762Y378272D01*
X74547Y379627D01*
X94977Y379627D01*
X94977Y368859D01*
X85783Y368859D01*
G37*
%LPD*%
%LPC*%
G36*
X777783Y368859D02*
X777783Y368859D01*
X775872Y369162D01*
X774032Y369760D01*
X772308Y370638D01*
X770743Y371775D01*
X769375Y373143D01*
X768238Y374708D01*
X767360Y376432D01*
X766762Y378272D01*
X766547Y379627D01*
X786977Y379627D01*
X786977Y368859D01*
X777783Y368859D01*
G37*
%LPD*%
%LPC*%
G36*
X212783Y368859D02*
X212783Y368859D01*
X210872Y369162D01*
X209032Y369760D01*
X207308Y370638D01*
X205743Y371775D01*
X204375Y373143D01*
X203238Y374708D01*
X202360Y376432D01*
X201762Y378272D01*
X201547Y379627D01*
X221977Y379627D01*
X221977Y368859D01*
X212783Y368859D01*
G37*
%LPD*%
%LPC*%
G36*
X85783Y206559D02*
X85783Y206559D01*
X83872Y206862D01*
X82032Y207460D01*
X80308Y208338D01*
X78743Y209475D01*
X77375Y210843D01*
X76238Y212408D01*
X75360Y214132D01*
X74762Y215972D01*
X74547Y217327D01*
X94977Y217327D01*
X94977Y206559D01*
X85783Y206559D01*
G37*
%LPD*%
%LPC*%
G36*
X770219Y61589D02*
X770219Y61589D01*
X770219Y72005D01*
X779033Y72005D01*
X780890Y71711D01*
X782677Y71130D01*
X784351Y70277D01*
X785872Y69172D01*
X787200Y67844D01*
X788305Y66323D01*
X789158Y64649D01*
X789739Y62862D01*
X789940Y61589D01*
X770219Y61589D01*
G37*
%LPD*%
%LPC*%
G36*
X747452Y61589D02*
X747452Y61589D01*
X747653Y62862D01*
X748234Y64649D01*
X749087Y66323D01*
X750192Y67844D01*
X751520Y69172D01*
X753041Y70277D01*
X754715Y71130D01*
X756502Y71711D01*
X758358Y72005D01*
X767173Y72005D01*
X767173Y61589D01*
X747452Y61589D01*
G37*
%LPD*%
%LPC*%
G36*
X770219Y48127D02*
X770219Y48127D01*
X770219Y58543D01*
X789940Y58543D01*
X789739Y57270D01*
X789158Y55483D01*
X788305Y53809D01*
X787200Y52288D01*
X785872Y50960D01*
X784351Y49855D01*
X782677Y49002D01*
X780890Y48421D01*
X779033Y48127D01*
X770219Y48127D01*
G37*
%LPD*%
%LPC*%
G36*
X758358Y48127D02*
X758358Y48127D01*
X756502Y48421D01*
X754715Y49002D01*
X753041Y49855D01*
X751520Y50960D01*
X750192Y52288D01*
X749087Y53809D01*
X748234Y55483D01*
X747653Y57270D01*
X747452Y58543D01*
X767173Y58543D01*
X767173Y48127D01*
X758358Y48127D01*
G37*
%LPD*%
%LPC*%
G36*
X538823Y359623D02*
X538823Y359623D01*
X538823Y380329D01*
X539967Y380101D01*
X541632Y379412D01*
X543130Y378411D01*
X544403Y377138D01*
X545404Y375640D01*
X546093Y373975D01*
X546445Y372209D01*
X546445Y359623D01*
X538823Y359623D01*
G37*
%LPD*%
%LPC*%
G36*
X564223Y280377D02*
X564223Y280377D01*
X571845Y280377D01*
X571845Y267791D01*
X571493Y266025D01*
X570804Y264360D01*
X569803Y262862D01*
X568530Y261589D01*
X567032Y260588D01*
X565367Y259899D01*
X564223Y259671D01*
X564223Y280377D01*
G37*
%LPD*%
%LPC*%
G36*
X528155Y359623D02*
X528155Y359623D01*
X528155Y372209D01*
X528507Y373975D01*
X529196Y375640D01*
X530197Y377138D01*
X531470Y378411D01*
X532968Y379412D01*
X534633Y380101D01*
X535777Y380329D01*
X535777Y359623D01*
X528155Y359623D01*
G37*
%LPD*%
%LPC*%
G36*
X560033Y259899D02*
X560033Y259899D01*
X558368Y260588D01*
X556870Y261589D01*
X555597Y262862D01*
X554596Y264360D01*
X553907Y266025D01*
X553555Y267791D01*
X553555Y280377D01*
X561177Y280377D01*
X561177Y259671D01*
X560033Y259899D01*
G37*
%LPD*%
%LPC*%
G36*
X563203Y34378D02*
X563203Y34378D01*
X563203Y46190D01*
X567203Y46190D01*
X575015Y38378D01*
X575015Y34378D01*
X563203Y34378D01*
G37*
%LPD*%
%LPC*%
G36*
X333813Y974818D02*
X333813Y974818D01*
X333813Y986631D01*
X337814Y986631D01*
X345626Y978819D01*
X345626Y974818D01*
X333813Y974818D01*
G37*
%LPD*%
%LPC*%
G36*
X548344Y34378D02*
X548344Y34378D01*
X548344Y38378D01*
X556155Y46190D01*
X560156Y46190D01*
X560156Y34378D01*
X548344Y34378D01*
G37*
%LPD*%
%LPC*%
G36*
X318954Y974818D02*
X318954Y974818D01*
X318954Y978819D01*
X326766Y986631D01*
X330767Y986631D01*
X330767Y974818D01*
X318954Y974818D01*
G37*
%LPD*%
%LPC*%
G36*
X333813Y959959D02*
X333813Y959959D01*
X333813Y971772D01*
X345626Y971772D01*
X345626Y967771D01*
X337814Y959959D01*
X333813Y959959D01*
G37*
%LPD*%
%LPC*%
G36*
X563203Y19519D02*
X563203Y19519D01*
X563203Y31331D01*
X575015Y31331D01*
X575015Y27331D01*
X567203Y19519D01*
X563203Y19519D01*
G37*
%LPD*%
%LPC*%
G36*
X556155Y19519D02*
X556155Y19519D01*
X548344Y27331D01*
X548344Y31331D01*
X560156Y31331D01*
X560156Y19519D01*
X556155Y19519D01*
G37*
%LPD*%
%LPC*%
G36*
X326766Y959959D02*
X326766Y959959D01*
X318954Y967771D01*
X318954Y971772D01*
X330767Y971772D01*
X330767Y959959D01*
X326766Y959959D01*
G37*
%LPD*%
%LPC*%
G36*
X148323Y163477D02*
X148323Y163477D01*
X159003Y163477D01*
X158788Y162122D01*
X158190Y160282D01*
X157312Y158558D01*
X156175Y156993D01*
X154807Y155625D01*
X153242Y154488D01*
X151518Y153610D01*
X149678Y153012D01*
X148323Y152797D01*
X148323Y163477D01*
G37*
%LPD*%
%LPC*%
G36*
X143922Y153012D02*
X143922Y153012D01*
X142082Y153610D01*
X140358Y154488D01*
X138793Y155625D01*
X137425Y156993D01*
X136288Y158558D01*
X135410Y160282D01*
X134812Y162122D01*
X134597Y163477D01*
X145277Y163477D01*
X145277Y152797D01*
X143922Y153012D01*
G37*
%LPD*%
%LPC*%
G36*
X258483Y924572D02*
X258483Y924572D01*
X258483Y932507D01*
X259204Y932393D01*
X260638Y931927D01*
X261982Y931243D01*
X263202Y930356D01*
X264268Y929290D01*
X265155Y928070D01*
X265839Y926726D01*
X266305Y925292D01*
X266419Y924572D01*
X258483Y924572D01*
G37*
%LPD*%
%LPC*%
G36*
X258483Y921525D02*
X258483Y921525D01*
X266419Y921525D01*
X266305Y920805D01*
X265839Y919371D01*
X265155Y918027D01*
X264268Y916807D01*
X263202Y915741D01*
X261982Y914854D01*
X260638Y914170D01*
X259204Y913703D01*
X258483Y913589D01*
X258483Y921525D01*
G37*
%LPD*%
%LPC*%
G36*
X247501Y924572D02*
X247501Y924572D01*
X247615Y925292D01*
X248081Y926726D01*
X248766Y928070D01*
X249653Y929290D01*
X250719Y930356D01*
X251939Y931243D01*
X253282Y931927D01*
X254717Y932393D01*
X255437Y932507D01*
X255437Y924572D01*
X247501Y924572D01*
G37*
%LPD*%
%LPC*%
G36*
X254717Y913703D02*
X254717Y913703D01*
X253282Y914170D01*
X251939Y914854D01*
X250719Y915741D01*
X249653Y916807D01*
X248766Y918027D01*
X248081Y919371D01*
X247615Y920805D01*
X247501Y921525D01*
X255437Y921525D01*
X255437Y913589D01*
X254717Y913703D01*
G37*
%LPD*%
%LPC*%
G36*
X518494Y238937D02*
X518494Y238937D01*
X518494Y246558D01*
X520758Y246558D01*
X526115Y241202D01*
X526115Y238937D01*
X518494Y238937D01*
G37*
%LPD*%
%LPC*%
G36*
X507826Y238937D02*
X507826Y238937D01*
X507826Y241202D01*
X513183Y246558D01*
X515447Y246558D01*
X515447Y238937D01*
X507826Y238937D01*
G37*
%LPD*%
%LPC*%
G36*
X518494Y228269D02*
X518494Y228269D01*
X518494Y235890D01*
X526115Y235890D01*
X526115Y233626D01*
X520758Y228269D01*
X518494Y228269D01*
G37*
%LPD*%
%LPC*%
G36*
X513183Y228269D02*
X513183Y228269D01*
X507826Y233626D01*
X507826Y235890D01*
X515447Y235890D01*
X515447Y228269D01*
X513183Y228269D01*
G37*
%LPD*%
%LPC*%
G36*
X184810Y967188D02*
X184810Y967188D01*
X184810Y974835D01*
X185997Y974599D01*
X187688Y973898D01*
X189210Y972881D01*
X190504Y971587D01*
X191521Y970066D01*
X192221Y968375D01*
X192457Y967188D01*
X184810Y967188D01*
G37*
%LPD*%
%LPC*%
G36*
X424632Y46486D02*
X424632Y46486D01*
X424632Y54132D01*
X425819Y53896D01*
X427510Y53196D01*
X429032Y52179D01*
X430326Y50885D01*
X431343Y49363D01*
X432043Y47673D01*
X432279Y46486D01*
X424632Y46486D01*
G37*
%LPD*%
%LPC*%
G36*
X809705Y833930D02*
X809705Y833930D01*
X809705Y841577D01*
X810892Y841341D01*
X812583Y840640D01*
X814105Y839624D01*
X815399Y838330D01*
X816415Y836808D01*
X817116Y835117D01*
X817352Y833930D01*
X809705Y833930D01*
G37*
%LPD*%
%LPC*%
G36*
X661523Y161523D02*
X661523Y161523D01*
X661523Y169170D01*
X662710Y168934D01*
X664401Y168233D01*
X665923Y167217D01*
X667217Y165923D01*
X668233Y164401D01*
X668934Y162710D01*
X669170Y161523D01*
X661523Y161523D01*
G37*
%LPD*%
%LPC*%
G36*
X842594Y779107D02*
X842594Y779107D01*
X842594Y786753D01*
X843781Y786517D01*
X845472Y785817D01*
X846994Y784800D01*
X848288Y783506D01*
X849304Y781984D01*
X850005Y780293D01*
X850241Y779107D01*
X842594Y779107D01*
G37*
%LPD*%
%LPC*%
G36*
X257560Y967343D02*
X257560Y967343D01*
X257560Y974990D01*
X258747Y974754D01*
X260438Y974053D01*
X261960Y973037D01*
X263254Y971743D01*
X264271Y970221D01*
X264971Y968530D01*
X265207Y967343D01*
X257560Y967343D01*
G37*
%LPD*%
%LPC*%
G36*
X246867Y967343D02*
X246867Y967343D01*
X247104Y968530D01*
X247804Y970221D01*
X248821Y971743D01*
X250115Y973037D01*
X251636Y974053D01*
X253327Y974754D01*
X254514Y974990D01*
X254514Y967343D01*
X246867Y967343D01*
G37*
%LPD*%
%LPC*%
G36*
X809705Y830884D02*
X809705Y830884D01*
X817352Y830884D01*
X817116Y829697D01*
X816415Y828006D01*
X815399Y826484D01*
X814105Y825191D01*
X812583Y824174D01*
X810892Y823473D01*
X809705Y823237D01*
X809705Y830884D01*
G37*
%LPD*%
%LPC*%
G36*
X424632Y43439D02*
X424632Y43439D01*
X432279Y43439D01*
X432043Y42253D01*
X431343Y40562D01*
X430326Y39040D01*
X429032Y37746D01*
X427510Y36729D01*
X425819Y36029D01*
X424632Y35793D01*
X424632Y43439D01*
G37*
%LPD*%
%LPC*%
G36*
X799012Y833930D02*
X799012Y833930D01*
X799248Y835117D01*
X799949Y836808D01*
X800965Y838330D01*
X802259Y839624D01*
X803781Y840640D01*
X805472Y841341D01*
X806659Y841577D01*
X806659Y833930D01*
X799012Y833930D01*
G37*
%LPD*%
%LPC*%
G36*
X650830Y161523D02*
X650830Y161523D01*
X651066Y162710D01*
X651767Y164401D01*
X652783Y165923D01*
X654077Y167217D01*
X655599Y168233D01*
X657290Y168934D01*
X658477Y169170D01*
X658477Y161523D01*
X650830Y161523D01*
G37*
%LPD*%
%LPC*%
G36*
X257560Y964297D02*
X257560Y964297D01*
X265207Y964297D01*
X264971Y963110D01*
X264271Y961419D01*
X263254Y959898D01*
X261960Y958604D01*
X260438Y957587D01*
X258747Y956886D01*
X257560Y956650D01*
X257560Y964297D01*
G37*
%LPD*%
%LPC*%
G36*
X831901Y779107D02*
X831901Y779107D01*
X832137Y780293D01*
X832838Y781984D01*
X833855Y783506D01*
X835148Y784800D01*
X836670Y785817D01*
X838361Y786517D01*
X839548Y786753D01*
X839548Y779107D01*
X831901Y779107D01*
G37*
%LPD*%
%LPC*%
G36*
X184810Y964142D02*
X184810Y964142D01*
X192457Y964142D01*
X192221Y962955D01*
X191521Y961264D01*
X190504Y959742D01*
X189210Y958448D01*
X187688Y957432D01*
X185997Y956731D01*
X184810Y956495D01*
X184810Y964142D01*
G37*
%LPD*%
%LPC*%
G36*
X842594Y776060D02*
X842594Y776060D01*
X850241Y776060D01*
X850005Y774873D01*
X849304Y773183D01*
X848288Y771661D01*
X846994Y770367D01*
X845472Y769350D01*
X843781Y768650D01*
X842594Y768414D01*
X842594Y776060D01*
G37*
%LPD*%
%LPC*%
G36*
X174117Y967188D02*
X174117Y967188D01*
X174354Y968375D01*
X175054Y970066D01*
X176071Y971587D01*
X177365Y972881D01*
X178886Y973898D01*
X180577Y974599D01*
X181764Y974835D01*
X181764Y967188D01*
X174117Y967188D01*
G37*
%LPD*%
%LPC*%
G36*
X413940Y46486D02*
X413940Y46486D01*
X414176Y47673D01*
X414876Y49363D01*
X415893Y50885D01*
X417187Y52179D01*
X418708Y53196D01*
X420399Y53896D01*
X421586Y54132D01*
X421586Y46486D01*
X413940Y46486D01*
G37*
%LPD*%
%LPC*%
G36*
X661523Y158477D02*
X661523Y158477D01*
X669170Y158477D01*
X668934Y157290D01*
X668233Y155599D01*
X667216Y154077D01*
X665923Y152783D01*
X664401Y151767D01*
X662710Y151066D01*
X661523Y150830D01*
X661523Y158477D01*
G37*
%LPD*%
%LPC*%
G36*
X420399Y36029D02*
X420399Y36029D01*
X418708Y36729D01*
X417187Y37746D01*
X415893Y39040D01*
X414876Y40562D01*
X414176Y42253D01*
X413940Y43439D01*
X421586Y43439D01*
X421586Y35793D01*
X420399Y36029D01*
G37*
%LPD*%
%LPC*%
G36*
X253327Y956886D02*
X253327Y956886D01*
X251636Y957587D01*
X250115Y958604D01*
X248821Y959898D01*
X247804Y961419D01*
X247104Y963110D01*
X246867Y964297D01*
X254514Y964297D01*
X254514Y956650D01*
X253327Y956886D01*
G37*
%LPD*%
%LPC*%
G36*
X180577Y956731D02*
X180577Y956731D01*
X178886Y957432D01*
X177365Y958448D01*
X176071Y959742D01*
X175054Y961264D01*
X174354Y962955D01*
X174117Y964142D01*
X181764Y964142D01*
X181764Y956495D01*
X180577Y956731D01*
G37*
%LPD*%
%LPC*%
G36*
X805472Y823473D02*
X805472Y823473D01*
X803781Y824174D01*
X802259Y825191D01*
X800965Y826484D01*
X799949Y828006D01*
X799248Y829697D01*
X799012Y830884D01*
X806659Y830884D01*
X806659Y823237D01*
X805472Y823473D01*
G37*
%LPD*%
%LPC*%
G36*
X838361Y768650D02*
X838361Y768650D01*
X836670Y769350D01*
X835148Y770367D01*
X833855Y771661D01*
X832838Y773183D01*
X832137Y774873D01*
X831901Y776060D01*
X839548Y776060D01*
X839548Y768414D01*
X838361Y768650D01*
G37*
%LPD*%
%LPC*%
G36*
X657290Y151066D02*
X657290Y151066D01*
X655599Y151767D01*
X654077Y152783D01*
X652784Y154077D01*
X651767Y155599D01*
X651066Y157290D01*
X650830Y158477D01*
X658477Y158477D01*
X658477Y150830D01*
X657290Y151066D01*
G37*
%LPD*%
%LPC*%
G36*
X564223Y283423D02*
X564223Y283423D01*
X564223Y290921D01*
X565367Y290693D01*
X567032Y290004D01*
X568530Y289003D01*
X569803Y287730D01*
X570804Y286232D01*
X571493Y284567D01*
X571721Y283423D01*
X564223Y283423D01*
G37*
%LPD*%
%LPC*%
G36*
X553679Y283423D02*
X553679Y283423D01*
X553907Y284567D01*
X554596Y286232D01*
X555597Y287730D01*
X556870Y289003D01*
X558368Y290004D01*
X560033Y290693D01*
X561177Y290921D01*
X561177Y283423D01*
X553679Y283423D01*
G37*
%LPD*%
%LPC*%
G36*
X538823Y356577D02*
X538823Y356577D01*
X546321Y356577D01*
X546093Y355433D01*
X545404Y353768D01*
X544403Y352270D01*
X543130Y350997D01*
X541632Y349996D01*
X539967Y349307D01*
X538823Y349079D01*
X538823Y356577D01*
G37*
%LPD*%
%LPC*%
G36*
X534633Y349307D02*
X534633Y349307D01*
X532968Y349996D01*
X531470Y350997D01*
X530197Y352270D01*
X529196Y353768D01*
X528507Y355433D01*
X528279Y356577D01*
X535777Y356577D01*
X535777Y349079D01*
X534633Y349307D01*
G37*
%LPD*%
%LPC*%
G36*
X768695Y60065D02*
X768695Y60065D01*
X768695Y60067D01*
X768697Y60067D01*
X768697Y60065D01*
X768695Y60065D01*
G37*
%LPD*%
%LPC*%
G36*
X562699Y281899D02*
X562699Y281899D01*
X562699Y281901D01*
X562701Y281901D01*
X562701Y281899D01*
X562699Y281899D01*
G37*
%LPD*%
%LPC*%
G36*
X808181Y832406D02*
X808181Y832406D01*
X808181Y832408D01*
X808183Y832408D01*
X808183Y832406D01*
X808181Y832406D01*
G37*
%LPD*%
%LPC*%
G36*
X332289Y973294D02*
X332289Y973294D01*
X332289Y973296D01*
X332291Y973296D01*
X332291Y973294D01*
X332289Y973294D01*
G37*
%LPD*%
%LPC*%
G36*
X516970Y237413D02*
X516970Y237413D01*
X516970Y237415D01*
X516971Y237415D01*
X516971Y237413D01*
X516970Y237413D01*
G37*
%LPD*%
%LPC*%
G36*
X256036Y965819D02*
X256036Y965819D01*
X256036Y965821D01*
X256038Y965821D01*
X256038Y965819D01*
X256036Y965819D01*
G37*
%LPD*%
%LPC*%
G36*
X183286Y965664D02*
X183286Y965664D01*
X183286Y965666D01*
X183288Y965666D01*
X183288Y965664D01*
X183286Y965664D01*
G37*
%LPD*%
%LPC*%
G36*
X659999Y159999D02*
X659999Y159999D01*
X659999Y160001D01*
X660001Y160001D01*
X660001Y159999D01*
X659999Y159999D01*
G37*
%LPD*%
%LPC*%
G36*
X146799Y164999D02*
X146799Y164999D01*
X146799Y165001D01*
X146801Y165001D01*
X146801Y164999D01*
X146799Y164999D01*
G37*
%LPD*%
%LPC*%
G36*
X788499Y381149D02*
X788499Y381149D01*
X788499Y381151D01*
X788501Y381151D01*
X788501Y381149D01*
X788499Y381149D01*
G37*
%LPD*%
%LPC*%
G36*
X423108Y44962D02*
X423108Y44962D01*
X423108Y44964D01*
X423110Y44964D01*
X423110Y44962D01*
X423108Y44962D01*
G37*
%LPD*%
%LPC*%
G36*
X256959Y923047D02*
X256959Y923047D01*
X256959Y923049D01*
X256961Y923049D01*
X256961Y923047D01*
X256959Y923047D01*
G37*
%LPD*%
%LPC*%
G36*
X788499Y218849D02*
X788499Y218849D01*
X788499Y218851D01*
X788501Y218851D01*
X788501Y218849D01*
X788499Y218849D01*
G37*
%LPD*%
%LPC*%
G36*
X841070Y777583D02*
X841070Y777583D01*
X841070Y777584D01*
X841072Y777584D01*
X841072Y777583D01*
X841070Y777583D01*
G37*
%LPD*%
%LPC*%
G36*
X223499Y381149D02*
X223499Y381149D01*
X223499Y381151D01*
X223501Y381151D01*
X223501Y381149D01*
X223499Y381149D01*
G37*
%LPD*%
%LPC*%
G36*
X561678Y32854D02*
X561678Y32854D01*
X561678Y32855D01*
X561680Y32855D01*
X561680Y32854D01*
X561678Y32854D01*
G37*
%LPD*%
%LPC*%
G36*
X661499Y218849D02*
X661499Y218849D01*
X661499Y218851D01*
X661501Y218851D01*
X661501Y218849D01*
X661499Y218849D01*
G37*
%LPD*%
%LPC*%
G36*
X96499Y218849D02*
X96499Y218849D01*
X96499Y218851D01*
X96501Y218851D01*
X96501Y218849D01*
X96499Y218849D01*
G37*
%LPD*%
%LPC*%
G36*
X537299Y358099D02*
X537299Y358099D01*
X537299Y358101D01*
X537301Y358101D01*
X537301Y358099D01*
X537299Y358099D01*
G37*
%LPD*%
%LPC*%
G36*
X96499Y381149D02*
X96499Y381149D01*
X96499Y381151D01*
X96501Y381151D01*
X96501Y381149D01*
X96499Y381149D01*
G37*
%LPD*%
D10*
X513722Y384460D03*
X513722Y434460D03*
D11*
X812551Y635345D03*
D12*
X832551Y635345D03*
D11*
X273939Y658477D03*
D12*
X253939Y658477D03*
D10*
X782905Y592749D03*
X832905Y592749D03*
X527562Y648635D03*
X477562Y648635D03*
D11*
X321794Y509377D03*
D12*
X321794Y529377D03*
D11*
X788182Y832407D03*
D12*
X808182Y832407D03*
D11*
X861071Y777583D03*
D12*
X841071Y777583D03*
D10*
X604711Y641405D03*
X654711Y641405D03*
D11*
X276089Y598484D03*
D12*
X256089Y598484D03*
D10*
X657859Y530638D03*
X657859Y480638D03*
D11*
X203425Y570566D03*
D12*
X203425Y550566D03*
D11*
X324662Y443446D03*
D12*
X304662Y443446D03*
D11*
X276037Y965820D03*
D12*
X256037Y965820D03*
D11*
X403109Y44963D03*
D12*
X423109Y44963D03*
D11*
X203287Y965665D03*
D12*
X183287Y965665D03*
D13*
X357957Y20706D03*
D14*
X332557Y20706D03*
D13*
X256960Y923048D03*
D14*
X282360Y923048D03*
D15*
X106250Y218850D02*
X86750Y218850D01*
X86750Y381150D02*
X106250Y381150D01*
X213750Y218850D02*
X233250Y218850D01*
X233250Y381150D02*
X213750Y381150D01*
D16*
X515874Y32854D03*
X561679Y32854D03*
D15*
X778750Y381150D02*
X798250Y381150D01*
X798250Y218850D02*
X778750Y218850D01*
X671250Y381150D02*
X651750Y381150D01*
X651750Y218850D02*
X671250Y218850D01*
D17*
X168000Y440000D03*
X143000Y440000D03*
X118000Y440000D03*
D18*
X187000Y510000D03*
X99000Y510000D03*
D19*
X332290Y918003D03*
D20*
X332290Y973295D03*
D21*
X844462Y539996D02*
X859542Y539996D01*
X859542Y559996D02*
X844462Y559996D01*
X844462Y459996D02*
X859542Y459996D01*
X859542Y519996D02*
X844462Y519996D01*
X844462Y499996D02*
X859542Y499996D01*
X859542Y479996D02*
X844462Y479996D01*
D22*
X742002Y569996D03*
X742002Y449996D03*
D23*
X759298Y161666D02*
X778094Y161666D01*
X778094Y136266D02*
X759298Y136266D01*
X759298Y110866D02*
X778094Y110866D01*
X778094Y85466D02*
X759298Y85466D01*
X759298Y60066D02*
X778094Y60066D01*
X778094Y34666D02*
X759298Y34666D01*
D15*
X146800Y115500D02*
X146800Y135000D01*
X178800Y135000D02*
X178800Y115500D01*
X210800Y115500D02*
X210800Y135000D01*
X210800Y165000D02*
X210800Y184500D01*
X178800Y184500D02*
X178800Y165000D01*
X146800Y165000D02*
X146800Y184500D01*
D10*
X702253Y766759D03*
X752253Y766759D03*
D24*
X516971Y237414D03*
X497921Y224714D03*
X516971Y212014D03*
D13*
X409773Y641036D03*
D14*
X409773Y615636D03*
D13*
X447437Y612644D03*
D14*
X447437Y638044D03*
D13*
X651406Y568795D03*
D14*
X626006Y568795D03*
D13*
X623884Y605694D03*
D14*
X649284Y605694D03*
D10*
X405027Y684557D03*
X455027Y684557D03*
D17*
X372500Y535000D03*
X372500Y510000D03*
X372500Y485000D03*
D25*
X442500Y554000D03*
X442500Y466000D03*
D19*
X477780Y130331D03*
X435292Y130368D03*
D26*
X567861Y599225D02*
X582085Y599225D01*
X582085Y624625D02*
X567861Y624625D01*
X567861Y650025D02*
X582085Y650025D01*
D27*
X648121Y810170D02*
X667679Y810170D01*
X667679Y784770D02*
X648121Y784770D01*
X648121Y759370D02*
X667679Y759370D01*
X177679Y810170D02*
X158121Y810170D01*
X158121Y784770D02*
X177679Y784770D01*
X177679Y759370D02*
X158121Y759370D01*
D28*
X417100Y879088D03*
X442500Y879088D03*
X467900Y879088D03*
D29*
X486500Y810000D03*
X398500Y810000D03*
D30*
X592700Y220000D03*
X580000Y239050D03*
X567300Y220000D03*
D31*
X537300Y268692D02*
X537300Y281900D01*
X562700Y281900D02*
X562700Y268692D01*
X562700Y358100D02*
X562700Y371308D01*
X537300Y371308D02*
X537300Y358100D01*
D11*
X640000Y160000D03*
D12*
X660000Y160000D03*
D32*
X725211Y712309D03*
X817056Y665366D03*
D33*
X768453Y649038D02*
X768072Y649038D01*
X768072Y667407D01*
X725211Y710268D01*
X725211Y712309D01*
D34*
X731210Y608611D03*
D33*
X768453Y645853D01*
X768453Y649038D01*
X787965Y665366D02*
X817056Y665366D01*
X787965Y665366D02*
X731210Y608611D01*
X210223Y549029D02*
X204100Y549029D01*
X203425Y550566D01*
X151690Y140829D02*
X147608Y136747D01*
X151690Y140829D02*
X153731Y140829D01*
X161895Y148993D01*
X190469Y148993D01*
X204756Y163280D01*
X208838Y163280D01*
X147608Y136747D02*
X146800Y135000D01*
X208838Y163280D02*
X210800Y165000D01*
X307831Y440277D02*
X304662Y443446D01*
X307831Y440277D02*
X307831Y232031D01*
X210800Y135000D01*
D32*
X547644Y540865D03*
X310888Y122460D03*
D34*
X114576Y643942D03*
D32*
X743580Y712309D03*
D34*
X380258Y163610D03*
D33*
X494578Y495963D02*
X498660Y500045D01*
D32*
X498660Y500045D03*
D33*
X657859Y530638D02*
X754515Y530638D01*
X866309Y642431D01*
X866309Y772346D01*
X861071Y777583D01*
X430651Y485758D02*
X373503Y485758D01*
X430651Y485758D02*
X436774Y491881D01*
X489840Y491881D01*
X493922Y495963D01*
X373503Y485758D02*
X372500Y485000D01*
X493922Y495963D02*
X494578Y495963D01*
X642915Y651079D02*
X644956Y651079D01*
X651079Y644956D01*
X653120Y644956D01*
X655161Y642915D01*
X654711Y641405D01*
X574973Y626670D02*
X574973Y624625D01*
X557683Y641915D02*
X557683Y654241D01*
X557683Y641915D02*
X574973Y624625D01*
X657900Y754458D02*
X657900Y759370D01*
X657900Y754458D02*
X557683Y654241D01*
D34*
X606181Y511093D03*
D33*
X574973Y649627D02*
X574973Y650025D01*
X574973Y649627D02*
X598013Y626587D01*
X598013Y519261D02*
X606181Y511093D01*
X598013Y519261D02*
X598013Y626587D01*
M02*
