M48
;GenerationSoftware,Autodesk,EAGLE,9.2.2*%
;CreationDate,2019-06-08T20:52:31Z*%
FMAT,2
ICI,OFF
METRIC,TZ,000.000
T15C0.300
T14C0.350
T13C0.635
T12C0.800
T11C0.813
T10C0.900
T9C0.914
T8C1.000
T7C1.016
T6C1.118
T5C1.250
T4C1.300
T3C1.500
T2C2.000
T1C2.800
%
G90
M71
T1
X10800Y96000
X77800Y96000
X4700Y7450
X83800Y7450
T2
X44250Y55400
X44250Y46600
X18700Y51000
X9900Y51000
X74200Y57000
X39850Y81000
X48650Y81000
X74200Y45000
T3
X43772Y15961
X48060Y16095
X47108Y3285
X60647Y3285
X36452Y93236
X36452Y95843
T4
X14680Y16500
X14680Y13500
X17880Y16500
X9650Y21885
X9650Y38115
X22350Y21885
X22350Y38115
X78850Y38115
X78850Y21885
X66150Y38115
X66150Y21885
X21080Y16500
X21080Y13500
X17880Y13500
T5
X12180Y12000
X23580Y18000
T6
X65790Y78477
X65790Y81017
X76870Y3467
X65790Y75937
X16790Y81017
X16790Y78477
X16790Y75937
X41710Y87909
X46790Y87909
X76870Y6007
X76870Y8547
X76870Y11087
X76870Y13627
X76870Y16167
X44250Y87909
T7
X33229Y91800
X43529Y13037
X47778Y13033
X33229Y97330
X56168Y3285
X51587Y3285
T8
X16800Y44000
X14300Y51000
X74200Y51000
X44250Y51000
X85200Y48000
X85200Y50000
X85200Y52000
X85200Y46000
X85200Y56000
X85200Y54000
X44250Y81000
X11800Y44000
X37250Y53500
X37250Y51000
X37250Y48500
X14300Y44000
T9
X57497Y62463
X57497Y65003
X57497Y59923
T10
X64928Y60569
X62388Y60569
X65141Y56879
X62601Y56879
X44744Y63804
X44744Y61264
X40977Y61564
X40977Y64104
X28236Y92305
X25696Y92305
X33256Y2071
X35796Y2071
T11
X51697Y23741
X51697Y21201
X59270Y22000
X58000Y23905
X56730Y22000
X53730Y28190
X56270Y28190
X56270Y35810
X53730Y35810
X49792Y22471
T12
X66000Y16000
X18329Y96566
X20329Y96566
X64000Y16000
X81255Y63534
X42311Y4496
X40311Y4496
X25604Y96582
X27604Y96582
X30466Y44345
X32466Y44345
X20343Y55057
X20343Y57057
X83255Y63534
X27394Y65848
X25609Y59848
X25394Y65848
X32179Y50938
X27609Y59848
X32179Y52938
X78818Y83241
X84107Y77758
X86107Y77758
X80818Y83241
T13
X60471Y64141
X65471Y64141
X45503Y68456
X47756Y64863
X52756Y64863
X83291Y59275
X78291Y59275
X40503Y68456
X65786Y53064
X65786Y48064
X75225Y76676
X51372Y43446
X51372Y38446
X70225Y76676
T14
X60618Y51109
X38026Y16361
X11458Y64394
X73121Y60861
T15
X49866Y50004
X74358Y71231
X31089Y12246
X54764Y54086
X81706Y66537
X72521Y71231
M30