G04 EAGLE Gerber X2 export*
%TF.Part,Single*%
%TF.FileFunction,Profile,NP*%
%TF.FilePolarity,Positive*%
%TF.GenerationSoftware,Autodesk,EAGLE,9.2.2*%
%TF.CreationDate,2019-06-08T20:52:32Z*%
G75*
%MOMM*%
%FSLAX34Y34*%
%LPD*%
%IN*%
%AMOC8*
5,1,8,0,0,1.08239X$1,22.5*%
G01*
%ADD10C,0.254000*%


D10*
X0Y50800D02*
X1100Y50800D01*
X18000Y38900D01*
X18000Y0D01*
X437500Y0D01*
X437500Y5000D01*
X447500Y5000D01*
X447500Y0D01*
X868000Y0D01*
X868000Y38900D01*
X885000Y50800D01*
X885000Y495000D01*
X880000Y495000D01*
X880000Y505000D01*
X884875Y505000D01*
X885000Y505100D01*
X885000Y920000D01*
X810000Y920000D01*
X810000Y1000000D01*
X513000Y1000000D01*
X513000Y980000D01*
X493000Y980000D01*
X493000Y900000D01*
X447500Y900000D01*
X447500Y895000D01*
X437500Y895000D01*
X437500Y900000D01*
X392000Y900000D01*
X392000Y980000D01*
X372000Y980000D01*
X372000Y1000000D01*
X75000Y1000000D01*
X75000Y920000D01*
X0Y920000D01*
X0Y505000D01*
X5000Y505000D01*
X5000Y495000D01*
X0Y495000D01*
X0Y50800D01*
X143281Y505000D02*
X143839Y505063D01*
X144386Y505188D01*
X144916Y505373D01*
X145422Y505617D01*
X145898Y505916D01*
X146337Y506266D01*
X146734Y506663D01*
X147084Y507102D01*
X147383Y507578D01*
X147627Y508084D01*
X147812Y508614D01*
X147937Y509161D01*
X148000Y509719D01*
X148000Y510281D01*
X147937Y510839D01*
X147812Y511386D01*
X147627Y511916D01*
X147383Y512422D01*
X147084Y512898D01*
X146734Y513337D01*
X146337Y513734D01*
X145898Y514084D01*
X145422Y514383D01*
X144916Y514627D01*
X144386Y514812D01*
X143839Y514937D01*
X143281Y515000D01*
X142719Y515000D01*
X142161Y514937D01*
X141614Y514812D01*
X141084Y514627D01*
X140578Y514383D01*
X140102Y514084D01*
X139663Y513734D01*
X139266Y513337D01*
X138916Y512898D01*
X138617Y512422D01*
X138373Y511916D01*
X138188Y511386D01*
X138063Y510839D01*
X138000Y510281D01*
X138000Y509719D01*
X138063Y509161D01*
X138188Y508614D01*
X138373Y508084D01*
X138617Y507578D01*
X138916Y507102D01*
X139266Y506663D01*
X139663Y506266D01*
X140102Y505916D01*
X140578Y505617D01*
X141084Y505373D01*
X141614Y505188D01*
X142161Y505063D01*
X142719Y505000D01*
X143281Y505000D01*
X742283Y504996D02*
X742841Y505059D01*
X743388Y505184D01*
X743918Y505370D01*
X744424Y505613D01*
X744900Y505912D01*
X745339Y506262D01*
X745736Y506660D01*
X746086Y507099D01*
X746385Y507574D01*
X746629Y508080D01*
X746814Y508610D01*
X746939Y509158D01*
X747002Y509716D01*
X747002Y510277D01*
X746939Y510835D01*
X746814Y511383D01*
X746629Y511913D01*
X746385Y512419D01*
X746086Y512894D01*
X745736Y513333D01*
X745339Y513731D01*
X744900Y514081D01*
X744424Y514379D01*
X743918Y514623D01*
X743388Y514809D01*
X742841Y514934D01*
X742283Y514996D01*
X741721Y514996D01*
X741163Y514934D01*
X740615Y514809D01*
X740085Y514623D01*
X739579Y514379D01*
X739104Y514081D01*
X738665Y513731D01*
X738268Y513333D01*
X737918Y512894D01*
X737619Y512419D01*
X737375Y511913D01*
X737190Y511383D01*
X737065Y510835D01*
X737002Y510277D01*
X737002Y509716D01*
X737065Y509158D01*
X737190Y508610D01*
X737375Y508080D01*
X737619Y507574D01*
X737918Y507099D01*
X738268Y506660D01*
X738665Y506262D01*
X739104Y505912D01*
X739579Y505613D01*
X740085Y505370D01*
X740615Y505184D01*
X741163Y505059D01*
X741721Y504996D01*
X742283Y504996D01*
X128050Y119649D02*
X127971Y118951D01*
X127815Y118267D01*
X127583Y117604D01*
X127279Y116972D01*
X126905Y116378D01*
X126468Y115829D01*
X125971Y115332D01*
X125422Y114895D01*
X124828Y114521D01*
X124196Y114217D01*
X123533Y113985D01*
X122849Y113829D01*
X122151Y113750D01*
X121449Y113750D01*
X120751Y113829D01*
X120067Y113985D01*
X119404Y114217D01*
X118772Y114521D01*
X118178Y114895D01*
X117629Y115332D01*
X117132Y115829D01*
X116695Y116378D01*
X116321Y116972D01*
X116017Y117604D01*
X115785Y118267D01*
X115629Y118951D01*
X115550Y119649D01*
X115550Y120351D01*
X115629Y121049D01*
X115785Y121733D01*
X116017Y122396D01*
X116321Y123028D01*
X116695Y123622D01*
X117132Y124171D01*
X117629Y124668D01*
X118178Y125105D01*
X118772Y125479D01*
X119404Y125783D01*
X120067Y126015D01*
X120751Y126171D01*
X121449Y126250D01*
X122151Y126250D01*
X122849Y126171D01*
X123533Y126015D01*
X124196Y125783D01*
X124828Y125479D01*
X125422Y125105D01*
X125971Y124668D01*
X126468Y124171D01*
X126905Y123622D01*
X127279Y123028D01*
X127583Y122396D01*
X127815Y121733D01*
X127971Y121049D01*
X128050Y120351D01*
X128050Y119649D01*
X242050Y179649D02*
X241971Y178951D01*
X241815Y178267D01*
X241583Y177604D01*
X241279Y176972D01*
X240905Y176378D01*
X240468Y175829D01*
X239971Y175332D01*
X239422Y174895D01*
X238828Y174521D01*
X238196Y174217D01*
X237533Y173985D01*
X236849Y173829D01*
X236151Y173750D01*
X235449Y173750D01*
X234751Y173829D01*
X234067Y173985D01*
X233404Y174217D01*
X232772Y174521D01*
X232178Y174895D01*
X231629Y175332D01*
X231132Y175829D01*
X230695Y176378D01*
X230321Y176972D01*
X230017Y177604D01*
X229785Y178267D01*
X229629Y178951D01*
X229550Y179649D01*
X229550Y180351D01*
X229629Y181049D01*
X229785Y181733D01*
X230017Y182396D01*
X230321Y183028D01*
X230695Y183622D01*
X231132Y184171D01*
X231629Y184668D01*
X232178Y185105D01*
X232772Y185479D01*
X233404Y185783D01*
X234067Y186015D01*
X234751Y186171D01*
X235449Y186250D01*
X236151Y186250D01*
X236849Y186171D01*
X237533Y186015D01*
X238196Y185783D01*
X238828Y185479D01*
X239422Y185105D01*
X239971Y184668D01*
X240468Y184171D01*
X240905Y183622D01*
X241279Y183028D01*
X241583Y182396D01*
X241815Y181733D01*
X241971Y181049D01*
X242050Y180351D01*
X242050Y179649D01*
X122000Y959500D02*
X121929Y958503D01*
X121786Y957513D01*
X121574Y956536D01*
X121292Y955576D01*
X120943Y954639D01*
X120527Y953729D01*
X120048Y952852D01*
X119507Y952010D01*
X118908Y951210D01*
X118253Y950454D01*
X117546Y949747D01*
X116790Y949092D01*
X115990Y948493D01*
X115148Y947952D01*
X114271Y947473D01*
X113361Y947057D01*
X112424Y946708D01*
X111465Y946426D01*
X110487Y946214D01*
X109498Y946071D01*
X108500Y946000D01*
X107500Y946000D01*
X106503Y946071D01*
X105513Y946214D01*
X104536Y946426D01*
X103576Y946708D01*
X102639Y947057D01*
X101729Y947473D01*
X100852Y947952D01*
X100010Y948493D01*
X99210Y949092D01*
X98454Y949747D01*
X97747Y950454D01*
X97092Y951210D01*
X96493Y952010D01*
X95952Y952852D01*
X95473Y953729D01*
X95057Y954639D01*
X94708Y955576D01*
X94426Y956536D01*
X94214Y957513D01*
X94071Y958503D01*
X94000Y959500D01*
X94000Y960500D01*
X94071Y961498D01*
X94214Y962487D01*
X94426Y963465D01*
X94708Y964424D01*
X95057Y965361D01*
X95473Y966271D01*
X95952Y967148D01*
X96493Y967990D01*
X97092Y968790D01*
X97747Y969546D01*
X98454Y970253D01*
X99210Y970908D01*
X100010Y971507D01*
X100852Y972048D01*
X101729Y972527D01*
X102639Y972943D01*
X103576Y973292D01*
X104536Y973574D01*
X105513Y973786D01*
X106503Y973929D01*
X107500Y974000D01*
X108500Y974000D01*
X109498Y973929D01*
X110487Y973786D01*
X111465Y973574D01*
X112424Y973292D01*
X113361Y972943D01*
X114271Y972527D01*
X115148Y972048D01*
X115990Y971507D01*
X116790Y970908D01*
X117546Y970253D01*
X118253Y969546D01*
X118908Y968790D01*
X119507Y967990D01*
X120048Y967148D01*
X120527Y966271D01*
X120943Y965361D01*
X121292Y964424D01*
X121574Y963465D01*
X121786Y962487D01*
X121929Y961498D01*
X122000Y960500D01*
X122000Y959500D01*
X792000Y959500D02*
X791929Y958503D01*
X791786Y957513D01*
X791574Y956536D01*
X791292Y955576D01*
X790943Y954639D01*
X790527Y953729D01*
X790048Y952852D01*
X789507Y952010D01*
X788908Y951210D01*
X788253Y950454D01*
X787546Y949747D01*
X786790Y949092D01*
X785990Y948493D01*
X785148Y947952D01*
X784271Y947473D01*
X783361Y947057D01*
X782424Y946708D01*
X781465Y946426D01*
X780487Y946214D01*
X779498Y946071D01*
X778500Y946000D01*
X777500Y946000D01*
X776503Y946071D01*
X775513Y946214D01*
X774536Y946426D01*
X773576Y946708D01*
X772639Y947057D01*
X771729Y947473D01*
X770852Y947952D01*
X770010Y948493D01*
X769210Y949092D01*
X768454Y949747D01*
X767747Y950454D01*
X767092Y951210D01*
X766493Y952010D01*
X765952Y952852D01*
X765473Y953729D01*
X765057Y954639D01*
X764708Y955576D01*
X764426Y956536D01*
X764214Y957513D01*
X764071Y958503D01*
X764000Y959500D01*
X764000Y960500D01*
X764071Y961498D01*
X764214Y962487D01*
X764426Y963465D01*
X764708Y964424D01*
X765057Y965361D01*
X765473Y966271D01*
X765952Y967148D01*
X766493Y967990D01*
X767092Y968790D01*
X767747Y969546D01*
X768454Y970253D01*
X769210Y970908D01*
X770010Y971507D01*
X770852Y972048D01*
X771729Y972527D01*
X772639Y972943D01*
X773576Y973292D01*
X774536Y973574D01*
X775513Y973786D01*
X776503Y973929D01*
X777500Y974000D01*
X778500Y974000D01*
X779498Y973929D01*
X780487Y973786D01*
X781465Y973574D01*
X782424Y973292D01*
X783361Y972943D01*
X784271Y972527D01*
X785148Y972048D01*
X785990Y971507D01*
X786790Y970908D01*
X787546Y970253D01*
X788253Y969546D01*
X788908Y968790D01*
X789507Y967990D01*
X790048Y967148D01*
X790527Y966271D01*
X790943Y965361D01*
X791292Y964424D01*
X791574Y963465D01*
X791786Y962487D01*
X791929Y961498D01*
X792000Y960500D01*
X792000Y959500D01*
X61000Y74000D02*
X60929Y73003D01*
X60786Y72013D01*
X60574Y71036D01*
X60292Y70076D01*
X59943Y69139D01*
X59527Y68229D01*
X59048Y67352D01*
X58507Y66510D01*
X57908Y65710D01*
X57253Y64954D01*
X56546Y64247D01*
X55790Y63592D01*
X54990Y62993D01*
X54148Y62452D01*
X53271Y61973D01*
X52361Y61557D01*
X51424Y61208D01*
X50465Y60926D01*
X49487Y60714D01*
X48498Y60571D01*
X47500Y60500D01*
X46500Y60500D01*
X45503Y60571D01*
X44513Y60714D01*
X43536Y60926D01*
X42576Y61208D01*
X41639Y61557D01*
X40729Y61973D01*
X39852Y62452D01*
X39010Y62993D01*
X38210Y63592D01*
X37454Y64247D01*
X36747Y64954D01*
X36092Y65710D01*
X35493Y66510D01*
X34952Y67352D01*
X34473Y68229D01*
X34057Y69139D01*
X33708Y70076D01*
X33426Y71036D01*
X33214Y72013D01*
X33071Y73003D01*
X33000Y74000D01*
X33000Y75000D01*
X33071Y75998D01*
X33214Y76987D01*
X33426Y77965D01*
X33708Y78924D01*
X34057Y79861D01*
X34473Y80771D01*
X34952Y81648D01*
X35493Y82490D01*
X36092Y83290D01*
X36747Y84046D01*
X37454Y84753D01*
X38210Y85408D01*
X39010Y86007D01*
X39852Y86548D01*
X40729Y87027D01*
X41639Y87443D01*
X42576Y87792D01*
X43536Y88074D01*
X44513Y88286D01*
X45503Y88429D01*
X46500Y88500D01*
X47500Y88500D01*
X48498Y88429D01*
X49487Y88286D01*
X50465Y88074D01*
X51424Y87792D01*
X52361Y87443D01*
X53271Y87027D01*
X54148Y86548D01*
X54990Y86007D01*
X55790Y85408D01*
X56546Y84753D01*
X57253Y84046D01*
X57908Y83290D01*
X58507Y82490D01*
X59048Y81648D01*
X59527Y80771D01*
X59943Y79861D01*
X60292Y78924D01*
X60574Y77965D01*
X60786Y76987D01*
X60929Y75998D01*
X61000Y75000D01*
X61000Y74000D01*
X852000Y74000D02*
X851929Y73003D01*
X851786Y72013D01*
X851574Y71036D01*
X851292Y70076D01*
X850943Y69139D01*
X850527Y68229D01*
X850048Y67352D01*
X849507Y66510D01*
X848908Y65710D01*
X848253Y64954D01*
X847546Y64247D01*
X846790Y63592D01*
X845990Y62993D01*
X845148Y62452D01*
X844271Y61973D01*
X843361Y61557D01*
X842424Y61208D01*
X841465Y60926D01*
X840487Y60714D01*
X839498Y60571D01*
X838500Y60500D01*
X837500Y60500D01*
X836503Y60571D01*
X835513Y60714D01*
X834536Y60926D01*
X833576Y61208D01*
X832639Y61557D01*
X831729Y61973D01*
X830852Y62452D01*
X830010Y62993D01*
X829210Y63592D01*
X828454Y64247D01*
X827747Y64954D01*
X827092Y65710D01*
X826493Y66510D01*
X825952Y67352D01*
X825473Y68229D01*
X825057Y69139D01*
X824708Y70076D01*
X824426Y71036D01*
X824214Y72013D01*
X824071Y73003D01*
X824000Y74000D01*
X824000Y75000D01*
X824071Y75998D01*
X824214Y76987D01*
X824426Y77965D01*
X824708Y78924D01*
X825057Y79861D01*
X825473Y80771D01*
X825952Y81648D01*
X826493Y82490D01*
X827092Y83290D01*
X827747Y84046D01*
X828454Y84753D01*
X829210Y85408D01*
X830010Y86007D01*
X830852Y86548D01*
X831729Y87027D01*
X832639Y87443D01*
X833576Y87792D01*
X834536Y88074D01*
X835513Y88286D01*
X836503Y88429D01*
X837500Y88500D01*
X838500Y88500D01*
X839498Y88429D01*
X840487Y88286D01*
X841465Y88074D01*
X842424Y87792D01*
X843361Y87443D01*
X844271Y87027D01*
X845148Y86548D01*
X845990Y86007D01*
X846790Y85408D01*
X847546Y84753D01*
X848253Y84046D01*
X848908Y83290D01*
X849507Y82490D01*
X850048Y81648D01*
X850527Y80771D01*
X850943Y79861D01*
X851292Y78924D01*
X851574Y77965D01*
X851786Y76987D01*
X851929Y75998D01*
X852000Y75000D01*
X852000Y74000D01*
X372020Y958063D02*
X371948Y957330D01*
X371804Y956607D01*
X371590Y955902D01*
X371308Y955221D01*
X370961Y954571D01*
X370551Y953958D01*
X370084Y953389D01*
X369563Y952867D01*
X368993Y952400D01*
X368380Y951991D01*
X367730Y951643D01*
X367050Y951361D01*
X366344Y951147D01*
X365622Y951004D01*
X364888Y950931D01*
X364151Y950931D01*
X363418Y951004D01*
X362695Y951147D01*
X361990Y951361D01*
X361309Y951643D01*
X360659Y951991D01*
X360047Y952400D01*
X359477Y952867D01*
X358956Y953389D01*
X358489Y953958D01*
X358079Y954571D01*
X357732Y955221D01*
X357450Y955902D01*
X357236Y956607D01*
X357092Y957330D01*
X357020Y958063D01*
X357020Y958800D01*
X357092Y959533D01*
X357236Y960256D01*
X357450Y960961D01*
X357732Y961642D01*
X358079Y962292D01*
X358489Y962904D01*
X358956Y963474D01*
X359477Y963995D01*
X360047Y964463D01*
X360659Y964872D01*
X361309Y965219D01*
X361990Y965501D01*
X362695Y965715D01*
X363418Y965859D01*
X364151Y965931D01*
X364888Y965931D01*
X365622Y965859D01*
X366344Y965715D01*
X367050Y965501D01*
X367730Y965219D01*
X368380Y964872D01*
X368993Y964463D01*
X369563Y963995D01*
X370084Y963474D01*
X370551Y962904D01*
X370961Y962292D01*
X371308Y961642D01*
X371590Y960961D01*
X371804Y960256D01*
X371948Y959533D01*
X372020Y958800D01*
X372020Y958063D01*
X372020Y931991D02*
X371948Y931257D01*
X371804Y930535D01*
X371590Y929829D01*
X371308Y929149D01*
X370961Y928499D01*
X370551Y927886D01*
X370084Y927316D01*
X369563Y926795D01*
X368993Y926328D01*
X368380Y925918D01*
X367730Y925571D01*
X367050Y925289D01*
X366344Y925075D01*
X365622Y924931D01*
X364888Y924859D01*
X364151Y924859D01*
X363418Y924931D01*
X362695Y925075D01*
X361990Y925289D01*
X361309Y925571D01*
X360659Y925918D01*
X360047Y926328D01*
X359477Y926795D01*
X358956Y927316D01*
X358489Y927886D01*
X358079Y928499D01*
X357732Y929149D01*
X357450Y929829D01*
X357236Y930535D01*
X357092Y931257D01*
X357020Y931991D01*
X357020Y932728D01*
X357092Y933461D01*
X357236Y934184D01*
X357450Y934889D01*
X357732Y935570D01*
X358079Y936220D01*
X358489Y936832D01*
X358956Y937402D01*
X359477Y937923D01*
X360047Y938390D01*
X360659Y938800D01*
X361309Y939147D01*
X361990Y939429D01*
X362695Y939643D01*
X363418Y939787D01*
X364151Y939859D01*
X364888Y939859D01*
X365622Y939787D01*
X366344Y939643D01*
X367050Y939429D01*
X367730Y939147D01*
X368380Y938800D01*
X368993Y938390D01*
X369563Y937923D01*
X370084Y937402D01*
X370551Y936832D01*
X370961Y936220D01*
X371308Y935570D01*
X371590Y934889D01*
X371804Y934184D01*
X371948Y933461D01*
X372020Y932728D01*
X372020Y931991D01*
X613969Y32486D02*
X613897Y31753D01*
X613753Y31030D01*
X613539Y30325D01*
X613257Y29644D01*
X612910Y28994D01*
X612500Y28381D01*
X612033Y27812D01*
X611512Y27291D01*
X610942Y26823D01*
X610329Y26414D01*
X609680Y26066D01*
X608999Y25784D01*
X608294Y25570D01*
X607571Y25427D01*
X606837Y25354D01*
X606101Y25354D01*
X605367Y25427D01*
X604644Y25570D01*
X603939Y25784D01*
X603258Y26066D01*
X602609Y26414D01*
X601996Y26823D01*
X601426Y27291D01*
X600905Y27812D01*
X600438Y28381D01*
X600028Y28994D01*
X599681Y29644D01*
X599399Y30325D01*
X599185Y31030D01*
X599041Y31753D01*
X598969Y32486D01*
X598969Y33223D01*
X599041Y33956D01*
X599185Y34679D01*
X599399Y35384D01*
X599681Y36065D01*
X600028Y36715D01*
X600438Y37328D01*
X600905Y37897D01*
X601426Y38418D01*
X601996Y38886D01*
X602609Y39295D01*
X603258Y39643D01*
X603939Y39925D01*
X604644Y40138D01*
X605367Y40282D01*
X606101Y40354D01*
X606837Y40354D01*
X607571Y40282D01*
X608294Y40138D01*
X608999Y39925D01*
X609680Y39643D01*
X610329Y39295D01*
X610942Y38886D01*
X611512Y38418D01*
X612033Y37897D01*
X612500Y37328D01*
X612910Y36715D01*
X613257Y36065D01*
X613539Y35384D01*
X613753Y34679D01*
X613897Y33956D01*
X613969Y33223D01*
X613969Y32486D01*
X478584Y32486D02*
X478512Y31753D01*
X478368Y31030D01*
X478154Y30325D01*
X477872Y29644D01*
X477525Y28994D01*
X477115Y28381D01*
X476648Y27812D01*
X476127Y27291D01*
X475557Y26823D01*
X474944Y26414D01*
X474295Y26066D01*
X473614Y25784D01*
X472909Y25570D01*
X472186Y25427D01*
X471452Y25354D01*
X470716Y25354D01*
X469982Y25427D01*
X469259Y25570D01*
X468554Y25784D01*
X467873Y26066D01*
X467224Y26414D01*
X466611Y26823D01*
X466041Y27291D01*
X465520Y27812D01*
X465053Y28381D01*
X464643Y28994D01*
X464296Y29644D01*
X464014Y30325D01*
X463800Y31030D01*
X463656Y31753D01*
X463584Y32486D01*
X463584Y33223D01*
X463656Y33956D01*
X463800Y34679D01*
X464014Y35384D01*
X464296Y36065D01*
X464643Y36715D01*
X465053Y37328D01*
X465520Y37897D01*
X466041Y38418D01*
X466611Y38886D01*
X467224Y39295D01*
X467873Y39643D01*
X468554Y39925D01*
X469259Y40138D01*
X469982Y40282D01*
X470716Y40354D01*
X471452Y40354D01*
X472186Y40282D01*
X472909Y40138D01*
X473614Y39925D01*
X474295Y39643D01*
X474944Y39295D01*
X475557Y38886D01*
X476127Y38418D01*
X476648Y37897D01*
X477115Y37328D01*
X477525Y36715D01*
X477872Y36065D01*
X478154Y35384D01*
X478368Y34679D01*
X478512Y33956D01*
X478584Y33223D01*
X478584Y32486D01*
X437500Y510281D02*
X437563Y510839D01*
X437688Y511386D01*
X437873Y511916D01*
X438117Y512422D01*
X438416Y512898D01*
X438766Y513337D01*
X439163Y513734D01*
X439602Y514084D01*
X440078Y514383D01*
X440584Y514627D01*
X441114Y514812D01*
X441661Y514937D01*
X442219Y515000D01*
X442781Y515000D01*
X443339Y514937D01*
X443886Y514812D01*
X444416Y514627D01*
X444922Y514383D01*
X445398Y514084D01*
X445837Y513734D01*
X446234Y513337D01*
X446584Y512898D01*
X446883Y512422D01*
X447127Y511916D01*
X447312Y511386D01*
X447437Y510839D01*
X447500Y510281D01*
X447500Y509719D01*
X447437Y509161D01*
X447312Y508614D01*
X447127Y508084D01*
X446883Y507578D01*
X446584Y507102D01*
X446234Y506663D01*
X445837Y506266D01*
X445398Y505916D01*
X444922Y505617D01*
X444416Y505373D01*
X443886Y505188D01*
X443339Y505063D01*
X442781Y505000D01*
X442219Y505000D01*
X441661Y505063D01*
X441114Y505188D01*
X440584Y505373D01*
X440078Y505617D01*
X439602Y505916D01*
X439163Y506266D01*
X438766Y506663D01*
X438416Y507102D01*
X438117Y507578D01*
X437873Y508084D01*
X437688Y508614D01*
X437563Y509161D01*
X437500Y509719D01*
X437500Y510281D01*
X488104Y160583D02*
X488031Y159849D01*
X487888Y159127D01*
X487674Y158422D01*
X487392Y157741D01*
X487044Y157091D01*
X486635Y156478D01*
X486167Y155908D01*
X485646Y155387D01*
X485077Y154920D01*
X484464Y154511D01*
X483814Y154163D01*
X483133Y153881D01*
X482428Y153667D01*
X481705Y153523D01*
X480972Y153451D01*
X480235Y153451D01*
X479502Y153523D01*
X478779Y153667D01*
X478074Y153881D01*
X477393Y154163D01*
X476743Y154511D01*
X476130Y154920D01*
X475561Y155387D01*
X475040Y155908D01*
X474572Y156478D01*
X474163Y157091D01*
X473815Y157741D01*
X473533Y158422D01*
X473320Y159127D01*
X473176Y159849D01*
X473104Y160583D01*
X473104Y161320D01*
X473176Y162053D01*
X473320Y162776D01*
X473533Y163481D01*
X473815Y164162D01*
X474163Y164812D01*
X474572Y165424D01*
X475040Y165994D01*
X475561Y166515D01*
X476130Y166983D01*
X476743Y167392D01*
X477393Y167739D01*
X478074Y168021D01*
X478779Y168235D01*
X479502Y168379D01*
X480235Y168451D01*
X480972Y168451D01*
X481705Y168379D01*
X482428Y168235D01*
X483133Y168021D01*
X483814Y167739D01*
X484464Y167392D01*
X485077Y166983D01*
X485646Y166515D01*
X486167Y165994D01*
X486635Y165424D01*
X487044Y164812D01*
X487392Y164162D01*
X487674Y163481D01*
X487888Y162776D01*
X488031Y162053D01*
X488104Y161320D01*
X488104Y160583D01*
X445222Y159240D02*
X445150Y158506D01*
X445006Y157784D01*
X444793Y157079D01*
X444511Y156398D01*
X444163Y155748D01*
X443754Y155135D01*
X443286Y154566D01*
X442765Y154044D01*
X442196Y153577D01*
X441583Y153168D01*
X440933Y152820D01*
X440252Y152538D01*
X439547Y152324D01*
X438824Y152181D01*
X438091Y152108D01*
X437354Y152108D01*
X436621Y152181D01*
X435898Y152324D01*
X435193Y152538D01*
X434512Y152820D01*
X433862Y153168D01*
X433249Y153577D01*
X432680Y154044D01*
X432159Y154566D01*
X431691Y155135D01*
X431282Y155748D01*
X430934Y156398D01*
X430652Y157079D01*
X430438Y157784D01*
X430295Y158506D01*
X430222Y159240D01*
X430222Y159977D01*
X430295Y160710D01*
X430438Y161433D01*
X430652Y162138D01*
X430934Y162819D01*
X431282Y163469D01*
X431691Y164081D01*
X432159Y164651D01*
X432680Y165172D01*
X433249Y165640D01*
X433862Y166049D01*
X434512Y166396D01*
X435193Y166678D01*
X435898Y166892D01*
X436621Y167036D01*
X437354Y167108D01*
X438091Y167108D01*
X438824Y167036D01*
X439547Y166892D01*
X440252Y166678D01*
X440933Y166396D01*
X441583Y166049D01*
X442196Y165640D01*
X442765Y165172D01*
X443286Y164651D01*
X443754Y164081D01*
X444163Y163469D01*
X444511Y162819D01*
X444793Y162138D01*
X445006Y161433D01*
X445150Y160710D01*
X445222Y159977D01*
X445222Y159240D01*
X447500Y809719D02*
X447437Y809161D01*
X447312Y808614D01*
X447127Y808084D01*
X446883Y807578D01*
X446584Y807102D01*
X446234Y806663D01*
X445837Y806266D01*
X445398Y805916D01*
X444922Y805617D01*
X444416Y805373D01*
X443886Y805188D01*
X443339Y805063D01*
X442781Y805000D01*
X442219Y805000D01*
X441661Y805063D01*
X441114Y805188D01*
X440584Y805373D01*
X440078Y805617D01*
X439602Y805916D01*
X439163Y806266D01*
X438766Y806663D01*
X438416Y807102D01*
X438117Y807578D01*
X437873Y808084D01*
X437688Y808614D01*
X437563Y809161D01*
X437500Y809719D01*
X437500Y810281D01*
X437563Y810839D01*
X437688Y811386D01*
X437873Y811916D01*
X438117Y812422D01*
X438416Y812898D01*
X438766Y813337D01*
X439163Y813734D01*
X439602Y814084D01*
X440078Y814383D01*
X440584Y814627D01*
X441114Y814812D01*
X441661Y814937D01*
X442219Y815000D01*
X442781Y815000D01*
X443339Y814937D01*
X443886Y814812D01*
X444416Y814627D01*
X444922Y814383D01*
X445398Y814084D01*
X445837Y813734D01*
X446234Y813337D01*
X446584Y812898D01*
X446883Y812422D01*
X447127Y811916D01*
X447312Y811386D01*
X447437Y810839D01*
X447500Y810281D01*
X447500Y809719D01*
M02*
