G04 EAGLE Gerber X2 export*
%TF.Part,Single*%
%TF.FileFunction,Other,Other*%
%TF.FilePolarity,Positive*%
%TF.GenerationSoftware,Autodesk,EAGLE,9.2.0*%
%TF.CreationDate,2018-10-30T14:29:23Z*%
G75*
%MOMM*%
%FSLAX34Y34*%
%LPD*%
%INSTENCIL_OUT*%
%IPPOS*%
%AMOC8*
5,1,8,0,0,1.08239X$1,22.5*%
G01*
%ADD10R,1.500000X1.300000*%
%ADD11R,1.300000X1.500000*%
%ADD12R,1.500000X1.950000*%
%ADD13R,1.300000X1.600000*%
%ADD14R,0.600000X2.200000*%
%ADD15R,2.235200X1.219200*%
%ADD16R,2.200000X3.600000*%
%ADD17R,2.400000X1.700000*%
%ADD18R,1.600000X1.803000*%
%ADD19R,1.803000X1.600000*%
%ADD20R,1.422400X0.711200*%
%ADD21R,1.066800X2.184400*%
%ADD22R,0.533400X1.549400*%
%ADD23R,1.000000X1.600000*%
%ADD24R,5.400000X6.200000*%
%ADD25R,1.800000X1.600000*%
%ADD26R,1.600000X2.000000*%
%ADD27R,3.100000X0.800000*%
%ADD28R,1.270000X2.540000*%
%ADD29R,2.000000X1.600000*%
%ADD30R,2.209800X0.609600*%
%ADD31R,2.400000X2.400000*%
%ADD32R,1.270000X1.270000*%
%ADD33R,1.600000X1.800000*%
%ADD34R,2.032000X1.270000*%
%ADD35R,1.270000X2.032000*%


D10*
X665400Y689000D03*
X665400Y708000D03*
D11*
X656200Y741084D03*
X675200Y741084D03*
D12*
X626083Y684750D03*
X626083Y712250D03*
X441180Y709400D03*
X441180Y736900D03*
D13*
X636083Y650600D03*
X616083Y650600D03*
D14*
X572850Y902300D03*
X560150Y902300D03*
X547450Y902300D03*
X534750Y902300D03*
X534750Y850300D03*
X547450Y850300D03*
X560150Y850300D03*
X572850Y850300D03*
D15*
X844688Y406336D03*
X844688Y429450D03*
X844688Y452564D03*
D16*
X782710Y429450D03*
D17*
X626083Y771500D03*
X626083Y734500D03*
D18*
X604930Y627400D03*
X633370Y627400D03*
D19*
X412900Y705446D03*
X412900Y733886D03*
X635551Y822220D03*
X635551Y793780D03*
X209950Y649220D03*
X209950Y620780D03*
D18*
X310320Y896400D03*
X281880Y896400D03*
X178870Y966050D03*
X150430Y966050D03*
D19*
X125200Y821680D03*
X125200Y850120D03*
D18*
X210380Y790550D03*
X238820Y790550D03*
D19*
X245900Y520721D03*
X245900Y492281D03*
X216300Y492281D03*
X216300Y520721D03*
X751304Y594942D03*
X751304Y623382D03*
X94050Y514320D03*
X94050Y485880D03*
D18*
X276680Y790550D03*
X305120Y790550D03*
D19*
X337000Y599220D03*
X337000Y570780D03*
X749793Y496945D03*
X749793Y525385D03*
X751304Y701611D03*
X751304Y730051D03*
D18*
X474145Y307800D03*
X502585Y307800D03*
X374220Y417850D03*
X345780Y417850D03*
D19*
X470550Y705446D03*
X470550Y733886D03*
X385000Y598886D03*
X385000Y570446D03*
D20*
X590550Y711200D03*
X590550Y698500D03*
X590550Y736600D03*
X501650Y711200D03*
X590550Y685800D03*
X590550Y723900D03*
X590550Y774700D03*
X501650Y762000D03*
X501650Y698500D03*
X590550Y647700D03*
X501650Y647700D03*
X590550Y673100D03*
X501650Y749300D03*
X501650Y736600D03*
X501650Y723900D03*
X501650Y685800D03*
X501650Y673100D03*
X590550Y660400D03*
X501650Y660400D03*
X501650Y800100D03*
X501650Y787400D03*
X501650Y774700D03*
X590550Y812800D03*
X501650Y812800D03*
X590550Y800100D03*
X590550Y787400D03*
X590550Y762000D03*
X590550Y749300D03*
D21*
X634300Y549900D03*
X620300Y505900D03*
X606300Y549900D03*
D19*
X361000Y570446D03*
X361000Y598886D03*
D18*
X345780Y474161D03*
X374220Y474161D03*
D22*
X325200Y156334D03*
X312500Y156334D03*
X299800Y156334D03*
X287100Y156334D03*
X287100Y82166D03*
X299800Y82166D03*
X312500Y82166D03*
X325200Y82166D03*
D23*
X791100Y171700D03*
X745500Y171700D03*
D24*
X768300Y98700D03*
D25*
X720800Y97850D03*
X720800Y69850D03*
D26*
X387200Y173150D03*
X359200Y173150D03*
D27*
X481200Y177900D03*
X481200Y209900D03*
X481200Y231900D03*
X481200Y253900D03*
X428200Y177900D03*
X428200Y209900D03*
X428200Y231900D03*
X428200Y253900D03*
D28*
X538100Y160500D03*
X563500Y160500D03*
X563500Y230500D03*
X538100Y230500D03*
D26*
X518850Y69650D03*
X546850Y69650D03*
X546950Y36000D03*
X518950Y36000D03*
D29*
X480200Y97750D03*
X480200Y69750D03*
D25*
X683400Y414550D03*
X683400Y442550D03*
D30*
X462788Y446950D03*
X462788Y434250D03*
X462788Y421550D03*
X462788Y408850D03*
X515112Y408850D03*
X515112Y421550D03*
X515112Y434250D03*
X515112Y446950D03*
X462788Y546100D03*
X462788Y533400D03*
X462788Y520700D03*
X462788Y508000D03*
X515112Y508000D03*
X515112Y520700D03*
X515112Y533400D03*
X515112Y546100D03*
D31*
X475650Y135000D03*
X431650Y135000D03*
D32*
X780700Y45500D03*
X755300Y45500D03*
D18*
X541170Y605850D03*
X512730Y605850D03*
D19*
X409000Y475585D03*
X409000Y447145D03*
D18*
X374220Y446000D03*
X345780Y446000D03*
X570000Y469000D03*
X541560Y469000D03*
D25*
X717000Y424000D03*
X717000Y452000D03*
D18*
X245000Y404000D03*
X216560Y404000D03*
D19*
X468000Y599220D03*
X468000Y570780D03*
D33*
X818000Y146000D03*
X846000Y146000D03*
D18*
X347780Y320000D03*
X376220Y320000D03*
X217780Y232000D03*
X246220Y232000D03*
X245220Y467000D03*
X216780Y467000D03*
X245220Y441000D03*
X216780Y441000D03*
D33*
X346000Y392000D03*
X374000Y392000D03*
D14*
X298650Y396000D03*
X298650Y448000D03*
X285950Y396000D03*
X311350Y396000D03*
X324050Y396000D03*
X285950Y448000D03*
X311350Y448000D03*
X324050Y448000D03*
D34*
X231000Y692490D03*
X231000Y725510D03*
X94000Y600510D03*
X94000Y567490D03*
D35*
X376510Y511000D03*
X343490Y511000D03*
D34*
X363000Y277510D03*
X363000Y244490D03*
X600000Y306510D03*
X600000Y273490D03*
M02*
