G04 EAGLE Gerber X2 export*
%TF.Part,Single*%
%TF.FileFunction,Copper,L2,Bot,Mixed*%
%TF.FilePolarity,Positive*%
%TF.GenerationSoftware,Autodesk,EAGLE,9.2.2*%
%TF.CreationDate,2019-06-08T20:53:20Z*%
G75*
%MOMM*%
%FSLAX34Y34*%
%LPD*%
%INBottom Copper*%
%AMOC8*
5,1,8,0,0,1.08239X$1,22.5*%
G01*
%ADD10C,1.143000*%
%ADD11R,1.350000X1.350000*%
%ADD12C,1.350000*%
%ADD13P,1.307527X8X292.500000*%
%ADD14C,1.879600*%
%ADD15C,0.152400*%
%ADD16C,0.756400*%

G36*
X428807Y10162D02*
X428807Y10162D01*
X428814Y10161D01*
X428905Y10182D01*
X428997Y10200D01*
X429003Y10204D01*
X429009Y10206D01*
X429085Y10260D01*
X429163Y10313D01*
X429167Y10318D01*
X429172Y10322D01*
X429269Y10474D01*
X429386Y10756D01*
X432244Y13614D01*
X432576Y13751D01*
X433800Y14258D01*
X435025Y14766D01*
X435979Y15161D01*
X450021Y15161D01*
X453756Y13614D01*
X456614Y10756D01*
X456731Y10474D01*
X456734Y10468D01*
X456736Y10462D01*
X456790Y10385D01*
X456842Y10308D01*
X456848Y10304D01*
X456852Y10299D01*
X456931Y10249D01*
X457010Y10197D01*
X457016Y10196D01*
X457022Y10193D01*
X457199Y10161D01*
X750166Y10161D01*
X750174Y10162D01*
X750181Y10161D01*
X750271Y10182D01*
X750362Y10200D01*
X750369Y10205D01*
X750377Y10207D01*
X750525Y10309D01*
X839691Y99475D01*
X839695Y99482D01*
X839701Y99487D01*
X839750Y99565D01*
X839802Y99642D01*
X839803Y99650D01*
X839807Y99657D01*
X839839Y99834D01*
X839839Y179332D01*
X839838Y179337D01*
X839839Y179342D01*
X839818Y179435D01*
X839800Y179529D01*
X839797Y179533D01*
X839796Y179538D01*
X839740Y179616D01*
X839687Y179694D01*
X839683Y179697D01*
X839680Y179701D01*
X839598Y179752D01*
X839519Y179804D01*
X839514Y179804D01*
X839509Y179807D01*
X839332Y179839D01*
X582979Y179839D01*
X579244Y181386D01*
X576386Y184244D01*
X574839Y187979D01*
X574839Y352021D01*
X576386Y355756D01*
X578842Y358211D01*
X578843Y358214D01*
X578846Y358215D01*
X578898Y358296D01*
X578953Y358378D01*
X578953Y358381D01*
X578955Y358383D01*
X578972Y358479D01*
X578990Y358575D01*
X578990Y358578D01*
X578990Y358580D01*
X578969Y358677D01*
X578949Y358771D01*
X578947Y358773D01*
X578947Y358776D01*
X578890Y358856D01*
X578835Y358936D01*
X578832Y358937D01*
X578831Y358939D01*
X578748Y358991D01*
X578665Y359043D01*
X578663Y359044D01*
X578661Y359045D01*
X578483Y359077D01*
X578429Y359077D01*
X574415Y360740D01*
X571342Y363813D01*
X570270Y366400D01*
X570268Y366404D01*
X570267Y366408D01*
X570212Y366487D01*
X570159Y366567D01*
X570155Y366569D01*
X570153Y366572D01*
X570071Y366624D01*
X569991Y366677D01*
X569987Y366678D01*
X569984Y366680D01*
X569889Y366696D01*
X569794Y366714D01*
X569790Y366713D01*
X569786Y366713D01*
X569692Y366691D01*
X569598Y366671D01*
X569595Y366669D01*
X569591Y366668D01*
X569443Y366565D01*
X506915Y304037D01*
X348049Y304037D01*
X346561Y305525D01*
X340324Y311762D01*
X340319Y311765D01*
X340316Y311770D01*
X340236Y311820D01*
X340157Y311873D01*
X340152Y311874D01*
X340147Y311877D01*
X340053Y311893D01*
X339960Y311911D01*
X339955Y311910D01*
X339950Y311911D01*
X339857Y311889D01*
X339764Y311869D01*
X339759Y311866D01*
X339754Y311865D01*
X339711Y311835D01*
X333412Y311835D01*
X328981Y316266D01*
X328981Y322533D01*
X333412Y326964D01*
X339679Y326964D01*
X344111Y322533D01*
X344111Y316266D01*
X343558Y315714D01*
X343555Y315709D01*
X343551Y315706D01*
X343500Y315626D01*
X343447Y315547D01*
X343446Y315541D01*
X343443Y315537D01*
X343427Y315443D01*
X343409Y315350D01*
X343410Y315345D01*
X343409Y315339D01*
X343431Y315247D01*
X343451Y315154D01*
X343454Y315149D01*
X343455Y315144D01*
X343558Y314996D01*
X349795Y308759D01*
X349801Y308755D01*
X349806Y308749D01*
X349884Y308700D01*
X349962Y308648D01*
X349969Y308647D01*
X349976Y308643D01*
X350153Y308611D01*
X504811Y308611D01*
X504818Y308612D01*
X504826Y308611D01*
X504916Y308632D01*
X505007Y308650D01*
X505014Y308655D01*
X505021Y308657D01*
X505169Y308759D01*
X570383Y373973D01*
X570388Y373981D01*
X570396Y373986D01*
X570493Y374138D01*
X571342Y376187D01*
X574415Y379260D01*
X574942Y379478D01*
X576167Y379986D01*
X577391Y380493D01*
X577392Y380493D01*
X578429Y380923D01*
X601571Y380923D01*
X605585Y379260D01*
X608658Y376187D01*
X608863Y375691D01*
X608864Y375690D01*
X608864Y375689D01*
X608867Y375685D01*
X608867Y375682D01*
X608904Y375630D01*
X608919Y375608D01*
X608975Y375525D01*
X608976Y375524D01*
X608977Y375523D01*
X608983Y375519D01*
X608991Y375513D01*
X609057Y375471D01*
X609143Y375415D01*
X609144Y375414D01*
X609145Y375414D01*
X609242Y375396D01*
X609340Y375378D01*
X609341Y375378D01*
X609342Y375378D01*
X609442Y375400D01*
X609536Y375421D01*
X609537Y375421D01*
X609538Y375422D01*
X609618Y375479D01*
X609700Y375536D01*
X609700Y375537D01*
X609701Y375538D01*
X609753Y375620D01*
X609806Y375705D01*
X609807Y375707D01*
X609807Y375708D01*
X609839Y375885D01*
X609839Y389515D01*
X609839Y389516D01*
X609839Y389517D01*
X609820Y389611D01*
X609800Y389711D01*
X609799Y389712D01*
X609799Y389714D01*
X609742Y389796D01*
X609687Y389877D01*
X609686Y389878D01*
X609685Y389879D01*
X609600Y389934D01*
X609519Y389986D01*
X609518Y389987D01*
X609517Y389987D01*
X609418Y390005D01*
X609322Y390022D01*
X609320Y390022D01*
X609319Y390022D01*
X609222Y390000D01*
X609126Y389978D01*
X609125Y389978D01*
X609124Y389977D01*
X609044Y389920D01*
X608963Y389862D01*
X608962Y389861D01*
X608961Y389861D01*
X608863Y389709D01*
X608658Y389213D01*
X605585Y386140D01*
X605231Y385993D01*
X604006Y385486D01*
X602782Y384979D01*
X601571Y384477D01*
X578429Y384477D01*
X574415Y386140D01*
X572169Y388386D01*
X572165Y388389D01*
X572162Y388393D01*
X572081Y388444D01*
X572002Y388497D01*
X571997Y388498D01*
X571993Y388501D01*
X571899Y388517D01*
X571805Y388534D01*
X571800Y388533D01*
X571795Y388534D01*
X571702Y388513D01*
X571609Y388493D01*
X571605Y388490D01*
X571600Y388489D01*
X571452Y388386D01*
X499295Y316229D01*
X399492Y316229D01*
X399487Y316228D01*
X399482Y316229D01*
X399389Y316208D01*
X399296Y316190D01*
X399291Y316187D01*
X399286Y316186D01*
X399208Y316130D01*
X399130Y316077D01*
X399127Y316073D01*
X399123Y316070D01*
X399072Y315988D01*
X399021Y315909D01*
X399020Y315904D01*
X399017Y315899D01*
X398985Y315722D01*
X398985Y314907D01*
X394554Y310476D01*
X388287Y310476D01*
X383855Y314907D01*
X383855Y321174D01*
X388287Y325605D01*
X394554Y325605D01*
X399019Y321140D01*
X399024Y321113D01*
X399027Y321109D01*
X399029Y321104D01*
X399084Y321026D01*
X399137Y320948D01*
X399142Y320945D01*
X399145Y320941D01*
X399226Y320890D01*
X399305Y320838D01*
X399310Y320838D01*
X399315Y320835D01*
X399492Y320803D01*
X497191Y320803D01*
X497198Y320804D01*
X497206Y320803D01*
X497296Y320824D01*
X497387Y320842D01*
X497394Y320847D01*
X497401Y320849D01*
X497549Y320951D01*
X569531Y392933D01*
X569535Y392939D01*
X569541Y392944D01*
X569590Y393022D01*
X569642Y393100D01*
X569643Y393107D01*
X569647Y393114D01*
X569679Y393291D01*
X569679Y397573D01*
X571342Y401587D01*
X574415Y404660D01*
X574852Y404841D01*
X576076Y405348D01*
X577301Y405855D01*
X578429Y406323D01*
X601571Y406323D01*
X605585Y404660D01*
X608658Y401587D01*
X608863Y401091D01*
X608864Y401090D01*
X608864Y401089D01*
X608919Y401008D01*
X608975Y400925D01*
X608976Y400924D01*
X608977Y400923D01*
X609057Y400871D01*
X609143Y400815D01*
X609144Y400814D01*
X609145Y400814D01*
X609242Y400796D01*
X609340Y400778D01*
X609341Y400778D01*
X609342Y400778D01*
X609442Y400800D01*
X609536Y400821D01*
X609537Y400821D01*
X609538Y400822D01*
X609618Y400879D01*
X609700Y400936D01*
X609700Y400937D01*
X609701Y400938D01*
X609753Y401020D01*
X609806Y401105D01*
X609807Y401107D01*
X609807Y401108D01*
X609839Y401285D01*
X609839Y669332D01*
X609838Y669337D01*
X609839Y669342D01*
X609818Y669435D01*
X609800Y669529D01*
X609797Y669533D01*
X609796Y669538D01*
X609740Y669616D01*
X609687Y669694D01*
X609683Y669697D01*
X609680Y669701D01*
X609598Y669752D01*
X609519Y669804D01*
X609514Y669804D01*
X609509Y669807D01*
X609332Y669839D01*
X10668Y669839D01*
X10663Y669838D01*
X10658Y669839D01*
X10565Y669818D01*
X10471Y669800D01*
X10467Y669797D01*
X10462Y669796D01*
X10384Y669740D01*
X10306Y669687D01*
X10303Y669683D01*
X10299Y669680D01*
X10248Y669598D01*
X10196Y669519D01*
X10196Y669514D01*
X10193Y669509D01*
X10161Y669332D01*
X10161Y410668D01*
X10162Y410663D01*
X10161Y410658D01*
X10182Y410565D01*
X10200Y410471D01*
X10203Y410467D01*
X10204Y410462D01*
X10260Y410384D01*
X10313Y410306D01*
X10317Y410303D01*
X10320Y410299D01*
X10402Y410248D01*
X10481Y410196D01*
X10486Y410196D01*
X10491Y410193D01*
X10668Y410161D01*
X302021Y410161D01*
X305756Y408614D01*
X308614Y405756D01*
X310161Y402021D01*
X310161Y10668D01*
X310162Y10663D01*
X310161Y10658D01*
X310182Y10565D01*
X310200Y10471D01*
X310203Y10467D01*
X310204Y10462D01*
X310260Y10384D01*
X310313Y10306D01*
X310317Y10303D01*
X310320Y10299D01*
X310402Y10248D01*
X310481Y10196D01*
X310486Y10196D01*
X310491Y10193D01*
X310668Y10161D01*
X428801Y10161D01*
X428807Y10162D01*
G37*
%LPC*%
G36*
X388287Y335876D02*
X388287Y335876D01*
X383855Y340307D01*
X383855Y346574D01*
X388287Y351005D01*
X394554Y351005D01*
X395188Y350371D01*
X395192Y350368D01*
X395195Y350364D01*
X395275Y350313D01*
X395355Y350260D01*
X395360Y350259D01*
X395364Y350256D01*
X395458Y350240D01*
X395552Y350223D01*
X395557Y350224D01*
X395562Y350223D01*
X395654Y350244D01*
X395748Y350264D01*
X395752Y350267D01*
X395757Y350268D01*
X395905Y350371D01*
X476101Y430567D01*
X476105Y430573D01*
X476111Y430578D01*
X476160Y430656D01*
X476212Y430734D01*
X476213Y430741D01*
X476217Y430748D01*
X476249Y430925D01*
X476249Y488348D01*
X476248Y488356D01*
X476249Y488363D01*
X476228Y488453D01*
X476210Y488544D01*
X476205Y488551D01*
X476203Y488558D01*
X476101Y488706D01*
X473229Y491578D01*
X473229Y495974D01*
X473975Y496719D01*
X473976Y496722D01*
X473978Y496723D01*
X474030Y496803D01*
X474085Y496886D01*
X474086Y496889D01*
X474087Y496891D01*
X474105Y496987D01*
X474123Y497083D01*
X474123Y497086D01*
X474123Y497088D01*
X474102Y497185D01*
X474081Y497279D01*
X474080Y497281D01*
X474079Y497284D01*
X474023Y497364D01*
X473967Y497444D01*
X473965Y497445D01*
X473963Y497447D01*
X473880Y497499D01*
X473798Y497551D01*
X473795Y497552D01*
X473793Y497553D01*
X473616Y497585D01*
X380053Y497585D01*
X310097Y567541D01*
X310091Y567545D01*
X310086Y567551D01*
X310008Y567600D01*
X309930Y567652D01*
X309923Y567653D01*
X309916Y567657D01*
X309739Y567689D01*
X308196Y567689D01*
X308194Y567689D01*
X308191Y567689D01*
X308096Y567669D01*
X308000Y567650D01*
X307997Y567648D01*
X307995Y567648D01*
X307914Y567592D01*
X307834Y567537D01*
X307832Y567535D01*
X307830Y567533D01*
X307777Y567450D01*
X307725Y567369D01*
X307724Y567366D01*
X307723Y567364D01*
X307706Y567268D01*
X307689Y567172D01*
X307690Y567169D01*
X307689Y567167D01*
X307711Y567072D01*
X307733Y566976D01*
X307734Y566974D01*
X307735Y566971D01*
X307837Y566823D01*
X308583Y566078D01*
X308583Y561682D01*
X305711Y558810D01*
X305707Y558804D01*
X305701Y558799D01*
X305652Y558721D01*
X305600Y558643D01*
X305599Y558636D01*
X305595Y558629D01*
X305563Y558452D01*
X305563Y522129D01*
X305564Y522121D01*
X305563Y522113D01*
X305584Y522023D01*
X305602Y521932D01*
X305607Y521926D01*
X305609Y521918D01*
X305711Y521770D01*
X341654Y485827D01*
X341660Y485823D01*
X341665Y485817D01*
X341744Y485768D01*
X341821Y485716D01*
X341829Y485715D01*
X341835Y485711D01*
X342013Y485679D01*
X345757Y485679D01*
X348865Y482570D01*
X348865Y478174D01*
X345757Y475065D01*
X341360Y475065D01*
X338252Y478174D01*
X338252Y482552D01*
X338250Y482559D01*
X338251Y482567D01*
X338231Y482657D01*
X338212Y482748D01*
X338208Y482755D01*
X338206Y482762D01*
X338103Y482910D01*
X300989Y520024D01*
X300989Y558452D01*
X300988Y558460D01*
X300989Y558467D01*
X300968Y558557D01*
X300950Y558648D01*
X300945Y558655D01*
X300943Y558662D01*
X300841Y558810D01*
X297969Y561682D01*
X297969Y566078D01*
X298715Y566823D01*
X298716Y566826D01*
X298718Y566827D01*
X298770Y566907D01*
X298825Y566990D01*
X298826Y566993D01*
X298827Y566995D01*
X298844Y567089D01*
X298863Y567187D01*
X298863Y567190D01*
X298863Y567192D01*
X298842Y567289D01*
X298821Y567383D01*
X298820Y567385D01*
X298819Y567388D01*
X298763Y567468D01*
X298707Y567548D01*
X298705Y567549D01*
X298703Y567551D01*
X298620Y567603D01*
X298538Y567655D01*
X298535Y567656D01*
X298533Y567657D01*
X298356Y567689D01*
X282517Y567689D01*
X281029Y569177D01*
X249109Y601097D01*
X249103Y601101D01*
X249098Y601107D01*
X249020Y601156D01*
X248942Y601208D01*
X248935Y601209D01*
X248928Y601213D01*
X248751Y601245D01*
X244690Y601245D01*
X241581Y604354D01*
X241581Y608750D01*
X244690Y611859D01*
X249086Y611859D01*
X251101Y609844D01*
X251106Y609841D01*
X251109Y609836D01*
X251189Y609785D01*
X251268Y609733D01*
X251273Y609732D01*
X251278Y609729D01*
X251372Y609713D01*
X251465Y609695D01*
X251470Y609696D01*
X251476Y609695D01*
X251568Y609717D01*
X251661Y609737D01*
X251666Y609740D01*
X251671Y609741D01*
X251819Y609844D01*
X253834Y611859D01*
X258230Y611859D01*
X261339Y608750D01*
X261339Y604354D01*
X259474Y602489D01*
X259471Y602485D01*
X259467Y602482D01*
X259416Y602401D01*
X259363Y602322D01*
X259362Y602317D01*
X259359Y602313D01*
X259343Y602219D01*
X259326Y602125D01*
X259327Y602120D01*
X259326Y602115D01*
X259347Y602023D01*
X259367Y601929D01*
X259370Y601925D01*
X259371Y601920D01*
X259474Y601772D01*
X265099Y596147D01*
X265102Y596145D01*
X265103Y596143D01*
X265184Y596090D01*
X265266Y596036D01*
X265269Y596035D01*
X265271Y596034D01*
X265367Y596016D01*
X265463Y595998D01*
X265466Y595999D01*
X265468Y595998D01*
X265565Y596020D01*
X265659Y596040D01*
X265661Y596041D01*
X265664Y596042D01*
X265744Y596098D01*
X265824Y596154D01*
X265825Y596156D01*
X265827Y596158D01*
X265879Y596240D01*
X265931Y596323D01*
X265932Y596326D01*
X265933Y596328D01*
X265965Y596505D01*
X265965Y598082D01*
X269074Y601191D01*
X273470Y601191D01*
X276342Y598319D01*
X276348Y598315D01*
X276353Y598309D01*
X276431Y598260D01*
X276509Y598208D01*
X276516Y598207D01*
X276523Y598203D01*
X276700Y598171D01*
X346315Y598171D01*
X346322Y598172D01*
X346330Y598171D01*
X346420Y598192D01*
X346511Y598210D01*
X346518Y598215D01*
X346525Y598217D01*
X346673Y598319D01*
X351097Y602743D01*
X351862Y602743D01*
X351868Y602744D01*
X351875Y602743D01*
X351966Y602764D01*
X352058Y602782D01*
X352064Y602786D01*
X352070Y602787D01*
X352147Y602842D01*
X352224Y602895D01*
X352228Y602900D01*
X352233Y602904D01*
X352330Y603056D01*
X352668Y603871D01*
X354705Y605908D01*
X355456Y606219D01*
X355457Y606219D01*
X356681Y606726D01*
X357365Y607010D01*
X360246Y607010D01*
X362946Y605891D01*
X362965Y605880D01*
X363042Y605828D01*
X363049Y605827D01*
X363056Y605823D01*
X363233Y605791D01*
X364603Y605791D01*
X364610Y605792D01*
X364618Y605791D01*
X364708Y605812D01*
X364799Y605830D01*
X364806Y605835D01*
X364813Y605837D01*
X364961Y605939D01*
X373957Y614935D01*
X420047Y614935D01*
X421535Y613447D01*
X441263Y593719D01*
X441269Y593715D01*
X441274Y593709D01*
X441352Y593660D01*
X441430Y593608D01*
X441437Y593607D01*
X441444Y593603D01*
X441621Y593571D01*
X445682Y593571D01*
X448791Y590462D01*
X448791Y586066D01*
X445682Y582957D01*
X441286Y582957D01*
X438177Y586066D01*
X438177Y590127D01*
X438176Y590134D01*
X438177Y590142D01*
X438156Y590232D01*
X438138Y590323D01*
X438133Y590330D01*
X438131Y590337D01*
X438029Y590485D01*
X418301Y610213D01*
X418295Y610217D01*
X418290Y610223D01*
X418212Y610272D01*
X418134Y610324D01*
X418127Y610325D01*
X418120Y610329D01*
X417943Y610361D01*
X376061Y610361D01*
X376054Y610360D01*
X376046Y610361D01*
X375956Y610340D01*
X375865Y610322D01*
X375858Y610317D01*
X375851Y610315D01*
X375703Y610213D01*
X366707Y601217D01*
X366552Y601217D01*
X366547Y601216D01*
X366542Y601217D01*
X366449Y601196D01*
X366356Y601178D01*
X366352Y601175D01*
X366346Y601174D01*
X366269Y601118D01*
X366190Y601065D01*
X366187Y601061D01*
X366183Y601058D01*
X366132Y600976D01*
X366081Y600897D01*
X366080Y600892D01*
X366077Y600887D01*
X366045Y600710D01*
X366045Y598330D01*
X364943Y595669D01*
X362906Y593632D01*
X362487Y593459D01*
X361262Y592951D01*
X360246Y592530D01*
X357365Y592530D01*
X354705Y593632D01*
X352668Y595669D01*
X352321Y596507D01*
X352319Y596510D01*
X352318Y596514D01*
X352263Y596594D01*
X352209Y596673D01*
X352206Y596676D01*
X352204Y596679D01*
X352122Y596731D01*
X352042Y596784D01*
X352038Y596784D01*
X352034Y596786D01*
X351939Y596802D01*
X351844Y596820D01*
X351841Y596819D01*
X351837Y596820D01*
X351743Y596798D01*
X351649Y596778D01*
X351645Y596775D01*
X351642Y596774D01*
X351494Y596672D01*
X348419Y593597D01*
X276700Y593597D01*
X276692Y593596D01*
X276685Y593597D01*
X276595Y593576D01*
X276504Y593558D01*
X276497Y593553D01*
X276490Y593551D01*
X276342Y593449D01*
X273470Y590577D01*
X271893Y590577D01*
X271891Y590577D01*
X271888Y590577D01*
X271793Y590557D01*
X271697Y590538D01*
X271695Y590536D01*
X271692Y590536D01*
X271612Y590480D01*
X271531Y590425D01*
X271530Y590423D01*
X271527Y590421D01*
X271474Y590337D01*
X271422Y590257D01*
X271421Y590254D01*
X271420Y590252D01*
X271403Y590156D01*
X271386Y590060D01*
X271387Y590057D01*
X271386Y590055D01*
X271409Y589958D01*
X271430Y589864D01*
X271431Y589862D01*
X271432Y589859D01*
X271535Y589711D01*
X272071Y589175D01*
X272077Y589171D01*
X272082Y589165D01*
X272161Y589116D01*
X272238Y589064D01*
X272245Y589063D01*
X272252Y589059D01*
X272429Y589027D01*
X392035Y589027D01*
X392042Y589028D01*
X392050Y589027D01*
X392140Y589048D01*
X392231Y589066D01*
X392238Y589071D01*
X392245Y589073D01*
X392393Y589175D01*
X401417Y598199D01*
X401422Y598206D01*
X401428Y598210D01*
X401477Y598289D01*
X401528Y598366D01*
X401530Y598374D01*
X401534Y598380D01*
X401566Y598558D01*
X401566Y601210D01*
X402668Y603871D01*
X404705Y605908D01*
X405456Y606219D01*
X405457Y606219D01*
X406681Y606726D01*
X407365Y607010D01*
X410246Y607010D01*
X412906Y605908D01*
X414943Y603871D01*
X416045Y601210D01*
X416045Y598330D01*
X414943Y595669D01*
X413620Y594346D01*
X413617Y594342D01*
X413613Y594339D01*
X413562Y594259D01*
X413509Y594179D01*
X413508Y594174D01*
X413505Y594170D01*
X413489Y594076D01*
X413472Y593982D01*
X413473Y593977D01*
X413472Y593972D01*
X413493Y593879D01*
X413513Y593786D01*
X413516Y593782D01*
X413517Y593777D01*
X413620Y593629D01*
X416787Y590462D01*
X416787Y586066D01*
X413678Y582957D01*
X410673Y582957D01*
X410665Y582956D01*
X410658Y582957D01*
X410568Y582936D01*
X410477Y582918D01*
X410470Y582913D01*
X410462Y582911D01*
X410314Y582809D01*
X407022Y579516D01*
X405534Y578028D01*
X398638Y578028D01*
X398631Y578027D01*
X398623Y578028D01*
X398533Y578007D01*
X398442Y577989D01*
X398435Y577984D01*
X398428Y577982D01*
X398280Y577880D01*
X395408Y575008D01*
X391012Y575008D01*
X387903Y578117D01*
X387903Y582513D01*
X388978Y583587D01*
X388979Y583590D01*
X388981Y583591D01*
X389033Y583671D01*
X389089Y583754D01*
X389089Y583757D01*
X389091Y583759D01*
X389108Y583855D01*
X389126Y583951D01*
X389126Y583954D01*
X389126Y583956D01*
X389105Y584053D01*
X389085Y584147D01*
X389083Y584149D01*
X389083Y584152D01*
X389026Y584232D01*
X388970Y584312D01*
X388968Y584313D01*
X388967Y584315D01*
X388883Y584368D01*
X388801Y584419D01*
X388799Y584420D01*
X388796Y584421D01*
X388619Y584453D01*
X273445Y584453D01*
X273443Y584453D01*
X273440Y584453D01*
X273345Y584433D01*
X273249Y584414D01*
X273247Y584412D01*
X273244Y584412D01*
X273163Y584356D01*
X273083Y584301D01*
X273082Y584299D01*
X273079Y584297D01*
X273026Y584214D01*
X272974Y584133D01*
X272973Y584130D01*
X272972Y584128D01*
X272955Y584032D01*
X272938Y583936D01*
X272939Y583933D01*
X272938Y583931D01*
X272960Y583837D01*
X272982Y583740D01*
X272983Y583738D01*
X272984Y583735D01*
X273087Y583587D01*
X284263Y572411D01*
X284269Y572407D01*
X284274Y572401D01*
X284352Y572352D01*
X284430Y572300D01*
X284437Y572299D01*
X284444Y572295D01*
X284621Y572263D01*
X311843Y572263D01*
X364159Y519947D01*
X364162Y519945D01*
X364163Y519943D01*
X364244Y519890D01*
X364326Y519836D01*
X364329Y519835D01*
X364331Y519834D01*
X364427Y519816D01*
X364523Y519798D01*
X364526Y519799D01*
X364528Y519798D01*
X364625Y519820D01*
X364719Y519840D01*
X364721Y519841D01*
X364724Y519842D01*
X364804Y519898D01*
X364884Y519954D01*
X364885Y519956D01*
X364887Y519958D01*
X364939Y520040D01*
X364991Y520123D01*
X364992Y520126D01*
X364993Y520128D01*
X365025Y520305D01*
X365025Y521882D01*
X367897Y524754D01*
X367901Y524760D01*
X367907Y524765D01*
X367956Y524843D01*
X368008Y524920D01*
X368009Y524928D01*
X368013Y524935D01*
X368045Y525112D01*
X368045Y546539D01*
X376710Y555204D01*
X376715Y555211D01*
X376721Y555215D01*
X376770Y555294D01*
X376821Y555371D01*
X376823Y555379D01*
X376827Y555386D01*
X376859Y555563D01*
X376859Y558450D01*
X377961Y561111D01*
X379998Y563148D01*
X381114Y563610D01*
X382339Y564117D01*
X382659Y564250D01*
X385539Y564250D01*
X388200Y563148D01*
X390236Y561111D01*
X391338Y558450D01*
X391338Y555570D01*
X390236Y552909D01*
X388200Y550872D01*
X388145Y550850D01*
X388144Y550850D01*
X386920Y550342D01*
X385695Y549835D01*
X385539Y549770D01*
X382659Y549770D01*
X379998Y550872D01*
X379781Y551089D01*
X379776Y551092D01*
X379773Y551097D01*
X379692Y551148D01*
X379614Y551200D01*
X379609Y551201D01*
X379604Y551204D01*
X379510Y551220D01*
X379417Y551238D01*
X379412Y551237D01*
X379407Y551238D01*
X379314Y551216D01*
X379221Y551196D01*
X379217Y551193D01*
X379211Y551192D01*
X379063Y551089D01*
X372767Y544793D01*
X372763Y544787D01*
X372757Y544782D01*
X372708Y544704D01*
X372656Y544626D01*
X372655Y544619D01*
X372651Y544612D01*
X372619Y544435D01*
X372619Y525112D01*
X372620Y525104D01*
X372619Y525097D01*
X372640Y525007D01*
X372658Y524916D01*
X372663Y524909D01*
X372665Y524902D01*
X372767Y524754D01*
X375639Y521882D01*
X375639Y517486D01*
X372530Y514377D01*
X370953Y514377D01*
X370951Y514377D01*
X370948Y514377D01*
X370853Y514357D01*
X370757Y514338D01*
X370755Y514336D01*
X370752Y514336D01*
X370671Y514280D01*
X370591Y514225D01*
X370590Y514223D01*
X370587Y514221D01*
X370534Y514138D01*
X370482Y514057D01*
X370481Y514054D01*
X370480Y514052D01*
X370463Y513956D01*
X370446Y513860D01*
X370447Y513857D01*
X370446Y513855D01*
X370468Y513761D01*
X370490Y513664D01*
X370491Y513662D01*
X370492Y513659D01*
X370595Y513511D01*
X381799Y502307D01*
X381805Y502303D01*
X381810Y502297D01*
X381888Y502248D01*
X381966Y502196D01*
X381973Y502195D01*
X381980Y502191D01*
X382157Y502159D01*
X494723Y502159D01*
X506731Y490151D01*
X506731Y479392D01*
X506732Y479384D01*
X506731Y479377D01*
X506752Y479287D01*
X506770Y479196D01*
X506775Y479189D01*
X506777Y479182D01*
X506879Y479034D01*
X509751Y476162D01*
X509751Y471766D01*
X506642Y468657D01*
X502246Y468657D01*
X499137Y471766D01*
X499137Y476162D01*
X502009Y479034D01*
X502013Y479040D01*
X502019Y479045D01*
X502068Y479123D01*
X502120Y479201D01*
X502121Y479208D01*
X502125Y479215D01*
X502157Y479392D01*
X502157Y488047D01*
X502156Y488054D01*
X502157Y488062D01*
X502136Y488152D01*
X502118Y488243D01*
X502113Y488250D01*
X502111Y488257D01*
X502009Y488405D01*
X498425Y491989D01*
X498422Y491991D01*
X498421Y491993D01*
X498340Y492046D01*
X498258Y492100D01*
X498255Y492101D01*
X498253Y492102D01*
X498157Y492120D01*
X498061Y492138D01*
X498058Y492137D01*
X498056Y492138D01*
X497959Y492116D01*
X497865Y492096D01*
X497863Y492095D01*
X497860Y492094D01*
X497780Y492038D01*
X497700Y491982D01*
X497699Y491980D01*
X497697Y491978D01*
X497645Y491896D01*
X497593Y491813D01*
X497592Y491810D01*
X497591Y491808D01*
X497559Y491631D01*
X497559Y490054D01*
X494687Y487182D01*
X494683Y487176D01*
X494677Y487171D01*
X494628Y487093D01*
X494576Y487015D01*
X494575Y487008D01*
X494571Y487001D01*
X494539Y486824D01*
X494539Y397446D01*
X463023Y365931D01*
X463019Y365924D01*
X463012Y365920D01*
X462964Y365841D01*
X462912Y365764D01*
X462911Y365756D01*
X462907Y365749D01*
X462875Y365572D01*
X462875Y361511D01*
X459766Y358403D01*
X455370Y358403D01*
X452261Y361511D01*
X452261Y365908D01*
X455370Y369016D01*
X459431Y369016D01*
X459438Y369018D01*
X459446Y369016D01*
X459536Y369037D01*
X459627Y369056D01*
X459634Y369060D01*
X459641Y369062D01*
X459789Y369165D01*
X489817Y399192D01*
X489821Y399199D01*
X489827Y399203D01*
X489876Y399282D01*
X489928Y399359D01*
X489929Y399367D01*
X489933Y399374D01*
X489965Y399551D01*
X489965Y486824D01*
X489964Y486832D01*
X489965Y486839D01*
X489944Y486929D01*
X489926Y487020D01*
X489921Y487027D01*
X489919Y487034D01*
X489817Y487182D01*
X486945Y490054D01*
X486945Y494450D01*
X489215Y496719D01*
X489216Y496722D01*
X489218Y496723D01*
X489271Y496804D01*
X489325Y496886D01*
X489326Y496889D01*
X489327Y496891D01*
X489345Y496987D01*
X489363Y497083D01*
X489363Y497086D01*
X489363Y497088D01*
X489342Y497185D01*
X489321Y497279D01*
X489320Y497281D01*
X489319Y497284D01*
X489263Y497364D01*
X489207Y497444D01*
X489205Y497445D01*
X489203Y497447D01*
X489121Y497499D01*
X489038Y497551D01*
X489035Y497552D01*
X489033Y497553D01*
X488856Y497585D01*
X483456Y497585D01*
X483454Y497585D01*
X483451Y497585D01*
X483356Y497565D01*
X483260Y497546D01*
X483257Y497544D01*
X483255Y497544D01*
X483174Y497488D01*
X483094Y497433D01*
X483092Y497431D01*
X483090Y497429D01*
X483037Y497346D01*
X482985Y497265D01*
X482984Y497262D01*
X482983Y497260D01*
X482966Y497164D01*
X482949Y497068D01*
X482950Y497065D01*
X482949Y497063D01*
X482971Y496968D01*
X482993Y496872D01*
X482994Y496870D01*
X482995Y496867D01*
X483097Y496719D01*
X483843Y495974D01*
X483843Y491578D01*
X480971Y488706D01*
X480967Y488700D01*
X480961Y488695D01*
X480912Y488617D01*
X480860Y488539D01*
X480859Y488532D01*
X480855Y488525D01*
X480823Y488348D01*
X480823Y428821D01*
X399133Y347132D01*
X399129Y347125D01*
X399123Y347120D01*
X399074Y347042D01*
X399023Y346965D01*
X399021Y346957D01*
X399017Y346950D01*
X398985Y346773D01*
X398985Y340307D01*
X394554Y335876D01*
X388287Y335876D01*
G37*
%LPD*%
%LPC*%
G36*
X333412Y337235D02*
X333412Y337235D01*
X328981Y341666D01*
X328981Y347933D01*
X329162Y348114D01*
X329165Y348119D01*
X329170Y348122D01*
X329221Y348202D01*
X329273Y348281D01*
X329274Y348286D01*
X329277Y348291D01*
X329293Y348385D01*
X329311Y348478D01*
X329310Y348483D01*
X329311Y348489D01*
X329289Y348581D01*
X329269Y348674D01*
X329266Y348679D01*
X329265Y348684D01*
X329162Y348832D01*
X322325Y355669D01*
X322325Y395083D01*
X322324Y395090D01*
X322325Y395098D01*
X322304Y395188D01*
X322286Y395279D01*
X322281Y395286D01*
X322279Y395293D01*
X322177Y395441D01*
X304001Y413617D01*
X303995Y413621D01*
X303990Y413627D01*
X303912Y413676D01*
X303834Y413728D01*
X303827Y413729D01*
X303820Y413733D01*
X303643Y413765D01*
X230701Y413765D01*
X229213Y415253D01*
X179178Y465288D01*
X179175Y465290D01*
X179172Y465294D01*
X179091Y465346D01*
X179011Y465399D01*
X179007Y465400D01*
X179004Y465402D01*
X178908Y465419D01*
X178814Y465437D01*
X178810Y465436D01*
X178806Y465437D01*
X178712Y465415D01*
X178618Y465395D01*
X178615Y465393D01*
X178611Y465392D01*
X178532Y465336D01*
X178453Y465281D01*
X178451Y465278D01*
X178448Y465275D01*
X178351Y465124D01*
X178024Y464336D01*
X175988Y462299D01*
X175460Y462081D01*
X174235Y461574D01*
X173327Y461197D01*
X170447Y461197D01*
X167786Y462299D01*
X165749Y464336D01*
X164647Y466997D01*
X164647Y469877D01*
X165749Y472538D01*
X167786Y474575D01*
X168430Y474841D01*
X169654Y475349D01*
X170447Y475677D01*
X173327Y475677D01*
X175988Y474575D01*
X178024Y472538D01*
X178882Y470468D01*
X178885Y470462D01*
X178887Y470456D01*
X178941Y470379D01*
X178994Y470301D01*
X178999Y470298D01*
X179003Y470293D01*
X179083Y470243D01*
X179161Y470191D01*
X179168Y470190D01*
X179173Y470187D01*
X179350Y470155D01*
X180779Y470155D01*
X232447Y418487D01*
X232453Y418483D01*
X232458Y418477D01*
X232536Y418428D01*
X232614Y418376D01*
X232621Y418375D01*
X232628Y418371D01*
X232805Y418339D01*
X305747Y418339D01*
X326899Y397187D01*
X326899Y357773D01*
X326900Y357766D01*
X326899Y357758D01*
X326920Y357668D01*
X326938Y357577D01*
X326943Y357570D01*
X326945Y357563D01*
X327047Y357415D01*
X332396Y352066D01*
X332401Y352063D01*
X332404Y352058D01*
X332484Y352008D01*
X332563Y351955D01*
X332568Y351954D01*
X332573Y351951D01*
X332667Y351935D01*
X332760Y351917D01*
X332765Y351918D01*
X332770Y351917D01*
X332863Y351939D01*
X332956Y351959D01*
X332961Y351962D01*
X332966Y351963D01*
X333114Y352066D01*
X333412Y352364D01*
X339679Y352364D01*
X344111Y347933D01*
X344111Y341666D01*
X339679Y337235D01*
X333412Y337235D01*
G37*
%LPD*%
%LPC*%
G36*
X505294Y86133D02*
X505294Y86133D01*
X502185Y89242D01*
X502185Y93638D01*
X505294Y96747D01*
X509690Y96747D01*
X510793Y95644D01*
X510797Y95641D01*
X510800Y95637D01*
X510880Y95586D01*
X510960Y95533D01*
X510965Y95532D01*
X510969Y95529D01*
X511063Y95513D01*
X511157Y95496D01*
X511162Y95497D01*
X511167Y95496D01*
X511259Y95517D01*
X511353Y95537D01*
X511357Y95540D01*
X511362Y95541D01*
X511510Y95644D01*
X515753Y99887D01*
X515757Y99893D01*
X515763Y99898D01*
X515812Y99976D01*
X515864Y100054D01*
X515865Y100061D01*
X515869Y100068D01*
X515901Y100245D01*
X515901Y103971D01*
X515900Y103978D01*
X515901Y103986D01*
X515880Y104076D01*
X515862Y104167D01*
X515857Y104174D01*
X515855Y104181D01*
X515753Y104329D01*
X476249Y143833D01*
X476249Y189343D01*
X476248Y189350D01*
X476249Y189358D01*
X476228Y189448D01*
X476210Y189539D01*
X476205Y189546D01*
X476203Y189553D01*
X476101Y189701D01*
X399985Y265817D01*
X399979Y265821D01*
X399974Y265827D01*
X399896Y265876D01*
X399818Y265928D01*
X399811Y265929D01*
X399804Y265933D01*
X399627Y265965D01*
X398614Y265965D01*
X395505Y269074D01*
X395505Y273470D01*
X398614Y276579D01*
X403010Y276579D01*
X406119Y273470D01*
X406119Y269074D01*
X405016Y267971D01*
X405013Y267967D01*
X405009Y267964D01*
X404958Y267883D01*
X404905Y267804D01*
X404904Y267799D01*
X404901Y267795D01*
X404885Y267701D01*
X404868Y267607D01*
X404869Y267602D01*
X404868Y267597D01*
X404889Y267505D01*
X404909Y267411D01*
X404912Y267407D01*
X404913Y267402D01*
X405016Y267254D01*
X480823Y191447D01*
X480823Y145937D01*
X480824Y145930D01*
X480823Y145922D01*
X480844Y145832D01*
X480862Y145741D01*
X480867Y145734D01*
X480869Y145727D01*
X480971Y145579D01*
X518987Y107563D01*
X518993Y107559D01*
X518998Y107553D01*
X519076Y107504D01*
X519154Y107452D01*
X519161Y107451D01*
X519168Y107447D01*
X519345Y107415D01*
X523406Y107415D01*
X526515Y104306D01*
X526515Y99910D01*
X523406Y96801D01*
X519345Y96801D01*
X519338Y96800D01*
X519330Y96801D01*
X519240Y96780D01*
X519149Y96762D01*
X519142Y96757D01*
X519135Y96755D01*
X518987Y96653D01*
X512947Y90613D01*
X512943Y90607D01*
X512937Y90602D01*
X512888Y90524D01*
X512836Y90446D01*
X512835Y90439D01*
X512831Y90432D01*
X512799Y90255D01*
X512799Y89242D01*
X509690Y86133D01*
X505294Y86133D01*
G37*
%LPD*%
%LPC*%
G36*
X104027Y419679D02*
X104027Y419679D01*
X100013Y421342D01*
X96940Y424415D01*
X95277Y428429D01*
X95277Y451571D01*
X96940Y455585D01*
X100013Y458658D01*
X101120Y459117D01*
X102345Y459624D01*
X103569Y460131D01*
X103570Y460131D01*
X104027Y460321D01*
X108373Y460321D01*
X112387Y458658D01*
X115460Y455585D01*
X117123Y451571D01*
X117123Y428429D01*
X115460Y424415D01*
X112387Y421342D01*
X111546Y420994D01*
X110321Y420486D01*
X109097Y419979D01*
X108373Y419679D01*
X104027Y419679D01*
G37*
%LPD*%
%LPC*%
G36*
X129427Y419679D02*
X129427Y419679D01*
X125413Y421342D01*
X122340Y424415D01*
X120677Y428429D01*
X120677Y451571D01*
X122340Y455585D01*
X125413Y458658D01*
X126520Y459117D01*
X127745Y459624D01*
X128969Y460131D01*
X128970Y460131D01*
X129427Y460321D01*
X133773Y460321D01*
X137787Y458658D01*
X140860Y455585D01*
X142523Y451571D01*
X142523Y428429D01*
X140860Y424415D01*
X137787Y421342D01*
X136946Y420994D01*
X135721Y420486D01*
X134497Y419979D01*
X133773Y419679D01*
X129427Y419679D01*
G37*
%LPD*%
%LPC*%
G36*
X53227Y419679D02*
X53227Y419679D01*
X49213Y421342D01*
X46140Y424415D01*
X44477Y428429D01*
X44477Y451571D01*
X46140Y455585D01*
X49213Y458658D01*
X50320Y459117D01*
X51545Y459624D01*
X52769Y460131D01*
X52770Y460131D01*
X53227Y460321D01*
X57573Y460321D01*
X61587Y458658D01*
X64660Y455585D01*
X66323Y451571D01*
X66323Y428429D01*
X64660Y424415D01*
X61587Y421342D01*
X60746Y420994D01*
X59521Y420486D01*
X58297Y419979D01*
X57573Y419679D01*
X53227Y419679D01*
G37*
%LPD*%
%LPC*%
G36*
X27827Y419679D02*
X27827Y419679D01*
X23813Y421342D01*
X20740Y424415D01*
X19077Y428429D01*
X19077Y451571D01*
X20740Y455585D01*
X23813Y458658D01*
X24920Y459117D01*
X26145Y459624D01*
X27369Y460131D01*
X27370Y460131D01*
X27827Y460321D01*
X32173Y460321D01*
X36187Y458658D01*
X39260Y455585D01*
X40923Y451571D01*
X40923Y428429D01*
X39260Y424415D01*
X36187Y421342D01*
X35346Y420994D01*
X34121Y420486D01*
X32897Y419979D01*
X32173Y419679D01*
X27827Y419679D01*
G37*
%LPD*%
%LPC*%
G36*
X748627Y79679D02*
X748627Y79679D01*
X744613Y81342D01*
X741540Y84415D01*
X739877Y88429D01*
X739877Y111571D01*
X741540Y115585D01*
X744613Y118658D01*
X744840Y118752D01*
X746064Y119259D01*
X747289Y119766D01*
X748513Y120274D01*
X748514Y120274D01*
X748627Y120321D01*
X752973Y120321D01*
X756987Y118658D01*
X760060Y115585D01*
X761723Y111571D01*
X761723Y88429D01*
X760060Y84415D01*
X756987Y81342D01*
X756490Y81136D01*
X755265Y80629D01*
X754041Y80122D01*
X752973Y79679D01*
X748627Y79679D01*
G37*
%LPD*%
%LPC*%
G36*
X774027Y79679D02*
X774027Y79679D01*
X770013Y81342D01*
X766940Y84415D01*
X765277Y88429D01*
X765277Y111571D01*
X766940Y115585D01*
X770013Y118658D01*
X770240Y118752D01*
X771464Y119259D01*
X772689Y119766D01*
X773913Y120274D01*
X773914Y120274D01*
X774027Y120321D01*
X778373Y120321D01*
X782387Y118658D01*
X785460Y115585D01*
X787123Y111571D01*
X787123Y88429D01*
X785460Y84415D01*
X782387Y81342D01*
X781890Y81136D01*
X780665Y80629D01*
X779441Y80122D01*
X778373Y79679D01*
X774027Y79679D01*
G37*
%LPD*%
%LPC*%
G36*
X799427Y79679D02*
X799427Y79679D01*
X795413Y81342D01*
X792340Y84415D01*
X790677Y88429D01*
X790677Y111571D01*
X792340Y115585D01*
X795413Y118658D01*
X795640Y118752D01*
X796864Y119259D01*
X798089Y119766D01*
X799313Y120274D01*
X799314Y120274D01*
X799427Y120321D01*
X803773Y120321D01*
X807787Y118658D01*
X810860Y115585D01*
X812523Y111571D01*
X812523Y88429D01*
X810860Y84415D01*
X807787Y81342D01*
X807290Y81136D01*
X806065Y80629D01*
X804841Y80122D01*
X803773Y79679D01*
X799427Y79679D01*
G37*
%LPD*%
%LPC*%
G36*
X723227Y79679D02*
X723227Y79679D01*
X719213Y81342D01*
X716140Y84415D01*
X714477Y88429D01*
X714477Y111571D01*
X716140Y115585D01*
X719213Y118658D01*
X719440Y118752D01*
X720664Y119259D01*
X721889Y119766D01*
X723113Y120274D01*
X723114Y120274D01*
X723227Y120321D01*
X727573Y120321D01*
X731587Y118658D01*
X734660Y115585D01*
X736323Y111571D01*
X736323Y88429D01*
X734660Y84415D01*
X731587Y81342D01*
X731090Y81136D01*
X729865Y80629D01*
X728641Y80122D01*
X727573Y79679D01*
X723227Y79679D01*
G37*
%LPD*%
%LPC*%
G36*
X398373Y30362D02*
X398373Y30362D01*
X397480Y31255D01*
X397480Y46018D01*
X398373Y46912D01*
X413136Y46912D01*
X414029Y46018D01*
X414029Y42418D01*
X414030Y42413D01*
X414029Y42408D01*
X414050Y42315D01*
X414069Y42221D01*
X414072Y42217D01*
X414073Y42212D01*
X414128Y42134D01*
X414181Y42056D01*
X414186Y42053D01*
X414189Y42049D01*
X414270Y41998D01*
X414349Y41946D01*
X414355Y41946D01*
X414359Y41943D01*
X414536Y41911D01*
X416419Y41911D01*
X416426Y41912D01*
X416434Y41911D01*
X416524Y41932D01*
X416615Y41950D01*
X416622Y41955D01*
X416629Y41957D01*
X416777Y42059D01*
X431933Y57215D01*
X431937Y57221D01*
X431943Y57226D01*
X431992Y57304D01*
X432044Y57382D01*
X432045Y57389D01*
X432049Y57396D01*
X432081Y57573D01*
X432081Y61634D01*
X435190Y64743D01*
X439586Y64743D01*
X442695Y61634D01*
X442695Y57238D01*
X439586Y54129D01*
X435525Y54129D01*
X435518Y54128D01*
X435510Y54129D01*
X435420Y54108D01*
X435329Y54090D01*
X435322Y54085D01*
X435315Y54083D01*
X435167Y53981D01*
X418523Y37337D01*
X414536Y37337D01*
X414531Y37336D01*
X414526Y37337D01*
X414433Y37316D01*
X414340Y37298D01*
X414335Y37295D01*
X414330Y37294D01*
X414253Y37238D01*
X414174Y37185D01*
X414171Y37181D01*
X414167Y37178D01*
X414116Y37096D01*
X414065Y37017D01*
X414064Y37012D01*
X414061Y37007D01*
X414029Y36830D01*
X414029Y31255D01*
X413136Y30362D01*
X398373Y30362D01*
G37*
%LPD*%
%LPC*%
G36*
X266026Y525045D02*
X266026Y525045D01*
X262917Y528154D01*
X262917Y532215D01*
X262916Y532222D01*
X262917Y532230D01*
X262896Y532320D01*
X262878Y532411D01*
X262873Y532418D01*
X262871Y532425D01*
X262769Y532573D01*
X234904Y560438D01*
X234900Y560441D01*
X234897Y560445D01*
X234817Y560496D01*
X234737Y560549D01*
X234732Y560550D01*
X234728Y560553D01*
X234634Y560569D01*
X234540Y560586D01*
X234535Y560585D01*
X234530Y560586D01*
X234437Y560565D01*
X234344Y560545D01*
X234340Y560542D01*
X234335Y560541D01*
X234187Y560438D01*
X233846Y560097D01*
X229785Y560097D01*
X229778Y560096D01*
X229770Y560097D01*
X229680Y560076D01*
X229589Y560058D01*
X229582Y560053D01*
X229575Y560051D01*
X229427Y559949D01*
X227959Y558481D01*
X227955Y558475D01*
X227949Y558470D01*
X227900Y558392D01*
X227848Y558314D01*
X227847Y558307D01*
X227843Y558300D01*
X227811Y558123D01*
X227811Y554062D01*
X224702Y550953D01*
X220306Y550953D01*
X217197Y554062D01*
X217197Y558458D01*
X220306Y561567D01*
X224367Y561567D01*
X224374Y561568D01*
X224382Y561567D01*
X224472Y561588D01*
X224563Y561606D01*
X224570Y561611D01*
X224577Y561613D01*
X224725Y561715D01*
X226193Y563183D01*
X226197Y563189D01*
X226203Y563194D01*
X226252Y563272D01*
X226304Y563350D01*
X226305Y563357D01*
X226309Y563364D01*
X226341Y563541D01*
X226341Y567602D01*
X229450Y570711D01*
X233846Y570711D01*
X236955Y567602D01*
X236955Y565065D01*
X236956Y565058D01*
X236955Y565050D01*
X236976Y564960D01*
X236994Y564869D01*
X236999Y564862D01*
X237001Y564855D01*
X237103Y564707D01*
X266003Y535807D01*
X266009Y535803D01*
X266014Y535797D01*
X266092Y535748D01*
X266170Y535696D01*
X266177Y535695D01*
X266184Y535691D01*
X266361Y535659D01*
X270422Y535659D01*
X273531Y532550D01*
X273531Y528154D01*
X270422Y525045D01*
X266026Y525045D01*
G37*
%LPD*%
%LPC*%
G36*
X363562Y211101D02*
X363562Y211101D01*
X360453Y214210D01*
X360453Y218271D01*
X360452Y218278D01*
X360453Y218286D01*
X360432Y218376D01*
X360414Y218467D01*
X360409Y218474D01*
X360407Y218481D01*
X360305Y218629D01*
X357341Y221593D01*
X357335Y221597D01*
X357330Y221603D01*
X357252Y221652D01*
X357174Y221704D01*
X357167Y221705D01*
X357160Y221709D01*
X356983Y221741D01*
X351313Y221741D01*
X351276Y221734D01*
X351239Y221736D01*
X351169Y221712D01*
X351117Y221702D01*
X351096Y221688D01*
X351068Y221678D01*
X350869Y221568D01*
X350339Y221721D01*
X350283Y221726D01*
X350198Y221741D01*
X349646Y221741D01*
X349485Y221902D01*
X349454Y221923D01*
X349429Y221951D01*
X349363Y221984D01*
X349318Y222013D01*
X349294Y222018D01*
X349268Y222031D01*
X349049Y222094D01*
X348865Y222428D01*
X348814Y222488D01*
X348768Y222552D01*
X348749Y222564D01*
X348735Y222581D01*
X348665Y222617D01*
X348598Y222658D01*
X348575Y222662D01*
X348556Y222672D01*
X348501Y222676D01*
X348421Y222690D01*
X339387Y222690D01*
X338493Y223583D01*
X338493Y238346D01*
X339387Y239240D01*
X354150Y239240D01*
X355043Y238346D01*
X355043Y226822D01*
X355044Y226817D01*
X355043Y226812D01*
X355064Y226719D01*
X355082Y226625D01*
X355085Y226621D01*
X355087Y226616D01*
X355142Y226538D01*
X355195Y226460D01*
X355199Y226457D01*
X355203Y226453D01*
X355284Y226402D01*
X355363Y226350D01*
X355368Y226350D01*
X355373Y226347D01*
X355550Y226315D01*
X359087Y226315D01*
X363539Y221863D01*
X363545Y221859D01*
X363550Y221853D01*
X363628Y221804D01*
X363706Y221752D01*
X363713Y221751D01*
X363720Y221747D01*
X363897Y221715D01*
X367958Y221715D01*
X371067Y218606D01*
X371067Y214210D01*
X367958Y211101D01*
X363562Y211101D01*
G37*
%LPD*%
%LPC*%
G36*
X535774Y95277D02*
X535774Y95277D01*
X532665Y98386D01*
X532665Y102447D01*
X532664Y102454D01*
X532665Y102462D01*
X532644Y102552D01*
X532626Y102643D01*
X532621Y102650D01*
X532619Y102657D01*
X532517Y102805D01*
X526879Y108443D01*
X526872Y108447D01*
X526868Y108454D01*
X526789Y108503D01*
X526712Y108554D01*
X526704Y108555D01*
X526698Y108560D01*
X526520Y108592D01*
X520666Y108592D01*
X519773Y109485D01*
X519773Y124248D01*
X520666Y125141D01*
X535429Y125141D01*
X536322Y124248D01*
X536322Y109485D01*
X535429Y108592D01*
X534423Y108592D01*
X534420Y108591D01*
X534418Y108592D01*
X534323Y108571D01*
X534226Y108552D01*
X534224Y108551D01*
X534222Y108550D01*
X534141Y108494D01*
X534061Y108439D01*
X534059Y108437D01*
X534057Y108436D01*
X534004Y108352D01*
X533951Y108271D01*
X533951Y108269D01*
X533949Y108267D01*
X533933Y108170D01*
X533916Y108074D01*
X533916Y108071D01*
X533916Y108069D01*
X533938Y107975D01*
X533959Y107878D01*
X533961Y107876D01*
X533961Y107874D01*
X534064Y107726D01*
X535751Y106039D01*
X535757Y106035D01*
X535762Y106029D01*
X535840Y105980D01*
X535918Y105928D01*
X535925Y105927D01*
X535932Y105923D01*
X536109Y105891D01*
X540170Y105891D01*
X543279Y102782D01*
X543279Y98386D01*
X540170Y95277D01*
X535774Y95277D01*
G37*
%LPD*%
%LPC*%
G36*
X232498Y604293D02*
X232498Y604293D01*
X229389Y607402D01*
X229389Y611798D01*
X232498Y614907D01*
X236559Y614907D01*
X236566Y614908D01*
X236574Y614907D01*
X236664Y614928D01*
X236755Y614946D01*
X236762Y614951D01*
X236769Y614953D01*
X236917Y615055D01*
X264293Y642431D01*
X264297Y642437D01*
X264303Y642442D01*
X264352Y642520D01*
X264404Y642598D01*
X264405Y642605D01*
X264409Y642612D01*
X264441Y642789D01*
X264441Y646850D01*
X267550Y649959D01*
X271946Y649959D01*
X275055Y646850D01*
X275055Y642454D01*
X271946Y639345D01*
X267885Y639345D01*
X267878Y639344D01*
X267870Y639345D01*
X267780Y639324D01*
X267689Y639306D01*
X267682Y639301D01*
X267675Y639299D01*
X267527Y639197D01*
X240151Y611821D01*
X240147Y611815D01*
X240141Y611810D01*
X240092Y611732D01*
X240040Y611654D01*
X240039Y611647D01*
X240035Y611640D01*
X240003Y611463D01*
X240003Y607402D01*
X236894Y604293D01*
X232498Y604293D01*
G37*
%LPD*%
%LPC*%
G36*
X485482Y75465D02*
X485482Y75465D01*
X482373Y78574D01*
X482373Y82635D01*
X482372Y82642D01*
X482373Y82650D01*
X482352Y82740D01*
X482334Y82831D01*
X482329Y82838D01*
X482327Y82845D01*
X482225Y82993D01*
X459421Y105797D01*
X459415Y105801D01*
X459410Y105807D01*
X459332Y105856D01*
X459254Y105908D01*
X459247Y105909D01*
X459240Y105913D01*
X459063Y105945D01*
X455002Y105945D01*
X451893Y109054D01*
X451893Y113450D01*
X455002Y116559D01*
X459398Y116559D01*
X462507Y113450D01*
X462507Y109389D01*
X462508Y109382D01*
X462507Y109374D01*
X462528Y109284D01*
X462546Y109193D01*
X462551Y109186D01*
X462553Y109179D01*
X462655Y109031D01*
X485459Y86227D01*
X485465Y86223D01*
X485470Y86217D01*
X485548Y86168D01*
X485626Y86116D01*
X485633Y86115D01*
X485640Y86111D01*
X485817Y86079D01*
X489878Y86079D01*
X492987Y82970D01*
X492987Y78574D01*
X489878Y75465D01*
X485482Y75465D01*
G37*
%LPD*%
%LPC*%
G36*
X342481Y40202D02*
X342481Y40202D01*
X341588Y41095D01*
X341588Y55858D01*
X342481Y56751D01*
X357244Y56751D01*
X358137Y55858D01*
X358137Y41095D01*
X357244Y40202D01*
X342481Y40202D01*
G37*
%LPD*%
%LPC*%
G36*
X50014Y507448D02*
X50014Y507448D01*
X49120Y508341D01*
X49120Y523105D01*
X50014Y523998D01*
X64777Y523998D01*
X65670Y523105D01*
X65670Y508341D01*
X64777Y507448D01*
X50014Y507448D01*
G37*
%LPD*%
%LPC*%
G36*
X55749Y487448D02*
X55749Y487448D01*
X52708Y488708D01*
X50380Y491036D01*
X49120Y494077D01*
X49120Y497369D01*
X50380Y500410D01*
X52708Y502738D01*
X52713Y502740D01*
X53937Y503247D01*
X53938Y503247D01*
X55162Y503755D01*
X55749Y503998D01*
X59041Y503998D01*
X62082Y502738D01*
X64410Y500410D01*
X65670Y497369D01*
X65670Y494077D01*
X64410Y491036D01*
X62082Y488708D01*
X61479Y488458D01*
X61478Y488458D01*
X60254Y487951D01*
X59041Y487448D01*
X55749Y487448D01*
G37*
%LPD*%
%LPC*%
G36*
X538822Y400077D02*
X538822Y400077D01*
X535713Y403186D01*
X535713Y407247D01*
X535712Y407254D01*
X535713Y407262D01*
X535692Y407351D01*
X535674Y407443D01*
X535669Y407450D01*
X535667Y407457D01*
X535565Y407605D01*
X531049Y412121D01*
X531043Y412125D01*
X531038Y412131D01*
X530960Y412180D01*
X530882Y412232D01*
X530875Y412233D01*
X530868Y412237D01*
X530691Y412269D01*
X526630Y412269D01*
X523521Y415378D01*
X523521Y419774D01*
X526630Y422883D01*
X531026Y422883D01*
X534135Y419774D01*
X534135Y415713D01*
X534136Y415706D01*
X534135Y415698D01*
X534156Y415608D01*
X534174Y415517D01*
X534179Y415510D01*
X534181Y415503D01*
X534283Y415355D01*
X538799Y410839D01*
X538805Y410835D01*
X538810Y410829D01*
X538888Y410780D01*
X538966Y410728D01*
X538973Y410727D01*
X538980Y410723D01*
X539157Y410691D01*
X543218Y410691D01*
X546327Y407582D01*
X546327Y403186D01*
X543218Y400077D01*
X538822Y400077D01*
G37*
%LPD*%
%LPC*%
G36*
X500722Y395505D02*
X500722Y395505D01*
X497613Y398614D01*
X497613Y403010D01*
X500722Y406119D01*
X504783Y406119D01*
X504790Y406120D01*
X504798Y406119D01*
X504888Y406140D01*
X504979Y406158D01*
X504986Y406163D01*
X504993Y406165D01*
X505141Y406267D01*
X506609Y407735D01*
X506613Y407741D01*
X506619Y407746D01*
X506668Y407824D01*
X506720Y407902D01*
X506721Y407909D01*
X506725Y407916D01*
X506757Y408093D01*
X506757Y412154D01*
X509866Y415263D01*
X514262Y415263D01*
X517371Y412154D01*
X517371Y407758D01*
X514262Y404649D01*
X510201Y404649D01*
X510194Y404648D01*
X510186Y404649D01*
X510096Y404628D01*
X510005Y404610D01*
X509998Y404605D01*
X509991Y404603D01*
X509843Y404501D01*
X508375Y403033D01*
X508371Y403027D01*
X508365Y403022D01*
X508316Y402944D01*
X508264Y402866D01*
X508263Y402859D01*
X508259Y402852D01*
X508227Y402675D01*
X508227Y398614D01*
X505118Y395505D01*
X500722Y395505D01*
G37*
%LPD*%
%LPC*%
G36*
X509866Y386361D02*
X509866Y386361D01*
X506757Y389470D01*
X506757Y393866D01*
X509866Y396975D01*
X513927Y396975D01*
X513934Y396976D01*
X513942Y396975D01*
X514032Y396996D01*
X514123Y397014D01*
X514130Y397019D01*
X514137Y397021D01*
X514285Y397123D01*
X515753Y398591D01*
X515757Y398597D01*
X515763Y398602D01*
X515812Y398680D01*
X515864Y398758D01*
X515865Y398765D01*
X515869Y398772D01*
X515901Y398949D01*
X515901Y403010D01*
X519010Y406119D01*
X523406Y406119D01*
X526515Y403010D01*
X526515Y398614D01*
X523406Y395505D01*
X519345Y395505D01*
X519338Y395504D01*
X519330Y395505D01*
X519240Y395484D01*
X519149Y395466D01*
X519142Y395461D01*
X519135Y395459D01*
X518987Y395357D01*
X517519Y393889D01*
X517515Y393883D01*
X517509Y393878D01*
X517460Y393800D01*
X517408Y393722D01*
X517407Y393715D01*
X517403Y393708D01*
X517371Y393531D01*
X517371Y389470D01*
X514262Y386361D01*
X509866Y386361D01*
G37*
%LPD*%
%LPC*%
G36*
X388287Y361276D02*
X388287Y361276D01*
X383855Y365707D01*
X383855Y371974D01*
X388287Y376405D01*
X394554Y376405D01*
X398985Y371974D01*
X398985Y365707D01*
X394554Y361276D01*
X388287Y361276D01*
G37*
%LPD*%
%LPC*%
G36*
X333412Y362635D02*
X333412Y362635D01*
X328981Y367066D01*
X328981Y373333D01*
X333412Y377764D01*
X339679Y377764D01*
X344111Y373333D01*
X344111Y367066D01*
X339679Y362635D01*
X333412Y362635D01*
G37*
%LPD*%
%LPC*%
G36*
X220447Y461197D02*
X220447Y461197D01*
X217786Y462299D01*
X215749Y464336D01*
X214647Y466997D01*
X214647Y469877D01*
X215749Y472538D01*
X217786Y474575D01*
X218430Y474841D01*
X219654Y475349D01*
X220447Y475677D01*
X223327Y475677D01*
X225988Y474575D01*
X228024Y472538D01*
X229126Y469877D01*
X229126Y466997D01*
X228024Y464336D01*
X225988Y462299D01*
X225460Y462081D01*
X224235Y461574D01*
X223327Y461197D01*
X220447Y461197D01*
G37*
%LPD*%
%LPC*%
G36*
X432659Y549770D02*
X432659Y549770D01*
X429998Y550872D01*
X427961Y552909D01*
X426859Y555570D01*
X426859Y558450D01*
X427961Y561111D01*
X429998Y563148D01*
X431114Y563610D01*
X432339Y564117D01*
X432659Y564250D01*
X435539Y564250D01*
X438200Y563148D01*
X440236Y561111D01*
X441338Y558450D01*
X441338Y555570D01*
X440236Y552909D01*
X438200Y550872D01*
X438145Y550850D01*
X438144Y550850D01*
X436920Y550342D01*
X435695Y549835D01*
X435539Y549770D01*
X432659Y549770D01*
G37*
%LPD*%
%LPC*%
G36*
X421721Y635629D02*
X421721Y635629D01*
X419061Y636731D01*
X417024Y638768D01*
X415922Y641429D01*
X415922Y644309D01*
X417024Y646970D01*
X419061Y649006D01*
X419855Y649335D01*
X421079Y649843D01*
X421721Y650109D01*
X424602Y650109D01*
X427263Y649006D01*
X429299Y646970D01*
X430401Y644309D01*
X430401Y641429D01*
X429299Y638768D01*
X427263Y636731D01*
X426885Y636575D01*
X425660Y636068D01*
X424602Y635629D01*
X421721Y635629D01*
G37*
%LPD*%
%LPC*%
G36*
X371721Y635629D02*
X371721Y635629D01*
X369061Y636731D01*
X367024Y638768D01*
X365922Y641429D01*
X365922Y644309D01*
X367024Y646970D01*
X369061Y649006D01*
X369855Y649335D01*
X371079Y649843D01*
X371721Y650109D01*
X374602Y650109D01*
X377263Y649006D01*
X379299Y646970D01*
X380401Y644309D01*
X380401Y641429D01*
X379299Y638768D01*
X377263Y636731D01*
X376885Y636575D01*
X375660Y636068D01*
X374602Y635629D01*
X371721Y635629D01*
G37*
%LPD*%
%LPC*%
G36*
X75201Y598335D02*
X75201Y598335D01*
X72540Y599438D01*
X70503Y601474D01*
X69401Y604135D01*
X69401Y607015D01*
X70503Y609676D01*
X72540Y611713D01*
X72747Y611799D01*
X72748Y611799D01*
X73972Y612306D01*
X75197Y612813D01*
X75201Y612815D01*
X78081Y612815D01*
X80742Y611713D01*
X82778Y609676D01*
X83880Y607015D01*
X83880Y604135D01*
X82778Y601474D01*
X80742Y599438D01*
X79778Y599038D01*
X78553Y598531D01*
X78081Y598335D01*
X75201Y598335D01*
G37*
%LPD*%
%LPC*%
G36*
X25201Y598335D02*
X25201Y598335D01*
X22540Y599438D01*
X20503Y601474D01*
X19401Y604135D01*
X19401Y607015D01*
X20503Y609676D01*
X22540Y611713D01*
X22747Y611799D01*
X22748Y611799D01*
X23972Y612306D01*
X25197Y612813D01*
X25201Y612815D01*
X28081Y612815D01*
X30742Y611713D01*
X32778Y609676D01*
X33880Y607015D01*
X33880Y604135D01*
X32778Y601474D01*
X30742Y599438D01*
X29778Y599038D01*
X28553Y598531D01*
X28081Y598335D01*
X25201Y598335D01*
G37*
%LPD*%
D10*
X221887Y468437D03*
X171887Y468437D03*
D11*
X57395Y515723D03*
D12*
X57395Y495723D03*
D10*
X384099Y557010D03*
X434099Y557010D03*
X408805Y599770D03*
X358805Y599770D03*
X373162Y642869D03*
X423162Y642869D03*
D13*
X336546Y319400D03*
X336546Y344800D03*
X336546Y370200D03*
X391420Y318041D03*
X391420Y343441D03*
X391420Y368841D03*
D14*
X30000Y430602D02*
X30000Y449398D01*
X55400Y449398D02*
X55400Y430602D01*
X80800Y430602D02*
X80800Y449398D01*
X106200Y449398D02*
X106200Y430602D01*
X131600Y430602D02*
X131600Y449398D01*
D10*
X26641Y605575D03*
X76641Y605575D03*
D14*
X700000Y109398D02*
X700000Y90602D01*
X725400Y90602D02*
X725400Y109398D01*
X750800Y109398D02*
X750800Y90602D01*
X776200Y90602D02*
X776200Y109398D01*
X801600Y109398D02*
X801600Y90602D01*
D11*
X346768Y230965D03*
D12*
X326768Y230965D03*
D11*
X349862Y48476D03*
D12*
X329862Y48476D03*
D11*
X405754Y38637D03*
D12*
X405754Y18637D03*
D11*
X528047Y116866D03*
D12*
X548047Y116866D03*
D14*
X580602Y370000D02*
X599398Y370000D01*
X599398Y395400D02*
X580602Y395400D01*
D15*
X457200Y111252D02*
X487680Y80772D01*
X512064Y391668D02*
X521208Y400812D01*
X269748Y644652D02*
X234696Y609600D01*
D16*
X487680Y80772D03*
X457200Y111252D03*
X521208Y400812D03*
X512064Y391668D03*
X234696Y609600D03*
X269748Y644652D03*
X457200Y454152D03*
X498348Y565404D03*
X472440Y143256D03*
X222504Y519684D03*
D15*
X222504Y556260D02*
X231648Y565404D01*
X233172Y565404D02*
X268224Y530352D01*
X233172Y565404D02*
X231648Y565404D01*
D16*
X507492Y91440D03*
X231648Y565404D03*
X222504Y556260D03*
X400812Y271272D03*
X268224Y530352D03*
D15*
X521208Y102108D02*
X510540Y91440D01*
X507492Y91440D01*
X521208Y102108D02*
X478536Y144780D01*
X478536Y190500D01*
X400812Y268224D01*
X400812Y271272D01*
D16*
X521208Y102108D03*
D15*
X502920Y400812D02*
X512064Y409956D01*
D16*
X512064Y409956D03*
X502920Y400812D03*
D15*
X492252Y398394D02*
X492252Y492252D01*
X492252Y398394D02*
X457568Y363709D01*
D16*
X492252Y492252D03*
X457568Y363709D03*
D15*
X528828Y417576D02*
X541020Y405384D01*
D16*
X528828Y417576D03*
X541020Y405384D03*
D15*
X343558Y480372D02*
X343558Y480689D01*
X303276Y520971D01*
X303276Y563880D01*
D16*
X303276Y563880D03*
X343558Y480372D03*
D15*
X283464Y569976D02*
X246888Y606552D01*
X283464Y569976D02*
X310896Y569976D01*
X381000Y499872D01*
X493776Y499872D01*
X504444Y489204D01*
X504444Y473964D01*
D16*
X246888Y606552D03*
X504444Y473964D03*
D15*
X478536Y493776D02*
X478536Y429768D01*
X391668Y342900D01*
X391420Y343441D01*
X179832Y467868D02*
X172212Y467868D01*
X179832Y467868D02*
X231648Y416052D01*
X304800Y416052D01*
X324612Y396240D01*
X324612Y356616D01*
X335280Y345948D01*
X172212Y467868D02*
X171887Y468437D01*
X335280Y345948D02*
X336546Y344800D01*
D16*
X478536Y493776D03*
D15*
X370332Y519684D02*
X370332Y545592D01*
X381814Y557074D01*
X384099Y557010D01*
D16*
X370332Y519684D03*
D15*
X256032Y601980D02*
X256032Y606552D01*
X256032Y601980D02*
X271272Y586740D01*
X393192Y586740D01*
X405384Y598932D01*
X408432Y598932D01*
X408805Y599770D01*
D16*
X256032Y606552D03*
D15*
X404587Y580315D02*
X411747Y587475D01*
X404587Y580315D02*
X393210Y580315D01*
X411480Y588264D02*
X411747Y587997D01*
X411747Y587475D01*
D16*
X411480Y588264D03*
X393210Y580315D03*
D15*
X419100Y612648D02*
X443484Y588264D01*
X419100Y612648D02*
X374904Y612648D01*
X365760Y603504D01*
X364236Y603504D01*
X359664Y598932D01*
X358805Y599770D01*
X347472Y595884D02*
X271272Y595884D01*
X347472Y595884D02*
X352044Y600456D01*
X358140Y600456D01*
X358805Y599770D01*
D16*
X443484Y588264D03*
X271272Y595884D03*
D15*
X336804Y318516D02*
X348996Y306324D01*
X505968Y306324D01*
X573024Y373380D01*
X591312Y373380D01*
X336804Y318516D02*
X336546Y319400D01*
X590000Y370000D02*
X591312Y373380D01*
X498348Y318516D02*
X391668Y318516D01*
X498348Y318516D02*
X577596Y397764D01*
X591312Y397764D01*
X391668Y318516D02*
X391420Y318041D01*
X590000Y395400D02*
X591312Y397764D01*
X358140Y224028D02*
X350594Y224028D01*
X358140Y224028D02*
X365760Y216408D01*
X350594Y224028D02*
X346768Y230965D01*
D16*
X365760Y216408D03*
D15*
X406908Y39624D02*
X417576Y39624D01*
X437388Y59436D01*
X406908Y39624D02*
X405754Y38637D01*
D16*
X437388Y59436D03*
D15*
X528828Y109728D02*
X528828Y115824D01*
X528828Y109728D02*
X537972Y100584D01*
X528828Y115824D02*
X528047Y116866D01*
D16*
X537972Y100584D03*
M02*
