G04 EAGLE Gerber X2 export*
%TF.Part,Single*%
%TF.FileFunction,Copper,L1,Top,Mixed*%
%TF.FilePolarity,Positive*%
%TF.GenerationSoftware,Autodesk,EAGLE,9.2.2*%
%TF.CreationDate,2019-06-08T20:53:20Z*%
G75*
%MOMM*%
%FSLAX34Y34*%
%LPD*%
%INTop Copper*%
%AMOC8*
5,1,8,0,0,1.08239X$1,22.5*%
G01*
%ADD10C,1.143000*%
%ADD11R,1.350000X1.350000*%
%ADD12C,1.350000*%
%ADD13R,1.800000X1.600000*%
%ADD14R,0.660400X2.032000*%
%ADD15R,0.600000X2.200000*%
%ADD16R,1.600000X2.000000*%
%ADD17R,2.000000X1.600000*%
%ADD18P,1.307527X8X292.500000*%
%ADD19R,2.200000X0.600000*%
%ADD20C,1.879600*%
%ADD21C,0.152400*%
%ADD22C,0.756400*%


D10*
X221887Y468437D03*
X171887Y468437D03*
D11*
X57395Y515723D03*
D12*
X57395Y495723D03*
D10*
X384099Y557010D03*
X434099Y557010D03*
X408805Y599770D03*
X358805Y599770D03*
X373162Y642869D03*
X423162Y642869D03*
D13*
X146017Y568112D03*
X146017Y596112D03*
D14*
X555501Y514458D03*
X555501Y452990D03*
X542801Y514458D03*
X530101Y514458D03*
X542801Y452990D03*
X530101Y452990D03*
X517401Y514458D03*
X517401Y452990D03*
X504701Y514458D03*
X504701Y452990D03*
X492001Y514458D03*
X479301Y514458D03*
X492001Y452990D03*
X479301Y452990D03*
X466601Y514458D03*
X466601Y452990D03*
X596177Y626312D03*
X596177Y564844D03*
X583477Y626312D03*
X570777Y626312D03*
X583477Y564844D03*
X570777Y564844D03*
X558077Y626312D03*
X558077Y564844D03*
X545377Y626312D03*
X545377Y564844D03*
X532677Y626312D03*
X519977Y626312D03*
X532677Y564844D03*
X519977Y564844D03*
X507277Y626312D03*
X507277Y564844D03*
D15*
X245743Y589132D03*
X245743Y537132D03*
X258443Y589132D03*
X233043Y589132D03*
X220343Y589132D03*
X258443Y537132D03*
X233043Y537132D03*
X220343Y537132D03*
X194943Y589132D03*
X194943Y537132D03*
X207643Y589132D03*
X182243Y589132D03*
X207643Y537132D03*
X182243Y537132D03*
D16*
X498520Y326961D03*
X526520Y326961D03*
D17*
X150363Y654662D03*
X150363Y626662D03*
X185802Y654662D03*
X185802Y626662D03*
X221241Y654662D03*
X221241Y626662D03*
X588083Y462984D03*
X588083Y490984D03*
X115962Y597061D03*
X115962Y569061D03*
X475433Y611165D03*
X475433Y583165D03*
X354428Y501446D03*
X354428Y529446D03*
X318659Y585508D03*
X318659Y557508D03*
X385618Y501930D03*
X385618Y529930D03*
X285999Y584900D03*
X285999Y556900D03*
D16*
X117376Y537194D03*
X145376Y537194D03*
D17*
X320206Y530599D03*
X320206Y502599D03*
X333213Y432097D03*
X333213Y404097D03*
X373745Y432097D03*
X373745Y404097D03*
X414277Y432097D03*
X414277Y404097D03*
D16*
X171165Y499481D03*
X199165Y499481D03*
X252580Y626559D03*
X280580Y626559D03*
D18*
X336546Y319400D03*
X336546Y344800D03*
X336546Y370200D03*
X391420Y318041D03*
X391420Y343441D03*
X391420Y368841D03*
D19*
X437683Y168091D03*
X489683Y168091D03*
X437683Y180791D03*
X437683Y155391D03*
X437683Y142691D03*
X489683Y180791D03*
X489683Y155391D03*
X489683Y142691D03*
X437683Y117291D03*
X489683Y117291D03*
X437683Y129991D03*
X437683Y104591D03*
X489683Y129991D03*
X489683Y104591D03*
D17*
X439424Y238310D03*
X439424Y210310D03*
D16*
X470326Y409311D03*
X442326Y409311D03*
X362791Y99135D03*
X390791Y99135D03*
X445048Y43189D03*
X473048Y43189D03*
D17*
X495232Y240481D03*
X495232Y212481D03*
D16*
X554336Y163229D03*
X582336Y163229D03*
D17*
X547217Y77266D03*
X547217Y49266D03*
X521926Y183937D03*
X521926Y155937D03*
X387583Y155475D03*
X387583Y127475D03*
D16*
X383363Y183890D03*
X411363Y183890D03*
D17*
X513718Y48743D03*
X513718Y76743D03*
D16*
X614451Y103014D03*
X642451Y103014D03*
X444910Y75138D03*
X472910Y75138D03*
X409620Y66040D03*
X381620Y66040D03*
X324263Y179802D03*
X352263Y179802D03*
X642300Y141245D03*
X614300Y141245D03*
D20*
X30000Y430602D02*
X30000Y449398D01*
X55400Y449398D02*
X55400Y430602D01*
X80800Y430602D02*
X80800Y449398D01*
X106200Y449398D02*
X106200Y430602D01*
X131600Y430602D02*
X131600Y449398D01*
D10*
X26641Y605575D03*
X76641Y605575D03*
D17*
X114923Y654662D03*
X114923Y626662D03*
X286623Y503255D03*
X286623Y531255D03*
D20*
X700000Y109398D02*
X700000Y90602D01*
X725400Y90602D02*
X725400Y109398D01*
X750800Y109398D02*
X750800Y90602D01*
X776200Y90602D02*
X776200Y109398D01*
X801600Y109398D02*
X801600Y90602D01*
D11*
X346768Y230965D03*
D12*
X326768Y230965D03*
D11*
X349862Y48476D03*
D12*
X329862Y48476D03*
D11*
X405754Y38637D03*
D12*
X405754Y18637D03*
D11*
X528047Y116866D03*
D12*
X548047Y116866D03*
D20*
X580602Y370000D02*
X599398Y370000D01*
X599398Y395400D02*
X580602Y395400D01*
D17*
X101922Y504458D03*
X101922Y476458D03*
X138006Y476591D03*
X138006Y504591D03*
D21*
X219456Y583692D02*
X219456Y588264D01*
X135636Y550164D02*
X132588Y547116D01*
X219456Y588264D02*
X220343Y589132D01*
X563880Y461772D02*
X586740Y461772D01*
X563880Y461772D02*
X556260Y454152D01*
X586740Y461772D02*
X588083Y462984D01*
X556260Y454152D02*
X555501Y452990D01*
X597408Y565404D02*
X597408Y609600D01*
X601980Y614172D01*
X601980Y638556D01*
X600456Y640080D01*
X592836Y640080D01*
X589788Y637032D01*
X589788Y588264D01*
X577596Y576072D01*
X577596Y522732D01*
X600456Y499872D01*
X600456Y475488D01*
X588264Y463296D01*
X596177Y564844D02*
X597408Y565404D01*
X588264Y463296D02*
X588083Y462984D01*
X547116Y48768D02*
X515112Y48768D01*
X513718Y48743D01*
X547116Y48768D02*
X547217Y49266D01*
X419100Y155448D02*
X388620Y155448D01*
X419100Y155448D02*
X431292Y143256D01*
X437388Y143256D01*
X388620Y155448D02*
X387583Y155475D01*
X437388Y143256D02*
X437683Y142691D01*
X382524Y184404D02*
X370332Y184404D01*
X361188Y193548D01*
X344424Y193548D01*
X341376Y190500D01*
X341376Y169164D01*
X353568Y156972D01*
X387096Y156972D01*
X383363Y183890D02*
X382524Y184404D01*
X387096Y156972D02*
X387583Y155475D01*
X498348Y265176D02*
X498348Y326136D01*
X498348Y265176D02*
X455676Y222504D01*
X455676Y155448D01*
X445008Y144780D02*
X443484Y143256D01*
X445008Y144780D02*
X455676Y155448D01*
X443484Y143256D02*
X438912Y143256D01*
X498348Y326136D02*
X498520Y326961D01*
X438912Y143256D02*
X437683Y142691D01*
X513588Y54864D02*
X513588Y48768D01*
X513588Y54864D02*
X487680Y80772D01*
X457200Y111252D02*
X457200Y132588D01*
X445008Y144780D01*
X513588Y48768D02*
X513718Y48743D01*
X445008Y144780D02*
X437683Y142691D01*
X554736Y434340D02*
X554736Y452628D01*
X554736Y434340D02*
X521208Y400812D01*
X512064Y391668D02*
X512064Y339852D01*
X499872Y327660D01*
X554736Y452628D02*
X555501Y452990D01*
X499872Y327660D02*
X498520Y326961D01*
X220980Y589788D02*
X220980Y595884D01*
X234696Y609600D01*
X269748Y644652D02*
X358140Y644652D01*
X368808Y655320D01*
X542544Y655320D01*
X557784Y640080D01*
X586740Y640080D01*
X589788Y637032D01*
X220980Y589788D02*
X220343Y589132D01*
D22*
X487680Y80772D03*
X457200Y111252D03*
X521208Y400812D03*
X512064Y391668D03*
X234696Y609600D03*
X269748Y644652D03*
D21*
X172212Y550164D02*
X135636Y550164D01*
X172212Y550164D02*
X187452Y565404D01*
X201168Y565404D01*
X219456Y583692D01*
X220343Y589132D01*
X163068Y470916D02*
X132588Y440436D01*
X163068Y470916D02*
X163068Y472440D01*
X176784Y486156D01*
X179832Y486156D01*
X182880Y489204D01*
X182880Y509016D01*
X167640Y524256D01*
X135636Y524256D01*
X132588Y527304D01*
X132588Y547116D01*
X132588Y440436D02*
X131600Y440000D01*
X457200Y454152D02*
X466344Y454152D01*
X466601Y452990D01*
X498348Y565404D02*
X505968Y565404D01*
X507277Y564844D01*
X489204Y143256D02*
X472440Y143256D01*
X489204Y143256D02*
X489683Y142691D01*
X220980Y521208D02*
X220980Y536448D01*
X220980Y521208D02*
X222504Y519684D01*
X220980Y536448D02*
X220343Y537132D01*
D22*
X457200Y454152D03*
X498348Y565404D03*
X472440Y143256D03*
X222504Y519684D03*
D21*
X100584Y475488D02*
X100584Y461772D01*
X82296Y443484D01*
X82296Y440436D01*
X100584Y475488D02*
X101922Y476458D01*
X82296Y440436D02*
X80800Y440000D01*
X300228Y530352D02*
X320040Y530352D01*
X320206Y530599D01*
X376428Y530352D02*
X385572Y530352D01*
X376428Y530352D02*
X355092Y530352D01*
X354428Y529446D01*
X385572Y530352D02*
X385618Y529930D01*
X419100Y513588D02*
X466344Y513588D01*
X419100Y513588D02*
X396240Y490728D01*
X374904Y490728D01*
X371856Y493776D01*
X371856Y512064D01*
X376428Y516636D01*
X376428Y530352D01*
X466344Y513588D02*
X466601Y514458D01*
X385618Y529930D02*
X376428Y530352D01*
X490728Y626364D02*
X505968Y626364D01*
X490728Y626364D02*
X489204Y627888D01*
X425196Y627888D01*
X399288Y601980D01*
X399288Y591312D01*
X419100Y571500D01*
X419100Y513588D01*
X505968Y626364D02*
X507277Y626312D01*
X353568Y530352D02*
X321564Y530352D01*
X320206Y530599D01*
X353568Y530352D02*
X354428Y529446D01*
X473964Y74676D02*
X473964Y44196D01*
X473048Y43189D01*
X473964Y74676D02*
X472910Y75138D01*
X579120Y163068D02*
X582168Y163068D01*
X507492Y91440D02*
X489204Y91440D01*
X473964Y76200D01*
X582168Y163068D02*
X582336Y163229D01*
X473964Y76200D02*
X472910Y75138D01*
X208788Y536448D02*
X207643Y537132D01*
X231648Y565404D02*
X231648Y588264D01*
X222504Y556260D02*
X217932Y551688D01*
X216408Y551688D01*
X208788Y544068D01*
X231648Y588264D02*
X233043Y589132D01*
X208788Y537972D02*
X207643Y537132D01*
X429768Y409956D02*
X441960Y409956D01*
X429768Y409956D02*
X422148Y417576D01*
X210312Y417576D02*
X128016Y417576D01*
X210312Y417576D02*
X422148Y417576D01*
X128016Y417576D02*
X106680Y438912D01*
X441960Y409956D02*
X442326Y409311D01*
X106680Y438912D02*
X106200Y440000D01*
X205740Y544068D02*
X208788Y544068D01*
X207643Y537132D01*
X400812Y368808D02*
X400812Y271272D01*
X400812Y368808D02*
X429768Y397764D01*
X429768Y409956D01*
X274320Y530352D02*
X268224Y530352D01*
D22*
X507492Y91440D03*
X231648Y565404D03*
X222504Y556260D03*
X400812Y271272D03*
X268224Y530352D03*
D21*
X579120Y163068D02*
X537972Y121920D01*
X537972Y109728D01*
X530352Y102108D01*
X521208Y102108D01*
X579120Y163068D02*
X582336Y163229D01*
X207264Y583692D02*
X207264Y588264D01*
X207264Y583692D02*
X192024Y568452D01*
X167640Y568452D01*
X152400Y553212D01*
X134112Y553212D01*
X128016Y547116D01*
X207264Y588264D02*
X207643Y589132D01*
X300228Y530352D02*
X300228Y522732D01*
X297180Y519684D01*
X275844Y519684D01*
X274320Y521208D01*
X274320Y530352D01*
D22*
X521208Y102108D03*
D21*
X137160Y472440D02*
X137160Y475488D01*
X132588Y467868D02*
X105156Y440436D01*
X132588Y467868D02*
X137160Y472440D01*
X137160Y475488D02*
X138006Y476591D01*
X106200Y440000D02*
X105156Y440436D01*
X132588Y467868D02*
X106680Y493776D01*
X89916Y493776D01*
X88392Y495300D01*
X88392Y513588D01*
X99060Y524256D01*
X126492Y524256D01*
X128016Y525780D01*
X128016Y547116D01*
X210312Y510540D02*
X210312Y417576D01*
X210312Y510540D02*
X198120Y522732D01*
X192024Y522732D01*
X188976Y525780D01*
X188976Y548640D01*
X192024Y551688D01*
X198120Y551688D01*
X205740Y544068D01*
X207643Y537132D01*
X440436Y237744D02*
X440436Y231648D01*
X452628Y219456D01*
X452628Y195072D01*
X438912Y181356D01*
X440436Y237744D02*
X439424Y238310D01*
X438912Y181356D02*
X437683Y180791D01*
X528828Y487680D02*
X528828Y513588D01*
X528828Y487680D02*
X524256Y483108D01*
X524256Y422148D01*
X512064Y409956D01*
X502920Y400812D02*
X502920Y353568D01*
X440436Y291084D01*
X440436Y239268D01*
X528828Y513588D02*
X530101Y514458D01*
X440436Y239268D02*
X439424Y238310D01*
D22*
X512064Y409956D03*
X502920Y400812D03*
D21*
X364236Y126492D02*
X364236Y100584D01*
X371856Y134112D02*
X376428Y138684D01*
X371856Y134112D02*
X364236Y126492D01*
X376428Y138684D02*
X423672Y138684D01*
X426720Y135636D01*
X449580Y135636D01*
X451104Y134112D01*
X451104Y112776D01*
X443484Y105156D01*
X438912Y105156D01*
X364236Y100584D02*
X362791Y99135D01*
X437683Y104591D02*
X438912Y105156D01*
X492252Y492252D02*
X492252Y513588D01*
X457568Y363709D02*
X457568Y317360D01*
X338328Y198120D01*
X338328Y167640D01*
X371856Y134112D01*
X492252Y513588D02*
X492001Y514458D01*
D22*
X492252Y492252D03*
X457568Y363709D03*
D21*
X493776Y239268D02*
X493776Y233172D01*
X481584Y220980D01*
X481584Y188976D01*
X489204Y181356D01*
X493776Y239268D02*
X495232Y240481D01*
X489204Y181356D02*
X489683Y180791D01*
X492252Y420624D02*
X492252Y452628D01*
X492252Y420624D02*
X518160Y394716D01*
X518160Y339852D01*
X509016Y330708D01*
X509016Y254508D01*
X495300Y240792D01*
X492252Y452628D02*
X492001Y452990D01*
X495300Y240792D02*
X495232Y240481D01*
X530352Y454152D02*
X530352Y484632D01*
X536448Y490728D01*
X536448Y560832D01*
X533400Y563880D01*
X530352Y454152D02*
X530101Y452990D01*
X533400Y563880D02*
X532677Y564844D01*
X541020Y182880D02*
X576072Y182880D01*
X541020Y182880D02*
X522732Y182880D01*
X576072Y182880D02*
X582168Y176784D01*
X591312Y176784D01*
X603504Y164592D01*
X603504Y129540D01*
X617220Y115824D01*
X623316Y115824D01*
X624840Y114300D01*
X624840Y91440D01*
X598932Y65532D01*
X536448Y65532D01*
X527304Y74676D01*
X527304Y85344D01*
X509016Y103632D01*
X490728Y103632D01*
X522732Y182880D02*
X521926Y183937D01*
X489683Y104591D02*
X490728Y103632D01*
X528828Y417576D02*
X528828Y452628D01*
X541020Y405384D02*
X541020Y182880D01*
X528828Y452628D02*
X530101Y452990D01*
D22*
X528828Y417576D03*
X541020Y405384D03*
D21*
X577596Y492252D02*
X586740Y492252D01*
X577596Y492252D02*
X556260Y513588D01*
X586740Y492252D02*
X588083Y490984D01*
X556260Y513588D02*
X555501Y514458D01*
X527304Y400812D02*
X527304Y327660D01*
X527304Y400812D02*
X579120Y452628D01*
X600456Y452628D01*
X603504Y455676D01*
X603504Y539496D01*
X589788Y553212D01*
X589788Y583692D01*
X594360Y588264D01*
X594360Y623316D01*
X595884Y624840D01*
X527304Y327660D02*
X526520Y326961D01*
X595884Y624840D02*
X596177Y626312D01*
X164592Y653796D02*
X150876Y653796D01*
X164592Y653796D02*
X175260Y643128D01*
X196596Y643128D01*
X208788Y655320D01*
X208788Y664464D01*
X210312Y665988D01*
X234696Y665988D01*
X266700Y633984D01*
X266700Y614172D01*
X284988Y595884D01*
X297180Y595884D01*
X298704Y594360D01*
X298704Y576072D01*
X291084Y568452D01*
X271272Y568452D01*
X252984Y550164D01*
X252984Y524256D01*
X263652Y513588D01*
X330708Y513588D01*
X341376Y502920D01*
X341376Y492252D01*
X345948Y487680D01*
X481584Y487680D01*
X486156Y492252D01*
X486156Y525780D01*
X487680Y527304D01*
X509016Y527304D01*
X516636Y519684D01*
X516636Y515112D01*
X150876Y653796D02*
X150363Y654662D01*
X516636Y515112D02*
X517401Y514458D01*
X195072Y655320D02*
X185928Y655320D01*
X195072Y655320D02*
X208788Y669036D01*
X236220Y669036D01*
X269748Y635508D01*
X269748Y615696D01*
X286512Y598932D01*
X298704Y598932D01*
X303276Y594360D01*
X303276Y563880D01*
X343558Y480372D02*
X489516Y480372D01*
X504444Y495300D01*
X504444Y513588D01*
X185802Y654662D02*
X185928Y655320D01*
X504701Y514458D02*
X504444Y513588D01*
D22*
X303276Y563880D03*
X343558Y480372D03*
D21*
X222504Y647700D02*
X222504Y653796D01*
X222504Y647700D02*
X240792Y629412D01*
X240792Y612648D01*
X246888Y606552D01*
X504444Y473964D02*
X504444Y454152D01*
X222504Y653796D02*
X221241Y654662D01*
X504444Y454152D02*
X504701Y452990D01*
D22*
X246888Y606552D03*
X504444Y473964D03*
D21*
X184404Y626364D02*
X150876Y626364D01*
X150363Y626662D01*
X184404Y626364D02*
X185802Y626662D01*
X185928Y626364D02*
X195072Y626364D01*
X220980Y626364D01*
X221241Y626662D01*
X185928Y626364D02*
X185802Y626662D01*
X195072Y626364D02*
X195072Y589788D01*
X194943Y589132D01*
X195072Y626364D02*
X185802Y626662D01*
X115824Y569976D02*
X112776Y569976D01*
X89916Y592836D02*
X77724Y605028D01*
X89916Y592836D02*
X112776Y569976D01*
X115824Y569976D02*
X115962Y569061D01*
X77724Y605028D02*
X76641Y605575D01*
X137160Y626364D02*
X149352Y626364D01*
X137160Y626364D02*
X118872Y608076D01*
X105156Y608076D01*
X89916Y592836D01*
X149352Y626364D02*
X150363Y626662D01*
X126492Y597408D02*
X117348Y597408D01*
X126492Y597408D02*
X135636Y606552D01*
X164592Y606552D01*
X181356Y589788D01*
X117348Y597408D02*
X115962Y597061D01*
X181356Y589788D02*
X182243Y589132D01*
X126492Y597408D02*
X126492Y580644D01*
X129540Y577596D01*
X129540Y560832D01*
X118872Y550164D01*
X91440Y550164D01*
X86868Y545592D02*
X57912Y516636D01*
X86868Y545592D02*
X91440Y550164D01*
X57912Y516636D02*
X57395Y515723D01*
X86868Y545592D02*
X27432Y605028D01*
X26641Y605575D01*
X516636Y470916D02*
X516636Y454152D01*
X516636Y470916D02*
X507492Y480060D01*
X501396Y480060D01*
X486156Y464820D01*
X486156Y441960D01*
X466344Y422148D01*
X426720Y422148D01*
X425196Y420624D01*
X269748Y420624D01*
X222504Y467868D01*
X516636Y454152D02*
X517401Y452990D01*
X222504Y467868D02*
X221887Y468437D01*
X195072Y530352D02*
X195072Y536448D01*
X195072Y530352D02*
X220980Y504444D01*
X220980Y469392D01*
X195072Y536448D02*
X194943Y537132D01*
X220980Y469392D02*
X221887Y468437D01*
X199165Y499481D02*
X202867Y503490D01*
X181356Y536448D02*
X182243Y537132D01*
X475488Y518160D02*
X475488Y582168D01*
X475488Y518160D02*
X478536Y515112D01*
X475488Y582168D02*
X475433Y583165D01*
X478536Y515112D02*
X479301Y514458D01*
X332232Y403860D02*
X332232Y377952D01*
X327660Y373380D01*
X327660Y353568D01*
X335280Y345948D01*
X332232Y403860D02*
X333213Y404097D01*
X335280Y345948D02*
X336546Y344800D01*
X339919Y343801D02*
X390952Y343801D01*
X391420Y343441D01*
X339919Y343801D02*
X338512Y342834D01*
X336546Y344800D01*
X478536Y493776D02*
X478536Y513588D01*
X479301Y514458D01*
D22*
X478536Y493776D03*
D21*
X198120Y495300D02*
X198120Y498348D01*
X198120Y495300D02*
X172212Y469392D01*
X198120Y498348D02*
X199165Y499481D01*
X172212Y469392D02*
X171887Y468437D01*
X202692Y502920D02*
X202692Y507492D01*
X182880Y527304D01*
X182880Y536448D01*
X202692Y502920D02*
X199165Y499481D01*
X182880Y536448D02*
X182243Y537132D01*
X475488Y611124D02*
X478536Y611124D01*
X519684Y569976D01*
X519684Y565404D01*
X475488Y611124D02*
X475433Y611165D01*
X519684Y565404D02*
X519977Y564844D01*
X437388Y559758D02*
X437388Y591312D01*
X457200Y611124D01*
X473964Y611124D01*
X437388Y559758D02*
X434099Y557010D01*
X473964Y611124D02*
X475433Y611165D01*
X370332Y518160D02*
X355092Y502920D01*
X370332Y518160D02*
X370332Y519684D01*
X355092Y502920D02*
X354428Y501446D01*
D22*
X370332Y519684D03*
D21*
X544068Y565404D02*
X544068Y576072D01*
X507492Y612648D01*
X499872Y612648D01*
X487680Y624840D01*
X434340Y624840D01*
X409956Y600456D01*
X544068Y565404D02*
X545377Y564844D01*
X409956Y600456D02*
X408805Y599770D01*
X246888Y597408D02*
X246888Y589788D01*
X246888Y597408D02*
X256032Y606552D01*
X246888Y589788D02*
X245743Y589132D01*
D22*
X256032Y606552D03*
D21*
X320040Y586740D02*
X358140Y586740D01*
X367284Y595884D01*
X367284Y637032D01*
X364236Y640080D01*
X364236Y646176D01*
X370332Y652272D01*
X413004Y652272D01*
X422148Y643128D01*
X320040Y586740D02*
X318659Y585508D01*
X422148Y643128D02*
X423162Y642869D01*
X544068Y498348D02*
X544068Y454152D01*
X544068Y498348D02*
X548640Y502920D01*
X548640Y550164D01*
X551688Y553212D01*
X551688Y577596D01*
X513588Y615696D01*
X513588Y637032D01*
X509016Y641604D01*
X423672Y641604D01*
X544068Y454152D02*
X542801Y452990D01*
X423672Y641604D02*
X423162Y642869D01*
X387096Y509016D02*
X387096Y502920D01*
X387096Y509016D02*
X402336Y524256D01*
X402336Y583692D01*
X373380Y612648D01*
X373380Y641604D01*
X387096Y502920D02*
X385618Y501930D01*
X373380Y641604D02*
X373162Y642869D01*
X318516Y557784D02*
X286512Y557784D01*
X285999Y556900D01*
X318516Y557784D02*
X318659Y557508D01*
X542544Y550164D02*
X542544Y515112D01*
X542544Y550164D02*
X539496Y553212D01*
X539496Y576072D01*
X505968Y609600D01*
X498348Y609600D01*
X486156Y621792D01*
X445008Y621792D01*
X411480Y588264D01*
X393210Y580315D02*
X392315Y579419D01*
X341675Y579419D01*
X320040Y557784D01*
X542544Y515112D02*
X542801Y514458D01*
X320040Y557784D02*
X318659Y557508D01*
X266700Y537972D02*
X259080Y537972D01*
X266700Y537972D02*
X284988Y556260D01*
X259080Y537972D02*
X258443Y537132D01*
X284988Y556260D02*
X285999Y556900D01*
D22*
X411480Y588264D03*
X393210Y580315D03*
D21*
X373380Y432816D02*
X333756Y432816D01*
X333213Y432097D01*
X373380Y432816D02*
X373745Y432097D01*
X321564Y443484D02*
X321564Y492252D01*
X321564Y501396D01*
X321564Y443484D02*
X332232Y432816D01*
X321564Y501396D02*
X320206Y502599D01*
X332232Y432816D02*
X333213Y432097D01*
X374904Y432816D02*
X413004Y432816D01*
X414277Y432097D01*
X374904Y432816D02*
X373745Y432097D01*
X233172Y525780D02*
X233172Y536448D01*
X233172Y525780D02*
X266700Y492252D01*
X321564Y492252D01*
X233172Y536448D02*
X233043Y537132D01*
X281940Y626364D02*
X332232Y626364D01*
X358140Y600456D01*
X281940Y626364D02*
X280580Y626559D01*
X358140Y600456D02*
X358805Y599770D01*
X480060Y463296D02*
X480060Y454152D01*
X480060Y463296D02*
X518160Y501396D01*
X521208Y501396D01*
X524256Y504444D01*
X524256Y530352D01*
X489204Y565404D01*
X489204Y591312D01*
X486156Y594360D01*
X449580Y594360D01*
X443484Y588264D01*
X480060Y454152D02*
X479301Y452990D01*
X265176Y589788D02*
X259080Y589788D01*
X265176Y589788D02*
X271272Y595884D01*
X259080Y589788D02*
X258443Y589132D01*
D22*
X443484Y588264D03*
X271272Y595884D03*
D21*
X370332Y403860D02*
X373380Y403860D01*
X370332Y403860D02*
X336804Y370332D01*
X373380Y403860D02*
X373745Y404097D01*
X336804Y370332D02*
X336546Y370200D01*
X413004Y391668D02*
X413004Y403860D01*
X413004Y391668D02*
X391668Y370332D01*
X413004Y403860D02*
X414277Y404097D01*
X391668Y370332D02*
X391420Y368841D01*
X252984Y623316D02*
X252984Y626364D01*
X252984Y623316D02*
X284988Y591312D01*
X284988Y585216D01*
X252984Y626364D02*
X252580Y626559D01*
X284988Y585216D02*
X285999Y584900D01*
X164592Y537972D02*
X146304Y537972D01*
X164592Y537972D02*
X188976Y562356D01*
X225552Y562356D01*
X242316Y545592D02*
X245364Y542544D01*
X242316Y545592D02*
X225552Y562356D01*
X245364Y542544D02*
X245364Y537972D01*
X146304Y537972D02*
X145376Y537194D01*
X245364Y537972D02*
X245743Y537132D01*
X280416Y583692D02*
X284988Y583692D01*
X280416Y583692D02*
X242316Y545592D01*
X284988Y583692D02*
X285999Y584900D01*
X56388Y495300D02*
X56388Y440436D01*
X56388Y495300D02*
X57395Y495723D01*
X56388Y440436D02*
X55400Y440000D01*
X96012Y536448D02*
X117348Y536448D01*
X96012Y536448D02*
X65532Y505968D01*
X53340Y505968D01*
X30480Y483108D01*
X30480Y440436D01*
X117348Y536448D02*
X117376Y537194D01*
X30480Y440436D02*
X30000Y440000D01*
X324612Y178308D02*
X324612Y82296D01*
X339852Y67056D01*
X339852Y33875D01*
X344771Y28956D01*
X432816Y28956D01*
X434340Y27432D01*
X729996Y27432D01*
X801624Y99060D01*
X324612Y178308D02*
X324263Y179802D01*
X801600Y100000D02*
X801624Y99060D01*
X708660Y30480D02*
X435864Y30480D01*
X708660Y30480D02*
X777240Y99060D01*
X776200Y100000D01*
X409956Y65532D02*
X409956Y56388D01*
X435864Y30480D01*
X409956Y65532D02*
X409620Y66040D01*
X643128Y140208D02*
X711708Y140208D01*
X751332Y100584D01*
X643128Y140208D02*
X642300Y141245D01*
X750800Y100000D02*
X751332Y100584D01*
X676656Y103632D02*
X643128Y103632D01*
X676656Y103632D02*
X694944Y121920D01*
X704088Y121920D01*
X725424Y100584D01*
X643128Y103632D02*
X642451Y103014D01*
X725400Y100000D02*
X725424Y100584D01*
X438912Y199644D02*
X438912Y208788D01*
X438912Y199644D02*
X423672Y184404D01*
X423672Y176784D01*
X431292Y169164D01*
X437388Y169164D01*
X438912Y208788D02*
X439424Y210310D01*
X437388Y169164D02*
X437683Y168091D01*
X469392Y324612D02*
X469392Y408432D01*
X469392Y324612D02*
X426720Y281940D01*
X426720Y222504D01*
X438912Y210312D01*
X469392Y408432D02*
X470326Y409311D01*
X439424Y210310D02*
X438912Y210312D01*
X416052Y100584D02*
X391668Y100584D01*
X416052Y100584D02*
X431292Y115824D01*
X437388Y115824D01*
X391668Y100584D02*
X390791Y99135D01*
X437388Y115824D02*
X437683Y117291D01*
X445008Y48768D02*
X445008Y44196D01*
X420624Y67056D02*
X420624Y96012D01*
X416052Y100584D01*
X445008Y44196D02*
X445048Y43189D01*
X445008Y48768D02*
X438912Y48768D01*
X420624Y67056D01*
X445008Y48768D02*
X445048Y43189D01*
X539496Y164592D02*
X553212Y164592D01*
X539496Y164592D02*
X533400Y170688D01*
X504444Y170688D02*
X492252Y170688D01*
X504444Y170688D02*
X533400Y170688D01*
X492252Y170688D02*
X490728Y169164D01*
X553212Y164592D02*
X554336Y163229D01*
X490728Y169164D02*
X489683Y168091D01*
X495300Y193548D02*
X495300Y211836D01*
X495300Y193548D02*
X504444Y184404D01*
X504444Y170688D01*
X495300Y211836D02*
X495232Y212481D01*
X367284Y178308D02*
X353568Y178308D01*
X367284Y178308D02*
X374904Y170688D01*
X397764Y170688D01*
X406908Y179832D02*
X409956Y182880D01*
X406908Y179832D02*
X397764Y170688D01*
X353568Y178308D02*
X352263Y179802D01*
X409956Y182880D02*
X411363Y183890D01*
X431292Y155448D02*
X437388Y155448D01*
X431292Y155448D02*
X406908Y179832D01*
X437388Y155448D02*
X437683Y155391D01*
X411363Y183890D02*
X406908Y179832D01*
X377952Y216408D02*
X365760Y216408D01*
X377952Y216408D02*
X409956Y184404D01*
X411363Y183890D01*
D22*
X365760Y216408D03*
D21*
X381000Y86868D02*
X381000Y67056D01*
X381000Y86868D02*
X379476Y88392D01*
X379476Y118872D01*
X387096Y126492D01*
X381000Y67056D02*
X381620Y66040D01*
X387096Y126492D02*
X387583Y127475D01*
X390144Y129540D02*
X437388Y129540D01*
X390144Y129540D02*
X388620Y128016D01*
X437388Y129540D02*
X437683Y129991D01*
X388620Y128016D02*
X387583Y127475D01*
X381000Y65532D02*
X379476Y64008D01*
X360371Y58985D01*
X349862Y48476D01*
X381000Y65532D02*
X381620Y66040D01*
X515112Y76200D02*
X521208Y76200D01*
X534924Y62484D01*
X600456Y62484D01*
X627888Y89916D01*
X627888Y128016D01*
X615696Y140208D01*
X515112Y76200D02*
X513718Y76743D01*
X614300Y141245D02*
X615696Y140208D01*
X489204Y153924D02*
X473964Y153924D01*
X463296Y143256D01*
X463296Y108204D01*
X443484Y88392D01*
X435864Y88392D01*
X434340Y86868D01*
X434340Y64008D01*
X435864Y62484D01*
X437388Y62484D02*
X454152Y62484D01*
X437388Y62484D02*
X435864Y62484D01*
X454152Y62484D02*
X461772Y70104D01*
X461772Y85344D01*
X473964Y97536D01*
X510540Y97536D01*
X513588Y94488D01*
X513588Y77724D01*
X489204Y153924D02*
X489683Y155391D01*
X513588Y77724D02*
X513718Y76743D01*
X437388Y62484D02*
X437388Y59436D01*
D22*
X437388Y59436D03*
D21*
X548640Y77724D02*
X589788Y77724D01*
X614172Y102108D01*
X548640Y77724D02*
X547217Y77266D01*
X614172Y102108D02*
X614451Y103014D01*
X495300Y131064D02*
X490728Y131064D01*
X495300Y131064D02*
X509016Y144780D01*
X509016Y164592D01*
X512064Y167640D01*
X531876Y167640D01*
X537972Y161544D01*
X490728Y131064D02*
X489683Y129991D01*
X528828Y140208D02*
X528828Y117348D01*
X528828Y140208D02*
X537972Y149352D01*
X537972Y161544D01*
X528828Y117348D02*
X528047Y116866D01*
X537972Y100584D02*
X537972Y86868D01*
X547116Y77724D01*
X547217Y77266D01*
D22*
X537972Y100584D03*
D21*
X475488Y106680D02*
X445008Y76200D01*
X475488Y106680D02*
X475488Y108204D01*
X483108Y115824D01*
X489204Y115824D01*
X445008Y76200D02*
X444910Y75138D01*
X489204Y115824D02*
X489683Y117291D01*
X490728Y117348D02*
X495300Y117348D01*
X490728Y117348D02*
X489683Y117291D01*
X521208Y143256D02*
X521208Y155448D01*
X521208Y143256D02*
X495300Y117348D01*
X521208Y155448D02*
X521926Y155937D01*
X495300Y117348D02*
X489683Y117291D01*
X137160Y504444D02*
X102108Y504444D01*
X101922Y504458D01*
X137160Y504444D02*
X138006Y504591D01*
X143256Y499872D02*
X170688Y499872D01*
X143256Y499872D02*
X138684Y504444D01*
X170688Y499872D02*
X171165Y499481D01*
X138684Y504444D02*
X138006Y504591D01*
M02*
