M48
;GenerationSoftware,Autodesk,EAGLE,9.2.2*%
;CreationDate,2019-06-08T20:53:20Z*%
FMAT,2
ICI,OFF
METRIC,TZ,000.000
T5C0.350
T4C0.635
T3C0.700
T2C0.800
T1C1.118
%
G90
M71
T1
X59000Y39540
X59000Y37000
X80160Y10000
X77620Y10000
X75080Y10000
X72540Y10000
X70000Y10000
X13160Y44000
X10620Y44000
X8080Y44000
X5540Y44000
X3000Y44000
T2
X54805Y11687
X52805Y11687
X40575Y1864
X40575Y3864
X32986Y4848
X34986Y4848
X32677Y23096
X34677Y23096
X5740Y49572
X5740Y51572
T3
X39142Y36884
X39142Y34344
X39142Y31804
X33655Y37020
X33655Y34480
X33655Y31940
T4
X17189Y46844
X7664Y60558
X2664Y60558
X42316Y64287
X37316Y64287
X35881Y59977
X40881Y59977
X43410Y55701
X22189Y46844
X38410Y55701
T5
X37033Y51968
X47854Y49378
X25603Y60655
X53797Y10058
X43739Y5944
X36576Y21641
X27127Y59588
X44348Y58826
X50444Y47396
X24689Y60655
X34356Y48037
X30328Y56388
X54102Y40538
X52883Y41758
X45757Y36371
X49225Y49225
X50292Y40081
X51206Y40996
X52121Y10211
X39321Y58031
X41148Y58826
X26822Y53035
X40081Y27127
X22250Y55626
X23165Y56540
X50749Y9144
X22250Y51968
X47244Y14326
X49835Y56540
X45720Y45415
X26975Y64465
X23470Y60960
X51206Y39167
X52121Y40081
X45720Y11125
X48768Y8077
M30