G04 EAGLE Gerber X2 export*
%TF.Part,Single*%
%TF.FileFunction,Soldermask,Top,1*%
%TF.FilePolarity,Positive*%
%TF.GenerationSoftware,Autodesk,EAGLE,9.2.2*%
%TF.CreationDate,2019-04-19T13:43:48Z*%
G75*
%MOMM*%
%FSLAX34Y34*%
%LPD*%
%INSoldermask Top*%
%AMOC8*
5,1,8,0,0,1.08239X$1,22.5*%
G01*
%ADD10C,1.346200*%
%ADD11R,1.553200X1.553200*%
%ADD12C,1.553200*%
%ADD13R,2.003200X1.803200*%
%ADD14R,0.863600X2.235200*%
%ADD15R,0.803200X2.403200*%
%ADD16R,1.803200X2.203200*%
%ADD17R,2.203200X1.803200*%
%ADD18P,1.527469X8X292.500000*%
%ADD19R,2.403200X0.803200*%
%ADD20C,2.082800*%
%ADD21C,0.959600*%


D10*
X221887Y468437D03*
X171887Y468437D03*
D11*
X57395Y515723D03*
D12*
X57395Y495723D03*
D10*
X384099Y557010D03*
X434099Y557010D03*
X408805Y599770D03*
X358805Y599770D03*
X373162Y642869D03*
X423162Y642869D03*
D13*
X146017Y568112D03*
X146017Y596112D03*
D14*
X555501Y514458D03*
X555501Y452990D03*
X542801Y514458D03*
X530101Y514458D03*
X542801Y452990D03*
X530101Y452990D03*
X517401Y514458D03*
X517401Y452990D03*
X504701Y514458D03*
X504701Y452990D03*
X492001Y514458D03*
X479301Y514458D03*
X492001Y452990D03*
X479301Y452990D03*
X466601Y514458D03*
X466601Y452990D03*
X596177Y626312D03*
X596177Y564844D03*
X583477Y626312D03*
X570777Y626312D03*
X583477Y564844D03*
X570777Y564844D03*
X558077Y626312D03*
X558077Y564844D03*
X545377Y626312D03*
X545377Y564844D03*
X532677Y626312D03*
X519977Y626312D03*
X532677Y564844D03*
X519977Y564844D03*
X507277Y626312D03*
X507277Y564844D03*
D15*
X245743Y589132D03*
X245743Y537132D03*
X258443Y589132D03*
X233043Y589132D03*
X220343Y589132D03*
X258443Y537132D03*
X233043Y537132D03*
X220343Y537132D03*
X194943Y589132D03*
X194943Y537132D03*
X207643Y589132D03*
X182243Y589132D03*
X207643Y537132D03*
X182243Y537132D03*
D16*
X498520Y326961D03*
X526520Y326961D03*
D17*
X150363Y654662D03*
X150363Y626662D03*
X185802Y654662D03*
X185802Y626662D03*
X221241Y654662D03*
X221241Y626662D03*
X588083Y462984D03*
X588083Y490984D03*
X115962Y597061D03*
X115962Y569061D03*
X475433Y611165D03*
X475433Y583165D03*
X354428Y501446D03*
X354428Y529446D03*
X318659Y585508D03*
X318659Y557508D03*
X385618Y501930D03*
X385618Y529930D03*
X285999Y584900D03*
X285999Y556900D03*
D16*
X117376Y537194D03*
X145376Y537194D03*
D17*
X320206Y530599D03*
X320206Y502599D03*
X333213Y432097D03*
X333213Y404097D03*
X373745Y432097D03*
X373745Y404097D03*
X414277Y432097D03*
X414277Y404097D03*
D16*
X209339Y506608D03*
X181339Y506608D03*
X252580Y626559D03*
X280580Y626559D03*
D18*
X336546Y319400D03*
X336546Y344800D03*
X336546Y370200D03*
X391420Y318041D03*
X391420Y343441D03*
X391420Y368841D03*
D19*
X437683Y168091D03*
X489683Y168091D03*
X437683Y180791D03*
X437683Y155391D03*
X437683Y142691D03*
X489683Y180791D03*
X489683Y155391D03*
X489683Y142691D03*
X437683Y117291D03*
X489683Y117291D03*
X437683Y129991D03*
X437683Y104591D03*
X489683Y129991D03*
X489683Y104591D03*
D17*
X439424Y238310D03*
X439424Y210310D03*
D16*
X470326Y409311D03*
X442326Y409311D03*
X362791Y99135D03*
X390791Y99135D03*
X445048Y43189D03*
X473048Y43189D03*
D17*
X495232Y240481D03*
X495232Y212481D03*
D16*
X554336Y163229D03*
X582336Y163229D03*
D17*
X547217Y77266D03*
X547217Y49266D03*
X521926Y183937D03*
X521926Y155937D03*
X387583Y155475D03*
X387583Y127475D03*
D16*
X383363Y183890D03*
X411363Y183890D03*
D17*
X513718Y48743D03*
X513718Y76743D03*
D16*
X614451Y103014D03*
X642451Y103014D03*
X444910Y75138D03*
X472910Y75138D03*
X409620Y66040D03*
X381620Y66040D03*
X324263Y179802D03*
X352263Y179802D03*
X642300Y141245D03*
X614300Y141245D03*
D20*
X30000Y430602D02*
X30000Y449398D01*
X55400Y449398D02*
X55400Y430602D01*
X80800Y430602D02*
X80800Y449398D01*
X106200Y449398D02*
X106200Y430602D01*
X131600Y430602D02*
X131600Y449398D01*
D10*
X26641Y605575D03*
X76641Y605575D03*
D17*
X114923Y654662D03*
X114923Y626662D03*
X286623Y503255D03*
X286623Y531255D03*
D20*
X700000Y109398D02*
X700000Y90602D01*
X725400Y90602D02*
X725400Y109398D01*
X750800Y109398D02*
X750800Y90602D01*
X776200Y90602D02*
X776200Y109398D01*
X801600Y109398D02*
X801600Y90602D01*
D11*
X346768Y230965D03*
D12*
X326768Y230965D03*
D11*
X350056Y63886D03*
D12*
X330056Y63886D03*
D11*
X405754Y38637D03*
D12*
X405754Y18637D03*
D11*
X528047Y116866D03*
D12*
X548047Y116866D03*
D20*
X580602Y370000D02*
X599398Y370000D01*
X599398Y395400D02*
X580602Y395400D01*
D21*
X487680Y80772D03*
X457200Y111252D03*
X521208Y400812D03*
X512064Y391668D03*
X234696Y609600D03*
X269748Y644652D03*
X457200Y454152D03*
X498348Y565404D03*
X472440Y143256D03*
X222504Y519684D03*
X507492Y91440D03*
X231648Y565404D03*
X222504Y556260D03*
X400812Y271272D03*
X268224Y530352D03*
X521208Y102108D03*
X512064Y409956D03*
X502920Y400812D03*
X492252Y492252D03*
X457568Y363709D03*
X528828Y417576D03*
X541020Y405384D03*
X303276Y563880D03*
X343558Y480372D03*
X246888Y606552D03*
X504444Y473964D03*
X478536Y493776D03*
X370332Y519684D03*
X256032Y606552D03*
X411480Y588264D03*
X393210Y580315D03*
X443484Y588264D03*
X271272Y595884D03*
X365760Y216408D03*
X437388Y59436D03*
X537972Y100584D03*
M02*
