G04 EAGLE Gerber X2 export*
%TF.Part,Single*%
%TF.FileFunction,Soldermask,Bot,1*%
%TF.FilePolarity,Positive*%
%TF.GenerationSoftware,Autodesk,EAGLE,9.2.2*%
%TF.CreationDate,2019-04-19T13:43:48Z*%
G75*
%MOMM*%
%FSLAX34Y34*%
%LPD*%
%INSoldermask Bottom*%
%AMOC8*
5,1,8,0,0,1.08239X$1,22.5*%
G01*
%ADD10C,1.346200*%
%ADD11R,1.553200X1.553200*%
%ADD12C,1.553200*%
%ADD13P,1.527469X8X292.500000*%
%ADD14C,2.082800*%
%ADD15C,0.959600*%


D10*
X221887Y468437D03*
X171887Y468437D03*
D11*
X57395Y515723D03*
D12*
X57395Y495723D03*
D10*
X384099Y557010D03*
X434099Y557010D03*
X408805Y599770D03*
X358805Y599770D03*
X373162Y642869D03*
X423162Y642869D03*
D13*
X336546Y319400D03*
X336546Y344800D03*
X336546Y370200D03*
X391420Y318041D03*
X391420Y343441D03*
X391420Y368841D03*
D14*
X30000Y430602D02*
X30000Y449398D01*
X55400Y449398D02*
X55400Y430602D01*
X80800Y430602D02*
X80800Y449398D01*
X106200Y449398D02*
X106200Y430602D01*
X131600Y430602D02*
X131600Y449398D01*
D10*
X26641Y605575D03*
X76641Y605575D03*
D14*
X700000Y109398D02*
X700000Y90602D01*
X725400Y90602D02*
X725400Y109398D01*
X750800Y109398D02*
X750800Y90602D01*
X776200Y90602D02*
X776200Y109398D01*
X801600Y109398D02*
X801600Y90602D01*
D11*
X346768Y230965D03*
D12*
X326768Y230965D03*
D11*
X350056Y63886D03*
D12*
X330056Y63886D03*
D11*
X405754Y38637D03*
D12*
X405754Y18637D03*
D11*
X528047Y116866D03*
D12*
X548047Y116866D03*
D14*
X580602Y370000D02*
X599398Y370000D01*
X599398Y395400D02*
X580602Y395400D01*
D15*
X487680Y80772D03*
X457200Y111252D03*
X521208Y400812D03*
X512064Y391668D03*
X234696Y609600D03*
X269748Y644652D03*
X457200Y454152D03*
X498348Y565404D03*
X472440Y143256D03*
X222504Y519684D03*
X507492Y91440D03*
X231648Y565404D03*
X222504Y556260D03*
X400812Y271272D03*
X268224Y530352D03*
X521208Y102108D03*
X512064Y409956D03*
X502920Y400812D03*
X492252Y492252D03*
X457568Y363709D03*
X528828Y417576D03*
X541020Y405384D03*
X303276Y563880D03*
X343558Y480372D03*
X246888Y606552D03*
X504444Y473964D03*
X478536Y493776D03*
X370332Y519684D03*
X256032Y606552D03*
X411480Y588264D03*
X393210Y580315D03*
X443484Y588264D03*
X271272Y595884D03*
X365760Y216408D03*
X437388Y59436D03*
X537972Y100584D03*
M02*
