M48
;GenerationSoftware,Autodesk,EAGLE,9.2.0*%
;CreationDate,2018-10-30T14:00:18Z*%
FMAT,2
ICI,OFF
METRIC,TZ,000.000
T14C0.300
T13C0.635
T12C0.700
T11C0.800
T10C0.813
T9C0.900
T8C1.000
T7C1.016
T6C1.118
T5C1.200
T4C1.250
T3C1.300
T2C2.000
T1C2.800
%
G90
M71
T1
X62000Y21000
X33000Y21000
X81000Y96000
X14000Y96000
T2
X81000Y86400
X14000Y86400
X14000Y77600
X43100Y51000
X51900Y51000
X43100Y87000
X51900Y87000
X81000Y77600
T3
X7950Y21885
X7950Y38115
X20650Y21885
X20650Y38115
X12800Y13500
X16000Y13500
X19200Y13500
X19200Y16500
X16000Y16500
X12800Y16500
X69850Y55880
X66040Y55880
X64135Y92075
X87070Y38115
X87070Y21885
X74370Y38115
X74370Y21885
X64135Y88900
T4
X10300Y12000
X21700Y18000
T5
X44000Y5040
X51000Y5040
T6
X57150Y78740
X62000Y6000
X62000Y33000
X14540Y33000
X12000Y6000
X19620Y33000
X17080Y33000
X12000Y33000
X19620Y6000
X17080Y6000
X14540Y6000
X69850Y78740
X67310Y78740
X64770Y78740
X62230Y78740
X59690Y78740
T7
X61595Y92075
X66040Y53340
X71760Y33000
X84460Y33000
X61595Y88900
X71760Y6000
X74300Y6000
X76840Y6000
X79380Y6000
X81920Y6000
X84460Y6000
X87000Y6000
X87000Y33000
X76840Y33000
X81920Y33000
X79380Y33000
X69850Y53340
X74300Y33000
T8
X21000Y79500
X21000Y82000
X21000Y84500
X45000Y80000
X45000Y58000
X47500Y58000
X50000Y58000
X74000Y79500
X74000Y82000
X74000Y84500
X50000Y80000
X47500Y80000
T9
X25400Y91440
X27940Y91440
X64135Y83820
X64135Y86360
X63500Y95250
X63500Y97790
T10
X63270Y2540
X12065Y71120
X14605Y71120
X17145Y71120
X46230Y6350
X48770Y6350
X19685Y71120
X22225Y71120
X57150Y39370
X55880Y41275
X54610Y39370
X24765Y71120
X27305Y71120
X60730Y2540
X77770Y2540
X17780Y2540
X20320Y2540
X31750Y2540
X34290Y2540
X75230Y2540
X9525Y71120
T11
X53975Y72025
X35830Y86360
X26670Y44720
X26670Y46720
X56880Y96520
X54880Y96520
X70850Y88900
X68850Y88900
X53975Y74025
X8890Y63770
X8890Y65770
X34655Y93345
X32655Y93345
X39370Y79010
X39370Y81010
X37830Y86360
X50000Y2540
X45000Y2540
X33020Y81010
X33020Y79010
T12
X62865Y63500
X62865Y66040
X77470Y71120
X79375Y64770
X84455Y64770
X86360Y68580
X86360Y71120
X77470Y68580
T13
X32980Y52070
X27980Y52070
X32980Y55880
X27980Y55880
T14
X60350Y7722
X73355Y52832
X73355Y56693
X75387Y63398
X52426Y66040
X56617Y73939
X29845Y70485
X67869Y58318
X69088Y61366
X67259Y56896
X69901Y61773
X72949Y66446
X66415Y59842
X53975Y78105
X68326Y66624
X62865Y59055
X62865Y61595
X85141Y57302
X71933Y58725
X70714Y69698
X70714Y67056
X72949Y8331
X49174Y813
X64008Y1219
X71323Y1219
X61773Y813
X66675Y69850
M30