G04 EAGLE Gerber X2 export*
%TF.Part,Single*%
%TF.FileFunction,Soldermask,Top,1*%
%TF.FilePolarity,Positive*%
%TF.GenerationSoftware,Autodesk,EAGLE,9.2.0*%
%TF.CreationDate,2018-10-30T14:00:18Z*%
G75*
%MOMM*%
%FSLAX34Y34*%
%LPD*%
%INSoldermask Top*%
%IPPOS*%
%AMOC8*
5,1,8,0,0,1.08239X$1,22.5*%
G01*
%ADD10R,1.451600X1.451600*%
%ADD11C,1.451600*%
%ADD12R,1.101600X1.201600*%
%ADD13C,1.752600*%
%ADD14R,1.901600X1.701600*%
%ADD15C,1.244600*%
%ADD16R,1.701600X1.901600*%
%ADD17C,1.509600*%
%ADD18R,1.509600X1.509600*%
%ADD19R,0.711200X2.311400*%
%ADD20C,1.981200*%
%ADD21R,1.701600X2.101600*%
%ADD22R,2.101600X1.701600*%
%ADD23R,1.168400X2.286000*%
%ADD24R,1.981200X1.981200*%
%ADD25P,3.357141X8X22.500000*%
%ADD26R,1.422400X1.422400*%
%ADD27C,1.422400*%
%ADD28R,2.082800X0.660400*%
%ADD29R,1.371600X0.660400*%
%ADD30R,0.660400X1.371600*%
%ADD31R,1.301600X0.651600*%
%ADD32P,3.357141X8X112.500000*%
%ADD33P,3.357141X8X202.500000*%
%ADD34P,3.357141X8X292.500000*%
%ADD35R,3.201600X0.901600*%
%ADD36R,1.371600X2.641600*%
%ADD37C,2.051600*%
%ADD38R,1.701600X1.101600*%
%ADD39R,6.301600X5.501600*%
%ADD40P,2.446851X8X22.500000*%
%ADD41R,2.501600X2.501600*%
%ADD42R,1.371600X1.371600*%
%ADD43C,1.351600*%
%ADD44C,0.889000*%
%ADD45C,1.270000*%
%ADD46C,1.981200*%
%ADD47C,2.901600*%
%ADD48P,1.539592X8X22.500000*%
%ADD49R,1.821600X0.701600*%
%ADD50R,1.701800X1.270000*%
%ADD51C,1.401600*%


D10*
X88900Y637700D03*
D11*
X88900Y657700D03*
D10*
X393700Y790100D03*
D11*
X393700Y810100D03*
D10*
X330200Y810100D03*
D11*
X330200Y790100D03*
D12*
X844550Y707000D03*
X844550Y690000D03*
X793750Y707000D03*
X793750Y690000D03*
D13*
X628650Y635000D03*
X628650Y660400D03*
D10*
X358300Y863600D03*
D11*
X378300Y863600D03*
D14*
X139700Y649000D03*
X139700Y621000D03*
D15*
X329800Y520700D03*
X279800Y520700D03*
D10*
X326550Y933450D03*
D11*
X346550Y933450D03*
D16*
X280700Y882650D03*
X252700Y882650D03*
X309850Y755650D03*
X337850Y755650D03*
D17*
X279400Y914400D03*
D18*
X254000Y914400D03*
D19*
X247650Y761238D03*
X260350Y761238D03*
X273050Y761238D03*
X285750Y761238D03*
X285750Y813562D03*
X273050Y813562D03*
X260350Y813562D03*
X247650Y813562D03*
D20*
X571500Y796798D02*
X571500Y778002D01*
X596900Y778002D02*
X596900Y796798D01*
X622300Y796798D02*
X622300Y778002D01*
X647700Y778002D02*
X647700Y796798D01*
X673100Y796798D02*
X673100Y778002D01*
X698500Y778002D02*
X698500Y796798D01*
D21*
X252700Y850900D03*
X280700Y850900D03*
X309850Y723900D03*
X337850Y723900D03*
X347950Y685800D03*
X375950Y685800D03*
D22*
X374650Y750600D03*
X374650Y722600D03*
D23*
X439450Y726850D03*
X425450Y682850D03*
X411450Y726850D03*
D21*
X712500Y825500D03*
X684500Y825500D03*
D22*
X317500Y877600D03*
X317500Y849600D03*
X177800Y621000D03*
X177800Y649000D03*
D21*
X278100Y590550D03*
X306100Y590550D03*
D22*
X311150Y395000D03*
X311150Y367000D03*
X139700Y557500D03*
X139700Y585500D03*
X323850Y649000D03*
X323850Y621000D03*
X279400Y649000D03*
X279400Y621000D03*
D23*
X214600Y613000D03*
X228600Y657000D03*
X242600Y613000D03*
D24*
X210000Y845000D03*
X210000Y820000D03*
X210000Y795000D03*
D25*
X140000Y864000D03*
X140000Y776000D03*
D26*
X273050Y711200D03*
D27*
X247650Y717804D02*
X247650Y704596D01*
X222250Y704596D02*
X222250Y717804D01*
X196850Y717804D02*
X196850Y704596D01*
X171450Y704596D02*
X171450Y717804D01*
X146050Y717804D02*
X146050Y704596D01*
X120650Y704596D02*
X120650Y717804D01*
X95250Y717804D02*
X95250Y704596D01*
D28*
X240538Y527050D03*
X240538Y539750D03*
X240538Y552450D03*
X240538Y565150D03*
X191262Y565150D03*
X191262Y552450D03*
X191262Y539750D03*
X191262Y527050D03*
D29*
X741426Y613350D03*
X741426Y621350D03*
X741426Y629350D03*
X741426Y637350D03*
X741426Y645350D03*
X741426Y653350D03*
X741426Y661350D03*
X741426Y669350D03*
D30*
X726500Y684276D03*
X718500Y684276D03*
X710500Y684276D03*
X702500Y684276D03*
X694500Y684276D03*
X686500Y684276D03*
X678500Y684276D03*
X670500Y684276D03*
D29*
X655574Y669350D03*
X655574Y661350D03*
X655574Y653350D03*
X655574Y645350D03*
X655574Y637350D03*
X655574Y629350D03*
X655574Y621350D03*
X655574Y613350D03*
D30*
X670500Y598424D03*
X678500Y598424D03*
X686500Y598424D03*
X694500Y598424D03*
X702500Y598424D03*
X710500Y598424D03*
X718500Y598424D03*
X726500Y598424D03*
D13*
X793750Y647700D03*
X844550Y647700D03*
D31*
X546401Y631850D03*
X546401Y641350D03*
X546401Y650850D03*
X520399Y650850D03*
X520399Y631850D03*
X520399Y641350D03*
D14*
X495300Y614650D03*
X495300Y642650D03*
D22*
X571500Y582900D03*
X571500Y610900D03*
X603250Y582900D03*
X603250Y610900D03*
X800100Y532100D03*
X800100Y560100D03*
X831850Y532100D03*
X831850Y560100D03*
X863600Y532100D03*
X863600Y560100D03*
X768350Y532100D03*
X768350Y560100D03*
D24*
X450000Y580000D03*
X475000Y580000D03*
X500000Y580000D03*
D32*
X431000Y510000D03*
X519000Y510000D03*
D24*
X740000Y795000D03*
X740000Y820000D03*
X740000Y845000D03*
D33*
X810000Y776000D03*
X810000Y864000D03*
D24*
X500000Y800000D03*
X475000Y800000D03*
X450000Y800000D03*
D34*
X519000Y870000D03*
X431000Y870000D03*
D22*
X266700Y367000D03*
X266700Y395000D03*
X895350Y532100D03*
X895350Y560100D03*
D35*
X430700Y317400D03*
X430700Y285400D03*
X430700Y263400D03*
X430700Y241400D03*
X483700Y317400D03*
X483700Y285400D03*
X483700Y263400D03*
X483700Y241400D03*
D36*
X571500Y327100D03*
X546100Y327100D03*
X546100Y257100D03*
X571500Y257100D03*
D22*
X615950Y464850D03*
X615950Y436850D03*
X654050Y436850D03*
X654050Y464850D03*
X692150Y436850D03*
X692150Y464850D03*
D37*
X89250Y218850D02*
X69750Y218850D01*
X69750Y381150D02*
X89250Y381150D01*
X196750Y218850D02*
X216250Y218850D01*
X216250Y381150D02*
X196750Y381150D01*
X860950Y381150D02*
X880450Y381150D01*
X880450Y218850D02*
X860950Y218850D01*
X753450Y381150D02*
X733950Y381150D01*
X733950Y218850D02*
X753450Y218850D01*
D16*
X684500Y850900D03*
X712500Y850900D03*
D10*
X688500Y889000D03*
D11*
X708500Y889000D03*
D10*
X548800Y965200D03*
D11*
X568800Y965200D03*
D14*
X603250Y979200D03*
X603250Y951200D03*
D17*
X641350Y838200D03*
D18*
X641350Y863600D03*
D17*
X635000Y952500D03*
D18*
X635000Y977900D03*
D38*
X663200Y975300D03*
X663200Y929700D03*
D39*
X736200Y952500D03*
D10*
X266700Y467200D03*
D11*
X266700Y447200D03*
D21*
X544800Y209550D03*
X572800Y209550D03*
D15*
X329800Y558800D03*
X279800Y558800D03*
D16*
X557500Y889000D03*
X585500Y889000D03*
X557500Y863600D03*
X585500Y863600D03*
X557500Y838200D03*
X585500Y838200D03*
D14*
X615950Y864900D03*
X615950Y836900D03*
D40*
X660400Y533400D03*
X698500Y533400D03*
D20*
X870000Y339398D02*
X870000Y320602D01*
X844600Y320602D02*
X844600Y339398D01*
X819200Y339398D02*
X819200Y320602D01*
X793800Y320602D02*
X793800Y339398D01*
X768400Y339398D02*
X768400Y320602D01*
X743000Y320602D02*
X743000Y339398D01*
X717600Y339398D02*
X717600Y320602D01*
D40*
X615950Y920750D03*
X615950Y889000D03*
D41*
X435200Y355600D03*
X479200Y355600D03*
D42*
X762000Y914400D03*
X762000Y889000D03*
D37*
X128000Y135000D02*
X128000Y115500D01*
X160000Y115500D02*
X160000Y135000D01*
X192000Y135000D02*
X192000Y115500D01*
X192000Y165000D02*
X192000Y184500D01*
X160000Y184500D02*
X160000Y165000D01*
X128000Y165000D02*
X128000Y184500D01*
D43*
X103000Y120000D03*
X217000Y180000D03*
D44*
X500000Y25400D03*
X450000Y25400D03*
D45*
X440000Y50400D03*
X510000Y50400D03*
D46*
X177800Y25400D03*
X203200Y25400D03*
X317500Y25400D03*
X342900Y25400D03*
X607300Y25400D03*
X632700Y25400D03*
X752300Y25400D03*
X777700Y25400D03*
D20*
X870000Y50602D02*
X870000Y69398D01*
X844600Y69398D02*
X844600Y50602D01*
X819200Y50602D02*
X819200Y69398D01*
X793800Y69398D02*
X793800Y50602D01*
X768400Y50602D02*
X768400Y69398D01*
X743000Y69398D02*
X743000Y50602D01*
X717600Y50602D02*
X717600Y69398D01*
D22*
X730250Y436850D03*
X730250Y464850D03*
D20*
X120000Y339398D02*
X120000Y320602D01*
X145400Y320602D02*
X145400Y339398D01*
X170800Y339398D02*
X170800Y320602D01*
X196200Y320602D02*
X196200Y339398D01*
X120000Y69398D02*
X120000Y50602D01*
X145400Y50602D02*
X145400Y69398D01*
X170800Y69398D02*
X170800Y50602D01*
X196200Y50602D02*
X196200Y69398D01*
D46*
X462300Y63500D03*
X487700Y63500D03*
D47*
X140000Y960000D03*
X810000Y960000D03*
D20*
X620000Y69398D02*
X620000Y50602D01*
X620000Y320602D02*
X620000Y339398D01*
D16*
X585500Y920750D03*
X557500Y920750D03*
D48*
X571500Y393700D03*
X558800Y412750D03*
X546100Y393700D03*
D13*
X774700Y711200D03*
X774700Y685800D03*
X863600Y711200D03*
X863600Y685800D03*
D21*
X547400Y679450D03*
X519400Y679450D03*
D12*
X603250Y639200D03*
X603250Y656200D03*
D47*
X330000Y210000D03*
X620000Y210000D03*
D49*
X635000Y698500D03*
X635000Y711200D03*
X635000Y723900D03*
X635000Y736600D03*
X584200Y736600D03*
X584200Y723900D03*
X584200Y711200D03*
X584200Y698500D03*
D10*
X539750Y740250D03*
D11*
X539750Y720250D03*
D50*
X476250Y676910D03*
X476250Y692150D03*
X476250Y707390D03*
D51*
X641350Y889000D03*
X641350Y920750D03*
X660400Y558800D03*
X698500Y558800D03*
M02*
